<svg width="54" height="55" viewBox="0 0 54 55" fill="none" xmlns="http://www.w3.org/2000/svg">
<path d="M50.4618 13.75C49.5732 13.75 48.7233 14.0818 48.0688 14.6844C47.4142 15.287 47.0121 16.1078 46.9365 16.9955L45.906 29.094C45.749 29.0731 45.5896 29.0623 45.4286 29.0623C44.4711 29.0623 43.5709 29.4362 42.8939 30.1149L39.7747 33.2423C39.0462 33.9727 38.0775 34.375 37.0473 34.375H37.022C36.1735 34.375 35.3458 34.54 34.5619 34.8656C33.778 35.1911 33.0763 35.6612 32.4764 36.2628L27.6492 41.1025C27.4052 41.3472 27.1884 41.613 27 41.8977C26.8116 41.613 26.5948 41.3472 26.3508 41.1025L21.5236 36.2628C20.9236 35.6612 20.2219 35.1911 19.438 34.8656C18.6541 34.54 17.8264 34.375 16.9779 34.375H16.9527C15.9224 34.375 14.9538 33.9727 14.2253 33.2423L11.1061 30.1149C10.429 29.4361 9.52888 29.0623 8.57141 29.0623C8.41037 29.0623 8.25101 29.0731 8.094 29.094L7.06349 16.9955C6.98788 16.1078 6.58576 15.287 5.93123 14.6844C5.27668 14.0818 4.4268 13.75 3.53816 13.75C1.5872 13.75 0 15.3413 0 17.2973V38.1811C0 38.8617 0.131715 39.5256 0.391491 40.1543C0.651246 40.7831 1.02633 41.3459 1.50631 41.8271L11.4979 51.8448C11.8217 52.1694 12 52.601 12 53.0601V54.1406C12 54.6152 12.3838 55 12.8571 55C13.3305 55 13.7143 54.6152 13.7143 54.1406V53.0601C13.7143 52.1419 13.3576 51.2786 12.7101 50.6294L2.71847 40.6118C2.0709 39.9625 1.71427 39.0993 1.71427 38.1811V17.2973C1.71427 16.289 2.53245 15.4687 3.53816 15.4687C4.49294 15.4687 5.27419 16.1879 5.35543 17.1417L6.43127 29.7724C6.29294 29.8761 6.16106 29.9903 6.03676 30.115C4.63917 31.5162 4.63917 33.7962 6.03676 35.1975L13.5368 42.717C13.8715 43.0526 14.4142 43.0526 14.7489 42.717C15.0837 42.3814 15.0837 41.8373 14.7489 41.5017L7.24894 33.9822C6.51974 33.251 6.51974 32.0614 7.24894 31.3303C7.60219 30.9761 8.07184 30.7811 8.57141 30.7811C9.07098 30.7811 9.54064 30.9761 9.89388 31.3303L13.0131 34.4576C13.5331 34.979 14.1412 35.3864 14.8206 35.6685C15.5 35.9507 16.2173 36.0937 16.9527 36.0937H16.9779C18.2372 36.0937 19.421 36.5854 20.3114 37.4781L25.1386 42.3179C25.7862 42.9671 26.1428 43.8304 26.1428 44.7485V54.1406C26.1428 54.6152 26.5266 55 27 55C27.4734 55 27.8571 54.6152 27.8571 54.1406V44.7485C27.8571 43.8304 28.2138 42.9671 28.8613 42.3179L33.6885 37.4781C34.579 36.5854 35.7628 36.0937 37.022 36.0937H37.0473C37.7826 36.0937 38.5 35.9507 39.1794 35.6685C39.8588 35.3864 40.4669 34.979 40.9869 34.4576L44.1061 31.3303C44.4593 30.9761 44.929 30.7811 45.4286 30.7811C45.9281 30.7811 46.3978 30.9761 46.751 31.3303C47.4802 32.0614 47.4802 33.251 46.7511 33.9822L39.2511 41.5017C38.9163 41.8373 38.9163 42.3814 39.2511 42.717C39.5858 43.0526 40.1285 43.0526 40.4632 42.717L47.9632 35.1975C49.3608 33.7962 49.3608 31.5162 47.9632 30.115C47.8389 29.9903 47.707 29.8761 47.5687 29.7724L48.6445 17.1417C48.7258 16.188 49.507 15.4687 50.4618 15.4687C51.4675 15.4687 52.2857 16.289 52.2857 17.2973V38.1811C52.2857 39.0993 51.9291 39.9625 51.2815 40.6118L41.2899 50.6294C40.6423 51.2786 40.2857 52.1419 40.2857 53.0601V54.1406C40.2857 54.6152 40.6694 55 41.1428 55C41.6162 55 42 54.6152 42 54.1406V53.0601C42 52.6009 42.1783 52.1694 42.5021 51.8447L52.4937 41.8271C52.9737 41.3459 53.3487 40.7831 53.6085 40.1543C53.8683 39.5256 54 38.8617 54 38.1811V17.2973C54 15.3413 52.4128 13.75 50.4618 13.75Z" fill="#113C7B"/>
<path d="M30.8571 21.4844C29.8715 21.4844 28.9138 21.7657 28.0875 22.298C27.6812 22.5597 27.3157 22.8758 27 23.2359C26.6843 22.8758 26.3188 22.5597 25.9124 22.298C25.0862 21.7657 24.1285 21.4844 23.1428 21.4844C21.7691 21.4844 20.4777 22.0207 19.5063 22.9946C18.5349 23.9685 18 25.2633 18 26.6406C18 27.9869 18.4752 29.3968 19.4125 30.8311C20.1288 31.9272 21.1195 33.0459 22.357 34.1561C24.4346 36.0198 26.4843 37.2171 26.5705 37.2672C26.7033 37.3443 26.8517 37.3828 27 37.3828C27.1483 37.3828 27.2966 37.3443 27.4294 37.2672C27.5157 37.2171 29.5654 36.0198 31.6429 34.1561C32.8805 33.0459 33.8712 31.9272 34.5875 30.8311C35.5248 29.3968 36 27.9869 36 26.6406C36 25.2633 35.465 23.9685 34.4937 22.9946C33.5223 22.0207 32.2308 21.4844 30.8571 21.4844ZM30.5212 32.856C29.1156 34.1202 27.6909 35.0768 26.9997 35.5154C26.313 35.08 24.9027 34.1334 23.5001 32.8752C21.773 31.3259 19.7143 28.9866 19.7143 26.6406C19.7143 24.7452 21.2523 23.2031 23.1428 23.2031C24.4673 23.2031 25.6495 23.9494 26.2281 25.1508C26.3711 25.4477 26.6711 25.6365 27 25.6365C27.3289 25.6365 27.6288 25.4477 27.7718 25.1508C28.3505 23.9494 29.5327 23.2031 30.8571 23.2031C32.7477 23.2031 34.2857 24.7452 34.2857 26.6406C34.2857 28.9794 32.2385 31.3115 30.5212 32.856Z" fill="#113C7B"/>
<path d="M15.6453 27.6602C15.8528 27.6602 16.0609 27.5851 16.2256 27.4331C16.5739 27.1117 16.5964 26.5681 16.2758 26.2188C13.989 23.7278 12.6493 20.5484 12.4536 17.1875H17.5845C17.6158 18.2496 17.705 19.3016 17.8514 20.3252C17.9126 20.7537 18.2792 21.0628 18.6987 21.0628C18.7392 21.0628 18.7802 21.0599 18.8214 21.054C19.29 20.9866 19.6155 20.5512 19.5483 20.0814C19.4134 19.1378 19.3303 18.1677 19.2995 17.1875H26.143V19.7656C26.143 20.2402 26.5267 20.625 27.0001 20.625C27.4735 20.625 27.8572 20.2402 27.8572 19.7656V17.1875H34.7008C34.6746 18.0229 34.6102 18.8518 34.5083 19.6611C34.4491 20.132 34.7817 20.5619 35.2514 20.6213C35.7209 20.6808 36.1498 20.3472 36.2091 19.8763C36.3199 18.9962 36.389 18.0951 36.4159 17.1875H41.5465C41.3518 20.5276 40.026 23.6917 37.7638 26.1758C37.4446 26.5263 37.4692 27.0698 37.8188 27.3899C38.1684 27.7099 38.7105 27.6852 39.0297 27.3347C41.7743 24.321 43.2858 20.4121 43.2858 16.3281C43.2858 14.1242 42.8551 11.9858 42.0056 9.97222C41.1854 8.02778 40.0112 6.28167 38.5158 4.78241C37.0205 3.28314 35.2789 2.10592 33.3395 1.2835C31.3312 0.431816 29.1983 0 27.0001 0C24.8019 0 22.669 0.431816 20.6607 1.2835C18.7213 2.10592 16.9797 3.28314 15.4844 4.78241C13.989 6.28167 12.8148 8.02778 11.9945 9.97222C11.1451 11.9858 10.7144 14.1242 10.7144 16.3281C10.7144 20.4362 12.2415 24.3621 15.0144 27.3828C15.1834 27.5669 15.414 27.6602 15.6453 27.6602ZM19.2992 15.4688C19.4128 11.8055 20.2509 8.40173 21.6885 5.80742C22.9354 3.55704 24.4923 2.16984 26.143 1.81165V15.4688H19.2992ZM27.8572 1.81165C29.5079 2.16986 31.0648 3.55706 32.3117 5.80744C33.7493 8.40175 34.5874 11.8055 34.701 15.4688H27.8572V1.81165ZM41.5463 15.4688H36.416C36.3 11.5146 35.3852 7.8149 33.8103 4.97272C33.3311 4.10794 32.804 3.34621 32.234 2.69337C37.437 4.70787 41.2071 9.63405 41.5463 15.4688ZM21.7662 2.69337C21.1962 3.34621 20.6691 4.10796 20.1899 4.97272C18.615 7.8149 17.7002 11.5146 17.5842 15.4688H12.4539C12.7931 9.63405 16.5632 4.70787 21.7662 2.69337Z" fill="#113C7B"/>
</svg>
