<svg width="52" height="54" viewBox="0 0 52 54" fill="none" xmlns="http://www.w3.org/2000/svg">
<path d="M37.169 53.9993C36.7788 53.9993 36.3907 53.971 36.0064 53.9128C32.3455 53.3612 30.3839 52.4937 28.951 51.8603C27.8266 51.3635 27.0836 51.0347 26.0002 51.0347C24.9169 51.0347 24.1739 51.3635 23.0494 51.8603C21.617 52.4941 19.6551 53.3616 15.994 53.9128C12.2991 54.474 8.23545 52.278 6.33863 48.6995C4.69888 45.6065 5.08693 42.2681 7.3768 39.7687C10.466 36.4006 12.0594 34.5362 14.3563 30.8164C14.7859 30.1205 15.1777 29.4206 15.5612 28.7359C17.5766 25.1362 19.6613 21.4138 26.0002 21.4138C32.3392 21.4138 34.4238 25.1361 36.4393 28.7359C36.8228 29.4205 37.2146 30.121 37.6442 30.8164C39.9411 34.5362 41.5344 36.4009 44.6233 39.7683C46.9131 42.2681 47.3016 45.6064 45.6619 48.6995C43.9624 51.9056 40.5256 53.9993 37.169 53.9993ZM36.2821 52.0718C39.6234 52.5773 42.7014 50.3165 44.0216 47.8258C45.294 45.4257 45.0146 42.9483 43.2562 41.0283C40.1558 37.648 38.4352 35.6353 36.0653 31.7966C35.6212 31.0783 35.2162 30.3555 34.8203 29.6476C32.8269 26.0878 31.2522 23.2762 26.0007 23.2762C20.7489 23.2762 19.1747 26.0878 17.1812 29.6476C16.7848 30.3555 16.3797 31.0783 15.9361 31.7966C13.5663 35.6353 11.8456 37.648 8.74519 41.0287C6.98646 42.9483 6.70742 45.4257 7.97983 47.8258C9.30031 50.3169 12.3822 52.5707 15.7193 52.0718C19.134 51.5572 20.8899 50.7808 22.3008 50.1569C23.4949 49.6285 24.5264 49.1725 26.0011 49.1725C27.476 49.1725 28.5074 49.6285 29.7015 50.1569C31.1124 50.7808 32.8687 51.5572 36.283 52.0718H36.2821Z" fill="#113C7B"/>
<path d="M18.3366 16.6092C15.2001 16.6092 12.1777 13.7453 11.2921 9.70362C10.3036 5.18982 12.3472 0.890983 15.8486 0.120239C19.3425 -0.653324 23.0022 2.39352 23.9911 6.90614V6.90656C24.9795 11.4199 22.9359 15.7188 19.4345 16.4895C19.0693 16.5702 18.7024 16.6092 18.3366 16.6092ZM16.9692 1.8605C16.7279 1.8605 16.4866 1.88586 16.2466 1.93865C13.746 2.48983 12.3373 5.79365 13.1059 9.30397C13.875 12.8139 16.5298 15.2198 19.0365 14.6712C21.537 14.12 22.9458 10.8162 22.1771 7.30629C21.4814 4.13308 19.2404 1.8605 16.9692 1.8605Z" fill="#113C7B"/>
<path d="M7.48069 28.7509C6.18632 28.7509 4.87571 28.2737 3.68291 27.3496C2.13689 26.1516 0.965214 24.3298 0.383888 22.219C-0.843297 17.7654 0.969725 13.3634 4.42547 12.4066C6.14694 11.9315 7.99228 12.3596 9.6176 13.6183C11.1636 14.8163 12.3353 16.6382 12.9166 18.749C13.4979 20.8598 13.4253 23.0262 12.7118 24.8498C11.9614 26.7661 10.599 28.0845 8.87539 28.5613C8.41684 28.6881 7.95041 28.7509 7.48104 28.7509L7.48069 28.7509ZM5.81027 14.0809C5.50843 14.0809 5.21034 14.1204 4.91969 14.201C2.45195 14.8844 1.2202 18.2588 2.17418 21.7231C2.64933 23.4481 3.58839 24.9225 4.81897 25.8753C5.97037 26.7673 7.23651 27.0833 8.3809 26.7661C9.52689 26.4489 10.451 25.5262 10.9826 24.1685C11.5502 22.7178 11.6016 20.9687 11.1265 19.2437C10.6513 17.5186 9.71226 16.0443 8.48168 15.0915C7.6222 14.426 6.69961 14.0809 5.81027 14.0809Z" fill="#113C7B"/>
<path d="M33.6632 16.6092C33.2975 16.6092 32.931 16.5702 32.5653 16.4895C29.0639 15.7189 27.0203 11.4199 28.0087 6.90657V6.90616C28.9971 2.39322 32.6465 -0.654112 36.1512 0.12025C39.6525 0.890908 41.6961 5.18983 40.7078 9.7032C39.8221 13.7447 36.7993 16.6092 33.6632 16.6092ZM29.8226 7.30604C29.0539 10.8164 30.4628 14.1201 32.9633 14.6714C35.4626 15.2213 38.1239 12.8142 38.8938 9.30383C39.6625 5.79393 38.2537 2.49015 35.7532 1.93893C33.2523 1.38733 30.5917 3.79572 29.8226 7.30647V7.30604Z" fill="#113C7B"/>
<path d="M44.5191 28.7509C44.0498 28.7509 43.5834 28.6881 43.1248 28.5613C41.4013 28.0846 40.0389 26.766 39.2884 24.8498C38.5744 23.0262 38.5018 20.8597 39.0835 18.749C39.6648 16.6382 40.8365 14.8163 42.3826 13.6183C44.0082 12.3596 45.8524 11.9314 47.5747 12.4066C51.0301 13.3635 52.8431 17.7654 51.6163 22.2189C51.035 24.3297 49.8633 26.1516 48.3172 27.3496C47.124 28.2737 45.8134 28.7508 44.5195 28.7508L44.5191 28.7509ZM46.1895 14.0809C45.3002 14.0809 44.3773 14.4255 43.5182 15.0914C42.2881 16.0441 41.3489 17.5185 40.8734 19.2436C40.3983 20.9686 40.4493 22.7174 41.0173 24.1685C41.5488 25.5261 42.473 26.4484 43.619 26.766C44.7646 27.0831 46.03 26.7672 47.1809 25.8752C48.4111 24.9225 49.3502 23.448 49.8257 21.723C50.7797 18.2587 49.5484 14.8843 47.0802 14.2009C46.7896 14.1203 46.4914 14.0809 46.1895 14.0809Z" fill="#113C7B"/>
</svg>
