<svg width="41" height="54" viewBox="0 0 41 54" fill="none" xmlns="http://www.w3.org/2000/svg">
<path d="M40.6199 0.216867C40.4363 0.0691002 40.2065 0.0181529 39.9121 0L13.2232 5.49171C12.7513 5.59157 12.4113 6.00714 12.4113 6.47718V41.9528C11.0633 40.5639 9.21585 39.7807 7.2304 39.7807C3.24466 39.7807 0 42.9711 0 46.8934C0 50.8125 3.24466 54 7.2304 54C11.2161 54 14.4578 50.8096 14.4578 46.8934L14.4583 16.5331L38.9505 11.469V36.4764C37.6025 35.0874 35.7582 34.3072 33.7726 34.3072C29.7837 34.3072 26.5391 37.4947 26.5391 41.4108C26.5391 45.3331 29.7837 48.5204 33.7726 48.5204C37.7584 48.5204 41 45.33 41 41.4108V0.999289C41 0.692149 40.862 0.405678 40.6199 0.216053L40.6199 0.216867ZM38.9499 2.23822V9.41391L14.459 14.4694V7.29315L38.9499 2.23822ZM7.23069 51.9909C4.37535 51.9909 2.05284 49.7042 2.05284 46.8966C2.05284 44.089 4.37535 41.7993 7.23069 41.7993C10.0892 41.7993 12.4116 44.089 12.4116 46.8966C12.4116 49.7042 10.0866 51.9909 7.23069 51.9909ZM33.7725 46.5077C30.914 46.5077 28.5917 44.221 28.5917 41.4134C28.5917 38.6058 30.9172 36.3191 33.7725 36.3191C36.6279 36.3191 38.9504 38.6058 38.9504 41.4134C38.9504 44.2216 36.6284 46.5077 33.7725 46.5077Z" fill="#113C7B"/>
</svg>
