<svg width="54" height="54" viewBox="0 0 54 54" fill="none" xmlns="http://www.w3.org/2000/svg">
<path d="M35.497 23.0402C33.1868 20.7271 29.5484 20.5253 27.0016 22.4232C24.4547 20.5252 20.8163 20.7272 18.5062 23.0402C15.965 25.5783 15.965 29.7028 18.5062 32.2409L26.2854 40.0109C26.6784 40.4034 27.3193 40.4034 27.7118 40.0109L35.4911 32.2409C38.0322 29.7028 38.0322 25.5783 35.4911 23.0402H35.497ZM34.0706 30.8102L27.0014 37.871L19.9322 30.8102C18.1821 29.0621 18.1821 26.2129 19.9322 24.4649C20.8099 23.5883 21.9592 23.1556 23.1086 23.1556C24.258 23.1556 25.4074 23.5939 26.285 24.4649C26.678 24.8573 27.3189 24.8573 27.7114 24.4649C29.4616 22.7168 32.3141 22.7168 34.0643 24.4649C35.8145 26.2129 35.8145 29.0621 34.0643 30.8102H34.0706Z" fill="#113C7B"/>
<path d="M50.6159 46.933H47.4797V23.0521L48.034 23.4502C49.761 24.6672 52.0943 24.2403 53.2952 22.5849V22.5793C54.5024 20.8889 54.1094 18.53 52.4176 17.3186L45.8801 12.6405V1.06847C45.8801 0.509131 45.4294 0.0589906 44.8694 0.0589906H35.8196C35.2596 0.0589906 34.8089 0.509144 34.8089 1.06847V4.72577L29.1893 0.705353C27.8785 -0.235118 26.1108 -0.235118 24.8 0.705353L1.57701 17.3186C-0.109133 18.5244 -0.502123 20.8838 0.705031 22.5793C1.91786 24.2634 4.28009 24.6559 5.97191 23.4445L6.52057 23.0521V46.933H3.38431C1.51863 46.933 0 48.4503 0 50.3133V50.6192C0 52.4827 1.51916 53.9995 3.38431 53.9995L50.6157 54C52.4814 54 54 52.4827 54 50.6197V50.3138C54 48.4503 52.4808 46.9335 50.6157 46.9335L50.6159 46.933ZM36.8356 2.07713H43.864V11.1914L36.8356 6.16717V2.07713ZM4.79309 21.8048C4.00774 22.3703 2.91038 22.1854 2.34987 21.4066C1.78986 20.6165 1.9688 19.5205 2.75415 18.9606L25.9824 2.34209C26.5831 1.90946 27.4031 1.90379 28.0151 2.34209L51.2433 18.9554C52.0287 19.5147 52.2076 20.6108 51.6533 21.4014C51.1103 22.1513 49.9728 22.3418 49.2044 21.8051C47.0788 20.2878 30.8855 8.69937 27.5866 6.34029C27.2865 6.12706 26.7781 6.07504 26.4084 6.34029L4.79309 21.8048ZM8.54148 21.6085L26.9989 8.39832C38.5094 16.636 39.7626 17.5471 45.4564 21.6085V46.9319H8.54016L8.54148 21.6085ZM51.9776 50.6185C51.9776 51.3684 51.3655 51.9797 50.6148 51.9797H3.38337C2.63257 51.9797 2.02051 51.3684 2.02051 50.6185V50.3125C2.02051 49.5626 2.6326 48.9513 3.38337 48.9513H50.62C51.3708 48.9513 51.9829 49.5627 51.9829 50.3125V50.6185H51.9776Z" fill="#113C7B"/>
</svg>
