<svg width="54" height="47" viewBox="0 0 54 47" fill="none" xmlns="http://www.w3.org/2000/svg">
<path d="M42.3132 46.9996H11.6867C11.1945 46.9996 10.7965 46.6003 10.7965 46.1073L10.7961 26.0587L10.1487 26.6921C9.90214 26.9329 9.53845 27.0103 9.21451 26.8884C7.86934 26.3832 2.01587 20.4565 0.254359 18.6521C0.00115115 18.3932 -0.0704086 18.0061 0.0731397 17.6728C0.977983 15.5802 7.67227 7.57763 9.00521 5.99423C12.584 1.74328 20.2197 0.0881171 20.5433 0.0201157C20.7852 -0.0303205 21.0359 0.0205361 21.238 0.163435C22.479 1.0364 24.6323 1.55843 26.9998 1.55843C29.3673 1.55843 31.5202 1.03683 32.7616 0.163435C32.9633 0.0205354 33.2157 -0.0307455 33.4571 0.0201157C33.7798 0.0882043 41.4162 1.74339 44.9952 5.99423C46.8673 8.21805 53.0447 15.6339 53.9269 17.6728C54.0704 18.0061 53.9989 18.3928 53.7457 18.6521C51.9837 20.4569 46.1307 26.3835 44.7855 26.8884C44.4616 27.0103 44.0979 26.9329 43.8514 26.6921L43.2039 26.0587V46.1073C43.2039 46.6007 42.8055 47 42.3137 47L42.3132 46.9996ZM12.576 45.215H41.4228V23.9409C41.4228 23.5819 41.6363 23.2575 41.9669 23.1183C42.2963 22.9792 42.678 23.0515 42.9337 23.3028L44.5956 24.9273C45.8646 23.9522 49.0813 20.8567 52.0156 17.8692C50.8806 15.9933 47.1365 11.3062 43.6331 7.14563C40.8533 3.84412 34.9404 2.218 33.4391 1.84862C31.8792 2.80187 29.5627 3.34282 26.9989 3.34282C24.4351 3.34282 22.1185 2.8019 20.5587 1.84862C19.0575 2.21807 13.1447 3.84423 10.3648 7.14563C6.86219 11.3062 3.11759 15.9933 1.98221 17.8692C4.91436 20.8529 8.12614 23.9447 9.40348 24.9261L11.0642 23.3028C11.3203 23.0515 11.702 22.9792 12.031 23.1183C12.3616 23.2575 12.5759 23.5824 12.5759 23.9409L12.576 45.215Z" fill="#113C7B"/>
<path d="M26.9994 8.67563C24.4987 8.67563 22.5954 7.9338 21.3422 6.46859C19.3538 4.14396 19.826 0.894524 19.8468 0.757122C19.8937 0.452407 20.0942 0.193077 20.3779 0.0720299C20.6613 -0.0490169 20.9865 -0.0153928 21.2384 0.162815C22.4793 1.03578 24.6327 1.55781 27.0002 1.55781C29.3678 1.55781 31.5206 1.03621 32.7619 0.162815C33.0139 -0.0153874 33.3391 -0.0498615 33.6224 0.0720299C33.9062 0.193077 34.1066 0.452407 34.1535 0.757122C34.1753 0.894976 34.6474 4.14396 32.6581 6.46859C31.4034 7.93374 29.5 8.67563 26.9994 8.67563ZM21.5892 2.37366C21.6616 3.25629 21.9223 4.41134 22.7008 5.3158C23.6014 6.36108 25.0474 6.89156 26.999 6.89156C28.9514 6.89156 30.3974 6.36114 31.2972 5.3158C32.076 4.41132 32.336 3.25671 32.4088 2.37366C30.936 2.99781 29.0463 3.34246 26.9986 3.34246C24.9516 3.34246 23.0624 2.99865 21.5892 2.37366Z" fill="#113C7B"/>
<path d="M44.4721 26.9456C44.2436 26.9456 44.0196 26.8578 43.8506 26.6918L41.691 24.5797C41.5194 24.412 41.4228 24.1813 41.4228 23.9409L41.4232 10.2664C41.4232 10.1138 41.4525 6.54037 44.0464 5.71908C44.3871 5.61107 44.7621 5.71908 44.9944 5.99438C46.8664 8.2182 53.0438 15.634 53.926 17.673C54.0696 18.0063 53.998 18.393 53.7448 18.6523C51.9828 20.457 46.1298 26.3837 44.7846 26.8885C44.6825 26.9268 44.5771 26.9456 44.4721 26.9456ZM43.2031 23.5651L44.5946 24.9265C45.8728 23.9451 49.0845 20.8534 52.0159 17.8696C50.9311 16.0757 47.4624 11.716 44.0995 7.70037C43.247 8.46448 43.2031 10.2457 43.2031 10.2668L43.2031 23.5651Z" fill="#113C7B"/>
<path d="M9.52676 26.9456C9.42171 26.9456 9.31624 26.9271 9.21412 26.8885C7.86938 26.3833 2.01591 20.4566 0.254398 18.6522C0.00119039 18.3933 -0.0703694 18.0062 0.073179 17.6729C0.978022 15.5803 7.6723 7.57772 9.00525 5.99432C9.2367 5.71902 9.6117 5.61059 9.95321 5.71902C12.5464 6.54029 12.5765 10.1142 12.5765 10.2663V23.9408C12.5765 24.1808 12.4794 24.4115 12.3078 24.5797L10.1482 26.6917C9.97915 26.8565 9.75523 26.9451 9.52672 26.9451L9.52676 26.9456ZM1.98291 17.8696C4.91506 20.8533 8.12684 23.9451 9.40419 24.9265L10.7957 23.5651V10.2661C10.7957 10.2476 10.7585 8.46344 9.9001 7.6994C6.53682 11.7149 3.06736 16.076 1.98287 17.8695L1.98291 17.8696Z" fill="#113C7B"/>
<path d="M9.52676 26.9456C9.42171 26.9456 9.31624 26.9271 9.21412 26.8885C7.86938 26.3833 2.01591 20.4566 0.254398 18.6522C0.00119039 18.3933 -0.0703694 18.0062 0.073179 17.6729C0.352754 17.0269 1.15252 15.8358 2.51729 14.0331C2.67508 13.8251 2.91489 13.6969 3.17563 13.6818C3.43259 13.6654 3.68789 13.7667 3.8687 13.9545C5.91275 16.0893 9.03411 19.2773 12.2944 22.3421C12.4744 22.5106 12.5765 22.7464 12.5765 22.9927V23.9409C12.5765 24.1809 12.4794 24.4116 12.3078 24.5797L10.1482 26.6917C9.97915 26.8569 9.75527 26.9456 9.52676 26.9456ZM1.98538 17.8717C4.91624 20.8551 8.12759 23.9455 9.40408 24.9265L10.7956 23.5651V23.3785C7.97524 20.7151 5.28116 17.9869 3.31201 15.9468C2.62061 16.8862 2.21841 17.488 1.98527 17.8718L1.98538 17.8717Z" fill="#113C7B"/>
<path d="M44.4721 26.9456C44.2436 26.9456 44.0196 26.8578 43.8506 26.6918L41.691 24.5797C41.5194 24.412 41.4228 24.1813 41.4228 23.9409L41.4227 22.9927C41.4227 22.7464 41.524 22.5106 41.704 22.342C44.9643 19.2768 48.0856 16.0897 50.1297 13.9545C50.3097 13.7658 50.5625 13.6645 50.8228 13.6817C51.0831 13.6969 51.3233 13.8251 51.4811 14.0331C52.8459 15.8358 53.6457 17.0273 53.9252 17.6729C54.0688 18.0062 53.9972 18.3929 53.744 18.6522C51.9821 20.4569 46.129 26.3836 44.7839 26.8885C44.6826 26.9267 44.5771 26.9456 44.4721 26.9456ZM43.2031 23.5651L44.5946 24.9265C45.872 23.9455 49.0825 20.855 52.0133 17.8717C51.7794 17.4872 51.3772 16.8861 50.6862 15.9471C48.7183 17.9873 46.0234 20.7159 43.2025 23.3789V23.5651L43.2031 23.5651Z" fill="#113C7B"/>
</svg>
