<svg width="58" height="40" viewBox="0 0 58 40" fill="none" xmlns="http://www.w3.org/2000/svg">
<mask id="path-1-outside-1_46082_36989" maskUnits="userSpaceOnUse" x="-0.800049" y="-0.300049" width="59" height="40" fill="black">
<rect fill="white" x="-0.800049" y="-0.300049" width="59" height="40"/>
<path d="M10.327 24.3557C13.6584 24.3557 16.3683 21.7146 16.3683 18.4677C16.3683 15.2208 13.6584 12.5797 10.327 12.5797C6.9955 12.5797 4.28605 15.2208 4.28605 18.4677C4.28605 21.7142 6.9955 24.3557 10.327 24.3557ZM10.327 13.8137C12.9595 13.8137 15.1018 15.9011 15.1018 18.4673C15.1018 21.033 12.96 23.1209 10.327 23.1209C7.69488 23.1209 5.55307 21.0334 5.55307 18.4673C5.55263 15.9016 7.69398 13.8137 10.327 13.8137Z"/>
<path d="M10.327 26.6969C4.90809 26.6969 0.499939 30.9934 0.499939 36.274C0.499939 37.7771 1.75463 38.9991 3.29681 38.9991H17.3569C18.8992 38.9991 20.1538 37.7767 20.1538 36.274C20.1533 30.9936 15.7451 26.6969 10.327 26.6969ZM17.357 37.7646H3.29692C2.45312 37.7646 1.76662 37.0963 1.76662 36.274C1.76662 31.6734 5.60657 27.9305 10.327 27.9305C15.0474 27.9305 18.8878 31.673 18.8878 36.274C18.8869 37.0964 18.2004 37.7646 17.357 37.7646Z"/>
<path d="M29.0003 12.7755C32.3318 12.7755 35.0417 10.1348 35.0417 6.88794C35.0417 3.64149 32.3318 0.999954 29.0003 0.999954C25.6688 0.999954 22.9589 3.64105 22.9589 6.88794C22.9589 10.1348 25.6688 12.7755 29.0003 12.7755ZM29.0003 2.2348C31.6328 2.2348 33.7751 4.32224 33.7751 6.88838C33.7751 9.45364 31.6333 11.5411 29.0003 11.5411C26.3677 11.5411 24.2255 9.45364 24.2255 6.88838C24.2255 4.32224 26.3676 2.2348 29.0003 2.2348Z"/>
<path d="M38.8272 24.6952C38.8272 19.4139 34.4191 15.1177 29.0002 15.1177C23.5813 15.1177 19.1731 19.4139 19.1731 24.6952C19.1731 26.1983 20.4274 27.4211 21.9692 27.4211H36.0293C37.5721 27.4211 38.8272 26.1978 38.8272 24.6952ZM36.0307 26.1866H21.9694C21.1256 26.1866 20.44 25.5176 20.44 24.6952C20.44 20.0955 24.28 16.3522 29.0004 16.3522C33.7208 16.3522 37.5608 20.0946 37.5608 24.6952C37.5603 25.5176 36.8745 26.1866 36.0307 26.1866Z"/>
<path d="M47.6736 24.3557C51.005 24.3557 53.7145 21.7146 53.7145 18.4677C53.7145 15.2208 51.005 12.5797 47.6736 12.5797C44.3421 12.5797 41.6322 15.2208 41.6322 18.4677C41.6322 21.7142 44.343 24.3557 47.6736 24.3557ZM47.6736 13.8137C50.3057 13.8137 52.4475 15.9011 52.4475 18.4673C52.4475 21.033 50.3057 23.1209 47.6736 23.1209C45.041 23.1209 42.8988 21.0334 42.8988 18.4673C42.8988 15.9016 45.0409 13.8137 47.6736 13.8137Z"/>
<path d="M47.6736 26.6969C42.2547 26.6969 37.8461 30.9934 37.8461 36.2749C37.8461 37.778 39.1008 39 40.643 39H54.7031C56.2454 39 57.4999 37.7776 57.4999 36.2749C57.5004 30.9936 53.0925 26.6969 47.6736 26.6969ZM54.7036 37.7646H40.6435C39.7997 37.7646 39.1132 37.0959 39.1132 36.274C39.1132 31.6734 42.9532 27.9305 47.674 27.9305C52.394 27.9314 56.2341 31.6739 56.2341 36.274C56.2341 37.0964 55.5474 37.7646 54.7036 37.7646Z"/>
<path fill-rule="evenodd" clip-rule="evenodd" d="M5.85308 18.4673C5.85308 20.8605 7.8533 22.8209 10.327 22.8209C12.8016 22.8209 14.8018 20.8601 14.8018 18.4673C14.8018 16.0741 12.8012 14.1137 10.327 14.1137C7.8524 14.1137 5.85267 16.0745 5.85308 18.4673ZM38.8272 24.6952C38.8272 24.6607 38.827 24.6262 38.8267 24.5917C38.8259 24.526 38.8245 24.4605 38.8225 24.3952C38.6593 19.2521 34.3161 15.1177 29.0002 15.1177C23.5813 15.1177 19.1731 19.4139 19.1731 24.6952C19.1731 26.1983 20.4274 27.4211 21.9692 27.4211H36.0293C37.5721 27.4211 38.8272 26.1978 38.8272 24.6952ZM39.1272 24.9952H39.1116C38.9568 26.529 37.6276 27.7211 36.0293 27.7211H21.9692C20.2689 27.7211 18.8731 26.3712 18.8731 24.6952C18.8731 19.241 23.4229 14.8177 29.0002 14.8177C34.5774 14.8177 39.1272 19.241 39.1272 24.6952V24.9952ZM16.6684 18.4677C16.6684 21.8875 13.8168 24.6557 10.327 24.6557C6.8371 24.6557 3.98606 21.887 3.98606 18.4677C3.98606 15.0479 6.83711 12.2797 10.327 12.2797C13.8168 12.2797 16.6684 15.0479 16.6684 18.4677ZM5.55307 18.4673C5.55307 21.0334 7.69488 23.1209 10.327 23.1209C12.96 23.1209 15.1018 21.033 15.1018 18.4673C15.1018 15.9011 12.9595 13.8137 10.327 13.8137C7.69398 13.8137 5.55263 15.9016 5.55307 18.4673ZM0.199951 36.274C0.199951 30.8205 4.74974 26.3969 10.327 26.3969C15.9035 26.3969 20.4533 30.8206 20.4538 36.274C20.4538 37.9497 19.0575 39.2991 17.3569 39.2991H3.29682C1.59639 39.2991 0.199951 37.9501 0.199951 36.274ZM3.29693 37.4646H17.357C18.042 37.4646 18.5869 36.9234 18.5878 36.274C18.5878 31.8459 14.889 28.2305 10.327 28.2305C5.76497 28.2305 2.06663 31.8463 2.06663 36.274C2.06663 36.9232 2.61127 37.4646 3.29693 37.4646ZM18.8878 36.274C18.8878 31.673 15.0474 27.9305 10.327 27.9305C5.60657 27.9305 1.76662 31.6734 1.76662 36.274C1.76662 37.0963 2.45312 37.7646 3.29692 37.7646H17.357C18.2004 37.7646 18.8869 37.0964 18.8878 36.274ZM35.3417 6.88794C35.3417 10.3078 32.4901 13.0755 29.0003 13.0755C25.5105 13.0755 22.6589 10.3078 22.6589 6.88794C22.6589 3.46814 25.5105 0.699951 29.0003 0.699951C32.4901 0.699951 35.3417 3.46859 35.3417 6.88794ZM33.4751 6.88838C33.4751 4.49517 31.4745 2.5348 29.0003 2.5348C26.526 2.5348 24.5255 4.49516 24.5255 6.88838C24.5255 9.28067 26.5261 11.2411 29.0003 11.2411C31.475 11.2411 33.4751 9.28069 33.4751 6.88838ZM21.9694 25.8866H36.0307C36.7159 25.8866 37.2604 25.3448 37.2608 24.695C37.2607 20.2675 33.5624 16.6522 29.0004 16.6522C24.4384 16.6522 20.74 20.2684 20.74 24.6952C20.74 25.3449 21.2842 25.8866 21.9694 25.8866ZM37.5608 24.6952C37.5608 20.0946 33.7208 16.3522 29.0004 16.3522C24.28 16.3522 20.44 20.0955 20.44 24.6952C20.44 25.5176 21.1256 26.1866 21.9694 26.1866H36.0307C36.8745 26.1866 37.5603 25.5176 37.5608 24.6952ZM54.0145 18.4677C54.0145 21.8875 51.1635 24.6557 47.6736 24.6557C44.1847 24.6557 41.3322 21.8871 41.3322 18.4677C41.3322 15.0479 44.1838 12.2797 47.6736 12.2797C51.1635 12.2797 54.0145 15.0479 54.0145 18.4677ZM52.1475 18.4673C52.1475 16.074 50.1473 14.1137 47.6736 14.1137C45.1993 14.1137 43.1988 16.0745 43.1988 18.4673C43.1988 20.8605 45.1994 22.8209 47.6736 22.8209C50.1473 22.8209 52.1475 20.8601 52.1475 18.4673ZM37.5461 36.2749C37.5461 30.8205 42.0963 26.3969 47.6736 26.3969C53.2509 26.3969 57.8004 30.8207 57.8 36.2749C57.8 37.9506 56.4037 39.2999 54.7031 39.2999H40.643C38.9425 39.2999 37.5461 37.951 37.5461 36.2749ZM40.6435 37.4646H54.7037C55.3893 37.4646 55.9341 36.9232 55.9341 36.274C55.9341 31.8468 52.2356 28.2313 47.674 28.2305C43.1116 28.2305 39.4132 31.8463 39.4132 36.274C39.4132 36.9228 39.9579 37.4646 40.6435 37.4646ZM29.0003 12.7755C32.3318 12.7755 35.0417 10.1348 35.0417 6.88794C35.0417 3.64149 32.3318 0.999954 29.0003 0.999954C25.6688 0.999954 22.9589 3.64105 22.9589 6.88794C22.9589 10.1348 25.6688 12.7755 29.0003 12.7755ZM29.0003 2.2348C31.6328 2.2348 33.7751 4.32224 33.7751 6.88838C33.7751 9.45364 31.6333 11.5411 29.0003 11.5411C26.3677 11.5411 24.2255 9.45364 24.2255 6.88838C24.2255 4.32224 26.3676 2.2348 29.0003 2.2348ZM16.3683 18.4677C16.3683 21.7146 13.6584 24.3557 10.327 24.3557C6.9955 24.3557 4.28605 21.7142 4.28605 18.4677C4.28605 15.2208 6.9955 12.5797 10.327 12.5797C13.6584 12.5797 16.3683 15.2208 16.3683 18.4677ZM0.499939 36.274C0.499939 30.9934 4.90809 26.6969 10.327 26.6969C15.7451 26.6969 20.1533 30.9936 20.1538 36.274C20.1538 37.7767 18.8992 38.9991 17.3569 38.9991H3.29681C1.75463 38.9991 0.499939 37.7771 0.499939 36.274ZM47.6736 24.3557C51.005 24.3557 53.7145 21.7146 53.7145 18.4677C53.7145 15.2208 51.005 12.5797 47.6736 12.5797C44.3421 12.5797 41.6322 15.2208 41.6322 18.4677C41.6322 21.7142 44.343 24.3557 47.6736 24.3557ZM47.6736 13.8137C50.3057 13.8137 52.4475 15.9011 52.4475 18.4673C52.4475 21.033 50.3057 23.1209 47.6736 23.1209C45.041 23.1209 42.8988 21.0334 42.8988 18.4673C42.8988 15.9016 45.0409 13.8137 47.6736 13.8137ZM37.8461 36.2749C37.8461 30.9934 42.2547 26.6969 47.6736 26.6969C53.0925 26.6969 57.5004 30.9936 57.4999 36.2749C57.4999 37.7776 56.2454 39 54.7031 39H40.643C39.1008 39 37.8461 37.778 37.8461 36.2749ZM40.6435 37.7646H54.7036C55.5474 37.7646 56.2341 37.0964 56.2341 36.274C56.2341 31.6739 52.394 27.9314 47.674 27.9305C42.9532 27.9305 39.1132 31.6734 39.1132 36.274C39.1132 37.0959 39.7997 37.7646 40.6435 37.7646Z"/>
</mask>
<path d="M10.327 24.3557C13.6584 24.3557 16.3683 21.7146 16.3683 18.4677C16.3683 15.2208 13.6584 12.5797 10.327 12.5797C6.9955 12.5797 4.28605 15.2208 4.28605 18.4677C4.28605 21.7142 6.9955 24.3557 10.327 24.3557ZM10.327 13.8137C12.9595 13.8137 15.1018 15.9011 15.1018 18.4673C15.1018 21.033 12.96 23.1209 10.327 23.1209C7.69488 23.1209 5.55307 21.0334 5.55307 18.4673C5.55263 15.9016 7.69398 13.8137 10.327 13.8137Z" fill="#113C7B"/>
<path d="M10.327 26.6969C4.90809 26.6969 0.499939 30.9934 0.499939 36.274C0.499939 37.7771 1.75463 38.9991 3.29681 38.9991H17.3569C18.8992 38.9991 20.1538 37.7767 20.1538 36.274C20.1533 30.9936 15.7451 26.6969 10.327 26.6969ZM17.357 37.7646H3.29692C2.45312 37.7646 1.76662 37.0963 1.76662 36.274C1.76662 31.6734 5.60657 27.9305 10.327 27.9305C15.0474 27.9305 18.8878 31.673 18.8878 36.274C18.8869 37.0964 18.2004 37.7646 17.357 37.7646Z" fill="#113C7B"/>
<path d="M29.0003 12.7755C32.3318 12.7755 35.0417 10.1348 35.0417 6.88794C35.0417 3.64149 32.3318 0.999954 29.0003 0.999954C25.6688 0.999954 22.9589 3.64105 22.9589 6.88794C22.9589 10.1348 25.6688 12.7755 29.0003 12.7755ZM29.0003 2.2348C31.6328 2.2348 33.7751 4.32224 33.7751 6.88838C33.7751 9.45364 31.6333 11.5411 29.0003 11.5411C26.3677 11.5411 24.2255 9.45364 24.2255 6.88838C24.2255 4.32224 26.3676 2.2348 29.0003 2.2348Z" fill="#113C7B"/>
<path d="M38.8272 24.6952C38.8272 19.4139 34.4191 15.1177 29.0002 15.1177C23.5813 15.1177 19.1731 19.4139 19.1731 24.6952C19.1731 26.1983 20.4274 27.4211 21.9692 27.4211H36.0293C37.5721 27.4211 38.8272 26.1978 38.8272 24.6952ZM36.0307 26.1866H21.9694C21.1256 26.1866 20.44 25.5176 20.44 24.6952C20.44 20.0955 24.28 16.3522 29.0004 16.3522C33.7208 16.3522 37.5608 20.0946 37.5608 24.6952C37.5603 25.5176 36.8745 26.1866 36.0307 26.1866Z" fill="#113C7B"/>
<path d="M47.6736 24.3557C51.005 24.3557 53.7145 21.7146 53.7145 18.4677C53.7145 15.2208 51.005 12.5797 47.6736 12.5797C44.3421 12.5797 41.6322 15.2208 41.6322 18.4677C41.6322 21.7142 44.343 24.3557 47.6736 24.3557ZM47.6736 13.8137C50.3057 13.8137 52.4475 15.9011 52.4475 18.4673C52.4475 21.033 50.3057 23.1209 47.6736 23.1209C45.041 23.1209 42.8988 21.0334 42.8988 18.4673C42.8988 15.9016 45.0409 13.8137 47.6736 13.8137Z" fill="#113C7B"/>
<path d="M47.6736 26.6969C42.2547 26.6969 37.8461 30.9934 37.8461 36.2749C37.8461 37.778 39.1008 39 40.643 39H54.7031C56.2454 39 57.4999 37.7776 57.4999 36.2749C57.5004 30.9936 53.0925 26.6969 47.6736 26.6969ZM54.7036 37.7646H40.6435C39.7997 37.7646 39.1132 37.0959 39.1132 36.274C39.1132 31.6734 42.9532 27.9305 47.674 27.9305C52.394 27.9314 56.2341 31.6739 56.2341 36.274C56.2341 37.0964 55.5474 37.7646 54.7036 37.7646Z" fill="#113C7B"/>
<path fill-rule="evenodd" clip-rule="evenodd" d="M5.85308 18.4673C5.85308 20.8605 7.8533 22.8209 10.327 22.8209C12.8016 22.8209 14.8018 20.8601 14.8018 18.4673C14.8018 16.0741 12.8012 14.1137 10.327 14.1137C7.8524 14.1137 5.85267 16.0745 5.85308 18.4673ZM38.8272 24.6952C38.8272 24.6607 38.827 24.6262 38.8267 24.5917C38.8259 24.526 38.8245 24.4605 38.8225 24.3952C38.6593 19.2521 34.3161 15.1177 29.0002 15.1177C23.5813 15.1177 19.1731 19.4139 19.1731 24.6952C19.1731 26.1983 20.4274 27.4211 21.9692 27.4211H36.0293C37.5721 27.4211 38.8272 26.1978 38.8272 24.6952ZM39.1272 24.9952H39.1116C38.9568 26.529 37.6276 27.7211 36.0293 27.7211H21.9692C20.2689 27.7211 18.8731 26.3712 18.8731 24.6952C18.8731 19.241 23.4229 14.8177 29.0002 14.8177C34.5774 14.8177 39.1272 19.241 39.1272 24.6952V24.9952ZM16.6684 18.4677C16.6684 21.8875 13.8168 24.6557 10.327 24.6557C6.8371 24.6557 3.98606 21.887 3.98606 18.4677C3.98606 15.0479 6.83711 12.2797 10.327 12.2797C13.8168 12.2797 16.6684 15.0479 16.6684 18.4677ZM5.55307 18.4673C5.55307 21.0334 7.69488 23.1209 10.327 23.1209C12.96 23.1209 15.1018 21.033 15.1018 18.4673C15.1018 15.9011 12.9595 13.8137 10.327 13.8137C7.69398 13.8137 5.55263 15.9016 5.55307 18.4673ZM0.199951 36.274C0.199951 30.8205 4.74974 26.3969 10.327 26.3969C15.9035 26.3969 20.4533 30.8206 20.4538 36.274C20.4538 37.9497 19.0575 39.2991 17.3569 39.2991H3.29682C1.59639 39.2991 0.199951 37.9501 0.199951 36.274ZM3.29693 37.4646H17.357C18.042 37.4646 18.5869 36.9234 18.5878 36.274C18.5878 31.8459 14.889 28.2305 10.327 28.2305C5.76497 28.2305 2.06663 31.8463 2.06663 36.274C2.06663 36.9232 2.61127 37.4646 3.29693 37.4646ZM18.8878 36.274C18.8878 31.673 15.0474 27.9305 10.327 27.9305C5.60657 27.9305 1.76662 31.6734 1.76662 36.274C1.76662 37.0963 2.45312 37.7646 3.29692 37.7646H17.357C18.2004 37.7646 18.8869 37.0964 18.8878 36.274ZM35.3417 6.88794C35.3417 10.3078 32.4901 13.0755 29.0003 13.0755C25.5105 13.0755 22.6589 10.3078 22.6589 6.88794C22.6589 3.46814 25.5105 0.699951 29.0003 0.699951C32.4901 0.699951 35.3417 3.46859 35.3417 6.88794ZM33.4751 6.88838C33.4751 4.49517 31.4745 2.5348 29.0003 2.5348C26.526 2.5348 24.5255 4.49516 24.5255 6.88838C24.5255 9.28067 26.5261 11.2411 29.0003 11.2411C31.475 11.2411 33.4751 9.28069 33.4751 6.88838ZM21.9694 25.8866H36.0307C36.7159 25.8866 37.2604 25.3448 37.2608 24.695C37.2607 20.2675 33.5624 16.6522 29.0004 16.6522C24.4384 16.6522 20.74 20.2684 20.74 24.6952C20.74 25.3449 21.2842 25.8866 21.9694 25.8866ZM37.5608 24.6952C37.5608 20.0946 33.7208 16.3522 29.0004 16.3522C24.28 16.3522 20.44 20.0955 20.44 24.6952C20.44 25.5176 21.1256 26.1866 21.9694 26.1866H36.0307C36.8745 26.1866 37.5603 25.5176 37.5608 24.6952ZM54.0145 18.4677C54.0145 21.8875 51.1635 24.6557 47.6736 24.6557C44.1847 24.6557 41.3322 21.8871 41.3322 18.4677C41.3322 15.0479 44.1838 12.2797 47.6736 12.2797C51.1635 12.2797 54.0145 15.0479 54.0145 18.4677ZM52.1475 18.4673C52.1475 16.074 50.1473 14.1137 47.6736 14.1137C45.1993 14.1137 43.1988 16.0745 43.1988 18.4673C43.1988 20.8605 45.1994 22.8209 47.6736 22.8209C50.1473 22.8209 52.1475 20.8601 52.1475 18.4673ZM37.5461 36.2749C37.5461 30.8205 42.0963 26.3969 47.6736 26.3969C53.2509 26.3969 57.8004 30.8207 57.8 36.2749C57.8 37.9506 56.4037 39.2999 54.7031 39.2999H40.643C38.9425 39.2999 37.5461 37.951 37.5461 36.2749ZM40.6435 37.4646H54.7037C55.3893 37.4646 55.9341 36.9232 55.9341 36.274C55.9341 31.8468 52.2356 28.2313 47.674 28.2305C43.1116 28.2305 39.4132 31.8463 39.4132 36.274C39.4132 36.9228 39.9579 37.4646 40.6435 37.4646ZM29.0003 12.7755C32.3318 12.7755 35.0417 10.1348 35.0417 6.88794C35.0417 3.64149 32.3318 0.999954 29.0003 0.999954C25.6688 0.999954 22.9589 3.64105 22.9589 6.88794C22.9589 10.1348 25.6688 12.7755 29.0003 12.7755ZM29.0003 2.2348C31.6328 2.2348 33.7751 4.32224 33.7751 6.88838C33.7751 9.45364 31.6333 11.5411 29.0003 11.5411C26.3677 11.5411 24.2255 9.45364 24.2255 6.88838C24.2255 4.32224 26.3676 2.2348 29.0003 2.2348ZM16.3683 18.4677C16.3683 21.7146 13.6584 24.3557 10.327 24.3557C6.9955 24.3557 4.28605 21.7142 4.28605 18.4677C4.28605 15.2208 6.9955 12.5797 10.327 12.5797C13.6584 12.5797 16.3683 15.2208 16.3683 18.4677ZM0.499939 36.274C0.499939 30.9934 4.90809 26.6969 10.327 26.6969C15.7451 26.6969 20.1533 30.9936 20.1538 36.274C20.1538 37.7767 18.8992 38.9991 17.3569 38.9991H3.29681C1.75463 38.9991 0.499939 37.7771 0.499939 36.274ZM47.6736 24.3557C51.005 24.3557 53.7145 21.7146 53.7145 18.4677C53.7145 15.2208 51.005 12.5797 47.6736 12.5797C44.3421 12.5797 41.6322 15.2208 41.6322 18.4677C41.6322 21.7142 44.343 24.3557 47.6736 24.3557ZM47.6736 13.8137C50.3057 13.8137 52.4475 15.9011 52.4475 18.4673C52.4475 21.033 50.3057 23.1209 47.6736 23.1209C45.041 23.1209 42.8988 21.0334 42.8988 18.4673C42.8988 15.9016 45.0409 13.8137 47.6736 13.8137ZM37.8461 36.2749C37.8461 30.9934 42.2547 26.6969 47.6736 26.6969C53.0925 26.6969 57.5004 30.9936 57.4999 36.2749C57.4999 37.7776 56.2454 39 54.7031 39H40.643C39.1008 39 37.8461 37.778 37.8461 36.2749ZM40.6435 37.7646H54.7036C55.5474 37.7646 56.2341 37.0964 56.2341 36.274C56.2341 31.6739 52.394 27.9314 47.674 27.9305C42.9532 27.9305 39.1132 31.6734 39.1132 36.274C39.1132 37.0959 39.7997 37.7646 40.6435 37.7646Z" fill="#113C7B"/>
<path d="M5.55307 18.4673H5.60307V18.4673L5.55307 18.4673ZM20.1538 36.274H20.2038V36.274L20.1538 36.274ZM18.8878 36.274L18.9378 36.274V36.274H18.8878ZM37.5608 24.6952L37.6108 24.6952V24.6952H37.5608ZM57.4999 36.2749L57.4499 36.2749V36.2749H57.4999ZM47.674 27.9305L47.674 27.8805H47.674V27.9305ZM10.327 24.4057C13.6848 24.4057 16.4183 21.7434 16.4183 18.4677H16.3183C16.3183 21.6858 13.632 24.3057 10.327 24.3057V24.4057ZM16.4183 18.4677C16.4183 15.192 13.6848 12.5297 10.327 12.5297V12.6297C13.632 12.6297 16.3183 15.2496 16.3183 18.4677H16.4183ZM10.327 12.5297C6.9691 12.5297 4.23605 15.192 4.23605 18.4677H4.33605C4.33605 15.2496 7.0219 12.6297 10.327 12.6297V12.5297ZM4.23605 18.4677C4.23605 21.743 6.9691 24.4057 10.327 24.4057V24.3057C7.0219 24.3057 4.33605 21.6854 4.33605 18.4677H4.23605ZM10.327 13.8637C12.9331 13.8637 15.0518 15.93 15.0518 18.4673H15.1518C15.1518 15.8723 12.9859 13.7637 10.327 13.7637V13.8637ZM15.0518 18.4673C15.0518 21.0042 12.9336 23.0709 10.327 23.0709V23.1709C12.9864 23.1709 15.1518 21.0618 15.1518 18.4673H15.0518ZM10.327 23.0709C7.72128 23.0709 5.60307 21.0046 5.60307 18.4673H5.50307C5.50307 21.0622 7.66848 23.1709 10.327 23.1709V23.0709ZM5.60307 18.4673C5.60263 15.9304 7.72038 13.8637 10.327 13.8637V13.7637C7.66758 13.7637 5.50262 15.8728 5.50307 18.4673L5.60307 18.4673ZM10.327 26.6469C4.88169 26.6469 0.449939 30.9646 0.449939 36.274H0.549939C0.549939 31.0223 4.93448 26.7469 10.327 26.7469V26.6469ZM0.449939 36.274C0.449939 37.806 1.72825 39.0491 3.29681 39.0491V38.9491C1.781 38.9491 0.549939 37.7483 0.549939 36.274H0.449939ZM3.29681 39.0491H17.3569V38.9491H3.29681V39.0491ZM17.3569 39.0491C18.9256 39.0491 20.2038 37.8055 20.2038 36.274H20.1038C20.1038 37.7478 18.8728 38.9491 17.3569 38.9491V39.0491ZM20.2038 36.274C20.2033 30.9647 15.7715 26.6469 10.327 26.6469V26.7469C15.7187 26.7469 20.1033 31.0224 20.1038 36.274L20.2038 36.274ZM17.357 37.7146H3.29692V37.8146H17.357V37.7146ZM3.29692 37.7146C2.47948 37.7146 1.81662 37.0675 1.81662 36.274H1.71662C1.71662 37.1252 2.42676 37.8146 3.29692 37.8146V37.7146ZM1.81662 36.274C1.81662 31.7022 5.63297 27.9805 10.327 27.9805V27.8805C5.58017 27.8805 1.71662 31.6446 1.71662 36.274H1.81662ZM10.327 27.9805C15.021 27.9805 18.8378 31.7018 18.8378 36.274H18.9378C18.9378 31.6442 15.0738 27.8805 10.327 27.8805V27.9805ZM18.8378 36.2739C18.8369 37.0675 18.174 37.7146 17.357 37.7146V37.8146C18.2268 37.8146 18.9369 37.1252 18.9378 36.274L18.8378 36.2739ZM29.0003 12.8255C32.3581 12.8255 35.0917 10.1637 35.0917 6.88794H34.9917C34.9917 10.106 32.3054 12.7255 29.0003 12.7255V12.8255ZM35.0917 6.88794C35.0917 3.61267 32.3582 0.949954 29.0003 0.949954V1.04995C32.3054 1.04995 34.9917 3.67031 34.9917 6.88794H35.0917ZM29.0003 0.949954C25.6424 0.949954 22.9089 3.61223 22.9089 6.88794H23.0089C23.0089 3.66987 25.6952 1.04995 29.0003 1.04995V0.949954ZM22.9089 6.88794C22.9089 10.1637 25.6424 12.8255 29.0003 12.8255V12.7255C25.6952 12.7255 23.0089 10.106 23.0089 6.88794H22.9089ZM29.0003 2.2848C31.6064 2.2848 33.7251 4.35106 33.7251 6.88838H33.8251C33.8251 4.29342 31.6592 2.1848 29.0003 2.1848V2.2848ZM33.7251 6.88838C33.7251 9.42482 31.6069 11.4911 29.0003 11.4911V11.5911C31.6597 11.5911 33.8251 9.48247 33.8251 6.88838H33.7251ZM29.0003 11.4911C26.3941 11.4911 24.2755 9.42482 24.2755 6.88838H24.1755C24.1755 9.48247 26.3414 11.5911 29.0003 11.5911V11.4911ZM24.2755 6.88838C24.2755 4.35106 26.394 2.2848 29.0003 2.2848V2.1848C26.3412 2.1848 24.1755 4.29342 24.1755 6.88838H24.2755ZM29.0002 15.0677C23.5549 15.0677 19.1231 19.3851 19.1231 24.6952H19.2231C19.2231 19.4427 23.6077 15.1677 29.0002 15.1677V15.0677ZM19.1231 24.6952C19.1231 26.2271 20.401 27.4711 21.9692 27.4711V27.3711C20.4538 27.3711 19.2231 26.1695 19.2231 24.6952H19.1231ZM21.9692 27.4711H36.0293V27.3711H21.9692V27.4711ZM36.0293 27.4711C37.5984 27.4711 38.8772 26.2266 38.8772 24.6952H38.7772C38.7772 26.169 37.5457 27.3711 36.0293 27.3711V27.4711ZM36.0307 26.1367H21.9694V26.2366H36.0307V26.1367ZM21.9694 26.1367C21.1521 26.1367 20.49 25.4888 20.49 24.6952H20.39C20.39 25.5463 21.0992 26.2366 21.9694 26.2366V26.1367ZM20.49 24.6952C20.49 20.1243 24.3064 16.4022 29.0004 16.4022V16.3022C24.2536 16.3022 20.39 20.0667 20.39 24.6952H20.49ZM29.0004 16.4022C33.6944 16.4022 37.5108 20.1235 37.5108 24.6952H37.6108C37.6108 20.0658 33.7472 16.3022 29.0004 16.3022V16.4022ZM37.5108 24.6952C37.5103 25.4888 36.848 26.1367 36.0307 26.1367V26.2366C36.9009 26.2366 37.6103 25.5464 37.6108 24.6952L37.5108 24.6952ZM47.6736 24.4057C51.0314 24.4057 53.7645 21.7434 53.7645 18.4677H53.6645C53.6645 21.6858 50.9786 24.3057 47.6736 24.3057V24.4057ZM53.7645 18.4677C53.7645 15.192 51.0314 12.5297 47.6736 12.5297V12.6297C50.9786 12.6297 53.6645 15.2496 53.6645 18.4677H53.7645ZM47.6736 12.5297C44.3157 12.5297 41.5822 15.192 41.5822 18.4677H41.6822C41.6822 15.2496 44.3685 12.6297 47.6736 12.6297V12.5297ZM41.5822 18.4677C41.5822 21.743 44.3166 24.4057 47.6736 24.4057V24.3057C44.3694 24.3057 41.6822 21.6853 41.6822 18.4677H41.5822ZM47.6736 13.8637C50.2793 13.8637 52.3975 15.9299 52.3975 18.4673H52.4975C52.4975 15.8723 50.3321 13.7637 47.6736 13.7637V13.8637ZM52.3975 18.4673C52.3975 21.0042 50.2793 23.0709 47.6736 23.0709V23.1709C50.3321 23.1709 52.4975 21.0618 52.4975 18.4673H52.3975ZM47.6736 23.0709C45.0674 23.0709 42.9488 21.0046 42.9488 18.4673H42.8488C42.8488 21.0622 45.0146 23.1709 47.6736 23.1709V23.0709ZM42.9488 18.4673C42.9488 15.9304 45.0673 13.8637 47.6736 13.8637V13.7637C45.0145 13.7637 42.8488 15.8728 42.8488 18.4673H42.9488ZM47.6736 26.6469C42.2283 26.6469 37.7961 30.9646 37.7961 36.2749H37.8961C37.8961 31.0223 42.2811 26.7469 47.6736 26.7469V26.6469ZM37.7961 36.2749C37.7961 37.8068 39.0744 39.05 40.643 39.05V38.95C39.1272 38.95 37.8961 37.7492 37.8961 36.2749H37.7961ZM40.643 39.05H54.7031V38.95H40.643V39.05ZM54.7031 39.05C56.2717 39.05 57.5499 37.8064 57.5499 36.2749H57.4499C57.4499 37.7487 56.219 38.95 54.7031 38.95V39.05ZM57.5499 36.2749C57.5504 30.9647 53.1189 26.6469 47.6736 26.6469V26.7469C53.0661 26.7469 57.4504 31.0224 57.4499 36.2749L57.5499 36.2749ZM54.7036 37.7146H40.6435V37.8146H54.7036V37.7146ZM40.6435 37.7146C39.8261 37.7146 39.1632 37.067 39.1632 36.274H39.0632C39.0632 37.1247 39.7734 37.8146 40.6435 37.8146V37.7146ZM39.1632 36.274C39.1632 31.7022 42.9796 27.9805 47.674 27.9805V27.8805C42.9268 27.8805 39.0632 31.6446 39.0632 36.274H39.1632ZM47.674 27.9805C52.3676 27.9814 56.1841 31.7027 56.1841 36.274H56.2841C56.2841 31.645 52.4204 27.8814 47.674 27.8805L47.674 27.9805ZM56.1841 36.274C56.1841 37.0675 55.5211 37.7146 54.7036 37.7146V37.8146C55.5738 37.8146 56.2841 37.1252 56.2841 36.274H56.1841ZM5.85308 18.4673H5.95308V18.4673L5.85308 18.4673ZM38.8267 24.5917L38.7267 24.5928V24.5928L38.8267 24.5917ZM38.8225 24.3952L38.9224 24.392V24.392L38.8225 24.3952ZM39.1116 24.9952V24.8952H39.0212L39.0121 24.9851L39.1116 24.9952ZM39.1272 24.9952V25.0952H39.2272V24.9952H39.1272ZM20.4538 36.274H20.5538V36.274L20.4538 36.274ZM18.5878 36.274L18.6878 36.2741V36.274H18.5878ZM37.2608 24.695L37.3608 24.6951V24.695L37.2608 24.695ZM57.8 36.2749L57.7 36.2749V36.2749H57.8ZM47.674 28.2305L47.6741 28.1305H47.674V28.2305ZM38.9272 24.6952C38.9272 19.3563 34.4718 15.0177 29.0002 15.0177V15.2177C34.3663 15.2177 38.7272 19.4715 38.7272 24.6952H38.9272ZM10.327 22.7209C7.90615 22.7209 5.95308 20.803 5.95308 18.4673H5.75308C5.75308 20.9181 7.80045 22.9209 10.327 22.9209V22.7209ZM14.7018 18.4673C14.7018 20.8025 12.7487 22.7209 10.327 22.7209V22.9209C12.8544 22.9209 14.9018 20.9177 14.9018 18.4673H14.7018ZM10.327 14.2137C12.7483 14.2137 14.7018 16.1317 14.7018 18.4673H14.9018C14.9018 16.0165 12.854 14.0137 10.327 14.0137V14.2137ZM5.95308 18.4673C5.95268 16.132 7.90526 14.2137 10.327 14.2137V14.0137C7.79955 14.0137 5.75266 16.0169 5.75308 18.4673L5.95308 18.4673ZM38.9272 24.6952C38.9272 24.6603 38.927 24.6255 38.9266 24.5906L38.7267 24.5928C38.727 24.6269 38.7272 24.661 38.7272 24.6952H38.9272ZM38.9266 24.5906C38.9259 24.5243 38.9245 24.4581 38.9224 24.392L38.7225 24.3984C38.7246 24.463 38.7259 24.5278 38.7267 24.5928L38.9266 24.5906ZM38.9224 24.392C38.7575 19.1929 34.3679 15.0177 29.0002 15.0177V15.2177C34.2642 15.2177 38.5611 19.3114 38.7225 24.3984L38.9224 24.392ZM39.1116 25.0952H39.1272V24.8952H39.1116V25.0952ZM36.0293 27.8211C37.6774 27.8211 39.0509 26.5917 39.2111 25.0052L39.0121 24.9851C38.8626 26.4663 37.5779 27.6211 36.0293 27.6211V27.8211ZM21.9692 27.8211H36.0293V27.6211H21.9692V27.8211ZM18.7731 24.6952C18.7731 26.4288 20.2162 27.8211 21.9692 27.8211V27.6211C20.3217 27.6211 18.9731 26.3135 18.9731 24.6952H18.7731ZM29.0002 14.7177C23.3702 14.7177 18.7731 19.1833 18.7731 24.6952H18.9731C18.9731 19.2986 23.4757 14.9177 29.0002 14.9177V14.7177ZM39.2272 24.6952C39.2272 19.1833 34.6302 14.7177 29.0002 14.7177V14.9177C34.5247 14.9177 39.0272 19.2986 39.0272 24.6952H39.2272ZM39.2272 24.9952V24.6952H39.0272V24.9952H39.2272ZM10.327 24.7557C13.8696 24.7557 16.7684 21.9452 16.7684 18.4677H16.5684C16.5684 21.8298 13.7641 24.5557 10.327 24.5557V24.7557ZM3.88606 18.4677C3.88606 21.9447 6.78433 24.7557 10.327 24.7557V24.5557C6.88987 24.5557 4.08606 21.8294 4.08606 18.4677H3.88606ZM10.327 12.1797C6.78435 12.1797 3.88606 14.9903 3.88606 18.4677H4.08606C4.08606 15.1056 6.88988 12.3797 10.327 12.3797V12.1797ZM16.7684 18.4677C16.7684 14.9902 13.8696 12.1797 10.327 12.1797V12.3797C13.7641 12.3797 16.5684 15.1056 16.5684 18.4677H16.7684ZM10.327 26.2969C4.69697 26.2969 0.0999512 30.7629 0.0999512 36.274H0.299951C0.299951 30.8782 4.8025 26.4969 10.327 26.4969V26.2969ZM20.5538 36.274C20.5533 30.763 15.9562 26.2969 10.327 26.2969V26.4969C15.8507 26.4969 20.3533 30.8783 20.3538 36.274L20.5538 36.274ZM17.3569 39.3991C19.1102 39.3991 20.5538 38.0074 20.5538 36.274H20.3538C20.3538 37.8919 19.0048 39.1991 17.3569 39.1991V39.3991ZM3.29682 39.3991H17.3569V39.1991H3.29682V39.3991ZM0.0999512 36.274C0.0999512 38.0079 1.54372 39.3991 3.29682 39.3991V39.1991C1.64907 39.1991 0.299951 37.8924 0.299951 36.274H0.0999512ZM17.357 37.3646H3.29693V37.5645H17.357V37.3646ZM18.4878 36.2738C18.487 36.8659 17.9891 37.3646 17.357 37.3646V37.5645C18.0949 37.5645 18.6868 36.981 18.6878 36.2741L18.4878 36.2738ZM10.327 28.3305C14.8362 28.3305 18.4878 31.9035 18.4878 36.274H18.6878C18.6878 31.7883 14.9419 28.1305 10.327 28.1305V28.3305ZM2.16663 36.274C2.16663 31.9039 5.81779 28.3305 10.327 28.3305V28.1305C5.71215 28.1305 1.96663 31.7887 1.96663 36.274H2.16663ZM3.29693 37.3646C2.66417 37.3646 2.16663 36.8657 2.16663 36.274H1.96663C1.96663 36.9807 2.55837 37.5645 3.29693 37.5645V37.3646ZM29.0003 13.1755C32.5428 13.1755 35.4417 10.3655 35.4417 6.88794H35.2417C35.2417 10.2501 32.4374 12.9755 29.0003 12.9755V13.1755ZM22.5589 6.88794C22.5589 10.3655 25.4577 13.1755 29.0003 13.1755V12.9755C25.5632 12.9755 22.7589 10.2501 22.7589 6.88794H22.5589ZM29.0003 0.599951C25.4577 0.599951 22.5589 3.41046 22.5589 6.88794H22.7589C22.7589 3.52581 25.5632 0.799951 29.0003 0.799951V0.599951ZM35.4417 6.88794C35.4417 3.41092 32.5429 0.599951 29.0003 0.599951V0.799951C32.4374 0.799951 35.2417 3.52626 35.2417 6.88794H35.4417ZM29.0003 2.6348C31.4217 2.6348 33.3751 4.55276 33.3751 6.88838H33.5751C33.5751 4.43757 31.5273 2.4348 29.0003 2.4348V2.6348ZM24.6255 6.88838C24.6255 4.55275 26.5788 2.6348 29.0003 2.6348V2.4348C26.4732 2.4348 24.4255 4.43757 24.4255 6.88838H24.6255ZM29.0003 11.1411C26.5789 11.1411 24.6255 9.22307 24.6255 6.88838H24.4255C24.4255 9.33828 26.4732 11.3411 29.0003 11.3411V11.1411ZM33.3751 6.88838C33.3751 9.22309 31.4221 11.1411 29.0003 11.1411V11.3411C31.5278 11.3411 33.5751 9.33829 33.5751 6.88838H33.3751ZM36.0307 25.7866H21.9694V25.9866H36.0307V25.7866ZM37.1608 24.695C37.1604 25.2874 36.6629 25.7866 36.0307 25.7866V25.9866C36.7689 25.9866 37.3604 25.4022 37.3608 24.6951L37.1608 24.695ZM29.0004 16.7522C33.5096 16.7522 37.1607 20.3251 37.1608 24.695L37.3608 24.695C37.3607 20.2098 33.6152 16.5522 29.0004 16.5522V16.7522ZM20.84 24.6952C20.84 20.326 24.4912 16.7522 29.0004 16.7522V16.5522C24.3856 16.5522 20.64 20.2108 20.64 24.6952H20.84ZM21.9694 25.7866C21.3373 25.7866 20.84 25.2875 20.84 24.6952H20.64C20.64 25.4023 21.2312 25.9866 21.9694 25.9866V25.7866ZM47.6736 24.7557C51.2162 24.7557 54.1145 21.9452 54.1145 18.4677H53.9145C53.9145 21.8298 51.1107 24.5557 47.6736 24.5557V24.7557ZM41.2322 18.4677C41.2322 21.9448 44.1319 24.7557 47.6736 24.7557V24.5557C44.2374 24.5557 41.4322 21.8294 41.4322 18.4677H41.2322ZM47.6736 12.1797C44.131 12.1797 41.2322 14.9902 41.2322 18.4677H41.4322C41.4322 15.1056 44.2365 12.3797 47.6736 12.3797V12.1797ZM54.1145 18.4677C54.1145 14.9903 51.2162 12.1797 47.6736 12.1797V12.3797C51.1107 12.3797 53.9145 15.1056 53.9145 18.4677H54.1145ZM47.6736 14.2137C50.0944 14.2137 52.0475 16.1316 52.0475 18.4673H52.2475C52.2475 16.0164 50.2001 14.0137 47.6736 14.0137V14.2137ZM43.2988 18.4673C43.2988 16.1321 45.2521 14.2137 47.6736 14.2137V14.0137C45.1465 14.0137 43.0988 16.0169 43.0988 18.4673H43.2988ZM47.6736 22.7209C45.2522 22.7209 43.2988 20.8029 43.2988 18.4673H43.0988C43.0988 20.9181 45.1466 22.9209 47.6736 22.9209V22.7209ZM52.0475 18.4673C52.0475 20.8026 50.0944 22.7209 47.6736 22.7209V22.9209C50.2001 22.9209 52.2475 20.9177 52.2475 18.4673H52.0475ZM47.6736 26.2969C42.0436 26.2969 37.4461 30.7629 37.4461 36.2749H37.6461C37.6461 30.8782 42.1491 26.4969 47.6736 26.4969V26.2969ZM57.9 36.2749C57.9004 30.763 53.3036 26.2969 47.6736 26.2969V26.4969C53.1981 26.4969 57.7004 30.8783 57.7 36.2749L57.9 36.2749ZM54.7031 39.3999C56.4564 39.3999 57.9 38.0083 57.9 36.2749H57.7C57.7 37.8928 56.351 39.2 54.7031 39.2V39.3999ZM40.643 39.3999H54.7031V39.2H40.643V39.3999ZM37.4461 36.2749C37.4461 38.0088 38.8899 39.3999 40.643 39.3999V39.2C38.9952 39.2 37.6461 37.8933 37.6461 36.2749H37.4461ZM54.7037 37.3646H40.6435V37.5645H54.7037V37.3646ZM55.8341 36.274C55.8341 36.8656 55.3364 37.3646 54.7037 37.3646V37.5645C55.4422 37.5645 56.0341 36.9807 56.0341 36.274H55.8341ZM47.674 28.3305C52.1828 28.3313 55.8341 31.9044 55.8341 36.274H56.0341C56.0341 31.7892 52.2885 28.1314 47.6741 28.1305L47.674 28.3305ZM39.5132 36.274C39.5132 31.9039 43.1644 28.3305 47.674 28.3305V28.1305C43.0587 28.1305 39.3132 31.7887 39.3132 36.274H39.5132ZM40.6435 37.3646C40.0109 37.3646 39.5132 36.8653 39.5132 36.274H39.3132C39.3132 36.9803 39.905 37.5645 40.6435 37.5645V37.3646Z" fill="#113C7B" mask="url(#path-1-outside-1_46082_36989)"/>
</svg>
