<svg width="40" height="56" viewBox="0 0 40 56" fill="none" xmlns="http://www.w3.org/2000/svg">
<mask id="path-1-outside-1_46351_1833" maskUnits="userSpaceOnUse" x="0" y="0" width="40" height="56" fill="black">
<rect fill="white" width="40" height="56"/>
<path d="M34.179 1H5.79257C5.41924 1 5.11574 1.3018 5.11574 1.67518V7.75081L1.80852 14.988C1.27187 16.1618 1 17.4118 1 18.7034V54.3247C1 54.6981 1.30302 54.9999 1.67684 54.9999L38.3232 54.9994C38.6965 54.9994 39 54.6976 39 54.3242L38.9995 18.7029C38.9995 17.4118 38.7277 16.1613 38.191 14.9875L34.855 7.68814V1.67507C34.8555 1.3017 34.5524 1 34.179 1ZM33.5022 2.34986V7.15711H6.46903V2.34986H33.5022ZM10.518 8.50697H20.7224V25.4299H10.518V8.50697ZM36.9603 15.5478C37.4158 16.5446 37.647 17.6058 37.647 18.7029V53.6493H2.35401V18.7029C2.35401 17.6059 2.58482 16.5451 3.04076 15.5478L6.25832 8.50697H9.16572V26.1049C9.16572 26.4783 9.46873 26.7801 9.84256 26.7801H21.4001C21.7735 26.7801 22.077 26.4783 22.077 26.1049L22.0765 8.50697H33.7432L36.9603 15.5478Z"/>
<path d="M25.3363 36.8029H22.4687V33.7146C22.4687 33.3194 22.1716 32.9999 21.805 32.9999H17.195C16.8289 32.9999 16.5313 33.3194 16.5313 33.7146V36.8029H13.6637C13.2976 36.8029 13 37.1224 13 37.5177V42.4826C13 42.8779 13.2971 43.1974 13.6637 43.1974H16.5313V46.2851C16.5313 46.6804 16.8284 46.9999 17.195 46.9999H21.805C22.1711 46.9999 22.4687 46.6804 22.4687 46.2851V43.1974H25.3363C25.7024 43.1974 26 42.8779 26 42.4826V37.5177C25.9995 37.1224 25.7033 36.8029 25.3363 36.8029ZM24.6726 41.7678H21.805C21.439 41.7678 21.1414 42.0873 21.1414 42.4826V45.5704H17.8586V42.4826C17.8586 42.0873 17.5615 41.7678 17.1949 41.7678H14.3273V38.2324H17.1949C17.561 38.2324 17.8586 37.9129 17.8586 37.5177V34.4294H21.1414V37.5177C21.1414 37.9129 21.4385 38.2324 21.805 38.2324H24.6726V41.7678Z"/>
</mask>
<path d="M34.179 1H5.79257C5.41924 1 5.11574 1.3018 5.11574 1.67518V7.75081L1.80852 14.988C1.27187 16.1618 1 17.4118 1 18.7034V54.3247C1 54.6981 1.30302 54.9999 1.67684 54.9999L38.3232 54.9994C38.6965 54.9994 39 54.6976 39 54.3242L38.9995 18.7029C38.9995 17.4118 38.7277 16.1613 38.191 14.9875L34.855 7.68814V1.67507C34.8555 1.3017 34.5524 1 34.179 1ZM33.5022 2.34986V7.15711H6.46903V2.34986H33.5022ZM10.518 8.50697H20.7224V25.4299H10.518V8.50697ZM36.9603 15.5478C37.4158 16.5446 37.647 17.6058 37.647 18.7029V53.6493H2.35401V18.7029C2.35401 17.6059 2.58482 16.5451 3.04076 15.5478L6.25832 8.50697H9.16572V26.1049C9.16572 26.4783 9.46873 26.7801 9.84256 26.7801H21.4001C21.7735 26.7801 22.077 26.4783 22.077 26.1049L22.0765 8.50697H33.7432L36.9603 15.5478Z" fill="#113C7B"/>
<path d="M25.3363 36.8029H22.4687V33.7146C22.4687 33.3194 22.1716 32.9999 21.805 32.9999H17.195C16.8289 32.9999 16.5313 33.3194 16.5313 33.7146V36.8029H13.6637C13.2976 36.8029 13 37.1224 13 37.5177V42.4826C13 42.8779 13.2971 43.1974 13.6637 43.1974H16.5313V46.2851C16.5313 46.6804 16.8284 46.9999 17.195 46.9999H21.805C22.1711 46.9999 22.4687 46.6804 22.4687 46.2851V43.1974H25.3363C25.7024 43.1974 26 42.8779 26 42.4826V37.5177C25.9995 37.1224 25.7033 36.8029 25.3363 36.8029ZM24.6726 41.7678H21.805C21.439 41.7678 21.1414 42.0873 21.1414 42.4826V45.5704H17.8586V42.4826C17.8586 42.0873 17.5615 41.7678 17.1949 41.7678H14.3273V38.2324H17.1949C17.561 38.2324 17.8586 37.9129 17.8586 37.5177V34.4294H21.1414V37.5177C21.1414 37.9129 21.4385 38.2324 21.805 38.2324H24.6726V41.7678Z" fill="#113C7B"/>
<path d="M34.179 1H5.79257C5.41924 1 5.11574 1.3018 5.11574 1.67518V7.75081L1.80852 14.988C1.27187 16.1618 1 17.4118 1 18.7034V54.3247C1 54.6981 1.30302 54.9999 1.67684 54.9999L38.3232 54.9994C38.6965 54.9994 39 54.6976 39 54.3242L38.9995 18.7029C38.9995 17.4118 38.7277 16.1613 38.191 14.9875L34.855 7.68814V1.67507C34.8555 1.3017 34.5524 1 34.179 1ZM33.5022 2.34986V7.15711H6.46903V2.34986H33.5022ZM10.518 8.50697H20.7224V25.4299H10.518V8.50697ZM36.9603 15.5478C37.4158 16.5446 37.647 17.6058 37.647 18.7029V53.6493H2.35401V18.7029C2.35401 17.6059 2.58482 16.5451 3.04076 15.5478L6.25832 8.50697H9.16572V26.1049C9.16572 26.4783 9.46873 26.7801 9.84256 26.7801H21.4001C21.7735 26.7801 22.077 26.4783 22.077 26.1049L22.0765 8.50697H33.7432L36.9603 15.5478Z" stroke="#113C7B" stroke-width="0.5" mask="url(#path-1-outside-1_46351_1833)"/>
<path d="M25.3363 36.8029H22.4687V33.7146C22.4687 33.3194 22.1716 32.9999 21.805 32.9999H17.195C16.8289 32.9999 16.5313 33.3194 16.5313 33.7146V36.8029H13.6637C13.2976 36.8029 13 37.1224 13 37.5177V42.4826C13 42.8779 13.2971 43.1974 13.6637 43.1974H16.5313V46.2851C16.5313 46.6804 16.8284 46.9999 17.195 46.9999H21.805C22.1711 46.9999 22.4687 46.6804 22.4687 46.2851V43.1974H25.3363C25.7024 43.1974 26 42.8779 26 42.4826V37.5177C25.9995 37.1224 25.7033 36.8029 25.3363 36.8029ZM24.6726 41.7678H21.805C21.439 41.7678 21.1414 42.0873 21.1414 42.4826V45.5704H17.8586V42.4826C17.8586 42.0873 17.5615 41.7678 17.1949 41.7678H14.3273V38.2324H17.1949C17.561 38.2324 17.8586 37.9129 17.8586 37.5177V34.4294H21.1414V37.5177C21.1414 37.9129 21.4385 38.2324 21.805 38.2324H24.6726V41.7678Z" stroke="#113C7B" stroke-width="0.5" mask="url(#path-1-outside-1_46351_1833)"/>
</svg>
