<svg width="44" height="47" viewBox="0 0 44 47" fill="none" xmlns="http://www.w3.org/2000/svg">
<path d="M16.0522 0.000109124C13.1123 0.000109124 10.6853 2.47863 10.6853 5.45787C10.6853 8.0179 12.4939 10.1372 14.8638 10.69V25.2942V25.2938C14.8638 25.9588 15.396 26.4981 16.0522 26.4981H30.7976L37.5947 39.1268C37.7995 39.5175 38.1987 39.7628 38.6347 39.7666L42.7945 39.7481C43.1129 39.7527 43.4197 39.6275 43.646 39.4011C43.8727 39.1751 44 38.8659 44 38.5433C44 38.2211 43.8727 37.9119 43.646 37.6859C43.4197 37.4595 43.1129 37.3343 42.7945 37.3389L39.3402 37.3574L32.5431 24.7287L32.5435 24.7291C32.3388 24.3385 31.9396 24.0931 31.5035 24.0894H17.2409V18.6695H29.1264V18.669C29.4443 18.6737 29.7511 18.5489 29.9774 18.3225C30.2038 18.096 30.3314 17.7873 30.3314 17.4646C30.3314 17.1424 30.2038 16.8332 29.9774 16.6072C29.7511 16.3808 29.4443 16.2556 29.1264 16.2602H17.2409V10.7084C19.6121 10.164 21.3821 8.02532 21.3821 5.45776C21.3821 2.47852 18.9919 0 16.052 0L16.0522 0.000109124ZM15.755 2.42776C15.8557 2.41768 15.9486 2.42776 16.0522 2.42776C17.7075 2.42776 19.0422 3.78043 19.0422 5.45787C19.0422 7.13531 17.7075 8.43162 16.0522 8.43162C14.3969 8.43162 13.0808 7.1352 13.0808 5.45787C13.0808 3.88549 14.2449 2.58241 15.7549 2.42776H15.755ZM8.27106 17.5966C8.08079 17.6083 7.8959 17.6663 7.73258 17.7659C4.18414 19.842 1.58759 23.2778 0.527239 27.2888C-1.67762 35.6279 3.23659 44.232 11.465 46.4657C19.6939 48.7001 28.1843 43.72 30.3884 35.3813C30.4696 35.0717 30.4265 34.7424 30.2678 34.4651C30.1094 34.1879 29.8487 33.9862 29.5436 33.9039C29.2381 33.8216 28.9131 33.8652 28.6395 34.0261C28.3659 34.1866 28.1669 34.4508 28.0857 34.76C26.2132 41.8419 19.0655 46.0294 12.0774 44.1321C5.08922 42.2345 0.95711 34.991 2.82928 27.9094C3.72674 24.5147 5.91716 21.6118 8.92036 19.8547V19.8551C9.34609 19.6132 9.5832 19.1322 9.51729 18.6424C9.45179 18.1521 9.09737 17.7522 8.62314 17.6342C8.50832 17.6039 8.38935 17.5913 8.27038 17.5968L8.27106 17.5966Z" fill="#113C7B"/>
</svg>
