<svg width="40" height="56" viewBox="0 0 40 56" fill="none" xmlns="http://www.w3.org/2000/svg">
<path d="M5.79257 0.875H34.179C34.621 0.875 34.9806 1.23232 34.98 1.67523M5.79257 0.875L34.855 7.68814M5.79257 0.875C5.3506 0.875 4.99074 1.23237 4.99074 1.67518V7.7236L1.69484 14.936C1.69483 14.9361 1.69483 14.9361 1.69483 14.9361C1.15071 16.1262 0.875 17.3939 0.875 18.7034V54.3247C0.875 54.7675 1.23433 55.1249 1.67684 55.1249L38.3232 55.1244C38.7651 55.1244 39.125 54.7671 39.125 54.3242L39.1245 18.7029C39.1245 17.3939 38.8488 16.1257 38.3047 14.9356L34.98 7.66093M5.79257 0.875L34.855 7.68814M34.98 1.67523L34.855 1.67507H34.98V1.67523ZM34.98 1.67523V7.66093M34.98 7.66093L34.9687 7.63618L34.855 7.68814M34.98 7.66093V7.68814H34.855M37.522 18.7029V53.5243H2.47901V18.7029C2.47901 17.6238 2.70597 16.5808 3.15444 15.5998L3.15445 15.5998L6.33863 8.63197H9.04072V26.1049C9.04072 26.5477 9.40004 26.9051 9.84256 26.9051H21.4001C21.8421 26.9051 22.202 26.5477 22.202 26.1049L22.2015 8.63197H33.6628L36.8466 15.5998C37.2946 16.5802 37.522 17.6238 37.522 18.7029ZM25.3363 36.6779H22.5937V33.7146C22.5937 33.2592 22.2491 32.8749 21.805 32.8749H17.195C16.7514 32.8749 16.4063 33.2591 16.4063 33.7146V36.6779H13.6637C13.2201 36.6779 12.875 37.0622 12.875 37.5177V42.4826C12.875 42.9381 13.2196 43.3224 13.6637 43.3224H16.4063V46.2851C16.4063 46.7406 16.7508 47.1249 17.195 47.1249H21.805C22.2486 47.1249 22.5937 46.7407 22.5937 46.2851V43.3224H25.3363C25.7799 43.3224 26.125 42.9381 26.125 42.4826V37.5177V37.5176C26.1245 37.0624 25.7811 36.6779 25.3363 36.6779ZM33.3772 2.47486V7.03211H6.59403V2.47486H33.3772ZM10.643 8.63197H20.5974V25.3049H10.643V8.63197ZM24.5476 41.6428H21.805C21.3615 41.6428 21.0164 42.0271 21.0164 42.4826V45.4454H17.9836V42.4826C17.9836 42.0271 17.639 41.6428 17.1949 41.6428H14.4523V38.3574H17.1949C17.6385 38.3574 17.9836 37.9732 17.9836 37.5177V34.5544H21.0164V37.5177C21.0164 37.9731 21.3609 38.3574 21.805 38.3574H24.5476V41.6428Z" fill="#113C7B" stroke="#113C7B" stroke-width="0.25"/>
</svg>
