<svg width="56" height="56" viewBox="0 0 56 56" fill="none" xmlns="http://www.w3.org/2000/svg">
<path d="M47.8506 1.4H8.1096C7.58674 1.4 7.16104 1.82252 7.16104 2.34525V10.8511L2.53193 20.9832C1.78062 22.6265 1.4 24.3765 1.4 26.1848V76.0546C1.4 76.5773 1.82422 76.9999 2.34711 76.9999L53.6525 76.9992C54.1751 76.9992 54.6 76.5766 54.6 76.0539L54.5993 26.1841C54.5993 24.3765 54.2187 22.6258 53.4674 20.9825L48.797 10.7624V2.34518C48.797 1.82238 48.3734 1.4 47.8506 1.4ZM46.9031 3.2898V10.0199H9.05564V3.2898H46.9031ZM14.7252 11.9098H29.0114V35.6019H14.7252V11.9098ZM51.7444 21.7669C52.3821 23.1624 52.7068 24.6481 52.7068 26.1841V75.1090H3.29561V26.1841C3.29561 24.6482 3.61993 23.1632 4.25766 21.7669L8.76165 11.9098H12.8320V36.5469C12.8320 37.0696 13.2562 37.4921 13.7791 37.4921H29.9574C30.4803 37.4921 30.9045 37.0696 30.9045 36.5469L30.9039 11.9098H47.2405L51.7444 21.7669Z" fill="#113C7B"/>
<path d="M35.4708 51.5236H31.4562V47.2004C31.4562 46.6472 31.0402 46.1999 30.5270 46.1999H24.0730C23.5603 46.1999 23.1438 46.6472 23.1438 47.2004V51.5236H19.1292C18.6165 51.5236 18.2 52.1714 18.2 52.5247V59.4756C18.2 59.9289 18.6156 60.4762 19.1292 60.4762H23.1438V64.7994C23.1438 65.3526 23.5598 65.7999 24.0730 65.7999H30.5270C31.0397 65.7999 31.4562 65.3526 31.4562 64.7994V60.4762H35.4708C35.9835 60.4762 36.4 59.9289 36.4 59.4756V52.5247C36.3993 52.1714 35.9845 51.5236 35.4708 51.5236ZM34.5416 58.4749H30.5270C29.9146 58.4749 29.5980 58.9222 29.5980 59.4754V62.7992H25.0020V59.4754C25.0020 58.9222 24.5860 58.4749 23.9729 58.4749H20.0582V52.5254H23.9729C24.5854 52.5254 24.9020 52.0781 24.9020 51.5249V48.2001H29.5980V51.5249C29.5980 52.0781 30.0140 52.5254 30.6271 52.5254H34.5416V58.4749Z" fill="#113C7B"/>
</svg>
