<svg width="40" height="52" viewBox="0 0 40 52" fill="none" xmlns="http://www.w3.org/2000/svg">
<path d="M37.1898 0.367676H2.81017C1.60993 0.367676 0.633301 1.36668 0.633301 2.59454V49.4055C0.633301 50.6333 1.60988 51.6324 2.81017 51.6324H37.1898C38.39 51.6324 39.3666 50.6334 39.3666 49.4055L39.3662 2.59454C39.3658 1.36674 38.3896 0.367676 37.1898 0.367676H37.1898ZM12.8405 8.91126H27.1572C28.7363 8.91126 30.021 7.61411 30.021 6.01934V5.1817H34.342V46.388L5.65484 46.3885V5.18215H9.97625V6.01979C9.97669 7.61422 11.2613 8.9109 12.8408 8.9109L12.8405 8.91126ZM28.7691 6.01934C28.7691 6.90749 28.0464 7.62979 27.1581 7.62979H12.8403C11.952 7.62979 11.2293 6.90747 11.2293 6.01934V5.1817L28.7686 5.18215L28.7691 6.01934ZM11.2297 3.90107V1.64914H28.7691V3.90107H11.2297ZM38.1137 49.4041C38.1137 49.9253 37.6995 50.3495 37.1896 50.3495H2.8111C2.30162 50.3495 1.88696 49.9258 1.88696 49.4041V2.59431C1.88696 2.07313 2.30118 1.64895 2.8111 1.64895H9.97785V3.90087H5.02992C4.68341 3.90087 4.40333 4.18739 4.40333 4.54185V47.0298C4.40333 47.3842 4.68341 47.6707 5.02992 47.6707H34.9721C35.3186 47.6707 35.5987 47.3842 35.5987 47.0298L35.5982 4.54071C35.5982 4.18624 35.3182 3.89973 34.9717 3.89973L30.0237 3.90018V1.64825H37.1905C37.7 1.64825 38.1146 2.07199 38.1146 2.59361L38.1137 49.4041Z" fill="#113C7B" stroke="#113C7B" stroke-width="0.5"/>
<path d="M16.4325 25.8227H19.0518V28.4421C19.0518 28.8203 19.3576 29.126 19.7358 29.126C20.114 29.126 20.4197 28.8203 20.4197 28.4421V25.8227H23.0391C23.4173 25.8227 23.723 25.517 23.723 25.1387C23.723 24.7605 23.4173 24.4548 23.0391 24.4548H20.4197V21.8354C20.4197 21.4572 20.114 21.1515 19.7358 21.1515C19.3576 21.1515 19.0518 21.4572 19.0518 21.8354V24.4548H16.4325C16.0543 24.4548 15.7485 24.7605 15.7485 25.1387C15.7485 25.517 16.0543 25.8227 16.4325 25.8227Z" fill="#113C7B" stroke="#113C7B" stroke-width="0.5"/>
<path d="M8.41599 24.5853C10.046 31.9562 18.9531 35.7791 19.3319 35.9388C19.4118 35.9731 19.4979 35.989 19.5828 35.989C19.6681 35.989 19.7538 35.9726 19.8337 35.9388C20.212 35.78 29.1191 31.9562 30.75 24.5862C31.734 20.1394 29.3314 16.9751 26.6834 15.9168C24.0844 14.8785 21.3856 15.7416 19.5827 18.1112C17.7794 15.7416 15.0801 14.8789 12.482 15.9168C9.83442 16.9752 7.43271 20.1395 8.41581 24.5853H8.41599ZM12.9634 17.1326C13.4856 16.9245 14.0704 16.799 14.6805 16.799C16.1658 16.799 17.7976 17.5402 19.0247 19.6123C19.2597 20.008 19.9071 20.008 20.1425 19.6123C21.8732 16.6894 24.4101 16.4165 26.2035 17.1326C28.3561 17.9929 30.2996 20.6035 29.4807 24.3013C28.1416 30.3542 21.0182 33.9497 19.5832 34.6184C18.1484 33.9502 11.025 30.3542 9.68664 24.3013C8.86824 20.6031 10.8108 17.9933 12.9634 17.1326V17.1326Z" fill="#113C7B" stroke="#113C7B" stroke-width="0.5"/>
</svg>
