<svg width="56" height="56" viewBox="0 0 56 56" fill="none" xmlns="http://www.w3.org/2000/svg">
<path d="M52.0657 0.51475H3.93424C2.2539 0.51475 0.88662 1.91335 0.88662 3.63236V69.1677C0.88662 70.8867 2.25385 72.2853 3.93424 72.2853H52.0657C53.746 72.2853 55.1133 70.8867 55.1133 69.1677L55.1117 3.63236C55.1101 1.91344 53.7454 0.51475 52.0657 0.51475H52.0657ZM17.9767 12.4758H38.0201C40.2308 12.4758 42.0294 10.6598 42.0294 8.42708V7.25438H48.0788V64.9432H7.91678V7.25461H13.9666V8.42731C13.9676 10.6598 15.7662 12.4752 17.9773 12.4752L17.9767 12.4758ZM40.2767 8.42708C40.2767 9.67049 39.2649 10.6819 38.0213 10.6819H17.9769C16.7333 10.6819 15.7215 9.67046 15.7215 8.42708V7.25438L40.2756 7.25501L40.2767 8.42708ZM15.7216 5.4615V2.3088H40.2767V5.4615H15.7216ZM53.3592 69.1657C53.3592 69.8954 52.7793 70.4893 52.0654 70.4893H3.93554C3.22208 70.4893 2.64175 69.8961 2.64175 69.166V3.63203C2.64175 2.90238 3.22165 2.30853 3.93554 2.30853H13.969V5.46123H7.04189C6.55678 5.46123 6.16466 5.86235 6.16466 6.35859V65.8417C6.16466 66.3379 6.55678 66.7391 7.04189 66.7391H48.9609C49.446 66.7391 49.8382 66.3379 49.8382 65.8417L49.8375 6.35799C49.8368 5.86074 49.4455 5.45962 48.9604 5.45962L42.0333 5.46025V2.30755H52.0667C52.78 2.30755 53.3604 2.90079 53.3604 3.63105L53.3592 69.1657Z" fill="#113C7B"/>
<path d="M23.0055 36.1518H26.6725V39.8188C26.6725 40.3484 27.1006 40.7764 27.6301 40.7764C28.1596 40.7764 28.5876 40.3484 28.5876 39.8188V36.1518H32.2546C32.7841 36.1518 33.2121 35.7238 33.2121 35.1942C33.2121 34.6647 32.7841 34.2367 32.2546 34.2367H28.5876V30.5697C28.5876 30.0402 28.1596 29.6122 27.6301 29.6122C27.1006 29.6122 26.6725 30.0402 26.6725 30.5697V34.2367H23.0055C22.476 34.2367 22.048 34.6647 22.048 35.1942C22.048 35.7238 22.476 36.1518 23.0055 36.1518Z" fill="#113C7B"/>
<path d="M11.7824 34.4194C14.0644 44.7387 26.5343 50.0907 27.0647 50.3143C27.1775 50.3623 27.2971 50.3846 27.4159 50.3846C27.5351 50.3846 27.6543 50.3618 27.7671 50.3143C28.2968 50.092 40.7667 44.7387 43.05 34.4207C44.4276 28.1952 41.064 23.7651 37.3568 22.2835C33.7181 20.8299 29.9408 22.0382 27.4158 25.3557C24.8904 22.0382 21.1121 20.8305 17.4749 22.2835C13.7677 23.7653 10.4047 28.1954 11.7821 34.4194H11.7824ZM18.1488 23.9856C18.8808 23.6943 19.6986 23.5186 20.5527 23.5186C22.6321 23.5186 24.9166 24.5563 26.6346 27.4572C26.9636 28.0112 27.8709 28.0112 28.1995 27.4572C30.6225 23.3652 34.1741 22.9831 36.6849 23.9856C39.6979 25.1891 42.4194 28.8449 41.2729 34.0218C39.3982 42.4959 29.4255 47.5296 27.4165 48.4658C25.4077 47.5303 15.435 42.4959 13.5614 34.0218C12.4155 28.8443 15.136 25.1899 18.1488 23.9856V23.9856Z" fill="#113C7B"/>
</svg>
