<svg width="56" height="56" viewBox="0 0 56 56" fill="none" xmlns="http://www.w3.org/2000/svg">
<path d="M54.6088 22.7515L52.98 23.3674V36.3236C54.5183 36.7195 55.6947 38.0831 55.6947 39.7107C55.6947 41.6462 54.0659 43.2297 52.0751 43.2297C50.0843 43.2297 48.4555 41.6462 48.4555 39.7107C48.4555 38.0831 49.6319 36.7195 51.1702 36.3236V25.1372L45.7408 27.2486V48.542C45.7408 50.9237 44.6549 53.4532 43.2524 53.7173C40.4924 54.2011 35.606 54.8169 29.317 54.8169C22.1232 54.8169 17.3724 54.2011 14.7477 53.7612C13.3904 53.4973 12.2593 51.1777 12.2593 49.7981V28.9727L1.39131 22.7516C-0.463772 21.4148 -0.463772 19.1272 1.39131 17.7904L25.8327 1.0668C26.7376 0.4102 27.9592 0 29.1356 0C30.3572 0 31.5788 0.3282 32.4837 1.0668L54.6087 17.7904C56.4638 19.1272 56.4638 21.4148 54.6087 22.7516L54.6088 22.7515ZM50.2653 42.7948C50.2653 44.6016 51.0797 46.0864 52.0751 46.0864C53.0705 46.0864 53.8849 44.6016 53.8849 42.7948C53.8849 40.9881 53.0705 39.5033 52.0751 39.5033C51.0797 39.5033 50.2653 40.9881 50.2653 42.7948ZM14.0695 48.542C14.0695 49.3639 14.5219 50.5137 15.0649 50.6017C17.6891 51.0855 22.3493 52.6484 29.3167 52.6484C35.3343 52.6484 40.04 51.0855 42.9356 50.5576C43.4786 50.4697 43.931 49.3638 43.931 48.5419V30.4295L32.3484 38.7553C31.4435 39.4129 30.2219 39.7232 29.0003 39.7232C27.7786 39.7232 26.557 39.4129 25.6521 38.7553L14.0695 30.4295V48.542ZM31.8054 4.1067C31.1268 3.6121 30.1766 3.2842 29.136 3.2842C28.1407 3.2842 27.1453 3.5301 26.5118 4.0242L2.88537 20.1997L26.2864 35.7195C26.9651 36.2141 27.9605 36.5420 29.0011 36.5420C30.0417 36.5420 31.0371 36.2141 31.7158 35.7195L55.1623 20.2828L31.8054 4.1067Z" fill="#113C7B"/>
</svg>
