<svg width="54" height="30" viewBox="0 0 54 30" fill="none" xmlns="http://www.w3.org/2000/svg">
<path d="M52.6088 12.1845L50.98 12.8004V19.5306C52.5183 19.9265 53.6947 21.2901 53.6947 22.9177C53.6947 24.8532 52.0659 26.4367 50.0751 26.4367C48.0843 26.4367 46.4555 24.8532 46.4555 22.9177C46.4555 21.2901 47.6319 19.9265 49.1702 19.5306V13.5042L43.7408 15.6156V26.041C43.7408 27.3167 42.6549 28.6362 41.2524 28.9003C38.4924 29.3841 33.606 30 27.317 30C20.1232 30 15.3724 29.3842 12.7477 28.9443C11.3904 28.6804 10.2593 27.3607 10.2593 26.0411V15.6157L1.39131 12.1846C-0.463772 11.4808 -0.463772 10.2932 1.39131 9.54537L23.8327 0.571843C24.7376 0.21994 25.9592 0 27.1356 0C28.3572 0 29.5788 0.175952 30.4837 0.571843L52.6087 9.54537C54.4638 10.2932 54.4638 11.4808 52.6087 12.1846L52.6088 12.1845ZM48.2653 22.9618C48.2653 23.9296 49.0797 24.7214 50.0751 24.7214C51.0705 24.7214 51.8849 23.9296 51.8849 22.9618C51.8849 21.9941 51.0705 21.2023 50.0751 21.2023C49.0797 21.2023 48.2653 21.9941 48.2653 22.9618ZM12.0695 26.041C12.0695 26.4809 12.5219 27.0967 13.0649 27.1847C15.6891 27.6685 20.3493 28.2404 27.3167 28.2404C33.3343 28.2404 38.04 27.6685 40.9356 27.1406C41.4786 27.0527 41.931 26.4808 41.931 26.0409V16.3195L30.3484 20.7623C29.4435 21.1142 28.2219 21.2902 27.0003 21.2902C25.7786 21.2902 24.557 21.1142 23.6521 20.7623L12.0695 16.3195V26.041ZM29.8054 2.20005C29.1268 1.93612 28.1766 1.76017 27.136 1.76017C26.1407 1.76017 25.1453 1.89213 24.5118 2.15606L2.88537 10.8217L24.2864 19.1355C24.9651 19.3994 25.9605 19.5314 27.0011 19.5314C28.0417 19.5314 29.0371 19.3994 29.7158 19.1355L51.1623 10.8658L29.8054 2.20005Z" fill="#113C7B"/>
</svg>
