<svg width="56" height="34" viewBox="0 0 56 34" fill="none" xmlns="http://www.w3.org/2000/svg">
<mask id="path-1-outside-1_46058_39595" maskUnits="userSpaceOnUse" x="0" y="-0.5" width="56" height="35" fill="black">
<rect fill="white" y="-0.5" width="56" height="35"/>
<path d="M53.258 25.2341V7.50932C53.258 6.42237 52.8295 5.37965 52.0674 4.61088C51.3052 3.84216 50.2716 3.41048 49.1935 3.41048H23.9373C22.9548 3.41293 22.0063 3.77442 21.2676 4.42795C20.5288 5.08148 20.0502 5.98251 19.9193 6.9649H17.864V6.37917C17.864 5.62924 17.4675 4.93649 16.8236 4.56152C16.1792 4.18656 15.3859 4.18656 14.7419 4.56152C14.098 4.93648 13.7011 5.62923 13.7011 6.37917V6.9649H10.7981C10.6255 6.96449 10.4615 7.0421 10.3513 7.17566L3.38422 15.6254C3.29796 15.7308 3.25017 15.8636 3.25057 16.0004V25.1057C2.68763 25.1784 2.16433 25.4378 1.76423 25.8434C1.27418 26.338 0.999193 27.0088 1 27.708C1.00041 28.4069 1.27662 29.0772 1.76706 29.5709C2.25792 30.0647 2.92287 30.3417 3.61628 30.3404H7.83715C8.41265 31.6046 9.4478 32.5972 10.7284 33.1131C12.0091 33.629 13.4371 33.629 14.7177 33.1131C15.9983 32.5972 17.0335 31.6046 17.609 30.3404H39.9798C40.5553 31.6046 41.5905 32.5972 42.8711 33.1131C44.1517 33.629 45.5797 33.629 46.8604 33.1131C48.141 32.5972 49.1761 31.6046 49.7516 30.3404H52.3874C53.0795 30.3376 53.742 30.059 54.2317 29.5656C54.721 29.0718 54.9972 28.4036 55 27.7055C54.9984 27.1627 54.8299 26.6337 54.5181 26.1914C54.2062 25.7491 53.7654 25.4142 53.258 25.2341ZM21.0346 7.50932C21.0346 6.73284 21.3404 5.98821 21.8847 5.43925C22.4294 4.89028 23.1677 4.58149 23.9376 4.58149H49.1938C49.9637 4.58149 50.7024 4.89028 51.2468 5.43925C51.7911 5.98821 52.0968 6.73282 52.0968 7.50932V25.0762H49.3506C48.3555 23.5576 46.6707 22.6438 44.8657 22.6438C43.0606 22.6438 41.3758 23.5576 40.3803 25.0762H21.0348L21.0346 7.50932ZM14.8803 6.33829C14.8803 5.82569 15.2922 5.41028 15.8005 5.41028C16.3087 5.41028 16.7206 5.82569 16.7206 6.33829V6.92403H14.8629V6.33829H14.8803ZM4.42947 16.1817L11.0658 8.13597H19.8736V25.0703H17.2026C16.2071 23.5517 14.5227 22.6379 12.7173 22.6379C10.9122 22.6379 9.22784 23.5516 8.23231 25.0703H4.41765V16.2108L4.42947 16.1817ZM3.61665 29.1697C3.0286 29.171 2.49806 28.8144 2.27328 28.2666C2.0481 27.7189 2.17284 27.0882 2.58878 26.6696C2.86013 26.3931 3.2307 26.2387 3.61666 26.242H7.68077C7.34301 27.1794 7.27051 28.1931 7.4718 29.1698L3.61665 29.1697ZM12.7206 32.3316C11.6008 32.3316 10.5276 31.8835 9.73578 31.0849C8.94402 30.2864 8.49931 29.204 8.49931 28.0746C8.49931 26.9456 8.944 25.8628 9.73578 25.0647C10.5275 24.2662 11.6008 23.8177 12.7206 23.8177C13.84 23.8177 14.9136 24.2662 15.705 25.0647C16.4968 25.8628 16.9415 26.9456 16.9415 28.0746C16.9398 29.2044 16.494 30.2872 15.7014 31.0853C14.9088 31.8835 13.8347 32.332 12.7145 32.332L12.7206 32.3316ZM17.9925 29.1697C18.1937 28.1931 18.1213 27.1793 17.7835 26.2419H39.8059C39.4682 27.1793 39.3957 28.1931 39.597 29.1697H17.9925ZM44.8391 32.332C43.7197 32.332 42.6461 31.8835 41.8547 31.0849C41.0629 30.2864 40.6182 29.204 40.6182 28.0746C40.6182 26.9456 41.0629 25.8629 41.8547 25.0647C42.646 24.2662 43.7197 23.8177 44.8391 23.8177C45.9589 23.8177 47.0325 24.2662 47.8239 25.0647C48.6157 25.8628 49.0604 26.9456 49.0604 28.0746C49.0588 29.2032 48.6137 30.2852 47.8223 31.0833C47.031 31.8814 45.9581 32.3304 44.8391 32.332ZM53.4088 28.7131C53.1399 28.9892 52.7709 29.1436 52.387 29.1407H50.14C50.3413 28.1641 50.2692 27.1503 49.9311 26.2129H52.387C52.7722 26.2129 53.1411 26.3669 53.4133 26.6414C53.6858 26.9159 53.8385 27.2884 53.8385 27.6768C53.8409 28.0665 53.6858 28.4411 53.4088 28.7131Z"/>
<path d="M12.7143 25.5687C12.057 25.5687 11.4264 25.8322 10.9615 26.3011C10.4966 26.77 10.2354 27.4059 10.2354 28.0689C10.2354 28.7322 10.4966 29.3682 10.9615 29.837C11.4265 30.3059 12.057 30.5694 12.7143 30.5694C13.3721 30.5694 14.0027 30.306 14.4676 29.837C14.9325 29.3681 15.1937 28.7322 15.1937 28.0689C15.1921 27.4063 14.9305 26.7712 14.4659 26.3027C14.001 25.8341 13.3717 25.5699 12.7143 25.5687ZM12.7143 29.4042C12.1814 29.4042 11.7006 29.0802 11.4969 28.5836C11.2928 28.0869 11.4054 27.515 11.7825 27.1348C12.1595 26.755 12.7265 26.641 13.2189 26.8469C13.7114 27.0527 14.0326 27.5371 14.0326 28.0747C14.0293 28.8074 13.4409 29.4009 12.7143 29.4042Z"/>
<path d="M44.8393 25.5687C44.182 25.5687 43.5514 25.8322 43.0865 26.3011C42.6215 26.77 42.3603 27.4059 42.3603 28.0689C42.3603 28.7322 42.6215 29.3682 43.0865 29.837C43.5514 30.306 44.182 30.5694 44.8393 30.5694C45.497 30.5694 46.1276 30.306 46.5925 29.837C47.0574 29.3681 47.3186 28.7322 47.3186 28.0689C47.317 27.4063 47.0554 26.7712 46.5909 26.3027C46.1263 25.8341 45.4966 25.5699 44.8393 25.5687ZM44.8393 29.4042C44.3063 29.4042 43.826 29.0802 43.6219 28.5836C43.4178 28.0869 43.5308 27.515 43.9074 27.1348C44.2844 26.755 44.8514 26.641 45.3439 26.8469C45.8363 27.0527 46.1575 27.5371 46.1575 28.0747C46.1543 28.8074 45.5659 29.4009 44.8393 29.4042Z"/>
<path d="M17.9196 16.5268C18.0735 16.5268 18.2214 16.4651 18.3303 16.3553C18.4388 16.2454 18.5 16.0967 18.5 15.9415V9.90413C18.5 9.74892 18.4388 9.59983 18.3303 9.49037C18.2214 9.3805 18.0735 9.31882 17.9196 9.31882H11.9334C11.7581 9.318 11.5912 9.39765 11.4806 9.5353L6.66766 15.5723C6.52632 15.7479 6.49797 15.9901 6.59476 16.1939C6.69156 16.3981 6.89608 16.5276 7.12045 16.5268H17.9196ZM12.2064 10.4899H17.3332V15.3558H8.3338L12.2064 10.4899Z"/>
<path d="M16.8771 18.4143H14.3807C14.0599 18.4143 13.7999 18.6765 13.7999 19C13.7999 19.3235 14.0599 19.5857 14.3807 19.5857H16.8771C17.1978 19.5857 17.4578 19.3235 17.4578 19C17.4578 18.6765 17.1978 18.4143 16.8771 18.4143Z"/>
<path d="M29.9406 15.3799H32.9481V18.4131C32.9481 18.5684 33.0093 18.7174 33.1182 18.8273C33.2272 18.9372 33.375 18.9989 33.5289 18.9989H37.1228C37.2767 18.9989 37.4245 18.9372 37.5335 18.8273C37.642 18.7174 37.7032 18.5683 37.7032 18.4131V15.3799H40.7111C40.865 15.3799 41.0124 15.3182 41.1213 15.2084C41.2303 15.0985 41.2914 14.9498 41.2914 14.7942V11.1757C41.2914 11.0201 41.2303 10.8714 41.1213 10.7616C41.0124 10.6517 40.865 10.59 40.7111 10.59H37.7032V7.55114C37.7032 7.39552 37.642 7.24684 37.5335 7.13697C37.4245 7.0271 37.2767 6.96542 37.1228 6.96542H33.5346C33.2138 6.96542 32.9542 7.22765 32.9542 7.55116V10.59H29.9407C29.6199 10.59 29.3603 10.8522 29.3603 11.1758V14.7946C29.3603 14.9503 29.4215 15.0985 29.5304 15.2084C29.639 15.3183 29.7867 15.3799 29.9406 15.3799ZM30.5214 11.761H33.5289C33.6828 11.761 33.8306 11.6994 33.9395 11.5895C34.0481 11.48 34.1092 11.3309 34.1092 11.1757V8.13644H36.5421V11.1757C36.5421 11.3309 36.6032 11.48 36.7122 11.5895C36.8211 11.6994 36.9689 11.761 37.1228 11.761H40.1303V14.2085L37.1228 14.2089C36.8021 14.2089 36.5421 14.4711 36.5421 14.7942V17.8274H34.1153V14.7942C34.1153 14.639 34.0542 14.4899 33.9453 14.3804C33.8363 14.2706 33.6885 14.2089 33.5346 14.2089H30.5215L30.5214 11.761Z"/>
<path d="M15.8092 3.91961C15.9635 3.91961 16.1109 3.85793 16.2198 3.74806C16.3288 3.63859 16.3899 3.4895 16.3899 3.33429V1.08573C16.3899 0.762228 16.1299 0.5 15.8092 0.5C15.4888 0.5 15.2288 0.762228 15.2288 1.08573V3.33429C15.2288 3.48951 15.2899 3.6386 15.3989 3.74806C15.5078 3.85793 15.6553 3.91961 15.8092 3.91961Z"/>
<path d="M17.975 4.57C18.1293 4.57082 18.2776 4.50955 18.3873 4.40008L19.9607 2.81321C20.158 2.58079 20.1446 2.23442 19.93 2.01834C19.7157 1.80186 19.3723 1.78839 19.1418 1.9873L17.551 3.56843C17.3821 3.73753 17.3323 3.99363 17.4258 4.2142C17.5194 4.43518 17.7369 4.57613 17.975 4.57Z"/>
<path d="M13.1788 4.4006C13.4093 4.59952 13.7527 4.58604 13.967 4.36997C14.1816 4.15349 14.195 3.80712 13.9977 3.57511L12.4243 1.98823C12.1939 1.78932 11.8504 1.80239 11.6358 2.01887C11.4215 2.23494 11.4082 2.58131 11.6054 2.81373L13.1788 4.4006Z"/>
</mask>
<path d="M53.258 25.2341V7.50932C53.258 6.42237 52.8295 5.37965 52.0674 4.61088C51.3052 3.84216 50.2716 3.41048 49.1935 3.41048H23.9373C22.9548 3.41293 22.0063 3.77442 21.2676 4.42795C20.5288 5.08148 20.0502 5.98251 19.9193 6.9649H17.864V6.37917C17.864 5.62924 17.4675 4.93649 16.8236 4.56152C16.1792 4.18656 15.3859 4.18656 14.7419 4.56152C14.098 4.93648 13.7011 5.62923 13.7011 6.37917V6.9649H10.7981C10.6255 6.96449 10.4615 7.0421 10.3513 7.17566L3.38422 15.6254C3.29796 15.7308 3.25017 15.8636 3.25057 16.0004V25.1057C2.68763 25.1784 2.16433 25.4378 1.76423 25.8434C1.27418 26.338 0.999193 27.0088 1 27.708C1.00041 28.4069 1.27662 29.0772 1.76706 29.5709C2.25792 30.0647 2.92287 30.3417 3.61628 30.3404H7.83715C8.41265 31.6046 9.4478 32.5972 10.7284 33.1131C12.0091 33.629 13.4371 33.629 14.7177 33.1131C15.9983 32.5972 17.0335 31.6046 17.609 30.3404H39.9798C40.5553 31.6046 41.5905 32.5972 42.8711 33.1131C44.1517 33.629 45.5797 33.629 46.8604 33.1131C48.141 32.5972 49.1761 31.6046 49.7516 30.3404H52.3874C53.0795 30.3376 53.742 30.059 54.2317 29.5656C54.721 29.0718 54.9972 28.4036 55 27.7055C54.9984 27.1627 54.8299 26.6337 54.5181 26.1914C54.2062 25.7491 53.7654 25.4142 53.258 25.2341ZM21.0346 7.50932C21.0346 6.73284 21.3404 5.98821 21.8847 5.43925C22.4294 4.89028 23.1677 4.58149 23.9376 4.58149H49.1938C49.9637 4.58149 50.7024 4.89028 51.2468 5.43925C51.7911 5.98821 52.0968 6.73282 52.0968 7.50932V25.0762H49.3506C48.3555 23.5576 46.6707 22.6438 44.8657 22.6438C43.0606 22.6438 41.3758 23.5576 40.3803 25.0762H21.0348L21.0346 7.50932ZM14.8803 6.33829C14.8803 5.82569 15.2922 5.41028 15.8005 5.41028C16.3087 5.41028 16.7206 5.82569 16.7206 6.33829V6.92403H14.8629V6.33829H14.8803ZM4.42947 16.1817L11.0658 8.13597H19.8736V25.0703H17.2026C16.2071 23.5517 14.5227 22.6379 12.7173 22.6379C10.9122 22.6379 9.22784 23.5516 8.23231 25.0703H4.41765V16.2108L4.42947 16.1817ZM3.61665 29.1697C3.0286 29.171 2.49806 28.8144 2.27328 28.2666C2.0481 27.7189 2.17284 27.0882 2.58878 26.6696C2.86013 26.3931 3.2307 26.2387 3.61666 26.242H7.68077C7.34301 27.1794 7.27051 28.1931 7.4718 29.1698L3.61665 29.1697ZM12.7206 32.3316C11.6008 32.3316 10.5276 31.8835 9.73578 31.0849C8.94402 30.2864 8.49931 29.204 8.49931 28.0746C8.49931 26.9456 8.944 25.8628 9.73578 25.0647C10.5275 24.2662 11.6008 23.8177 12.7206 23.8177C13.84 23.8177 14.9136 24.2662 15.705 25.0647C16.4968 25.8628 16.9415 26.9456 16.9415 28.0746C16.9398 29.2044 16.494 30.2872 15.7014 31.0853C14.9088 31.8835 13.8347 32.332 12.7145 32.332L12.7206 32.3316ZM17.9925 29.1697C18.1937 28.1931 18.1213 27.1793 17.7835 26.2419H39.8059C39.4682 27.1793 39.3957 28.1931 39.597 29.1697H17.9925ZM44.8391 32.332C43.7197 32.332 42.6461 31.8835 41.8547 31.0849C41.0629 30.2864 40.6182 29.204 40.6182 28.0746C40.6182 26.9456 41.0629 25.8629 41.8547 25.0647C42.646 24.2662 43.7197 23.8177 44.8391 23.8177C45.9589 23.8177 47.0325 24.2662 47.8239 25.0647C48.6157 25.8628 49.0604 26.9456 49.0604 28.0746C49.0588 29.2032 48.6137 30.2852 47.8223 31.0833C47.031 31.8814 45.9581 32.3304 44.8391 32.332ZM53.4088 28.7131C53.1399 28.9892 52.7709 29.1436 52.387 29.1407H50.14C50.3413 28.1641 50.2692 27.1503 49.9311 26.2129H52.387C52.7722 26.2129 53.1411 26.3669 53.4133 26.6414C53.6858 26.9159 53.8385 27.2884 53.8385 27.6768C53.8409 28.0665 53.6858 28.4411 53.4088 28.7131Z" fill="#113C7B"/>
<path d="M12.7143 25.5687C12.057 25.5687 11.4264 25.8322 10.9615 26.3011C10.4966 26.77 10.2354 27.4059 10.2354 28.0689C10.2354 28.7322 10.4966 29.3682 10.9615 29.837C11.4265 30.3059 12.057 30.5694 12.7143 30.5694C13.3721 30.5694 14.0027 30.306 14.4676 29.837C14.9325 29.3681 15.1937 28.7322 15.1937 28.0689C15.1921 27.4063 14.9305 26.7712 14.4659 26.3027C14.001 25.8341 13.3717 25.5699 12.7143 25.5687ZM12.7143 29.4042C12.1814 29.4042 11.7006 29.0802 11.4969 28.5836C11.2928 28.0869 11.4054 27.515 11.7825 27.1348C12.1595 26.755 12.7265 26.641 13.2189 26.8469C13.7114 27.0527 14.0326 27.5371 14.0326 28.0747C14.0293 28.8074 13.4409 29.4009 12.7143 29.4042Z" fill="#113C7B"/>
<path d="M44.8393 25.5687C44.182 25.5687 43.5514 25.8322 43.0865 26.3011C42.6215 26.77 42.3603 27.4059 42.3603 28.0689C42.3603 28.7322 42.6215 29.3682 43.0865 29.837C43.5514 30.306 44.182 30.5694 44.8393 30.5694C45.497 30.5694 46.1276 30.306 46.5925 29.837C47.0574 29.3681 47.3186 28.7322 47.3186 28.0689C47.317 27.4063 47.0554 26.7712 46.5909 26.3027C46.1263 25.8341 45.4966 25.5699 44.8393 25.5687ZM44.8393 29.4042C44.3063 29.4042 43.826 29.0802 43.6219 28.5836C43.4178 28.0869 43.5308 27.515 43.9074 27.1348C44.2844 26.755 44.8514 26.641 45.3439 26.8469C45.8363 27.0527 46.1575 27.5371 46.1575 28.0747C46.1543 28.8074 45.5659 29.4009 44.8393 29.4042Z" fill="#113C7B"/>
<path d="M17.9196 16.5268C18.0735 16.5268 18.2214 16.4651 18.3303 16.3553C18.4388 16.2454 18.5 16.0967 18.5 15.9415V9.90413C18.5 9.74892 18.4388 9.59983 18.3303 9.49037C18.2214 9.3805 18.0735 9.31882 17.9196 9.31882H11.9334C11.7581 9.318 11.5912 9.39765 11.4806 9.5353L6.66766 15.5723C6.52632 15.7479 6.49797 15.9901 6.59476 16.1939C6.69156 16.3981 6.89608 16.5276 7.12045 16.5268H17.9196ZM12.2064 10.4899H17.3332V15.3558H8.3338L12.2064 10.4899Z" fill="#113C7B"/>
<path d="M16.8771 18.4143H14.3807C14.0599 18.4143 13.7999 18.6765 13.7999 19C13.7999 19.3235 14.0599 19.5857 14.3807 19.5857H16.8771C17.1978 19.5857 17.4578 19.3235 17.4578 19C17.4578 18.6765 17.1978 18.4143 16.8771 18.4143Z" fill="#113C7B"/>
<path d="M29.9406 15.3799H32.9481V18.4131C32.9481 18.5684 33.0093 18.7174 33.1182 18.8273C33.2272 18.9372 33.375 18.9989 33.5289 18.9989H37.1228C37.2767 18.9989 37.4245 18.9372 37.5335 18.8273C37.642 18.7174 37.7032 18.5683 37.7032 18.4131V15.3799H40.7111C40.865 15.3799 41.0124 15.3182 41.1213 15.2084C41.2303 15.0985 41.2914 14.9498 41.2914 14.7942V11.1757C41.2914 11.0201 41.2303 10.8714 41.1213 10.7616C41.0124 10.6517 40.865 10.59 40.7111 10.59H37.7032V7.55114C37.7032 7.39552 37.642 7.24684 37.5335 7.13697C37.4245 7.0271 37.2767 6.96542 37.1228 6.96542H33.5346C33.2138 6.96542 32.9542 7.22765 32.9542 7.55116V10.59H29.9407C29.6199 10.59 29.3603 10.8522 29.3603 11.1758V14.7946C29.3603 14.9503 29.4215 15.0985 29.5304 15.2084C29.639 15.3183 29.7867 15.3799 29.9406 15.3799ZM30.5214 11.761H33.5289C33.6828 11.761 33.8306 11.6994 33.9395 11.5895C34.0481 11.48 34.1092 11.3309 34.1092 11.1757V8.13644H36.5421V11.1757C36.5421 11.3309 36.6032 11.48 36.7122 11.5895C36.8211 11.6994 36.9689 11.761 37.1228 11.761H40.1303V14.2085L37.1228 14.2089C36.8021 14.2089 36.5421 14.4711 36.5421 14.7942V17.8274H34.1153V14.7942C34.1153 14.639 34.0542 14.4899 33.9453 14.3804C33.8363 14.2706 33.6885 14.2089 33.5346 14.2089H30.5215L30.5214 11.761Z" fill="#113C7B"/>
<path d="M15.8092 3.91961C15.9635 3.91961 16.1109 3.85793 16.2198 3.74806C16.3288 3.63859 16.3899 3.4895 16.3899 3.33429V1.08573C16.3899 0.762228 16.1299 0.5 15.8092 0.5C15.4888 0.5 15.2288 0.762228 15.2288 1.08573V3.33429C15.2288 3.48951 15.2899 3.6386 15.3989 3.74806C15.5078 3.85793 15.6553 3.91961 15.8092 3.91961Z" fill="#113C7B"/>
<path d="M17.975 4.57C18.1293 4.57082 18.2776 4.50955 18.3873 4.40008L19.9607 2.81321C20.158 2.58079 20.1446 2.23442 19.93 2.01834C19.7157 1.80186 19.3723 1.78839 19.1418 1.9873L17.551 3.56843C17.3821 3.73753 17.3323 3.99363 17.4258 4.2142C17.5194 4.43518 17.7369 4.57613 17.975 4.57Z" fill="#113C7B"/>
<path d="M13.1788 4.4006C13.4093 4.59952 13.7527 4.58604 13.967 4.36997C14.1816 4.15349 14.195 3.80712 13.9977 3.57511L12.4243 1.98823C12.1939 1.78932 11.8504 1.80239 11.6358 2.01887C11.4215 2.23494 11.4082 2.58131 11.6054 2.81373L13.1788 4.4006Z" fill="#113C7B"/>
<path d="M53.258 25.2341V7.50932C53.258 6.42237 52.8295 5.37965 52.0674 4.61088C51.3052 3.84216 50.2716 3.41048 49.1935 3.41048H23.9373C22.9548 3.41293 22.0063 3.77442 21.2676 4.42795C20.5288 5.08148 20.0502 5.98251 19.9193 6.9649H17.864V6.37917C17.864 5.62924 17.4675 4.93649 16.8236 4.56152C16.1792 4.18656 15.3859 4.18656 14.7419 4.56152C14.098 4.93648 13.7011 5.62923 13.7011 6.37917V6.9649H10.7981C10.6255 6.96449 10.4615 7.0421 10.3513 7.17566L3.38422 15.6254C3.29796 15.7308 3.25017 15.8636 3.25057 16.0004V25.1057C2.68763 25.1784 2.16433 25.4378 1.76423 25.8434C1.27418 26.338 0.999193 27.0088 1 27.708C1.00041 28.4069 1.27662 29.0772 1.76706 29.5709C2.25792 30.0647 2.92287 30.3417 3.61628 30.3404H7.83715C8.41265 31.6046 9.4478 32.5972 10.7284 33.1131C12.0091 33.629 13.4371 33.629 14.7177 33.1131C15.9983 32.5972 17.0335 31.6046 17.609 30.3404H39.9798C40.5553 31.6046 41.5905 32.5972 42.8711 33.1131C44.1517 33.629 45.5797 33.629 46.8604 33.1131C48.141 32.5972 49.1761 31.6046 49.7516 30.3404H52.3874C53.0795 30.3376 53.742 30.059 54.2317 29.5656C54.721 29.0718 54.9972 28.4036 55 27.7055C54.9984 27.1627 54.8299 26.6337 54.5181 26.1914C54.2062 25.7491 53.7654 25.4142 53.258 25.2341ZM21.0346 7.50932C21.0346 6.73284 21.3404 5.98821 21.8847 5.43925C22.4294 4.89028 23.1677 4.58149 23.9376 4.58149H49.1938C49.9637 4.58149 50.7024 4.89028 51.2468 5.43925C51.7911 5.98821 52.0968 6.73282 52.0968 7.50932V25.0762H49.3506C48.3555 23.5576 46.6707 22.6438 44.8657 22.6438C43.0606 22.6438 41.3758 23.5576 40.3803 25.0762H21.0348L21.0346 7.50932ZM14.8803 6.33829C14.8803 5.82569 15.2922 5.41028 15.8005 5.41028C16.3087 5.41028 16.7206 5.82569 16.7206 6.33829V6.92403H14.8629V6.33829H14.8803ZM4.42947 16.1817L11.0658 8.13597H19.8736V25.0703H17.2026C16.2071 23.5517 14.5227 22.6379 12.7173 22.6379C10.9122 22.6379 9.22784 23.5516 8.23231 25.0703H4.41765V16.2108L4.42947 16.1817ZM3.61665 29.1697C3.0286 29.171 2.49806 28.8144 2.27328 28.2666C2.0481 27.7189 2.17284 27.0882 2.58878 26.6696C2.86013 26.3931 3.2307 26.2387 3.61666 26.242H7.68077C7.34301 27.1794 7.27051 28.1931 7.4718 29.1698L3.61665 29.1697ZM12.7206 32.3316C11.6008 32.3316 10.5276 31.8835 9.73578 31.0849C8.94402 30.2864 8.49931 29.204 8.49931 28.0746C8.49931 26.9456 8.944 25.8628 9.73578 25.0647C10.5275 24.2662 11.6008 23.8177 12.7206 23.8177C13.84 23.8177 14.9136 24.2662 15.705 25.0647C16.4968 25.8628 16.9415 26.9456 16.9415 28.0746C16.9398 29.2044 16.494 30.2872 15.7014 31.0853C14.9088 31.8835 13.8347 32.332 12.7145 32.332L12.7206 32.3316ZM17.9925 29.1697C18.1937 28.1931 18.1213 27.1793 17.7835 26.2419H39.8059C39.4682 27.1793 39.3957 28.1931 39.597 29.1697H17.9925ZM44.8391 32.332C43.7197 32.332 42.6461 31.8835 41.8547 31.0849C41.0629 30.2864 40.6182 29.204 40.6182 28.0746C40.6182 26.9456 41.0629 25.8629 41.8547 25.0647C42.646 24.2662 43.7197 23.8177 44.8391 23.8177C45.9589 23.8177 47.0325 24.2662 47.8239 25.0647C48.6157 25.8628 49.0604 26.9456 49.0604 28.0746C49.0588 29.2032 48.6137 30.2852 47.8223 31.0833C47.031 31.8814 45.9581 32.3304 44.8391 32.332ZM53.4088 28.7131C53.1399 28.9892 52.7709 29.1436 52.387 29.1407H50.14C50.3413 28.1641 50.2692 27.1503 49.9311 26.2129H52.387C52.7722 26.2129 53.1411 26.3669 53.4133 26.6414C53.6858 26.9159 53.8385 27.2884 53.8385 27.6768C53.8409 28.0665 53.6858 28.4411 53.4088 28.7131Z" stroke="#113C7B" stroke-width="0.4" mask="url(#path-1-outside-1_46058_39595)"/>
<path d="M12.7143 25.5687C12.057 25.5687 11.4264 25.8322 10.9615 26.3011C10.4966 26.77 10.2354 27.4059 10.2354 28.0689C10.2354 28.7322 10.4966 29.3682 10.9615 29.837C11.4265 30.3059 12.057 30.5694 12.7143 30.5694C13.3721 30.5694 14.0027 30.306 14.4676 29.837C14.9325 29.3681 15.1937 28.7322 15.1937 28.0689C15.1921 27.4063 14.9305 26.7712 14.4659 26.3027C14.001 25.8341 13.3717 25.5699 12.7143 25.5687ZM12.7143 29.4042C12.1814 29.4042 11.7006 29.0802 11.4969 28.5836C11.2928 28.0869 11.4054 27.515 11.7825 27.1348C12.1595 26.755 12.7265 26.641 13.2189 26.8469C13.7114 27.0527 14.0326 27.5371 14.0326 28.0747C14.0293 28.8074 13.4409 29.4009 12.7143 29.4042Z" stroke="#113C7B" stroke-width="0.4" mask="url(#path-1-outside-1_46058_39595)"/>
<path d="M44.8393 25.5687C44.182 25.5687 43.5514 25.8322 43.0865 26.3011C42.6215 26.77 42.3603 27.4059 42.3603 28.0689C42.3603 28.7322 42.6215 29.3682 43.0865 29.837C43.5514 30.306 44.182 30.5694 44.8393 30.5694C45.497 30.5694 46.1276 30.306 46.5925 29.837C47.0574 29.3681 47.3186 28.7322 47.3186 28.0689C47.317 27.4063 47.0554 26.7712 46.5909 26.3027C46.1263 25.8341 45.4966 25.5699 44.8393 25.5687ZM44.8393 29.4042C44.3063 29.4042 43.826 29.0802 43.6219 28.5836C43.4178 28.0869 43.5308 27.515 43.9074 27.1348C44.2844 26.755 44.8514 26.641 45.3439 26.8469C45.8363 27.0527 46.1575 27.5371 46.1575 28.0747C46.1543 28.8074 45.5659 29.4009 44.8393 29.4042Z" stroke="#113C7B" stroke-width="0.4" mask="url(#path-1-outside-1_46058_39595)"/>
<path d="M17.9196 16.5268C18.0735 16.5268 18.2214 16.4651 18.3303 16.3553C18.4388 16.2454 18.5 16.0967 18.5 15.9415V9.90413C18.5 9.74892 18.4388 9.59983 18.3303 9.49037C18.2214 9.3805 18.0735 9.31882 17.9196 9.31882H11.9334C11.7581 9.318 11.5912 9.39765 11.4806 9.5353L6.66766 15.5723C6.52632 15.7479 6.49797 15.9901 6.59476 16.1939C6.69156 16.3981 6.89608 16.5276 7.12045 16.5268H17.9196ZM12.2064 10.4899H17.3332V15.3558H8.3338L12.2064 10.4899Z" stroke="#113C7B" stroke-width="0.4" mask="url(#path-1-outside-1_46058_39595)"/>
<path d="M16.8771 18.4143H14.3807C14.0599 18.4143 13.7999 18.6765 13.7999 19C13.7999 19.3235 14.0599 19.5857 14.3807 19.5857H16.8771C17.1978 19.5857 17.4578 19.3235 17.4578 19C17.4578 18.6765 17.1978 18.4143 16.8771 18.4143Z" stroke="#113C7B" stroke-width="0.4" mask="url(#path-1-outside-1_46058_39595)"/>
<path d="M29.9406 15.3799H32.9481V18.4131C32.9481 18.5684 33.0093 18.7174 33.1182 18.8273C33.2272 18.9372 33.375 18.9989 33.5289 18.9989H37.1228C37.2767 18.9989 37.4245 18.9372 37.5335 18.8273C37.642 18.7174 37.7032 18.5683 37.7032 18.4131V15.3799H40.7111C40.865 15.3799 41.0124 15.3182 41.1213 15.2084C41.2303 15.0985 41.2914 14.9498 41.2914 14.7942V11.1757C41.2914 11.0201 41.2303 10.8714 41.1213 10.7616C41.0124 10.6517 40.865 10.59 40.7111 10.59H37.7032V7.55114C37.7032 7.39552 37.642 7.24684 37.5335 7.13697C37.4245 7.0271 37.2767 6.96542 37.1228 6.96542H33.5346C33.2138 6.96542 32.9542 7.22765 32.9542 7.55116V10.59H29.9407C29.6199 10.59 29.3603 10.8522 29.3603 11.1758V14.7946C29.3603 14.9503 29.4215 15.0985 29.5304 15.2084C29.639 15.3183 29.7867 15.3799 29.9406 15.3799ZM30.5214 11.761H33.5289C33.6828 11.761 33.8306 11.6994 33.9395 11.5895C34.0481 11.48 34.1092 11.3309 34.1092 11.1757V8.13644H36.5421V11.1757C36.5421 11.3309 36.6032 11.48 36.7122 11.5895C36.8211 11.6994 36.9689 11.761 37.1228 11.761H40.1303V14.2085L37.1228 14.2089C36.8021 14.2089 36.5421 14.4711 36.5421 14.7942V17.8274H34.1153V14.7942C34.1153 14.639 34.0542 14.4899 33.9453 14.3804C33.8363 14.2706 33.6885 14.2089 33.5346 14.2089H30.5215L30.5214 11.761Z" stroke="#113C7B" stroke-width="0.4" mask="url(#path-1-outside-1_46058_39595)"/>
<path d="M15.8092 3.91961C15.9635 3.91961 16.1109 3.85793 16.2198 3.74806C16.3288 3.63859 16.3899 3.4895 16.3899 3.33429V1.08573C16.3899 0.762228 16.1299 0.5 15.8092 0.5C15.4888 0.5 15.2288 0.762228 15.2288 1.08573V3.33429C15.2288 3.48951 15.2899 3.6386 15.3989 3.74806C15.5078 3.85793 15.6553 3.91961 15.8092 3.91961Z" stroke="#113C7B" stroke-width="0.4" mask="url(#path-1-outside-1_46058_39595)"/>
<path d="M17.975 4.57C18.1293 4.57082 18.2776 4.50955 18.3873 4.40008L19.9607 2.81321C20.158 2.58079 20.1446 2.23442 19.93 2.01834C19.7157 1.80186 19.3723 1.78839 19.1418 1.9873L17.551 3.56843C17.3821 3.73753 17.3323 3.99363 17.4258 4.2142C17.5194 4.43518 17.7369 4.57613 17.975 4.57Z" stroke="#113C7B" stroke-width="0.4" mask="url(#path-1-outside-1_46058_39595)"/>
<path d="M13.1788 4.4006C13.4093 4.59952 13.7527 4.58604 13.967 4.36997C14.1816 4.15349 14.195 3.80712 13.9977 3.57511L12.4243 1.98823C12.1939 1.78932 11.8504 1.80239 11.6358 2.01887C11.4215 2.23494 11.4082 2.58131 11.6054 2.81373L13.1788 4.4006Z" stroke="#113C7B" stroke-width="0.4" mask="url(#path-1-outside-1_46058_39595)"/>
</svg>
