<svg width="56" height="56" viewBox="0 0 56 56" fill="none" xmlns="http://www.w3.org/2000/svg">
<path d="M48 18V14C48 12.5 47.5 11 46.5 10C45.5 9 44 8.5 42.5 8.5H13.5C12 8.5 10.5 9 9.5 10C8.5 11 8 12.5 8 14V18H5C4.5 18 4 18.5 4 19V42C4 42.5 4.5 43 5 43H8V45C8 46.7 9.3 48 11 48H13C14.7 48 16 46.7 16 45V43H40V45C40 46.7 41.3 48 43 48H45C46.7 48 48 46.7 48 45V43H51C51.5 43 52 42.5 52 42V19C52 18.5 51.5 18 51 18H48ZM10 14C10 13.5 10.5 13 11 13H45C45.5 13 46 13.5 46 14V18H10V14ZM6 20H50V41H6V20ZM14 45C14 45.5 13.5 46 13 46H11C10.5 46 10 45.5 10 45V43H14V45ZM46 45C46 45.5 45.5 46 45 46H43C42.5 46 42 45.5 42 45V43H46V45Z" fill="#113C7B"/>
<path d="M28 22C26.3 22 25 23.3 25 25V27H23C22.4 27 22 27.4 22 28V33C22 33.6 22.4 34 23 34H25V36C25 37.7 26.3 39 28 39C29.7 39 31 37.7 31 36V34H33C33.6 34 34 33.6 34 33V28C34 27.4 33.6 27 33 27H31V25C31 23.3 29.7 22 28 22ZM29 25V29H32V32H29V36C29 36.5 28.5 37 28 37C27.5 37 27 36.5 27 36V32H24V29H27V25C27 24.5 27.5 24 28 24C28.5 24 29 24.5 29 25Z" fill="#113C7B"/>
</svg>
