<svg width="56" height="42" viewBox="0 0 56 42" fill="none" xmlns="http://www.w3.org/2000/svg">
<path d="M52.0803 6.02614H37.4056V3.04412C37.4056 1.64157 36.2496 0.5 34.8284 0.5H21.1724C19.7516 0.5 18.5952 1.64117 18.5952 3.04412V6.02614H3.91951C2.30962 6.02614 1 7.31896 1 8.9082V38.6179C1 40.2072 2.30962 41.5 3.91951 41.5H52.0801C53.69 41.5 54.9996 40.2072 54.9996 38.6179L55 8.9082C55 7.31896 53.69 6.02614 52.0805 6.02614H52.0803ZM20.2809 3.04412C20.2809 2.55988 20.6796 2.16588 21.1705 2.16588H34.8275C35.3181 2.16588 35.7172 2.55949 35.7172 3.04412V6.02614H20.2809L20.2809 3.04412ZM52.0803 39.8343H3.91971C3.24085 39.8343 2.68766 39.289 2.68766 38.618V20.3061C3.00759 20.4368 3.35824 20.5095 3.72545 20.5095H25.039V21.9988C25.039 22.7397 25.6497 23.343 26.3999 23.343H29.5988C30.3494 23.343 30.9597 22.7401 30.9597 21.9988V20.5095H52.2733C52.6405 20.5095 52.9911 20.4368 53.311 20.3061V38.618C53.3122 39.289 52.759 39.8343 52.0802 39.8343H52.0803ZM26.7261 21.6767V17.6771H29.2725V21.6767H26.7261ZM52.274 18.8432H30.9604V17.3539C30.9604 16.613 30.3497 16.0105 29.5995 16.0105H26.4006C25.65 16.0105 25.0397 16.6134 25.0397 17.3539V18.8432H3.72615C3.15367 18.8432 2.68836 18.3839 2.68836 17.8187V8.9084C2.68836 8.23824 3.24076 7.69215 3.92042 7.69215H52.081C52.7599 7.69215 53.3131 8.23746 53.3131 8.9084V17.8195C53.3131 18.3839 52.847 18.8432 52.2745 18.8432H52.274Z" fill="#113C7B"/>
</svg>
