<svg width="56" height="42" viewBox="0 0 56 42" fill="none" xmlns="http://www.w3.org/2000/svg">
<mask id="path-1-outside-1_46058_39600" maskUnits="userSpaceOnUse" x="0" y="-0.5" width="56" height="43" fill="black">
<rect fill="white" y="-0.5" width="56" height="43"/>
<path d="M52.0803 6.02614H37.4056V3.04412C37.4056 1.64157 36.2496 0.5 34.8284 0.5H21.1724C19.7516 0.5 18.5952 1.64117 18.5952 3.04412V6.02614H3.91951C2.30962 6.02614 1 7.31896 1 8.9082V38.6179C1 40.2072 2.30962 41.5 3.91951 41.5H52.0801C53.69 41.5 54.9996 40.2072 54.9996 38.6179L55 8.9082C55 7.31896 53.69 6.02614 52.0805 6.02614H52.0803ZM20.2809 3.04412C20.2809 2.55988 20.6796 2.16588 21.1705 2.16588H34.8275C35.3181 2.16588 35.7172 2.55949 35.7172 3.04412V6.02614H20.2809L20.2809 3.04412ZM52.0803 39.8343H3.91971C3.24085 39.8343 2.68766 39.289 2.68766 38.618V20.3061C3.00759 20.4368 3.35824 20.5095 3.72545 20.5095H25.039V21.9988C25.039 22.7397 25.6497 23.343 26.3999 23.343H29.5988C30.3494 23.343 30.9597 22.7401 30.9597 21.9988V20.5095H52.2733C52.6405 20.5095 52.9911 20.4368 53.311 20.3061V38.618C53.3122 39.289 52.759 39.8343 52.0802 39.8343H52.0803ZM26.7261 21.6767V17.6771H29.2725V21.6767H26.7261ZM52.274 18.8432H30.9604V17.3539C30.9604 16.613 30.3497 16.0105 29.5995 16.0105H26.4006C25.65 16.0105 25.0397 16.6134 25.0397 17.3539V18.8432H3.72615C3.15367 18.8432 2.68836 18.3839 2.68836 17.8187V8.9084C2.68836 8.23824 3.24076 7.69215 3.92042 7.69215H52.081C52.7599 7.69215 53.3131 8.23746 53.3131 8.9084V17.8195C53.3131 18.3839 52.847 18.8432 52.2745 18.8432H52.274Z"/>
</mask>
<path d="M52.0803 6.02614H37.4056V3.04412C37.4056 1.64157 36.2496 0.5 34.8284 0.5H21.1724C19.7516 0.5 18.5952 1.64117 18.5952 3.04412V6.02614H3.91951C2.30962 6.02614 1 7.31896 1 8.9082V38.6179C1 40.2072 2.30962 41.5 3.91951 41.5H52.0801C53.69 41.5 54.9996 40.2072 54.9996 38.6179L55 8.9082C55 7.31896 53.69 6.02614 52.0805 6.02614H52.0803ZM20.2809 3.04412C20.2809 2.55988 20.6796 2.16588 21.1705 2.16588H34.8275C35.3181 2.16588 35.7172 2.55949 35.7172 3.04412V6.02614H20.2809L20.2809 3.04412ZM52.0803 39.8343H3.91971C3.24085 39.8343 2.68766 39.289 2.68766 38.618V20.3061C3.00759 20.4368 3.35824 20.5095 3.72545 20.5095H25.039V21.9988C25.039 22.7397 25.6497 23.343 26.3999 23.343H29.5988C30.3494 23.343 30.9597 22.7401 30.9597 21.9988V20.5095H52.2733C52.6405 20.5095 52.9911 20.4368 53.311 20.3061V38.618C53.3122 39.289 52.759 39.8343 52.0802 39.8343H52.0803ZM26.7261 21.6767V17.6771H29.2725V21.6767H26.7261ZM52.274 18.8432H30.9604V17.3539C30.9604 16.613 30.3497 16.0105 29.5995 16.0105H26.4006C25.65 16.0105 25.0397 16.6134 25.0397 17.3539V18.8432H3.72615C3.15367 18.8432 2.68836 18.3839 2.68836 17.8187V8.9084C2.68836 8.23824 3.24076 7.69215 3.92042 7.69215H52.081C52.7599 7.69215 53.3131 8.23746 53.3131 8.9084V17.8195C53.3131 18.3839 52.847 18.8432 52.2745 18.8432H52.274Z" fill="#113C7B"/>
<path d="M37.4056 6.02614H37.3056V6.12614H37.4056V6.02614ZM18.5952 6.02614V6.12614H18.6952V6.02614H18.5952ZM54.9996 38.6179H54.8996H54.9996ZM55 8.9082L55.1 8.9082V8.9082H55ZM20.2809 3.04412H20.1809V3.04412L20.2809 3.04412ZM35.7172 6.02614V6.12614H35.8172V6.02614H35.7172ZM20.2809 6.02614L20.1809 6.02614L20.1809 6.12614H20.2809V6.02614ZM2.68766 20.3061L2.72547 20.2135L2.58766 20.1572V20.3061H2.68766ZM25.039 20.5095H25.139V20.4095H25.039V20.5095ZM30.9597 20.5095V20.4095H30.8597V20.5095H30.9597ZM53.311 20.3061H53.411V20.1572L53.2732 20.2135L53.311 20.3061ZM53.311 38.618H53.211V38.6182L53.311 38.618ZM26.7261 21.6767H26.6261V21.7767H26.7261V21.6767ZM26.7261 17.6771V17.5771H26.6261V17.6771H26.7261ZM29.2725 17.6771H29.3725V17.5771H29.2725V17.6771ZM29.2725 21.6767V21.7767H29.3725V21.6767H29.2725ZM30.9604 18.8432H30.8604V18.9432H30.9604V18.8432ZM25.0397 18.8432V18.9432H25.1397V18.8432H25.0397ZM52.0803 5.92614H37.4056V6.12614H52.0803V5.92614ZM37.5056 6.02614V3.04412H37.3056V6.02614H37.5056ZM37.5056 3.04412C37.5056 1.58514 36.3036 0.4 34.8284 0.4V0.6C36.1956 0.6 37.3056 1.698 37.3056 3.04412H37.5056ZM34.8284 0.4H21.1724V0.6H34.8284V0.4ZM21.1724 0.4C19.6976 0.4 18.4952 1.58472 18.4952 3.04412H18.6952C18.6952 1.69762 19.8056 0.6 21.1724 0.6V0.4ZM18.4952 3.04412V6.02614H18.6952V3.04412H18.4952ZM18.5952 5.92614H3.91951V6.12614H18.5952V5.92614ZM3.91951 5.92614C2.25561 5.92614 0.9 7.26252 0.9 8.9082H1.1C1.1 7.3754 2.36363 6.12614 3.91951 6.12614V5.92614ZM0.9 8.9082V38.6179H1.1V8.9082H0.9ZM0.9 38.6179C0.9 40.2636 2.25561 41.6 3.91951 41.6V41.4C2.36363 41.4 1.1 40.1507 1.1 38.6179H0.9ZM3.91951 41.6H52.0801V41.4H3.91951V41.6ZM52.0801 41.6C53.744 41.6 55.0996 40.2636 55.0996 38.6179H54.8996C54.8996 40.1507 53.636 41.4 52.0801 41.4V41.6ZM55.0996 38.6179L55.1 8.9082L54.9 8.9082L54.8996 38.6179L55.0996 38.6179ZM55.1 8.9082C55.1 7.26251 53.744 5.92614 52.0805 5.92614V6.12614C53.636 6.12614 54.9 7.37541 54.9 8.9082H55.1ZM52.0805 5.92614H52.0803V6.12614H52.0805V5.92614ZM20.3809 3.04412C20.3809 2.61629 20.7336 2.26588 21.1705 2.26588V2.06588C20.6256 2.06588 20.1809 2.50346 20.1809 3.04412H20.3809ZM21.1705 2.26588H34.8275V2.06588H21.1705V2.26588ZM34.8275 2.26588C35.2641 2.26588 35.6172 2.61596 35.6172 3.04412H35.8172C35.8172 2.50302 35.372 2.06588 34.8275 2.06588V2.26588ZM35.6172 3.04412V6.02614H35.8172V3.04412H35.6172ZM35.7172 5.92614H20.2809V6.12614H35.7172V5.92614ZM20.3809 6.02614L20.3809 3.04411L20.1809 3.04412L20.1809 6.02614L20.3809 6.02614ZM52.0803 39.7343H3.91971V39.9343H52.0803V39.7343ZM3.91971 39.7343C3.29481 39.7343 2.78766 39.2325 2.78766 38.618H2.58766C2.58766 39.3455 3.18688 39.9343 3.91971 39.9343V39.7343ZM2.78766 38.618V20.3061H2.58766V38.618H2.78766ZM2.64984 20.3987C2.98147 20.5341 3.34495 20.6095 3.72545 20.6095V20.4095C3.37154 20.4095 3.03371 20.3394 2.72547 20.2135L2.64984 20.3987ZM3.72545 20.6095H25.039V20.4095H3.72545V20.6095ZM24.939 20.5095V21.9988H25.139V20.5095H24.939ZM24.939 21.9988C24.939 22.7961 25.5957 23.443 26.3999 23.443V23.243C25.7038 23.243 25.139 22.6833 25.139 21.9988H24.939ZM26.3999 23.443H29.5988V23.243H26.3999V23.443ZM29.5988 23.443C30.4034 23.443 31.0597 22.7965 31.0597 21.9988H30.8597C30.8597 22.6837 30.2953 23.243 29.5988 23.243V23.443ZM31.0597 21.9988V20.5095H30.8597V21.9988H31.0597ZM30.9597 20.6095H52.2733V20.4095H30.9597V20.6095ZM52.2733 20.6095C52.6538 20.6095 53.0172 20.5341 53.3489 20.3987L53.2732 20.2135C52.965 20.3394 52.6272 20.4095 52.2733 20.4095V20.6095ZM53.211 20.3061V38.618H53.411V20.3061H53.211ZM53.211 38.6182C53.2121 39.2325 52.7051 39.7343 52.0802 39.7343V39.9343C52.813 39.9343 53.4123 39.3455 53.411 38.6179L53.211 38.6182ZM52.0802 39.9343H52.0803V39.7343H52.0802V39.9343ZM26.8261 21.6767V17.6771H26.6261V21.6767H26.8261ZM26.7261 17.7771H29.2725V17.5771H26.7261V17.7771ZM29.1725 17.6771V21.6767H29.3725V17.6771H29.1725ZM29.2725 21.5767H26.7261V21.7767H29.2725V21.5767ZM52.274 18.7432H30.9604V18.9432H52.274V18.7432ZM31.0604 18.8432V17.3539H30.8604V18.8432H31.0604ZM31.0604 17.3539C31.0604 16.5565 30.4037 15.9105 29.5995 15.9105V16.1105C30.2957 16.1105 30.8604 16.6695 30.8604 17.3539H31.0604ZM29.5995 15.9105H26.4006V16.1105H29.5995V15.9105ZM26.4006 15.9105C25.596 15.9105 24.9397 16.557 24.9397 17.3539H25.1397C25.1397 16.6698 25.7041 16.1105 26.4006 16.1105V15.9105ZM24.9397 17.3539V18.8432H25.1397V17.3539H24.9397ZM25.0397 18.7432H3.72615V18.9432H25.0397V18.7432ZM3.72615 18.7432C3.20768 18.7432 2.78836 18.3274 2.78836 17.8187H2.58836C2.58836 18.4403 3.09966 18.9432 3.72615 18.9432V18.7432ZM2.78836 17.8187V8.9084H2.58836V17.8187H2.78836ZM2.78836 8.9084C2.78836 8.29464 3.29481 7.79215 3.92042 7.79215V7.59215C3.18671 7.59215 2.58836 8.18184 2.58836 8.9084H2.78836ZM3.92042 7.79215H52.081V7.59215H3.92042V7.79215ZM52.081 7.79215C52.7059 7.79215 53.2131 8.29394 53.2131 8.9084H53.4131C53.4131 8.18097 52.8138 7.59215 52.081 7.59215V7.79215ZM53.2131 8.9084V17.8195H53.4131V8.9084H53.2131ZM53.2131 17.8195C53.2131 18.3273 52.7931 18.7432 52.2745 18.7432V18.9432C52.9008 18.9432 53.4131 18.4405 53.4131 17.8195H53.2131ZM52.2745 18.7432H52.274V18.9432H52.2745V18.7432Z" fill="#113C7B" mask="url(#path-1-outside-1_46058_39600)"/>
</svg>
