<svg width="56" height="56" viewBox="0 0 56 56" fill="none" xmlns="http://www.w3.org/2000/svg">
<path d="M28.9607 8.66743C28.6381 8.43979 28.2042 8.44479 27.8873 8.67928C27.2782 9.1308 12.9646 19.865 13 31.0118C13.026 39.2428 19.5174 45.9745 27.6445 46.4453L27.6577 50.6088C27.6596 51.1015 28.0651 51.5 28.5648 51.5H28.5673C29.0683 51.4981 29.4731 51.0971 29.4711 50.6026L29.4579 46.4472C33.2182 46.2296 36.7291 44.6904 39.4224 42.0267C42.387 39.0943 44.0132 35.1809 43.9999 31.0073C43.962 19.4092 29.5723 9.10107 28.9608 8.66681L28.9607 8.66743ZM38.1391 40.7644C35.7875 43.0906 32.7293 44.4459 29.4523 44.6597L29.4327 38.6308L37.0557 31.0914C37.4092 30.7416 37.408 30.1753 37.0538 29.8273C36.6989 29.4787 36.1246 29.4799 35.7717 29.8292L29.4245 36.1068L29.3998 28.5588L33.2834 24.7177C33.6369 24.3678 33.6357 23.8015 33.2815 23.4535C32.9279 23.1043 32.3542 23.1055 32 23.4548L29.3922 26.0341L29.3733 20.2198C29.3714 19.7271 28.9659 19.3286 28.4662 19.3286H28.4637C27.9628 19.3305 27.5579 19.7315 27.5599 20.2261L27.5788 26.0005L24.9868 23.4529C24.632 23.1042 24.0576 23.1055 23.7047 23.4547C23.3511 23.8046 23.3524 24.3709 23.7066 24.7189L27.587 28.5332L27.6117 36.105L21.2234 29.8267C20.8692 29.4781 20.2955 29.4793 19.9413 29.8286C19.5877 30.1784 19.589 30.7447 19.9432 31.0927L27.6199 38.6377L27.6395 44.6572C20.5124 44.1863 14.8364 38.2529 14.8142 31.0073C14.7851 21.907 25.861 12.5752 28.4448 10.5236C31.0482 12.5068 42.157 21.5254 42.1873 31.0137C42.1986 34.7083 40.761 38.1713 38.1392 40.7651L38.1391 40.7644Z" fill="#113C7B"/>
</svg>
