<svg width="31" height="44" viewBox="0 0 31 44" fill="none" xmlns="http://www.w3.org/2000/svg">
<path d="M15.9607 0.667429C15.6381 0.439793 15.2042 0.444791 14.8873 0.679279C14.2782 1.1308 -0.0353951 11.865 6.5779e-05 23.0118C0.0259992 31.2428 6.51743 37.9745 14.6445 38.4453L14.6577 42.6088C14.6596 43.1015 15.0651 43.5 15.5648 43.5H15.5673C16.0683 43.4981 16.4731 43.0971 16.4711 42.6026L16.4579 38.4472C20.2182 38.2296 23.7291 36.6904 26.4224 34.0267C29.387 31.0943 31.0132 27.1809 30.9999 23.0073C30.962 11.4092 16.5723 1.10107 15.9608 0.666811L15.9607 0.667429ZM25.1391 32.7644C22.7875 35.0906 19.7293 36.4459 16.4523 36.6597L16.4327 30.6308L24.0557 23.0914C24.4092 22.7416 24.408 22.1753 24.0538 21.8273C23.6989 21.4787 23.1246 21.4799 22.7717 21.8292L16.4245 28.1068L16.3998 20.5588L20.2834 16.7177C20.6369 16.3678 20.6357 15.8015 20.2815 15.4535C19.9279 15.1043 19.3542 15.1055 19 15.4548L16.3922 18.0341L16.3733 12.2198C16.3714 11.7271 15.9659 11.3286 15.4662 11.3286H15.4637C14.9628 11.3305 14.5579 11.7315 14.5599 12.2261L14.5788 18.0005L11.9868 15.4529C11.632 15.1042 11.0576 15.1055 10.7047 15.4547C10.3511 15.8046 10.3524 16.3709 10.7066 16.7189L14.587 20.5332L14.6117 28.105L8.2234 21.8267C7.8692 21.4781 7.29551 21.4793 6.9413 21.8286C6.58773 22.1784 6.58899 22.7447 6.9432 23.0927L14.6199 30.6377L14.6395 36.6572C7.51237 36.1863 1.83635 30.2529 1.81417 23.0073C1.78507 13.907 12.861 4.57516 15.4448 2.52359C18.0482 4.50682 29.157 13.5254 29.1873 23.0137C29.1986 26.7083 27.761 30.1713 25.1392 32.7651L25.1391 32.7644Z" fill="#113C7B"/>
</svg>
