<svg width="48" height="52" viewBox="0 0 48 52" fill="none" xmlns="http://www.w3.org/2000/svg">
<path d="M45.1432 32.8971L41.6964 31.7614V31.7618C40.833 31.4771 39.8904 31.5416 39.0751 31.9417C38.2595 32.3414 37.6375 33.0444 37.3444 33.8965L36.2197 33.6186V23.6421C36.2201 23.2337 36.1456 22.8285 36.0003 22.4462L27.8687 1.00926C27.7411 0.667572 27.4956 0.381388 27.1749 0.201478C26.8546 0.0215678 26.48 -0.0404605 26.1178 0.0259228C25.2952 0.181894 24.5493 0.606278 23.9999 1.2312C23.4503 0.606231 22.704 0.181458 21.881 0.0255514C21.5188 -0.0401012 21.1446 0.0222869 20.8246 0.202555C20.5047 0.382465 20.2588 0.668287 20.1311 1.00961L11.9996 22.4456C11.8543 22.8283 11.7798 23.2334 11.7801 23.6422V33.6188L10.6555 33.8966C10.3623 33.0446 9.74042 32.3416 8.92474 31.9419C8.10945 31.5418 7.16683 31.4772 6.30351 31.762L2.85672 32.8976V32.8973C2.17022 33.1232 1.57288 33.5567 1.14981 34.1371C0.726749 34.7175 0.499634 35.4146 0.5 36.1299V48.5922C0.501101 49.4957 0.864715 50.3616 1.51088 51.0003C2.15702 51.6391 3.03284 51.9985 3.94688 51.9996H7.3933C8.30729 51.9986 9.18315 51.6391 9.8293 51.0003C10.4754 50.3616 10.8391 49.4958 10.8402 48.5922V46.0691L15.9165 43.5601L16.0284 43.5184C19.2044 42.3413 22.4498 41.1277 24 38.5585C25.5502 41.1277 28.7957 42.341 31.9716 43.5184L37.1598 46.077V48.5929C37.1609 49.4961 37.5245 50.3623 38.1707 51.001C38.8168 51.6398 39.6927 51.9989 40.6067 52H44.0535H44.0531C44.9671 51.9989 45.843 51.6398 46.4891 51.001C47.1353 50.3623 47.4989 49.4961 47.5 48.5929V36.1297C47.5004 35.4144 47.2732 34.7172 46.8502 34.1369C46.4271 33.5565 45.8298 33.1227 45.1433 32.897L45.1432 32.8971ZM8.96009 48.5917C8.95973 49.0027 8.79461 49.3963 8.50071 49.6864C8.20718 49.977 7.80871 50.1402 7.39336 50.1405H3.94695C3.5316 50.1402 3.13312 49.977 2.8396 49.6864C2.5457 49.3962 2.38059 49.0027 2.38022 48.5917V36.1294C2.37986 35.8044 2.48333 35.4874 2.67559 35.2237C2.86785 34.9596 3.139 34.7627 3.45125 34.66L6.89804 33.5244H6.89767C7.05912 33.4707 7.22826 33.4435 7.39851 33.4435C7.81313 33.4457 8.21013 33.6096 8.50257 33.9002C8.79537 34.1907 8.95975 34.5839 8.96012 34.9938L8.96009 48.5917ZM23.06 34.9789C23.06 38.7364 20.1372 40.0099 15.3687 41.7782L15.2098 41.8369C15.179 41.8482 15.1489 41.8612 15.1196 41.8754L10.8402 43.9904V35.7657L12.9481 35.2448C13.3664 35.1411 13.6599 34.7697 13.6599 34.3431V23.6414C13.6599 23.4556 13.6937 23.2714 13.7597 23.0976L21.7933 1.9198C22.1533 2.04276 22.467 2.27128 22.693 2.57451C22.919 2.87775 23.0467 3.24192 23.0592 3.61841L20.7586 19.5378C19.8406 19.6408 18.9934 20.0742 18.3777 20.755C17.762 21.4359 17.4211 22.3165 17.42 23.2298V28.8052C17.42 29.3185 17.8409 29.7346 18.3601 29.7346C18.8793 29.7346 19.3002 29.3185 19.3002 28.8052V23.2298C19.3075 22.7391 19.5082 22.2708 19.859 21.9241C20.2101 21.577 20.6838 21.3789 21.1798 21.3713C21.2481 21.3709 21.3159 21.3633 21.3827 21.3485C21.4036 21.3528 21.4235 21.3604 21.4447 21.3637V21.3633C21.8905 21.4264 22.2989 21.6459 22.5954 21.9814C22.8919 22.3169 23.0566 22.7464 23.0599 23.1918L23.06 34.9789ZM22.6238 19.7727L24 10.2484L25.3763 19.7727C24.848 19.9932 24.3772 20.3298 24 20.7568C23.6229 20.3299 23.1521 19.9933 22.6238 19.7727ZM37.1596 43.9898L32.8799 41.8744L32.8803 41.8747C32.8509 41.8602 32.8208 41.8472 32.79 41.8359L32.6311 41.7772C27.8626 40.0093 24.9398 38.7357 24.9398 34.9783V23.192C24.9431 22.7466 25.1078 22.3171 25.4043 21.9816C25.7008 21.6461 26.1091 21.4266 26.555 21.3635C26.5762 21.3606 26.596 21.353 26.617 21.3483V21.3487C26.6837 21.3635 26.7516 21.3711 26.8199 21.3715C27.3159 21.3791 27.7896 21.5772 28.1407 21.9243C28.4915 22.2711 28.6922 22.7393 28.6995 23.23V28.8054C28.6995 29.3187 29.1204 29.7348 29.6396 29.7348C30.1588 29.7348 30.5797 29.3187 30.5797 28.8054V23.23C30.5786 22.3167 30.2377 21.4361 29.622 20.7552C29.0063 20.0744 28.1592 19.6409 27.2411 19.538L24.9405 3.6186C24.953 3.2421 25.0803 2.87792 25.3063 2.57471C25.5327 2.27147 25.8464 2.04295 26.2064 1.91999L34.24 23.0978C34.306 23.2716 34.3398 23.4558 34.3398 23.6412V34.3429C34.3398 34.7695 34.6333 35.1409 35.0516 35.2447L37.1595 35.7655L37.1596 43.9898ZM45.6195 48.5909C45.6192 49.0019 45.4541 49.3954 45.1602 49.6856C44.8666 49.9761 44.4681 50.1393 44.0528 50.1397H40.6064C40.191 50.1393 39.7926 49.9761 39.499 49.6856C39.2051 49.3954 39.04 49.0019 39.0397 48.5909V34.993V34.9933C39.04 34.5831 39.2044 34.1903 39.4972 33.8997C39.7896 33.6092 40.1866 33.4449 40.6013 33.4427C40.7715 33.4427 40.9407 33.4703 41.1021 33.5236L44.5485 34.6592H44.5482C44.8604 34.7619 45.1319 34.9588 45.3242 35.2229C45.5165 35.4866 45.6199 35.8036 45.6195 36.1286L45.6195 48.5909Z" fill="#113C7B"/>
</svg>
