<svg width="100" height="100" viewBox="0 0 100 100" fill="none" xmlns="http://www.w3.org/2000/svg">
<path d="M86.6226 66.385C85.0359 63.7228 81.7458 62.4601 78.6214 63.325L59.3219 68.6301C58.6966 65.5974 56.3443 63.1099 53.0796 62.1915L40.4298 58.6317C40.1643 58.5564 39.8795 58.5625 39.6151 58.6453L27.9602 62.349V59.8287C27.9602 59.1375 27.3619 58.5792 26.6249 58.5792H13.8359C13.0983 58.5792 12.5 59.1375 12.5 59.8287V82.4586C12.5 83.1498 13.0983 83.7086 13.8359 83.7086H26.6249C27.3619 83.7086 27.9602 83.1498 27.9602 82.4586V80.7935C33.2983 82.396 47.284 85.8473 53.8894 87.4598C54.1802 87.531 54.4942 87.5073 54.7694 87.3907L83.3914 75.4636C85.1638 74.725 86.5315 73.3138 87.146 71.5922C87.7594 69.8701 87.5684 67.9723 86.6226 66.385ZM25.289 81.2085H15.1717V61.0788H25.2874L25.289 81.2085ZM84.6107 70.8026C84.2288 71.875 83.4098 72.7201 82.3037 73.1801L54.1096 84.9294C45.1172 82.7297 31.3145 79.2597 27.9602 78.1833V64.99L40.0694 61.1414L52.3102 64.5861C54.8428 65.2975 56.5757 67.3599 56.7743 69.7924C55.7794 70.6638 52.4867 72.9524 46.3355 71.8139C45.6114 71.671 44.909 72.1173 44.7644 72.7964C44.6214 73.4724 45.0919 74.1297 45.8143 74.265C47.1798 74.5185 48.4337 74.6275 49.5802 74.6275C54.9766 74.6275 57.9634 72.2359 58.8811 71.3559L79.3746 65.7226C81.2943 65.1965 83.3153 65.9675 84.2903 67.6027C84.8778 68.5923 84.9927 69.7272 84.6107 70.8026Z" fill="#113C7B"/>
<path d="M21.4258 63.2019H19.033C18.296 63.2019 17.6977 63.7603 17.6977 64.4515C17.6977 65.1431 18.296 65.7015 19.033 65.7015H21.4258C22.1628 65.7015 22.7617 65.1431 22.7617 64.4515C22.7617 63.7603 22.1628 63.2019 21.4258 63.2019Z" fill="#113C7B"/>
<path d="M50.0007 52.4995C61.7845 52.4995 71.373 43.5269 71.373 32.4995C71.373 21.4726 61.7845 12.5 50.0007 12.5C38.2163 12.5 28.6278 21.4726 28.6278 32.4995C28.6278 43.5269 38.2163 52.4995 50.0007 52.4995ZM50.0007 15.0001C60.3127 15.0001 68.7013 22.8499 68.7013 32.4995C68.7013 42.1496 60.3127 49.9994 50.0007 49.9994C39.6881 49.9994 31.2995 42.1496 31.2995 32.4995C31.2995 22.8499 39.6881 15.0001 50.0007 15.0001Z" fill="#113C7B"/>
<path d="M45.9935 37.5006C45.9935 36.8095 45.3951 36.2506 44.6576 36.2506C43.9206 36.2506 43.3217 36.8095 43.3217 37.5006C43.3217 40.5178 45.6207 43.0431 48.6652 43.6242V45.7255C48.6652 46.4167 49.2636 46.9751 50.0011 46.9751C50.7381 46.9751 51.3364 46.4167 51.3364 45.7255V43.6242C54.381 43.0431 56.6799 40.5193 56.6799 37.5006C56.6799 34.482 54.381 31.9582 51.3364 31.3771V23.9807C52.8876 24.4982 54.0082 25.8734 54.0082 27.5006C54.0082 28.1918 54.6054 28.7507 55.344 28.7507C56.0827 28.7507 56.6799 28.1918 56.6799 27.5006C56.6799 24.483 54.381 21.9582 51.3364 21.3771V19.2758C51.3364 18.5846 50.7381 18.0257 50.0011 18.0257C49.2636 18.0257 48.6652 18.5846 48.6652 19.2758V21.3771C45.6207 21.9582 43.3217 24.482 43.3217 27.5006C43.3217 30.5193 45.6207 33.0431 48.6652 33.6242V41.0206C47.1141 40.5031 45.9935 39.1278 45.9935 37.5006ZM54.0082 37.5006C54.0082 39.1278 52.8876 40.5031 51.3364 41.0206V33.9817C52.8876 34.4992 54.0082 35.8734 54.0082 37.5006ZM45.9935 27.5006C45.9935 25.8734 47.1141 24.4982 48.6652 23.9807V31.0196C47.1141 30.5021 45.9935 29.1278 45.9935 27.5006Z" fill="#113C7B"/>
<path d="M40.2059 60.6608L52.4455 64.1032L52.946 64.2659C55.3954 65.1502 57.0679 67.2632 57.2713 69.751L57.2917 70.0033L57.1045 70.1701C56.0149 71.1243 52.5704 73.4772 46.2443 72.3063C45.7693 72.2126 45.3367 72.5062 45.2515 72.8963C45.1728 73.2681 45.4294 73.6859 45.9066 73.7752C47.2428 74.0231 48.4666 74.1292 49.5809 74.1292C54.8144 74.129 57.6848 71.813 58.5368 70.9961L58.6263 70.9066L58.7484 70.874L79.244 65.2384C81.3653 64.658 83.6236 65.5058 84.7209 67.3462C85.3832 68.4617 85.5154 69.7543 85.083 70.9717C84.6509 72.1839 83.7239 73.13 82.4951 73.6409L54.3009 85.3922L54.1504 85.4533L53.9917 85.4167C45.0097 83.2195 31.1833 79.7413 27.8076 78.658L27.4618 78.5482V64.624L39.917 60.6649L40.0594 60.6201L40.2059 60.6608ZM28.4587 65.3524V77.8076C32.2832 78.9783 45.3477 82.269 54.069 84.4035L82.1126 72.7173C83.0951 72.3084 83.8071 71.5657 84.139 70.6339C84.4699 69.7014 84.3741 68.7218 83.8623 67.8589C83.0104 66.4299 81.2252 65.7333 79.5085 66.2028L59.1227 71.8058C58.04 72.8086 54.9633 75.1259 49.5809 75.1261C48.4026 75.1261 47.1177 75.0146 45.7235 74.7559C44.7558 74.5746 44.0676 73.6731 44.2749 72.6929L44.3888 72.347C44.7278 71.5898 45.5822 71.1545 46.4315 71.3216C52.0282 72.3572 55.1303 70.4671 56.2419 69.576C55.9646 67.4773 54.4288 65.7008 52.1769 65.0675L40.0757 61.6618L28.4587 65.3524ZM27.4618 59.8307C27.4618 59.4468 27.1166 59.078 26.6235 59.078H13.8346C13.3416 59.0786 13.0005 59.4473 13.0005 59.8307V82.4585C13.0005 82.8422 13.3418 83.2066 13.8346 83.2072H26.6235C27.1163 83.2072 27.4618 82.8426 27.4618 82.4585V80.1229L28.1047 80.3141C33.4274 81.9119 47.3963 85.361 54.008 86.9751C54.196 87.0211 54.4035 87.0042 54.5776 86.9303L83.1991 75.0041C84.8486 74.3166 86.1094 73.0051 86.674 71.4233C87.2363 69.844 87.0636 68.1028 86.1938 66.6423C84.7294 64.1852 81.6758 62.9983 78.7557 63.8062L58.9396 69.2546L58.8338 68.7297C58.2485 65.8932 56.0423 63.5423 52.946 62.6709L40.2954 59.1146C40.2109 59.0906 40.1202 59.0764 40.0309 59.078L39.7664 59.1227L27.4618 63.033V59.8307ZM25.7853 60.5794L25.7894 61.0799V81.7098H14.6729V60.5794H25.7853ZM15.6698 80.7088H24.7884V61.5804H15.6698V80.7088ZM22.2616 64.4531C22.2616 64.0699 21.9199 63.7011 21.4274 63.7004H19.0348C18.5418 63.7004 18.1966 64.0692 18.1966 64.4531C18.1976 64.837 18.5426 65.2018 19.0348 65.2018H21.4274C21.919 65.201 22.2606 64.8364 22.2616 64.4531ZM70.874 32.4992C70.8738 21.7793 61.5394 13.0005 50 13.0005C38.4604 13.0008 29.1262 21.7795 29.126 32.4992C29.126 43.2195 38.4603 51.9975 50 51.9979C61.5395 51.9979 70.874 43.2197 70.874 32.4992ZM68.2007 32.4992C68.2005 23.1566 60.0676 15.4989 50 15.4989C39.9322 15.4992 31.7995 23.1568 31.7993 32.4992C31.7993 41.8422 39.9321 49.4992 50 49.4995C60.0677 49.4995 68.2007 41.8424 68.2007 32.4992ZM53.5075 37.5C53.5072 36.351 52.8456 35.3342 51.8351 34.7575V40.2425C52.8452 39.6654 53.5075 38.649 53.5075 37.5ZM49.1659 31.7139L48.5067 31.4941C46.78 30.918 45.4924 29.3719 45.4915 27.5024C45.4915 25.6324 46.7793 24.0831 48.5067 23.5067L49.1659 23.2869V31.7139ZM50.8382 19.2749C50.8377 18.8911 50.4924 18.5262 50 18.5262C49.5075 18.5267 49.1664 18.8915 49.1659 19.2749V21.7896L48.759 21.8669C45.9218 22.4084 43.8232 24.7515 43.8232 27.5024C43.8242 30.2526 45.9224 32.5926 48.759 33.134L49.1659 33.2113V41.7155L48.5067 41.4958C46.7791 40.9194 45.4915 39.3702 45.4915 37.5C45.4911 37.1162 45.1506 36.7513 44.6574 36.7513C44.1647 36.7514 43.8236 37.1164 43.8232 37.5C43.8232 40.2494 45.922 42.5899 48.759 43.1315L49.1659 43.2088V45.7275C49.1671 46.1103 49.5077 46.4757 50 46.4762C50.4922 46.4762 50.837 46.1107 50.8382 45.7275V43.2088L51.241 43.1315C54.0782 42.59 56.1808 40.2509 56.1808 37.5C56.1805 34.7494 54.078 32.41 51.241 31.8685L50.8382 31.7912V23.2869L51.4933 23.5067C53.2209 24.083 54.5085 25.6322 54.5085 27.5024C54.5095 27.8857 54.8499 28.2504 55.3426 28.2511C55.8361 28.2511 56.1798 27.8861 56.1808 27.5024C56.1808 24.7525 54.0781 22.4084 51.241 21.8669L50.8382 21.7896V19.2749ZM23.2625 64.4531C23.2616 65.4508 22.407 66.202 21.4274 66.2028H19.0348C18.0543 66.2028 17.1966 65.4511 17.1956 64.4531C17.1956 63.4547 18.0539 62.7034 19.0348 62.7034H21.4274C22.4074 62.7043 23.2625 63.455 23.2625 64.4531ZM28.4587 61.6659L39.4653 58.1706C39.8197 58.0596 40.2062 58.0477 40.568 58.1502L53.2145 61.7106C56.4597 62.6235 58.8646 65.0219 59.6802 68.0094L78.4871 62.8418C81.8156 61.9205 85.3435 63.2625 87.0524 66.1296C88.0732 67.8431 88.282 69.8969 87.618 71.7611C86.9537 73.6217 85.4797 75.1337 83.5856 75.9237L54.9601 87.854L54.9561 87.8499C54.5819 88.0067 54.1629 88.039 53.772 87.9435C47.4216 86.3932 34.2159 83.1331 28.4587 81.4575V82.4585C28.4587 83.4567 27.6047 84.2082 26.6235 84.2082H13.8346C12.8535 84.2075 11.9995 83.4564 11.9995 82.4585V59.8307C11.9995 58.8326 12.8538 58.0817 13.8346 58.0811H26.6235C27.6045 58.0811 28.4587 58.8323 28.4587 59.8307V61.6659ZM54.5085 37.5C54.5085 39.3702 53.2209 40.9194 51.4933 41.4958L50.8382 41.7155V33.2886L51.4933 33.5083C53.2205 34.0845 54.5082 35.6299 54.5085 37.5ZM69.2017 32.4992C69.2017 42.4562 60.5564 50.5005 50 50.5005C39.4434 50.5001 30.7983 42.456 30.7983 32.4992C30.7985 22.543 39.4435 14.5023 50 14.502C60.5563 14.502 69.2015 22.5428 69.2017 32.4992ZM71.875 32.4992C71.875 43.8335 62.0282 52.9989 50 52.9989C37.9716 52.9985 28.1291 43.8333 28.1291 32.4992C28.1292 21.1657 37.9717 11.9999 50 11.9995C62.0281 11.9995 71.8748 21.1655 71.875 32.4992ZM46.4925 27.5024C46.4932 28.6501 47.1561 29.6641 48.1649 30.2409V24.7599C47.1558 25.3373 46.4925 26.3541 46.4925 27.5024ZM51.8351 20.9757C54.8872 21.7357 57.1818 24.355 57.1818 27.5024C57.1808 28.4996 56.325 29.2521 55.3426 29.2521C54.3608 29.2514 53.5085 28.4991 53.5075 27.5024C53.5075 26.3529 52.8459 25.3329 51.8351 24.7559V30.9774C54.8867 31.7373 57.1815 34.3519 57.1818 37.5C57.1818 40.6479 54.8863 43.2582 51.8351 44.0186V45.7275C51.834 46.725 50.9803 47.4731 50 47.4731C49.0198 47.4726 48.166 46.7247 48.1649 45.7275V44.0186C45.1144 43.2575 42.8223 40.6459 42.8223 37.5C42.8226 36.5019 43.6767 35.7504 44.6574 35.7503C45.6388 35.7503 46.4921 36.502 46.4925 37.5C46.4925 38.6486 47.1555 39.6652 48.1649 40.2425V34.021C45.1148 33.2604 42.8231 30.6492 42.8223 27.5024C42.8223 24.3545 45.1136 21.7361 48.1649 20.9757V19.2749C48.1654 18.2774 49.0191 17.5258 50 17.5252C50.9809 17.5252 51.8346 18.2772 51.8351 19.2749V20.9757Z" fill="#113C7B"/>
</svg>
