<svg width="56" height="50" viewBox="0 0 56 50" fill="none" xmlns="http://www.w3.org/2000/svg">
<path d="M45.1363 1.79688L45.1363 1.7969C51.3633 4.26503 56.9846 11.6634 54.6673 22.0484C54.6673 22.0484 54.6673 22.0484 54.6673 22.0484L54.4721 22.0048C52.4331 31.1492 45.4021 37.9935 39.864 42.1249L45.1363 1.79688ZM45.1363 1.79688C38.8021 -0.712258 32.2038 1.61401 28.0006 7.6786L45.1363 1.79688ZM3.05045 21.6648L2.85525 21.7083L3.05045 21.6648C0.950382 12.2559 5.97989 5.62052 11.5151 3.4274C12.8859 2.88432 14.4204 2.55884 16.0173 2.55884C19.8553 2.55884 24.0746 4.43865 27.2468 9.74975C27.4052 10.0155 27.6917 10.1781 28.0017 10.1781C28.3121 10.1781 28.5985 10.0147 28.7567 9.74974C31.0029 5.98976 33.7728 3.95286 36.5541 3.08184C39.3383 2.2099 42.1513 2.50094 44.4889 3.42739C50.0219 5.62148 55.0505 12.2558 52.951 21.666C51.2089 29.4763 45.5832 35.6326 40.0601 39.9824C34.6543 44.2397 29.3716 46.7469 28.0007 47.3638C26.6289 46.747 21.3471 44.2424 15.9421 39.9863C10.4198 35.6378 4.79461 29.4812 3.05045 21.6648ZM32.5587 20.44V15.6781C32.5587 15.1925 32.1655 14.8 31.6807 14.8L24.3183 14.8005C23.8341 14.8005 23.4403 15.1929 23.4403 15.6785V20.4404H18.678C18.1938 20.4404 17.8 20.8329 17.8 21.3185V28.682C17.8 29.1675 18.1932 29.56 18.678 29.56H23.4403V34.3219C23.4403 34.8075 23.8335 35.2 24.3184 35.2H31.6816C32.1659 35.2 32.5597 34.8076 32.5597 34.3219V29.56H37.322C37.8062 29.56 38.2 29.1676 38.2 28.682L38.1995 21.318V21.3178C38.1989 20.8325 37.8059 20.44 37.321 20.44H32.5587ZM36.4434 27.8034H31.6812C31.1969 27.8034 30.8031 28.1959 30.8031 28.6815V33.4434H25.1954V28.6815C25.1954 28.196 24.8022 27.8034 24.3173 27.8034H19.5551V22.1956H24.3173C24.8016 22.1956 25.1954 21.8031 25.1954 21.3175V16.5556H30.8031V21.3175C30.8031 21.803 31.1963 22.1956 31.6812 22.1956H36.4434V27.8034Z" fill="#113C7B" stroke="#113C7B" stroke-width="0.4"/>
</svg>
