<svg width="56" height="50" viewBox="0 0 56 50" fill="none" xmlns="http://www.w3.org/2000/svg">
<mask id="path-1-outside-1_46351_44" maskUnits="userSpaceOnUse" x="0" y="0" width="56" height="50" fill="black">
<rect fill="white" width="56" height="50"/>
<path d="M45.0626 1.98283C38.7446 -0.519923 32.1502 1.85424 28.0006 8.03348C23.8503 1.85285 17.2556 -0.520892 10.9385 1.98283C4.79726 4.41647 -0.76688 11.7209 1.52787 22.0048C3.5691 31.15 10.5988 37.9944 16.1384 42.1249C22.1067 46.5762 27.5117 48.854 27.7387 48.948C27.823 48.9835 27.9112 49 28.0007 49C28.0903 49 28.1789 48.983 28.2628 48.948C28.4897 48.853 33.8952 46.5757 39.864 42.1249C45.4021 37.9935 52.4331 31.1492 54.4721 22.0048C56.7669 11.7207 51.2029 4.41659 45.0626 1.98283ZM53.1462 21.7095C49.6327 37.4619 30.4752 46.4793 28.0007 47.583C25.524 46.4791 6.37295 37.4729 2.85525 21.7083C0.732993 12.2 5.81812 5.46949 11.4415 3.24146C12.834 2.68977 14.3934 2.35884 16.0173 2.35884C19.9301 2.35884 24.2125 4.2796 27.4185 9.6472C27.5407 9.85237 27.762 9.97812 28.0017 9.97812C28.2415 9.97812 28.4628 9.85189 28.585 9.6472C33.1214 2.0535 39.8142 1.35956 44.5626 3.24146C50.1837 5.47046 55.2679 12.1999 53.1462 21.7095Z"/>
<path d="M37.321 20.64H32.3587V15.6781C32.3587 15.3031 32.0552 15 31.6807 15L24.3184 15.0005C23.9444 15.0005 23.6403 15.3036 23.6403 15.6785V20.6404H18.678C18.304 20.6404 18 20.9435 18 21.3185V28.682C18 29.0569 18.3036 29.36 18.678 29.36H23.6403V34.3219C23.6403 34.6969 23.9439 35 24.3184 35H31.6816C32.0556 35 32.3597 34.6969 32.3597 34.3219V29.36H37.322C37.696 29.36 38 29.0569 38 28.682L37.9995 21.318C37.9991 20.943 37.6955 20.64 37.321 20.64ZM36.6434 28.0034H31.6812C31.3072 28.0034 31.0031 28.3065 31.0031 28.6815V33.6434H24.9954V28.6815C24.9954 28.3065 24.6918 28.0034 24.3173 28.0034H19.3551V21.9956H24.3173C24.6913 21.9956 24.9954 21.6925 24.9954 21.3175V16.3556H31.0031V21.3175C31.0031 21.6925 31.3067 21.9956 31.6812 21.9956H36.6434V28.0034Z"/>
</mask>
<path d="M45.0626 1.98283C38.7446 -0.519923 32.1502 1.85424 28.0006 8.03348C23.8503 1.85285 17.2556 -0.520892 10.9385 1.98283C4.79726 4.41647 -0.76688 11.7209 1.52787 22.0048C3.5691 31.15 10.5988 37.9944 16.1384 42.1249C22.1067 46.5762 27.5117 48.854 27.7387 48.948C27.823 48.9835 27.9112 49 28.0007 49C28.0903 49 28.1789 48.983 28.2628 48.948C28.4897 48.853 33.8952 46.5757 39.864 42.1249C45.4021 37.9935 52.4331 31.1492 54.4721 22.0048C56.7669 11.7207 51.2029 4.41659 45.0626 1.98283ZM53.1462 21.7095C49.6327 37.4619 30.4752 46.4793 28.0007 47.583C25.524 46.4791 6.37295 37.4729 2.85525 21.7083C0.732993 12.2 5.81812 5.46949 11.4415 3.24146C12.834 2.68977 14.3934 2.35884 16.0173 2.35884C19.9301 2.35884 24.2125 4.2796 27.4185 9.6472C27.5407 9.85237 27.762 9.97812 28.0017 9.97812C28.2415 9.97812 28.4628 9.85189 28.585 9.6472C33.1214 2.0535 39.8142 1.35956 44.5626 3.24146C50.1837 5.47046 55.2679 12.1999 53.1462 21.7095Z" fill="#113C7B"/>
<path d="M37.321 20.64H32.3587V15.6781C32.3587 15.3031 32.0552 15 31.6807 15L24.3184 15.0005C23.9444 15.0005 23.6403 15.3036 23.6403 15.6785V20.6404H18.678C18.304 20.6404 18 20.9435 18 21.3185V28.682C18 29.0569 18.3036 29.36 18.678 29.36H23.6403V34.3219C23.6403 34.6969 23.9439 35 24.3184 35H31.6816C32.0556 35 32.3597 34.6969 32.3597 34.3219V29.36H37.322C37.696 29.36 38 29.0569 38 28.682L37.9995 21.318C37.9991 20.943 37.6955 20.64 37.321 20.64ZM36.6434 28.0034H31.6812C31.3072 28.0034 31.0031 28.3065 31.0031 28.6815V33.6434H24.9954V28.6815C24.9954 28.3065 24.6918 28.0034 24.3173 28.0034H19.3551V21.9956H24.3173C24.6913 21.9956 24.9954 21.6925 24.9954 21.3175V16.3556H31.0031V21.3175C31.0031 21.6925 31.3067 21.9956 31.6812 21.9956H36.6434V28.0034Z" fill="#113C7B"/>
<path d="M45.0626 1.98283C38.7446 -0.519923 32.1502 1.85424 28.0006 8.03348C23.8503 1.85285 17.2556 -0.520892 10.9385 1.98283C4.79726 4.41647 -0.76688 11.7209 1.52787 22.0048C3.5691 31.15 10.5988 37.9944 16.1384 42.1249C22.1067 46.5762 27.5117 48.854 27.7387 48.948C27.823 48.9835 27.9112 49 28.0007 49C28.0903 49 28.1789 48.983 28.2628 48.948C28.4897 48.853 33.8952 46.5757 39.864 42.1249C45.4021 37.9935 52.4331 31.1492 54.4721 22.0048C56.7669 11.7207 51.2029 4.41659 45.0626 1.98283ZM53.1462 21.7095C49.6327 37.4619 30.4752 46.4793 28.0007 47.583C25.524 46.4791 6.37295 37.4729 2.85525 21.7083C0.732993 12.2 5.81812 5.46949 11.4415 3.24146C12.834 2.68977 14.3934 2.35884 16.0173 2.35884C19.9301 2.35884 24.2125 4.2796 27.4185 9.6472C27.5407 9.85237 27.762 9.97812 28.0017 9.97812C28.2415 9.97812 28.4628 9.85189 28.585 9.6472C33.1214 2.0535 39.8142 1.35956 44.5626 3.24146C50.1837 5.47046 55.2679 12.1999 53.1462 21.7095Z" stroke="#113C7B" stroke-width="0.8" mask="url(#path-1-outside-1_46351_44)"/>
<path d="M37.321 20.64H32.3587V15.6781C32.3587 15.3031 32.0552 15 31.6807 15L24.3184 15.0005C23.9444 15.0005 23.6403 15.3036 23.6403 15.6785V20.6404H18.678C18.304 20.6404 18 20.9435 18 21.3185V28.682C18 29.0569 18.3036 29.36 18.678 29.36H23.6403V34.3219C23.6403 34.6969 23.9439 35 24.3184 35H31.6816C32.0556 35 32.3597 34.6969 32.3597 34.3219V29.36H37.322C37.696 29.36 38 29.0569 38 28.682L37.9995 21.318C37.9991 20.943 37.6955 20.64 37.321 20.64ZM36.6434 28.0034H31.6812C31.3072 28.0034 31.0031 28.3065 31.0031 28.6815V33.6434H24.9954V28.6815C24.9954 28.3065 24.6918 28.0034 24.3173 28.0034H19.3551V21.9956H24.3173C24.6913 21.9956 24.9954 21.6925 24.9954 21.3175V16.3556H31.0031V21.3175C31.0031 21.6925 31.3067 21.9956 31.6812 21.9956H36.6434V28.0034Z" stroke="#113C7B" stroke-width="0.8" mask="url(#path-1-outside-1_46351_44)"/>
</svg>
