<svg width="47" height="48" viewBox="0 0 47 48" fill="none" xmlns="http://www.w3.org/2000/svg">
<path d="M10.8589 36.05C11.2406 36.05 11.55 35.7411 11.55 35.3589V30.6411C11.55 30.2594 11.2411 29.95 10.8589 29.95H6.14108C5.75942 29.95 5.45 30.2589 5.45 30.6411V35.3589C5.45 35.7406 5.75893 36.05 6.14108 36.05H10.8589ZM6.83221 31.3322H10.1682V34.6682H6.83221V31.3322Z" fill="#113C7B" stroke="#113C7B" stroke-width="0.1"/>
<path d="M13.1411 36.05H17.8589C18.2406 36.05 18.55 35.7411 18.55 35.3589V30.6411C18.55 30.2594 18.2411 29.95 17.8589 29.95H13.1411C12.7594 29.95 12.45 30.2589 12.45 30.6411V35.3589C12.45 35.7411 12.7594 36.05 13.1411 36.05ZM13.8322 31.3322H17.1682V34.6682H13.8322V31.3322Z" fill="#113C7B" stroke="#113C7B" stroke-width="0.1"/>
<path d="M5.45 19.3589L5.45 19.359C5.45048 19.7406 5.75934 20.05 6.14108 20.05H10.8589C11.2406 20.05 11.55 19.7411 11.55 19.3589V14.6411C11.55 14.2594 11.2411 13.95 10.8589 13.95H6.14108C5.75942 13.95 5.45 14.2589 5.45 14.6411L5.45 19.3589ZM6.83217 15.3317H10.1682V18.6677H6.83217V15.3317Z" fill="#113C7B" stroke="#113C7B" stroke-width="0.1"/>
<path d="M13.1411 20.05H17.8589C18.2406 20.05 18.55 19.7411 18.55 19.3589V14.6411C18.55 14.2594 18.2411 13.95 17.8589 13.95H13.1411C12.7594 13.95 12.45 14.2589 12.45 14.6411V19.3589C12.45 19.7406 12.7594 20.05 13.1411 20.05ZM13.8322 15.3317H17.1682V18.6677H13.8322V15.3317Z" fill="#113C7B" stroke="#113C7B" stroke-width="0.1"/>
<path d="M5.45 27.3589L5.45 27.359C5.45048 27.7406 5.75934 28.05 6.14108 28.05H10.8589C11.2406 28.05 11.55 27.7411 11.55 27.3589V22.6411C11.55 22.2594 11.2411 21.95 10.8589 21.95H6.14108C5.75942 21.95 5.45 22.2589 5.45 22.6411L5.45 27.3589ZM6.83217 23.3317H10.1682V26.6677H6.83217V23.3317Z" fill="#113C7B" stroke="#113C7B" stroke-width="0.1"/>
<path d="M13.1411 28.05H17.8589C18.2406 28.05 18.55 27.7411 18.55 27.3589V22.6411C18.55 22.2594 18.2411 21.95 17.8589 21.95H13.1411C12.7594 21.95 12.45 22.2589 12.45 22.6411V27.3589C12.45 27.7406 12.7594 28.05 13.1411 28.05ZM13.8322 23.3317H17.1682V26.6677H13.8322V23.3317Z" fill="#113C7B" stroke="#113C7B" stroke-width="0.1"/>
<path d="M33.8589 36.05C34.2406 36.05 34.55 35.7411 34.55 35.3589V30.6411C34.55 30.2594 34.2411 29.95 33.8589 29.95H29.1411C28.7594 29.95 28.45 30.2589 28.45 30.6411V35.3589C28.45 35.7406 28.7589 36.05 29.1411 36.05H33.8589ZM29.8322 31.3322H33.1682V34.6682H29.8322V31.3322Z" fill="#113C7B" stroke="#113C7B" stroke-width="0.1"/>
<path d="M36.1411 36.05H40.8589C41.2406 36.05 41.55 35.7411 41.55 35.3589V30.6411C41.55 30.2594 41.2411 29.95 40.8589 29.95H36.1411C35.7594 29.95 35.45 30.2589 35.45 30.6411V35.3589C35.45 35.7411 35.7594 36.05 36.1411 36.05ZM36.8322 31.3322H40.1682V34.6682H36.8322V31.3322Z" fill="#113C7B" stroke="#113C7B" stroke-width="0.1"/>
<path d="M28.45 19.3589L28.45 19.359C28.4505 19.7406 28.7593 20.05 29.1411 20.05H33.8589C34.2406 20.05 34.55 19.7411 34.55 19.3589V14.6411C34.55 14.2594 34.2411 13.95 33.8589 13.95H29.1411C28.7594 13.95 28.45 14.2589 28.45 14.6411L28.45 19.3589ZM29.8322 15.3317H33.1682V18.6677H29.8322V15.3317Z" fill="#113C7B" stroke="#113C7B" stroke-width="0.1"/>
<path d="M36.1411 20.05H40.8589C41.2406 20.05 41.55 19.7411 41.55 19.3589V14.6411C41.55 14.2594 41.2411 13.95 40.8589 13.95H36.1411C35.7594 13.95 35.45 14.2589 35.45 14.6411V19.3589C35.45 19.7406 35.7594 20.05 36.1411 20.05ZM36.8322 15.3317H40.1682V18.6677H36.8322V15.3317Z" fill="#113C7B" stroke="#113C7B" stroke-width="0.1"/>
<path d="M28.45 27.3589L28.45 27.359C28.4505 27.7406 28.7593 28.05 29.1411 28.05H33.8589C34.2406 28.05 34.55 27.7411 34.55 27.3589V22.6411C34.55 22.2594 34.2411 21.95 33.8589 21.95H29.1411C28.7594 21.95 28.45 22.2589 28.45 22.6411L28.45 27.3589ZM29.8322 23.3317H33.1682V26.6677H29.8322V23.3317Z" fill="#113C7B" stroke="#113C7B" stroke-width="0.1"/>
<path d="M36.1411 28.05H40.8589C41.2406 28.05 41.55 27.7411 41.55 27.3589V22.6411C41.55 22.2594 41.2411 21.95 40.8589 21.95H36.1411C35.7594 21.95 35.45 22.2589 35.45 22.6411V27.3589C35.45 27.7406 35.7594 28.05 36.1411 28.05ZM36.8322 23.3317H40.1682V26.6677H36.8322V23.3317Z" fill="#113C7B" stroke="#113C7B" stroke-width="0.1"/>
<path d="M46.5994 46.4247C46.599 46.0519 46.2978 45.7503 45.925 45.7497L0.412712 10.2465L0.510815 10.2659L0.412682 10.2467L0.412706 10.2466C0.373566 10.4447 0.426006 10.6494 0.553786 10.8054L0.554087 10.8058C0.682498 10.961 0.873539 11.0514 1.07553 11.0514H2.1254V45.7497H1.07553C0.702688 45.7497 0.400383 46.0515 0.400383 46.4248C0.400383 46.7977 0.702197 47.1 1.07553 47.1H45.9243C46.2971 47.1 46.5994 46.7982 46.5994 46.4248V46.4247ZM21.5925 11.0514L21.5925 10.9514L21.4925 10.9514V11.0514H21.5925ZM21.4921 45.8497V45.7497H21.5921L21.5921 45.8497H21.4921ZM25.4081 45.7497V45.8497H25.5081V45.7497H25.4081ZM25.5081 10.9514V11.0514H25.4081V10.9514H25.5081ZM23.6957 10.2467L23.7939 10.2659L23.6958 10.2465L23.6957 10.2467ZM2.1254 10.9514H2.2254V11.0514L2.1254 10.9514ZM45.9239 45.7497H44.8752V11.0514H45.925C46.1267 11.0514 46.3177 10.961 46.4461 10.8058L46.4464 10.8054C46.5743 10.6493 46.6261 10.4446 46.5875 10.2468L46.5875 10.2467L44.8624 1.44532L45.9239 45.7497ZM25.1782 9.70098L26.6396 2.24981H43.6444L45.1048 9.70098H25.1782ZM26.7592 11.0513H43.5253V45.7496H38.5414V38.8782C38.5414 38.5054 38.2396 38.2031 37.8663 38.2031H32.4169C32.044 38.2031 31.7417 38.5049 31.7417 38.8782L31.7421 45.7496H26.7591L26.7592 11.0513ZM37.1913 45.7496H33.0917V39.553H37.1913V45.7496ZM1.8957 9.70088L3.35708 2.24971H20.3619L21.8223 9.70088H1.8957ZM3.47626 11.0512H20.2424V45.7495H15.2593V38.8781C15.2593 38.5053 14.9575 38.203 14.5842 38.203H9.13477C8.76193 38.203 8.45962 38.5048 8.45962 38.8781L8.46002 45.7495H3.47613L3.47626 11.0512ZM13.9094 45.7495H9.80982V39.5529H13.9094V45.7495Z" fill="#113C7B" stroke="#113C7B" stroke-width="0.2"/>
</svg>
