<svg width="47" height="48" viewBox="0 0 47 48" fill="none" xmlns="http://www.w3.org/2000/svg">
<mask id="path-1-outside-1_46351_107" maskUnits="userSpaceOnUse" x="4.5" y="29" width="8" height="8" fill="black">
<rect fill="white" x="4.5" y="29" width="8" height="8"/>
<path d="M10.8589 36C11.213 36 11.5 35.7134 11.5 35.3589V30.6411C11.5 30.287 11.2134 30 10.8589 30H6.14108C5.78701 30 5.5 30.2866 5.5 30.6411V35.3589C5.5 35.713 5.78656 36 6.14108 36H10.8589ZM6.78221 31.2822H10.2182V34.7182H6.78221V31.2822Z"/>
</mask>
<path d="M10.8589 36C11.213 36 11.5 35.7134 11.5 35.3589V30.6411C11.5 30.287 11.2134 30 10.8589 30H6.14108C5.78701 30 5.5 30.2866 5.5 30.6411V35.3589C5.5 35.713 5.78656 36 6.14108 36H10.8589ZM6.78221 31.2822H10.2182V34.7182H6.78221V31.2822Z" fill="#113C7B"/>
<path d="M10.8589 36C11.213 36 11.5 35.7134 11.5 35.3589V30.6411C11.5 30.287 11.2134 30 10.8589 30H6.14108C5.78701 30 5.5 30.2866 5.5 30.6411V35.3589C5.5 35.713 5.78656 36 6.14108 36H10.8589ZM6.78221 31.2822H10.2182V34.7182H6.78221V31.2822Z" stroke="#113C7B" stroke-width="0.2" mask="url(#path-1-outside-1_46351_107)"/>
<mask id="path-2-outside-2_46351_107" maskUnits="userSpaceOnUse" x="11.5" y="29" width="8" height="8" fill="black">
<rect fill="white" x="11.5" y="29" width="8" height="8"/>
<path d="M13.1411 36H17.8589C18.213 36 18.5 35.7134 18.5 35.3589V30.6411C18.5 30.287 18.2134 30 17.8589 30H13.1411C12.787 30 12.5 30.2866 12.5 30.6411V35.3589C12.5 35.7134 12.787 36 13.1411 36ZM13.7822 31.2822H17.2182V34.7182H13.7822V31.2822Z"/>
</mask>
<path d="M13.1411 36H17.8589C18.213 36 18.5 35.7134 18.5 35.3589V30.6411C18.5 30.287 18.2134 30 17.8589 30H13.1411C12.787 30 12.5 30.2866 12.5 30.6411V35.3589C12.5 35.7134 12.787 36 13.1411 36ZM13.7822 31.2822H17.2182V34.7182H13.7822V31.2822Z" fill="#113C7B"/>
<path d="M13.1411 36H17.8589C18.213 36 18.5 35.7134 18.5 35.3589V30.6411C18.5 30.287 18.2134 30 17.8589 30H13.1411C12.787 30 12.5 30.2866 12.5 30.6411V35.3589C12.5 35.7134 12.787 36 13.1411 36ZM13.7822 31.2822H17.2182V34.7182H13.7822V31.2822Z" stroke="#113C7B" stroke-width="0.2" mask="url(#path-2-outside-2_46351_107)"/>
<mask id="path-3-outside-3_46351_107" maskUnits="userSpaceOnUse" x="4.5" y="13" width="8" height="8" fill="black">
<rect fill="white" x="4.5" y="13" width="8" height="8"/>
<path d="M6.14108 20H10.8589C11.213 20 11.5 19.7134 11.5 19.3589V14.6411C11.5 14.287 11.2134 14 10.8589 14H6.14108C5.78701 14 5.5 14.2866 5.5 14.6411V19.3589C5.50045 19.713 5.78701 20 6.14108 20ZM6.78217 15.2817H10.2182V18.7177H6.78217V15.2817Z"/>
</mask>
<path d="M6.14108 20H10.8589C11.213 20 11.5 19.7134 11.5 19.3589V14.6411C11.5 14.287 11.2134 14 10.8589 14H6.14108C5.78701 14 5.5 14.2866 5.5 14.6411V19.3589C5.50045 19.713 5.78701 20 6.14108 20ZM6.78217 15.2817H10.2182V18.7177H6.78217V15.2817Z" fill="#113C7B"/>
<path d="M6.14108 20H10.8589C11.213 20 11.5 19.7134 11.5 19.3589V14.6411C11.5 14.287 11.2134 14 10.8589 14H6.14108C5.78701 14 5.5 14.2866 5.5 14.6411V19.3589C5.50045 19.713 5.78701 20 6.14108 20ZM6.78217 15.2817H10.2182V18.7177H6.78217V15.2817Z" stroke="#113C7B" stroke-width="0.2" mask="url(#path-3-outside-3_46351_107)"/>
<mask id="path-4-outside-4_46351_107" maskUnits="userSpaceOnUse" x="11.5" y="13" width="8" height="8" fill="black">
<rect fill="white" x="11.5" y="13" width="8" height="8"/>
<path d="M13.1411 20H17.8589C18.213 20 18.5 19.7134 18.5 19.3589V14.6411C18.5 14.287 18.2134 14 17.8589 14H13.1411C12.787 14 12.5 14.2866 12.5 14.6411V19.3589C12.5 19.713 12.787 20 13.1411 20ZM13.7822 15.2817H17.2182V18.7177H13.7822V15.2817Z"/>
</mask>
<path d="M13.1411 20H17.8589C18.213 20 18.5 19.7134 18.5 19.3589V14.6411C18.5 14.287 18.2134 14 17.8589 14H13.1411C12.787 14 12.5 14.2866 12.5 14.6411V19.3589C12.5 19.713 12.787 20 13.1411 20ZM13.7822 15.2817H17.2182V18.7177H13.7822V15.2817Z" fill="#113C7B"/>
<path d="M13.1411 20H17.8589C18.213 20 18.5 19.7134 18.5 19.3589V14.6411C18.5 14.287 18.2134 14 17.8589 14H13.1411C12.787 14 12.5 14.2866 12.5 14.6411V19.3589C12.5 19.713 12.787 20 13.1411 20ZM13.7822 15.2817H17.2182V18.7177H13.7822V15.2817Z" stroke="#113C7B" stroke-width="0.2" mask="url(#path-4-outside-4_46351_107)"/>
<mask id="path-5-outside-5_46351_107" maskUnits="userSpaceOnUse" x="4.5" y="21" width="8" height="8" fill="black">
<rect fill="white" x="4.5" y="21" width="8" height="8"/>
<path d="M6.14108 28H10.8589C11.213 28 11.5 27.7134 11.5 27.3589V22.6411C11.5 22.287 11.2134 22 10.8589 22H6.14108C5.78701 22 5.5 22.2866 5.5 22.6411V27.3589C5.50045 27.713 5.78701 28 6.14108 28ZM6.78217 23.2817H10.2182V26.7177H6.78217V23.2817Z"/>
</mask>
<path d="M6.14108 28H10.8589C11.213 28 11.5 27.7134 11.5 27.3589V22.6411C11.5 22.287 11.2134 22 10.8589 22H6.14108C5.78701 22 5.5 22.2866 5.5 22.6411V27.3589C5.50045 27.713 5.78701 28 6.14108 28ZM6.78217 23.2817H10.2182V26.7177H6.78217V23.2817Z" fill="#113C7B"/>
<path d="M6.14108 28H10.8589C11.213 28 11.5 27.7134 11.5 27.3589V22.6411C11.5 22.287 11.2134 22 10.8589 22H6.14108C5.78701 22 5.5 22.2866 5.5 22.6411V27.3589C5.50045 27.713 5.78701 28 6.14108 28ZM6.78217 23.2817H10.2182V26.7177H6.78217V23.2817Z" stroke="#113C7B" stroke-width="0.2" mask="url(#path-5-outside-5_46351_107)"/>
<mask id="path-6-outside-6_46351_107" maskUnits="userSpaceOnUse" x="11.5" y="21" width="8" height="8" fill="black">
<rect fill="white" x="11.5" y="21" width="8" height="8"/>
<path d="M13.1411 28H17.8589C18.213 28 18.5 27.7134 18.5 27.3589V22.6411C18.5 22.287 18.2134 22 17.8589 22H13.1411C12.787 22 12.5 22.2866 12.5 22.6411V27.3589C12.5 27.713 12.787 28 13.1411 28ZM13.7822 23.2817H17.2182V26.7177H13.7822V23.2817Z"/>
</mask>
<path d="M13.1411 28H17.8589C18.213 28 18.5 27.7134 18.5 27.3589V22.6411C18.5 22.287 18.2134 22 17.8589 22H13.1411C12.787 22 12.5 22.2866 12.5 22.6411V27.3589C12.5 27.713 12.787 28 13.1411 28ZM13.7822 23.2817H17.2182V26.7177H13.7822V23.2817Z" fill="#113C7B"/>
<path d="M13.1411 28H17.8589C18.213 28 18.5 27.7134 18.5 27.3589V22.6411C18.5 22.287 18.2134 22 17.8589 22H13.1411C12.787 22 12.5 22.2866 12.5 22.6411V27.3589C12.5 27.713 12.787 28 13.1411 28ZM13.7822 23.2817H17.2182V26.7177H13.7822V23.2817Z" stroke="#113C7B" stroke-width="0.2" mask="url(#path-6-outside-6_46351_107)"/>
<mask id="path-7-outside-7_46351_107" maskUnits="userSpaceOnUse" x="27.5" y="29" width="8" height="8" fill="black">
<rect fill="white" x="27.5" y="29" width="8" height="8"/>
<path d="M33.8589 36C34.213 36 34.5 35.7134 34.5 35.3589V30.6411C34.5 30.287 34.2134 30 33.8589 30H29.1411C28.787 30 28.5 30.2866 28.5 30.6411V35.3589C28.5 35.713 28.7866 36 29.1411 36H33.8589ZM29.7822 31.2822H33.2182V34.7182H29.7822V31.2822Z"/>
</mask>
<path d="M33.8589 36C34.213 36 34.5 35.7134 34.5 35.3589V30.6411C34.5 30.287 34.2134 30 33.8589 30H29.1411C28.787 30 28.5 30.2866 28.5 30.6411V35.3589C28.5 35.713 28.7866 36 29.1411 36H33.8589ZM29.7822 31.2822H33.2182V34.7182H29.7822V31.2822Z" fill="#113C7B"/>
<path d="M33.8589 36C34.213 36 34.5 35.7134 34.5 35.3589V30.6411C34.5 30.287 34.2134 30 33.8589 30H29.1411C28.787 30 28.5 30.2866 28.5 30.6411V35.3589C28.5 35.713 28.7866 36 29.1411 36H33.8589ZM29.7822 31.2822H33.2182V34.7182H29.7822V31.2822Z" stroke="#113C7B" stroke-width="0.2" mask="url(#path-7-outside-7_46351_107)"/>
<mask id="path-8-outside-8_46351_107" maskUnits="userSpaceOnUse" x="34.5" y="29" width="8" height="8" fill="black">
<rect fill="white" x="34.5" y="29" width="8" height="8"/>
<path d="M36.1411 36H40.8589C41.213 36 41.5 35.7134 41.5 35.3589V30.6411C41.5 30.287 41.2134 30 40.8589 30H36.1411C35.787 30 35.5 30.2866 35.5 30.6411V35.3589C35.5 35.7134 35.787 36 36.1411 36ZM36.7822 31.2822H40.2182V34.7182H36.7822V31.2822Z"/>
</mask>
<path d="M36.1411 36H40.8589C41.213 36 41.5 35.7134 41.5 35.3589V30.6411C41.5 30.287 41.2134 30 40.8589 30H36.1411C35.787 30 35.5 30.2866 35.5 30.6411V35.3589C35.5 35.7134 35.787 36 36.1411 36ZM36.7822 31.2822H40.2182V34.7182H36.7822V31.2822Z" fill="#113C7B"/>
<path d="M36.1411 36H40.8589C41.213 36 41.5 35.7134 41.5 35.3589V30.6411C41.5 30.287 41.2134 30 40.8589 30H36.1411C35.787 30 35.5 30.2866 35.5 30.6411V35.3589C35.5 35.7134 35.787 36 36.1411 36ZM36.7822 31.2822H40.2182V34.7182H36.7822V31.2822Z" stroke="#113C7B" stroke-width="0.2" mask="url(#path-8-outside-8_46351_107)"/>
<mask id="path-9-outside-9_46351_107" maskUnits="userSpaceOnUse" x="27.5" y="13" width="8" height="8" fill="black">
<rect fill="white" x="27.5" y="13" width="8" height="8"/>
<path d="M29.1411 20H33.8589C34.213 20 34.5 19.7134 34.5 19.3589V14.6411C34.5 14.287 34.2134 14 33.8589 14H29.1411C28.787 14 28.5 14.2866 28.5 14.6411V19.3589C28.5004 19.713 28.787 20 29.1411 20ZM29.7822 15.2817H33.2182V18.7177H29.7822V15.2817Z"/>
</mask>
<path d="M29.1411 20H33.8589C34.213 20 34.5 19.7134 34.5 19.3589V14.6411C34.5 14.287 34.2134 14 33.8589 14H29.1411C28.787 14 28.5 14.2866 28.5 14.6411V19.3589C28.5004 19.713 28.787 20 29.1411 20ZM29.7822 15.2817H33.2182V18.7177H29.7822V15.2817Z" fill="#113C7B"/>
<path d="M29.1411 20H33.8589C34.213 20 34.5 19.7134 34.5 19.3589V14.6411C34.5 14.287 34.2134 14 33.8589 14H29.1411C28.787 14 28.5 14.2866 28.5 14.6411V19.3589C28.5004 19.713 28.787 20 29.1411 20ZM29.7822 15.2817H33.2182V18.7177H29.7822V15.2817Z" stroke="#113C7B" stroke-width="0.2" mask="url(#path-9-outside-9_46351_107)"/>
<mask id="path-10-outside-10_46351_107" maskUnits="userSpaceOnUse" x="34.5" y="13" width="8" height="8" fill="black">
<rect fill="white" x="34.5" y="13" width="8" height="8"/>
<path d="M36.1411 20H40.8589C41.213 20 41.5 19.7134 41.5 19.3589V14.6411C41.5 14.287 41.2134 14 40.8589 14H36.1411C35.787 14 35.5 14.2866 35.5 14.6411V19.3589C35.5 19.713 35.787 20 36.1411 20ZM36.7822 15.2817H40.2182V18.7177H36.7822V15.2817Z"/>
</mask>
<path d="M36.1411 20H40.8589C41.213 20 41.5 19.7134 41.5 19.3589V14.6411C41.5 14.287 41.2134 14 40.8589 14H36.1411C35.787 14 35.5 14.2866 35.5 14.6411V19.3589C35.5 19.713 35.787 20 36.1411 20ZM36.7822 15.2817H40.2182V18.7177H36.7822V15.2817Z" fill="#113C7B"/>
<path d="M36.1411 20H40.8589C41.213 20 41.5 19.7134 41.5 19.3589V14.6411C41.5 14.287 41.2134 14 40.8589 14H36.1411C35.787 14 35.5 14.2866 35.5 14.6411V19.3589C35.5 19.713 35.787 20 36.1411 20ZM36.7822 15.2817H40.2182V18.7177H36.7822V15.2817Z" stroke="#113C7B" stroke-width="0.2" mask="url(#path-10-outside-10_46351_107)"/>
<mask id="path-11-outside-11_46351_107" maskUnits="userSpaceOnUse" x="27.5" y="21" width="8" height="8" fill="black">
<rect fill="white" x="27.5" y="21" width="8" height="8"/>
<path d="M29.1411 28H33.8589C34.213 28 34.5 27.7134 34.5 27.3589V22.6411C34.5 22.287 34.2134 22 33.8589 22H29.1411C28.787 22 28.5 22.2866 28.5 22.6411V27.3589C28.5004 27.713 28.787 28 29.1411 28ZM29.7822 23.2817H33.2182V26.7177H29.7822V23.2817Z"/>
</mask>
<path d="M29.1411 28H33.8589C34.213 28 34.5 27.7134 34.5 27.3589V22.6411C34.5 22.287 34.2134 22 33.8589 22H29.1411C28.787 22 28.5 22.2866 28.5 22.6411V27.3589C28.5004 27.713 28.787 28 29.1411 28ZM29.7822 23.2817H33.2182V26.7177H29.7822V23.2817Z" fill="#113C7B"/>
<path d="M29.1411 28H33.8589C34.213 28 34.5 27.7134 34.5 27.3589V22.6411C34.5 22.287 34.2134 22 33.8589 22H29.1411C28.787 22 28.5 22.2866 28.5 22.6411V27.3589C28.5004 27.713 28.787 28 29.1411 28ZM29.7822 23.2817H33.2182V26.7177H29.7822V23.2817Z" stroke="#113C7B" stroke-width="0.2" mask="url(#path-11-outside-11_46351_107)"/>
<mask id="path-12-outside-12_46351_107" maskUnits="userSpaceOnUse" x="34.5" y="21" width="8" height="8" fill="black">
<rect fill="white" x="34.5" y="21" width="8" height="8"/>
<path d="M36.1411 28H40.8589C41.213 28 41.5 27.7134 41.5 27.3589V22.6411C41.5 22.287 41.2134 22 40.8589 22H36.1411C35.787 22 35.5 22.2866 35.5 22.6411V27.3589C35.5 27.713 35.787 28 36.1411 28ZM36.7822 23.2817H40.2182V26.7177H36.7822V23.2817Z"/>
</mask>
<path d="M36.1411 28H40.8589C41.213 28 41.5 27.7134 41.5 27.3589V22.6411C41.5 22.287 41.2134 22 40.8589 22H36.1411C35.787 22 35.5 22.2866 35.5 22.6411V27.3589C35.5 27.713 35.787 28 36.1411 28ZM36.7822 23.2817H40.2182V26.7177H36.7822V23.2817Z" fill="#113C7B"/>
<path d="M36.1411 28H40.8589C41.213 28 41.5 27.7134 41.5 27.3589V22.6411C41.5 22.287 41.2134 22 40.8589 22H36.1411C35.787 22 35.5 22.2866 35.5 22.6411V27.3589C35.5 27.713 35.787 28 36.1411 28ZM36.7822 23.2817H40.2182V26.7177H36.7822V23.2817Z" stroke="#113C7B" stroke-width="0.2" mask="url(#path-12-outside-12_46351_107)"/>
<mask id="path-13-outside-13_46351_107" maskUnits="userSpaceOnUse" x="-0.5" y="0" width="48" height="48" fill="black">
<rect fill="white" x="-0.5" width="48" height="48"/>
<path d="M45.925 45.8497H44.7752V10.9514H45.925C46.0967 10.9514 46.2595 10.8744 46.369 10.742C46.4781 10.6089 46.5222 10.4344 46.4893 10.2659L44.7643 1.46445C44.7118 1.19492 44.4755 1 44.2004 1H26.0832C25.8081 1 25.5719 1.19492 25.5189 1.46445L23.7939 10.2659C23.7606 10.4344 23.8051 10.6089 23.9142 10.742C24.0237 10.8744 24.1865 10.9514 24.3582 10.9514H25.5081V45.8497H21.4921L21.4925 10.9514H22.6424C22.814 10.9514 22.9769 10.8744 23.0864 10.742C23.1955 10.6089 23.2396 10.4344 23.2067 10.2659L21.4816 1.46445C21.4287 1.19492 21.1925 1 20.9173 1H2.80018C2.52504 1 2.28881 1.19492 2.23587 1.46445L0.510815 10.2659C0.477525 10.4344 0.522045 10.6089 0.63114 10.742C0.740634 10.8744 0.903468 10.9514 1.07553 10.9514H2.2254V45.8497H1.07553C0.757874 45.8497 0.500383 46.1068 0.500383 46.4248C0.500383 46.7425 0.757474 47 1.07553 47H45.9243C46.2419 47 46.4994 46.7429 46.4994 46.4248C46.499 46.1068 46.2419 45.8497 45.9239 45.8497H45.925ZM26.5573 2.14981H43.7267L45.2263 9.80098H25.0567L26.5573 2.14981ZM26.6592 10.9513H43.6253V45.8496H38.4414V38.8782C38.4414 38.5606 38.1843 38.3031 37.8663 38.3031H32.4169C32.0992 38.3031 31.8417 38.5602 31.8417 38.8782L31.8421 45.8496H26.6591L26.6592 10.9513ZM37.2913 45.8496H32.9917V39.453H37.2913V45.8496ZM3.27479 2.14971H20.4442L21.9438 9.80088H1.77419L3.27479 2.14971ZM3.37626 10.9512H20.3424V45.8495H15.1593V38.8781C15.1593 38.5605 14.9022 38.303 14.5842 38.303H9.13477C8.81711 38.303 8.55962 38.5601 8.55962 38.8781L8.56002 45.8495H3.37613L3.37626 10.9512ZM14.0094 45.8495H9.70982V39.4529H14.0094V45.8495Z"/>
</mask>
<path d="M45.925 45.8497H44.7752V10.9514H45.925C46.0967 10.9514 46.2595 10.8744 46.369 10.742C46.4781 10.6089 46.5222 10.4344 46.4893 10.2659L44.7643 1.46445C44.7118 1.19492 44.4755 1 44.2004 1H26.0832C25.8081 1 25.5719 1.19492 25.5189 1.46445L23.7939 10.2659C23.7606 10.4344 23.8051 10.6089 23.9142 10.742C24.0237 10.8744 24.1865 10.9514 24.3582 10.9514H25.5081V45.8497H21.4921L21.4925 10.9514H22.6424C22.814 10.9514 22.9769 10.8744 23.0864 10.742C23.1955 10.6089 23.2396 10.4344 23.2067 10.2659L21.4816 1.46445C21.4287 1.19492 21.1925 1 20.9173 1H2.80018C2.52504 1 2.28881 1.19492 2.23587 1.46445L0.510815 10.2659C0.477525 10.4344 0.522045 10.6089 0.63114 10.742C0.740634 10.8744 0.903468 10.9514 1.07553 10.9514H2.2254V45.8497H1.07553C0.757874 45.8497 0.500383 46.1068 0.500383 46.4248C0.500383 46.7425 0.757474 47 1.07553 47H45.9243C46.2419 47 46.4994 46.7429 46.4994 46.4248C46.499 46.1068 46.2419 45.8497 45.9239 45.8497H45.925ZM26.5573 2.14981H43.7267L45.2263 9.80098H25.0567L26.5573 2.14981ZM26.6592 10.9513H43.6253V45.8496H38.4414V38.8782C38.4414 38.5606 38.1843 38.3031 37.8663 38.3031H32.4169C32.0992 38.3031 31.8417 38.5602 31.8417 38.8782L31.8421 45.8496H26.6591L26.6592 10.9513ZM37.2913 45.8496H32.9917V39.453H37.2913V45.8496ZM3.27479 2.14971H20.4442L21.9438 9.80088H1.77419L3.27479 2.14971ZM3.37626 10.9512H20.3424V45.8495H15.1593V38.8781C15.1593 38.5605 14.9022 38.303 14.5842 38.303H9.13477C8.81711 38.303 8.55962 38.5601 8.55962 38.8781L8.56002 45.8495H3.37613L3.37626 10.9512ZM14.0094 45.8495H9.70982V39.4529H14.0094V45.8495Z" fill="#113C7B"/>
<path d="M45.925 45.8497H44.7752V10.9514H45.925C46.0967 10.9514 46.2595 10.8744 46.369 10.742C46.4781 10.6089 46.5222 10.4344 46.4893 10.2659L44.7643 1.46445C44.7118 1.19492 44.4755 1 44.2004 1H26.0832C25.8081 1 25.5719 1.19492 25.5189 1.46445L23.7939 10.2659C23.7606 10.4344 23.8051 10.6089 23.9142 10.742C24.0237 10.8744 24.1865 10.9514 24.3582 10.9514H25.5081V45.8497H21.4921L21.4925 10.9514H22.6424C22.814 10.9514 22.9769 10.8744 23.0864 10.742C23.1955 10.6089 23.2396 10.4344 23.2067 10.2659L21.4816 1.46445C21.4287 1.19492 21.1925 1 20.9173 1H2.80018C2.52504 1 2.28881 1.19492 2.23587 1.46445L0.510815 10.2659C0.477525 10.4344 0.522045 10.6089 0.63114 10.742C0.740634 10.8744 0.903468 10.9514 1.07553 10.9514H2.2254V45.8497H1.07553C0.757874 45.8497 0.500383 46.1068 0.500383 46.4248C0.500383 46.7425 0.757474 47 1.07553 47H45.9243C46.2419 47 46.4994 46.7429 46.4994 46.4248C46.499 46.1068 46.2419 45.8497 45.9239 45.8497H45.925ZM26.5573 2.14981H43.7267L45.2263 9.80098H25.0567L26.5573 2.14981ZM26.6592 10.9513H43.6253V45.8496H38.4414V38.8782C38.4414 38.5606 38.1843 38.3031 37.8663 38.3031H32.4169C32.0992 38.3031 31.8417 38.5602 31.8417 38.8782L31.8421 45.8496H26.6591L26.6592 10.9513ZM37.2913 45.8496H32.9917V39.453H37.2913V45.8496ZM3.27479 2.14971H20.4442L21.9438 9.80088H1.77419L3.27479 2.14971ZM3.37626 10.9512H20.3424V45.8495H15.1593V38.8781C15.1593 38.5605 14.9022 38.303 14.5842 38.303H9.13477C8.81711 38.303 8.55962 38.5601 8.55962 38.8781L8.56002 45.8495H3.37613L3.37626 10.9512ZM14.0094 45.8495H9.70982V39.4529H14.0094V45.8495Z" stroke="#113C7B" stroke-width="0.4" mask="url(#path-13-outside-13_46351_107)"/>
</svg>
