<svg width="50" height="44" viewBox="0 0 50 44" fill="none" xmlns="http://www.w3.org/2000/svg">
<path d="M14.4206 0.5C6.07598 0.5 0.5 7.28619 0.5 14.8394C0.5 21.926 4.56312 28.0501 9.53087 32.8847C14.4986 37.7182 20.4277 41.3013 24.4955 43.3803C24.8124 43.5399 25.1876 43.5399 25.5045 43.3803C29.5727 41.301 35.5015 37.7178 40.4691 32.8847C45.4369 28.0509 49.5 21.9263 49.5 14.8394C49.5 7.28609 43.924 0.5 35.5794 0.5C30.6602 0.5 27.3925 2.98448 24.9998 6.34251C22.6073 2.98438 19.3391 0.5 14.4202 0.5H14.4206ZM14.4206 2.70586C19.1906 2.70586 21.8046 5.063 24.043 8.77272C24.2438 9.10703 24.6073 9.3117 25 9.3117C25.3927 9.3117 25.7562 9.10704 25.957 8.77272C28.1955 5.06339 30.8095 2.70586 35.5794 2.70586C42.7223 2.70586 47.2727 8.33525 47.2727 14.8392C47.2727 21.0845 43.6322 26.6977 38.9029 31.298C34.3461 35.7313 28.9009 39.1037 25.0002 41.1391C21.0991 39.1037 15.6539 35.7317 11.0975 31.298C6.36831 26.6968 2.72769 21.0841 2.72769 14.8392C2.72769 8.33535 7.27792 2.70586 14.421 2.70586H14.4206Z" fill="#113C7B"/>
</svg>
