<svg width="48" height="50" viewBox="0 0 48 50" fill="none" xmlns="http://www.w3.org/2000/svg">
<mask id="path-1-outside-1_46058_39638" maskUnits="userSpaceOnUse" x="-0.5" y="0" width="49" height="50" fill="black">
<rect fill="white" x="-0.5" width="49" height="50"/>
<path d="M46.9125 21.4751H45.7695C45.5638 17.7314 42.6423 14.7172 38.9713 14.4324L38.9742 13.6361C39.9106 13.5895 41.7678 13.3272 42.9734 12.0387C44.6057 10.2947 44.3249 7.43887 44.3118 7.31789C44.2811 7.02735 44.0475 6.80249 43.7598 6.78628C43.6393 6.78088 40.8134 6.64455 39.1811 8.3882C38.832 8.76144 38.5746 9.18623 38.3791 9.62302C38.1779 9.18078 37.9132 8.751 37.5558 8.37447C35.9003 6.63295 33.0689 6.78054 32.9476 6.78756C32.6583 6.8046 32.4247 7.0332 32.3973 7.3254C32.3858 7.44635 32.1366 10.3126 33.791 12.0538C35.0052 13.3315 36.8534 13.5925 37.7988 13.6378L37.7959 14.4338C35.6429 14.6133 33.7533 15.7331 32.5189 17.3869V14.0821C32.5189 13.7529 32.2558 13.4861 31.9313 13.4861H26.9851V9.09904C26.9851 7.82049 25.9602 6.7806 24.7005 6.7806H23.1527C21.8929 6.7806 20.8681 7.82053 20.8681 9.09904V13.4861H15.1953C14.8707 13.4861 14.6076 13.7529 14.6076 14.0821V18.9289L14.4822 18.5295C14.2917 17.7514 13.7815 17.0926 13.0819 16.7223C12.3877 16.3553 11.5706 16.3067 10.8416 16.5897L9.92035 16.9476L9.26795 15.2194C9.70233 15.2157 10.1347 15.1396 10.5507 14.9783C12.4373 14.2456 13.3914 12.1113 12.6779 10.2205C12.3857 9.44696 11.8386 8.80103 11.1367 8.38372C11.3842 7.59774 11.3662 6.74605 11.0744 5.9726C10.547 4.57604 9.24951 3.67076 7.79968 3.62756C7.76485 3.46296 7.71772 3.30128 7.6587 3.14458C7.34275 2.30747 6.72027 1.64747 5.90558 1.2858C5.09459 0.925443 4.18897 0.905492 3.35747 1.22803C2.52557 1.55099 1.86536 2.17943 1.4986 2.997C1.1306 3.81788 1.10192 4.73064 1.41787 5.5673C1.47729 5.724 1.54859 5.87611 1.63137 6.02283C0.581032 7.03699 0.211021 8.58941 0.738017 9.98597C1.03021 10.7595 1.57728 11.4054 2.27965 11.8231C2.03172 12.6091 2.04975 13.4612 2.34193 14.2343C2.68822 15.1516 3.37053 15.8752 4.26301 16.2714C4.73347 16.4804 5.23219 16.5848 5.73299 16.5848C6.17967 16.5848 6.62757 16.5016 7.05788 16.3345C7.47382 16.1729 7.84551 15.9364 8.17127 15.645L8.82367 17.3732L7.90245 17.7307C7.17301 18.0141 6.59687 18.6035 6.32232 19.3479C6.06292 20.0503 6.10472 20.8234 6.401 21.4731L1.08876 21.4752C0.764197 21.4752 0.501108 21.742 0.501108 22.0712V27.512C0.501108 27.8412 0.764197 28.108 1.08876 28.108H2.19565L5.82233 48.51C5.87232 48.7938 6.11616 49 6.40014 49H41.5518C41.8325 49 42.0739 48.7988 42.1279 48.5195L46.0932 28.108H46.9123C47.2369 28.108 47.5 27.8412 47.5 27.512V22.0712C47.5 21.7424 47.2369 21.4756 46.9123 21.4756L46.9125 21.4751ZM6.63711 15.223C6.01463 15.4649 5.33845 15.45 4.73355 15.1815C4.13156 14.9142 3.67136 14.4271 3.43857 13.8094C3.19433 13.1626 3.23612 12.432 3.55413 11.8043C3.63076 11.6534 3.64019 11.4772 3.58036 11.3188C3.52053 11.1605 3.39718 11.0353 3.24145 10.9751C2.59192 10.7232 2.07928 10.2082 1.83505 9.56108C1.4318 8.49289 1.81087 7.28669 2.75627 6.62794C2.89274 6.53234 2.9833 6.38312 3.00584 6.21604C3.02797 6.04937 2.97961 5.88103 2.87225 5.75218C2.71734 5.56597 2.59686 5.36064 2.51449 5.14243C2.31164 4.60583 2.33049 4.01933 2.56735 3.49104C2.80544 2.96026 3.23492 2.55211 3.77663 2.34177C4.03276 2.24243 4.29913 2.19297 4.56426 2.19297C4.86054 2.19297 5.1556 2.25448 5.43386 2.37793C5.95758 2.61069 6.35795 3.03423 6.56078 3.57126C6.64356 3.78988 6.68865 4.02389 6.69602 4.26663C6.70094 4.43496 6.77593 4.59332 6.90214 4.70264C7.02836 4.81196 7.19515 4.86142 7.35907 4.84022C8.49911 4.69308 9.57358 5.33151 9.97643 6.39925C10.2207 7.04682 10.1789 7.77751 9.86127 8.40434C9.78464 8.55522 9.77521 8.73144 9.83504 8.88981C9.89487 9.04817 10.0182 9.17328 10.174 9.23354C10.8329 9.48874 11.3325 9.99084 11.5803 10.6475C12.0623 11.9244 11.4119 13.3683 10.1305 13.8659C9.70269 14.0329 9.24946 14.0695 8.80364 13.9893L6.12764 6.90097C6.01166 6.59299 5.67153 6.44003 5.3691 6.55723C5.06585 6.67486 4.91423 7.01943 5.03019 7.32659L7.70619 14.4149C7.42711 14.7769 7.06527 15.0571 6.63707 15.2229L6.63711 15.223ZM40.0336 9.20905C40.9233 8.25807 42.3814 8.03573 43.1628 7.98711C43.1571 8.7789 43.0153 10.2623 42.1211 11.2183C41.2314 12.1693 39.7738 12.3916 38.9923 12.4402C38.9981 11.648 39.1394 10.1641 40.0336 9.20905H40.0336ZM34.6373 11.2279C33.7329 10.276 33.5719 8.78269 33.5555 7.98466C34.3399 8.02913 35.8008 8.24568 36.7097 9.20203C37.6141 10.1538 37.7752 11.6472 37.7915 12.4452C37.0072 12.4008 35.5463 12.1842 34.6373 11.2279ZM38.405 15.5954C41.6899 15.5954 44.3803 18.1978 44.5946 21.4751H35.6352C35.8373 20.1023 36.9962 19.0424 38.405 19.0424C38.7296 19.0424 38.9927 18.7756 38.9927 18.4464C38.9927 18.1172 38.7296 17.8503 38.405 17.8503C36.3462 17.8503 34.6476 19.4414 34.4402 21.4747H32.2159C32.4298 18.1973 35.1201 15.5954 38.405 15.5954V15.5954ZM31.3446 14.6789V19.6874C31.3446 19.6899 31.3458 19.692 31.3458 19.6945C31.1737 20.2618 31.0745 20.8595 31.0405 21.475H26.9856V14.6789L31.3446 14.6789ZM24.0006 30.6087C26.8983 30.6087 29.2559 33.0015 29.2559 35.9426C29.2559 38.8838 26.8983 41.2762 24.0006 41.2762C21.1029 41.2762 18.7453 38.8833 18.7453 35.9426C18.7453 33.0011 21.1029 30.6087 24.0006 30.6087ZM23.1531 7.97335H24.7009C25.3128 7.97335 25.8107 8.47877 25.8107 9.09974V29.6836C25.2357 29.5124 24.6292 29.416 24.0006 29.416C23.3183 29.416 22.6613 29.5265 22.0438 29.7273V9.09976C22.0438 8.47838 22.5413 7.97294 23.1531 7.97294V7.97335ZM20.8685 14.6789V21.4751H15.7829L15.7833 14.6789H20.8685ZM7.50742 21.0835C7.29474 20.677 7.26318 20.1974 7.42177 19.7676C7.58118 19.337 7.90083 19.0095 8.3221 18.8457L11.2619 17.7043C11.6836 17.5406 12.1369 17.568 12.5389 17.7804C12.9401 17.9924 13.2327 18.3706 13.3523 18.8549L14.174 21.4751H7.68278L7.50742 21.0835ZM1.67599 22.6667H20.869V26.9158H1.67599V22.6667ZM41.0691 47.8079H6.89203L3.38946 28.1071H20.8693V30.2477C18.9039 31.3654 17.5709 33.4976 17.5709 35.9416C17.5713 39.5402 20.4558 42.4671 24.0014 42.4671C27.547 42.4671 30.4316 39.5402 30.4316 35.942C30.4316 33.4374 29.0321 31.2606 26.9864 30.1671V28.1073H44.8963L41.0691 47.8079ZM46.3255 26.9154H26.9856V22.6663H46.3255V26.9154Z"/>
</mask>
<path d="M46.9125 21.4751H45.7695C45.5638 17.7314 42.6423 14.7172 38.9713 14.4324L38.9742 13.6361C39.9106 13.5895 41.7678 13.3272 42.9734 12.0387C44.6057 10.2947 44.3249 7.43887 44.3118 7.31789C44.2811 7.02735 44.0475 6.80249 43.7598 6.78628C43.6393 6.78088 40.8134 6.64455 39.1811 8.3882C38.832 8.76144 38.5746 9.18623 38.3791 9.62302C38.1779 9.18078 37.9132 8.751 37.5558 8.37447C35.9003 6.63295 33.0689 6.78054 32.9476 6.78756C32.6583 6.8046 32.4247 7.0332 32.3973 7.3254C32.3858 7.44635 32.1366 10.3126 33.791 12.0538C35.0052 13.3315 36.8534 13.5925 37.7988 13.6378L37.7959 14.4338C35.6429 14.6133 33.7533 15.7331 32.5189 17.3869V14.0821C32.5189 13.7529 32.2558 13.4861 31.9313 13.4861H26.9851V9.09904C26.9851 7.82049 25.9602 6.7806 24.7005 6.7806H23.1527C21.8929 6.7806 20.8681 7.82053 20.8681 9.09904V13.4861H15.1953C14.8707 13.4861 14.6076 13.7529 14.6076 14.0821V18.9289L14.4822 18.5295C14.2917 17.7514 13.7815 17.0926 13.0819 16.7223C12.3877 16.3553 11.5706 16.3067 10.8416 16.5897L9.92035 16.9476L9.26795 15.2194C9.70233 15.2157 10.1347 15.1396 10.5507 14.9783C12.4373 14.2456 13.3914 12.1113 12.6779 10.2205C12.3857 9.44696 11.8386 8.80103 11.1367 8.38372C11.3842 7.59774 11.3662 6.74605 11.0744 5.9726C10.547 4.57604 9.24951 3.67076 7.79968 3.62756C7.76485 3.46296 7.71772 3.30128 7.6587 3.14458C7.34275 2.30747 6.72027 1.64747 5.90558 1.2858C5.09459 0.925443 4.18897 0.905492 3.35747 1.22803C2.52557 1.55099 1.86536 2.17943 1.4986 2.997C1.1306 3.81788 1.10192 4.73064 1.41787 5.5673C1.47729 5.724 1.54859 5.87611 1.63137 6.02283C0.581032 7.03699 0.211021 8.58941 0.738017 9.98597C1.03021 10.7595 1.57728 11.4054 2.27965 11.8231C2.03172 12.6091 2.04975 13.4612 2.34193 14.2343C2.68822 15.1516 3.37053 15.8752 4.26301 16.2714C4.73347 16.4804 5.23219 16.5848 5.73299 16.5848C6.17967 16.5848 6.62757 16.5016 7.05788 16.3345C7.47382 16.1729 7.84551 15.9364 8.17127 15.645L8.82367 17.3732L7.90245 17.7307C7.17301 18.0141 6.59687 18.6035 6.32232 19.3479C6.06292 20.0503 6.10472 20.8234 6.401 21.4731L1.08876 21.4752C0.764197 21.4752 0.501108 21.742 0.501108 22.0712V27.512C0.501108 27.8412 0.764197 28.108 1.08876 28.108H2.19565L5.82233 48.51C5.87232 48.7938 6.11616 49 6.40014 49H41.5518C41.8325 49 42.0739 48.7988 42.1279 48.5195L46.0932 28.108H46.9123C47.2369 28.108 47.5 27.8412 47.5 27.512V22.0712C47.5 21.7424 47.2369 21.4756 46.9123 21.4756L46.9125 21.4751ZM6.63711 15.223C6.01463 15.4649 5.33845 15.45 4.73355 15.1815C4.13156 14.9142 3.67136 14.4271 3.43857 13.8094C3.19433 13.1626 3.23612 12.432 3.55413 11.8043C3.63076 11.6534 3.64019 11.4772 3.58036 11.3188C3.52053 11.1605 3.39718 11.0353 3.24145 10.9751C2.59192 10.7232 2.07928 10.2082 1.83505 9.56108C1.4318 8.49289 1.81087 7.28669 2.75627 6.62794C2.89274 6.53234 2.9833 6.38312 3.00584 6.21604C3.02797 6.04937 2.97961 5.88103 2.87225 5.75218C2.71734 5.56597 2.59686 5.36064 2.51449 5.14243C2.31164 4.60583 2.33049 4.01933 2.56735 3.49104C2.80544 2.96026 3.23492 2.55211 3.77663 2.34177C4.03276 2.24243 4.29913 2.19297 4.56426 2.19297C4.86054 2.19297 5.1556 2.25448 5.43386 2.37793C5.95758 2.61069 6.35795 3.03423 6.56078 3.57126C6.64356 3.78988 6.68865 4.02389 6.69602 4.26663C6.70094 4.43496 6.77593 4.59332 6.90214 4.70264C7.02836 4.81196 7.19515 4.86142 7.35907 4.84022C8.49911 4.69308 9.57358 5.33151 9.97643 6.39925C10.2207 7.04682 10.1789 7.77751 9.86127 8.40434C9.78464 8.55522 9.77521 8.73144 9.83504 8.88981C9.89487 9.04817 10.0182 9.17328 10.174 9.23354C10.8329 9.48874 11.3325 9.99084 11.5803 10.6475C12.0623 11.9244 11.4119 13.3683 10.1305 13.8659C9.70269 14.0329 9.24946 14.0695 8.80364 13.9893L6.12764 6.90097C6.01166 6.59299 5.67153 6.44003 5.3691 6.55723C5.06585 6.67486 4.91423 7.01943 5.03019 7.32659L7.70619 14.4149C7.42711 14.7769 7.06527 15.0571 6.63707 15.2229L6.63711 15.223ZM40.0336 9.20905C40.9233 8.25807 42.3814 8.03573 43.1628 7.98711C43.1571 8.7789 43.0153 10.2623 42.1211 11.2183C41.2314 12.1693 39.7738 12.3916 38.9923 12.4402C38.9981 11.648 39.1394 10.1641 40.0336 9.20905H40.0336ZM34.6373 11.2279C33.7329 10.276 33.5719 8.78269 33.5555 7.98466C34.3399 8.02913 35.8008 8.24568 36.7097 9.20203C37.6141 10.1538 37.7752 11.6472 37.7915 12.4452C37.0072 12.4008 35.5463 12.1842 34.6373 11.2279ZM38.405 15.5954C41.6899 15.5954 44.3803 18.1978 44.5946 21.4751H35.6352C35.8373 20.1023 36.9962 19.0424 38.405 19.0424C38.7296 19.0424 38.9927 18.7756 38.9927 18.4464C38.9927 18.1172 38.7296 17.8503 38.405 17.8503C36.3462 17.8503 34.6476 19.4414 34.4402 21.4747H32.2159C32.4298 18.1973 35.1201 15.5954 38.405 15.5954V15.5954ZM31.3446 14.6789V19.6874C31.3446 19.6899 31.3458 19.692 31.3458 19.6945C31.1737 20.2618 31.0745 20.8595 31.0405 21.475H26.9856V14.6789L31.3446 14.6789ZM24.0006 30.6087C26.8983 30.6087 29.2559 33.0015 29.2559 35.9426C29.2559 38.8838 26.8983 41.2762 24.0006 41.2762C21.1029 41.2762 18.7453 38.8833 18.7453 35.9426C18.7453 33.0011 21.1029 30.6087 24.0006 30.6087ZM23.1531 7.97335H24.7009C25.3128 7.97335 25.8107 8.47877 25.8107 9.09974V29.6836C25.2357 29.5124 24.6292 29.416 24.0006 29.416C23.3183 29.416 22.6613 29.5265 22.0438 29.7273V9.09976C22.0438 8.47838 22.5413 7.97294 23.1531 7.97294V7.97335ZM20.8685 14.6789V21.4751H15.7829L15.7833 14.6789H20.8685ZM7.50742 21.0835C7.29474 20.677 7.26318 20.1974 7.42177 19.7676C7.58118 19.337 7.90083 19.0095 8.3221 18.8457L11.2619 17.7043C11.6836 17.5406 12.1369 17.568 12.5389 17.7804C12.9401 17.9924 13.2327 18.3706 13.3523 18.8549L14.174 21.4751H7.68278L7.50742 21.0835ZM1.67599 22.6667H20.869V26.9158H1.67599V22.6667ZM41.0691 47.8079H6.89203L3.38946 28.1071H20.8693V30.2477C18.9039 31.3654 17.5709 33.4976 17.5709 35.9416C17.5713 39.5402 20.4558 42.4671 24.0014 42.4671C27.547 42.4671 30.4316 39.5402 30.4316 35.942C30.4316 33.4374 29.0321 31.2606 26.9864 30.1671V28.1073H44.8963L41.0691 47.8079ZM46.3255 26.9154H26.9856V22.6663H46.3255V26.9154Z" fill="#113C7B"/>
<path d="M46.9125 21.4751H45.7695C45.5638 17.7314 42.6423 14.7172 38.9713 14.4324L38.9742 13.6361C39.9106 13.5895 41.7678 13.3272 42.9734 12.0387C44.6057 10.2947 44.3249 7.43887 44.3118 7.31789C44.2811 7.02735 44.0475 6.80249 43.7598 6.78628C43.6393 6.78088 40.8134 6.64455 39.1811 8.3882C38.832 8.76144 38.5746 9.18623 38.3791 9.62302C38.1779 9.18078 37.9132 8.751 37.5558 8.37447C35.9003 6.63295 33.0689 6.78054 32.9476 6.78756C32.6583 6.8046 32.4247 7.0332 32.3973 7.3254C32.3858 7.44635 32.1366 10.3126 33.791 12.0538C35.0052 13.3315 36.8534 13.5925 37.7988 13.6378L37.7959 14.4338C35.6429 14.6133 33.7533 15.7331 32.5189 17.3869V14.0821C32.5189 13.7529 32.2558 13.4861 31.9313 13.4861H26.9851V9.09904C26.9851 7.82049 25.9602 6.7806 24.7005 6.7806H23.1527C21.8929 6.7806 20.8681 7.82053 20.8681 9.09904V13.4861H15.1953C14.8707 13.4861 14.6076 13.7529 14.6076 14.0821V18.9289L14.4822 18.5295C14.2917 17.7514 13.7815 17.0926 13.0819 16.7223C12.3877 16.3553 11.5706 16.3067 10.8416 16.5897L9.92035 16.9476L9.26795 15.2194C9.70233 15.2157 10.1347 15.1396 10.5507 14.9783C12.4373 14.2456 13.3914 12.1113 12.6779 10.2205C12.3857 9.44696 11.8386 8.80103 11.1367 8.38372C11.3842 7.59774 11.3662 6.74605 11.0744 5.9726C10.547 4.57604 9.24951 3.67076 7.79968 3.62756C7.76485 3.46296 7.71772 3.30128 7.6587 3.14458C7.34275 2.30747 6.72027 1.64747 5.90558 1.2858C5.09459 0.925443 4.18897 0.905492 3.35747 1.22803C2.52557 1.55099 1.86536 2.17943 1.4986 2.997C1.1306 3.81788 1.10192 4.73064 1.41787 5.5673C1.47729 5.724 1.54859 5.87611 1.63137 6.02283C0.581032 7.03699 0.211021 8.58941 0.738017 9.98597C1.03021 10.7595 1.57728 11.4054 2.27965 11.8231C2.03172 12.6091 2.04975 13.4612 2.34193 14.2343C2.68822 15.1516 3.37053 15.8752 4.26301 16.2714C4.73347 16.4804 5.23219 16.5848 5.73299 16.5848C6.17967 16.5848 6.62757 16.5016 7.05788 16.3345C7.47382 16.1729 7.84551 15.9364 8.17127 15.645L8.82367 17.3732L7.90245 17.7307C7.17301 18.0141 6.59687 18.6035 6.32232 19.3479C6.06292 20.0503 6.10472 20.8234 6.401 21.4731L1.08876 21.4752C0.764197 21.4752 0.501108 21.742 0.501108 22.0712V27.512C0.501108 27.8412 0.764197 28.108 1.08876 28.108H2.19565L5.82233 48.51C5.87232 48.7938 6.11616 49 6.40014 49H41.5518C41.8325 49 42.0739 48.7988 42.1279 48.5195L46.0932 28.108H46.9123C47.2369 28.108 47.5 27.8412 47.5 27.512V22.0712C47.5 21.7424 47.2369 21.4756 46.9123 21.4756L46.9125 21.4751ZM6.63711 15.223C6.01463 15.4649 5.33845 15.45 4.73355 15.1815C4.13156 14.9142 3.67136 14.4271 3.43857 13.8094C3.19433 13.1626 3.23612 12.432 3.55413 11.8043C3.63076 11.6534 3.64019 11.4772 3.58036 11.3188C3.52053 11.1605 3.39718 11.0353 3.24145 10.9751C2.59192 10.7232 2.07928 10.2082 1.83505 9.56108C1.4318 8.49289 1.81087 7.28669 2.75627 6.62794C2.89274 6.53234 2.9833 6.38312 3.00584 6.21604C3.02797 6.04937 2.97961 5.88103 2.87225 5.75218C2.71734 5.56597 2.59686 5.36064 2.51449 5.14243C2.31164 4.60583 2.33049 4.01933 2.56735 3.49104C2.80544 2.96026 3.23492 2.55211 3.77663 2.34177C4.03276 2.24243 4.29913 2.19297 4.56426 2.19297C4.86054 2.19297 5.1556 2.25448 5.43386 2.37793C5.95758 2.61069 6.35795 3.03423 6.56078 3.57126C6.64356 3.78988 6.68865 4.02389 6.69602 4.26663C6.70094 4.43496 6.77593 4.59332 6.90214 4.70264C7.02836 4.81196 7.19515 4.86142 7.35907 4.84022C8.49911 4.69308 9.57358 5.33151 9.97643 6.39925C10.2207 7.04682 10.1789 7.77751 9.86127 8.40434C9.78464 8.55522 9.77521 8.73144 9.83504 8.88981C9.89487 9.04817 10.0182 9.17328 10.174 9.23354C10.8329 9.48874 11.3325 9.99084 11.5803 10.6475C12.0623 11.9244 11.4119 13.3683 10.1305 13.8659C9.70269 14.0329 9.24946 14.0695 8.80364 13.9893L6.12764 6.90097C6.01166 6.59299 5.67153 6.44003 5.3691 6.55723C5.06585 6.67486 4.91423 7.01943 5.03019 7.32659L7.70619 14.4149C7.42711 14.7769 7.06527 15.0571 6.63707 15.2229L6.63711 15.223ZM40.0336 9.20905C40.9233 8.25807 42.3814 8.03573 43.1628 7.98711C43.1571 8.7789 43.0153 10.2623 42.1211 11.2183C41.2314 12.1693 39.7738 12.3916 38.9923 12.4402C38.9981 11.648 39.1394 10.1641 40.0336 9.20905H40.0336ZM34.6373 11.2279C33.7329 10.276 33.5719 8.78269 33.5555 7.98466C34.3399 8.02913 35.8008 8.24568 36.7097 9.20203C37.6141 10.1538 37.7752 11.6472 37.7915 12.4452C37.0072 12.4008 35.5463 12.1842 34.6373 11.2279ZM38.405 15.5954C41.6899 15.5954 44.3803 18.1978 44.5946 21.4751H35.6352C35.8373 20.1023 36.9962 19.0424 38.405 19.0424C38.7296 19.0424 38.9927 18.7756 38.9927 18.4464C38.9927 18.1172 38.7296 17.8503 38.405 17.8503C36.3462 17.8503 34.6476 19.4414 34.4402 21.4747H32.2159C32.4298 18.1973 35.1201 15.5954 38.405 15.5954V15.5954ZM31.3446 14.6789V19.6874C31.3446 19.6899 31.3458 19.692 31.3458 19.6945C31.1737 20.2618 31.0745 20.8595 31.0405 21.475H26.9856V14.6789L31.3446 14.6789ZM24.0006 30.6087C26.8983 30.6087 29.2559 33.0015 29.2559 35.9426C29.2559 38.8838 26.8983 41.2762 24.0006 41.2762C21.1029 41.2762 18.7453 38.8833 18.7453 35.9426C18.7453 33.0011 21.1029 30.6087 24.0006 30.6087ZM23.1531 7.97335H24.7009C25.3128 7.97335 25.8107 8.47877 25.8107 9.09974V29.6836C25.2357 29.5124 24.6292 29.416 24.0006 29.416C23.3183 29.416 22.6613 29.5265 22.0438 29.7273V9.09976C22.0438 8.47838 22.5413 7.97294 23.1531 7.97294V7.97335ZM20.8685 14.6789V21.4751H15.7829L15.7833 14.6789H20.8685ZM7.50742 21.0835C7.29474 20.677 7.26318 20.1974 7.42177 19.7676C7.58118 19.337 7.90083 19.0095 8.3221 18.8457L11.2619 17.7043C11.6836 17.5406 12.1369 17.568 12.5389 17.7804C12.9401 17.9924 13.2327 18.3706 13.3523 18.8549L14.174 21.4751H7.68278L7.50742 21.0835ZM1.67599 22.6667H20.869V26.9158H1.67599V22.6667ZM41.0691 47.8079H6.89203L3.38946 28.1071H20.8693V30.2477C18.9039 31.3654 17.5709 33.4976 17.5709 35.9416C17.5713 39.5402 20.4558 42.4671 24.0014 42.4671C27.547 42.4671 30.4316 39.5402 30.4316 35.942C30.4316 33.4374 29.0321 31.2606 26.9864 30.1671V28.1073H44.8963L41.0691 47.8079ZM46.3255 26.9154H26.9856V22.6663H46.3255V26.9154Z" stroke="#113C7B" stroke-width="0.4" mask="url(#path-1-outside-1_46058_39638)"/>
</svg>
