<svg width="40" height="54" viewBox="0 0 40 54" fill="none" xmlns="http://www.w3.org/2000/svg">
<path d="M39.1363 51.1203V2.88C39.1363 1.67116 38.1454 0.687134 36.9281 0.687134H0.863525V53.3129H36.9281C38.1459 53.3134 39.1363 52.3291 39.1363 51.1203ZM2.33568 2.14909H36.9282C37.3338 2.14909 37.6645 2.47743 37.6645 2.88021V51.1205C37.6645 51.5232 37.3338 51.8516 36.9282 51.8516L2.33568 51.8506V2.14909Z" fill="#113C7B"/>
<path d="M20.436 18.6496C20.4303 18.646 20.4246 18.6413 20.4194 18.6376L20.4121 18.6491C20.2739 18.6439 20.1394 18.6277 20.0001 18.6277C19.8609 18.6277 19.7264 18.6434 19.5882 18.6486L19.5809 18.6371C19.5752 18.6408 19.5695 18.6455 19.5642 18.6491C13.1721 18.8822 8.03976 24.1408 8.03976 30.5881C8.03976 37.0353 13.1721 42.294 19.5642 42.5266C19.57 42.5303 19.5757 42.535 19.5814 42.5391L19.5887 42.5277C19.7274 42.5324 19.8609 42.5485 20.0001 42.5485C20.1394 42.5485 20.2729 42.5329 20.4105 42.5277L20.4178 42.5391C20.4235 42.5355 20.4293 42.5303 20.435 42.5266C26.8282 42.2941 31.9606 37.0355 31.9606 30.5881C31.9606 24.1406 26.8282 18.8823 20.436 18.6496ZM19.2524 26.0627C18.1788 25.985 17.1334 25.7399 16.1442 25.3452C16.8529 23.5729 17.9113 22.0023 19.2524 20.7906V26.0627ZM19.2524 27.5576V29.8404H15.1618C15.2171 28.7819 15.3897 27.749 15.665 26.7599C16.8074 27.2078 18.0146 27.4793 19.2524 27.5576ZM19.2524 31.3358V33.6187C18.0146 33.6974 16.8075 33.9686 15.665 34.4165C15.3897 33.4273 15.2171 32.3944 15.1619 31.3359L19.2524 31.3358ZM19.2524 35.1136V40.3851C17.9113 39.1733 16.8538 37.6028 16.1442 35.8316C17.1334 35.4358 18.1793 35.1912 19.2524 35.1136ZM20.7478 35.1136C21.8215 35.1913 22.8669 35.4363 23.856 35.831C23.1474 37.6028 22.089 39.1733 20.7478 40.3846V35.1136ZM20.7478 33.6187V31.3358H24.8385C24.7832 32.3943 24.6106 33.4273 24.3353 34.4164C23.1929 33.9685 21.9856 33.6969 20.7478 33.6187ZM20.7478 29.8404V27.5576C21.9857 27.4788 23.1927 27.2077 24.3352 26.7598C24.6105 27.7489 24.7831 28.7818 24.8384 29.8403L20.7478 29.8404ZM20.7478 26.0627V20.7906C22.089 22.0024 23.1464 23.5729 23.856 25.3452C22.8669 25.7404 21.8209 25.985 20.7478 26.0627ZM22.5097 20.4396C24.3424 20.8933 25.9871 21.824 27.2974 23.1015C26.6618 23.7225 25.9636 24.2663 25.2049 24.7033C24.5531 23.1031 23.6395 21.6529 22.5097 20.4396ZM14.7942 24.7029C14.0355 24.2654 13.3373 23.7221 12.7017 23.1011C14.012 21.8236 15.6572 20.8928 17.4894 20.4392C16.3605 21.6531 15.4469 23.1032 14.7942 24.7029ZM14.2915 26.1233C13.9396 27.3116 13.7284 28.5624 13.6679 29.8405H9.57315C9.7228 27.7351 10.4961 25.8032 11.7125 24.2227C12.4905 24.9746 13.3561 25.6123 14.2915 26.1233ZM13.6679 31.336C13.7284 32.614 13.939 33.8639 14.2915 35.0532C13.3566 35.5647 12.49 36.2019 11.7121 36.9532C10.4961 35.3728 9.72238 33.4414 9.57274 31.3354L13.6679 31.336ZM14.7942 36.4735C15.447 38.0737 16.36 39.5243 17.4899 40.7371C15.6572 40.2835 14.0125 39.3528 12.7022 38.0753C13.3373 37.4533 14.0355 36.9104 14.7942 36.4735ZM25.2059 36.4735C25.9646 36.911 26.6628 37.4543 27.2984 38.0753C25.9881 39.3528 24.343 40.2835 22.5108 40.7371C23.6396 39.5232 24.5532 38.0732 25.2059 36.4735ZM25.7086 35.0531C26.0605 33.8648 26.2717 32.6139 26.3322 31.3358H30.427C30.2773 33.4413 29.504 35.3732 28.2876 36.9536C27.5097 36.2018 26.644 35.5641 25.7086 35.0531ZM26.3322 29.8404C26.2717 28.5624 26.0611 27.3115 25.7086 26.1231C26.6435 25.6116 27.5101 24.9744 28.288 24.2231C29.504 25.8036 30.2777 27.735 30.4274 29.8409L26.3322 29.8404Z" fill="#113C7B"/>
<path fill-rule="evenodd" clip-rule="evenodd" d="M8.45838 10.2555C8.45838 9.82609 8.80644 9.47802 9.2358 9.47802H30.7645C31.1939 9.47802 31.5419 9.82609 31.5419 10.2555C31.5419 10.6848 31.1939 11.0329 30.7645 11.0329H9.2358C8.80644 11.0329 8.45838 10.6848 8.45838 10.2555Z" fill="#113C7B"/>
<path fill-rule="evenodd" clip-rule="evenodd" d="M10.8505 13.8436C10.8505 13.4142 11.1985 13.0661 11.6279 13.0661H28.3724C28.8018 13.0661 29.1499 13.4142 29.1499 13.8436C29.1499 14.2729 28.8018 14.621 28.3724 14.621H11.6279C11.1985 14.621 10.8505 14.2729 10.8505 13.8436Z" fill="#113C7B"/>
</svg>
