<svg width="51" height="50" viewBox="0 0 51 50" fill="none" xmlns="http://www.w3.org/2000/svg">
<g clip-path="url(#clip0_46351_221)">
<path d="M49.7667 42.7256H49.2556V7.27333H49.7667C50.1711 7.27333 50.5 6.94444 50.5 6.54V0.733333C50.5 0.328889 50.1711 0 49.7656 0H49.4978H1.23333C0.828889 0 0.5 0.33 0.5 0.734444V6.54111C0.5 6.94556 0.828889 7.27444 1.23333 7.27444H1.84889V42.7267H1.23333C0.828889 42.7267 0.5 43.0556 0.5 43.46V49.2667C0.5 49.6711 0.828889 50 1.23333 50H49.7667C50.1711 50 50.5 49.6711 50.5 49.2667V43.4589C50.5 43.0544 50.1711 42.7256 49.7667 42.7256ZM47.7889 7.27444V42.7267H41.5989V7.27444H47.7889ZM33.9422 29.9211C34.6967 29.1356 35.45 28.3511 36.2044 27.5667C37.0311 26.7067 37.8578 25.8467 38.6844 24.9856C40.0778 23.5344 40.0778 21.1733 38.6844 19.7222C38.0056 19.0156 37.0933 18.6267 36.1156 18.6267C35.3167 18.6267 34.5622 18.8867 33.9422 19.3667V7.27444H40.1322V42.7267H33.9422V29.9222V29.9211ZM28.8322 20.7967C29.2311 20.3811 29.7433 20.1522 30.2756 20.1522C30.8078 20.1522 31.3267 20.3811 31.7256 20.7967L32.6389 21.7456C32.7844 21.8989 32.9889 21.9856 33.2 21.9856C33.4111 21.9856 33.6156 21.8978 33.7611 21.7456L34.6678 20.7967C35.0656 20.3822 35.5789 20.1544 36.1144 20.1544C36.65 20.1544 37.1633 20.3822 37.5611 20.7967C38.3856 21.6556 38.3856 23.0522 37.5611 23.9111C36.8256 24.6767 36.0911 25.4422 35.3578 26.2078C34.6378 26.9589 33.9178 27.7089 33.1967 28.4589L28.8322 23.9033C28.01 23.0456 28.01 21.6522 28.8322 20.7956V20.7967ZM30.3122 18.6222H30.2744C29.3011 18.6222 28.39 19.0122 27.7089 19.7222C26.3189 21.17 26.3189 23.5278 27.7089 24.9789L32.4756 29.9533V42.7267H26.2856V7.27444H32.4756V19.3867C31.86 18.9044 31.0967 18.6311 30.3122 18.6222ZM24.8189 7.27444V42.7267H18.6278V7.27444H24.8189ZM17.1622 7.27444V42.7267H10.9711V7.27444H17.1622ZM9.50556 7.27444V42.7267H3.31556V7.27444H9.50556ZM49.0333 1.46667V5.80778H1.96667V1.46667H49.0333ZM1.96667 48.5344V44.1933H49.0333V48.5344H1.96667Z" fill="#113C7B"/>
<path d="M32.6532 25.08V26.2889C32.6532 26.5955 32.9021 26.8444 33.2088 26.8444C33.5155 26.8444 33.7644 26.5955 33.7644 26.2889V25.08C34.1855 24.8733 34.4755 24.4422 34.4755 23.9433C34.4755 23.2444 33.9066 22.6766 33.2088 22.6766C32.511 22.6766 31.9421 23.2455 31.9421 23.9433C31.9421 24.4422 32.2332 24.8733 32.6532 25.08Z" fill="#113C7B"/>
</g>
<defs>
<clipPath id="clip0_46351_221">
<rect width="50" height="50" fill="white" transform="translate(0.5)"/>
</clipPath>
</defs>
</svg>
