<svg width="45" height="44" viewBox="0 0 45 44" fill="none" xmlns="http://www.w3.org/2000/svg">
<path d="M43.4624 0.500183H1.53765C1.24109 0.500183 1 0.74051 1 1.03783V6.05438C1 6.35171 1.2407 6.59203 1.53765 6.59203H2.16491V37.4087L1.53765 37.4083C1.24109 37.4083 1 37.6487 1 37.946V42.9622C1 43.2595 1.2407 43.4998 1.53765 43.4998H43.4624C43.7589 43.4998 44 43.2595 44 42.9622V37.9456C44 37.6483 43.7593 37.408 43.4624 37.408H42.9247V6.59127H43.4624C43.7589 6.59127 44 6.35095 44 6.05363L43.9996 1.03746C43.9996 0.740136 43.7593 0.500183 43.4624 0.500183ZM3.24036 6.59163H8.77993V37.4083H3.24036V6.59163ZM29.6967 37.4083V27.0164H35.2363V37.4083H29.6967ZM35.2359 18.0585V25.9413L23.0827 25.9417V18.0585L35.2359 18.0585ZM23.0827 27.0166H28.6215V37.4085H23.0827V27.0166ZM35.2359 16.9837H29.6967V6.59182H35.2363L35.2359 16.9837ZM28.6218 16.9837H23.0826V6.59182H28.6214L28.6218 16.9837ZM22.0073 37.4085H16.4685V6.59182H22.0081L22.0073 37.4085ZM15.3936 37.4085H9.85406V6.59182H15.3936V37.4085ZM42.925 42.4251H2.07524V38.4835H42.925V42.4251ZM41.8501 37.4085H36.3105V6.59182H41.8501V37.4085ZM42.925 5.51683H2.07524V1.57527H42.925V5.51683Z" fill="#113C7B"/>
<path d="M28.4287 24.4998H30.5713C30.8078 24.4998 31 24.2763 31 23.9998C31 23.7233 30.8081 23.4998 30.5713 23.4998H28.4287C28.1922 23.4998 28 23.7233 28 23.9998C28 24.2763 28.1916 24.4998 28.4287 24.4998Z" fill="#113C7B"/>
<path fill-rule="evenodd" clip-rule="evenodd" d="M1.53765 37.4083L2.16491 37.4087V6.59203H1.53765C1.2407 6.59203 1 6.35171 1 6.05438V1.03783C1 0.74051 1.24109 0.500183 1.53765 0.500183H43.4624C43.7593 0.500183 43.9996 0.740136 43.9996 1.03746L44 6.05363C44 6.35095 43.7589 6.59127 43.4624 6.59127H42.9247V37.408H43.4624C43.7593 37.408 44 37.6483 44 37.9456V42.9622C44 43.2595 43.7589 43.4998 43.4624 43.4998H1.53765C1.2407 43.4998 1 43.2595 1 42.9622V37.946C1 37.6487 1.24109 37.4083 1.53765 37.4083ZM43.2247 37.108H43.4623C43.9248 37.108 44.2999 37.4825 44.2999 37.9456V42.9622C44.2999 43.4255 43.9243 43.7998 43.4623 43.7998H1.5376C1.07511 43.7998 0.699951 43.4253 0.699951 42.9622V37.946C0.699951 37.4827 1.07563 37.1084 1.5376 37.1084L1.86486 37.1086V6.89205H1.5376C1.07511 6.89205 0.699951 6.51754 0.699951 6.0544V1.03784C0.699951 0.57456 1.07563 0.200195 1.5376 0.200195H43.4623C43.9248 0.200195 44.2996 0.574327 44.2996 1.03745L44.2999 6.05364C44.2999 6.51692 43.9243 6.89129 43.4623 6.89129H43.2247V37.108ZM8.47988 6.89164H3.54031V37.1083H8.47988V6.89164ZM29.9966 27.3164V37.1083H34.9362V27.3164H29.9966ZM34.9358 25.6414V18.3585L23.3827 18.3585V25.6417L34.9358 25.6414ZM35.2359 25.9413L23.0827 25.9417V18.0585L35.2359 18.0585V25.9413ZM28.3215 27.3166H23.3827V37.1085H28.3215V27.3166ZM29.9966 16.6837H34.9358L34.9362 6.89184H29.9966V16.6837ZM35.2359 16.9837H29.6967V6.59182H35.2363L35.2359 16.9837ZM23.3826 16.6837H28.3217L28.3214 6.89184H23.3826V16.6837ZM28.6214 6.59182H23.0826V16.9837H28.6218L28.6214 6.59182ZM16.7685 37.1085H21.7073L21.708 6.89184H16.7685V37.1085ZM10.154 37.1085H15.0936V6.89184H10.154V37.1085ZM2.37519 42.1251H42.6249V38.7835H2.37519V42.1251ZM36.6104 37.1085H41.55V6.89184H36.6104V37.1085ZM2.37519 5.21684H42.6249V1.87528H2.37519V5.21684ZM30.5713 24.7998H28.4286C27.9842 24.7998 27.7 24.397 27.7 23.9998C27.7 23.6023 27.9851 23.1998 28.4286 23.1998H30.5713C31.0153 23.1998 31.2999 23.6025 31.2999 23.9998C31.2999 24.3973 31.0148 24.7998 30.5713 24.7998ZM3.24036 6.59163V37.4083H8.77993V6.59163H3.24036ZM29.6967 37.4083H35.2363V27.0164H29.6967V37.4083ZM23.0827 27.0166V37.4085H28.6215V27.0166H23.0827ZM22.0073 37.4085L22.0081 6.59182H16.4685V37.4085H22.0073ZM15.3936 37.4085V6.59182H9.85406V37.4085H15.3936ZM42.925 42.4251V38.4835H2.07524V42.4251H42.925ZM41.8501 37.4085V6.59182H36.3105V37.4085H41.8501ZM42.925 5.51683V1.57527H2.07524V5.51683H42.925ZM30.5713 24.4998H28.4287C28.1916 24.4998 28 24.2763 28 23.9998C28 23.7233 28.1922 23.4998 28.4287 23.4998H30.5713C30.8081 23.4998 31 23.7233 31 23.9998C31 24.2763 30.8078 24.4998 30.5713 24.4998Z" fill="#113C7B"/>
</svg>
