<svg width="55" height="54" viewBox="0 0 55 54" fill="none" xmlns="http://www.w3.org/2000/svg">
<path d="M27.5 0C12.5975 0 0.5 12.0978 0.5 26.9999C0.5 41.6527 12.1979 53.5786 26.7555 53.9756C26.9981 54 27.2529 54 27.5 54C27.7471 54 28.0019 54 28.2445 53.9756C42.8024 53.5796 54.5 41.6534 54.5 26.9999C54.5 12.0975 42.4026 0 27.5 0ZM26.7057 1.66296V12.7061H17.6977C18.1519 11.3063 18.6659 9.98683 19.2366 8.8097C21.2728 4.60983 23.9267 2.07448 26.7064 1.66296H26.7057ZM28.2937 1.66296C31.0734 2.07452 33.7272 4.60983 35.7636 8.8097C36.3341 9.98625 36.8482 11.3058 37.3024 12.7061H28.2945V1.66296H28.2937ZM22.1396 2.15928C20.4701 3.58018 19.0004 5.63239 17.7968 8.11513C17.1249 9.50106 16.5444 11.0593 16.0347 12.7061H6.50543C10.1143 7.41887 15.6674 3.54912 22.1396 2.15928ZM32.8605 2.15928C39.3327 3.54909 44.8858 7.41887 48.4947 12.7061H38.9654C38.4558 11.0593 37.8753 9.501 37.2033 8.11513C35.9996 5.63239 34.53 3.58018 32.8605 2.15928ZM5.48896 14.2942H15.5645C14.6222 17.8664 14.0871 21.9085 14.0256 26.2059H2.11382C2.24842 21.877 3.45378 17.8138 5.48896 14.2942ZM17.2267 14.2942H26.7068V26.2059H15.6137C15.679 21.8715 16.2546 17.8184 17.2267 14.2942ZM28.2949 14.2942H37.7749C38.7465 17.8184 39.3232 21.8715 39.388 26.2059H28.2949V14.2942ZM39.4372 14.2942H49.5127C51.5479 17.8138 52.7527 21.877 52.8879 26.2059H40.9761C40.9152 21.9085 40.3795 17.8664 39.4372 14.2942ZM2.11367 27.794H14.0254C14.0864 32.093 14.6215 36.1384 15.5643 39.7057H5.48882C3.45758 36.1861 2.24612 32.1208 2.11367 27.794ZM15.6135 27.794H26.7066V39.7057H17.2266C16.2539 36.1866 15.6778 32.1301 15.6135 27.794ZM28.2947 27.794H39.3879C39.3236 32.1301 38.747 36.1866 37.7748 39.7057H28.2947V27.794ZM40.9759 27.794H52.8877C52.7553 32.1208 51.5439 36.1861 49.5126 39.7057H39.4371C40.3799 36.1384 40.915 32.093 40.9759 27.794ZM6.48146 41.2938H16.0357C16.5453 42.9373 17.1258 44.4739 17.7978 45.8598C19.0109 48.362 20.5043 50.4369 22.1905 51.8656C15.6868 50.4818 10.0987 46.6088 6.4826 41.2938H6.48146ZM17.6987 41.2938H26.7066V52.3369C23.9281 51.9209 21.2726 49.364 19.2368 45.1652C18.6663 43.9887 18.1522 42.6914 17.698 41.2938H17.6987ZM28.2955 41.2938H37.3034C36.8492 42.6913 36.3352 43.9887 35.7645 45.1652C33.7289 49.364 31.0739 51.921 28.2947 52.3369V41.2938H28.2955ZM38.9664 41.2938H48.5206C44.904 46.6082 39.316 50.4812 32.8127 51.8656C34.4984 50.437 35.9917 48.3625 37.2055 45.8598C37.8774 44.4739 38.4579 42.9373 38.9675 41.2938H38.9664Z" fill="#113C7B"/>
</svg>
