<svg width="53" height="48" viewBox="0 0 53 48" fill="none" xmlns="http://www.w3.org/2000/svg">
<mask id="path-1-outside-1_46351_259" maskUnits="userSpaceOnUse" x="7.5" y="16.5" width="23" height="18" fill="black">
<rect fill="white" x="7.5" y="16.5" width="23" height="18"/>
<path d="M26.0206 33.4999C25.5903 33.4999 25.1688 33.3774 24.8018 33.14L9.48945 23.2661C8.99905 22.9496 8.6637 22.4682 8.54551 21.9104C8.42692 21.3503 8.54191 20.78 8.86924 20.304L10.1421 18.4541C10.469 17.9789 10.9683 17.655 11.5488 17.5429C12.1286 17.4296 12.7187 17.5425 13.2095 17.8594L28.5218 27.7333C29.5327 28.385 29.8043 29.7151 29.128 30.6977L27.8552 32.5477C27.529 33.0229 27.0314 33.346 26.456 33.4577C26.311 33.486 26.1656 33.5 26.0209 33.5L26.0206 33.4999ZM11.9873 18.5705C11.914 18.5705 11.8398 18.5779 11.7661 18.5918C11.4753 18.6481 11.2252 18.8102 11.0618 19.0476L9.78891 20.8976C9.62665 21.1334 9.56935 21.417 9.62865 21.6959C9.68754 21.9759 9.85623 22.2168 10.1026 22.3763L25.4139 32.2501C25.6595 32.4084 25.9516 32.4643 26.2385 32.4096C26.525 32.3537 26.7726 32.1923 26.936 31.9553L28.2089 30.1046C28.3728 29.866 28.4321 29.5801 28.3756 29.3004C28.3191 29.0212 28.1532 28.781 27.9092 28.6232L12.5969 18.7493C12.4138 18.6318 12.203 18.5705 11.9867 18.5705L11.9873 18.5705Z"/>
</mask>
<path d="M26.0206 33.4999C25.5903 33.4999 25.1688 33.3774 24.8018 33.14L9.48945 23.2661C8.99905 22.9496 8.6637 22.4682 8.54551 21.9104C8.42692 21.3503 8.54191 20.78 8.86924 20.304L10.1421 18.4541C10.469 17.9789 10.9683 17.655 11.5488 17.5429C12.1286 17.4296 12.7187 17.5425 13.2095 17.8594L28.5218 27.7333C29.5327 28.385 29.8043 29.7151 29.128 30.6977L27.8552 32.5477C27.529 33.0229 27.0314 33.346 26.456 33.4577C26.311 33.486 26.1656 33.5 26.0209 33.5L26.0206 33.4999ZM11.9873 18.5705C11.914 18.5705 11.8398 18.5779 11.7661 18.5918C11.4753 18.6481 11.2252 18.8102 11.0618 19.0476L9.78891 20.8976C9.62665 21.1334 9.56935 21.417 9.62865 21.6959C9.68754 21.9759 9.85623 22.2168 10.1026 22.3763L25.4139 32.2501C25.6595 32.4084 25.9516 32.4643 26.2385 32.4096C26.525 32.3537 26.7726 32.1923 26.936 31.9553L28.2089 30.1046C28.3728 29.866 28.4321 29.5801 28.3756 29.3004C28.3191 29.0212 28.1532 28.781 27.9092 28.6232L12.5969 18.7493C12.4138 18.6318 12.203 18.5705 11.9867 18.5705L11.9873 18.5705Z" fill="#113C7B"/>
<path d="M26.0206 33.4999C25.5903 33.4999 25.1688 33.3774 24.8018 33.14L9.48945 23.2661C8.99905 22.9496 8.6637 22.4682 8.54551 21.9104C8.42692 21.3503 8.54191 20.78 8.86924 20.304L10.1421 18.4541C10.469 17.9789 10.9683 17.655 11.5488 17.5429C12.1286 17.4296 12.7187 17.5425 13.2095 17.8594L28.5218 27.7333C29.5327 28.385 29.8043 29.7151 29.128 30.6977L27.8552 32.5477C27.529 33.0229 27.0314 33.346 26.456 33.4577C26.311 33.486 26.1656 33.5 26.0209 33.5L26.0206 33.4999ZM11.9873 18.5705C11.914 18.5705 11.8398 18.5779 11.7661 18.5918C11.4753 18.6481 11.2252 18.8102 11.0618 19.0476L9.78891 20.8976C9.62665 21.1334 9.56935 21.417 9.62865 21.6959C9.68754 21.9759 9.85623 22.2168 10.1026 22.3763L25.4139 32.2501C25.6595 32.4084 25.9516 32.4643 26.2385 32.4096C26.525 32.3537 26.7726 32.1923 26.936 31.9553L28.2089 30.1046C28.3728 29.866 28.4321 29.5801 28.3756 29.3004C28.3191 29.0212 28.1532 28.781 27.9092 28.6232L12.5969 18.7493C12.4138 18.6318 12.203 18.5705 11.9867 18.5705L11.9873 18.5705Z" stroke="#113C7B" stroke-width="0.5" mask="url(#path-1-outside-1_46351_259)"/>
<mask id="path-2-outside-2_46351_259" maskUnits="userSpaceOnUse" x="18.5" y="-0.5" width="22" height="18" fill="black">
<rect fill="white" x="18.5" y="-0.5" width="22" height="18"/>
<path d="M36.1817 16.5C35.772 16.5 35.3707 16.3774 35.0212 16.14L20.4414 6.26638C19.9744 5.95066 19.6551 5.46893 19.5433 4.91082C19.4304 4.35074 19.5399 3.78055 19.8516 3.30463L21.0685 1.44674C21.7094 0.468917 23.0168 0.205162 23.9839 0.859889L38.5638 10.7327C39.0311 11.0492 39.3489 11.5306 39.4587 12.0876C39.5686 12.6453 39.4572 13.214 39.1459 13.6891L37.929 15.547C37.6177 16.0221 37.1442 16.3452 36.5964 16.4569C36.4583 16.4856 36.3198 16.5 36.1821 16.5L36.1817 16.5ZM22.8138 1.56907C22.4755 1.56907 22.1436 1.73392 21.9433 2.03994L20.7263 3.89784C20.5718 4.13366 20.5173 4.41797 20.5733 4.69685C20.6298 4.97611 20.79 5.21776 21.0243 5.37679L35.6041 15.2504C35.8368 15.4083 36.1146 15.4633 36.3889 15.4091C36.6616 15.3536 36.8978 15.1922 37.0534 14.9549L38.2704 13.0966C38.5897 12.609 38.4592 11.9477 37.9797 11.623L23.3998 1.74981C23.2194 1.62763 23.0149 1.56907 22.8131 1.56907H22.8138Z"/>
</mask>
<path d="M36.1817 16.5C35.772 16.5 35.3707 16.3774 35.0212 16.14L20.4414 6.26638C19.9744 5.95066 19.6551 5.46893 19.5433 4.91082C19.4304 4.35074 19.5399 3.78055 19.8516 3.30463L21.0685 1.44674C21.7094 0.468917 23.0168 0.205162 23.9839 0.859889L38.5638 10.7327C39.0311 11.0492 39.3489 11.5306 39.4587 12.0876C39.5686 12.6453 39.4572 13.214 39.1459 13.6891L37.929 15.547C37.6177 16.0221 37.1442 16.3452 36.5964 16.4569C36.4583 16.4856 36.3198 16.5 36.1821 16.5L36.1817 16.5ZM22.8138 1.56907C22.4755 1.56907 22.1436 1.73392 21.9433 2.03994L20.7263 3.89784C20.5718 4.13366 20.5173 4.41797 20.5733 4.69685C20.6298 4.97611 20.79 5.21776 21.0243 5.37679L35.6041 15.2504C35.8368 15.4083 36.1146 15.4633 36.3889 15.4091C36.6616 15.3536 36.8978 15.1922 37.0534 14.9549L38.2704 13.0966C38.5897 12.609 38.4592 11.9477 37.9797 11.623L23.3998 1.74981C23.2194 1.62763 23.0149 1.56907 22.8131 1.56907H22.8138Z" fill="#113C7B"/>
<path d="M36.1817 16.5C35.772 16.5 35.3707 16.3774 35.0212 16.14L20.4414 6.26638C19.9744 5.95066 19.6551 5.46893 19.5433 4.91082C19.4304 4.35074 19.5399 3.78055 19.8516 3.30463L21.0685 1.44674C21.7094 0.468917 23.0168 0.205162 23.9839 0.859889L38.5638 10.7327C39.0311 11.0492 39.3489 11.5306 39.4587 12.0876C39.5686 12.6453 39.4572 13.214 39.1459 13.6891L37.929 15.547C37.6177 16.0221 37.1442 16.3452 36.5964 16.4569C36.4583 16.4856 36.3198 16.5 36.1821 16.5L36.1817 16.5ZM22.8138 1.56907C22.4755 1.56907 22.1436 1.73392 21.9433 2.03994L20.7263 3.89784C20.5718 4.13366 20.5173 4.41797 20.5733 4.69685C20.6298 4.97611 20.79 5.21776 21.0243 5.37679L35.6041 15.2504C35.8368 15.4083 36.1146 15.4633 36.3889 15.4091C36.6616 15.3536 36.8978 15.1922 37.0534 14.9549L38.2704 13.0966C38.5897 12.609 38.4592 11.9477 37.9797 11.623L23.3998 1.74981C23.2194 1.62763 23.0149 1.56907 22.8131 1.56907H22.8138Z" stroke="#113C7B" stroke-width="0.5" mask="url(#path-2-outside-2_46351_259)"/>
<mask id="path-3-outside-3_46351_259" maskUnits="userSpaceOnUse" x="12.5" y="5.5" width="23" height="23" fill="black">
<rect fill="white" x="12.5" y="5.5" width="23" height="23"/>
<path d="M25.8895 27.5C25.7849 27.5 25.6825 27.4696 25.5941 27.4108L13.7371 19.5473C13.4926 19.3854 13.4262 19.0563 13.5896 18.8121L21.6676 6.73619C21.8302 6.49239 22.1592 6.42664 22.406 6.58929L34.263 14.4524C34.3804 14.53 34.4623 14.6512 34.4897 14.7892C34.5171 14.9269 34.4893 15.0703 34.4106 15.1872L26.3325 27.2631C26.2545 27.38 26.1329 27.4615 25.9942 27.4888C25.9598 27.4961 25.9247 27.4996 25.8895 27.4996L25.8895 27.5ZM14.7711 18.959L25.7412 26.2352L33.2292 15.0414L22.259 7.7659L14.7711 18.959Z"/>
</mask>
<path d="M25.8895 27.5C25.7849 27.5 25.6825 27.4696 25.5941 27.4108L13.7371 19.5473C13.4926 19.3854 13.4262 19.0563 13.5896 18.8121L21.6676 6.73619C21.8302 6.49239 22.1592 6.42664 22.406 6.58929L34.263 14.4524C34.3804 14.53 34.4623 14.6512 34.4897 14.7892C34.5171 14.9269 34.4893 15.0703 34.4106 15.1872L26.3325 27.2631C26.2545 27.38 26.1329 27.4615 25.9942 27.4888C25.9598 27.4961 25.9247 27.4996 25.8895 27.4996L25.8895 27.5ZM14.7711 18.959L25.7412 26.2352L33.2292 15.0414L22.259 7.7659L14.7711 18.959Z" fill="#113C7B"/>
<path d="M25.8895 27.5C25.7849 27.5 25.6825 27.4696 25.5941 27.4108L13.7371 19.5473C13.4926 19.3854 13.4262 19.0563 13.5896 18.8121L21.6676 6.73619C21.8302 6.49239 22.1592 6.42664 22.406 6.58929L34.263 14.4524C34.3804 14.53 34.4623 14.6512 34.4897 14.7892C34.5171 14.9269 34.4893 15.0703 34.4106 15.1872L26.3325 27.2631C26.2545 27.38 26.1329 27.4615 25.9942 27.4888C25.9598 27.4961 25.9247 27.4996 25.8895 27.4996L25.8895 27.5ZM14.7711 18.959L25.7412 26.2352L33.2292 15.0414L22.259 7.7659L14.7711 18.959Z" stroke="#113C7B" stroke-width="0.5" mask="url(#path-3-outside-3_46351_259)"/>
<mask id="path-4-outside-4_46351_259" maskUnits="userSpaceOnUse" x="27.5" y="17.5" width="26" height="21" fill="black">
<rect fill="white" x="27.5" y="17.5" width="26" height="21"/>
<path d="M48.4695 37.5C47.7059 37.5 46.9342 37.2757 46.253 36.8076C46.1774 36.7553 46.0925 36.6958 46.0135 36.6282L28.7001 22.8747C28.4867 22.705 28.4364 22.3935 28.5861 22.1619L30.7992 18.7362C30.9486 18.5061 31.2458 18.4305 31.4812 18.5703L50.4794 29.7518C51.4546 30.3263 52.1339 31.2646 52.3927 32.3925C52.6486 33.5078 52.4419 34.6945 51.8251 35.6488V35.6492C51.05 36.8494 49.7702 37.4995 48.4689 37.4995L48.4695 37.5ZM29.7067 22.3376L46.6559 35.8031C46.7211 35.8587 46.7747 35.8945 46.8224 35.9271C48.1952 36.8692 50.0549 36.4809 50.9712 35.0634C51.4372 34.3417 51.5873 33.48 51.394 32.6365C51.2014 31.797 50.696 31.0992 49.9704 30.6714L31.3879 19.7347L29.7067 22.3376ZM51.3986 35.3567H51.4086H51.3986Z"/>
</mask>
<path d="M48.4695 37.5C47.7059 37.5 46.9342 37.2757 46.253 36.8076C46.1774 36.7553 46.0925 36.6958 46.0135 36.6282L28.7001 22.8747C28.4867 22.705 28.4364 22.3935 28.5861 22.1619L30.7992 18.7362C30.9486 18.5061 31.2458 18.4305 31.4812 18.5703L50.4794 29.7518C51.4546 30.3263 52.1339 31.2646 52.3927 32.3925C52.6486 33.5078 52.4419 34.6945 51.8251 35.6488V35.6492C51.05 36.8494 49.7702 37.4995 48.4689 37.4995L48.4695 37.5ZM29.7067 22.3376L46.6559 35.8031C46.7211 35.8587 46.7747 35.8945 46.8224 35.9271C48.1952 36.8692 50.0549 36.4809 50.9712 35.0634C51.4372 34.3417 51.5873 33.48 51.394 32.6365C51.2014 31.797 50.696 31.0992 49.9704 30.6714L31.3879 19.7347L29.7067 22.3376ZM51.3986 35.3567H51.4086H51.3986Z" fill="#113C7B"/>
<path d="M48.4695 37.5C47.7059 37.5 46.9342 37.2757 46.253 36.8076C46.1774 36.7553 46.0925 36.6958 46.0135 36.6282L28.7001 22.8747C28.4867 22.705 28.4364 22.3935 28.5861 22.1619L30.7992 18.7362C30.9486 18.5061 31.2458 18.4305 31.4812 18.5703L50.4794 29.7518C51.4546 30.3263 52.1339 31.2646 52.3927 32.3925C52.6486 33.5078 52.4419 34.6945 51.8251 35.6488V35.6492C51.05 36.8494 49.7702 37.4995 48.4689 37.4995L48.4695 37.5ZM29.7067 22.3376L46.6559 35.8031C46.7211 35.8587 46.7747 35.8945 46.8224 35.9271C48.1952 36.8692 50.0549 36.4809 50.9712 35.0634C51.4372 34.3417 51.5873 33.48 51.394 32.6365C51.2014 31.797 50.696 31.0992 49.9704 30.6714L31.3879 19.7347L29.7067 22.3376ZM51.3986 35.3567H51.4086H51.3986Z" stroke="#113C7B" stroke-width="0.5" mask="url(#path-4-outside-4_46351_259)"/>
<mask id="path-5-outside-5_46351_259" maskUnits="userSpaceOnUse" x="-0.5" y="38.5" width="29" height="10" fill="black">
<rect fill="white" x="-0.5" y="38.5" width="29" height="10"/>
<path d="M26.9599 47.5H1.03905C0.740963 47.5 0.5 47.2434 0.5 46.927V44.0857C0.5 41.5571 2.43515 39.5 4.81393 39.5H23.1861C25.5648 39.5 27.5 41.5571 27.5 44.0857V46.927C27.4996 47.2434 27.2582 47.5 26.9602 47.5H26.9599ZM1.57781 46.3535H26.4201V44.0852C26.4201 42.1886 24.9689 40.6458 23.1846 40.6458H4.81251C3.02838 40.6458 1.57701 42.1885 1.57701 44.0852L1.57781 46.3535Z"/>
</mask>
<path d="M26.9599 47.5H1.03905C0.740963 47.5 0.5 47.2434 0.5 46.927V44.0857C0.5 41.5571 2.43515 39.5 4.81393 39.5H23.1861C25.5648 39.5 27.5 41.5571 27.5 44.0857V46.927C27.4996 47.2434 27.2582 47.5 26.9602 47.5H26.9599ZM1.57781 46.3535H26.4201V44.0852C26.4201 42.1886 24.9689 40.6458 23.1846 40.6458H4.81251C3.02838 40.6458 1.57701 42.1885 1.57701 44.0852L1.57781 46.3535Z" fill="#113C7B"/>
<path d="M26.9599 47.5H1.03905C0.740963 47.5 0.5 47.2434 0.5 46.927V44.0857C0.5 41.5571 2.43515 39.5 4.81393 39.5H23.1861C25.5648 39.5 27.5 41.5571 27.5 44.0857V46.927C27.4996 47.2434 27.2582 47.5 26.9602 47.5H26.9599ZM1.57781 46.3535H26.4201V44.0852C26.4201 42.1886 24.9689 40.6458 23.1846 40.6458H4.81251C3.02838 40.6458 1.57701 42.1885 1.57701 44.0852L1.57781 46.3535Z" stroke="#113C7B" stroke-width="0.5" mask="url(#path-5-outside-5_46351_259)"/>
</svg>
