<svg width="53" height="48" viewBox="0 0 53 48" fill="none" xmlns="http://www.w3.org/2000/svg">
<path d="M9.42171 23.3712L9.42166 23.3711C8.90406 23.037 8.54851 22.5276 8.42323 21.9363L8.42322 21.9363C8.29746 21.3423 8.4197 20.7371 8.76624 20.2332L8.76626 20.2332L10.0391 18.3833C10.0391 18.3832 10.0391 18.3832 10.0391 18.3832C10.3851 17.8804 10.9131 17.5383 11.5251 17.4202C12.1362 17.3009 12.7591 17.4198 13.2772 17.7544L9.42171 23.3712ZM9.42171 23.3712L24.7339 33.2449C25.1181 33.4934 25.559 33.6228 26.0093 33.6249L26.0098 33.625H26.0209C26.1736 33.625 26.3271 33.6103 26.48 33.5804C27.0868 33.4626 27.6131 33.1212 27.9582 32.6184L29.231 30.7686C29.9478 29.7271 29.6589 28.3176 28.5896 27.6282L13.2773 17.7544L9.42171 23.3712ZM11.9873 18.6955V18.6955C11.9224 18.6955 11.8561 18.702 11.7896 18.7146C11.5302 18.7648 11.3091 18.9089 11.1648 19.1185C11.1647 19.1185 11.1647 19.1185 11.1647 19.1185L9.89189 20.9684C9.74888 21.1763 9.69882 21.4249 9.75091 21.6699L9.75097 21.6702C9.80274 21.9163 9.95097 22.1292 10.1704 22.2713C10.1705 22.2713 10.1705 22.2713 10.1705 22.2713L25.4817 32.1451C25.6999 32.2857 25.9592 32.3355 26.2147 32.2868C26.4694 32.2371 26.6884 32.0941 26.833 31.8845L11.9873 18.6955ZM11.9873 18.6955C12.1796 18.6956 12.3666 18.75 12.5292 18.8544C12.5293 18.8544 12.5293 18.8545 12.5293 18.8545L27.8413 28.7281C27.8414 28.7281 27.8414 28.7282 27.8415 28.7282C28.0579 28.8683 28.2034 29.0799 28.2531 29.3252C28.3027 29.5712 28.2509 29.8227 28.1059 30.0338L26.8331 31.8844L11.9873 18.6955Z" fill="#113C7B" stroke="#113C7B" stroke-width="0.25"/>
<path d="M22.0479 2.10839L22.0478 2.10843L20.8309 3.96633L20.8309 3.96634C20.6945 4.17446 20.6462 4.42527 20.6959 4.67221L20.5734 4.69685L20.6959 4.67208C20.7459 4.91949 20.8874 5.13276 21.0944 5.27329C21.0944 5.27332 21.0944 5.27334 21.0945 5.27337L35.6742 15.1469L35.6743 15.147C35.879 15.2858 36.1225 15.3343 36.3643 15.2865C36.6035 15.2378 36.8111 15.0964 36.9488 14.8864L22.0479 2.10839ZM22.0479 2.10839C22.2241 1.83912 22.5159 1.69407 22.8138 1.69407V1.56907M22.0479 2.10839L22.8138 1.56907M22.8138 1.56907C23.0154 1.56922 23.2196 1.62779 23.3998 1.74981L22.8138 1.56907ZM19.747 3.23614L19.747 3.23615C19.4173 3.73966 19.3014 4.34332 19.4208 4.93544C19.539 5.52542 19.8769 6.03564 20.3713 6.36993L34.951 16.2434C35.3186 16.4931 35.7412 16.6232 36.1732 16.6249L36.1737 16.625H36.1821C36.3284 16.625 36.4754 16.6098 36.6216 16.5794C37.2026 16.4609 37.7043 16.118 38.0335 15.6155L37.929 15.547L38.0335 15.6155L39.2505 13.7576C39.5797 13.2552 39.6976 12.6533 39.5814 12.0634L39.5814 12.0634C39.4652 11.4743 39.1287 10.9643 38.6339 10.6292L38.5638 10.7327L38.6339 10.6292L24.054 0.756386L24.054 0.756377C23.0289 0.0624046 21.643 0.34225 20.964 1.37821L20.964 1.37825L19.747 3.23614ZM38.1658 13.0281L36.9489 14.8863L21.9433 2.03994C22.1434 1.73415 22.475 1.56931 22.8131 1.56907V1.69407C22.9906 1.69407 23.1705 1.74552 23.3297 1.85331C23.3297 1.85332 23.3297 1.85332 23.3297 1.85332L37.9096 11.7265L37.9797 11.623L37.9096 11.7265C38.332 12.0125 38.4481 12.597 38.1658 13.0281L38.2704 13.0966L38.1658 13.0281Z" fill="#113C7B" stroke="#113C7B" stroke-width="0.25"/>
<path d="M26.0136 27.625H25.8895C25.7606 27.625 25.6341 27.5875 25.525 27.515L26.0136 27.625ZM26.0136 27.625L26.0137 27.6124M26.0136 27.625L26.0137 27.6124M13.4857 18.7426C13.2838 19.0444 13.3659 19.4514 13.6681 19.6515L25.5249 27.5149L13.4857 18.7426ZM13.4857 18.7426L13.5895 18.812L13.4857 18.7426M13.4857 18.7426L13.4857 18.7426M13.4857 18.7426L21.5636 6.66684M13.4857 18.7426L21.5636 6.66684M26.0137 27.6124C26.0156 27.6121 26.0174 27.6117 26.0193 27.6113M26.0137 27.6124L26.0193 27.6113M26.0193 27.6113C26.1903 27.5774 26.3402 27.4767 26.4365 27.3325L34.5142 15.2571C34.5143 15.257 34.5143 15.2569 34.5144 15.2568C34.612 15.1119 34.6461 14.9345 34.6123 14.7649C34.6123 14.7648 34.6123 14.7648 34.6123 14.7648L26.0193 27.6113ZM22.4751 6.48512V6.48512L34.332 14.3481L34.3321 14.3482L22.4751 6.48512ZM22.4751 6.48512L22.4748 6.48493L22.4751 6.48512ZM21.5636 6.66684C21.5636 6.66682 21.5636 6.66681 21.5637 6.66679L21.5637 6.66669L21.5636 6.66684ZM33.0555 15.0762L25.7066 26.0622L14.9447 18.9242L22.2937 7.93888L33.0555 15.0762Z" fill="#113C7B" stroke="#113C7B" stroke-width="0.25"/>
<path d="M46.253 36.8076C46.8751 37.2351 47.5728 37.4593 48.2707 37.4949L48.3879 37.5947L48.3884 37.5952L48.4689 37.5006L46.253 36.8076ZM46.253 36.8076C46.1774 36.7553 46.0925 36.6958 46.0135 36.6282L46.253 36.8076ZM29.7067 22.3376L46.6559 35.8031C46.7162 35.8545 46.7665 35.8889 46.8114 35.9196C46.8151 35.9221 46.8188 35.9246 46.8224 35.9271L29.8732 22.3103M29.7067 22.3376L29.8117 22.4054L29.8732 22.3103M29.7067 22.3376L31.3879 19.7347L29.7067 22.3376ZM29.8732 22.3103L46.7337 35.7052L46.7372 35.708L46.7371 35.708C46.7921 35.755 46.8375 35.786 46.8824 35.8167C46.8859 35.8191 46.8895 35.8215 46.893 35.824L46.8931 35.824C48.2064 36.7252 49.9872 36.3555 50.8663 34.9955C51.3137 34.3025 51.458 33.4753 51.2721 32.6645C51.087 31.8575 50.6022 31.1889 49.9069 30.7791L31.4278 19.9032L29.8732 22.3103ZM48.4695 37.625H48.809L48.7931 37.6115C50.0214 37.5126 51.196 36.8537 51.9301 35.717L51.9501 35.6861V35.6854C52.5698 34.7079 52.7751 33.5003 52.5145 32.3645C52.2483 31.2041 51.5484 30.2365 50.5429 29.6441L50.5428 29.6441L31.545 18.4628C31.545 18.4628 31.5449 18.4627 31.5448 18.4627C31.2493 18.2873 30.8787 18.3843 30.6944 18.6681L30.6943 18.6684L28.4811 22.0941C28.4811 22.0941 28.4811 22.0941 28.4811 22.0941C28.2969 22.379 28.3579 22.7623 28.6223 22.9725L28.6223 22.9726L45.934 36.7247C46.0179 36.7963 46.1069 36.8586 46.1819 36.9104L46.1822 36.9106C46.8847 37.3934 47.6812 37.625 48.4695 37.625Z" fill="#113C7B" stroke="#113C7B" stroke-width="0.25"/>
<path d="M27.625 46.9272V46.927V44.0857C27.625 41.4953 25.641 39.375 23.1861 39.375H4.81393C2.35903 39.375 0.375 41.4953 0.375 44.0857V46.927C0.375 47.3051 0.664785 47.625 1.03905 47.625H26.9599H26.9602C27.3343 47.625 27.6245 47.3052 27.625 46.9272ZM26.2951 44.0852V46.2285H1.70277L1.70201 44.0852C1.70201 44.0851 1.70201 44.0851 1.70201 44.0851C1.70203 42.2502 3.10451 40.7708 4.81251 40.7708H23.1846C24.8928 40.7708 26.2951 42.2503 26.2951 44.0852Z" fill="#113C7B" stroke="#113C7B" stroke-width="0.25"/>
</svg>
