<svg width="31" height="52" viewBox="0 0 31 52" fill="none" xmlns="http://www.w3.org/2000/svg">
<path d="M15.4999 34.1964C18.1599 34.1964 20.7109 33.1409 22.5918 31.2622C24.4727 29.3834 25.5294 26.8355 25.5294 24.1785V10.5177C25.5294 6.93864 23.6179 3.63165 20.5146 1.84196C17.4114 0.0526815 13.5885 0.0526815 10.4852 1.84196C7.38202 3.63165 5.47054 6.93875 5.47054 10.5177V24.1785C5.47054 26.8354 6.52725 29.3834 8.40809 31.2622C10.289 33.141 12.8399 34.1964 15.4999 34.1964ZM7.29407 10.5177C7.29407 7.58957 8.85793 4.88344 11.397 3.41942C13.9361 1.9554 17.0638 1.9554 19.6029 3.41942C22.142 4.88344 23.7058 7.58957 23.7058 10.5177V24.1785C23.7058 27.1066 22.142 29.8127 19.6029 31.2768C17.0638 32.7408 13.9361 32.7408 11.397 31.2768C8.85793 29.8127 7.29407 27.1066 7.29407 24.1785V10.5177ZM16.4117 37.8392V49.6786H21.8823C22.3858 49.6786 22.7941 50.0864 22.7941 50.5893C22.7941 51.0922 22.3858 51.5 21.8823 51.5H9.1176C8.6141 51.5 8.20583 51.0922 8.20583 50.5893C8.20583 50.0864 8.6141 49.6786 9.1176 49.6786H14.6338L14.5882 37.8392C10.6542 37.6543 6.94327 35.9617 4.22632 33.1141C1.50937 30.2661 -0.00447075 26.4821 9.91809e-06 22.5477V22.3566C9.91809e-06 21.8537 0.408272 21.4459 0.911774 21.4459C1.41528 21.4459 1.82354 21.8537 1.82354 22.3566V22.5477C1.82598 26.1194 3.24735 29.544 5.77591 32.0696C8.30446 34.5952 11.7329 36.0149 15.3087 36.0174H15.5C19.1271 36.0174 22.606 34.5781 25.1708 32.0164C27.7355 29.4546 29.1765 25.9796 29.1765 22.3566C29.1765 21.8537 29.5847 21.4459 30.0882 21.4459C30.5917 21.4459 31 21.8537 31 22.3566C31.0069 26.3097 29.4997 30.1156 26.7871 32.9948C24.0746 35.8733 20.3625 37.6066 16.4118 37.8391L16.4117 37.8392ZM9.1176 7.78556C9.1176 7.28263 9.52586 6.87484 10.0294 6.87484H20.9705C21.474 6.87484 21.8823 7.28263 21.8823 7.78556C21.8823 8.28848 21.474 8.69628 20.9705 8.69628H10.0294C9.52586 8.69628 9.1176 8.28848 9.1176 7.78556ZM9.1176 13.2499C9.1176 12.7469 9.52586 12.3391 10.0294 12.3391H20.9705C21.474 12.3391 21.8823 12.7469 21.8823 13.2499C21.8823 13.7528 21.474 14.1606 20.9705 14.1606H10.0294C9.52586 14.1606 9.1176 13.7528 9.1176 13.2499ZM9.1176 18.7142C9.1176 18.2112 9.52586 17.8034 10.0294 17.8034H20.9705C21.474 17.8034 21.8823 18.2112 21.8823 18.7142C21.8823 19.2171 21.474 19.6249 20.9705 19.6249H10.0294C9.52586 19.6249 9.1176 19.2171 9.1176 18.7142ZM10.0294 25.0892C9.52586 25.0892 9.1176 24.6814 9.1176 24.1785C9.1176 23.6755 9.52586 23.2678 10.0294 23.2678H20.9705C21.474 23.2678 21.8823 23.6755 21.8823 24.1785C21.8823 24.6814 21.474 25.0892 20.9705 25.0892H10.0294Z" fill="#113C7B"/>
</svg>
