<svg width="44" height="50" viewBox="0 0 44 50" fill="none" xmlns="http://www.w3.org/2000/svg">
<path d="M36.8453 49.4999H18.7288C18.3246 49.4999 17.976 49.2131 17.8941 48.8145L17.1345 45.1236C17.0092 44.5139 16.4711 44.0721 15.8549 44.0721H11.1515C8.16612 44.0721 5.62383 41.9159 5.10617 38.9458L4.08995 33.1005L1.52398 31.8957C0.830915 31.5701 0.312508 30.9581 0.102055 30.2158C-0.108418 29.4735 0.00995148 28.6769 0.426699 28.0295L3.99973 22.483V19.9081C3.99973 9.20567 12.6198 0.5 23.2143 0.5H24.4726C33.3004 0.5 41.0604 6.51671 43.3422 15.1311C44.7139 20.3098 43.9185 25.9065 41.16 30.4866L37.6254 36.3533C36.4532 38.2986 36.0611 40.5978 36.5187 42.8283L37.6779 48.4651C37.7308 48.7192 37.6669 48.9826 37.5048 49.1832C37.3434 49.3839 37.1002 49.5 36.8444 49.5L36.8453 49.4999ZM19.4225 47.7777H35.7979L34.8518 43.1768C34.3045 40.5177 34.7734 37.776 36.1705 35.456L39.705 29.5893C42.2235 25.4093 42.9496 20.3011 41.6974 15.5742C39.6148 7.71222 32.532 2.22045 24.4744 2.22045H23.2161C13.5612 2.22045 5.70659 10.1546 5.70659 19.9064V22.7369C5.70659 22.9042 5.65901 23.0668 5.56843 23.2063L1.85646 28.9673C1.70727 29.1999 1.66616 29.4729 1.74152 29.7389C1.81726 30.0049 1.99576 30.216 2.24352 30.3321L5.21218 31.7272C5.46451 31.8459 5.64339 32.082 5.69211 32.3592L6.7852 38.6461C7.15856 40.7912 8.99496 42.3481 11.151 42.3481H15.8544C17.2747 42.3481 18.5144 43.3676 18.8033 44.7712L19.4225 47.7777ZM23.9565 22.4746C23.2147 22.4746 22.4729 22.1897 21.9089 21.6196L16.3564 16.0112C15.3486 14.9932 14.81 13.5855 14.8782 12.1473C14.9455 10.7099 15.618 9.35705 16.724 8.43482C18.7104 6.77793 21.7539 6.98283 23.6535 8.90075L23.9568 9.20714L24.2613 8.90075C26.1608 6.98129 29.2044 6.77797 31.1896 8.43482C32.2945 9.3563 32.9669 10.7098 33.0354 12.1473C33.1028 13.5854 32.5639 14.994 31.5564 16.012L26.004 21.6204C25.4395 22.1897 24.6978 22.4746 23.9563 22.4746L23.9565 22.4746ZM19.8727 9.03224C19.1283 9.03224 18.3971 9.27251 17.8087 9.76266C17.0628 10.3854 16.6262 11.2612 16.5809 12.2288C16.5356 13.1837 16.8937 14.1182 17.562 14.7941L23.1145 20.4024C23.5792 20.8718 24.3343 20.8718 24.799 20.4024L30.3514 14.7941C31.0198 14.119 31.3779 13.1837 31.3326 12.2288C31.2873 11.2608 30.8508 10.3851 30.1048 9.76266C28.7894 8.66475 26.7509 8.82043 25.4668 10.1183L24.5598 11.0343C24.3996 11.1962 24.183 11.2865 23.957 11.2865C23.7309 11.2865 23.5136 11.1962 23.3541 11.0343L22.4479 10.1183C21.7362 9.39976 20.795 9.03226 19.8724 9.03226L19.8727 9.03224ZM13.9918 23.4006C14.3637 23.1088 14.4299 22.5672 14.141 22.1924C13.851 21.816 13.3159 21.7499 12.9448 22.0417C11.915 22.8513 10.1604 22.8502 9.13241 22.0417C8.76171 21.7499 8.22621 21.8168 7.93623 22.1924C7.64737 22.568 7.71358 23.1085 8.08542 23.4006C8.89799 24.0395 9.94657 24.3909 11.0396 24.3909C12.1311 24.3909 13.1797 24.0395 13.9919 23.4006H13.9918Z" fill="#113C7B"/>
</svg>
