<svg width="51" height="54" viewBox="0 0 51 54" fill="none" xmlns="http://www.w3.org/2000/svg">
<path d="M50.0847 37.1096C49.2594 35.5281 47.3554 34.8322 45.7047 35.4015L40.8807 37.1096C37.8973 30.5938 31.4863 26.3555 24.3134 26.039V21.8006C33.8348 20.915 43.4832 12.8176 43.4832 1.11449V0.418604L42.7849 0.29196C35.8662 -0.846499 31.2323 1.55705 28.5028 3.83442C25.329 6.49135 23.4246 10.1605 22.7902 13.0071C22.092 11.9948 21.14 10.9825 19.9339 10.1605C16.0619 7.37689 10.9837 6.74462 5.9692 8.38916L5.39802 8.57891V9.21169C5.39802 14.9049 13.3325 21.927 22.5365 21.927H22.5998V26.1023C17.1409 26.3552 12.1265 28.8223 8.63514 32.9976C8.50806 33.1242 8.44474 33.314 8.44474 33.5037C7.5561 33.6303 6.66742 33.8832 5.77875 34.2627L1.01806 36.4134C0.57351 36.6032 0.383117 37.1093 0.573511 37.5519C0.763905 37.9949 1.27177 38.1847 1.71585 37.9949L6.47655 35.9073C9.65034 34.5786 13.3953 35.0217 16.1884 37.0458L20.4413 39.7027C21.457 40.3355 22.7264 40.6514 23.9325 40.5252L30.2801 39.8925C31.0417 39.8294 31.8037 40.3355 31.9941 41.0945C32.1845 41.8535 31.6766 42.676 30.9151 42.9288L26.0273 44.4472C24.377 44.9533 22.536 45.08 20.8221 44.7L16.6963 43.8775C16.2518 43.8144 15.8077 44.0673 15.6806 44.5734C15.5535 45.0796 15.871 45.459 16.3789 45.5857L20.5046 46.4082C21.3299 46.5979 22.0915 46.661 22.9168 46.661C24.123 46.661 25.3924 46.4713 26.5352 46.0918L31.4229 44.5734C32.7561 44.194 33.6448 42.9919 33.708 41.6632L46.3398 37.1085C47.2284 36.7921 48.1803 37.1716 48.6249 37.9941C48.8786 38.4372 48.8786 38.9429 48.752 39.449C48.6249 39.9551 48.2441 40.3346 47.8 40.5244L25.2014 51.9124C24.3128 52.3554 23.2971 52.4816 22.3451 52.1652L7.68219 47.8001C6.66648 47.4842 5.58749 47.4842 4.57176 47.6739L2.41369 48.117C1.96914 48.2436 1.65211 48.6862 1.77875 49.1292C1.90582 49.5723 2.34993 49.8882 2.79447 49.762L4.88917 49.319C5.65075 49.1292 6.41271 49.1923 7.17431 49.3821L21.8373 53.7472C22.3451 53.8738 22.9163 54 23.4242 54C24.3128 54 25.1381 53.8102 25.963 53.3672L48.4969 41.9171C49.3856 41.4741 50.0205 40.715 50.2743 39.8295C50.6555 38.8808 50.5284 37.932 50.0839 37.1095L50.0847 37.1096ZM24.3769 17.4356V14.7787C24.3769 12.7542 25.8367 8.38954 29.6454 5.16304C31.9306 3.20208 35.9297 1.11438 41.7693 1.87339C41.3885 12.1849 32.8829 19.27 24.3769 20.0924V17.4356ZM22.5991 20.1556C14.7917 20.1556 7.80924 14.5254 7.23795 9.78092C11.4908 8.57887 15.7436 9.14814 18.981 11.5522C21.2029 13.1337 22.5994 15.4111 22.5994 17.4352L22.5989 20.1556C22.6627 20.1556 22.6627 20.1556 22.5989 20.1556H22.5991ZM30.0895 38.1215L23.7419 38.7543C22.9166 38.8174 22.0917 38.6277 21.3934 38.1851L17.2039 35.5281C15.2995 34.1364 12.951 33.3774 10.6026 33.3138C13.9035 29.7713 18.5371 27.6836 23.4248 27.6836C30.2169 27.6836 36.3739 31.6057 39.2303 37.6788L33.3263 39.8927C32.7552 38.6906 31.4858 37.9947 30.0892 38.1214L30.0895 38.1215Z" fill="#113C7B"/>
</svg>
