<svg width="46" height="46" viewBox="0 0 46 46" fill="none" xmlns="http://www.w3.org/2000/svg">
<path d="M45.5917 0.858983C45.3419 0.72619 45.0366 0.743302 44.8021 0.90416C39.483 4.53581 34.5095 6.04309 30.012 5.37843C27.3578 4.98654 25.349 3.95158 23.2233 2.85461C20.5739 1.4883 17.8344 0.0754759 13.8147 0.00327928C10.9894 -0.051139 8.15813 0.572109 5.36668 1.84464V0.767565C5.36668 0.34454 5.02407 0.000913574 4.60001 0.000913574H0.766668C0.342609 0.000913574 0 0.34454 0 0.767565V45.2333C0 45.6564 0.342609 46 0.766668 46H4.60001C5.02407 46 5.36668 45.6564 5.36668 45.2333V35.9144C8.15577 34.5337 10.9832 33.8489 13.7864 33.9019C17.4479 33.9669 19.9111 35.2374 22.5202 36.5828C24.6638 37.6883 26.881 38.8321 29.7882 39.2606C30.5517 39.3732 31.326 39.4293 32.1111 39.4293C36.3514 39.4293 40.9002 37.7885 45.6649 34.5351C45.8751 34.3917 46 34.1548 46 33.9019V1.53607C46 1.25234 45.8429 0.990858 45.5913 0.858407L45.5917 0.858983ZM44.4671 28.1237C39.2742 31.5922 34.4145 33.0272 30.0125 32.3773C29.2551 32.2654 28.5675 32.0884 27.9117 31.8906C30.1305 31.3731 32.1007 30.2146 33.6209 28.617C37.0518 28.3134 40.6921 26.9594 44.4673 24.5783L44.4671 28.1237ZM5.367 9.08274C8.15784 7.70277 10.9883 7.0183 13.7867 7.06956C17.3295 7.13322 19.7506 8.32529 22.2669 9.62001C20.8016 10.0218 19.4555 10.7032 18.2857 11.6088C16.8259 11.168 15.3594 10.9305 13.8144 10.9028C10.9872 10.8504 8.15846 11.473 5.367 12.7447V9.08274ZM5.367 14.4493C8.15539 13.0693 10.9681 12.3831 13.7867 12.4368C14.8699 12.456 15.9104 12.5895 16.9386 12.8308C15.9857 13.8428 15.2092 15.0212 14.6701 16.3259C14.3849 16.3067 14.1043 16.2752 13.8137 16.2698C10.9873 16.2133 8.15851 16.8389 5.36705 18.1115L5.367 14.4493ZM5.367 19.8159C8.15846 18.4352 11.0027 17.7514 13.7856 17.8027C13.9191 17.8051 14.0454 17.8225 14.1775 17.828C13.94 18.7487 13.8003 19.7077 13.8003 20.7012C13.8003 21.0171 13.8226 21.3282 13.8479 21.638C13.8363 21.638 13.8257 21.6366 13.814 21.6366C10.9873 21.5859 8.15848 22.2061 5.36702 23.478L5.367 19.8159ZM5.367 25.1824C8.15609 23.8025 10.9804 23.1162 13.7856 23.1699C13.8845 23.1713 13.9797 23.1785 14.0769 23.1823C14.3959 24.6259 14.9815 25.9706 15.7882 27.1559C15.1427 27.0676 14.4879 27.0162 13.814 27.0039C10.9873 26.9488 8.15848 27.5721 5.36702 28.8446L5.367 25.1824ZM15.3337 20.7012C15.3337 15.206 19.805 10.7348 25.3004 10.7348C30.7957 10.7348 35.267 15.206 35.267 20.7012C35.267 26.1965 30.7957 30.6677 25.3004 30.6677C19.805 30.6677 15.3337 26.1965 15.3337 20.7012ZM44.4671 22.7534C41.1574 24.963 37.9781 26.345 34.9788 26.8889C35.7745 25.6485 36.3372 24.2476 36.608 22.7445C39.1335 22.1021 41.7693 20.925 44.467 19.224L44.4671 22.7534ZM44.4671 17.3899C41.8159 19.16 39.2359 20.4113 36.7799 21.1126C36.7843 20.975 36.8004 20.8398 36.8004 20.7012C36.8004 19.5704 36.6293 18.4793 36.3243 17.4467C38.9385 16.8203 41.6687 15.6191 44.4671 13.8533L44.4671 17.3899ZM44.4671 12.0227C41.4548 14.0344 38.5391 15.3668 35.7832 15.9969C35.199 14.7004 34.3878 13.5275 33.3904 12.5384C36.8948 12.2731 40.607 10.9092 44.4672 8.47512L44.4671 12.0227ZM13.7863 1.53749C17.4478 1.60252 19.9111 2.87295 22.5202 4.21841C24.6638 5.32387 26.881 6.46772 29.7881 6.89617C34.3276 7.56561 39.2606 6.24143 44.467 2.95786V6.65145C39.8594 9.72726 35.5062 11.2137 31.5335 11.0505C29.7356 9.88611 27.5982 9.20155 25.3005 9.20155C25.1534 9.20155 25.0106 9.21832 24.8652 9.2238L24.8676 9.21935C24.3117 8.95034 23.7675 8.66969 23.223 8.38904C20.5735 7.02273 17.8333 5.6099 13.8135 5.53771C10.9875 5.47781 8.15868 6.10517 5.36722 7.37837V3.55055C8.15632 2.16987 10.9838 1.48672 13.7869 1.53736L13.7863 1.53749ZM3.83366 44.4673H1.53366V1.53486H3.83366V44.4673ZM30.0125 37.7438C27.3583 37.3519 25.3495 36.3169 23.2238 35.2199C20.5744 33.8536 17.8349 32.4408 13.8152 32.3686C10.9915 32.3183 8.15863 32.9392 5.36717 34.2109V30.5488C8.15802 29.1681 10.9885 28.4826 13.7869 28.5356C15.0426 28.5579 16.2278 28.7249 17.4087 29.0432C19.2634 30.7979 21.6952 31.9417 24.3909 32.1543C25.8339 32.8436 27.5924 33.5702 29.7897 33.8939C30.5533 34.0066 31.3275 34.0627 32.1127 34.0627C35.9959 34.0627 40.139 32.6704 44.4678 29.9413V33.4955C39.2757 36.9633 34.4153 38.3953 30.0124 37.7436L30.0125 37.7438Z" fill="#113C7B"/>
<path d="M24.4129 28.751C24.5641 28.9097 24.7771 29 24.9998 29C25.2225 29 25.4355 28.9097 25.5867 28.751L31.8242 22.2201C33.3919 20.5781 33.3919 17.9059 31.8242 16.2632C31.0464 15.4486 30.0073 15 28.8974 15C27.7887 15 26.7491 15.4486 25.9717 16.2632L24.9998 17.2812L24.0279 16.2632C23.2494 15.4486 22.2111 15 21.1022 15C19.9923 15 18.9533 15.4486 18.1758 16.2632C16.6081 17.9052 16.6081 20.5774 18.1758 22.2201L24.4129 28.751ZM19.3493 17.3209C19.8211 16.8278 20.4431 16.5556 21.1022 16.5556C21.7602 16.5556 22.3825 16.8278 22.8541 17.3209L24.4129 18.9542C24.7163 19.2716 25.284 19.2716 25.5875 18.9542L27.1463 17.3209C28.0902 16.3323 29.7077 16.3338 30.6499 17.3209C31.6612 18.3795 31.6612 20.1028 30.6499 21.1615L24.9998 27.0788L19.3493 21.1622C18.3388 20.1032 18.3388 18.3802 19.3493 17.3209Z" fill="#113C7B"/>
</svg>
