<svg width="49" height="40" viewBox="0 0 49 40" fill="none" xmlns="http://www.w3.org/2000/svg">
<path d="M34.8716 13.9243C35.2765 13.5159 35.5 12.9725 35.5 12.3933C35.5 11.8142 35.2768 11.2704 34.8716 10.8624L34.7781 10.7687C34.3725 10.3604 33.832 10.1357 33.2574 10.1357C32.7283 10.1357 32.23 10.325 31.8386 10.6721L31.8382 3.78783C31.8382 2.59405 30.873 1.62277 29.6869 1.62277H29.5557C29.3039 1.62277 29.0599 1.66777 28.8323 1.75114C28.64 0.754739 27.766 0 26.7206 0H26.5894C25.6213 0 24.8001 0.647412 24.5312 1.5346C24.2831 1.43352 24.0138 1.37856 23.7327 1.37856H23.6008C22.415 1.37856 21.4502 2.35022 21.4502 3.54362V3.71331C21.2391 3.64359 21.0141 3.60597 20.7825 3.60597H20.6506C19.4648 3.60597 18.5 4.57763 18.5 5.77103V15.0237C18.5 16.1031 18.873 17.0482 19.6099 17.8317L20.1141 18.3695C20.5978 18.8845 20.8327 19.4791 20.8327 20.187V39.9989H22.2658V20.188C22.2658 19.1086 21.8924 18.1642 21.1559 17.3792L20.6509 16.8414C20.1672 16.3268 19.9327 15.7325 19.9327 15.0239V5.77159C19.9327 5.37282 20.2548 5.04857 20.6502 5.04857H20.7821C21.0848 5.04857 21.3468 5.24482 21.4498 5.52813V10.0663C21.4498 10.4647 21.7708 10.7875 22.1661 10.7875C22.5619 10.7875 22.8825 10.4643 22.8825 10.0663V3.54429C22.8825 3.14551 23.2039 2.82126 23.6 2.82126H23.7319C24.0844 2.82126 24.3823 3.08317 24.4369 3.43104V10.4718C24.4369 10.8702 24.7579 11.193 25.1533 11.193C25.5494 11.193 25.8697 10.8698 25.8697 10.4718L25.8704 3.35615V2.1654C25.8704 1.76662 26.1925 1.44237 26.5886 1.44237H26.7198C27.1155 1.44237 27.4373 1.76663 27.4373 2.1654V3.47647C27.4373 3.4938 27.4457 3.50856 27.4468 3.52516V10.5175C27.4468 10.916 27.7678 11.2387 28.1632 11.2387C28.5589 11.2387 28.8792 10.9156 28.8792 10.5175L28.8795 3.56794C28.9752 3.2754 29.2434 3.06514 29.5545 3.06514H29.6857C30.0818 3.06514 30.4039 3.38866 30.4039 3.78743V12.4067C30.4039 12.6985 30.5783 12.9615 30.8462 13.0729C31.1148 13.1843 31.4226 13.1227 31.6267 12.9165L32.7472 11.7881C33.0176 11.5169 33.4922 11.5169 33.7633 11.7881L33.8568 11.8821C33.9912 12.0179 34.0653 12.199 34.0653 12.3931C34.0653 12.5871 33.9905 12.7679 33.8568 12.904C32.5965 14.1723 31.4141 15.3494 30.239 16.5187L29.0349 17.7188C28.3295 18.4211 27.9726 19.2836 27.9726 20.2825V40H29.4057V20.2825C29.4057 19.675 29.6138 19.1714 30.0429 18.7442L31.2482 17.5442C32.4244 16.3734 33.6084 15.1947 34.8715 13.9243L34.8716 13.9243Z" fill="#113C7B"/>
<path d="M15.3498 16.6561H15.2179C14.9867 16.6561 14.762 16.6942 14.5502 16.7649V16.5929C14.5502 15.3825 13.5849 14.3977 12.3994 14.3977H12.2674C11.9864 14.3977 11.717 14.4534 11.4682 14.5559C11.1995 13.656 10.3787 13 9.4104 13H9.27921C8.23362 13 7.36038 13.7652 7.16759 14.7755C6.93964 14.6913 6.69594 14.6453 6.44418 14.6453H6.31225C5.12632 14.6453 4.16141 15.6305 4.16141 16.8405V23.8201C3.76966 23.4689 3.27089 23.2763 2.74244 23.2763C2.16708 23.2763 1.62687 23.5037 1.22158 23.9177L1.12886 24.0131C0.290379 24.8692 0.290379 26.2613 1.12886 27.1171C2.39098 28.4056 3.57428 29.5999 4.75178 30.7874L5.95816 32.0052C6.38693 32.4383 6.59546 32.9477 6.59546 33.5645V39.9977H8.02869V33.5645C8.02869 32.5509 7.67102 31.6772 6.96631 30.9651L5.75955 29.7472C4.58469 28.5616 3.40279 27.3692 2.14283 26.0833C1.86285 25.7975 1.86285 25.333 2.14283 25.0469L2.23628 24.9515C2.50564 24.6766 2.98132 24.6766 3.25138 24.9515L4.37201 26.0964C4.57687 26.3051 4.88544 26.3676 5.1526 26.2546C5.42012 26.1409 5.59492 25.8746 5.59492 25.5795V16.8405C5.59492 16.4361 5.91705 16.1081 6.31247 16.1081H6.44439C6.77019 16.1081 7.0553 16.3397 7.13629 16.6606V23.6241C7.13629 24.0281 7.45732 24.3553 7.85274 24.3553C8.24853 24.3553 8.56919 24.0277 8.56919 23.6241L8.56955 16.2495C8.56955 16.2215 8.56442 16.1953 8.56149 16.1691V15.1955C8.56149 14.7912 8.88362 14.4624 9.27904 14.4624H9.41023C9.80602 14.4624 10.1285 14.7912 10.1285 15.1955V23.6173C10.1285 24.0213 10.4488 24.3482 10.845 24.3482C11.2408 24.3482 11.5614 24.0213 11.5614 23.6173L11.5621 16.4787C11.6175 16.1253 11.915 15.8605 12.2676 15.8605H12.3995C12.7957 15.8605 13.1178 16.1893 13.1178 16.5936V23.2062C13.1178 23.6102 13.4381 23.9374 13.8342 23.9374C14.23 23.9374 14.5507 23.6098 14.5507 23.2062V18.6057C14.6533 18.3185 14.9157 18.1195 15.2184 18.1195H15.3503C15.7461 18.1195 16.0679 18.4483 16.0679 18.8526V28.2345C16.0679 28.9526 15.8326 29.5552 15.3492 30.0769L14.845 30.6218C14.1083 31.4181 13.7349 32.3756 13.7349 33.4708V40H15.1682V33.4685C15.1682 32.75 15.4034 32.1474 15.8868 31.6249L16.3903 31.08C17.1269 30.2848 17.5 29.3266 17.5 28.233L17.4996 18.8517C17.5004 17.641 16.5359 16.6558 15.3495 16.6558L15.3498 16.6561Z" fill="#113C7B"/>
<path d="M46.3501 17.5671H46.2189C45.9877 17.5671 45.7631 17.6043 45.5512 17.6733V17.5047C45.5512 16.3241 44.5867 15.3634 43.4004 15.3634H43.2681C42.9874 15.3634 42.7177 15.4178 42.4696 15.5178C42.2006 14.6399 41.3801 14 40.4118 14H40.2799C39.2351 14 38.3611 14.7465 38.1683 15.7319C37.9404 15.6498 37.6959 15.6053 37.4449 15.6053H37.313C36.1267 15.6053 35.1614 16.5663 35.1614 17.7466V24.5557C34.77 24.2131 34.2712 24.0249 33.7428 24.0249C33.1675 24.0249 32.628 24.247 32.2212 24.6509L32.1289 24.744C31.7232 25.1471 31.5 25.6849 31.5 26.2581C31.5 26.8302 31.7232 27.368 32.1289 27.7722C33.3804 29.0182 34.5545 30.1736 35.7213 31.3222L36.9575 32.5389C37.3862 32.9621 37.5948 33.4594 37.5948 34.0603V40H39.028V34.0599C39.028 33.0723 38.6707 32.2189 37.9656 31.5246L36.7287 30.3071C35.5634 29.1608 34.3914 28.0067 33.1422 26.763C33.0077 26.6287 32.9336 26.4492 32.9336 26.2577C32.9336 26.0658 33.0084 25.8863 33.1429 25.7513L33.2352 25.6593C33.5053 25.3904 33.9806 25.3901 34.2515 25.6593L35.3725 26.775C35.5773 26.9797 35.8859 27.0406 36.153 26.9304C36.4209 26.8195 36.5954 26.5597 36.5954 26.2704V17.7461C36.5954 17.3517 36.9168 17.031 37.3129 17.031H37.4448C37.76 17.031 38.0337 17.2448 38.1254 17.5422V23.5323C38.1254 23.9263 38.4457 24.2452 38.8414 24.2452C39.2372 24.2452 39.5579 23.9263 39.5579 23.5323V17.4583C39.5579 17.4514 39.5615 17.4459 39.5615 17.4386V16.1416C39.5615 15.7472 39.8837 15.4272 40.2791 15.4272H40.411C40.8072 15.4272 41.1285 15.7472 41.1285 16.1416V24.3575C41.1285 24.7516 41.4488 25.0708 41.845 25.0708C42.2408 25.0708 42.5614 24.7512 42.5614 24.3575L42.5622 17.3934C42.6168 17.0486 42.9151 16.7903 43.2673 16.7903H43.3996C43.7957 16.7903 44.1171 17.1103 44.1171 17.5047V23.9559C44.1171 24.3499 44.4374 24.6688 44.8332 24.6688C45.229 24.6688 45.5496 24.3499 45.5496 23.9559V19.4675C45.6522 19.1877 45.9146 18.9936 46.2173 18.9936H46.3485C46.7443 18.9936 47.0661 19.3143 47.0661 19.7079V28.859C47.0661 29.5599 46.8311 30.1477 46.3478 30.6574L45.8435 31.1889C45.1069 31.9646 44.7335 32.8993 44.7335 33.9661V40H46.1667L46.1671 33.9658C46.1671 33.2653 46.4013 32.6776 46.8854 32.1686L47.3903 31.6367C48.1269 30.8607 48.5 29.926 48.5 28.8584L48.4996 19.708C48.5007 18.5274 47.5361 17.5671 46.3499 17.5671L46.3501 17.5671Z" fill="#113C7B"/>
</svg>
