<svg width="55" height="36" viewBox="0 0 55 36" fill="none" xmlns="http://www.w3.org/2000/svg">
<path d="M40.4958 7H45.5042C46.0554 7 46.5 6.55209 46.5 6C46.5 5.44744 46.0549 5 45.5042 5H40.4958C39.946 5 39.5 5.44744 39.5 6C39.4995 6.55209 39.946 7 40.4958 7Z" fill="#113C7B"/>
<path d="M17.4908 17H36.5092C37.0576 17 37.5 16.5527 37.5 16.0002C37.5 15.4483 37.0571 15.0005 36.5092 15.0005L17.4908 15C16.9433 15 16.5 15.4478 16.5 15.9998C16.5 16.5527 16.9429 17 17.4908 17Z" fill="#113C7B"/>
<path d="M8.60447 15H5.39553C4.9007 15 4.5 15.4479 4.5 16C4.5 16.5526 4.9007 17 5.39553 17H8.60447C9.0993 17 9.5 16.5526 9.5 16C9.50042 15.4484 9.09972 15 8.60447 15Z" fill="#113C7B"/>
<path d="M45.522 26H37.4772C36.9377 26 36.5 26.4479 36.5 27C36.5 27.5526 36.9377 28 37.4772 28H45.5228C46.0637 28 46.5 27.5526 46.5 27C46.4995 26.4479 46.0638 26 45.522 26Z" fill="#113C7B"/>
<path d="M53.5135 30.6125H51.3303C50.0016 27.5277 50.0474 24.88 51.4623 22.3603H53.4295C53.9739 22.3603 54.4156 21.9221 54.4156 21.3819C54.4156 20.8413 53.9739 20.4035 53.4295 20.4035H42.5356C41.2101 17.324 41.2528 14.6815 42.6595 12.1663H53.5139C54.0597 12.1663 54.5 11.7285 54.5 11.1879C54.5 10.6477 54.0592 10.2095 53.5139 10.2095H51.4132C50.035 7.1209 50.0171 4.4715 51.3591 1.95725H53.4304C53.9748 1.95725 54.4165 1.51902 54.4165 0.978851C54.4165 0.438231 53.9748 0.00045507 53.4304 0.00045507L14.2256 0C11.5067 0 9.29416 2.19482 9.29416 4.89291V7.27425C9.29416 8.36914 9.66291 9.37762 10.278 10.1936H5.43143C2.71257 10.1936 0.5 12.3884 0.5 15.0865V17.4678C0.5 20.1654 2.71257 22.3607 5.43143 22.3607H10.2904C9.66847 23.1794 9.29513 24.1937 9.29513 25.2959V27.6772C9.29513 30.3753 11.5072 32.5701 14.2266 32.5701H16.5739V35.0211C16.5739 35.3943 16.7876 35.7347 17.1248 35.8994C17.2628 35.9672 17.4114 36 17.56 36C17.7742 36 17.9866 35.9313 18.1631 35.7957L20.4986 34.0069L22.835 35.7957C23.1326 36.0241 23.5353 36.0633 23.8724 35.899C24.2095 35.7347 24.4233 35.3948 24.4233 35.0207V32.5697H53.5128C54.0586 32.5697 54.4989 32.1319 54.4989 31.5913C54.4994 31.0498 54.0588 30.6125 53.5135 30.6125ZM19.8353 10.6471C19.6849 10.5625 19.517 10.5197 19.3496 10.5197C19.1818 10.5197 19.0144 10.562 18.8639 10.6471L16.9256 11.7361V7.13678H21.775V11.7361L19.8353 10.6471ZM11.2672 7.27463V4.8933C11.2672 3.27456 12.5946 1.95767 14.226 1.95767H49.1816C48.1024 4.51748 48.1335 7.24061 49.2788 10.2099H44.7982C44.7441 10.2008 44.6905 10.1944 44.635 10.1944L23.7457 10.194V6.89104H32.6242C33.1687 6.89104 33.6103 6.45281 33.6103 5.91264C33.6103 5.37202 33.1687 4.93425 32.6242 4.93425L13.8155 4.93379C13.2707 4.93379 12.8294 5.37156 12.8294 5.91219C12.8294 6.45235 13.2707 6.89058 13.8155 6.89058H14.9512V10.1935H14.0628C12.5075 10.108 11.2672 8.8378 11.2672 7.27463ZM2.47214 17.4682V15.0869C2.47214 13.4681 3.79952 12.1512 5.43088 12.1512H13.9026C14.0099 12.1585 14.1163 12.1667 14.2255 12.1667H14.952V13.4154C14.952 13.764 15.1387 14.0853 15.4418 14.261C15.745 14.4366 16.1193 14.4384 16.4247 14.2673L19.3495 12.6232L22.2743 14.2673C22.4248 14.352 22.5926 14.3938 22.7601 14.3938C22.9316 14.3938 23.1031 14.3497 23.2563 14.261C23.5595 14.0853 23.7462 13.764 23.7462 13.4154V12.1667H40.4543C39.3256 14.7233 39.3127 17.4406 40.413 20.4039H5.43043C3.79894 20.4039 2.47214 19.0864 2.47214 17.4682ZM22.4491 33.0288L21.0993 31.9954C20.9218 31.8588 20.7095 31.791 20.4962 31.791C20.2834 31.791 20.0715 31.8588 19.8931 31.9954L18.5437 33.0288V27.477H22.4482L22.4491 33.0288ZM24.4218 27.477H27.7021C28.247 27.477 28.6882 27.0392 28.6882 26.4986C28.6882 25.9584 28.247 25.5202 27.7021 25.5202H13.8155C13.2706 25.5202 12.8294 25.9584 12.8294 26.4986C12.8294 27.0392 13.2706 27.477 13.8155 27.477H16.572V30.6124H14.2247C12.5932 30.6124 11.2659 29.2954 11.2659 27.6768V25.2955C11.2659 23.6767 12.5933 22.3603 14.2247 22.3603H49.2542C48.1186 24.9209 48.1035 27.6432 49.207 30.6125H24.4219L24.4218 27.477Z" fill="#113C7B"/>
</svg>
