<svg width="48" height="50" viewBox="0 0 48 50" fill="none" xmlns="http://www.w3.org/2000/svg">
<mask id="path-1-outside-1_46058_39715" maskUnits="userSpaceOnUse" x="-0.5" y="-0.5" width="49" height="51" fill="black">
<rect fill="white" x="-0.5" y="-0.5" width="49" height="51"/>
<path d="M47.5 46.3066C47.5 44.5455 46.0551 43.113 44.279 43.113H44.1894L44.1898 3.59964C44.1898 2.77163 43.8649 1.99356 43.2741 1.40872C42.6842 0.824235 41.9004 0.502953 41.0661 0.502953H41.0631C39.342 0.504235 37.942 1.89411 37.942 3.60049V5.83374H23.7845V4.65882C24.7415 4.45587 25.4611 3.61163 25.4611 2.60331C25.4611 1.44337 24.5097 0.5 23.3401 0.5H13.9197C12.7501 0.5 11.7984 1.44337 11.7984 2.60331C11.7984 3.61163 12.518 4.45625 13.475 4.65882V5.83286H11.2998C10.9589 5.83286 10.6818 6.10673 10.6818 6.44555C10.6818 6.78436 10.9585 7.05823 11.2998 7.05823H13.475V8.4938C6.47358 10.7014 1.62303 17.2417 1.62303 24.5612C1.62303 31.763 6.23894 38.172 13.1088 40.5094C13.173 40.5307 13.2411 40.5423 13.3096 40.5423H23.9479C24.016 40.5423 24.0836 40.5307 24.1487 40.5094C31.0191 38.1719 35.6344 31.7626 35.6344 24.5612C35.6344 17.2415 30.7845 10.701 23.7825 8.4938V7.05823H37.94V43.1131L3.72102 43.1126C1.94476 43.1126 0.5 44.5452 0.5 46.3063C0.500431 48.0675 1.94532 49.5 3.72102 49.5H44.2785C46.0548 49.5 47.5 48.0677 47.5 46.3066ZM14.0929 3.48031H13.9193C13.4306 3.48031 13.0334 3.08638 13.0334 2.60274C13.0334 2.11866 13.4311 1.72474 13.9193 1.72474H23.3398C23.828 1.72474 24.2248 2.1191 24.2248 2.60317C24.2248 3.08723 23.8275 3.48074 23.3398 3.48074H23.1661C22.8253 3.48074 22.5482 3.7546 22.5482 4.09342V5.8336H14.7104V4.09342C14.7104 3.75418 14.4338 3.48031 14.0929 3.48031ZM23.8444 39.3175H13.4146C7.09704 37.1227 2.85993 31.2061 2.85993 24.5615C2.85993 22.5995 3.24732 20.7035 3.93806 18.9419C3.94409 18.9419 3.94927 18.9457 3.9553 18.9457H33.3051C33.3111 18.9457 33.3163 18.9427 33.3223 18.9419C34.013 20.7034 34.4004 22.5995 34.4004 24.5615C34.3996 31.2066 30.1623 37.1234 23.8444 39.3175ZM22.9959 9.53648C27.3623 10.7819 30.8613 13.8351 32.7823 17.7196H4.47718C6.39816 13.8345 9.89717 10.7818 14.2636 9.53648C14.5286 9.46128 14.7108 9.22117 14.7108 8.94773V7.0576H22.5491V8.94773C22.5487 9.22117 22.7309 9.46128 22.9959 9.53648ZM39.1765 3.59942C39.1765 2.56803 40.0229 1.7281 41.0631 1.72679H41.0644C41.5686 1.72679 42.0421 1.92076 42.3994 2.27495C42.7566 2.62829 42.9531 3.09868 42.9531 3.59895V43.1134H39.1767L39.1765 3.59942ZM44.2789 48.2753H3.72143C2.62692 48.2753 1.7358 47.3926 1.7358 46.3065C1.7358 45.2205 2.62649 44.3378 3.72143 44.3378H44.2789C45.3735 44.3378 46.2646 45.2205 46.2646 46.3065C46.2646 47.3926 45.3734 48.2753 44.2789 48.2753Z"/>
<path d="M26 21.5C24.0704 21.5 22.5 23.0699 22.5 25C22.5 26.9301 24.0699 28.5 26 28.5C27.9301 28.5 29.5 26.9301 29.5 25C29.5 23.0699 27.9292 21.5 26 21.5ZM26 27.2502C24.7592 27.2502 23.7499 26.2409 23.7499 25.0001C23.7499 23.7593 24.7592 22.75 26 22.75C27.2408 22.75 28.2501 23.7593 28.2501 25.0001C28.2501 26.2409 27.2399 27.2502 26 27.2502Z"/>
<path d="M10 20.5C8.07036 20.5 6.5 22.2942 6.5 24.5C6.5 26.7058 8.06992 28.5 10 28.5C11.9301 28.5 13.5 26.7058 13.5 24.5C13.5 22.2942 11.9296 20.5 10 20.5ZM10 27.0716C8.75922 27.0716 7.74993 25.9182 7.74993 24.5001C7.74993 23.0821 8.75922 21.9286 10 21.9286C11.2408 21.9286 12.2501 23.0821 12.2501 24.5001C12.2501 25.9182 11.2408 27.0716 10 27.0716Z"/>
<path d="M18.5 29.5C16.8458 29.5 15.5 30.8457 15.5 32.4998C15.5 34.1543 16.8454 35.5 18.5 35.5C20.1546 35.5 21.5 34.1543 21.5 32.4998C21.5 30.8457 20.1542 29.5 18.5 29.5ZM18.5 34.3871C17.4595 34.3871 16.6122 33.5406 16.6122 32.499C16.6122 31.4586 17.4587 30.6114 18.5 30.6114C19.5413 30.6114 20.3878 31.4578 20.3878 32.499C20.3878 33.5406 19.5409 34.3871 18.5 34.3871Z"/>
</mask>
<path d="M47.5 46.3066C47.5 44.5455 46.0551 43.113 44.279 43.113H44.1894L44.1898 3.59964C44.1898 2.77163 43.8649 1.99356 43.2741 1.40872C42.6842 0.824235 41.9004 0.502953 41.0661 0.502953H41.0631C39.342 0.504235 37.942 1.89411 37.942 3.60049V5.83374H23.7845V4.65882C24.7415 4.45587 25.4611 3.61163 25.4611 2.60331C25.4611 1.44337 24.5097 0.5 23.3401 0.5H13.9197C12.7501 0.5 11.7984 1.44337 11.7984 2.60331C11.7984 3.61163 12.518 4.45625 13.475 4.65882V5.83286H11.2998C10.9589 5.83286 10.6818 6.10673 10.6818 6.44555C10.6818 6.78436 10.9585 7.05823 11.2998 7.05823H13.475V8.4938C6.47358 10.7014 1.62303 17.2417 1.62303 24.5612C1.62303 31.763 6.23894 38.172 13.1088 40.5094C13.173 40.5307 13.2411 40.5423 13.3096 40.5423H23.9479C24.016 40.5423 24.0836 40.5307 24.1487 40.5094C31.0191 38.1719 35.6344 31.7626 35.6344 24.5612C35.6344 17.2415 30.7845 10.701 23.7825 8.4938V7.05823H37.94V43.1131L3.72102 43.1126C1.94476 43.1126 0.5 44.5452 0.5 46.3063C0.500431 48.0675 1.94532 49.5 3.72102 49.5H44.2785C46.0548 49.5 47.5 48.0677 47.5 46.3066ZM14.0929 3.48031H13.9193C13.4306 3.48031 13.0334 3.08638 13.0334 2.60274C13.0334 2.11866 13.4311 1.72474 13.9193 1.72474H23.3398C23.828 1.72474 24.2248 2.1191 24.2248 2.60317C24.2248 3.08723 23.8275 3.48074 23.3398 3.48074H23.1661C22.8253 3.48074 22.5482 3.7546 22.5482 4.09342V5.8336H14.7104V4.09342C14.7104 3.75418 14.4338 3.48031 14.0929 3.48031ZM23.8444 39.3175H13.4146C7.09704 37.1227 2.85993 31.2061 2.85993 24.5615C2.85993 22.5995 3.24732 20.7035 3.93806 18.9419C3.94409 18.9419 3.94927 18.9457 3.9553 18.9457H33.3051C33.3111 18.9457 33.3163 18.9427 33.3223 18.9419C34.013 20.7034 34.4004 22.5995 34.4004 24.5615C34.3996 31.2066 30.1623 37.1234 23.8444 39.3175ZM22.9959 9.53648C27.3623 10.7819 30.8613 13.8351 32.7823 17.7196H4.47718C6.39816 13.8345 9.89717 10.7818 14.2636 9.53648C14.5286 9.46128 14.7108 9.22117 14.7108 8.94773V7.0576H22.5491V8.94773C22.5487 9.22117 22.7309 9.46128 22.9959 9.53648ZM39.1765 3.59942C39.1765 2.56803 40.0229 1.7281 41.0631 1.72679H41.0644C41.5686 1.72679 42.0421 1.92076 42.3994 2.27495C42.7566 2.62829 42.9531 3.09868 42.9531 3.59895V43.1134H39.1767L39.1765 3.59942ZM44.2789 48.2753H3.72143C2.62692 48.2753 1.7358 47.3926 1.7358 46.3065C1.7358 45.2205 2.62649 44.3378 3.72143 44.3378H44.2789C45.3735 44.3378 46.2646 45.2205 46.2646 46.3065C46.2646 47.3926 45.3734 48.2753 44.2789 48.2753Z" fill="#113C7B"/>
<path d="M26 21.5C24.0704 21.5 22.5 23.0699 22.5 25C22.5 26.9301 24.0699 28.5 26 28.5C27.9301 28.5 29.5 26.9301 29.5 25C29.5 23.0699 27.9292 21.5 26 21.5ZM26 27.2502C24.7592 27.2502 23.7499 26.2409 23.7499 25.0001C23.7499 23.7593 24.7592 22.75 26 22.75C27.2408 22.75 28.2501 23.7593 28.2501 25.0001C28.2501 26.2409 27.2399 27.2502 26 27.2502Z" fill="#113C7B"/>
<path d="M10 20.5C8.07036 20.5 6.5 22.2942 6.5 24.5C6.5 26.7058 8.06992 28.5 10 28.5C11.9301 28.5 13.5 26.7058 13.5 24.5C13.5 22.2942 11.9296 20.5 10 20.5ZM10 27.0716C8.75922 27.0716 7.74993 25.9182 7.74993 24.5001C7.74993 23.0821 8.75922 21.9286 10 21.9286C11.2408 21.9286 12.2501 23.0821 12.2501 24.5001C12.2501 25.9182 11.2408 27.0716 10 27.0716Z" fill="#113C7B"/>
<path d="M18.5 29.5C16.8458 29.5 15.5 30.8457 15.5 32.4998C15.5 34.1543 16.8454 35.5 18.5 35.5C20.1546 35.5 21.5 34.1543 21.5 32.4998C21.5 30.8457 20.1542 29.5 18.5 29.5ZM18.5 34.3871C17.4595 34.3871 16.6122 33.5406 16.6122 32.499C16.6122 31.4586 17.4587 30.6114 18.5 30.6114C19.5413 30.6114 20.3878 31.4578 20.3878 32.499C20.3878 33.5406 19.5409 34.3871 18.5 34.3871Z" fill="#113C7B"/>
<path d="M47.5 46.3066C47.5 44.5455 46.0551 43.113 44.279 43.113H44.1894L44.1898 3.59964C44.1898 2.77163 43.8649 1.99356 43.2741 1.40872C42.6842 0.824235 41.9004 0.502953 41.0661 0.502953H41.0631C39.342 0.504235 37.942 1.89411 37.942 3.60049V5.83374H23.7845V4.65882C24.7415 4.45587 25.4611 3.61163 25.4611 2.60331C25.4611 1.44337 24.5097 0.5 23.3401 0.5H13.9197C12.7501 0.5 11.7984 1.44337 11.7984 2.60331C11.7984 3.61163 12.518 4.45625 13.475 4.65882V5.83286H11.2998C10.9589 5.83286 10.6818 6.10673 10.6818 6.44555C10.6818 6.78436 10.9585 7.05823 11.2998 7.05823H13.475V8.4938C6.47358 10.7014 1.62303 17.2417 1.62303 24.5612C1.62303 31.763 6.23894 38.172 13.1088 40.5094C13.173 40.5307 13.2411 40.5423 13.3096 40.5423H23.9479C24.016 40.5423 24.0836 40.5307 24.1487 40.5094C31.0191 38.1719 35.6344 31.7626 35.6344 24.5612C35.6344 17.2415 30.7845 10.701 23.7825 8.4938V7.05823H37.94V43.1131L3.72102 43.1126C1.94476 43.1126 0.5 44.5452 0.5 46.3063C0.500431 48.0675 1.94532 49.5 3.72102 49.5H44.2785C46.0548 49.5 47.5 48.0677 47.5 46.3066ZM14.0929 3.48031H13.9193C13.4306 3.48031 13.0334 3.08638 13.0334 2.60274C13.0334 2.11866 13.4311 1.72474 13.9193 1.72474H23.3398C23.828 1.72474 24.2248 2.1191 24.2248 2.60317C24.2248 3.08723 23.8275 3.48074 23.3398 3.48074H23.1661C22.8253 3.48074 22.5482 3.7546 22.5482 4.09342V5.8336H14.7104V4.09342C14.7104 3.75418 14.4338 3.48031 14.0929 3.48031ZM23.8444 39.3175H13.4146C7.09704 37.1227 2.85993 31.2061 2.85993 24.5615C2.85993 22.5995 3.24732 20.7035 3.93806 18.9419C3.94409 18.9419 3.94927 18.9457 3.9553 18.9457H33.3051C33.3111 18.9457 33.3163 18.9427 33.3223 18.9419C34.013 20.7034 34.4004 22.5995 34.4004 24.5615C34.3996 31.2066 30.1623 37.1234 23.8444 39.3175ZM22.9959 9.53648C27.3623 10.7819 30.8613 13.8351 32.7823 17.7196H4.47718C6.39816 13.8345 9.89717 10.7818 14.2636 9.53648C14.5286 9.46128 14.7108 9.22117 14.7108 8.94773V7.0576H22.5491V8.94773C22.5487 9.22117 22.7309 9.46128 22.9959 9.53648ZM39.1765 3.59942C39.1765 2.56803 40.0229 1.7281 41.0631 1.72679H41.0644C41.5686 1.72679 42.0421 1.92076 42.3994 2.27495C42.7566 2.62829 42.9531 3.09868 42.9531 3.59895V43.1134H39.1767L39.1765 3.59942ZM44.2789 48.2753H3.72143C2.62692 48.2753 1.7358 47.3926 1.7358 46.3065C1.7358 45.2205 2.62649 44.3378 3.72143 44.3378H44.2789C45.3735 44.3378 46.2646 45.2205 46.2646 46.3065C46.2646 47.3926 45.3734 48.2753 44.2789 48.2753Z" stroke="#113C7B" stroke-width="0.3" mask="url(#path-1-outside-1_46058_39715)"/>
<path d="M26 21.5C24.0704 21.5 22.5 23.0699 22.5 25C22.5 26.9301 24.0699 28.5 26 28.5C27.9301 28.5 29.5 26.9301 29.5 25C29.5 23.0699 27.9292 21.5 26 21.5ZM26 27.2502C24.7592 27.2502 23.7499 26.2409 23.7499 25.0001C23.7499 23.7593 24.7592 22.75 26 22.75C27.2408 22.75 28.2501 23.7593 28.2501 25.0001C28.2501 26.2409 27.2399 27.2502 26 27.2502Z" stroke="#113C7B" stroke-width="0.3" mask="url(#path-1-outside-1_46058_39715)"/>
<path d="M10 20.5C8.07036 20.5 6.5 22.2942 6.5 24.5C6.5 26.7058 8.06992 28.5 10 28.5C11.9301 28.5 13.5 26.7058 13.5 24.5C13.5 22.2942 11.9296 20.5 10 20.5ZM10 27.0716C8.75922 27.0716 7.74993 25.9182 7.74993 24.5001C7.74993 23.0821 8.75922 21.9286 10 21.9286C11.2408 21.9286 12.2501 23.0821 12.2501 24.5001C12.2501 25.9182 11.2408 27.0716 10 27.0716Z" stroke="#113C7B" stroke-width="0.3" mask="url(#path-1-outside-1_46058_39715)"/>
<path d="M18.5 29.5C16.8458 29.5 15.5 30.8457 15.5 32.4998C15.5 34.1543 16.8454 35.5 18.5 35.5C20.1546 35.5 21.5 34.1543 21.5 32.4998C21.5 30.8457 20.1542 29.5 18.5 29.5ZM18.5 34.3871C17.4595 34.3871 16.6122 33.5406 16.6122 32.499C16.6122 31.4586 17.4587 30.6114 18.5 30.6114C19.5413 30.6114 20.3878 31.4578 20.3878 32.499C20.3878 33.5406 19.5409 34.3871 18.5 34.3871Z" stroke="#113C7B" stroke-width="0.3" mask="url(#path-1-outside-1_46058_39715)"/>
</svg>
