<svg width="53" height="22" viewBox="0 0 53 22" fill="none" xmlns="http://www.w3.org/2000/svg">
<path d="M52.1212 8.92301H50.6006C49.6272 4.12514 45.3519 0.5 40.2382 0.5C36.2985 0.5 32.8623 2.65519 31.0437 5.83698C30.2592 5.16202 28.8877 4.51143 26.5009 4.51143C24.1173 4.51143 22.7465 5.1602 21.9607 5.83454C20.1421 2.65463 16.7059 0.500685 12.7674 0.500685C7.65438 0.500685 3.37845 4.12583 2.40505 8.9237H0.879588C0.394413 8.9237 0 9.31418 0 9.79725C0 10.2803 0.393785 10.6708 0.879588 10.6708H2.21246C2.20878 10.7817 2.1959 10.8889 2.1959 11.001C2.1959 16.7899 6.93788 21.5 12.7674 21.5C18.5963 21.5 23.3389 16.7893 23.3389 11.001C23.3389 9.79421 23.1224 8.63869 22.7427 7.5586C22.9783 7.1663 23.8131 6.25986 26.5003 6.25986C29.2164 6.25986 30.0414 7.18823 30.2622 7.55678C29.8825 8.63805 29.666 9.79306 29.666 11.001C29.666 16.7899 34.408 21.5 40.2375 21.5C46.0664 21.5 50.809 16.7893 50.809 11.001C50.809 10.8889 50.7955 10.7817 50.7925 10.6709H52.1204C52.6056 10.6709 53 10.2804 53 9.7973C52.9994 9.31361 52.6074 8.92313 52.121 8.92313L52.1212 8.92301ZM12.7677 19.7521C7.90854 19.7521 3.95466 15.826 3.95466 10.9996C3.95466 6.17382 7.90791 2.24708 12.7677 2.24708C17.6268 2.24708 21.5807 6.17382 21.5807 10.9996C21.5807 15.8254 17.6268 19.7521 12.7677 19.7521ZM40.2391 19.7521C35.38 19.7521 31.4261 15.826 31.4261 10.9996C31.4261 6.17382 35.3794 2.24708 40.2391 2.24708C45.0983 2.24708 49.0515 6.17382 49.0515 10.9996C49.0515 15.8254 45.0983 19.7521 40.2391 19.7521Z" fill="#113C7B"/>
</svg>
