<svg width="56" height="46" viewBox="0 0 56 46" fill="none" xmlns="http://www.w3.org/2000/svg">
<path d="M20.8697 36.8165H19.6579L8.9228 22.0518C9.24607 21.4069 9.43151 20.6803 9.43151 19.9099C9.43151 19.836 9.42428 19.7637 9.42003 19.6906L22.6944 10.9945C21.8433 12.9842 21.7888 15.3032 22.7046 17.4266L23.0691 18.2727L37 10.1433L36.4581 9.40077C34.9605 7.35089 32.5527 6.12734 30.0173 6.12734H29.9943C29.956 6.03491 29.9126 5.9429 29.8612 5.85348L27.2526 1.28639C26.7987 0.492753 25.9515 0 25.0404 0C24.5951 0 24.1562 0.118228 23.7704 0.343511L21.1205 1.88998C19.9036 2.60064 19.4851 4.18023 20.1882 5.40972L20.6926 6.2915L6.58425 15.5348C6.01047 15.2833 5.37931 15.1428 4.71576 15.1428C2.11566 15.1428 0 17.2817 0 19.9094C0 22.5082 2.06971 24.6244 4.62941 24.6725L13.4581 36.8155H13.396C10.5458 36.8155 8.22774 39.159 8.22774 42.0395V43H26.0383V42.04C26.0383 39.159 23.7198 36.8159 20.8696 36.8159L20.8697 36.8165ZM23.893 15.8873C23.1423 13.1112 24.3167 10.1147 26.8546 8.63407C27.8155 8.07301 28.9103 7.77593 30.0175 7.77593C31.726 7.77593 33.359 8.47198 34.5439 9.67195L23.893 15.8873ZM21.9365 3.31725L24.5859 1.77078C24.7241 1.69081 24.8811 1.64825 25.0406 1.64825C25.3711 1.64825 25.6773 1.82581 25.8406 2.11042L28.2515 6.3318C27.4778 6.51065 26.7288 6.80256 26.0351 7.20756C25.2661 7.65639 24.6038 8.22089 24.0441 8.861L21.6009 4.58492C21.3479 4.14167 21.4984 3.57373 21.9365 3.31701L21.9365 3.31725ZM21.509 7.72188L22.3754 9.23863L9.02594 17.9837C8.7886 17.4433 8.45684 16.9536 8.04851 16.5409L21.509 7.72188ZM1.63071 19.91C1.63071 18.1903 3.01433 16.7918 4.71568 16.7918C6.41703 16.7918 7.80064 18.1903 7.80064 19.91C7.80064 21.6297 6.41703 23.0283 4.71568 23.0283C3.01389 23.0283 1.63071 21.6297 1.63071 19.91ZM6.41833 24.3503C6.96787 24.1345 7.46594 23.8176 7.89342 23.4217L17.6332 36.8161H15.4818L6.41833 24.3503ZM9.92393 41.3514C10.2429 39.7082 11.6775 38.4649 13.3947 38.4649H20.8692C22.5863 38.4649 24.0209 39.7082 24.3399 41.3514H9.92393Z" fill="#113C7B"/>
<path d="M34.7976 35H45.2024C45.6428 35 46 34.5522 46 34.0003C46 33.4488 45.6428 33.0005 45.2024 33.0005L34.7976 33C34.3576 33 34 33.4483 34 33.9997C33.9996 34.5522 34.3568 35 34.7976 35Z" fill="#113C7B"/>
<path d="M29.9205 33H28.0795C27.4835 33 27 33.4484 27 34C27 34.5521 27.4835 35 28.0795 35H29.9205C30.516 35 31 34.5521 31 34C31.0006 33.4484 30.516 33 29.9205 33Z" fill="#113C7B"/>
<path d="M50.2099 38H45.7901C45.3543 38 45 38.4484 45 39C45 39.5516 45.3543 40 45.7901 40H50.2099C50.6462 40 51 39.5516 51 39C51.0004 38.4484 50.6466 38 50.2099 38Z" fill="#113C7B"/>
<path d="M55.1805 41.8125H54.1289C53.5051 40.2346 53.5277 38.8677 54.1887 37.5717H55.1335C55.5852 37.5717 55.9524 37.1987 55.9524 36.7388C55.9524 36.2795 55.5852 35.906 55.1335 35.906H49.1651C48.5413 34.3286 48.564 32.9613 49.2249 31.6656H50.1698C50.6215 31.6656 50.9887 31.2922 50.9887 30.8328C50.9887 30.373 50.6215 30 50.1698 30H28.045C26.3654 30 25 31.3886 25 33.0967V34.4748C25 36.1821 26.3654 37.5716 28.045 37.5716H30.3105C30.0902 37.9997 29.963 38.4864 29.963 39.0032V40.3809C29.963 42.0891 31.3283 43.4786 33.0089 43.4786H34.0716V45.1671C34.0716 45.4685 34.2321 45.7472 34.4908 45.8936C34.7491 46.0412 35.0655 46.0347 35.3191 45.8775L37.2063 44.7004L39.0926 45.8775C39.2237 45.9591 39.3719 46 39.5213 46C39.6592 46 39.7963 45.9644 39.9209 45.8936C40.1788 45.7473 40.3402 45.4685 40.3402 45.1671V43.4786H55.1811C55.6328 43.4786 56 43.1051 56 42.6458C55.9996 42.1859 55.632 41.8125 55.1802 41.8125L55.1805 41.8125ZM26.6376 34.4753V33.0971C26.6376 32.3078 27.2686 31.666 28.0448 31.666H47.4381C46.9565 32.9969 46.9535 34.4007 47.4296 35.9064H28.045C27.2688 35.9064 26.6378 35.2642 26.6378 34.4753H26.6376ZM38.7011 43.6792L37.6325 43.0135C37.5014 42.9315 37.3532 42.8902 37.2051 42.8902C37.0569 42.8902 36.9075 42.9315 36.7764 43.0135L35.709 43.6792V40.5321H38.7016V43.6792H38.7011ZM40.3389 40.5321H40.6139C41.0656 40.5321 41.4328 40.1587 41.4328 39.6993C41.4328 39.2399 41.0656 38.8665 40.6139 38.8665H33.3924C32.9406 38.8665 32.5734 39.2399 32.5734 39.6993C32.5734 40.1587 32.9406 40.5321 33.3924 40.5321H34.0712V41.8126H33.0085C32.2319 41.8126 31.6008 41.1709 31.6008 40.381V39.0032C31.6008 38.2134 32.2319 37.5717 33.0085 37.5717H52.4018C51.9202 38.9038 51.9164 40.3067 52.3933 41.8125H40.3384L40.3389 40.5321Z" fill="#113C7B"/>
</svg>
