<svg width="48" height="49" viewBox="0 0 48 49" fill="none" xmlns="http://www.w3.org/2000/svg">
<path d="M9.50108 19.1957C15.0831 19.6767 20.1769 14.5928 19.6956 9.00135C19.2656 0.841419 9.02862 -3.03912 3.30351 2.80283C-2.5388 8.52944 1.3399 18.7641 9.50108 19.1957ZM12.728 2.14085C14.1611 2.66183 15.4644 3.57822 16.3788 4.80584C17.1136 5.7599 17.6247 6.88368 17.8518 8.06649C16.3259 7.76357 14.915 7.01461 13.7999 5.89961C12.6857 4.78499 11.9365 3.37383 11.6332 1.84741C12.0046 1.92085 12.3722 2.01565 12.728 2.14085ZM4.50932 4.00745C5.94503 2.57164 7.8721 1.75651 9.88091 1.7001C10.1792 3.73877 11.1241 5.63471 12.5944 7.10482C14.0648 8.57571 15.9617 9.521 18.0002 9.81892C17.9435 11.8287 17.1265 13.755 15.6908 15.1909C14.2551 16.6263 12.3277 17.4438 10.3192 17.5001C10.0212 15.4607 9.07635 13.5644 7.60528 12.0935C6.1345 10.6227 4.23802 9.67776 2.1995 9.37985C2.2562 7.37011 3.07359 5.44366 4.50932 4.00745ZM8.55927 17.3495C5.49224 16.7863 2.91297 14.208 2.3502 11.1404C5.41801 11.7032 7.99611 14.2815 8.55927 17.3495Z" fill="#113C7B"/>
<path d="M38.9414 3.92884L4.93771 40.3483C4.85312 40.4387 4.78039 40.5356 4.71647 40.6356C4.13465 40.4667 3.48198 40.603 3.02456 41.0607L2.06993 42.0159C1.40084 42.6851 1.40084 43.7736 2.06993 44.4427L5.19141 47.5662C5.85973 48.2357 6.94916 48.2353 7.61706 47.5662L8.57094 46.6109C8.89515 46.2865 9.07352 45.856 9.07352 45.3979C9.0517 45.0191 8.91658 44.9245 9.28711 44.7008C9.31008 44.679 11.5218 42.6122 11.5409 42.5939L45.6847 10.675C46.8135 9.62059 47.4742 8.17667 47.499 6.71314C47.5813 2.05028 41.8156 0.643922 38.9417 3.92788L38.9414 3.92884ZM6.40463 46.354L3.28236 43.2294L4.237 42.2741L7.35849 45.398L6.40463 46.354ZM8.11603 43.4465C8.03603 43.5208 7.92081 43.5331 7.86225 43.4749L6.16163 41.7732C6.10383 41.7138 6.11684 41.5982 6.19034 41.5193L7.66137 39.9436L9.69085 41.9743L8.11603 43.4465ZM10.9443 40.8026L8.83253 38.6895L10.5416 36.859L12.7735 39.0928L10.9443 40.8026ZM14.0272 37.9207L11.713 35.6043L13.2188 33.9914L15.6394 36.4136L14.0272 37.9207ZM16.893 35.242L14.3901 32.7374L15.9977 31.0154L18.6135 33.6333L16.893 35.242ZM44.5136 9.42191L32.1903 20.942L19.867 32.4622L17.1685 29.7615L40.1933 5.10047C40.9317 4.30955 41.9292 3.84609 42.929 3.82961C46.0134 3.75722 46.6301 7.63257 44.5129 9.4228L44.5136 9.42191Z" fill="#113C7B"/>
</svg>
