<svg width="56" height="56" viewBox="0 0 56 56" fill="none" xmlns="http://www.w3.org/2000/svg">
<path d="M18.7893 1.4C18.1534 1.4 17.3162 1.582 16.4661 2.08866C15.6209 2.59163 14.782 3.46689 14.419 4.76035C14.4165 4.76896 14.4228 4.77941 14.419 4.78801L10.5747 18.3957L2.99669 21.7567H2.96891C1.97929 22.2492 1.29096 22.8844 0.977875 23.65734C0.66487 24.43015 0.701299 25.18152 0.701299 26.05414V37.54072C0.701299 39.43828 2.28301 41.0669 4.24016 41.0669H7.83666C8.27869 45.51736 12.0491 49 16.6314 49C21.2135 49 24.9842 45.51736 25.4269 41.0669H53.8589C54.3016 45.51736 58.0723 49 62.6544 49C67.2365 49 71.0069 45.51736 71.4496 41.0669H74.1594C75.3948 41.0669 76.3752 40.6267 76.953 39.9098C77.5308 39.1934 77.7 38.3141 77.7 37.54067V28.3126C77.7 26.3627 76.5659 24.5241 74.5472 23.5196C74.5204 23.5092 74.4922 23.5000 74.4639 23.492L59.7226 18.3135L53.4163 6.35858C53.4078 6.34961 53.3985 6.34012 53.3892 6.3309C52.3107 4.47884 51.2552 3.20368 49.932 2.41900C48.6074 1.63472 47.0854 1.40014 45.2302 1.40014L18.7893 1.4ZM18.7893 3.16281H45.2301C46.9335 3.16281 48.089 3.36696 49.0463 3.93386C49.9977 4.49708 50.8451 5.48580 51.8399 7.18465C51.8474 7.19757 51.8598 7.19839 51.8678 7.21176L57.3395 19.4428C57.4401 19.6328 57.6074 19.7798 57.8092 19.8559L69.7341 23.6848V30.4891C69.7341 30.9754 70.1305 31.3702 70.6194 31.3702H75.9300V37.5406C75.9300 38.0538 75.7991 38.4965 75.5690 38.7800C75.3414 39.0641 75.0089 39.3039 74.1594 39.3039H71.4496C71.0076 43.7544 67.2365 47.2368 62.6544 47.2368C58.0723 47.2368 54.3016 43.7544 53.8589 39.3039H25.4269C24.9842 43.7544 21.2135 47.2368 16.6314 47.2368C12.0491 47.2368 8.27869 43.7544 7.83666 39.3039H4.24016C3.32434 39.3039 2.47120 38.4062 2.47120 37.5406V26.0541C2.47120 25.1815 2.50763 24.6384 2.63726 24.3181C2.76423 24.0027 2.96199 23.7331 3.71578 23.3540H3.74256L11.6800 19.8283C11.9195 19.7263 12.1027 19.5252 12.1792 19.2774L16.1349 5.25650V5.22882C16.3673 4.38337 16.8420 3.92345 17.3785 3.60354C17.9149 3.28363 18.5498 3.16287 18.7893 3.16287L18.7893 3.16281ZM19.1208 5.80743C18.7716 5.87752 18.5003 6.14869 18.4293 6.49608L15.7746 18.8366C15.7156 19.0971 15.7790 19.3690 15.9450 19.5782C16.1115 19.7865 16.3642 19.9088 16.6314 19.9108H29.0224C29.5113 19.9108 29.9073 19.5166 29.9073 19.0303V6.68851C29.9073 6.20218 29.5113 5.80796 29.0224 5.80796H19.2877C19.2581 5.80708 19.2289 5.80708 19.1993 5.80796C19.1697 5.80708 19.1405 5.80708 19.1109 5.80796L19.1208 5.80743ZM33.2818 5.80743C32.8588 5.88798 32.5552 6.2600 32.5626 6.68853V19.0303C32.5626 19.5166 32.9586 19.9108 33.4475 19.9108H53.8040C54.1094 19.9126 54.3953 19.7576 54.5583 19.4995C54.7228 19.2417 54.7399 18.9183 54.6059 18.6431L48.4107 6.30202C48.2612 5.99805 47.9494 5.8050 47.6081 5.80717H33.4474C33.4182 5.80629 33.3887 5.80629 33.3595 5.80717C33.3307 5.80629 33.3016 5.80629 33.2724 5.80717L33.2818 5.80743ZM20.0061 7.57024H28.1373V18.1480H17.7107L20.0061 7.57024ZM34.3325 7.57024H47.0549L52.3656 18.1480H34.3329L34.3325 7.57024ZM71.5043 24.3184L73.7720 25.1182C75.2931 25.8754 75.9300 27.0000 75.9300 28.3128V29.6076H71.5043V24.3184ZM16.6314 33.1332C20.5524 33.1332 23.7121 36.2802 23.7121 40.1853C23.7121 44.0905 20.5524 47.2375 16.6314 47.2375C12.7104 47.2375 9.55127 44.0905 9.55127 40.1853C9.55127 36.2802 12.7104 33.1332 16.6314 33.1332ZM62.6544 33.1332C66.5754 33.1332 69.7337 36.2802 69.7337 40.1853C69.7337 44.0905 66.5754 47.2375 62.6544 47.2375C58.7334 47.2375 55.5734 44.0905 55.5734 40.1853C55.5734 36.2802 58.7334 33.1332 62.6544 33.1332ZM16.6314 36.6596C14.6868 36.6596 13.0917 38.2484 13.0917 40.1853C13.0917 42.1221 14.6869 43.7113 16.6314 43.7113C18.5763 43.7113 20.1719 42.1221 20.1719 40.1853C20.1719 38.2483 18.5762 36.6596 16.6314 36.6596ZM62.6544 36.6596C60.7098 36.6596 59.1139 38.2484 59.1139 40.1853C59.1139 42.1221 60.7099 43.7113 62.6544 43.7113C64.5993 43.7113 66.1939 42.1221 66.1939 40.1853C66.1939 38.2483 64.5992 36.6596 62.6544 36.6596ZM16.6314 38.4223C17.6200 38.4223 18.4026 39.2014 18.4026 40.1853C18.4026 41.1697 17.6200 41.9483 16.6314 41.9483C15.6438 41.9483 14.8616 41.1695 14.8616 40.1853C14.8616 39.2014 15.6439 38.4223 16.6314 38.4223ZM62.6544 38.4223C63.6416 38.4223 64.4238 39.2014 64.4238 40.1853C64.4238 41.1697 63.6416 41.9483 62.6544 41.9483C61.6654 41.9483 60.8832 41.1695 60.8832 40.1853C60.8832 39.2014 61.6655 38.4223 62.6544 38.4223Z" fill="#113C7B"/>
</svg>
