<svg width="56" height="36" viewBox="0 0 56 36" fill="none" xmlns="http://www.w3.org/2000/svg">
<mask id="path-1-outside-1_46058_39740" maskUnits="userSpaceOnUse" x="-0.5" y="0" width="57" height="36" fill="black">
<rect fill="white" x="-0.5" width="57" height="36"/>
<path d="M13.4209 1C12.9667 1 12.3687 1.13 11.7615 1.4919C11.1578 1.85116 10.5586 2.47921 10.2993 3.40025C10.2975 3.4064 10.301 3.41386 10.2993 3.42001L7.55338 13.1398L2.14049 15.5405H2.12065C1.41378 15.8923 0.922114 16.346 0.698482 16.8981C0.474907 17.4501 0.500928 17.9868 0.500928 18.6101V26.8148C0.500928 28.1702 1.63072 29.3335 3.0294 29.3335H5.59761C5.91335 32.5124 8.60722 35 11.8796 35C15.1525 35 17.8463 32.5124 18.1621 29.3335H38.4707C38.7865 32.5124 41.4803 35 44.7532 35C48.0256 35 50.7196 32.5124 51.0352 29.3335H52.971C53.8534 29.3335 54.5537 29.0191 54.9664 28.507C55.3792 27.9953 55.5 27.3672 55.5 26.8147V20.2233C55.5 18.8305 54.6899 17.5179 53.248 16.7997C53.2286 16.7923 53.2087 16.7857 53.1885 16.78L42.659 13.0811L38.1545 4.54184C38.1484 4.53525 38.1418 4.52866 38.1351 4.52207C37.3648 3.19917 36.6116 2.28834 35.6657 1.72786C34.7194 1.16788 33.6324 1.0001 32.3073 1.0001L13.4209 1ZM13.4209 2.25915H32.3071C33.5232 2.25915 34.3493 2.40497 35.0331 2.8099C35.7122 3.2122 36.3186 3.91843 37.0285 5.13189C37.0338 5.14112 37.0427 5.14199 37.0484 5.15166L41.6711 13.8877C41.7429 14.0234 41.8624 14.1284 42.0066 14.1828L49.8101 16.9177V21.7779C49.8101 22.1253 50.0932 22.4073 50.4424 22.4073H54.2357V26.8146C54.2357 27.1813 54.1422 27.4975 53.9786 27.7C53.8154 27.9029 53.5778 28.0742 52.971 28.0742H51.0352C50.7194 24.8953 48.0256 22.4073 44.7532 22.4073C41.4803 22.4073 38.7864 24.8953 38.4707 28.0742H18.1621C17.8463 24.8953 15.1525 22.4073 11.8796 22.4073C8.60719 22.4073 5.91322 24.8953 5.59759 28.0742H3.02938C2.37453 28.0742 1.76514 27.433 1.76514 26.8146V18.6099C1.76514 17.9867 1.79115 17.5989 1.88376 17.3701C1.9746 17.1448 2.11571 16.9529 2.65413 16.6814H2.67398L8.34357 14.1631C8.51467 14.0902 8.64476 13.9466 8.69943 13.7696L11.5242 3.75464V3.73487C11.6905 3.13098 12.03 2.80246 12.4132 2.5741C12.7964 2.34575 13.2427 2.2592 13.4209 2.2592L13.4209 2.25915ZM13.6577 4.14816C13.409 4.19823 13.2145 4.39192 13.1638 4.64006L11.2676 13.4547C11.2257 13.6405 11.2707 13.835 11.3893 13.9844C11.5084 14.1332 11.6887 14.2206 11.8797 14.222H20.7303C21.0796 14.222 21.3623 13.9404 21.3623 13.5926V4.77751C21.3623 4.43011 21.0796 4.14814 20.7303 4.14814H13.7762C13.7564 4.14726 13.7369 4.14726 13.7171 4.14814C13.6973 4.14726 13.6774 4.14726 13.6576 4.14814L13.6577 4.14816ZM23.7727 4.14816C23.4706 4.2057 23.2537 4.47141 23.259 4.77753V13.5926C23.259 13.9405 23.5421 14.222 23.8913 14.222H38.4314C38.6496 14.2237 38.8538 14.1126 38.9702 13.9282C39.0871 13.7441 39.0999 13.5131 39.0042 13.3172L34.5791 4.50216C34.4723 4.28432 34.2496 4.14641 34.0058 4.14817H23.8912C23.8714 4.14729 23.8515 4.14729 23.8317 4.14817C23.8123 4.14729 23.7924 4.14729 23.7726 4.14817L23.7727 4.14816ZM14.2901 5.40731H20.0981V12.9628H12.6505L14.2901 5.40731ZM24.5232 5.40731H33.6107L37.404 12.9628H24.5234L24.5232 5.40731ZM51.0745 17.3703L52.6943 17.9413C53.7808 18.4824 54.2354 19.2843 54.2354 20.2234V21.1483H51.0745V17.3703ZM11.8797 23.6666C14.6803 23.6666 16.9372 25.9144 16.9372 28.7038C16.9372 31.4932 14.6803 33.741 11.8797 33.741C9.07903 33.741 6.82262 31.4932 6.82262 28.7038C6.82262 25.9144 9.07903 23.6666 11.8797 23.6666ZM44.7528 23.6666C47.5534 23.6666 49.8098 25.9144 49.8098 28.7038C49.8098 31.4932 47.5534 33.741 44.7528 33.741C41.9521 33.741 39.6953 31.4932 39.6953 28.7038C39.6953 25.9144 41.9521 23.6666 44.7528 23.6666ZM11.8797 26.1854C10.4906 26.1854 9.35121 27.3203 9.35121 28.7037C9.35121 30.0872 10.4907 31.2225 11.8797 31.2225C13.2688 31.2225 14.4086 30.0871 14.4086 28.7037C14.4086 27.3202 13.2687 26.1854 11.8797 26.1854ZM44.7528 26.1854C43.3637 26.1854 42.2239 27.3203 42.2239 28.7037C42.2239 30.0872 43.3638 31.2225 44.7528 31.2225C46.1419 31.2225 47.2813 30.0871 47.2813 28.7037C47.2813 27.3202 46.1418 26.1854 44.7528 26.1854ZM11.8797 27.4445C12.5857 27.4445 13.1444 28.001 13.1444 28.7037C13.1444 29.4069 12.5857 29.9629 11.8797 29.9629C11.1741 29.9629 10.6154 29.4068 10.6154 28.7037C10.6154 28.001 11.1742 27.4445 11.8797 27.4445ZM44.7528 27.4445C45.4583 27.4445 46.017 28.001 46.017 28.7037C46.017 29.4069 45.4583 29.9629 44.7528 29.9629C44.0468 29.9629 43.4881 29.4068 43.4881 28.7037C43.4881 28.001 44.0468 27.4445 44.7528 27.4445Z"/>
</mask>
<path d="M13.4209 1C12.9667 1 12.3687 1.13 11.7615 1.4919C11.1578 1.85116 10.5586 2.47921 10.2993 3.40025C10.2975 3.4064 10.301 3.41386 10.2993 3.42001L7.55338 13.1398L2.14049 15.5405H2.12065C1.41378 15.8923 0.922114 16.346 0.698482 16.8981C0.474907 17.4501 0.500928 17.9868 0.500928 18.6101V26.8148C0.500928 28.1702 1.63072 29.3335 3.0294 29.3335H5.59761C5.91335 32.5124 8.60722 35 11.8796 35C15.1525 35 17.8463 32.5124 18.1621 29.3335H38.4707C38.7865 32.5124 41.4803 35 44.7532 35C48.0256 35 50.7196 32.5124 51.0352 29.3335H52.971C53.8534 29.3335 54.5537 29.0191 54.9664 28.507C55.3792 27.9953 55.5 27.3672 55.5 26.8147V20.2233C55.5 18.8305 54.6899 17.5179 53.248 16.7997C53.2286 16.7923 53.2087 16.7857 53.1885 16.78L42.659 13.0811L38.1545 4.54184C38.1484 4.53525 38.1418 4.52866 38.1351 4.52207C37.3648 3.19917 36.6116 2.28834 35.6657 1.72786C34.7194 1.16788 33.6324 1.0001 32.3073 1.0001L13.4209 1ZM13.4209 2.25915H32.3071C33.5232 2.25915 34.3493 2.40497 35.0331 2.8099C35.7122 3.2122 36.3186 3.91843 37.0285 5.13189C37.0338 5.14112 37.0427 5.14199 37.0484 5.15166L41.6711 13.8877C41.7429 14.0234 41.8624 14.1284 42.0066 14.1828L49.8101 16.9177V21.7779C49.8101 22.1253 50.0932 22.4073 50.4424 22.4073H54.2357V26.8146C54.2357 27.1813 54.1422 27.4975 53.9786 27.7C53.8154 27.9029 53.5778 28.0742 52.971 28.0742H51.0352C50.7194 24.8953 48.0256 22.4073 44.7532 22.4073C41.4803 22.4073 38.7864 24.8953 38.4707 28.0742H18.1621C17.8463 24.8953 15.1525 22.4073 11.8796 22.4073C8.60719 22.4073 5.91322 24.8953 5.59759 28.0742H3.02938C2.37453 28.0742 1.76514 27.433 1.76514 26.8146V18.6099C1.76514 17.9867 1.79115 17.5989 1.88376 17.3701C1.9746 17.1448 2.11571 16.9529 2.65413 16.6814H2.67398L8.34357 14.1631C8.51467 14.0902 8.64476 13.9466 8.69943 13.7696L11.5242 3.75464V3.73487C11.6905 3.13098 12.03 2.80246 12.4132 2.5741C12.7964 2.34575 13.2427 2.2592 13.4209 2.2592L13.4209 2.25915ZM13.6577 4.14816C13.409 4.19823 13.2145 4.39192 13.1638 4.64006L11.2676 13.4547C11.2257 13.6405 11.2707 13.835 11.3893 13.9844C11.5084 14.1332 11.6887 14.2206 11.8797 14.222H20.7303C21.0796 14.222 21.3623 13.9404 21.3623 13.5926V4.77751C21.3623 4.43011 21.0796 4.14814 20.7303 4.14814H13.7762C13.7564 4.14726 13.7369 4.14726 13.7171 4.14814C13.6973 4.14726 13.6774 4.14726 13.6576 4.14814L13.6577 4.14816ZM23.7727 4.14816C23.4706 4.2057 23.2537 4.47141 23.259 4.77753V13.5926C23.259 13.9405 23.5421 14.222 23.8913 14.222H38.4314C38.6496 14.2237 38.8538 14.1126 38.9702 13.9282C39.0871 13.7441 39.0999 13.5131 39.0042 13.3172L34.5791 4.50216C34.4723 4.28432 34.2496 4.14641 34.0058 4.14817H23.8912C23.8714 4.14729 23.8515 4.14729 23.8317 4.14817C23.8123 4.14729 23.7924 4.14729 23.7726 4.14817L23.7727 4.14816ZM14.2901 5.40731H20.0981V12.9628H12.6505L14.2901 5.40731ZM24.5232 5.40731H33.6107L37.404 12.9628H24.5234L24.5232 5.40731ZM51.0745 17.3703L52.6943 17.9413C53.7808 18.4824 54.2354 19.2843 54.2354 20.2234V21.1483H51.0745V17.3703ZM11.8797 23.6666C14.6803 23.6666 16.9372 25.9144 16.9372 28.7038C16.9372 31.4932 14.6803 33.741 11.8797 33.741C9.07903 33.741 6.82262 31.4932 6.82262 28.7038C6.82262 25.9144 9.07903 23.6666 11.8797 23.6666ZM44.7528 23.6666C47.5534 23.6666 49.8098 25.9144 49.8098 28.7038C49.8098 31.4932 47.5534 33.741 44.7528 33.741C41.9521 33.741 39.6953 31.4932 39.6953 28.7038C39.6953 25.9144 41.9521 23.6666 44.7528 23.6666ZM11.8797 26.1854C10.4906 26.1854 9.35121 27.3203 9.35121 28.7037C9.35121 30.0872 10.4907 31.2225 11.8797 31.2225C13.2688 31.2225 14.4086 30.0871 14.4086 28.7037C14.4086 27.3202 13.2687 26.1854 11.8797 26.1854ZM44.7528 26.1854C43.3637 26.1854 42.2239 27.3203 42.2239 28.7037C42.2239 30.0872 43.3638 31.2225 44.7528 31.2225C46.1419 31.2225 47.2813 30.0871 47.2813 28.7037C47.2813 27.3202 46.1418 26.1854 44.7528 26.1854ZM11.8797 27.4445C12.5857 27.4445 13.1444 28.001 13.1444 28.7037C13.1444 29.4069 12.5857 29.9629 11.8797 29.9629C11.1741 29.9629 10.6154 29.4068 10.6154 28.7037C10.6154 28.001 11.1742 27.4445 11.8797 27.4445ZM44.7528 27.4445C45.4583 27.4445 46.017 28.001 46.017 28.7037C46.017 29.4069 45.4583 29.9629 44.7528 29.9629C44.0468 29.9629 43.4881 29.4068 43.4881 28.7037C43.4881 28.001 44.0468 27.4445 44.7528 27.4445Z" fill="#113C7B"/>
<path d="M13.4209 1C12.9667 1 12.3687 1.13 11.7615 1.4919C11.1578 1.85116 10.5586 2.47921 10.2993 3.40025C10.2975 3.4064 10.301 3.41386 10.2993 3.42001L7.55338 13.1398L2.14049 15.5405H2.12065C1.41378 15.8923 0.922114 16.346 0.698482 16.8981C0.474907 17.4501 0.500928 17.9868 0.500928 18.6101V26.8148C0.500928 28.1702 1.63072 29.3335 3.0294 29.3335H5.59761C5.91335 32.5124 8.60722 35 11.8796 35C15.1525 35 17.8463 32.5124 18.1621 29.3335H38.4707C38.7865 32.5124 41.4803 35 44.7532 35C48.0256 35 50.7196 32.5124 51.0352 29.3335H52.971C53.8534 29.3335 54.5537 29.0191 54.9664 28.507C55.3792 27.9953 55.5 27.3672 55.5 26.8147V20.2233C55.5 18.8305 54.6899 17.5179 53.248 16.7997C53.2286 16.7923 53.2087 16.7857 53.1885 16.78L42.659 13.0811L38.1545 4.54184C38.1484 4.53525 38.1418 4.52866 38.1351 4.52207C37.3648 3.19917 36.6116 2.28834 35.6657 1.72786C34.7194 1.16788 33.6324 1.0001 32.3073 1.0001L13.4209 1ZM13.4209 2.25915H32.3071C33.5232 2.25915 34.3493 2.40497 35.0331 2.8099C35.7122 3.2122 36.3186 3.91843 37.0285 5.13189C37.0338 5.14112 37.0427 5.14199 37.0484 5.15166L41.6711 13.8877C41.7429 14.0234 41.8624 14.1284 42.0066 14.1828L49.8101 16.9177V21.7779C49.8101 22.1253 50.0932 22.4073 50.4424 22.4073H54.2357V26.8146C54.2357 27.1813 54.1422 27.4975 53.9786 27.7C53.8154 27.9029 53.5778 28.0742 52.971 28.0742H51.0352C50.7194 24.8953 48.0256 22.4073 44.7532 22.4073C41.4803 22.4073 38.7864 24.8953 38.4707 28.0742H18.1621C17.8463 24.8953 15.1525 22.4073 11.8796 22.4073C8.60719 22.4073 5.91322 24.8953 5.59759 28.0742H3.02938C2.37453 28.0742 1.76514 27.433 1.76514 26.8146V18.6099C1.76514 17.9867 1.79115 17.5989 1.88376 17.3701C1.9746 17.1448 2.11571 16.9529 2.65413 16.6814H2.67398L8.34357 14.1631C8.51467 14.0902 8.64476 13.9466 8.69943 13.7696L11.5242 3.75464V3.73487C11.6905 3.13098 12.03 2.80246 12.4132 2.5741C12.7964 2.34575 13.2427 2.2592 13.4209 2.2592L13.4209 2.25915ZM13.6577 4.14816C13.409 4.19823 13.2145 4.39192 13.1638 4.64006L11.2676 13.4547C11.2257 13.6405 11.2707 13.835 11.3893 13.9844C11.5084 14.1332 11.6887 14.2206 11.8797 14.222H20.7303C21.0796 14.222 21.3623 13.9404 21.3623 13.5926V4.77751C21.3623 4.43011 21.0796 4.14814 20.7303 4.14814H13.7762C13.7564 4.14726 13.7369 4.14726 13.7171 4.14814C13.6973 4.14726 13.6774 4.14726 13.6576 4.14814L13.6577 4.14816ZM23.7727 4.14816C23.4706 4.2057 23.2537 4.47141 23.259 4.77753V13.5926C23.259 13.9405 23.5421 14.222 23.8913 14.222H38.4314C38.6496 14.2237 38.8538 14.1126 38.9702 13.9282C39.0871 13.7441 39.0999 13.5131 39.0042 13.3172L34.5791 4.50216C34.4723 4.28432 34.2496 4.14641 34.0058 4.14817H23.8912C23.8714 4.14729 23.8515 4.14729 23.8317 4.14817C23.8123 4.14729 23.7924 4.14729 23.7726 4.14817L23.7727 4.14816ZM14.2901 5.40731H20.0981V12.9628H12.6505L14.2901 5.40731ZM24.5232 5.40731H33.6107L37.404 12.9628H24.5234L24.5232 5.40731ZM51.0745 17.3703L52.6943 17.9413C53.7808 18.4824 54.2354 19.2843 54.2354 20.2234V21.1483H51.0745V17.3703ZM11.8797 23.6666C14.6803 23.6666 16.9372 25.9144 16.9372 28.7038C16.9372 31.4932 14.6803 33.741 11.8797 33.741C9.07903 33.741 6.82262 31.4932 6.82262 28.7038C6.82262 25.9144 9.07903 23.6666 11.8797 23.6666ZM44.7528 23.6666C47.5534 23.6666 49.8098 25.9144 49.8098 28.7038C49.8098 31.4932 47.5534 33.741 44.7528 33.741C41.9521 33.741 39.6953 31.4932 39.6953 28.7038C39.6953 25.9144 41.9521 23.6666 44.7528 23.6666ZM11.8797 26.1854C10.4906 26.1854 9.35121 27.3203 9.35121 28.7037C9.35121 30.0872 10.4907 31.2225 11.8797 31.2225C13.2688 31.2225 14.4086 30.0871 14.4086 28.7037C14.4086 27.3202 13.2687 26.1854 11.8797 26.1854ZM44.7528 26.1854C43.3637 26.1854 42.2239 27.3203 42.2239 28.7037C42.2239 30.0872 43.3638 31.2225 44.7528 31.2225C46.1419 31.2225 47.2813 30.0871 47.2813 28.7037C47.2813 27.3202 46.1418 26.1854 44.7528 26.1854ZM11.8797 27.4445C12.5857 27.4445 13.1444 28.001 13.1444 28.7037C13.1444 29.4069 12.5857 29.9629 11.8797 29.9629C11.1741 29.9629 10.6154 29.4068 10.6154 28.7037C10.6154 28.001 11.1742 27.4445 11.8797 27.4445ZM44.7528 27.4445C45.4583 27.4445 46.017 28.001 46.017 28.7037C46.017 29.4069 45.4583 29.9629 44.7528 29.9629C44.0468 29.9629 43.4881 29.4068 43.4881 28.7037C43.4881 28.001 44.0468 27.4445 44.7528 27.4445Z" stroke="#113C7B" stroke-width="0.4" mask="url(#path-1-outside-1_46058_39740)"/>
</svg>
