<svg width="31" height="46" viewBox="0 0 31 46" fill="none" xmlns="http://www.w3.org/2000/svg">
<path d="M14.3478 25.1205L12.6212 28.6213L8.75891 29.1818C8.27935 29.2516 7.87226 29.5941 7.72519 30.0495C7.5713 30.5075 7.69578 31.0254 8.04613 31.3716L10.8426 34.0976L10.184 37.9394C10.0983 38.4195 10.2995 38.9143 10.693 39.1984C11.0869 39.4868 11.619 39.5236 12.0439 39.2972L15.4991 37.4803L18.949 39.295C19.1323 39.3927 19.3403 39.4453 19.5515 39.4453C19.8214 39.4453 20.0899 39.3575 20.3036 39.201C20.6986 38.9147 20.8993 38.4199 20.8152 37.9451L20.1571 34.0987L22.9567 31.3683C23.3065 31.0206 23.4279 30.5158 23.275 30.0562C23.1248 29.5945 22.7182 29.2515 22.2397 29.1827L18.3774 28.6222L16.6472 25.1145C16.434 24.6933 15.9938 24.4312 15.499 24.4312C15.0047 24.4306 14.5647 24.6924 14.3478 25.1205ZM17.2025 29.643C17.3123 29.8652 17.5245 30.0196 17.7698 30.0548L21.579 30.6079L18.823 33.2956C18.6459 33.4685 18.565 33.718 18.6065 33.9617L19.2552 37.753L15.85 35.9624C15.7402 35.9041 15.6199 35.8757 15.4996 35.8757C15.3794 35.8757 15.2591 35.9046 15.1493 35.9624L11.744 37.7535L12.3948 33.9622C12.4368 33.718 12.3554 33.469 12.1779 33.2962L9.42024 30.6084L13.2294 30.0553C13.4752 30.0202 13.6874 29.8657 13.7967 29.6435L15.4996 26.1904L17.2025 29.643Z" fill="#113C7B"/>
<path d="M30.2473 0.277588H0.753231C0.337216 0.277588 0 0.61428 0 1.03082V6.67844C0 11.3869 3.83124 15.2182 8.54028 15.2182H12.9325C12.4813 15.7828 12.2003 16.4883 12.2003 17.2657C12.2003 18.0783 12.5071 18.8143 12.9961 19.3899C6.86263 20.5654 2.21141 25.9636 2.21141 32.4343C2.21141 39.7617 8.17261 45.7224 15.5 45.7224C22.8274 45.7224 28.7886 39.7617 28.7886 32.4343C28.7886 25.9636 24.1368 20.5649 18.0034 19.3899C18.4924 18.8142 18.7992 18.0788 18.7992 17.2657C18.7992 16.4889 18.5176 15.783 18.0669 15.2182H22.4592C27.1686 15.2182 31 11.3869 31 6.67844V1.03082C31 0.614804 30.6628 0.277588 30.2473 0.277588ZM17.2938 17.2662C17.2938 18.2553 16.4891 19.06 15.5 19.06C14.5109 19.06 13.7062 18.2553 13.7062 17.2662C13.7062 16.2771 14.5109 15.4724 15.5 15.4724C16.4891 15.4724 17.2938 16.2771 17.2938 17.2662ZM27.2827 32.4341C27.2827 38.931 21.9969 44.2162 15.5 44.2162C9.00307 44.2157 3.71729 38.931 3.71729 32.4341C3.71729 25.9372 9.00307 20.6514 15.5 20.6514C21.9969 20.6509 27.2827 25.9372 27.2827 32.4341ZM19.2298 1.78362V13.7118H11.77V1.78362H19.2298ZM1.50706 6.67796V1.78362H10.2648V13.7118H8.5409C4.66233 13.7118 1.50706 10.5565 1.50706 6.67796ZM29.4951 6.67796C29.4951 10.5565 26.3393 13.7118 22.4608 13.7118H20.7369V1.78362H29.4952L29.4951 6.67796Z" fill="#113C7B"/>
</svg>
