<svg width="51" height="50" viewBox="0 0 51 50" fill="none" xmlns="http://www.w3.org/2000/svg">
<path d="M47.8727 25.6845C49.6224 25.9275 50.5164 26.8693 50.4998 28.6948C50.4381 35.3644 50.4764 42.0341 50.4747 48.7053C50.4747 49.8885 50.3647 50 49.1987 50C33.4096 50 17.6206 50 1.83147 50C0.610512 50 0.520441 49.9118 0.527113 48.6554C0.530449 48.103 0.475406 47.5305 0.600504 47.0047C0.835689 46.0129 1.79144 45.3489 2.91399 45.3073C3.56951 45.2823 4.22669 45.3023 4.92391 45.3023C4.58364 44.3338 4.41684 44.2024 2.93234 43.6432C2.66546 42.0357 2.70383 42.0191 5.10071 42.7496C5.3876 42.2903 4.83384 41.3002 6.07481 41.3718C7.24573 41.44 6.49681 42.3802 6.91881 42.7663C7.36916 42.6032 7.82285 42.3752 8.30156 42.2903C8.53675 42.2487 9.03881 42.4684 9.04215 42.5799C9.05382 42.9876 9.38742 43.5683 8.70688 43.773C7.9613 43.9977 7.34915 44.3588 6.94049 45.3007C8.5651 45.1326 10.093 45.7666 11.4557 44.3904C13.127 42.6997 14.9685 41.1721 16.7849 39.6311C17.1669 39.3066 17.7507 39.0986 18.2561 39.0637C19.4437 38.9822 20.6413 39.0637 21.8322 39.0138C22.0641 39.0038 22.4494 38.7359 22.4827 38.5412C22.6979 37.2598 22.8347 35.9668 23.0015 34.6772C23.1466 33.5589 22.0724 33.6954 21.5437 33.286C21.0683 32.9183 20.8097 33.3775 20.5412 33.6821C20.4862 33.7436 20.4294 33.8069 20.3844 33.8751C18.5563 36.6225 15.9626 38.3698 12.9469 39.5845C12.0579 39.9423 11.7843 39.8974 11.3506 39.0604C10.932 38.25 10.5216 37.4329 10.1263 36.6108C9.73936 35.8071 9.84611 35.4693 10.6301 35.0682C11.8377 34.4509 13.1737 34.0082 14.2346 33.2028C15.1153 32.5339 15.6907 31.4572 16.3696 30.5386C16.4296 30.4571 16.2878 30.1842 16.1894 30.0344C15.6357 29.1891 15.4305 28.2672 15.5239 27.2671C15.6857 25.5597 15.7875 23.844 16.0226 22.1467C16.1094 21.521 16.4997 20.9369 16.7682 20.2962C15.0452 17.9782 14.8968 16.2675 16.3145 14.6267C17.5188 13.2322 19.5337 12.8828 21.1533 13.7864C23.0348 14.8347 23.4652 16.5204 22.5645 19.4958C24.2992 19.4542 25.9321 19.6872 27.6051 18.6754C30.1154 17.1578 31.7267 14.9745 33.1661 12.5699C33.84 11.4433 34.4672 10.2885 35.1861 9.02045C35.2044 9.04708 35.1093 8.88733 34.9942 8.74255C33.9284 7.38467 33.8767 5.96188 34.5155 4.37602C34.8091 3.64881 34.7607 2.77517 34.8124 1.96477C34.8208 1.83996 34.5622 1.64693 34.3888 1.57538C34.222 1.50715 34.0068 1.55374 33.8116 1.55208C32.8753 1.54764 32.4589 1.05452 32.5623 0.072714H44.2031C44.0597 0.60189 44.7085 1.33076 43.6561 1.62696C43.5543 1.65525 43.4909 1.94979 43.4792 2.12618C43.4526 2.51225 43.4442 2.90331 43.4742 3.28771C43.5226 3.89676 43.159 3.94668 42.6886 3.95168C42.2066 3.95667 41.8646 3.87846 41.898 3.28438C41.9214 2.89832 41.9397 2.50393 41.8797 2.12452C41.848 1.9265 41.6411 1.7551 41.5144 1.57205C41.3843 1.74844 41.1274 1.93648 41.1424 2.09789C41.2241 2.9316 41.2341 3.81356 41.531 4.57737C42.1332 6.12662 41.918 7.4945 40.9222 8.86403C41.1724 9.02545 41.3943 9.16523 41.6128 9.31C42.4935 9.88744 43.164 10.6346 43.5276 11.6397C43.9696 12.8611 44.455 14.0676 44.8653 15.299C45.314 16.6419 45.1689 17.9349 44.2632 19.0598C43.9213 19.4842 43.9279 19.7604 44.3349 20.0916C45.5792 21.1083 46.8102 22.14 48.0528 23.1568C49.1804 24.0803 49.1921 24.1985 48.1713 25.2885C48.0812 25.385 48.0095 25.4965 47.8677 25.6812L47.8727 25.6845ZM25.4951 48.4591C32.9877 48.4591 40.4802 48.4524 47.9728 48.4707C48.6667 48.4724 48.9536 48.3209 48.9502 47.5555C48.9235 41.2453 48.9369 34.9334 48.9319 28.6233C48.9319 27.6015 48.68 27.3453 47.6492 27.3436C43.5977 27.3353 39.5462 27.3469 35.4946 27.3336C34.9158 27.3319 34.6206 27.4867 34.4438 28.1057C33.3696 31.8799 32.2437 35.639 31.1245 39.4015C30.7659 40.608 30.7075 40.6379 29.4432 40.6396C25.9188 40.6429 22.3943 40.6163 18.8699 40.6679C18.3478 40.6762 17.7307 40.9175 17.3303 41.2569C15.4072 42.8861 13.5657 44.6134 11.6392 46.2392C11.2189 46.5936 10.5717 46.8383 10.0196 46.8549C7.77448 46.9231 5.52438 46.8782 3.27761 46.8882C2.40359 46.8915 2.04497 47.2043 2.06666 47.8866C2.09335 48.7453 2.7572 48.4491 3.18087 48.4491C10.6184 48.4657 18.0542 48.4607 25.4918 48.4607L25.4951 48.4591ZM37.2727 15.5536C37.2193 15.5603 37.1459 15.5486 37.1176 15.5786C36.9675 15.7383 36.8207 15.9031 36.6889 16.0795C34.8108 18.5689 32.624 20.7089 30.0136 22.4662C28.2906 23.6261 26.626 24.6278 24.4526 24.2534C24.0306 24.1802 23.7971 24.3483 23.7437 24.8225C23.6303 25.8376 23.4785 26.8494 23.305 27.8561C23.22 28.3504 23.3984 28.6133 23.8288 28.8396C24.6611 29.2773 25.4667 29.7665 26.2774 30.2441C27.2565 30.8232 28.0021 31.6569 28.1088 32.7768C28.2039 33.7686 28.0237 34.7987 27.8836 35.8004C27.7352 36.8505 27.4867 37.8872 27.2615 39.0404C27.7285 39.0404 28.0538 39.0404 28.3807 39.0404C29.6367 39.0404 29.6183 39.0354 29.9753 37.804C31.0461 34.1197 32.1286 30.4371 33.2195 26.7595C33.3029 26.4783 33.423 26.0922 33.6382 25.989C34.1953 25.7228 34.2503 25.2868 34.292 24.7793C34.3454 24.1186 34.4938 23.463 34.5122 22.804C34.5656 20.8604 35.1594 19.1963 36.8157 18.0298C36.9041 17.9665 36.9725 17.875 37.0509 17.7951C37.9732 16.8699 37.9816 16.785 37.2727 15.552V15.5536ZM24.0723 38.9156C25.5318 39.2051 25.5802 39.1885 25.8504 37.9305C26.1056 36.7423 26.3224 35.5458 26.5526 34.3527C26.8211 32.9582 26.4742 32.1844 25.2299 31.4555C24.2508 30.8814 23.2366 30.3639 22.2926 29.7382C21.979 29.5302 21.6187 29.0476 21.6504 28.7264C21.8172 26.9941 22.1008 25.2735 22.3426 23.5495C22.431 22.9172 22.8046 22.6609 23.4335 22.6725C24.3475 22.6908 25.2649 22.6975 26.179 22.6609C26.5226 22.6459 26.9079 22.566 27.1948 22.3896C28.1839 21.7789 29.133 21.1066 30.1087 20.471C30.4673 20.238 30.6141 20.0233 30.3356 19.6023C30.0737 19.2079 29.8435 19.0582 29.4048 19.3477C28.8277 19.7288 28.2022 20.0383 27.6368 20.436C26.9012 20.9535 26.1189 21.1383 25.2182 21.1166C23.2783 21.07 21.3368 21.0933 19.3953 21.1066C18.1176 21.1166 17.5905 21.6458 17.4971 22.9005C17.3904 24.3349 17.2703 25.7677 17.1235 27.1972C16.9767 28.6299 17.3754 29.4204 18.6797 30.081C20.3344 30.918 21.9957 31.7384 23.6536 32.5688C24.7578 33.1213 24.7962 33.2411 24.6277 34.4392C24.4209 35.9119 24.2591 37.393 24.0723 38.9123V38.9156ZM31.9018 18.9783C32.1086 18.7902 32.3288 18.6288 32.5023 18.4258C33.795 16.9132 35.086 15.4005 36.3603 13.8729C36.9791 13.1307 37.2744 13.1091 37.9899 13.7331C39.0091 14.6217 39.1475 15.8964 39.4761 17.0762C39.5428 17.3159 39.3176 17.7103 39.1158 17.9332C38.522 18.5906 37.8648 19.1896 37.251 19.827C36.9474 20.1431 36.4954 20.461 36.427 20.8354C36.1418 22.4296 35.975 24.0437 35.7665 25.6412C37.271 25.9424 37.3077 25.9075 37.5095 24.5513C37.628 23.7592 37.7281 22.9521 37.9616 22.1916C38.1017 21.739 38.4002 21.2414 38.7772 20.9752C39.9064 20.1781 41.1157 19.4942 42.2816 18.747C43.3925 18.0364 43.7962 17.003 43.3892 15.8199C42.9672 14.5918 42.5085 13.377 42.0364 12.1672C41.5561 10.9375 40.6187 10.2901 39.3093 10.1986C38.7572 10.1603 38.2001 10.1803 37.6446 10.1853C36.5972 10.192 35.8249 10.6662 35.4129 11.6247C34.5072 13.7315 33.2429 15.6035 31.7116 17.2926C31.1045 17.9615 31.253 18.4325 31.9001 18.9766L31.9018 18.9783ZM21.5537 17.2027C21.5537 15.9014 20.5412 14.8614 19.2602 14.8547C17.9842 14.848 16.9584 15.8831 16.9517 17.1861C16.9467 18.5007 17.9375 19.5075 19.2435 19.5125C20.5495 19.5158 21.552 18.514 21.5537 17.2044V17.2027ZM12.5282 37.8656C15.7091 37.0169 17.7824 34.9185 19.4904 32.3508C17.8774 31.2259 17.8307 31.1976 16.895 32.7302C16.2512 33.7836 15.4455 34.5524 14.2946 35.0233C13.4373 35.3728 12.6316 35.8504 11.7359 36.3047C12.0378 36.8987 12.2947 37.4046 12.5282 37.8656ZM40.3001 6.26973C40.3034 5.1548 39.8781 4.71882 38.7889 4.71549C38.1517 4.71549 37.5112 4.75043 36.8774 4.7055C36.2519 4.66224 35.9483 4.98673 35.7932 5.50925C35.5196 6.43115 35.6848 7.27317 36.392 7.94879C37.1059 8.63106 37.9732 8.72758 38.8673 8.4114C39.7396 8.10188 40.2967 7.21327 40.3001 6.26807V6.26973ZM46.8986 24.2917C46.6117 24.0421 46.3899 23.844 46.1614 23.6543C45.2273 22.8772 44.2599 22.135 43.3625 21.318C42.375 20.4194 42.0798 20.4127 41.0507 21.6258C42.3584 22.7175 43.6978 23.7742 44.9637 24.914C45.5592 25.4499 45.9745 25.4482 46.4316 24.8225C46.5433 24.6694 46.6834 24.5346 46.9003 24.2917H46.8986ZM38.9273 25.7078H43.3308C42.0214 24.538 40.8255 23.4696 39.5178 22.2998C39.311 23.4896 39.1258 24.5579 38.9273 25.7078ZM38.0099 3.13295V3.12796C38.3435 3.12796 38.6855 3.17622 39.0041 3.10965C39.1925 3.07138 39.4511 2.88001 39.4944 2.71194C39.718 1.83164 39.4878 1.5604 38.5937 1.55541C38.1784 1.55374 37.7597 1.58037 37.3461 1.54875C36.754 1.50382 36.4387 1.62197 36.4337 2.34085C36.4287 3.06805 36.759 3.18454 37.3444 3.13461C37.5646 3.11631 37.7881 3.13129 38.0099 3.13129V3.13295Z" fill="#113C7B"/>
<path d="M9.87943 10.9741C8.1881 10.9741 6.49844 10.9791 4.80711 10.9741C2.57202 10.9658 0.798955 9.5879 0.542086 7.67255C0.25853 5.55584 1.42111 3.90009 3.62785 3.21116C3.91974 3.11963 4.18662 2.88001 4.40846 2.65369C5.21576 1.82332 6.15484 1.44058 7.32743 1.59867C7.60264 1.63528 7.97794 1.51546 8.18977 1.33242C10.7168 -0.854181 14.0277 -0.291723 15.649 2.59545C15.8141 2.88999 16.156 3.16623 16.4763 3.27938C18.3578 3.94502 19.4953 5.69729 19.2185 7.59766C18.9432 9.48972 17.3536 10.9142 15.3671 10.9624C13.539 11.0057 11.7092 10.9724 9.87943 10.9724V10.9757V10.9741ZM9.9178 9.34827V9.3516C11.7743 9.3516 13.6341 9.39819 15.4888 9.33496C16.7565 9.29336 17.6706 8.27161 17.6872 7.06516C17.7039 5.88699 16.8499 4.87856 15.629 4.75209C14.9551 4.6822 14.6098 4.42094 14.4047 3.75864C14.0194 2.51225 13.0953 1.7734 11.8093 1.602C10.615 1.44391 9.62257 1.91318 8.94203 2.90663C8.51836 3.524 8.08135 3.62884 7.39915 3.30435C6.65356 2.9499 5.88296 3.16456 5.51767 3.85349C5.16906 4.5108 4.70036 4.7704 3.99647 4.76374C3.81299 4.76208 3.62118 4.8536 3.44771 4.93348C2.54533 5.34617 1.95987 6.37457 2.09497 7.29147C2.26177 8.43137 3.09409 9.29169 4.26502 9.3283C6.14816 9.38821 8.03465 9.34494 9.91947 9.34494L9.9178 9.34827Z" fill="#113C7B"/>
</svg>
