<svg width="47" height="46" viewBox="0 0 47 46" fill="none" xmlns="http://www.w3.org/2000/svg">
<path d="M39.8425 0.0056057C37.741 0.00444523 35.7629 0.995165 34.5055 2.67792C33.2481 4.36069 32.8592 6.53793 33.4563 8.55147L32.5685 9.45012C28.4525 6.46714 23.3624 5.14445 18.3142 5.74608C13.2659 6.34801 8.62979 8.82967 5.33111 12.6966C2.03213 16.5636 0.313038 21.5315 0.516147 26.6088C0.719335 31.6869 2.8298 36.5013 6.4271 40.0931C10.0245 43.6843 14.844 45.7879 19.9244 45.9848C25.0044 46.1817 29.9728 44.4571 33.8369 41.155C37.7017 37.8528 40.1786 33.2157 40.7746 28.1688C41.3702 23.1219 40.0408 18.0357 37.0514 13.9258L37.9447 13.0384C38.5608 13.219 39.1998 13.3107 39.8422 13.3103C42.2208 13.3103 44.4187 12.0418 45.608 9.98264C46.7973 7.92344 46.7973 5.38691 45.608 3.32771C44.4187 1.26852 42.2207 0 39.8422 0L39.8425 0.0056057ZM39.2488 25.7938C39.2504 30.7177 37.2955 35.4406 33.8135 38.9236C30.3319 42.4072 25.6088 44.3654 20.6818 44.3678C15.7558 44.3705 11.0303 42.4169 7.54516 38.9372C4.13472 35.4416 2.23947 30.7438 2.27008 25.8609C2.30066 20.9784 4.2547 16.3046 7.70893 12.8519C11.1631 9.39929 15.8387 7.44646 20.7237 7.41546C25.6084 7.3849 30.3083 9.27926 33.8059 12.6882C35.5351 14.4042 36.9067 16.446 37.841 18.6955C38.7753 20.9451 39.2539 23.3582 39.2488 25.7938ZM38.4496 10.1714L36.0029 12.617C35.6813 12.2398 35.3427 11.8684 34.9878 11.5079C34.6325 11.1474 34.2555 10.8147 33.8782 10.4932L36.3249 8.04759C36.4681 7.9648 36.6411 7.95049 36.7963 8.00852C37.6152 8.2503 38.255 8.8917 38.4942 9.71139C38.5472 9.86382 38.5309 10.0317 38.4496 10.1714ZM43.371 10.1714C42.4371 11.1095 41.1661 11.6348 39.8426 11.6301C39.6796 11.6386 39.5167 11.6386 39.3541 11.6301L39.6316 11.3585C40.1297 10.8162 40.3124 10.0545 40.1143 9.34501C39.9269 8.6336 39.5542 7.9841 39.0337 7.46378C38.5132 6.94346 37.8634 6.57094 37.1516 6.38372C36.4442 6.19108 35.688 6.3756 35.1484 6.87193L34.8767 7.1435C34.7084 5.44062 35.4247 3.77023 36.7746 2.71761C38.1246 1.66498 39.9199 1.37719 41.5315 1.95474C43.1431 2.53231 44.3463 3.8952 44.7194 5.5652C45.0926 7.23519 44.5836 8.98026 43.3711 10.1881L43.371 10.1714Z" fill="#113C7B"/>
<path d="M24.5924 22.3265C24.5935 22.3124 24.5935 22.2984 24.5924 22.2843C24.5147 22.1061 24.3727 21.9641 24.1948 21.8865H24.1523L15.1397 18.8595C14.8535 18.7629 14.5373 18.8376 14.3239 19.051C14.1102 19.2647 14.0362 19.5805 14.1324 19.8667L17.1545 28.8785V28.9106C17.1552 28.9247 17.1552 28.9387 17.1545 28.9528C17.2329 29.127 17.3727 29.2667 17.5468 29.3451H17.6212L26.6337 32.3669C26.7158 32.3939 26.8016 32.408 26.8882 32.4091C27.099 32.4098 27.3012 32.3255 27.4499 32.1761C27.6625 31.9617 27.7361 31.6459 27.6407 31.3597L24.5924 22.3265ZM16.1101 20.8212L22.3872 22.9414L18.2306 27.0922L16.1101 20.8212ZM19.344 28.2425L23.5321 24.0496L25.6525 30.3262L19.344 28.2425Z" fill="#113C7B"/>
<path d="M20.8872 9.40919C16.6057 9.40285 12.4964 11.0921 9.45954 14.106C6.42211 17.1196 4.70492 21.2128 4.6839 25.489C4.68112 25.5211 4.68112 25.5536 4.6839 25.5856C4.68112 25.6197 4.68112 25.6538 4.6839 25.6878C4.70214 31.4691 7.80783 36.8012 12.8301 39.6756C17.8524 42.5505 24.0293 42.5311 29.0335 39.6245C34.0376 36.7182 37.1091 31.3664 37.0908 25.585C37.0877 21.295 35.3792 17.1811 32.341 14.1483C29.3027 11.1149 25.1833 9.41071 20.8872 9.40919ZM33.9636 26.4366H35.3112C35.1387 29.6906 33.8609 32.7885 31.6892 35.2203L30.7398 34.2721C30.407 33.9383 29.8661 33.9371 29.5318 34.2694C29.1975 34.6017 29.1959 35.1419 29.529 35.4757L30.484 36.4239C28.0565 38.5923 24.9632 39.8715 21.7116 40.0521V38.6893C21.7116 38.2192 21.3297 37.8378 20.8586 37.8378C20.3878 37.8378 20.0059 38.2192 20.0059 38.6893V40.0296C16.7504 39.8514 13.6523 38.5717 11.222 36.4014L12.1714 35.4532C12.3407 35.2956 12.4387 35.0762 12.4427 34.8453C12.4466 34.614 12.3566 34.3914 12.1928 34.2278C12.0294 34.0646 11.8062 33.9743 11.575 33.9787C11.3438 33.9827 11.1236 34.0805 10.9662 34.2496L10.0394 35.2203C7.87406 32.7933 6.59545 29.7052 6.4122 26.4596H7.74827C8.21901 26.4596 8.60092 26.0782 8.60092 25.6077C8.60092 25.1376 8.21901 24.7562 7.74827 24.7562H6.4122C6.59145 21.503 7.8704 18.4067 10.0394 15.9725L10.9888 16.9262C11.149 17.0854 11.3656 17.1753 11.5916 17.1761C11.9358 17.1729 12.2452 16.9638 12.3765 16.6458C12.5077 16.3278 12.4359 15.9622 12.194 15.717L11.222 14.7804C13.6495 12.612 16.7428 11.3327 19.9944 11.1521V12.509C19.9944 12.9796 20.3763 13.3609 20.8474 13.3609C21.3182 13.3609 21.7001 12.9796 21.7001 12.509V11.1407C24.9612 11.3193 28.0637 12.6033 30.4955 14.7804L29.5405 15.7285C29.2459 16.0684 29.2637 16.5781 29.5822 16.8961C29.9006 17.2142 30.411 17.2324 30.7513 16.9377L31.6893 15.9725C33.8606 18.3968 35.1415 21.486 35.3223 24.7336H33.9636C33.4925 24.7336 33.1106 25.1146 33.1106 25.5852C33.1106 26.0557 33.4925 26.4366 33.9636 26.4366Z" fill="#113C7B"/>
</svg>
