<svg width="100" height="100" viewBox="0 0 100 100" fill="none" xmlns="http://www.w3.org/2000/svg">
<path d="M81.2516 29.0725C81.4682 28.1515 81.5965 27.1319 81.5965 25.9822C81.5965 22.4757 80.2023 19.5256 77.5655 17.4514C75.2709 15.6467 72.1991 14.6528 68.9155 14.6528C67.3301 14.6528 65.7953 14.8863 64.3721 15.3294C59.8146 13.4588 54.9821 12.5078 50.0007 12.5078C39.9846 12.5078 30.5679 16.3607 23.4856 23.3568C16.403 30.3524 12.5024 39.6541 12.5024 49.5478C12.5024 57.4818 15.0053 65.0478 19.7406 71.4271C24.2282 77.4731 30.3341 81.9657 37.4348 84.4562V84.7552C37.4348 86.2774 38.6879 87.5152 40.2289 87.5152H59.772C61.313 87.5152 62.5666 86.2774 62.5666 84.7552V84.4562C69.6668 81.9657 75.7731 77.4731 80.2607 71.4271C84.9961 65.0478 87.4989 57.4818 87.4989 49.5478C87.4989 42.2157 85.3393 35.1471 81.2516 29.0725ZM79.4869 25.9822C79.4869 29.6606 77.9468 31.7834 76.4573 33.8364C75.1246 35.6719 73.7484 37.569 73.6772 40.3542H71.8581V32.3589C71.8581 32.2895 71.8581 32.2205 71.859 32.1523C73.5256 31.5004 74.8755 30.2904 75.6325 28.6866C76.5412 26.7626 76.5298 25.0339 75.6018 24.0621C74.9844 23.4158 74.0837 23.2387 73.1917 23.5885C71.7232 24.1645 70.166 26.2925 69.8197 30.5425C69.2006 30.6363 68.6303 30.6363 68.0116 30.5425C67.6649 26.2925 66.1081 24.1645 64.6397 23.5885C63.7477 23.2383 62.8469 23.4154 62.2296 24.0621C61.302 25.0334 61.2901 26.7626 62.1988 28.6866C62.9559 30.2904 64.3053 31.5004 65.9724 32.1523C65.9728 32.2205 65.9732 32.2895 65.9732 32.3589V40.3542H64.1546C64.083 37.5686 62.7068 35.6719 61.3745 33.8364C59.8845 31.7834 58.3444 29.6606 58.3444 25.9822C58.3444 19.6293 63.8241 16.7361 68.9159 16.7361C74.0072 16.7361 79.4869 19.6293 79.4869 25.9822ZM67.6465 48.6198H70.1844V49.0968C70.1844 49.2231 70.0763 49.3299 69.9485 49.3299H67.8829C67.755 49.3299 67.6469 49.2231 67.6469 49.0968L67.6465 48.6198ZM72.0782 46.5365H65.7531C65.6248 46.5365 65.5167 46.4297 65.5167 46.303V45.5551H72.3146V46.303C72.3146 46.4297 72.2065 46.5365 72.0782 46.5365ZM73.6741 43.2383C73.6741 43.365 73.5656 43.4718 73.4377 43.4718H64.3936C64.2653 43.4718 64.1572 43.3646 64.1572 43.2383V42.4379H73.6741V43.2383ZM68.0824 40.3542V32.6541C68.3557 32.6814 68.6338 32.6949 68.9155 32.6949C69.1971 32.6949 69.4748 32.681 69.7486 32.6541V40.3542H68.0824ZM72.0334 29.7257C72.3406 27.5903 73.0058 26.2912 73.639 25.74C73.864 25.5438 74.0226 25.5013 74.074 25.4974C74.212 25.6398 74.3741 26.4236 73.7212 27.806C73.3187 28.658 72.718 29.2843 72.0334 29.7257ZM65.7979 29.7257C65.1133 29.2839 64.5127 28.658 64.1102 27.806C63.4577 26.4236 63.6189 25.6398 63.7574 25.4974C63.8088 25.5009 63.9674 25.5438 64.1924 25.74C64.8251 26.2912 65.4903 27.5907 65.7979 29.7257ZM60.2655 17.4514C57.6286 19.5256 56.2349 22.4757 56.2349 25.9822C56.2349 30.3303 58.0544 32.8377 59.6595 35.0499C60.9413 36.816 62.0481 38.3407 62.0481 40.582V43.2383C62.0481 44.1675 62.6061 44.9688 63.4072 45.3372V46.303C63.4072 47.5087 64.3448 48.5013 65.5374 48.6089V49.0968C65.5374 50.3741 66.5897 51.4136 67.8829 51.4136H69.948C71.2416 51.4136 72.2936 50.3741 72.2936 49.0968V48.6089C73.4861 48.5013 74.4238 47.5087 74.4238 46.303V45.3372C75.2252 44.9683 75.7833 44.1675 75.7833 43.2383V40.582C75.7833 38.3412 76.8897 36.816 78.1714 35.0499C78.9245 34.0117 79.7255 32.9084 80.3631 31.5803C83.6573 36.997 85.3894 43.1662 85.3894 49.5478C85.3894 55.4826 83.8827 61.1458 81.1742 66.1228L51.0552 48.9462V14.6081C54.6899 14.7118 58.2341 15.355 61.632 16.5243C61.1517 16.8043 60.6948 17.1137 60.2655 17.4514ZM48.9461 14.6081V48.9462L18.8271 66.1228C16.1182 61.1458 14.6116 55.4826 14.6116 49.5478C14.6116 30.6211 29.9184 15.1615 48.9461 14.6081ZM60.457 84.7552C60.457 85.1281 60.1499 85.4319 59.772 85.4319H40.2289C39.851 85.4319 39.5439 85.1281 39.5439 84.7552V61.0673C39.5439 60.694 39.851 60.3906 40.2289 60.3906H43.6839V60.7904C43.6839 61.3659 44.1562 61.832 44.7389 61.832H55.2625C55.8451 61.832 56.3175 61.3659 56.3175 60.7904V60.3906H59.7725C60.1499 60.3906 60.4575 60.694 60.4575 61.0673L60.457 84.7552ZM51.3685 58.7778C51.6071 58.9757 51.9222 59.0595 52.2289 59.0065L54.2079 58.6645V59.7487H45.7934V58.6645L47.7725 59.0065C48.0788 59.0595 48.3942 58.9757 48.6328 58.7778C48.8714 58.5799 49.009 58.2878 49.009 57.98V57.7027C49.009 57.1623 49.4536 56.7231 50.0007 56.7231C50.5477 56.7231 50.9924 57.1623 50.9924 57.7027V57.98C50.9924 58.2878 51.1299 58.5799 51.3685 58.7778ZM62.5666 82.237V61.0673C62.5666 59.5451 61.313 58.3069 59.772 58.3069H56.2915C56.2186 57.8177 55.9743 57.3793 55.5797 57.0517C55.1043 56.6571 54.5063 56.4983 53.8937 56.6033L52.9534 56.7661C52.5518 55.5334 51.38 54.6393 50.0007 54.6393C48.621 54.6393 47.4491 55.5334 47.0475 56.7661L46.1063 56.6033C45.4947 56.4978 44.8966 56.6571 44.4208 57.0521C44.0271 57.3793 43.7823 57.8177 43.7094 58.3069H40.2289C38.6879 58.3069 37.4343 59.5451 37.4343 61.0673V82.237C29.983 79.4471 23.8912 74.3464 19.8808 67.9275L50.0002 50.7504L80.1201 67.9275C76.1097 74.3464 70.0179 79.4471 62.5666 82.237ZM22.178 40.8225L23.2633 41.0339L24.0125 42.8194L23.396 43.727C22.9663 44.3602 23.0502 45.2109 23.5959 45.75L25.7441 47.872C26.2899 48.411 27.1515 48.4944 27.7922 48.0695L28.7114 47.4605L30.5186 48.2005L30.7326 49.2721C30.882 50.0204 31.5504 50.5634 32.3224 50.5634H35.3604C36.1324 50.5634 36.8012 50.0204 36.9497 49.2726L37.1641 48.2005L38.9718 47.4605L39.8906 48.0695C40.5321 48.4944 41.3929 48.411 41.9386 47.872L44.0868 45.75C44.6321 45.2109 44.7165 44.3602 44.2867 43.727L43.6707 42.819L44.4194 41.0339L45.5052 40.8225C46.2618 40.6749 46.8115 40.0143 46.8115 39.2522V36.2513C46.8115 35.4892 46.2618 34.8286 45.5048 34.681L44.4194 34.4696L43.6707 32.6845L44.2872 31.776C44.7165 31.1432 44.6321 30.2925 44.0868 29.7535L41.939 27.6319C41.3933 27.092 40.5317 27.0091 39.8906 27.434L38.9718 28.0425L37.1641 27.303L36.9501 26.2313C36.8012 25.4831 36.1324 24.9401 35.3604 24.9401H32.3224C31.5504 24.9401 30.882 25.4831 30.7331 26.2309L30.5186 27.303L28.711 28.0425L27.7922 27.434C27.1507 27.0091 26.2894 27.0925 25.7441 27.6315L23.5959 29.7535C23.0502 30.293 22.9663 31.1437 23.396 31.7765L24.0125 32.684L23.2633 34.4696L22.178 34.681C21.4209 34.8286 20.8712 35.4892 20.8712 36.2513V39.2522C20.8712 40.0143 21.4205 40.6749 22.178 40.8225ZM22.9808 36.6484L24.2256 36.4058C24.5718 36.3385 24.861 36.1046 24.9958 35.7826L26.177 32.9661C26.3123 32.6441 26.2754 32.2765 26.0785 31.987L25.372 30.9457L26.9516 29.3859L28.0053 30.0842C28.2984 30.2782 28.6705 30.3147 28.9966 30.181L31.8478 29.0143C32.1739 28.8811 32.4107 28.5955 32.4788 28.2535L32.7244 27.0234H34.9579L35.2035 28.2535C35.2716 28.5955 35.5085 28.8811 35.8345 29.0143L38.6862 30.181C39.0122 30.3147 39.3844 30.2782 39.677 30.0842L40.7311 29.3859L42.3108 30.9462L41.6038 31.987C41.4074 32.2765 41.3705 32.6441 41.5054 32.9661L42.6869 35.7826C42.8218 36.1046 43.1109 36.3385 43.4572 36.4058L44.702 36.6484V38.855L43.4572 39.0972C43.1109 39.1645 42.8218 39.3984 42.6869 39.7205L41.5054 42.5373C41.3705 42.8589 41.4074 43.2266 41.6038 43.5161L42.3108 44.5573L40.7311 46.1176L39.677 45.4193C39.3844 45.2248 39.0122 45.1884 38.6862 45.3221L35.8345 46.4887C35.5089 46.6224 35.2721 46.908 35.2035 47.2496L34.9579 48.4796H32.7244L32.4788 47.2496C32.4107 46.9076 32.1739 46.622 31.8478 46.4887L28.9966 45.3221C28.6705 45.1884 28.2984 45.2248 28.0057 45.4193L26.9516 46.1176L25.372 44.5573L26.0785 43.5161C26.2754 43.2266 26.3123 42.8589 26.177 42.5369L24.9958 39.7205C24.861 39.3984 24.5718 39.1645 24.2256 39.0972L22.9808 38.8546V36.6484ZM33.8414 44.8294C37.7924 44.8294 41.0066 41.6545 41.0066 37.7517C41.0066 33.849 37.7924 30.674 33.8414 30.674C29.8903 30.674 26.6761 33.849 26.6761 37.7517C26.6761 41.6545 29.8903 44.8294 33.8414 44.8294ZM33.8414 32.7578C36.6289 32.7578 38.8971 34.9983 38.8971 37.7517C38.8971 40.5056 36.6289 42.7461 33.8414 42.7461C31.0534 42.7461 28.7852 40.5056 28.7852 37.7517C28.7852 34.9983 31.0534 32.7578 33.8414 32.7578ZM47.3898 65.372H42.3262C41.744 65.372 41.2716 65.8386 41.2716 66.4136V71.4149C41.2716 71.9905 41.744 72.457 42.3262 72.457H47.3898C47.972 72.457 48.4443 71.9905 48.4443 71.4149V66.4136C48.4443 65.8386 47.972 65.372 47.3898 65.372ZM46.3348 70.3733H43.3811V67.4557H46.3348V70.3733ZM47.3898 74.6406H42.3262C41.744 74.6406 41.2716 75.1068 41.2716 75.6823V80.6836C41.2716 81.2591 41.744 81.7257 42.3262 81.7257H47.3898C47.972 81.7257 48.4443 81.2591 48.4443 80.6836V75.6823C48.4443 75.1068 47.972 74.6406 47.3898 74.6406ZM46.3348 79.6419H43.3811V76.724H46.3348V79.6419ZM50.1496 67.0564C50.1496 66.4809 50.6216 66.0148 51.2042 66.0148H54.6653C55.248 66.0148 55.7199 66.4809 55.7199 67.0564C55.7199 67.632 55.248 68.0981 54.6653 68.0981H51.2042C50.6216 68.0981 50.1496 67.632 50.1496 67.0564ZM58.7298 70.7726C58.7298 71.3481 58.2574 71.8142 57.6748 71.8142H51.2042C50.6216 71.8142 50.1496 71.3481 50.1496 70.7726C50.1496 70.1971 50.6216 69.7309 51.2042 69.7309H57.6748C58.2574 69.7309 58.7298 70.1971 58.7298 70.7726ZM50.1496 76.3251C50.1496 75.7496 50.6216 75.2834 51.2042 75.2834H54.6653C55.248 75.2834 55.7199 75.7496 55.7199 76.3251C55.7199 76.9002 55.248 77.3668 54.6653 77.3668H51.2042C50.6216 77.3668 50.1496 76.9002 50.1496 76.3251ZM58.7298 80.0412C58.7298 80.6168 58.2574 81.0829 57.6748 81.0829H51.2042C50.6216 81.0829 50.1496 80.6168 50.1496 80.0412C50.1496 79.4662 50.6216 78.9996 51.2042 78.9996H57.6748C58.2574 78.9996 58.7298 79.4662 58.7298 80.0412Z" fill="#113C7B"/>
<path d="M81.1792 25.9803C81.1787 22.5959 79.8402 19.768 77.3096 17.7772C75.0976 16.0374 72.1177 15.0713 68.9152 15.0713C67.3708 15.0713 65.8779 15.2963 64.4963 15.7264L64.3538 15.7712L64.2155 15.7142C59.7092 13.8645 54.9294 12.9231 50.0024 12.9229C40.0952 12.9229 30.7814 16.7343 23.7777 23.6528C16.7738 30.5707 12.9175 39.7666 12.9175 49.548C12.9175 57.3923 15.3928 64.8714 20.0749 71.1789C24.5125 77.1575 30.55 81.5983 37.5716 84.0614L37.8524 84.159V84.7572C37.8534 86.0434 38.9138 87.0967 40.2287 87.0968H59.7721C61.0872 87.0968 62.1474 86.0434 62.1484 84.7572V84.159L62.4292 84.0614C69.4505 81.5984 75.4883 77.1576 79.9259 71.1789L80.7764 69.9826C84.9065 63.9348 87.0833 56.9024 87.0833 49.548C87.0833 42.2989 84.948 35.3106 80.9066 29.3047L80.8048 29.1541L80.8455 28.9751C81.0544 28.0863 81.1792 27.0977 81.1792 25.9803ZM60.0407 61.0674C60.0407 60.9292 59.9245 60.807 59.7721 60.807H56.7326C56.7236 61.6095 56.0653 62.2468 55.2637 62.2474H44.7371C43.9358 62.2465 43.2772 61.6093 43.2682 60.807H40.2287C40.0762 60.8071 39.9601 60.9291 39.9601 61.0674V84.7572C39.9612 84.8944 40.0771 85.0134 40.2287 85.0135H59.7721C59.9238 85.0135 60.0396 84.8944 60.0407 84.7572V61.0674ZM50.2059 50.3903L80.7031 67.7813L80.4753 68.1475C76.417 74.6429 70.2521 79.8065 62.714 82.6291L62.1484 82.8366V61.0674C62.1484 59.7802 61.0878 58.7237 59.7721 58.7236H55.931L55.8781 58.3696C55.8204 57.9825 55.6287 57.6353 55.3125 57.3727C54.9319 57.0571 54.4585 56.9305 53.9657 57.0147L53.0257 57.1774L52.6676 57.2384L52.5578 56.8967C52.2113 55.8333 51.1977 55.0582 50.0024 55.0575C48.806 55.0575 47.7896 55.8328 47.443 56.8967L47.3332 57.2384L46.9751 57.1774L46.0352 57.0147C45.5436 56.9299 45.0699 57.0564 44.6883 57.3727C44.3727 57.635 44.1804 57.9826 44.1227 58.3696L44.0698 58.7236H40.2287C38.9131 58.7238 37.8524 59.7803 37.8524 61.0674V82.8366L37.2868 82.6291C29.7488 79.8065 23.5838 74.6428 19.5256 68.1475L19.2977 67.7813L49.7949 50.3903L49.9984 50.2723L50.2059 50.3903ZM48.029 75.6833C48.029 75.3429 47.747 75.0568 47.3901 75.0566H42.3242C41.9681 75.0577 41.6895 75.3434 41.6895 75.6833V80.6841C41.6897 81.024 41.9685 81.3097 42.3242 81.3107H47.3901C47.7466 81.3105 48.0287 81.0245 48.029 80.6841V75.6833ZM58.3114 80.0412C58.3113 79.7017 58.0332 79.4155 57.6766 79.4146H51.2028C50.8462 79.4153 50.5681 79.7014 50.568 80.0412C50.568 80.3813 50.8461 80.6671 51.2028 80.6678H57.6766C58.0333 80.6668 58.3114 80.381 58.3114 80.0412ZM46.7513 76.3058V80.0575H42.9631V76.3058H46.7513ZM43.7972 79.2233H45.9172V77.14H43.7972V79.2233ZM55.3044 76.3262C55.3044 75.9857 55.0228 75.6997 54.6655 75.6995H51.2028C50.8461 75.7003 50.568 75.986 50.568 76.3262C50.5686 76.6655 50.8466 76.948 51.2028 76.9487H54.6655C55.0223 76.9486 55.3038 76.6659 55.3044 76.3262ZM48.029 66.4141C48.029 66.074 47.7469 65.7876 47.3901 65.7874H42.3242C41.9682 65.7885 41.6895 66.0745 41.6895 66.4141V71.4149C41.6895 71.755 41.9683 72.0405 42.3242 72.0415H47.3901C47.7468 72.0413 48.029 71.7555 48.029 71.4149V66.4141ZM58.3114 70.772C58.311 70.4325 58.0331 70.1504 57.6766 70.1494H51.2028C50.8463 70.1502 50.5684 70.4321 50.568 70.772C50.568 71.1121 50.8461 71.3979 51.2028 71.3986H57.6766C58.0333 71.3976 58.3114 71.1118 58.3114 70.772ZM46.7513 67.0407V70.7883H42.9631V67.0407H46.7513ZM43.7972 69.9582H45.9172V67.8708H43.7972V69.9582ZM55.3044 67.057C55.3044 66.7164 55.0228 66.4304 54.6655 66.4303H51.2028C50.8461 66.4311 50.568 66.7168 50.568 67.057C50.5683 67.3969 50.8463 67.6788 51.2028 67.6795H54.6655C55.0226 67.6794 55.3041 67.3973 55.3044 67.057ZM49.3636 49.1899L49.152 49.3079L18.6629 66.6948L18.4595 66.3205C15.7187 61.2842 14.1952 55.5531 14.1951 49.548C14.1951 30.3912 29.6855 14.7531 48.9323 14.1924L49.3636 14.1802V49.1899ZM50.5762 57.7023C50.576 57.3976 50.3232 57.1417 50.0024 57.1408C49.6808 57.1408 49.4249 57.397 49.4246 57.7023V57.979C49.4246 58.4112 49.2327 58.8214 48.8997 59.098C48.7732 59.203 48.6272 59.2769 48.4766 59.334H51.5242C51.3738 59.2769 51.2275 59.2029 51.1011 59.098C50.7683 58.8214 50.5762 58.411 50.5762 57.979V57.7023ZM52.7734 59.334H53.7907V59.155L52.7734 59.334ZM46.2101 59.334H47.2314L46.2101 59.155V59.334ZM65.1188 49.0964V48.9499C63.9048 48.6653 62.9907 47.5956 62.9907 46.3009V45.5807C62.1833 45.1061 61.6317 44.2394 61.6317 43.237V40.584C61.6317 38.4964 60.6117 37.0734 59.3205 35.2943C57.7087 33.0728 55.8171 30.4694 55.8171 25.9803C55.8176 22.3536 57.2662 19.279 60.0081 17.1221C60.2188 16.9564 60.4364 16.7982 60.6592 16.646C57.692 15.7076 54.6179 15.17 51.4714 15.0428V48.7017L81.0042 65.5433C83.5528 60.718 84.9715 55.2624 84.9715 49.548C84.9715 43.4903 83.3876 37.6303 80.3776 32.4338C79.7921 33.504 79.1326 34.4359 78.5099 35.2943C77.2187 37.0734 76.1987 38.4968 76.1987 40.584V43.237C76.1987 44.2405 75.6486 45.1103 74.8397 45.5848V46.3009C74.8397 47.5957 73.9259 48.6655 72.7116 48.9499V49.0964C72.7116 50.6084 71.4673 51.8304 69.9487 51.8307H67.8817C66.3638 51.8301 65.1188 50.6082 65.1188 49.0964ZM46.3932 36.2505C46.3928 35.6916 45.9894 35.2009 45.4248 35.0908L44.3384 34.8792L44.1227 34.8345L44.0332 34.631L43.2845 32.8447L43.1991 32.6372L43.3252 32.45L43.9437 31.5426C44.2596 31.0768 44.1962 30.4478 43.7931 30.0493L41.6447 27.9294C41.2399 27.5289 40.5961 27.4666 40.1188 27.7829L39.2033 28.3892L39.0161 28.5112L38.8127 28.4299L37.006 27.6893L36.7985 27.6038L36.7537 27.3841L36.5422 26.314C36.4328 25.7647 35.9383 25.3586 35.3621 25.3577H32.3226C31.7458 25.3577 31.252 25.7645 31.1426 26.314L30.9269 27.3841L30.8822 27.6038L30.6746 27.6893L28.868 28.4299L28.6646 28.5112L28.4814 28.3892L27.5618 27.7829C27.0841 27.4665 26.4404 27.5295 26.036 27.9294L23.8875 30.0493C23.4844 30.4482 23.4247 31.0769 23.741 31.5426L24.3555 32.45L24.4857 32.6372L24.3962 32.8447L23.562 34.8345L23.3423 34.8792L22.2559 35.0908C21.6923 35.2016 21.2878 35.6922 21.2874 36.2505V39.2534C21.288 39.8117 21.6921 40.3024 22.2559 40.4131L23.3423 40.6247L23.562 40.6694L24.3962 42.6592L24.4857 42.8667L24.3555 43.0539L23.741 43.9613C23.4245 44.4278 23.4844 45.0563 23.8875 45.4546L26.036 47.5745C26.441 47.9747 27.0853 48.0371 27.5618 47.721L28.4814 47.1147L28.6646 46.9927L28.868 47.0741L30.6746 47.8146L30.8822 47.9001L30.9269 48.1198L31.1426 49.1899C31.2524 49.7401 31.7459 50.1462 32.3226 50.1462H35.3621C35.9384 50.1453 36.4332 49.7385 36.5422 49.1899L36.7537 48.1198L36.7985 47.9001L37.006 47.8146L38.8127 47.0741L39.0161 46.9927L39.2033 47.1147L40.1188 47.721C40.5964 48.0374 41.2397 47.9745 41.6447 47.5745L43.7931 45.4546C44.1959 45.0564 44.2594 44.4276 43.9437 43.9613L43.3252 43.0539L43.1991 42.8667L43.2845 42.6592L44.0332 40.8729L44.1227 40.6694L44.3384 40.6247L45.4248 40.4131C45.9888 40.3031 46.3926 39.8122 46.3932 39.2534V36.2505ZM35.3011 26.6069L35.3662 26.9406L35.6104 28.1735C35.6511 28.3763 35.795 28.5484 35.9928 28.6292L38.8452 29.797C39.0436 29.8778 39.2707 29.8532 39.4474 29.736L40.5013 29.0402L40.7821 28.853L41.0221 29.089L42.605 30.6515L42.8491 30.8916L41.9499 32.2222C41.8328 32.395 41.8091 32.6125 41.8888 32.804L43.0729 35.6198C43.1534 35.8118 43.3255 35.9572 43.5368 35.9982L45.1196 36.3034V39.1965L44.7819 39.2656L43.5368 39.5057C43.3262 39.5466 43.1537 39.6889 43.0729 39.88L41.8888 42.6999C41.8093 42.8908 41.8326 43.1089 41.9499 43.2817L42.6538 44.3234L42.8491 44.6082L42.605 44.8524L41.0221 46.4149L40.7821 46.6509L40.5013 46.4637L39.4474 45.7679C39.2707 45.6505 39.0436 45.6259 38.8452 45.7069L35.9928 46.8747C35.7949 46.956 35.6513 47.1275 35.6104 47.3304L35.3662 48.5592L35.3011 48.897H32.3836L32.3145 48.5592L32.0703 47.3304C32.0298 47.1279 31.8891 46.9559 31.6919 46.8747L28.8395 45.7069C28.6409 45.6254 28.4143 45.6503 28.2373 45.7679L27.1834 46.4637L26.8986 46.6509L26.6585 46.4149L25.0798 44.8524L24.8315 44.6082L25.0269 44.3234L25.7349 43.2817C25.8521 43.109 25.8718 42.8912 25.7918 42.6999L24.6118 39.88C24.5314 39.6891 24.3581 39.5471 24.1479 39.5057L22.9028 39.2616L22.5651 39.1965V36.3034L24.1439 35.9982C24.3545 35.9568 24.5316 35.8114 24.6118 35.6198L25.7918 32.804C25.8721 32.6128 25.8519 32.395 25.7349 32.2222L25.0269 31.1805L24.8315 30.8916L25.0798 30.6475L26.6585 29.089L26.8986 28.853L27.1834 29.0402L28.2373 29.736C28.4149 29.8531 28.6413 29.8783 28.8395 29.797L31.6919 28.6292C31.889 28.5482 32.0296 28.3757 32.0703 28.1735L32.3145 26.9406L32.3836 26.6069H35.3011ZM32.8882 28.3363C32.7922 28.8164 32.4585 29.2129 32.0052 29.3983L29.1528 30.5661C28.6997 30.7513 28.1814 30.7018 27.7734 30.4318L27.0003 29.9191L25.9098 30.9974L26.4225 31.7542C26.6981 32.16 26.7509 32.6774 26.5609 33.1296L25.3809 35.9453C25.1915 36.3963 24.7869 36.7223 24.3066 36.8161L23.3993 36.987V38.5088L24.3066 38.6878C24.787 38.7817 25.1916 39.1073 25.3809 39.5586L26.5609 42.3744C26.751 42.8267 26.6984 43.3438 26.4225 43.7497L25.9098 44.5024L27.0003 45.5807L27.7734 45.0721C28.1814 44.8011 28.6997 44.7524 29.1528 44.9378L32.0052 46.1016C32.459 46.287 32.7923 46.687 32.8882 47.1676L33.0672 48.0628H34.6175L34.7965 47.1676L34.9105 46.8258C35.0657 46.5025 35.3357 46.2411 35.6755 46.1016L38.5278 44.9378C38.9811 44.752 39.499 44.801 39.9072 45.0721L40.6763 45.5848L41.7708 44.5024L41.2581 43.7497C40.9833 43.3441 40.9303 42.826 41.1198 42.3744L42.3039 39.5586C42.4934 39.1072 42.8973 38.7812 43.3781 38.6878L44.2855 38.5129V36.987L43.3781 36.8161C42.8976 36.7227 42.4936 36.3963 42.3039 35.9453L41.1198 33.1255C40.9315 32.6742 40.9839 32.1593 41.2581 31.7542L41.7708 30.9974L40.6763 29.915L39.9072 30.4318C39.4991 30.7023 38.9812 30.752 38.5278 30.5661L35.6755 29.3983C35.223 29.2127 34.8926 28.8157 34.7965 28.3363L34.6175 27.4411H33.0672L32.8882 28.3363ZM65.9326 46.1178H71.8978V45.9714H65.9326V46.1178ZM40.5908 37.752C40.5908 34.0841 37.5661 31.091 33.8403 31.091C30.115 31.0915 27.0939 34.0845 27.0939 37.752C27.094 41.4194 30.1151 44.4124 33.8403 44.4129C37.5661 44.4129 40.5907 41.4197 40.5908 37.752ZM38.479 37.752C38.479 35.2334 36.4026 33.1743 33.8403 33.1743C31.2781 33.1749 29.2017 35.2338 29.2017 37.752C29.2018 40.2705 31.2782 42.329 33.8403 42.3296C36.4025 42.3296 38.4789 40.2709 38.479 37.752ZM64.5736 43.0539H73.2568V42.8545H64.5736V43.0539ZM73.0412 23.2012C74.0754 22.7961 75.1573 22.9959 75.9017 23.7749C77.0121 24.9377 76.9407 26.8892 76.0075 28.8652C75.2434 30.4829 73.912 31.7115 72.2762 32.4216V39.937H73.2812C73.4731 37.2273 74.8562 35.336 76.1214 33.5934C77.606 31.5473 79.0714 29.5154 79.0714 25.9803C79.0709 22.9413 77.7675 20.7491 75.861 19.3071C73.9409 17.8549 71.3892 17.1546 68.9152 17.1546C66.442 17.1548 63.8932 17.856 61.9735 19.3071C60.0668 20.7491 58.7636 22.9413 58.763 25.9803C58.763 29.5154 60.2281 31.5474 61.7131 33.5934C62.9776 35.3356 64.357 37.2277 64.5492 39.937H65.5583V32.4216C63.9208 31.7116 62.5874 30.4839 61.8229 28.8652C60.8897 26.8892 60.8188 24.9373 61.9287 23.7749C62.6734 22.9948 63.7585 22.7948 64.7933 23.2012C66.4399 23.8479 67.9841 26.0791 68.3903 30.1633C68.7434 30.1979 69.0829 30.1976 69.436 30.1633C69.8419 26.0776 71.394 23.8472 73.0412 23.2012ZM70.1644 40.7712H67.666V32.1937L68.1258 32.2384C68.3841 32.2642 68.6475 32.2791 68.9152 32.2791C69.1831 32.2791 69.4483 32.264 69.7087 32.2384L70.1644 32.1937V40.7712ZM68.9152 33.1133C68.776 33.1133 68.638 33.0952 68.5002 33.0889V39.937H69.3302V33.0889C69.1927 33.0953 69.0546 33.1133 68.9152 33.1133ZM63.7842 25.0811C63.9565 25.0927 64.201 25.1943 64.4678 25.4269C65.2114 26.0759 65.8965 27.4957 66.2093 29.6668L66.3395 30.5702L65.5705 30.0778C64.8269 29.5979 64.1741 28.911 63.7353 27.9823C63.3912 27.253 63.2504 26.6609 63.2227 26.2122C63.2088 25.989 63.2218 25.7966 63.2552 25.6385C63.2849 25.4985 63.3413 25.3279 63.4587 25.2072L63.5929 25.0688L63.7842 25.0811ZM74.3717 25.2072C74.4886 25.3278 74.5455 25.4985 74.5752 25.6385C74.6086 25.7965 74.6256 25.9889 74.6118 26.2122C74.5842 26.6607 74.4431 27.2535 74.0991 27.9823C73.6604 28.911 73.0037 29.5982 72.2599 30.0778L71.4909 30.5702L71.6211 29.6668C71.9337 27.4937 72.6219 26.0753 73.3667 25.4269C73.6347 25.1933 73.8736 25.0939 74.0422 25.0811L74.2375 25.0688L74.3717 25.2072ZM73.7695 26.1919C73.3844 26.6092 72.9614 27.4059 72.6628 28.6496C72.9267 28.3578 73.1612 28.0203 73.3464 27.6283C73.6447 26.9965 73.7448 26.516 73.7695 26.1919ZM64.0568 26.1919C64.0816 26.5161 64.1897 26.9959 64.4881 27.6283C64.6722 28.0179 64.9015 28.355 65.1636 28.6455C64.8642 27.4025 64.4417 26.608 64.0568 26.1919ZM59.1455 80.0412C59.1455 80.8513 58.4835 81.4969 57.6766 81.4979H51.2028C50.3955 81.4971 49.7339 80.8512 49.7339 80.0412C49.7339 79.2318 50.3954 78.5852 51.2028 78.5845H57.6766C58.4835 78.5855 59.1455 79.2317 59.1455 80.0412ZM56.1385 76.3262C56.1379 77.1355 55.4731 77.7828 54.6655 77.7829H51.2028C50.3958 77.7821 49.7345 77.1351 49.7339 76.3262C49.7339 75.5162 50.3955 74.8661 51.2028 74.8654H54.6655C55.4734 74.8655 56.1385 75.5158 56.1385 76.3262ZM48.859 80.6841C48.8588 81.4941 48.1974 82.1406 47.3901 82.1408H42.3242C41.5177 82.1398 40.8556 81.4936 40.8553 80.6841V75.6833C40.8553 74.8734 41.5177 74.2235 42.3242 74.2225H47.3901C48.1973 74.2227 48.859 74.8728 48.859 75.6833V80.6841ZM59.1455 70.772C59.1455 71.582 58.4835 72.2318 57.6766 72.2328H51.2028C50.3955 72.232 49.7339 71.582 49.7339 70.772C49.7342 69.9623 50.3957 69.316 51.2028 69.3153H57.6766C58.4833 69.3162 59.1452 69.9622 59.1455 70.772ZM56.1385 67.057C56.1382 67.8671 55.4732 68.5136 54.6655 68.5137H51.2028C50.3957 68.5129 49.7342 67.8667 49.7339 67.057C49.7339 66.247 50.3955 65.5969 51.2028 65.5962H54.6655C55.4734 65.5963 56.1385 66.2466 56.1385 67.057ZM48.859 71.4149C48.859 72.2251 48.1976 72.8755 47.3901 72.8757H42.3242C41.5175 72.8746 40.8553 72.2246 40.8553 71.4149V66.4141C40.8553 65.6047 41.5176 64.9543 42.3242 64.9533H47.3901C48.1974 64.9535 48.859 65.6042 48.859 66.4141V71.4149ZM60.8748 84.7572C60.8738 85.3638 60.3748 85.8476 59.7721 85.8477H40.2287C39.6261 85.8475 39.127 85.3638 39.126 84.7572V61.0674C39.126 60.4593 39.6256 59.9729 40.2287 59.9728H44.1024V60.7907C44.1026 61.1304 44.3805 61.4164 44.7371 61.4173H55.2637C55.6206 61.4167 55.9023 61.1305 55.9025 60.7907V59.9728H59.7721C60.3747 59.9728 60.8748 60.459 60.8748 61.0674V84.7572ZM62.9826 81.62C69.948 78.8755 75.6676 74.0775 79.5272 68.0702L49.9984 51.2244L20.4696 68.0702C24.3291 74.0783 30.0521 78.8752 37.0182 81.62V61.0674C37.0182 59.3104 38.4625 57.8896 40.2287 57.8895H43.3862C43.5236 57.4431 43.781 57.0409 44.1553 56.7298C44.7251 56.2575 45.4468 56.0667 46.1776 56.1927L46.7879 56.2985C47.3356 55.0766 48.5693 54.2233 50.0024 54.2233C51.4339 54.224 52.6611 55.078 53.2088 56.2985L53.8232 56.1927L54.3685 56.1561C54.9061 56.1792 55.4185 56.3757 55.8455 56.7298C56.2206 57.0413 56.4773 57.4432 56.6146 57.8895H59.7721C61.5383 57.8896 62.9826 59.3104 62.9826 61.0674V81.62ZM51.4103 57.979C51.4103 58.1614 51.4911 58.3359 51.6341 58.4551C51.7785 58.5749 51.9718 58.6298 52.159 58.5975L54.1366 58.2557L54.6248 58.1703V60.1641H45.376V58.1703L45.8643 58.2557L47.8418 58.5975C48.0285 58.6298 48.2223 58.5749 48.3667 58.4551C48.5099 58.3358 48.5905 58.1616 48.5905 57.979V57.7023C48.5907 56.9272 49.2302 56.3066 50.0024 56.3066C50.7738 56.3076 51.4101 56.9278 51.4103 57.7023V57.979ZM15.0293 49.548C15.0293 55.2616 16.4442 60.7185 18.9925 65.5433L48.5295 48.7017V15.0469C29.9213 15.8118 15.0293 30.9945 15.0293 49.548ZM70.5998 49.0964C70.5998 49.4575 70.3018 49.7473 69.9487 49.7474H67.8817C67.5291 49.7467 67.2306 49.4572 67.2306 49.0964V48.2012H70.5998V49.0964ZM72.7319 46.3009C72.7319 46.6626 72.4304 46.952 72.0768 46.952H65.7536C65.4 46.952 65.0985 46.6626 65.0985 46.3009V45.1372H72.7319V46.3009ZM74.091 43.237C74.091 43.5991 73.7885 43.888 73.4359 43.888H64.3945C64.0405 43.888 63.7394 43.5977 63.7394 43.237V42.0203H74.091V43.237ZM39.3132 37.752C39.313 40.7407 36.8531 43.1637 33.8403 43.1637C30.8276 43.1632 28.3676 40.7404 28.3675 37.752C28.3675 34.7639 30.8276 32.3407 33.8403 32.3402C36.8531 32.3402 39.3132 34.7635 39.3132 37.752ZM41.425 37.752C41.4248 41.8896 38.0166 45.2471 33.8403 45.2471C29.6645 45.2465 26.2599 41.8892 26.2598 37.752C26.2598 33.6146 29.6645 30.2574 33.8403 30.2568C38.0167 30.2568 41.425 33.6142 41.425 37.752ZM47.2274 39.2534C47.2268 40.2179 46.532 41.046 45.5835 41.231L44.7127 41.3978L44.139 42.769L44.6313 43.4933C45.1741 44.2932 45.0661 45.365 44.3791 46.0446L42.2306 48.1686C41.5441 48.8462 40.4642 48.9501 39.659 48.4168L38.9266 47.9286L37.5269 48.5023L37.36 49.3527C37.1722 50.2987 36.3284 50.9795 35.3621 50.9803H32.3226C31.3553 50.9803 30.5137 50.2991 30.3247 49.3527L30.1497 48.5023L28.7541 47.9286L28.0216 48.4168C27.217 48.9501 26.1362 48.8464 25.45 48.1686L23.3016 46.0446C22.6152 45.365 22.5077 44.2925 23.0493 43.4933L23.5376 42.7731L22.9639 41.3978L22.0972 41.231C21.1483 41.0455 20.4539 40.2174 20.4533 39.2534V36.2505C20.4537 35.2862 21.1488 34.4584 22.0972 34.273L22.9639 34.1021L23.5376 32.7267L23.0493 32.0106C22.507 31.211 22.6139 30.1351 23.3016 29.4552L25.45 27.3353C26.1361 26.6571 27.2164 26.5539 28.0216 27.0871L28.7581 27.5713L30.1497 26.9976L30.3247 26.1512C30.5132 25.205 31.3554 24.5236 32.3226 24.5236H35.3621C36.3285 24.5244 37.1717 25.205 37.36 26.1512L37.5269 26.9976L38.9225 27.5713L39.659 27.0871C40.4635 26.5538 41.544 26.6568 42.2306 27.3353L44.3791 29.4552C45.0665 30.1348 45.1739 31.2109 44.6313 32.0106L44.139 32.7308L44.7127 34.1021L45.5835 34.273C46.5325 34.4579 47.227 35.2858 47.2274 36.2505V39.2534ZM56.6512 25.9803C56.6512 30.1867 58.3977 32.6032 59.9959 34.806C61.2681 36.5589 62.4658 38.189 62.4658 40.584V43.237C62.4658 43.994 62.9192 44.6536 63.5807 44.9582L63.8249 45.0721V46.3009C63.8249 47.2844 64.5903 48.104 65.5745 48.193L65.953 48.2297V49.0964C65.953 50.1384 66.8143 50.9959 67.8817 50.9966H69.9487C71.0167 50.9962 71.8774 50.1386 71.8774 49.0964V48.2297L72.2559 48.193C73.2403 48.1042 74.0055 47.2845 74.0055 46.3009V45.0721L74.2497 44.9582C74.912 44.6531 75.3646 43.9939 75.3646 43.237V40.584C75.3646 38.1896 76.5623 36.5589 77.8345 34.806C78.5897 33.7648 79.368 32.6894 79.987 31.4002L80.3206 30.7085L80.7194 31.3636C84.0533 36.8456 85.8057 43.0902 85.8057 49.548C85.8056 55.5532 84.2817 61.2842 81.5413 66.3205L81.3379 66.6948L50.8488 49.3079L50.6372 49.1899V14.1802L51.0685 14.1924C54.7438 14.2974 58.3289 14.9467 61.7659 16.1292L62.6286 16.4263L61.8433 16.8861C61.3798 17.1562 60.9379 17.4524 60.5249 17.7772C57.9941 19.768 56.6517 22.5957 56.6512 25.9803ZM79.9056 25.9803C79.9056 29.802 78.2873 32.0219 76.7928 34.0817C75.4555 35.9236 74.1627 37.7245 74.095 40.3643L74.0828 40.7712H71.4421V32.1489L71.4461 31.8682L71.7065 31.7624C73.2806 31.1467 74.546 30.0085 75.2547 28.5072C76.1384 26.6355 76.045 25.1293 75.2995 24.3486C74.8095 23.8366 74.091 23.6847 73.3423 23.9784C72.0987 24.4675 70.5751 26.3863 70.2336 30.5783L70.2091 30.9038L69.8836 30.9526C69.2236 31.0526 68.6104 31.0525 67.9508 30.9526L67.6213 30.9038L67.5968 30.5783C67.2548 26.3853 65.7318 24.467 64.4881 23.9784C63.8331 23.7212 63.2019 23.805 62.7262 24.1737L62.5309 24.3486C61.7859 25.1288 61.6922 26.6357 62.5757 28.5072C63.2843 30.0083 64.5498 31.1466 66.1239 31.7624L66.3883 31.8682V40.7712H63.7476L63.7394 40.3643C63.6713 37.7237 62.3747 35.9239 61.0376 34.0817C59.5426 32.0219 57.9289 29.802 57.9289 25.9803C57.9294 22.6684 59.3635 20.2362 61.4689 18.6439C63.5614 17.0614 66.2979 16.3206 68.9152 16.3205C71.5322 16.3205 74.269 17.0616 76.3615 18.6439C78.4668 20.2361 79.905 22.6684 79.9056 25.9803ZM82.0133 25.9803C82.0133 27.0865 81.8906 28.0792 81.6919 28.9832C85.7639 35.0945 87.9175 42.1904 87.9175 49.548C87.9174 57.5711 85.3854 65.2245 80.5973 71.6753C76.1191 77.7087 70.0419 82.2078 62.9826 84.745V84.7572C62.9815 86.5134 61.5376 87.9309 59.7721 87.931H40.2287C38.4632 87.9309 37.0193 86.5133 37.0182 84.7572V84.745C29.959 82.2079 23.8856 77.7082 19.4076 71.6753C14.619 65.2243 12.0875 57.5715 12.0874 49.548C12.0874 39.5422 16.0304 30.1322 23.1917 23.0588C30.3524 15.9852 39.8776 12.0928 50.0024 12.0928C54.9869 12.093 59.8234 13.0383 64.3905 14.8923C65.8149 14.4643 67.3413 14.2372 68.9152 14.2371C72.2793 14.2371 75.4453 15.2531 77.8223 17.1221C80.5642 19.2789 82.0128 22.3535 82.0133 25.9803Z" fill="#113C7B"/>
</svg>
