<svg width="76" height="72" viewBox="0 0 76 72" fill="none" xmlns="http://www.w3.org/2000/svg">
<path d="M21.4191 61.2136C23.0454 61.2136 24.6677 61.2136 26.2875 61.216L31.0996 61.2185L51.1911 61.2344C55.3095 61.2392 59.4031 61.2392 63.4953 61.231C64.6434 61.2281 64.8427 61.0263 64.8427 61.0263C64.8427 61.0263 65.0192 60.8022 64.9119 59.7399C64.6587 57.2506 63.5947 54.841 61.8349 52.7729C59.95 50.5555 57.8851 47.9469 57.2512 45.0352C55.9325 38.9866 55.0939 32.9404 54.2113 26.2318C54.1524 25.7812 54.0817 25.3389 53.9986 24.9082C52.6636 17.9117 46.2529 12.8429 38.7495 12.8429C38.7366 12.8429 38.7252 12.8429 38.7129 12.8429L38.2743 12.8444C30.4351 12.8627 23.8182 18.4704 22.8802 25.8894L21.4225 25.9227L22.856 26.084C22.6607 27.7398 22.4792 29.398 22.2962 31.0553C22.0139 33.6199 21.7301 36.1854 21.4028 38.7452C20.8455 43.1022 19.6084 48.6964 14.9619 53.318C13.9102 54.3673 13.0216 56.1178 12.3937 58.3854C12.1667 59.2005 12.2651 59.933 12.6701 60.4478C13.0632 60.949 13.7401 61.2233 14.5747 61.2233H14.5901C16.868 61.216 19.146 61.2136 21.4191 61.2136ZM56.467 64.0539C54.7107 64.0539 52.9534 64.0539 51.1896 64.0525L26.2851 64.0327C22.406 64.0317 18.5017 64.0279 14.6 64.0414C14.6 64.0414 14.5836 64.0414 14.5747 64.0414C12.8224 64.0414 11.3335 63.3755 10.3817 62.1654C9.42986 60.9538 9.14901 59.3091 9.60787 57.648C10.3768 54.8782 11.4848 52.7569 12.903 51.346C16.0571 48.2092 17.7957 44.2152 18.5408 38.3956C18.8662 35.8517 19.147 33.3036 19.4269 30.7549C19.6098 29.0895 19.7938 27.4245 19.9891 25.7614L20.0173 25.535C21.1328 16.7185 28.9779 10.047 38.2654 10.0272L38.7054 10.0263C38.7193 10.0263 38.7341 10.0263 38.748 10.0263C47.6423 10.0263 55.2442 16.0613 56.8349 24.391C56.9268 24.8739 57.0065 25.3689 57.0717 25.8735C57.9469 32.5194 58.7766 38.5037 60.0721 44.449C60.5463 46.6258 62.267 48.8702 64.0535 50.9727C66.1827 53.4735 67.4727 56.4094 67.7827 59.4627C67.8935 60.5487 67.9024 61.9225 66.9832 62.9163C66.0605 63.9149 64.6375 64.0453 63.5012 64.0477C61.1589 64.0525 58.8142 64.0539 56.467 64.0539Z" fill="#113C7B"/>
<path d="M33.0698 64.0386C34.8083 68.4376 37.5605 68.3836 38.5361 68.371C41.089 68.328 42.8666 66.9108 43.9356 64.0521L33.0698 64.0386ZM38.4189 71.1906C35.3933 71.1906 31.49 69.7366 29.7025 62.9811C29.5917 62.5586 29.6862 62.1105 29.9596 61.7662C30.2331 61.4214 30.6546 61.2185 31.0996 61.2185L45.862 61.2355C46.3016 61.2355 46.7179 61.4325 46.9914 61.7695C47.2638 62.1056 47.3647 62.5465 47.2648 62.9652C45.6627 69.6661 41.6625 71.135 38.5875 71.1891C38.5321 71.1906 38.4757 71.1906 38.4189 71.1906Z" fill="#113C7B"/>
<path d="M38.4809 3.23217C36.5619 3.23217 35.0024 4.75759 35.0024 6.62972C35.0024 8.50234 36.5619 10.0268 38.4809 10.0268C40.3984 10.0268 41.959 8.50234 41.959 6.62972C41.959 4.75759 40.3984 3.23217 38.4809 3.23217ZM38.4809 12.8434C34.9722 12.8434 32.1167 10.0563 32.1167 6.62972C32.1167 3.20223 34.9722 0.415039 38.4809 0.415039C41.9891 0.415039 44.8436 3.20223 44.8436 6.62972C44.8436 10.0563 41.9891 12.8434 38.4809 12.8434Z" fill="#113C7B"/>
<path d="M30.0861 31.0578C29.2896 31.0578 28.6438 30.4286 28.6438 29.6493V27.8259C28.6438 22.5296 33.0564 18.2194 38.4811 18.2194C39.2777 18.2194 39.923 18.8496 39.923 19.629C39.923 20.4069 39.2777 21.0375 38.4811 21.0375C34.6471 21.0375 31.5285 24.0831 31.5285 27.8259V29.6493C31.5285 30.4286 30.8827 31.0578 30.0861 31.0578Z" fill="#113C7B"/>
<path d="M63.6149 39.8598C63.2465 39.8598 62.8772 39.7222 62.5948 39.4474C62.0316 38.8974 62.0316 38.0061 62.5948 37.4556C64.1128 35.9731 64.9475 34.0044 64.9475 31.9092C64.9475 29.814 64.1128 27.8438 62.5948 26.3628C62.0316 25.8128 62.0316 24.92 62.5948 24.3695C63.1585 23.8195 64.0713 23.8195 64.6345 24.3695C66.6974 26.3841 67.8332 29.0616 67.8332 31.9092C67.8332 34.7567 66.6974 37.4348 64.6345 39.4474C64.3536 39.7222 63.9843 39.8598 63.6149 39.8598Z" fill="#113C7B"/>
<path d="M69.8225 43.1318C69.4546 43.1318 69.0848 42.9951 68.8024 42.7189C68.2392 42.1689 68.2392 41.2775 68.8024 40.727C71.2144 38.372 72.543 35.241 72.543 31.9096C72.543 28.5792 71.2144 25.4472 68.8024 23.0922C68.2392 22.5417 68.2392 21.6503 68.8024 21.1003C69.3661 20.5498 70.2789 20.5498 70.8436 21.1003C73.7999 23.9875 75.4272 27.8259 75.4272 31.9096C75.4272 35.9933 73.7999 39.8308 70.8436 42.7189C70.5612 42.9951 70.1919 43.1318 69.8225 43.1318Z" fill="#113C7B"/>
<path d="M12.2276 39.8598C11.8582 39.8598 11.4889 39.7222 11.2075 39.4474C9.14512 37.4348 8.00934 34.7567 8.00934 31.9092C8.00934 29.0616 9.14512 26.3841 11.2075 24.3695C11.7712 23.8195 12.684 23.8195 13.2472 24.3695C13.8109 24.92 13.8109 25.8128 13.2472 26.3628C11.7297 27.8438 10.895 29.814 10.895 31.9092C10.895 34.0044 11.7297 35.9731 13.2472 37.4556C13.8109 38.0061 13.8109 38.8974 13.2472 39.4474C12.9648 39.7222 12.5955 39.8598 12.2276 39.8598Z" fill="#113C7B"/>
<path d="M6.02025 43.1318C5.6504 43.1318 5.28103 42.9951 4.9987 42.7189C2.04281 39.8308 0.415039 35.9933 0.415039 31.9096C0.415039 27.8259 2.04281 23.9875 4.9987 21.1003C5.56387 20.5498 6.47615 20.5498 7.03983 21.1003C7.60352 21.6503 7.60352 22.5417 7.03983 23.0922C4.62834 25.4472 3.29973 28.5792 3.29973 31.9096C3.29973 35.241 4.62834 38.372 7.03983 40.727C7.60352 41.2775 7.60352 42.1689 7.03983 42.7189C6.7575 42.9951 6.38813 43.1318 6.02025 43.1318Z" fill="#113C7B"/>
<path d="M41.5405 6.62842C41.5398 4.99606 40.1767 3.6499 38.4806 3.6499C36.7832 3.65005 35.4215 4.99611 35.4207 6.62842C35.4207 8.26168 36.7826 9.61085 38.4806 9.611C40.1773 9.611 41.5405 8.26174 41.5405 6.62842ZM30.603 64.4491C31.4631 66.8281 32.6164 68.3423 33.8501 69.2871C35.3374 70.426 36.9737 70.7723 38.4196 70.7723C38.4772 70.7723 38.5295 70.7736 38.5783 70.7723C40.0539 70.7464 41.7299 70.3815 43.2251 69.2383C44.4566 68.2967 45.5854 66.8007 46.3867 64.4653L44.2098 64.4613C43.6686 65.8088 42.966 66.8649 42.0532 67.5944C41.1975 68.2782 40.1899 68.6617 39.0422 68.7622L38.5417 68.7866C38.0443 68.793 37.0219 68.8147 35.8968 68.2292C34.8089 67.6628 33.6805 66.5549 32.7962 64.4531L30.603 64.4491ZM33.7036 64.4572C34.4992 66.1935 35.4485 67.054 36.2834 67.4886C37.2116 67.9714 38.0513 67.9586 38.5295 67.9525L38.9689 67.9321C39.9702 67.8446 40.8182 67.514 41.5324 66.9434C42.2376 66.3797 42.8208 65.558 43.3024 64.4653L33.7036 64.4572ZM43.514 11.0514C42.9063 11.712 42.1689 12.2501 41.3371 12.6302C47.876 13.6457 53.1882 18.4458 54.4067 24.8291C54.4914 25.268 54.5626 25.7184 54.6224 26.1759C55.5051 32.885 56.3433 38.9168 57.6579 44.9463C58.2667 47.7428 60.263 50.2777 62.1541 52.5024C63.9632 54.6288 65.0653 57.1166 65.328 59.6965C65.3839 60.2506 65.3663 60.6122 65.328 60.848C65.3086 60.9667 65.2824 61.0588 65.2547 61.1287C65.2411 61.1629 65.2282 61.1929 65.214 61.2183C65.2068 61.2312 65.1968 61.244 65.1896 61.2549C65.1862 61.2599 65.1848 61.2665 65.1815 61.2712L65.1693 61.2834L65.1408 61.32L65.1367 61.3241L65.1245 61.3322C65.1198 61.3366 65.1135 61.34 65.1082 61.3444C65.0978 61.3533 65.088 61.364 65.0757 61.3729C65.0503 61.3912 65.0208 61.4119 64.9862 61.4299C64.9173 61.4655 64.8257 61.5 64.7054 61.5316C64.4666 61.5943 64.0918 61.648 63.4969 61.6496C59.4047 61.6578 55.3104 61.6544 51.1922 61.6496L47.3999 61.6455C47.6799 62.0619 47.7859 62.5691 47.6685 63.0615C47.6218 63.2567 47.5604 63.4443 47.5098 63.6312L51.1881 63.6353C52.9512 63.6367 54.7097 63.6353 56.4657 63.6353C58.8127 63.6353 61.1591 63.636 63.501 63.6312C64.6369 63.6287 65.889 63.4892 66.6789 62.6343C67.4624 61.787 67.4768 60.5859 67.3665 59.5052C67.0657 56.5421 65.8154 53.6823 63.737 51.2411C61.9602 49.15 60.164 46.8325 59.6639 44.5394C58.6893 40.0669 57.98 35.5722 57.3161 30.8024L56.6569 25.9277C56.5928 25.4321 56.5153 24.9453 56.425 24.471L56.2622 23.7142C54.7704 17.4933 49.7978 12.6889 43.514 11.0514ZM30.8634 61.6618C30.636 61.7144 30.4305 61.8415 30.2856 62.0239C30.0936 62.2657 30.0296 62.5795 30.1066 62.8744C30.1743 63.13 30.2529 63.3751 30.3263 63.6149L46.6512 63.6312C46.7212 63.3851 46.7958 63.1331 46.8587 62.8703C46.9284 62.5783 46.859 62.2683 46.6675 62.0321C46.5225 61.8535 46.3195 61.7291 46.0937 61.6781L45.8618 61.6537L31.0994 61.6333L30.8634 61.6618ZM33.4676 11.0758C26.6011 12.9117 21.3202 18.5587 20.4305 25.5859L20.402 25.8138C20.2071 27.4739 20.0233 29.1382 19.8405 30.8024C19.5608 33.3498 19.2792 35.9008 18.9534 38.4481C18.2003 44.3301 16.4337 48.4196 13.1958 51.6398C11.8466 52.9823 10.7673 55.0306 10.0098 57.7596C9.58186 59.3092 9.84823 60.8125 10.7056 61.9059C11.5668 63.0008 12.9305 63.6231 14.5752 63.6231L29.4556 63.6149C29.4049 63.4419 29.3486 63.2661 29.3009 63.0859C29.1694 62.5837 29.2703 62.0615 29.5573 61.6333H26.2858C24.6667 61.6309 23.0452 61.6292 21.4193 61.6292C19.1465 61.6292 16.8689 61.6342 14.5915 61.6414H14.5752C13.6565 61.6414 12.837 61.3377 12.3413 60.7056C11.8315 60.0571 11.7403 59.1741 11.9914 58.2723C12.6285 55.9723 13.5449 54.1446 14.6688 53.0233C19.2158 48.5005 20.4345 43.0194 20.988 38.6922C21.3148 36.1367 21.6008 33.5749 21.8831 31.0099C22.0508 29.4911 22.2145 27.9688 22.3918 26.4486L21.3745 26.3387L21.4111 25.5046L22.5179 25.4761C23.5216 18.8583 28.9199 13.7302 35.6445 12.6424C34.8138 12.2663 34.0766 11.7314 33.4676 11.0758ZM38.2772 13.2609C30.6327 13.2788 24.2058 18.7448 23.2951 25.9399L23.2707 26.1312L22.7091 31.0994C22.568 32.3812 22.4292 33.6658 22.2819 34.9487L21.818 38.798C21.292 42.9108 20.1557 48.1853 16.1051 52.7181L15.2547 53.6133C14.2759 54.5903 13.4156 56.2628 12.797 58.4961C12.5945 59.2234 12.6975 59.8078 12.9964 60.1888C13.2869 60.5592 13.8246 60.8073 14.5752 60.8073H14.5874C16.866 60.8001 19.1459 60.7951 21.4193 60.7951C23.0454 60.7951 24.6697 60.7967 26.2899 60.7992H29.5695V60.7259H47.4162V60.8154L51.1922 60.8195C55.3095 60.8243 59.402 60.8236 63.4928 60.8154C64.0453 60.814 64.346 60.7648 64.4938 60.7259L64.502 60.7218L64.506 60.7137C64.5175 60.6426 64.5292 60.5363 64.5304 60.3841L64.4979 59.7819C64.254 57.3845 63.2286 55.0529 61.5194 53.0436C59.6411 50.834 57.5034 48.1518 56.8441 45.1253C55.8518 40.5743 55.1304 36.0251 54.4596 31.2052L53.7964 26.2858C53.7386 25.8433 53.6702 25.4094 53.5889 24.9878C52.3752 18.6272 46.8279 13.8858 40.1082 13.3179L38.7492 13.2609H38.2772ZM2.88493 31.9092C2.88504 28.4652 4.25992 25.2268 6.75049 22.7946C7.14585 22.4078 7.14527 21.7852 6.75049 21.3989C6.39944 21.0561 5.85343 21.0117 5.45247 21.2687L5.28971 21.3989C2.41333 24.2086 0.83019 27.9395 0.830078 31.9092C0.830078 35.8788 2.41345 39.6087 5.28971 42.4194C5.48955 42.6149 5.75454 42.7165 6.02214 42.7165C6.28681 42.716 6.55092 42.6147 6.75049 42.4194C7.14499 42.033 7.14613 41.4104 6.75049 41.0238C4.25983 38.5914 2.88493 35.3544 2.88493 31.9092ZM75.0122 31.9092C75.0121 28.1876 73.6215 24.6755 71.0775 21.936L70.5526 21.3989C70.1496 21.0061 69.4935 21.0067 69.0918 21.3989C68.6975 21.7852 68.6969 22.4078 69.0918 22.7946C71.5829 25.2268 72.9613 28.4651 72.9614 31.9092C72.9614 35.3544 71.583 38.5914 69.0918 41.0238C68.6966 41.4104 68.6978 42.033 69.0918 42.4194C69.2917 42.615 69.5587 42.7165 69.8242 42.7165C70.0906 42.7161 70.3531 42.6146 70.5526 42.4194C73.4293 39.6087 75.0122 35.8788 75.0122 31.9092ZM10.4777 31.9092C10.4777 29.7008 11.3594 27.6245 12.9557 26.0661C13.3518 25.6797 13.3521 25.0534 12.9557 24.6663C12.5547 24.2756 11.9007 24.2754 11.499 24.6663C9.51576 26.6036 8.42692 29.1754 8.42692 31.9092C8.42692 34.6428 9.51618 37.2127 11.499 39.148C11.6983 39.3426 11.9609 39.4449 12.2274 39.445C12.4921 39.445 12.7549 39.3433 12.9557 39.148C13.3514 38.7615 13.352 38.1392 12.9557 37.7523C11.3596 36.1926 10.4777 34.1177 10.4777 31.9092ZM67.4154 31.9092C67.4154 29.1754 66.327 26.6036 64.3433 24.6663C63.9423 24.2755 63.2883 24.2754 62.8866 24.6663C62.4905 25.0534 62.4908 25.6796 62.8866 26.0661C64.4833 27.6244 65.3646 29.7009 65.3646 31.9092C65.3646 34.1177 64.4831 36.1926 62.8866 37.7523C62.4906 38.1393 62.4912 38.7615 62.8866 39.148C63.0873 39.3432 63.3497 39.445 63.6149 39.445C63.8815 39.445 64.1446 39.3423 64.3433 39.148L65.0431 38.3952C66.5812 36.569 67.4154 34.3018 67.4154 31.9092ZM39.506 19.6289C39.506 19.0887 39.0561 18.6361 38.4806 18.6361C33.2776 18.6363 29.062 22.7681 29.0609 27.8239V29.6509C29.0618 30.1899 29.5107 30.6397 30.0863 30.6397C30.6617 30.6396 31.1107 30.1898 31.1117 29.6509V27.8239C31.1128 23.8427 34.4268 20.622 38.4806 20.6217C39.0563 20.6217 39.506 20.1676 39.506 19.6289ZM38.5254 10.4411L38.4806 10.4452C38.4684 10.4451 38.4562 10.4412 38.444 10.4411L38.265 10.4452C36.9477 10.448 35.6611 10.5894 34.4198 10.8521C35.4827 11.8244 36.9075 12.4267 38.4806 12.4268C40.0652 12.4268 41.4968 11.8127 42.5618 10.8276C41.3303 10.5747 40.0541 10.4412 38.7492 10.4411H38.5254ZM3.71501 31.9092C3.71501 35.1268 5.00004 38.152 7.33236 40.4297C8.06208 41.1435 8.06276 42.3043 7.33236 43.0176C6.96821 43.3738 6.49196 43.5461 6.02214 43.5466C5.55031 43.5466 5.07259 43.374 4.70784 43.0176C1.67284 40.0522 0 36.1067 0 31.9092C0.000112004 27.7119 1.67286 23.7652 4.70784 20.8008L5.00081 20.5688C5.72151 20.1051 6.69765 20.1809 7.33236 20.8008C8.06304 21.5139 8.0618 22.6747 7.33236 23.3887C5.00015 25.6663 3.71512 28.6927 3.71501 31.9092ZM11.3118 31.9092C11.3118 33.8907 12.0993 35.7531 13.5376 37.1582C14.2686 37.8721 14.2689 39.0325 13.5376 39.7461C13.1737 40.1002 12.6984 40.2751 12.2274 40.2751C11.7556 40.275 11.2804 40.1005 10.9172 39.7461C8.77545 37.6561 7.59277 34.8705 7.59277 31.9092C7.59278 28.9479 8.77564 26.1641 10.9172 24.0723C11.6426 23.3644 12.8125 23.3641 13.5376 24.0723C14.2685 24.7861 14.2687 25.9466 13.5376 26.6602C12.0995 28.0637 11.3119 29.9276 11.3118 31.9092ZM68.2495 31.9092C68.2495 34.8705 67.0674 37.656 64.9251 39.7461C64.5622 40.1007 64.0867 40.2751 63.6149 40.2751C63.1435 40.2751 62.6686 40.1001 62.3047 39.7461C61.574 39.0325 61.5743 37.8721 62.3047 37.1582C63.7434 35.7531 64.5304 33.8906 64.5304 31.9092C64.5304 29.9276 63.7433 28.0637 62.3047 26.6602C61.574 25.9466 61.5743 24.7861 62.3047 24.0723C63.0302 23.3644 64.2 23.3641 64.9251 24.0723C67.0671 26.1641 68.2495 28.9479 68.2495 31.9092ZM75.8423 31.9092C75.8423 36.1066 74.17 40.0521 71.1344 43.0176C70.7702 43.3736 70.2951 43.5461 69.8242 43.5466C69.3539 43.5466 68.8747 43.3744 68.5099 43.0176C67.78 42.3043 67.7807 41.1435 68.5099 40.4297C70.8427 38.152 72.1273 35.1268 72.1273 31.9092C72.1272 28.6927 70.8426 25.6663 68.5099 23.3887C67.781 22.6747 67.7797 21.5139 68.5099 20.8008C69.2354 20.0923 70.408 20.0932 71.1344 20.8008L71.6878 21.3704C74.3725 24.2618 75.8422 27.9745 75.8423 31.9092ZM40.3402 19.6289C40.3402 20.646 39.4982 21.4559 38.4806 21.4559C34.8682 21.4561 31.9469 24.3216 31.9458 27.8239V29.6509C31.9449 30.6691 31.1027 31.4737 30.0863 31.4738C29.0698 31.4738 28.2276 30.6691 28.2267 29.6509V27.8239C28.2278 22.2894 32.836 17.8022 38.4806 17.8019C39.4982 17.8019 40.3401 18.6105 40.3402 19.6289ZM42.3747 6.62842C42.3747 7.90101 41.734 9.02057 40.7593 9.71273C41.5932 9.79743 42.4124 9.93388 43.2129 10.1196C43.9701 9.14587 44.4255 7.93828 44.4255 6.62842C44.4247 3.44087 41.7676 0.830078 38.4806 0.830078C35.1932 0.830227 32.5325 3.44106 32.5317 6.62842C32.5317 7.94785 32.993 9.16667 33.7606 10.144C34.5594 9.95335 35.3773 9.81407 36.2101 9.72494C35.2289 9.03345 34.5866 7.90593 34.5866 6.62842C34.5873 4.51784 36.3412 2.81591 38.4806 2.81576C40.6187 2.81576 42.3739 4.51771 42.3747 6.62842ZM45.2596 6.62842C45.2596 8.00709 44.8285 9.28761 44.0918 10.3475C50.7422 12.2213 55.9438 17.5116 57.2428 24.3123C57.3363 24.8032 57.4206 25.309 57.487 25.8219C58.3621 32.4673 59.1865 38.435 60.4777 44.3604C60.9264 46.4203 62.576 48.5906 64.3717 50.7039C66.5508 53.2638 67.8773 56.2772 68.1966 59.4198C68.294 60.3742 68.3326 61.6776 67.6351 62.7523L67.2892 63.1999C66.234 64.3416 64.6373 64.4629 63.501 64.4653C61.1587 64.4702 58.8127 64.4694 56.4657 64.4694C54.7098 64.4694 52.9516 64.4709 51.1881 64.4694L47.2697 64.4653C46.4222 67.0815 45.1639 68.8049 43.7297 69.9015C42.0559 71.1806 40.1935 71.5743 38.5946 71.6024L38.5986 71.6065C38.5371 71.6081 38.4753 71.6065 38.4196 71.6065C36.8399 71.6065 35.009 71.2273 33.3415 69.9504C31.906 68.8509 30.6269 67.1084 29.716 64.4491L14.5752 64.4572C12.7151 64.4572 11.097 63.748 10.0545 62.4227C9.01021 61.0934 8.71896 59.3068 9.20817 57.5358C9.98838 54.7257 11.1231 52.5291 12.6099 51.0498C15.6796 47.9966 17.3903 44.099 18.1274 38.3423C18.4522 35.8028 18.7346 33.2578 19.0145 30.7088C19.1974 29.0436 19.3805 27.3766 19.576 25.7121L19.6045 25.4842C20.5235 18.2211 25.8912 12.3909 32.8857 10.3719C32.1385 9.30732 31.7017 8.01767 31.7017 6.62842C31.7024 2.96216 34.7518 0.000149518 38.4806 0C42.2092 0 45.2589 2.96218 45.2596 6.62842Z" fill="#113C7B"/>
</svg>
