<svg width="100" height="100" viewBox="0 0 100 100" fill="none" xmlns="http://www.w3.org/2000/svg">
<path d="M26.4501 81.6221C26.2744 82.1068 26.3913 82.6522 26.802 83.0155C27.0364 83.1971 27.2709 83.3185 27.5641 83.3185C27.7985 83.3185 27.9742 83.2578 28.1499 83.1369L48.079 70.5946H63.7289C66.6009 70.5946 68.8284 68.1711 68.8284 65.0201V58.7191C68.242 59.0823 67.4212 59.6885 66.4835 60.1732V65.0201C66.4835 66.7772 65.2525 68.1711 63.7289 68.1711H47.7271C47.4926 68.1711 47.3169 68.2313 47.1407 68.3527L30.0254 79.1379L33.7183 69.8068C33.894 69.4436 33.8358 69.0191 33.6013 68.6558C33.3669 68.292 33.015 68.1104 32.6048 68.1104H17.5995C16.0754 68.1104 14.8444 66.7772 14.8444 65.0201V32.3018C14.8444 30.4839 16.1929 28.7875 17.6582 28.7875H44.2687C44.3274 27.9998 44.5031 27.1513 44.6793 26.3635H17.6582C14.9032 26.3635 12.5 29.1508 12.5 32.3018V65.0201C12.5 68.1104 14.7275 70.5338 17.5995 70.5338H30.8462L26.4501 81.6221Z" fill="white"/>
<path d="M86.7048 31.1497C86.6466 31.0889 86.5879 30.968 86.5292 30.9073L83.4227 27.6961C81.9573 26.1813 79.8473 25.6966 77.913 26.3629C76.799 26.7267 75.6268 26.4237 74.8065 25.6359L74.7478 25.5757L68.8862 20.1829C64.6075 16.2446 58.5703 15.6385 53.764 18.2441C53.764 18.2441 53.764 18.2441 53.764 18.1834C52.1816 16.5477 49.6022 16.5477 48.0199 18.1834C46.437 19.8196 46.437 22.4854 48.0199 24.1211C48.0199 24.1211 48.0199 24.1211 48.0786 24.1211C45.558 29.0895 46.1444 35.391 49.9542 39.7538L55.1706 45.8124L55.2294 45.8731C56.0502 46.7216 56.3428 47.9333 55.9327 49.0843C55.2881 51.0838 55.757 53.2649 57.2224 54.7797L60.3289 57.9915C60.3876 58.0516 60.4458 58.1124 60.5633 58.1731C60.622 58.2338 60.6803 58.3547 60.739 58.4154C61.1491 58.8394 61.618 58.9609 62.2044 58.9609C64.9595 58.9609 69.6483 55.2042 73.048 52.1139C72.7548 52.0532 72.4616 51.993 72.169 51.9323C71.5826 51.7507 71.055 51.4476 70.6448 51.0838C66.4831 54.7797 63.4941 56.416 62.4388 56.5368C62.6145 55.2644 64.6663 51.4476 69.4139 46.0547C69.5896 46.9032 70.0002 47.691 70.6448 48.2966C71.5238 49.2058 72.6966 49.6905 73.927 49.6905C75.1579 49.6905 76.3302 49.2058 77.2097 48.2966C78.0887 47.3879 78.5576 46.1762 78.5576 44.9037C78.5576 43.6313 78.0887 42.4196 77.2097 41.5109C76.6233 40.9048 75.8613 40.4808 75.041 40.2384C80.2574 35.3303 83.9503 33.2099 85.1812 33.0283C85.005 34.1185 83.4227 37.1481 79.906 41.5109C80.3162 41.9349 80.5506 42.4803 80.7263 43.0859C80.7851 43.3889 80.8438 43.692 80.9026 43.9951C84.5361 39.693 89.108 33.4522 86.9393 31.2104C86.8811 31.2711 86.7636 31.2104 86.7048 31.1497ZM49.661 19.9405C50.1886 19.3951 51.0676 19.2742 51.7127 19.6374C51.3021 20.0012 50.8332 20.3645 50.4818 20.789C50.0711 21.213 49.7197 21.6369 49.3678 22.0614C49.0164 21.3344 49.0746 20.4859 49.661 19.9405ZM60.5633 54.9012L58.8635 53.144C58.0427 52.2955 57.7495 51.0838 58.1601 49.9328C58.8047 47.9333 58.3358 45.7522 56.8704 44.2976L51.654 38.239C47.7267 33.6946 47.9611 26.7875 52.1229 22.4854C56.2846 18.1834 62.9665 18.0018 67.3626 22.0007L73.2237 27.393C74.6891 28.8471 76.7408 29.3925 78.6751 28.7262C79.7886 28.3624 80.9608 28.6655 81.7816 29.4533L83.4814 31.2104C78.7333 33.0884 71.5238 40.4201 70.5279 41.5109C69.4726 42.6012 62.3801 49.9935 60.5633 54.9012ZM76.2719 45.0252C76.2719 45.6915 76.0375 46.2369 75.5686 46.7216C74.6891 47.6303 73.1655 47.6303 72.2859 46.7216C71.8758 46.2971 71.5826 45.6915 71.5826 45.0252C71.5826 44.419 71.817 43.8129 72.2859 43.3282C72.7548 42.8435 73.2824 42.6012 73.927 42.6012C74.5721 42.6012 75.0997 42.8435 75.5686 43.3282C76.0375 43.8129 76.2719 44.419 76.2719 45.0252Z" fill="white"/>
<path d="M44.0929 34.4222C43.624 33.9375 42.9794 33.6344 42.3343 33.6344H37.7042C37.0591 33.6344 36.4145 33.9375 35.9456 34.4222C35.4767 34.9068 35.301 35.5732 35.301 36.24L36.3558 50.7813C36.4733 52.0537 37.4698 53.0231 38.7002 53.0231H41.2796C42.5105 53.0231 43.5652 52.0537 43.624 50.7813L44.6792 36.24C44.7962 35.5732 44.5617 34.9068 44.0929 34.4222ZM41.3383 50.5997H38.7002L37.7042 36.0578H42.3343L41.3383 50.5997Z" fill="white"/>
<path d="M40.0487 54.2358C37.7625 54.2358 35.9457 56.1138 35.9457 58.4771C35.9457 60.8398 37.7625 62.7184 40.0487 62.7184C42.3343 62.7184 44.1517 60.8398 44.1517 58.4771C44.1517 56.1138 42.3343 54.2358 40.0487 54.2358ZM40.0487 60.2944C39.0522 60.2944 38.2901 59.5067 38.2901 58.4771C38.2901 57.447 39.0522 56.6592 40.0487 56.6592C41.0452 56.6592 41.8072 57.447 41.8072 58.4771C41.8072 59.5067 41.0452 60.2944 40.0487 60.2944Z" fill="white"/>
<path d="M14.3633 32.3039C14.3633 31.2808 14.7435 30.297 15.3276 29.5654C15.9082 28.8386 16.7379 28.3081 17.6592 28.3081H43.8351C43.8937 27.8192 43.9914 27.3223 44.0915 26.8433H17.6592C15.2308 26.8433 12.9798 29.3507 12.9798 32.3039V65.0187C12.9798 67.8808 15.0266 70.0556 17.5981 70.0561H31.5508L31.2904 70.7113L26.8958 81.7993C26.7927 82.0994 26.8643 82.4225 27.1074 82.6457C27.2943 82.7884 27.4235 82.8408 27.5632 82.841C27.6954 82.841 27.7776 82.8111 27.8765 82.7433L27.8927 82.7311L47.8228 70.1904L47.9408 70.1172H63.7285C66.2973 70.1172 68.3509 67.9455 68.3509 65.0187V59.6029C67.9453 59.8713 67.4672 60.1757 66.9634 60.4533V65.0187C66.9634 66.9794 65.5739 68.6523 63.7285 68.6523H47.7251C47.5926 68.6526 47.5106 68.6779 47.4118 68.7459L47.3955 68.7581L29.0402 80.3263L29.5814 78.9632L33.272 69.6289L33.2842 69.5963C33.3708 69.4152 33.3618 69.17 33.1987 68.9168C33.0544 68.6928 32.8553 68.5913 32.6047 68.5913H17.5981C15.7642 68.5907 14.3633 66.992 14.3633 65.0187V32.3039ZM43.6724 58.4757C43.6716 56.3627 42.0527 54.716 40.0469 54.716C38.0413 54.7168 36.4262 56.3632 36.4255 58.4757C36.4255 60.5885 38.0409 62.2388 40.0469 62.2396C42.0531 62.2396 43.6724 60.5889 43.6724 58.4757ZM41.3286 58.4757C41.3279 57.6959 40.7635 57.137 40.0469 57.137C39.331 57.1378 38.7699 57.6964 38.7692 58.4757C38.7692 59.2551 39.3305 59.8137 40.0469 59.8144C40.764 59.8144 41.3286 59.2557 41.3286 58.4757ZM61.0837 58.081C61.3727 58.3798 61.6952 58.4796 62.2026 58.4798C62.7925 58.4798 63.5307 58.2778 64.3836 57.8898C65.2301 57.5047 66.1563 56.9525 67.1139 56.2988C68.7698 55.1683 70.487 53.743 72.0171 52.3844C71.515 52.2276 71.0517 51.99 70.654 51.7008C68.6861 53.4252 66.9891 54.6953 65.6328 55.5542C64.9205 56.0053 64.2989 56.3485 63.7814 56.5877C63.2737 56.8224 62.8322 56.9759 62.4915 57.015L61.8812 57.0841L61.9626 56.4697C62.0168 56.0788 62.203 55.548 62.4997 54.9154C62.8014 54.2722 63.2342 53.4893 63.8058 52.5838C64.95 50.7716 66.6679 48.4511 69.0549 45.7397L69.6896 45.0195L69.8809 45.9595C69.9991 46.5293 70.2364 47.0625 70.5848 47.5179L70.9714 47.9492L70.9876 47.9614C71.775 48.7757 72.8241 49.2103 73.9255 49.2106C75.0279 49.2106 76.0749 48.7764 76.8633 47.9614C77.6512 47.1468 78.0795 46.0589 78.0799 44.9056C78.0799 43.7515 77.6518 42.6608 76.8633 41.8457C76.3435 41.3084 75.6597 40.9211 74.9061 40.6982L74.1045 40.4622L74.7108 39.8885C77.3341 37.4202 79.5848 35.6478 81.3392 34.4645C82.2157 33.8733 82.9739 33.426 83.5975 33.1136C84.2102 32.8067 84.7264 32.6129 85.1112 32.5561L85.7581 32.4585L85.6524 33.1055C85.548 33.749 85.0656 34.8475 84.2078 36.2874C83.3772 37.682 82.1589 39.4389 80.5132 41.5039C80.8267 41.9327 81.0226 42.4192 81.1683 42.9118C82.8022 40.93 84.5257 38.6609 85.6768 36.5967C86.3297 35.4257 86.7839 34.3524 86.9504 33.4595C87.0991 32.6604 87.0044 32.082 86.7062 31.6813C86.6918 31.6774 86.6765 31.681 86.6655 31.6772C86.6034 31.6557 86.5462 31.6258 86.4946 31.5918L86.3604 31.4819C86.3213 31.4412 86.2872 31.397 86.2668 31.368C86.2464 31.3388 86.227 31.3069 86.2139 31.2866C86.1988 31.2633 86.1892 31.249 86.1813 31.2378L86.1854 31.2419L83.0767 28.0273C81.7412 26.6481 79.826 26.2091 78.0677 26.8148L78.0596 26.8188C76.7698 27.2393 75.416 26.8845 74.4748 25.9806L74.4626 25.9725L74.4219 25.9277L68.5625 20.5363C64.4367 16.7388 58.6204 16.155 53.9914 18.6645L53.7635 18.2454H53.6984L53.4176 18.5181C52.0236 17.0771 49.7579 17.0771 48.3639 18.5181C47.0072 19.9213 46.9652 22.1824 48.2337 23.6409H48.8604L48.5064 24.3367C46.0701 29.1387 46.6394 35.2285 50.313 39.4368L50.3171 39.4409L55.5335 45.4997L55.5742 45.5404C56.5169 46.5153 56.8572 47.9191 56.384 49.2472C55.7991 51.0803 56.234 53.0684 57.568 54.4474L60.6727 57.6579L60.7297 57.7148C60.7402 57.7234 60.7559 57.7336 60.7826 57.7474L60.8517 57.784L60.9087 57.841C60.9473 57.8811 60.9777 57.9218 60.9982 57.9508L61.0837 58.081ZM51.7778 22.1517C56.1205 17.6628 63.097 17.4751 67.6836 21.6471L73.547 27.0386L73.5592 27.0508C74.9061 28.3872 76.7721 28.8734 78.5194 28.2715H78.5275C79.8164 27.8509 81.1706 28.2027 82.1123 29.1056L82.1245 29.1219L83.8254 30.8756L84.3218 31.3924L83.6585 31.6569C81.3695 32.5623 78.4324 34.811 75.9111 37.0158C73.405 39.2074 71.3682 41.3008 70.8818 41.8335L70.8737 41.8457C70.3496 42.3872 68.3222 44.4958 66.2025 47.0784C64.0703 49.6763 61.8882 52.6954 61.0104 55.0659L60.75 55.7821L60.217 55.2327L58.5202 53.479C57.5799 52.5071 57.2385 51.1095 57.7064 49.7843C58.2991 47.9446 57.862 45.9553 56.5345 44.637L56.506 44.6126L51.2896 38.5498C47.1984 33.8158 47.4454 26.6302 51.7778 22.1517ZM67.0366 22.3511C62.8309 18.529 56.445 18.7053 52.4655 22.819C48.7243 26.6872 48.296 32.7538 51.3587 37.085L52.0179 37.9272L57.2344 43.986C58.8167 45.5765 59.31 47.9342 58.6178 50.0814L58.6097 50.0936C58.2625 51.0668 58.5093 52.0896 59.2078 52.8117L60.4041 54.0446C61.4661 51.6461 63.5206 48.8375 65.4619 46.4722C67.605 43.861 69.6494 41.7286 70.182 41.1784C70.7063 40.6056 72.7612 38.4987 75.2804 36.2956C77.5835 34.2815 80.3293 32.1464 82.6616 31.0506L81.4491 29.7974C80.7497 29.1269 79.761 28.8772 78.8245 29.1829L78.8205 29.1789C76.7082 29.9026 74.4809 29.3058 72.9001 27.7466L67.0366 22.3511ZM42.3337 33.1543C43.1255 33.1543 43.8907 33.525 44.4373 34.0902C44.9899 34.6618 45.279 35.4564 45.1535 36.2711L44.0996 50.7975L44.1037 50.8016C44.0329 52.3343 42.7618 53.5031 41.2798 53.5034H38.7C37.2 53.5034 36.0187 52.3217 35.8802 50.826L35.8761 50.8179L34.8223 36.2752V36.2386C34.8225 35.4971 35.0167 34.6935 35.5994 34.0902C36.146 33.5252 36.9115 33.1545 37.7031 33.1543H42.3337ZM37.7031 34.1146C37.2057 34.1148 36.6819 34.3504 36.2912 34.7534C35.9411 35.1153 35.7816 35.6382 35.7785 36.2223L36.8324 50.7365C36.9292 51.7853 37.7395 52.5431 38.7 52.5431H41.2798C42.2586 52.5428 43.0958 51.7718 43.1434 50.7609L43.1475 50.7446L44.2013 36.206L44.2054 36.1572L44.2257 35.7829C44.1969 35.4079 44.03 35.0432 43.7497 34.7534C43.3586 34.3493 42.8319 34.1146 42.3337 34.1146H37.7031ZM42.8464 35.5794L42.8138 36.0921L41.8169 50.6307L41.7843 51.0783H38.2524L38.2199 50.6307L37.2271 36.0921L37.1904 35.5794H42.8464ZM39.1476 50.1221H40.8892L41.821 36.5356H38.2199L39.1476 50.1221ZM75.7931 45.0236C75.7927 44.5439 75.6066 44.0565 75.2235 43.6605C74.8356 43.2598 74.4274 43.0786 73.9255 43.0786C73.4249 43.0789 73.019 43.2604 72.6315 43.6605C72.2484 44.0565 72.0623 44.5439 72.0619 45.0236C72.0619 45.5492 72.2958 46.0391 72.6315 46.3867C73.3228 47.1008 74.5322 47.1008 75.2235 46.3867C75.6112 45.9857 75.7931 45.5573 75.7931 45.0236ZM49.3324 19.5882C50.0136 18.9009 51.1215 18.7521 51.9487 19.2179L52.5347 19.5516L52.0301 19.9951C51.5853 20.3891 51.17 20.7074 50.8501 21.0937L50.8257 21.1222C50.4298 21.5309 50.0885 21.9411 49.7352 22.3673L49.2591 22.9411L48.9377 22.2697C48.5193 21.4042 48.5547 20.3118 49.3324 19.5882ZM50.6344 19.9422C50.3988 19.9909 50.173 20.097 50.0037 20.2718L49.9875 20.2921C49.7874 20.4783 49.6648 20.7247 49.6335 21.0002C49.7923 20.819 49.9611 20.6376 50.138 20.4549C50.2893 20.2758 50.4595 20.1036 50.6344 19.9422ZM42.2848 58.4757C42.2848 59.7549 41.3228 60.7747 40.0469 60.7747C38.7717 60.7739 37.8089 59.7544 37.8089 58.4757C37.8096 57.1973 38.7721 56.1816 40.0469 56.1808C41.3224 56.1808 42.2841 57.1968 42.2848 58.4757ZM44.6286 58.4757C44.6286 61.088 42.612 63.1958 40.0469 63.1958C37.4818 63.195 35.4652 61.0875 35.4652 58.4757C35.4659 55.8641 37.4823 53.7565 40.0469 53.7557C42.6115 53.7557 44.6279 55.8635 44.6286 58.4757ZM76.7494 45.0236C76.7494 45.8222 76.4607 46.4859 75.9111 47.054C74.8432 48.1569 73.0076 48.1571 71.9398 47.054C71.4558 46.5527 71.1016 45.83 71.1016 45.0236C71.102 44.2921 71.386 43.5657 71.9398 42.9932C72.489 42.4255 73.1386 42.1227 73.9255 42.1224C74.7127 42.1224 75.3619 42.4261 75.9111 42.9932C76.465 43.5657 76.7489 44.2921 76.7494 45.0236ZM79.0361 44.9056C79.0357 46.2952 78.5234 47.6271 77.555 48.6287C76.5843 49.6322 75.2849 50.1709 73.9255 50.1709C72.567 50.1706 71.27 49.6321 70.3 48.6287C69.8171 48.1696 69.4604 47.6165 69.2176 47.0215C67.1494 49.4245 65.6378 51.4773 64.6156 53.0965C64.0599 53.9767 63.6511 54.724 63.3704 55.3223C63.2891 55.4957 63.2252 55.6588 63.167 55.8024C63.233 55.7742 63.3056 55.7507 63.3786 55.7169C63.8484 55.4998 64.4331 55.1795 65.1201 54.7445C66.4934 53.8748 68.2594 52.5581 70.3244 50.7243L70.6458 50.4435L70.9632 50.7243C71.3214 51.042 71.7882 51.3112 72.3101 51.473C72.5897 51.5309 72.8625 51.5855 73.1442 51.6439L74.0679 51.8351L73.368 52.4699C71.6618 54.0208 69.6224 55.7492 67.6551 57.0923C66.6717 57.7636 65.6958 58.3448 64.7824 58.7606C63.8753 59.1733 62.9902 59.4401 62.2026 59.4401C61.539 59.4399 60.9264 59.2962 60.396 58.7484C60.3562 58.7072 60.3231 58.6638 60.3024 58.6344C60.2816 58.6047 60.2628 58.5737 60.2495 58.553C60.241 58.5398 60.2347 58.5289 60.2292 58.5205C60.1894 58.4943 60.1496 58.4763 60.1193 58.4513L59.985 58.3252L56.8763 55.1147C55.2835 53.4682 54.78 51.0994 55.4766 48.938L55.4806 48.9217C55.8265 47.9493 55.5834 46.9292 54.8866 46.2077L54.8052 46.1263L49.5887 40.0675C45.7336 35.6485 45.0818 29.3209 47.4932 24.2432C45.9208 22.4109 45.9788 19.6055 47.6763 17.8507C49.3766 16.0934 52.1073 16.0253 53.8897 17.6432C58.8119 15.1578 64.8778 15.8478 69.2054 19.8283L75.0729 25.2238L75.138 25.2889C75.8366 25.9598 76.8252 26.213 77.7625 25.9074C79.8705 25.1838 82.1747 25.7166 83.7684 27.3641L86.8731 30.5745L86.8771 30.5786L86.9382 30.5216L87.284 30.8756C87.9803 31.5954 88.0883 32.5982 87.8944 33.6385C87.6998 34.6803 87.1878 35.858 86.515 37.0646C85.1659 39.4838 83.091 42.1473 81.27 44.3034L80.6231 45.0683L80.4318 44.0877C80.3759 43.7994 80.3209 43.5093 80.265 43.221L80.1307 42.81C79.9866 42.4225 79.8085 42.1017 79.561 41.8457L79.2681 41.5405L79.5326 41.2109C81.2793 39.0439 82.5424 37.2151 83.3859 35.7991C83.8797 34.9702 84.2099 34.2939 84.4235 33.7891C84.3024 33.8428 84.1671 33.8968 84.0247 33.9681C83.4469 34.2576 82.7245 34.6831 81.8722 35.258C80.2935 36.3229 78.2889 37.9018 75.9396 40.0675C76.5371 40.3364 77.0942 40.702 77.555 41.1784C78.524 42.1805 79.0361 43.5152 79.0361 44.9056ZM15.3236 65.0187C15.3236 66.5589 16.3848 67.6304 17.5981 67.631H32.6047C33.1742 67.6311 33.6799 67.8925 34.0044 68.396C34.3087 68.8677 34.414 69.4709 34.1509 70.0154L31.0096 77.946L46.8665 67.9565C47.1192 67.7824 47.3906 67.6923 47.7251 67.692H63.7285C64.9303 67.692 66.0031 66.5723 66.0031 65.0187V59.8795L66.2635 59.7493C67.1823 59.2745 67.9398 58.7064 68.5747 58.313L69.3071 57.8572V65.0187C69.3071 68.394 66.9039 71.0734 63.7285 71.0734H48.2174L28.4176 83.5286C28.1661 83.7015 27.8986 83.7972 27.5632 83.7972C27.1203 83.797 26.7843 83.6073 26.5093 83.3944L26.4849 83.374C25.9199 82.8743 25.7612 82.1182 26.0007 81.4575L26.0047 81.4453L30.1388 71.0124H17.5981C14.4266 71.0118 12.0195 68.3365 12.0195 65.0187V32.3039C12.0195 28.9549 14.5773 25.883 17.6592 25.883H45.2756L45.1453 26.4689C44.9692 27.2563 44.8024 28.0759 44.7466 28.8249L44.714 29.2684H17.6592C17.1151 29.2684 16.5364 29.5877 16.0763 30.1636C15.6205 30.7345 15.3236 31.5097 15.3236 32.3039V65.0187Z" fill="white"/>
</svg>
