<svg width="63" height="114" viewBox="0 0 63 114" fill="none" xmlns="http://www.w3.org/2000/svg">
<path d="M49.4509 81.041C48.7808 81.8065 48.1222 82.24 47.452 82.3438C47.05 82.4052 46.749 82.7411 46.749 83.1321C46.749 83.2462 46.7712 83.3595 46.8271 83.4633L47.4973 84.9054C47.5195 84.9542 47.5301 85.0069 47.5417 85.0604C47.776 86.8974 45.454 88.2467 44.7839 86.0706C44.728 85.8998 44.7617 85.715 44.8735 85.571C45.2526 85.0895 45.1966 84.6812 44.728 84.3476C44.7173 84.3476 44.7173 84.3468 44.7173 84.3468C44.4492 84.1556 44.3818 83.7851 44.5833 83.5255C44.5833 83.5231 44.5833 83.5223 44.5833 83.5208L46.1011 81.5287C46.4029 81.1196 46.749 80.7365 47.1281 80.3809C47.9766 79.5847 48.9255 78.5895 49.9755 77.3952C50.1095 77.2316 50.1876 77.0286 50.1876 76.8209C50.1983 75.5236 50.6004 74.3176 51.4045 73.2035C51.4489 73.139 51.4826 73.0643 51.4826 72.9856L51.7507 70.8669C51.7614 70.8182 51.7507 70.7702 51.7277 70.7293C51.3823 70.0283 51.3708 69.6097 51.7507 68.731C52.2975 67.5021 51.1809 67.3471 51.3823 66.2622C51.6273 64.9373 52.2416 63.8296 53.2126 62.9382C53.5366 62.6353 54.0052 62.5748 54.5973 62.7541C54.631 62.762 54.6532 62.7659 54.6754 62.7659C54.7979 62.7659 54.9097 62.6849 54.9434 62.5708L55.7804 59.3381C55.8364 59.1013 55.8364 58.8535 55.7582 58.6206C55.0437 56.347 55.6242 54.4352 56.6512 52.3567C57.0089 51.6329 57.1536 50.1688 57.9577 49.3592C58.1024 49.2184 58.1361 49.0052 58.0465 48.825L56.5846 45.8968C56.4284 45.6057 56.1488 45.3972 55.8142 45.3406L54.1286 45.0361C53.9271 45.0031 53.7602 44.9055 53.6262 44.7608L52.6995 43.6987C52.3863 43.3305 51.8395 43.2172 51.3823 43.4233C49.529 44.2667 48.3787 44.1684 48.2225 42.056C48.1781 41.4628 48.0218 40.9003 47.7423 40.3684C47.5417 39.9971 47.6083 39.5494 47.8878 39.2371C48.4231 38.629 49.6515 37.3993 49.5068 36.4639C49.4731 36.2939 49.5734 36.1248 49.7296 36.0501C50.1761 35.8549 50.4885 35.5914 50.6563 35.2578C50.7681 35.0493 50.7007 34.7976 50.5223 34.6497C49.2157 33.6159 50.69 32.531 51.717 31.7789C51.9069 31.6388 52.1519 31.5712 52.3978 31.5893C53.5366 31.6845 54.2174 32.0243 54.4295 32.6057C54.4632 32.7001 54.552 32.7647 54.6532 32.7647C54.7313 32.7647 54.8094 32.7316 54.8538 32.675L55.9704 31.3485C56.1044 31.188 56.1825 30.9906 56.1932 30.7852C56.1932 30.1197 55.7804 29.6484 55.8586 28.9765C56.037 27.4849 57.4216 27.1057 57.5556 26.1293C57.5779 25.9114 58.1805 25.0909 59.3753 23.6669C60.3241 22.5182 60.6925 21.0565 60.4918 19.28C60.4697 19.07 60.3134 18.8953 60.1013 18.8442L59.1516 18.6192C59.0406 18.5932 58.9288 18.5484 58.8285 18.487C57.656 17.7451 56.2606 16.971 54.631 16.1677C53.9386 15.8231 53.2907 15.3944 52.688 14.8822C52.4652 14.6958 52.2193 14.5573 51.9398 14.4739C50.9128 14.1568 50.0421 13.6132 49.3276 12.8438C49.1491 12.6471 48.9033 12.5189 48.6352 12.4819L47.776 12.2348C47.4973 12.1593 47.2292 12.0429 46.9834 11.891L36.2326 5.37375C36.1989 5.35172 36.1545 5.33126 36.1208 5.31632C34.3793 4.74987 32.7941 3.77196 31.3872 2.38338C31.3535 2.35112 31.3206 2.32437 31.2754 2.30156C31.0304 2.15837 30.7064 2.23862 30.5502 2.47778C30.528 2.51555 30.505 2.5541 30.4943 2.59579L29.9582 4.32267C29.9245 4.45327 29.8357 4.56656 29.7123 4.64445C29.1096 5.03073 28.451 5.17628 27.725 5.08108C27.6921 5.07715 27.6584 5.07479 27.6247 5.07479C27.2456 5.07479 26.9332 5.34307 26.888 5.69552L26.5196 8.59464C26.453 9.12961 26.0509 9.57176 25.5041 9.70314L24.3653 9.96748C24.242 9.99817 24.1639 10.1059 24.1639 10.2279C24.1639 10.2609 24.1639 10.2932 24.1754 10.3231C24.2313 10.4576 24.2979 10.5646 24.3875 10.6441C24.4763 10.7204 24.5438 10.8101 24.5997 10.9084C24.834 11.3954 24.5438 12.0146 23.9518 12.2813C23.8408 12.334 23.7067 12.3717 23.5834 12.3898C22.836 12.5008 22.512 12.8375 22.6008 13.4C22.6789 13.898 22.5786 14.2977 22.2777 14.6013C21.1948 15.6682 20.2788 16.3015 19.4977 16.5013C19.3193 16.5485 19.1622 16.6736 19.0956 16.8396L17.8902 19.6419C17.8228 19.7977 17.845 19.9747 17.9568 20.1061C19.788 22.3522 20.625 24.7801 18.3252 27.1513C18.2249 27.2504 18.0909 27.3102 17.9462 27.3181L16.8296 27.3637C16.6503 27.3724 16.5171 27.5093 16.5171 27.6737L16.4497 31.4744C16.4497 31.5728 16.4719 31.6695 16.5171 31.7561C17.142 32.8638 15.9251 33.9495 15.1662 34.7763C15.0544 34.9054 14.9984 35.0706 14.9984 35.2405L15.0881 37.0964C15.0988 37.4009 15.3668 37.6432 15.6908 37.6432C15.7574 37.6432 15.8248 37.6306 15.8914 37.607C16.5393 37.3694 17.1642 37.3025 17.7669 37.4056C17.9684 37.441 18.1468 37.5716 18.2471 37.7565L19.5084 40.3C19.6202 40.51 19.6424 40.7508 19.5758 40.9766L18.8835 43.5201C18.8498 43.6475 18.8613 43.7821 18.9172 43.9048C19.2963 44.7655 19.9105 45.195 20.7475 45.1911C22.2325 45.1793 22.1659 45.9377 23.3713 46.2359C25.3586 46.73 26.587 48.0289 27.0442 50.1349C27.0894 50.3513 27.2341 50.5338 27.4463 50.6282L29.8579 51.7595C30.1818 51.9153 30.4491 52.1773 30.6053 52.4999L31.7441 54.8656C31.7778 54.9261 31.8 54.9907 31.8115 55.0544C32.0573 56.5555 31.4768 57.9291 30.0363 59.1769C29.9138 59.2941 29.7345 59.3562 29.5561 59.3499C29.1096 59.3381 28.0827 59.6639 26.4859 60.3255C26.3075 60.4002 26.1627 60.5269 26.0731 60.6874C25.7607 61.2232 25.5263 61.7322 25.3471 62.2144C25.158 62.7203 24.9121 63.0413 24.5997 63.1798C24.3201 63.3009 24.1861 63.5354 24.1976 63.88C24.1976 64.2049 24.0529 64.4118 23.7511 64.4999C22.7686 64.7823 21.9644 64.7344 21.3395 64.3567C21.2055 64.2757 21.0493 64.2505 20.9046 64.2875C19.4418 64.625 18.7273 65.6359 18.7717 67.3251C18.7939 68.513 17.6666 69.38 16.8074 70.1833C16.5615 70.4185 16.2269 70.568 15.8807 70.6089C15.3002 70.6695 14.6523 70.6954 13.9378 70.6836C13.3351 70.6726 12.799 70.992 12.5646 71.4932C12.3525 71.9408 11.9397 72.2288 11.337 72.3594C11.1471 72.4042 10.935 72.3798 10.7565 72.2909C9.63995 71.7402 8.52335 72.1879 7.89845 73.2492C7.79732 73.4301 7.61889 73.6693 7.36236 73.9675C7.15022 74.2231 7.00468 74.5276 6.96028 74.8517C6.70375 76.3961 6.52532 77.47 5.35282 78.3425C4.58238 78.9223 4.42616 80.1559 3.28736 80.2259C3.10894 80.2361 2.9412 80.2991 2.80718 80.4037C2.46102 80.6767 2.39442 81.1676 2.67315 81.4926C2.78498 81.6184 2.93051 81.7073 3.09743 81.7467C3.56692 81.8576 3.92377 81.9402 4.18031 81.9937C4.35956 82.0323 4.49358 82.1668 4.53798 82.3383C4.82823 83.509 4.6827 84.3114 4.1022 84.7441C3.24296 85.3987 3.17554 86.231 2.38291 87.0005C2.2719 87.1067 2.21599 87.2522 2.21599 87.4041C2.21599 87.6613 2.39442 87.8887 2.66247 87.954C4.33653 88.371 5.84369 89.0405 7.16091 89.9633C7.30644 90.0624 7.38456 90.2292 7.36236 90.3992C7.29493 91.0537 7.40676 91.7484 7.70852 92.4832C7.70852 92.5005 7.71921 92.5171 7.73072 92.5336C7.96505 93.0379 8.60146 93.2605 9.13756 93.0292C9.14825 93.0213 9.15976 93.0143 9.18196 93.0064C9.36039 92.9183 9.58403 92.8624 9.85208 92.8396C10.1201 92.8168 10.3208 92.838 10.4433 92.9033C12.1626 93.786 13.1229 95.0063 13.3466 96.5609C13.4691 97.368 13.8597 97.9778 14.5183 98.3916C14.7863 98.5647 15.389 98.4372 15.847 98.5466C15.9473 98.5655 16.0928 98.7023 16.2598 98.9541C16.3494 99.08 16.4834 99.1303 16.6618 99.1036C16.7399 99.0918 16.8074 99.0556 16.8518 99.0005C17.6329 98.1807 18.4814 98.0942 19.4081 98.7417C19.464 98.7802 19.5314 98.8046 19.598 98.8164L22.7908 99.3844C23.1591 99.4521 23.4831 99.6409 23.7067 99.9186C25.0017 101.534 25.2583 103.412 24.4763 105.552C24.1754 106.39 23.974 106.992 23.8736 107.36C23.8177 107.574 23.8177 107.797 23.8736 108.009L24.6104 110.856C24.6441 110.992 24.7781 111.09 24.9236 111.09C25.0577 111.09 25.1802 110.998 25.2246 110.868L26.1734 107.744C26.2071 107.649 26.2515 107.559 26.3075 107.481L27.0335 106.493C27.2563 106.196 27.6362 106.048 28.0161 106.114C29.154 106.325 30.0585 106.187 30.7393 105.701C31.555 105.111 31.7112 104.459 31.2195 103.743C31.0748 103.542 31.0304 103.292 31.1077 103.059L32.0121 100.097C32.0902 99.8518 32.2465 99.6401 32.4701 99.5001L36.3667 97.0541C36.3996 97.0392 36.4226 97.0148 36.4333 96.9849C36.7013 96.5058 37.0475 96.0872 37.494 95.7277C37.6502 95.601 37.8508 95.531 38.0629 95.531C38.465 95.531 38.8227 95.8025 38.9115 96.1817C39.0455 96.7741 38.9896 97.3256 38.7446 97.8346C38.6665 97.9919 38.5324 98.1225 38.3762 98.2075C37.5384 98.6481 36.9357 99.15 36.5895 99.7117C36.467 99.91 36.2548 100.043 36.0205 100.068C35.3389 100.133 34.6696 100.653 34.0217 101.63C33.2743 102.767 33.4083 104.518 33.1402 105.958C33.095 106.167 32.984 106.356 32.8163 106.493L31.4538 107.578C31.3872 107.627 31.3206 107.66 31.2417 107.676L28.2052 108.4C28.0383 108.442 27.9264 108.606 27.9486 108.772C28.0383 109.239 27.8705 109.717 27.4463 110.208C26.8995 110.827 27.1223 111.252 27.3015 112.022C27.3459 112.187 27.3344 112.36 27.2785 112.521C27.0664 113.157 26.6092 113.506 25.8947 113.566C24.4879 113.689 23.1813 113.16 21.9644 111.982C21.7638 111.787 21.6857 111.554 21.7194 111.287C21.7416 111.13 21.7975 110.96 21.8641 110.776C21.92 110.608 21.92 110.425 21.8641 110.254L21.2836 108.64C21.1611 108.325 21.1611 107.977 21.2836 107.658C21.6972 106.579 20.8708 106.096 21.5632 105.167C22.4783 103.937 22.7686 102.927 22.4446 102.136C22.2547 101.673 21.7079 101.376 21.0937 101.401C20.1119 101.446 19.4196 101.396 19.0175 101.251C18.8169 101.176 18.5933 101.211 18.437 101.343C17.7669 101.879 16.6955 101.991 15.2106 101.682C14.9425 101.623 14.7082 101.441 14.5964 101.193C14.2395 100.359 13.7256 99.8958 13.0563 99.8038C11.9841 99.6511 11.0912 98.888 10.7787 97.8574C10.5329 97.0463 10.2648 96.4326 9.95239 96.0149C9.84057 95.8567 9.65063 95.7474 9.45001 95.7104L6.74815 95.2281C6.49161 95.1833 6.24576 95.0629 6.05583 94.8835C5.21879 94.0803 4.61609 93.0512 4.71641 91.6682C4.75012 91.3157 4.60458 90.7972 4.28062 90.1128C4.21402 89.9507 4.0134 89.8736 3.84566 89.9397C3.38768 90.1183 3.01932 90.3425 2.69535 90.3819C1.98166 90.4739 1.54587 90.1569 1.38965 89.4291C1.34525 89.1994 1.21122 88.9933 1.02129 88.8493C-0.12902 87.9351 -0.307445 86.7826 0.485189 85.3924C1.02129 84.4515 1.44556 83.8087 1.7465 83.4633C1.7465 83.4594 1.75801 83.4539 1.75801 83.4484C1.86983 83.3115 1.83612 83.114 1.69058 83.0102C1.6799 83.0062 1.6799 83.0031 1.66838 82.9984C0.317453 82.1644 0.15054 80.838 1.166 79.0199C1.36745 78.676 1.97014 78.1954 2.9634 77.5786C3.01932 77.5455 3.06454 77.4952 3.08674 77.4354L5.26319 72.4003C5.30842 72.2933 5.37502 72.1981 5.45313 72.1194C7.07211 70.505 8.02097 69.4776 10.1982 69.6388C10.4104 69.6569 10.6225 69.6113 10.8116 69.5067C12.0516 68.7907 13.4354 68.2786 14.9869 67.9733C15.4564 67.8813 15.7689 67.4439 15.6908 66.9915C15.4893 65.861 15.7352 65.1018 16.9858 64.3276C17.6222 63.9366 17.7784 63.1798 18.2808 62.7423C19.3193 61.8525 21.3617 60.9116 22.4446 62.0996C22.5786 62.2365 22.7801 62.2727 22.9363 62.1861C23.1591 62.0705 23.2487 61.8376 23.2043 61.4851C23.1928 61.4254 23.2043 61.3632 23.2372 61.3081L24.5438 58.4248C24.5882 58.3311 24.6663 58.2611 24.7781 58.2359C25.1243 58.1588 25.537 57.9165 25.9835 57.5058C26.1849 57.332 26.4308 57.2242 26.698 57.203L28.0605 57.0873C28.7191 57.0307 29.2321 56.4933 29.2321 55.8576C29.2321 55.6602 29.1877 55.4658 29.0874 55.2904C28.4625 54.1339 27.4125 53.3165 25.9284 52.8382C25.5263 52.7091 25.0799 52.3181 24.566 51.6675C24.4435 51.522 24.376 51.3449 24.376 51.1624C24.3653 50.3088 24.1532 49.4285 23.7289 48.5213C23.7289 48.5166 23.7174 48.5119 23.7174 48.5064C23.6393 48.353 23.4387 48.2916 23.2709 48.3719C23.2709 48.3734 23.2594 48.375 23.2594 48.3774C22.1659 48.9816 21.2614 48.7684 20.5584 47.7346C20.4129 47.5183 20.1341 47.4097 19.8768 47.4585C18.9394 47.6426 18.1246 47.4097 17.4438 46.7591C15.9588 45.3406 15.1769 43.2502 16.6059 41.5737C17.0417 41.0647 17.3204 40.713 17.4545 40.5179C17.5326 40.4141 17.5663 40.2921 17.5663 40.167C17.5663 39.824 17.276 39.5416 16.9184 39.5416C16.8074 39.5416 16.7062 39.5652 16.6174 39.6108C14.3735 40.6957 13.5472 39.2827 12.6427 37.6581C12.1297 36.7243 12.0178 35.6779 12.3188 34.5175C12.3418 34.442 12.3747 34.3704 12.4199 34.3051L14.0052 32.0369C14.1162 31.8749 14.1614 31.6774 14.1277 31.4862C13.77 29.5225 13.7149 28.1717 13.9378 27.4322C14.3061 26.223 15.255 25.3639 16.8074 24.8548C16.9858 24.7935 17.1083 24.6251 17.0976 24.441C17.0417 23.5386 16.7177 22.7574 16.1479 22.0989C14.4517 20.1352 14.5298 18.9071 16.8855 17.5799C16.9965 17.517 17.0754 17.4178 17.1198 17.2991C17.2086 17.0465 17.1305 16.8813 16.8962 16.805C16.874 16.7995 16.8625 16.7932 16.8403 16.7845C16.6618 16.687 16.6059 16.4352 16.7292 16.2244C16.7399 16.2079 16.7514 16.1905 16.7621 16.1732C17.6 15.071 18.6599 14.1474 19.9557 13.4C20.19 13.2702 20.3463 13.0436 20.3791 12.7863C20.625 11.1153 21.8641 10.7534 22.9922 9.8125C23.1484 9.68819 23.2487 9.52691 23.3047 9.34675C23.6952 8.08405 24.0858 6.56408 24.4763 4.78842C24.5775 4.33211 24.9121 4.0363 25.4704 3.89862C25.6604 3.84985 25.8273 3.75701 25.9613 3.62877C26.4193 3.21495 26.9217 2.90891 27.4685 2.70987C27.6469 2.64064 27.7924 2.50689 27.882 2.33696C28.2389 1.59507 28.7076 0.966469 29.2881 0.453519C29.4443 0.310333 29.6457 0.207271 29.8579 0.15456C30.3381 0.0326163 31.0526 -0.0169479 31.9899 0.00508065C32.4364 0.0168817 33.0284 0.417329 33.7766 1.20564C34.39 1.86806 35.0157 2.29683 35.6291 2.49194C37.2818 3.0167 38.6994 3.83175 39.8941 4.9379C40.0503 5.08344 40.2517 5.18179 40.4639 5.21876C42.1938 5.50985 43.4108 6.23286 44.1368 7.38936C44.2478 7.57267 44.4377 7.70169 44.6614 7.74496L46.2014 8.06674C46.2803 8.08169 46.3585 8.11079 46.4366 8.15249C48.7364 9.50331 51.393 11.002 54.4295 12.6487C54.6754 12.7816 54.9434 13.2112 55.2444 13.9342C55.3225 14.1096 55.468 14.245 55.6579 14.3071C58.2587 15.1749 60.5363 15.8751 62.3781 17.6547C62.9594 18.2101 63.1378 19.0519 62.8254 19.7796C62.1889 21.2256 62.8804 22.3452 62.3781 23.6433C61.6306 25.5385 60.57 26.7666 59.1968 27.3299C58.0687 27.7941 57.7234 28.5698 58.2258 29.6366C58.817 30.9009 58.6944 31.9205 57.8459 32.697C57.0755 33.4035 56.7515 33.9778 56.1151 34.6788C55.9819 34.8149 55.8142 34.9172 55.6357 34.9769C54.4747 35.3514 53.4807 35.1186 52.6321 34.276C52.6099 34.2476 52.5655 34.2303 52.5318 34.2303C52.4537 34.2303 52.3863 34.2925 52.3863 34.368C52.3197 35.8306 51.8954 36.6173 51.1143 36.729C51.0912 36.7306 51.069 36.7353 51.0468 36.7408C50.7459 36.8187 50.556 37.1263 50.6341 37.4221C50.6341 37.441 50.6448 37.4615 50.6563 37.4803C50.7344 37.6794 50.5445 38.6384 50.098 40.3566C50.0865 40.4109 50.0758 40.4676 50.0865 40.5226C50.1095 40.7988 50.366 41.008 50.6448 40.9844C50.7122 40.9805 50.7681 40.9656 50.824 40.9427C52.0631 40.4211 53.2463 40.5879 54.3629 41.4415C55.1218 42.0166 55.8923 42.4785 56.6956 42.8309C57.1651 43.0378 57.9125 43.5972 58.9288 44.5074C59.1294 44.6876 59.2749 44.9197 59.3309 45.1738C59.5652 46.1533 59.867 47.3373 60.2123 48.7228C60.4697 49.762 59.8554 51.5872 59.5874 52.6438C59.5759 52.7225 59.543 52.8004 59.4871 52.8736L58.4486 54.4407C58.3146 54.6476 58.2365 54.8852 58.2258 55.1291C58.1921 56.1204 58.2702 57.3493 58.4708 58.8158C58.7388 60.7503 57.355 61.2153 56.953 62.5756C56.5616 63.9342 56.4053 65.1718 56.495 66.2858C56.5065 66.473 56.4053 66.6681 56.1825 66.8711C56.0485 66.9939 55.8701 67.0631 55.6801 67.0631C55.3562 67.0631 55.0774 66.8538 54.9878 66.5549C54.876 66.1764 54.7757 65.7634 54.6754 65.315C54.6532 65.2001 54.552 65.1159 54.4295 65.1159C54.3292 65.1159 54.2396 65.1663 54.1952 65.2465C53.7824 65.9577 53.581 66.7256 53.5925 67.5485C53.6262 69.1558 53.4807 69.7246 53.6147 71.291C53.6706 72.0447 54.4073 72.4003 54.2289 73.2216C54.173 73.4789 54.039 73.7173 53.8383 73.9037C53.0227 74.67 52.5984 75.9036 52.5433 77.6077C52.5433 77.636 52.554 77.6651 52.5762 77.6911C52.6214 77.7658 52.7217 77.7925 52.7998 77.7485C52.822 77.7328 52.8442 77.7099 52.8558 77.6824L54.1837 75.0815C54.2955 74.8675 54.5191 74.7322 54.765 74.7322C55.0881 74.7322 55.3677 74.9572 55.4121 75.2593C55.6242 76.6219 55.2666 77.861 54.3177 78.9734C54.1837 79.1276 53.9608 79.1811 53.7709 79.1064L52.6658 78.669C52.6321 78.6556 52.5877 78.6595 52.554 78.6808C52.2193 78.8885 52.3641 79.2952 52.9898 79.9041C53.1345 80.045 53.1567 80.2645 53.0564 80.432L51.1587 83.291C51.0024 83.5278 50.7229 83.6718 50.4326 83.6718C50.2435 83.6718 50.0421 83.6065 49.8974 83.4869C49.1713 82.9236 49.071 82.1432 49.6178 81.144C49.6178 81.1322 49.6178 81.1204 49.6178 81.1094C49.6178 81.0559 49.5734 81.0119 49.5175 81.0119C49.4953 81.0119 49.4616 81.0229 49.4509 81.041ZM39.247 93.7231L35.8643 96.0204C35.7747 96.0833 35.6628 96.1164 35.551 96.1164C35.2723 96.1164 35.0264 95.8984 35.0157 95.6246C34.9261 93.8144 35.8413 92.7491 37.7505 92.4321C38.0523 92.3841 38.3088 92.211 38.4543 91.9608C38.9896 91.0805 39.7937 90.691 40.8988 90.7902C41.0444 90.8028 41.1784 90.7091 41.2113 90.5722C41.513 89.4008 42.0713 88.6605 42.9199 88.3505C43.0424 88.3025 43.1205 88.1861 43.1205 88.0563C43.1205 88.013 43.109 87.9697 43.0983 87.9304C42.6847 87.0461 41.6471 84.693 43.5226 84.3712C43.567 84.3641 43.6114 84.3594 43.6566 84.3594C44.0587 84.3594 44.3933 84.678 44.3933 85.0659C44.3933 85.0706 44.3933 85.0777 44.3933 85.0824L44.3259 88.9988C44.3259 89.0043 44.3259 89.0082 44.3259 89.0137C44.3259 89.2403 44.5158 89.4268 44.7617 89.4268C44.9516 89.4268 45.1185 89.3056 45.1744 89.1302C45.6768 87.6259 46.8156 87.268 48.5908 88.0563C48.6689 88.0901 48.7364 88.1381 48.7915 88.1963C49.0266 88.4433 49.0044 88.8383 48.7364 89.0712C48.6689 89.127 48.5908 89.1711 48.5127 89.1994C47.6083 89.533 47.7538 90.4566 47.2621 90.8704C46.749 91.2953 46.1685 91.4117 45.5428 91.2205C45.4877 91.2032 45.4203 91.1938 45.3644 91.1938C45.1078 91.1938 44.8842 91.3519 44.8176 91.5824C44.2371 93.3455 43.3211 95.3312 40.9991 94.9465C40.5083 94.8662 40.1621 94.5295 39.95 93.9363C39.8834 93.7609 39.7041 93.6421 39.515 93.6421C39.4254 93.6421 39.3251 93.6712 39.247 93.7231ZM55.8923 72.2453C55.7138 72.571 55.3225 72.7323 54.9434 72.63H54.9319C54.6417 72.5529 54.4517 72.3035 54.4517 72.0219C54.4517 71.9471 54.4632 71.8732 54.4969 71.8031C54.8982 70.7269 54.8653 69.7624 54.3629 68.9095C54.1286 68.4989 54.2511 67.9765 54.6532 67.7098L54.6754 67.6917C54.7872 67.6169 54.9212 67.576 55.0544 67.576C55.3118 67.576 55.5461 67.7184 55.6464 67.9395C56.3725 69.391 56.897 70.4712 55.8923 72.2453Z" fill="white"/>
</svg>
