<svg width="68" height="60" viewBox="0 0 68 60" fill="none" xmlns="http://www.w3.org/2000/svg">
<path d="M15.4292 44.8015C15.9424 44.8015 16.3584 44.4381 16.3584 43.9885V38.0058C16.3584 37.5568 15.943 37.1928 15.4292 37.1928H8.59181C8.07865 37.1928 7.6627 37.5562 7.6627 38.0058V43.9885C7.6627 44.4375 8.07801 44.8015 8.59181 44.8015H15.4292ZM9.52098 38.8187H14.5007V43.176H9.52098V38.8187Z" fill="#113C7B"/>
<path d="M7.41449 43.988V38.0066C7.41449 37.389 7.97227 36.9452 8.59043 36.9446L8.59181 37.1928C8.07865 37.1928 7.6627 37.5562 7.6627 38.0058V43.9885C7.6627 44.3811 7.98005 44.7094 8.40326 44.7856L8.59181 44.8015H15.4292C15.9424 44.8015 16.3584 44.4381 16.3584 43.9885V38.0058C16.3584 37.6131 16.0409 37.2852 15.6176 37.2091L15.4292 37.1928L15.4304 36.9446C16.0496 36.9452 16.6064 37.3897 16.6064 38.0066V43.988C16.6064 44.6057 16.0487 45.0495 15.4304 45.05H8.59043C7.97139 45.0494 7.41449 44.6049 7.41449 43.988ZM14.5007 38.8187V43.176H9.52098V38.8187H14.5007ZM9.77045 42.926H14.2504V39.0686H9.77045V42.926ZM15.4304 36.9446L15.4292 37.1928H8.59181L8.59043 36.9446H15.4304Z" fill="#113C7B"/>
<path d="M18.7367 44.8015H25.5741C26.0873 44.8015 26.5032 44.4381 26.5032 43.9885V38.0058C26.5032 37.5568 26.0879 37.1928 25.5741 37.1928H18.7367C18.2235 37.1928 17.8076 37.5562 17.8076 38.0058V43.9885C17.8076 44.4381 18.2235 44.8015 18.7367 44.8015ZM19.6658 38.8187H24.6456V43.176H19.6658V38.8187Z" fill="#113C7B"/>
<path d="M17.5594 43.988V38.0066C17.5594 37.389 18.1172 36.9452 18.7353 36.9446L18.7367 37.1928C18.2235 37.1928 17.8076 37.5562 17.8076 38.0058V43.9885C17.8076 44.3815 18.1253 44.7095 18.5481 44.7856L18.7367 44.8015H25.5741C26.0873 44.8015 26.5032 44.4381 26.5032 43.9885V38.0058C26.5032 37.6131 26.1858 37.2852 25.7625 37.2091L25.5741 37.1928L25.5753 36.9446C26.1944 36.9452 26.7513 37.3897 26.7513 38.0066V43.988C26.7513 44.6057 26.1936 45.0495 25.5753 45.05H18.7353C18.1172 45.0494 17.5594 44.6056 17.5594 43.988ZM24.6456 38.8187V43.176H19.6658V38.8187H24.6456ZM19.9153 42.926H24.3953V39.0686H19.9153V42.926ZM25.5753 36.9446L25.5741 37.1928H18.7367L18.7353 36.9446H25.5753Z" fill="#113C7B"/>
<path d="M8.59181 24.5093H15.4292C15.9424 24.5093 16.3584 24.1459 16.3584 23.6964V17.7136C16.3584 17.2646 15.943 16.9006 15.4292 16.9006H8.59181C8.07865 16.9006 7.6627 17.264 7.6627 17.7136V23.6964C7.66335 24.1454 8.07865 24.5093 8.59181 24.5093ZM9.52091 18.526H14.5007V22.8833H9.52091V18.526Z" fill="#113C7B"/>
<path d="M7.41449 23.6959V17.7144C7.41449 17.0968 7.97228 16.6531 8.59043 16.6524L8.59181 16.9006C8.07865 16.9006 7.6627 17.264 7.6627 17.7136V23.6964C7.66327 24.0889 7.98057 24.4172 8.40326 24.4934L8.59181 24.5093H15.4292C15.9424 24.5093 16.3584 24.1459 16.3584 23.6964V17.7136C16.3584 17.321 16.0409 16.993 15.6176 16.9169L15.4292 16.9006L15.4304 16.6524C16.0496 16.653 16.6064 17.0975 16.6064 17.7144V23.6959C16.6064 24.3135 16.0487 24.7573 15.4304 24.7579H8.59043C7.9718 24.7572 7.41538 24.3122 7.41449 23.6959ZM14.5007 18.526V22.8833H9.52091V18.526H14.5007ZM9.77045 22.6339H14.2504V18.7764H9.77045V22.6339ZM15.4304 16.6524L15.4292 16.9006H8.59181L8.59043 16.6524H15.4304Z" fill="#113C7B"/>
<path d="M18.7367 24.5093H25.5741C26.0873 24.5093 26.5032 24.1459 26.5032 23.6964V17.7136C26.5032 17.2646 26.0879 16.9006 25.5741 16.9006H18.7367C18.2235 16.9006 17.8076 17.264 17.8076 17.7136V23.6964C17.8076 24.1454 18.2235 24.5093 18.7367 24.5093ZM19.6658 18.526H24.6456V22.8833H19.6658V18.526Z" fill="#113C7B"/>
<path d="M17.5594 23.6959V17.7144C17.5594 17.0968 18.1172 16.6531 18.7353 16.6524L18.7367 16.9006C18.2235 16.9006 17.8076 17.264 17.8076 17.7136V23.6964C17.8076 24.0889 18.1253 24.4172 18.5481 24.4934L18.7367 24.5093H25.5741C26.0873 24.5093 26.5032 24.1459 26.5032 23.6964V17.7136C26.5032 17.321 26.1858 16.993 25.7625 16.9169L25.5741 16.9006L25.5753 16.6524C26.1944 16.653 26.7513 17.0975 26.7513 17.7144V23.6959C26.7513 24.3135 26.1936 24.7573 25.5753 24.7579H18.7353C18.117 24.7572 17.5594 24.3128 17.5594 23.6959ZM24.6456 18.526V22.8833H19.6658V18.526H24.6456ZM19.9153 22.6339H24.3953V18.7764H19.9153V22.6339ZM25.5753 16.6524L25.5741 16.9006H18.7367L18.7353 16.6524H25.5753Z" fill="#113C7B"/>
<path d="M8.59181 34.6534H15.4292C15.9424 34.6534 16.3584 34.29 16.3584 33.8404V27.8576C16.3584 27.4086 15.943 27.0447 15.4292 27.0447H8.59181C8.07865 27.0447 7.6627 27.4081 7.6627 27.8576V33.8404C7.66335 34.2894 8.07865 34.6534 8.59181 34.6534ZM9.52091 28.67H14.5007V33.0273H9.52091V28.67Z" fill="#113C7B"/>
<path d="M7.41449 33.8399V27.8585C7.41449 27.2409 7.97228 26.7971 8.59043 26.7965L8.59181 27.0447C8.07865 27.0447 7.6627 27.4081 7.6627 27.8576V33.8404C7.66327 34.2329 7.98057 34.5613 8.40326 34.6374L8.59181 34.6534H15.4292C15.9424 34.6534 16.3584 34.29 16.3584 33.8404V27.8576C16.3584 27.465 16.0409 27.137 15.6176 27.061L15.4292 27.0447L15.4304 26.7965C16.0496 26.797 16.6064 27.2416 16.6064 27.8585V33.8399C16.6064 34.4576 16.0487 34.9014 15.4304 34.9019H8.59043C7.9718 34.9013 7.41538 34.4563 7.41449 33.8399ZM14.5007 28.67V33.0273H9.52091V28.67H14.5007ZM9.77045 32.7779H14.2504V28.9205H9.77045V32.7779ZM15.4304 26.7965L15.4292 27.0447H8.59181L8.59043 26.7965H15.4304Z" fill="#113C7B"/>
<path d="M18.7367 34.6534H25.5741C26.0873 34.6534 26.5032 34.29 26.5032 33.8404V27.8576C26.5032 27.4086 26.0879 27.0447 25.5741 27.0447H18.7367C18.2235 27.0447 17.8076 27.4081 17.8076 27.8576V33.8404C17.8076 34.2894 18.2235 34.6534 18.7367 34.6534ZM19.6658 28.67H24.6456V33.0273H19.6658V28.67Z" fill="#113C7B"/>
<path d="M17.5594 33.8399V27.8585C17.5594 27.2409 18.1172 26.7971 18.7353 26.7965L18.7367 27.0447C18.2235 27.0447 17.8076 27.4081 17.8076 27.8576V33.8404C17.8076 34.2329 18.1253 34.5613 18.5481 34.6374L18.7367 34.6534H25.5741C26.0873 34.6534 26.5032 34.29 26.5032 33.8404V27.8576C26.5032 27.465 26.1858 27.137 25.7625 27.061L25.5741 27.0447L25.5753 26.7965C26.1944 26.797 26.7513 27.2416 26.7513 27.8585V33.8399C26.7513 34.4576 26.1936 34.9014 25.5753 34.9019H18.7353C18.117 34.9013 17.5594 34.4569 17.5594 33.8399ZM24.6456 28.67V33.0273H19.6658V28.67H24.6456ZM19.9153 32.7779H24.3953V28.9205H19.9153V32.7779ZM25.5753 26.7965L25.5741 27.0447H18.7367L18.7353 26.7965H25.5753Z" fill="#113C7B"/>
<path d="M48.7627 44.8015C49.2759 44.8015 49.6918 44.4381 49.6918 43.9885V38.0058C49.6918 37.5568 49.2765 37.1928 48.7627 37.1928H41.9253C41.4121 37.1928 40.9962 37.5562 40.9962 38.0058V43.9885C40.9962 44.4375 41.4115 44.8015 41.9253 44.8015H48.7627ZM42.8544 38.8187H47.8342V43.176H42.8544V38.8187Z" fill="#113C7B"/>
<path d="M40.7479 43.988V38.0066C40.7479 37.389 41.3057 36.9452 41.9239 36.9446L41.9253 37.1928C41.4121 37.1928 40.9962 37.5562 40.9962 38.0058V43.9885C40.9962 44.3811 41.3135 44.7094 41.7367 44.7856L41.9253 44.8015H48.7627C49.2759 44.8015 49.6918 44.4381 49.6918 43.9885V38.0058C49.6918 37.6131 49.3743 37.2852 48.9511 37.2091L48.7627 37.1928L48.7639 36.9446C49.383 36.9452 49.9398 37.3897 49.9398 38.0066V43.988C49.9398 44.6057 49.3821 45.0495 48.7639 45.05H41.9239C41.3049 45.0494 40.7479 44.6049 40.7479 43.988ZM47.8342 38.8187V43.176H42.8544V38.8187H47.8342ZM43.1039 42.926H47.5839V39.0686H43.1039V42.926ZM48.7639 36.9446L48.7627 37.1928H41.9253L41.9239 36.9446H48.7639Z" fill="#113C7B"/>
<path d="M52.0702 44.8015H58.9076C59.4207 44.8015 59.8367 44.4381 59.8367 43.9885V38.0058C59.8367 37.5568 59.4214 37.1928 58.9076 37.1928H52.0702C51.557 37.1928 51.141 37.5562 51.141 38.0058V43.9885C51.141 44.4381 51.557 44.8015 52.0702 44.8015ZM52.9993 38.8187H57.979V43.176H52.9993V38.8187Z" fill="#113C7B"/>
<path d="M50.8928 43.988V38.0066C50.8928 37.389 51.4506 36.9452 52.0688 36.9446L52.0702 37.1928C51.557 37.1928 51.141 37.5562 51.141 38.0058V43.9885C51.141 44.3815 51.4588 44.7095 51.8816 44.7856L52.0702 44.8015H58.9076C59.4207 44.8015 59.8367 44.4381 59.8367 43.9885V38.0058C59.8367 37.6131 59.5192 37.2852 59.096 37.2091L58.9076 37.1928L58.9088 36.9446C59.5279 36.9452 60.0847 37.3897 60.0847 38.0066V43.988C60.0847 44.6057 59.527 45.0495 58.9088 45.05H52.0688C51.4506 45.0494 50.8928 44.6056 50.8928 43.988ZM57.979 38.8187V43.176H52.9993V38.8187H57.979ZM53.2488 42.926H57.7288V39.0686H53.2488V42.926ZM58.9088 36.9446L58.9076 37.1928H52.0702L52.0688 36.9446H58.9088Z" fill="#113C7B"/>
<path d="M41.9253 24.5093H48.7627C49.2759 24.5093 49.6918 24.1459 49.6918 23.6964V17.7136C49.6918 17.2646 49.2765 16.9006 48.7627 16.9006H41.9253C41.4121 16.9006 40.9962 17.264 40.9962 17.7136V23.6964C40.9968 24.1454 41.4121 24.5093 41.9253 24.5093ZM42.8544 18.526H47.8341V22.8833H42.8544V18.526Z" fill="#113C7B"/>
<path d="M40.7479 23.6959V17.7144C40.7479 17.0968 41.3057 16.6531 41.9239 16.6524L41.9253 16.9006C41.4121 16.9006 40.9962 17.264 40.9962 17.7136V23.6964C40.9967 24.0889 41.314 24.4172 41.7367 24.4934L41.9253 24.5093H48.7627C49.2759 24.5093 49.6918 24.1459 49.6918 23.6964V17.7136C49.6918 17.321 49.3743 16.993 48.9511 16.9169L48.7627 16.9006L48.7639 16.6524C49.383 16.653 49.9398 17.0975 49.9398 17.7144V23.6959C49.9398 24.3135 49.3821 24.7573 48.7639 24.7579H41.9239C41.3053 24.7572 40.7488 24.3122 40.7479 23.6959ZM47.8341 18.526V22.8833H42.8544V18.526H47.8341ZM43.1039 22.6339H47.5839V18.7764H43.1039V22.6339ZM48.7639 16.6524L48.7627 16.9006H41.9253L41.9239 16.6524H48.7639Z" fill="#113C7B"/>
<path d="M52.0702 24.5093H58.9076C59.4207 24.5093 59.8367 24.1459 59.8367 23.6964V17.7136C59.8367 17.2646 59.4214 16.9006 58.9076 16.9006H52.0702C51.557 16.9006 51.141 17.264 51.141 17.7136V23.6964C51.141 24.1454 51.557 24.5093 52.0702 24.5093ZM52.9993 18.526H57.979V22.8833H52.9993V18.526Z" fill="#113C7B"/>
<path d="M50.8928 23.6959V17.7144C50.8928 17.0968 51.4506 16.6531 52.0688 16.6524L52.0702 16.9006C51.557 16.9006 51.141 17.264 51.141 17.7136V23.6964C51.141 24.0889 51.4588 24.4172 51.8816 24.4934L52.0702 24.5093H58.9076C59.4207 24.5093 59.8367 24.1459 59.8367 23.6964V17.7136C59.8367 17.321 59.5192 16.993 59.096 16.9169L58.9076 16.9006L58.9088 16.6524C59.5279 16.653 60.0847 17.0975 60.0847 17.7144V23.6959C60.0847 24.3135 59.527 24.7573 58.9088 24.7579H52.0688C51.4505 24.7572 50.8928 24.3128 50.8928 23.6959ZM57.979 18.526V22.8833H52.9993V18.526H57.979ZM53.2488 22.6339H57.7288V18.7764H53.2488V22.6339ZM58.9088 16.6524L58.9076 16.9006H52.0702L52.0688 16.6524H58.9088Z" fill="#113C7B"/>
<path d="M41.9253 34.6534H48.7627C49.2759 34.6534 49.6918 34.29 49.6918 33.8404V27.8576C49.6918 27.4086 49.2765 27.0447 48.7627 27.0447H41.9253C41.4121 27.0447 40.9962 27.4081 40.9962 27.8576V33.8404C40.9968 34.2894 41.4121 34.6534 41.9253 34.6534ZM42.8544 28.67H47.8341V33.0273H42.8544V28.67Z" fill="#113C7B"/>
<path d="M40.7479 33.8399V27.8585C40.7479 27.2409 41.3057 26.7971 41.9239 26.7965L41.9253 27.0447C41.4121 27.0447 40.9962 27.4081 40.9962 27.8576V33.8404C40.9967 34.2329 41.314 34.5613 41.7367 34.6374L41.9253 34.6534H48.7627C49.2759 34.6534 49.6918 34.29 49.6918 33.8404V27.8576C49.6918 27.465 49.3743 27.137 48.9511 27.061L48.7627 27.0447L48.7639 26.7965C49.383 26.797 49.9398 27.2416 49.9398 27.8585V33.8399C49.9398 34.4576 49.3821 34.9014 48.7639 34.9019H41.9239C41.3053 34.9013 40.7488 34.4563 40.7479 33.8399ZM47.8341 28.67V33.0273H42.8544V28.67H47.8341ZM43.1039 32.7779H47.5839V28.9205H43.1039V32.7779ZM48.7639 26.7965L48.7627 27.0447H41.9253L41.9239 26.7965H48.7639Z" fill="#113C7B"/>
<path d="M52.0702 34.6534H58.9076C59.4207 34.6534 59.8367 34.29 59.8367 33.8404V27.8576C59.8367 27.4086 59.4214 27.0447 58.9076 27.0447H52.0702C51.557 27.0447 51.141 27.4081 51.141 27.8576V33.8404C51.141 34.2894 51.557 34.6534 52.0702 34.6534ZM52.9993 28.67H57.979V33.0273H52.9993V28.67Z" fill="#113C7B"/>
<path d="M50.8928 33.8399V27.8585C50.8928 27.2409 51.4506 26.7971 52.0688 26.7965L52.0702 27.0447C51.557 27.0447 51.141 27.4081 51.141 27.8576V33.8404C51.141 34.2329 51.4588 34.5613 51.8816 34.6374L52.0702 34.6534H58.9076C59.4207 34.6534 59.8367 34.29 59.8367 33.8404V27.8576C59.8367 27.465 59.5192 27.137 59.096 27.061L58.9076 27.0447L58.9088 26.7965C59.5279 26.797 60.0847 27.2416 60.0847 27.8585V33.8399C60.0847 34.4576 59.527 34.9014 58.9088 34.9019H52.0688C51.4505 34.9013 50.8928 34.4569 50.8928 33.8399ZM57.979 28.67V33.0273H52.9993V28.67H57.979ZM53.2488 32.7779H57.7288V28.9205H53.2488V32.7779ZM58.9088 26.7965L58.9076 27.0447H52.0702L52.0688 26.7965H58.9088Z" fill="#113C7B"/>
<path d="M66.25 57.2896H64.5835V13.0346H66.25C66.4988 13.0346 66.7348 12.9369 66.8934 12.769C67.0516 12.6002 67.1155 12.3789 67.0678 12.1653L64.5678 1.00402C64.4916 0.662226 64.1492 0.415039 63.7505 0.415039H37.4938C37.095 0.415039 36.7527 0.662226 36.6759 1.00402L34.1758 12.1653C34.1276 12.3789 34.1921 12.6002 34.3502 12.769C34.5089 12.9369 34.7449 13.0346 34.9937 13.0346H36.6602V57.2896H30.8399L30.8405 13.0346H32.507C32.7558 13.0346 32.9918 12.9369 33.1505 12.769C33.3086 12.6002 33.3725 12.3789 33.3248 12.1653L30.8248 1.00402C30.748 0.662226 30.4057 0.415039 30.0069 0.415039H3.75021C3.35145 0.415039 3.00908 0.662226 2.93236 1.00402L0.43228 12.1653C0.384035 12.3789 0.448556 12.6002 0.606665 12.769C0.765351 12.9369 1.00134 13.0346 1.25071 13.0346H2.91718V57.2896H1.25071C0.790337 57.2896 0.417161 57.6157 0.417161 58.019C0.417161 58.4218 0.789756 58.7484 1.25071 58.7484H66.2489C66.7093 58.7484 67.0824 58.4223 67.0824 58.019C67.0819 57.6157 66.7109 57.2896 66.25 57.2896ZM38.1808 1.87313H63.0641L65.2374 11.5757H36.006L38.1808 1.87313ZM38.3285 13.0344H62.9171V57.2895H55.4042V48.449C55.4042 48.0462 55.0316 47.7197 54.5706 47.7197H46.6729C46.2126 47.7197 45.8394 48.0457 45.8394 48.449L45.84 57.2895H38.3283L38.3285 13.0344ZM53.7373 57.2895H47.506V49.1779H53.7373V57.2895ZM4.43804 1.873H29.3213L31.4946 11.5756H2.26325L4.43804 1.873ZM4.58511 13.0343H29.1737V57.2894H21.662V48.4489C21.662 48.0461 21.2894 47.7195 20.8285 47.7195H12.9308C12.4704 47.7195 12.0972 48.0456 12.0972 48.4489L12.0978 57.2894H4.58491L4.58511 13.0343ZM19.9954 57.2894H13.7642V49.1778H19.9954V57.2894Z" fill="#113C7B"/>
<path d="M0.0015672 58.02C0.0015672 57.3359 0.614451 56.8726 1.25075 56.8726L1.25071 57.2896L0.925233 57.3486C0.626839 57.4595 0.417161 57.717 0.417161 58.019L0.432882 58.1665C0.488346 58.4036 0.676209 58.5991 0.925233 58.6914L1.25071 58.7484H66.2489C66.6516 58.7483 66.9893 58.499 67.067 58.1665L67.0824 58.019C67.082 57.7172 66.8729 57.4596 66.5747 57.3486L66.25 57.2896L66.2491 56.8726L66.4851 56.8929C67.0294 56.9907 67.4975 57.4221 67.4983 58.02C67.4977 58.7035 66.885 59.1633 66.2491 59.1634H1.25075C0.613792 59.1634 0.00217765 58.7028 0.0015672 58.02ZM63.7508 0C64.3066 0.000112302 64.8486 0.345831 64.9755 0.911458L67.4739 12.0728C67.5337 12.3409 67.4875 12.6129 67.3559 12.8418L67.1972 13.0534C66.9536 13.311 66.6032 13.4521 66.2491 13.4521H64.9999V56.8726H66.2491L66.25 57.2896H64.5835V13.0346H66.25C66.4988 13.0346 66.7348 12.9369 66.8934 12.769C67.0123 12.6421 67.0782 12.4856 67.0833 12.325L67.0678 12.1653L64.5678 1.00402C64.5107 0.747715 64.3036 0.545365 64.0356 0.459798L63.7505 0.415039L63.7508 0ZM3.75021 0.415039C3.35145 0.415039 3.00908 0.662226 2.93236 1.00402L0.43228 12.1653L0.416606 12.325C0.421569 12.4856 0.487837 12.6421 0.606665 12.769C0.725752 12.8949 0.888611 12.9815 1.06765 13.0168L1.25071 13.0346H2.91718V57.2896H1.25071L1.25075 56.8726H2.49994V13.4521H1.25075C0.984967 13.4521 0.723566 13.3718 0.506125 13.2243L0.302674 13.0534C0.0575541 12.7915 -0.0549487 12.4311 0.0259813 12.0728L2.52435 0.911458C2.6517 0.346406 3.19316 0.000451475 3.74913 0L3.75021 0.415039ZM29.1737 13.0343V57.2894H21.662V48.4489C21.662 48.1467 21.4517 47.889 21.1523 47.7783L20.8285 47.7195L20.8268 47.3022C21.464 47.3022 22.08 47.7664 22.08 48.4497V56.8726H28.7573V13.4521H5.00238V56.8726H11.6796V48.4497C11.6796 47.7663 12.2932 47.3032 12.9288 47.3022L12.9308 47.7195C12.4704 47.7195 12.0972 48.0456 12.0972 48.4489L12.0978 57.2894H4.58491L4.58511 13.0343H29.1737ZM19.9954 49.1778V57.2894H13.7642V49.1778H19.9954ZM37.4938 0.415039C37.095 0.415039 36.7527 0.662226 36.6759 1.00402L34.1758 12.1653L34.1609 12.325C34.1659 12.4856 34.2314 12.6421 34.3502 12.769C34.4695 12.8949 34.633 12.9817 34.812 13.0168L34.9937 13.0346H36.6602V57.2896H30.8399L30.8405 13.0346H32.507L32.692 13.0168C32.8102 12.9932 32.9215 12.9474 33.0175 12.8825L33.1505 12.769C33.2687 12.6423 33.3339 12.4852 33.339 12.325L33.3248 12.1653L30.8248 1.00402C30.748 0.662226 30.4057 0.415039 30.0069 0.415039L30.0065 0C30.5627 0 31.1037 0.346239 31.2312 0.911458L33.7296 12.0728C33.7446 12.14 33.7481 12.2094 33.7499 12.2762C33.7518 12.2091 33.755 12.1404 33.7703 12.0728L36.2687 0.911458C36.3961 0.346249 36.9373 0.000144308 37.4934 0L37.4938 0.415039ZM62.9171 13.0344V57.2895H55.4042V48.449C55.4042 48.1474 55.195 47.8894 54.8966 47.7783L54.5706 47.7197L54.5711 47.3022C55.2082 47.3025 55.8203 47.7666 55.8203 48.4497V56.8726H62.5016V13.4521H38.7467V56.8726H45.4239V48.4497C45.4239 47.7656 46.0368 47.3022 46.6731 47.3022L46.6729 47.7197C46.2126 47.7197 45.8394 48.0457 45.8394 48.449L45.84 57.2895H38.3283L38.3285 13.0344H62.9171ZM53.7373 49.1779V57.2895H47.506V49.1779H53.7373ZM47.9223 56.8726H53.3219V49.5931H47.9223V56.8726ZM33.7499 12.3779C33.7325 12.6284 33.6286 12.8657 33.4529 13.0534C33.2098 13.3106 32.8623 13.4517 32.5089 13.4521H31.2556V56.8726H36.2442V13.4521H34.9951C34.7287 13.4521 34.4642 13.3728 34.2464 13.2243L34.047 13.0534C33.8717 12.8662 33.7674 12.629 33.7499 12.3779ZM14.1821 56.8726H19.5776V49.5931H14.1821V56.8726ZM54.5711 47.3022L54.5706 47.7197H46.6729L46.6731 47.3022H54.5711ZM20.8268 47.3022L20.8285 47.7195H12.9308L12.9288 47.3022H20.8268ZM31.4946 11.5756H2.26325L4.43804 1.873H29.3213L31.4946 11.5756ZM65.2374 11.5757H36.006L38.1808 1.87313H63.0641L65.2374 11.5757ZM36.525 11.1572H64.7151L62.7294 2.29085H38.5148L36.525 11.1572ZM2.78477 11.1572H30.9749L28.9892 2.29085H4.77045L2.78477 11.1572ZM63.7508 0L63.7505 0.415039H37.4938L37.4934 0H63.7508ZM30.0065 0L30.0069 0.415039H3.75021L3.74913 0H30.0065Z" fill="#113C7B"/>
</svg>
