<svg width="77" height="60" viewBox="0 0 77 60" fill="none" xmlns="http://www.w3.org/2000/svg">
<path d="M74.5941 53.4192H71.0391V21.0121C71.0391 20.4891 70.5804 20.0709 70.0073 20.0709H53.8373V6.58559H55.6723C56.246 6.58559 56.7048 6.1674 56.7048 5.64437V1.56728C56.7048 1.04482 56.246 0.626628 55.6723 0.626628H20.5804C20.0073 0.626628 19.5485 1.04482 19.5485 1.56728V5.64437C19.5485 6.1674 20.0073 6.58559 20.5804 6.58559H22.4154V20.0709H6.246C5.67225 20.0709 5.2135 20.4891 5.2135 21.0121V53.4192H1.6585C1.08538 53.4192 0.626628 53.8374 0.626628 54.3604V58.0193C0.626628 58.5418 1.08538 58.96 1.6585 58.96H74.5941C75.1679 58.96 75.6266 58.5418 75.6266 58.0193V54.3604C75.6266 53.8374 75.1679 53.4192 74.5941 53.4192ZM68.9754 21.9528V53.4192H53.8373V21.9528H68.9754ZM21.6129 2.5085H54.7548V4.80799H21.6129V2.5085ZM51.8879 6.58559V53.3149H45.466V37.8429C45.466 34.184 42.2548 31.2567 38.241 31.2567C34.2273 31.2567 31.0166 34.184 31.0166 37.8429V53.4192H24.5941V6.58559H51.8879ZM32.966 53.4192V37.8429C32.966 35.2295 35.2598 33.0343 38.241 33.0343C41.1079 33.0343 43.5166 35.1247 43.5166 37.8429V53.4192H32.966ZM7.27788 21.9528H22.4154V53.4192H7.27788V21.9528ZM2.691 57.0781V55.3011H73.6766V57.0781H2.691Z" fill="#113C7B"/>
<path d="M56.0791 1.56657C56.0786 1.44269 55.9562 1.25326 55.6722 1.25326H20.5811C20.2979 1.25326 20.1746 1.44246 20.1742 1.56657V5.64372C20.1742 5.76861 20.2977 5.9611 20.5811 5.9611H23.0387V20.695H6.24593C5.9617 20.695 5.83903 20.8877 5.83903 21.0124V54.0446H1.66016C1.37676 54.0446 1.25326 54.2371 1.25326 54.362V58.02C1.25373 58.1441 1.37705 58.3333 1.66016 58.3333H74.5931C74.8771 58.3333 74.9995 58.1439 75 58.02V54.362C75 54.2373 74.8774 54.0446 74.5931 54.0446H70.4142V21.0124C70.4142 20.8875 70.2907 20.695 70.0073 20.695H53.2105V5.9611H55.6722C55.9565 5.9611 56.0791 5.76838 56.0791 5.64372V1.56657ZM74.3001 54.6753V57.7026H2.06706V54.6753H74.3001ZM3.31624 56.4535H73.0509V55.9245H3.31624V56.4535ZM23.0387 21.3298V54.0446H6.65283V21.3298H23.0387ZM52.5147 5.9611V53.9388H44.8405V37.8418C44.8398 34.5818 41.9644 31.8807 38.2406 31.8807C34.517 31.8809 31.6413 34.5818 31.6406 37.8418V54.0446H23.9705V5.9611H52.5147ZM42.8914 37.8418C42.8908 35.5309 40.8269 33.6589 38.2406 33.6589C35.5586 33.6591 33.5904 35.6189 33.5897 37.8418V52.7954H42.8914V37.8418ZM69.6004 21.3298V54.0446H53.2105V21.3298H69.6004ZM54.4637 52.7954H68.3512V22.5789H54.4637V52.7954ZM7.90202 52.7954H21.7896V22.5789H7.90202V52.7954ZM55.3792 1.88395V5.43213H20.988V1.88395H55.3792ZM22.2371 4.18294H54.13V3.13314H22.2371V4.18294ZM44.1406 54.0446H32.3405V37.8418C32.3412 34.8391 34.9613 32.4099 38.2406 32.4097C41.3872 32.4097 44.14 34.7173 44.1406 37.8418V54.0446ZM46.0897 52.6896H51.2614V7.21029H25.2197V52.7954H30.3914V37.8418C30.3921 33.7853 33.9379 30.6317 38.2406 30.6315C42.5434 30.6315 46.089 33.7851 46.0897 37.8418V52.6896ZM57.3283 5.64372C57.3283 6.56511 56.5354 7.21029 55.6722 7.21029H54.4637V19.4458H70.0073C70.8702 19.4458 71.6634 20.0912 71.6634 21.0124V52.7954H74.5931C75.4563 52.7954 76.2533 53.4406 76.2533 54.362V58.02C76.2529 58.9407 75.4559 59.5866 74.5931 59.5866H1.66016C0.797779 59.5866 0.000405133 58.9405 0 58.02V54.362C0 53.4408 0.797297 52.7954 1.66016 52.7954H4.58984V21.0124C4.58984 20.091 5.38274 19.4458 6.24593 19.4458H21.7896V7.21029H20.5811C19.7182 7.21029 18.925 6.56488 18.925 5.64372V1.56657C18.9254 0.646125 19.7187 0 20.5811 0H55.6722C56.5349 0 57.3279 0.645889 57.3283 1.56657V5.64372Z" fill="#113C7B"/>
</svg>
