<svg width="77" height="77" viewBox="0 0 77 77" fill="none" xmlns="http://www.w3.org/2000/svg">
<path d="M47.5613 8.21616L29.1075 8.14947C28.5076 8.14947 28.0409 8.63401 28.0239 9.2179C28.0239 9.81949 28.5076 10.3034 29.0905 10.3034L47.5449 10.3707C48.1448 10.3707 48.6115 9.88619 48.6285 9.30161C48.6285 8.7007 48.1618 8.21616 47.5613 8.21616Z" fill="#113C7B"/>
<path d="M74.7505 11.1878H69.2158V7.19644C69.2158 3.68966 66.3653 0.834147 62.8646 0.834147H13.7873C10.2866 0.834147 7.43604 3.68966 7.43604 7.19644V11.1878H1.91771C1.31784 11.1878 0.834147 11.6723 0.834147 12.2562V19.3705C0.834147 19.9714 1.31784 20.4559 1.91771 20.4559C2.51825 20.4559 3.00126 19.9714 3.00126 19.3705V13.3416H7.45234V60.5345C7.45234 63.7071 9.78658 66.3462 12.8368 66.8137V73.0093C12.8368 74.5452 14.254 75.7981 15.9877 75.7981H23.7057C25.4394 75.7981 26.8565 74.5452 26.8565 73.0093V66.8804H49.4285V73.0093C49.4285 74.5452 50.8456 75.7981 52.5793 75.7981H60.2974C62.0311 75.7981 63.4482 74.5452 63.4482 73.0093V66.8634C66.6656 66.5633 69.1995 63.8412 69.1995 60.5345V13.3416H73.6506V19.3705C73.6506 19.9714 74.1336 20.4559 74.7342 20.4559C75.334 20.4559 75.8177 19.9714 75.8177 19.3705V12.2562C75.8177 11.6723 75.334 11.1878 74.7505 11.1878ZM9.60316 17.5167H37.2587V43.3844H9.60316V17.5167ZM39.4095 17.5167H67.0657V43.3844H39.4095V17.5167ZM9.60316 7.19644C9.60316 4.87514 11.4863 2.98803 13.8036 2.98803H62.8816C65.1982 2.98803 67.082 4.87514 67.082 7.19644V15.3628H9.60316V7.19644ZM24.7064 73.0093C24.7064 73.3094 24.273 73.6435 23.7057 73.6435H15.9877C15.4041 73.6435 14.9877 73.3094 14.9877 73.0093V66.8804H24.7227V73.0093H24.7064ZM61.3144 73.0093C61.3144 73.3094 60.8809 73.6435 60.3144 73.6435H52.5956C52.0121 73.6435 51.5956 73.3094 51.5956 73.0093V66.8804H61.3307V73.0093H61.3144ZM67.0657 60.5181C67.0657 62.8387 65.1819 64.7258 62.8646 64.7258H13.7873C11.47 64.7258 9.58617 62.8387 9.58617 60.5181V45.5383H67.0487V60.5181H67.0657Z" fill="#113C7B"/>
<path d="M18.6386 59.9004C21.3723 59.9004 23.5897 57.6791 23.5897 54.9406C23.5897 52.2015 21.3723 49.9809 18.6386 49.9809C15.9043 49.9809 13.6876 52.2015 13.6876 54.9406C13.6876 57.6791 15.9043 59.9004 18.6386 59.9004ZM18.6386 52.1348C20.1889 52.1348 21.4389 53.387 21.4389 54.9406C21.4389 56.4936 20.1889 57.7458 18.6386 57.7458C17.0884 57.7458 15.8377 56.4766 15.8377 54.9406C15.8377 53.387 17.1047 52.1348 18.6386 52.1348Z" fill="#113C7B"/>
<path d="M58.0136 59.9004C60.7479 59.9004 62.9646 57.6791 62.9646 54.9406C62.9646 52.2015 60.7479 49.9809 58.0136 49.9809C55.2799 49.9809 53.0625 52.2015 53.0625 54.9406C53.0625 57.6791 55.2799 59.9004 58.0136 59.9004ZM58.0136 52.1348C59.5638 52.1348 60.8145 53.387 60.8145 54.9406C60.8145 56.4936 59.5638 57.7458 58.0136 57.7458C56.4633 57.7458 55.2133 56.4936 55.2133 54.9406C55.2133 53.387 56.4803 52.1348 58.0136 52.1348Z" fill="#113C7B"/>
<path d="M25.5575 66.0482V73.8444H25.1994C25.0968 73.9605 24.9896 74.0592 24.8861 74.1292C24.5631 74.3473 24.1483 74.475 23.7061 74.4751H15.9871C15.5405 74.475 15.1246 74.3478 14.799 74.1252C14.5015 73.9216 14.1565 73.5424 14.1561 73.0103V66.0482H25.5575ZM62.1623 66.0482V73.8444H61.8083C61.7058 73.9605 61.5984 74.0592 61.495 74.1292C61.1722 74.3473 60.757 74.475 60.3149 74.4751H52.596C52.1492 74.4751 51.7336 74.3478 51.4079 74.1252C51.1102 73.9217 50.7613 73.5427 50.7609 73.0103V66.0482H62.1623ZM15.8203 72.7824C15.8621 72.7953 15.9169 72.8108 15.9871 72.8109H23.7061C23.7746 72.8108 23.8296 72.7926 23.8729 72.7783V72.1761H23.8892V67.7124H15.8203V72.7824ZM52.4292 72.7865C52.4709 72.7991 52.5267 72.8109 52.596 72.8109H60.3149C60.3836 72.8108 60.4386 72.7927 60.4818 72.7783V72.1761H60.498V67.7124H52.4292V72.7865ZM67.8833 44.7062V59.6842H67.8996V60.5184C67.8994 63.2973 65.6442 65.559 62.8662 65.5599H13.7858C11.0078 65.5591 8.75259 63.2974 8.75244 60.5184V44.7062H67.8833ZM22.758 54.9398C22.7575 52.6605 20.9113 50.8146 18.6401 50.8138C16.3677 50.8138 14.5228 52.6599 14.5223 54.9398C14.5223 57.2194 16.3674 59.0658 18.6401 59.0658C20.9115 59.065 22.758 57.2189 22.758 54.9398ZM62.1297 54.9398C62.1293 52.6599 60.2844 50.8138 58.0119 50.8138C55.7408 50.8147 53.8945 52.6605 53.894 54.9398C53.894 57.2188 55.7406 59.0649 58.0119 59.0658C60.2846 59.0658 62.1297 57.2194 62.1297 54.9398ZM20.6055 54.9398C20.605 53.8458 19.7277 52.9671 18.6401 52.9663C17.5648 52.9663 16.6712 53.8487 16.6707 54.9398C16.6707 56.0199 17.5545 56.9133 18.6401 56.9133C19.7281 56.9125 20.6055 56.0334 20.6055 54.9398ZM59.9813 54.9398C59.9808 53.8455 59.1004 52.9663 58.0119 52.9663C56.9381 52.9672 56.047 53.8491 56.0465 54.9398C56.0465 56.0333 56.924 56.9124 58.0119 56.9133C59.1008 56.9133 59.9813 56.0336 59.9813 54.9398ZM38.09 16.6829V44.2179H8.76872V16.6829H38.09ZM67.8996 16.6829V44.2179H38.5742V16.6829H67.8996ZM40.2425 42.5496H66.2313V18.3512H40.2425V42.5496ZM10.437 42.5496H36.4258V18.3512H10.437V42.5496ZM68.3838 7.19808C68.3838 4.1507 65.9045 1.66916 62.8662 1.66829H13.7858C10.7474 1.66908 8.26823 4.15065 8.26823 7.19808V12.0199H1.9165C1.77044 12.0205 1.66849 12.1398 1.66829 12.2559V19.3685C1.66829 19.5101 1.7788 19.6201 1.9165 19.6208C2.0551 19.6208 2.16878 19.5109 2.16878 19.3685V12.5081H8.2845V60.5347C8.28461 63.2898 10.3145 65.5851 12.9639 65.9912L13.6719 66.097V73.0103C13.6725 73.9926 14.6156 74.9631 15.9871 74.9634H23.7061C25.0777 74.9632 26.0207 73.9926 26.0213 73.0103V66.0482H50.2604V73.0103C50.261 73.9927 51.208 74.9634 52.5798 74.9634H60.2987C61.6698 74.9628 62.6133 73.9924 62.6139 73.0103V66.1051L63.3708 66.0319C66.1632 65.7714 68.3674 63.4074 68.3675 60.5347V12.5081H74.4832V19.3685C74.4832 19.5109 74.5969 19.6208 74.7355 19.6208C74.8731 19.6201 74.9837 19.5101 74.9837 19.3685V12.2559C74.9835 12.1318 74.8735 12.0206 74.7518 12.0199H68.3838V7.19808ZM66.2476 7.19808C66.2476 5.33586 64.737 3.82128 62.8825 3.8208H13.8021C11.9473 3.8216 10.437 5.33597 10.437 7.19808V14.5304H66.2476V7.19808ZM29.1097 7.31608L47.5627 7.38119L47.9533 7.42188C48.8331 7.60398 49.4629 8.38946 49.4629 9.30176V9.32617C49.4334 10.3364 48.6202 11.2053 47.5464 11.2061L29.0894 11.1369C28.0372 11.1363 27.1891 10.2681 27.1891 9.21631V9.1919C27.2194 8.18275 28.0369 7.31707 29.1097 7.31608ZM29.0161 9.00065C28.9324 9.03526 28.8655 9.11735 28.8574 9.22852C28.8629 9.37309 28.9793 9.46792 29.0894 9.46859L47.5464 9.53776L47.6359 9.51742C47.7207 9.48218 47.7842 9.39982 47.7905 9.28548C47.7832 9.13704 47.68 9.05017 47.5627 9.04948L29.1056 8.98438L29.0161 9.00065ZM10.4207 60.5184C10.4209 62.3794 11.9308 63.8908 13.7858 63.8916H62.8662C64.6048 63.8908 66.0415 62.5632 66.215 60.8643V46.3704H10.4207V60.5184ZM22.2738 54.9398C22.2738 56.9511 20.6513 58.5767 18.6401 58.5775C16.6252 58.5775 15.0024 56.9316 15.0024 54.9398C15.0029 52.9244 16.6481 51.3021 18.6401 51.3021C20.6512 51.3029 22.2733 52.9283 22.2738 54.9398ZM24.4222 54.9398C24.4222 58.1366 21.8347 60.7332 18.6401 60.7341C15.4441 60.7341 12.854 58.137 12.854 54.9398C12.8545 51.7422 15.4444 49.1496 18.6401 49.1496C21.8344 49.1504 24.4217 51.7426 24.4222 54.9398ZM61.6496 54.9398C61.6496 56.9519 60.0235 58.5775 58.0119 58.5775C56.0008 58.5766 54.3783 56.9511 54.3783 54.9398C54.3787 52.9251 56.0212 51.303 58.0119 51.3021C60.0233 51.3021 61.6491 52.9275 61.6496 54.9398ZM63.798 54.9398C63.798 58.137 61.2079 60.7341 58.0119 60.7341C54.8174 60.7331 52.2298 58.1366 52.2298 54.9398C52.2303 51.7427 54.8177 49.1505 58.0119 49.1496C61.2076 49.1496 63.7975 51.7422 63.798 54.9398ZM67.9159 16.1947H8.76872V7.19808C8.76872 4.41859 11.0237 2.15738 13.8021 2.15658H62.8825C65.6603 2.15705 67.9159 4.4183 67.9159 7.19808V16.1947ZM70.048 10.3556H74.7518C75.7959 10.3564 76.6518 11.2133 76.652 12.2559V19.3685C76.652 20.4278 75.7964 21.2883 74.7355 21.2891C73.673 21.2891 72.819 20.4279 72.819 19.3685V14.1764H70.0317V60.5347C70.0316 64.0116 67.5565 66.9133 64.2822 67.5781V73.0103C64.2816 75.0985 62.393 76.631 60.2987 76.6317H52.5798C50.4849 76.6317 48.5968 75.0989 48.5962 73.0103V67.7124H27.6896V73.0103C27.689 75.0988 25.8007 76.6315 23.7061 76.6317H15.9871C13.8925 76.6314 12.0042 75.0987 12.0036 73.0103V67.4845C8.90632 66.6826 6.62038 63.8745 6.62028 60.5347V14.1764H3.83301V19.3685C3.83301 20.4279 2.97899 21.2891 1.9165 21.2891C0.855592 21.2884 0 20.4279 0 19.3685V12.2559C0.000178901 11.2051 0.864265 10.3563 1.9165 10.3556H6.604V7.19808C6.604 3.23292 9.82419 0.000784774 13.7858 0H62.8662C66.8278 0.000863563 70.048 3.23296 70.048 7.19808V10.3556Z" fill="#113C7B"/>
</svg>
