<svg width="100" height="100" viewBox="0 0 100 100" fill="none" xmlns="http://www.w3.org/2000/svg">
<path d="M81.25 85.1392H18.75C16.682 85.1392 15 83.5506 15 81.5975V37.917H85V81.5975C85 83.5506 83.318 85.1392 81.25 85.1392ZM18.75 23.7503H26.25V27.292C26.25 29.2451 27.932 30.8337 30 30.8337C32.068 30.8337 33.75 29.2451 33.75 27.292V23.7503H46.25V27.292C46.25 29.2451 47.932 30.8337 50 30.8337C52.068 30.8337 53.75 29.2451 53.75 27.292V23.7503H66.25V27.292C66.25 29.2451 67.932 30.8337 70 30.8337C72.068 30.8337 73.75 29.2451 73.75 27.292V23.7503H81.25C83.318 23.7503 85 25.3389 85 27.292V35.5559H15V27.292C15 25.3389 16.682 23.7503 18.75 23.7503ZM28.75 20.2087C28.75 19.5578 29.3108 19.0281 30 19.0281C30.6892 19.0281 31.25 19.5578 31.25 20.2087V27.292C31.25 27.9429 30.6892 28.4725 30 28.4725C29.3108 28.4725 28.75 27.9429 28.75 27.292V20.2087ZM48.75 20.2087C48.75 19.5578 49.3108 19.0281 50 19.0281C50.6892 19.0281 51.25 19.5578 51.25 20.2087V27.292C51.25 27.9429 50.6892 28.4725 50 28.4725C49.3108 28.4725 48.75 27.9429 48.75 27.292V20.2087ZM68.75 20.2087C68.75 19.5578 69.3108 19.0281 70 19.0281C70.6892 19.0281 71.25 19.5578 71.25 20.2087V27.292C71.25 27.9429 70.6892 28.4725 70 28.4725C69.3108 28.4725 68.75 27.9429 68.75 27.292V20.2087ZM81.25 21.3892H73.75V20.2087C73.75 18.2556 72.068 16.667 70 16.667C67.932 16.667 66.25 18.2556 66.25 20.2087V21.3892H53.75V20.2087C53.75 18.2556 52.068 16.667 50 16.667C47.932 16.667 46.25 18.2556 46.25 20.2087V21.3892H33.75V20.2087C33.75 18.2556 32.068 16.667 30 16.667C27.932 16.667 26.25 18.2556 26.25 20.2087V21.3892H18.75C15.3041 21.3892 12.5 24.0376 12.5 27.292V81.5975C12.5 84.852 15.3041 87.5003 18.75 87.5003H81.25C84.6959 87.5003 87.5 84.852 87.5 81.5975V27.292C87.5 24.0376 84.6959 21.3892 81.25 21.3892Z" fill="white"/>
<path d="M77.5 50.9029H75V48.5418H77.5V50.9029ZM78.75 46.1807H73.75C73.0599 46.1807 72.5 46.7095 72.5 47.3612V52.0834C72.5 52.7352 73.0599 53.264 73.75 53.264H78.75C79.4401 53.264 80 52.7352 80 52.0834V47.3612C80 46.7095 79.4401 46.1807 78.75 46.1807Z" fill="white"/>
<path d="M52.5 74.5142H50V72.1531H52.5V74.5142ZM53.75 69.792H48.75C48.0599 69.792 47.5 70.3208 47.5 70.9725V75.6948C47.5 76.3465 48.0599 76.8753 48.75 76.8753H53.75C54.4401 76.8753 55 76.3465 55 75.6948V70.9725C55 70.3208 54.4401 69.792 53.75 69.792Z" fill="white"/>
<path d="M40 50.9029H37.5V48.5418H40V50.9029ZM41.25 46.1807H36.25C35.5599 46.1807 35 46.7095 35 47.3612V52.0834C35 52.7352 35.5599 53.264 36.25 53.264H41.25C41.9401 53.264 42.5 52.7352 42.5 52.0834V47.3612C42.5 46.7095 41.9401 46.1807 41.25 46.1807Z" fill="white"/>
<path d="M27.5005 62.7085H25.0005V60.3474H27.5005V62.7085ZM28.7505 57.9863H23.7505C23.0604 57.9863 22.5005 58.5151 22.5005 59.1669V63.8891C22.5005 64.5409 23.0604 65.0697 23.7505 65.0697H28.7505C29.4406 65.0697 30.0005 64.5409 30.0005 63.8891V59.1669C30.0005 58.5151 29.4406 57.9863 28.7505 57.9863Z" fill="white"/>
<path d="M40 62.7085H37.5V60.3474H40V62.7085ZM41.25 57.9863H36.25C35.5599 57.9863 35 58.5151 35 59.1669V63.8891C35 64.5409 35.5599 65.0697 36.25 65.0697H41.25C41.9401 65.0697 42.5 64.5409 42.5 63.8891V59.1669C42.5 58.5151 41.9401 57.9863 41.25 57.9863Z" fill="white"/>
<path d="M27.5005 74.5142H25.0005V72.1531H27.5005V74.5142ZM28.7505 69.792H23.7505C23.0604 69.792 22.5005 70.3208 22.5005 70.9725V75.6948C22.5005 76.3465 23.0604 76.8753 23.7505 76.8753H28.7505C29.4406 76.8753 30.0005 76.3465 30.0005 75.6948V70.9725C30.0005 70.3208 29.4406 69.792 28.7505 69.792Z" fill="white"/>
<path d="M40 74.5142H37.5V72.1531H40V74.5142ZM41.25 69.792H36.25C35.5599 69.792 35 70.3208 35 70.9725V75.6948C35 76.3465 35.5599 76.8753 36.25 76.8753H41.25C41.9401 76.8753 42.5 76.3465 42.5 75.6948V70.9725C42.5 70.3208 41.9401 69.792 41.25 69.792Z" fill="white"/>
<path d="M61.6054 56.2321C61.3282 56.5 61.2027 56.8772 61.2664 57.2466L62.0328 61.6811L58.1051 59.631C57.9163 59.5326 57.7085 59.4839 57.5001 59.4839C57.2918 59.4839 57.0839 59.5326 56.8951 59.631L52.9675 61.6811L53.7338 57.2466C53.7976 56.8772 53.672 56.5 53.3948 56.2321L50.0936 53.0369L54.5993 52.3865C55.0113 52.3272 55.3647 52.0777 55.5414 51.7215L57.5001 47.7802L59.4588 51.7215C59.6355 52.0777 59.989 52.3272 60.401 52.3865L64.9067 53.0369L61.6054 56.2321ZM67.6889 51.05L61.438 50.1479L58.6315 44.5003C58.426 44.0857 57.9847 43.8213 57.5001 43.8213C57.0156 43.8213 56.5742 44.0857 56.3687 44.5003L53.5623 50.1479L47.3113 51.05C46.8482 51.1168 46.4636 51.4224 46.3148 51.8419C46.166 52.2617 46.278 52.7246 46.6054 53.0413L51.1646 57.4548L50.0862 63.7006C50.0094 64.1468 50.2089 64.5952 50.6 64.8556C50.9911 65.1161 51.5059 65.1429 51.9244 64.9237L57.5001 62.0132L63.0758 64.9237C63.2651 65.0221 63.473 65.0713 63.6804 65.0713C63.9333 65.0713 64.1854 64.9988 64.4002 64.8556C64.7913 64.5952 64.9908 64.1468 64.9141 63.7006L63.8357 57.4548L68.3948 53.0413C68.7222 52.7246 68.8343 52.2617 68.6855 51.8419C68.5367 51.4224 68.1521 51.1168 67.6889 51.05Z" fill="white"/>
<path d="M77.5 62.7085H75V60.3474H77.5V62.7085ZM78.75 57.9863H73.75C73.0599 57.9863 72.5 58.5151 72.5 59.1669V63.8891C72.5 64.5409 73.0599 65.0697 73.75 65.0697H78.75C79.4401 65.0697 80 64.5409 80 63.8891V59.1669C80 58.5151 79.4401 57.9863 78.75 57.9863Z" fill="white"/>
<path d="M77.5 74.5142H75V72.1531H77.5V74.5142ZM78.75 69.792H73.75C73.0599 69.792 72.5 70.3208 72.5 70.9725V75.6948C72.5 76.3465 73.0599 76.8753 73.75 76.8753H78.75C79.4401 76.8753 80 76.3465 80 75.6948V70.9725C80 70.3208 79.4401 69.792 78.75 69.792Z" fill="white"/>
<path d="M65.0005 74.5142H62.5005V72.1531H65.0005V74.5142ZM66.2505 69.792H61.2505C60.5604 69.792 60.0005 70.3208 60.0005 70.9725V75.6948C60.0005 76.3465 60.5604 76.8753 61.2505 76.8753H66.2505C66.9406 76.8753 67.5005 76.3465 67.5005 75.6948V70.9725C67.5005 70.3208 66.9406 69.792 66.2505 69.792Z" fill="white"/>
</svg>
