<svg width="99" height="114" viewBox="0 0 99 114" fill="none" xmlns="http://www.w3.org/2000/svg">
<path d="M4.78301 2.15198H38.7619C40.4169 2.15198 40.8139 3.26334 40.8139 4.33357V35.9001C40.8139 37.1258 40.8368 37.9936 41.1727 38.8475C41.5028 39.6924 42.0931 40.3389 42.932 41.1262L90.2365 85.4491C91.6054 86.7348 92.0913 87.6611 92.7663 89.4363L94.0398 92.7688C94.3634 93.6218 95.0034 94.1277 95.4583 94.4083C95.9385 94.6921 96.2606 95.031 95.5994 95.7598C95.2602 96.1374 94.8183 96.6203 94.3341 97.1106C93.7984 97.6519 93.4014 98.1191 93.1731 98.7221C92.9522 99.3218 92.9383 99.8935 92.9383 100.585C92.9383 101.372 92.8862 101.698 92.7761 101.936C92.6742 102.166 92.4369 102.456 91.9021 102.999C91.2238 103.682 90.7762 104.311 90.5618 105.04C90.3409 105.76 90.3621 106.426 90.3621 107.258C90.3621 108.543 91.1953 109.42 91.7521 109.879L92.1491 110.189C92.3342 110.345 92.3481 110.444 92.3481 110.583V111.147C92.3481 111.437 92.2983 111.518 91.9143 111.518H72.3103C70.9276 111.518 70.6407 111.354 70.3537 111.051C70.0675 110.754 69.7145 109.938 68.9857 108.706C67.2556 105.766 65.5786 102.1 61.8056 100.324C60.5027 99.7084 59.3198 99.7981 58.5176 99.8951C58.2828 99.9182 58.1148 99.9305 57.9876 99.9305C57.5327 99.9305 57.6575 99.5834 57.7308 99.2996C57.827 98.9442 57.8547 98.5 57.6346 97.957C57.2987 97.1418 56.6718 96.4961 55.8639 96.1547C54.9809 95.7927 54.1265 95.8421 53.3977 95.9235C52.6778 96.0058 52.0516 96.0872 51.5747 96.0872C50.567 96.0732 50.4048 95.7541 50.1268 95.0943C49.2879 93.12 47.6255 92.2497 46.0806 91.7907C44.3669 91.2864 42.7119 91.7306 41.2844 92.007C39.8576 92.2735 38.7326 92.378 37.9075 91.8951C37.1868 91.4789 36.4946 90.3075 36.5558 89.6173C36.6137 88.8506 36.8705 87.9548 37.0017 86.9898C37.1289 86.0167 37.0979 84.8296 36.3128 83.8787L27.066 72.7239C26.1456 71.6175 26.0355 70.9364 25.9108 69.9402C25.7787 68.9547 25.6768 67.6319 24.7939 66.0969L20.2324 58.1109C19.8297 57.3911 19.8647 57.1673 20.7615 58.0656C21.5572 58.8734 22.7035 59.1268 23.6614 58.718C24.6104 58.3173 25.2276 57.1221 24.9863 55.9194C24.6471 54.3029 23.3394 53.4038 22.3961 52.7219C22.1695 52.5573 21.9624 52.3862 21.7733 52.2686C21.0672 51.8293 21.536 51.5488 21.9551 51.6302C22.4932 51.7323 23.3533 51.9338 24.3169 52.1929C25.3474 52.4767 26.3999 52.0605 26.9364 51.3111C27.4663 50.5682 27.5552 49.498 27.0253 48.6375C26.4578 47.7113 25.517 47.2054 24.502 46.7908C23.4943 46.3745 22.3749 46.0989 21.3673 45.9657C20.508 45.8538 19.5729 45.8472 18.7054 46.0553C17.8371 46.2618 16.8653 46.7973 16.5784 47.8659C16.3794 48.6244 16.6085 49.2331 16.6085 49.6107C16.6085 50.3971 16.2775 50.6069 15.5544 49.5877L8.90666 40.1925C7.85333 38.7003 7.83865 38.2569 7.83865 36.4158V31.7878C7.83865 30.6303 7.79544 29.7896 7.47749 28.9744C7.15382 28.1649 6.61167 27.534 5.85346 26.7698L3.15329 24.0313C2.55162 23.4242 2.35758 23.1116 2.25649 22.7694C2.15458 22.428 2.13746 21.9245 2.13746 21.0254V18.8134C2.13746 17.7818 2.44644 17.4486 2.97637 16.7642C3.50059 16.0823 4.2645 15.0515 4.2645 13.491V7.61995C4.2645 6.53656 3.86746 5.72052 3.5813 5.14303C3.28536 4.56309 3.10926 4.23651 3.11741 3.70262C3.15002 1.98828 3.37912 2.15198 4.78301 2.15198ZM3.85605 0C3.05708 0 2.1293 0.245141 1.59123 0.978098C1.0613 1.70612 0.980587 2.57563 0.980587 3.70262C0.980587 4.75723 1.38333 5.55106 1.6646 6.12113C1.95076 6.68545 2.13338 7.03589 2.13338 7.61995V13.491C2.13338 14.4263 1.83255 14.7323 1.28876 15.4291C0.75068 16.1259 0.000630339 17.2002 0.000630339 18.8126V21.0238C0.000630339 21.9147 -0.0221972 22.627 0.206894 23.3921C0.432724 24.1579 0.904767 24.8243 1.63362 25.5597L4.34766 28.2892C5.05368 29.0016 5.34066 29.3874 5.49638 29.7756C5.64312 30.1614 5.70182 30.6962 5.70182 31.7861V36.4101C5.70182 38.3383 5.93662 39.6981 7.17257 41.4421L13.8146 50.8389C14.5125 51.8326 15.4174 52.4126 16.3387 52.4422C17.2493 52.4808 18.0434 51.9675 18.4396 51.2691C18.8595 50.5271 18.8538 49.7259 18.7127 49.257C18.4029 48.2271 18.7926 48.255 19.1986 48.1456C19.7424 47.9959 20.4199 48.0189 21.0884 48.1004C21.9045 48.2057 22.8918 48.4566 23.6924 48.7823C24.2517 49.0151 24.7164 49.2882 24.9659 49.5252C25.4126 49.948 25.0678 50.2022 24.6707 50.0599C23.6786 49.7119 22.7068 49.4667 21.7138 49.4593C21.1838 49.4528 20.6025 49.5564 20.0954 49.92C19.5949 50.2902 19.2419 50.8775 19.1196 51.5233C18.9484 52.3912 19.3625 52.8666 19.8256 53.44C20.1925 53.8842 20.6996 54.1524 21.1504 54.479C22.0554 55.1297 22.7532 55.8067 22.8861 56.3636C23.0043 56.8671 22.5103 56.8901 22.26 56.5421C22.0611 56.2674 21.7309 55.9317 21.2882 55.5912C20.8463 55.2498 20.1052 54.9076 19.3413 55.1173C18.7282 55.2868 18.0964 55.717 17.8184 56.4377C17.5371 57.1574 17.6855 57.9801 18.1192 58.7393L22.944 67.1614C23.615 68.3287 23.65 69.1356 23.7911 70.2281C23.9321 71.3115 24.2248 72.6622 25.4151 74.0944L34.6619 85.2566C34.9277 85.5758 34.9799 85.9607 34.882 86.6962C34.7891 87.4373 34.5062 88.3718 34.4271 89.4339C34.2738 91.2749 35.385 92.9078 36.8411 93.7518C38.4439 94.6896 40.178 94.3902 41.6741 94.1096C43.1668 93.8341 44.499 93.5749 45.4748 93.8571C46.7768 94.2429 47.8587 94.9035 48.2411 96.1654C48.462 96.9024 49.005 97.4355 49.5789 97.739C50.161 98.0508 50.8002 98.1833 51.4271 98.2293C52.2718 98.2803 53.008 98.1397 53.6267 98.0656C54.2447 97.9998 54.7298 97.9686 55.047 98.1553C55.7236 98.5329 55.6348 98.8076 55.4896 99.3859C55.4228 99.6311 55.3356 99.9206 55.3478 100.329C55.3625 100.738 55.5907 101.339 56.04 101.643C56.9946 102.318 58.026 102.11 58.7605 102.022C59.4894 101.94 60.0707 101.888 60.8957 102.275C63.8527 103.67 65.3446 106.741 67.1554 109.809C67.7945 110.899 68.0603 111.76 68.8022 112.547C69.5376 113.334 70.6945 113.667 72.3103 113.667H92.0163C92.7606 113.667 93.4454 113.571 93.9582 113.037C94.4653 112.503 94.4873 111.865 94.4873 111.409V110.23C94.4873 109.614 94.1433 109.125 93.8645 108.843C93.5783 108.559 93.3182 108.376 93.0981 108.196C92.6726 107.846 92.4965 107.714 92.4965 107.253C92.4965 106.42 92.5103 105.953 92.5984 105.649C92.6937 105.353 92.8552 105.078 93.4144 104.515C93.9794 103.943 94.4213 103.476 94.7164 102.822C95.0116 102.17 95.0694 101.471 95.0694 100.58C95.0694 99.9338 95.0996 99.6615 95.1657 99.4888C95.2317 99.3177 95.3703 99.1038 95.8334 98.6365C96.2972 98.1693 96.8353 97.6634 97.2894 97.0563C97.7533 96.4451 98.1667 95.6899 98.1667 94.7776C98.1667 94.2429 97.9604 93.686 97.6596 93.338C97.3506 92.981 97.0253 92.8255 96.7913 92.6931C96.3282 92.4323 96.1815 92.3879 96.0331 91.9873L94.7621 88.6557C94.0414 86.7702 93.2742 85.3578 91.6853 83.8663L44.3938 39.5509C43.616 38.8154 43.307 38.4379 43.153 38.0446C42.9989 37.6588 42.9467 37.0715 42.9467 35.9001V4.33357C42.9467 1.68309 41.0047 0 38.7619 0H3.85605Z" fill="white"/>
</svg>
