<svg width="75" height="46" viewBox="0 0 75 46" fill="none" xmlns="http://www.w3.org/2000/svg">
<path d="M17.9447 0.609949C17.3355 0.609949 16.5334 0.780526 15.719 1.2554C14.9093 1.72681 14.1056 2.55091 13.7578 3.75946C13.7554 3.76752 13.7602 3.77732 13.7578 3.78539L10.0748 16.5394L2.81476 19.6895H2.78815C1.84005 20.1511 1.1806 20.7464 0.880652 21.4708C0.58078 22.1952 0.61568 22.8994 0.61568 23.7172V34.4831C0.61568 36.2616 2.13102 37.7881 4.00702 37.7881H7.45165C7.87514 41.9592 11.4883 45.2234 15.8775 45.2234C20.2672 45.2234 23.8804 41.9592 24.3039 37.7881H51.543C51.9665 41.9592 55.5796 45.2234 59.9694 45.2234C64.3585 45.2234 67.9719 41.9592 68.3952 37.7881H70.9916C72.1751 37.7881 73.1144 37.3754 73.668 36.7035C74.2216 36.0321 74.3837 35.2079 74.3837 34.483V25.8339C74.3837 24.0065 73.2972 22.284 71.3631 21.3417C71.3371 21.3319 71.3105 21.3233 71.2833 21.3158L57.1606 16.4623L51.1189 5.25741C51.1106 5.24876 51.1018 5.24012 51.0929 5.23147C50.0596 3.49562 49.0494 2.30046 47.7807 1.56501C46.5115 0.830232 45.0535 0.610084 43.2762 0.610084L17.9447 0.609949ZM17.9447 2.26216H43.276C44.9071 2.26216 46.015 2.45349 46.9323 2.98483C47.8431 3.51271 48.6564 4.4394 49.6087 6.03165C49.6158 6.04375 49.6276 6.04491 49.6353 6.05759L55.8355 17.5207C55.9319 17.6987 56.0922 17.8365 56.2856 17.9079L66.752 21.4965V27.8738C66.752 28.3297 67.1317 28.6997 67.6001 28.6997H72.6879V34.4828C72.6879 34.964 72.5625 35.3789 72.3431 35.6446C72.1242 35.9108 71.8054 36.1356 70.9916 36.1356H68.3952C67.9717 31.9644 64.3585 28.6997 59.9694 28.6997C55.5796 28.6997 51.9664 31.9644 51.5429 36.1356H24.3038C23.8803 31.9644 20.2672 28.6997 15.8774 28.6997C11.4883 28.6997 7.87497 31.9644 7.45162 36.1356H4.00698C3.12867 36.1356 2.31131 35.2942 2.31131 34.4828V23.717C2.31131 22.8992 2.34621 22.3903 2.47042 22.0901C2.59226 21.7945 2.78152 21.5427 3.50369 21.1865H3.5303L11.1347 17.8821C11.3642 17.7864 11.5387 17.598 11.612 17.3657L15.4008 4.22447V4.19854C15.6238 3.40613 16.0792 2.97506 16.5932 2.67542C17.1071 2.37579 17.7057 2.26216 17.9447 2.26216ZM18.2623 4.74084C17.9287 4.80654 17.6679 5.06069 17.5998 5.38629L15.0566 16.9525C15.0004 17.1963 15.0607 17.4516 15.2198 17.6475C15.3795 17.8429 15.6214 17.9575 15.8775 17.9593H27.7486C28.217 17.9593 28.5961 17.5899 28.5961 17.1334V5.56665C28.5961 5.11081 28.217 4.74081 27.7486 4.74081H18.4212C18.3946 4.73966 18.3686 4.73966 18.342 4.74081C18.3154 4.73966 18.2889 4.73969 18.2623 4.74084ZM31.8291 4.74084C31.424 4.81633 31.133 5.16499 31.1401 5.56668V17.1335C31.1401 17.5899 31.5198 17.9593 31.9882 17.9593H51.4902C51.783 17.9616 52.0568 17.8158 52.2129 17.5738C52.3697 17.3323 52.3868 17.0292 52.2585 16.7721L46.3233 5.20534C46.1801 4.9195 45.8814 4.73854 45.5544 4.74085H31.9881C31.9615 4.7397 31.9349 4.7397 31.9083 4.74085C31.8822 4.7397 31.8558 4.73969 31.8291 4.74084ZM19.1105 6.39305H26.9005V16.307H16.9114L19.1105 6.39305ZM32.8357 6.39305H45.0244L50.1122 16.307H32.836L32.8357 6.39305ZM68.448 22.0904L70.6204 22.8396C72.0778 23.5496 72.6875 24.6019 72.6875 25.8341V27.0477H68.448V22.0904ZM15.8775 30.3522C19.6339 30.3522 22.661 33.3017 22.661 36.9618C22.661 40.6219 19.6339 43.5713 15.8775 43.5713C12.1211 43.5713 9.0947 40.6219 9.0947 36.9618C9.0947 33.3017 12.1211 30.3522 15.8775 30.3522ZM59.9689 30.3522C63.7253 30.3522 66.7517 33.3017 66.7517 36.9618C66.7517 40.6219 63.7253 43.5713 59.9689 43.5713C56.2125 43.5713 53.1854 40.6219 53.1854 36.9618C53.1854 33.3017 56.2125 30.3522 59.9689 30.3522ZM15.8775 33.6572C14.0144 33.6572 12.4862 35.1464 12.4862 36.9616C12.4862 38.777 14.0146 40.2666 15.8775 40.2666C17.7407 40.2666 19.2695 38.7769 19.2695 36.9616C19.2695 35.1463 17.7405 33.6572 15.8775 33.6572ZM59.9689 33.6572C58.1057 33.6572 56.5769 35.1464 56.5769 36.9616C56.5769 38.777 58.1059 40.2666 59.9689 40.2666C61.832 40.2666 63.3602 38.7769 63.3602 36.9616C63.3602 35.1463 61.8318 33.6572 59.9689 33.6572ZM15.8775 35.3094C16.8244 35.3094 17.5738 36.0396 17.5738 36.9616C17.5738 37.8843 16.8244 38.6138 15.8775 38.6138C14.9312 38.6138 14.1819 37.8843 14.1819 36.9616C14.1819 36.0396 14.9312 35.3094 15.8775 35.3094ZM59.9689 35.3094C60.9152 35.3094 61.6645 36.0396 61.6645 36.9616C61.6645 37.8843 60.9152 38.6138 59.9689 38.6138C59.0219 38.6138 58.2726 37.8843 58.2726 36.9616C58.2726 36.0396 59.022 35.3094 59.9689 35.3094Z" fill="#113C7B"/>
<path d="M0.00209374 34.4819V23.7167C0.00207419 22.9461 -0.0451716 22.101 0.310266 21.2413C0.687495 20.3303 1.49059 19.6412 2.5155 19.1421L2.64357 19.0827H2.68759L9.56344 16.0924L13.1574 3.63989C13.1607 3.62402 13.1604 3.6055 13.1654 3.5884C13.5639 2.20801 14.4857 1.26931 15.4067 0.732731C16.3157 0.202714 17.2255 0.000100047 17.9441 0H43.2743C45.0956 0 46.6859 0.22713 48.093 1.04167C49.4714 1.8413 50.5318 3.1136 51.5709 4.84395L51.6229 4.8994L51.663 4.97069L57.5863 15.9617L71.45 20.7304L71.5821 20.7739L71.6341 20.7937C73.7582 21.8287 75 23.7554 75 25.8357V34.4819C75 35.1863 74.8625 36.0276 74.3757 36.7752L74.1435 37.0881C73.4475 37.9326 72.3129 38.3951 70.9898 38.3951H68.9246C68.2223 42.6148 64.4753 45.8333 59.9676 45.8333C55.4599 45.8325 51.7127 42.6145 51.0106 38.3951H24.836C24.1338 42.6145 20.3868 45.8326 15.879 45.8333C11.3712 45.8333 7.62436 42.6148 6.92196 38.3951H4.00833C1.79572 38.3951 0.00209374 36.5993 0.00209374 34.4819ZM22.0464 36.9613C22.0462 33.6468 19.3041 30.9616 15.879 30.9609C12.4533 30.9609 9.70776 33.6462 9.70752 36.9613C9.70752 40.2767 12.4531 42.9618 15.879 42.9618C19.3042 42.9611 22.0464 40.2761 22.0464 36.9613ZM66.135 36.9613C66.1348 33.6462 63.3933 30.9609 59.9676 30.9609C56.5424 30.9615 53.8004 33.6467 53.8002 36.9613C53.8002 40.2762 56.5423 42.9612 59.9676 42.9618C63.3934 42.9618 66.135 40.2767 66.135 36.9613ZM18.6565 36.9613C18.6564 35.4916 17.4109 34.2649 15.879 34.2641C14.3464 34.2641 13.1016 35.4911 13.1014 36.9613C13.1014 38.432 14.3466 39.6586 15.879 39.6586C17.4109 39.6578 18.6565 38.4313 18.6565 36.9613ZM62.7452 36.9613C62.745 35.491 61.5 34.2641 59.9676 34.2641C58.4355 34.2648 57.1902 35.4916 57.19 36.9613C57.19 38.4314 58.4357 39.6579 59.9676 39.6586C61.5001 39.6586 62.7452 38.4319 62.7452 36.9613ZM16.9596 36.9613C16.9594 36.3849 16.4947 35.9204 15.879 35.9197C15.2632 35.9197 14.7985 36.3843 14.7984 36.9613C14.7984 37.539 15.263 38.007 15.879 38.007C16.495 38.0062 16.9596 37.5384 16.9596 36.9613ZM61.0482 36.9613C61.048 36.3843 60.5833 35.9197 59.9676 35.9197C59.3518 35.9203 58.8872 36.3848 58.887 36.9613C58.887 37.5384 59.3515 38.0063 59.9676 38.007C60.5836 38.007 61.0482 37.539 61.0482 36.9613ZM1.73106 22.6553C1.75726 22.3668 1.80647 22.0928 1.90316 21.8592C1.9884 21.6527 2.10739 21.4373 2.3354 21.2215C2.5505 21.0182 2.84058 20.8344 3.2279 20.6432L3.35997 20.5798H3.40399L10.8882 17.3241L10.8962 17.3202C10.9611 17.2929 11.0057 17.243 11.0243 17.1855L14.7864 4.13498V4.11518L14.8104 4.03596C15.085 3.06019 15.6609 2.5114 16.2792 2.15067C16.6807 1.91657 17.1279 1.78036 17.4839 1.71103L17.5039 1.65558H43.2743C44.944 1.65558 46.1866 1.84681 47.2445 2.4596C48.2773 3.05852 49.1427 4.07699 50.0981 5.66381C50.094 5.65854 50.0903 5.65301 50.0861 5.64797C50.0664 5.62452 50.0469 5.60373 50.03 5.58856C50.0137 5.57379 49.9986 5.56331 49.99 5.55688L49.998 5.5648C50.009 5.57307 50.0246 5.58475 50.0421 5.60044C50.064 5.62024 50.0835 5.64798 50.1061 5.6757C50.1172 5.69075 50.1281 5.70643 50.1381 5.72323L50.1421 5.72719C50.1316 5.7092 50.1179 5.69171 50.1061 5.6757C50.1235 5.69702 50.146 5.71658 50.1621 5.74303L50.1781 5.77075L56.3776 17.233C56.4023 17.2787 56.4461 17.3155 56.5017 17.336L67.3677 21.0631V27.8755C67.3687 27.9855 67.4624 28.0892 67.5999 28.0894H73.3031V34.4819C73.3031 35.0518 73.1562 35.6221 72.8188 36.0306L72.8148 36.0266C72.6601 36.2145 72.4547 36.4122 72.1344 36.5494C71.825 36.6818 71.4501 36.7435 70.9898 36.7435H67.84L67.784 36.1969C67.3924 32.3405 64.0449 29.3093 59.9676 29.3093C55.8904 29.3101 52.5467 32.3411 52.1552 36.1969L52.0992 36.7435H23.7474L23.6913 36.1969C23.2998 32.341 19.9562 29.31 15.879 29.3093C11.8016 29.3093 8.454 32.3405 8.0626 36.1969L8.00657 36.7435H4.00833C3.37248 36.7435 2.79891 36.4428 2.39543 36.0425C1.99396 35.644 1.69504 35.0836 1.69504 34.4819V23.7167C1.69504 23.3031 1.70433 22.9498 1.73106 22.6553ZM72.0744 25.8357C72.0744 25.323 71.9474 24.8682 71.6861 24.4732C71.4283 24.0837 71.015 23.7168 70.3854 23.4038L69.0647 22.9444V26.4377H72.0744V25.8357ZM27.9817 5.5648C27.9807 5.4545 27.8859 5.35145 27.7496 5.35092H18.3924L18.3604 5.34696C18.2772 5.37181 18.2161 5.43374 18.2003 5.50935V5.51727L15.6588 17.0825L15.6548 17.0865C15.641 17.1465 15.6567 17.2122 15.6989 17.2647L15.7789 17.3281C15.8101 17.3427 15.8464 17.3516 15.883 17.3519H27.7496C27.8868 17.3513 27.9814 17.2451 27.9817 17.134V5.5648ZM45.5555 4.13102C46.1103 4.12916 46.619 4.43872 46.8683 4.93108L52.8076 16.4964L52.8116 16.5043C52.9788 16.8405 53.001 17.2224 52.8876 17.5697L52.7316 17.9024C52.4609 18.3215 51.9899 18.5659 51.4909 18.5638L31.988 18.5678C31.1899 18.5677 30.5275 17.9355 30.5271 17.134V5.5648C30.5209 4.86494 31.0273 4.2712 31.7158 4.1429L31.7999 4.59838L31.7678 4.13498L31.8159 4.46768L31.8039 4.13498L45.5555 4.13102ZM27.5135 5.7866V16.9162H16.1471L18.5084 6.26188L18.6165 5.7866H27.5135ZM45.4035 5.7866L45.5716 6.1193L50.6584 16.033L51.1147 16.9162H32.2201V5.7866H45.4035ZM33.4488 15.7003H49.1135L44.647 7.00253H33.4488V15.7003ZM17.676 15.7003H26.2848V7.00253H19.601L17.676 15.7003ZM13.1454 3.84189L13.1494 3.84981C13.1491 3.847 13.146 3.83909 13.1454 3.83397V3.84189ZM14.3661 3.6993C14.3665 3.70211 14.3696 3.70624 14.3701 3.71118V3.70326L14.3661 3.6993ZM18.1883 36.9613C18.1883 38.2287 17.1554 39.2222 15.879 39.2229C14.6023 39.2229 13.5657 38.229 13.5657 36.9613C13.5658 35.6945 14.6023 34.6998 15.879 34.6998C17.1555 34.7005 18.1881 35.6949 18.1883 36.9613ZM19.8852 36.9613C19.8852 39.1209 18.0719 40.8738 15.879 40.8745C13.6854 40.8745 11.8727 39.1215 11.8727 36.9613C11.8729 34.8014 13.6854 33.0482 15.879 33.0482C18.0715 33.0489 19.885 34.8015 19.8852 36.9613ZM23.2751 36.9613C23.2751 40.9659 19.9652 44.177 15.879 44.1778C11.792 44.1778 8.47883 40.9663 8.47883 36.9613C8.47907 32.9566 11.7922 29.7449 15.879 29.7449C19.965 29.7457 23.2749 32.957 23.2751 36.9613ZM62.2809 36.9613C62.2809 38.229 61.2442 39.2229 59.9676 39.2229C58.6911 39.2223 57.6583 38.2287 57.6583 36.9613C57.6585 35.6948 58.691 34.7004 59.9676 34.6998C61.2443 34.6998 62.2807 35.6946 62.2809 36.9613ZM63.9738 36.9613C63.9738 39.1213 62.1614 40.8745 59.9676 40.8745C57.7747 40.8739 55.9614 39.1212 55.9614 36.9613C55.9615 34.8017 57.7748 33.0488 59.9676 33.0482C62.1609 33.0482 63.9737 34.8012 63.9738 36.9613ZM67.3677 36.9613C67.3677 40.9663 64.0545 44.1778 59.9676 44.1778C55.8813 44.1771 52.5715 40.9659 52.5715 36.9613C52.5717 32.957 55.8815 29.7456 59.9676 29.7449C64.0544 29.7449 67.3675 32.9566 67.3677 36.9613ZM73.3031 27.6576H67.832V21.2334L70.8217 22.2631L70.8937 22.2948C71.6994 22.6877 72.3087 23.194 72.7147 23.8078C73.1227 24.4246 73.3031 25.1163 73.3031 25.8357V27.6576ZM1.23078 34.4819C1.23078 35.9216 2.46894 37.1792 4.00833 37.1792H8.00657L8.0626 37.7258C8.45413 41.5821 11.8016 44.6134 15.879 44.6134C19.9563 44.6127 23.2998 41.5817 23.6913 37.7258L23.7474 37.1792H52.0992L52.1552 37.7258C52.5467 41.5816 55.8904 44.6125 59.9676 44.6134C64.045 44.6134 67.3926 41.5821 67.784 37.7258L67.84 37.1792H70.9898C72.0329 37.1792 72.7797 36.8185 73.191 36.3197C73.6229 35.7959 73.7673 35.1271 73.7673 34.4819V25.8357C73.7673 24.2693 72.8441 22.7548 71.1178 21.9027L71.0818 21.8908L56.9579 17.039L56.7298 16.9598L56.6177 16.7498L50.6224 5.62421L50.6024 5.60836L50.5623 5.54103C49.5508 3.84169 48.6053 2.7502 47.4686 2.09125C46.3373 1.43658 45.0071 1.2199 43.2743 1.2199H17.9441C17.5696 1.21998 17.0851 1.29643 16.5633 1.51299L16.0311 1.77836C15.3386 2.18153 14.6548 2.88242 14.3541 3.90526C14.3509 3.92079 14.355 3.94005 14.3501 3.95675L10.6641 16.7063L10.588 16.9835L10.3199 17.0984L3.0598 20.2471L2.95975 20.2868C2.14982 20.7 1.66506 21.1845 1.4509 21.7007C1.2074 22.289 1.23077 22.8526 1.23078 23.7167V34.4819ZM2.92773 34.4819C2.92773 34.6914 3.03784 34.9581 3.26392 35.183C3.48869 35.4061 3.76597 35.5276 4.00833 35.5276H6.92196C7.62466 31.3083 11.3715 28.0933 15.879 28.0933C20.3865 28.094 24.1334 31.3086 24.836 35.5276H51.0106C51.7131 31.3087 55.4602 28.0941 59.9676 28.0933C64.4751 28.0933 68.2218 31.3084 68.9246 35.5276H70.9898C71.3425 35.5276 71.538 35.4788 71.6461 35.4325C71.7422 35.3913 71.8024 35.3397 71.8662 35.2622C71.9676 35.1392 72.0744 34.874 72.0744 34.4819V29.3093H67.5999C66.8019 29.3091 66.1399 28.6756 66.139 27.8755V21.9304L56.0854 18.4846L56.0694 18.4767C55.7387 18.3542 55.4609 18.1174 55.293 17.8074L49.1175 6.39259C49.1043 6.37469 49.0894 6.35732 49.0775 6.33714C48.145 4.77909 47.3944 3.95791 46.6201 3.50919C45.8437 3.05993 44.8659 2.87151 43.2743 2.87151H17.9441C17.8969 2.87163 17.7459 2.88624 17.5359 2.94281C17.3315 2.99803 17.103 3.084 16.9035 3.20025C16.5099 3.43002 16.1909 3.73207 16.015 4.29737V4.30925L12.2049 17.5341L12.2009 17.5459C12.0731 17.9506 11.7674 18.2726 11.3764 18.4371L11.3805 18.4411L3.7762 21.7443L3.66814 21.7879C3.40737 21.9238 3.26768 22.0255 3.18787 22.1008C3.11201 22.1725 3.07602 22.2309 3.03979 22.3186C3.01246 22.3854 2.97787 22.5196 2.95574 22.7622C2.93401 23.0014 2.92773 23.313 2.92773 23.7167V34.4819ZM31.7558 17.134C31.7562 17.2448 31.8498 17.3517 31.988 17.3519H51.4949C51.579 17.3525 51.6543 17.308 51.695 17.2449L51.727 17.1459C51.7292 17.1109 51.7232 17.0758 51.707 17.0429L45.7757 5.48162L45.7717 5.4737C45.7341 5.40042 45.6536 5.35054 45.5596 5.35092H31.9599L31.9279 5.34696C31.8199 5.37442 31.7542 5.46337 31.7558 5.55688V17.134ZM29.2104 17.134C29.2101 17.9347 28.5478 18.5673 27.7496 18.5678H15.875C15.546 18.5656 15.2289 18.4531 14.9745 18.2549L14.7423 18.0291C14.4687 17.6922 14.3589 17.2497 14.4542 16.8251L16.9996 5.25586C17.1208 4.69064 17.5748 4.25504 18.1442 4.1429L18.2043 4.46372L18.2363 4.13498L27.7496 4.13102C28.5477 4.13157 29.2094 4.76559 29.2104 5.5648V17.134Z" fill="#113C7B"/>
</svg>
