<svg width="100" height="100" viewBox="0 0 100 100" fill="none" xmlns="http://www.w3.org/2000/svg">
<path d="M69.373 72.9045C70.2303 72.9045 70.96 73.5852 70.96 74.4629C70.9597 75.3382 70.2329 76.0213 69.373 76.0213C68.517 76.0206 67.7868 75.3444 67.7861 74.467C67.7861 73.5919 68.5136 72.9051 69.373 72.9045Z" fill="currentColor"/>
<path d="M69.373 69.6248C70.2294 69.6248 70.9588 70.3018 70.96 71.1792C70.96 72.0547 70.233 72.7417 69.373 72.7417C68.5164 72.741 67.7861 72.0606 67.7861 71.1833C67.7868 70.3095 68.5138 69.6255 69.373 69.6248Z" fill="currentColor"/>
<path fill-rule="evenodd" clip-rule="evenodd" d="M49.3372 12.5C58.6724 12.5 67.4538 16.0355 74.0605 22.4528C80.6685 28.8732 84.3144 37.4134 84.3144 46.5006C84.3144 51.2114 83.3299 55.7646 81.4132 60.0464C81.3748 61.994 80.9395 64.174 80.1234 66.6056C84.3731 69.9822 86.4075 73.9632 86.1577 78.6499C86.1337 79.1018 85.9113 79.5055 85.5718 79.777L85.1974 80.0008C80.3649 82.0313 74.4566 82.8744 68.9499 82.3324C67.9611 82.4294 66.9493 82.4785 65.9266 82.487C65.8576 82.5641 65.7817 82.6383 65.6947 82.7026C60.2782 86.688 54.2058 88.7274 47.6608 88.7451C41.1124 88.7282 35.0348 86.6921 29.6188 82.7067C29.5904 82.686 29.5633 82.6593 29.5374 82.6375C29.3083 82.6461 29.0782 82.6579 28.8538 82.6579C28.3663 82.6578 27.8831 82.6325 27.4093 82.5928C26.956 82.6296 26.4961 82.6538 26.034 82.6538C21.2878 82.6555 16.0055 80.7636 12.9684 77.8158C12.5576 77.4165 12.4021 76.8257 12.5615 76.2777C13.4445 73.2576 14.7189 70.9254 16.5532 69.1488C13.9675 63.1178 13.3182 57.5917 14.7303 52.7425L14.8727 52.2909C14.5358 50.3892 14.36 48.4424 14.36 46.5006C14.3603 37.4146 18.0086 28.8714 24.6139 22.4528C31.2208 16.0346 40.0027 12.5003 49.3372 12.5ZM55.0664 71.4518C54.4707 72.8372 53.6209 73.9435 52.4907 74.7477C51.2152 75.655 49.6296 76.1489 47.7625 76.2736C47.6929 76.2781 47.6205 76.2782 47.5509 76.2736C45.684 76.148 44.098 75.6552 42.8227 74.7477C41.6938 73.9441 40.8426 72.8389 40.2471 71.4559C39.6766 71.6463 39.1256 71.8647 38.6072 72.1232L38.6032 72.1191C38.5175 72.1735 38.4293 72.2241 38.3346 72.2616L37.7283 72.6034C34.8776 74.3346 32.944 77.1709 32.284 80.7454C33.2691 81.4252 34.276 82.0345 35.3032 82.5724V80.1758C35.3032 79.2997 36.0292 78.619 36.8861 78.6173C37.7443 78.6173 38.473 79.2986 38.473 80.1758V83.9803C41.3924 85.06 44.4594 85.6151 47.6567 85.6242C50.8524 85.617 53.9205 85.0644 56.8405 83.9844V80.1758C56.8405 79.2992 57.5667 78.6188 58.4233 78.6173C59.2809 78.6173 60.0102 79.2984 60.0102 80.1758V82.5765C61.0365 82.0394 62.0411 81.4283 63.0254 80.7495C62.1888 76.2157 59.3038 72.8652 55.0664 71.4518ZM21.1471 69.6696C20.536 69.9819 19.9852 70.3306 19.487 70.7194C19.4576 70.744 19.4214 70.7665 19.3852 70.7926C17.8341 72.0345 16.7426 73.7414 15.9062 76.2044C16.7076 76.8457 17.657 77.422 18.7057 77.9053V75.9277C18.7061 75.0513 19.4351 74.37 20.2926 74.3693C21.1503 74.3698 21.8751 75.0512 21.8755 75.9277V79.0039C23.6765 79.4502 25.5444 79.6404 27.2669 79.484H27.568C28.1272 79.5344 28.708 79.538 29.3014 79.5207C29.9329 76.7199 31.1935 74.4636 32.7886 72.7051C32.3374 72.9173 31.8131 72.9204 31.3685 72.6888L27.4215 70.6299L23.4787 72.6888C22.9914 72.9428 22.401 72.9309 21.9243 72.6522C21.4459 72.3726 21.1473 71.8634 21.1471 71.3094V69.6696ZM74.3291 66.5405C72.9022 67.3459 70.8983 67.7287 68.958 67.7287C67.0158 67.7285 65.0134 67.3463 63.5869 66.5405C61.6773 67.5863 60.1173 68.6521 58.8709 69.7713C62.0533 71.6062 64.8775 74.7248 65.9713 79.366C66.9295 79.357 67.8743 79.3146 68.7912 79.2196H69.1248C73.8003 79.7027 78.7934 79.0676 82.992 77.5024C82.8434 73.2648 80.178 69.7426 74.3291 66.5405ZM61.292 63.562C60.7617 64.3676 59.8734 64.931 58.9116 65.1449C58.349 65.959 57.2609 66.4673 55.6564 66.4673C55.3946 66.4671 55.141 66.4207 54.8955 66.3615C54.6681 66.6521 54.4305 66.939 54.1631 67.2038C52.4613 68.8881 50.1456 69.8155 47.6608 69.8242C45.1709 69.8149 42.8554 68.8881 41.1544 67.2038C40.8883 66.9391 40.643 66.654 40.4139 66.3615C40.1697 66.4201 39.9176 66.4672 39.6571 66.4673C38.0484 66.467 36.9549 65.9589 36.3937 65.1408C35.5532 64.9515 34.7691 64.4984 34.2331 63.8468C33.5339 64.6662 32.7553 65.3015 31.9341 65.7756C32.0363 65.7649 32.1405 65.7626 32.2433 65.7715L32.6095 65.8447L33.4884 66.158C35.3345 66.8632 36.8366 67.7715 38.0986 68.9412C39.0354 68.5382 39.9833 68.2313 40.9103 68.0257C41.7276 67.8458 42.5674 68.3241 42.7902 69.1447C43.1541 70.4926 43.7144 71.4283 44.4788 72.054C45.2365 72.6735 46.2624 73.0404 47.6567 73.1486C49.0514 73.0406 50.0766 72.6734 50.8346 72.054C51.5996 71.4283 52.1589 70.4931 52.5233 69.1447C52.7463 68.3201 53.5927 67.8458 54.4072 68.0257C54.8574 68.1256 55.3116 68.2542 55.7663 68.4001C57.2687 66.8484 59.1857 65.4251 61.5565 64.0828C61.4668 63.9088 61.3763 63.7363 61.292 63.562ZM33.696 71.3094C33.6959 71.5263 33.6371 71.729 33.5535 71.9198C34.0701 71.4294 34.6157 70.9856 35.1771 70.5851C34.7285 70.251 34.2362 69.9438 33.6919 69.6655L33.696 71.3094ZM23.6984 66.0848C24.0895 66.3774 24.3291 66.8335 24.3291 67.3258L24.325 68.7093L26.6769 67.4845L26.681 67.4805C27.1453 67.2403 27.7018 67.2423 28.1662 67.4845L30.5181 68.7093V67.3258C30.516 66.9102 30.6876 66.5253 30.9697 66.2394C29.8279 66.7196 28.6486 66.9434 27.5273 66.9434C27.0568 66.9432 26.5959 66.9088 26.1561 66.8416C25.3351 66.7154 24.5034 66.4568 23.6984 66.0848ZM27.4175 45.5159C22.9369 45.9421 19.0663 49.1725 17.778 53.597C16.6462 57.485 17.0863 62.0422 19.1655 67.1916C20.0935 66.6641 21.1131 66.2162 22.2336 65.8447C22.551 65.7388 22.8892 65.7472 23.202 65.8407C20.6785 64.4921 18.537 61.9013 18.1564 58.0811C17.9209 55.7172 18.4308 53.1408 19.6009 50.6307C19.8341 50.1314 20.3158 49.7952 20.8582 49.7314C21.399 49.6718 21.9461 49.8877 22.2905 50.3174C23.2882 51.5633 25.1274 52.3986 27.2588 52.4577C29.0865 52.5086 30.7144 51.9719 31.7998 51.0783C31.7997 51.0666 31.7998 51.0534 31.7998 51.0417C31.8003 49.8004 32.4182 48.703 33.3542 48.0062C31.6471 46.5958 29.5783 45.7204 27.4175 45.5159ZM47.6567 51.9938C47.1113 52.2948 46.4967 52.4757 45.8501 52.5024C45.2588 52.5273 44.679 52.4257 44.1411 52.2176C43.9261 52.4451 43.6884 52.6537 43.4168 52.8239C43.1031 53.0192 42.7579 53.1632 42.3996 53.2674C42.4668 54.0457 42.2914 54.8036 41.8706 55.5013L41.6183 55.8756C41.1039 56.5611 40.3072 56.9467 39.4495 56.9499V58.2479H39.946C40.3632 58.2481 40.7686 58.4116 41.069 58.7077L41.2684 58.9478C41.4422 59.2059 41.5384 59.5127 41.5329 59.8307C41.4965 62.004 42.1626 63.7768 43.4046 65.0065C44.4968 66.0872 46.0031 66.6923 47.6608 66.6992C49.1063 66.6953 50.4434 66.2342 51.4857 65.3931L51.9129 65.0065C53.1543 63.7744 53.821 62.0034 53.7847 59.8307C53.7778 59.408 53.9501 59.0035 54.2485 58.7077L54.4927 58.5124C54.7511 58.3432 55.0568 58.2483 55.3716 58.2479H55.868V56.9499C55.0092 56.9468 54.2131 56.5588 53.6992 55.8756C53.0999 55.0784 52.8308 54.1858 52.9098 53.2674C52.5529 53.1635 52.2136 53.0167 51.9007 52.8198C51.6284 52.6491 51.3808 52.4476 51.1642 52.2176C50.628 52.4227 50.051 52.525 49.4634 52.5024C48.8167 52.4755 48.2022 52.2951 47.6567 51.9938ZM78.2231 59.2448C77.7214 61.0029 77.0985 62.6122 76.3514 64.091C76.7081 64.2935 77.0561 64.498 77.3931 64.7054C78.0254 62.5844 78.2984 60.7688 78.2231 59.2448ZM71.1146 61.0758C69.9545 59.9766 67.9618 59.976 66.8014 61.0758C66.3782 61.4761 65.7714 61.6098 65.2267 61.4421L64.9989 61.3525L63.4445 60.5957C63.8463 61.671 64.3149 62.6387 64.9337 63.7004C65.2576 63.9514 65.7841 64.1837 66.484 64.3473C67.2197 64.5191 68.0854 64.6077 68.958 64.6077C69.8297 64.6077 70.6926 64.5187 71.4279 64.3473C72.127 64.1842 72.6535 63.9508 72.9782 63.7004C73.5269 62.7503 74.0102 61.7231 74.4349 60.612L72.9171 61.3525C72.6963 61.4585 72.4516 61.5153 72.2132 61.5153C71.8138 61.5148 71.4175 61.3627 71.1146 61.0758ZM21.729 53.9632C21.3397 55.3063 21.1961 56.6006 21.314 57.784C21.6779 61.4265 24.2681 63.3988 26.6444 63.7655C28.559 64.0596 31.0354 63.4062 32.5648 60.7463C32.4798 60.5757 32.4029 60.3959 32.341 60.2091C32.0297 59.2664 32.0329 58.0977 32.4671 57.0679C31.9045 56.4651 31.5324 55.6906 31.4539 54.8462C30.1516 55.3541 28.6876 55.6162 27.1733 55.5745C25.1619 55.5195 23.2562 54.946 21.729 53.9632ZM37.0325 60.5998C37.1641 61.0641 37.0708 61.5615 36.7721 61.9507C36.7975 61.9707 36.8243 61.996 36.8576 62.0158C36.9809 62.0885 37.1206 62.1294 37.2401 62.1297C37.2592 62.1297 37.28 62.1284 37.3011 62.1256C37.7702 62.0489 38.2545 62.1861 38.6154 62.5C38.5316 62.1163 38.4716 61.7224 38.4282 61.32C37.8898 61.2233 37.4052 60.9689 37.0325 60.5998ZM58.2687 60.612C57.8953 60.9774 57.4099 61.2255 56.873 61.32C56.8299 61.721 56.7732 62.1134 56.6899 62.4959C57.0524 62.1792 57.542 62.0497 58.0083 62.1256C58.0278 62.1285 58.0474 62.1297 58.0693 62.1297C58.1889 62.1297 58.3281 62.0885 58.4518 62.0158C58.4856 61.9959 58.506 61.965 58.5291 61.9466C58.238 61.5632 58.1424 61.0713 58.2687 60.612ZM36.2716 56.9255C36.2035 57.3315 35.982 57.7041 35.6328 57.9468C35.4861 58.0504 35.3694 58.2306 35.3154 58.4839C35.2608 58.7413 35.2835 59.0245 35.3561 59.2448L35.4009 59.3587C35.42 59.3996 35.4395 59.4349 35.4578 59.4604C35.8264 59.4482 36.1864 59.5648 36.4751 59.7819C36.3472 59.4805 36.2719 59.1501 36.2716 58.8013V56.9255ZM59.0378 58.8013C59.0375 59.1509 58.9587 59.4799 58.8302 59.7819C59.117 59.5649 59.4765 59.449 59.8475 59.4604C59.8665 59.4346 59.8888 59.4005 59.9085 59.3587C59.9283 59.3166 59.9433 59.2749 59.9533 59.2448L60.0225 58.8786C60.0298 58.7489 60.0214 58.6125 59.994 58.4839C59.9394 58.2296 59.8249 58.0462 59.6766 57.9427C59.3535 57.7184 59.1238 57.3823 59.0378 57.0028V58.8013ZM66.3742 51.7944C65.3107 51.8384 64.2011 52.0078 63.3061 52.2461C63.2855 52.3074 63.265 52.3688 63.241 52.4292C63.6433 53.0369 63.8758 53.7491 63.8758 54.4963C63.8754 55.3986 63.541 56.2372 62.9888 56.901L65.5115 58.1217C67.5865 56.7917 70.3238 56.7931 72.4004 58.1217L75.6393 56.5552C75.7905 55.8731 75.9237 55.1652 76.0421 54.4312C74.8455 53.3447 73.2568 52.6939 71.4279 52.6164C70.6372 52.5835 69.9475 52.427 69.2225 52.1118C68.6338 51.857 67.587 51.7445 66.3742 51.7944ZM47.6486 40.9587C47.3806 40.9596 47.1889 41.1683 47.1888 41.3859C47.1888 41.4168 47.1947 41.4471 47.201 41.4754L47.2376 41.7358C47.2759 42.3328 46.9602 42.9013 46.4279 43.1925C45.819 43.5261 45.0542 43.4292 44.5521 42.9525C44.4373 42.8424 44.2808 42.7738 44.1086 42.7734C43.7457 42.7741 43.4779 43.0614 43.4779 43.3716C43.4779 43.4015 43.4799 43.4339 43.486 43.4692L43.5104 43.7215C43.5175 44.3053 43.1866 44.8499 42.6559 45.1213C42.0583 45.4257 41.3215 45.3285 40.8289 44.8649L40.5889 44.7103C40.5008 44.6756 40.4037 44.6576 40.304 44.6574C39.984 44.6578 39.7267 44.8354 39.6164 45.0806L39.5594 45.3451C39.5461 45.7943 39.3349 46.2186 38.9816 46.5047C38.6351 46.7841 38.1863 46.9088 37.7446 46.8465C37.7073 46.8413 37.6656 46.8384 37.6266 46.8384C37.2006 46.839 36.8822 47.1709 36.882 47.5423C36.882 47.6766 36.9235 47.807 37 47.9207C37.3206 48.3975 37.3521 49.0128 37.0732 49.5199L37.0692 49.5158C36.7941 50.0203 36.2661 50.3299 35.6979 50.3377C35.2811 50.3435 34.9664 50.6771 34.9655 51.0417C34.9655 51.2219 35.0354 51.3965 35.1689 51.5299C35.4976 51.8577 35.6593 52.3132 35.6125 52.7751L35.6165 52.7791C35.5813 53.1298 35.427 53.4492 35.1893 53.6947L34.9248 53.9144C34.72 54.0502 34.6033 54.2711 34.6033 54.4963C34.6041 54.796 34.8173 55.0822 35.1405 55.1717C35.7127 55.3295 36.1568 55.7932 36.2716 56.3802C36.2878 54.9609 37.4792 53.8418 38.9002 53.8411H39.1769C39.2242 53.7496 39.2494 53.6674 39.2502 53.5807C39.2509 53.4719 39.2181 53.2931 39.0589 53.0233L38.8555 52.7222C38.4538 52.196 38.4305 51.4769 38.7985 50.9277C39.1641 50.3829 39.8335 50.1235 40.4709 50.2645L40.8981 50.3296C41.2855 50.3606 41.5507 50.2933 41.7078 50.1953C41.8424 50.1103 41.9687 49.9558 42.0334 49.646L42.0944 49.4263C42.2745 48.9375 42.6927 48.5703 43.2052 48.4456C43.788 48.3073 44.4126 48.5002 44.8044 48.9624C45.0552 49.2605 45.3903 49.401 45.7158 49.3896C45.9244 49.3811 46.1035 49.3105 46.2366 49.1943L46.3546 49.0641C46.6535 48.6449 47.1415 48.4016 47.6527 48.4009C48.1643 48.4009 48.6512 48.6452 48.9507 49.0641C49.085 49.2529 49.313 49.3773 49.5895 49.3896C49.915 49.402 50.2471 49.2624 50.501 48.9624C50.8927 48.4973 51.5194 48.3046 52.1042 48.4456C52.6166 48.5704 53.0349 48.9375 53.215 49.4263L53.276 49.646L53.3371 49.8494C53.4056 50.028 53.5005 50.1315 53.6016 50.1953C53.8096 50.3262 54.2073 50.403 54.8345 50.2645C55.4683 50.1228 56.1436 50.378 56.5109 50.9277C56.832 51.4084 56.856 52.0173 56.5882 52.5146L56.4539 52.7222C56.1143 53.1658 56.0542 53.4364 56.0552 53.5807C56.056 53.6672 56.0848 53.7492 56.1325 53.8411H56.4092C57.8219 53.8411 59.0001 54.9454 59.0296 56.3558C59.1514 55.7834 59.5898 55.3265 60.1567 55.1717C60.4815 55.0832 60.6937 54.7986 60.6938 54.4963C60.6938 54.27 60.5789 54.0511 60.3724 53.9144C59.9876 53.6589 59.7333 53.2447 59.6847 52.7832C59.6363 52.3184 59.7993 51.8589 60.1282 51.5299C60.2641 51.3938 60.3356 51.2244 60.3358 51.0457C60.3358 50.6804 60.0211 50.344 59.6033 50.3377C59.177 50.3321 58.772 50.157 58.4803 49.8576L58.228 49.5199C57.9533 49.0155 57.9791 48.3992 58.3013 47.9207L58.3867 47.7417C58.4062 47.6783 58.4193 47.6104 58.4193 47.5423C58.4182 47.1723 58.101 46.839 57.6746 46.8384C57.6344 46.8384 57.5914 46.8416 57.5566 46.8465C57.1147 46.9085 56.666 46.7848 56.3197 46.5047C56.0594 46.2919 55.8717 46.0012 55.7907 45.6787L55.7419 45.3451C55.7316 44.9866 55.4105 44.6574 54.9972 44.6574C54.7971 44.6582 54.6132 44.7356 54.4764 44.8649C53.9843 45.3297 53.2427 45.4316 52.6413 45.1213C52.0364 44.8097 51.6965 44.1411 51.8153 43.4692C51.8204 43.4332 51.8233 43.4011 51.8234 43.3716C51.8234 43.061 51.5562 42.7734 51.1927 42.7734C51.0224 42.7738 50.8624 42.8406 50.7451 42.9525C50.2415 43.4295 49.4794 43.5227 48.8734 43.1925C48.2607 42.8584 47.9361 42.1633 48.0962 41.4795C48.1035 41.4462 48.1084 41.4149 48.1084 41.3859C48.1083 41.1678 47.9176 40.9587 47.6486 40.9587ZM76.1886 44.7591C76.2411 44.8224 76.3001 44.8814 76.3514 44.9463C77.9797 47.0051 78.9484 49.7257 79.2363 52.832L79.4601 52.8605L79.3909 53.4505C79.6368 53.7702 79.8624 54.1069 80.0705 54.4596C80.7778 51.8835 81.1406 49.2218 81.1406 46.5006C81.1406 45.9158 81.1176 45.3354 81.0836 44.7591H76.1886ZM74.618 48.0225C73.103 48.5769 71.164 48.8565 69.2388 48.881C69.6879 48.9745 70.117 49.0917 70.5042 49.2594C70.8611 49.4146 71.1728 49.4865 71.5662 49.5036L72.2905 49.5565C73.4667 49.6816 74.5863 49.992 75.6149 50.4598C75.3563 49.5256 75.011 48.7202 74.618 48.0225ZM62.7731 48.8403C62.8393 48.9309 62.9063 49.0209 62.9643 49.117C63.8995 48.9015 64.9782 48.7435 66.0609 48.6857C65.0137 48.5372 64.0266 48.3037 63.18 47.9818C63.0345 48.2541 62.8973 48.5399 62.7731 48.8403ZM37.0122 18.0461C33.4474 19.5069 30.21 21.574 27.446 24.1252H29.5334C32.0852 24.1252 34.192 26.1447 34.1924 28.6662C34.1924 31.1891 32.0837 33.2112 29.5334 33.2113H26.9251V33.5693C26.9251 35.2772 25.5009 36.6374 23.7879 36.6374H19.2062C18.1272 39.7366 17.534 43.052 17.5338 46.5006C17.5338 46.8258 17.5435 47.1521 17.5542 47.4772C19.9675 44.612 23.4493 42.7208 27.2832 42.4032H27.5558L28.626 42.5334C29.3844 42.6565 30.1298 42.8464 30.8558 43.0908V39.2619C30.856 36.7368 32.9648 34.7143 35.5189 34.7127H43.3273C43.8077 34.7127 44.1696 34.3346 44.1696 33.9111C44.1692 33.4873 43.8073 33.1095 43.3273 33.1095C41.1623 33.1089 39.3809 31.3803 39.3804 29.2277V26.3509C37.9088 25.2279 37.0128 23.5091 37.0122 21.6512V18.0461ZM69.5439 44.2993C68.0204 44.1082 66.586 44.5077 65.3732 45.3898C66.3752 45.6205 67.5984 45.7531 68.8522 45.7601C70.1007 45.7669 71.3329 45.6475 72.3597 45.4305C71.4366 44.7723 70.4522 44.4132 69.5439 44.2993ZM61.6541 32.8817C61.6541 34.9724 59.9094 36.6388 57.8008 36.6414H54.8629C54.6712 36.643 54.5364 36.7974 54.5334 36.9385C54.5017 38.2714 53.6458 39.3947 52.4663 39.8763C53.3385 40.1792 54.0651 40.782 54.513 41.5649C54.6731 41.5454 54.8371 41.5406 55.0013 41.5405C56.6038 41.5405 57.9765 42.47 58.582 43.8314C59.587 44.0655 60.4393 44.6775 60.9787 45.5119C61.631 44.5482 62.4116 43.7235 63.2817 43.0542V35.4126C63.2819 33.0257 65.2764 31.1164 67.6885 31.1157H67.7536C67.9516 31.1157 68.0832 30.9595 68.0832 30.8105V29.1707C68.0841 27.0784 69.8311 25.4075 71.9406 25.4069H72.5265C69.4955 22.2659 65.7993 19.7444 61.6541 18.0461V32.8817ZM49.3372 15.6169C46.1559 15.617 43.0819 16.0789 40.182 16.9271V21.6512C40.1826 22.6804 40.7662 23.6471 41.7241 24.1618C42.2272 24.4308 42.5497 24.9536 42.5501 25.529V29.2277C42.5506 29.6459 42.8966 29.992 43.3273 29.9927C45.5236 29.9927 47.339 31.7337 47.3393 33.9111C47.3393 36.0885 45.5237 37.8296 43.3273 37.8296H35.5189C34.6807 37.8312 34.0258 38.4895 34.0255 39.2619V44.6208C34.2415 44.7601 34.4553 44.905 34.6644 45.0562C35.1932 44.4544 35.9089 44.0136 36.7233 43.8232C37.3298 42.463 38.7083 41.541 40.3081 41.5405C40.4709 41.5406 40.6335 41.5457 40.7923 41.5649C41.4444 40.4235 42.6929 39.6573 44.1126 39.6566C44.2352 39.6566 44.3585 39.6657 44.4788 39.6769C45.0997 38.5777 46.2945 37.8383 47.6567 37.8377C48.0386 37.8377 48.4066 37.9011 48.7513 38.0086C49.3591 37.3958 50.2101 37.0121 51.1479 37.0117H51.1968C51.2442 37.0117 51.2903 36.9936 51.3229 36.9629C51.3546 36.9327 51.3665 36.8988 51.3677 36.8693C51.4122 35.0094 52.9952 33.5259 54.867 33.5246H57.8008C58.1912 33.5246 58.4803 33.2186 58.4803 32.8817V16.923C55.5844 16.0773 52.5143 15.6169 49.3372 15.6169ZM71.9406 28.5238C71.5484 28.525 71.2579 28.8324 71.257 29.1707V30.8105C71.257 32.7121 69.67 34.2316 67.7576 34.2326H67.6885C66.9928 34.2341 66.4557 34.7802 66.4556 35.4126V41.4673C67.5674 41.1602 68.7439 41.0594 69.9468 41.2109C70.5648 41.289 71.1655 41.438 71.7493 41.6382H80.7418C79.9504 36.8037 77.9969 32.3432 75.1714 28.5238H71.9406ZM24.5 27.242C22.9165 29.1614 21.5666 31.2679 20.4879 33.5205H23.7554V33.1991C23.7562 31.4691 25.2012 30.091 26.9373 30.0903H29.5334C30.3693 30.0903 31.0185 29.4352 31.0185 28.6662C31.0182 27.8969 30.369 27.242 29.5334 27.242H24.5Z" fill="currentColor"/>
</svg>
