<svg width="100" height="100" viewBox="0 0 100 100" fill="none" xmlns="http://www.w3.org/2000/svg">
<mask id="mask0_1599_14190" style="mask-type:luminance" maskUnits="userSpaceOnUse" x="16" y="23" width="29" height="29">
<path d="M16.667 23.1992H44.1241V51.2351H16.667V23.1992Z" fill="white"/>
</mask>
<g mask="url(#mask0_1599_14190)">
<path d="M44.0415 32.9753C43.1459 30.1378 41.3319 27.6218 38.9209 25.8757C36.9805 24.4516 34.696 23.5556 32.319 23.303C32.2618 23.2913 32.2158 23.2797 32.1586 23.2797C31.6764 23.2225 31.1942 23.1992 30.7003 23.1992C25.0288 23.1992 19.9539 26.5768 17.7726 31.815C17.0607 33.5149 16.6934 35.3187 16.6934 37.2024C16.6934 44.9333 22.9736 51.2284 30.7003 51.2284C31.2746 51.2284 31.86 51.194 32.4571 51.1019C32.5031 51.1019 32.5603 51.1019 32.6063 51.0907C33.4559 50.9758 34.2826 50.792 35.0745 50.5278C35.6144 50.344 35.9473 49.7811 35.8325 49.2181C35.6716 48.3798 35.5916 47.5293 35.5916 46.6793C35.5916 45.7949 35.6832 44.8872 35.8553 43.98C36.3147 41.7399 37.3367 39.6491 38.8061 37.9147C40.069 36.4097 41.6765 35.1805 43.4332 34.3649C43.961 34.1123 44.214 33.5266 44.0415 32.9753ZM37.061 36.4213C36.8657 36.6511 36.6704 36.8921 36.4867 37.1452C35.1666 38.8912 34.2138 40.9127 33.72 43.0723V43.084C33.674 43.2333 33.6396 43.3943 33.6051 43.5436C33.3982 44.5885 33.295 45.6456 33.295 46.6793C33.295 47.3227 33.341 47.9662 33.4099 48.6091C33.0541 48.7012 32.6752 48.7701 32.2962 48.8161C31.9633 48.8622 31.6303 48.8966 31.309 48.9078C31.1021 48.9311 30.8956 48.9311 30.7003 48.9311C24.2481 48.9311 18.9895 43.6697 18.9895 37.2024C18.9895 36.0765 19.1388 34.9739 19.4601 33.9169C19.5749 33.5033 19.713 33.1013 19.8851 32.6994C21.7106 28.3229 25.9588 25.497 30.7003 25.497C31.1253 25.497 31.5155 25.5198 31.9289 25.5659C32.1241 25.5887 32.2962 25.6119 32.4915 25.6464H32.5031C33.9037 25.8413 35.247 26.3126 36.4755 27.0249C36.8545 27.2431 37.2102 27.4724 37.566 27.7367C39.3227 29.0003 40.7005 30.7579 41.5272 32.7566C39.8393 33.6987 38.3011 34.9507 37.061 36.4213Z" fill="#113C7B"/>
</g>
<mask id="mask1_1599_14190" style="mask-type:luminance" maskUnits="userSpaceOnUse" x="17" y="23" width="17" height="22">
<path d="M17.583 23.1982H33.2565V44.3662H17.583V23.1982Z" fill="white"/>
</mask>
<g mask="url(#mask1_1599_14190)">
<path d="M32.906 25.1726C33.1871 24.8497 33.2639 24.3968 33.108 23.9984C32.9506 23.5996 32.5855 23.3219 32.1596 23.2767C31.6783 23.2262 31.1975 23.2012 30.7028 23.2012C25.033 23.2012 19.9572 26.5806 17.7688 31.8111C17.5427 32.3521 17.7598 32.9781 18.2742 33.2607L21.1102 34.8239C21.1549 34.848 21.1848 34.8927 21.1902 34.9423L21.621 38.2529C21.7126 38.9571 22.1032 39.5867 22.6944 39.9797L24.3086 41.0859L25.0563 42.7975C25.45 43.698 26.3272 44.269 27.3042 44.269C27.3283 44.269 27.3524 44.269 27.3752 44.269C28.3812 44.2399 29.2571 43.6117 29.6074 42.6687L31.1103 38.6204C31.4696 37.6524 31.1814 36.5529 30.3904 35.8867L28.6658 34.4335C28.6323 34.4058 28.6118 34.3633 28.6095 34.3186L28.4545 30.3579C28.4545 30.3163 28.4674 30.2774 28.4938 30.2461L32.906 25.1735V25.1726Z" fill="#113C7B"/>
</g>
<path d="M44.0464 32.9737C43.1517 30.1411 41.3297 27.6193 38.9165 25.8755C38.4446 25.5343 37.7979 25.6001 37.4042 26.0239L34.4444 29.2035C33.8992 29.7847 33.619 30.573 33.6776 31.3645C33.7348 32.1568 34.1276 32.8968 34.7555 33.3962L35.7842 34.2064C35.8991 34.2949 35.9724 34.4233 35.9911 34.5659L36.1989 36.2279C36.2919 36.929 36.6418 37.5733 37.1861 38.0405C37.3953 38.2198 37.6603 38.3178 37.9338 38.3178C37.9633 38.3178 37.9945 38.3178 38.0254 38.3142C38.3306 38.29 38.613 38.1443 38.8106 37.91C40.0726 36.4143 41.672 35.1861 43.4364 34.3616C43.9588 34.1179 44.2184 33.5241 44.045 32.975L44.0464 32.9737Z" fill="#113C7B"/>
<path d="M35.3476 42.7919C34.9503 42.5393 34.4386 42.554 34.0561 42.8308L32.685 43.8257C31.823 44.4427 31.3086 45.4398 31.3086 46.4955V49.9531C31.3086 50.2849 31.452 50.5988 31.7001 50.817C31.9115 51.0016 32.18 51.1018 32.4567 51.1018C32.5072 51.1018 32.5577 51.0982 32.6095 51.0915C33.4568 50.9775 34.2845 50.787 35.071 50.525C35.6175 50.3426 35.9438 49.7841 35.8356 49.218C35.6738 48.3783 35.5925 47.5225 35.5925 46.6779C35.5925 45.7935 35.6819 44.8858 35.8575 43.9795C35.9482 43.5167 35.7462 43.0459 35.3476 42.7905V42.7919Z" fill="#113C7B"/>
<mask id="mask2_1599_14190" style="mask-type:luminance" maskUnits="userSpaceOnUse" x="21" y="67" width="15" height="21">
<path d="M21.7021 67.7168H35.0875V87.4987H21.7021V67.7168Z" fill="white"/>
</mask>
<g mask="url(#mask2_1599_14190)">
<path d="M33.9042 67.8027H22.9508C22.3193 67.8027 21.8027 68.3201 21.8027 68.9519V82.9318C21.8027 83.7702 22.0324 84.5513 22.423 85.2292C23.2149 86.6077 24.7075 87.5265 26.3955 87.5265H30.46C32.1474 87.5265 33.6284 86.6077 34.4208 85.2408C34.8225 84.5629 35.0522 83.7702 35.0522 82.9318V68.9519C35.0522 68.3201 34.5356 67.8027 33.9042 67.8027ZM26.3955 85.2292C25.1325 85.2292 24.0993 84.1954 24.0993 82.9318V70.1005H32.7561V82.9318C32.7561 84.1954 31.7229 85.2292 30.46 85.2292H26.3955Z" fill="#113C7B"/>
</g>
<path d="M22.9503 70.2393H20.2408C18.6794 70.2393 17.4053 71.5145 17.4053 73.0767V78.6135C17.4053 80.1758 18.6794 81.451 20.2408 81.451H22.9503C23.5934 81.451 24.0988 80.9341 24.0988 80.3024V71.3879C24.0988 70.7561 23.5934 70.2393 22.9503 70.2393ZM21.8023 79.1532H20.2408C19.9423 79.1532 19.7014 78.9122 19.7014 78.6135V73.0767C19.7014 72.7781 19.9423 72.5366 20.2408 72.5366H21.8023V79.1532Z" fill="#113C7B"/>
<mask id="mask3_1599_14190" style="mask-type:luminance" maskUnits="userSpaceOnUse" x="17" y="85" width="19" height="3">
<path d="M17.3535 85.1172H35.5439V87.5004H17.3535V85.1172Z" fill="white"/>
</mask>
<g mask="url(#mask3_1599_14190)">
<path d="M34.334 87.5288H18.5533C17.9196 87.5288 17.4053 87.0141 17.4053 86.3801C17.4053 85.7461 17.9196 85.2314 18.5533 85.2314H34.3332C34.9668 85.2314 35.4812 85.7461 35.4812 86.3801C35.4812 87.0141 34.9668 87.5288 34.3332 87.5288H34.334Z" fill="#113C7B"/>
</g>
<path d="M69.9086 75.7199C69.8049 76.4321 69.0935 77.0639 68.3816 77.0639C68.0942 77.0639 67.865 76.9602 67.7041 76.788C67.5776 76.6271 67.5088 76.4321 67.5088 76.2023C67.5088 76.1562 67.5088 76.099 67.5204 76.0413C67.6236 75.3291 68.3472 74.6973 69.0474 74.6973C69.3343 74.6973 69.5641 74.7894 69.7249 74.9731C69.8854 75.1569 69.9542 75.4212 69.9086 75.7199Z" fill="#113C7B"/>
<mask id="mask4_1599_14190" style="mask-type:luminance" maskUnits="userSpaceOnUse" x="40" y="64" width="46" height="24">
<path d="M40.1201 64.7422H85.0812V87.5002H40.1201V64.7422Z" fill="white"/>
</mask>
<g mask="url(#mask4_1599_14190)">
<path d="M84.3645 66.1722C83.7102 65.2649 82.6998 64.748 81.5745 64.748H60.5754C59.094 64.748 57.7739 65.7013 57.3144 67.1143L51.3216 85.2297H41.3326C40.6896 85.2297 40.1846 85.7466 40.1846 86.3784C40.1846 87.0102 40.6896 87.5271 41.3326 87.5271H77.9922C78.486 87.5271 78.9222 87.2056 79.0715 86.7347L84.8467 69.2739C85.1912 68.2169 85.0187 67.0798 84.3645 66.1722ZM72.183 76.0399C71.9189 77.9008 70.2426 79.3598 68.3827 79.3598C67.4294 79.3598 66.5683 78.9806 65.9717 78.2916C65.3746 77.6021 65.1105 76.66 65.2481 75.7184C65.5239 73.8574 67.1886 72.3984 69.0485 72.3984C70.0129 72.3984 70.8625 72.7776 71.4595 73.4666C72.0566 74.1561 72.3207 75.0978 72.183 76.0399Z" fill="#113C7B"/>
</g>
<path d="M33.5931 65.1134C33.3656 65.1134 33.1373 65.0459 32.9362 64.9055C32.416 64.5425 32.2908 63.8257 32.6537 63.3053C35.1201 59.7779 39.1578 57.6719 43.4551 57.6719H57.5314C60.3799 57.6719 63.0939 58.5728 65.3797 60.2764C65.8874 60.6551 65.9929 61.3746 65.6143 61.8834C65.2354 62.3909 64.5177 62.4991 64.0078 62.1177C62.1214 60.7115 59.8825 59.9683 57.5314 59.9683H43.4551C39.9063 59.9683 36.5712 61.7077 34.5342 64.6207C34.3117 64.94 33.9546 65.1112 33.5931 65.1112V65.1134Z" fill="#113C7B"/>
<path d="M50.4943 35.042C43.617 35.042 38.0371 40.6365 38.0371 47.5057C38.0371 51.6985 40.1152 55.4204 43.2953 57.6721H43.3185C45.1896 59.0162 47.417 59.8429 49.8512 59.9695C50.0693 59.9811 50.2762 59.9811 50.4943 59.9811C50.7123 59.9811 50.9188 59.9811 51.1369 59.9695C53.5711 59.8429 55.8212 59.0162 57.6928 57.6833C60.8734 55.4204 62.9514 51.6985 62.9514 47.5057C62.9514 40.6365 57.3599 35.042 50.4943 35.042ZM51.0109 57.6721C50.8384 57.6833 50.6663 57.6833 50.4943 57.6833C50.3218 57.6833 50.1497 57.6833 49.9777 57.6721C44.6158 57.3962 40.3332 52.9392 40.3332 47.5057C40.3332 41.9001 44.8911 37.3393 50.4943 37.3393C56.097 37.3393 60.6548 41.9001 60.6548 47.5057C60.6548 52.9392 56.3727 57.3962 51.0109 57.6721Z" fill="#113C7B"/>
<path d="M49.5529 82.2258H38.8846C38.5307 82.2258 38.1955 82.0626 37.9788 81.7836C37.7616 81.5041 37.6847 81.1388 37.771 80.7968L40.2141 71.1048C40.3692 70.4891 40.9971 70.118 41.608 70.2722C42.2234 70.4269 42.5952 71.052 42.4401 71.6664L40.3576 79.9284H49.552C50.1857 79.9284 50.7 80.4431 50.7 81.0771C50.7 81.7111 50.1857 82.2258 49.552 82.2258H49.5529Z" fill="#113C7B"/>
<path d="M75.3101 27.953C72.3619 27.953 69.9724 25.5622 69.9724 22.6125C69.9724 19.6632 72.3619 17.2724 75.3101 17.2724C78.2578 17.2724 80.6477 19.6632 80.6477 22.6125C80.6477 25.5622 78.2578 27.953 75.3101 27.953ZM74.3255 12.5467C68.402 13.1069 64.3451 18.8499 65.3787 24.7131C66.4285 30.6679 71.9163 32.5012 74.6402 39.1866C74.8855 39.7885 75.7333 39.7921 75.9786 39.1893C78.9978 31.775 85.417 30.3277 85.417 22.6125C85.417 16.7028 80.3501 11.9766 74.3255 12.5467Z" fill="#113C7B"/>
</svg>
