<svg width="40" height="40" viewBox="0 0 40 40" fill="none" xmlns="http://www.w3.org/2000/svg">
<path d="M20 3.33325C16.7036 3.33325 13.4813 4.31073 10.7405 6.14209C7.99968 7.97345 5.86347 10.5764 4.60201 13.6219C3.34055 16.6673 3.01049 20.0184 3.65358 23.2514C4.29667 26.4844 5.88401 29.4542 8.21489 31.785C10.5458 34.1159 13.5155 35.7033 16.7485 36.3463C19.9815 36.9894 23.3326 36.6594 26.3781 35.3979C29.4235 34.1365 32.0265 32.0002 33.8578 29.2594C35.6892 26.5186 36.6667 23.2963 36.6667 19.9999C36.6667 17.8112 36.2356 15.644 35.398 13.6219C34.5604 11.5998 33.3328 9.76245 31.7851 8.21481C30.2375 6.66716 28.4002 5.4395 26.3781 4.60193C24.356 3.76435 22.1887 3.33325 20 3.33325ZM20 33.3333C17.3629 33.3333 14.7851 32.5513 12.5924 31.0862C10.3997 29.6211 8.69078 27.5387 7.68161 25.1024C6.67244 22.666 6.4084 19.9851 6.92287 17.3987C7.43734 14.8123 8.70721 12.4365 10.5719 10.5718C12.4366 8.70713 14.8124 7.43725 17.3988 6.92278C19.9852 6.40831 22.6661 6.67236 25.1024 7.68153C27.5388 8.69069 29.6212 10.3997 31.0863 12.5923C32.5513 14.785 33.3333 17.3628 33.3333 19.9999C33.3333 23.5361 31.9286 26.9275 29.4281 29.428C26.9276 31.9285 23.5362 33.3333 20 33.3333ZM20.8833 9.99992C20.7684 9.99298 20.6532 10.01 20.5451 10.0498C20.437 10.0896 20.3383 10.1514 20.2553 10.2313C20.1723 10.3111 20.1068 10.4074 20.0628 10.5138C20.0189 10.6203 19.9975 10.7348 20 10.8499V20.0499L26.4 26.4666C26.478 26.5498 26.5722 26.6162 26.6768 26.6616C26.7814 26.707 26.8943 26.7304 27.0083 26.7304C27.1224 26.7304 27.2352 26.707 27.3399 26.6616C27.4445 26.6162 27.5387 26.5498 27.6167 26.4666C28.8011 25.0739 29.5812 23.3831 29.8719 21.5781C30.1626 19.7731 29.9529 17.9229 29.2656 16.2287C28.5783 14.5345 27.4397 13.0612 25.9736 11.9689C24.5075 10.8766 22.77 10.2071 20.95 10.0333L20.8833 9.99992Z" fill="#FC8383"/>
</svg>
