<svg width="100" height="100" viewBox="0 0 100 100" fill="none" xmlns="http://www.w3.org/2000/svg">
<path d="M48.9961 65.3197C52.0983 64.0954 55.6042 64.3697 58.46 66.0394C60.7466 65.7071 63.1259 66.0958 65.1826 67.1996L65.9395 67.6019C69.788 66.7104 73.7956 68.6583 75.4932 72.3383C75.9532 73.3358 75.5629 74.5278 74.5898 75.0443L51.3926 87.3324C50.3672 87.8749 49.2236 88.1544 48.0762 88.1547C47.8463 88.1547 47.6145 88.145 47.3848 88.1224L46.7012 88.0209L27.6543 84.224H21.917C20.999 84.2229 20.2725 83.4663 20.2725 82.5599C20.273 81.6534 20.9989 80.9009 21.917 80.8998H27.8125C27.9231 80.8998 28.0283 80.9109 28.1221 80.9281H28.1299L47.3359 84.7572C48.1913 84.9269 49.0921 84.7975 49.8662 84.3871L71.8838 72.7172C70.5674 71.0232 68.3217 70.2752 66.2402 70.9554L55.4131 74.4906C55.489 74.8852 55.5351 75.2903 55.5352 75.7035C55.5352 76.8847 55.0734 77.9951 54.2324 78.8168C53.4343 79.5971 52.3925 80.0243 51.2871 80.0248C51.2305 80.0248 51.1733 80.0224 51.1201 80.0209H51.1113L36.5771 79.431C35.6597 79.3929 34.9667 78.6078 35.0029 77.7015C35.0392 76.7792 35.8055 76.0948 36.6953 76.1068H36.7119L51.2422 76.7006C51.5078 76.7111 51.7546 76.6158 51.9463 76.4281C52.1397 76.239 52.2471 75.9828 52.2471 75.7035C52.2469 74.4931 51.5367 73.4246 50.4482 72.973L41.9121 69.433C39.6093 68.4771 37.0286 68.3706 34.6484 69.1361L29.6191 70.7552C29.4605 70.8061 29.2934 70.8333 29.123 70.8334H21.917C20.9986 70.8323 20.2725 70.0753 20.2725 69.1683C20.2733 68.2626 20.9995 67.5093 21.917 67.5082H28.8623L33.6514 65.9701L34.832 65.6488C37.6067 65.0203 40.5221 65.2613 43.1611 66.3568L44.7197 67.0043L48.9961 65.3197ZM60.7021 69.266C59.4798 69.1617 58.2315 69.3511 57.0889 69.8324L53.7119 71.2562C53.7877 71.3327 53.8601 71.4124 53.9316 71.4926C53.9753 71.4738 54.0192 71.4539 54.0654 71.4388L60.7021 69.266ZM53.1426 67.891C52.1437 67.8692 51.1377 68.0419 50.1885 68.4164L49.1299 68.8314L50.0293 69.2054L53.1426 67.891ZM67.7334 12.3656C68.3762 11.7128 69.4229 11.7115 70.0654 12.3656L70.2725 12.6254C70.69 13.2689 70.6219 14.1415 70.0654 14.7094L63.8848 20.9994C63.6182 21.2723 63.2652 21.4436 62.8877 21.4838C60.3315 21.7528 48.6464 23.0854 44.3125 23.6283C43.8915 23.6811 43.5058 23.8745 43.2139 24.1781L42.9531 24.5199C41.0542 27.6695 36.5574 35.2343 35.2666 38.2767C35.0281 38.8389 35.0632 39.4979 35.3604 40.0306L38.4775 45.6176C39.0178 45.0356 39.6511 44.5482 40.3691 44.2054C40.5715 44.1088 40.778 44.0232 40.9844 43.9486C40.6597 43.0676 40.1815 41.9924 39.5273 41.0922C39.0672 40.4592 39.1075 39.5875 39.625 39.0013L46.4326 31.3021C47.81 29.7452 49.9102 29.1016 51.9131 29.6342C54.1669 30.2315 55.8399 31.09 56.6904 32.2875C57.3738 33.2511 57.3146 34.4535 56.959 35.5912C56.5996 36.7401 55.8994 37.9601 55.0996 39.099C53.4989 41.3781 51.3869 43.4861 50.3594 44.3314C49.3772 45.139 48.8483 46.1104 48.7842 47.0414C48.7528 47.4981 48.8316 47.9438 49.0078 48.3724L60.3525 42.1176C60.595 41.9843 60.8189 41.8131 61.0156 41.6049L66.9121 35.3353L66.9199 35.3226L76.9824 25.0814C77.6254 24.429 78.6717 24.4286 79.3145 25.0814C79.8701 25.6489 79.9388 26.5215 79.5215 27.1644L79.3145 27.4252L69.2754 37.6381L69.2803 37.642L63.3965 43.8959C62.9661 44.352 62.4723 44.739 61.9268 45.0394L58.0537 47.1713C58.8221 48.6461 59.0912 50.3936 58.8066 52.1644C58.3208 55.1893 56.0779 59.5532 48.5645 63.891L48.5605 63.8871C48.412 63.9777 48.2558 64.0469 48.0928 64.0863C47.9709 64.1151 47.8384 64.1312 47.71 64.1312C47.4981 64.131 47.283 64.0912 47.0791 64.0052C46.9844 63.9653 46.8932 63.9141 46.8105 63.8588C37.749 58.6089 36.4091 53.3178 36.5166 50.4554C36.5328 50.0144 36.5924 49.5841 36.6787 49.1654L32.4961 41.6625C31.6976 40.2301 31.6037 38.4762 32.2441 36.9662C33.6301 33.6976 38.2469 25.9396 40.1455 22.7904C40.967 21.4279 42.3393 20.5248 43.9053 20.3285C47.9848 19.8173 58.5402 18.6127 61.96 18.2406L67.7334 12.3656ZM45.5127 47.6595C44.5199 47.001 43.1935 46.5335 41.7734 47.2123C40.9446 47.608 39.8701 48.7242 39.7998 50.5814C39.7412 52.1354 40.4007 53.8423 41.7979 55.5941C43.1379 57.2739 45.1331 58.9552 47.7139 60.5345C52.4198 57.6566 55.0991 54.494 55.5596 51.6312C55.7289 50.5752 55.5734 49.5799 55.1641 48.767L49.2686 52.0179C49.0212 52.1538 48.7502 52.2208 48.4834 52.2211C48.1489 52.2211 47.8147 52.1189 47.5352 51.9203L47.2744 51.6879C46.2217 50.5394 45.6118 49.1333 45.5127 47.6595ZM51.0791 32.849C50.2768 32.6373 49.4383 32.8908 48.8818 33.5199L42.9004 40.2787C43.6085 41.5221 44.083 42.7874 44.3613 43.6683C44.9906 43.7803 45.6142 43.9769 46.2246 44.266C46.7025 43.332 47.4011 42.4777 48.2842 41.7513C49.8711 40.4467 51.4468 38.6174 52.5479 37.0072C53.0987 36.2016 53.5157 35.4702 53.7568 34.9076C53.8782 34.6243 53.9441 34.4086 53.9678 34.2611C53.9739 34.223 53.9718 34.1945 53.9727 34.1752C53.835 34.0146 53.5564 33.7953 53.0811 33.5609C52.5674 33.3077 51.8885 33.0639 51.0791 32.849Z" fill="#113C7B"/>
</svg>
