<svg width="100" height="100" viewBox="0 0 100 100" fill="none" xmlns="http://www.w3.org/2000/svg">
<path d="M85.1951 39.5689C83.7517 38.0897 80.6398 37.2055 78.4654 37.2055H77.0015C77.5093 36.8727 77.9801 36.4915 78.4139 36.062L78.4759 35.9984C78.9209 35.5446 79.3095 35.0449 79.6426 34.4994C79.8633 34.143 80.0586 33.7729 80.2286 33.3885C80.3985 33.0044 80.5419 32.6096 80.6583 32.2049C80.7747 31.8002 80.8629 31.3889 80.9233 30.9718C80.9837 30.5543 81.0155 30.1343 81.0188 29.7126C81.0039 29.1902 80.9479 28.6724 80.8508 28.1595C80.7534 27.6462 80.6164 27.1448 80.4396 26.6546C80.2624 26.1648 80.0478 25.6924 79.7956 25.2386C79.5435 24.7843 79.2572 24.354 78.9366 23.9476C78.7791 23.7651 78.6426 23.6144 78.5443 23.5136L78.4759 23.4331C78.2153 23.1622 77.9354 22.9144 77.6362 22.6897C77.3426 22.4572 77.0357 22.245 76.7159 22.0529C75.968 21.64 75.1815 21.3319 74.3555 21.1291C73.5299 20.9264 72.6926 20.8355 71.8436 20.8561C71.0828 20.9032 70.3402 21.0469 69.6153 21.2873C69.2653 21.4087 68.9246 21.5524 68.5923 21.718C68.2601 21.884 67.9395 22.0703 67.6302 22.278C67.3213 22.4853 67.0261 22.712 66.745 22.9577C66.4639 23.2035 66.1993 23.4665 65.9504 23.7465C65.7019 24.0269 65.4715 24.3218 65.2597 24.6319C65.0474 24.942 64.8553 25.265 64.683 25.5999C64.511 25.9352 64.36 26.2801 64.2303 26.6348C64.1006 26.9895 63.9935 27.3513 63.9085 27.7197C63.7522 28.3755 63.6749 29.0408 63.6765 29.7155C63.6761 30.0071 63.6894 30.2982 63.7168 30.5886C63.7442 30.8789 63.7853 31.1671 63.8404 31.4529C63.8956 31.7391 63.9645 32.022 64.0466 32.3007C64.1292 32.5799 64.2251 32.8541 64.3338 33.1238C64.4425 33.393 64.5642 33.6565 64.6987 33.9134C64.8328 34.1706 64.9794 34.4201 65.1377 34.6625C65.2959 34.9045 65.4655 35.1382 65.6467 35.3633C65.8275 35.5884 66.0188 35.8035 66.2206 36.0092L66.2693 36.0484C66.7027 36.4833 67.1739 36.869 67.6834 37.2055H66.2339C65.4478 37.2084 64.6793 37.3307 63.9294 37.5718C63.5758 37.6866 63.2307 37.8242 62.894 37.9836L62.8143 37.8902C62.7563 37.8225 62.6975 37.7535 62.6322 37.678L62.5698 37.6152C62.4703 37.5132 62.3684 37.4137 62.2641 37.3166C62.1598 37.22 62.0531 37.1254 61.9444 37.0337C61.8356 36.9421 61.7249 36.8533 61.6117 36.7674C61.4989 36.6811 61.3837 36.5976 61.267 36.5175C61.1498 36.437 61.031 36.3598 60.9105 36.2854C60.7897 36.2107 60.6673 36.1397 60.5432 36.0711C60.4192 36.003 60.2935 35.9377 60.1667 35.8758C60.0394 35.8134 59.9109 35.7548 59.7809 35.699C59.6512 35.6437 59.5199 35.5912 59.3874 35.5421C59.2549 35.493 59.1216 35.4475 58.9871 35.405C58.8525 35.3625 58.7168 35.3236 58.5803 35.2881C58.4442 35.2522 58.3068 35.22 58.1687 35.1915C58.031 35.1626 57.8924 35.1374 57.7531 35.1155C57.6137 35.0936 57.4744 35.0754 57.3342 35.0606C57.1941 35.0457 57.0539 35.0342 56.9134 35.0263C56.7728 35.0185 56.6319 35.0139 56.4913 35.0135C56.3503 35.0127 56.2098 35.0152 56.0688 35.0213C55.9283 35.0275 55.7877 35.0375 55.6476 35.0507C55.5074 35.0639 55.3677 35.0804 55.2283 35.1006C55.089 35.1209 54.95 35.1444 54.8119 35.1717C54.6734 35.1989 54.536 35.2295 54.3991 35.2633C54.2622 35.2976 54.1264 35.3348 53.9911 35.3757C53.8562 35.4166 53.7221 35.4607 53.5892 35.5082C53.4563 35.5557 53.3246 35.6065 53.1941 35.6606C53.0636 35.7147 52.9343 35.7721 52.8063 35.8328C52.6786 35.8931 52.5525 35.9567 52.4277 36.0236C52.3028 36.0905 52.1796 36.1607 52.0584 36.2334C51.9368 36.3065 51.8171 36.3825 51.6991 36.4618C51.5815 36.5407 51.4656 36.6224 51.3516 36.7075C51.2376 36.7922 51.1256 36.8797 51.0157 36.9701C50.9062 37.0606 50.7986 37.1535 50.6931 37.2493C50.5876 37.3451 50.4849 37.4434 50.3838 37.5442L50.3045 37.6144C50.1901 37.7312 50.0789 37.8514 49.971 37.9749C49.8631 38.0984 49.7588 38.2243 49.6581 38.354C49.557 38.4833 49.4599 38.6154 49.3661 38.7504C49.2723 38.8851 49.1824 39.023 49.0963 39.163C49.0101 39.303 48.9279 39.4455 48.8494 39.5904C48.7708 39.735 48.6967 39.882 48.6263 40.0311C48.5558 40.1801 48.4897 40.3313 48.4277 40.4841C48.3653 40.6373 48.3077 40.7917 48.2537 40.9478C48.2002 41.1039 48.1506 41.2617 48.1055 41.4207C48.0604 41.5801 48.0197 41.7403 47.9835 41.9014C47.9473 42.0629 47.9154 42.2252 47.888 42.3887C47.8603 42.5518 47.8373 42.7158 47.8188 42.8801C47.8003 43.0449 47.7862 43.2097 47.7769 43.3749C47.7672 43.5405 47.7624 43.7061 47.762 43.8717C47.7612 44.0373 47.7656 44.2029 47.7741 44.368C47.7825 44.5336 47.7958 44.6984 47.8131 44.8632C47.8309 45.028 47.853 45.1919 47.8792 45.3554C47.9058 45.5186 47.9368 45.6813 47.9722 45.8427C48.0077 46.0042 48.0475 46.1649 48.0918 46.3243C48.1357 46.4837 48.1845 46.6414 48.2372 46.7979C48.29 46.9545 48.3468 47.1093 48.408 47.2629C48.4692 47.4162 48.5348 47.5673 48.6041 47.7168C48.6738 47.8667 48.7475 48.0137 48.8248 48.1591C48.9025 48.3044 48.9839 48.4473 49.0693 48.5882C49.1547 48.7286 49.2437 48.8669 49.3367 49.0024C49.4297 49.1378 49.5264 49.2704 49.6263 49.4005C49.7265 49.5306 49.83 49.6573 49.9372 49.7816C50.0443 49.9055 50.1546 50.0261 50.2682 50.1438C50.3822 50.2615 50.499 50.3759 50.619 50.487C50.7386 50.5981 50.8615 50.7054 50.9875 50.8091C51.1132 50.9132 51.2416 51.0135 51.3729 51.1097C51.5042 51.2064 51.6379 51.2993 51.7745 51.3881H50.965C50.5807 51.386 50.1994 51.4166 49.8204 51.4789C49.4414 51.5413 49.0697 51.635 48.7056 51.7602C48.3415 51.8853 47.9899 52.0397 47.6508 52.2239C47.3113 52.4085 46.9891 52.62 46.6839 52.8582C46.2501 53.1948 45.8579 53.5756 45.5067 54.0009C45.1555 54.4263 44.8538 54.8859 44.6017 55.3798C44.1797 55.2799 43.7528 55.2237 43.3198 55.2109C43.5506 55.0321 43.7685 54.8384 43.9743 54.6303C44.0588 54.5436 44.141 54.4552 44.2215 54.3643C44.3017 54.2739 44.3798 54.181 44.4559 54.0864C44.5316 53.9918 44.6053 53.8956 44.677 53.7973C44.7483 53.699 44.8172 53.5991 44.8836 53.4975C44.9505 53.3955 45.0145 53.2923 45.0761 53.1874C45.1378 53.0825 45.197 52.9764 45.2538 52.8686C45.3105 52.7604 45.3645 52.6513 45.4161 52.5407C45.4672 52.4304 45.5163 52.3185 45.5622 52.2053C45.6086 52.0926 45.6521 51.9782 45.6927 51.8634C45.7334 51.7482 45.7713 51.6321 45.8067 51.5149C45.8417 51.398 45.8744 51.2799 45.9038 51.1614C45.9336 51.0424 45.9602 50.9231 45.9843 50.8033C46.0081 50.6831 46.0294 50.5626 46.0475 50.4416C46.0657 50.3206 46.081 50.1991 46.0935 50.0773C46.1059 49.9555 46.1156 49.8333 46.1221 49.711C46.1289 49.5888 46.1325 49.4665 46.1333 49.3439C46.1341 49.2212 46.1321 49.099 46.1273 48.9763C46.1225 48.8541 46.1144 48.7319 46.1035 48.61C46.0931 48.4878 46.0794 48.3664 46.0628 48.245C46.0463 48.1236 46.0266 48.003 46.0045 47.8824C45.9823 47.7622 45.9569 47.6425 45.9291 47.5231C45.9009 47.4042 45.8703 47.2861 45.8365 47.1684C45.8031 47.0507 45.7668 46.9342 45.7278 46.8182C45.6883 46.7025 45.6468 46.5877 45.6021 46.4742C45.5574 46.3606 45.5103 46.2483 45.4604 46.1368C45.4104 46.0257 45.3577 45.9154 45.3029 45.8068C45.2477 45.6982 45.1897 45.5908 45.1297 45.4851C45.0693 45.3794 45.0069 45.2753 44.9416 45.1725C44.8764 45.0701 44.8087 44.9689 44.7386 44.8698C44.6686 44.7703 44.5965 44.6728 44.522 44.5774C44.4471 44.4816 44.3705 44.3879 44.2912 44.2962C44.2123 44.2041 44.1309 44.1145 44.0476 44.0265L43.9751 43.9534C43.6859 43.6582 43.375 43.3897 43.0415 43.1485C42.7085 42.9074 42.3577 42.6964 41.9896 42.5155C41.6219 42.3346 41.2417 42.1867 40.8494 42.0715C40.4572 41.9567 40.058 41.8762 39.6529 41.8299C39.4616 41.4128 39.2373 41.0156 38.9799 40.6377C38.7141 40.2318 38.4084 39.8605 38.0625 39.5243C37.367 38.8169 36.5671 38.2702 35.6634 37.8828C35.1777 37.6619 34.6747 37.4938 34.1547 37.3794C33.6348 37.265 33.1088 37.2064 32.5772 37.2035H31.1358C31.6477 36.8698 32.1193 36.4841 32.5502 36.0463L32.599 36.0071C33.0464 35.545 33.4399 35.0391 33.7794 34.4886C34.1189 33.9385 34.3964 33.3571 34.6118 32.7447C34.7709 31.9567 34.9397 31.1795 35.1096 30.4027L35.1326 30.2677C35.1426 30.0831 35.1519 29.8981 35.1519 29.7135C35.1507 29.4099 35.133 29.1072 35.0992 28.8058C35.0891 28.7199 35.0786 28.634 35.0681 28.5576L34.9719 27.9257C34.9554 27.8675 34.9429 27.8134 34.9296 27.7589C34.9159 27.7048 34.9046 27.6528 34.8913 27.6082C34.8571 27.4355 34.8132 27.2654 34.7596 27.0977C34.7206 26.9738 34.6755 26.8524 34.6239 26.7335L34.6034 26.6732C34.5579 26.5435 34.5124 26.4159 34.4677 26.2962C34.4133 26.1549 34.3501 26.0178 34.2784 25.8853L34.1197 25.5276C34.0714 25.4339 34.0162 25.3472 33.9667 25.2621C33.9304 25.2014 33.893 25.1411 33.8539 25.0701C33.7939 24.9776 33.7431 24.8958 33.6872 24.793C33.5788 24.627 33.462 24.4684 33.336 24.316C33.3154 24.2834 33.2937 24.2545 33.2731 24.2239C33.2522 24.1929 33.2369 24.1632 33.2067 24.1252C33.0412 23.9191 32.8857 23.742 32.7315 23.5838L32.7109 23.5582C32.6972 23.5413 32.6839 23.5243 32.6702 23.5103L32.597 23.4351C32.2494 23.094 31.8833 22.7752 31.4983 22.4795L31.4685 22.4626C31.4564 22.4547 31.4447 22.4461 31.4343 22.4362C31.4177 22.4221 31.4012 22.4093 31.3887 22.4011C31.0049 22.1351 30.6034 21.901 30.1846 21.6982C30.1254 21.6672 30.0666 21.6375 30.0033 21.5995C29.5825 21.4087 29.1487 21.2547 28.7029 21.1378L28.4834 21.0697C28.2534 21.0271 28.0847 21.0061 27.8861 20.9805C27.6872 20.9548 27.4617 20.9276 27.1354 20.8743C27.0875 20.8566 27.0384 20.8471 26.9872 20.8458C26.5636 20.8231 26.1403 20.8318 25.7178 20.8718C25.2949 20.9119 24.8773 20.9829 24.4649 21.0849C24.0521 21.1869 23.649 21.3187 23.2551 21.4806C22.8608 21.6424 22.4802 21.8324 22.1129 22.0505C21.7875 22.2367 21.4794 22.449 21.1886 22.6877C20.8846 22.9136 20.6035 23.1659 20.3445 23.4446L20.2825 23.5082C20.0002 23.7981 19.7464 24.112 19.5205 24.4498C19.2003 24.8281 18.9208 25.2357 18.6828 25.673C18.4444 26.1103 18.2523 26.5679 18.1061 27.0457C17.8334 28.0182 17.7352 29.0094 17.8113 30.0182C17.8081 31.0726 17.9808 32.0955 18.3288 33.0874C18.5016 33.5875 18.7412 34.0517 19.0473 34.4791C19.125 34.5696 19.185 34.6406 19.5652 35.0961L19.6425 35.1886C19.9232 35.5293 20.1605 35.8064 20.3445 36.0154L20.4089 36.0802C20.8415 36.5043 21.3111 36.8793 21.8181 37.2055H20.353C20.1665 37.2055 19.9542 37.2163 19.744 37.2373C19.5354 37.2543 19.3284 37.2832 19.123 37.3245C18.7215 37.4038 18.3272 37.5115 17.9402 37.6474C17.5531 37.7833 17.1774 37.9464 16.8125 38.1364C16.4476 38.3259 16.0976 38.5411 15.7622 38.781C15.4267 39.0214 15.1093 39.284 14.8097 39.5698C14.3026 40.0963 13.8721 40.6815 13.5181 41.3261C13.1637 41.9704 12.8983 42.6513 12.7215 43.3682C12.5741 43.9927 12.5004 44.6257 12.5 45.2675V64.6117C12.5008 64.7001 12.5097 64.7872 12.527 64.8739C12.5439 64.9603 12.5693 65.0441 12.6023 65.1254C12.6353 65.2072 12.676 65.2844 12.7235 65.3579C12.7714 65.431 12.8254 65.4992 12.8862 65.562C12.9466 65.6243 13.0127 65.6805 13.084 65.73C13.1548 65.7796 13.2302 65.8217 13.3095 65.8564C13.3884 65.8907 13.4702 65.9175 13.5544 65.9357C13.6385 65.9539 13.7235 65.9638 13.8097 65.9654H56.621C56.6645 66.1777 56.7068 66.3763 56.766 66.5865C56.8175 66.7563 56.8695 66.9157 56.9315 67.0854L56.983 67.2448C57.1876 67.7924 57.443 68.314 57.7499 68.8091C58.0567 69.3043 58.4083 69.7631 58.8054 70.1855C59.178 70.5783 59.5509 70.971 59.9339 71.3534C60.5654 72.0009 61.1969 72.6377 61.8388 73.296L62.1083 73.5719C63.7752 75.2919 65.4522 77.0012 67.1086 78.7104L68.0096 79.6338C68.2536 79.92 68.5323 80.1645 68.8461 80.3668C69.1598 80.5692 69.4953 80.7212 69.8525 80.8232L70.722 80.8335L70.8154 80.8232C71.1715 80.7228 71.5057 80.5713 71.8182 80.3685C72.1304 80.1661 72.407 79.9212 72.6479 79.6338L76.7687 75.4088L79.4296 72.691C79.9161 72.1917 80.413 71.6821 80.8996 71.1725C81.2205 70.8438 81.5415 70.5147 81.852 70.1855C82.2636 69.7527 82.6269 69.2803 82.9406 68.7686C83.2548 68.257 83.5133 67.7168 83.7155 67.149C83.8194 66.8516 83.9124 66.5547 83.9849 66.2681C84.0026 66.1839 84.02 66.1054 84.0377 66.0236H86.0369C86.1275 66.0175 86.2169 66.003 86.3051 65.9807C86.3933 65.9584 86.4791 65.9287 86.5624 65.8911C86.6458 65.8539 86.7251 65.8093 86.8008 65.7581C86.877 65.7069 86.9478 65.6491 87.0139 65.5855C87.0803 65.5215 87.1404 65.4521 87.1951 65.3778C87.2495 65.3034 87.2978 65.2246 87.3389 65.1415C87.3804 65.0585 87.4146 64.9726 87.4416 64.8839C87.4686 64.7947 87.4879 64.7042 87.5 64.6117V45.2675C87.498 44.7385 87.4464 44.2148 87.3449 43.6961C87.2435 43.1775 87.0936 42.6736 86.8963 42.1851C86.6986 41.6961 86.4565 41.232 86.1702 40.7917C85.8842 40.3515 85.5592 39.9439 85.1951 39.5689ZM68.0333 25.3682L68.0809 25.329C68.221 25.1865 68.3676 25.0511 68.5206 24.9235C68.6737 24.7954 68.8328 24.6757 68.9971 24.5638C69.1614 24.4514 69.3309 24.3482 69.5053 24.2532C69.6793 24.1582 69.8577 24.0719 70.0406 23.9947C70.223 23.9175 70.4087 23.8497 70.5976 23.7911C70.7864 23.7325 70.9777 23.6837 71.1715 23.6441C71.3652 23.6044 71.5601 23.5751 71.7566 23.5549C71.9532 23.5351 72.1497 23.5252 72.3474 23.5247C72.5448 23.5247 72.7417 23.5342 72.9383 23.5537C73.1348 23.5731 73.3297 23.6024 73.5234 23.6416C73.7171 23.6804 73.9085 23.7292 74.0977 23.7874C74.2866 23.8452 74.4727 23.9129 74.6551 23.9897C74.838 24.0666 75.0164 24.152 75.1908 24.2466C75.3656 24.3412 75.5351 24.4444 75.6998 24.5559C75.8645 24.6678 76.0232 24.7872 76.1767 24.9148C76.3301 25.0424 76.4771 25.177 76.6173 25.3195L76.6765 25.3918C76.8126 25.5363 76.9415 25.6875 77.0631 25.8448C77.1847 26.0021 77.2987 26.1653 77.4054 26.3342C77.5117 26.5027 77.6096 26.6765 77.6998 26.8549C77.7896 27.0333 77.8714 27.2158 77.9439 27.4025C78.0168 27.5888 78.0808 27.7787 78.1356 27.9716C78.1903 28.1644 78.2363 28.3594 78.2725 28.5568C78.3092 28.7542 78.3361 28.9532 78.3539 29.1531C78.372 29.3534 78.38 29.5537 78.3788 29.7548C78.3776 29.9555 78.3671 30.1562 78.347 30.3561C78.3273 30.5559 78.2979 30.7542 78.2588 30.9511C78.2201 31.1481 78.1722 31.3426 78.115 31.5351C78.0582 31.7271 77.9922 31.9158 77.9173 32.1017C77.8424 32.2875 77.7586 32.4688 77.6668 32.6464C77.5746 32.8235 77.4747 32.9962 77.3663 33.1634C77.258 33.3311 77.142 33.4925 77.0184 33.6486C76.8947 33.8047 76.7643 33.9542 76.6265 34.0971L76.575 34.1492C76.434 34.2896 76.2866 34.4221 76.1332 34.5481C75.9797 34.6736 75.8202 34.7909 75.6555 34.9008C75.4908 35.0106 75.3212 35.1118 75.1469 35.2043C74.9725 35.2972 74.7941 35.381 74.612 35.4558C74.4296 35.5309 74.2439 35.5966 74.0554 35.6528C73.867 35.7094 73.6761 35.7564 73.4832 35.7936C73.2898 35.8308 73.0957 35.8584 72.9 35.8766C72.7043 35.8944 72.5081 35.9026 72.312 35.901C72.1155 35.8993 71.9197 35.8878 71.724 35.8667C71.5287 35.8452 71.335 35.8147 71.1425 35.7738C70.9503 35.7333 70.7603 35.6833 70.5726 35.6239C70.3849 35.564 70.2005 35.4954 70.0192 35.4174C69.8384 35.3393 69.6612 35.2526 69.4884 35.1568C69.3156 35.0614 69.1477 34.9573 68.9846 34.8446C68.8215 34.7323 68.6644 34.6121 68.5126 34.4837C68.3612 34.3556 68.2162 34.2202 68.0772 34.0777C67.9387 33.9348 67.807 33.7857 67.6825 33.6301C67.5581 33.4744 67.4413 33.3125 67.3322 33.1452C67.223 32.9776 67.1219 32.805 67.0293 32.6274C66.9363 32.4502 66.8521 32.2681 66.7768 32.0823C66.7011 31.8964 66.6346 31.7069 66.577 31.5144C66.5198 31.322 66.4715 31.1271 66.4325 30.9293C66.3934 30.7319 66.364 30.5332 66.3438 30.3329C66.3237 30.1322 66.3132 29.9315 66.312 29.73C66.3112 29.5285 66.3197 29.3278 66.3378 29.1271C66.3559 28.9264 66.3833 28.7273 66.4204 28.5295C66.4574 28.3317 66.5037 28.1359 66.5593 27.9431C66.6149 27.7498 66.6793 27.5599 66.753 27.3732C66.8267 27.1861 66.9089 27.0036 66.9999 26.8252C67.0909 26.6468 67.19 26.4729 67.2975 26.3044C67.4051 26.1359 67.5202 25.9728 67.6431 25.8159C67.7659 25.6585 67.896 25.5082 68.0333 25.3641V25.3682ZM50.3935 43.8993C50.3911 43.4926 50.4281 43.0895 50.5038 42.6906C50.5799 42.2912 50.6935 41.9039 50.8445 41.5277C50.9956 41.1519 51.1812 40.7946 51.4015 40.4568C51.6218 40.1186 51.8723 39.806 52.1534 39.519L52.1905 39.4773V39.4649L52.2134 39.436C52.3544 39.2964 52.5018 39.1642 52.6552 39.0391C52.8091 38.9144 52.9682 38.7971 53.1329 38.6881C53.2972 38.5791 53.4668 38.4783 53.6407 38.3858C53.8151 38.2937 53.9931 38.2103 54.1752 38.1355C54.3572 38.0608 54.5425 37.9955 54.7305 37.9394C54.919 37.8832 55.1095 37.8365 55.302 37.799C55.4945 37.7618 55.6887 37.7341 55.884 37.7164C56.0789 37.6982 56.2746 37.6899 56.4708 37.6916C56.6669 37.6928 56.8622 37.704 57.0571 37.725C57.2525 37.7457 57.4458 37.7763 57.6379 37.8163C57.83 37.8564 58.0197 37.9059 58.2074 37.965C58.3946 38.024 58.5787 38.0922 58.7599 38.1694C58.9407 38.2466 59.118 38.3329 59.2907 38.4275C59.4635 38.5225 59.6314 38.6257 59.7946 38.7372C59.9577 38.8487 60.1151 38.9681 60.267 39.0953C60.4188 39.2225 60.5642 39.3571 60.7031 39.4987L60.7631 39.559C61.0245 39.8357 61.2605 40.1339 61.4703 40.4531C61.4792 40.4849 61.4937 40.513 61.515 40.5382C61.685 40.8107 61.8304 41.0961 61.952 41.3947C61.9846 41.4641 62.0136 41.5347 62.0386 41.6069L62.0708 41.6908C62.1614 41.9406 62.2359 42.195 62.2943 42.4544C62.3205 42.5497 62.339 42.6456 62.3568 42.7356L62.366 42.7843C62.4333 43.1444 62.4703 43.5074 62.4768 43.8737V43.8824C62.4707 44.2582 62.4337 44.6315 62.366 45.0011L62.3048 45.2857C62.2335 45.5904 62.1421 45.8886 62.0305 46.1806C62.0193 46.2115 62.01 46.2413 62.0003 46.2718C61.9951 46.2937 61.9883 46.3148 61.981 46.3358C61.8368 46.672 61.6641 46.9925 61.4631 47.2964C61.4425 47.334 61.4192 47.3695 61.3926 47.4025L61.3511 47.4653C61.1788 47.7052 60.9931 47.9336 60.7941 48.1512C60.7559 48.1905 60.7196 48.2318 60.6846 48.2743C60.6496 48.3168 60.6214 48.3495 60.5916 48.3804C60.3479 48.6084 60.0922 48.8207 59.8244 49.0172C59.7909 49.0342 59.7571 49.0544 59.7208 49.0746C59.6846 49.0949 59.6629 49.1085 59.6234 49.1287C59.3962 49.2737 59.1606 49.4025 58.917 49.5153C58.6733 49.628 58.4232 49.7238 58.1671 49.8023C57.9105 49.8812 57.6504 49.9423 57.3866 49.9856C57.1224 50.0286 56.8566 50.0538 56.5892 50.0608C56.3218 50.0682 56.0551 50.0571 55.7893 50.0278C55.5231 49.9984 55.2605 49.9514 55.0004 49.8861C54.7406 49.8213 54.4861 49.7387 54.2372 49.6392C53.9879 49.5392 53.7463 49.4232 53.5123 49.2906C53.2783 49.1581 53.0535 49.0098 52.8385 48.8467C52.6238 48.6836 52.42 48.5064 52.2283 48.3156C52.0362 48.1244 51.8574 47.9212 51.6915 47.7061C51.526 47.4909 51.3749 47.265 51.2384 47.0292C51.1019 46.7934 50.9815 46.5493 50.8764 46.297C50.7716 46.0447 50.6834 45.7862 50.6122 45.5219C50.5409 45.2576 50.4869 44.9896 50.4503 44.7182C50.4136 44.4465 50.3947 44.1735 50.3935 43.8993ZM37.9062 44.5085C38.0943 44.4705 38.2844 44.4449 38.4761 44.4308C38.6674 44.4168 38.8591 44.4151 39.0508 44.4254C39.2425 44.4358 39.433 44.4581 39.6219 44.4923C39.8108 44.527 39.9972 44.5729 40.1805 44.6311C40.3641 44.6889 40.5433 44.7583 40.7185 44.8388C40.8937 44.9194 41.0633 45.0106 41.2276 45.113C41.3915 45.215 41.549 45.327 41.6996 45.4488C41.8506 45.571 41.9932 45.7019 42.1281 45.8419L42.1881 45.9047C42.3488 46.0752 42.4966 46.257 42.6315 46.4502C42.766 46.6431 42.8865 46.845 42.9924 47.056C43.0983 47.2671 43.1885 47.4847 43.263 47.7094C43.3379 47.9336 43.3963 48.1628 43.4382 48.3961C43.4805 48.6295 43.5055 48.8644 43.5139 49.1015C43.5224 49.3389 43.5139 49.5751 43.4886 49.811C43.4632 50.0468 43.4213 50.2797 43.3625 50.5093C43.3041 50.7385 43.2296 50.9627 43.139 51.1808C43.0484 51.3992 42.9424 51.6098 42.822 51.8122C42.7012 52.0146 42.5667 52.207 42.4185 52.3891C42.2703 52.5712 42.11 52.7418 41.9376 52.9C41.7652 53.0581 41.5824 53.2022 41.3891 53.3332C41.1962 53.4637 40.9948 53.5793 40.785 53.6796C40.5756 53.7804 40.3597 53.8646 40.1382 53.9324C39.9167 54.0005 39.6912 54.0517 39.462 54.086C39.2332 54.1203 39.0029 54.1368 38.7717 54.1364H38.694C38.3827 54.1318 38.075 54.0959 37.7705 54.0282C37.4664 53.9609 37.1716 53.8634 36.8861 53.7358C36.601 53.6082 36.3303 53.4529 36.0754 53.2704C35.8201 53.0874 35.5849 52.881 35.3694 52.6501C35.2635 52.537 35.1632 52.4184 35.0685 52.2954C34.9735 52.1719 34.8849 52.0443 34.8019 51.9121C34.719 51.7804 34.6429 51.6445 34.5728 51.5049C34.5027 51.365 34.4395 51.2225 34.3827 51.0767C34.3263 50.9305 34.2764 50.7823 34.2337 50.6315C34.1914 50.4808 34.1555 50.328 34.1274 50.174C34.0992 50.0195 34.0782 49.8642 34.0645 49.7077C34.0508 49.5516 34.0444 49.3947 34.0456 49.2378C34.0464 49.0808 34.0549 48.9243 34.0706 48.7678C34.0867 48.6117 34.1096 48.4568 34.1398 48.3028C34.1704 48.1488 34.2079 47.9968 34.2526 47.8469C34.2973 47.6966 34.3489 47.5491 34.4073 47.4038C34.4661 47.2588 34.5309 47.1168 34.603 46.9784C34.6747 46.8397 34.7532 46.705 34.8378 46.5741C34.9224 46.4432 35.0126 46.3168 35.1092 46.1946C35.2055 46.0728 35.3078 45.9559 35.4149 45.844C35.4793 45.7858 35.5474 45.7304 35.6223 45.6743L35.7476 45.5681C36.2949 45.0916 36.9159 44.7608 37.611 44.5754C37.7085 44.5477 37.8068 44.5279 37.9062 44.5085ZM20.5547 31.011V30.9313C20.4734 30.5303 20.4319 30.1252 20.4307 29.7155C20.4323 29.3393 20.4689 28.9668 20.5414 28.5976L20.6127 28.2656C20.6727 28.0191 20.748 27.7779 20.8387 27.5413C20.8769 27.4236 20.9244 27.3046 20.9772 27.175C21.0807 26.9544 21.1927 26.7323 21.3054 26.5287C21.3441 26.4721 21.3783 26.413 21.4089 26.3515C21.4327 26.309 21.4565 26.2652 21.4806 26.228C21.6808 25.9348 21.9003 25.6573 22.1391 25.3959L22.2019 25.3323C22.7472 24.7727 23.3747 24.3387 24.0843 24.0294L24.1383 24.0017C24.4725 23.8559 24.8177 23.7457 25.1733 23.6705C25.2015 23.6705 25.2285 23.659 25.2531 23.6536C25.2837 23.6445 25.3147 23.6387 25.3465 23.6367C25.7198 23.5598 26.0972 23.5186 26.4782 23.5136C26.8765 23.5148 27.2712 23.5557 27.6618 23.6367C28.0521 23.7176 28.4314 23.8365 28.7991 23.9943C29.1668 24.152 29.5156 24.3449 29.8463 24.5729C30.1769 24.8012 30.4826 25.0602 30.7633 25.3501C30.8668 25.4562 30.9558 25.5797 31.0468 25.6986C31.0947 25.761 31.1431 25.8237 31.1898 25.882C31.2365 25.9406 31.284 26.0009 31.3328 26.0583C31.3815 26.1157 31.452 26.2008 31.5035 26.2706C31.5869 26.4106 31.663 26.5547 31.7323 26.7025C31.7633 26.7665 31.7967 26.8322 31.8358 26.9003L31.928 27.0701C31.9735 27.1506 32.0202 27.2344 32.0553 27.3038C32.131 27.5371 32.2168 27.8027 32.28 28.0562C32.2937 28.1169 32.3122 28.1772 32.332 28.2379C32.3593 28.3164 32.3795 28.3965 32.3928 28.4787C32.4745 28.8685 32.5148 29.2629 32.514 29.6614C32.514 29.6945 32.5212 29.7201 32.5245 29.7114C32.5204 30.1046 32.4798 30.494 32.4032 30.8793C32.3976 30.9045 32.394 30.9301 32.392 30.9557C32.3899 30.9755 32.3871 30.9953 32.3827 31.0151C32.3408 31.2134 32.2901 31.4095 32.2297 31.6028C32.1692 31.7961 32.1 31.986 32.0214 32.1723C31.9429 32.3585 31.8555 32.5407 31.7597 32.7182C31.6638 32.8958 31.5595 33.068 31.4471 33.2353C31.3348 33.4025 31.2148 33.5636 31.0871 33.7184C30.959 33.8737 30.8241 34.022 30.6823 34.1632C30.5402 34.3048 30.392 34.4387 30.2373 34.5654C30.0823 34.6918 29.922 34.8103 29.756 34.921C29.5897 35.0313 29.419 35.1333 29.243 35.2266C29.067 35.3195 28.8873 35.4038 28.7033 35.4789C28.5196 35.5541 28.3324 35.6202 28.1423 35.6763C27.9522 35.7329 27.7597 35.7796 27.5652 35.8163C27.3702 35.8535 27.1745 35.8807 26.9772 35.8981C26.7798 35.9154 26.5825 35.9224 26.3843 35.92C26.1866 35.9175 25.9893 35.9051 25.7923 35.8828C25.5954 35.8605 25.4005 35.8283 25.2067 35.7862C24.6506 35.6619 24.121 35.462 23.6187 35.1874C23.1165 34.9123 22.6602 34.5729 22.2498 34.1682L22.1947 34.1046C21.7819 33.6809 21.4355 33.2059 21.1564 32.6794C20.8773 32.1529 20.6768 31.5966 20.5547 31.011ZM29.1926 57.9852C28.7524 58.6522 28.4459 59.3786 28.2732 60.1645C28.1793 60.6039 28.1338 61.0482 28.1354 61.4979V63.2667H15.1194V45.258C15.1206 44.9057 15.1548 44.5568 15.2233 44.2111C15.2914 43.8655 15.3916 43.5301 15.5241 43.2051C15.6566 42.8797 15.819 42.5708 16.0107 42.2784C16.2024 41.986 16.4202 41.7156 16.6639 41.4669C17.0666 41.0622 17.5213 40.7343 18.0288 40.4828C18.7626 40.1174 19.5374 39.9204 20.353 39.8915H32.5857C32.8559 39.8906 33.1249 39.9117 33.3924 39.9547C33.6594 39.9976 33.922 40.0616 34.1793 40.1471C34.4367 40.2322 34.6859 40.3379 34.9268 40.4638C35.168 40.5894 35.398 40.7339 35.6171 40.8971C36.0516 41.2109 36.4314 41.5838 36.756 42.0158C36.4809 42.0959 36.2123 42.1946 35.9505 42.3111C35.928 42.3201 35.9062 42.3309 35.8853 42.3428C35.8579 42.3577 35.8289 42.3693 35.7991 42.378C35.4564 42.5386 35.1277 42.7253 34.8124 42.9375L34.5486 43.1106C34.2139 43.3455 33.9034 43.6102 33.6167 43.9047L33.5692 43.9427C33.4838 44.0298 33.4004 44.1194 33.3195 44.2107C33.2381 44.3024 33.1596 44.3957 33.0827 44.4911C33.0061 44.5865 32.932 44.684 32.8599 44.7831C32.7883 44.8822 32.7186 44.9834 32.6513 45.0858C32.5845 45.1886 32.5196 45.2931 32.4576 45.3988C32.3956 45.5049 32.336 45.6123 32.2792 45.7213C32.2224 45.8304 32.168 45.9406 32.1165 46.0521C32.0645 46.164 32.0158 46.2768 31.9695 46.3912C31.9232 46.5051 31.8797 46.6204 31.839 46.7368C31.7983 46.8533 31.7605 46.9706 31.7254 47.0887C31.6904 47.2072 31.6582 47.3261 31.6288 47.4459C31.5994 47.5661 31.5732 47.6866 31.5494 47.8076C31.5261 47.9291 31.5051 48.0505 31.4874 48.1731C31.4697 48.2954 31.4552 48.418 31.4431 48.5407C31.4314 48.6637 31.4226 48.7872 31.4165 48.9107C31.4105 49.0342 31.4077 49.1576 31.4077 49.2811C31.4077 49.4046 31.4105 49.5285 31.4165 49.652C31.4226 49.7754 31.4314 49.8985 31.4431 50.0216C31.4552 50.1446 31.4697 50.2673 31.4874 50.3895C31.5051 50.5118 31.5261 50.6336 31.5494 50.7546C31.5732 50.876 31.5994 50.9966 31.6288 51.1163C31.6582 51.2361 31.6904 51.3555 31.7254 51.4736C31.7605 51.5917 31.7983 51.709 31.839 51.8254C31.8797 51.9419 31.9232 52.0571 31.9695 52.1715C32.0158 52.2855 32.0645 52.3982 32.1165 52.5101C32.168 52.6216 32.2224 52.7323 32.2792 52.8409C32.336 52.9499 32.3956 53.0573 32.4576 53.1634C32.5196 53.2696 32.5845 53.3736 32.6513 53.4765C32.7186 53.5793 32.7883 53.68 32.8599 53.7792C32.932 53.8783 33.0061 53.9757 33.0827 54.0711C33.1596 54.1665 33.2381 54.2603 33.3195 54.3515C33.4004 54.4428 33.4838 54.5324 33.5692 54.6195C33.7721 54.8293 33.9868 55.0263 34.2119 55.2109C33.8253 55.2167 33.4419 55.2568 33.0617 55.3311C32.6735 55.4207 32.2969 55.5462 31.9312 55.7073C31.5655 55.8688 31.2176 56.0625 30.8869 56.2896C30.5559 56.5163 30.2482 56.7724 29.9635 57.0573C29.6787 57.3422 29.4218 57.652 29.1926 57.9852ZM46.7801 63.2687H30.7633V61.5C30.7613 61.2555 30.785 61.0135 30.8338 60.774C30.9051 60.4292 31.0223 60.1021 31.1854 59.792C31.3485 59.4818 31.551 59.2014 31.7923 58.9512L31.841 58.9012C32.0017 58.7484 32.1717 58.6068 32.3505 58.4767C32.6356 58.2859 32.9413 58.1409 33.2679 58.0418C33.5941 57.9423 33.9276 57.8927 34.2679 57.8927H43.2755C43.5663 57.8964 43.8518 57.9373 44.1321 58.0154C44.4128 58.0938 44.6794 58.2066 44.932 58.3544C45.1188 58.4544 45.294 58.5729 45.4567 58.71C45.4877 58.7377 45.5212 58.7633 45.555 58.7889C45.5953 58.8182 45.6331 58.8504 45.669 58.8855C45.8792 59.0887 46.0653 59.3129 46.2272 59.5582L46.286 59.6644C46.4064 59.8907 46.5079 60.1256 46.5896 60.3693C46.6194 60.4511 46.6392 60.5225 46.6589 60.5923C46.7382 60.89 46.7777 61.1928 46.7781 61.5012L46.7801 63.2687ZM56.5175 62.6902L56.4285 63.2687H49.4096V61.5C49.4068 61.1279 49.3721 60.7587 49.3061 60.3928C49.2936 60.3292 49.2783 60.2706 49.2626 60.2124C49.2525 60.1719 49.2408 60.1318 49.2336 60.0947C49.1768 59.8225 49.0987 59.5574 48.9996 59.2985L48.9066 59.0424C48.7874 58.7319 48.6375 58.4374 48.4583 58.1591L48.4293 58.1178C48.3605 58.0088 48.2851 57.9047 48.2034 57.8056C48.1591 57.7482 48.1136 57.6908 48.0661 57.6239C48.0181 57.557 47.9811 57.5178 47.9404 57.4628C47.878 57.372 47.8091 57.2865 47.7334 57.2068C47.7233 57.1812 47.708 57.1589 47.6879 57.1399L47.6154 57.0647C47.4756 56.926 47.3266 56.7984 47.1684 56.6823C47.1317 56.6489 47.0975 56.6134 47.0649 56.5762C47.0367 56.5485 47.0089 56.5209 46.9787 56.4944C47.3009 55.8993 47.7274 55.3976 48.2586 54.9892C48.6516 54.6898 49.0806 54.4606 49.5449 54.3016C50.0093 54.143 50.4865 54.0625 50.9762 54.06H61.9093C62.4538 54.0575 62.9798 54.1566 63.4872 54.3586C63.9496 54.5436 64.364 54.8083 64.7297 55.1527C64.1236 55.1861 63.5267 55.2811 62.9391 55.4376C62.3515 55.5942 61.7849 55.8093 61.2396 56.0827C61.2053 56.0988 61.1743 56.1199 61.1465 56.1463C60.8405 56.3028 60.5448 56.4775 60.2593 56.6708C59.9742 56.8636 59.7011 57.0734 59.4401 57.3001C59.1792 57.5268 58.9327 57.7688 58.7003 58.0257C58.4679 58.283 58.2513 58.5535 58.0507 58.8372C57.8497 59.1209 57.6665 59.4162 57.5002 59.7222C57.3342 60.0286 57.1864 60.3441 57.0571 60.6687C56.9283 60.9933 56.8183 61.3249 56.7281 61.6627C56.6379 62.0009 56.5674 62.3433 56.5175 62.6902ZM81.2411 66.3846C80.9451 67.1362 80.5174 67.7982 79.9576 68.3701H79.9471C77.7832 70.6526 75.5363 72.9351 73.3728 75.1539C72.4099 76.1306 71.4574 77.1073 70.4945 78.084C70.3495 78.2434 70.3495 78.2752 70.163 78.084L67.3728 75.2283C65.1469 72.9561 62.921 70.6844 60.7156 68.3701C60.215 67.8543 59.8147 67.2671 59.5146 66.6076C59.3793 66.2962 59.2698 65.9753 59.1868 65.6454C59.1039 65.315 59.0483 64.9801 59.0201 64.6406C58.9919 64.3007 58.9915 63.9609 59.0189 63.621C59.0463 63.2815 59.101 62.9462 59.1832 62.6158L59.2557 62.5204V62.3082C59.269 62.2735 59.2794 62.238 59.2867 62.202C59.3592 62.0001 59.4317 61.8089 59.5146 61.6181C59.5767 61.4587 59.6387 61.2993 59.6701 61.2146L59.7736 60.9916C59.9045 60.729 60.0547 60.4783 60.2243 60.24C60.3938 60.0013 60.5807 59.7779 60.7845 59.5698C60.9887 59.3617 61.2069 59.1713 61.4405 58.9982C61.6737 58.8256 61.9186 58.6724 62.1755 58.539C62.2549 58.5163 62.331 58.4845 62.4031 58.4436L62.538 58.38C62.6685 58.3131 62.803 58.2566 62.9415 58.2103C63.2734 58.0782 63.6153 57.9823 63.9665 57.9233C64.244 57.8684 64.5235 57.8291 64.8054 57.8068C64.898 57.7977 64.9915 57.7944 65.0849 57.7961C65.2822 57.7998 65.4788 57.8139 65.6749 57.8386C66.4921 57.9192 67.2649 58.1525 67.9943 58.539L68.0563 58.5605C68.4965 58.8265 68.9036 59.1382 69.2778 59.4946L69.3918 59.59C69.4836 59.6792 69.5839 59.7569 69.6922 59.8238L69.7748 59.8663C69.7953 59.887 69.8195 59.901 69.8473 59.9088L70.1578 60.015L70.8307 59.9724L70.9862 59.8238C71.0905 59.7519 71.1908 59.6739 71.2866 59.59L71.3901 59.5054C71.7494 59.163 72.1392 58.862 72.5601 58.603L72.6841 58.539C73.4312 58.124 74.2286 57.8832 75.076 57.8172C75.3446 57.7977 75.614 57.7944 75.8835 57.8068C76.1525 57.8279 76.432 57.8704 76.722 57.9233C77.0764 57.9881 77.4215 58.0872 77.7574 58.2206C77.8839 58.264 78.0083 58.3135 78.1299 58.3693L78.2644 58.4436C78.3164 58.4647 78.3994 58.5072 78.4924 58.539C78.7574 58.6765 79.0099 58.8347 79.2495 59.0139C79.4896 59.1932 79.7135 59.391 79.9221 59.6078C80.1307 59.8242 80.3208 60.0567 80.4928 60.3049C80.6644 60.5531 80.8158 60.8137 80.9463 61.087L81.1223 61.5012C81.1843 61.6817 81.2568 61.8514 81.3188 62.0216L81.3293 62.2124L81.4638 62.499C81.5484 62.8182 81.6072 63.1424 81.6406 63.4715C81.6736 63.8002 81.6813 64.1298 81.6627 64.4602C81.6442 64.7901 81.6003 65.1168 81.5302 65.4397C81.4606 65.7627 81.3659 66.0773 81.2463 66.3846H81.2411ZM84.14 62.6902C84.0695 62.2293 83.966 61.7763 83.8295 61.3315C83.7441 61.054 83.645 60.7819 83.533 60.5142C83.4211 60.2471 83.2966 59.9861 83.1593 59.7317C83.022 59.4769 82.873 59.2299 82.7119 58.9908C82.5504 58.7513 82.378 58.5209 82.1947 58.2987C82.0111 58.0769 81.8174 57.8651 81.6132 57.6631C81.409 57.4608 81.196 57.2696 80.9733 57.0895C80.7505 56.909 80.5198 56.7406 80.2809 56.5836C80.0421 56.4267 79.7961 56.2822 79.5431 56.1504L79.3982 56.0761C78.8597 55.8048 78.3003 55.5917 77.7199 55.436C77.1396 55.2803 76.5496 55.1861 75.9507 55.1527C75.8162 55.142 75.6712 55.142 75.5262 55.142C75.1026 55.1386 74.6817 55.1704 74.2629 55.2373C73.6096 55.3381 72.9765 55.5161 72.364 55.7709C71.7514 56.0257 71.1767 56.3503 70.6394 56.7451C70.575 56.7839 70.5126 56.8264 70.453 56.8723C70.4115 56.8938 70.37 56.9256 70.3289 56.9466C70.308 56.9363 70.2975 56.9256 70.277 56.9148C70.194 56.8512 70.1114 56.798 70.0285 56.7451C69.391 56.2855 68.7059 55.9196 67.9733 55.6474L67.962 55.5685C67.923 55.2551 67.8436 54.9524 67.7244 54.6608C67.6052 54.3693 67.4498 54.0992 67.2589 53.851C67.2589 53.851 67.1203 53.6875 66.9733 53.5326C66.6411 53.1894 66.2794 52.883 65.888 52.6134C65.4965 52.3437 65.0833 52.1161 64.6479 51.9307C64.2122 51.7453 63.7635 51.6053 63.3012 51.5111C62.8384 51.417 62.3717 51.3703 61.9001 51.3711H61.1018C61.2851 51.2477 61.4466 51.13 61.6193 50.9941L61.8191 50.8446C62.074 50.6418 62.3245 50.4027 62.4945 50.2384L62.5565 50.1744C62.7772 49.9464 62.9842 49.7056 63.1775 49.4525C63.215 49.4153 63.2456 49.3728 63.2698 49.3253C63.4401 49.1106 63.598 48.8871 63.7442 48.6542L63.778 48.5927C63.8034 48.565 63.8227 48.5336 63.836 48.4981L63.8598 48.461C63.9637 48.2838 64.0587 48.0959 64.153 47.9088C64.2005 47.8147 64.248 47.7209 64.2967 47.6276L64.3112 47.5863C64.3169 47.5611 64.3257 47.5376 64.3382 47.5153C64.3475 47.4959 64.3567 47.476 64.364 47.4587C64.5094 47.1192 64.635 46.7719 64.741 46.4176C64.7607 46.3532 64.7748 46.2875 64.7836 46.221C64.8662 45.9258 64.9294 45.6259 64.9729 45.3216C64.9834 45.272 64.9915 45.2208 64.9999 45.1709C65.008 45.1213 65.0144 45.0808 65.0257 45.0214C65.0712 44.6427 65.0958 44.2627 65.0994 43.8812C65.0978 43.488 65.07 43.0969 65.0152 42.7079C65.0152 42.6666 65.0031 42.6241 64.9959 42.5795C64.9886 42.5349 64.9802 42.4828 64.9741 42.4279C64.9186 42.0785 64.8425 41.7345 64.7462 41.3947C64.7446 41.381 64.7418 41.3674 64.7369 41.3546L64.7204 41.2885V41.277L64.7059 41.2134C64.5972 40.8999 64.4844 40.5762 64.3447 40.2578C64.4562 40.209 64.5762 40.1644 64.7015 40.124C65.2025 39.9699 65.7144 39.8944 66.2371 39.8968H78.4646C81.3695 39.8968 84.8782 42.2908 84.8782 45.2625V61.3315L84.8846 61.3716L84.8899 61.3951V63.3695H84.2386L84.14 62.6902Z" fill="currentColor"/>
</svg>
