<svg width="76" height="76" viewBox="0 0 76 76" fill="none" xmlns="http://www.w3.org/2000/svg">
<path d="M49.2832 41.3049C49.2226 40.6864 49.6825 40.1373 50.3126 40.0775C50.9395 40.0176 51.4959 40.4715 51.5566 41.0938C51.7283 42.8655 54.8793 43.7486 56.6553 42.3485C57.1234 41.9769 57.4116 41.4781 57.4116 40.9483C57.4116 37.4268 49.2583 40.5137 49.2583 34.5116C49.2583 32.3004 51.1556 30.6837 53.313 30.2715V29.1457C53.313 28.5143 53.8185 28.0155 54.506 28.0155V28.0203C55.1562 28.0299 55.6617 28.5469 55.6421 29.1735L55.6194 30.2635C57.7914 30.6656 59.7017 32.2924 59.7017 34.5132C59.7017 35.1349 59.1908 35.6439 58.5558 35.6439C57.9241 35.6439 57.41 35.1349 57.41 34.5132C57.41 32.6442 54.1398 31.6706 52.3113 33.113C51.8432 33.4846 51.5501 33.9834 51.5501 34.5132C51.5501 38.0342 59.7017 34.9478 59.7017 40.9499C59.7017 43.1659 57.7946 44.7906 55.6275 45.1942L55.6048 46.3153C55.6048 46.9371 55.089 47.446 54.4589 47.446C53.8288 47.446 53.313 46.9371 53.313 46.3153V45.1942C51.2965 44.8066 49.481 43.3643 49.2832 41.3049ZM54.4833 25.0286C61.54 25.0286 67.2655 30.6789 67.2655 37.6466C67.2655 44.6115 61.54 50.2597 54.4833 50.2597C47.4217 50.2597 41.701 44.6099 41.701 37.6466C41.701 30.6789 47.4217 25.0286 54.4833 25.0286ZM61.903 30.325C57.806 26.2823 51.1621 26.2823 47.0652 30.325C42.9682 34.3678 42.9682 40.9237 47.0652 44.9665C51.1621 49.0098 57.806 49.0098 61.903 44.9665C65.9999 40.9253 65.9999 34.3678 61.903 30.325ZM5.20277 44.2854H10.6125C12.9465 44.2854 14.9272 45.9571 15.3265 48.1859L27.9289 42.1416C29.6588 41.3183 31.5198 41.1338 33.3056 41.9122L37.0818 43.5567V28.4287C31.4445 30.9564 24.8088 29.7337 20.4534 25.4344C14.6536 19.7113 14.6536 10.4304 20.4534 4.7079C26.2575 -1.01462 35.6628 -1.01462 41.4621 4.7079C43.7587 6.97413 45.3087 9.98347 45.708 13.3382L51.1735 6.66726C52.9462 4.50581 56.0171 4.50581 57.7849 6.66726L58.0173 6.94686C64.7826 -2.62648 72.5035 2.74853 71.6442 9.12541C71.2872 11.7407 69.5047 14.4962 65.6532 16.2679L70.7519 22.4945C71.5131 23.4231 71.8799 24.5234 71.8799 25.7214V48.0421C76.3989 49.0953 77.1883 54.6628 70.6636 58.0239L45.9242 70.7664C44.5968 71.4481 43.1877 71.6272 41.7341 71.293L24.2329 67.2551L15.3839 70.9862C15.1986 73.4315 13.115 75.3582 10.6092 75.3582H5.20277C2.56754 75.3582 0.415039 73.2342 0.415039 70.6339H0.419915V49.0114H0.415039C0.415039 46.4057 2.56754 44.2854 5.20277 44.2854ZM15.3969 50.6585V68.5291L23.6369 65.0536C23.8645 64.9482 24.1278 64.9114 24.3932 64.9712L42.2558 69.0915C43.1942 69.3064 44.0236 69.2059 44.8683 68.7713L69.6125 56.0293C71.8127 54.8938 72.893 53.5759 73.1027 52.4404C73.2414 51.6668 72.9304 51.0028 72.2532 50.5906C70.9171 49.7754 68.8795 50.1613 67.4227 50.7152L47.2207 58.3436C46.9704 58.4409 46.687 58.4489 46.4183 58.3484L31.664 52.983C31.0696 52.7681 30.7684 52.1175 30.9862 51.5358C31.1991 50.9494 31.859 50.6473 32.4528 50.8622L46.7163 56.0501C50.771 53.6369 47.8063 50.7072 44.2577 49.1648L32.3889 43.9817C31.2202 43.4728 30.0646 43.6342 28.9236 44.1785L15.3969 50.6585ZM10.6141 46.5431H5.20277C3.82935 46.5431 2.70624 47.6561 2.70624 49.0114H2.70136V70.6355H2.70624C2.70624 71.9859 3.82935 73.0984 5.20277 73.0984H10.6125C11.981 73.0984 13.1085 71.9859 13.1085 70.6355H13.1133V49.0114H13.1085C13.1101 47.6561 11.9826 46.5431 10.6141 46.5431ZM39.3719 44.5597L45.1809 47.0921C47.854 48.2603 50.6106 50.2838 50.9346 52.9766C51.0002 53.5128 50.9671 54.0426 50.8235 54.566L66.6089 48.5992C67.6762 48.1972 68.678 47.9726 69.593 47.8983V25.7247C69.593 25.0334 69.4115 24.4426 68.9759 23.9112L58.2806 10.8538C57.9648 11.4499 57.6538 12.0861 57.3477 12.7726C60.6054 14.7046 61.2041 19.2612 58.5591 21.9989C56.3085 24.3245 52.6564 24.3245 50.4107 21.9989C48.1926 19.7097 48.1926 16.0241 50.4107 13.7306C51.6319 12.4705 53.3705 11.8033 55.1854 12.031C55.6914 10.9057 56.2099 9.88777 56.7355 8.96877C56.3134 8.45661 55.8356 7.75573 55.297 7.48949C54.8138 7.25533 54.1512 7.25533 53.6733 7.48949C53.4176 7.61673 53.1819 7.81401 52.9576 8.08559L39.9938 23.9128C39.5566 24.4443 39.3719 25.0334 39.3719 25.7268V44.5597ZM57.9225 18.0738C56.7588 18.1609 55.6866 18.1786 54.4654 18.1561C53.6912 18.1417 53.1608 17.3954 53.3981 16.6817H53.3932C53.6766 15.83 53.9691 15.0243 54.2606 14.2556C51.2965 14.4523 49.954 18.2609 52.0658 20.4448C54.1593 22.6111 57.7556 21.1831 57.9225 18.0738ZM64.1671 14.4523C72.6671 10.9634 69.4755 2.40638 64.3713 4.2786C62.8543 4.83246 61.1699 6.21978 59.5034 8.76027L64.1671 14.4523ZM56.4608 14.8998C56.3313 15.2243 56.2051 15.559 56.081 15.9027L57.3477 15.853C57.1136 15.4814 56.8124 15.1569 56.4608 14.8998ZM37.0834 25.9075C37.0834 24.5977 37.3667 23.5269 38.2114 22.4961L43.4867 16.0546L43.5246 15.0741C43.5246 8.22405 37.9004 2.67583 30.9602 2.67583C24.0232 2.67583 18.3957 8.22566 18.3957 15.0741C18.3957 23.3344 26.4358 29.2542 34.4319 26.9928C35.3665 26.7265 36.2588 26.3614 37.0834 25.9075ZM23.6239 18.3582C23.2717 17.8412 23.411 17.1404 23.9349 16.7929C24.4588 16.4491 25.1691 16.586 25.5207 17.1045C28.1613 20.9955 33.7558 20.9955 36.4007 17.1045C36.7497 16.5876 37.4583 16.4507 37.9838 16.7929C38.5077 17.1404 38.647 17.8412 38.2997 18.3582C34.7494 23.5814 27.1823 23.591 23.6239 18.3582ZM35.4743 10.9217C35.4743 10.2952 35.9852 9.79101 36.6202 9.79101C37.2508 9.79101 37.766 10.2952 37.766 10.9217V11.5809C37.766 12.2075 37.2508 12.7111 36.6202 12.7111C35.9852 12.7111 35.4743 12.2075 35.4743 11.5809V10.9217ZM24.4685 10.9217C24.4685 10.2952 24.9789 9.79101 25.6144 9.79101C26.2445 9.79101 26.7597 10.2952 26.7597 10.9217V11.5809C26.7597 12.2075 26.2445 12.7111 25.6144 12.7111C24.9789 12.7111 24.4685 12.2075 24.4685 11.5809V10.9217Z" fill="#113C7B"/>
<path d="M71.464 25.7212C71.464 24.6134 71.1263 23.6081 70.4305 22.7589L65.332 16.5334L64.9902 16.1143L65.4785 15.8905C69.2164 14.171 70.8962 11.5274 71.2321 9.0708C71.6386 6.05397 70.0104 3.31714 67.5496 2.44645C65.1254 1.58958 61.6804 2.48519 58.3577 7.18685L58.0444 7.63037L57.6986 7.21126L57.4626 6.93457C55.862 4.97794 53.1037 4.97352 51.4974 6.9305L46.0286 13.6037L45.4102 14.3605L45.2962 13.388C44.9086 10.1315 43.4019 7.20844 41.1702 5.00586C35.5335 -0.556358 26.3899 -0.556417 20.7479 5.00586C15.1135 10.5652 15.1134 19.5794 20.7479 25.1393C24.9809 29.3166 31.4309 30.5048 36.91 28.0487L37.5 27.7842V44.1945L36.9141 43.9381L33.138 42.2943C31.6912 41.6639 30.1832 41.708 28.7272 42.2536L28.1087 42.5181L15.0146 48.7965L14.917 48.2594C14.5536 46.2311 12.7461 44.7031 10.612 44.7031H5.20426C2.8434 44.7031 0.916643 46.5623 0.838216 48.8657V70.7651C0.909223 73.0703 2.8387 74.9399 5.20426 74.9399H10.6079C12.8988 74.9399 14.8006 73.1801 14.9699 70.9564L14.9862 70.7L15.2222 70.6024L24.0723 66.8711L24.1943 66.8182L24.3245 66.8507L41.8294 70.8872C43.1854 71.1984 44.4921 71.031 45.7316 70.3948L70.4712 57.6548C73.654 56.0152 74.9475 53.8947 74.9959 52.1575C75.0431 50.4411 73.8822 48.9353 71.7855 48.4466L71.464 48.3734V25.7212ZM10.616 46.1273C12.0659 46.1282 13.2741 47.2019 13.4806 48.5931H13.5295V71.054H13.4806C13.2722 72.4418 12.0619 73.5158 10.612 73.5158H5.20426C3.74942 73.5158 2.53923 72.4417 2.33154 71.054H2.28271V48.5931H2.33154C2.53858 47.2015 3.74838 46.1273 5.20426 46.1273H10.616ZM5.20426 46.9614C4.05678 46.9614 3.12093 47.8912 3.12093 49.0122L3.11686 70.2199L3.12093 70.6349C3.12093 71.7504 4.05613 72.6816 5.20426 72.6816H10.612C11.7557 72.6816 12.6912 71.75 12.6912 70.6349L12.6953 49.4272L12.6912 49.0122C12.6926 47.8928 11.7583 46.9625 10.616 46.9614H5.20426ZM29.2033 43.6045C30.2809 43.187 31.4093 43.1009 32.5562 43.6004L44.4255 48.7843C46.2219 49.5654 47.9558 50.7297 48.702 52.0802C49.0855 52.7744 49.2218 53.542 48.9339 54.3182C48.6514 55.0794 47.9857 55.7801 46.9279 56.4097L46.7611 56.5073L46.5739 56.4422L32.312 51.2542C31.9289 51.1156 31.5086 51.3126 31.3761 51.6774C31.2407 52.039 31.4284 52.4559 31.8075 52.5929L46.5617 57.9559L46.5658 57.96C46.7351 58.0228 46.913 58.0171 47.0703 57.9559L47.0744 57.9518L67.2729 50.3265L67.867 50.119C68.4853 49.9251 69.1708 49.775 69.8527 49.7243C70.7547 49.6573 71.6946 49.7647 72.465 50.2329C73.2839 50.7313 73.685 51.5666 73.5148 52.5156C73.2707 53.8379 72.0504 55.2421 69.8039 56.4015L45.0602 69.1416C44.1266 69.622 43.195 69.7358 42.1631 69.4997L24.3001 65.3778C24.1308 65.3399 23.9613 65.3616 23.8118 65.4307L23.7996 65.4388L14.9821 69.1579V50.3957L15.2181 50.2817L28.7435 43.8039L29.2033 43.6045ZM32.2225 44.3654C31.1969 43.9187 30.172 44.0446 29.1056 44.5526L15.8122 50.9206V67.9005L23.4619 64.6738L23.6979 64.5884C23.944 64.518 24.2123 64.5032 24.4832 64.564L42.3503 68.6859C43.1942 68.8788 43.9227 68.7895 44.6777 68.401L69.4214 55.6569C71.5743 54.5456 72.5175 53.3137 72.6929 52.3651L72.7091 51.9378C72.665 51.531 72.4391 51.1893 72.0378 50.945C71.4731 50.6004 70.7269 50.4939 69.9137 50.5544C69.3076 50.5995 68.6877 50.7384 68.1193 50.9165L67.57 51.1037L47.3673 58.729L47.3714 58.7331C47.03 58.8656 46.6432 58.8732 46.2769 58.7371L31.5226 53.3742C30.713 53.0814 30.2947 52.1902 30.5949 51.3885C30.8898 50.5842 31.7904 50.1798 32.5928 50.4689L46.6634 55.5837C47.5236 55.0412 47.9726 54.5141 48.1527 54.0293C48.3381 53.5296 48.2676 53.0154 47.9736 52.4831C47.3643 51.3804 45.8433 50.3065 44.0918 49.5452L32.2225 44.3654ZM66.8498 37.6475C66.8498 30.9153 61.3154 25.4449 54.484 25.4445C47.6475 25.4445 42.1183 30.9149 42.1183 37.6475C42.1188 44.3752 47.6477 49.8423 54.484 49.8423C61.3153 49.8419 66.8493 44.3764 66.8498 37.6475ZM46.7733 30.0303C51.0325 25.8274 57.9356 25.8274 62.1948 30.0303C66.4566 34.2362 66.4571 41.0605 62.1948 45.2646C57.9359 49.4665 51.0322 49.4665 46.7733 45.2646C42.5112 41.0589 42.5115 34.2362 46.7733 30.0303ZM52.8971 29.1473C52.8971 28.5068 53.2749 27.9788 53.8289 27.7394C51.4728 27.89 49.1596 28.8444 47.3592 30.6203C43.4276 34.4999 43.4276 40.791 47.3592 44.6706C49.0777 46.3661 51.2631 47.3167 53.5075 47.5311C53.1399 47.2484 52.8971 46.8122 52.8971 46.3144V45.5129C50.8972 45.0112 49.0788 43.5256 48.8688 41.3462C48.785 40.4916 49.4199 39.7429 50.2726 39.6616C51.1247 39.5802 51.8859 40.1989 51.9694 41.0532C52.0304 41.6828 52.6505 42.2574 53.6092 42.5059C54.546 42.7486 55.6342 42.6222 56.3965 42.0216L56.6569 41.7734C56.8806 41.5146 56.9946 41.2261 56.9946 40.9474C56.9945 40.596 56.8955 40.356 56.7423 40.1743C56.5811 39.9835 56.3324 39.8261 55.9855 39.6901C55.6383 39.554 55.2207 39.4519 54.7485 39.3564C54.5142 39.3091 54.2715 39.2647 54.0202 39.2181C53.7696 39.1716 53.5104 39.1208 53.2511 39.0675C52.2263 38.857 51.1205 38.5557 50.2726 37.8794C49.3966 37.1806 48.8403 36.1203 48.8403 34.5102C48.841 32.1552 50.755 30.4886 52.8971 29.953V29.1473ZM30.9611 2.25927C38.1252 2.25977 43.9404 7.98819 43.9412 15.0726V15.0889L43.9046 16.0695L43.8965 16.2119L43.811 16.3177L38.5335 22.7589C37.7634 23.6987 37.5 24.6711 37.5 25.9084V26.1525L37.2843 26.2705C36.6449 26.6225 35.9674 26.926 35.262 27.1698L34.5459 27.3936C26.2926 29.7277 17.981 23.6184 17.981 15.0726C17.9818 7.98946 23.7998 2.25927 30.9611 2.25927ZM36.2549 16.631C36.7702 16.1261 37.5889 16.0381 38.2121 16.4438C38.9272 16.9186 39.1241 17.8828 38.6475 18.5923C34.9319 24.0581 27.0027 24.0684 23.2788 18.5923C22.7954 17.8819 22.9906 16.9184 23.7061 16.4438C24.4175 15.9771 25.3855 16.1614 25.8667 16.8711C28.342 20.517 33.5757 20.5178 36.0555 16.8711L36.2549 16.631ZM54.6509 14.4053C54.3915 15.0894 54.1349 15.8025 53.8818 16.5496L53.7923 16.8141C53.6472 17.2533 53.9722 17.7276 54.4718 17.7378C55.6832 17.7601 56.7427 17.7423 57.8898 17.6564L58.3659 17.6239L58.3374 18.0959C58.1529 21.534 54.1361 23.1852 51.7659 20.7326C49.4351 18.3204 50.8786 14.0632 54.2318 13.8397L54.8787 13.7949L54.6509 14.4053ZM25.175 17.339C24.9535 17.0124 24.5019 16.921 24.1659 17.1396C23.8338 17.3599 23.7464 17.8009 23.9665 18.1243C27.3593 23.1137 34.5706 23.1046 37.9557 18.1243L38.0615 17.868C38.1143 17.5976 38.0035 17.3098 37.7563 17.1437L37.4878 17.0339C37.2067 16.9811 36.9116 17.0955 36.7472 17.339C33.937 21.473 27.9811 21.4737 25.175 17.339ZM53.6214 14.8C51.5168 15.4481 50.6464 18.3773 52.3641 20.1548C54.0771 21.9274 56.9933 20.9582 57.4463 18.5109C56.4567 18.5695 55.5114 18.5912 54.4596 18.5719C53.6076 18.5561 52.9726 17.8816 52.9378 17.099H52.8158L52.9989 16.5496L53.6214 14.8ZM56.7057 14.564C57.1001 14.8524 57.4371 15.2154 57.6986 15.63L58.0851 16.2404L57.3649 16.2689L56.0954 16.3177L55.481 16.3421L55.6885 15.7602C55.8136 15.4135 55.9438 15.076 56.075 14.7471L56.2744 14.2466L56.7057 14.564ZM64.2293 3.88688C65.6238 3.37585 66.9203 3.57022 67.9199 4.24088C68.9109 4.90603 69.5806 6.0175 69.7835 7.28857C70.194 9.86213 68.7122 13.0359 64.327 14.8366L64.0422 14.9546L63.8428 14.7145L59.1797 9.02604L58.9884 8.78597L59.1553 8.53369C60.8499 5.95039 62.598 4.48249 64.2293 3.88688ZM67.4561 4.93261C66.6878 4.41715 65.6707 4.24391 64.5142 4.66813C63.1596 5.16267 61.6029 6.40341 60.022 8.73714L64.2863 13.9414C68.1728 12.2406 69.2861 9.47884 68.9575 7.41878C68.7865 6.3497 68.2327 5.45392 67.4561 4.93261ZM26.3428 10.9222C26.3428 10.5319 26.0205 10.2061 25.6144 10.2061C25.2039 10.2061 24.8861 10.5308 24.8861 10.9222V11.5814C24.8863 11.9723 25.2038 12.2935 25.6144 12.2935C26.0206 12.2934 26.3425 11.9712 26.3428 11.5814V10.9222ZM37.3494 10.9222C37.3494 10.5323 37.0275 10.2065 36.6211 10.2061C36.211 10.2061 35.8927 10.531 35.8927 10.9222V11.5814C35.893 11.9721 36.2109 12.2935 36.6211 12.2935C37.0275 12.293 37.3492 11.9708 37.3494 11.5814V10.9222ZM67.6839 37.6475C67.6834 44.8471 61.7649 50.676 54.484 50.6764C52.8737 50.6764 51.3295 50.3922 49.9023 49.8708C50.6611 50.7536 51.2079 51.7728 51.3468 52.9266L51.3835 53.366C51.3888 53.5498 51.3721 53.7324 51.355 53.9154L66.4632 48.2106C67.4178 47.8511 68.3273 47.6307 69.1772 47.527V25.7253C69.1772 25.1166 69.0187 24.6219 68.6523 24.175L58.3618 11.6099C58.1982 11.9352 58.0346 12.2719 57.8735 12.623C61.083 14.794 61.5994 19.449 58.8582 22.2869C56.4441 24.7815 52.5195 24.7823 50.1099 22.2869C47.737 19.8361 47.737 15.8952 50.1099 13.4409L50.6266 12.9648C51.8115 11.9885 53.3345 11.4742 54.9316 11.5936C55.3585 10.6622 55.7919 9.80324 56.2337 9.01383C56.0724 8.81024 55.9204 8.61071 55.7454 8.41162C55.5157 8.15033 55.3069 7.96231 55.1147 7.86637L54.8136 7.76464C54.5996 7.72006 54.3666 7.72031 54.1545 7.76464L53.8574 7.8623C53.7614 7.91019 53.6651 7.97291 53.5685 8.05354L53.2796 8.35058L40.3158 24.175C39.9481 24.6222 39.787 25.1172 39.7868 25.7253V44.284L44.7835 46.4609C42.6184 44.1404 41.2844 41.0521 41.2842 37.6475C41.2842 30.4447 47.1974 24.6103 54.484 24.6103C61.7654 24.6108 67.6839 30.4449 67.6839 37.6475ZM60.1196 34.5143C60.119 35.3693 59.4172 36.0599 58.5571 36.0605C57.7005 36.0605 56.9953 35.3705 56.9946 34.5143C56.9946 33.8563 56.404 33.2478 55.4321 32.9722C54.4831 32.7031 53.3531 32.8169 52.5675 33.436C52.17 33.7516 51.9653 34.1447 51.9653 34.5143C51.9655 34.8656 52.0645 35.1059 52.2176 35.2874C52.3786 35.4782 52.6279 35.6356 52.9744 35.7716C53.3215 35.9077 53.7396 36.0099 54.2114 36.1053C54.4456 36.1527 54.6886 36.1971 54.9398 36.2436C55.1901 36.2901 55.4499 36.341 55.7088 36.3942C56.7335 36.6048 57.8396 36.906 58.6873 37.5824C59.5633 38.2812 60.1196 39.3414 60.1196 40.9515C60.1188 43.3142 58.1902 44.9863 56.0343 45.5129L56.0221 46.3226C56.0198 46.8202 55.773 47.254 55.4036 47.5352C57.6679 47.3316 59.8759 46.3804 61.6089 44.6706C65.5404 40.7926 65.5405 34.4999 61.6089 30.6203C59.8075 28.8434 57.4926 27.8892 55.1351 27.7394C55.6915 27.9838 56.0721 28.5337 56.0547 29.1798L56.0384 29.9448C58.1949 30.4734 60.1196 32.1503 60.1196 34.5143ZM53.7313 30.6162L53.3895 30.6813C51.3529 31.0711 49.6752 32.5694 49.6745 34.5102C49.6745 35.9011 50.1409 36.7078 50.7935 37.2283C51.4741 37.7709 52.4051 38.0456 53.418 38.2537C53.6681 38.3051 53.9199 38.3497 54.1707 38.3962C54.4204 38.4424 54.6725 38.4895 54.9154 38.5386C55.3983 38.6362 55.8738 38.7495 56.2907 38.9129C56.7072 39.0763 57.0968 39.3 57.3812 39.6372C57.6735 39.9839 57.8286 40.4195 57.8288 40.9474C57.8288 41.4642 57.6176 41.9377 57.2835 42.3227L56.9132 42.6768C55.9003 43.475 54.5265 43.6065 53.4017 43.3156C52.2982 43.0296 51.2545 42.2763 51.1434 41.1346C51.1054 40.745 50.7548 40.4544 50.354 40.4917C49.9468 40.5304 49.6614 40.8824 49.6989 41.2648L49.7477 41.5985C50.0755 43.2431 51.6099 44.4417 53.3936 44.7845L53.7313 44.8496V46.3144C53.7313 46.7009 54.0544 47.0306 54.4596 47.0306C54.8645 47.0302 55.188 46.7006 55.188 46.3144V46.3063L55.2124 45.1873L55.2165 44.8455L55.5501 44.7845C57.5958 44.4035 59.2846 42.8973 59.2855 40.9515C59.2855 39.5606 58.819 38.754 58.1665 38.2334C57.4859 37.6907 56.5548 37.4161 55.542 37.208C55.2918 37.1566 55.0401 37.1121 54.7892 37.0656C54.5403 37.0194 54.2908 36.9721 54.0487 36.9232C53.5661 36.8256 53.09 36.712 52.6733 36.5488C52.2572 36.3857 51.8673 36.1612 51.5828 35.8245C51.2906 35.478 51.1355 35.0421 51.1353 34.5143C51.1353 33.8244 51.5122 33.2125 52.0508 32.785C53.0934 31.9635 54.5177 31.8466 55.66 32.1706C56.7804 32.4883 57.8247 33.3033 57.8247 34.5143C57.8253 34.9006 58.1511 35.2264 58.5571 35.2264C58.9651 35.2257 59.2849 34.901 59.2855 34.5143C59.2855 32.563 57.5927 31.0528 55.542 30.6732L55.1961 30.6081L55.2043 30.2541L55.2246 29.1636C55.236 28.7815 54.9286 28.4418 54.5003 28.4352L54.48 28.4311C54.021 28.4429 53.7313 28.7694 53.7313 29.1473V30.6162ZM70.0114 48.2838L69.6248 48.3123C68.9709 48.3656 68.2652 48.4992 67.5171 48.7274L66.7562 48.9878L50.9725 54.957L50.2034 55.2459L50.4232 54.4565C50.5515 53.9886 50.58 53.5132 50.5208 53.0283C50.3746 51.8129 49.6737 50.7174 48.6532 49.769C47.6339 48.8221 46.3228 48.0455 45.0155 47.4741L39.2049 44.9432L38.9567 44.8333V25.7253C38.957 24.9486 39.1677 24.2645 39.6729 23.6501L52.6367 7.82161C52.8888 7.51642 53.168 7.27665 53.4871 7.11767L53.4912 7.1136C54.0846 6.82358 54.8803 6.82533 55.4769 7.1136L55.481 7.11767C55.8261 7.28834 56.1244 7.58059 56.3721 7.8623C56.6134 8.13686 56.8672 8.47592 57.0557 8.70459L57.2388 8.92431L57.0964 9.17659C56.5782 10.0828 56.0671 11.0904 55.5664 12.2039L55.4403 12.4847L55.1351 12.444C53.4574 12.2335 51.8466 12.8493 50.7121 14.0187C48.6504 16.1505 48.6475 19.5816 50.708 21.7091C52.7898 23.8642 56.1733 23.8655 58.2601 21.7091C60.7191 19.1633 60.1593 14.9256 57.137 13.1317L56.8156 12.9404L56.9661 12.6027C57.276 11.9078 57.5939 11.2623 57.9142 10.6577L58.2072 10.1043L58.6019 10.5885L69.2993 23.646C69.8042 24.2619 70.0114 24.9514 70.0114 25.7253V48.2838ZM72.2982 47.7223C74.5282 48.3671 75.8865 50.1061 75.8301 52.1779C75.771 54.3277 74.1946 56.6743 70.8537 58.3953L46.1141 71.1354C44.7005 71.8613 43.1916 72.0567 41.6423 71.701L24.2716 67.689L15.7674 71.2778C15.4424 73.8182 13.2386 75.7741 10.6079 75.7741H5.20426C2.34452 75.7741 0.000582646 73.4701 0 70.6349L0.00406901 49.4272L0 49.0122C0 46.171 2.34429 43.869 5.20426 43.869H10.612C12.9581 43.869 14.9766 45.4252 15.6087 47.584L27.7506 41.7653C29.5657 40.9016 31.5542 40.6937 33.4717 41.5293L36.6659 42.9168V29.0456C31.002 31.3097 24.4902 30.002 20.1619 25.7293C14.197 19.8431 14.1969 10.2974 20.1619 4.41178C26.1282 -1.47036 35.7947 -1.47083 41.7562 4.41178C43.9019 6.52953 45.4015 9.28269 45.9676 12.3586L50.8504 6.40153C52.7536 4.08154 56.041 4.04448 57.9915 6.27946C61.3495 1.76802 65.0054 0.661536 67.8304 1.66113C70.7059 2.67916 72.5106 5.82119 72.0581 9.18066C71.6951 11.8396 69.9412 14.5781 66.3045 16.4072L71.0734 22.23C71.8996 23.2378 72.2981 24.4333 72.2982 25.7212V47.7223ZM18.811 15.0726C18.811 23.0473 26.5791 28.7803 34.318 26.592L34.9894 26.3804C35.5756 26.1778 36.1378 25.9293 36.674 25.6479C36.7111 24.3775 37.0298 23.2847 37.8906 22.234L43.0745 15.8945L43.1071 15.0726C43.1063 8.45892 37.6756 3.09391 30.9611 3.09342C24.2494 3.09342 18.8118 8.46026 18.811 15.0726ZM27.1769 11.5814C27.1767 12.4442 26.4681 13.1276 25.6144 13.1276C24.7543 13.1276 24.0522 12.4432 24.0519 11.5814V10.9222C24.0519 10.0604 24.7539 9.37597 25.6144 9.37597C26.4685 9.37598 27.1769 10.0594 27.1769 10.9222V11.5814ZM38.1836 11.5814C38.1833 12.444 37.4747 13.1271 36.6211 13.1276C35.7617 13.1276 35.0589 12.4433 35.0586 11.5814V10.9222C35.0586 10.0603 35.7613 9.37597 36.6211 9.37597C37.4752 9.37646 38.1836 10.0596 38.1836 10.9222V11.5814Z" fill="#113C7B"/>
</svg>
