<svg width="100" height="100" viewBox="0 0 100 100" fill="none" xmlns="http://www.w3.org/2000/svg">
<path d="M40.1233 48.2904C40.028 48.1956 39.9247 48.1104 39.813 48.0357C39.7007 47.961 39.5826 47.898 39.4587 47.8461C39.3343 47.7948 39.2061 47.7561 39.0742 47.7296C38.9424 47.7037 38.8089 47.6904 38.6744 47.6904C38.5399 47.6904 38.4065 47.7037 38.2746 47.7296C38.1427 47.7561 38.0146 47.7948 37.8902 47.8461C37.7657 47.898 37.6476 47.961 37.5359 48.0357C37.4241 48.1104 37.3203 48.1956 37.2256 48.2904C37.1043 48.4085 36.9862 48.5293 36.8713 48.6532C36.7564 48.7771 36.6441 48.9037 36.5355 49.0329C36.4265 49.1621 36.3211 49.294 36.2189 49.4285C36.1167 49.563 36.0176 49.7001 35.9223 49.8394C35.8265 49.9792 35.7348 50.1206 35.6464 50.2647C35.558 50.4087 35.4727 50.5549 35.3917 50.7031C35.3107 50.8514 35.2328 51.0013 35.1592 51.1533C35.0851 51.3052 35.0152 51.4594 34.949 51.6145C34.8828 51.7702 34.8208 51.927 34.762 52.0858C34.7038 52.2442 34.6493 52.4041 34.5989 52.5656C34.5481 52.7266 34.502 52.8892 34.4591 53.0528C34.4168 53.2165 34.3786 53.3811 34.3442 53.5464C34.3098 53.7121 34.2796 53.8784 34.2537 54.0452C34.2272 54.212 34.2055 54.3799 34.1875 54.5478C34.17 54.7157 34.1562 54.8841 34.1467 55.053C34.1372 55.2219 34.1319 55.3903 34.1308 55.5598C34.1298 55.7287 34.1329 55.8976 34.1403 56.0666C34.1478 56.235 34.1589 56.4039 34.1748 56.5723C34.1901 56.7402 34.2097 56.9081 34.2341 57.0754C34.2579 57.2427 34.286 57.4096 34.3177 57.5753C34.3501 57.7411 34.3866 57.9063 34.4268 58.0705C34.4671 58.2346 34.5116 58.3977 34.5598 58.5592C34.6085 58.7213 34.6604 58.8818 34.717 59.0412C34.7732 59.2006 34.8335 59.3584 34.8976 59.5146C34.9617 59.6713 35.03 59.826 35.102 59.979C35.1735 60.1315 35.2492 60.283 35.3287 60.4323C35.4076 60.5811 35.4907 60.7283 35.5776 60.8735C35.6639 61.0191 35.7539 61.1615 35.8476 61.3024C35.9414 61.4433 36.0383 61.5815 36.1389 61.717C36.2395 61.8531 36.3433 61.9866 36.4503 62.1169C36.5578 62.2477 36.6679 62.3758 36.7813 62.5008C36.8946 62.6263 37.0111 62.7486 37.1308 62.8683C37.2504 62.9875 37.3728 63.104 37.4977 63.2178C37.6233 63.3312 37.7514 63.4413 37.8822 63.5483C38.0125 63.6558 38.1459 63.7596 38.282 63.8597C38.4176 63.9603 38.5558 64.0572 38.6967 64.1509C38.8375 64.2447 38.9805 64.3347 39.1256 64.4215C39.2707 64.5079 39.4179 64.591 39.5673 64.6704C39.7161 64.7493 39.8675 64.8251 40.0206 64.8971C40.1736 64.9686 40.3282 65.0369 40.4845 65.101C40.6407 65.1651 40.7985 65.2254 40.9579 65.2816C41.1173 65.3377 41.2777 65.3901 41.4398 65.4388C41.6018 65.487 41.7649 65.5315 41.9291 65.5718C42.0933 65.612 42.2579 65.6485 42.4237 65.6803C42.59 65.7126 42.7563 65.7407 42.9236 65.7645C43.0909 65.7884 43.2588 65.8079 43.4272 65.8238C43.5956 65.8392 43.764 65.8508 43.9329 65.8583C44.1019 65.8651 44.2708 65.8683 44.4397 65.8673C44.6087 65.8662 44.7776 65.8609 44.946 65.8514C45.1149 65.8418 45.2833 65.8281 45.4512 65.8106C45.6196 65.7926 45.7869 65.7703 45.9537 65.7444C46.1211 65.7185 46.2874 65.6883 46.4526 65.6538C46.6183 65.6194 46.7825 65.5813 46.9461 65.5384C47.1098 65.496 47.2723 65.4494 47.4333 65.3991C47.5948 65.3483 47.7548 65.2943 47.9131 65.2355C48.072 65.1772 48.2287 65.1147 48.3844 65.0486C48.5401 64.9824 48.6937 64.9125 48.8457 64.8383C48.9976 64.7647 49.148 64.6874 49.2958 64.6058C49.4441 64.5248 49.5902 64.4395 49.7343 64.3511C49.8783 64.2627 50.0202 64.1711 50.1595 64.0752C50.2988 63.9799 50.4359 63.8809 50.5704 63.7787C50.7049 63.6764 50.8368 63.5705 50.966 63.462C51.0952 63.3529 51.2218 63.2411 51.3457 63.1262C51.4696 63.0108 51.5904 62.8927 51.7085 62.7719C51.7979 62.6756 51.8774 62.5718 51.9473 62.46C52.0167 62.3488 52.0754 62.2313 52.1226 62.1089C52.1697 61.9861 52.2046 61.8595 52.2274 61.7303C52.2502 61.6005 52.2603 61.4703 52.2581 61.3389C52.2555 61.2071 52.2407 61.0773 52.2137 60.9486C52.1861 60.82 52.1469 60.695 52.095 60.5737C52.0437 60.453 51.9812 60.3381 51.9081 60.229C51.8345 60.1199 51.7508 60.0187 51.6581 59.9261C51.5649 59.8329 51.4638 59.7497 51.3552 59.6761C51.2461 59.6025 51.1307 59.54 51.01 59.4886C50.8887 59.4373 50.7642 59.3975 50.6356 59.3705C50.5069 59.343 50.3766 59.3282 50.2453 59.3261C50.114 59.3234 49.9831 59.334 49.8534 59.3568C49.7242 59.3795 49.5982 59.4145 49.4753 59.4616C49.3524 59.5088 49.2354 59.567 49.1237 59.6364C49.0119 59.7063 48.9081 59.7857 48.8118 59.8757C48.6698 60.0182 48.521 60.1532 48.3653 60.2809C48.2097 60.409 48.0487 60.5287 47.8813 60.641C47.714 60.7527 47.5414 60.856 47.364 60.9513C47.1866 61.0461 47.0049 61.1324 46.8185 61.2092C46.6326 61.2865 46.4436 61.3543 46.2508 61.4131C46.0581 61.4713 45.8632 61.5206 45.6657 61.5598C45.4687 61.599 45.2695 61.6286 45.0694 61.6487C44.8687 61.6683 44.668 61.6784 44.4667 61.6784C44.2655 61.6784 44.0648 61.6689 43.8641 61.6493C43.6639 61.6291 43.4648 61.6 43.2673 61.5608C43.0698 61.5216 42.8749 61.4729 42.6821 61.4141C42.4894 61.3559 42.3003 61.2881 42.1144 61.2113C41.928 61.134 41.7464 61.0482 41.569 60.9534C41.3916 60.8586 41.219 60.7554 41.0516 60.6431C40.8843 60.5314 40.7228 60.4117 40.5671 60.284C40.4114 60.1564 40.2626 60.0214 40.1201 59.8789C39.9777 59.7365 39.8426 59.5877 39.715 59.432C39.5874 59.2763 39.4672 59.1148 39.3554 58.9474C39.2437 58.7801 39.1404 58.6074 39.0456 58.43C38.9509 58.2526 38.8645 58.0705 38.7878 57.8846C38.7104 57.6987 38.6432 57.5091 38.5844 57.3164C38.5262 57.1241 38.4774 56.9287 38.4382 56.7312C38.3991 56.5342 38.3694 56.3351 38.3498 56.1349C38.3302 55.9342 38.3202 55.7335 38.3207 55.5322C38.3207 55.331 38.3307 55.1298 38.3503 54.9296C38.3699 54.7294 38.3996 54.5303 38.4393 54.3328C38.4785 54.1358 38.5272 53.9404 38.586 53.7481C38.6448 53.5554 38.7126 53.3658 38.7893 53.1799C38.8667 52.994 38.953 52.8124 39.0478 52.635C39.1426 52.4576 39.2463 52.2849 39.3581 52.1176C39.4704 51.9503 39.59 51.7887 39.7177 51.6336C39.8458 51.4779 39.9808 51.3291 40.1233 51.1866C40.2181 51.0918 40.3033 50.988 40.378 50.8763C40.4527 50.7646 40.5157 50.6465 40.5671 50.522C40.6184 50.3981 40.6571 50.2699 40.6836 50.1381C40.7095 50.0062 40.7228 49.8733 40.7228 49.7388C40.7228 49.6043 40.7095 49.4708 40.6836 49.339C40.6571 49.2071 40.6184 49.0795 40.5671 48.955C40.5157 48.8306 40.4527 48.713 40.378 48.6008C40.3033 48.489 40.2181 48.3858 40.1233 48.2904Z" fill="white"/>
<path d="M50.1777 39.4495C50.3042 39.4961 50.4335 39.5294 50.5664 39.5506C50.6993 39.5718 50.8327 39.5798 50.9673 39.5745C51.1018 39.5692 51.2342 39.5506 51.365 39.5194C51.4958 39.4881 51.6223 39.4442 51.7446 39.388C51.8664 39.3314 51.9819 39.2641 52.091 39.1847C52.1995 39.1058 52.2996 39.0168 52.3912 38.9183C52.4823 38.8198 52.5633 38.7129 52.6338 38.5985C52.7042 38.4836 52.7625 38.3633 52.8091 38.2373C52.8562 38.1107 52.8901 37.9815 52.9113 37.8486C52.9324 37.7157 52.9404 37.5822 52.9351 37.4477C52.9298 37.3132 52.9118 37.1808 52.8805 37.05C52.8493 36.9192 52.8059 36.7926 52.7497 36.6703C52.6936 36.548 52.6258 36.4325 52.5469 36.3234C52.468 36.2149 52.3796 36.1148 52.2811 36.0232C52.1821 35.9316 52.0756 35.8505 51.9612 35.7801C51.8468 35.7097 51.7261 35.6509 51.6001 35.6043C50.4578 35.1865 49.2875 34.873 48.0891 34.6633C46.8912 34.4536 45.6838 34.3513 44.4675 34.3566C44.1206 34.3566 43.7743 34.3651 43.4285 34.3826C43.0821 34.3995 42.7369 34.425 42.3916 34.4588C42.0468 34.4927 41.7032 34.5351 41.3605 34.5859C41.0174 34.6368 40.6763 34.6961 40.3364 34.7639C39.9964 34.8311 39.6585 34.9074 39.3223 34.9916C38.986 35.0758 38.6524 35.1679 38.3203 35.2686C37.9888 35.3692 37.66 35.4777 37.3338 35.5948C37.0076 35.7113 36.684 35.8362 36.3641 35.9686C36.0438 36.1016 35.7271 36.2419 35.4136 36.3902C35.1006 36.5379 34.7908 36.6936 34.4853 36.8573C34.1797 37.0204 33.8784 37.1914 33.5813 37.3693C33.2837 37.5478 32.9914 37.7332 32.7028 37.9254C32.4147 38.1181 32.1314 38.3178 31.8534 38.5238C31.5748 38.7303 31.3016 38.9437 31.0341 39.1635C30.7662 39.3833 30.5035 39.6094 30.2467 39.8424C29.9904 40.0749 29.7394 40.3137 29.4942 40.5589C29.249 40.8041 29.0102 41.0551 28.7777 41.312C28.5447 41.5688 28.3186 41.8309 28.0988 42.0989C27.879 42.3669 27.6656 42.6396 27.4591 42.9181C27.2526 43.1967 27.0534 43.4795 26.8607 43.7681C26.6685 44.0562 26.4831 44.3485 26.3047 44.6461C26.1267 44.9432 25.9557 45.2445 25.7926 45.5501C25.6289 45.8562 25.4732 46.1654 25.325 46.4784C25.1772 46.7919 25.0364 47.1086 24.904 47.429C24.7716 47.7488 24.6466 48.0724 24.5301 48.3986C24.4131 48.7248 24.3045 49.0537 24.2039 49.3852C24.1033 49.7172 24.0111 50.0509 23.9269 50.3871C23.8422 50.7234 23.7665 51.0613 23.6987 51.4013C23.6314 51.7412 23.5721 52.0823 23.5213 52.4254C23.4705 52.7681 23.4281 53.1118 23.3942 53.457C23.3603 53.8018 23.3344 54.1471 23.3174 54.4934C23.3005 54.8397 23.292 55.1861 23.292 55.5324C23.292 55.8787 23.3005 56.2251 23.3174 56.5714C23.3344 56.9178 23.3603 57.263 23.3942 57.6078C23.4281 57.9531 23.4705 58.2967 23.5213 58.6394C23.5721 58.9825 23.6314 59.3236 23.6987 59.6636C23.7665 60.0035 23.8422 60.3414 23.9264 60.6777C24.0111 61.0139 24.1033 61.3476 24.2039 61.6791C24.3045 62.0111 24.4131 62.34 24.5301 62.6662C24.6466 62.9924 24.7716 63.316 24.904 63.6358C25.0364 63.9562 25.1772 64.2729 25.325 64.5859C25.4732 64.8994 25.6289 65.2086 25.7926 65.5147C25.9557 65.8203 26.1267 66.1216 26.3047 66.4187C26.4831 66.7163 26.6685 67.0086 26.8607 67.2967C27.0534 67.5848 27.2526 67.8681 27.4591 68.1467C27.6656 68.4252 27.879 68.698 28.0988 68.9659C28.3186 69.2339 28.5447 69.496 28.7777 69.7528C29.0102 70.0097 29.249 70.2607 29.4942 70.5059C29.7394 70.7511 29.9904 70.9899 30.2467 71.2224C30.5035 71.4554 30.7662 71.6815 31.0341 71.9013C31.3016 72.1211 31.5748 72.3345 31.8534 72.541C32.1314 72.747 32.4147 72.9467 32.7028 73.1394C32.9914 73.3317 33.2837 73.517 33.5813 73.6955C33.8784 73.8734 34.1797 74.0444 34.4853 74.2076C34.7908 74.3712 35.1006 74.5269 35.4136 74.6746C35.7271 74.8229 36.0438 74.9632 36.3641 75.0962C36.684 75.2286 37.0076 75.3535 37.3338 75.47C37.66 75.5871 37.9888 75.6956 38.3203 75.7963C38.6524 75.8969 38.986 75.989 39.3223 76.0732C39.6585 76.1574 39.9964 76.2337 40.3364 76.3009C40.6763 76.3687 41.0174 76.428 41.3605 76.4789C41.7032 76.5297 42.0468 76.5721 42.3916 76.606C42.7369 76.6399 43.0821 76.6653 43.4285 76.6822C43.7743 76.6997 44.1206 76.7082 44.4675 76.7082C44.8138 76.7082 45.1601 76.6997 45.5064 76.6822C45.8522 76.6653 46.198 76.6399 46.5428 76.606C46.8875 76.5721 47.2317 76.5297 47.5744 76.4789C47.917 76.428 48.2586 76.3687 48.5985 76.3009C48.9385 76.2337 49.2764 76.1574 49.6126 76.0732C49.9489 75.989 50.2825 75.8969 50.614 75.7963C50.9461 75.6956 51.2749 75.5871 51.6011 75.47C51.9273 75.3535 52.2504 75.2286 52.5708 75.0962C52.8911 74.9632 53.2078 74.8229 53.5208 74.6746C53.8343 74.5269 54.1435 74.3707 54.4491 74.2076C54.7547 74.0444 55.0565 73.8734 55.3536 73.6955C55.6507 73.517 55.9435 73.3317 56.2316 73.1394C56.5197 72.9467 56.803 72.747 57.0815 72.5405C57.3596 72.3345 57.6328 72.1211 57.9008 71.9013C58.1687 71.6815 58.4309 71.4554 58.6877 71.2224C58.9445 70.9899 59.1955 70.7511 59.4407 70.5059C59.6854 70.2607 59.9242 70.0097 60.1572 69.7528C60.3897 69.496 60.6163 69.2339 60.8361 68.9659C61.0559 68.698 61.2688 68.4252 61.4753 68.1467C61.6818 67.8681 61.8815 67.5848 62.0737 67.2967C62.2664 67.0086 62.4518 66.7163 62.6297 66.4187C62.8082 66.1216 62.9787 65.8203 63.1423 65.5147C63.3054 65.2086 63.4611 64.8994 63.6094 64.5859C63.7577 64.2729 63.898 63.9562 64.0309 63.6358C64.1633 63.316 64.2878 62.9924 64.4048 62.6662C64.5213 62.34 64.6304 62.0111 64.731 61.6791C64.8316 61.3476 64.9238 61.0139 65.008 60.6777C65.0922 60.3414 65.1679 60.0035 65.2357 59.6636C65.3035 59.3236 65.3628 58.9825 65.4136 58.6394C65.4644 58.2967 65.5068 57.9531 65.5407 57.6078C65.5746 57.263 65.6 56.9178 65.617 56.5714C65.6339 56.2251 65.6424 55.8787 65.6424 55.5324C65.6477 54.3165 65.5455 53.1091 65.3363 51.9112C65.1266 50.7134 64.8131 49.543 64.3953 48.4013C64.3487 48.2747 64.2899 48.1545 64.2195 48.0401C64.149 47.9257 64.068 47.8187 63.9764 47.7202C63.8848 47.6217 63.7847 47.5328 63.6756 47.4544C63.567 47.3755 63.4511 47.3077 63.3293 47.2516C63.2069 47.1954 63.0804 47.152 62.9496 47.1208C62.8188 47.0895 62.6859 47.071 62.5519 47.0662C62.4174 47.0609 62.2834 47.0689 62.151 47.0901C62.0181 47.1112 61.8883 47.1451 61.7623 47.1917C61.6363 47.2389 61.5161 47.2971 61.4011 47.3676C61.2868 47.438 61.1798 47.5185 61.0813 47.6101C60.9823 47.7012 60.8938 47.8013 60.8144 47.9104C60.7355 48.0194 60.6682 48.1349 60.6116 48.2567C60.5554 48.379 60.5115 48.5056 60.4802 48.6364C60.449 48.7672 60.4305 48.8996 60.4252 49.0341C60.4199 49.1686 60.4278 49.3021 60.449 49.435C60.4697 49.5679 60.5035 49.6971 60.5501 49.8237C60.8838 50.7377 61.1342 51.6745 61.3011 52.6336C61.4684 53.5926 61.5489 54.5591 61.5441 55.5324C61.5441 55.812 61.5372 56.0911 61.5235 56.3702C61.5097 56.6493 61.4896 56.9283 61.462 57.2064C61.4345 57.4844 61.4001 57.7619 61.3593 58.0383C61.3185 58.3147 61.2703 58.5901 61.2158 58.8639C61.1613 59.1382 61.1004 59.4104 61.0326 59.6816C60.9643 59.9527 60.8901 60.2222 60.8091 60.4897C60.7275 60.7571 60.6402 61.0224 60.5459 61.2856C60.4516 61.5488 60.351 61.8094 60.2441 62.0673C60.1371 62.3257 60.0243 62.5809 59.9046 62.8335C59.7849 63.0867 59.6594 63.3361 59.5276 63.5823C59.3962 63.8291 59.258 64.0722 59.1145 64.3116C58.971 64.5514 58.8217 64.7876 58.666 65.0201C58.5108 65.2521 58.3498 65.4808 58.1835 65.7054C58.0173 65.9299 57.8452 66.1497 57.6678 66.3657C57.4904 66.5818 57.3082 66.7936 57.1202 67.0007C56.9327 67.2078 56.74 67.41 56.5424 67.6076C56.3449 67.8051 56.1426 67.9979 55.9356 68.1859C55.7285 68.3733 55.5167 68.556 55.3006 68.7329C55.0846 68.9103 54.8643 69.0824 54.6397 69.2487C54.4157 69.4155 54.187 69.576 53.9545 69.7317C53.7225 69.8868 53.4864 70.0362 53.2465 70.1797C53.0066 70.3237 52.7635 70.4614 52.5173 70.5933C52.271 70.7246 52.0211 70.8506 51.7685 70.9698C51.5159 71.0895 51.2606 71.2028 51.0022 71.3098C50.7443 71.4167 50.4832 71.5168 50.2206 71.6111C49.9574 71.7054 49.6921 71.7933 49.4246 71.8743C49.1572 71.9553 48.8877 72.03 48.6165 72.0978C48.3454 72.1655 48.0732 72.227 47.7989 72.2815C47.5246 72.3361 47.2492 72.3837 46.9728 72.4245C46.6964 72.4658 46.4194 72.4997 46.1414 72.5272C45.8628 72.5548 45.5843 72.5754 45.3052 72.5887C45.0261 72.6024 44.7471 72.6093 44.4675 72.6093C44.1878 72.6093 43.9088 72.6024 43.6292 72.5887C43.3501 72.5754 43.0715 72.5548 42.7935 72.5272C42.5155 72.4997 42.238 72.4658 41.9616 72.4245C41.6852 72.3837 41.4098 72.3361 41.136 72.2815C40.8617 72.227 40.589 72.1655 40.3178 72.0978C40.0467 72.03 39.7777 71.9553 39.5103 71.8743C39.2428 71.7933 38.9775 71.7054 38.7143 71.6111C38.4511 71.5168 38.1906 71.4167 37.9322 71.3098C37.6743 71.2028 37.4185 71.0895 37.1659 70.9698C36.9133 70.8506 36.6639 70.7246 36.4176 70.5933C36.1709 70.4614 35.9278 70.3237 35.6879 70.1797C35.4485 70.0362 35.2124 69.8868 34.9799 69.7317C34.7474 69.576 34.5192 69.4155 34.2946 69.2487C34.0701 69.0824 33.8498 68.9103 33.6337 68.7329C33.4177 68.556 33.2064 68.3733 32.9993 68.1859C32.7923 67.9979 32.59 67.8051 32.3925 67.6076C32.1944 67.41 32.0022 67.2078 31.8142 67.0007C31.6267 66.7936 31.444 66.5818 31.2666 66.3657C31.0897 66.1497 30.9176 65.9299 30.7514 65.7054C30.5845 65.4808 30.4236 65.2521 30.2684 65.0201C30.1132 64.7876 29.9639 64.5514 29.8199 64.3116C29.6764 64.0722 29.5387 63.8291 29.4068 63.5823C29.2749 63.3361 29.1494 63.0867 29.0303 62.8335C28.9106 62.5809 28.7973 62.3257 28.6903 62.0673C28.5833 61.8094 28.4827 61.5488 28.389 61.2856C28.2947 61.0224 28.2068 60.7571 28.1258 60.4897C28.0448 60.2222 27.9701 59.9527 27.9023 59.6816C27.8345 59.4104 27.7731 59.1382 27.7186 58.8639C27.664 58.5901 27.6164 58.3147 27.5756 58.0383C27.5343 57.7619 27.5004 57.4844 27.4729 57.2064C27.4453 56.9283 27.4247 56.6493 27.4109 56.3702C27.3971 56.0911 27.3908 55.812 27.3908 55.5324C27.3908 55.2528 27.3971 54.9737 27.4109 54.6946C27.4247 54.4156 27.4453 54.1365 27.4729 53.8584C27.5004 53.5804 27.5343 53.3029 27.5756 53.0265C27.6164 52.7501 27.664 52.4747 27.7186 52.2009C27.7731 51.9266 27.8345 51.6539 27.9023 51.3833C27.9701 51.1121 28.0448 50.8426 28.1258 50.5751C28.2068 50.3077 28.2947 50.0424 28.389 49.7792C28.4827 49.516 28.5833 49.2555 28.6903 48.9976C28.7973 48.7391 28.9106 48.4839 29.0303 48.2313C29.1494 47.9781 29.2749 47.7287 29.4068 47.4825C29.5387 47.2357 29.6764 46.9926 29.8199 46.7533C29.9639 46.5134 30.1132 46.2772 30.2684 46.0447C30.4236 45.8127 30.5845 45.584 30.7514 45.3594C30.9176 45.1349 31.0897 44.9151 31.2666 44.6991C31.444 44.483 31.6267 44.2712 31.8142 44.0641C32.0022 43.8571 32.1944 43.6548 32.3925 43.4572C32.59 43.2597 32.7923 43.0669 32.9993 42.8789C33.2064 42.6915 33.4177 42.5088 33.6337 42.3319C33.8498 42.1545 34.0701 41.9824 34.2946 41.8161C34.5192 41.6493 34.7474 41.4888 34.9799 41.3331C35.2124 41.178 35.4485 41.0286 35.6879 40.8851C35.9278 40.7411 36.1709 40.6034 36.4176 40.4715C36.6639 40.3402 36.9133 40.2142 37.1659 40.095C37.4185 39.9753 37.6743 39.862 37.9322 39.755C38.1906 39.6481 38.4511 39.548 38.7143 39.4537C38.9775 39.3595 39.2428 39.2715 39.5103 39.1905C39.7777 39.1095 40.0467 39.0348 40.3178 38.967C40.589 38.8993 40.8617 38.8378 41.136 38.7833C41.4098 38.7287 41.6852 38.6811 41.9616 38.6403C42.238 38.599 42.5155 38.5651 42.7935 38.5376C43.0715 38.51 43.3501 38.4894 43.6292 38.4761C43.9088 38.4624 44.1878 38.4555 44.4675 38.4555C45.4408 38.4502 46.4078 38.5312 47.3668 38.698C48.3263 38.8654 49.2631 39.1153 50.1777 39.4495Z" fill="white"/>
<path d="M43.0191 56.9797C43.116 57.0719 43.2203 57.1545 43.3326 57.2271C43.4449 57.2996 43.5635 57.3605 43.6874 57.4103C43.8113 57.4601 43.9395 57.4977 44.0708 57.5231C44.2021 57.5485 44.3345 57.5612 44.468 57.5612C44.6019 57.5612 44.7343 57.5485 44.8657 57.5231C44.997 57.4977 45.1246 57.4601 45.2491 57.4103C45.373 57.3605 45.4911 57.2996 45.6033 57.2271C45.7161 57.1545 45.8205 57.0719 45.9168 56.9797L64.8734 38.0229L73.4586 39.7397C73.6239 39.7694 73.7907 39.78 73.9586 39.7699C74.1264 39.7604 74.2906 39.7312 74.4516 39.6825C74.6126 39.6338 74.7651 39.5671 74.9102 39.4818C75.0553 39.3966 75.1882 39.2959 75.3089 39.1794L86.8999 27.5878C87.0307 27.4564 87.1419 27.3103 87.2335 27.1488C87.3246 26.9872 87.3929 26.8167 87.4379 26.6372C87.4835 26.4571 87.5036 26.2744 87.4988 26.0891C87.4946 25.9037 87.4655 25.7226 87.4115 25.5447C87.358 25.3673 87.2812 25.2005 87.1822 25.0437C87.0831 24.887 86.965 24.7461 86.8279 24.6217C86.6907 24.4972 86.5393 24.3929 86.3735 24.3092C86.2078 24.2261 86.0341 24.1657 85.8524 24.1297L77.5315 22.4658L75.8681 14.1447C75.8316 13.9631 75.7718 13.7894 75.6881 13.6236C75.6044 13.4579 75.5006 13.3064 75.3757 13.1693C75.2512 13.0321 75.1103 12.9135 74.9536 12.8145C74.7968 12.7154 74.63 12.6392 74.4521 12.5852C74.2747 12.5327 74.0936 12.5047 73.9082 12.5004C73.7229 12.4967 73.5407 12.5174 73.3612 12.5624C73.1817 12.6074 73.0112 12.6752 72.8497 12.7663C72.6881 12.8568 72.5415 12.9675 72.4101 13.0972L60.8176 24.69C60.6984 24.8091 60.5951 24.941 60.5088 25.0856C60.422 25.2301 60.3542 25.3832 60.3055 25.5447C60.2562 25.7062 60.2282 25.8709 60.2197 26.0393C60.2117 26.2082 60.2239 26.3751 60.2573 26.5403L61.9741 35.1256L43.0191 54.083C42.9243 54.1783 42.8396 54.2816 42.7649 54.3939C42.6902 54.5056 42.6272 54.6237 42.5759 54.7476C42.5245 54.8721 42.4853 55.0002 42.4594 55.1321C42.4329 55.264 42.4202 55.3969 42.4202 55.5314C42.4202 55.6659 42.4329 55.7988 42.4594 55.9307C42.4853 56.0625 42.5245 56.1907 42.5759 56.3151C42.6272 56.4391 42.6902 56.5572 42.7649 56.6689C42.8396 56.7812 42.9243 56.8844 43.0191 56.9797ZM72.6013 18.7038L73.7822 24.6084C73.8018 24.7069 73.8283 24.8038 73.8627 24.8986C73.8966 24.9934 73.9368 25.085 73.9845 25.174C74.0322 25.2624 74.0856 25.3472 74.1455 25.4282C74.2053 25.5087 74.271 25.5849 74.3425 25.6559C74.4134 25.7274 74.4892 25.7925 74.5702 25.8529C74.6512 25.9127 74.7359 25.9662 74.8244 26.0139C74.9133 26.061 75.005 26.1018 75.0998 26.1357C75.1945 26.1696 75.2909 26.1966 75.3899 26.2162L81.2945 27.3971L73.1854 35.5074L65.94 34.0591L64.4922 26.8135L72.6013 18.7038Z" fill="white"/>
<mask id="mask0_1568_14498" style="mask-type:luminance" maskUnits="userSpaceOnUse" x="12" y="23" width="65" height="65">
<path d="M12.5 23.3813H76.6634V87.4991H12.5V23.3813Z" fill="white"/>
</mask>
<g mask="url(#mask0_1568_14498)">
<path d="M54.7536 25.1247C53.0988 24.5575 51.4079 24.1312 49.6815 23.8468C47.9557 23.5619 46.2177 23.4221 44.468 23.4274C43.9427 23.4274 43.4174 23.4401 42.8926 23.466C42.3678 23.492 41.8441 23.5307 41.3214 23.582C40.7982 23.6334 40.2771 23.698 39.7571 23.7748C39.2376 23.8521 38.7202 23.9416 38.2044 24.0443C37.6891 24.1471 37.1771 24.262 36.6671 24.3896C36.1577 24.5172 35.6514 24.6576 35.1483 24.8101C34.6458 24.9626 34.1469 25.1273 33.6523 25.3042C33.1577 25.481 32.6673 25.6701 32.1823 25.8713C31.6966 26.0726 31.2163 26.2855 30.7413 26.51C30.2663 26.7345 29.7971 26.9707 29.3338 27.2186C28.8704 27.4659 28.4134 27.7248 27.9627 27.9949C27.5121 28.265 27.0683 28.5462 26.6314 28.838C26.1945 29.1298 25.7651 29.4327 25.3435 29.7456C24.9215 30.0586 24.5074 30.3817 24.1012 30.7148C23.695 31.0484 23.2973 31.3915 22.9081 31.7442C22.5183 32.0969 22.1381 32.4591 21.7669 32.8309C21.3951 33.2021 21.0329 33.5829 20.6802 33.9721C20.327 34.3613 19.9844 34.759 19.6508 35.1652C19.3177 35.5714 18.9941 35.9855 18.6812 36.4076C18.3682 36.8297 18.0658 37.2591 17.774 37.696C17.4822 38.1329 17.201 38.5767 16.931 39.0274C16.6609 39.478 16.4019 39.935 16.1541 40.3984C15.9068 40.8618 15.6706 41.331 15.4461 41.806C15.221 42.2805 15.0081 42.7608 14.8074 43.2464C14.6062 43.732 14.4172 44.2219 14.2403 44.7165C14.0634 45.2111 13.8982 45.7099 13.7457 46.213C13.5932 46.7156 13.4534 47.2219 13.3257 47.7313C13.1981 48.2413 13.0827 48.7539 12.9805 49.2692C12.8777 49.7844 12.7882 50.3018 12.7109 50.8213C12.6336 51.3414 12.5695 51.8624 12.5182 52.3857C12.4668 52.9083 12.4281 53.4321 12.4022 53.9569C12.3762 54.4817 12.3635 55.007 12.3635 55.5323C12.3635 56.0577 12.3762 56.583 12.4022 57.1078C12.4281 57.6326 12.4668 58.1563 12.5182 58.679C12.5695 59.2022 12.6336 59.7233 12.7109 60.2434C12.7882 60.7629 12.8777 61.2803 12.9805 61.7955C13.0827 62.3108 13.1981 62.8234 13.3257 63.3334C13.4534 63.8428 13.5932 64.3491 13.7457 64.8516C13.8982 65.3547 14.0634 65.8536 14.2403 66.3482C14.4172 66.8428 14.6062 67.3327 14.8074 67.8183C15.0081 68.3039 15.221 68.7842 15.4461 69.2587C15.6706 69.7337 15.9068 70.2029 16.1541 70.6663C16.4019 71.1297 16.6609 71.5867 16.931 72.0373C17.201 72.488 17.4822 72.9318 17.774 73.3687C18.0658 73.8056 18.3682 74.235 18.6812 74.6571C18.9941 75.0792 19.3177 75.4933 19.6508 75.8995C19.9844 76.3056 20.327 76.7033 20.6802 77.0926C21.0329 77.4818 21.3951 77.8626 21.7669 78.2338C22.1381 78.6055 22.5183 78.9678 22.9081 79.3205C23.2973 79.6731 23.695 80.0163 24.1012 80.3499C24.5074 80.683 24.9215 81.0061 25.3435 81.319C25.7651 81.632 26.1945 81.9344 26.6314 82.2267C27.0683 82.5185 27.5121 82.7997 27.9627 83.0698C28.4134 83.3399 28.8704 83.5988 29.3338 83.8461C29.7971 84.094 30.2663 84.3302 30.7413 84.5547C31.2163 84.7792 31.6966 84.9921 32.1823 85.1933C32.6673 85.3946 33.1577 85.5836 33.6523 85.7605C34.1469 85.9374 34.6458 86.1021 35.1483 86.2546C35.6514 86.4071 36.1577 86.5474 36.6671 86.6751C37.1771 86.8027 37.6891 86.9176 38.2044 87.0203C38.7202 87.1231 39.2376 87.2126 39.7571 87.2899C40.2771 87.3667 40.7982 87.4313 41.3214 87.4827C41.8441 87.534 42.3678 87.5727 42.8926 87.5986C43.4174 87.6246 43.9427 87.6373 44.468 87.6373C44.9933 87.6373 45.5187 87.6246 46.0429 87.5986C46.5677 87.5727 47.092 87.534 47.6147 87.4827C48.1373 87.4313 48.6589 87.3667 49.1784 87.2899C49.6985 87.2126 50.2158 87.1231 50.7311 87.0203C51.2464 86.9176 51.759 86.8027 52.2684 86.6751C52.7784 86.5474 53.2846 86.4071 53.7872 86.2546C54.2903 86.1021 54.7886 85.9374 55.2837 85.7605C55.7783 85.5836 56.2682 85.3946 56.7538 85.1933C57.2394 84.9921 57.7192 84.7792 58.1942 84.5547C58.6692 84.3302 59.1384 84.094 59.6017 83.8461C60.0651 83.5988 60.5221 83.3399 60.9728 83.0698C61.4234 82.7997 61.8672 82.5185 62.3041 82.2267C62.741 81.9344 63.1704 81.632 63.5925 81.319C64.0146 81.0061 64.4287 80.683 64.8348 80.3499C65.241 80.0163 65.6387 79.6731 66.0279 79.3205C66.4172 78.9678 66.7974 78.6055 67.1691 78.2338C67.5409 77.8626 67.9031 77.4818 68.2558 77.0926C68.6085 76.7033 68.9516 76.3056 69.2847 75.8995C69.6183 75.4933 69.9414 75.0792 70.2543 74.6571C70.5673 74.235 70.8697 73.8056 71.1615 73.3687C71.4538 72.9318 71.7345 72.488 72.0045 72.0373C72.2751 71.5867 72.5336 71.1297 72.7814 70.6663C73.0292 70.2029 73.2654 69.7337 73.4899 69.2587C73.7145 68.7842 73.9274 68.3039 74.1286 67.8183C74.3298 67.3327 74.5183 66.8428 74.6957 66.3482C74.8726 65.8536 75.0373 65.3547 75.1898 64.8516C75.3423 64.3491 75.4827 63.8428 75.6103 63.3334C75.7379 62.8234 75.8528 62.3108 75.9556 61.7955C76.0578 61.2803 76.1478 60.7629 76.2246 60.2434C76.3019 59.7233 76.366 59.2022 76.4179 58.679C76.4692 58.1563 76.5079 57.6326 76.5338 57.1078C76.5593 56.583 76.5725 56.0577 76.5725 55.5323C76.5778 53.7827 76.438 52.0446 76.1531 50.3182C75.8682 48.5924 75.4424 46.9015 74.8753 45.246C74.8313 45.119 74.7752 44.9977 74.7074 44.8817C74.6396 44.7657 74.5607 44.6572 74.4717 44.5566C74.3822 44.4559 74.2843 44.3654 74.1773 44.2838C74.0698 44.2028 73.956 44.1329 73.8352 44.0736C73.7139 44.0148 73.5884 43.9687 73.4587 43.9343C73.3284 43.9004 73.1966 43.8792 73.0621 43.8713C72.9281 43.8634 72.7941 43.8681 72.6612 43.8867C72.5277 43.9047 72.3975 43.9359 72.2704 43.9793C72.1433 44.0233 72.022 44.0794 71.9055 44.1472C71.7895 44.215 71.681 44.2934 71.5804 44.3823C71.4797 44.4713 71.3887 44.5698 71.3076 44.6768C71.2261 44.7837 71.1562 44.8976 71.0969 45.0183C71.0381 45.1391 70.9915 45.2646 70.9571 45.3949C70.9232 45.5246 70.9015 45.657 70.8935 45.791C70.885 45.9255 70.8903 46.0589 70.9083 46.1924C70.9263 46.3253 70.9571 46.4556 71.001 46.5827C71.494 48.0231 71.8637 49.4942 72.111 50.9961C72.3583 52.4979 72.479 54.0104 72.4737 55.5323C72.4737 55.9909 72.4626 56.449 72.4404 56.9066C72.4176 57.3641 72.3842 57.8211 72.3392 58.2776C72.2942 58.7336 72.2381 59.1885 72.1708 59.6418C72.1036 60.0951 72.0252 60.5468 71.9357 60.9959C71.8462 61.4455 71.7461 61.893 71.6344 62.3373C71.5232 62.7821 71.4008 63.2238 71.2679 63.6622C71.135 64.1007 70.991 64.536 70.8369 64.9676C70.6822 65.3992 70.5175 65.8266 70.3422 66.2497C70.1664 66.6734 69.9811 67.0922 69.7852 67.5064C69.5892 67.921 69.3832 68.3304 69.1672 68.7344C68.9511 69.1385 68.725 69.5372 68.4893 69.9307C68.2537 70.3237 68.0085 70.7108 67.7538 71.0921C67.4996 71.4728 67.2353 71.8477 66.9626 72.2158C66.6894 72.5838 66.4076 72.945 66.1169 73.2993C65.8262 73.6536 65.527 74.0004 65.2188 74.3404C64.9111 74.6799 64.5949 75.0119 64.2709 75.336C63.9468 75.6601 63.6153 75.9757 63.2753 76.2839C62.9358 76.5916 62.589 76.8908 62.2347 77.1815C61.8804 77.4723 61.5193 77.754 61.1512 78.0273C60.7827 78.3005 60.4083 78.5642 60.027 78.819C59.6462 79.0737 59.2591 79.3183 58.8657 79.554C58.4727 79.7897 58.074 80.0158 57.6699 80.2318C57.2659 80.4479 56.8565 80.6539 56.4419 80.8498C56.0277 81.0458 55.6089 81.2317 55.1852 81.4069C54.7621 81.5822 54.3342 81.7469 53.9026 81.9016C53.471 82.0562 53.0363 82.1997 52.5978 82.3326C52.1588 82.4661 51.7171 82.5879 51.2728 82.6996C50.828 82.8108 50.3811 82.9109 49.9315 83.0004C49.4819 83.0899 49.0307 83.1683 48.5774 83.2355C48.1241 83.3028 47.6692 83.3589 47.2127 83.4039C46.7568 83.449 46.2998 83.4823 45.8422 83.5051C45.3842 83.5273 44.9261 83.539 44.468 83.539C44.0094 83.539 43.5513 83.5273 43.0938 83.5051C42.6357 83.4823 42.1787 83.449 41.7228 83.4039C41.2668 83.3589 40.8119 83.3028 40.3586 83.2355C39.9053 83.1683 39.4536 83.0899 39.004 83.0004C38.5544 82.9109 38.1075 82.8108 37.6632 82.6996C37.2184 82.5879 36.7767 82.4661 36.3382 82.3326C35.8998 82.1997 35.4645 82.0562 35.0329 81.9016C34.6013 81.7469 34.1739 81.5822 33.7503 81.4069C33.3272 81.2317 32.9083 81.0458 32.4936 80.8498C32.0795 80.6539 31.6702 80.4479 31.2661 80.2318C30.8615 80.0158 30.4633 79.7897 30.0698 79.554C29.6769 79.3183 29.2898 79.0737 28.9085 78.819C28.5272 78.5642 28.1528 78.3005 27.7848 78.0273C27.4168 77.754 27.0556 77.4723 26.7013 77.1815C26.3465 76.8908 25.9997 76.5916 25.6602 76.2839C25.3208 75.9757 24.9887 75.6601 24.6646 75.336C24.3406 75.0119 24.0244 74.6799 23.7167 74.3404C23.4091 74.0004 23.1099 73.6536 22.8191 73.2993C22.5284 72.945 22.2461 72.5838 21.9734 72.2158C21.7002 71.8477 21.4365 71.4728 21.1817 71.0921C20.927 70.7108 20.6818 70.3237 20.4462 69.9307C20.2105 69.5372 19.9849 69.1385 19.7689 68.7344C19.5528 68.3304 19.3468 67.921 19.1509 67.5064C18.9549 67.0922 18.7691 66.6734 18.5938 66.2497C18.4185 65.8266 18.2533 65.3992 18.0992 64.9676C17.9445 64.536 17.801 64.1007 17.6676 63.6622C17.5347 63.2238 17.4123 62.7821 17.3011 62.3373C17.1899 61.893 17.0893 61.4455 16.9998 60.9959C16.9108 60.5468 16.8325 60.0951 16.7652 59.6418C16.698 59.1885 16.6418 58.7336 16.5968 58.2776C16.5518 57.8211 16.5179 57.3641 16.4957 56.9066C16.4729 56.449 16.4618 55.9909 16.4618 55.5323C16.4618 55.0737 16.4729 54.6157 16.4957 54.1581C16.5179 53.7006 16.5518 53.2436 16.5968 52.7871C16.6418 52.3311 16.698 51.8762 16.7652 51.4229C16.8325 50.9696 16.9108 50.5179 16.9998 50.0688C17.0893 49.6192 17.1899 49.1717 17.3011 48.7274C17.4123 48.2826 17.5347 47.8409 17.6676 47.4024C17.801 46.964 17.9445 46.5287 18.0992 46.0971C18.2533 45.6655 18.4185 45.2381 18.5938 44.815C18.7691 44.3913 18.9549 43.9724 19.1509 43.5583C19.3468 43.1437 19.5528 42.7343 19.7689 42.3303C19.9849 41.9262 20.2105 41.5274 20.4462 41.134C20.6818 40.741 20.927 40.3539 21.1817 39.9726C21.4365 39.5919 21.7002 39.2169 21.9734 38.8489C22.2461 38.4808 22.5284 38.1197 22.8191 37.7654C23.1099 37.4111 23.4091 37.0643 23.7167 36.7243C24.0244 36.3848 24.3406 36.0528 24.6646 35.7287C24.9887 35.4046 25.3208 35.089 25.6602 34.7808C25.9997 34.4731 26.3465 34.1739 26.7013 33.8831C27.0556 33.5924 27.4168 33.3107 27.7848 33.0374C28.1528 32.7642 28.5272 32.5004 28.9085 32.2457C29.2898 31.991 29.6769 31.7463 30.0698 31.5107C30.4633 31.275 30.8615 31.0489 31.2661 30.8328C31.6702 30.6168 32.0795 30.4108 32.4936 30.2148C32.9083 30.0189 33.3272 29.833 33.7503 29.6577C34.1739 29.4825 34.6013 29.3178 35.0329 29.1631C35.4645 29.0085 35.8998 28.865 36.3382 28.7321C36.7767 28.5986 37.2184 28.4768 37.6632 28.3651C38.1075 28.2539 38.5544 28.1538 39.004 28.0643C39.4536 27.9748 39.9053 27.8964 40.3586 27.8291C40.8119 27.7619 41.2668 27.7058 41.7228 27.6607C42.1787 27.6157 42.6357 27.5824 43.0938 27.5596C43.5513 27.5374 44.0094 27.5257 44.468 27.5257C45.99 27.5204 47.5024 27.6417 49.0042 27.8885C50.506 28.1358 51.9772 28.5059 53.417 28.999C53.5446 29.0429 53.6749 29.0736 53.8078 29.0922C53.9413 29.1102 54.0753 29.1149 54.2092 29.107C54.3438 29.099 54.4756 29.0779 54.6059 29.0434C54.7362 29.009 54.8617 28.9624 54.9824 28.9036C55.1031 28.8449 55.2175 28.7744 55.3245 28.6934C55.4315 28.6118 55.53 28.5208 55.6189 28.4201C55.7084 28.3195 55.7868 28.211 55.8546 28.095C55.9224 27.9785 55.978 27.8572 56.0219 27.7296C56.0659 27.6025 56.0971 27.4722 56.1151 27.3393C56.1337 27.2058 56.1384 27.0719 56.1305 26.9379C56.122 26.8034 56.1014 26.6715 56.0669 26.5412C56.033 26.411 55.9864 26.2855 55.9277 26.1647C55.8684 26.0434 55.7984 25.9296 55.7169 25.8226C55.6359 25.7151 55.5448 25.6171 55.4442 25.5277C55.3436 25.4387 55.235 25.3603 55.119 25.292C55.0025 25.2242 54.8813 25.1686 54.7536 25.1247Z" fill="white"/>
</g>
</svg>
