<svg width="76" height="55" viewBox="0 0 76 55" fill="none" xmlns="http://www.w3.org/2000/svg">
<path fill-rule="evenodd" clip-rule="evenodd" d="M36.8876 49.3138C36.6675 49.3138 36.4479 49.2172 36.2721 49.024C34.6902 47.2855 33.0642 46.2719 31.702 45.403C29.4167 43.9544 27.439 42.699 27.439 39.3192C27.439 36.2774 29.768 33.7666 32.6246 33.7666C34.6902 33.7666 35.9208 34.7322 36.8876 36.2774C37.8544 34.7322 39.0849 33.7666 41.1501 33.7666C44.0067 33.7666 46.3357 36.2774 46.3357 39.3192C46.3357 42.699 44.3585 43.9544 42.0732 45.403C40.6667 46.2719 39.0849 47.2855 37.5026 49.024C37.3268 49.2172 37.1072 49.3138 36.8876 49.3138ZM32.5808 35.6977C30.7352 35.6977 29.1971 37.3395 29.1971 39.3192C29.1971 41.4916 30.2518 42.2645 32.5808 43.7126C33.8114 44.5335 35.3495 45.499 36.8876 46.9962C38.4257 45.499 39.9638 44.5335 41.1943 43.7126C43.5233 42.2645 44.578 41.4916 44.578 39.3192C44.578 37.3395 43.04 35.6977 41.1501 35.6977C39.5241 35.6977 38.689 36.422 37.6785 38.643C37.5026 38.9328 37.1951 39.1741 36.8876 39.1741C36.5359 39.1741 36.2283 38.9328 36.0962 38.643C35.0857 36.422 34.2069 35.6977 32.5808 35.6977Z" fill="white"/>
<path fill-rule="evenodd" clip-rule="evenodd" d="M53.762 54.5744H48.0925C47.7413 54.5744 47.4337 54.3326 47.3016 53.9947C47.1699 53.6083 47.2579 53.2224 47.4775 52.9325L65.9346 32.6542C66.1984 32.3643 66.5501 32.2677 66.9013 32.4609C67.2093 32.6056 67.4289 32.9434 67.4289 33.3299V39.6068C67.4289 39.8481 67.341 40.0893 67.1651 40.2826L54.4207 54.2845C54.2454 54.4778 54.0253 54.5744 53.762 54.5744ZM50.2461 52.6427H53.4102L65.6713 39.1718V35.6475L50.2461 52.6427Z" fill="white"/>
<path fill-rule="evenodd" clip-rule="evenodd" d="M23.7484 54.5791H7.66401C7.18063 54.5791 6.78517 54.144 6.78517 53.613V25.2717C6.78517 24.7401 7.18063 24.3056 7.66401 24.3056H17.9915C18.299 24.1129 18.7387 23.8231 19.2221 23.4852C19.6612 23.1954 20.3205 22.7609 20.9797 22.3264L11.0919 22.2298C10.6085 22.2298 10.2131 21.7954 10.2131 21.2643C10.2131 20.7326 10.6085 20.2982 11.0919 20.2982H23.7484C24.2318 20.2982 24.6272 20.7326 24.6272 21.2643V53.613C24.6272 54.144 24.2318 54.5791 23.7484 54.5791ZM8.54285 52.6474H22.8696V23.292C22.1224 23.8231 21.1993 24.4508 20.1009 25.1751C19.5296 25.513 19.0462 25.8508 18.6944 26.0921C18.5628 26.1887 18.3869 26.2373 18.2548 26.2373H8.54285V52.6474Z" fill="white"/>
<path fill-rule="evenodd" clip-rule="evenodd" d="M30.2075 29.7121C29.9437 29.7121 29.7241 29.6155 29.5482 29.4223L22.8687 21.9386C22.6049 21.6487 22.5607 21.2628 22.6929 20.8764C22.8245 20.5385 23.1321 20.2967 23.4838 20.2967H68.7482C69.0115 20.2967 69.2316 20.3933 69.4074 20.6351L75.1643 27.3946C75.4276 27.6839 75.4718 28.0703 75.3397 28.4082C75.208 28.7946 74.9005 28.9878 74.5488 28.9878L30.2075 29.7121ZM25.5932 22.2284L30.5592 27.7805L72.5273 27.1048L68.3527 22.2284H25.5932Z" fill="white"/>
<path fill-rule="evenodd" clip-rule="evenodd" d="M18.2548 26.2373L1.29144 26.2347C0.895992 26.2347 0.544258 25.9449 0.456324 25.5584C0.324672 25.124 0.500042 24.6895 0.808058 24.4482L6.47704 20.4408C6.60869 20.3442 6.78456 20.2476 6.96042 20.2476L23.7478 20.3922C24.099 20.3922 24.407 20.634 24.5387 20.9719C24.6703 21.3098 24.6266 21.7442 24.407 22.0341C23.8794 22.6618 22.2982 23.7265 20.1009 25.1751C19.5296 25.561 19.0462 25.8508 18.6944 26.0921C18.5628 26.1887 18.3869 26.2373 18.2548 26.2373ZM4.23548 24.3031L17.9915 24.3056C18.299 24.1129 18.7387 23.8231 19.2221 23.4852C19.6612 23.1954 20.3205 22.7609 20.9797 22.3264L7.18001 22.2273L4.23548 24.3031Z" fill="white"/>
<path fill-rule="evenodd" clip-rule="evenodd" d="M64.6176 22.2271H50.9065C50.6864 22.2271 50.4668 22.1305 50.2909 21.9373L42.5568 13.4394C41.5021 12.2806 40.8865 10.6874 40.8865 8.99751C40.8865 7.30765 41.5021 5.71439 42.5568 4.55561C43.6552 3.3488 45.1054 2.67253 46.6434 2.67253C48.1815 2.67253 49.588 3.3488 50.6864 4.55561L64.881 20.1028C65.0131 20.2955 65.189 20.4887 65.3206 20.6819C65.5402 20.9718 65.5844 21.3576 65.4086 21.6961C65.2769 22.0339 64.9689 22.2271 64.6176 22.2271ZM51.3019 20.2955H62.552L49.4563 5.90761C48.7091 5.0867 47.6982 4.60419 46.6434 4.60419C45.545 4.60419 44.5783 5.0867 43.8311 5.90761C43.0839 6.72853 42.6447 7.83873 42.6447 8.99751C42.6447 10.1563 43.0839 11.267 43.8311 12.0874L51.3019 20.2955Z" fill="white"/>
<path fill-rule="evenodd" clip-rule="evenodd" d="M54.1583 19.281C53.8503 19.281 53.5428 19.0878 53.3669 18.798C53.2353 18.5082 53.2353 18.1223 53.4111 17.7844C54.3337 16.1426 54.9929 14.1629 55.3884 11.8453C55.4326 11.4594 55.6522 11.1696 55.9597 11.073C56.2677 10.9764 56.619 11.073 56.8391 11.3142L59.5635 14.2595C59.8273 14.5973 59.9152 15.0318 59.6952 15.4183C57.8495 19.0392 54.3337 19.281 54.202 19.281C54.1583 19.281 54.1583 19.281 54.1583 19.281ZM56.7511 13.9216C56.531 14.9838 56.2235 15.9493 55.8723 16.8183C56.4873 16.4804 57.2345 15.9493 57.8058 15.0804L56.7511 13.9216Z" fill="white"/>
<path fill-rule="evenodd" clip-rule="evenodd" d="M48.9287 13.536C48.6212 13.536 48.3137 13.3428 48.1378 13.0535C48.0061 12.7637 48.0061 12.3772 48.1815 12.0874C49.1046 10.3975 49.7638 8.4184 50.1593 6.10084C50.203 5.71439 50.4231 5.42456 50.7306 5.32795C51.0823 5.23134 51.3898 5.32795 51.6536 5.56975L54.3339 8.51501C54.5977 8.85287 54.6856 9.28734 54.466 9.67379C52.6641 13.2948 49.1046 13.536 48.9729 13.536C48.9287 13.536 48.9287 13.536 48.9287 13.536ZM51.5215 8.1766C51.3019 9.23877 50.9944 10.2049 50.6426 11.0738C51.3019 10.784 52.0049 10.2049 52.5762 9.33538L51.5215 8.1766Z" fill="white"/>
<path fill-rule="evenodd" clip-rule="evenodd" d="M24.5827 7.93625C24.4952 7.93625 24.451 7.93625 24.3631 7.88822L15.8817 5.42547C15.6179 5.37744 15.442 5.23225 15.3104 4.991C15.2225 4.79778 15.1782 4.50849 15.2225 4.26669L15.9696 1.12876C16.1013 0.645709 16.5847 0.307846 17.0681 0.452488L25.5499 2.91469C25.7695 2.96327 25.9891 3.15649 26.077 3.34971C26.2087 3.59096 26.2529 3.83222 26.165 4.07347L25.4178 7.21195C25.3298 7.64642 24.9786 7.93625 24.5827 7.93625ZM17.156 3.83222L23.9676 5.76333L24.2751 4.55652L17.4635 2.57683L17.156 3.83222Z" fill="white"/>
<path fill-rule="evenodd" clip-rule="evenodd" d="M23.0889 22.3248H23.0447L8.63053 22.2282C8.36673 22.2282 8.10342 22.083 7.92756 21.8417C7.79541 21.5519 7.75169 21.2626 7.79541 20.9728L9.94904 13.3438C10.8279 10.2539 13.3327 7.93636 16.2331 7.45385L17.0245 4.74985C17.1561 4.21877 17.5958 3.92894 18.0792 4.07358L22.913 5.47416C23.1768 5.57077 23.3527 5.71541 23.4843 5.95666C23.5723 6.19846 23.616 6.43972 23.5281 6.68097L22.6934 9.6748C24.8466 11.8958 25.7254 15.3235 24.8028 18.4134L23.924 21.6485C23.7919 22.083 23.4406 22.3248 23.0889 22.3248ZM9.8611 20.2965L22.4296 20.3931L23.1326 17.8343C23.8798 15.2755 23.0889 12.4268 21.1553 10.737C20.8478 10.4952 20.7599 10.0607 20.8478 9.6748L21.5945 7.11544L18.4304 6.19846L17.7274 8.61263C17.6395 8.99853 17.332 9.28836 16.9802 9.28836C14.5196 9.48158 12.366 11.3647 11.663 13.9235L9.8611 20.2965Z" fill="white"/>
<path fill-rule="evenodd" clip-rule="evenodd" d="M33.4157 22.2288H27.4392C27.1754 22.2288 26.9558 22.1322 26.78 21.939C25.9453 20.9249 25.5057 19.6695 25.5057 18.318C25.5057 15.3242 27.703 12.91 30.4275 12.91C32.0098 12.91 33.5037 13.7795 34.4267 15.2276C34.6463 15.5654 34.6463 16.0005 34.4267 16.3383C34.075 16.9174 33.8554 17.5937 33.8554 18.318C33.8554 19.0418 34.075 19.718 34.4267 20.2972C34.6463 20.6356 34.6463 21.07 34.4267 21.4079C34.3388 21.6011 34.2071 21.7458 34.075 21.939C33.8996 22.1322 33.6795 22.2288 33.4157 22.2288ZM27.8347 20.2972H32.4489C32.2294 19.6695 32.0977 18.9937 32.0977 18.318C32.0977 17.4485 32.2736 16.6282 32.6248 15.8553C32.0535 15.2276 31.2626 14.8417 30.4275 14.8417C28.6698 14.8417 27.2634 16.3864 27.2634 18.318C27.2634 19.0418 27.4834 19.718 27.8347 20.2972Z" fill="white"/>
<path fill-rule="evenodd" clip-rule="evenodd" d="M40.0075 22.2288H34.031C33.7672 22.2288 33.5476 22.1322 33.3718 21.939C32.5366 20.9249 32.0977 19.6695 32.0977 18.318C32.0977 15.3242 34.2948 12.91 37.0193 12.91C39.7 12.91 41.9411 15.3242 41.9411 18.318C41.9411 19.6695 41.4577 20.9249 40.6668 21.939C40.4909 22.1322 40.2713 22.2288 40.0075 22.2288ZM34.4267 20.2972H39.5683C39.9638 19.718 40.1834 19.0418 40.1834 18.318C40.1834 16.3864 38.7332 14.8417 37.0193 14.8417C35.2616 14.8417 33.8554 16.3864 33.8554 18.318C33.8554 19.0418 34.075 19.718 34.4267 20.2972Z" fill="white"/>
<path fill-rule="evenodd" clip-rule="evenodd" d="M33.7239 16.7209C33.4158 16.7209 33.1525 16.5763 32.9767 16.335C32.4054 15.4175 31.4385 14.8417 30.4275 14.8417C30.1199 14.8417 29.8563 14.6932 29.7246 14.4519C29.1096 13.5344 28.8016 12.4722 28.8016 11.3135C28.8016 8.36821 30.9989 5.95404 33.7239 5.95404C36.4046 5.95404 38.6457 8.36821 38.6457 11.3135C38.6457 12.4722 38.2939 13.5344 37.7226 14.4519C37.5472 14.6932 37.2831 14.8417 37.0193 14.8417C36.0088 14.8417 35.0417 15.4208 34.4267 16.3383C34.2951 16.5796 33.9872 16.7209 33.7239 16.7209ZM30.911 12.9553C31.9657 13.0519 32.9325 13.5344 33.7239 14.3073C34.4706 13.5344 35.4815 13.0519 36.4925 12.9553C36.7558 12.4722 36.888 11.8931 36.888 11.3135C36.888 9.43038 35.4378 7.8857 33.7239 7.8857C31.9657 7.8857 30.5597 9.43038 30.5597 11.3135C30.5597 11.8931 30.6914 12.4722 30.911 12.9553Z" fill="white"/>
<path fill-rule="evenodd" clip-rule="evenodd" d="M33.7233 7.88988C33.5475 7.88988 33.3716 7.8413 33.24 7.69666C32.8445 7.40682 32.7124 6.82771 32.9762 6.39269C33.0641 6.20001 33.5475 5.28249 32.7124 4.41354C32.3611 4.0271 32.3611 3.3994 32.7124 3.01296C33.0199 2.62706 33.5912 2.62706 33.9429 3.01296C35.481 4.60676 34.9539 6.63449 34.47 7.4554C34.2947 7.74469 33.9867 7.88988 33.7233 7.88988Z" fill="white"/>
<path fill-rule="evenodd" clip-rule="evenodd" d="M66.551 54.5736H23.7478C23.2644 54.5736 22.869 54.1386 22.869 53.6075V21.5481C22.869 21.1622 23.0443 20.7758 23.3961 20.6312C23.7036 20.486 24.099 20.5826 24.3628 20.8724L30.5592 27.7805L66.551 27.1974C66.8148 27.1974 66.9902 27.294 67.1661 27.4872C67.3419 27.6799 67.4299 27.9217 67.4299 28.163V53.6075C67.4299 54.1386 67.0344 54.5736 66.551 54.5736ZM24.6266 52.642H65.6722V29.1285L30.2075 29.7121C29.9437 29.7121 29.7241 29.6155 29.5482 29.4223L24.6266 23.9143V52.642Z" fill="white"/>
<path d="M67.0137 41.0681L66.09 42.0813V53.0595H56.1006L55.0996 54.1582H66.5498C66.7665 54.1582 67.013 53.9471 67.0137 53.6088V41.0681ZM47.7957 53.2019C47.665 53.3848 47.6169 53.6142 47.6899 53.8448L47.7672 53.9791C47.8563 54.0959 47.9794 54.1582 48.0928 54.1582H53.7609C53.9082 54.1582 54.0155 54.1085 54.1108 54.0035L54.9694 53.0595H47.93L47.7957 53.2019ZM20.3299 25.5245L20.3258 25.5205C20.0961 25.6755 19.8798 25.8134 19.6829 25.9396C19.3974 26.1262 19.1363 26.2877 18.9261 26.4319C18.7195 26.5792 18.4647 26.6557 18.2547 26.6557H8.96108V52.2294H22.4539V24.0841C21.8356 24.5089 21.1256 25 20.3299 25.5245ZM56.8574 52.2254H65.2558V42.9969L56.8574 52.2254ZM54.355 52.2254H55.7303L65.2558 41.7558V40.2462L54.355 52.2254ZM48.6868 52.2254H50.0622L65.2558 35.4814V34.0206L48.6868 52.2254ZM25.0459 52.2254H47.5597L65.2558 32.7755V29.5569L30.2135 30.1306C29.8339 30.1306 29.4965 29.9837 29.241 29.7034L29.237 29.6993L25.0459 25.0037V52.2254ZM51.1852 52.2254H53.2278L65.2558 39.0052V36.7265L51.1852 52.2254ZM45.9199 39.3185C45.9195 36.4793 43.7497 34.1839 41.151 34.1834C40.1886 34.1834 39.4437 34.4069 38.8317 34.7937C38.2147 35.1842 37.7036 35.7589 37.2407 36.4986L36.8867 37.0642L36.5327 36.4986C36.0699 35.7591 35.5627 35.1841 34.9458 34.7937C34.3338 34.4065 33.589 34.1837 32.6264 34.1834C30.0274 34.1834 27.858 36.4789 27.8576 39.3185C27.8576 40.9129 28.3171 41.9753 29.0294 42.8138C29.7611 43.6741 30.7718 44.3197 31.9266 45.0517C33.2864 45.9191 34.958 46.958 36.5815 48.7423C36.6853 48.8563 36.7943 48.8967 36.8867 48.8969C36.9786 48.8969 37.0918 48.8568 37.1959 48.7423C38.4125 47.406 39.6283 46.487 40.7563 45.7434L41.855 45.0476C43.0077 44.3169 44.0135 43.6729 44.744 42.8138C45.4566 41.9752 45.9199 40.9134 45.9199 39.3185ZM44.1621 39.3185C44.1617 37.5464 42.7876 36.1167 41.151 36.1162C40.4093 36.1162 39.8979 36.2756 39.4542 36.6533C38.9888 37.0498 38.558 37.7166 38.0586 38.8139L38.0382 38.8587C37.8228 39.2137 37.3979 39.5911 36.8867 39.5911C36.3459 39.5907 35.907 39.2265 35.7189 38.8139C35.2209 37.7194 34.7782 37.0544 34.3029 36.6573C33.8473 36.2769 33.324 36.1163 32.5817 36.1162C30.9923 36.1162 29.6158 37.5425 29.6154 39.3185C29.6154 40.3229 29.8526 40.9582 30.3315 41.5157C30.5844 41.8101 30.909 42.0866 31.3162 42.3824L32.8014 43.359L32.8136 43.3671C33.96 44.1318 35.4132 45.0526 36.8867 46.427C38.3612 45.0515 39.817 44.1322 40.9638 43.3671L40.9761 43.359C42.1515 42.6281 42.9365 42.1037 43.4419 41.5157C43.9209 40.9581 44.1621 40.323 44.1621 39.3185ZM66.7003 32.8243C66.6079 32.7737 66.5351 32.7712 66.4765 32.7836C66.4126 32.7977 66.3304 32.8403 66.2446 32.9342L66.09 33.101V40.8403L66.855 40.0021C66.907 39.9449 66.9473 39.8813 66.973 39.8149L67.0137 39.6074V33.3289L66.9892 33.1661C66.9447 33.0117 66.8413 32.8912 66.7248 32.8365L66.7003 32.8243ZM66.09 29.5406V32.0349C66.1555 32.0068 66.2262 31.9855 66.2975 31.9698C66.5374 31.9175 66.7816 31.9491 67.0137 32.0553V29.5284L66.09 29.5406ZM67.0137 28.1612C67.0132 28.0222 66.9629 27.8803 66.859 27.7666C66.7938 27.6949 66.7455 27.6626 66.7085 27.6445C66.6762 27.6287 66.6333 27.6172 66.562 27.616L30.5675 28.1979L30.3763 28.2019L30.2501 28.0595L25.0459 22.2571V23.7545L29.8554 29.1419L30.0141 29.2599C30.0704 29.2843 30.1333 29.2922 30.2054 29.2924L65.6668 28.7106L66.09 28.7065L67.0137 28.6943V28.1612ZM30.7384 27.3596L66.5457 26.7819H66.5701L71.632 26.7005L68.1571 22.6437H26.5229L30.7384 27.3596ZM6.86961 20.6905C6.82313 20.711 6.77225 20.7399 6.72312 20.776L6.71905 20.7801L1.06313 24.7758C0.924725 24.8847 0.835712 25.0599 0.831195 25.2478L0.855609 25.4391L0.863747 25.4676C0.910699 25.6701 1.0976 25.8173 1.29099 25.8175H6.36912V25.2722C6.36912 25.0795 6.40804 24.8912 6.47898 24.7189H2.92267L7.04864 21.8095H7.47182C7.37188 21.5159 7.33626 21.2155 7.3823 20.9103L7.39044 20.8574L7.44741 20.6702L6.95506 20.6661C6.93992 20.6672 6.91156 20.6721 6.86961 20.6905ZM5.55125 23.8847H17.8641C18.1575 23.6982 18.5543 23.4438 18.9831 23.1442L18.9912 23.136C19.166 23.0207 19.3751 22.8811 19.6056 22.7291L7.30499 22.6437L5.55125 23.8847ZM24.1995 22.8064L24.2117 22.8186V22.7983C24.208 22.8014 24.2032 22.8033 24.1995 22.8064ZM8.20831 21.0364V21.3457C8.22197 21.4351 8.2511 21.5246 8.28969 21.6183C8.34012 21.6805 8.39169 21.7299 8.44838 21.7607L8.63149 21.8095L9.90509 21.8177C9.83412 21.6454 9.79523 21.4569 9.79523 21.2643C9.79523 21.0729 9.8351 20.8863 9.90509 20.715H9.85626L9.31101 20.7109L9.31508 20.6824L8.31004 20.6743L8.20831 21.0364ZM23.5526 21.0161C23.4127 21.0746 23.284 21.2645 23.284 21.5491V21.781L23.3206 21.8258C23.4043 21.7654 23.4805 21.6707 23.5241 21.5288L23.6706 20.9835C23.6343 20.9867 23.6004 20.995 23.5729 21.0079L23.5526 21.0161ZM50.5993 21.6549C50.7033 21.7692 50.816 21.8095 50.9085 21.8095H64.617C64.8079 21.8095 64.9545 21.7122 65.0198 21.545L65.0361 21.5043C65.1347 21.3144 65.1134 21.1012 64.9873 20.9347L64.9751 20.9184C64.9317 20.8547 64.8821 20.7877 64.8245 20.715H49.7448L50.5993 21.6549ZM41.8631 20.715C41.7001 21.1001 41.5047 21.4692 41.2731 21.8136H49.6146L48.6136 20.715H41.8631ZM34.9865 20.715C35.0155 21.0128 34.957 21.3109 34.7993 21.5776L34.8074 21.5817C34.7673 21.6698 34.7148 21.7437 34.6691 21.8136H40.0076C40.1519 21.8136 40.255 21.7637 40.3494 21.663C40.5785 21.3671 40.776 21.0491 40.9435 20.715H34.9865ZM26.4822 20.715C26.6496 21.048 26.849 21.3656 27.0885 21.659L27.2431 21.777C27.3003 21.8022 27.3648 21.8135 27.4385 21.8136H32.7567C32.5163 21.468 32.3193 21.0994 32.1585 20.715H26.4822ZM24.9319 20.715C24.9652 20.7961 24.991 20.8802 25.0093 20.9672L25.7661 21.8136H26.1649C25.9246 21.468 25.7275 21.0994 25.5667 20.715H24.9319ZM33.074 20.715C33.2414 21.048 33.4407 21.3657 33.6803 21.659L33.721 21.6874C33.7309 21.6784 33.744 21.6732 33.7536 21.663C33.815 21.5759 33.8903 21.4846 33.9285 21.4311C33.9823 21.356 34.0188 21.2965 34.0465 21.2358L34.0587 21.2073L34.0791 21.1788C34.1692 21.0389 34.1933 20.8716 34.1564 20.715H33.074ZM60.0638 15.6043C59.9149 15.8963 59.751 16.166 59.5836 16.4181L62.7371 19.8808H64.1124L60.1126 15.4985C60.0969 15.5335 60.0829 15.5696 60.0638 15.6043ZM24.8343 19.8808H25.2819C25.1974 19.5489 25.14 19.2077 25.111 18.8595L24.8343 19.8808ZM21.8843 7.60054L21.2536 9.78559C21.1961 10.0622 21.2744 10.2989 21.4123 10.4082L21.4285 10.4244C23.4879 12.2243 24.3174 15.2361 23.5322 17.9399L23.5363 17.944L23.0032 19.8808H23.9717L24.3989 18.3061L24.403 18.2939C25.2822 15.3491 24.4415 12.0777 22.3929 9.96463L22.2261 9.79373L22.2912 9.5618L22.7632 7.85688L21.8843 7.60054ZM18.1286 8.72765L18.1204 8.72358C17.996 9.23305 17.5795 9.68496 17.0096 9.70014C14.7431 9.8795 12.727 11.6275 12.0657 14.0336L10.4178 19.8605L12.7208 19.8808H22.1365L22.7306 17.7242V17.7161C23.4343 15.3051 22.6841 12.6285 20.8792 11.0511C20.4229 10.6771 20.3304 10.0623 20.4398 9.58214L20.4479 9.55773L21.0745 7.39709L18.7104 6.71349L18.1286 8.72765ZM16.6312 7.57205L16.5579 7.82026L16.3016 7.86502C13.5746 8.31869 11.1878 10.5075 10.3486 13.4558L8.54197 19.8442L9.55108 19.8523L11.2601 13.8098C12.0054 11.101 14.2959 9.08243 16.9485 8.87414L16.9811 8.87007C17.0922 8.86951 17.2671 8.76483 17.3229 8.52013L17.327 8.49572L17.921 6.44901L17.034 6.19266L16.6312 7.57205ZM55.5309 13.1995C55.1232 15.007 54.5464 16.6 53.7772 17.9724L53.7812 17.9765C53.6701 18.19 53.6676 18.4259 53.7324 18.595C53.8465 18.7733 54.0246 18.8636 54.1596 18.8636H54.2003C54.2005 18.8633 54.4152 18.8527 54.77 18.7781C55.1225 18.704 55.6026 18.5681 56.1331 18.3264C56.8962 17.9786 57.7612 17.4076 58.5135 16.475L57.8299 15.7263C57.2653 16.4224 56.6186 16.8829 56.0721 17.1831L55.0467 17.7486L55.4861 16.6622C55.806 15.8708 56.0851 14.9969 56.2959 14.0418L55.5309 13.1995ZM33.7007 14.941C33.4795 15.2072 33.284 15.4999 33.1188 15.8159C33.1865 15.9042 33.2539 15.9935 33.3141 16.0885L33.4931 16.2513C33.5622 16.2875 33.6415 16.3041 33.7251 16.3041C33.8546 16.3037 33.9719 16.2292 34.0303 16.1617C34.0537 16.1231 34.0788 16.0855 34.1035 16.0478C34.198 15.8584 34.1963 15.6342 34.0791 15.4537L34.075 15.4497C33.9599 15.2692 33.8332 15.1007 33.7007 14.941ZM56.0843 11.4702C55.9644 11.5079 55.8329 11.6368 55.8035 11.8933L55.7995 11.9137C55.7836 12.0066 55.7551 12.0985 55.7384 12.1904L58.1147 14.7986L58.2978 15.0021L59.0058 15.7833C59.1148 15.6082 59.2235 15.4255 59.3232 15.2299L59.3314 15.2137C59.4382 15.026 59.419 14.8011 59.2703 14.5789L57.7444 12.9065L56.5319 11.5963C56.4191 11.4727 56.235 11.4229 56.0843 11.4702ZM56.9754 14.7905C56.8943 15.1063 56.8052 15.4126 56.7109 15.7101C56.9036 15.5348 57.0854 15.3321 57.2602 15.1038L56.9754 14.7905ZM36.7565 13.3378L36.7524 13.35L36.5327 13.3704C36.0429 13.4172 35.5524 13.5695 35.0963 13.8058C34.8085 13.9562 34.5377 14.1391 34.2866 14.351C34.4614 14.5556 34.6306 14.7694 34.779 15.0021C34.8193 15.0642 34.8346 15.1353 34.8644 15.2014C35.4582 14.7156 36.2019 14.4243 37.021 14.4243L37.2 14.3714C37.2624 14.337 37.3247 14.2855 37.379 14.2127C37.5382 13.9552 37.6676 13.682 37.786 13.4029C37.5361 13.3542 37.2806 13.3257 37.021 13.3256C36.9328 13.3256 36.8436 13.3323 36.7565 13.3378ZM30.4292 13.3256C30.1607 13.3256 29.8963 13.3568 29.6398 13.407C29.6616 13.458 29.6773 13.5114 29.7008 13.5616L30.0711 14.2208L30.0915 14.2534L30.2135 14.3714L30.4292 14.4243L30.7873 14.4446C30.809 14.4471 30.8307 14.4498 30.8524 14.4527C30.8592 14.4537 30.8659 14.4558 30.8727 14.4568C31.136 14.4944 31.3896 14.5696 31.6336 14.6684C31.6523 14.676 31.6721 14.6808 31.6906 14.6888L31.8004 14.7376C32.0562 14.8574 32.2953 15.0109 32.5166 15.1892C32.691 14.89 32.8902 14.6101 33.1107 14.351C32.6396 13.9519 32.109 13.6589 31.5441 13.4925C31.3251 13.4324 31.1007 13.3913 30.8727 13.3704L30.6326 13.35L30.6245 13.3378C30.5594 13.3345 30.4945 13.3257 30.4292 13.3256ZM50.3022 7.45812C49.8933 9.27165 49.3195 10.8766 48.5485 12.288L48.5403 12.3043C48.451 12.4534 48.4365 12.6744 48.5037 12.8496C48.6174 13.0269 48.7926 13.1173 48.9269 13.1181H48.9717C48.9719 13.1179 49.1906 13.1074 49.5495 13.0327C49.9052 12.9585 50.3887 12.8261 50.9207 12.5851C51.6858 12.2383 52.5462 11.6649 53.2889 10.7377L52.6053 9.98498C52.0576 10.6816 51.4326 11.1803 50.8109 11.4539L49.8709 11.8689L50.2575 10.9168C50.578 10.1248 50.8528 9.24843 51.0631 8.29227L50.3022 7.45812ZM54.8351 9.85477L54.8392 9.85884C54.6924 10.1538 54.5256 10.4225 54.359 10.6767L55.0548 11.4417C55.1761 11.1126 55.418 10.8515 55.7466 10.7174L54.8758 9.76525C54.8622 9.79479 54.8511 9.82544 54.8351 9.85477ZM50.8475 5.72472C50.7291 5.76518 50.6033 5.89641 50.5749 6.1479L50.5708 6.17231C50.5548 6.26578 50.5266 6.35658 50.5097 6.44901L52.886 9.05317L53.0976 9.28917L53.7812 10.0419C53.8885 9.86666 53.9971 9.68437 54.0945 9.48856L54.1027 9.46821C54.2029 9.29175 54.1906 9.08353 54.0661 8.87414L51.234 5.77355C51.1112 5.70343 50.9869 5.68798 50.8475 5.72472ZM51.7427 9.04097C51.6577 9.37253 51.5655 9.69389 51.466 10.0053C51.6621 9.82114 51.8486 9.60418 52.0316 9.35835L51.7427 9.04097ZM16.9485 0.850048C16.7365 0.786947 16.4548 0.930733 16.3707 1.2366L15.6302 4.33719L15.6343 4.34126C15.6067 4.49198 15.6352 4.68894 15.6872 4.80919C15.7244 4.87397 15.7602 4.91994 15.8011 4.95161L15.9557 5.01671L16.0005 5.02485L16.4684 5.15913L16.623 4.63423C16.6665 4.46557 16.7345 4.30795 16.8265 4.17036L16.6556 4.12153L16.7532 3.73498L17.0584 2.47765L17.1642 2.05447L17.5792 2.17654L24.3908 4.15815L24.7773 4.26802L24.6797 4.65864L24.2646 6.28218L23.9635 6.19673C23.9915 6.38232 23.9932 6.58059 23.9228 6.7908L23.931 6.79487L23.7926 7.28722L24.4803 7.4866L24.521 7.49881L24.5535 7.51916H24.582C24.7643 7.51916 24.9575 7.38418 25.0093 7.12853L25.0133 7.11632L25.758 3.97505L25.7702 3.93029C25.8049 3.83427 25.8063 3.71844 25.7132 3.5478L25.6969 3.52339C25.6831 3.49295 25.6497 3.44321 25.5952 3.39725C25.5406 3.35135 25.4903 3.3266 25.4609 3.31994L25.4324 3.31587L16.9526 0.854117L16.9485 0.850048ZM33.428 6.3839C33.3925 6.47057 33.3687 6.5365 33.3548 6.56701L33.3345 6.61177C33.1881 6.85485 33.2584 7.19364 33.485 7.36046L33.5216 7.38488L33.5501 7.41743C33.5668 7.43527 33.5838 7.4495 33.6071 7.45812C33.6296 7.46636 33.6614 7.46854 33.7007 7.47033H33.7332C33.8551 7.46652 34.0132 7.39398 34.1076 7.24246C34.2252 7.04282 34.3408 6.76421 34.4249 6.4368C34.1957 6.39604 33.9624 6.37177 33.7251 6.37169C33.6257 6.37169 33.526 6.37686 33.428 6.3839ZM17.6443 4.50809C17.5595 4.56345 17.4727 4.67267 17.4287 4.84988L17.4246 4.86616L17.2659 5.39106L22.987 7.05122L23.1253 6.57108L23.1334 6.53852C23.1695 6.43949 23.1642 6.32153 23.1009 6.13569C23.0249 6.00579 22.9385 5.92778 22.7754 5.86714L20.8507 5.30968L17.8519 4.45926C17.7714 4.45534 17.7015 4.47116 17.6443 4.50809ZM33.6356 3.29552C33.4374 3.0781 33.1679 3.10808 33.0374 3.27111L33.0211 3.29552L33.0171 3.29145C32.811 3.51909 32.8146 3.90649 33.0211 4.13374C33.4821 4.61781 33.6053 5.11915 33.603 5.54162C33.6432 5.54066 33.6847 5.53755 33.7251 5.53755C34.002 5.53762 34.2732 5.56584 34.5389 5.61079C34.5556 4.87153 34.3483 4.03431 33.6437 3.30366L33.6356 3.29552ZM17.6525 3.53559L18.0024 3.63732C18.0671 3.64629 18.1329 3.65458 18.1977 3.67394L21.1722 4.53657L23.6665 5.24458L23.7682 4.84175L17.7623 3.09614L17.6525 3.53559ZM7.20327 53.6129C7.20327 53.9515 7.44635 54.1616 7.66306 54.1622H22.5638C22.4924 53.9897 22.4541 53.8017 22.4539 53.6088V53.0636H8.12693V26.6516H7.20327V53.6129ZM25.0459 53.6129C25.0459 53.8028 25.0051 53.9878 24.936 54.1582H46.9209C46.9192 54.154 46.9144 54.1502 46.9127 54.1459L46.9087 54.1297C46.7814 53.7562 46.8083 53.384 46.9372 53.0595H25.0459V53.6129ZM23.284 53.6088C23.2846 53.9471 23.5312 54.1582 23.7479 54.1582H23.7641C23.977 54.1482 24.2117 53.9437 24.2117 53.6129V24.0638L23.5403 23.3151C23.4574 23.3768 23.3765 23.4463 23.2881 23.5104V53.0636L23.284 53.6088ZM26.8484 18.3183C26.8484 16.5984 27.8676 15.111 29.3305 14.6074C29.1329 14.3025 28.9695 13.9826 28.8341 13.6512C27.1451 14.3577 25.9207 16.1541 25.9207 18.3183C25.9207 18.8609 26.0004 19.3847 26.1486 19.8808H27.1699C26.9722 19.3987 26.8485 18.8744 26.8484 18.3183ZM44.9962 39.3185C44.9962 40.4863 44.7072 41.327 44.0766 42.061C43.4727 42.7637 42.5674 43.3508 41.4155 44.067L41.4114 44.0629C40.1741 44.888 38.6796 45.834 37.1797 47.2937L36.8867 47.5786L36.5978 47.2937C35.0978 45.8336 33.5995 44.8922 32.362 44.067L31.5441 43.5502C30.7757 43.0501 30.1539 42.5878 29.7008 42.061C29.0703 41.327 28.7812 40.4863 28.7812 39.3185C28.7816 37.1358 30.4803 35.282 32.5817 35.282C33.4646 35.2821 34.1933 35.4819 34.8359 36.0185C35.4589 36.5388 35.9635 37.3464 36.4757 38.4721C36.5521 38.6377 36.7253 38.7565 36.8867 38.7569C36.989 38.7569 37.178 38.6533 37.3139 38.4355C37.8191 37.3308 38.3083 36.5338 38.9131 36.0185C39.5456 35.4799 40.2676 35.282 41.151 35.282C43.2928 35.2825 44.9958 37.1325 44.9962 39.3185ZM46.754 39.3185C46.754 41.1027 46.2256 42.3589 45.3787 43.3549C44.5503 44.3293 43.4249 45.039 42.2944 45.7556C40.8948 46.6204 39.3515 47.6107 37.8104 49.3038C37.5628 49.5758 37.234 49.7311 36.8867 49.7311C36.5394 49.7308 36.2105 49.5757 35.963 49.3038C34.4238 47.6124 32.843 46.6257 31.479 45.7556C30.3485 45.0391 29.2232 44.3293 28.3947 43.3549C27.5481 42.359 27.0234 41.1022 27.0234 39.3185C27.0238 36.075 29.5128 33.3492 32.6264 33.3492C33.727 33.3495 34.629 33.6091 35.3893 34.0898C35.9768 34.4616 36.4624 34.9587 36.8867 35.5384C37.3111 34.9583 37.7964 34.4617 38.3841 34.0898C39.145 33.6083 40.0493 33.3492 41.151 33.3492C44.2642 33.3498 46.7537 36.0753 46.754 39.3185ZM67.8478 28.678L74.5413 28.5722H74.5495C74.7277 28.572 74.8717 28.4862 74.9442 28.2752L74.9523 28.2548C75.0325 28.0482 74.999 27.8358 74.8546 27.677L74.8465 27.6648L69.0889 20.9062L69.0685 20.8818C68.9752 20.7536 68.8844 20.715 68.7471 20.715H65.8133C65.9641 21.0587 65.9659 21.4492 65.8011 21.8136H68.5436L68.6697 21.956L73.4183 27.5061L72.5353 27.5224L67.7257 27.5997C67.8039 27.7789 67.8476 27.9694 67.8478 28.1612V28.678ZM7.20327 25.8175L18.2547 25.8216C18.2729 25.8216 18.3074 25.818 18.3483 25.8053C18.3886 25.7926 18.423 25.773 18.4459 25.7565L18.4581 25.7483L19.508 25.0647C19.6261 24.9903 19.7427 24.9043 19.8701 24.8287C19.9553 24.7726 20.0391 24.7128 20.1224 24.6578C21.0266 24.0591 21.8033 23.5297 22.4539 23.0709V22.7373L21.1274 22.725C20.4986 23.1395 19.8762 23.5458 19.4551 23.8237L19.4591 23.8277C18.9721 24.1681 18.5278 24.4612 18.214 24.6578L18.1123 24.7229H7.66306C7.44621 24.7235 7.20327 24.9333 7.20327 25.2722V25.8175ZM10.6294 21.2643C10.6294 21.603 10.876 21.8136 11.0932 21.8136L15.1663 21.8502L22.3441 21.899C22.1749 21.554 22.1731 21.1669 22.283 20.8045L11.0525 20.7231C10.8465 20.7469 10.6294 20.9456 10.6294 21.2643ZM27.6785 18.3183C27.6786 18.8775 27.8352 19.4061 28.0854 19.8808H31.8737C31.7459 19.3786 31.6825 18.8549 31.6824 18.3183C31.6824 18.1056 31.6905 17.8949 31.7109 17.6876C31.7271 17.5174 31.7546 17.3498 31.7842 17.1831C31.7878 17.1629 31.7885 17.1421 31.7923 17.122C31.8214 16.9667 31.8615 16.8145 31.9022 16.6622C31.9135 16.6202 31.9225 16.5777 31.9347 16.5361C31.9785 16.385 32.0299 16.2365 32.0853 16.0885C32.0952 16.0623 32.1076 16.0372 32.1178 16.0112C32.1234 15.9968 32.1243 15.9807 32.13 15.9664C32.0795 15.9198 32.0327 15.8704 31.9795 15.8281C31.8354 15.7124 31.6798 15.6172 31.5197 15.5351C31.4827 15.5163 31.4474 15.495 31.4098 15.4781C31.2736 15.4164 31.1335 15.3676 30.9907 15.3317C30.9558 15.323 30.9202 15.3184 30.8849 15.3113C30.7342 15.2805 30.5825 15.2585 30.4292 15.2584C28.9376 15.2584 27.6785 16.579 27.6785 18.3183ZM32.5369 18.7862C32.5717 19.1564 32.6502 19.5237 32.7567 19.8808H33.7617C33.6358 19.5739 33.5358 19.2518 33.485 18.9124L33.4402 18.3183L33.4565 17.9236C33.4819 17.6477 33.5316 17.3789 33.6071 17.122C33.2673 17.093 32.9738 16.945 32.7526 16.707C32.7309 16.7778 32.7144 16.8503 32.6956 16.9226C32.6708 17.0188 32.6419 17.1139 32.6224 17.2115C32.6005 17.3196 32.589 17.4303 32.5735 17.5411C32.565 17.6035 32.5515 17.6653 32.5451 17.7283L32.5125 18.3183L32.5369 18.7862ZM34.3069 18.7903C34.3649 19.1769 34.4984 19.5418 34.6772 19.8808H39.3322C39.61 19.4107 39.7675 18.8827 39.7676 18.3183C39.7676 16.5836 38.4717 15.2595 37.021 15.2584C36.8734 15.2584 36.7276 15.2782 36.5856 15.3032C35.8952 15.4373 35.2355 15.8791 34.779 16.5524C34.5516 16.9267 34.3937 17.3448 34.3192 17.7853L34.2703 18.3183L34.3069 18.7903ZM40.6017 18.3183C40.6017 18.8712 40.4769 19.3958 40.264 19.8808H41.2812C41.4359 19.3824 41.5253 18.8589 41.5254 18.3183C41.5254 16.1509 40.2707 14.3507 38.5835 13.6471C38.4465 13.9826 38.2898 14.3056 38.1033 14.6114C39.5501 15.1161 40.6017 16.5975 40.6017 18.3183ZM30.1443 11.3115C30.1452 9.62565 31.1691 8.14394 32.6346 7.64529C32.4399 7.32958 32.3768 6.93977 32.4637 6.57108C30.6033 7.16833 29.2174 9.04977 29.2166 11.3115C29.2166 11.7616 29.2807 12.193 29.3794 12.6054C29.681 12.5406 29.9921 12.5029 30.3112 12.4956C30.2074 12.1182 30.1443 11.7151 30.1443 11.3115ZM30.9744 11.3115C30.9744 11.7448 31.0617 12.1796 31.2023 12.5607C31.402 12.5936 31.5989 12.6374 31.7923 12.6949C31.9628 12.7428 32.1289 12.8036 32.2928 12.8699C32.3023 12.8739 32.3118 12.8781 32.3213 12.8821C32.8213 13.0881 33.2885 13.3764 33.7129 13.7366C33.7841 13.6741 33.8622 13.6198 33.9367 13.5616C33.977 13.5304 34.0135 13.494 34.0547 13.464C34.3071 13.2792 34.5772 13.1211 34.8563 12.9879C34.9547 12.9405 35.0558 12.8987 35.1574 12.8577C35.1873 12.8458 35.2167 12.8324 35.2469 12.8211C35.5556 12.7033 35.8781 12.6193 36.2112 12.5647C36.3769 12.1892 36.4717 11.755 36.4717 11.3115C36.4706 9.64258 35.1983 8.32073 33.7576 8.30041C33.7467 8.30074 33.736 8.30853 33.7251 8.30854C33.7109 8.30854 33.6948 8.30495 33.6803 8.30447C32.2046 8.32989 30.9754 9.64206 30.9744 11.3115ZM37.3058 11.3115C37.3058 11.7113 37.2388 12.1142 37.1227 12.4956C37.4409 12.5022 37.7521 12.5398 38.0545 12.6054C38.1595 12.1906 38.2295 11.7591 38.2295 11.3115C38.2287 9.15824 36.9454 7.34795 35.2265 6.66466C35.12 7.07165 34.9723 7.41549 34.8278 7.66157C36.2621 8.17065 37.305 9.63573 37.3058 11.3115ZM39.0636 11.3115C39.0636 11.8484 38.9848 12.3653 38.8561 12.8577C40.8968 13.6823 42.3595 15.8292 42.3595 18.3183C42.3595 18.8568 42.2848 19.3801 42.152 19.8808H47.8568L42.2497 13.7203C41.1223 12.4817 40.4715 10.7855 40.4715 8.99621C40.4718 7.20741 41.1226 5.51447 42.2497 4.27615C43.42 2.99028 44.9788 2.25386 46.6442 2.25386C48.3128 2.25407 49.8263 2.99333 50.994 4.27615L51.8037 5.1632C51.8467 5.19553 51.8934 5.22382 51.9339 5.26085L51.9624 5.28934L54.6439 8.2353L54.6642 8.25972C54.6884 8.29079 54.7031 8.32861 54.7252 8.36144L58.1839 12.1538L59.8685 13.9767L59.8929 14.0011L59.9336 14.0703L65.1867 19.8238L65.2274 19.8645L65.2029 19.8808L65.2233 19.8686C65.226 19.8726 65.2286 19.8768 65.2314 19.8808H68.7471C69.1267 19.8808 69.4672 20.0281 69.7236 20.365L75.4813 27.1236C75.8566 27.5419 75.9114 28.0945 75.7295 28.56L75.7254 28.5559C75.5319 29.1053 75.0716 29.4005 74.5535 29.4023L67.8478 29.5122V53.6088C67.8472 54.3314 67.2992 54.9923 66.5498 54.9923H23.7886C23.7752 54.9927 23.7613 54.9964 23.7479 54.9964H7.66306C6.91373 54.9958 6.36912 54.3357 6.36912 53.6129V26.6516H1.29099C0.694385 26.6514 0.179463 26.2199 0.0499452 25.6507L0.0540142 25.6466C-0.114258 25.0441 0.127039 24.4528 0.550433 24.1207L0.56671 24.1085L6.23484 20.1005C6.3858 19.9905 6.65002 19.8324 6.95913 19.832L7.67934 19.836L9.54702 13.232C10.4399 10.0945 12.944 7.69915 15.9028 7.09598L16.2324 5.96072L15.7645 5.82645C15.3815 5.74377 15.1216 5.51147 14.9466 5.19168L14.9303 5.1632C14.8089 4.89607 14.7522 4.51965 14.8123 4.19071L14.8164 4.17036L15.5651 1.03315L15.5692 1.02095C15.7488 0.361902 16.4343 -0.173187 17.1886 0.0525216L17.1845 0.0565906L25.6359 2.50613L25.6481 2.5102L25.6644 2.51427C25.8462 2.55873 26.0054 2.65162 26.1323 2.75841C26.264 2.86933 26.3839 3.01499 26.4578 3.17752C26.6117 3.47063 26.678 3.80773 26.5636 4.16629L26.5718 4.17036L25.8231 7.29129C25.6989 7.90459 25.1916 8.3533 24.582 8.3533C24.547 8.35332 24.4751 8.35489 24.3989 8.3411C24.3434 8.33098 24.2962 8.30458 24.2484 8.28413L23.5688 8.08882L23.1579 9.56587C24.7051 11.2553 25.575 13.5486 25.5789 15.885C26.1639 14.4947 27.2342 13.3959 28.5696 12.8577C28.4464 12.3633 28.3865 11.8449 28.3865 11.3115C28.3874 8.51558 30.2502 6.12179 32.7689 5.63113C32.7901 5.35821 32.7254 5.0308 32.4108 4.7034L32.4026 4.69526C31.9688 4.21794 31.9143 3.4891 32.2399 2.94966L32.4026 2.734C32.8868 2.15039 33.7366 2.18532 34.2378 2.72179C35.1935 3.71217 35.4241 4.84887 35.3568 5.81831C37.5029 6.57586 39.0628 8.77772 39.0636 11.3115ZM41.3016 8.99621C41.3016 10.5864 41.8823 12.0799 42.8641 13.1588L48.9839 19.8808H50.3592L43.5233 12.3694C42.7061 11.4722 42.2293 10.2587 42.2293 8.99621C42.2296 7.73412 42.7065 6.52436 43.5233 5.62707C44.3388 4.7312 45.4136 4.18664 46.6442 4.18664C47.8282 4.18686 48.9478 4.72912 49.7651 5.62707L49.8302 5.69624C49.9503 5.3715 50.1839 5.11134 50.5057 4.97602L50.3795 4.83768C49.3507 3.70727 48.0511 3.08822 46.6442 3.088C45.2334 3.088 43.8905 3.70993 42.8641 4.83768C41.883 5.91622 41.3019 7.4069 41.3016 8.99621ZM43.0594 8.99621C43.0594 10.0512 43.4605 11.0643 44.1377 11.8079L51.4863 19.8808H61.61L59.075 17.0976C58.2496 18.0849 57.3135 18.7071 56.479 19.0874C55.8864 19.3573 55.347 19.5107 54.9409 19.596L54.2003 19.6977H54.1596C53.6823 19.6977 53.2503 19.4061 53.0122 19.0141L52.9837 18.9734L52.9878 18.9694C52.8025 18.5609 52.8082 18.0421 53.0407 17.594L53.0488 17.5818C53.8545 16.148 54.4386 14.4321 54.8351 12.4386L53.8545 11.3603C53.0375 12.3434 52.1024 12.9628 51.2666 13.3419C50.6708 13.612 50.1258 13.7654 49.7163 13.8505L48.9717 13.9523H48.9269C48.4505 13.9515 48.0212 13.6597 47.7835 13.2687L47.755 13.228L47.7591 13.2239C47.5784 12.825 47.5703 12.2937 47.8242 11.873C48.6281 10.3972 49.2113 8.68285 49.6064 6.69722L49.1466 6.18859C48.47 5.44539 47.5688 5.02101 46.6442 5.02078C45.678 5.02078 44.8165 5.44275 44.1377 6.18859C43.4611 6.93241 43.0597 7.94216 43.0594 8.99621Z" fill="white"/>
</svg>
