<svg width="100" height="100" viewBox="0 0 100 100" fill="none" xmlns="http://www.w3.org/2000/svg">
<path d="M86.8612 42.1797L78.7007 27.4447C78.6239 27.3063 78.541 27.1719 78.452 27.0416C78.3624 26.9113 78.2673 26.7862 78.1662 26.6657C78.065 26.5451 77.9589 26.4304 77.8467 26.3208C77.735 26.2113 77.6184 26.1081 77.4968 26.0106C77.3752 25.9132 77.2492 25.8221 77.1187 25.7373C76.9888 25.6531 76.8545 25.5753 76.7174 25.5043C76.5798 25.4334 76.4393 25.37 76.2956 25.3135C76.1519 25.257 76.006 25.2079 75.8578 25.1664C75.7097 25.1249 75.5599 25.0915 75.409 25.0655C75.2575 25.039 75.105 25.0211 74.9524 25.0102C74.7993 24.9998 74.6462 24.9975 74.4925 25.0027C74.3394 25.0079 74.1868 25.0205 74.0343 25.0413C73.8822 25.0626 73.7319 25.0909 73.5821 25.1272C73.4328 25.1635 73.2858 25.2074 73.1404 25.2593C72.9951 25.3106 72.8524 25.3694 72.7131 25.4351C72.5733 25.5015 72.4368 25.5747 72.3041 25.6543L71.0233 26.424C70.7011 26.6189 70.4059 26.8508 70.1367 27.1195C69.8681 27.3882 69.6331 27.6857 69.433 28.0126C69.2324 28.3402 69.0715 28.6873 68.9505 29.0546C68.8294 29.4219 68.752 29.7985 68.7172 30.1854L65.9484 29.0298C65.0855 28.6694 64.1983 28.3978 63.2857 28.2145C62.3736 28.0317 61.4527 27.94 60.5235 27.9411H55.3756C54.2706 27.9446 53.18 28.0778 52.1038 28.3407C51.0281 28.6031 49.9944 28.9889 49.0022 29.4969L40.1535 28.3465C39.0424 28.2018 37.9297 28.1902 36.8159 28.3125C35.7026 28.4347 34.617 28.6879 33.559 29.0708L31.2186 29.9247C31.1683 29.5632 31.0798 29.212 30.9538 28.8712C30.8272 28.5305 30.6663 28.2081 30.4701 27.9054C30.2744 27.6027 30.0484 27.3265 29.7924 27.0762C29.537 26.8265 29.2579 26.6097 28.955 26.4258L27.6847 25.656C27.5521 25.5758 27.4161 25.5032 27.2762 25.4369C27.1364 25.3711 26.9938 25.3123 26.8489 25.261C26.7036 25.2091 26.556 25.1653 26.4067 25.129C26.2575 25.0926 26.1066 25.0644 25.9546 25.043C25.8026 25.0223 25.65 25.009 25.4963 25.0038C25.3432 24.9986 25.1901 25.0015 25.037 25.0119C24.8839 25.0223 24.7318 25.0407 24.5804 25.0667C24.4289 25.0932 24.2791 25.1266 24.131 25.1682C23.9828 25.2097 23.8369 25.2587 23.6937 25.3152C23.55 25.3717 23.4096 25.4351 23.272 25.5061C23.1343 25.577 23.0006 25.6543 22.8701 25.739C22.7402 25.8238 22.6142 25.9149 22.4926 26.0123C22.371 26.1098 22.2538 26.213 22.1421 26.3226C22.0305 26.4321 21.9238 26.5469 21.8226 26.6674C21.7215 26.7879 21.6264 26.913 21.5374 27.0433C21.4478 27.1731 21.3649 27.3074 21.2887 27.4464L13.1276 42.1797C13.0508 42.3181 12.9811 42.4605 12.9175 42.6058C12.854 42.7517 12.7981 42.9005 12.7484 43.0522C12.6992 43.2032 12.6572 43.3572 12.6224 43.5129C12.5875 43.6686 12.5599 43.826 12.54 43.9846C12.5201 44.1431 12.5074 44.3028 12.5024 44.4626C12.4974 44.6223 12.5002 44.782 12.5102 44.9417C12.5201 45.1015 12.5378 45.2606 12.5627 45.418C12.5875 45.576 12.6202 45.7323 12.66 45.8868C12.6998 46.0414 12.7467 46.1936 12.8009 46.3435C12.8545 46.4929 12.9159 46.6399 12.9839 46.7829C13.0513 46.9265 13.1259 47.066 13.2072 47.2021C13.2885 47.3382 13.3752 47.4691 13.4687 47.5959C13.5626 47.7228 13.6616 47.8451 13.7666 47.9615C13.8716 48.0786 13.9816 48.1893 14.0972 48.2948C14.2121 48.4003 14.3326 48.4995 14.457 48.5924C14.5819 48.6858 14.7107 48.7723 14.8439 48.8518L16.123 49.6234C16.4774 49.8367 16.8521 49.9987 17.2474 50.1089C17.6426 50.219 18.0445 50.2744 18.4541 50.2744C18.951 50.2651 19.4347 50.1758 19.9045 50.0057L23.6882 55.2316C23.6573 55.3256 23.6291 55.4207 23.6036 55.5165C23.5782 55.6122 23.5556 55.7085 23.5362 55.8059C23.5163 55.9028 23.4992 56.0008 23.4848 56.0988C23.4704 56.1969 23.4588 56.2955 23.45 56.3947C23.4411 56.4938 23.4356 56.593 23.4323 56.6922C23.4295 56.7914 23.429 56.8906 23.4317 56.9903C23.4345 57.0895 23.4395 57.1887 23.4478 57.2873C23.4561 57.3864 23.4671 57.485 23.4809 57.5837C23.4947 57.6817 23.5113 57.7797 23.5307 57.8772C23.55 57.974 23.5721 58.0709 23.597 58.1666C23.6219 58.2623 23.6495 58.3575 23.6799 58.452C23.7103 58.546 23.7429 58.6394 23.7789 58.7317C23.8142 58.8234 23.8524 58.9145 23.8933 59.0045C23.9342 59.0944 23.9773 59.1826 24.0232 59.2697C24.0691 59.3568 24.1172 59.4427 24.168 59.5269C24.2183 59.6111 24.2714 59.6935 24.3267 59.7742C24.3825 59.855 24.44 59.934 24.4997 60.0112C24.5594 60.0885 24.6218 60.164 24.686 60.2373C24.7501 60.3111 24.8159 60.3826 24.8844 60.4518C24.9524 60.521 25.0226 60.5884 25.0945 60.6536C25.1669 60.7182 25.2404 60.781 25.3161 60.8416C25.3918 60.9021 25.4692 60.9598 25.5477 61.0157C25.6268 61.0717 25.7069 61.1247 25.7893 61.1754C25.8711 61.2262 25.9546 61.274 26.0391 61.3196C26.1237 61.3652 26.2094 61.4078 26.2967 61.4482C26.3835 61.4885 26.472 61.526 26.5609 61.5606C26.6505 61.5952 26.7406 61.6275 26.8318 61.6563C26.9225 61.6858 27.0142 61.7123 27.1071 61.7353C27.1994 61.759 27.2928 61.7797 27.3862 61.7976C27.4802 61.8149 27.5742 61.8299 27.6687 61.842C27.7632 61.8536 27.8583 61.8628 27.9534 61.8685C28.0484 61.8749 28.1435 61.8778 28.2386 61.8783C28.3171 61.8783 28.395 61.8783 28.4757 61.8685C28.494 62.0185 28.5183 62.1667 28.5487 62.3143C28.5797 62.4619 28.6167 62.6078 28.6604 62.7519C28.7035 62.8961 28.7532 63.0379 28.8091 63.1769C28.8649 63.3164 28.9262 63.4531 28.9942 63.5863C29.0617 63.7201 29.1352 63.8498 29.2137 63.9767C29.2927 64.103 29.3767 64.2258 29.4668 64.3446C29.5564 64.4634 29.6509 64.5775 29.7499 64.6871C29.8494 64.7966 29.9538 64.9016 30.0622 65.0013C30.1711 65.1011 30.2833 65.1957 30.4005 65.285C30.5171 65.3744 30.6376 65.458 30.7614 65.5359C30.8858 65.6137 31.0129 65.6852 31.1428 65.751C31.2733 65.8167 31.4065 65.8767 31.5419 65.9297C31.6774 65.9828 31.8144 66.03 31.9543 66.0698C32.0936 66.1102 32.2345 66.1442 32.3772 66.1707C32.5198 66.1978 32.6629 66.218 32.8072 66.2313C32.9515 66.2445 33.0958 66.2515 33.2406 66.2509C33.3185 66.2509 33.3965 66.2232 33.4744 66.2203C33.4915 66.3702 33.5153 66.5196 33.5457 66.6678C33.5756 66.816 33.612 66.9624 33.6552 67.1072C33.6977 67.2519 33.7469 67.3943 33.8022 67.5339C33.8575 67.674 33.9188 67.8112 33.9863 67.9456C34.0537 68.0794 34.1267 68.2103 34.2052 68.3377C34.2837 68.4651 34.3677 68.5879 34.4572 68.7073C34.5468 68.8267 34.6413 68.9414 34.7402 69.0521C34.8397 69.1623 34.9442 69.2678 35.0526 69.3681C35.1615 69.4684 35.2742 69.5636 35.3909 69.6535C35.508 69.7435 35.6285 69.8271 35.7524 69.9055C35.8767 69.9839 36.0044 70.056 36.1349 70.1223C36.2653 70.1886 36.3985 70.2486 36.5345 70.3022C36.67 70.3559 36.8081 70.4032 36.948 70.4435C37.0878 70.4839 37.2288 70.5179 37.372 70.545C37.5146 70.5721 37.6583 70.5923 37.8031 70.6055C37.9474 70.6194 38.0922 70.6257 38.2376 70.6257C38.3155 70.6257 38.3935 70.6096 38.4698 70.6061C38.488 70.756 38.5118 70.9048 38.5427 71.0524C38.5731 71.2 38.6102 71.3459 38.6533 71.4907C38.697 71.6348 38.7461 71.7767 38.802 71.9162C38.8573 72.0558 38.9192 72.1924 38.9866 72.3262C39.054 72.4594 39.127 72.5897 39.206 72.7166C39.2845 72.8434 39.3686 72.9662 39.4581 73.085C39.5477 73.2038 39.6422 73.3186 39.7411 73.4287C39.8406 73.5383 39.9445 73.6432 40.0534 73.7435C40.1618 73.8439 40.2745 73.9384 40.3912 74.0278C40.5078 74.1172 40.6283 74.2014 40.7521 74.2792C40.876 74.3576 41.0031 74.4297 41.1335 74.4955C41.264 74.5618 41.3967 74.6217 41.5321 74.6754C41.6675 74.729 41.8052 74.7757 41.9445 74.8166C42.0843 74.857 42.2253 74.891 42.3679 74.9181C42.5099 74.9452 42.6537 74.966 42.7979 74.9792C42.9422 74.9931 43.0865 75 43.2313 75C43.3734 75 43.5171 75 43.6602 74.9792C43.9764 74.9516 44.2865 74.8922 44.5911 74.7999C44.8951 74.7082 45.1881 74.5866 45.4695 74.4338C45.7508 74.2815 46.0145 74.1016 46.2616 73.8946C46.5087 73.6876 46.7336 73.457 46.9365 73.2032L48.8773 70.7901L50.519 72.3539C50.676 72.5055 50.8418 72.6462 51.017 72.7748C51.1923 72.9034 51.3747 73.0193 51.5648 73.1219C51.7544 73.2251 51.9507 73.3145 52.1519 73.3906C52.3531 73.4662 52.5587 73.5279 52.7682 73.5746C52.9777 73.6219 53.1889 73.6542 53.4022 73.672C53.6156 73.6893 53.8295 73.6922 54.0434 73.6795C54.2574 73.6674 54.4691 73.6403 54.6797 73.5982C54.8903 73.5561 55.097 73.5002 55.2999 73.4293C55.5027 73.3583 55.7006 73.2736 55.893 73.175C56.0854 73.077 56.2705 72.9657 56.448 72.8411C56.626 72.7166 56.7957 72.5805 56.956 72.4329C57.1163 72.2847 57.2666 72.1267 57.407 71.9577C57.5469 71.7888 57.6757 71.6106 57.7929 71.4238C57.91 71.237 58.0151 71.0426 58.1074 70.8408C58.1997 70.6396 58.2787 70.4326 58.3445 70.2198C58.4103 70.007 58.4623 69.7908 58.5004 69.5711C58.7386 69.6126 58.9791 69.6351 59.2212 69.6391C59.476 69.6409 59.7292 69.6213 59.9813 69.5803C60.2333 69.5394 60.4804 69.4777 60.7225 69.3958C60.9652 69.3133 61.1996 69.2118 61.4262 69.0902C61.6534 68.9691 61.8695 68.8295 62.0746 68.6721C62.2802 68.5147 62.472 68.3411 62.6506 68.1514C62.8297 67.9617 62.9927 67.7588 63.1403 67.5414C63.2874 67.3246 63.4178 67.0968 63.53 66.8586C63.6428 66.6199 63.7362 66.3737 63.8108 66.1194C64.3713 66.3443 64.9517 66.4567 65.552 66.4562C65.625 66.4562 65.7002 66.4562 65.7737 66.4562C65.9312 66.4487 66.0882 66.4331 66.2447 66.4095C66.4011 66.3864 66.5559 66.3547 66.7095 66.3155C66.8627 66.2763 67.0141 66.229 67.1628 66.1742C67.3121 66.1188 67.458 66.0566 67.6012 65.9868C67.7443 65.917 67.8836 65.8398 68.0196 65.7561C68.155 65.672 68.2866 65.5808 68.4143 65.4834C68.5414 65.3854 68.6636 65.2816 68.7813 65.1714C68.8985 65.0613 69.0107 64.9454 69.1174 64.8237C69.2235 64.7021 69.3241 64.5752 69.4187 64.4432C69.5137 64.3111 69.6016 64.1745 69.6834 64.0338C69.7652 63.8925 69.8399 63.7478 69.9084 63.599C69.9764 63.4502 70.0372 63.2986 70.0908 63.1435C70.145 62.9889 70.1914 62.8315 70.2301 62.6718C70.2694 62.5121 70.3003 62.3506 70.3241 62.188C70.3479 62.0248 70.3639 61.861 70.3727 61.6967C70.381 61.5318 70.3816 61.3675 70.3744 61.2025C70.3445 60.6992 70.2445 60.2108 70.0748 59.7379C70.297 59.6607 70.5131 59.5667 70.7221 59.4554C70.931 59.3441 71.1306 59.2172 71.3213 59.0748C71.512 58.9324 71.6911 58.7755 71.8591 58.6049C72.0272 58.4342 72.1825 58.2514 72.324 58.0565C72.4655 57.8616 72.5926 57.6569 72.7049 57.4418C72.8171 57.2273 72.9132 57.0047 72.9934 56.7746C73.0735 56.5452 73.1371 56.3099 73.183 56.07C73.2294 55.8301 73.2582 55.5885 73.2698 55.344L78.2275 48.834C78.4083 49.0231 78.6029 49.1955 78.8107 49.3512C79.018 49.5075 79.2369 49.6441 79.4663 49.7629C79.6951 49.8811 79.9323 49.9791 80.1772 50.057C80.422 50.1348 80.6713 50.1913 80.9245 50.2265C81.1782 50.2617 81.433 50.2755 81.689 50.2669C81.9444 50.2588 82.1981 50.2288 82.449 50.1769C82.7 50.125 82.9454 50.0524 83.1848 49.959C83.4247 49.865 83.6552 49.7519 83.8768 49.6187L85.1565 48.8472C85.2892 48.7671 85.4179 48.6806 85.5429 48.5877C85.6672 48.4943 85.7877 48.3952 85.9033 48.2902C86.0183 48.1847 86.1288 48.0734 86.2333 47.9569C86.3383 47.8399 86.4378 47.7182 86.5312 47.5913C86.6246 47.4645 86.712 47.333 86.7927 47.1969C86.8739 47.0614 86.9486 46.9219 87.0166 46.7783C87.084 46.6347 87.1453 46.4883 87.1995 46.3383C87.2537 46.1884 87.3001 46.0368 87.3399 45.8822C87.3797 45.7277 87.4123 45.5714 87.4372 45.4134C87.4621 45.2554 87.4798 45.0969 87.4897 44.9371C87.5002 44.7774 87.5024 44.6177 87.4975 44.4574C87.4925 44.2977 87.4798 44.1385 87.4599 43.9799C87.44 43.8214 87.4123 43.664 87.3775 43.5083C87.3427 43.352 87.3007 43.1986 87.2515 43.047C87.2023 42.8953 87.1459 42.7471 87.0823 42.6012C87.0193 42.4553 86.9491 42.3135 86.8723 42.1745L86.8612 42.1797ZM19.8111 46.2092C19.7597 46.3014 19.7006 46.3879 19.6331 46.4686C19.5657 46.5488 19.4911 46.6215 19.4098 46.6866C19.3285 46.7518 19.2418 46.8077 19.15 46.855C19.0582 46.9023 18.9626 46.9397 18.8637 46.9674C18.7647 46.9951 18.6641 47.0124 18.5619 47.0193C18.4601 47.0262 18.3579 47.0228 18.2562 47.0089C18.155 46.9951 18.0555 46.9709 17.9588 46.9363C17.8615 46.9023 17.7686 46.8584 17.6802 46.8048L16.4005 46.035C16.3115 45.9814 16.2286 45.9197 16.1512 45.8494C16.0738 45.7784 16.0036 45.7012 15.9412 45.6158C15.8782 45.5311 15.8245 45.4405 15.7787 45.3442C15.7333 45.2485 15.6974 45.1488 15.6709 45.045C15.6443 44.9418 15.6278 44.8362 15.6206 44.7296C15.6139 44.6223 15.6178 44.5156 15.6311 44.4095C15.6443 44.3034 15.6681 44.1996 15.7013 44.0981C15.7344 43.9967 15.7765 43.8998 15.8284 43.807L23.9862 29.0656C24.0376 28.9727 24.0973 28.8862 24.1647 28.8055C24.2327 28.7248 24.3073 28.6521 24.3891 28.587C24.4709 28.5218 24.5577 28.4653 24.65 28.4186C24.7423 28.3713 24.8385 28.3338 24.9375 28.3061C25.037 28.279 25.1381 28.2617 25.2409 28.2554C25.3432 28.2485 25.4455 28.2525 25.5472 28.2669C25.6494 28.2814 25.7489 28.3061 25.8462 28.3413C25.943 28.3759 26.0364 28.4209 26.1248 28.4751L27.4056 29.246C27.4946 29.2997 27.5775 29.3619 27.6543 29.4323C27.7312 29.5026 27.8008 29.5799 27.8633 29.6653C27.9257 29.75 27.9793 29.84 28.0247 29.9357C28.07 30.032 28.1059 30.1312 28.1325 30.2344C28.159 30.3376 28.1756 30.4425 28.1822 30.5492C28.1888 30.6559 28.1855 30.762 28.1723 30.8681C28.159 30.9742 28.1358 31.0774 28.1032 31.1789C28.07 31.2798 28.028 31.3767 27.9766 31.4695L19.8111 46.2092ZM27.1436 58.2116C27.0579 58.1366 26.9805 58.0536 26.9103 57.9631C26.8406 57.872 26.7798 57.7751 26.7284 57.6713C26.6765 57.5681 26.6356 57.4603 26.6041 57.349C26.5731 57.2371 26.5521 57.1229 26.5427 57.007C26.5328 56.8905 26.5344 56.7746 26.5466 56.6587C26.5587 56.5434 26.5814 56.4298 26.6151 56.3185C26.6488 56.2072 26.6925 56.1012 26.7461 55.9985C26.7997 55.8964 26.8628 55.8007 26.9346 55.7119L30.5834 51.1745C30.6542 51.0816 30.7332 50.9969 30.82 50.9208C30.9068 50.8441 30.9997 50.7778 31.0997 50.7207C31.1992 50.6636 31.3031 50.618 31.412 50.5829C31.5204 50.5477 31.6309 50.524 31.7442 50.5119C31.857 50.4998 31.9703 50.4998 32.0831 50.5114C32.1964 50.5229 32.307 50.5465 32.4159 50.5811C32.5242 50.6157 32.6281 50.6619 32.7282 50.7184C32.8282 50.7749 32.9216 50.8412 33.0084 50.9173C33.0958 50.9934 33.1743 51.0776 33.2456 51.1704C33.3163 51.2633 33.3777 51.3625 33.4291 51.4674C33.481 51.5729 33.5225 51.6831 33.5529 51.7967C33.5839 51.9108 33.6032 52.0273 33.612 52.1455C33.6203 52.2637 33.6176 52.3814 33.6032 52.499C33.5888 52.6166 33.5634 52.7314 33.5275 52.8438C33.491 52.9562 33.4446 53.0635 33.3876 53.1661C33.3307 53.2688 33.2644 53.3639 33.1892 53.4527L29.5431 57.9884C29.4713 58.0778 29.3917 58.1591 29.3049 58.2318C29.2175 58.305 29.1241 58.3684 29.0252 58.4221C28.9262 58.4763 28.8229 58.5195 28.7156 58.5524C28.6084 58.5847 28.4989 58.606 28.3878 58.6164C28.2762 58.6268 28.1651 58.6256 28.054 58.6129C27.9429 58.6002 27.834 58.576 27.7273 58.5414C27.6212 58.5063 27.5189 58.4607 27.4205 58.4048C27.3227 58.3488 27.2309 58.2831 27.1452 58.2081L27.1436 58.2116ZM32.1362 62.5841C32.0505 62.5097 31.9725 62.4267 31.9023 62.3362C31.8321 62.2451 31.7713 62.1482 31.7199 62.045C31.668 61.9418 31.6265 61.8339 31.595 61.7221C31.564 61.6102 31.5436 61.496 31.5336 61.3801C31.5237 61.2642 31.5248 61.1478 31.537 61.0324C31.5491 60.9165 31.5723 60.8029 31.6055 60.6917C31.6392 60.5804 31.6829 60.4737 31.7371 60.3716C31.7907 60.2696 31.8537 60.1738 31.9256 60.0845L36.6152 54.2554C36.6876 54.1666 36.7672 54.0864 36.8546 54.0138C36.9425 53.9417 37.0353 53.8788 37.1348 53.8252C37.2338 53.7722 37.3371 53.7295 37.4444 53.6966C37.5516 53.6643 37.6605 53.6436 37.7722 53.6332C37.8833 53.6234 37.9944 53.6246 38.1049 53.6367C38.216 53.6493 38.3249 53.673 38.4311 53.7076C38.5378 53.7422 38.64 53.7872 38.7384 53.8425C38.8362 53.8979 38.9286 53.963 39.0142 54.0368C39.0999 54.1118 39.1773 54.1948 39.2475 54.2859C39.3172 54.3765 39.378 54.4739 39.4294 54.5771C39.4808 54.6803 39.5222 54.7882 39.5537 54.9C39.5847 55.0119 39.6051 55.1255 39.6151 55.2414C39.625 55.3573 39.6234 55.4732 39.6118 55.5891C39.5996 55.705 39.577 55.8186 39.5432 55.9293C39.5101 56.0406 39.4664 56.1473 39.4128 56.2493C39.3592 56.352 39.2967 56.4477 39.2248 56.5371L34.5495 62.3598C34.4777 62.4498 34.3981 62.5311 34.3113 62.6049C34.224 62.6781 34.1305 62.7421 34.0316 62.7963C33.9321 62.8505 33.8287 62.8938 33.7215 62.9272C33.6137 62.9601 33.5043 62.9814 33.3926 62.9918C33.2815 63.0028 33.1698 63.0016 33.0582 62.9889C32.9471 62.9762 32.8376 62.9526 32.7309 62.9174C32.6243 62.8828 32.5214 62.8373 32.423 62.7813C32.3246 62.7248 32.2329 62.6597 32.1467 62.5841H32.1362ZM37.1282 66.9607C37.0431 66.8858 36.9651 66.8027 36.8955 66.7116C36.8258 66.6205 36.765 66.5236 36.7136 66.4198C36.6617 66.3166 36.6202 66.2094 36.5892 66.0975C36.5577 65.9851 36.5373 65.8715 36.5279 65.7556C36.5179 65.6391 36.519 65.5232 36.5312 65.4073C36.5434 65.2914 36.566 65.1778 36.5992 65.0671C36.6329 64.9558 36.6766 64.8491 36.7302 64.7465C36.7833 64.6444 36.8463 64.5487 36.9176 64.4593L40.5636 59.9282C40.7074 59.7477 40.8793 59.603 41.0788 59.4946C41.2784 59.3856 41.4906 59.3216 41.7151 59.302C41.7665 59.302 41.8179 59.302 41.8709 59.302C42.0329 59.302 42.1915 59.3256 42.3469 59.3729C42.5022 59.4208 42.6481 59.4894 42.7847 59.5805C42.9212 59.671 43.0428 59.78 43.1495 59.9074C43.2562 60.0343 43.3441 60.1744 43.4121 60.3272C43.4806 60.4806 43.527 60.6403 43.5519 60.8076C43.5762 60.9742 43.5784 61.1414 43.5569 61.3092C43.5359 61.4764 43.4928 61.6373 43.4275 61.7924C43.3623 61.947 43.2777 62.0888 43.1738 62.218L39.5416 66.741C39.4697 66.8298 39.3901 66.9105 39.3033 66.9838C39.216 67.0564 39.1231 67.1193 39.0242 67.1729C38.9247 67.2271 38.8219 67.2698 38.7146 67.3026C38.6074 67.3349 38.4985 67.3563 38.3868 67.3667C38.2757 67.377 38.1646 67.3759 38.0541 67.3632C37.943 67.3505 37.8341 67.3269 37.7279 67.2923C37.6213 67.2571 37.519 67.2121 37.4212 67.1562C37.3228 67.1003 37.231 67.0351 37.1453 66.9607H37.1282ZM44.5342 71.1153C44.3899 71.2963 44.2174 71.4417 44.0173 71.5506C43.8172 71.6596 43.6044 71.7236 43.3794 71.7438C43.1539 71.764 42.9328 71.7386 42.7167 71.6677C42.5005 71.5968 42.3054 71.4849 42.1318 71.3332C42.0462 71.2589 41.9682 71.1758 41.898 71.0853C41.8278 70.9948 41.767 70.8979 41.7156 70.7947C41.6637 70.6909 41.6222 70.5836 41.5907 70.4718C41.5597 70.3599 41.5393 70.2463 41.5293 70.1298C41.5194 70.0139 41.5205 69.898 41.5326 69.7821C41.5448 69.6668 41.568 69.5532 41.6012 69.4419C41.6349 69.3312 41.6786 69.2245 41.7327 69.1225C41.7864 69.0204 41.8494 68.9247 41.9212 68.8353L44.5342 65.6149C44.6784 65.4338 44.8509 65.2885 45.051 65.1795C45.2511 65.0705 45.4639 65.0065 45.6889 64.9863C45.7403 64.9863 45.7901 64.9863 45.8448 64.9863C46.0067 64.9863 46.1654 65.01 46.3207 65.0573C46.476 65.1046 46.622 65.1738 46.7585 65.2643C46.895 65.3548 47.0167 65.4638 47.1239 65.5906C47.2306 65.7175 47.3179 65.8576 47.3865 66.011C47.455 66.1638 47.5014 66.3241 47.5257 66.4908C47.5506 66.658 47.5523 66.8252 47.5313 66.9924C47.5097 67.1596 47.4666 67.3211 47.4014 67.4756C47.3362 67.6302 47.2516 67.772 47.1471 67.9012L44.5342 71.1153ZM69.7282 56.2049C69.5767 56.3797 69.3988 56.5169 69.1942 56.6167C68.9897 56.717 68.7747 56.7712 68.5491 56.781C68.3441 56.7925 68.1445 56.7648 67.9505 56.6968C67.7559 56.6288 67.5807 56.5255 67.4243 56.3872L63.1901 52.2695L63.1199 52.2014C63.0447 52.1282 62.964 52.0636 62.8767 52.0071C62.7899 51.9512 62.6987 51.9039 62.6025 51.8664C62.5068 51.8289 62.4079 51.8013 62.3067 51.784C62.2061 51.7667 62.1044 51.7598 62.0016 51.7638C61.8994 51.7672 61.7982 51.7811 61.6987 51.8053C61.5987 51.8301 61.5025 51.8641 61.4091 51.9085C61.3156 51.9523 61.2277 52.006 61.1443 52.0682C61.0608 52.1305 60.9845 52.2009 60.9143 52.2787C60.8447 52.3566 60.7828 52.4413 60.7286 52.5319C60.6744 52.623 60.6297 52.7181 60.5937 52.8184C60.5572 52.9182 60.5313 53.0208 60.5147 53.1263C60.4981 53.2319 60.4915 53.338 60.4948 53.4446C60.4981 53.5519 60.5119 53.6568 60.5351 53.7612C60.5583 53.865 60.5915 53.9659 60.6335 54.0634C60.6761 54.1602 60.7269 54.2525 60.7866 54.3396C60.8463 54.4261 60.9138 54.5062 60.9884 54.5789L66.7001 60.1289C66.8256 60.2465 66.9318 60.3814 67.0191 60.5325C67.1059 60.6836 67.17 60.8445 67.2109 61.0157C67.2518 61.1864 67.2684 61.36 67.2595 61.5364C67.2512 61.7123 67.2186 61.883 67.1611 62.049C67.1037 62.2145 67.0246 62.3685 66.9235 62.5097C66.8223 62.6504 66.7035 62.7733 66.5675 62.8776C66.4309 62.982 66.2834 63.0633 66.1242 63.1221C65.9644 63.1804 65.8002 63.2132 65.6316 63.2207C65.4078 63.2363 65.19 63.2046 64.9788 63.1262C64.7677 63.0472 64.5803 62.9284 64.4161 62.7681L58.7641 57.274L58.7265 57.2383C58.6519 57.165 58.5706 57.1004 58.4838 57.0439C58.397 56.9874 58.3053 56.9407 58.2096 56.9032C58.1135 56.8652 58.0151 56.8381 57.9139 56.8208C57.8128 56.8029 57.711 56.796 57.6088 56.7994C57.5065 56.8035 57.4054 56.8173 57.3059 56.8415C57.2058 56.8658 57.1091 56.8998 57.0162 56.9442C56.9228 56.988 56.8344 57.041 56.7514 57.1033C56.668 57.1656 56.5911 57.2359 56.5215 57.3138C56.4513 57.3922 56.3894 57.4764 56.3352 57.5669C56.281 57.658 56.2357 57.7532 56.1998 57.8535C56.1638 57.9533 56.1373 58.0559 56.1207 58.1614C56.1041 58.267 56.0975 58.373 56.1008 58.4797C56.1041 58.5864 56.1174 58.6919 56.1406 58.7963C56.1638 58.9001 56.197 59.001 56.239 59.0984C56.2816 59.1953 56.3324 59.2876 56.3921 59.3746C56.4518 59.4611 56.5193 59.5413 56.5939 59.6145L60.3737 63.3251C60.4478 63.4052 60.5141 63.4923 60.5727 63.5857C60.6308 63.6791 60.6805 63.7777 60.7209 63.881C60.7612 63.9842 60.7922 64.0903 60.8137 64.1998C60.8347 64.3088 60.8463 64.4195 60.8474 64.5308C60.8491 64.6421 60.8403 64.7528 60.8215 64.863C60.8032 64.9725 60.7745 65.0798 60.7369 65.1841C60.6987 65.2885 60.6518 65.3877 60.5959 65.4828C60.5395 65.578 60.4754 65.6668 60.4036 65.7492C60.3317 65.8311 60.2527 65.9061 60.167 65.973C60.0813 66.0398 59.9907 66.0975 59.8945 66.1465C59.7988 66.1961 59.6993 66.2353 59.596 66.2647C59.4926 66.2941 59.3881 66.3132 59.2815 66.3218C59.1748 66.3305 59.0686 66.3287 58.962 66.3166C58.8558 66.3045 58.7513 66.282 58.6491 66.2497C58.5468 66.2169 58.4484 66.1748 58.3539 66.1223C58.2594 66.0704 58.1704 66.0099 58.0869 65.9401L54.322 62.2457C54.248 62.1724 54.1673 62.1073 54.0805 62.0508C53.9937 61.9937 53.9025 61.9464 53.8068 61.9083C53.7107 61.8703 53.6123 61.842 53.5117 61.8241C53.4105 61.8063 53.3088 61.7988 53.2065 61.8017C53.1037 61.8051 53.0026 61.8184 52.9031 61.842C52.803 61.8657 52.7063 61.8997 52.6129 61.9435C52.5195 61.9868 52.4305 62.0398 52.347 62.1015C52.2635 62.1638 52.1867 62.2335 52.1165 62.3108C52.0457 62.3887 51.9833 62.4728 51.9291 62.5634C51.8744 62.6539 51.829 62.749 51.7926 62.8488C51.7561 62.9486 51.729 63.0512 51.7119 63.1567C51.6947 63.2622 51.6875 63.3683 51.6909 63.475C51.6936 63.5817 51.7063 63.6872 51.729 63.7916C51.7522 63.896 51.7843 63.9969 51.8263 64.0943C51.8683 64.1918 51.9186 64.284 51.9777 64.3711C52.0374 64.4587 52.1043 64.5389 52.1789 64.6121L54.9196 67.3298C55.0025 67.4093 55.0766 67.4958 55.1429 67.5904C55.2092 67.685 55.2662 67.7847 55.3137 67.8908C55.3607 67.9969 55.3977 68.1065 55.4248 68.2201C55.4513 68.3337 55.4674 68.449 55.4729 68.566C55.4779 68.6825 55.4718 68.799 55.4552 68.9149C55.4386 69.0302 55.4115 69.1432 55.3734 69.2534C55.3352 69.3635 55.2877 69.4684 55.2302 69.5688C55.1722 69.6691 55.1058 69.7625 55.0307 69.849C54.9555 69.9355 54.8731 70.0134 54.783 70.0826C54.6935 70.1523 54.5979 70.2117 54.4967 70.2613C54.3955 70.3109 54.2911 70.3495 54.1822 70.3772C54.0738 70.4055 53.9638 70.4216 53.8522 70.4268C53.7405 70.432 53.6294 70.4256 53.5189 70.4078C53.4089 70.3899 53.3011 70.3611 53.196 70.3213C53.091 70.2809 52.991 70.2307 52.8959 70.1696C52.8003 70.1091 52.7118 70.0393 52.6295 69.9597L50.5046 67.9369C50.5615 67.7109 50.6025 67.482 50.6279 67.2502C50.6528 67.0178 50.6627 66.7848 50.6561 66.5513C50.65 66.3184 50.6279 66.086 50.5897 65.8559C50.5522 65.6258 50.4985 65.3998 50.43 65.1772C50.3609 64.9552 50.2774 64.739 50.1796 64.5291C50.0812 64.3192 49.9695 64.1174 49.8435 63.9242C49.718 63.7305 49.5798 63.5477 49.4295 63.3747C49.2786 63.2017 49.1172 63.0408 48.9447 62.8921C48.6169 62.6066 48.2587 62.3719 47.8707 62.1868C47.4821 62.0023 47.0775 61.8743 46.6557 61.8034C46.7143 61.4136 46.7292 61.0215 46.701 60.6282C46.69 60.491 46.6739 60.3543 46.6518 60.2182C46.6297 60.0827 46.6026 59.9478 46.57 59.814C46.5374 59.6808 46.4998 59.5488 46.4567 59.4185C46.4136 59.2882 46.3655 59.1601 46.3119 59.0339C46.2588 58.9082 46.2008 58.7842 46.1372 58.6631C46.0742 58.542 46.0062 58.4244 45.9338 58.309C45.8614 58.1937 45.7845 58.0819 45.7027 57.9734C45.6215 57.865 45.5358 57.7601 45.4462 57.6592C45.3561 57.5577 45.2627 57.4608 45.1654 57.368C45.0676 57.2752 44.967 57.1864 44.8625 57.1022C44.7575 57.018 44.6503 56.9384 44.5391 56.8634C44.428 56.7885 44.3147 56.7187 44.1981 56.6536C44.0815 56.5884 43.9632 56.5284 43.8416 56.4737C43.7205 56.4189 43.5972 56.3693 43.4723 56.3255C43.3468 56.2811 43.2202 56.2424 43.092 56.2096C42.9638 56.1761 42.8344 56.1484 42.704 56.1265C42.7626 55.7379 42.7775 55.3475 42.7493 54.9548C42.7415 54.8608 42.731 54.7668 42.7183 54.6734C42.7051 54.58 42.6896 54.4866 42.6719 54.3938C42.6537 54.3015 42.6332 54.2092 42.61 54.1176C42.5873 54.0265 42.5619 53.9354 42.5337 53.846C42.5061 53.756 42.4757 53.6666 42.4425 53.5784C42.4099 53.4902 42.3751 53.4031 42.3375 53.3172C42.2999 53.2313 42.2601 53.146 42.2181 53.0623C42.1761 52.9787 42.1318 52.8963 42.0849 52.815C42.0384 52.7342 41.9898 52.6541 41.9389 52.5762C41.8881 52.4978 41.835 52.4211 41.7803 52.3462C41.725 52.2712 41.6681 52.1974 41.6089 52.1259C41.5498 52.0538 41.489 51.9841 41.426 51.916C41.3635 51.848 41.2988 51.7817 41.2325 51.7171C41.1656 51.6531 41.0976 51.5902 41.028 51.5303C40.9583 51.4697 40.887 51.4115 40.814 51.3555C40.7411 51.2996 40.6665 51.2454 40.5907 51.1941C40.515 51.1422 40.4376 51.0926 40.3591 51.0453C40.2806 50.9986 40.2005 50.9536 40.1198 50.911C40.0385 50.8689 39.9567 50.8285 39.8732 50.791C39.7903 50.7535 39.7063 50.7184 39.6212 50.6855C39.5361 50.6532 39.4504 50.6226 39.3636 50.5955C39.2768 50.5679 39.1895 50.5431 39.1016 50.5206C39.0131 50.4981 38.9247 50.4779 38.8357 50.4612C38.7461 50.4439 38.6572 50.4295 38.5671 50.4174C38.477 50.4053 38.3868 50.396 38.2967 50.3897C38.2061 50.3833 38.1154 50.3793 38.0248 50.3782C37.9341 50.377 37.8435 50.3782 37.7534 50.3822C37.6627 50.3862 37.5721 50.3932 37.482 50.403C37.3919 50.4122 37.3018 50.4243 37.2122 50.4387C37.1232 50.4537 37.0337 50.471 36.9452 50.4912C36.8568 50.5114 36.7689 50.5338 36.6816 50.5592C36.5942 50.584 36.5074 50.6117 36.4218 50.6423C36.3527 50.4335 36.2709 50.2305 36.1758 50.0328C36.0813 49.8356 35.974 49.6453 35.8552 49.4631C35.7363 49.2803 35.6064 49.1067 35.4655 48.9418C35.324 48.7775 35.1736 48.6229 35.0128 48.4793C34.8519 48.3358 34.6833 48.2037 34.5053 48.0832C34.3279 47.9627 34.1438 47.8549 33.9526 47.7603C33.7618 47.6651 33.5651 47.5838 33.3639 47.5164C33.1626 47.4483 32.9576 47.3947 32.7492 47.3555C32.5408 47.3163 32.3313 47.2915 32.1196 47.2811C31.9084 47.2707 31.6973 47.2748 31.4861 47.2938C31.2755 47.3123 31.0666 47.3457 30.8598 47.3936C30.6531 47.4414 30.4502 47.5031 30.2518 47.5786C30.0528 47.6548 29.8599 47.7436 29.6725 47.8462C29.4845 47.9488 29.3043 48.0636 29.1319 48.191C28.9589 48.3185 28.7947 48.4574 28.6394 48.6073C28.4846 48.7578 28.3392 48.9176 28.2043 49.0883L25.5367 52.3935L22.3804 48.0284C22.4229 47.9586 22.4821 47.9079 22.5224 47.8364L30.3375 33.6976L34.5822 32.1465C35.4141 31.8443 36.2675 31.6454 37.1437 31.5491C38.0193 31.4522 38.8943 31.4614 39.7682 31.575L44.6558 32.2116L40.6449 34.8399C40.4879 34.9431 40.3354 35.0532 40.1883 35.1709C40.0413 35.2891 39.8992 35.4136 39.7632 35.5451C39.6273 35.6766 39.4968 35.8144 39.373 35.9585C39.2492 36.1027 39.132 36.252 39.0214 36.4077C38.9109 36.5628 38.807 36.7237 38.7108 36.8886C38.6146 37.0541 38.5256 37.2242 38.4443 37.3978C38.3631 37.5719 38.2896 37.7495 38.2243 37.9306C38.1586 38.1116 38.1016 38.2956 38.0524 38.4824C38.0032 38.6692 37.9623 38.8578 37.9297 39.0481C37.8977 39.2389 37.8733 39.4304 37.8584 39.6235C37.8429 39.8161 37.8363 40.0093 37.838 40.2031C37.8396 40.3968 37.8501 40.59 37.8689 40.7826C37.8883 40.9746 37.9153 41.166 37.9513 41.3557C37.9877 41.546 38.032 41.7334 38.0845 41.9191C38.137 42.1048 38.1978 42.2875 38.2669 42.4675C38.3354 42.6468 38.4123 42.8232 38.4968 42.9951C38.5814 43.1675 38.6732 43.3353 38.7727 43.499C38.8722 43.6622 38.9789 43.8208 39.0922 43.9736C39.206 44.127 39.326 44.274 39.4526 44.4159C39.5792 44.5571 39.7118 44.6921 39.85 44.8212C39.9888 44.9498 40.133 45.0715 40.2823 45.1862C40.4315 45.301 40.5858 45.4082 40.745 45.508C40.9041 45.6077 41.0672 45.7 41.2342 45.7842C41.4011 45.8678 41.5719 45.9439 41.7455 46.0114C41.9196 46.0789 42.0959 46.1382 42.275 46.1884C42.4541 46.2392 42.6354 46.2807 42.8178 46.3141C43.0008 46.347 43.1849 46.3712 43.37 46.3862C43.5547 46.4018 43.7398 46.4081 43.9256 46.4052C44.1113 46.4023 44.2959 46.3908 44.4806 46.37C44.6652 46.3499 44.8481 46.3205 45.03 46.2818C45.2124 46.2438 45.3921 46.1971 45.5695 46.1411C45.7475 46.0852 45.9222 46.0212 46.0941 45.9485L56.2191 41.6602L69.6221 53.7035C69.7044 53.782 69.7785 53.8679 69.8443 53.9619C69.9101 54.0553 69.9664 54.1545 70.014 54.26C70.061 54.3649 70.098 54.4739 70.1245 54.5869C70.1511 54.6994 70.1671 54.8141 70.1726 54.93C70.1776 55.0459 70.1721 55.1613 70.1555 55.2766C70.1389 55.3913 70.1118 55.5032 70.0742 55.6128C70.0372 55.7217 69.9897 55.8267 69.9322 55.9259C69.8752 56.0256 69.8095 56.1185 69.7348 56.2049H69.7282ZM72.0559 51.6871C71.942 51.5377 71.8199 51.3959 71.6894 51.2621L57.5297 38.5453C57.4214 38.4478 57.302 38.3677 57.1721 38.3042C57.0422 38.2408 56.9062 38.197 56.7653 38.1728C56.6237 38.1485 56.4817 38.1445 56.3391 38.1612C56.1965 38.178 56.0588 38.2143 55.9262 38.2702L44.9244 42.9328C44.7586 43.0037 44.5878 43.0573 44.4126 43.0948C44.2373 43.1323 44.0599 43.1525 43.8814 43.1559C43.7023 43.1588 43.5248 43.1444 43.3479 43.1133C43.1716 43.0816 42.9997 43.0337 42.8316 42.9685C42.6642 42.9034 42.5033 42.8232 42.3496 42.7269C42.1965 42.6312 42.0528 42.5211 41.919 42.3971C41.7853 42.2731 41.6637 42.1371 41.5537 41.99C41.4442 41.8424 41.3486 41.685 41.2668 41.5189C41.1855 41.3528 41.1192 41.1804 41.0683 41.0011C41.0175 40.8223 40.9832 40.6401 40.965 40.4545C40.9467 40.2688 40.9445 40.0825 40.9594 39.8969C40.9744 39.7106 41.0059 39.5273 41.0534 39.3473C41.1009 39.1674 41.164 38.9939 41.2424 38.8261C41.3209 38.6583 41.4138 38.4997 41.5205 38.3498C41.6277 38.1999 41.7466 38.062 41.8781 37.9352C42.0097 37.8083 42.1517 37.6959 42.3032 37.5967L49.2719 33.0397C49.7274 32.7415 50.2006 32.478 50.6915 32.2491C51.1823 32.0202 51.6864 31.8282 52.2027 31.6731C52.7196 31.5179 53.2441 31.4015 53.7764 31.323C54.3088 31.2446 54.8438 31.2054 55.3817 31.206H60.5302C62.0049 31.2048 63.4272 31.4897 64.797 32.0617L69.9233 34.2021L76.4322 45.9618L72.0559 51.6871ZM84.3168 45.0473C84.2638 45.256 84.1742 45.4457 84.0482 45.617C83.9222 45.7882 83.7696 45.9278 83.5899 46.035L82.3108 46.8048C82.2218 46.8584 82.129 46.9023 82.0322 46.9363C81.935 46.9709 81.836 46.9951 81.7343 47.0089C81.6326 47.0228 81.5309 47.0262 81.4286 47.0193C81.3264 47.0124 81.2258 46.9951 81.1268 46.9674C81.0279 46.9397 80.9322 46.9023 80.8405 46.855C80.7487 46.8077 80.6619 46.7518 80.5807 46.6866C80.4994 46.6215 80.4254 46.5488 80.3579 46.4686C80.2899 46.3879 80.2308 46.3014 80.1794 46.2092L72.02 31.4695C71.9691 31.3767 71.9271 31.2798 71.8939 31.1789C71.8608 31.0774 71.8381 30.9742 71.8243 30.8681C71.811 30.762 71.8077 30.6559 71.8143 30.5492C71.821 30.4425 71.8376 30.3376 71.8641 30.2344C71.8906 30.1312 71.9266 30.032 71.9719 29.9357C72.0172 29.84 72.0714 29.75 72.1333 29.6653C72.1958 29.5799 72.2654 29.5026 72.3428 29.4323C72.4196 29.3619 72.5025 29.2997 72.591 29.246L73.8717 28.4751C74.1133 28.3286 74.3731 28.2554 74.6523 28.2554C74.7899 28.256 74.9259 28.2744 75.0591 28.3119C75.2592 28.3678 75.4411 28.4613 75.6047 28.5927C75.7688 28.7242 75.9021 28.8833 76.0049 29.0708L84.161 43.807C84.2654 43.9944 84.3318 44.1956 84.3588 44.4107C84.3854 44.6258 84.3716 44.838 84.3168 45.0473Z" fill="white"/>
</svg>
