<svg width="66" height="75" viewBox="0 0 66 75" fill="none" xmlns="http://www.w3.org/2000/svg">
<path d="M52.4012 10.7885H13.4353V14.1389H52.4012V10.7885Z" fill="#113C7B"/>
<path d="M32.9182 24.5421C29.3066 24.5331 25.7824 23.4302 22.8099 21.3788C19.8374 19.3274 17.5561 16.4236 16.2665 13.05L19.3991 11.8606C20.439 14.6047 22.2892 16.9673 24.704 18.6346C27.1188 20.3019 29.9838 21.1948 32.9182 21.1948C35.8527 21.1948 38.7177 20.3019 41.1325 18.6346C43.5472 16.9673 45.3975 14.6047 46.4373 11.8606L49.57 13.0333C48.2831 16.41 46.0029 19.3173 43.0302 21.3719C40.0575 23.4265 36.5319 24.5318 32.9182 24.5421Z" fill="#113C7B"/>
<path d="M32.9182 14.1389C31.52 14.1389 30.1532 13.7243 28.9907 12.9475C27.8281 12.1707 26.922 11.0666 26.3869 9.77484C25.8518 8.48306 25.7118 7.06163 25.9846 5.69028C26.2574 4.31894 26.9307 3.05928 27.9194 2.0706C28.9081 1.08192 30.1677 0.408618 31.5391 0.135841C32.9104 -0.136936 34.3318 0.00306309 35.6236 0.538134C36.9154 1.07321 38.0195 1.97932 38.7963 3.14188C39.5731 4.30445 39.9877 5.67126 39.9877 7.06947C39.9877 8.94441 39.2429 10.7426 37.9171 12.0683C36.5913 13.3941 34.7932 14.1389 32.9182 14.1389ZM32.9182 3.36721C32.182 3.36722 31.4623 3.58577 30.8503 3.99516C30.2384 4.40456 29.7617 4.98638 29.4808 5.66691C29.1998 6.34745 29.1271 7.09608 29.272 7.81795C29.4168 8.53982 29.7727 9.20245 30.2945 9.72189C30.8163 10.2413 31.4805 10.5942 32.203 10.7358C32.9255 10.8774 33.6738 10.8014 34.3531 10.5173C35.0324 10.2333 35.612 9.75397 36.0187 9.14018C36.4253 8.5264 36.6406 7.80572 36.6373 7.06947C36.6373 6.58187 36.5409 6.09907 36.3538 5.6488C36.1667 5.19852 35.8925 4.78964 35.547 4.44564C35.2014 4.10163 34.7913 3.82928 34.3402 3.64421C33.8891 3.45914 33.4058 3.36501 32.9182 3.36721Z" fill="#113C7B"/>
<path d="M56.3715 18.0925C55.2582 18.0925 54.1699 17.7624 53.2443 17.1439C52.3186 16.5254 51.5972 15.6463 51.1711 14.6177C50.7451 13.5892 50.6337 12.4575 50.8508 11.3656C51.068 10.2737 51.6041 9.27076 52.3913 8.48357C53.1785 7.69637 54.1815 7.16028 55.2733 6.94309C56.3652 6.72591 57.497 6.83737 58.5255 7.2634C59.554 7.68943 60.4331 8.41088 61.0516 9.33653C61.6701 10.2622 62.0002 11.3504 62.0002 12.4637C62.0002 13.9565 61.4072 15.3882 60.3516 16.4438C59.296 17.4994 57.8643 18.0925 56.3715 18.0925ZM56.3715 10.1854C55.9208 10.1854 55.4804 10.319 55.1057 10.5694C54.731 10.8197 54.439 11.1755 54.2666 11.5918C54.0941 12.0081 54.049 12.4662 54.1369 12.9082C54.2248 13.3501 54.4418 13.7561 54.7604 14.0747C55.0791 14.3933 55.485 14.6103 55.927 14.6982C56.3689 14.7861 56.827 14.741 57.2433 14.5686C57.6596 14.3962 58.0155 14.1041 58.2658 13.7295C58.5161 13.3548 58.6498 12.9143 58.6498 12.4637C58.652 12.1639 58.5946 11.8666 58.4809 11.5892C58.3672 11.3118 58.1994 11.0597 57.9874 10.8477C57.7754 10.6357 57.5234 10.468 57.246 10.3543C56.9685 10.2406 56.6713 10.1832 56.3715 10.1854Z" fill="#113C7B"/>
<path d="M9.46504 18.0925C8.35178 18.0925 7.26351 17.7624 6.33787 17.1439C5.41222 16.5254 4.69077 15.6463 4.26474 14.6177C3.83871 13.5892 3.72724 12.4575 3.94443 11.3656C4.16162 10.2737 4.6977 9.27076 5.4849 8.48357C6.2721 7.69637 7.27505 7.16028 8.36693 6.94309C9.4588 6.72591 10.5906 6.83737 11.6191 7.2634C12.6476 7.68943 13.5267 8.41088 14.1452 9.33653C14.7637 10.2622 15.0938 11.3504 15.0938 12.4637C15.0894 13.9552 14.4949 15.3843 13.4403 16.439C12.3857 17.4936 10.9565 18.0881 9.46504 18.0925ZM9.46504 10.1854C9.01444 10.1854 8.57395 10.319 8.19928 10.5694C7.82462 10.8197 7.5326 11.1755 7.36016 11.5918C7.18772 12.0081 7.1426 12.4662 7.23051 12.9082C7.31842 13.3501 7.53541 13.7561 7.85403 14.0747C8.17266 14.3933 8.57862 14.6103 9.02057 14.6982C9.46252 14.7861 9.92061 14.741 10.3369 14.5686C10.7532 14.3962 11.109 14.1041 11.3594 13.7295C11.6097 13.3548 11.7434 12.9143 11.7434 12.4637C11.7434 11.8595 11.5033 11.28 11.0761 10.8527C10.6488 10.4254 10.0693 10.1854 9.46504 10.1854Z" fill="#113C7B"/>
<path d="M54.7206 15.9621L46.8929 45.0131L50.128 45.8848L57.9557 16.8338L54.7206 15.9621Z" fill="#113C7B"/>
<path d="M57.9668 15.9615L54.7318 16.8332L62.5594 45.8842L65.7945 45.0126L57.9668 15.9615Z" fill="#113C7B"/>
<path d="M64.1613 47.1242H48.5146C48.0703 47.1242 47.6442 46.9477 47.3301 46.6335C47.0159 46.3194 46.8394 45.8933 46.8394 45.449C46.8394 45.0047 47.0159 44.5786 47.3301 44.2644C47.6442 43.9502 48.0703 43.7737 48.5146 43.7737H64.1613C64.6056 43.7737 65.0317 43.9502 65.3458 44.2644C65.66 44.5786 65.8365 45.0047 65.8365 45.449C65.8365 45.8933 65.66 46.3194 65.3458 46.6335C65.0317 46.9477 64.6056 47.1242 64.1613 47.1242Z" fill="#113C7B"/>
<path d="M56.3715 54.579C53.9068 54.6193 51.5266 53.6811 49.7524 51.9697C47.9783 50.2584 46.9548 47.9135 46.9064 45.449C46.9064 45.0047 47.0829 44.5786 47.3971 44.2644C47.7112 43.9502 48.1373 43.7737 48.5816 43.7737C49.0259 43.7737 49.452 43.9502 49.7662 44.2644C50.0804 44.5786 50.2569 45.0047 50.2569 45.449C50.3389 47.0175 51.0198 48.4947 52.1591 49.5759C53.2984 50.6571 54.8092 51.2599 56.3798 51.2599C57.9505 51.2599 59.4613 50.6571 60.6005 49.5759C61.7398 48.4947 62.4207 47.0175 62.5028 45.449C62.5028 45.0047 62.6793 44.5786 62.9935 44.2644C63.3076 43.9502 63.7337 43.7737 64.178 43.7737C64.6223 43.7737 65.0484 43.9502 65.3626 44.2644C65.6768 44.5786 65.8532 45.0047 65.8532 45.449C65.8048 47.9165 64.7791 50.2639 63.0013 51.9757C61.2235 53.6875 58.839 54.6238 56.3715 54.579Z" fill="#113C7B"/>
<path d="M8.00676 15.8611L0.184108 45.0456L3.43405 45.9167L11.2567 16.7322L8.00676 15.8611Z" fill="#113C7B"/>
<path d="M11.2121 16.0425L7.9622 16.9136L15.7848 46.0981L19.0348 45.227L11.2121 16.0425Z" fill="#113C7B"/>
<path d="M17.3051 47.1242H1.67523C1.23093 47.1242 0.80483 46.9477 0.490663 46.6335C0.176497 46.3194 0 45.8933 0 45.449C0 45.0047 0.176497 44.5786 0.490663 44.2644C0.80483 43.9502 1.23093 43.7737 1.67523 43.7737H17.3051C17.7494 43.7737 18.1755 43.9502 18.4897 44.2644C18.8038 44.5786 18.9803 45.0047 18.9803 45.449C18.9803 45.8933 18.8038 46.3194 18.4897 46.6335C18.1755 46.9477 17.7494 47.1242 17.3051 47.1242Z" fill="#113C7B"/>
<path d="M9.46504 54.579C7.00035 54.6193 4.62016 53.6811 2.84601 51.9697C1.07186 50.2584 0.0484377 47.9135 0 45.449C0 45.0047 0.176497 44.5786 0.490663 44.2644C0.80483 43.9502 1.23093 43.7737 1.67523 43.7737C2.11953 43.7737 2.54563 43.9502 2.85979 44.2644C3.17396 44.5786 3.35046 45.0047 3.35046 45.449C3.37215 46.23 3.54755 46.9992 3.86664 47.7124C4.18573 48.4257 4.64224 49.0691 5.2101 49.6058C5.77795 50.1426 6.44601 50.5621 7.1761 50.8406C7.90619 51.119 8.68399 51.2508 9.46504 51.2285C11.0441 51.2736 12.5765 50.6904 13.7261 49.6068C14.8756 48.5233 15.5482 47.0279 15.5964 45.449C15.5964 45.0047 15.7729 44.5786 16.087 44.2644C16.4012 43.9502 16.8273 43.7737 17.2716 43.7737C17.7159 43.7737 18.142 43.9502 18.4562 44.2644C18.7703 44.5786 18.9468 45.0047 18.9468 45.449C18.8984 47.9165 17.8727 50.2639 16.0949 51.9757C14.3171 53.6875 11.9326 54.6238 9.46504 54.579Z" fill="#113C7B"/>
<path d="M31.2909 22.4442L20.46 62.8655L23.6963 63.7326L34.5272 23.3113L31.2909 22.4442Z" fill="#113C7B"/>
<path d="M34.5247 22.4445L31.2884 23.3117L42.1193 63.733L45.3556 62.8658L34.5247 22.4445Z" fill="#113C7B"/>
<path d="M55.5841 75H10.2524V72.0516C10.2568 69.2879 11.3555 66.6384 13.3082 64.6825C15.2609 62.7267 17.9086 61.6238 20.6723 61.6149H45.1642C47.9279 61.6238 50.5756 62.7267 52.5283 64.6825C54.481 66.6384 55.5797 69.2879 55.5841 72.0516V75ZM13.6029 71.6495H52.2169C52.1185 69.8435 51.3333 68.1434 50.0221 66.8976C48.7109 65.6518 46.9729 64.9545 45.1642 64.9486H20.6723C18.8619 64.9543 17.122 65.651 15.8081 66.8964C14.4941 68.1419 13.7053 69.842 13.6029 71.6495Z" fill="#113C7B"/>
</svg>
