<svg width="75" height="55" viewBox="0 0 75 55" fill="none" xmlns="http://www.w3.org/2000/svg">
<path d="M16.1349 17.1014C16.9626 17.1014 17.6341 16.4637 17.6341 15.6772V7.13462C17.6341 6.3486 16.9626 5.71094 16.1349 5.71094C15.3067 5.71094 14.6358 6.3486 14.6358 7.13462V9.98247H11.637V7.13462C11.637 6.3486 10.966 5.71094 10.1378 5.71094C9.31014 5.71094 8.63867 6.3486 8.63867 7.13462V15.6772C8.63867 16.4637 9.31014 17.1014 10.1378 17.1014C10.966 17.1014 11.637 16.4637 11.637 15.6772V12.8298H14.6358V15.6772C14.6358 16.4637 15.3067 17.1014 16.1349 17.1014Z" fill="currentColor"/>
<path d="M19.8828 9.98247V12.8298C19.8828 15.185 21.9003 17.1014 24.3803 17.1014C26.8607 17.1014 28.8782 15.185 28.8782 12.8298V9.98247C28.8782 7.62685 26.8607 5.71094 24.3803 5.71094C21.9003 5.71094 19.8828 7.62685 19.8828 9.98247ZM25.8794 9.98247V12.8298C25.8794 13.6149 25.2069 14.2535 24.3803 14.2535C23.5541 14.2535 22.8811 13.6149 22.8811 12.8298V9.98247C22.8811 9.19743 23.5541 8.55879 24.3803 8.55879C25.2069 8.55879 25.8794 9.19743 25.8794 9.98247Z" fill="currentColor"/>
<path d="M31.127 15.6772C31.127 16.4637 31.7979 17.1014 32.6261 17.1014H37.1235C37.9517 17.1014 38.6227 16.4637 38.6227 15.6772C38.6227 14.8912 37.9517 14.2535 37.1235 14.2535H34.1252V7.13462C34.1252 6.3486 33.4538 5.71094 32.6261 5.71094C31.7979 5.71094 31.127 6.3486 31.127 7.13462V15.6772Z" fill="currentColor"/>
<path d="M28.1291 37.0348C27.3014 37.0348 26.6299 37.6725 26.6299 38.4585V41.3063H23.6316V38.4585C23.6316 37.6725 22.9602 37.0348 22.1325 37.0348C21.3043 37.0348 20.6328 37.6725 20.6328 38.4585V47.0011C20.6328 47.7876 21.3043 48.4247 22.1325 48.4247C22.9602 48.4247 23.6316 47.7876 23.6316 47.0011V44.1537H26.6299V47.0011C26.6299 47.7876 27.3014 48.4247 28.1291 48.4247C28.9572 48.4247 29.6282 47.7876 29.6282 47.0011V38.4585C29.6282 37.6725 28.9572 37.0348 28.1291 37.0348Z" fill="currentColor"/>
<path d="M47.6182 45.5774H44.6194V38.4585C44.6194 37.6725 43.9489 37.0348 43.1202 37.0348C42.2915 37.0348 41.6211 37.6725 41.6211 38.4585V47.0011C41.6211 47.7876 42.2915 48.4247 43.1202 48.4247H47.6182C48.4464 48.4247 49.1173 47.7876 49.1173 47.0011C49.1173 46.215 48.4464 45.5774 47.6182 45.5774Z" fill="currentColor"/>
<path d="M64.8607 37.0348C62.3808 37.0348 60.3633 38.9507 60.3633 41.3063V44.1537C60.3633 46.5088 62.3808 48.4247 64.8607 48.4247C67.3407 48.4247 69.3587 46.5088 69.3587 44.1537V41.3063C69.3587 38.9507 67.3407 37.0348 64.8607 37.0348ZM66.3599 44.1537C66.3599 44.9387 65.6879 45.5774 64.8607 45.5774C64.0336 45.5774 63.3616 44.9387 63.3616 44.1537V41.3063C63.3616 40.5213 64.0336 39.8822 64.8607 39.8822C65.6879 39.8822 66.3599 40.5213 66.3599 41.3063V44.1537Z" fill="currentColor"/>
<path d="M57.3643 45.5774H54.366V38.4585C54.366 37.6725 53.6956 37.0348 52.8668 37.0348C52.0381 37.0348 51.3672 37.6725 51.3672 38.4585V47.0011C51.3672 47.7876 52.0381 48.4247 52.8668 48.4247H57.3643C58.193 48.4247 58.8634 47.7876 58.8634 47.0011C58.8634 46.215 58.193 45.5774 57.3643 45.5774Z" fill="currentColor"/>
<path d="M43.7564 16.2254L43.9966 15.6772H48.2451L48.4853 16.2254C48.8034 16.9491 49.6859 17.292 50.446 16.9914C51.2101 16.6889 51.5717 15.8552 51.2526 15.1295L47.5045 6.58694C47.2715 6.05677 46.7255 5.71094 46.1206 5.71094C45.5162 5.71094 44.9703 6.05677 44.7372 6.58694L40.9891 15.1295C40.67 15.8552 41.0316 16.6889 41.7958 16.9914C42.5599 17.295 43.4373 16.9516 43.7564 16.2254ZM46.1206 10.8366L46.9954 12.8298H45.2463L46.1206 10.8366Z" fill="currentColor"/>
<path d="M37.8741 39.8822C38.7017 39.8822 39.3732 39.245 39.3732 38.4585C39.3732 37.6725 38.7017 37.0348 37.8741 37.0348H33.3761C32.5484 37.0348 31.877 37.6725 31.877 38.4585V47.0011C31.877 47.7876 32.5484 48.4247 33.3761 48.4247H37.8741C38.7017 48.4247 39.3732 47.7876 39.3732 47.0011C39.3732 46.215 38.7017 45.5774 37.8741 45.5774H34.8758V44.1537H37.8741C38.7017 44.1537 39.3732 43.516 39.3732 42.73C39.3732 41.9435 38.7017 41.3063 37.8741 41.3063H34.8758V39.8822H37.8741Z" fill="currentColor"/>
<mask id="mask0_1568_6093" style="mask-type:luminance" maskUnits="userSpaceOnUse" x="0" y="0" width="61" height="26">
<path d="M0 0H60.0519V25.6983H0V0Z" fill="white"/>
</mask>
<g mask="url(#mask0_1568_6093)">
<path d="M4.51502 22.7953H45.0206C45.0206 22.7953 47.6988 25.2414 47.7029 25.2452C48.2822 25.7744 49.2056 25.772 49.7819 25.2452L52.4641 22.7953H55.4891C57.9695 22.7953 59.987 20.8793 59.987 18.5242V4.28642C59.987 1.93129 57.9695 0.0148926 55.4891 0.0148926H35.9991C35.1709 0.0148926 34.5 0.652558 34.5 1.43906C34.5 2.22508 35.1709 2.86274 35.9991 2.86274H55.4891C56.3162 2.86274 56.9882 3.50138 56.9882 4.28642V18.5242C56.9882 19.3088 56.3162 19.9479 55.4891 19.9479H51.8613C51.4731 19.9479 51.1012 20.0904 50.8216 20.3453L48.7426 22.2442L46.6637 20.3453C46.3841 20.0904 46.0122 19.9479 45.624 19.9479H4.51502C3.68887 19.9479 3.01587 19.3088 3.01587 18.5242V4.28642C3.01587 3.50138 3.68887 2.86274 4.51502 2.86274H24.0049C24.8331 2.86274 25.5046 2.22508 25.5046 1.43906C25.5046 0.652558 24.8331 0.0148926 24.0049 0.0148926H4.51502C2.03505 0.0148926 0.0175781 1.93129 0.0175781 4.28642V18.5242C0.0175781 20.8793 2.03505 22.7953 4.51502 22.7953Z" fill="currentColor"/>
</g>
<mask id="mask1_1568_6093" style="mask-type:luminance" maskUnits="userSpaceOnUse" x="14" y="28" width="61" height="27">
<path d="M14.9473 28.4412H74.9992V54.1686H14.9473V28.4412Z" fill="white"/>
</mask>
<g mask="url(#mask1_1568_6093)">
<path d="M70.4818 31.3417H29.9813L27.2923 28.8913C26.7125 28.3616 25.7962 28.3616 25.2165 28.8913L22.5275 31.3417H19.5077C17.0277 31.3417 15.0098 33.2577 15.0098 35.6133V49.8511C15.0098 52.2062 17.0277 54.1221 19.5077 54.1221H70.4818C72.9617 54.1221 74.9792 52.2062 74.9792 49.8511V35.6133C74.9792 33.2577 72.9617 31.3417 70.4818 31.3417ZM71.9809 49.8511C71.9809 50.6356 71.3089 51.2748 70.4818 51.2748H19.5077C18.6811 51.2748 18.0086 50.6356 18.0086 49.8511V35.6133C18.0086 34.8282 18.6811 34.1896 19.5077 34.1896H23.1304C23.5181 34.1896 23.8899 34.0476 24.1685 33.7927L26.2541 31.8919L28.3397 33.7927C28.6189 34.0476 28.9907 34.1896 29.3779 34.1896H70.4818C71.3089 34.1896 71.9809 34.8282 71.9809 35.6133V49.8511Z" fill="currentColor"/>
</g>
<path d="M64.4855 12.8297H65.9846C67.6379 12.8297 68.9834 14.1069 68.9834 15.677V23.6301L68.544 23.2133C67.9586 22.6568 67.0095 22.6568 66.4241 23.2133C65.8386 23.7692 65.8386 24.6705 66.4241 25.2264C66.4241 25.2264 69.4224 28.0738 69.4229 28.0743C70.0052 28.6273 70.9599 28.6273 71.5428 28.0738L74.5411 25.2264C75.1265 24.6705 75.1265 23.7692 74.5411 23.2133C73.9551 22.6568 73.0066 22.6568 72.4212 23.2133L71.9817 23.6301V15.677C71.9817 12.5369 69.2923 9.9823 65.9846 9.9823H64.4855C63.6568 9.9823 62.9863 10.6195 62.9863 11.406C62.9863 12.192 63.6568 12.8297 64.4855 12.8297Z" fill="currentColor"/>
<mask id="mask2_1568_6093" style="mask-type:luminance" maskUnits="userSpaceOnUse" x="28" y="0" width="4" height="3">
<path d="M28.4531 0H31.5999V2.91157H28.4531V0Z" fill="white"/>
</mask>
<g mask="url(#mask2_1568_6093)">
<path d="M31.5022 1.43906C31.5022 1.53245 31.493 1.62486 31.4735 1.71679C31.4546 1.80824 31.4259 1.89725 31.3885 1.98382C31.3506 2.06992 31.3045 2.15212 31.2497 2.22994C31.1949 2.30776 31.1329 2.37975 31.0633 2.44541C30.9936 2.51156 30.9178 2.5709 30.8359 2.62246C30.7544 2.67451 30.6679 2.71828 30.5767 2.75428C30.486 2.79027 30.3923 2.81702 30.2955 2.8355C30.1992 2.8535 30.1014 2.86274 30.0031 2.86274C29.9047 2.86274 29.8074 2.8535 29.7106 2.8355C29.6143 2.81702 29.5206 2.79027 29.4294 2.75428C29.3382 2.71828 29.2522 2.67451 29.1703 2.62246C29.0883 2.5709 29.0125 2.51156 28.9428 2.44541C28.8732 2.37975 28.8112 2.30776 28.7564 2.22994C28.7021 2.15212 28.6555 2.06992 28.6181 1.98382C28.5802 1.89725 28.5521 1.80824 28.5326 1.71679C28.5136 1.62486 28.5039 1.53245 28.5039 1.43906C28.5039 1.34519 28.5136 1.25277 28.5326 1.16133C28.5521 1.0694 28.5802 0.980389 28.6181 0.893811C28.6555 0.807719 28.7021 0.725518 28.7564 0.647694C28.8112 0.570357 28.8732 0.49837 28.9428 0.432221C29.0125 0.366071 29.0883 0.307217 29.1703 0.255172C29.2522 0.203128 29.3382 0.159352 29.4294 0.123359C29.5206 0.087852 29.6143 0.0606138 29.7106 0.0426172C29.8074 0.024134 29.9047 0.0148926 30.0031 0.0148926C30.1014 0.0148926 30.1992 0.024134 30.2955 0.0426172C30.3923 0.0606138 30.486 0.087852 30.5767 0.123359C30.6679 0.159352 30.7544 0.203128 30.8359 0.255172C30.9178 0.307217 30.9936 0.366071 31.0633 0.432221C31.1329 0.49837 31.1949 0.570357 31.2497 0.647694C31.3045 0.725518 31.3506 0.807719 31.3885 0.893811C31.4259 0.980389 31.4546 1.0694 31.4735 1.16133C31.493 1.25277 31.5022 1.34519 31.5022 1.43906Z" fill="currentColor"/>
</g>
<path d="M10.5122 41.3067H9.01309C7.35978 41.3067 6.01429 40.0294 6.01429 38.4588V30.5058L6.45374 30.9231C7.03916 31.479 7.98823 31.479 8.57365 30.9231C9.15958 30.3667 9.15958 29.4659 8.57365 28.9099C8.57365 28.9099 5.57535 26.0621 5.57484 26.0621C4.99249 25.509 4.03779 25.5085 3.45545 26.0621L0.456643 28.9099C-0.128777 29.4659 -0.128777 30.3667 0.456643 30.9231C1.04257 31.479 1.99113 31.479 2.57655 30.9231L3.016 30.5058V38.4588C3.016 41.599 5.70545 44.1541 9.01309 44.1541H10.5122C11.3409 44.1541 12.0114 43.5164 12.0114 42.7304C12.0114 41.9439 11.3409 41.3067 10.5122 41.3067Z" fill="currentColor"/>
</svg>
