<svg width="58" height="76" viewBox="0 0 58 76" fill="none" xmlns="http://www.w3.org/2000/svg">
<path d="M54.1355 28.3615C54.1355 13.7641 41.4243 2.04617 26.245 3.46061C11.4507 4.83893 1.15394 19.0304 3.7717 33.6532C5.0831 40.9803 9.12035 45.818 14.2779 51.435C19.0412 56.6225 24.7013 62.414 28.729 71.1157C33.2155 61.4277 39.7716 55.2826 44.8156 49.6352C50.187 43.6212 54.1355 37.967 54.1355 28.3615ZM43.7042 28.3615C43.7041 20.3388 37.2081 13.8106 29.1168 13.6084L28.73 13.6036C20.4604 13.6036 13.7558 20.2113 13.7558 28.3615L13.7606 28.7428C13.9625 36.5913 20.3807 42.9157 28.3432 43.1147L28.73 43.1194C36.8708 43.1194 43.4943 36.7179 43.6994 28.7428L43.7042 28.3615ZM46.6528 28.3615C46.6528 38.1515 38.607 46.0479 28.73 46.0479C18.8535 46.0479 10.8072 38.1516 10.8072 28.3615C10.8073 18.5725 18.8535 10.6751 28.73 10.6751C38.607 10.6752 46.6527 18.5727 46.6528 28.3615ZM57.0841 28.3615C57.0841 49.6822 39.076 53.6819 30.6064 74.171L30.5364 74.3225C29.7946 75.7856 27.6607 75.7771 26.9198 74.314L26.8506 74.1624C19.3293 55.9772 4.29341 50.7843 1.01605 34.9288L0.869196 34.1661C-1.98606 18.2172 8.9985 2.58845 25.194 0.627434L25.9695 0.544498C42.8702 -1.03036 57.084 12.0305 57.0841 28.3615Z" fill="white"/>
<path d="M56.6674 28.3615C56.6674 12.2812 42.6705 -0.593575 26.0115 0.956753L25.2384 1.03813L25.2425 1.0422C9.29851 2.97378 -1.53121 18.3649 1.28007 34.0866L1.42656 34.8516C3.04078 42.6518 7.5405 47.8372 12.6489 53.39C17.7505 58.9355 23.443 64.8322 27.2363 74.0036L27.2892 74.1257C27.8754 75.2832 29.5661 75.2894 30.1578 74.146L30.227 73.9955C34.4964 63.6775 41.1795 57.4916 46.7106 51.2985C52.2441 45.1027 56.6674 38.8702 56.6674 28.3615ZM53.7174 28.3615C53.7173 14.0139 41.223 2.48252 26.2841 3.87423C11.7451 5.22877 1.60562 19.1842 4.18128 33.578C5.46956 40.776 9.42984 45.5369 14.5857 51.1521C19.1965 56.1735 24.698 61.8211 28.7296 70.1584C33.2348 60.8483 39.623 54.8239 44.5052 49.3576C49.8497 43.3737 53.7174 37.8159 53.7174 28.3615ZM46.2345 28.3615C46.2344 18.8086 38.3824 11.0927 28.7296 11.0927C19.0776 11.0929 11.2248 18.8086 11.2247 28.3615C11.2247 37.9155 19.0775 45.6302 28.7296 45.6304C38.3824 45.6304 46.2345 37.9155 46.2345 28.3615ZM28.7337 13.1882L29.1202 13.1923H29.1284C37.439 13.4006 44.1226 20.1071 44.1227 28.3615L44.1145 28.7481C43.9035 36.9539 37.0914 43.5348 28.7296 43.5349L28.339 43.5308H28.3309C20.1528 43.3255 13.5524 36.8271 13.3447 28.7522L13.3406 28.3656C13.3407 19.9797 20.2399 13.1884 28.7337 13.1882ZM28.7255 14.0183C20.6824 14.0206 14.1708 20.4486 14.1707 28.3615L14.1788 28.7318L14.2114 29.4439C14.7634 36.733 20.8519 42.5092 28.3553 42.6967L28.7296 42.7007C36.6494 42.7007 43.0853 36.4761 43.2845 28.7318L43.2885 28.3615L43.2682 27.6373C42.8915 20.1816 36.7332 14.2179 29.108 14.0264L28.7255 14.0183ZM47.0686 28.3615C47.0686 38.3874 38.8308 46.4645 28.7296 46.4646C18.6291 46.4644 10.3906 38.3874 10.3906 28.3615C10.3907 18.3367 18.6291 10.2587 28.7296 10.2585C38.8308 10.2586 47.0686 18.3367 47.0686 28.3615ZM54.5516 28.3615C54.5516 38.1171 50.5252 43.8676 45.1277 49.911C40.0581 55.5871 33.5612 61.6743 29.108 71.2896L28.7296 72.1075L28.3512 71.2896C24.3558 62.6581 18.7435 56.9148 13.9713 51.7177C8.81262 46.0995 4.69831 41.1835 3.3634 33.7286C0.704753 18.8773 11.158 4.44619 26.2068 3.04415C41.626 1.60771 54.5515 13.5148 54.5516 28.3615ZM57.5016 28.3615C57.5016 39.1728 52.9204 45.6001 47.3331 51.856C41.7459 58.1119 35.1925 64.1682 30.992 74.3291L30.9838 74.3454L30.9147 74.496L30.9065 74.5122C30.0085 76.2804 27.4428 76.2665 26.5486 74.5041L26.5405 74.4878L26.4713 74.3332L26.4672 74.321C22.7393 65.3076 17.1503 59.5165 12.0345 53.9556C6.92697 48.4037 2.27323 43.0654 0.608685 35.0144V35.0062L0.458131 34.2453C-2.43733 18.0718 8.70068 2.20325 25.1448 0.212124L25.9261 0.130743C43.0669 -1.46649 57.5015 11.7809 57.5016 28.3615Z" fill="white"/>
</svg>
