<svg width="100" height="100" viewBox="0 0 100 100" fill="none" xmlns="http://www.w3.org/2000/svg">
<mask id="mask0_1568_2442" style="mask-type:luminance" maskUnits="userSpaceOnUse" x="16" y="12" width="24" height="57">
<path d="M16.667 12.5H39.9059V68.3043H16.667V12.5Z" fill="white"/>
</mask>
<g mask="url(#mask0_1568_2442)">
<path d="M18.2789 68.3008C17.9564 68.3008 17.6366 68.2009 17.3653 68.0076C16.9394 67.7042 16.6855 67.2086 16.6855 66.6797V21.333C16.6855 20.6452 17.1125 20.0319 17.7506 19.8037L37.6983 12.6732C38.186 12.4987 38.7259 12.576 39.1476 12.8799C39.5693 13.1839 39.8194 13.6768 39.8194 14.202V59.2882C39.8194 59.9696 39.4009 60.5785 38.7718 60.8116L18.8241 68.2025C18.6468 68.2686 18.4626 68.3008 18.2789 68.3008ZM19.8717 22.4816V64.3642L36.6333 58.1541V16.49L19.8717 22.4816Z" fill="currentColor"/>
</g>
<mask id="mask1_1568_2442" style="mask-type:luminance" maskUnits="userSpaceOnUse" x="36" y="12" width="24" height="52">
<path d="M36.5283 12.5H59.9023V63.218H36.5283V12.5Z" fill="white"/>
</mask>
<g mask="url(#mask1_1568_2442)">
<path d="M43.8701 63.1848C43.6748 63.1848 43.4764 63.1477 43.2837 63.0704L37.6403 60.7952C37.0328 60.5504 36.6338 59.9533 36.6338 59.2885V14.2023C36.6338 13.6733 36.8876 13.1777 37.3136 12.8743C37.7395 12.5709 38.2836 12.4984 38.7723 12.6789L58.7248 20.0698C59.3539 20.3034 59.7729 20.9118 59.7729 21.5932V42.2862C59.7729 43.1813 59.0594 43.9073 58.1796 43.9073C57.2998 43.9073 56.5863 43.1813 56.5863 42.2862V22.7278L39.82 16.5172V58.1871L44.4575 60.0563C45.2755 60.3861 45.6756 61.3279 45.3515 62.1602C45.104 62.7965 44.5045 63.1848 43.8701 63.1848Z" fill="currentColor"/>
</g>
<mask id="mask2_1568_2442" style="mask-type:luminance" maskUnits="userSpaceOnUse" x="56" y="12" width="24" height="50">
<path d="M56.5234 12.5H79.7624V61.2935H56.5234V12.5Z" fill="white"/>
</mask>
<g mask="url(#mask2_1568_2442)">
<path d="M78.127 61.1699C77.2472 61.1699 76.5337 60.4444 76.5337 59.5493V16.5181L59.7721 22.7282V42.2865C59.7721 43.1817 59.0586 43.9077 58.1793 43.9077C57.2995 43.9077 56.5859 43.1817 56.5859 42.2865V21.5936C56.5859 20.9121 57.005 20.3038 57.6341 20.0707L77.5818 12.6792C78.07 12.4983 78.6147 12.5713 79.0406 12.8747C79.4665 13.1781 79.7198 13.6737 79.7198 14.2026V59.5493C79.7198 60.4444 79.0068 61.1699 78.127 61.1699Z" fill="currentColor"/>
</g>
<path d="M60.9389 78.6564C50.5835 78.6564 42.1592 70.0846 42.1592 59.5491C42.1592 49.0131 50.584 40.4419 60.9389 40.4419C71.2944 40.4419 79.7187 49.0131 79.7187 59.5491C79.7187 70.0846 71.2944 78.6564 60.9389 78.6564ZM60.9389 43.6836C52.3405 43.6836 45.3459 50.8007 45.3459 59.5491C45.3459 68.2976 52.341 75.4147 60.9389 75.4147C69.5374 75.4147 76.5325 68.2976 76.5325 59.5491C76.5325 50.8007 69.5374 43.6836 60.9389 43.6836Z" fill="currentColor"/>
<path d="M85.9063 87.5004C85.4983 87.5004 85.0909 87.342 84.78 87.0257L71.7509 73.7694C71.1286 73.1363 71.1286 72.1101 71.7509 71.477C72.3731 70.8439 73.3817 70.8439 74.0039 71.477L87.0331 84.7334C87.6553 85.3665 87.6553 86.3926 87.0331 87.0257C86.7217 87.3425 86.3142 87.5004 85.9063 87.5004Z" fill="currentColor"/>
<path d="M50.609 61.7129C49.7292 61.7129 49.0156 60.9869 49.0156 60.0918C49.0156 52.8555 54.8042 46.9686 61.9186 46.9686C62.7984 46.9686 63.5114 47.6941 63.5114 48.5898C63.5114 49.4849 62.7984 50.2104 61.9186 50.2104C56.5607 50.2104 52.2023 54.6431 52.2023 60.0918C52.2023 60.9869 51.4888 61.7129 50.609 61.7129Z" fill="currentColor"/>
</svg>
