<svg width="124" height="124" viewBox="0 0 124 124" fill="none" xmlns="http://www.w3.org/2000/svg">
<path d="M111.095 43.1896C112.527 43.2425 113.805 43.2917 114.223 43.3361C114.786 43.3965 115.295 43.7122 115.671 44.0783C116.057 44.4533 116.38 44.9502 116.549 45.4962C116.679 45.9176 116.714 46.3601 116.605 46.7619L116.6 46.757C116.529 47.0465 116.441 47.2673 116.377 47.4279V47.4337C116.369 47.4544 116.359 47.4754 116.352 47.4943C116.357 47.522 116.364 47.5486 116.368 47.5695V47.5744C116.399 47.7561 116.397 47.9158 116.403 48.049C116.525 48.3041 116.817 48.9041 116.873 49.5773L116.877 49.9709C116.877 49.9829 116.868 49.9951 116.867 50.007C117.076 50.398 117.351 50.9758 117.407 51.6359V52.1711C117.356 52.6696 117.166 53.0673 116.892 53.3673C116.554 53.7366 116.148 53.887 116.004 53.9425H115.999C115.971 53.9533 115.941 53.9574 115.914 53.967C115.895 54.1441 115.868 54.3013 115.828 54.4367L115.646 54.9054C115.632 54.9352 115.625 54.9561 115.616 54.9767C115.588 55.0787 115.55 55.1678 115.525 55.2443C115.588 55.4332 115.665 55.6792 115.711 55.9552L115.752 56.5158C115.743 57.0655 115.588 57.5736 115.369 57.9884C115.159 58.3833 114.857 58.7581 114.496 59.0031L114.118 59.1994C113.824 59.3085 113.512 59.3329 113.209 59.3009C112.861 59.2639 112.537 59.1546 112.351 59.0939H112.346C112.324 59.0864 112.293 59.0726 112.265 59.0636C112.021 59.0237 111.855 59.0018 111.72 58.9875C111.712 58.9865 111.704 58.9835 111.696 58.9826V58.9923C111.632 59.1352 111.556 59.3665 111.454 59.6691C111.23 60.333 110.919 61.2657 110.404 61.9953C109.857 62.7673 109.01 63.3988 107.765 63.2668C107.545 63.2434 107.325 63.1919 107.109 63.1252C107.029 63.3879 106.92 63.6581 106.725 63.9074C106.542 64.1407 106.341 64.3085 106.161 64.4318C106.245 64.8333 106.329 65.331 106.236 65.8244C106.147 66.2936 105.919 66.7165 105.52 67.0558L105.06 67.3683C104.813 67.502 104.565 67.5856 104.339 67.6408L103.748 67.7472C103.63 67.7642 103.549 67.7732 103.481 67.7873C103.449 67.7938 103.426 67.803 103.411 67.8078C103.405 67.8096 103.398 67.8066 103.395 67.8078L103.34 68.0744C103.319 68.1709 103.292 68.2827 103.264 68.4025C103.167 68.8172 103.019 69.1477 102.861 69.4123L102.402 70.0373C102.243 70.2288 102.193 70.295 102.165 70.3605C102.119 70.468 102.083 70.5934 102.028 70.7795C101.938 71.0873 101.801 71.57 101.498 72.005C101.172 72.4749 100.677 72.8571 99.9438 73.0451C99.6224 73.1272 99.2943 73.1415 98.9555 73.1056C98.7159 73.0802 98.5004 73.0321 98.3501 72.9992V72.9943C98.2179 72.9661 98.1652 72.9626 98.1333 72.9591C97.9815 72.961 97.8129 72.9835 97.5522 73.0295C97.25 73.0836 96.8462 73.1603 96.3715 73.1603H96.3667C96.3237 73.1603 96.289 73.1641 96.2612 73.1662C96.2596 73.1801 96.2631 73.1984 96.2612 73.2209C96.2563 73.2764 96.2508 73.342 96.2456 73.4279C96.2261 73.7521 96.1984 74.296 95.9838 74.8312C95.8752 75.1028 95.7723 75.3083 95.6958 75.4562C95.6957 75.4562 95.6839 75.472 95.6811 75.5168C95.6782 75.5638 95.6865 75.6392 95.7114 75.7492L95.9077 76.4709C96.0592 76.9774 96.3415 77.89 96.2807 78.7365C96.2488 79.1776 96.1219 79.6634 95.7866 80.0783C95.4425 80.503 94.9416 80.7771 94.3237 80.8957C94.2647 80.907 94.206 80.9069 94.1518 80.9162C94.2786 81.3131 94.4106 81.7317 94.5454 82.1466C94.762 82.8139 94.9689 83.451 95.1411 84.0089C95.2938 84.5042 95.3185 85.0449 95.1108 85.5119C94.8839 86.0203 94.4125 86.355 93.8237 86.38H93.8188C88.1024 86.6097 82.171 86.7754 76.1899 86.8644C65.2595 87.0288 53.809 86.9504 42.1274 86.6427C42.0885 86.8324 42.0311 87.0186 41.9253 87.1877C41.6122 87.6855 41.0661 87.9152 40.4868 87.8537C40.0759 87.8104 37.0693 87.6786 33.5141 87.5207C26.0102 87.1874 14.6065 86.6831 10.8042 86.2795C10.3456 86.2307 9.98534 86.1793 9.71432 86.1281C9.16389 86.0236 8.65458 85.6805 8.27096 85.2599C7.88254 84.8342 7.5912 84.2949 7.47408 83.7462C7.18996 82.4194 7.27646 81.4163 7.81686 80.7648C8.17639 80.3323 8.64046 80.1782 9.04342 80.1291C8.74094 79.766 8.43399 79.314 8.20553 78.7511C7.94079 78.0987 7.86481 77.5338 7.88814 77.0509C7.90301 76.7444 7.95856 76.4831 8.01412 76.2785C7.84138 76.0465 7.65103 75.7617 7.48873 75.4162C6.86447 74.0865 6.90591 72.9794 7.27193 72.0959C7.62007 71.2558 8.22907 70.7003 8.54342 70.4113H8.5483L8.61471 70.3507C8.6356 70.3312 8.65426 70.3091 8.67525 70.2902C8.48747 70.0541 8.27099 69.7677 8.08443 69.4425C7.76315 68.8822 7.47455 68.1471 7.52975 67.3234L7.63033 66.7531C7.69646 66.5343 7.80531 66.3005 7.97897 66.0871C8.18118 65.8386 8.43997 65.654 8.75045 65.547C8.69017 64.9299 8.76674 64.4096 8.97799 63.9826C9.0269 63.8838 9.0809 63.7927 9.13912 63.7101C8.44322 62.8363 8.02485 61.8235 8.03365 60.7843C8.03989 60.0631 8.25525 59.5172 8.59908 59.1134C8.62169 59.0869 8.64621 59.063 8.66939 59.0382C8.25234 58.5675 7.81223 57.9302 7.54439 57.0656C7.26075 56.1489 7.25348 55.3867 7.39303 54.7394C7.52963 54.1066 7.80178 53.6248 7.98385 53.2961L8.16061 52.9377C8.06436 52.7795 7.95745 52.6078 7.83248 52.4181C7.66594 52.1648 7.4783 51.8885 7.29732 51.5812C7.01086 51.0943 6.84142 50.5205 6.88326 49.9767C6.92739 49.4129 7.224 48.8397 7.84225 48.6086L8.20553 48.5236C8.32686 48.5102 8.44978 48.511 8.56881 48.5236L10.5669 48.7355C10.8052 48.7608 11.0364 48.8371 11.2534 48.9416C11.5642 48.6963 11.947 48.6056 12.3276 48.6388C14.3312 48.8117 17.8744 49.0951 21.1372 49.3302C23.4095 49.494 25.5147 49.6121 26.8745 49.674C26.7514 49.4836 26.6221 49.2681 26.4604 49.048C25.9687 48.3798 25.6577 47.5056 25.7895 46.7267C25.859 46.3173 26.0568 45.9289 26.4047 45.6623C26.7533 45.3958 27.1793 45.3106 27.5962 45.3546H27.6059C28.8307 45.4967 29.7992 45.6841 30.729 45.9601H30.7338C31.2154 46.1043 31.6528 46.4261 32.0004 46.8175C32.5622 46.7969 33.2271 46.7736 33.9379 46.7423C36.4906 46.6295 39.9995 46.4751 44.1098 46.4494C45.2968 46.442 46.3945 46.3869 47.5766 46.3283C48.7653 46.2682 50.0119 46.2067 51.4262 46.1925C53.577 46.1715 55.9701 46.3154 58.2475 46.4543C60.5815 46.5968 62.9587 46.742 65.0444 46.7121C74.9124 46.572 82.613 46.401 85.6401 46.2834C85.6896 46.2029 85.7502 46.1276 85.8169 46.0558C86.059 45.7949 86.3801 45.6388 86.7299 45.6017L88.7788 45.4455C91.5445 45.2668 96.1971 45.0331 100.398 44.8195C103.528 44.6608 106.722 44.4904 108.541 44.381C108.579 44.1915 108.639 44.0057 108.744 43.8361C109.034 43.3636 109.539 43.1204 110.096 43.1496H110.101C110.233 43.1573 110.606 43.1715 111.095 43.1896ZM111.514 46.4093L111.655 47.1964L110.858 47.3127C110.494 47.3647 109.016 47.4533 107.039 47.5597C105.028 47.6679 102.431 47.7983 99.7876 47.9328C95.2765 48.1622 90.6477 48.4117 88.4604 48.5734L88.6772 49.1593L87.6938 49.2648C87.0168 49.3367 84.2259 49.4212 80.2915 49.507C76.3308 49.5933 71.1507 49.6806 65.6391 49.7589C63.4824 49.7895 61.1056 49.6496 58.7671 49.507C56.4153 49.3635 54.1013 49.2192 52.0161 49.2394C50.6603 49.2532 49.4581 49.3121 48.2778 49.3712C47.1001 49.4303 45.9373 49.4898 44.685 49.4972C41.0954 49.5193 37.9274 49.6444 35.5171 49.7492C34.3149 49.8014 33.2907 49.8478 32.5053 49.8752C31.7437 49.9017 31.1352 49.9108 30.7993 49.8752L30.2143 49.8146L30.1186 49.2394C30.0912 49.0796 30.0773 48.9247 30.0581 48.7755C29.7902 48.7084 29.5237 48.6349 29.2504 48.5841C29.5834 49.1206 29.8906 49.6695 30.0883 50.1779C30.2506 50.5952 30.3863 51.0774 30.3452 51.5255C30.3231 51.7629 30.2479 52.0317 30.0629 52.2668C29.8711 52.5097 29.6083 52.6583 29.3315 52.7257C29.1762 52.7631 28.976 52.7684 28.8217 52.7716C28.6387 52.7754 28.4081 52.7733 28.146 52.7668C27.6202 52.7535 26.9295 52.7252 26.1372 52.6808C24.548 52.5918 22.5219 52.4497 20.5317 52.3019C17.8536 52.1031 15.2199 51.8813 13.7807 51.7628C13.8518 52.0862 13.9118 52.4878 13.8159 52.883C13.7338 53.2198 13.585 53.5536 13.3217 53.8009C13.038 54.0664 12.6711 54.1878 12.2973 54.1486C11.9136 54.1078 11.586 53.9067 11.3335 53.6798C11.2267 53.5839 11.1261 53.4751 11.0307 53.3566C11.0381 53.4619 11.0519 53.5665 11.0463 53.6701C11.0157 54.235 10.794 54.6808 10.6128 55.0168C10.4132 55.3865 10.2824 55.5989 10.2036 55.8644C10.1386 56.0837 10.1147 56.3469 10.2338 56.7326C10.3595 57.1381 10.5652 57.2954 10.9506 57.5998C11.3704 57.9312 11.9131 58.3885 12.1206 59.3664C12.2176 59.8241 12.1867 60.276 11.9145 60.6574C11.6772 60.9891 11.3288 61.1488 11.1723 61.2228C10.9527 61.3267 10.9072 61.3522 10.8794 61.3791V61.3839C10.8767 61.3981 10.8748 61.4244 10.8745 61.4601C10.8721 61.7217 10.9685 61.915 11.1772 62.1408C11.2847 62.2568 11.4146 62.3694 11.5708 62.5041C11.7168 62.63 11.9008 62.7886 12.0659 62.9533C12.4058 63.2926 12.7779 63.7795 12.7973 64.4875C12.8031 64.6982 12.7681 64.9216 12.6606 65.133C12.5504 65.3494 12.3907 65.4983 12.2319 65.5978C12.0844 65.69 11.9359 65.7426 11.8335 65.7736C11.7622 65.7951 11.6063 65.8316 11.5756 65.84C11.5765 65.8629 11.5776 65.891 11.5815 65.925C11.5852 65.956 11.6004 66.031 11.6567 66.1671C11.7158 66.3098 11.7804 66.4323 11.8637 66.6164C11.9344 66.7724 12.0205 66.9805 12.0708 67.1916C12.1177 67.3899 12.1701 67.7456 11.9799 68.09C11.6524 68.6805 11.0231 68.654 10.7944 68.63C10.737 68.6239 10.6787 68.6048 10.6225 68.5949C10.6261 68.5995 10.6286 68.6049 10.6323 68.6095C10.7513 68.758 10.8709 68.887 11.021 69.0636C11.1566 69.2232 11.3133 69.414 11.4399 69.6183C11.6735 69.9956 11.8209 70.3727 11.8588 70.7492C11.8981 71.1391 11.8156 71.4824 11.6616 71.7736C11.5153 72.0498 11.3133 72.2615 11.1469 72.4191C11.0629 72.4987 10.9776 72.5727 10.9047 72.6359C10.8276 72.7029 10.766 72.7595 10.7085 72.8127C10.3972 73.1011 10.1262 73.3389 9.96627 73.6349C9.83996 73.8691 9.78103 74.1504 9.98189 74.5783C10.0432 74.7077 10.1105 74.7791 10.3042 74.9923C10.4963 75.204 10.7444 75.4949 10.8901 75.9709C11.1055 76.6742 10.8999 77.2146 10.8042 77.5148C10.7191 77.7816 10.6959 77.8943 10.7837 78.1105C10.8847 78.3582 11.0582 78.5155 11.3842 78.7814C11.6803 79.0229 12.1631 79.397 12.4087 80.0382C12.5146 80.3145 12.658 80.6614 12.7514 80.9767C12.8169 81.1978 12.8852 81.4951 12.8725 81.8039L12.8276 82.1164C12.7707 82.339 12.6901 82.6397 12.4389 82.8781C12.3355 82.976 12.2238 83.0433 12.1713 83.0753C12.1066 83.1149 12.0522 83.1466 11.9799 83.1964L11.9751 83.1916C11.8783 83.2585 11.7803 83.3049 11.6821 83.338C14.9653 83.6091 21.1093 83.9297 26.8794 84.1955C32.0042 84.4315 36.8547 84.6519 39.0444 84.7658L38.979 84.549L38.6557 83.5138L39.7407 83.5441C50.9268 83.8626 63.0271 84.0052 75.5893 83.8166C81.0309 83.7351 86.5612 83.5781 92.1391 83.3625C91.6953 81.985 91.1375 80.2971 90.8823 79.3166L90.7358 78.7668L91.2153 78.464C91.6911 78.164 91.9952 78.0073 92.3911 77.9738C92.7022 77.9474 92.776 77.9916 93.3139 77.8888C93.3824 77.8757 93.425 77.8534 93.4506 77.8429C93.4521 77.8129 93.4496 77.7627 93.4409 77.6916C93.4168 77.4978 93.3529 77.2496 93.2534 76.9142C93.1598 76.5989 93.0362 76.2112 92.9458 75.8146C92.7876 75.1199 92.7529 74.633 92.8901 74.1701C92.953 73.9583 93.0446 73.7779 93.1128 73.6447C93.1851 73.5035 93.2541 73.3725 93.3247 73.1964C93.362 73.1021 93.3839 72.9668 93.3999 72.7267C93.4131 72.5262 93.4219 72.1864 93.4907 71.8839C93.621 71.3104 93.8904 70.8238 94.354 70.5021C94.7997 70.1934 95.3231 70.1129 95.812 70.1134C96.0526 70.1138 96.2738 70.0734 96.559 70.0226C96.8323 69.9739 97.1807 69.9084 97.5678 69.9064L97.8354 69.9211C98.0248 69.9412 98.2037 69.9833 98.3344 70.0119C98.4797 70.0437 98.5732 70.0634 98.6577 70.0724C98.7365 70.0807 98.777 70.0732 98.7993 70.0675L99.0415 69.9572C99.0725 69.9287 99.1099 69.8804 99.1518 69.7853C99.1995 69.6766 99.2391 69.5478 99.2983 69.3459C99.3533 69.1584 99.4233 68.9135 99.5307 68.6652C99.7276 68.2106 100.023 67.8912 100.181 67.6964C100.344 67.4958 100.441 67.3485 100.495 67.1212C100.518 67.0216 100.539 66.9273 100.56 66.8332C100.58 66.7409 100.599 66.6422 100.621 66.5509C100.664 66.372 100.718 66.1712 100.807 65.9757C101.013 65.525 101.351 65.2119 101.857 64.9767L102.421 64.7902C102.598 64.7524 102.758 64.7313 102.88 64.714C103.024 64.6937 103.131 64.6785 103.213 64.6593L103.411 64.588L103.42 64.5832C103.412 64.533 103.405 64.4596 103.38 64.3507C103.343 64.1825 103.293 63.9534 103.254 63.6847C103.205 63.3443 103.198 63.0083 103.304 62.7013C103.425 62.3536 103.653 62.1417 103.865 62.0099C103.957 61.9527 104.051 61.9077 104.112 61.8791C104.181 61.8462 104.222 61.8298 104.263 61.8078C104.329 61.7725 104.361 61.7428 104.389 61.7072L104.405 61.6623C104.41 61.6095 104.406 61.5212 104.379 61.3693C104.366 61.2956 104.347 61.2192 104.329 61.1271C104.311 61.0387 104.291 60.9343 104.273 60.8293C104.237 60.6209 104.204 60.3666 104.223 60.0929V60.088C104.241 59.8517 104.325 59.6231 104.415 59.4416C104.509 59.2492 104.64 59.0535 104.793 58.8771C105.035 58.6003 105.464 58.2381 106.024 58.2003L106.271 58.2052L106.524 58.256C106.764 58.3274 106.982 58.4598 107.169 58.6398V58.6447C107.618 59.079 107.672 59.6433 107.694 59.9611C107.699 60.0392 107.701 60.1083 107.705 60.1681C107.735 60.1497 107.772 60.137 107.805 60.1076C107.952 59.9764 108.11 59.7492 108.269 59.4162C108.424 59.0908 108.554 58.7204 108.683 58.342C108.804 57.9873 108.934 57.5839 109.067 57.2824C109.279 56.8028 109.567 56.3755 110.04 56.132C110.497 55.8978 110.993 55.9047 111.423 55.9503C111.657 55.9752 111.914 56.0168 112.18 56.0617C112.279 56.0785 112.374 56.1053 112.447 56.1271C112.52 56.1493 112.604 56.1778 112.665 56.1974C112.693 56.2067 112.722 56.2108 112.745 56.2179C112.763 56.1907 112.792 56.1664 112.81 56.132C112.852 56.0527 112.885 55.9708 112.901 55.9045C112.912 55.859 112.911 55.8328 112.912 55.8244C112.9 55.753 112.87 55.6664 112.805 55.4806C112.779 55.4066 112.746 55.307 112.714 55.1935L112.644 54.8253C112.616 54.5042 112.674 54.2346 112.735 54.0275C112.763 53.9302 112.793 53.8327 112.816 53.7658C112.841 53.6919 112.859 53.6405 112.871 53.5939L112.977 53.2863C112.994 53.2475 113.008 53.2097 113.022 53.1798C113.037 53.147 113.052 53.1239 113.063 53.0998C113.078 53.0659 113.084 53.0419 113.088 53.0285C113.084 53.0135 113.075 52.9924 113.063 52.9533C113.032 52.8497 112.952 52.5924 113.012 52.2873L113.168 51.8732C113.372 51.5228 113.703 51.3423 113.941 51.2482C114.098 51.1862 114.26 51.1454 114.37 51.1164C114.428 51.101 114.47 51.0815 114.505 51.0714C114.474 51.0111 114.435 50.9418 114.384 50.8546C114.27 50.6605 114.028 50.2799 113.96 49.8654L113.956 49.4562C113.971 49.3437 113.998 49.2542 114.016 49.1945C114.021 49.1797 114.024 49.1638 114.027 49.1535C114.019 49.1317 114.012 49.1028 113.997 49.0685C113.976 49.0224 113.953 48.9742 113.925 48.9171C113.9 48.8646 113.863 48.7946 113.834 48.7296C113.812 48.6786 113.796 48.6461 113.785 48.6242C113.777 48.6096 113.775 48.5985 113.764 48.5783C113.755 48.5615 113.739 48.5344 113.724 48.5031C113.683 48.4186 113.658 48.3367 113.638 48.256L113.592 48.0138C113.571 47.8453 113.576 47.6896 113.578 47.6154C113.579 47.5336 113.578 47.4983 113.573 47.464C113.545 47.3064 113.495 47.0739 113.482 46.8888C113.468 46.6923 113.494 46.5134 113.542 46.3234C112.913 46.2957 112.116 46.2604 111.489 46.2375C111.496 46.2904 111.503 46.3479 111.514 46.4093Z" fill="white"/>
</svg>
