<svg width="75" height="75" viewBox="0 0 75 75" fill="none" xmlns="http://www.w3.org/2000/svg">
<path d="M58.8457 17.4779H16.1433C15.9246 17.4779 15.7069 17.4889 15.4892 17.5103C15.272 17.5322 15.0562 17.5641 14.8418 17.607C14.6279 17.6499 14.4159 17.7028 14.2073 17.7666C13.9982 17.8299 13.7929 17.9038 13.5909 17.9871C13.3889 18.071 13.1917 18.1644 12.9992 18.2673C12.8068 18.3706 12.6195 18.4826 12.4376 18.604C12.2561 18.7255 12.0808 18.8556 11.9121 18.9942C11.743 19.1328 11.5815 19.2791 11.4272 19.4339C11.2724 19.5882 11.1261 19.7497 10.9875 19.9188C10.8489 20.0875 10.7188 20.2628 10.5973 20.4448C10.4759 20.6262 10.3639 20.8135 10.2606 21.0059C10.1577 21.1984 10.0643 21.3956 9.98045 21.5976C9.89661 21.7996 9.82324 22.0049 9.75989 22.214C9.69605 22.4226 9.64318 22.6346 9.6003 22.8485C9.55743 23.0629 9.52504 23.2787 9.5036 23.4964C9.48216 23.7136 9.47121 23.9313 9.47121 24.15V50.8392C9.47121 51.0574 9.48216 51.2755 9.5036 51.4928C9.52504 51.7105 9.55743 51.9263 9.6003 52.1402C9.64318 52.3545 9.69605 52.566 9.75989 52.7752C9.82324 52.9843 9.89661 53.1896 9.98045 53.3916C10.0643 53.5931 10.1577 53.7903 10.2606 53.9832C10.3639 54.1757 10.4759 54.3629 10.5973 54.5444C10.7188 54.7259 10.8489 54.9012 10.9875 55.0703C11.1261 55.239 11.2724 55.4009 11.4272 55.5553C11.5815 55.7096 11.743 55.8563 11.9121 55.995C12.0808 56.1336 12.2561 56.2636 12.4376 56.3851C12.6195 56.5066 12.8068 56.6185 12.9992 56.7214C13.1917 56.8248 13.3889 56.9182 13.5909 57.002C13.7929 57.0854 13.9982 57.1592 14.2073 57.2226C14.4159 57.2864 14.6279 57.3393 14.8418 57.3822C15.0562 57.425 15.272 57.457 15.4892 57.4789C15.7069 57.5003 15.9246 57.5113 16.1433 57.5113H58.8457C59.0644 57.5113 59.2821 57.5003 59.4998 57.4789C59.717 57.457 59.9328 57.425 60.1472 57.3822C60.3611 57.3393 60.5731 57.2864 60.7817 57.2226C60.9908 57.1592 61.1961 57.0854 61.3981 57.002C61.6001 56.9182 61.7973 56.8248 61.9898 56.7214C62.1822 56.6185 62.3695 56.5066 62.5514 56.3851C62.7329 56.2636 62.9082 56.1336 63.0769 55.995C63.246 55.8563 63.4075 55.7096 63.5618 55.5553C63.7166 55.4009 63.8629 55.239 64.0015 55.0703C64.1401 54.9012 64.2702 54.7259 64.3917 54.5444C64.5131 54.3629 64.6255 54.1757 64.7284 53.9832C64.8313 53.7903 64.9247 53.5931 65.0086 53.3916C65.0924 53.1896 65.1658 52.9843 65.2291 52.7752C65.2929 52.566 65.3458 52.3545 65.3887 52.1402C65.4316 51.9263 65.464 51.7105 65.4854 51.4928C65.5068 51.2755 65.5178 51.0574 65.5183 50.8392V24.15C65.5178 23.9313 65.5068 23.7136 65.4854 23.4964C65.464 23.2787 65.4316 23.0629 65.3887 22.8485C65.3458 22.6346 65.2929 22.4226 65.2291 22.214C65.1658 22.0049 65.0924 21.7996 65.0086 21.5976C64.9247 21.3956 64.8313 21.1984 64.7284 21.0059C64.6255 20.8135 64.5131 20.6262 64.3917 20.4448C64.2702 20.2628 64.1401 20.0875 64.0015 19.9188C63.8629 19.7497 63.7166 19.5882 63.5618 19.4339C63.4075 19.2791 63.246 19.1328 63.0769 18.9942C62.9082 18.8556 62.7329 18.7255 62.5514 18.604C62.3695 18.4826 62.1827 18.3706 61.9898 18.2673C61.7973 18.1644 61.6001 18.071 61.3981 17.9871C61.1961 17.9038 60.9908 17.8299 60.7817 17.7666C60.5731 17.7028 60.3611 17.6499 60.1472 17.607C59.9328 17.5641 59.717 17.5322 59.4998 17.5103C59.2821 17.4889 59.0644 17.4779 58.8457 17.4779ZM62.8492 50.8392C62.8492 50.9702 62.8425 51.1007 62.8296 51.2312C62.8163 51.3618 62.7972 51.4913 62.7715 51.62C62.7458 51.7481 62.7139 51.8753 62.6758 52.0006C62.6376 52.1259 62.5933 52.2493 62.5433 52.3703C62.4928 52.4913 62.4371 52.6099 62.3752 52.7251C62.3132 52.8409 62.2461 52.9533 62.1732 53.0619C62.1003 53.171 62.0222 53.2763 61.9393 53.3778C61.8559 53.4788 61.7678 53.5759 61.6754 53.6684C61.5825 53.7613 61.4858 53.8494 61.3843 53.9323C61.2828 54.0156 61.178 54.0938 61.069 54.1662C60.9599 54.2391 60.8474 54.3067 60.7322 54.3686C60.6164 54.4301 60.4983 54.4863 60.3773 54.5363C60.2563 54.5868 60.1329 54.6311 60.0076 54.6692C59.8818 54.7073 59.7551 54.7392 59.6265 54.765C59.4979 54.7902 59.3683 54.8098 59.2383 54.8226C59.1077 54.8355 58.9767 54.8421 58.8457 54.8426H16.1433C16.0123 54.8421 15.8813 54.8355 15.7512 54.8226C15.6207 54.8098 15.4911 54.7902 15.3625 54.765C15.2339 54.7392 15.1072 54.7073 14.9814 54.6692C14.8561 54.6311 14.7332 54.5868 14.6117 54.5363C14.4907 54.4863 14.3726 54.4301 14.2568 54.3686C14.1416 54.3067 14.0291 54.2391 13.92 54.1662C13.811 54.0938 13.7062 54.0156 13.6047 53.9323C13.5032 53.8494 13.4065 53.7613 13.3136 53.6684C13.2212 53.5759 13.1331 53.4788 13.0497 53.3778C12.9668 53.2763 12.8887 53.171 12.8158 53.0619C12.7429 52.9533 12.6758 52.8409 12.6138 52.7251C12.5519 52.6099 12.4962 52.4913 12.4457 52.3703C12.3957 52.2493 12.3514 52.1259 12.3132 52.0006C12.2751 51.8753 12.2432 51.7481 12.2175 51.62C12.1918 51.4913 12.1727 51.3618 12.1594 51.2312C12.1465 51.1007 12.1398 50.9702 12.1398 50.8392V24.15C12.1398 24.019 12.1465 23.888 12.1594 23.7579C12.1727 23.6274 12.1918 23.4978 12.2175 23.3692C12.2432 23.2406 12.2751 23.1139 12.3132 22.9886C12.3514 22.8628 12.3957 22.7399 12.4457 22.6184C12.4962 22.4974 12.5519 22.3793 12.6138 22.2635C12.6758 22.1483 12.7429 22.0358 12.8158 21.9267C12.8887 21.8177 12.9668 21.7129 13.0497 21.6114C13.1331 21.5099 13.2212 21.4132 13.3136 21.3203C13.4065 21.2279 13.5032 21.1398 13.6047 21.0569C13.7062 20.9735 13.811 20.8954 13.92 20.8225C14.0291 20.7496 14.1416 20.6825 14.2568 20.6205C14.3726 20.5586 14.4907 20.5029 14.6117 20.4524C14.7332 20.4024 14.8561 20.3581 14.9814 20.3199C15.1072 20.2818 15.2339 20.2499 15.3625 20.2242C15.4911 20.1985 15.6207 20.1794 15.7512 20.1661C15.8813 20.1532 16.0123 20.1465 16.1433 20.1465H58.8457C58.9767 20.1465 59.1077 20.1532 59.2383 20.1661C59.3683 20.1794 59.4979 20.1985 59.6265 20.2242C59.7551 20.2499 59.8818 20.2818 60.0076 20.3199C60.1329 20.3581 60.2563 20.4024 60.3773 20.4524C60.4983 20.5029 60.6164 20.5586 60.7322 20.6205C60.8474 20.6825 60.9599 20.7496 61.069 20.8225C61.178 20.8954 61.2828 20.9735 61.3843 21.0569C61.4858 21.1398 61.5825 21.2279 61.6754 21.3203C61.7678 21.4132 61.8559 21.5099 61.9393 21.6114C62.0222 21.7129 62.1003 21.8177 62.1732 21.9267C62.2461 22.0358 62.3132 22.1483 62.3752 22.2635C62.4371 22.3793 62.4928 22.4974 62.5433 22.6184C62.5933 22.7399 62.6376 22.8628 62.6758 22.9886C62.7139 23.1139 62.7458 23.2406 62.7715 23.3692C62.7972 23.4978 62.8163 23.6274 62.8296 23.7579C62.8425 23.888 62.8492 24.019 62.8492 24.15V50.8392ZM26.8188 38.8289C27.0374 38.8289 27.2556 38.8184 27.4728 38.797C27.6905 38.7755 27.9063 38.7432 28.1207 38.7008C28.3351 38.6584 28.5466 38.605 28.7557 38.5416C28.9648 38.4783 29.1701 38.4049 29.3721 38.3211C29.5741 38.2372 29.7713 38.1444 29.9642 38.041C30.1567 37.9381 30.3439 37.8257 30.5259 37.7047C30.7074 37.5832 30.8827 37.4531 31.0518 37.3145C31.2204 37.1759 31.3824 37.0292 31.5368 36.8748C31.6916 36.72 31.8378 36.5585 31.9764 36.3894C32.1151 36.2208 32.2451 36.0455 32.3666 35.8635C32.4881 35.682 32.6005 35.4948 32.7034 35.3018C32.8063 35.1094 32.8997 34.9122 32.983 34.7102C33.0669 34.5082 33.1402 34.3029 33.2041 34.0938C33.2674 33.8846 33.3203 33.6727 33.3632 33.4583C33.4056 33.2439 33.4375 33.0281 33.4589 32.8109C33.4804 32.5932 33.4913 32.375 33.4913 32.1568C33.4913 31.9382 33.4804 31.72 33.4589 31.5028C33.4375 31.2851 33.4056 31.0693 33.3632 30.8549C33.3203 30.6405 33.2674 30.429 33.2041 30.2199C33.1402 30.0108 33.0669 29.805 32.983 29.6035C32.8997 29.4015 32.8063 29.2043 32.7034 29.0113C32.6005 28.8189 32.4881 28.6317 32.3666 28.4497C32.2451 28.2682 32.1151 28.0929 31.9764 27.9238C31.8378 27.7552 31.6916 27.5932 31.5368 27.4388C31.3824 27.284 31.2204 27.1378 31.0518 26.9992C30.8827 26.8605 30.7074 26.7305 30.5259 26.609C30.3439 26.4875 30.1567 26.3751 29.9642 26.2722C29.7713 26.1693 29.5741 26.0759 29.3721 25.9921C29.1701 25.9087 28.9648 25.8354 28.7557 25.7715C28.5466 25.7082 28.3351 25.6553 28.1207 25.6124C27.9063 25.57 27.6905 25.5381 27.4728 25.5167C27.2556 25.4952 27.0374 25.4843 26.8188 25.4843C26.6006 25.4843 26.3824 25.4952 26.1647 25.5167C25.9475 25.5381 25.7317 25.57 25.5173 25.6124C25.303 25.6553 25.091 25.7082 24.8818 25.7715C24.6727 25.8354 24.4674 25.9087 24.2654 25.9921C24.0634 26.0759 23.8662 26.1693 23.6738 26.2722C23.4808 26.3751 23.2936 26.4875 23.1121 26.609C22.9301 26.7305 22.7548 26.8605 22.5862 26.9992C22.4171 27.1378 22.2556 27.284 22.1008 27.4388C21.9464 27.5932 21.7997 27.7552 21.6611 27.9238C21.5225 28.0929 21.3924 28.2682 21.2709 28.4497C21.1495 28.6317 21.0375 28.8189 20.9346 29.0113C20.8312 29.2043 20.7384 29.4015 20.6545 29.6035C20.5707 29.805 20.4973 30.0108 20.434 30.2199C20.3706 30.429 20.3172 30.6405 20.2748 30.8549C20.232 31.0693 20.2001 31.2851 20.1786 31.5028C20.1572 31.72 20.1467 31.9382 20.1467 32.1568C20.1467 32.375 20.1577 32.5932 20.1791 32.8104C20.201 33.0281 20.2329 33.2439 20.2758 33.4578C20.3187 33.6722 20.3715 33.8837 20.4354 34.0928C20.4987 34.3019 20.5726 34.5073 20.6559 34.7092C20.7398 34.9107 20.8332 35.108 20.936 35.3009C21.0394 35.4933 21.1514 35.6806 21.2728 35.8621C21.3943 36.0436 21.5244 36.2189 21.663 36.388C21.8016 36.5566 21.9483 36.7186 22.1027 36.8729C22.257 37.0273 22.419 37.174 22.5876 37.3126C22.7567 37.4512 22.9316 37.5813 23.1135 37.7028C23.295 37.8242 23.4823 37.9362 23.6747 38.0391C23.8676 38.1424 24.0649 38.2358 24.2664 38.3197C24.4683 38.403 24.6737 38.4769 24.8828 38.5402C25.0919 38.6041 25.3034 38.6569 25.5178 38.6998C25.7317 38.7427 25.9475 38.7746 26.1652 38.7965C26.3824 38.8179 26.6006 38.8289 26.8188 38.8289ZM26.8188 28.1534C26.9498 28.1534 27.0808 28.1596 27.2113 28.1725C27.3418 28.1853 27.4714 28.2049 27.6 28.2301C27.7286 28.2558 27.8554 28.2877 27.9811 28.3258C28.1064 28.364 28.2298 28.4078 28.3508 28.4583C28.4723 28.5083 28.5904 28.564 28.7062 28.626C28.8219 28.6879 28.9339 28.7551 29.0429 28.8279C29.152 28.9008 29.2573 28.979 29.3588 29.0618C29.4598 29.1452 29.557 29.2333 29.6498 29.3258C29.7423 29.4186 29.8304 29.5158 29.9138 29.6168C29.9966 29.7183 30.0748 29.8236 30.1477 29.9327C30.2205 30.0417 30.2877 30.1537 30.3496 30.2694C30.4116 30.3852 30.4673 30.5033 30.5173 30.6248C30.5678 30.7458 30.6116 30.8692 30.6497 30.9945C30.6879 31.1202 30.7198 31.247 30.7455 31.3756C30.7707 31.5042 30.7903 31.6338 30.8031 31.7643C30.816 31.8948 30.8222 32.0254 30.8222 32.1568C30.8222 32.2878 30.816 32.4188 30.8031 32.5489C30.7903 32.6794 30.7707 32.809 30.7455 32.9376C30.7198 33.0662 30.6879 33.1934 30.6497 33.3187C30.6116 33.4445 30.5678 33.5674 30.5173 33.6888C30.4673 33.8098 30.4116 33.9285 30.3496 34.0437C30.2877 34.1595 30.2205 34.2719 30.1477 34.381C30.0748 34.4901 29.9966 34.5949 29.9138 34.6964C29.8304 34.7978 29.7423 34.895 29.6498 34.9874C29.557 35.0803 29.4598 35.168 29.3588 35.2513C29.2573 35.3347 29.152 35.4124 29.0429 35.4852C28.9339 35.5581 28.8219 35.6258 28.7062 35.6872C28.5904 35.7492 28.4723 35.8054 28.3508 35.8554C28.2298 35.9054 28.1064 35.9497 27.9811 35.9878C27.8554 36.0259 27.7286 36.0574 27.6 36.0831C27.4714 36.1088 27.3418 36.1279 27.2113 36.1407C27.0808 36.1536 26.9498 36.1603 26.8188 36.1603C26.6878 36.1603 26.5568 36.1536 26.4267 36.1407C26.2962 36.1279 26.1666 36.1088 26.038 36.0831C25.9094 36.0574 25.7822 36.0259 25.6569 35.9878C25.5311 35.9497 25.4078 35.9054 25.2868 35.8554C25.1658 35.8054 25.0471 35.7492 24.9319 35.6872C24.8161 35.6258 24.7037 35.5581 24.5946 35.4852C24.4855 35.4124 24.3807 35.3347 24.2792 35.2513C24.1778 35.168 24.0806 35.0803 23.9882 34.9874C23.8953 34.895 23.8076 34.7978 23.7243 34.6964C23.6409 34.5949 23.5632 34.4901 23.4904 34.381C23.4175 34.2719 23.3498 34.1595 23.2884 34.0437C23.2264 33.9285 23.1702 33.8098 23.1202 33.6888C23.0702 33.5674 23.0259 33.4445 22.9878 33.3187C22.9497 33.1934 22.9182 33.0662 22.8925 32.9376C22.8668 32.809 22.8477 32.6794 22.8349 32.5489C22.822 32.4188 22.8153 32.2878 22.8153 32.1568C22.8158 32.0258 22.822 31.8948 22.8353 31.7643C22.8482 31.6338 22.8673 31.5047 22.893 31.3761C22.9187 31.2474 22.9506 31.1202 22.9887 30.995C23.0268 30.8697 23.0711 30.7463 23.1216 30.6253C23.1717 30.5043 23.2279 30.3862 23.2893 30.2704C23.3513 30.1546 23.4189 30.0427 23.4913 29.9336C23.5642 29.8245 23.6423 29.7197 23.7257 29.6182C23.8086 29.5168 23.8967 29.4201 23.9891 29.3272C24.082 29.2343 24.1792 29.1466 24.2802 29.0633C24.3816 28.9804 24.4869 28.9023 24.5955 28.8294C24.7046 28.7565 24.817 28.6893 24.9323 28.6274C25.0481 28.5655 25.1662 28.5093 25.2877 28.4592C25.4087 28.4092 25.5316 28.3649 25.6574 28.3268C25.7827 28.2887 25.9098 28.2568 26.038 28.2311C26.1666 28.2053 26.2962 28.1858 26.4267 28.1729C26.5572 28.1601 26.6878 28.1534 26.8188 28.1534ZM36.1599 48.1701C36.1599 48.2577 36.1514 48.3444 36.1342 48.4307C36.1175 48.5164 36.0918 48.5998 36.0585 48.6808C36.0251 48.7617 35.9837 48.8389 35.9351 48.9113C35.8865 48.9842 35.8312 49.0518 35.7693 49.1138C35.7074 49.1757 35.6397 49.231 35.5669 49.2796C35.494 49.3286 35.4173 49.3696 35.3363 49.4029C35.2553 49.4368 35.1719 49.462 35.0857 49.4792C35 49.4958 34.9133 49.5044 34.8256 49.5044C34.738 49.5044 34.6513 49.4958 34.5651 49.4792C34.4793 49.462 34.3959 49.4368 34.315 49.4029C34.234 49.3696 34.1573 49.3286 34.0844 49.2796C34.0115 49.231 33.9439 49.1757 33.8819 49.1138C33.82 49.0518 33.7647 48.9842 33.7162 48.9113C33.6676 48.8389 33.6261 48.7617 33.5928 48.6808C33.5594 48.5998 33.5337 48.5164 33.5166 48.4307C33.4999 48.3444 33.4913 48.2577 33.4913 48.1701C33.4908 48.0391 33.4846 47.9086 33.4713 47.778C33.4584 47.6475 33.4394 47.5179 33.4137 47.3893C33.3879 47.2607 33.356 47.134 33.3179 47.0087C33.2798 46.8829 33.2355 46.76 33.1855 46.639C33.135 46.5175 33.0788 46.3994 33.0173 46.2836C32.9554 46.1684 32.8877 46.0559 32.8153 45.9469C32.7425 45.8382 32.6643 45.733 32.581 45.6315C32.4981 45.5305 32.4099 45.4333 32.3175 45.3404C32.2246 45.248 32.1275 45.1599 32.0265 45.077C31.925 44.9936 31.8197 44.9155 31.7111 44.8426C31.602 44.7697 31.4896 44.7026 31.3743 44.6406C31.2586 44.5787 31.1404 44.523 31.0189 44.4725C30.8979 44.4225 30.775 44.3782 30.6493 44.34C30.524 44.3019 30.3968 44.27 30.2687 44.2443C30.14 44.2186 30.0105 44.1995 29.8799 44.1867C29.7494 44.1733 29.6189 44.1671 29.4879 44.1666H24.1501C24.0191 44.1671 23.8881 44.1733 23.7576 44.1867C23.6271 44.1995 23.498 44.2186 23.3694 44.2443C23.2407 44.27 23.1135 44.3019 22.9883 44.34C22.863 44.3782 22.7396 44.4225 22.6186 44.4725C22.4976 44.523 22.3795 44.5787 22.2637 44.6406C22.1479 44.7026 22.036 44.7697 21.9269 44.8426C21.8178 44.9155 21.7125 44.9936 21.6115 45.077C21.5101 45.1599 21.4129 45.248 21.3205 45.3404C21.2276 45.4333 21.1399 45.5305 21.0566 45.6315C20.9737 45.733 20.8956 45.8382 20.8227 45.9469C20.7498 46.0559 20.6826 46.1684 20.6207 46.2836C20.5588 46.3994 20.5025 46.5175 20.4525 46.639C20.4025 46.76 20.3582 46.8829 20.3201 47.0087C20.282 47.134 20.2501 47.2607 20.2243 47.3893C20.1986 47.5179 20.1791 47.6475 20.1662 47.778C20.1534 47.9086 20.1467 48.0391 20.1467 48.1701C20.1467 48.2577 20.1381 48.3444 20.121 48.4307C20.1038 48.5164 20.0786 48.5998 20.0452 48.6808C20.0114 48.7617 19.9704 48.8389 19.9219 48.9113C19.8733 48.9842 19.8175 49.0518 19.7556 49.1138C19.6937 49.1757 19.6265 49.231 19.5536 49.2796C19.4807 49.3286 19.4036 49.3696 19.3231 49.4029C19.2421 49.4368 19.1582 49.462 19.0725 49.4792C18.9867 49.4958 18.8996 49.5044 18.8124 49.5044C18.7247 49.5044 18.6376 49.4958 18.5518 49.4792C18.4661 49.462 18.3822 49.4368 18.3017 49.4029C18.2207 49.3696 18.1436 49.3286 18.0707 49.2796C17.9978 49.231 17.9306 49.1757 17.8687 49.1138C17.8068 49.0518 17.7515 48.9842 17.7024 48.9113C17.6538 48.8389 17.6129 48.7617 17.5791 48.6808C17.5457 48.5998 17.5205 48.5164 17.5033 48.4307C17.4862 48.3444 17.4776 48.2577 17.4776 48.1701C17.4781 47.9519 17.489 47.7337 17.5105 47.5165C17.5319 47.2988 17.5643 47.083 17.6072 46.8691C17.6496 46.6547 17.7029 46.4432 17.7663 46.2341C17.8301 46.025 17.9035 45.8197 17.9873 45.6177C18.0711 45.4162 18.1645 45.219 18.2674 45.026C18.3703 44.8336 18.4827 44.6464 18.6042 44.4649C18.7257 44.2829 18.8557 44.1081 18.9944 43.9389C19.1325 43.7703 19.2792 43.6083 19.4336 43.454C19.5884 43.2997 19.7499 43.1529 19.919 43.0143C20.0876 42.8757 20.2629 42.7456 20.4444 42.6242C20.6259 42.5027 20.8131 42.3907 21.0061 42.2874C21.1985 42.1845 21.3957 42.0911 21.5977 42.0073C21.7992 41.9239 22.0046 41.85 22.2137 41.7867C22.4228 41.7229 22.6343 41.67 22.8487 41.6271C23.063 41.5842 23.2788 41.5523 23.4961 41.5304C23.7138 41.509 23.9315 41.498 24.1501 41.498H29.4879C29.7061 41.498 29.9242 41.509 30.1415 41.5304C30.3592 41.5523 30.575 41.5842 30.7888 41.6271C31.0032 41.67 31.2147 41.7229 31.4239 41.7867C31.633 41.85 31.8383 41.9239 32.0403 42.0073C32.2418 42.0911 32.439 42.1845 32.6319 42.2874C32.8244 42.3907 33.0116 42.5027 33.1931 42.6242C33.3751 42.7456 33.5499 42.8757 33.719 43.0143C33.8876 43.1529 34.0496 43.2997 34.204 43.454C34.3583 43.6083 34.505 43.7703 34.6436 43.9389C34.7823 44.1081 34.9123 44.2829 35.0338 44.4649C35.1553 44.6464 35.2672 44.8336 35.3706 45.026C35.4735 45.2185 35.5669 45.4162 35.6507 45.6177C35.7341 45.8197 35.8079 46.025 35.8713 46.2341C35.9351 46.4432 35.988 46.6547 36.0308 46.8691C36.0737 47.083 36.1056 47.2988 36.1276 47.5165C36.149 47.7337 36.1599 47.9519 36.1599 48.1701ZM57.5114 33.4912C57.5114 33.5788 57.5028 33.6655 57.4857 33.7517C57.4685 33.8375 57.4433 33.9208 57.4099 34.0018C57.3766 34.0828 57.3352 34.16 57.2866 34.2329C57.238 34.3057 57.1827 34.3729 57.1208 34.4348C57.0589 34.4968 56.9912 34.5525 56.9183 34.6011C56.8454 34.6497 56.7687 34.6907 56.6878 34.724C56.6068 34.7578 56.5234 34.7831 56.4372 34.8002C56.3514 34.8174 56.2643 34.8255 56.1771 34.8255H45.5011C45.4135 34.8255 45.3268 34.8169 45.241 34.7997C45.1548 34.7831 45.0714 34.7573 44.9905 34.724C44.9095 34.6907 44.8328 34.6492 44.7599 34.6006C44.687 34.552 44.6194 34.4968 44.5574 34.4348C44.4955 34.3729 44.4402 34.3053 44.3917 34.2324C44.3431 34.1595 44.3021 34.0828 44.2683 34.0018C44.2349 33.9208 44.2097 33.8375 44.1925 33.7517C44.1754 33.6655 44.1668 33.5788 44.1668 33.4912C44.1668 33.4035 44.1754 33.3168 44.1925 33.2306C44.2097 33.1448 44.2349 33.0615 44.2683 32.9805C44.3021 32.8995 44.3431 32.8228 44.3917 32.7499C44.4402 32.677 44.4955 32.6094 44.5574 32.5475C44.6194 32.4855 44.687 32.4303 44.7599 32.3817C44.8328 32.3331 44.9095 32.2916 44.9905 32.2583C45.0714 32.225 45.1548 32.1992 45.241 32.1826C45.3268 32.1654 45.4135 32.1568 45.5011 32.1568H56.1771C56.2643 32.1568 56.3514 32.1649 56.4372 32.1821C56.5234 32.1992 56.6068 32.2245 56.6878 32.2583C56.7687 32.2916 56.8454 32.3326 56.9183 32.3812C56.9912 32.4303 57.0589 32.4855 57.1208 32.5475C57.1827 32.6094 57.238 32.6766 57.2866 32.7494C57.3352 32.8223 57.3766 32.8995 57.4099 32.9805C57.4433 33.0615 57.4685 33.1448 57.4857 33.2306C57.5028 33.3168 57.5114 33.4035 57.5114 33.4912ZM52.1737 41.498C52.1737 41.5857 52.1651 41.6724 52.1479 41.7581C52.1308 41.8443 52.1055 41.9277 52.0722 42.0087C52.0389 42.0897 51.9974 42.1664 51.9488 42.2392C51.9002 42.3121 51.845 42.3798 51.783 42.4417C51.7211 42.5036 51.6535 42.5589 51.5806 42.6075C51.5077 42.6565 51.431 42.6975 51.35 42.7309C51.269 42.7647 51.1852 42.7899 51.0994 42.8066C51.0137 42.8238 50.9265 42.8323 50.8389 42.8323H45.5011C45.4135 42.8323 45.3268 42.8238 45.241 42.8066C45.1548 42.7895 45.0714 42.7642 44.9905 42.7309C44.9095 42.697 44.8328 42.6561 44.7599 42.6075C44.687 42.5589 44.6194 42.5036 44.5574 42.4417C44.4955 42.3793 44.4402 42.3121 44.3917 42.2392C44.3431 42.1664 44.3021 42.0897 44.2683 42.0087C44.2349 41.9277 44.2097 41.8443 44.1925 41.7581C44.1754 41.6724 44.1668 41.5857 44.1668 41.498C44.1668 41.4104 44.1754 41.3237 44.1925 41.2374C44.2097 41.1517 44.2349 41.0683 44.2683 40.9873C44.3021 40.9064 44.3431 40.8292 44.3917 40.7563C44.4402 40.6834 44.4955 40.6162 44.5574 40.5543C44.6194 40.4924 44.687 40.4371 44.7599 40.3885C44.8328 40.3395 44.9095 40.2985 44.9905 40.2652C45.0714 40.2313 45.1548 40.2061 45.241 40.1889C45.3268 40.1718 45.4135 40.1632 45.5011 40.1632H50.8389C50.9265 40.1632 51.0137 40.1718 51.0994 40.1889C51.1852 40.2061 51.269 40.2313 51.35 40.2647C51.431 40.2985 51.5077 40.3395 51.5806 40.3881C51.6535 40.4367 51.7211 40.4919 51.783 40.5538C51.845 40.6162 51.9002 40.6834 51.9488 40.7563C51.9974 40.8292 52.0389 40.9059 52.0722 40.9869C52.1055 41.0678 52.1308 41.1517 52.1479 41.2374C52.1651 41.3237 52.1737 41.4104 52.1737 41.498Z" fill="#113C7B"/>
<path d="M65.0702 23.5367L64.9806 22.9304C64.9403 22.7293 64.8896 22.531 64.8301 22.3363C64.7707 22.1404 64.701 21.9474 64.6226 21.7585C64.5439 21.569 64.4586 21.3815 64.3622 21.2011L64.0448 20.6761C63.931 20.5057 63.8084 20.3417 63.6786 20.1838L63.2676 19.7281C63.1233 19.5833 62.9704 19.4471 62.8119 19.3171C62.654 19.1873 62.4898 19.0649 62.3195 18.9509C62.1491 18.8371 61.9754 18.7304 61.7946 18.6335C61.6141 18.537 61.4266 18.4517 61.2372 18.3731C61.0475 18.2949 60.8544 18.2247 60.6594 18.1656C60.4647 18.106 60.2664 18.0553 60.0653 18.015C59.8651 17.975 59.663 17.9461 59.459 17.9255C59.2545 17.9054 59.0493 17.8929 58.8446 17.8929H16.1444C15.9397 17.8929 15.7344 17.9054 15.53 17.9255L14.9237 18.015C14.7226 18.0553 14.5243 18.106 14.3296 18.1656C14.1345 18.2247 13.9415 18.2949 13.7518 18.3731C13.5623 18.4517 13.3748 18.537 13.1943 18.6335C13.0137 18.7306 12.8395 18.8374 12.6694 18.9509C12.4992 19.0648 12.335 19.1873 12.1771 19.3171L11.7214 19.7281C11.5766 19.8724 11.4403 20.0253 11.3104 20.1838L10.9442 20.6761C10.8308 20.8455 10.7239 21.0203 10.6268 21.2011C10.5303 21.3815 10.445 21.569 10.3664 21.7585C10.288 21.9474 10.2182 22.1404 10.1589 22.3363L10.0083 22.9304C9.96814 23.1313 9.93884 23.3333 9.9188 23.5367C9.89867 23.7406 9.88624 23.9464 9.88624 24.1511V50.8397C9.88626 51.0432 9.8988 51.2469 9.9188 51.4501C9.93879 51.6531 9.9683 51.8564 10.0083 52.0564L10.1589 52.6545L10.3664 53.2323C10.4447 53.4205 10.5307 53.6054 10.6268 53.7857C10.7241 53.9669 10.8306 54.1449 10.9442 54.3147C11.0579 54.4844 11.1807 54.6488 11.3104 54.807C11.4403 54.965 11.5775 55.1152 11.7214 55.2587L12.1771 55.6737C12.3349 55.8034 12.4993 55.9261 12.6694 56.0399C12.8392 56.1532 13.0145 56.257 13.1943 56.3532C13.3744 56.4499 13.5623 56.5391 13.7518 56.6177C13.9413 56.6959 14.1347 56.7662 14.3296 56.8252C14.524 56.8847 14.7228 56.9315 14.9237 56.9717L15.53 57.0653C15.7344 57.0854 15.9397 57.0938 16.1444 57.0938H58.8446C59.0492 57.0938 59.2545 57.0854 59.459 57.0653C59.6631 57.0447 59.865 57.0118 60.0653 56.9717C60.2661 56.9315 60.465 56.8847 60.6594 56.8252C60.8542 56.7662 61.0477 56.6959 61.2372 56.6177C61.4266 56.5391 61.6146 56.4499 61.7946 56.3532C61.9745 56.257 62.1497 56.1532 62.3195 56.0399C62.4896 55.9261 62.6541 55.8034 62.8119 55.6737C62.9701 55.544 63.1227 55.4036 63.2676 55.2587L63.6786 54.807C63.8082 54.6488 63.9311 54.4844 64.0448 54.3147C64.1587 54.1445 64.2658 53.9659 64.3622 53.7857C64.4583 53.6054 64.5442 53.4205 64.6226 53.2323C64.701 53.0433 64.7707 52.8505 64.8301 52.6545L64.9806 52.0604C65.0207 51.8605 65.0502 51.6531 65.0702 51.4501C65.0901 51.2472 65.1022 51.0435 65.1027 50.8397V24.1511C65.1023 23.9458 65.0903 23.7406 65.0702 23.5367ZM62.4131 23.8011L62.3643 23.4512L62.2788 23.1094C62.2449 22.9974 62.2021 22.8858 62.1568 22.7758C62.1117 22.668 62.0607 22.5644 62.0062 22.4624L61.8272 22.1573C61.7624 22.0604 61.6904 21.9682 61.6156 21.8765C61.5416 21.7865 61.463 21.7 61.3796 21.6161C61.2955 21.5325 61.2087 21.4533 61.1192 21.3801C61.0279 21.3051 60.9354 21.2333 60.8384 21.1685C60.7409 21.1034 60.6373 21.0454 60.5332 20.9895C60.4302 20.9344 60.3247 20.8844 60.2158 20.8389C60.1074 20.7941 59.9979 20.7508 59.8862 20.7168C59.7734 20.6827 59.6593 20.6544 59.5444 20.6314C59.43 20.6085 59.3122 20.5946 59.1945 20.5826C59.078 20.5712 58.9606 20.5622 58.8446 20.5622H16.1444C16.0275 20.5622 15.9072 20.5669 15.7904 20.5785C15.6732 20.5905 15.558 20.6087 15.4445 20.6314C15.3297 20.6544 15.2155 20.6827 15.1027 20.7168C14.9909 20.7509 14.8791 20.7895 14.7691 20.8348C14.6604 20.8803 14.5545 20.9304 14.4517 20.9854C14.3479 21.0412 14.2477 21.1036 14.1506 21.1685C14.0535 21.2333 13.961 21.3052 13.8698 21.3801C13.7802 21.4533 13.6934 21.5325 13.6094 21.6161C13.526 21.7 13.4474 21.7865 13.3734 21.8765C13.2985 21.9682 13.2266 22.0604 13.1618 22.1573C13.0967 22.2547 13.0387 22.3583 12.9828 22.4624C12.9277 22.5655 12.8777 22.6709 12.8322 22.7798L12.7101 23.1094C12.676 23.2218 12.6477 23.3361 12.6247 23.4512C12.6018 23.5657 12.5879 23.683 12.5759 23.8011C12.5644 23.9173 12.5555 24.0349 12.5555 24.1511V50.8397C12.5555 50.9562 12.5643 51.0725 12.5759 51.1897L12.6247 51.5396C12.6476 51.6535 12.6765 51.7663 12.7101 51.8773C12.7443 51.9895 12.7872 52.1021 12.8322 52.211L12.9828 52.5284L13.1618 52.8295L13.3734 53.1143C13.448 53.2045 13.5272 53.2926 13.6094 53.3747C13.6929 53.4581 13.7803 53.5376 13.8698 53.6107L14.1506 53.8182C14.2487 53.8838 14.3524 53.9458 14.4557 54.0013C14.5603 54.0569 14.6619 54.1075 14.7691 54.1519C14.8778 54.197 14.9914 54.2361 15.1027 54.2699C15.2158 54.3042 15.3294 54.3323 15.4445 54.3554C15.56 54.378 15.6751 54.3968 15.7904 54.4082C15.9071 54.4198 16.0266 54.4241 16.1444 54.4245H58.8446L59.1986 54.4082C59.3136 54.3968 59.4288 54.378 59.5444 54.3554C59.6595 54.3323 59.7732 54.3041 59.8862 54.2699C59.998 54.2359 60.1081 54.1968 60.2158 54.1519C60.322 54.108 60.4297 54.0562 60.5332 54.0013C60.6366 53.9458 60.7402 53.8838 60.8384 53.8182C60.9345 53.7544 61.028 53.6855 61.1192 53.6107C61.2086 53.5376 61.2961 53.4581 61.3796 53.3747C61.4617 53.2926 61.541 53.2045 61.6156 53.1143L61.8272 52.8295L62.0062 52.5284L62.1568 52.211C62.2018 52.1021 62.2447 51.9895 62.2788 51.8773C62.3125 51.7663 62.3414 51.6535 62.3643 51.5396C62.3871 51.4253 62.401 51.3077 62.4131 51.1897L62.4334 50.8397V24.1511C62.4334 24.0349 62.4245 23.9173 62.4131 23.8011ZM35.7123 47.5601L35.6227 46.9498L35.4722 46.3557C35.413 46.1604 35.343 45.9678 35.2647 45.7779C35.1862 45.5892 35.1001 45.404 35.0042 45.2245C34.9069 45.0433 34.8005 44.8653 34.6869 44.6955L34.3207 44.2032C34.1907 44.0451 34.0541 43.8919 33.9097 43.7474L33.454 43.3365L32.9616 42.9703C32.7921 42.8568 32.6176 42.7501 32.4367 42.6529C32.2555 42.5562 32.0685 42.4712 31.8792 42.3925C31.6897 42.3143 31.4964 42.244 31.3014 42.1849C31.1062 42.1254 30.9085 42.0746 30.7074 42.0344C30.5078 41.9944 30.3055 41.9655 30.1011 41.9449C29.8972 41.9247 29.6909 41.9164 29.4867 41.9164H24.1481L23.5378 41.9449C23.3338 41.9654 23.1316 41.9944 22.9315 42.0344C22.7301 42.0747 22.5289 42.1253 22.3333 42.1849C22.1381 42.2441 21.9447 42.3142 21.7555 42.3925C21.5669 42.4709 21.3819 42.5568 21.2022 42.6529C21.021 42.7499 20.8467 42.8569 20.6773 42.9703L20.1849 43.3365C20.0273 43.4657 19.8744 43.6027 19.7292 43.7474C19.5847 43.8919 19.4474 44.0455 19.3182 44.2032C19.1881 44.3618 19.0654 44.5257 18.952 44.6955C18.8381 44.8657 18.731 45.0442 18.6346 45.2245C18.5384 45.4051 18.4486 45.5894 18.3701 45.7779L18.1667 46.3557C18.1072 46.5521 18.0557 46.7497 18.0161 46.9498C17.976 47.1499 17.9467 47.3529 17.9266 47.556C17.9065 47.7598 17.8945 47.9658 17.8941 48.1705L17.9103 48.3495C17.9221 48.4081 17.9405 48.4649 17.9632 48.5204L18.0487 48.6791L18.1626 48.8174C18.2051 48.8599 18.2518 48.8985 18.301 48.9314L18.305 48.9354C18.3531 48.9676 18.4048 48.9942 18.4596 49.0168C18.5132 49.0393 18.5747 49.0577 18.6346 49.0697C18.6937 49.081 18.7542 49.086 18.8137 49.086C18.8731 49.0859 18.933 49.0813 18.9927 49.0697L19.1636 49.0168C19.2194 48.9937 19.2735 48.9683 19.3223 48.9354C19.3717 48.9024 19.4179 48.8601 19.4606 48.8174C19.5034 48.7746 19.5417 48.7283 19.5746 48.6791C19.6071 48.6306 19.6361 48.5776 19.66 48.5204L19.7129 48.3495C19.7247 48.29 19.7292 48.2305 19.7292 48.1705C19.7292 48.0259 19.7396 47.8821 19.7536 47.7391C19.7678 47.5946 19.7863 47.4493 19.8146 47.3078C19.8429 47.1663 19.8786 47.0264 19.9204 46.8887C19.9625 46.7499 20.0123 46.614 20.0669 46.4818C20.1226 46.3466 20.186 46.2144 20.2541 46.0871C20.322 45.9607 20.3972 45.8335 20.4779 45.7128C20.5577 45.5939 20.6436 45.4778 20.7342 45.3669L21.0272 45.0455C21.129 44.9437 21.2364 44.8442 21.3486 44.7525C21.4596 44.6611 21.5753 44.5758 21.6945 44.4961C21.8148 44.4157 21.9411 44.3407 22.0689 44.2723C22.1964 44.2042 22.3274 44.1444 22.4595 44.0892L22.8664 43.9428C23.0048 43.9006 23.1478 43.8653 23.2896 43.837C23.4315 43.8086 23.5735 43.786 23.7168 43.7719C23.8617 43.7571 24.0057 43.752 24.1481 43.7515H29.4907C29.6333 43.7521 29.7771 43.7571 29.9221 43.7719L30.3493 43.837C30.4905 43.8653 30.6341 43.9006 30.7725 43.9428C30.9111 43.9848 31.0474 44.0347 31.1794 44.0892C31.3122 44.1445 31.4425 44.2042 31.57 44.2723C31.6965 44.3403 31.8236 44.4155 31.9443 44.4961C32.0637 44.5763 32.1783 44.6646 32.2902 44.7566C32.4016 44.848 32.5098 44.9441 32.6117 45.0455L32.9046 45.3669C32.9961 45.4782 33.0812 45.594 33.161 45.7128L33.3848 46.0871C33.4519 46.2135 33.5162 46.3436 33.572 46.4777C33.6265 46.6099 33.6764 46.75 33.7184 46.8887C33.7602 47.0264 33.7959 47.1664 33.8242 47.3078C33.8526 47.4495 33.8711 47.5923 33.8853 47.7351C33.9001 47.8806 33.9092 48.0273 33.9097 48.1705C33.9097 48.2299 33.9144 48.2893 33.926 48.3495L33.9789 48.5204C34.0013 48.5748 34.0272 48.6297 34.0602 48.6791C34.0939 48.7295 34.1361 48.7753 34.1782 48.8174C34.2204 48.8596 34.2661 48.8977 34.3166 48.9314L34.4753 49.0168C34.53 49.0397 34.5871 49.0578 34.6462 49.0697L34.8252 49.086C34.8849 49.086 34.9446 49.0812 35.0042 49.0697C35.0639 49.0579 35.1202 49.0397 35.1751 49.0168C35.2294 48.9943 35.2852 48.9681 35.3338 48.9354C35.3843 48.9018 35.4341 48.8596 35.4763 48.8174C35.5178 48.7757 35.557 48.7289 35.5902 48.6791C35.6234 48.6295 35.6491 48.575 35.6716 48.5204C35.6951 48.4631 35.7135 48.4057 35.7245 48.3495L35.7448 48.1705C35.7448 47.9671 35.7322 47.7632 35.7123 47.5601ZM51.7401 41.3182C51.7282 41.2593 51.7097 41.2024 51.6872 41.1473C51.665 41.0935 51.6359 41.0399 51.6017 40.9887C51.5687 40.939 51.5315 40.8903 51.4878 40.8462C51.4462 40.8048 51.3991 40.7695 51.3495 40.7364L51.1908 40.6509C51.135 40.628 51.0755 40.61 51.0158 40.598C50.9584 40.5867 50.9 40.5819 50.8408 40.5817H45.5023C45.4422 40.5817 45.3819 40.5863 45.3233 40.598C45.2639 40.6098 45.2071 40.6281 45.1524 40.6509C45.0981 40.6734 45.0423 40.6997 44.9937 40.7323L44.9896 40.7364C44.9397 40.7698 44.893 40.8085 44.8512 40.8503C44.8088 40.8929 44.7701 40.9394 44.7373 40.9887L44.6519 41.1473C44.6293 41.2026 44.6148 41.2599 44.603 41.3182C44.5912 41.3776 44.5827 41.4373 44.5827 41.4973C44.5827 41.5576 44.5913 41.6175 44.603 41.6763C44.6147 41.7349 44.6294 41.7921 44.6519 41.8472C44.6755 41.9039 44.7038 41.9596 44.7373 42.01C44.77 42.059 44.8081 42.1048 44.8512 42.1483C44.8933 42.1903 44.9393 42.2287 44.9896 42.2623C45.0379 42.2945 45.0901 42.3206 45.1442 42.3436C45.2003 42.3667 45.2636 42.3847 45.3233 42.3965C45.382 42.4083 45.4421 42.4169 45.5023 42.4169H50.8408C50.9001 42.4167 50.9583 42.4079 51.0158 42.3965C51.074 42.3852 51.1362 42.3705 51.1908 42.3477C51.2459 42.325 51.3001 42.2955 51.3495 42.2623C51.3996 42.2289 51.4459 42.1901 51.4878 42.1483C51.5296 42.1065 51.5683 42.0599 51.6017 42.01C51.6359 41.9588 51.665 41.905 51.6872 41.8513C51.7103 41.7952 51.7282 41.7359 51.7401 41.6763C51.7518 41.6176 51.7564 41.5575 51.7564 41.4973C51.7563 41.4373 51.7519 41.3776 51.7401 41.3182ZM33.043 31.5445C33.0229 31.341 32.993 31.1386 32.9535 30.9382L32.807 30.34C32.747 30.1435 32.6776 29.9501 32.5995 29.7623C32.5216 29.5736 32.4315 29.3898 32.335 29.2089C32.2386 29.0286 32.1358 28.8508 32.0217 28.6799C31.9079 28.5099 31.7853 28.346 31.6554 28.1875C31.5256 28.0296 31.3883 27.8793 31.2445 27.7359L31.2404 27.7318C31.097 27.588 30.9467 27.4507 30.7888 27.3208C30.63 27.1907 30.4626 27.0686 30.2923 26.9546C30.1227 26.8416 29.9462 26.7369 29.7674 26.6413C29.5867 26.5449 29.403 26.4553 29.214 26.3768C29.0245 26.2986 28.8288 26.2293 28.6322 26.1693C28.4374 26.1104 28.2382 26.0628 28.0381 26.0228C27.8374 25.9832 27.6356 25.9534 27.4318 25.9333C27.2279 25.9132 27.0221 25.9008 26.8174 25.9008C26.6141 25.9008 26.4106 25.9133 26.207 25.9333C26.0032 25.9534 25.7979 25.979 25.5967 26.0188L25.6008 26.0228C25.3993 26.0631 25.1984 26.11 25.0026 26.1693L24.4248 26.3768C24.2355 26.4554 24.0518 26.5449 23.8714 26.6413C23.691 26.7376 23.5126 26.8407 23.3425 26.9546C23.172 27.0684 23.008 27.1911 22.8501 27.3208C22.6917 27.4507 22.5394 27.5868 22.3944 27.7318C22.25 27.8762 22.1134 28.0295 21.9834 28.1875C21.8536 28.3459 21.731 28.51 21.6172 28.6799C21.5034 28.8504 21.4005 29.0282 21.3039 29.2089C21.2074 29.3889 21.1182 29.5726 21.0394 29.7623C20.9611 29.9503 20.8913 30.1439 20.8319 30.34C20.7725 30.536 20.7249 30.7345 20.6854 30.9341C20.6454 31.1343 20.6119 31.3406 20.5918 31.5445C20.5719 31.7468 20.5634 31.9505 20.5633 32.1548C20.5633 32.3589 20.5717 32.5655 20.5918 32.7692L20.6854 33.3755C20.7255 33.5763 20.7725 33.7747 20.8319 33.9696L20.836 33.9737C20.8947 34.1675 20.9617 34.3589 21.0394 34.5474C21.1181 34.7366 21.2072 34.9236 21.3039 35.1049C21.4008 35.2852 21.5042 35.4608 21.6172 35.6298C21.7307 35.7994 21.8539 35.964 21.9834 36.1221C22.1136 36.2804 22.2538 36.4332 22.3985 36.5778C22.543 36.7224 22.696 36.8588 22.8542 36.9888C23.0132 37.1191 23.1763 37.2414 23.3465 37.355C23.5162 37.4686 23.6908 37.5758 23.8714 37.6724L24.4207 37.9328C24.6105 38.0111 24.8075 38.0812 25.0026 38.1403L25.6008 38.2909L26.207 38.3804C26.4102 38.4004 26.6139 38.4129 26.8174 38.413C27.0227 38.413 27.2285 38.4005 27.4318 38.3804C27.635 38.3604 27.8368 38.3307 28.0381 38.2909C28.2383 38.2513 28.4396 38.204 28.6362 38.1444C28.8321 38.0851 29.0252 38.0153 29.214 37.9369C29.4036 37.8582 29.5875 37.7688 29.7674 37.6724C29.9467 37.5766 30.1219 37.4723 30.2923 37.3591L30.7888 36.9929C30.9462 36.8634 31.0965 36.7257 31.2404 36.5819C31.3855 36.4368 31.5255 36.2847 31.6554 36.1262C31.7852 35.9684 31.9079 35.8042 32.0217 35.6338C32.135 35.4643 32.2391 35.2846 32.335 35.1049C32.4315 34.9244 32.5215 34.7404 32.5995 34.5515C32.6778 34.3627 32.747 34.17 32.807 33.9737C32.8663 33.7778 32.9132 33.5771 32.9535 33.3755C32.9931 33.1749 33.0229 32.9725 33.043 32.7692C33.0631 32.565 33.0755 32.3588 33.0755 32.1548C33.0755 31.951 33.063 31.7475 33.043 31.5445ZM30.39 31.8049C30.3786 31.6896 30.3597 31.5745 30.3371 31.459L30.2516 31.1172L30.1336 30.7836C30.089 30.6752 30.0383 30.5694 29.9831 30.4662C29.9276 30.3625 29.8653 30.2629 29.8 30.1651C29.7349 30.0676 29.667 29.9715 29.5925 29.8803L29.3565 29.6198C29.2728 29.5366 29.1828 29.4588 29.092 29.3838C29.0021 29.3106 28.9071 29.2404 28.8112 29.1763C28.7135 29.111 28.6137 29.0486 28.5101 28.9932C28.4068 28.9379 28.3012 28.8873 28.1927 28.8427C28.086 28.7982 27.9716 28.7589 27.8591 28.7247C27.7463 28.6905 27.6321 28.6622 27.5173 28.6392C27.4018 28.6166 27.2867 28.5977 27.1714 28.5863C27.055 28.5748 26.9353 28.57 26.8174 28.57C26.701 28.5701 26.5845 28.5748 26.4675 28.5863C26.3518 28.5977 26.2366 28.6163 26.1216 28.6392C26.0069 28.6622 25.8915 28.6907 25.7798 28.7247C25.6678 28.7586 25.5553 28.7975 25.4461 28.8427C25.3386 28.8869 25.2328 28.9376 25.1288 28.9932L24.8277 29.1763C24.7301 29.2418 24.6341 29.3133 24.5428 29.3879C24.4532 29.462 24.3676 29.5388 24.2865 29.6198C24.2026 29.7041 24.1198 29.7904 24.0464 29.8803C23.972 29.971 23.9033 30.0686 23.8389 30.1651L23.6558 30.4662C23.6003 30.5708 23.5496 30.6764 23.5052 30.7836C23.4605 30.891 23.4211 31.0058 23.3872 31.1172C23.3532 31.2291 23.3248 31.3439 23.3018 31.459C23.2789 31.5734 23.2604 31.6882 23.2489 31.8049C23.2371 31.9204 23.233 32.04 23.2326 32.1589C23.2327 32.2751 23.2374 32.3927 23.2489 32.5088C23.2604 32.6255 23.279 32.7406 23.3018 32.8547C23.325 32.9709 23.3535 33.0855 23.3872 33.1965C23.4212 33.3085 23.4599 33.4202 23.5052 33.5302L23.6558 33.8475C23.71 33.9496 23.7696 34.051 23.8348 34.1486C23.9002 34.2465 23.9719 34.3428 24.0464 34.4335L24.2824 34.6939L24.5428 34.9299C24.6335 35.0044 24.7298 35.072 24.8277 35.1374L25.1288 35.3205L25.4461 35.4711C25.5543 35.5157 25.6641 35.5552 25.7757 35.5891C25.8865 35.6227 26.0057 35.6513 26.1216 35.6745C26.2356 35.6973 26.3508 35.7159 26.4675 35.7274C26.5838 35.7389 26.701 35.7436 26.8174 35.7437C26.9343 35.7437 27.054 35.739 27.1714 35.7274C27.2881 35.7159 27.4032 35.6973 27.5173 35.6745C27.633 35.6514 27.7472 35.6229 27.8591 35.5891L28.1927 35.4711C28.3004 35.4267 28.4059 35.3762 28.5101 35.3205L28.8112 35.1374C28.9088 35.0722 29.0023 35.0034 29.092 34.9299C29.1836 34.8543 29.2737 34.7767 29.3565 34.6939C29.439 34.6113 29.5179 34.5242 29.5925 34.4335C29.6675 34.3416 29.7351 34.2457 29.8 34.1486C29.8651 34.0512 29.9274 33.9517 29.9831 33.8475C30.038 33.7454 30.0886 33.639 30.1336 33.5302C30.1787 33.4219 30.2174 33.3094 30.2516 33.1965C30.2856 33.0847 30.3141 32.9698 30.3371 32.8547C30.3597 32.7392 30.3786 32.6241 30.39 32.5088C30.4014 32.393 30.4063 32.2727 30.4063 32.1548C30.4062 32.0372 30.4014 31.9207 30.39 31.8049ZM57.0786 33.3104C57.0668 33.2518 57.0485 33.195 57.0257 33.1395C57.0033 33.085 56.9741 33.0316 56.9403 32.9808C56.9073 32.9313 56.8691 32.8853 56.8263 32.8425C56.7842 32.8003 56.7355 32.7633 56.6839 32.7286C56.6342 32.6956 56.5839 32.6656 56.5293 32.6431C56.4749 32.6205 56.4134 32.602 56.3543 32.5902C56.2975 32.5789 56.2363 32.5739 56.1753 32.5739H45.5023C45.4422 32.5739 45.3818 32.5785 45.3233 32.5902C45.2667 32.6012 45.2056 32.6195 45.1483 32.6431C45.0944 32.6653 45.0409 32.6943 44.9896 32.7286C44.9395 32.762 44.8931 32.8006 44.8512 32.8425C44.8093 32.8845 44.7708 32.9306 44.7373 32.9808L44.6519 33.1395C44.6292 33.1947 44.6148 33.2521 44.603 33.3104C44.5913 33.3695 44.5828 33.4298 44.5827 33.4895C44.5827 33.5492 44.5914 33.6094 44.603 33.6685C44.6146 33.7265 44.6295 33.7844 44.6519 33.8394C44.6755 33.896 44.7038 33.9518 44.7373 34.0022C44.7709 34.0525 44.8092 34.0984 44.8512 34.1405C44.8932 34.1825 44.9394 34.2209 44.9896 34.2544C45.041 34.2887 45.0943 34.3176 45.1483 34.3399C45.2054 34.3634 45.2629 34.3777 45.3192 34.3887L45.3233 34.3928C45.3818 34.4044 45.4423 34.4091 45.5023 34.4091H56.1753C56.2363 34.4091 56.2975 34.4041 56.3543 34.3928C56.4133 34.3811 56.4709 34.3625 56.5252 34.3399C56.5805 34.3171 56.6376 34.288 56.688 34.2544C56.7373 34.2215 56.7835 34.1834 56.8263 34.1405C56.8692 34.0977 56.9072 34.0518 56.9403 34.0022C56.9742 33.9513 57.0032 33.8982 57.0257 33.8435C57.0488 33.7873 57.0668 33.7278 57.0786 33.6685C57.0902 33.6096 57.0949 33.5489 57.0949 33.4895C57.0948 33.4298 57.0904 33.3695 57.0786 33.3104ZM30.8661 41.2165C31.0933 41.262 31.3229 41.3194 31.5456 41.3874L32.2007 41.6234L32.8273 41.9205L33.4255 42.2785C33.6188 42.4076 33.804 42.5469 33.9829 42.6936C34.1617 42.8405 34.3358 42.9936 34.4997 43.1574C34.6634 43.3212 34.8167 43.4956 34.9636 43.6742C35.1098 43.8526 35.2498 44.0388 35.3786 44.2317C35.5079 44.4249 35.6273 44.6261 35.7367 44.8298C35.8458 45.0339 35.945 45.2434 36.0337 45.4564L36.0378 45.4605C36.1254 45.6731 36.2026 45.8902 36.2697 46.1115C36.3377 46.3342 36.3951 46.5597 36.4406 46.787L36.5423 47.4747L36.5749 48.1705C36.5749 48.2854 36.5647 48.3995 36.5423 48.5123C36.5201 48.6259 36.487 48.7346 36.4447 48.8378L36.2819 49.1429C36.2184 49.2381 36.1438 49.3258 36.0622 49.4074C35.9806 49.4889 35.8929 49.5637 35.7977 49.6272C35.7022 49.6912 35.6022 49.7464 35.4966 49.7899L35.167 49.8876C35.0557 49.9092 34.9402 49.9201 34.8252 49.9201C34.7107 49.9201 34.5983 49.9089 34.4875 49.8876C34.3762 49.8653 34.2641 49.83 34.1579 49.7859L33.8527 49.6272C33.7574 49.5636 33.6699 49.4891 33.5882 49.4074L33.3685 49.1429C33.305 49.0482 33.2497 48.9446 33.2057 48.8378C33.1631 48.734 33.1306 48.6251 33.1081 48.5123L33.0755 48.1705C33.0751 48.052 33.067 47.9357 33.0552 47.8205C33.0436 47.7032 33.0293 47.5852 33.0064 47.4706C32.9833 47.3555 32.9551 47.2411 32.9209 47.1288C32.887 47.0169 32.8439 46.9082 32.7988 46.7992C32.754 46.6913 32.7036 46.5861 32.6483 46.4818L32.4693 46.1766L32.2577 45.8959L32.0217 45.6355C31.9382 45.5525 31.8512 45.4733 31.7612 45.3995C31.6706 45.325 31.5778 45.2532 31.4805 45.1879C31.383 45.1228 31.2794 45.0648 31.1753 45.0088C31.0729 44.9542 30.9662 44.9033 30.8579 44.8583L30.5283 44.7403C30.4163 44.7062 30.3016 44.6779 30.1865 44.6548C30.0725 44.632 29.9574 44.6135 29.8407 44.6019L29.4867 44.5816H24.1522L23.7982 44.6019C23.6814 44.6135 23.5667 44.632 23.4523 44.6548C23.3371 44.6779 23.2225 44.7062 23.1105 44.7403C22.9985 44.7743 22.8856 44.8093 22.7769 44.8542L22.7809 44.8583C22.6716 44.9039 22.5629 44.9535 22.4595 45.0088L22.1584 45.1879C22.0607 45.2531 21.9675 45.3252 21.8776 45.3995C21.7875 45.4731 21.6957 45.5529 21.6131 45.6355C21.5315 45.7171 21.4517 45.8016 21.3771 45.8918C21.3024 45.9833 21.2352 46.083 21.1696 46.1807L21.1655 46.1766C21.1006 46.2739 21.0423 46.3779 20.9865 46.4818C20.9312 46.5854 20.88 46.6921 20.836 46.7992C20.7911 46.9078 20.7517 47.0174 20.7179 47.1288C20.6838 47.2411 20.6555 47.3555 20.6325 47.4706C20.6094 47.5862 20.5911 47.7042 20.5796 47.8205C20.5681 47.9374 20.5633 48.0542 20.5633 48.1705L20.5308 48.5123C20.5084 48.6241 20.4724 48.7323 20.4291 48.8378C20.3858 48.9412 20.33 49.0436 20.2663 49.1389C20.2023 49.2349 20.1312 49.3268 20.0506 49.4074L19.7861 49.6272C19.6905 49.6915 19.5887 49.7427 19.485 49.7859C19.378 49.8305 19.2667 49.8652 19.1554 49.8876C19.0447 49.9091 18.9275 49.92 18.8137 49.9201L18.4719 49.8876C18.3607 49.8653 18.2494 49.8308 18.1423 49.7859C18.0363 49.7422 17.9339 49.6923 17.8371 49.6272C17.7422 49.5636 17.6527 49.4875 17.5726 49.4074C17.4914 49.3261 17.42 49.2366 17.3569 49.1429C17.2925 49.0468 17.2378 48.9463 17.1942 48.8418L17.0965 48.5123C17.0741 48.3995 17.0599 48.2854 17.0599 48.1705C17.0604 47.9389 17.0738 47.7052 17.0965 47.4747C17.1194 47.2433 17.1528 47.0138 17.1983 46.787C17.2434 46.5589 17.3021 46.3328 17.3692 46.1115C17.4367 45.8904 17.5121 45.6709 17.6011 45.4564C17.6899 45.243 17.7892 45.0341 17.8981 44.8298L18.2562 44.2317C18.3854 44.0382 18.5245 43.8532 18.6712 43.6742C18.8181 43.4949 18.9751 43.3215 19.1392 43.1574L19.6559 42.6936C19.8351 42.5463 20.0208 42.4074 20.2134 42.2785C20.4061 42.1496 20.6037 42.0297 20.8075 41.9205C21.0114 41.8115 21.2242 41.7122 21.4382 41.6234L22.0933 41.3874C22.3156 41.3196 22.5419 41.2619 22.7687 41.2165C22.9956 41.1712 23.2236 41.1379 23.4523 41.1148C23.6822 41.0922 23.9166 41.0823 24.1481 41.0822H29.4867C29.7188 41.0822 29.9519 41.092 30.1825 41.1148L30.8661 41.2165ZM52.558 41.8391C52.5355 41.9519 52.4998 42.0628 52.4562 42.1687C52.4119 42.276 52.356 42.376 52.2935 42.4698C52.23 42.5649 52.1593 42.6568 52.0778 42.7383L51.8133 42.954C51.7173 43.0186 51.6145 43.0688 51.5082 43.1127L51.5122 43.1167C51.406 43.1611 51.2945 43.1924 51.1826 43.2144C51.0704 43.2368 50.9551 43.2509 50.8408 43.251H45.5023C45.3876 43.251 45.2729 43.2368 45.1605 43.2144L44.8309 43.1167C44.7258 43.0729 44.625 43.0174 44.5298 42.954C44.4346 42.8905 44.3429 42.8199 44.2612 42.7383C44.1814 42.6578 44.1095 42.5656 44.0456 42.4698L43.8828 42.1687C43.8392 42.0628 43.8076 41.9519 43.7852 41.8391C43.7627 41.7265 43.7485 41.6121 43.7485 41.4973C43.7486 41.3824 43.7628 41.2681 43.7852 41.1555C43.8075 41.0439 43.8396 40.9352 43.8828 40.83C43.9265 40.7255 43.9817 40.6207 44.0456 40.5248C44.1093 40.4293 44.1808 40.3408 44.2612 40.2603L44.5298 40.0406C44.6249 39.9769 44.7258 39.9253 44.8309 39.8819L45.1605 39.7802C45.2728 39.7578 45.3877 39.7476 45.5023 39.7476H50.8408C50.9551 39.7477 51.0704 39.7577 51.1826 39.7802C51.2935 39.8024 51.4027 39.8345 51.5082 39.8778L51.5122 39.8819C51.6168 39.9257 51.7185 39.9773 51.8133 40.0406L52.0778 40.2603C52.1576 40.3407 52.2296 40.4291 52.2935 40.5248C52.3563 40.6191 52.4118 40.722 52.4562 40.83C52.4997 40.9358 52.5357 41.0442 52.558 41.1555C52.5804 41.2681 52.5905 41.3824 52.5905 41.4973C52.5905 41.6119 52.5804 41.7267 52.558 41.8391ZM57.8924 33.8313C57.87 33.9426 57.838 34.0558 57.7948 34.1609C57.7508 34.2676 57.6949 34.3675 57.632 34.462C57.5679 34.5581 57.4973 34.6495 57.4164 34.7305C57.3355 34.8113 57.2441 34.882 57.1478 34.9462L56.8467 35.1089C56.7401 35.1533 56.6294 35.1883 56.5171 35.2107C56.4035 35.2332 56.2875 35.2432 56.1753 35.2432H45.5023C45.3875 35.2432 45.2729 35.229 45.1605 35.2066C45.0452 35.1842 44.935 35.1518 44.8309 35.1089C44.7234 35.0646 44.6238 35.0088 44.5298 34.9462C44.4345 34.8826 44.3429 34.8122 44.2612 34.7305C44.1797 34.6489 44.1091 34.5572 44.0456 34.462L43.8828 34.1609C43.8395 34.0557 43.8076 33.9467 43.7852 33.8353C43.7629 33.723 43.7485 33.6041 43.7485 33.4895C43.7487 33.3749 43.7628 33.26 43.7852 33.1477C43.8076 33.0362 43.8395 32.9274 43.8828 32.8221C43.9267 32.7173 43.9822 32.612 44.0456 32.517C44.1087 32.4225 44.1803 32.3336 44.2612 32.2525C44.3429 32.1709 44.4345 32.1003 44.5298 32.0368C44.6237 31.9742 44.7234 31.9184 44.8309 31.8741C44.935 31.8312 45.0452 31.7947 45.1605 31.7723L45.5023 31.7398H56.1753C56.2876 31.7398 56.4035 31.7498 56.5171 31.7723C56.6295 31.7947 56.7401 31.8296 56.8467 31.8741L57.1478 32.0328L57.1519 32.0368C57.2456 32.1 57.335 32.1711 57.4164 32.2525C57.4968 32.333 57.5683 32.4216 57.632 32.517C57.6953 32.6119 57.7506 32.7149 57.7948 32.8221C57.8381 32.9274 57.87 33.0361 57.8924 33.1477C57.9148 33.26 57.9289 33.3749 57.929 33.4895C57.929 33.6041 57.9147 33.7189 57.8924 33.8313ZM31.216 32.5902C31.2018 32.7345 31.1825 32.8772 31.155 33.0175C31.1266 33.1593 31.0913 33.3022 31.0492 33.4406C31.0074 33.5785 30.9583 33.7136 30.9027 33.8475C30.8477 33.9807 30.7845 34.1138 30.7155 34.2422C30.6478 34.3686 30.5758 34.4927 30.4958 34.6125C30.4151 34.7333 30.3259 34.8475 30.2354 34.9584C30.1437 35.0699 30.0481 35.1822 29.9465 35.2839L29.625 35.5728C29.5123 35.6654 29.3949 35.7532 29.2751 35.8332C29.1556 35.913 29.03 35.9884 28.9007 36.057L28.8967 36.0529C28.7709 36.1201 28.6436 36.1851 28.5101 36.2401C28.3772 36.2951 28.2414 36.3445 28.1032 36.3866C27.9639 36.4288 27.8211 36.4642 27.68 36.4924C27.5383 36.5207 27.3956 36.5393 27.2528 36.5534C27.1092 36.5676 26.9625 36.5778 26.8174 36.5778C26.6728 36.5778 26.5288 36.5675 26.3861 36.5534C26.2423 36.5393 26.0974 36.5209 25.9548 36.4924L25.5357 36.3866C25.3969 36.3445 25.2615 36.295 25.1288 36.2401C24.9955 36.185 24.8651 36.1211 24.7381 36.0529C24.6096 35.9847 24.4834 35.9131 24.3638 35.8332C24.2435 35.7528 24.1261 35.665 24.0138 35.5728C23.9028 35.4815 23.7952 35.3831 23.6924 35.2798C23.5895 35.1774 23.4945 35.0731 23.4035 34.9624C23.3113 34.8502 23.2235 34.7328 23.1431 34.6125C23.063 34.4926 22.9877 34.3669 22.9193 34.2382L22.7362 33.8475C22.6816 33.715 22.6319 33.5797 22.5897 33.4406C22.5473 33.3013 22.5121 33.1583 22.4839 33.0175C22.4556 32.8755 22.4329 32.7332 22.4188 32.5902C22.4046 32.447 22.3985 32.2999 22.3985 32.1548C22.399 32.0125 22.4041 31.8683 22.4188 31.7235L22.4839 31.2963C22.5123 31.1545 22.5476 31.0115 22.5897 30.8731C22.6316 30.7353 22.6806 30.5995 22.7362 30.4662C22.7915 30.3323 22.8524 30.2017 22.9193 30.0756C22.988 29.947 23.0642 29.8201 23.1431 29.7012C23.2237 29.5806 23.3121 29.4666 23.4035 29.3553L23.6924 29.0339C23.7952 28.9311 23.9036 28.8319 24.0138 28.7409C24.125 28.6501 24.2446 28.5646 24.3638 28.4846L24.7341 28.2608C24.8613 28.1927 24.9936 28.1293 25.1288 28.0736L25.5357 27.9271C25.6738 27.8851 25.8139 27.8496 25.9548 27.8213C26.0964 27.793 26.2413 27.7746 26.3861 27.7603C26.5292 27.7462 26.6727 27.7359 26.8174 27.7359C26.9615 27.7359 27.1082 27.742 27.2528 27.7562L27.68 27.8213C27.8221 27.8497 27.9648 27.8852 28.1032 27.9271L28.5101 28.0736L28.9007 28.2567C29.0285 28.3251 29.1548 28.4001 29.2751 28.4805C29.3956 28.561 29.5135 28.6499 29.625 28.7409C29.7354 28.8321 29.8409 28.9289 29.9424 29.0298L29.9465 29.0339C30.0473 29.1354 30.1443 29.2409 30.2354 29.3513L30.4958 29.7012C30.5756 29.8207 30.6475 29.9446 30.7155 30.0715C30.784 30.1996 30.8474 30.3318 30.9027 30.4662C30.9586 30.6004 31.0075 30.7362 31.0492 30.8731L31.155 31.2922C31.1825 31.4325 31.2018 31.5792 31.216 31.7235C31.2302 31.8674 31.2403 32.0109 31.2404 32.1548C31.2404 32.2989 31.2303 32.446 31.216 32.5902ZM33.8731 32.8506C33.8503 33.081 33.8163 33.311 33.7713 33.5383C33.726 33.7651 33.6717 33.9918 33.6045 34.2137C33.537 34.4349 33.4575 34.6544 33.3685 34.8689C33.2798 35.0839 33.1808 35.2951 33.0715 35.4996C32.9623 35.7041 32.8419 35.9016 32.7134 36.0936L32.2984 36.6552C32.1514 36.8343 31.9945 37.0038 31.8304 37.1678C31.6667 37.3316 31.4963 37.489 31.3177 37.6358C31.1382 37.7829 30.9489 37.9219 30.7562 38.0508C30.5639 38.1787 30.3665 38.2996 30.1621 38.4089C29.9565 38.519 29.7454 38.6171 29.5314 38.7059C29.3167 38.7951 29.0983 38.8747 28.8763 38.9419C28.6549 39.009 28.4291 39.0636 28.2009 39.1088C27.9741 39.1536 27.7448 39.1877 27.5132 39.2105C27.2822 39.2333 27.0492 39.2471 26.8174 39.2471C26.5862 39.2471 26.3553 39.2331 26.1257 39.2105C25.8958 39.1873 25.6611 39.1543 25.4339 39.1088C25.2076 39.0634 24.9843 39.0055 24.7625 38.9379C24.54 38.8704 24.3211 38.7941 24.1074 38.7059C23.8936 38.617 23.6818 38.5147 23.4767 38.4048C23.2737 38.2962 23.0749 38.1794 22.8827 38.0508C22.6895 37.9219 22.504 37.7822 22.3252 37.6358C22.1466 37.4889 21.9722 37.3316 21.8084 37.1678C21.6444 37.0038 21.4876 36.83 21.3405 36.6511C21.1936 36.4718 21.0543 36.2861 20.9255 36.0936C20.7964 35.9007 20.6766 35.7029 20.5674 35.4996L20.2704 34.8689L20.0384 34.2137C19.9705 33.9911 19.913 33.7655 19.8675 33.5383C19.822 33.3109 19.789 33.0807 19.7658 32.8506C19.7431 32.6203 19.7292 32.3868 19.7292 32.1548C19.7292 31.9239 19.7431 31.6932 19.7658 31.4631C19.7886 31.2319 19.8219 30.9995 19.8675 30.7714C19.9126 30.5442 19.9676 30.3203 20.0344 30.1C20.1015 29.8784 20.1812 29.6593 20.2704 29.4449C20.3592 29.2309 20.4572 29.0197 20.5674 28.8142C20.6764 28.6104 20.7967 28.4131 20.9255 28.2201C21.0541 28.028 21.1938 27.8375 21.3405 27.6586C21.4868 27.4806 21.6413 27.3091 21.8044 27.1459C21.9686 26.9817 22.1418 26.825 22.3211 26.6779C22.4999 26.531 22.6858 26.3917 22.8786 26.2629L23.4767 25.9048C23.6812 25.7955 23.893 25.6968 24.1074 25.6078C24.3212 25.5196 24.5375 25.4393 24.7585 25.3718C24.9803 25.3046 25.2114 25.2503 25.438 25.205C25.6652 25.1601 25.8954 25.126 26.1257 25.1032C26.3556 25.0806 26.5863 25.0667 26.8174 25.0666C27.0498 25.0666 27.2828 25.0805 27.5132 25.1032C27.7442 25.126 27.9734 25.16 28.2009 25.205C28.428 25.2504 28.6543 25.3045 28.8763 25.3718C29.0979 25.4394 29.317 25.5193 29.5314 25.6078L30.1621 25.9048L30.7562 26.2629L31.3177 26.6779C31.4944 26.8232 31.6633 26.9786 31.8263 27.1418C31.9914 27.3063 32.1516 27.4801 32.2984 27.6586L32.7134 28.216C32.8418 28.4085 32.9623 28.6101 33.0715 28.8142C33.1806 29.0188 33.2798 29.2299 33.3685 29.4449C33.4576 29.6592 33.5371 29.8791 33.6045 30.1C33.6715 30.3212 33.726 30.5451 33.7713 30.7714C33.8162 30.9985 33.8503 31.2324 33.8731 31.4631C33.8957 31.6926 33.9096 31.9233 33.9097 32.1548C33.9097 32.3866 33.8957 32.62 33.8731 32.8506ZM63.2676 50.8397C63.2676 50.9844 63.2572 51.128 63.2432 51.271C63.2286 51.4132 63.2065 51.5603 63.1781 51.7024C63.1498 51.843 63.1183 51.9836 63.0763 52.1215C63.0344 52.2594 62.9847 52.3957 62.9299 52.5284C62.8748 52.6603 62.8115 52.7949 62.7427 52.9231C62.6748 53.0499 62.5996 53.1731 62.5189 53.2933C62.4384 53.4137 62.3535 53.5319 62.2625 53.6433C62.171 53.7542 62.0716 53.8627 61.9696 53.9647L61.6481 54.2536C61.5368 54.3451 61.4196 54.4293 61.2982 54.51L61.3023 54.514C61.1823 54.5942 61.0551 54.6654 60.9279 54.7338L60.5373 54.9209C60.4039 54.9766 60.2682 55.0255 60.1304 55.0674L59.7072 55.1732C59.5668 55.2008 59.4239 55.2241 59.28 55.2383C59.1368 55.2524 58.9923 55.2581 58.8486 55.2587H16.1403C15.9967 55.2581 15.8518 55.2524 15.709 55.2383L15.2818 55.1732C15.1397 55.1448 14.997 55.1094 14.8586 55.0674C14.7203 55.0253 14.5849 54.9763 14.4517 54.9209C14.3177 54.8655 14.1872 54.8048 14.061 54.7378C13.9338 54.6695 13.8067 54.5942 13.6867 54.514L13.3408 54.2536C13.2284 54.1618 13.1208 54.0661 13.0194 53.9647C12.9174 53.8627 12.818 53.7542 12.7264 53.6433C12.6354 53.5319 12.5505 53.4137 12.4701 53.2933C12.3894 53.1731 12.3142 53.0499 12.2463 52.9231C12.1777 52.7954 12.1181 52.6639 12.0632 52.5324L12.0591 52.5284C12.0043 52.3957 11.9546 52.2594 11.9126 52.1215C11.8707 51.9836 11.8391 51.843 11.8109 51.7024C11.7825 51.5603 11.7604 51.4173 11.7458 51.2751C11.7317 51.132 11.7214 50.9844 11.7214 50.8397V24.1511C11.7214 24.006 11.7316 23.859 11.7458 23.7157L11.8109 23.2885C11.8391 23.1472 11.8709 23.0068 11.9126 22.8693C11.9549 22.7298 12.0044 22.5913 12.0591 22.4584C12.1143 22.3261 12.1779 22.1955 12.2463 22.0678L12.4701 21.6934C12.5505 21.5731 12.6362 21.458 12.7264 21.3475L13.0194 21.0261L13.3408 20.7331L13.6867 20.4768C13.8074 20.3961 13.9346 20.3209 14.061 20.253L14.4517 20.0699C14.5843 20.0153 14.7201 19.9615 14.8586 19.9193C14.997 19.8774 15.1397 19.846 15.2818 19.8176C15.4242 19.7891 15.5665 19.767 15.709 19.7525L16.1444 19.7281H58.8446L59.28 19.7525L59.7072 19.8176C59.8493 19.846 59.992 19.8774 60.1304 19.9193C60.2685 19.9614 60.4044 20.0109 60.5373 20.0658L60.9279 20.253C61.0544 20.3209 61.1815 20.3961 61.3023 20.4768C61.4222 20.557 61.5374 20.6422 61.6481 20.7331L61.9696 21.0261L62.2625 21.3475L62.5189 21.6934L62.7427 22.0678L62.9299 22.4584L63.0763 22.8693C63.1181 23.0068 63.1498 23.1472 63.1781 23.2885L63.2432 23.7157C63.2573 23.8589 63.2676 24.006 63.2676 24.1511V50.8397ZM65.9369 50.8397L65.9002 51.5355C65.8774 51.7666 65.8439 51.9966 65.7985 52.2232C65.7531 52.4502 65.6955 52.6762 65.6276 52.8986C65.5606 53.1197 65.4803 53.3359 65.3916 53.5497C65.3027 53.7635 65.2037 53.9757 65.0946 54.1804C64.9854 54.3845 64.8652 54.5821 64.7365 54.7745C64.6075 54.9672 64.4727 55.1565 64.3255 55.336C64.1796 55.5134 64.0216 55.685 63.8576 55.8487C63.6939 56.0124 63.5208 56.1691 63.3408 56.3166L62.7834 56.7317C62.5899 56.8608 62.3894 56.9805 62.1852 57.0897C61.9811 57.1993 61.7722 57.2981 61.5586 57.3868L60.9035 57.6228C60.6811 57.6908 60.4544 57.7442 60.228 57.7896C60.0001 57.8352 59.7702 57.8722 59.5404 57.8954C59.3096 57.9181 59.0771 57.9279 58.8446 57.9279H16.1444C15.9119 57.9279 15.6794 57.9181 15.4486 57.8954C15.2187 57.8722 14.9889 57.8352 14.7609 57.7896L14.0855 57.6228C13.863 57.5553 13.644 57.475 13.4304 57.3868C13.2167 57.2981 13.0078 57.1993 12.8037 57.0897L12.2056 56.7317C12.013 56.6028 11.8274 56.4639 11.6481 56.3166C11.4682 56.1691 11.2951 56.0124 11.1314 55.8487C10.9673 55.685 10.8134 55.5134 10.6675 55.336C10.5204 55.1565 10.3814 54.9672 10.2525 54.7745L9.89438 54.1804C9.78524 53.9757 9.6863 53.7635 9.59734 53.5497C9.50862 53.3359 9.42839 53.1197 9.36134 52.8986L9.19044 52.2232C9.14502 51.9966 9.11154 51.7666 9.08872 51.5355C9.06598 51.3052 9.05618 51.0717 9.05617 50.8397V24.1511C9.05617 23.9185 9.06597 23.6858 9.08872 23.4553C9.1115 23.224 9.14505 22.9948 9.19044 22.7676C9.23585 22.5411 9.29326 22.3147 9.36134 22.0922L9.59734 21.4371C9.6862 21.2231 9.78535 21.0144 9.89438 20.8104C10.0038 20.6067 10.1231 20.4055 10.2525 20.2123C10.3809 20.0199 10.5168 19.8332 10.6634 19.6548L11.1314 19.1381L11.6481 18.6701C11.8268 18.5234 12.0137 18.3876 12.2056 18.2592C12.399 18.13 12.6 18.0105 12.8037 17.9011C13.0077 17.792 13.2164 17.6929 13.4304 17.604C13.6439 17.5159 13.8631 17.4354 14.0855 17.368L14.7609 17.1971C14.9887 17.1516 15.2189 17.1186 15.4486 17.0954C15.6794 17.0727 15.9118 17.0629 16.1444 17.0629H58.8446C59.0771 17.0629 59.3095 17.0727 59.5404 17.0954C59.77 17.1186 60.0003 17.1516 60.228 17.1971C60.4546 17.2426 60.681 17.3 60.9035 17.368L61.5586 17.6C61.7726 17.6888 61.9813 17.7921 62.1852 17.9011C62.39 18.0108 62.5902 18.1302 62.7834 18.2592C62.9744 18.387 63.1589 18.5241 63.3368 18.6701C63.5163 18.8173 63.6934 18.9734 63.8576 19.1381C64.0223 19.3023 64.1784 19.4753 64.3255 19.6548C64.4721 19.8332 64.608 20.0199 64.7365 20.2123C64.8656 20.4051 64.9852 20.6058 65.0946 20.8104C65.2036 21.0144 65.3028 21.2231 65.3916 21.4371C65.4807 21.6516 65.5604 21.8704 65.6276 22.0922L65.7985 22.7676C65.8439 22.9948 65.8775 23.224 65.9002 23.4553C65.923 23.6858 65.9364 23.9191 65.9369 24.1511V50.8397Z" fill="#113C7B"/>
<path d="M37.4886 74.9786C16.8178 74.9786 0 58.1607 0 37.49C0 16.8193 16.8178 0 37.4886 0C58.1593 0 74.9771 16.8178 74.9771 37.4886C74.9771 58.1593 58.1593 74.9786 37.4886 74.9786ZM37.4886 3.57088C18.7862 3.57088 3.56945 18.7876 3.56945 37.49C3.56945 56.1928 18.7862 71.4096 37.4886 71.4096C56.1914 71.4096 71.4081 56.1928 71.4081 37.49C71.4081 18.7876 56.1914 3.57088 37.4886 3.57088Z" fill="#113C7B"/>
<path d="M10.9803 61.4732L61.4743 10.9792L63.9991 13.504L13.5051 63.998L10.9803 61.4732Z" fill="#113C7B"/>
</svg>
