<svg width="72" height="76" viewBox="0 0 72 76" fill="none" xmlns="http://www.w3.org/2000/svg">
<path d="M39.8877 55.9006C39.8878 47.5328 47.2304 40.8635 56.0851 40.8559L57.0309 40.855V49.3138L69.2127 37.7353L57.0309 26.156V34.6491H56.0861C52.9603 34.6509 49.9311 35.2179 47.0785 36.3316C44.3207 37.4081 41.8499 38.9471 39.7318 40.9024C37.6131 42.8581 35.9549 45.1298 34.798 47.6555C33.5994 50.2707 32.9931 53.0435 32.9931 55.9006V73.5139H39.8877V55.9006ZM13.7913 24.349C14.3008 23.9338 14.9495 23.8923 15.4596 24.0833C16.0056 24.288 16.5253 24.8189 16.5253 25.593V32.7641C19.5475 32.8691 22.4864 33.4696 25.2718 34.5572C28.2425 35.7174 30.9154 37.3793 33.2118 39.4986C33.682 39.9327 34.1313 40.3821 34.5599 40.8448L35.1052 41.4338L34.618 42.073C33.6899 43.2908 32.8876 44.5855 32.2162 45.9488L31.9366 46.5379C31.3324 47.8573 30.8607 49.2106 30.523 50.5903L29.8826 53.2055L28.7495 50.7658C26.6962 46.3457 22.0516 43.1248 16.5253 42.7883V49.8768C16.5251 50.651 16.0049 51.1811 15.4596 51.3855C14.9161 51.589 14.2132 51.5293 13.6907 51.0325L0.91656 38.8911C0.249946 38.257 0.249393 37.2121 0.917483 36.5778L13.6916 24.4364L13.7913 24.349ZM2.45289 37.7344L14.6356 49.3128V40.8541L15.5814 40.855C21.3516 40.8599 26.4566 43.6819 29.3299 47.9574C29.5892 47.2088 29.8866 46.4695 30.2203 45.7407L30.523 45.1044C31.1291 43.8736 31.8335 42.6954 32.6323 41.575C32.4055 41.3466 32.1733 41.1216 31.9348 40.9015C29.816 38.9461 27.3456 37.4076 24.588 36.3307C21.7354 35.2169 18.7057 34.6509 15.5804 34.6491L14.6356 34.6482V26.1551L2.45289 37.7344ZM35.323 0.845674C35.9218 0.309176 36.8259 0.27576 37.4628 0.745339L37.5864 0.845674L50.7398 12.6378C51.2962 13.1371 51.4007 13.8734 51.1412 14.4633C50.8871 15.0409 50.3064 15.4452 49.6076 15.4453H41.5237V35.8439L41.0872 36.1244C39.8235 36.9382 38.6366 37.8564 37.5338 38.8743C36.9987 39.3684 36.4892 39.8805 36.0058 40.41L35.3276 41.1532L34.631 40.4277C34.2892 40.0717 33.934 39.7236 33.5726 39.3899C32.9256 38.7927 32.248 38.2302 31.5426 37.7047L31.1597 37.4195V15.4453H23.3018C22.603 15.4452 22.0224 15.0409 21.7682 14.4633C21.5087 13.8733 21.6131 13.1381 22.1696 12.6387L35.323 0.845674ZM24.0021 13.5426H33.0494V36.4682C33.6705 36.9482 34.2717 37.4545 34.8496 37.988C34.9986 38.1256 35.1453 38.2664 35.2916 38.408C35.6043 38.0894 35.9259 37.777 36.2568 37.4715C37.313 36.4965 38.4409 35.6079 39.6339 34.808V13.5426H48.9073L36.4543 2.37856L24.0021 13.5426ZM41.7774 75.4166H31.1034V55.9006C31.1034 52.7666 31.7696 49.7226 33.0817 46.8593L33.3262 46.3446C34.5764 43.7879 36.3016 41.4871 38.4547 39.4996C40.7506 37.3803 43.4234 35.7179 46.3947 34.5581C49.1801 33.4706 52.1187 32.8701 55.1412 32.7651V25.5939C55.1412 24.8198 55.6609 24.2889 56.2069 24.0843C56.7509 23.8805 57.4526 23.9409 57.9749 24.4373L70.7499 36.5787C71.4179 37.2129 71.4162 38.257 70.7499 38.8911L57.9749 51.0334C57.4526 51.5298 56.7509 51.5902 56.2069 51.3864C55.6609 51.1818 55.1412 50.6509 55.1412 49.8768V42.7883C47.6216 43.2441 41.7775 49.0207 41.7774 55.9006V75.4166Z" fill="white"/>
<path d="M39.4709 55.9016C39.471 47.2726 47.0326 40.4471 56.0846 40.4393H57.4478V48.3414L68.605 37.7335L57.4478 27.1255V35.0642H56.0846C53.0104 35.0661 50.0335 35.626 47.2305 36.7203C44.5205 37.7781 42.095 39.2896 40.0161 41.2084C37.9368 43.1279 36.3112 45.3552 35.1781 47.8287C34.0043 50.3897 33.4081 53.1047 33.408 55.9016V73.0972H39.4709V55.9016ZM16.1066 25.5915C16.106 25.0272 15.7319 24.6295 15.3132 24.4725C14.9232 24.3267 14.4353 24.3632 14.0558 24.6719L13.9663 24.7492L1.2059 36.879C0.711454 37.3484 0.709396 38.118 1.20183 38.5879L13.9785 50.7299C14.369 51.1012 14.8967 51.1503 15.3132 50.9944C15.7318 50.8374 16.1065 50.4403 16.1066 49.8754V42.3436L16.5501 42.3721C22.2212 42.7174 27.0063 46.0255 29.1274 50.5915L29.7581 51.9546L30.1203 50.4898C30.4643 49.0848 30.942 47.7062 31.5566 46.3638L31.5607 46.3598L31.8415 45.7697C32.5249 44.382 33.3427 43.0578 34.2869 41.8187L34.5596 41.4566L34.2544 41.127C33.8334 40.6725 33.39 40.2312 32.9279 39.8046C30.6708 37.7217 28.0426 36.0878 25.1195 34.9462C22.3787 33.8761 19.4853 33.2836 16.5094 33.1802L16.1066 33.168V25.5915ZM56.0602 23.6954C56.7313 23.444 57.6075 23.5135 58.2616 24.1348L71.7951 36.997H71.5225C71.7926 37.6754 71.6703 38.4592 71.1685 39.0396V39.0722L71.0383 39.1942L58.2616 51.3362C57.6075 51.9574 56.7313 52.027 56.0602 51.7756C55.3875 51.5232 54.7256 50.8582 54.7256 49.8754V43.247C47.6121 43.8854 42.1931 49.4048 42.193 55.9016V75.8316H30.6859V55.9016C30.6859 52.7074 31.3672 49.6028 32.7041 46.6853L32.9482 46.1644L32.9523 46.1604C34.2259 43.5563 35.9834 41.2153 38.1729 39.1942C40.5075 37.0391 43.2235 35.3473 46.2417 34.169C48.9481 33.1123 51.798 32.5144 54.7256 32.3705V25.5956C54.7256 24.6128 55.3875 23.9478 56.0602 23.6954ZM15.0527 34.23L15.5817 34.2341C18.7573 34.236 21.8396 34.8103 24.7411 35.9431C27.5446 37.0382 30.0587 38.6035 32.2158 40.594C32.4592 40.8187 32.6973 41.0494 32.9279 41.2816L33.1761 41.5298L32.9727 41.8187C32.187 42.9207 31.4934 44.0794 30.8975 45.2896L30.8934 45.2855L30.5964 45.9122C30.2682 46.6288 29.9803 47.3579 29.7256 48.0932L29.4489 48.8825L28.985 48.1908C26.191 44.0333 21.2165 41.2785 15.5817 41.2735L15.0527 41.2694V50.2823L14.3488 49.615L1.8488 37.7335L14.3488 25.8519L15.0527 25.1846V34.23ZM3.05323 37.7335L14.2186 48.3414V40.4353L14.6377 40.4393H15.5817C21.1911 40.4441 26.1907 43.0535 29.2088 47.08C29.4034 46.5712 29.611 46.0653 29.8395 45.5663L29.8436 45.5622L30.1447 44.9234L30.1488 44.9193C30.7122 43.7752 31.3622 42.6779 32.0897 41.6275C31.9453 41.4864 31.799 41.3457 31.6502 41.2084C29.5707 39.2894 27.1458 37.7786 24.4359 36.7203C21.6329 35.6259 18.6556 35.0661 15.5817 35.0642H14.2186V27.1255L3.05323 37.7335ZM37.0254 0.965877C36.5667 0.739891 35.9945 0.804789 35.6012 1.15712L22.4461 12.9491C22.0335 13.3203 21.9574 13.8601 22.1491 14.296C22.3372 14.7233 22.7691 15.0279 23.3006 15.0284H31.577V37.2086L31.7926 37.3713C32.5094 37.9053 33.1982 38.4775 33.8556 39.0844C34.2225 39.423 34.5828 39.7767 34.9299 40.1382L35.3164 40.5411L35.6989 40.1301C36.1901 39.592 36.7057 39.0693 37.2492 38.5676C38.3697 37.5332 39.5786 36.5989 40.8625 35.7722L41.1066 35.6135V15.0284H49.6068C50.1386 15.0283 50.57 14.7231 50.7583 14.296C50.9262 13.9141 50.8891 13.4536 50.5996 13.0956L50.4613 12.9491L37.3224 1.16933L37.2166 1.07981L37.0254 0.965877ZM49.1836 13.2339L49.9974 13.9582H40.0487V35.0316L39.8656 35.1537C38.6905 35.9415 37.5812 36.8182 36.5412 37.7782C36.2155 38.0789 35.8971 38.388 35.589 38.7019L35.3001 38.9948L35.0031 38.7059C34.8575 38.5651 34.7126 38.4288 34.5677 38.295C33.999 37.77 33.4055 37.2705 32.7936 36.7976L32.6309 36.6714V13.9582H22.9141L23.7238 13.2339L36.175 2.06858L36.4557 1.82037L49.1836 13.2339ZM25.0951 13.1241H33.465V36.2686C34.0376 36.7179 34.5969 37.1854 35.1333 37.6806C35.1855 37.7287 35.2364 37.7784 35.2879 37.827C35.513 37.6043 35.7412 37.3801 35.9756 37.1638C36.9928 36.225 38.0765 35.3668 39.2186 34.5881V13.1241H47.8164L36.4517 2.93528L25.0951 13.1241ZM40.305 73.9314H32.578V55.9016C32.578 52.9848 33.1942 50.1518 34.4172 47.4828C35.5978 44.9053 37.2929 42.5898 39.4505 40.598C41.6076 38.6068 44.1204 37.038 46.9253 35.9431L46.9985 35.9146C49.8778 34.8012 52.936 34.236 56.0846 34.2341H56.6136V25.1846L57.3175 25.856L69.8175 37.7335L69.5002 38.0386L57.3175 49.615L56.6136 50.2864V41.2735H56.0846C47.4276 41.2813 40.3051 47.7954 40.305 55.9016V73.9314ZM55.5597 33.168L55.1569 33.1802C52.1807 33.2836 49.2876 33.8762 46.5469 34.9462C43.6234 36.0873 40.9949 37.7219 38.7384 39.8046C36.6223 41.758 34.9277 44.0182 33.701 46.5266L33.4569 47.0271L33.4609 47.0311C32.1736 49.8403 31.52 52.8279 31.52 55.9016V75.0015H41.3589V55.9016C41.359 48.7726 47.4067 42.8394 55.1162 42.3721L55.5597 42.3436V49.8754C55.5597 50.4402 55.9343 50.8371 56.3532 50.9944C56.7698 51.1504 57.2973 51.1011 57.6878 50.7299L70.4645 38.5879C70.9568 38.1178 70.9547 37.3482 70.4605 36.879L69.7036 36.1628H69.7118L57.6878 24.7411C57.2975 24.3701 56.7697 24.3168 56.3532 24.4725C55.934 24.6296 55.5597 25.0305 55.5597 25.5956V33.168ZM16.9408 32.3664C19.8681 32.5104 22.7182 33.1123 25.4246 34.169C27.323 34.9105 29.1025 35.8543 30.7428 36.9888V15.8625H23.3006C22.4356 15.862 21.7081 15.3568 21.3882 14.6296C21.0849 13.9394 21.1806 13.0934 21.7544 12.473V12.4527L21.8927 12.3266L35.0438 0.534562C35.6986 -0.0521423 36.6425 -0.154839 37.3997 0.221248L37.709 0.408423L37.7253 0.42063L37.8473 0.522355L37.8636 0.534562L51.0187 12.3266L51.1571 12.4527V12.473C51.7297 13.0931 51.826 13.94 51.5233 14.6296C51.2032 15.3572 50.4721 15.8624 49.6068 15.8625H41.9408V36.0733L41.7495 36.1954L41.3141 36.4761C40.0705 37.2769 38.8997 38.1805 37.8148 39.182C37.2889 39.6676 36.7881 40.1715 36.3133 40.6916L35.6338 41.4322L35.6257 41.4403L35.4385 41.6845L34.9502 42.3274C34.0402 43.5215 33.2487 44.7877 32.5902 46.1238L32.3135 46.7178L32.3094 46.7138C31.7169 48.0084 31.2569 49.3371 30.9259 50.6892L30.0063 54.4571L28.3706 50.9415C26.4395 46.7848 22.1264 43.7103 16.9408 43.2429V49.8754C16.9405 50.8588 16.2778 51.5237 15.6061 51.7756C14.9362 52.0265 14.0591 51.9572 13.4048 51.3362L0.628096 39.1942C-0.211057 38.3961 -0.209024 37.0754 0.632165 36.2767L13.4048 24.1348L13.417 24.1226L13.5147 24.0372L13.5269 24.025C14.166 23.5041 14.9764 23.4555 15.6061 23.6913C16.2788 23.9433 16.9401 24.6092 16.9408 25.5915V32.3664Z" fill="white"/>
</svg>
