<svg width="76" height="64" viewBox="0 0 76 64" fill="none" xmlns="http://www.w3.org/2000/svg">
<path d="M49.8111 0.415039C51.8074 0.415237 53.7465 0.81333 55.5736 1.60153C57.3368 2.36272 58.9198 3.45464 60.2791 4.84124C61.6374 6.22817 62.704 7.84306 63.4498 9.6419C64.2224 11.5068 64.6155 13.4862 64.6157 15.5239C64.6157 17.5626 64.2225 19.5448 63.4498 21.41C62.7039 23.2086 61.6373 24.8246 60.2791 26.2107C59.9252 26.5719 59.5554 26.913 59.172 27.2331C59.3741 27.3144 59.5757 27.3953 59.7759 27.4813C62.8252 28.798 65.5665 30.6826 67.9163 33.0814C70.2672 35.48 72.1125 38.2752 73.4019 41.3868C74.7378 44.6106 75.415 48.0342 75.415 51.5604V52.1326C75.415 54.2149 74.1995 56.0146 72.4541 56.8281C72.0642 57.041 71.6361 57.1767 71.1959 57.2235L60.4511 57.232C60.383 56.2288 60.2704 55.239 60.103 54.2657H70.3613C71.5138 54.2657 72.4499 53.3086 72.4499 52.1326V51.5604C72.4499 48.4409 71.8523 45.4142 70.6717 42.5649C69.5314 39.8138 67.8983 37.3411 65.8193 35.2188C63.7399 33.0976 61.3187 31.4302 58.6225 30.2666C57.8214 29.9206 56.9942 29.6221 56.1649 29.3747C56.0859 29.3508 56.0108 29.3176 55.9384 29.2821C55.8182 29.3377 55.6952 29.3941 55.5736 29.4462C53.7458 30.2355 51.8046 30.6369 49.8069 30.6369C48.363 30.6367 46.9509 30.4201 45.5878 30.0058C45.9664 29.0774 46.28 28.1188 46.5273 27.1321C47.5886 27.4446 48.6873 27.6118 49.8111 27.6118C51.4092 27.6116 52.9605 27.2909 54.4202 26.6609C55.8293 26.0523 57.0951 25.1823 58.1822 24.0733C59.2691 22.9641 60.127 21.6709 60.7237 20.232C61.3412 18.7418 61.6548 17.156 61.6548 15.5239C61.6546 13.8928 61.3411 12.3098 60.7237 10.82C60.127 9.38061 59.2694 8.08882 58.1822 6.97861C57.0946 5.86888 55.8302 4.99562 54.4202 4.38684C52.9605 3.75682 51.4092 3.44037 49.8111 3.44017C48.2118 3.44017 46.658 3.75663 45.1978 4.38684C43.7879 4.99566 42.5234 5.86887 41.4358 6.97861C41.3833 7.03227 41.3363 7.09238 41.2849 7.1469C40.5943 6.42204 39.8529 5.74759 39.0663 5.12734C39.1559 5.03102 39.2466 4.93547 39.3389 4.84124C40.6976 3.45464 42.2812 2.36272 44.0445 1.60153C45.8721 0.813002 47.8135 0.415039 49.8111 0.415039Z" fill="#113C7B"/>
<path d="M54.2293 57.1314C54.2292 47.4268 47.4875 39.3386 38.5408 37.4642C35.7662 39.6357 32.2954 40.9433 28.5155 40.9433C24.7357 40.9432 21.2634 39.6348 18.4895 37.4642C9.54175 39.3386 2.80031 47.4268 2.80023 57.1314C2.80023 57.421 3.00043 57.655 3.25754 57.7049L6.94247 58.4188C21.1963 61.1821 35.8332 61.1821 50.0871 58.4188L53.772 57.7049C54.0297 57.6547 54.2293 57.4201 54.2293 57.1314ZM56.6148 57.1315C56.6148 58.5757 55.6089 59.8163 54.2186 60.0858L50.5343 60.7996C35.9851 63.6202 21.0448 63.6202 6.49558 60.7996L2.81056 60.0858C1.42029 59.8163 0.415039 58.5757 0.415039 57.1315C0.415039 45.8515 8.54773 36.5108 19.1566 34.8822C21.5716 37.0671 24.7174 38.4318 28.1793 38.515L28.5156 38.5194C32.1099 38.5194 35.3796 37.139 37.8739 34.8822C48.4814 36.5108 56.6148 45.8515 56.6148 57.1315Z" fill="#113C7B"/>
<path d="M40.3566 19.8028C40.3566 13.1403 34.9709 7.73734 28.3298 7.73734C21.6887 7.73734 16.303 13.1403 16.303 19.8028C16.303 26.4653 21.6887 31.8683 28.3298 31.8683V34.8822C20.0284 34.8822 13.2988 28.1309 13.2988 19.8028C13.2988 11.4747 20.0284 4.72343 28.3298 4.72343C36.6312 4.72343 43.3609 11.4747 43.3609 19.8028C43.3609 28.1309 36.6312 34.8822 28.3298 34.8822V31.8683C34.9709 31.8683 40.3566 26.4653 40.3566 19.8028Z" fill="#113C7B"/>
<path d="M56.1971 57.133C56.1971 46.1201 48.3046 36.9983 37.9923 35.3231C35.4463 37.5629 32.1451 38.9364 28.5156 38.9364L28.1738 38.9323C24.6792 38.8483 21.4987 37.4911 19.0348 35.3231C8.72287 36.9997 0.830078 46.1212 0.830078 57.133C0.830742 58.3828 1.70148 59.4454 2.889 59.6761L6.57552 60.3923C21.0721 63.2024 35.9592 63.2026 50.4557 60.3923L54.1382 59.6761C55.3263 59.4458 56.1964 58.383 56.1971 57.133ZM53.8127 57.133C53.8126 47.6877 47.2955 39.8132 38.6312 37.911C35.8146 40.0618 32.3206 41.3615 28.5156 41.3615C24.7098 41.3615 21.2122 40.0618 18.396 37.911C9.73209 39.8144 3.21867 47.6888 3.21859 57.133C3.2193 57.2265 3.28014 57.2846 3.33659 57.2957L7.02311 58.0078C21.2243 60.7607 35.807 60.7608 50.0081 58.0078L53.6906 57.2957C53.7475 57.2847 53.8119 57.2262 53.8127 57.133ZM64.2008 15.5233C64.2006 13.5405 63.8168 11.6158 63.0656 9.80225C62.3401 8.0524 61.3022 6.47982 59.9813 5.13102C58.6593 3.78283 57.1199 2.72485 55.4077 1.98568C53.6338 1.22039 51.7521 0.830504 49.8128 0.830078C47.8715 0.830078 45.9848 1.21985 44.2098 1.98568C42.5123 2.71854 40.9823 3.76286 39.6688 5.0944C40.2278 5.55443 40.7621 6.04139 41.272 6.55518C42.3664 5.47081 43.6284 4.60998 45.0317 4.00391C46.5449 3.35081 48.1578 3.02327 49.8128 3.02327C51.4662 3.0237 53.0736 3.35127 54.5858 4.00391C56.046 4.63441 57.3554 5.53831 58.4798 6.68538L59.2773 7.58464C60.0298 8.51436 60.6456 9.54436 61.1084 10.6608C61.7468 12.2015 62.0725 13.8384 62.0728 15.5233C62.0728 17.2089 61.7468 18.8489 61.1084 20.3898C60.4912 21.8783 59.6038 23.2182 58.4798 24.3652C57.3554 25.5122 56.0447 26.4125 54.5858 27.0426C53.0743 27.695 51.4669 28.0269 49.8128 28.0273C48.7888 28.0273 47.7869 27.8843 46.814 27.6326C46.6215 28.3436 46.395 29.0388 46.1344 29.7201C47.3274 30.0433 48.5556 30.2204 49.8088 30.2205C51.7487 30.2203 53.6331 29.8312 55.4077 29.0649C55.5231 29.0155 55.6418 28.9576 55.7617 28.9022L55.9448 28.8208L56.1239 28.9062C56.1868 28.9371 56.2387 28.9609 56.2866 28.9754C57.131 29.2273 57.9723 29.53 58.7891 29.8828C61.5352 31.0681 64.0008 32.7693 66.1173 34.9284C68.2333 37.0887 69.8966 39.6074 71.0571 42.4072C72.2583 45.3067 72.8676 48.3862 72.8678 51.5584V52.1322C72.8678 53.5299 71.7522 54.6834 70.3613 54.6834H60.5835C60.691 55.3862 60.7746 56.0954 60.8317 56.8115L71.1507 56.8075C71.5349 56.7666 71.9107 56.6487 72.2534 56.4616L72.2778 56.4494L72.8556 56.1279C74.1417 55.2851 75 53.8096 75 52.1322V51.5584C74.9997 48.0871 74.3328 44.7166 73.0184 41.5446C71.7494 38.4825 69.9318 35.734 67.6188 33.374C65.5959 31.3089 63.2783 29.6318 60.7218 28.3773L59.611 27.8646C59.4165 27.7809 59.2199 27.7021 59.0169 27.6204L58.37 27.36L58.903 26.9124C59.2757 26.6014 59.6372 26.2707 59.9813 25.9196C61.3016 24.5722 62.3401 23.0015 63.0656 21.2524C63.8172 19.4381 64.2008 17.5077 64.2008 15.5233ZM39.9414 19.8039C39.9414 13.3702 34.7382 8.1543 28.3284 8.1543C21.9193 8.15504 16.7196 13.3707 16.7196 19.8039C16.7201 26.2366 21.9197 31.4527 28.3284 31.4534C34.7378 31.4534 39.9408 26.237 39.9414 19.8039ZM54.6468 57.133C54.6461 57.6149 54.3102 58.0238 53.8534 58.1136L50.1668 58.8298C35.8612 61.603 21.1701 61.6029 6.86442 58.8298L3.1779 58.1136C2.72121 58.0248 2.38519 57.6168 2.38444 57.133C2.38452 47.233 9.26164 38.9717 18.4041 37.0565L18.5954 37.0158L18.7459 37.1379C21.4505 39.254 24.8343 40.5273 28.5156 40.5273C32.1973 40.5273 35.5799 39.2552 38.2853 37.1379L38.4359 37.0158L38.6271 37.0565C47.7681 38.972 54.6467 47.2333 54.6468 57.133ZM57.0312 57.133C57.0306 58.7702 55.8884 60.1855 54.2969 60.494L50.6144 61.2101C36.0131 64.0407 21.0182 64.0406 6.41683 61.2101L2.73031 60.494C1.13924 60.185 0.000666109 58.7696 0 57.133C0 45.6509 8.27712 36.1295 19.0918 34.4686L19.2912 34.4401L19.4377 34.5744C21.7829 36.6956 24.8345 38.0175 28.1901 38.0981H28.5156C31.9999 38.0981 35.1713 36.7656 37.5936 34.5744L37.7401 34.4401L37.9354 34.4686C48.7493 36.129 57.0312 45.6504 57.0312 57.133ZM40.7715 19.8039C40.7709 26.5545 35.4262 32.0501 28.7476 32.2713V34.4523C36.624 34.2304 42.9438 27.7623 42.9443 19.8039C42.9443 11.7046 36.3985 5.13916 28.3284 5.13916C20.259 5.1399 13.7166 11.7051 13.7166 19.8039C13.7172 27.7628 20.0363 34.2311 27.9134 34.4523V32.2713C21.2341 32.0508 15.886 26.5549 15.8854 19.8039C15.8854 12.913 21.4566 7.32089 28.3284 7.32015C35.201 7.32015 40.7715 12.9125 40.7715 19.8039ZM43.7785 19.8039C43.7779 28.3603 36.8609 35.2987 28.3284 35.2987C19.7966 35.2979 12.8831 28.3599 12.8825 19.8039C12.8825 11.2474 19.7963 4.30575 28.3284 4.30501C36.8612 4.30501 43.7785 11.2469 43.7785 19.8039ZM65.0309 15.5233C65.0309 17.6163 64.6285 19.6536 63.8346 21.5698C63.0685 23.4172 61.971 25.0772 60.5754 26.5015C60.3725 26.7085 60.1614 26.9056 59.9487 27.0996C63.0448 28.4375 65.8276 30.3535 68.2129 32.7881C70.6013 35.2249 72.4777 38.0665 73.7874 41.2272C75.1442 44.5015 75.8298 47.9789 75.8301 51.5584V52.1322C75.8301 54.3787 74.5208 56.3252 72.6318 57.2062L72.6278 57.2021C72.1972 57.4334 71.7272 57.5857 71.2402 57.6375L71.1955 57.6416L60.0627 57.6497L60.0342 57.2591C59.9669 56.2692 59.8569 55.2943 59.6924 54.3376L59.6069 53.8493H70.3613C71.2752 53.8493 72.0337 53.0866 72.0337 52.1322V51.5584C72.0334 48.4938 71.4471 45.5219 70.2881 42.7246C69.1682 40.0229 67.5645 37.5943 65.5233 35.5103C63.4814 33.4274 61.1047 31.7896 58.4595 30.6478C57.6748 30.3089 56.8599 30.0156 56.0465 29.7729C56.012 29.7624 55.9769 29.7444 55.9448 29.7323C55.8759 29.7635 55.8074 29.7999 55.7373 29.8299C53.8584 30.6411 51.862 31.0544 49.8088 31.0547C48.3229 31.0545 46.8684 30.8295 45.4671 30.4036L45.0277 30.2734L45.2026 29.8503C45.5737 28.9403 45.8796 27.9982 46.1222 27.0304L46.228 26.6113L46.6431 26.7334C47.668 27.0352 48.7307 27.1932 49.8128 27.1932C51.3536 27.1928 52.8493 26.8849 54.2562 26.2777C55.6146 25.6908 56.8364 24.8537 57.8857 23.7834C58.9357 22.7119 59.7632 21.4618 60.3394 20.0724L60.73 18.9779C61.067 17.8656 61.2386 16.7073 61.2386 15.5233C61.2384 13.9466 60.9355 12.4167 60.3394 10.9782C59.7635 9.58938 58.9353 8.34338 57.8857 7.27132C56.8353 6.19957 55.6151 5.35577 54.2562 4.76888C52.8499 4.16194 51.3544 3.85785 49.8128 3.85742C48.2694 3.85742 46.7685 4.16155 45.3613 4.76888C44.0026 5.35581 42.782 6.1997 41.7318 7.27132L41.5894 7.43408L41.2882 7.75146L40.9831 7.43408C40.3069 6.72434 39.5806 6.06415 38.8102 5.45654L38.4521 5.17578L38.7614 4.84212C38.8526 4.7441 38.9471 4.64622 39.0422 4.54915C40.4379 3.1249 42.0668 2.00355 43.8802 1.2207C45.7604 0.409491 47.759 0 49.8128 0C51.8646 0.000426542 53.8584 0.410203 55.7373 1.2207C57.5507 2.00354 59.1791 3.1251 60.5754 4.54915C61.9706 5.97388 63.0686 7.63349 63.8346 9.48079C64.6282 11.3964 65.0307 13.4314 65.0309 15.5233Z" fill="#113C7B"/>
</svg>
