<svg width="52" height="77" viewBox="0 0 52 77" fill="none" xmlns="http://www.w3.org/2000/svg">
<path d="M48.6647 44.3515C48.1246 45.2165 47.1801 45.7331 46.137 45.7331C45.6013 45.7331 45.0737 45.5898 44.6121 45.3177L33.7092 38.9057C33.2985 38.6641 32.9512 38.325 32.7044 37.9242L28.7611 31.5085C28.5218 31.12 28.0018 30.9907 27.6011 31.2249C27.2004 31.4573 27.0692 31.9617 27.3085 32.3515L31.0847 38.4946V44.1197C31.0847 47.3319 30.0001 50.522 28.0301 53.1022L21.6318 61.4839L12.515 72.8581C11.8398 73.7004 10.8218 74.1829 9.72217 74.1829C8.89005 74.1829 8.07929 73.8938 7.43934 73.3686C6.01249 72.1962 5.83539 70.0144 7.0305 68.5224L15.228 58.8268C15.2744 58.7725 15.3128 58.7128 15.3429 58.6493L19.6944 49.457C19.7447 49.3484 19.771 49.2313 19.771 49.1136V26.6336C19.771 23.6545 22.1236 21.2006 25.1186 20.9279C25.3246 20.9401 25.5312 20.948 25.7397 20.948C25.9444 20.948 26.146 20.9413 26.3463 20.9297C27.9993 21.078 29.5103 21.899 30.5063 23.1665L37.287 34.1973C37.3573 34.3126 37.4566 34.409 37.5752 34.4791L47.6687 40.4154C49.0604 41.2333 49.5069 42.9992 48.6647 44.3515ZM40.2518 56.6815L42.887 69.8918C43.2651 71.7113 42.21 73.5315 40.4855 74.0347C40.1488 74.1335 39.8016 74.1835 39.4549 74.1835C37.7812 74.1835 36.3261 73.0246 35.9958 71.4356L33.392 58.3132C33.377 58.2394 33.3518 58.1674 33.3167 58.1003L30.4347 52.5325C31.9526 49.9895 32.7766 47.0635 32.7766 44.1197V42.213L39.2238 53.8751C39.7099 54.7565 40.0559 55.7007 40.2518 56.6815ZM14.745 32.0233C14.6 32.0923 14.4788 32.1996 14.394 32.3332L7.99325 42.5076C7.38156 43.4805 6.24046 44.0075 5.07047 43.8526C4.66917 43.7989 4.28671 43.6659 3.93753 43.4579C3.26493 43.059 2.79203 42.4301 2.6074 41.6853C2.42213 40.9418 2.54648 40.1714 2.95783 39.5181L9.93633 28.4263C10.229 27.9603 10.6523 27.587 11.1584 27.3461L18.6726 23.7789C18.2914 24.6579 18.0798 25.6223 18.0798 26.6336V30.4399L14.745 32.0233ZM17.0775 10.8908C17.0775 6.25133 20.9636 2.47681 25.7397 2.47681C30.5164 2.47681 34.4031 6.25133 34.4031 10.8908C34.4031 15.3235 30.8549 18.9644 26.3727 19.2804C26.1862 19.2663 25.9978 19.2596 25.8081 19.2596H25.6719C25.4853 19.2596 25.302 19.2688 25.1186 19.2816C20.6314 18.9699 17.0775 15.3271 17.0775 10.8908ZM48.5448 39.01L38.6309 33.1792L32.6855 23.5075C32.4513 23.0226 32.1662 22.5694 31.8377 22.154C31.8289 22.1436 31.8207 22.132 31.8126 22.1235C31.1959 21.3518 30.4303 20.712 29.5674 20.2332C33.387 18.7515 36.095 15.1234 36.095 10.8908C36.095 5.34552 31.4496 0.834147 25.7397 0.834147C20.0304 0.834147 15.3856 5.34552 15.3856 10.8908C15.3856 15.1228 18.0924 18.7497 21.9107 20.2319C21.5684 20.4222 21.2437 20.6376 20.9373 20.8748L10.4155 25.8699C9.61918 26.2481 8.95474 26.8361 8.49252 27.5699L1.51528 38.6617C0.868424 39.6895 0.671856 40.8997 0.963255 42.0708C1.25403 43.242 1.99697 44.2326 3.05517 44.8603C3.60531 45.1866 4.20507 45.3958 4.83936 45.4806C5.05289 45.5087 5.26515 45.5227 5.47554 45.5227C7.07823 45.5227 8.58609 44.7163 9.43706 43.3646L15.709 33.3946L18.0798 32.2692V48.933L13.8514 57.8661L5.70979 67.4958C3.95009 69.6923 4.23584 72.8892 6.34722 74.6233C7.29238 75.3986 8.49064 75.8256 9.72217 75.8256C11.3475 75.8256 12.8509 75.1119 13.8495 73.8682L22.9789 62.4781L29.3614 54.1166L31.7536 58.7366L34.3359 71.7534C34.8264 74.1134 36.9786 75.8262 39.4549 75.8262C39.9674 75.8262 40.4792 75.753 40.9734 75.6084C43.5251 74.8624 45.0938 72.209 44.5468 69.5734L41.9129 56.3686C41.685 55.2255 41.2812 54.1251 40.7134 53.0973L34.0351 41.018L43.7367 46.7243C44.4627 47.1507 45.2929 47.3764 46.137 47.3764C47.7773 47.3764 49.2626 46.5639 50.1117 45.2024C51.438 43.0755 50.7347 40.297 48.5448 39.01Z" fill="#113C7B"/>
<path d="M18.8005 17.1956C17.2179 15.547 16.2457 13.3336 16.2451 10.8927C16.2451 8.74307 16.9986 6.76738 18.2593 5.2002C16.9829 6.77231 16.2207 8.75134 16.2207 10.8927C16.2212 13.3228 17.1983 15.5426 18.8005 17.1956ZM17.2461 26.6317C17.2462 26.1854 17.293 25.7488 17.3641 25.3215L11.5169 28.1006C11.242 28.2316 11.0018 28.4118 10.813 28.6336L10.6421 28.8696L3.66375 39.9617C3.37256 40.4242 3.2857 40.962 3.41555 41.4836C3.51284 41.876 3.72531 42.2253 4.02997 42.4967L4.36362 42.7409C4.61594 42.8912 4.89181 42.987 5.1815 43.0257C6.0373 43.1385 6.85629 42.7538 7.28924 42.0654L13.6898 31.8888C13.8589 31.6228 14.1005 31.4061 14.3856 31.2703L17.2461 29.9113V26.6317ZM33.5628 45.3532C33.3768 47.8705 32.6172 50.3322 31.3778 52.5431L34.0511 57.7148C34.0873 57.7841 34.1234 57.8545 34.1488 57.9264L34.2098 58.1462L36.814 71.2728C37.0636 72.4561 38.1624 73.352 39.4548 73.352C39.7214 73.352 39.9913 73.3107 40.2523 73.234C41.5367 72.859 42.3656 71.4774 42.0711 70.0602L39.4344 56.8441C39.2553 55.9479 38.9395 55.0835 38.4945 54.2765L33.5628 45.3532ZM48.9681 40.4053C50.041 41.5847 50.2609 43.3626 49.371 44.7917C49.2008 45.0641 48.9989 45.3091 48.7728 45.5241C49.0125 45.3013 49.2259 45.0476 49.4035 44.7632C50.2747 43.3662 50.0707 41.6119 49.0007 40.4378L48.9681 40.4053ZM9.5923 27.5024C9.44741 27.6622 9.3129 27.8321 9.19761 28.0151L2.21926 39.1073C1.69302 39.9444 1.53571 40.9218 1.77167 41.8701C1.95021 42.5893 2.33891 43.2262 2.89471 43.7174C2.44974 43.3133 2.10974 42.8099 1.90594 42.2404L1.80015 41.8864C1.55971 40.9213 1.7208 39.9185 2.25181 39.0747L9.23016 27.9826L9.54348 27.5553C9.55902 27.5371 9.57642 27.5204 9.5923 27.5024ZM8.37974 43.3797C8.50615 43.2353 8.62604 43.0845 8.72967 42.9199L15.1221 32.7637L15.1017 32.7759L15.0977 32.7799L15.0936 32.7759L8.69712 42.9525C8.60153 43.1043 8.49386 43.2456 8.37974 43.3797ZM28.0331 31.9417L31.7928 38.0575L31.919 38.2609V38.8062L33.1397 39.5223C32.6798 39.2216 32.2841 38.8294 31.9963 38.3626L28.0493 31.9458L28.0331 31.9417ZM31.1621 22.6522L31.1906 22.6888L31.215 22.7295L37.9981 33.7606L38.0143 33.7687L37.9208 33.6141L31.9759 23.9421L31.9515 23.9095L31.9352 23.8688C31.7279 23.4397 31.4732 23.0403 31.1825 22.6725L31.1621 22.644C31.0193 22.4653 30.8668 22.294 30.7064 22.1313L31.1621 22.6522ZM28.8672 19.6086C28.1057 19.8683 27.3042 20.0428 26.4706 20.105C27.3175 20.1871 28.1288 20.4305 28.8713 20.8008L27.6099 20.1009L28.8672 19.6086ZM23.8664 20.0968L22.6823 20.752C23.3901 20.4088 24.1674 20.1823 24.9854 20.1009C24.1769 20.0384 23.3985 19.8734 22.6579 19.6248L23.8664 20.0968ZM25.4045 20.1009C25.5169 20.1053 25.6277 20.1131 25.7381 20.1131C25.8492 20.1131 25.9611 20.1049 26.0718 20.1009C25.9846 20.0976 25.8959 20.0928 25.8073 20.0928H25.673C25.5851 20.0928 25.4953 20.0968 25.4045 20.1009ZM31.919 44.1203C31.9188 47.517 30.7719 50.8855 28.6922 53.6092L22.2958 61.9914L22.2835 62.0036L13.1649 73.3805C13.0607 73.5104 12.9478 73.6311 12.8312 73.7467C12.9601 73.6217 13.0835 73.4897 13.1974 73.348L22.3161 61.971L28.7004 53.6092L29.4979 52.5675L30.1001 53.7353L32.4927 58.3537L32.5497 58.4595L32.57 58.5734L35.1538 71.582L35.2433 71.9442C35.4275 72.5484 35.7484 73.0936 36.167 73.5514C35.684 73.0117 35.3328 72.3493 35.1782 71.6064V71.5983L32.5781 58.488L32.5741 58.4757L29.6932 52.9175L29.4816 52.5024L29.7176 52.1037C31.16 49.6869 31.9433 46.9095 31.9434 44.1203V42.2119L33.5059 41.8091L39.9512 53.4709C40.4782 54.4265 40.8574 55.4533 41.0702 56.5186L43.7028 69.7225L43.7679 70.1375C43.9047 71.3623 43.5265 72.5652 42.7792 73.47C43.619 72.4752 44.0147 71.1089 43.7313 69.7428V69.7347L41.0946 56.5308C40.8835 55.4729 40.5103 54.4526 39.9837 53.4993L31.919 38.9079V44.1203ZM18.9144 49.1211L18.833 49.2879L14.6053 58.2235L14.5565 58.3211L14.4873 58.4025L6.35744 68.0135C5.00266 69.7046 5.1068 72.0696 6.44696 73.5596C5.08935 72.025 5.05947 69.6522 6.38185 68.0013L6.39406 67.985L14.585 58.2926L14.5931 58.2886L18.9388 49.1089V26.6317C18.9394 24.5721 19.9165 22.7496 21.4291 21.5495L21.3762 21.5902L21.2948 21.6268L20.306 22.0907L19.4352 24.1089C19.0983 24.8858 18.9147 25.7385 18.9144 26.6317V49.1211ZM20.603 49.113C20.603 49.3553 20.5519 49.594 20.4525 49.8088L20.4484 49.8128L16.0946 59.0047L15.8626 59.3669L7.66766 69.0592C6.75184 70.2198 6.9239 71.8669 7.96877 72.7254C8.45864 73.1271 9.08243 73.348 9.72251 73.348C10.5741 73.3479 11.3495 72.978 11.8628 72.3389L20.9815 60.9619L27.3657 52.596C29.226 50.1596 30.2505 47.1474 30.2507 44.1203V38.7248L26.5967 32.7881C26.1076 31.9911 26.3854 30.9682 27.1786 30.5054C27.9646 30.0459 28.9893 30.2925 29.4694 31.071L33.4123 37.4878L33.7256 37.8784C33.8466 37.9968 33.9845 38.1006 34.1325 38.1877L45.0334 44.6004L45.2938 44.7306C45.5592 44.8423 45.8461 44.9014 46.1361 44.9015C46.8995 44.9015 47.5752 44.5234 47.959 43.9087C48.5459 42.9634 48.2426 41.719 47.2469 41.1336L37.1517 35.1969C36.9205 35.0603 36.7184 34.8682 36.5739 34.6313L29.8194 23.645C28.9708 22.5868 27.6945 21.8922 26.2915 21.7611C26.1106 21.7701 25.9256 21.7814 25.7381 21.7814C25.5355 21.7814 25.3374 21.7715 25.1441 21.7611C22.5784 22.0193 20.6041 24.1251 20.603 26.6317V49.113ZM17.9094 10.8927C17.9104 14.8555 21.0852 18.1466 25.1441 18.4448C25.3127 18.4341 25.4903 18.4245 25.673 18.4245H25.8073C25.9863 18.4245 26.1659 18.4334 26.3444 18.4448C30.3994 18.1437 33.5699 14.853 33.571 10.8927C33.571 6.73632 30.0777 3.31217 25.7381 3.31217C21.4 3.31299 17.9094 6.7367 17.9094 10.8927ZM33.0624 5.00895C34.4181 6.60537 35.2352 8.65451 35.2352 10.8927C35.2347 13.3304 34.2631 15.5395 32.6839 17.1875C34.2826 15.535 35.2632 13.3196 35.2637 10.8927C35.2637 8.66374 34.4347 6.61022 33.0624 5.00895ZM36.9279 10.8927C36.9272 14.9657 34.6171 18.4992 31.2313 20.3654C31.6631 20.7188 32.0607 21.1136 32.4154 21.5495L32.4561 21.5942C32.4656 21.6056 32.4805 21.6227 32.4805 21.6227L32.4927 21.6349C32.8409 22.0756 33.1425 22.56 33.396 23.0713L39.231 32.5684L48.9681 38.2935C51.5509 39.8126 52.3984 43.1087 50.8195 45.6421C49.8142 47.2541 48.0563 48.2096 46.1361 48.2096C45.145 48.2095 44.1697 47.9454 43.3163 47.4447L43.3122 47.4406L36.2362 43.278L41.4445 52.6937C42.0532 53.7956 42.4854 54.9775 42.7303 56.2052L45.363 69.4051L45.4525 69.9748C45.7651 72.8309 44.0001 75.5911 41.2085 76.4079C40.6383 76.5747 40.0465 76.6602 39.4548 76.6602C36.5995 76.6601 34.0922 74.6853 33.5181 71.9238V71.9157L30.9546 59.0047L29.2253 55.6641L23.6426 62.9842L23.6304 63.0005L14.4995 74.3896C13.3396 75.8344 11.5951 76.6601 9.72251 76.6602C8.30033 76.6602 6.91541 76.1662 5.82033 75.2686C3.33898 73.2305 3.02953 69.5105 5.05943 66.9759L5.07163 66.9556L13.1486 57.4015L17.2461 48.7467V33.5856L16.2858 34.0413L10.1416 43.807C9.13288 45.4093 7.35358 46.3542 5.47446 46.3542L4.72984 46.3053C4.17027 46.2305 3.63274 46.073 3.12665 45.8374L2.63023 45.577C1.38501 44.8384 0.502227 43.6645 0.156268 42.2729C-0.190408 40.8796 0.0448071 39.4342 0.811378 38.2161L7.78566 27.1281C8.33298 26.2594 9.12008 25.563 10.0562 25.118L20.1555 20.3206C16.8191 18.4417 14.5532 14.9296 14.5524 10.8927C14.5524 4.865 19.5924 0.000814967 25.7381 0C31.8851 0 36.9279 4.8644 36.9279 10.8927Z" fill="#113C7B"/>
</svg>
