<svg width="100" height="100" viewBox="0 0 100 100" fill="none" xmlns="http://www.w3.org/2000/svg">
<path d="M80.5805 50.0003C80.5805 33.1115 66.8892 19.4202 50.0003 19.4202C33.1114 19.4202 19.4202 33.1114 19.4202 50.0003C19.4202 66.8892 33.1115 80.5805 50.0003 80.5805C66.8891 80.5804 80.5804 66.8891 80.5805 50.0003ZM83.3337 50.0003C83.3336 68.4097 68.4097 83.3336 50.0003 83.3337C31.5909 83.3337 16.667 68.4097 16.667 50.0003C16.667 31.5909 31.5909 16.667 50.0003 16.667C68.4097 16.667 83.3337 31.5909 83.3337 50.0003Z" fill="white"/>
<path d="M41.2492 42.6254C41.2493 40.8946 41.7624 39.2026 42.724 37.7636C43.6856 36.3245 45.0524 35.2029 46.6514 34.5406C48.2504 33.8782 50.01 33.7049 51.7075 34.0425C53.405 34.3801 54.9649 35.2135 56.1888 36.4374C57.4126 37.6612 58.246 39.2206 58.5837 40.9181C58.9214 42.6156 58.748 44.3757 58.0856 45.9747C57.4233 47.5738 56.3017 48.9406 54.8626 49.9022C53.8085 50.6066 52.6181 51.0683 51.3768 51.266V54.9166C51.3768 55.6768 50.7604 56.2932 50.0002 56.2932C49.24 56.293 48.6236 55.6767 48.6236 54.9166V50.0003C48.6236 49.2402 49.24 48.6239 50.0002 48.6238C51.1864 48.6238 52.3464 48.2719 53.3328 47.6128C54.3191 46.9537 55.0882 46.0168 55.5422 44.9208C55.996 43.8249 56.1143 42.6191 55.8829 41.4558C55.6515 40.2923 55.0803 39.2235 54.2415 38.3847C53.4027 37.5458 52.3339 36.974 51.1704 36.7426C50.0071 36.5112 48.8012 36.6302 47.7054 37.084C46.6094 37.538 45.6724 38.3071 45.0134 39.2934C44.3544 40.2797 44.0025 41.4392 44.0024 42.6254C44.0024 43.3856 43.3861 44.0019 42.6258 44.0019C41.8656 44.0019 41.2492 43.3856 41.2492 42.6254Z" fill="white"/>
<path d="M50.1408 63.3812C50.8349 63.4517 51.3769 64.0377 51.3769 64.7504C51.3769 65.2884 51.0672 65.7527 50.6174 65.9791C51.0674 66.2055 51.3769 66.6704 51.3769 67.2085C51.3769 67.9687 50.7605 68.5849 50.0003 68.5851C48.6062 68.5851 47.4675 67.4903 47.3977 66.1135L47.3943 65.9798L47.3977 65.8454C47.4675 64.4686 48.6062 63.3738 50.0003 63.3738L50.1408 63.3812Z" fill="white"/>
<path d="M52.6062 65.9798C52.6061 67.4187 51.4393 68.5851 50.0003 68.5851C49.2401 68.5851 48.6236 67.9688 48.6236 67.2085C48.6237 66.6704 48.9331 66.2055 49.3832 65.9791C48.9332 65.7527 48.6236 65.2885 48.6236 64.7504C48.6236 63.9901 49.2401 63.3738 50.0003 63.3738C51.4394 63.3738 52.6062 64.5407 52.6062 65.9798Z" fill="white"/>
<path d="M82.8739 48.3076C82.0212 31.4756 68.525 17.9795 51.693 17.1268L50.0003 17.082C31.821 17.082 17.082 31.821 17.082 50.0003L17.1268 51.693C18.0079 69.0857 32.3888 82.9186 50.0003 82.9186L51.693 82.8739C69.0856 81.9928 82.9186 67.6119 82.9186 50.0003L82.8739 48.3076ZM80.1232 48.45C79.3422 33.0253 66.9754 20.6584 51.5506 19.8774L50.0003 19.8368C33.3415 19.8368 19.8368 33.3415 19.8368 50.0003L19.8774 51.5506C20.6844 67.4889 33.8615 80.1639 50.0003 80.1639L51.5506 80.1232C67.4888 79.3162 80.1638 66.1391 80.1639 50.0003L80.1232 48.45ZM48.2059 64.722C47.9765 65.0485 47.837 65.4416 47.8153 65.8654L47.8112 65.9915L47.8153 66.0933L47.8763 66.5124C47.9419 66.7745 48.0553 67.0175 48.2059 67.2326C48.2058 67.2246 48.2059 67.2162 48.2059 67.2082C48.206 66.7309 48.3951 66.2997 48.6982 65.9793C48.395 65.6592 48.2059 65.228 48.2059 64.7505C48.2059 64.741 48.2057 64.7314 48.2059 64.722ZM43.5876 42.6273C43.5876 41.3591 43.9616 40.1174 44.6659 39.0628C45.3707 38.008 46.3746 37.1843 47.5467 36.6987C48.7184 36.2136 50.0097 36.0851 51.2536 36.3325C52.4974 36.5803 53.6406 37.1937 54.5373 38.0903C55.4338 38.9872 56.0435 40.1303 56.291 41.374C56.5384 42.618 56.4143 43.9088 55.9289 45.0809C55.4435 46.2526 54.6191 47.2529 53.5648 47.9577C52.5099 48.6625 51.269 49.04 50.0003 49.04C49.4702 49.0401 49.0401 49.4704 49.04 50.0003V54.9157C49.04 55.4457 49.4702 55.8759 50.0003 55.876C50.5304 55.8759 50.9606 55.4458 50.9606 54.9157V51.2658C50.9607 51.0613 51.1087 50.8873 51.3105 50.8548C52.493 50.6665 53.6275 50.2271 54.6309 49.5568C56.0014 48.641 57.0681 47.3362 57.6989 45.8133C58.3293 44.2907 58.4964 42.6159 58.175 40.9997C57.8533 39.383 57.0578 37.8968 55.8923 36.7313C54.7274 35.5669 53.2433 34.7744 51.6279 34.4526C50.0113 34.1311 48.3331 34.2939 46.8102 34.9246C45.2874 35.5555 43.9865 36.6263 43.0708 37.9967C42.1555 39.367 41.667 40.9793 41.667 42.6273C41.668 43.1565 42.0978 43.5835 42.6273 43.5835C43.1561 43.5827 43.5865 43.1561 43.5876 42.6273ZM53.0236 65.9793C53.0234 67.6484 51.6694 69.0026 50.0003 69.0026L49.4103 68.9456C48.0726 68.6811 47.052 67.532 46.9811 66.1339V66.1258L46.977 65.9915V65.9712L46.9811 65.8369V65.8247C47.0621 64.2274 48.3832 62.9561 50.0003 62.9561H50.0207L50.1631 62.9642H50.1834C50.2041 62.9663 50.224 62.9777 50.2445 62.9805C51.7989 63.1053 53.0234 64.3929 53.0236 65.9793ZM49.04 64.7505C49.0401 65.1232 49.2543 65.4458 49.569 65.605C49.7097 65.6758 49.801 65.8219 49.8009 65.9793C49.8009 66.1367 49.7096 66.2789 49.569 66.3496C49.2538 66.5083 49.0402 66.8345 49.04 67.2082C49.04 67.7383 49.4701 68.1685 50.0003 68.1685L50.1956 68.1481C50.6321 68.0577 50.9606 67.6712 50.9606 67.2082C50.9604 66.8347 50.7468 66.5084 50.4316 66.3496C50.291 66.2789 50.1998 66.1367 50.1997 65.9793C50.1997 65.8219 50.291 65.6758 50.4316 65.605C50.7462 65.4457 50.9606 65.123 50.9606 64.7505C50.9606 64.272 50.6094 63.8746 50.1509 63.8024C50.109 63.7996 50.0672 63.7907 50.0247 63.7902H49.9922C49.4657 63.7946 49.04 64.2231 49.04 64.7505ZM51.7948 64.7505C51.7947 65.229 51.6026 65.659 51.2983 65.9793C51.6026 66.2999 51.7946 66.73 51.7948 67.2082C51.7948 67.2149 51.7908 67.2218 51.7907 67.2285C52.0388 66.8737 52.1894 66.4451 52.1895 65.9793C52.1894 65.5123 52.04 65.0815 51.7907 64.7261C51.7908 64.7342 51.7948 64.7424 51.7948 64.7505ZM80.998 50.0003C80.998 67.1193 67.1193 80.998 50.0003 80.998C32.8813 80.998 19.0027 67.1193 19.0026 50.0003C19.0026 32.8813 32.8813 19.0026 50.0003 19.0026C67.1193 19.0027 80.998 32.8813 80.998 50.0003ZM83.7487 50.0003C83.7486 68.6398 68.6398 83.7486 50.0003 83.7487C31.3608 83.7487 16.252 68.6398 16.252 50.0003C16.252 31.3608 31.3608 16.252 50.0003 16.252C68.6398 16.252 83.7487 31.3608 83.7487 50.0003ZM44.4176 42.6273C44.4166 43.6163 43.6164 44.4169 42.6273 44.4176C41.6375 44.4176 40.8339 43.6168 40.8328 42.6273C40.8329 40.8142 41.3717 39.0405 42.3791 37.5329C43.3864 36.0253 44.8178 34.8495 46.4928 34.1556C48.1678 33.462 50.0126 33.2811 51.7907 33.6348C53.5676 33.9886 55.2008 34.8603 56.4823 36.1413C57.7643 37.4234 58.6391 39.0587 58.9928 40.8369C59.3465 42.6152 59.1659 44.4596 58.472 46.1348C57.7782 47.8097 56.6021 49.2412 55.0947 50.2485C54.091 50.9192 52.9664 51.3655 51.7948 51.5994V54.9157C51.7948 55.906 50.9906 56.71 50.0003 56.7101C49.0102 56.7099 48.2059 55.9061 48.2059 54.9157V50.0003C48.2059 49.01 49.0102 48.2061 50.0003 48.2059C51.1041 48.2059 52.1831 47.8792 53.1009 47.2659C54.0188 46.6526 54.7333 45.7793 55.1558 44.7594C55.5777 43.7401 55.6884 42.619 55.4731 41.5368C55.2578 40.4546 54.7273 39.4607 53.9473 38.6803C53.167 37.9 52.1728 37.3659 51.0908 37.1504C50.0084 36.9351 48.8838 37.0454 47.8641 37.4678C46.8443 37.8902 45.9749 38.6089 45.3617 39.5267C44.7486 40.4444 44.4177 41.5237 44.4176 42.6273Z" fill="white"/>
</svg>
