<svg width="68" height="77" viewBox="0 0 68 77" fill="none" xmlns="http://www.w3.org/2000/svg">
<path d="M33.7881 40.604C15.3933 40.604 0.415039 55.8244 0.415039 74.4828C0.415039 74.4828 0.415039 74.583 0.415039 74.6497C0.415039 74.9168 0.513672 75.1168 0.67791 75.3173C0.842149 75.4842 1.07199 75.6175 1.36745 75.6175H25.839C26.9557 75.6175 26.3973 75.9513 26.5286 74.0488C26.8245 70.544 29.7147 67.7735 33.2293 67.7735C36.7439 67.7735 39.7989 70.6778 39.9631 74.3159C40.0287 75.6511 39.8319 75.6511 40.8499 75.6175H66.0766C66.3069 75.6175 66.5037 75.5173 66.701 75.3839C66.7666 75.3173 66.7996 75.2506 66.8653 75.1835C67.0621 75.0166 67.1937 74.7499 67.1937 74.4828C67.1607 55.8244 52.1824 40.604 33.7881 40.604ZM41.8353 73.715H41.7697C41.3426 69.3091 37.6638 65.871 33.2293 65.871C28.7953 65.871 25.116 69.3091 24.6894 73.715H18.4809C18.908 65.8044 25.3789 59.496 33.2624 59.496C41.1458 59.496 47.6167 65.8044 48.0438 73.715H41.8028H41.8353ZM49.9161 73.715C49.489 64.7699 42.1969 57.5935 33.2624 57.5935C24.3279 57.5935 17.0357 64.7363 16.6086 73.715H10.3676C10.696 60.7645 21.1417 50.3504 33.9523 50.3504C46.7625 50.3504 57.2082 60.7645 57.5367 73.715H49.9161ZM59.4089 73.715C59.0804 59.7296 47.8136 48.448 33.9523 48.448C20.0907 48.448 8.85682 59.7296 8.52835 73.715H2.3203C2.74696 56.4253 16.6742 42.5065 33.7881 42.5065C50.9015 42.5065 64.8614 56.4584 65.2554 73.715H59.4089Z" fill="#113C7B"/>
<path d="M33.2275 67.3577C36.9681 67.3577 40.2059 70.4392 40.3809 74.2954C40.3971 74.6258 40.3954 74.9107 40.4012 75.0726C40.4032 75.1284 40.4067 75.1709 40.4093 75.2028C40.4958 75.2065 40.6252 75.2098 40.8366 75.2028L40.8488 75.1987L66.0767 75.2028C66.1714 75.2028 66.269 75.1593 66.4225 75.0604C66.4279 75.0533 66.4385 75.0474 66.4469 75.036L66.5934 74.8651C66.701 74.7731 66.7765 74.6205 66.7765 74.4826C66.7434 56.0482 51.9463 41.0196 33.7891 41.019C15.6305 41.019 0.830199 56.0483 0.830078 74.4826V74.6494C0.830078 74.7855 0.873333 74.8911 0.984701 75.0319C1.0885 75.1342 1.21276 75.2027 1.36719 75.2028H25.8382C25.9419 75.2028 26.033 75.2033 26.1108 75.2069C26.1087 75.181 26.1087 75.1537 26.1068 75.1255C26.0891 74.8716 26.0807 74.515 26.1149 74.0187C26.4282 70.3085 29.4876 67.3587 33.2275 67.3577ZM33.7891 42.0892C51.135 42.0897 65.2747 56.2294 65.6738 73.7054L65.682 74.1326H59.0007L58.9925 73.7257C58.6692 59.9592 47.5795 48.8641 33.9518 48.8641C20.3246 48.8644 9.26703 59.9587 8.94369 73.7257L8.93555 74.1326H1.89209L1.9043 73.7054C2.33636 56.1969 16.4418 42.0892 33.7891 42.0892ZM33.9518 49.9342C46.9949 49.9342 57.6209 60.5359 57.9549 73.7054L57.9631 74.1326H49.5199L49.4995 73.7339C49.0822 65.0042 41.9674 58.0122 33.2642 58.0112C24.5595 58.0112 17.4421 64.9706 17.0247 73.7339L17.0044 74.1326H9.94059L9.9528 73.7054C10.2868 60.5361 20.9085 49.9345 33.9518 49.9342ZM33.2642 59.0773C41.3755 59.0783 48.0233 65.5695 48.4619 73.6932L48.4823 74.1326H41.39L41.3534 73.7542C40.9458 69.5561 37.4407 66.2876 33.2275 66.2876C29.0155 66.2885 25.5128 69.5567 25.1058 73.7542L25.0692 74.1326H18.042L18.0664 73.6932C18.5051 65.5689 25.152 59.0773 33.2642 59.0773ZM33.7891 42.9233C17.0496 42.9233 3.39665 56.4261 2.75879 73.2985H8.13395C8.67362 59.2835 19.9911 48.0302 33.9518 48.0299C47.9117 48.0299 59.2661 59.2826 59.8063 73.2985H64.8193C64.2124 56.4592 50.5281 42.9239 33.7891 42.9233ZM33.9518 50.7684C21.5154 50.7687 11.3421 60.7663 10.8032 73.2985H16.2191C16.8491 64.2919 24.2324 57.1771 33.2642 57.1771C42.2952 57.178 49.6746 64.3249 50.3052 73.2985H57.1004C56.5616 60.7662 46.3881 50.7684 33.9518 50.7684ZM33.2642 59.9114C25.7557 59.9114 19.5595 65.8091 18.9331 73.2985H24.3286C24.943 68.8682 28.7013 65.4543 33.2275 65.4534C37.755 65.4534 41.5157 68.8677 42.1305 73.2985H47.5911C46.9648 65.8097 40.7718 59.9124 33.2642 59.9114ZM67.5781 74.7755C67.5142 75.0479 67.3586 75.2915 67.159 75.4713L67.1631 75.4754C67.1533 75.4854 67.1441 75.4975 67.1183 75.5324C67.0948 75.5643 67.0521 75.6181 66.9963 75.6748L66.9678 75.7073L66.9352 75.7277C66.718 75.8745 66.4342 76.0329 66.0767 76.0329H40.8488C40.6178 76.0405 40.4026 76.0498 40.2384 76.0288C40.1482 76.0172 40.0407 75.9926 39.9373 75.9352C39.8251 75.8728 39.7388 75.7839 39.681 75.6748C39.5856 75.4946 39.5772 75.2698 39.5711 75.1011L39.5467 74.3361C39.3924 70.9169 36.5157 68.1919 33.2275 68.1919C29.9399 68.1928 27.2235 70.7857 26.945 74.0838C26.9141 74.5354 26.9217 74.8509 26.9369 75.0685C26.9446 75.1803 26.9541 75.2662 26.9613 75.3452C26.9671 75.4088 26.9783 75.5034 26.9694 75.5893C26.9583 75.6935 26.909 75.8759 26.7212 75.984C26.5871 76.0612 26.441 76.058 26.3916 76.0573C26.3262 76.0562 26.2363 76.0496 26.1597 76.0451C26.0729 76.04 25.967 76.0329 25.8382 76.0329H1.36719C0.935672 76.0328 0.60546 75.8359 0.382487 75.6097L0.354004 75.5812C0.200989 75.3943 0.0769156 75.184 0.0244141 74.9261L0 74.6494V74.4826C0.00012123 55.6002 15.1583 40.189 33.7891 40.189C52.4192 40.1895 67.5773 55.6011 67.6107 74.4826L67.5781 74.7755Z" fill="#113C7B"/>
<path fill-rule="evenodd" clip-rule="evenodd" d="M28.5735 34.5369C28.5587 34.0303 28.4565 33.384 28.2834 32.8298C28.2097 32.5936 28.1227 32.3741 28.0196 32.1949C27.9585 32.0893 27.9018 31.9963 27.8246 31.9491C26.7155 31.2775 25.4976 30.2743 24.9008 29.1047C24.8848 29.0738 24.8714 29.0416 24.8602 29.0085L22.9862 23.3369C22.0633 21.2457 21.9789 19.8975 22.3453 19.0312C22.631 18.3551 23.1781 17.9006 23.9484 17.6117C23.9908 17.5963 24.0355 17.5805 24.0828 17.565C24.0917 17.5619 24.1011 17.5591 24.1105 17.5564C24.3336 17.4861 24.6139 17.4222 24.9383 17.3727L28.0861 11.8322C28.789 10.595 30.348 10.1705 31.565 10.8848C31.9868 11.1319 32.3121 11.4839 32.5286 11.8889C33.3266 11.1437 34.5392 10.9737 35.5268 11.5528C36.2971 12.005 36.7475 12.8054 36.7957 13.6458C37.3629 13.5455 37.9663 13.639 38.5032 13.9542C39.1093 14.3097 39.5172 14.8807 39.6872 15.5174C40.375 15.2562 41.1681 15.2979 41.8527 15.6993C42.7065 16.2004 43.1671 17.1292 43.1233 18.0653V26.5627C43.176 28.2108 42.4864 29.9391 41.4827 31.2825C41.0337 31.8829 40.0804 32.8244 39.9381 34.282V34.5432C40.9074 34.8226 41.6184 35.7296 41.6184 36.8044V40.1491C41.6184 41.4461 40.5821 42.4992 39.3057 42.4992H29.1831C27.9067 42.4992 26.8704 41.4461 26.8704 40.1491V36.8044C26.8704 35.7214 27.5925 34.809 28.5735 34.5369ZM38.6036 34.4539V34.2498C38.6036 34.2289 38.6045 34.2085 38.6063 34.1881C38.7674 32.3927 39.8698 31.1986 40.4201 30.4625C41.2435 29.36 41.8353 27.9509 41.7893 26.599L41.7889 26.5754V20.9877L40.6272 23.0326C39.9242 24.2693 38.3657 24.6938 37.1482 23.98C36.7234 23.7305 36.3958 23.3754 36.1793 22.9655C35.3813 23.6934 34.1826 23.8544 33.2043 23.2807C32.7464 23.0122 32.4018 22.6203 32.1872 22.1705C31.5048 22.6788 30.5983 22.8194 29.7825 22.507C29.4812 22.6349 29.1501 22.7056 28.8033 22.7056C28.4284 22.7056 28.1829 22.7387 28.0785 22.9092C28.0192 23.0063 28.0334 23.1301 28.0598 23.2584C28.1062 23.4884 28.2231 23.7283 28.3766 23.951C28.5877 24.2575 28.5145 24.6807 28.2133 24.8956C27.9116 25.1101 27.4952 25.0358 27.2837 24.7292C26.6959 23.8766 26.5388 22.8575 26.9458 22.1927C27.2279 21.7319 27.7893 21.3496 28.8033 21.3496C29.0309 21.3496 29.2438 21.2857 29.4259 21.1745C29.7789 20.9591 30.0159 20.5664 30.0159 20.1174C30.0159 19.7677 29.8717 19.4516 29.641 19.2272C29.4232 19.0154 29.1282 18.8852 28.8033 18.8852H24.4068C23.2411 19.3238 23.1148 20.3274 24.2162 22.8104C24.2256 22.8312 24.2336 22.8521 24.2408 22.8734L26.1081 28.5251C26.6062 29.4634 27.6126 30.2425 28.5079 30.7845C28.8444 30.9881 29.1572 31.4017 29.3848 31.9482C29.6923 32.6856 29.8668 33.6761 29.899 34.4539H38.6036ZM29.1831 35.8099C28.6431 35.8099 28.2048 36.2552 28.2048 36.8044V40.1491C28.2048 40.6978 28.6431 41.1432 29.1831 41.1432H39.3057C39.8457 41.1432 40.2844 40.6978 40.2844 40.1491V36.8044C40.2844 36.2552 39.8457 35.8099 39.3057 35.8099H29.1831ZM41.7902 18.0108C41.8148 17.5614 41.5952 17.1138 41.1855 16.8739C40.6062 16.5337 39.864 16.736 39.5293 17.3247L37.3714 21.1224C37.0371 21.7115 37.2357 22.4657 37.8155 22.8054C38.3948 23.1455 39.137 22.9432 39.4717 22.3546L41.6295 18.5569C41.7277 18.3841 41.78 18.1972 41.7902 18.0108ZM31.3419 13.7424C31.6766 13.1533 31.4775 12.3991 30.8982 12.0589C30.3185 11.7188 29.5763 11.9211 29.2416 12.5102L26.9096 16.6145C26.7459 16.9025 26.7057 16.9814 26.4031 17.5292H28.8033C28.9292 17.5292 29.0532 17.5387 29.1746 17.5569L31.3419 13.7424ZM31.7293 20.7002L35.3032 14.4104C35.638 13.8213 35.4389 13.0671 34.8596 12.727C34.2799 12.3868 33.5377 12.5891 33.2029 13.1782L30.4037 18.1047C30.9808 18.5795 31.3503 19.3052 31.3503 20.1174C31.3503 20.5197 31.2597 20.9006 31.0982 21.2403C31.3553 21.1446 31.582 20.96 31.7293 20.7002ZM38.2801 16.8117C38.6148 16.2226 38.4157 15.4684 37.836 15.1283C37.3027 14.8154 36.6314 14.9619 36.2672 15.4462C36.236 15.4879 36.2061 15.5328 36.1798 15.5796L33.4279 20.4231C33.0932 21.0122 33.2918 21.7664 33.8715 22.1065C34.4512 22.4467 35.1934 22.2444 35.5277 21.6553L38.2801 16.8117ZM52.7023 19.9809C53.0705 19.9809 53.3695 20.2848 53.3695 20.6589C53.3695 21.033 53.0705 21.3369 52.7023 21.3369H48.3441C47.9759 21.3369 47.6769 21.033 47.6769 20.6589C47.6769 20.2848 47.9759 19.9809 48.3441 19.9809H52.7023ZM47.6247 33.7936C47.8849 34.0579 47.8849 34.4874 47.6247 34.7523C47.3645 35.0167 46.9419 35.0167 46.6812 34.7523L43.5995 31.6208C43.3393 31.3564 43.3393 30.9264 43.5995 30.662C43.8602 30.3976 44.2828 30.3976 44.543 30.662L47.6247 33.7936ZM20.8301 34.7523C20.5699 35.0167 20.1473 35.0167 19.8867 34.7523C19.6265 34.4874 19.6265 34.0579 19.8867 33.7936L22.9684 30.662C23.229 30.3976 23.6517 30.3976 23.9118 30.662C24.172 30.9264 24.172 31.3564 23.9118 31.6208L20.8301 34.7523ZM19.1672 19.9809C19.5354 19.9809 19.8344 20.2848 19.8344 20.6589C19.8344 21.033 19.5354 21.3369 19.1672 21.3369H14.8091C14.4409 21.3369 14.1419 21.033 14.1419 20.6589C14.1419 20.2848 14.4409 19.9809 14.8091 19.9809H19.1672ZM23.9118 9.69749C24.172 9.96188 24.172 10.3914 23.9118 10.6562C23.6517 10.9206 23.229 10.9206 22.9684 10.6562L19.8867 7.5247C19.6265 7.2603 19.6265 6.83037 19.8867 6.56598C20.1473 6.30112 20.5699 6.30112 20.8301 6.56598L23.9118 9.69749ZM34.4231 5.83491C34.4231 6.20906 34.1241 6.51291 33.7559 6.51291C33.3877 6.51291 33.0887 6.20906 33.0887 5.83491V1.40636C33.0887 1.03221 33.3877 0.728353 33.7559 0.728353C34.1241 0.728353 34.4231 1.03221 34.4231 1.40636V5.83491ZM44.543 10.6562C44.2828 10.9206 43.8602 10.9206 43.5995 10.6562C43.3393 10.3914 43.3393 9.96188 43.5995 9.69749L46.6812 6.56598C46.9419 6.30112 47.3645 6.30112 47.6247 6.56598C47.8849 6.83037 47.8849 7.2603 47.6247 7.5247L44.543 10.6562Z" fill="#113C7B"/>
<path d="M39.5569 36.8042C39.5568 36.647 39.4311 36.5397 39.3046 36.5397H29.185C29.0589 36.5397 28.9328 36.6465 28.9327 36.8042V40.1489C28.9327 40.306 29.0587 40.4134 29.185 40.4134H39.3046C39.4314 40.4134 39.5569 40.3056 39.5569 40.1489V36.8042ZM22.4508 30.1514C22.9286 29.6669 23.669 29.604 24.2127 29.9683L24.4324 30.1514L24.6074 30.3711C24.9616 30.9153 24.9045 31.6532 24.4324 32.133L21.3481 35.262C20.8021 35.8168 19.9125 35.8194 19.3665 35.2661C18.8285 34.7178 18.827 33.8286 19.3665 33.2804L22.4508 30.1514ZM24.5707 19.6126C24.4213 19.6799 24.3383 19.7415 24.2941 19.7957C24.2477 19.8531 24.2 19.9467 24.1883 20.1294C24.1616 20.5525 24.3364 21.2793 24.8841 22.5138L24.9329 22.64L26.7761 28.2186C27.1864 28.9615 28.0314 29.6432 28.8839 30.1595C29.4037 30.474 29.8005 31.0464 30.0598 31.6691C30.3171 32.2867 30.4839 33.0367 30.5685 33.724H37.9415C38.2409 31.8949 39.3722 30.6478 39.8377 30.0252C40.596 29.0094 41.1011 27.7594 41.0624 26.6235L41.0584 26.6113V23.702C40.0846 25.0451 38.2431 25.4685 36.7778 24.6094C36.4788 24.4337 36.2216 24.2128 36.0006 23.9665C35.0382 24.4786 33.8474 24.5032 32.8349 23.9095C32.4845 23.704 32.1941 23.4358 31.9519 23.1364C31.2805 23.4227 30.524 23.476 29.7994 23.2707C29.5173 23.3621 29.2208 23.415 28.9124 23.4253C28.9329 23.46 28.952 23.4981 28.9775 23.5352C29.411 24.1663 29.2635 25.0403 28.6357 25.4883C27.9995 25.9406 27.123 25.7807 26.6826 25.1424C26.0111 24.168 25.7067 22.8246 26.3245 21.814C26.7624 21.0986 27.5835 20.6219 28.8025 20.6217C28.8914 20.6217 28.9749 20.5964 29.0467 20.5526C29.1892 20.4655 29.2867 20.3042 29.2867 20.1172C29.2867 19.9717 29.2266 19.8431 29.1321 19.751C29.0434 19.6647 28.928 19.6126 28.8025 19.6126H24.5707ZM40.8183 17.5008C40.6511 17.4026 40.4439 17.4222 40.2934 17.5374L40.1632 17.6839L38.0066 21.4844C37.867 21.7318 37.9556 22.0413 38.1857 22.1761C38.4089 22.3068 38.7001 22.2333 38.8367 21.993L40.9973 18.1966C41.038 18.1248 41.0582 18.0455 41.0624 17.9687C41.072 17.778 40.9774 17.5949 40.8183 17.5008ZM36.1878 21.9686L36.3831 21.7936L36.5092 22.0337C36.4773 21.823 36.4758 21.6082 36.5133 21.3949L36.1878 21.9686ZM29.8564 21.7529L30.0151 21.814L30.1575 21.5088C30.0652 21.6004 29.9652 21.6813 29.8564 21.7529ZM37.4654 15.7552C37.2595 15.6357 36.9973 15.6909 36.851 15.8854L36.847 15.8813L36.8144 15.9383L34.0637 20.7845C33.9237 21.0312 34.0092 21.3402 34.2387 21.4762C34.4628 21.6077 34.7576 21.5332 34.8938 21.2931L37.6445 16.451C37.7848 16.2041 37.6968 15.8909 37.4654 15.7552ZM32.3629 21.0612C32.3328 21.1141 32.2912 21.1586 32.2571 21.2077L32.4646 21.0571L32.5501 21.2402C32.5309 21.0538 32.5438 20.866 32.5786 20.6787L32.3629 21.0612ZM34.491 13.3545C34.2671 13.2234 33.9726 13.2972 33.8359 13.5376L31.305 17.985C31.5461 18.2748 31.7421 18.604 31.8746 18.9657L34.67 14.0503C34.8102 13.8033 34.722 13.4901 34.491 13.3545ZM25.0468 18.0949C24.9476 18.11 24.857 18.1387 24.7701 18.1559H25.2259L25.2747 18.0583L25.0468 18.0949ZM30.5278 12.6872C30.3042 12.557 30.0133 12.6306 29.8767 12.8703L27.6428 16.8009H28.7659L30.7068 13.383C30.8472 13.1359 30.7588 12.8228 30.5278 12.6872ZM39.1581 16.3696C39.1494 16.4697 39.1296 16.5678 39.1053 16.6667C39.1806 16.5776 39.2614 16.4952 39.3494 16.4225L39.1907 16.4876L39.1581 16.3696ZM36.1064 14.3717C36.0709 14.488 36.0182 14.5986 35.9599 14.7095C36.071 14.6127 36.1943 14.5336 36.322 14.4653L36.1145 14.506L36.1064 14.3717ZM32.1961 12.8174C32.2305 13.0337 32.2351 13.2531 32.1961 13.4725L32.5297 12.8825L32.3344 13.0697L32.1961 12.8174ZM19.5862 5.87158C20.13 5.50744 20.8743 5.56825 21.3522 6.05469L24.4324 9.18783C24.9704 9.73597 24.9695 10.6174 24.4324 11.1654C23.8867 11.7193 22.9967 11.7216 22.4508 11.1694L19.3665 8.0363C18.8273 7.48821 18.8274 6.60284 19.3665 6.05469L19.5862 5.87158ZM46.3806 5.87158C46.9245 5.50737 47.6687 5.56822 48.1466 6.05469C48.6861 6.60287 48.682 7.48811 48.1425 8.0363L45.0623 11.1694C44.5164 11.723 43.6264 11.722 43.0807 11.1694C42.5425 10.6213 42.5415 9.73619 43.0807 9.18783L46.1609 6.05469L46.3806 5.87158ZM35.1542 5.83496C35.1542 6.60073 34.5364 7.24284 33.7545 7.24284C32.9733 7.24207 32.3589 6.60027 32.3588 5.83496V1.40788C32.3588 0.642545 32.9733 0.000769149 33.7545 0C34.5364 0 35.1542 0.642086 35.1542 1.40788V5.83496ZM42.3483 40.1489C42.3483 41.8376 41.247 42.3787 39.5569 42.3787H29.4373C27.7472 42.3787 26.1414 41.8376 26.1414 40.1489V36.8042C26.1415 35.6166 26.8113 34.5872 27.7934 34.0739C27.7511 33.7373 27.6871 33.3727 27.5859 33.0485C27.5211 32.8405 27.4529 32.6757 27.3865 32.5602C27.3745 32.5394 27.3657 32.524 27.358 32.5114C26.2261 31.8117 24.9233 30.7499 24.2534 29.4393C24.2185 29.372 24.1895 29.3039 24.1679 29.2399L22.2921 23.5636C21.3729 21.4559 21.1917 19.8852 21.6736 18.7459C22.056 17.8418 22.7848 17.2672 23.6918 16.9271H23.7L23.8587 16.8701C23.8709 16.8661 23.8827 16.8645 23.8912 16.862L24.3266 16.744C24.3743 16.7333 24.4235 16.7254 24.4731 16.7155L27.4516 11.4705C28.3528 9.88543 30.3631 9.33101 31.9357 10.2539C32.2289 10.4258 32.4828 10.6408 32.7006 10.8805C33.6679 10.3538 34.8721 10.3256 35.8948 10.9253C36.6628 11.3761 37.1772 12.0934 37.4003 12.8906C37.9032 12.9167 38.4089 13.0534 38.8733 13.326C39.4269 13.6511 39.8417 14.12 40.1184 14.6525C40.8203 14.5511 41.5616 14.6844 42.2221 15.0716C43.3114 15.7113 43.8932 16.8858 43.8497 18.0664L43.8538 26.5381L43.8375 27.2339C43.756 28.3194 43.4056 29.3923 42.9057 30.363C42.9553 30.2877 43.0152 30.2179 43.0807 30.1514L43.3004 29.9683C43.7662 29.6571 44.3767 29.6567 44.8426 29.9683L45.0623 30.1514L48.1425 33.2804C48.6817 33.8284 48.6838 34.7136 48.1466 35.262C47.6006 35.8167 46.7069 35.8195 46.1609 35.2661L43.0807 32.133C42.6763 31.7221 42.5737 31.121 42.7755 30.6152C42.5608 31.0034 42.3243 31.3742 42.0675 31.7179C41.5817 32.3677 40.9047 33.0401 40.7084 34.078C41.684 34.5933 42.3482 35.6214 42.3483 36.8042V40.1489ZM20.5628 20.6584C20.5628 21.4242 19.949 22.0662 19.1671 22.0662H14.8092C14.0273 22.0662 13.4135 21.4242 13.4135 20.6584C13.4138 19.8928 14.0275 19.2505 14.8092 19.2505H19.1671C19.9488 19.2505 20.5625 19.8928 20.5628 20.6584ZM54.0996 20.6584C54.0996 21.4236 53.485 22.0654 52.7039 22.0662H48.346C47.5641 22.0662 46.9462 21.4242 46.9462 20.6584C46.9465 19.8928 47.5643 19.2505 48.346 19.2505H52.7039C53.4848 19.2514 54.0993 19.8933 54.0996 20.6584Z" fill="#113C7B"/>
</svg>
