<svg width="100" height="100" viewBox="0 0 100 100" fill="none" xmlns="http://www.w3.org/2000/svg">
<path d="M50.0019 16.6677C56.5942 16.6679 63.0385 18.6219 68.5198 22.2843C74.0014 25.947 78.2741 31.1535 80.797 37.2443C83.3198 43.3351 83.98 50.0372 82.6939 56.5031C81.4077 62.969 78.2326 68.9082 73.5709 73.5698C68.9091 78.2315 62.97 81.4066 56.504 82.6928C50.0381 83.9789 43.3359 83.3187 37.2451 80.7959C31.1543 78.273 25.9477 74.0004 22.285 68.5188C18.6224 63.0374 16.6677 56.5928 16.6676 50.0004C16.6676 49.2037 17.3135 48.5578 18.1102 48.5578C18.9069 48.5578 19.5527 49.2037 19.5527 50.0004C19.5528 56.0222 21.3386 61.9087 24.6841 66.9157C28.0297 71.9228 32.7852 75.8254 38.3488 78.1299C43.9125 80.4344 50.0348 81.0375 55.9412 79.8626C61.8475 78.6878 67.2728 75.7882 71.531 71.53C75.7892 67.2718 78.6888 61.8465 79.8637 55.9403C81.0385 50.034 80.4355 43.9117 78.1309 38.3481C75.8264 32.7845 71.9238 28.029 66.9167 24.6834C61.9096 21.3378 56.0225 19.5521 50.0005 19.5521C42.1364 19.5434 34.5407 22.2586 28.4834 27.1881L35.6321 28.9758C36.4048 29.1691 36.8747 29.952 36.6816 30.7247C36.4884 31.4976 35.7049 31.9675 34.932 31.7742L25.1194 29.3216C24.3466 29.1283 23.8767 28.3448 24.0699 27.572L26.5232 17.7595C26.7165 16.9867 27.5 16.5168 28.2728 16.71C29.0456 16.9033 29.5156 17.6868 29.3224 18.4596L27.9495 23.948C34.2928 19.2361 42.0202 16.6593 50.0019 16.6677ZM48.5587 32.8287C48.5587 32.032 49.2045 31.3861 50.0012 31.3861C50.7978 31.3863 51.4438 32.0321 51.4438 32.8287V52.453C51.4438 52.9994 51.1344 53.499 50.6457 53.7434L37.8896 60.1214C37.177 60.4776 36.311 60.1888 35.9547 59.4762C35.5985 58.7637 35.8869 57.8977 36.5992 57.5413L48.5587 51.5613V32.8287Z" fill="currentColor"/>
<path d="M18.9259 49.9999C18.9257 49.5493 18.5626 49.1831 18.1121 49.182C17.6608 49.182 17.2945 49.5486 17.2943 49.9999C17.2943 56.4687 19.2099 62.7935 22.8037 68.1721C26.3977 73.5509 31.508 77.7448 37.4847 80.2204C43.4607 82.6955 50.0372 83.3417 56.3812 82.08C62.7259 80.8179 68.5549 77.7025 73.1292 73.1282C77.7035 68.5539 80.819 62.7248 82.0811 56.3801C83.3428 50.0361 82.6966 43.4596 80.2215 37.4836C77.7459 31.507 73.552 26.3966 68.1732 22.8026C63.1311 19.4337 57.2577 17.5376 51.2135 17.3135L50.001 17.2932C42.1544 17.2849 34.5571 19.8184 28.3213 24.4506C28.1094 24.6073 27.8204 24.6132 27.6011 24.4669C27.3825 24.3201 27.2808 24.051 27.3447 23.7955L28.716 18.3064C28.8244 17.8692 28.5587 17.4275 28.1219 17.3176C27.6838 17.2081 27.2386 17.4738 27.1291 17.9117L24.6755 27.7221C24.5661 28.1596 24.8325 28.6047 25.2695 28.7149L35.084 31.1685C35.5217 31.2776 35.967 31.0116 36.0768 30.5744C36.1862 30.1366 35.9167 29.6912 35.4787 29.5816L28.3335 27.7953C28.1039 27.7379 27.9251 27.5543 27.8737 27.3233C27.8226 27.0927 27.9063 26.8541 28.0894 26.7048C33.8728 21.9982 41.0317 19.2719 48.5036 18.9574L50.001 18.9289L51.1525 18.9493C56.8945 19.1623 62.4757 20.9611 67.2658 24.1617C72.3755 27.576 76.3561 32.4326 78.7078 38.1103C81.0594 43.7878 81.6768 50.0355 80.4779 56.0627C79.2789 62.0901 76.3192 67.627 71.9736 71.9726C67.6281 76.318 62.0911 79.2778 56.0638 80.4768C50.0366 81.6757 43.7889 81.0582 38.1113 78.7068C32.4337 76.355 27.5771 72.3744 24.1628 67.2647C20.7486 62.155 18.926 56.1453 18.9259 49.9999ZM50.8189 32.8287C50.8189 32.3774 50.4526 32.0109 50.001 32.0108C49.5496 32.0109 49.1831 32.3773 49.1831 32.8287V51.5624C49.1827 51.7987 49.0486 52.0142 48.8372 52.1199L36.8784 58.1013C36.4759 58.3032 36.3114 58.7924 36.5122 59.1959C36.7142 59.5998 37.2071 59.7639 37.6108 59.5621L50.3672 53.1859C50.6443 53.0473 50.8186 52.7625 50.8189 52.4535V32.8287ZM20.1792 49.9999C20.1793 55.8981 21.9276 61.6647 25.2044 66.5689C28.4812 71.4726 33.1386 75.294 38.5874 77.5512C44.0369 79.8084 50.0345 80.3987 55.8197 79.248C61.6044 78.0971 66.9201 75.2602 71.0907 71.0896C75.2613 66.919 78.0982 61.6034 79.249 55.8186C80.3998 50.0335 79.8095 44.0358 77.5523 38.5863C75.295 33.1377 71.4737 28.48 66.57 25.2034C61.6658 21.9266 55.8992 20.1782 50.001 20.1781C42.7078 20.1704 35.647 22.5483 29.8757 26.892L35.7839 28.369C36.891 28.646 37.5655 29.7682 37.2894 30.8756C37.0124 31.9835 35.8864 32.658 34.7788 32.3811L24.9684 29.9275C23.8611 29.6504 23.1864 28.5284 23.4629 27.421L25.9165 17.6065C26.194 16.4998 27.3161 15.8289 28.423 16.105C29.5306 16.3822 30.2054 17.5039 29.9285 18.6116L28.9642 22.4649C35.1186 18.312 42.4098 16.0548 49.9277 16.0481C49.9345 16.0473 49.9413 16.0487 49.9481 16.0481C49.9657 16.0481 49.9833 16.044 50.001 16.044C56.7168 16.0442 63.2849 18.0339 68.869 21.765C74.4521 25.496 78.803 30.7999 81.3731 37.0035C83.9431 43.2082 84.616 50.0373 83.3058 56.6243C81.9955 63.2115 78.7613 69.2621 74.0122 74.0111C69.2631 78.7602 63.2126 81.9945 56.6253 83.3048C50.0383 84.6149 43.2094 83.942 37.0046 81.372C30.8008 78.8019 25.4971 74.451 21.7661 68.8679C18.0349 63.2837 16.0411 56.716 16.041 49.9999C16.0413 48.8582 16.9704 47.9328 18.1121 47.9328C19.253 47.9339 20.1789 48.8589 20.1792 49.9999ZM52.068 52.4535C52.0678 53.2368 51.6245 53.9509 50.9246 54.3008L38.1683 60.6811C37.1477 61.1907 35.9084 60.7768 35.3973 59.7574C34.8869 58.7364 35.2999 57.4932 36.321 56.9823L47.9339 51.1718V32.8287C47.9339 31.6869 48.8592 30.7618 50.001 30.7616C51.1424 30.7619 52.068 31.6868 52.068 32.8287V52.4535Z" fill="currentColor"/>
</svg>
