<svg width="100" height="100" viewBox="0 0 100 100" fill="none" xmlns="http://www.w3.org/2000/svg">
<path d="M67.3111 54.5181C67.0588 54.6992 66.7858 54.8394 66.4909 54.9375C66.1966 55.0356 65.8939 55.088 65.5835 55.0937C65.4952 55.0958 65.4085 55.1067 65.3229 55.1259C65.2372 55.1456 65.1542 55.1731 65.0737 55.2089C64.9932 55.2442 64.9175 55.2878 64.8453 55.3382C64.7737 55.389 64.7077 55.4461 64.647 55.51C64.5863 55.5738 64.5328 55.6429 64.4855 55.7171C64.4388 55.7913 64.3994 55.8697 64.3677 55.9517C64.336 56.0337 64.3132 56.1178 64.2981 56.2045C64.2831 56.2912 64.2769 56.3784 64.2789 56.4661C64.281 56.5543 64.2919 56.641 64.3111 56.7267C64.3303 56.8123 64.3578 56.8954 64.3937 56.9758C64.429 57.0563 64.472 57.1321 64.5229 57.2042C64.5733 57.2758 64.6309 57.3423 64.6942 57.403C64.7581 57.4637 64.8271 57.5172 64.9014 57.5644C64.9756 57.6111 65.0535 57.6506 65.1355 57.6823C65.2175 57.7139 65.3021 57.7373 65.3883 57.7523C65.475 57.7674 65.5622 57.7741 65.6505 57.7721C66.2438 57.7554 66.82 57.6464 67.3791 57.445C67.9377 57.2436 68.4506 56.9597 68.9183 56.5933C69.2189 56.3644 69.4888 56.1038 69.7287 55.8121C69.969 55.5198 70.172 55.2043 70.3381 54.8648C70.5042 54.5253 70.6293 54.1713 70.7129 53.8028C70.7965 53.4343 70.8365 53.061 70.8334 52.6832V37.4975C70.8334 37.3298 70.8297 37.1617 70.8214 36.994C70.8136 36.8263 70.8012 36.6587 70.7851 36.4915C70.769 36.3244 70.7482 36.1578 70.7238 35.9917C70.6994 35.8256 70.6709 35.66 70.6382 35.4955C70.606 35.3309 70.5691 35.1669 70.5286 35.0039C70.4876 34.8409 70.443 34.679 70.3947 34.5186C70.3459 34.3577 70.2935 34.1983 70.2369 34.04C70.1803 33.8817 70.1201 33.7255 70.0557 33.5703C69.9919 33.4151 69.9239 33.2614 69.8522 33.1093C69.7806 32.9578 69.7048 32.8078 69.6259 32.6593C69.547 32.5114 69.4639 32.365 69.3777 32.2212C69.2916 32.0769 69.2018 31.9352 69.1083 31.7956C69.0154 31.656 68.9183 31.5184 68.8187 31.3835C68.7185 31.2485 68.6152 31.1161 68.5087 30.9864C68.4023 30.8566 68.2928 30.7294 68.1796 30.6049C68.067 30.4808 67.9512 30.3588 67.8323 30.2405C67.714 30.1216 67.592 30.0059 67.4679 29.8932C67.3433 29.7801 67.2161 29.6705 67.0863 29.5641C66.9566 29.4577 66.8242 29.3544 66.6892 29.2543C66.5542 29.1546 66.4167 29.0575 66.277 28.9646C66.1374 28.8712 65.9957 28.7814 65.8514 28.6952C65.7076 28.6091 65.5612 28.526 65.4132 28.4471C65.2647 28.3682 65.1147 28.2924 64.9631 28.2208C64.811 28.1492 64.6574 28.0812 64.5022 28.0173C64.3475 27.953 64.1907 27.8928 64.0324 27.8362C63.874 27.7796 63.7146 27.7272 63.5537 27.6784C63.3933 27.6301 63.2313 27.5855 63.0683 27.5445C62.9053 27.504 62.7413 27.4671 62.5767 27.4349C62.4122 27.4022 62.2466 27.3737 62.0805 27.3493C61.9143 27.3249 61.7477 27.3041 61.5805 27.2881C61.4134 27.272 61.2457 27.2595 61.078 27.2517C60.9104 27.2434 60.7422 27.2398 60.5745 27.2398H59.7709C59.9334 27.0067 60.085 26.7669 60.2262 26.5204C60.3668 26.2738 60.4961 26.021 60.6139 25.7625C60.7318 25.504 60.8377 25.2409 60.9316 24.973C61.0256 24.7047 61.1071 24.4332 61.1761 24.1576C61.2452 23.882 61.3018 23.6043 61.3459 23.3235C61.3895 23.0426 61.4206 22.7608 61.4388 22.4774C61.457 22.194 61.4627 21.91 61.4549 21.6261C61.4476 21.3422 61.4274 21.0593 61.3937 20.7769C61.3604 20.4951 61.3148 20.2153 61.2561 19.9371C61.1974 19.6594 61.1258 19.3848 61.0422 19.1133C60.9586 18.8419 60.8626 18.5746 60.7546 18.3119C60.6472 18.0493 60.5272 17.7918 60.3959 17.5401C60.2646 17.2883 60.1218 17.0428 59.9681 16.804C59.8145 16.5653 59.6504 16.3338 59.476 16.1095C59.3011 15.8858 59.1168 15.6699 58.9221 15.4628C58.728 15.2557 58.5245 15.0579 58.3121 14.869C58.0998 14.68 57.8797 14.5015 57.6513 14.3328C57.4224 14.1641 57.1867 14.0063 56.9437 13.8589C56.7008 13.7115 56.4521 13.576 56.1967 13.4509C55.9413 13.3263 55.6812 13.2137 55.4155 13.113C55.1502 13.0118 54.8802 12.923 54.6067 12.8467C54.3331 12.7704 54.0569 12.7066 53.7771 12.6552C53.4978 12.6038 53.217 12.5654 52.934 12.5394C52.6511 12.5135 52.3677 12.5005 52.0832 12.5005C51.7992 12.5005 51.5158 12.5135 51.2329 12.5394C50.95 12.5654 50.6691 12.6038 50.3893 12.6552C50.11 12.7066 49.8339 12.7704 49.5603 12.8467C49.2867 12.923 49.0168 13.0118 48.7515 13.113C48.4857 13.2137 48.2256 13.3263 47.9702 13.4509C47.7148 13.576 47.4656 13.7115 47.2227 13.8589C46.9802 14.0063 46.744 14.1641 46.5156 14.3328C46.2872 14.5015 46.0666 14.68 45.8543 14.869C45.6419 15.0579 45.439 15.2557 45.2443 15.4628C45.0502 15.6699 44.8659 15.8858 44.6909 16.1095C44.5165 16.3338 44.3519 16.5653 44.1983 16.804C44.0446 17.0428 43.9024 17.2883 43.771 17.5401C43.6397 17.7918 43.5198 18.0493 43.4118 18.3119C43.3038 18.5746 43.2083 18.8419 43.1247 19.1133C43.0406 19.3848 42.9695 19.6594 42.9108 19.9371C42.8522 20.2153 42.806 20.4951 42.7728 20.7769C42.7395 21.0593 42.7193 21.3422 42.7115 21.6261C42.7042 21.91 42.7094 22.194 42.7281 22.4774C42.7463 22.7608 42.7774 23.0426 42.821 23.3235C42.8652 23.6043 42.9218 23.882 42.9908 24.1576C43.0598 24.4332 43.1413 24.7047 43.2353 24.973C43.3293 25.2409 43.4352 25.504 43.553 25.7625C43.6708 26.021 43.8001 26.2738 43.9408 26.5204C44.0815 26.7669 44.2336 27.0067 44.3961 27.2398H43.5925C43.4243 27.2398 43.2566 27.2434 43.0889 27.2517C42.9212 27.2595 42.7536 27.272 42.5864 27.2881C42.4192 27.3041 42.2526 27.3249 42.0865 27.3493C41.9204 27.3737 41.7548 27.4022 41.5902 27.4349C41.4251 27.4671 41.2616 27.504 41.0986 27.5445C40.9356 27.5855 40.7736 27.6301 40.6127 27.6784C40.4523 27.7272 40.2929 27.7796 40.1346 27.8362C39.9763 27.8928 39.8195 27.953 39.6643 28.0173C39.509 28.0812 39.3559 28.1492 39.2038 28.2208C39.0517 28.2924 38.9017 28.3682 38.7537 28.4471C38.6058 28.526 38.4594 28.6091 38.3156 28.6952C38.1713 28.7814 38.0295 28.8712 37.8899 28.9646C37.7503 29.0575 37.6127 29.1546 37.4777 29.2543C37.3428 29.3544 37.2104 29.4577 37.0806 29.5641C36.9508 29.6705 36.8236 29.7801 36.699 29.8932C36.5745 30.0059 36.453 30.1216 36.3341 30.2405C36.2157 30.3588 36.1 30.4808 35.9868 30.6049C35.8742 30.7294 35.7646 30.8566 35.6582 30.9864C35.5518 31.1161 35.4485 31.2485 35.3483 31.3835C35.2481 31.5184 35.1515 31.656 35.0581 31.7956C34.9652 31.9352 34.8754 32.0769 34.7892 32.2212C34.7025 32.365 34.62 32.5114 34.5411 32.6593C34.4616 32.8078 34.3864 32.9578 34.3147 33.1093C34.2431 33.2614 34.1751 33.4151 34.1107 33.5703C34.0468 33.7255 33.9861 33.8817 33.93 34.04C33.8735 34.1983 33.821 34.3577 33.7722 34.5186C33.7234 34.679 33.6788 34.8409 33.6383 35.0039C33.5978 35.1669 33.5609 35.3309 33.5282 35.4955C33.4961 35.66 33.4675 35.8256 33.4426 35.9917C33.4182 36.1578 33.3979 36.3244 33.3819 36.4915C33.3652 36.6587 33.3533 36.8263 33.345 36.994C33.3372 37.1617 33.3331 37.3298 33.3336 37.4975V52.6832C33.3341 52.8301 33.3403 52.9764 33.3528 53.1228C33.3658 53.2692 33.3839 53.4145 33.4083 53.5593C33.4332 53.7042 33.4634 53.8474 33.4997 53.9902C33.536 54.1324 33.5781 54.2725 33.6258 54.4116C33.6736 54.5502 33.7271 54.6867 33.7862 54.8212C33.8454 54.9556 33.9098 55.0875 33.9799 55.2167C34.05 55.3454 34.1247 55.4716 34.2052 55.5946C34.2856 55.7176 34.3708 55.837 34.4606 55.9527C34.5509 56.069 34.6454 56.1806 34.7451 56.2891C34.8442 56.3971 34.948 56.5009 35.0555 56.6005C35.1635 56.7002 35.2751 56.7952 35.3909 56.8855C35.5066 56.9763 35.626 57.0615 35.7485 57.1424C35.871 57.2229 35.9972 57.2981 36.1259 57.3687C36.2547 57.4388 36.3865 57.5037 36.5205 57.5634C36.6549 57.6226 36.7914 57.6765 36.93 57.7248C37.0687 57.7731 37.2093 57.8157 37.3516 57.852V86.1611C37.3516 86.2494 37.3599 86.3366 37.377 86.4227C37.3941 86.5089 37.4196 86.5925 37.4533 86.674C37.4871 86.7549 37.5281 86.8323 37.5769 86.9055C37.6257 86.9786 37.6812 87.0461 37.7435 87.1084C37.8058 87.1702 37.8733 87.2257 37.9465 87.275C38.0197 87.3238 38.097 87.3648 38.178 87.3986C38.2595 87.4323 38.3431 87.4577 38.4293 87.4749C38.5154 87.492 38.6027 87.5003 38.6904 87.5003C38.7786 87.5003 38.8659 87.492 38.952 87.4749C39.0382 87.4577 39.1218 87.4323 39.2033 87.3986C39.2843 87.3648 39.3616 87.3238 39.4348 87.275C39.508 87.2257 39.5755 87.1702 39.6378 87.1084C39.6996 87.0461 39.7551 86.9786 39.8044 86.9055C39.8532 86.8323 39.8942 86.7549 39.928 86.674C39.9617 86.5925 39.9872 86.5089 40.0043 86.4227C40.0214 86.3366 40.0297 86.2494 40.0297 86.1611V58.0399C40.0313 57.8058 40.0629 57.5764 40.1242 57.3511C40.186 57.1253 40.2753 56.912 40.3926 56.7095C40.5104 56.5076 40.6516 56.3244 40.8172 56.1593C40.9828 55.9943 41.1666 55.8531 41.3691 55.7363V81.5415C41.3701 81.7377 41.3805 81.9334 41.4007 82.1285C41.421 82.3242 41.4506 82.5178 41.4895 82.7104C41.5289 82.9024 41.5777 83.0924 41.6354 83.2803C41.6935 83.4677 41.7605 83.652 41.8363 83.8331C41.9126 84.0143 41.9972 84.1908 42.0906 84.3636C42.1841 84.5365 42.2858 84.7041 42.3959 84.8666C42.5059 85.029 42.6233 85.1863 42.7489 85.3374C42.874 85.4884 43.0069 85.6327 43.146 85.7708C43.2857 85.9089 43.4321 86.0397 43.5847 86.1637C43.7368 86.2873 43.8951 86.403 44.0591 86.511C44.2227 86.6195 44.3919 86.7191 44.5653 86.8105C44.7392 86.9023 44.9167 86.9849 45.0989 87.0591C45.2806 87.1328 45.466 87.1977 45.6539 87.2537C45.8423 87.3093 46.0328 87.356 46.2254 87.3929C46.4186 87.4302 46.6127 87.4577 46.8079 87.4754C47.0036 87.4936 47.1998 87.5019 47.3961 87.5003C47.6203 87.4998 47.8441 87.4863 48.0673 87.4609C48.29 87.4349 48.5111 87.397 48.7297 87.3467C48.9488 87.2963 49.1637 87.2335 49.3755 87.1593C49.5873 87.0845 49.7944 86.9984 49.9969 86.9008C50.1988 86.8032 50.395 86.6947 50.585 86.5753C50.775 86.4559 50.9578 86.3262 51.1332 86.186C51.3087 86.0464 51.4758 85.8969 51.6347 85.7381C51.7935 85.5798 51.943 85.4126 52.0832 85.2372C52.2234 85.4126 52.3729 85.5798 52.5317 85.7381C52.6906 85.8969 52.8583 86.0464 53.0337 86.186C53.2092 86.3262 53.3919 86.4559 53.5819 86.5753C53.7719 86.6947 53.9681 86.8032 54.1701 86.9008C54.3725 86.9984 54.5791 87.0845 54.7909 87.1593C55.0027 87.2335 55.2182 87.2963 55.4367 87.3467C55.6558 87.397 55.8764 87.4349 56.0997 87.4609C56.3229 87.4863 56.5466 87.4998 56.7709 87.5003C56.9671 87.5019 57.1633 87.4936 57.3585 87.4754C57.5542 87.4577 57.7484 87.4302 57.941 87.3929C58.1341 87.356 58.3246 87.3093 58.513 87.2537C58.701 87.1977 58.8863 87.1328 59.068 87.0591C59.2497 86.9849 59.4277 86.9023 59.6011 86.8105C59.775 86.7191 59.9437 86.6195 60.1078 86.5115C60.2718 86.403 60.4296 86.2873 60.5823 86.1637C60.7349 86.0397 60.8808 85.9089 61.0204 85.7708C61.16 85.6327 61.2924 85.4884 61.4181 85.3374C61.5437 85.1863 61.661 85.029 61.7711 84.8666C61.8811 84.7041 61.9829 84.5365 62.0763 84.3636C62.1697 84.1908 62.2544 84.0143 62.3307 83.8331C62.4065 83.652 62.4734 83.4677 62.5316 83.2803C62.5892 83.0924 62.638 82.9024 62.6769 82.7104C62.7164 82.5178 62.746 82.3242 62.7662 82.1291C62.7865 81.9334 62.7968 81.7377 62.7979 81.5415V43.3094C62.7979 43.2212 62.7891 43.1345 62.7719 43.0483C62.7548 42.9617 62.7294 42.8781 62.6956 42.7971C62.6619 42.7156 62.6209 42.6383 62.5721 42.5656C62.5233 42.4924 62.4677 42.4244 62.4054 42.3627C62.3431 42.3004 62.2756 42.2448 62.2024 42.196C62.1292 42.1472 62.0519 42.1057 61.9709 42.072C61.8894 42.0388 61.8058 42.0133 61.7197 41.9962C61.6335 41.9785 61.5463 41.9702 61.4585 41.9702C61.3703 41.9702 61.2831 41.9785 61.1969 41.9962C61.1107 42.0133 61.0272 42.0388 60.9457 42.072C60.8647 42.1057 60.7873 42.1472 60.7141 42.196C60.6409 42.2448 60.5734 42.3004 60.5112 42.3627C60.4494 42.4244 60.3938 42.4924 60.345 42.5656C60.2957 42.6383 60.2547 42.7156 60.221 42.7971C60.1872 42.8781 60.1618 42.9617 60.1446 43.0483C60.1275 43.1345 60.1192 43.2212 60.1192 43.3094V81.5415C60.1197 81.7579 60.099 81.9723 60.0559 82.1851C60.0128 82.3974 59.9484 82.603 59.8633 82.8023C59.7781 83.0016 59.6738 83.19 59.5497 83.368C59.4257 83.5456 59.2855 83.7091 59.1282 83.858C58.974 84.0132 58.8058 84.1513 58.6236 84.2728C58.4419 84.3942 58.2499 84.4965 58.0474 84.579C57.8449 84.6621 57.6362 84.7238 57.4213 84.7648C57.2064 84.8059 56.9894 84.8251 56.7709 84.8225C56.6624 84.823 56.5539 84.8188 56.4459 84.809C56.3379 84.7991 56.2305 84.784 56.1241 84.7638C56.0176 84.7436 55.9123 84.7181 55.8079 84.6875C55.7041 84.6574 55.6013 84.6216 55.5006 84.5811C55.4004 84.5406 55.3018 84.4949 55.2057 84.4446C55.1097 84.3942 55.0162 84.3397 54.9254 84.28C54.8346 84.2209 54.7468 84.157 54.6622 84.089C54.5776 84.021 54.4966 83.9494 54.4193 83.8731C54.3414 83.7973 54.2682 83.7179 54.1981 83.6343C54.1285 83.5513 54.0631 83.4651 54.0019 83.3753C53.9406 83.286 53.884 83.1936 53.8316 83.0987C53.7797 83.0031 53.7319 82.9061 53.6894 82.8059C53.6468 82.7062 53.6094 82.6045 53.5767 82.5012C53.544 82.3979 53.5165 82.2931 53.4942 82.1867C53.4713 82.0808 53.4542 81.9738 53.4423 81.8659C53.4309 81.7579 53.4241 81.65 53.4225 81.5415V59.3791C53.4225 59.2908 53.4142 59.2036 53.3971 59.1175C53.38 59.0313 53.3545 58.9477 53.3208 58.8662C53.2871 58.7853 53.246 58.7079 53.1967 58.6347C53.1479 58.5615 53.0924 58.4941 53.0306 58.4318C52.9683 58.37 52.9008 58.3145 52.8276 58.2652C52.7544 58.2164 52.6771 58.1754 52.5961 58.1416C52.5146 58.1079 52.431 58.0825 52.3448 58.0653C52.2587 58.0482 52.1715 58.0399 52.0832 58.0399C51.9955 58.0399 51.9083 58.0482 51.8221 58.0653C51.7359 58.0825 51.6523 58.1079 51.5708 58.1416C51.4899 58.1754 51.4125 58.2164 51.3393 58.2652C51.2661 58.3145 51.1986 58.37 51.1363 58.4318C51.074 58.4941 51.0185 58.5615 50.9697 58.6347C50.9209 58.7079 50.8799 58.7853 50.8461 58.8662C50.8124 58.9477 50.787 59.0313 50.7698 59.1175C50.7527 59.2036 50.7439 59.2908 50.7439 59.3791V81.5415C50.7428 81.65 50.7361 81.7579 50.7241 81.8659C50.7122 81.9738 50.6951 82.0808 50.6728 82.1867C50.6504 82.2931 50.6229 82.3979 50.5902 82.5012C50.5575 82.6045 50.5201 82.7062 50.477 82.8059C50.4345 82.9061 50.3872 83.0031 50.3348 83.0987C50.2829 83.1936 50.2263 83.286 50.1651 83.3753C50.1038 83.4651 50.0384 83.5513 49.9683 83.6343C49.8987 83.7179 49.825 83.7973 49.7477 83.8731C49.6703 83.9494 49.5893 84.021 49.5047 84.089C49.4201 84.157 49.3324 84.2209 49.2415 84.28C49.1507 84.3397 49.0573 84.3942 48.9612 84.4446C48.8652 84.4949 48.7665 84.5406 48.6658 84.5811C48.5651 84.6216 48.4629 84.6574 48.359 84.6875C48.2547 84.7181 48.1493 84.7436 48.0429 84.7638C47.9359 84.784 47.829 84.7991 47.721 84.809C47.6125 84.8188 47.5046 84.823 47.3961 84.8225C47.1754 84.8245 46.9574 84.8048 46.7409 84.7633C46.525 84.7212 46.3147 84.6584 46.1112 84.5744C45.9077 84.4908 45.7141 84.387 45.5314 84.2645C45.3486 84.1415 45.1799 84.0013 45.0252 83.8446C44.87 83.6961 44.7309 83.5331 44.6084 83.3561C44.4864 83.1796 44.3831 82.9917 44.299 82.794C44.2149 82.5957 44.1516 82.3912 44.1095 82.1804C44.0669 81.9697 44.0467 81.7564 44.0477 81.5415V55.7363C44.2502 55.8531 44.434 55.9943 44.5996 56.1593C44.7652 56.3244 44.9069 56.5076 45.0242 56.7095C45.1415 56.912 45.2313 57.1253 45.2926 57.3511C45.3544 57.5764 45.3855 57.8058 45.3871 58.0399C45.3871 58.1276 45.3954 58.2148 45.4125 58.301C45.4301 58.3871 45.4551 58.4707 45.4888 58.5522C45.5226 58.6332 45.5641 58.7105 45.6129 58.7837C45.6617 58.8569 45.7172 58.9244 45.7795 58.9867C45.8413 59.0489 45.9093 59.1045 45.982 59.1533C46.0552 59.2021 46.1325 59.2431 46.214 59.2768C46.295 59.3106 46.3786 59.336 46.4648 59.3531C46.5514 59.3702 46.6381 59.3791 46.7264 59.3791C46.8141 59.3791 46.9013 59.3702 46.9875 59.3531C47.0737 59.336 47.1578 59.3106 47.2388 59.2768C47.3203 59.2431 47.3971 59.2021 47.4703 59.1533C47.5435 59.1045 47.611 59.0489 47.6733 58.9867C47.7356 58.9244 47.7911 58.8569 47.8399 58.7837C47.8887 58.7105 47.9297 58.6332 47.9635 58.5522C47.9972 58.4707 48.0226 58.3871 48.0398 58.301C48.0569 58.2148 48.0657 58.1276 48.0657 58.0399C48.0652 57.893 48.0585 57.7461 48.046 57.6002C48.0335 57.4539 48.0149 57.3085 47.9905 57.1637C47.9661 57.0189 47.9354 56.8751 47.8991 56.7329C47.8633 56.5907 47.8212 56.45 47.7729 56.3114C47.7252 56.1728 47.6717 56.0358 47.6125 55.9019C47.5539 55.7674 47.489 55.6356 47.4194 55.5063C47.3493 55.3771 47.2741 55.2515 47.1941 55.1285C47.1137 55.0055 47.0285 54.8861 46.9382 54.7703C46.8484 54.654 46.7534 54.5419 46.6542 54.434C46.5551 54.326 46.4513 54.2222 46.3433 54.1225C46.2358 54.0229 46.1237 53.9279 46.0079 53.837C45.8927 53.7467 45.7733 53.6611 45.6508 53.5806C45.5277 53.5002 45.4021 53.4244 45.2734 53.3543C45.1441 53.2842 45.0128 53.2194 44.8783 53.1597C44.7444 53.1 44.6079 53.0465 44.4693 52.9982C44.3301 52.95 44.19 52.9074 44.0477 52.8705V43.3094C44.0477 43.2212 44.0389 43.1345 44.0218 43.0483C44.0046 42.9617 43.9792 42.8781 43.946 42.7971C43.9122 42.7156 43.8707 42.6383 43.8219 42.5656C43.7731 42.4924 43.7176 42.4244 43.6553 42.3627C43.5935 42.3004 43.5255 42.2448 43.4523 42.196C43.3796 42.1472 43.3023 42.1057 43.2208 42.072C43.1398 42.0388 43.0562 42.0133 42.9695 41.9962C42.8833 41.9785 42.7966 41.9702 42.7084 41.9702C42.6207 41.9702 42.5334 41.9785 42.4473 41.9962C42.3611 42.0133 42.277 42.0388 42.196 42.072C42.1145 42.1057 42.0377 42.1472 41.9645 42.196C41.8913 42.2448 41.8238 42.3004 41.7615 42.3627C41.6992 42.4244 41.6437 42.4924 41.5949 42.5656C41.5461 42.6383 41.5045 42.7156 41.4713 42.7971C41.4376 42.8781 41.4121 42.9617 41.395 43.0483C41.3779 43.1345 41.3691 43.2212 41.3691 43.3094V52.8705C41.0306 52.9619 40.7046 53.0854 40.39 53.2412C40.0759 53.3964 39.7795 53.5811 39.5018 53.795C39.2235 54.0083 38.9692 54.2471 38.7382 54.5108C38.5066 54.7745 38.3036 55.0579 38.1282 55.3615C37.6636 55.2577 37.2524 55.0475 36.8958 54.7319C36.753 54.6032 36.6253 54.4604 36.5132 54.3042C36.4011 54.1474 36.3066 53.9808 36.2303 53.8038C36.154 53.6273 36.0979 53.4446 36.061 53.2552C36.0242 53.0662 36.0076 52.8757 36.0122 52.6832V37.4975C36.0112 37.1284 36.0377 36.7615 36.0906 36.3966C36.1436 36.0317 36.223 35.6725 36.3289 35.319C36.4343 34.9655 36.5651 34.6219 36.7214 34.2876C36.8776 33.9533 37.0572 33.632 37.2602 33.3242C37.4632 33.0164 37.688 32.7247 37.9335 32.4496C38.1796 32.1745 38.4443 31.9191 38.7272 31.683C39.0107 31.4463 39.3097 31.2319 39.6248 31.0398C39.9394 30.8473 40.2664 30.6786 40.6059 30.5343C41.557 30.1138 42.5527 29.9088 43.5925 29.9181H47.2756C47.6364 30.1361 48.0102 30.3287 48.3974 30.4964C48.7847 30.6635 49.1813 30.8037 49.5878 30.9168C49.9943 31.03 50.4059 31.1151 50.8238 31.1722C51.2417 31.2298 51.6617 31.2584 52.0832 31.2584C52.5053 31.2584 52.9252 31.2298 53.3426 31.1722C53.7605 31.1151 54.1727 31.03 54.5791 30.9168C54.9851 30.8037 55.3822 30.6635 55.7695 30.4964C56.1562 30.3287 56.5305 30.1361 56.8913 29.9181H60.5745C61.6143 29.9088 62.61 30.1138 63.561 30.5343C63.9005 30.6786 64.2275 30.8473 64.5421 31.0398C64.8572 31.2319 65.1562 31.4463 65.4392 31.683C65.7226 31.9191 65.9874 32.1745 66.2329 32.4496C66.479 32.7247 66.7032 33.0164 66.9067 33.3242C67.1097 33.632 67.2893 33.9533 67.4456 34.2876C67.6013 34.6219 67.7327 34.9655 67.838 35.319C67.9439 35.6725 68.0234 36.0317 68.0763 36.3966C68.1293 36.7615 68.1552 37.1284 68.1547 37.4975V52.6832C68.162 52.8586 68.1485 53.0325 68.1142 53.2043C68.0805 53.3766 68.0265 53.5422 67.9533 53.7021C67.8801 53.8614 67.7887 54.0099 67.6802 54.148C67.5717 54.2855 67.4487 54.409 67.3111 54.5181ZM45.3871 21.8836C45.3871 21.664 45.398 21.4455 45.4192 21.227C45.4405 21.009 45.4727 20.792 45.5158 20.5771C45.5584 20.3622 45.6118 20.1494 45.6752 19.9397C45.739 19.73 45.8127 19.5234 45.8968 19.321C45.9804 19.1185 46.0744 18.9202 46.1777 18.7272C46.281 18.5335 46.3936 18.3456 46.5156 18.1635C46.6376 17.9813 46.7679 17.8053 46.907 17.6356C47.0462 17.4664 47.1931 17.3039 47.3483 17.1487C47.5035 16.994 47.6655 16.8466 47.8352 16.7075C48.005 16.5684 48.181 16.4381 48.3632 16.3161C48.5454 16.1941 48.7333 16.0815 48.9269 15.9782C49.1201 15.8749 49.3184 15.7815 49.5208 15.6974C49.7233 15.6133 49.9299 15.5396 50.1396 15.4763C50.3493 15.4124 50.5617 15.359 50.7771 15.3164C50.992 15.2738 51.209 15.2417 51.427 15.2199C51.6451 15.1986 51.8641 15.1877 52.0832 15.1877C52.3028 15.1877 52.5213 15.1986 52.7399 15.2199C52.9579 15.2417 53.1749 15.2738 53.3898 15.3164C53.6048 15.359 53.8176 15.4124 54.0273 15.4763C54.237 15.5396 54.4431 15.6133 54.6461 15.6974C54.8486 15.7815 55.0469 15.8749 55.24 15.9782C55.4336 16.0815 55.6215 16.1941 55.8038 16.3161C55.986 16.4381 56.1619 16.5684 56.3317 16.7075C56.5009 16.8466 56.6634 16.994 56.8186 17.1487C56.9733 17.3039 57.1208 17.4664 57.2599 17.6356C57.399 17.8053 57.5293 17.9813 57.6513 18.1635C57.7733 18.3456 57.8859 18.5335 57.9893 18.7272C58.0926 18.9202 58.186 19.1185 58.2701 19.321C58.3542 19.5234 58.4279 19.73 58.4912 19.9397C58.5551 20.1494 58.6086 20.3622 58.6511 20.5771C58.6937 20.792 58.7259 21.009 58.7477 21.227C58.769 21.4455 58.7799 21.664 58.7799 21.8836C58.7799 22.1026 58.769 22.3211 58.7477 22.5397C58.7259 22.7577 58.6937 22.9746 58.6511 23.1895C58.6086 23.4044 58.5551 23.6172 58.4912 23.8269C58.4279 24.0366 58.3542 24.2432 58.2701 24.4457C58.186 24.6481 58.0926 24.8464 57.9893 25.0395C57.8859 25.2331 57.7733 25.421 57.6513 25.6032C57.5293 25.7854 57.399 25.9613 57.2599 26.1311C57.1208 26.3003 56.9733 26.4627 56.8186 26.6179C56.6634 26.7731 56.5009 26.92 56.3317 27.0591C56.1619 27.1983 55.986 27.3285 55.8038 27.4505C55.6215 27.5725 55.4336 27.6851 55.24 27.7884C55.0469 27.8917 54.8486 27.9852 54.6461 28.0692C54.4431 28.1533 54.237 28.227 54.0273 28.2909C53.8176 28.3542 53.6048 28.4077 53.3898 28.4502C53.1749 28.4933 52.9579 28.5255 52.7399 28.5468C52.5213 28.5681 52.3028 28.579 52.0832 28.579C51.8641 28.579 51.6451 28.5681 51.427 28.5468C51.209 28.5255 50.992 28.4933 50.7771 28.4502C50.5617 28.4077 50.3493 28.3542 50.1396 28.2909C49.9299 28.227 49.7233 28.1533 49.5208 28.0692C49.3184 27.9852 49.1201 27.8917 48.9269 27.7884C48.7333 27.6851 48.5454 27.5725 48.3632 27.4505C48.181 27.3285 48.005 27.1983 47.8352 27.0591C47.6655 26.92 47.5035 26.7731 47.3483 26.6179C47.1931 26.4627 47.0462 26.3003 46.907 26.1311C46.7679 25.9613 46.6376 25.7854 46.5156 25.6032C46.3936 25.421 46.281 25.2331 46.1777 25.0395C46.0744 24.8464 45.9804 24.6481 45.8968 24.4457C45.8127 24.2432 45.739 24.0366 45.6752 23.8269C45.6118 23.6172 45.5584 23.4044 45.5158 23.1895C45.4727 22.9746 45.4405 22.7577 45.4192 22.5397C45.398 22.3211 45.3871 22.1026 45.3871 21.8836Z" fill="white"/>
<path d="M70.4063 37.0163C70.3989 36.8568 70.3851 36.6927 70.3697 36.5321C70.3543 36.3726 70.3362 36.212 70.3127 36.0519C70.2893 35.8927 70.2626 35.7334 70.2313 35.5758C70.2006 35.4189 70.1645 35.2608 70.1255 35.1038C70.0862 34.9477 70.0415 34.7933 69.9953 34.64C69.9484 34.4853 69.899 34.3318 69.8448 34.1802C69.7905 34.0283 69.7315 33.8772 69.6698 33.7285C69.609 33.5807 69.543 33.4346 69.4745 33.2891L69.2588 32.8537C69.1835 32.7125 69.1013 32.5723 69.0188 32.4346C68.9366 32.297 68.8517 32.1612 68.7624 32.0277C68.6738 31.8945 68.5777 31.763 68.4816 31.633C68.3861 31.5044 68.286 31.3741 68.1846 31.2505C68.0827 31.1263 67.9792 31.0031 67.8713 30.8843L67.5376 30.5343C67.4248 30.421 67.3073 30.3092 67.1877 30.2007C67.0687 30.0927 66.9459 29.9894 66.8215 29.8874C66.6969 29.7852 66.5686 29.6865 66.439 29.5903C66.3099 29.4951 66.1765 29.3975 66.0443 29.3096L65.6374 29.0532C65.4994 28.9705 65.3598 28.8886 65.2183 28.8132C65.0755 28.7373 64.9314 28.6657 64.787 28.5975L64.3435 28.4022C64.1958 28.3408 64.044 28.2816 63.8918 28.2272C63.7403 28.1731 63.5865 28.1235 63.432 28.0767C63.279 28.0306 63.1239 27.9897 62.9681 27.9505L62.4961 27.8447C62.3386 27.8134 62.1792 27.7867 62.0201 27.7633C61.8599 27.7398 61.6994 27.7177 61.5399 27.7023C61.3794 27.6869 61.2191 27.6772 61.0598 27.6698C60.9007 27.6619 60.7364 27.6576 60.5756 27.6576H58.9724L59.4281 27.0024C59.5831 26.7802 59.7286 26.5503 59.8635 26.3148C59.9977 26.0796 60.1212 25.8373 60.2338 25.5905C60.3464 25.3434 60.4491 25.0896 60.5389 24.8337C60.6285 24.5778 60.7051 24.3189 60.7709 24.0565C60.8369 23.7929 60.8915 23.5273 60.9336 23.259L61.0231 22.4492C61.0404 22.1791 61.0468 21.9091 61.0394 21.6395C61.0325 21.3687 61.0105 21.0945 60.9784 20.8257C60.9467 20.5565 60.9041 20.2895 60.8482 20.0241C60.7922 19.7592 60.7248 19.4946 60.6447 19.2347L60.368 18.4697C60.2656 18.2195 60.1517 17.9737 60.0262 17.7332C59.9009 17.493 59.7661 17.2573 59.6193 17.0293L59.1473 16.366L58.6184 15.7476C58.4335 15.5504 58.2391 15.3624 58.0365 15.182C57.8342 15.002 57.6234 14.83 57.4058 14.6693C57.1869 14.508 56.9586 14.3545 56.7263 14.2135C56.4953 14.0735 56.2577 13.9463 56.0142 13.827C55.7704 13.7081 55.5229 13.5975 55.2696 13.5015C55.0176 13.4054 54.7566 13.3218 54.4965 13.2492C54.2353 13.1764 53.9699 13.1151 53.703 13.0661C53.4368 13.0171 53.1675 12.981 52.8973 12.9562C52.6272 12.9314 52.3552 12.9155 52.0835 12.9155C51.8123 12.9155 51.54 12.9314 51.2697 12.9562C50.9996 12.981 50.7309 13.0171 50.4641 13.0661C50.1974 13.1152 49.9319 13.1763 49.6706 13.2492C49.4104 13.3218 49.1536 13.4054 48.9016 13.5015L48.1529 13.827C47.9093 13.9463 47.6714 14.0737 47.4408 14.2135C47.2085 14.3548 46.9791 14.5084 46.7613 14.6693C46.5434 14.8303 46.3326 15.0022 46.1306 15.182C45.9283 15.362 45.7344 15.55 45.5487 15.7476L45.0197 16.366C44.8528 16.5807 44.6943 16.8015 44.5477 17.0293C44.4012 17.2571 44.2664 17.4925 44.1408 17.7332C44.0155 17.9735 43.902 18.2193 43.799 18.4697C43.6961 18.72 43.6022 18.9754 43.5223 19.2347C43.4421 19.4937 43.3749 19.7587 43.3189 20.0241L43.1846 20.8257C43.1529 21.0954 43.1351 21.3679 43.1276 21.6395L43.1439 22.4492C43.1613 22.7197 43.1917 22.9904 43.2334 23.259L43.3962 24.0565C43.462 24.3189 43.5386 24.5778 43.6281 24.8337C43.7179 25.0896 43.8207 25.3434 43.9333 25.5905C44.0458 25.8372 44.1694 26.0796 44.3036 26.3148C44.4377 26.5497 44.5836 26.7796 44.739 27.0024L45.1947 27.6576H43.5915C43.4302 27.6576 43.2705 27.6619 43.1114 27.6698C42.952 27.6772 42.7877 27.6869 42.6272 27.7023C42.4677 27.7177 42.3071 27.7398 42.147 27.7633L41.6709 27.8447C41.5138 27.8754 41.3561 27.9115 41.1989 27.9505C41.0435 27.9897 40.8886 28.0307 40.7351 28.0767C40.5809 28.1235 40.4267 28.1731 40.2753 28.2272L39.8236 28.4022C39.6755 28.4631 39.5266 28.5285 39.3801 28.5975C39.2352 28.6657 39.091 28.7373 38.9488 28.8132L38.5297 29.0532C38.3922 29.1353 38.2562 29.2203 38.1228 29.3096C37.9898 29.398 37.8538 29.4905 37.724 29.5863L37.7281 29.5903C37.5985 29.6865 37.4702 29.7852 37.3456 29.8874C37.2212 29.9893 37.0983 30.0927 36.9794 30.2007C36.8604 30.3082 36.7433 30.4205 36.6294 30.5343L36.2958 30.8843C36.1876 31.0039 36.0805 31.1259 35.9784 31.2505C35.8765 31.3748 35.7773 31.5037 35.6814 31.633L35.4047 32.0277C35.3156 32.1615 35.2304 32.2972 35.1483 32.4346C35.066 32.5711 34.9839 32.7119 34.9082 32.8537C34.8325 32.9952 34.7612 33.1439 34.6926 33.2891C34.6242 33.4342 34.5587 33.5804 34.4973 33.7285L34.3223 34.1802C34.2681 34.3318 34.2187 34.4853 34.1717 34.64C34.1251 34.7933 34.0803 34.9478 34.0415 35.1038L33.9357 35.5758C33.9049 35.7336 33.8783 35.8925 33.8544 36.0519L33.7974 36.5321C33.7816 36.6915 33.7688 36.8546 33.7608 37.0163C33.7534 37.1769 33.7481 37.3374 33.7486 37.4964V52.682L33.7689 53.0848L33.8177 53.4876C33.8409 53.622 33.8698 53.7553 33.9032 53.8864C33.9367 54.0175 33.977 54.1482 34.0212 54.277C34.0649 54.4037 34.1136 54.5284 34.1677 54.6514C34.2224 54.7757 34.2823 54.8988 34.3467 55.0176L34.5542 55.3675C34.6284 55.4809 34.7075 55.5905 34.7902 55.6971C34.873 55.8037 34.9591 55.9066 35.0507 56.0063C35.1418 56.1056 35.2397 56.2027 35.3396 56.2952C35.4389 56.3869 35.5428 56.473 35.6488 56.5557C35.7541 56.6382 35.8646 56.7205 35.9784 56.7957C36.0899 56.8689 36.2055 56.9381 36.3243 57.0033L36.6905 57.1823C36.8152 57.2372 36.9411 57.2884 37.0689 57.3328C37.196 57.377 37.3257 57.4136 37.4554 57.4468L37.7688 57.5282V86.1618C37.7688 86.2232 37.7735 86.2828 37.785 86.3408C37.7966 86.399 37.815 86.4559 37.8379 86.5117C37.8618 86.5689 37.8901 86.6245 37.9234 86.6745C37.9564 86.724 37.9944 86.7698 38.0373 86.8128L38.1757 86.9268C38.2255 86.96 38.2814 86.9884 38.3384 87.0122C38.3945 87.0354 38.4508 87.0534 38.5093 87.0651C38.5679 87.0767 38.6311 87.0854 38.6924 87.0854C38.7536 87.0853 38.8136 87.0766 38.8715 87.0651C38.9299 87.0534 38.9863 87.0353 39.0424 87.0122C39.0995 86.9884 39.1552 86.9601 39.2051 86.9268L39.3435 86.8128C39.3858 86.7699 39.4237 86.7242 39.4574 86.6745C39.4907 86.6245 39.519 86.5689 39.5428 86.5117C39.5658 86.4559 39.5842 86.399 39.5957 86.3408C39.6072 86.2827 39.612 86.2232 39.612 86.1618V58.0368C39.6138 57.7665 39.6513 57.4989 39.7219 57.2393C39.7931 56.9794 39.8961 56.7317 40.0311 56.4987C40.167 56.266 40.3322 56.0546 40.5235 55.8639C40.7143 55.6738 40.9282 55.5107 41.1623 55.3756L41.7849 55.0135V81.5394L41.8133 82.0846C41.8321 82.2663 41.8627 82.4469 41.8988 82.6258C41.9355 82.8046 41.9792 82.9832 42.0331 83.1589C42.0871 83.3327 42.1499 83.5034 42.2203 83.6715L42.4563 84.1639C42.543 84.3243 42.639 84.4811 42.7411 84.6318C42.8441 84.7838 42.9544 84.9315 43.0707 85.0713L43.441 85.4741C43.5704 85.602 43.7056 85.7247 43.8479 85.8403L44.2873 86.1618L44.7593 86.4425L45.2557 86.6745L45.7725 86.8535L46.3055 86.9837L46.8467 87.061C47.0284 87.0779 47.2139 87.0869 47.396 87.0854C47.6033 87.0849 47.8109 87.0724 48.0186 87.0488C48.2265 87.0246 48.4339 86.9858 48.6371 86.939C48.839 86.8925 49.0385 86.8369 49.2352 86.7681L49.8171 86.5239C50.0043 86.4334 50.1864 86.3333 50.3623 86.2228C50.539 86.1118 50.7118 85.991 50.875 85.8607C51.0378 85.7311 51.1911 85.5893 51.3389 85.4416C51.4864 85.2945 51.6275 85.141 51.758 84.9777L52.0835 84.5708L52.4091 84.9777C52.539 85.1403 52.6773 85.2951 52.8241 85.4416C52.9716 85.5891 53.1289 85.7308 53.292 85.8607C53.4552 85.991 53.628 86.1118 53.8047 86.2228C53.9807 86.3333 54.1627 86.4334 54.35 86.5239C54.5386 86.6148 54.731 86.6986 54.9278 86.7681C55.1254 86.8373 55.3272 86.8922 55.53 86.939C55.7339 86.9858 55.9403 87.0246 56.1485 87.0488C56.3564 87.0725 56.5676 87.085 56.7751 87.0854C56.9571 87.0869 57.1394 87.0779 57.3203 87.061L57.8615 86.9837L58.3946 86.8535L58.9113 86.6745L59.4077 86.4425L59.8798 86.1618C60.0315 86.0613 60.1778 85.9547 60.3192 85.8403L60.7261 85.4741C60.8559 85.3458 60.9796 85.2116 61.0964 85.0713C61.2126 84.9315 61.323 84.7838 61.426 84.6318C61.5281 84.4811 61.6241 84.3243 61.7108 84.1639C61.7975 84.0035 61.876 83.8397 61.9468 83.6715L62.134 83.1589C62.1879 82.9832 62.2322 82.8039 62.2683 82.6258C62.3048 82.4472 62.3349 82.2662 62.3537 82.0846C62.3723 81.9047 62.3811 81.7244 62.3822 81.5435V43.311C62.3822 43.2509 62.3738 43.1882 62.3619 43.1279C62.3501 43.0692 62.3358 43.0118 62.313 42.957C62.2895 42.9003 62.2599 42.8467 62.2276 42.7983C62.1941 42.7481 62.1546 42.7008 62.1136 42.66L62.1096 42.6559C62.0667 42.6132 62.0206 42.5749 61.9712 42.542L61.8125 42.4565L61.6376 42.4036C61.5805 42.392 61.5199 42.3874 61.4585 42.3874L61.2795 42.4036L61.1045 42.4565C61.0494 42.4796 60.9965 42.5083 60.9458 42.542C60.8965 42.5749 60.8503 42.6133 60.8075 42.6559C60.7655 42.6979 60.7275 42.7475 60.6936 42.7983L60.604 42.957C60.5812 43.0119 60.5669 43.0691 60.5552 43.1279C60.5436 43.1866 60.5349 43.2493 60.5349 43.311V81.5394C60.5355 81.7833 60.5144 82.027 60.4657 82.2677C60.4169 82.5082 60.342 82.7427 60.246 82.9676C60.1983 83.079 60.1456 83.1876 60.0873 83.2931L59.892 83.6064C59.7546 83.803 59.5945 83.9812 59.42 84.1476L59.424 84.1517C59.25 84.3269 59.0596 84.4828 58.8544 84.6196C58.6498 84.7563 58.4318 84.8683 58.2033 84.9614L58.2074 84.9655C57.9789 85.0592 57.7413 85.1268 57.4994 85.173C57.2587 85.2189 57.0157 85.2366 56.771 85.234C56.6516 85.2346 56.5305 85.237 56.4089 85.2259C56.2878 85.2148 56.1663 85.1957 56.0467 85.173C55.927 85.1502 55.806 85.122 55.6887 85.0876C55.5728 85.0538 55.4577 85.014 55.3469 84.9696L55.3428 84.9655C55.231 84.9202 55.1202 84.871 55.0132 84.8149C54.9061 84.7588 54.799 84.6956 54.6958 84.6278C54.5944 84.5615 54.4965 84.4874 54.4029 84.4121C54.308 84.3359 54.2143 84.2549 54.1262 84.168C54.0396 84.0833 53.9547 83.995 53.878 83.9035L53.6582 83.6105C53.5892 83.5098 53.5252 83.4067 53.467 83.3013C53.4097 83.1959 53.3528 83.0819 53.3042 82.9676C53.2565 82.8555 53.2143 82.7403 53.1781 82.6258C53.1414 82.5097 53.1096 82.3912 53.0845 82.2718C53.0593 82.1537 53.0407 82.0287 53.0275 81.9097C53.0149 81.7899 53.0089 81.6693 53.0072 81.5475V59.3796C53.0072 59.3181 52.9983 59.2586 52.9869 59.2005C52.9751 59.1415 52.9574 59.0822 52.934 59.0256C52.9106 58.9704 52.8846 58.9143 52.8526 58.8669C52.8202 58.8183 52.7808 58.7714 52.7386 58.7285L52.5962 58.6105C52.5468 58.5776 52.494 58.5487 52.4375 58.5251C52.3809 58.5016 52.3217 58.4839 52.2626 58.4722C52.2046 58.4607 52.1449 58.4559 52.0835 58.4559C52.0227 58.4559 51.9626 58.4607 51.9045 58.4722C51.8454 58.4839 51.7861 58.5016 51.7295 58.5251L51.5708 58.6105C51.5199 58.6449 51.4722 58.6851 51.4284 58.7285C51.3861 58.7711 51.3472 58.8179 51.3145 58.8669C51.2819 58.9159 51.2565 58.9696 51.2331 59.0256C51.2097 59.0822 51.1919 59.1415 51.1802 59.2005C51.1684 59.2601 51.1599 59.3198 51.1599 59.3796V81.5435L51.1395 81.9097C51.1261 82.0307 51.1076 82.153 51.0826 82.2718C51.0575 82.3912 51.0257 82.5097 50.989 82.6258C50.9525 82.7411 50.908 82.8578 50.8588 82.9717L50.7001 83.2972L50.5088 83.6105C50.4405 83.7106 50.3673 83.8066 50.2891 83.8994C50.21 83.9944 50.1276 84.0871 50.0409 84.172L50.0368 84.168C49.949 84.2545 49.8587 84.3361 49.7642 84.4121C49.67 84.4878 49.5733 84.5612 49.4712 84.6278C49.368 84.6956 49.261 84.7588 49.1538 84.8149C49.0461 84.8714 48.9337 84.9239 48.8202 84.9696C48.7085 85.0144 48.592 85.0493 48.4743 85.0835C48.3573 85.1178 48.2398 85.1503 48.1203 85.173C48.0005 85.1957 47.8797 85.2148 47.7582 85.2259C47.6362 85.237 47.5157 85.2346 47.396 85.234C47.1495 85.2361 46.9055 85.2193 46.6636 85.173C46.4215 85.1258 46.1806 85.056 45.9515 84.9614C45.7224 84.8673 45.5054 84.7487 45.3005 84.6115C45.0945 84.4728 44.9008 84.3117 44.7268 84.1354C44.5566 83.9711 44.4019 83.7891 44.267 83.5942C44.1288 83.3944 44.0121 83.1789 43.917 82.9554C43.8223 82.732 43.749 82.5018 43.7014 82.2637C43.653 82.0244 43.631 81.7819 43.6322 81.5394V55.0135L44.2548 55.3756C44.4889 55.5107 44.7027 55.6737 44.8936 55.8639C45.0844 56.0541 45.2502 56.2652 45.3859 56.4987C45.5205 56.7309 45.6242 56.9785 45.6952 57.2393L45.7766 57.634C45.7948 57.7671 45.8041 57.9015 45.805 58.0368C45.8051 58.0965 45.8102 58.1588 45.8213 58.2158L45.8742 58.3908C45.8975 58.4466 45.9255 58.5024 45.9597 58.5535C45.9927 58.603 46.0307 58.6489 46.0736 58.6919C46.1149 58.7335 46.1649 58.7715 46.216 58.8058C46.266 58.8391 46.3176 58.8676 46.3747 58.8913C46.43 58.9143 46.4866 58.9324 46.5456 58.9442L46.7246 58.9604C46.7843 58.9604 46.8475 58.9561 46.9078 58.9442C46.9668 58.9323 47.0241 58.914 47.0786 58.8913L47.2373 58.8058C47.2872 58.7726 47.3365 58.7352 47.3798 58.6919C47.4227 58.6489 47.4607 58.603 47.4937 58.5535C47.527 58.5036 47.5553 58.4479 47.5791 58.3908C47.6022 58.3348 47.6204 58.2783 47.632 58.2199L47.6483 58.0409C47.6478 57.9059 47.6435 57.7687 47.632 57.634C47.6206 57.5 47.6016 57.3647 47.5791 57.2311C47.5568 57.0987 47.5271 56.9672 47.4937 56.8364C47.461 56.7064 47.4238 56.5763 47.3798 56.4499C47.3359 56.3227 47.2871 56.1933 47.2333 56.0715L47.2292 56.0674C47.1761 55.9457 47.1184 55.8246 47.0542 55.7052C46.99 55.5867 46.921 55.4696 46.8467 55.3553C46.7724 55.2417 46.6936 55.1319 46.6107 55.0257C46.5287 54.9195 46.4378 54.8161 46.3462 54.7165C46.2551 54.6173 46.1612 54.5196 46.0614 54.4276C45.9631 54.3364 45.8597 54.2475 45.7522 54.1631C45.6462 54.0801 45.5355 54.0012 45.4226 53.9271C45.3083 53.8524 45.1902 53.7835 45.0726 53.7196C44.9542 53.6555 44.8328 53.5949 44.7105 53.5405C44.5882 53.486 44.4607 53.4348 44.3321 53.39C44.2036 53.3454 44.0722 53.3058 43.9414 53.272L43.6322 53.1947V43.311C43.6322 43.2509 43.6238 43.1882 43.6119 43.1279C43.6002 43.0693 43.5818 43.013 43.559 42.957C43.5363 42.903 43.51 42.8468 43.4776 42.7983C43.4441 42.7482 43.4046 42.7008 43.3636 42.66L43.3596 42.6559L43.2212 42.542L43.0625 42.4565L42.8876 42.4036C42.8305 42.392 42.7703 42.3874 42.7085 42.3874L42.5295 42.4036L42.3545 42.4565C42.2998 42.4792 42.2473 42.5077 42.1958 42.542C42.1465 42.5749 42.1004 42.6132 42.0575 42.6559L42.0534 42.66C42.0124 42.7009 41.977 42.7481 41.9436 42.7983C41.9107 42.8475 41.88 42.8995 41.8581 42.953L41.854 42.957C41.8312 43.0118 41.8169 43.0692 41.8052 43.1279C41.7932 43.1882 41.7849 43.2509 41.7849 43.311V53.1906L41.4756 53.272C41.1648 53.356 40.8657 53.4707 40.5764 53.6138C40.2869 53.7568 40.0104 53.9294 39.7544 54.1265C39.6265 54.2246 39.5053 54.33 39.3882 54.4398L39.0505 54.7856C38.8372 55.0285 38.6508 55.2909 38.489 55.571L38.3343 55.8354L38.0373 55.7663C37.5039 55.647 37.0305 55.4041 36.6213 55.042C36.4564 54.8933 36.3032 54.726 36.1737 54.5456C36.0449 54.3653 35.9363 54.1722 35.8482 53.9678C35.7599 53.7634 35.6952 53.5508 35.6529 53.333C35.6107 53.116 35.5906 52.8965 35.5959 52.6738V37.4964C35.5949 37.1074 35.6216 36.7207 35.6773 36.3368C35.7332 35.9516 35.8178 35.5705 35.9296 35.1974C36.0407 34.825 36.18 34.4631 36.3446 34.111C36.5093 33.7586 36.7002 33.4184 36.9143 33.0937C37.1279 32.77 37.3643 32.4633 37.6223 32.1742C37.8817 31.8842 38.1626 31.6131 38.4605 31.3644C38.7597 31.1146 39.0757 30.8877 39.4086 30.6849C39.7388 30.4828 40.0814 30.3037 40.438 30.1519L41.1989 29.863C41.9702 29.615 42.7684 29.4939 43.5915 29.5008H47.392L47.4896 29.5618C47.8343 29.7701 48.1937 29.955 48.5638 30.1152C48.9331 30.2745 49.3117 30.4061 49.6991 30.514C50.0871 30.622 50.4804 30.7036 50.8791 30.7581C51.278 30.8131 51.6809 30.8436 52.0835 30.8436C52.4861 30.8436 52.8862 30.813 53.2839 30.7581C53.6824 30.7036 54.0803 30.6219 54.468 30.514C54.855 30.4061 55.2341 30.2744 55.6032 30.1152C55.9731 29.9549 56.3329 29.77 56.6774 29.5618L56.7751 29.5008H60.5756C61.6724 29.4916 62.7254 29.7083 63.729 30.1519C64.0869 30.304 64.4272 30.4821 64.7585 30.6849C65.0913 30.8877 65.4077 31.1144 65.7066 31.3644C66.0042 31.6125 66.2824 31.8809 66.5407 32.1701C66.8002 32.4602 67.0386 32.7699 67.2528 33.0937C67.4669 33.4184 67.6577 33.7586 67.8225 34.111C67.9862 34.4624 68.1263 34.8247 68.2375 35.1974L68.384 35.763C68.4259 35.9527 68.4618 36.144 68.4898 36.3368C68.5456 36.7213 68.5716 37.108 68.5712 37.4964V52.6657L68.5671 52.979C68.5591 53.0814 68.5425 53.1829 68.5223 53.2842C68.4821 53.4895 68.4173 53.6857 68.3311 53.8742C68.2438 54.0642 68.1378 54.2442 68.0096 54.4072C67.8818 54.569 67.7323 54.714 67.5702 54.8426L67.5539 54.8589L67.5498 54.8548C67.2646 55.0593 66.9565 55.2196 66.6221 55.3309C66.4549 55.3866 66.2857 55.4314 66.1135 55.4611L65.5926 55.5099C65.5327 55.5114 65.4731 55.521 65.4136 55.5343L65.4095 55.5303L65.2427 55.5913C65.1899 55.6145 65.1364 55.6443 65.084 55.6808C65.0354 55.7156 64.9911 55.7553 64.9497 55.7988C64.9096 55.8411 64.8726 55.8863 64.8399 55.9372C64.8075 55.9886 64.7762 56.0436 64.7544 56.0999C64.7332 56.1549 64.7203 56.2141 64.7097 56.2749C64.6994 56.334 64.696 56.3967 64.6975 56.458C64.699 56.5175 64.7046 56.578 64.7178 56.637L64.7748 56.8079C64.7984 56.8618 64.8291 56.9126 64.8643 56.9626C64.8982 57.0107 64.9377 57.0581 64.9823 57.1009L65.1206 57.2108C65.173 57.2437 65.2315 57.2705 65.2875 57.2922C65.3429 57.3135 65.3997 57.3306 65.4584 57.341C65.518 57.3513 65.5782 57.3544 65.6374 57.3532C66.1862 57.3378 66.7193 57.2383 67.2365 57.0521C67.7529 56.8659 68.2281 56.6055 68.6607 56.2668L68.6647 56.2627C68.9394 56.0535 69.1858 55.8135 69.4053 55.5465C69.625 55.2794 69.8109 54.9902 69.9628 54.6798C70.1144 54.3699 70.2282 54.0475 70.3046 53.7114C70.381 53.3744 70.4213 53.0319 70.4185 52.686V37.4964C70.4185 37.3357 70.4141 37.1753 70.4063 37.0163ZM58.3335 21.2692C58.3131 21.0647 58.2839 20.8602 58.244 20.6589L58.0935 20.0607C58.0341 19.8642 57.9646 19.6682 57.8859 19.4788C57.8071 19.2893 57.7176 19.1052 57.6215 18.9255C57.525 18.7448 57.4179 18.5665 57.3041 18.3965L56.9379 17.9001C56.8075 17.7415 56.6681 17.5901 56.5228 17.4443C56.377 17.2991 56.2256 17.1596 56.0671 17.0293C55.9081 16.899 55.7418 16.7776 55.5707 16.6631C55.4006 16.5493 55.2265 16.4422 55.0458 16.3457C54.866 16.2496 54.6779 16.16 54.4883 16.0812L53.9064 15.8737C53.7098 15.8138 53.5094 15.763 53.3083 15.7231C53.1069 15.6833 52.9025 15.6541 52.698 15.6336C52.4931 15.6137 52.2886 15.6052 52.0835 15.6051C51.8788 15.6051 51.6734 15.6137 51.4691 15.6336C51.2646 15.6541 51.0602 15.6833 50.8588 15.7231L50.2606 15.8737C50.064 15.9331 49.8681 16.0026 49.6787 16.0812C49.4892 16.16 49.3052 16.2496 49.1254 16.3457C48.9447 16.4422 48.7664 16.5493 48.5964 16.6631C48.4253 16.7776 48.259 16.899 48.1 17.0293C47.9416 17.1591 47.7903 17.2988 47.6442 17.4443L47.2292 17.9001C47.0988 18.0591 46.9776 18.2253 46.863 18.3965C46.7491 18.5665 46.6421 18.7407 46.5456 18.9214C46.449 19.102 46.3591 19.2901 46.2811 19.4788L46.0736 20.0607L45.923 20.6589C45.8827 20.8599 45.8535 21.065 45.8335 21.2692C45.8136 21.474 45.805 21.6785 45.805 21.8836C45.8051 22.0884 45.8136 22.293 45.8335 22.498L45.923 23.1084C45.9629 23.3095 46.0141 23.5094 46.0736 23.7065C46.1334 23.9029 46.2028 24.0957 46.2811 24.2843C46.3591 24.473 46.449 24.6612 46.5456 24.8418C46.6424 25.0232 46.7487 25.2001 46.863 25.3708C46.9776 25.542 47.0988 25.7081 47.2292 25.8672L47.6442 26.3229C47.7897 26.4684 47.9412 26.6078 48.1 26.738C48.2589 26.8681 48.4254 26.9897 48.5964 27.1042C48.7668 27.2182 48.9443 27.325 49.1254 27.4215C49.3051 27.5176 49.4892 27.6073 49.6787 27.686C49.8681 27.7647 50.0634 27.8335 50.2606 27.8936L50.8588 28.04L51.4691 28.1336C51.6734 28.1535 51.8789 28.1621 52.0835 28.1621C52.2886 28.1621 52.4931 28.1535 52.698 28.1336C52.9022 28.1137 53.1072 28.0804 53.3083 28.04L53.9064 27.8936L54.4883 27.686C54.6784 27.607 54.8655 27.518 55.0458 27.4215C55.2265 27.3251 55.4006 27.218 55.5707 27.1042C55.7416 26.9897 55.9082 26.8681 56.0671 26.738C56.2261 26.6073 56.3776 26.4681 56.5228 26.3229C56.6681 26.1771 56.8075 26.0257 56.9379 25.8672L57.3041 25.3708C57.4183 25.2001 57.5247 25.0232 57.6215 24.8418C57.7179 24.6614 57.8069 24.4746 57.8859 24.2843C57.9643 24.0955 58.0343 23.9026 58.0935 23.7065C58.1533 23.51 58.2042 23.3095 58.244 23.1084C58.2839 22.9068 58.3131 22.7027 58.3335 22.498C58.3535 22.293 58.362 22.0884 58.362 21.8836C58.362 21.6785 58.3534 21.474 58.3335 21.2692ZM71.2486 52.6779C71.2519 53.0877 71.2091 53.4945 71.1184 53.8945C71.0277 54.2943 70.8914 54.6781 70.7115 55.0461C70.5314 55.414 70.3127 55.7587 70.0523 56.0755C69.7921 56.3919 69.4957 56.6773 69.1693 56.9259C68.6685 57.3173 68.1191 57.6218 67.5214 57.8374C67.0712 57.9996 66.609 58.1041 66.1379 58.1548L65.6618 58.1873C65.5456 58.1901 65.4286 58.1825 65.316 58.1629C65.2036 58.1433 65.0937 58.1108 64.9864 58.0693C64.8791 58.0279 64.7767 57.9787 64.6812 57.9188L64.6771 57.9147C64.5816 57.8539 64.4925 57.783 64.4086 57.7031C64.3272 57.625 64.2471 57.5371 64.1807 57.4427C64.1149 57.3491 64.0604 57.2478 64.0139 57.1416C63.9669 57.0361 63.9293 56.9287 63.904 56.8161C63.8792 56.705 63.866 56.59 63.8633 56.4743C63.8607 56.3607 63.868 56.2462 63.8877 56.1325C63.9071 56.0211 63.9357 55.9109 63.9772 55.8029C64.0187 55.6955 64.071 55.5904 64.1319 55.4937C64.1928 55.398 64.2635 55.3051 64.3435 55.221C64.4227 55.1378 64.5104 55.0636 64.6039 54.9972C64.6955 54.9333 64.7973 54.8736 64.905 54.8263L65.2305 54.7205L65.5723 54.6758C65.8395 54.6708 66.1035 54.6261 66.3576 54.5415C66.6087 54.458 66.8413 54.3374 67.0575 54.1834C67.1667 54.0961 67.2678 54.0004 67.3545 53.8905L67.5743 53.5283L67.7045 53.1255C67.7319 52.9873 67.7427 52.8438 67.737 52.7023V37.4964C67.7375 37.1475 67.7138 36.7993 67.6638 36.4548C67.6138 36.1106 67.5399 35.7709 67.44 35.4375C67.3408 35.1048 67.2167 34.7808 67.0697 34.465C66.922 34.149 66.7488 33.8444 66.557 33.5535C66.4612 33.4087 66.3614 33.2674 66.2559 33.1304L65.9222 32.7275C65.6907 32.4682 65.4412 32.2263 65.1735 32.0033C64.9071 31.7804 64.6238 31.5779 64.3272 31.397C64.0303 31.2152 63.7195 31.0529 63.3994 30.9168H63.3913C62.4952 30.5207 61.5596 30.3263 60.5796 30.335H56.9989C56.655 30.5368 56.3024 30.7217 55.9369 30.8802C55.533 31.0544 55.115 31.2017 54.6918 31.3197C54.2671 31.4379 53.8344 31.5245 53.3978 31.5841C52.962 31.6442 52.5238 31.6737 52.0835 31.6737C51.6431 31.6737 51.2021 31.6444 50.7652 31.5841C50.3293 31.5245 49.8991 31.4376 49.4753 31.3197C49.0514 31.2016 48.638 31.0544 48.2342 30.8802C47.868 30.7216 47.5118 30.5367 47.1682 30.335H43.5874C42.6074 30.3263 41.6719 30.5208 40.7758 30.9168H40.7676C40.4475 31.0529 40.1409 31.2152 39.8439 31.397C39.5473 31.5779 39.2607 31.7802 38.9935 32.0033C38.7263 32.2264 38.477 32.468 38.2448 32.7275C38.0129 32.9874 37.8016 33.2632 37.6101 33.5535C37.4183 33.8444 37.2451 34.149 37.0974 34.465C36.9501 34.7803 36.8264 35.1043 36.7271 35.4375C36.6272 35.7709 36.5533 36.1106 36.5033 36.4548C36.4532 36.7998 36.4291 37.1481 36.43 37.4964V52.6942C36.4262 52.8552 36.4397 53.0148 36.4707 53.1743C36.502 53.335 36.5491 53.4899 36.6132 53.6382C36.6775 53.7874 36.7581 53.9284 36.8532 54.0614L37.1706 54.4194C37.4019 54.6241 37.66 54.7753 37.9437 54.8752C38.0899 54.6524 38.2472 54.4377 38.4239 54.2363C38.6725 53.9526 38.946 53.6932 39.2458 53.4632C39.5453 53.2326 39.8675 53.0365 40.2061 52.8691C40.4477 52.7495 40.6959 52.6484 40.9507 52.564V43.311C40.9507 43.1947 40.9651 43.0772 40.9873 42.9652C41.0099 42.8521 41.0409 42.7414 41.085 42.6356C41.1288 42.5287 41.1847 42.4285 41.2478 42.3345C41.3115 42.2389 41.3845 42.1482 41.4675 42.0659C41.548 41.9856 41.6365 41.914 41.732 41.8503C41.8266 41.7872 41.9292 41.7322 42.0371 41.6875L42.3667 41.5858C42.4809 41.5626 42.5955 41.5532 42.7085 41.5532C42.8209 41.5532 42.9334 41.5632 43.0463 41.5858C43.1602 41.6083 43.2747 41.6443 43.3799 41.6875L43.6851 41.8503C43.7783 41.9126 43.8649 41.9852 43.9455 42.0659C44.0285 42.1482 44.1056 42.2389 44.1693 42.3345L44.3321 42.6396L44.4297 42.9652C44.452 43.0772 44.4663 43.1946 44.4663 43.311V52.5599C44.5125 52.5747 44.5589 52.5888 44.6047 52.6047L45.0482 52.7796C45.1925 52.8437 45.3334 52.9124 45.4714 52.9871C45.6107 53.063 45.7471 53.1455 45.8783 53.2313C46.0101 53.3179 46.1405 53.4105 46.2648 53.508C46.3888 53.6052 46.5104 53.7091 46.627 53.8172C46.7424 53.9238 46.8541 54.0349 46.9606 54.1509C47.0666 54.2662 47.169 54.3878 47.2658 54.513C47.3634 54.638 47.4561 54.7675 47.5425 54.8996C47.6279 55.0309 47.711 55.167 47.7867 55.3065C47.8605 55.4437 47.9308 55.5886 47.9942 55.7337L48.1651 56.1732C48.2172 56.3228 48.2647 56.4756 48.3034 56.6289L48.4011 57.0928C48.4273 57.2483 48.4486 57.4065 48.4621 57.5648C48.4755 57.721 48.4819 57.8787 48.4825 58.0368C48.4824 58.1522 48.4721 58.2708 48.4499 58.3826L48.3482 58.7122C48.3046 58.8168 48.2495 58.9171 48.1854 59.0133C48.1213 59.1096 48.0508 59.2008 47.9698 59.2819C47.8885 59.3632 47.7977 59.4373 47.7012 59.5016C47.6063 59.5648 47.5055 59.6165 47.4001 59.6603C47.2937 59.7046 47.1827 59.7396 47.0705 59.762C46.9584 59.7843 46.8404 59.7946 46.7246 59.7946C46.6088 59.7945 46.4945 59.7841 46.3828 59.762C46.2699 59.7395 46.1596 59.7046 46.0533 59.6603C45.9486 59.6169 45.8476 59.5651 45.7522 59.5016L45.7481 59.4976C45.6548 59.4348 45.565 59.3639 45.4836 59.2819C45.4024 59.2007 45.3322 59.1097 45.2679 59.0133L45.1052 58.7122L45.0035 58.3826L44.9709 58.0409C44.9694 57.8435 44.9411 57.6517 44.8895 57.4631C44.838 57.2738 44.765 57.0892 44.6657 56.9178C44.6077 56.8179 44.5386 56.7263 44.4663 56.637V81.5435L44.5192 82.0968C44.5556 82.2781 44.6094 82.4585 44.682 82.6299C44.755 82.8016 44.845 82.9653 44.9506 83.1182L45.3127 83.5454L45.3208 83.5535C45.4561 83.6906 45.605 83.8125 45.7644 83.9198C45.9238 84.0265 46.0925 84.1158 46.2689 84.1883C46.4463 84.2616 46.6331 84.3183 46.8223 84.3551C47.0106 84.3911 47.2001 84.4058 47.392 84.404C47.4884 84.4044 47.5908 84.4044 47.6849 84.3958C47.7788 84.3872 47.8722 84.3728 47.9657 84.3551C48.0586 84.3375 48.1512 84.3127 48.2424 84.286C48.3315 84.2601 48.4219 84.2322 48.5109 84.1964C48.5984 84.1613 48.6833 84.1184 48.7673 84.0744C48.8522 84.0299 48.937 83.9835 49.0155 83.932C49.0939 83.8809 49.1694 83.8245 49.2434 83.7651C49.3178 83.7054 49.3883 83.6396 49.455 83.5739C49.5228 83.5074 49.5863 83.4383 49.6462 83.3664C49.707 83.2943 49.7678 83.2167 49.8212 83.1385L49.9676 82.8984L50.0938 82.6421L50.1914 82.3735C50.2198 82.2839 50.2453 82.1933 50.2647 82.1009L50.3094 81.8201C50.3197 81.7274 50.3246 81.6353 50.3257 81.5435V59.3796C50.3257 59.2638 50.3402 59.1496 50.3623 59.0378C50.3849 58.9245 50.416 58.8105 50.46 58.7041C50.5036 58.5997 50.5587 58.4991 50.6228 58.403C50.687 58.3067 50.7614 58.2196 50.8425 58.1385C50.923 58.0588 51.012 57.9828 51.107 57.9188L51.4121 57.756C51.5183 57.7121 51.6288 57.6808 51.7417 57.6584C51.8553 57.6358 51.9696 57.6217 52.0835 57.6217C52.1979 57.6218 52.3117 57.6358 52.4253 57.6584C52.5383 57.6808 52.6487 57.7121 52.7549 57.756C52.8597 57.7997 52.9637 57.8545 53.0601 57.9188L53.3246 58.1344C53.4045 58.215 53.48 58.3066 53.5443 58.403L53.7071 58.7041C53.7508 58.81 53.7823 58.9251 53.8047 59.0378C53.8272 59.1512 53.8373 59.2654 53.8373 59.3796V81.5353C53.8386 81.6299 53.8476 81.7246 53.8576 81.8201L53.9024 82.0968C53.9218 82.1893 53.9473 82.2839 53.9756 82.3735C54.0045 82.4648 54.0363 82.5556 54.0733 82.6421C54.1098 82.7281 54.1529 82.8129 54.1994 82.8984C54.2456 82.9821 54.293 83.0614 54.3459 83.1385L54.5168 83.3664C54.5782 83.4396 54.6414 83.509 54.708 83.5739L54.7121 83.578C54.7785 83.6433 54.8496 83.7056 54.9237 83.7651C54.9977 83.8246 55.0771 83.8808 55.1556 83.932C55.2338 83.9833 55.3152 84.0301 55.3998 84.0744C55.4837 84.1184 55.5688 84.1611 55.6561 84.1964L55.9247 84.286C56.0159 84.3128 56.1084 84.3375 56.2014 84.3551C56.294 84.3728 56.388 84.3872 56.4821 84.3958C56.5749 84.4043 56.671 84.4044 56.767 84.404H56.7751C56.9658 84.4062 57.1572 84.3909 57.3448 84.3551C57.532 84.3193 57.7141 84.2645 57.89 84.1924C58.0654 84.1208 58.2325 84.0333 58.3905 83.9279C58.5497 83.8218 58.6997 83.701 58.834 83.5658L58.8422 83.5535C58.9778 83.4249 59.1004 83.2847 59.2084 83.1304C59.3161 82.9758 59.407 82.8112 59.481 82.638C59.555 82.4646 59.6105 82.2848 59.6478 82.1009C59.685 81.917 59.7011 81.7315 59.7007 81.5435V43.311C59.7007 43.1963 59.7147 43.0789 59.7373 42.9652C59.7599 42.8521 59.7909 42.7413 59.835 42.6356C59.8787 42.5303 59.9358 42.4277 60.0018 42.3304C60.0647 42.2368 60.1373 42.1502 60.2175 42.07C60.2985 41.989 60.3859 41.9144 60.482 41.8503C60.5772 41.7868 60.681 41.7317 60.7871 41.6875L61.1167 41.5858C61.2309 41.5627 61.3452 41.5532 61.4585 41.5532C61.5703 41.5532 61.6834 41.5632 61.7963 41.5858C61.9095 41.6083 62.0249 41.6447 62.1299 41.6875L62.4351 41.8503C62.5297 41.9135 62.6155 41.9864 62.6955 42.0659C62.7785 42.1482 62.8556 42.2389 62.9193 42.3345C62.9833 42.4299 63.0346 42.5313 63.078 42.6356C63.1221 42.7414 63.1572 42.8521 63.1797 42.9652C63.202 43.0772 63.2163 43.1947 63.2163 43.311V81.5435L63.1797 82.1701C63.1581 82.3781 63.1282 82.5869 63.0861 82.7926L62.9315 83.403C62.8696 83.6027 62.7966 83.8 62.7159 83.993C62.6343 84.1865 62.5431 84.378 62.4432 84.5627C62.3435 84.7471 62.2352 84.9263 62.1177 85.0998C62.0006 85.2726 61.8743 85.442 61.7393 85.6043C61.605 85.7657 61.4613 85.9206 61.312 86.0682L60.8441 86.4873C60.6818 86.6186 60.5141 86.7421 60.3396 86.8576L59.7943 87.179L59.2246 87.4435C59.0304 87.5223 58.831 87.5913 58.6306 87.651L58.0202 87.8016C57.8143 87.8416 57.6068 87.8722 57.3977 87.8911C57.1896 87.9105 56.9801 87.9171 56.771 87.9155L56.767 87.9115L56.0508 87.8748C55.8128 87.8471 55.5768 87.8065 55.3428 87.7528C55.1096 87.699 54.8802 87.6322 54.6551 87.5534C54.429 87.4735 54.2036 87.3807 53.9878 87.2767C53.7724 87.1725 53.5642 87.0543 53.3612 86.9268L52.7753 86.5117C52.5876 86.3624 52.4082 86.2016 52.2382 86.0316C52.183 85.9766 52.1366 85.9135 52.0835 85.8566L51.9289 86.0316L51.3918 86.5117C51.2044 86.6614 51.0088 86.7992 50.8059 86.9268C50.6029 87.0543 50.3947 87.1725 50.1792 87.2767C49.9634 87.3807 49.7417 87.4737 49.516 87.5534C49.2912 87.6321 49.0582 87.699 48.8243 87.7528L48.1162 87.8748C47.8784 87.9019 47.6364 87.9109 47.396 87.9115L46.7694 87.8911L46.1468 87.8016C45.9406 87.7621 45.7368 87.7141 45.5365 87.6551C45.3361 87.5953 45.1366 87.5223 44.9424 87.4435C44.7478 87.3642 44.5551 87.2775 44.3687 87.179C44.1849 87.0821 44.0023 86.9735 43.8275 86.8576C43.6532 86.7427 43.4851 86.6189 43.323 86.4873C43.1608 86.3555 43.0042 86.2156 42.855 86.0682C42.7072 85.9215 42.562 85.7664 42.4278 85.6043C42.2928 85.442 42.1665 85.2727 42.0494 85.0998C41.9319 84.9263 41.8236 84.7471 41.7238 84.5627C41.624 84.378 41.5327 84.1865 41.4512 83.993L41.2356 83.403C41.1742 83.2029 41.1231 82.998 41.0809 82.7926C41.0394 82.5871 41.009 82.3791 40.9873 82.1701C40.9657 81.9614 40.9518 81.7525 40.9507 81.5435V56.633C40.878 56.7227 40.8103 56.8168 40.7513 56.9178C40.6521 57.0891 40.5798 57.272 40.5275 57.4631C40.4762 57.6526 40.4476 57.8444 40.4462 58.0409V86.1618C40.4461 86.2759 40.4361 86.3901 40.4136 86.5036C40.3911 86.6169 40.3559 86.7268 40.3119 86.8332C40.2682 86.9379 40.2134 87.0419 40.1491 87.1383C40.0851 87.2334 40.0133 87.3223 39.9335 87.4028C39.8529 87.4827 39.7641 87.5585 39.669 87.6226C39.5732 87.6863 39.4679 87.7378 39.3638 87.7812C39.2577 87.8252 39.1471 87.8605 39.0342 87.883C38.9211 87.9055 38.8063 87.9154 38.6924 87.9155C38.5783 87.9155 38.4603 87.9056 38.3466 87.883C38.2338 87.8605 38.1229 87.8292 38.017 87.7853C37.9129 87.7419 37.8116 87.6863 37.7159 87.6226C37.6208 87.5585 37.5319 87.4827 37.4514 87.4028C37.371 87.3223 37.2954 87.2337 37.2316 87.1383C37.1674 87.0419 37.1125 86.9379 37.0689 86.8332C37.0248 86.7268 36.9897 86.6168 36.9672 86.5036C36.9447 86.3902 36.9346 86.2759 36.9346 86.1618V58.1589C36.8878 58.1439 36.8385 58.1343 36.7922 58.1182C36.643 58.0662 36.4966 58.0065 36.3527 57.9432C36.2092 57.8792 36.0643 57.8112 35.9255 57.7357C35.7879 57.6602 35.6511 57.5786 35.5186 57.4915C35.3879 57.4052 35.2578 57.3135 35.132 57.2148C35.0074 57.1175 34.8898 57.0125 34.774 56.9056C34.6589 56.7988 34.5434 56.6886 34.4362 56.5719C34.3293 56.4555 34.2283 56.3349 34.1311 56.2098C34.0347 56.0856 33.9448 55.9551 33.8584 55.8232C33.7714 55.6901 33.6891 55.5538 33.6143 55.4163C33.5387 55.2769 33.4703 55.1333 33.4068 54.9891L33.2318 54.5456C33.1808 54.3969 33.1366 54.2465 33.0975 54.0939C33.0583 53.9399 33.0225 53.7849 32.9958 53.63C32.9694 53.4736 32.9527 53.3143 32.9388 53.158C32.9254 53.0004 32.9191 52.8433 32.9185 52.686V37.4964C32.918 37.3218 32.9227 37.1444 32.9307 36.9715C32.9393 36.7986 32.95 36.6248 32.9673 36.4507L33.0284 35.9298C33.0541 35.7585 33.0847 35.5871 33.1179 35.4172C33.1519 35.2463 33.194 35.0731 33.2359 34.9045C33.2781 34.7346 33.3233 34.5632 33.3742 34.3958C33.4247 34.2293 33.4782 34.0637 33.537 33.8994C33.5957 33.7336 33.6584 33.5709 33.7242 33.4111L33.9357 32.931C34.0099 32.7742 34.0893 32.6173 34.1717 32.4631L34.4322 32.0073L34.7129 31.5638C34.8095 31.4195 34.9098 31.277 35.014 31.1366C35.1182 30.9962 35.2248 30.8565 35.3355 30.7215C35.4458 30.587 35.5605 30.456 35.6773 30.3268C35.7941 30.1988 35.9159 30.0678 36.0394 29.9443C36.1628 29.821 36.2881 29.6995 36.4178 29.5822C36.5476 29.4643 36.6819 29.3509 36.8166 29.2404C36.951 29.1302 37.0878 29.0227 37.2276 28.9189C37.367 28.816 37.5133 28.7147 37.6589 28.6178L38.1024 28.3371C38.2515 28.2478 38.4042 28.1628 38.5581 28.0807C38.7114 27.999 38.8672 27.9195 39.0261 27.8447C39.1837 27.7705 39.3439 27.6999 39.5062 27.6331C39.6679 27.5661 39.8304 27.5005 39.9945 27.4419C40.1591 27.3831 40.3249 27.3296 40.4909 27.2791C40.6567 27.2294 40.8276 27.1831 40.9955 27.1408C41.1632 27.0992 41.3364 27.0604 41.5082 27.0269L42.0249 26.9373C42.1968 26.9121 42.3711 26.8891 42.5458 26.8722C42.718 26.8557 42.8922 26.8438 43.0666 26.8356L43.5915 26.8234H43.6403C43.6211 26.7905 43.5982 26.7589 43.5793 26.7257C43.4325 26.4684 43.2953 26.2059 43.1724 25.9364C43.0494 25.6665 42.9409 25.39 42.8428 25.1104C42.7448 24.8305 42.6586 24.5476 42.5865 24.2599C42.5145 23.9726 42.4535 23.6821 42.4074 23.3892C42.3621 23.097 42.3328 22.8016 42.3138 22.5062L42.2935 21.6151L42.3586 20.728C42.3933 20.4334 42.4439 20.1393 42.5051 19.8491C42.5662 19.5602 42.6372 19.2735 42.7248 18.9906L43.0259 18.1523C43.1386 17.8782 43.2633 17.6092 43.4003 17.3467C43.5373 17.084 43.6872 16.8273 43.8479 16.5776C44.0082 16.3285 44.1791 16.0867 44.3605 15.8534C44.5424 15.6209 44.7359 15.3939 44.9383 15.1779C45.1409 14.9624 45.356 14.7563 45.5772 14.5594C45.7992 14.3618 46.0306 14.1739 46.2689 13.9979C46.5077 13.8215 46.753 13.6549 47.0054 13.5015C47.2593 13.3474 47.5209 13.2085 47.7867 13.0783C48.0533 12.9482 48.3266 12.8296 48.6045 12.7243C48.8813 12.6187 49.1617 12.5231 49.4468 12.4435C49.7323 12.3639 50.0219 12.2978 50.3135 12.2441C50.6058 12.1905 50.9013 12.1532 51.1965 12.1261C51.4916 12.0991 51.7874 12.0854 52.0835 12.0854C52.3801 12.0855 52.6756 12.0991 52.9706 12.1261C53.2658 12.1532 53.5617 12.1904 53.8536 12.2441C54.1455 12.2978 54.435 12.364 54.7202 12.4435C55.0053 12.5231 55.2858 12.6187 55.5625 12.7243C55.8404 12.8296 56.1137 12.9482 56.3804 13.0783C56.6463 13.2086 56.908 13.3475 57.1617 13.5015C57.4149 13.6552 57.6594 13.8219 57.8981 13.9979C58.1367 14.1741 58.3681 14.362 58.5899 14.5594C58.8106 14.7559 59.0222 14.962 59.2246 15.1779C59.4283 15.3945 59.6203 15.6205 59.8024 15.8534C59.9842 16.0871 60.159 16.3288 60.3192 16.5776C60.4797 16.827 60.6296 17.0836 60.7668 17.3467C60.9037 17.6091 61.0288 17.8779 61.1411 18.1523C61.2539 18.4266 61.3549 18.7068 61.4423 18.9906C61.5291 19.2728 61.6007 19.5595 61.662 19.8491C61.7233 20.1398 61.7738 20.4339 61.8085 20.728L61.8695 21.6151L61.8532 22.5021C61.8342 22.7983 61.8051 23.0963 61.7596 23.3892C61.7136 23.6819 61.6525 23.9728 61.5806 24.2599C61.5085 24.5476 61.4222 24.8305 61.3243 25.1104C61.2261 25.39 61.1177 25.6665 60.9947 25.9364L60.5878 26.7257C60.5689 26.7586 60.5459 26.7907 60.5267 26.8234H60.5756C60.7489 26.8234 60.9254 26.8269 61.1005 26.8356C61.2748 26.8438 61.4492 26.8557 61.6213 26.8722C61.7959 26.8891 61.9703 26.9121 62.1421 26.9373C62.3147 26.9627 62.4878 26.9929 62.6589 27.0269C62.8299 27.0603 62.9996 27.0991 63.1675 27.1408C63.3355 27.1831 63.5065 27.2293 63.6721 27.2791C63.8386 27.3296 64.0082 27.3832 64.1726 27.4419C64.3367 27.5005 64.4994 27.566 64.6608 27.6331L65.141 27.8447L65.6089 28.0807L66.0647 28.3371C66.2151 28.4269 66.363 28.5207 66.5082 28.6178L66.9354 28.9189C67.0752 29.0227 67.216 29.1302 67.3505 29.2404C67.4854 29.3511 67.6192 29.4682 67.7492 29.5863C67.8762 29.7016 68.0011 29.8215 68.1236 29.9443C68.2479 30.0681 68.3731 30.1943 68.4898 30.3228C68.6079 30.4527 68.7209 30.5866 68.8316 30.7215L69.153 31.1366L69.4541 31.5638C69.5513 31.709 69.645 31.8568 69.7349 32.0073L69.9953 32.4631C70.0767 32.6162 70.1526 32.7732 70.2272 32.931C70.3017 33.089 70.3763 33.2492 70.4429 33.4111C70.51 33.5728 70.5712 33.7347 70.6301 33.8994C70.6888 34.0638 70.7423 34.2293 70.7928 34.3958C70.8427 34.5614 70.8889 34.7324 70.9312 34.9004C70.9729 35.0684 71.0116 35.242 71.0451 35.4131C71.0791 35.5841 71.1093 35.7574 71.1346 35.9298C71.1599 36.1016 71.1829 36.2761 71.1997 36.4507C71.2163 36.6228 71.2282 36.7972 71.2364 36.9715C71.245 37.1465 71.2486 37.3231 71.2486 37.4964V52.6779ZM59.1636 22.5794C59.1405 22.8106 59.1071 23.0431 59.0619 23.2712C59.0167 23.4991 58.9586 23.7245 58.891 23.9466C58.8237 24.1695 58.7445 24.3903 58.655 24.6058C58.566 24.82 58.4678 25.0311 58.3579 25.2365C58.2481 25.4423 58.1255 25.641 57.9958 25.8346C57.8666 26.0276 57.7284 26.216 57.5808 26.3962C57.4332 26.5756 57.2765 26.7487 57.1128 26.9129L56.5961 27.3809C56.4157 27.5286 56.2277 27.6666 56.0345 27.7959C55.8409 27.9255 55.6422 28.0483 55.4364 28.158L55.4323 28.154L54.8057 28.4551C54.5906 28.5442 54.3725 28.6235 54.1506 28.6911L53.4711 28.8579C53.2425 28.9037 53.011 28.937 52.7793 28.9596C52.5481 28.9821 52.3166 28.9962 52.0835 28.9963C51.851 28.9963 51.6186 28.9821 51.3877 28.9596L50.696 28.8579C50.4673 28.8127 50.242 28.7579 50.0205 28.6911C49.7989 28.6236 49.5763 28.5443 49.3614 28.4551C49.147 28.366 48.9362 28.2639 48.7307 28.154C48.5253 28.0444 48.3258 27.9253 48.1325 27.7959C47.9394 27.6666 47.7513 27.5286 47.571 27.3809C47.3908 27.2331 47.2188 27.0774 47.0542 26.9129C46.8894 26.7481 46.7335 26.5752 46.5863 26.3962C46.4387 26.216 46.3005 26.0275 46.1713 25.8346C46.0416 25.641 45.9189 25.4422 45.8091 25.2365C45.6996 25.0318 45.6009 24.8209 45.5121 24.6058C45.4225 24.3903 45.3437 24.1688 45.2761 23.9466C45.2091 23.7247 45.1504 23.4995 45.1052 23.2712C45.0598 23.044 45.0259 22.8097 45.0035 22.5794C44.9809 22.3481 44.9709 22.1163 44.9709 21.8836C44.9709 21.6507 44.981 21.419 45.0035 21.1878C45.026 20.9564 45.0595 20.7244 45.1052 20.4961C45.1504 20.2679 45.2091 20.0424 45.2761 19.8206C45.3436 19.599 45.4228 19.3764 45.5121 19.1615L45.8091 18.5308L46.1713 17.9326C46.3005 17.7396 46.4386 17.5513 46.5863 17.3711L47.0542 16.8543C47.2182 16.691 47.3904 16.5345 47.571 16.3864C47.7513 16.2386 47.9394 16.1007 48.1325 15.9714C48.3262 15.8417 48.5248 15.719 48.7307 15.6092L49.3614 15.3122C49.5761 15.223 49.7945 15.1433 50.0165 15.0762C50.239 15.0084 50.4667 14.9547 50.696 14.9093C50.9235 14.8643 51.1531 14.8267 51.3837 14.8035C51.6144 14.7811 51.8511 14.771 52.0835 14.771C52.3165 14.771 52.5482 14.7811 52.7793 14.8035C53.0105 14.8267 53.243 14.8642 53.4711 14.9093C53.6996 14.9546 53.9279 15.0084 54.1506 15.0762C54.3737 15.1435 54.5901 15.2229 54.8057 15.3122L55.4364 15.6092L56.0345 15.9714C56.2277 16.1007 56.4157 16.2386 56.5961 16.3864L57.1128 16.8543L57.5808 17.3711L57.9958 17.9326C58.1255 18.1263 58.2481 18.3249 58.3579 18.5308L58.655 19.1615C58.7442 19.3762 58.8239 19.5946 58.891 19.8166L59.0619 20.4961C59.1069 20.7235 59.1405 20.9533 59.1636 21.1838C59.1861 21.4149 59.1962 21.6507 59.1962 21.8836C59.1962 22.1163 59.1861 22.3481 59.1636 22.5794Z" fill="white"/>
</svg>
