<svg width="77" height="77" viewBox="0 0 77 77" fill="none" xmlns="http://www.w3.org/2000/svg">
<path d="M54.3856 41.7877C51.9167 41.7877 49.9066 39.768 49.9066 37.2867C49.9066 36.0816 50.3727 34.9513 51.2202 34.103L51.4082 33.9146L53.2182 35.7336L53.0292 35.9235C52.6673 36.2877 52.4661 36.7718 52.4661 37.2882C52.4661 38.3514 53.3273 39.2168 54.3856 39.2168C54.8995 39.2168 55.3797 39.0161 55.7416 38.6524L59.5831 34.7918C59.945 34.4281 60.1461 33.9425 60.1461 33.4275C60.1461 32.3643 59.285 31.4989 58.2266 31.4989C57.8472 31.4989 57.4814 31.6095 57.1702 31.8186L55.7523 29.6755C56.4858 29.186 57.3416 28.9266 58.2266 28.9266C60.6955 28.9266 62.7056 30.9463 62.7056 33.4275C62.7056 34.6302 62.2395 35.7605 61.393 36.6098L57.5535 40.469C56.7094 41.3197 55.5838 41.7877 54.3856 41.7877Z" fill="#113C7B"/>
<path d="M34.2236 24.6749L30.7416 21.174C29.8951 20.3262 29.4295 19.1959 29.4295 17.9917C29.4295 15.5105 31.4391 13.4908 33.908 13.4908C35.1072 13.4908 36.2323 13.9588 37.0759 14.811L41.2115 18.9668L39.4011 20.7863L35.2645 16.629C34.9026 16.2648 34.4204 16.0631 33.907 16.0631C32.8487 16.0631 31.9875 16.9286 31.9875 17.9917C31.9875 18.5082 32.1872 18.9913 32.5491 19.355L36.0326 22.8569L34.2236 24.6749Z" fill="#113C7B"/>
<path d="M61.1121 75.6342L44.1551 53.3635H42.7869C38.343 53.3635 34.1659 51.6248 31.0239 48.4675L17.9439 35.324C17.0974 34.4762 16.6317 33.3454 16.6317 32.1418C16.6317 29.6605 18.6413 27.6403 21.1103 27.6403C22.022 27.6403 22.8569 27.8949 23.5928 28.3937L22.1579 30.5245C21.8491 30.3145 21.5072 30.2127 21.1103 30.2127C20.0524 30.2127 19.1912 31.0781 19.1912 32.1418C19.1912 32.6582 19.3909 33.1408 19.7528 33.505L32.8338 46.65C35.4917 49.3212 39.0268 50.7927 42.7869 50.7927H45.4195L63.1446 74.0732L61.1121 75.6342Z" fill="#113C7B"/>
<path d="M0.882975 58.3156L22.5552 38.0754L24.2974 39.9599L2.62519 60.1997L0.882975 58.3156Z" fill="#113C7B"/>
<path d="M17.0704 75.6012L14.9527 74.1567L29.8558 52.0774H31.183C33.0597 52.0774 35.6445 51.2775 37.1963 50.2153L38.6365 52.3436C36.6907 53.6731 33.5745 54.6418 31.2137 54.6497L17.0704 75.6012Z" fill="#113C7B"/>
<path d="M74.1523 61.4711L58.3774 46.8346C57.0623 45.6226 56.3064 43.8941 56.3064 42.0967V38.6173H58.8659V42.0967C58.8659 43.176 59.3199 44.2128 60.1104 44.9417L75.8892 59.5821L74.1523 61.4711Z" fill="#113C7B"/>
<path d="M63.731 19.2618L70.7871 15.7247L71.9287 18.0253L64.8732 21.5625L63.731 19.2618Z" fill="#113C7B"/>
<path d="M53.3422 8.58193L57.0945 2.86458L59.2322 4.28168L55.4799 9.99903L53.3422 8.58193Z" fill="#113C7B"/>
<path d="M4.84994 18.0213L5.99161 15.7206L13.0472 19.2577L11.9055 21.5584L4.84994 18.0213Z" fill="#113C7B"/>
<path d="M17.5432 4.28063L19.6805 2.86255L23.4347 8.57843L21.2975 9.9965L17.5432 4.28063Z" fill="#113C7B"/>
<path d="M37.0167 0.626628H39.7598V7.17563H37.0167V0.626628Z" fill="black"/>
<path d="M37.1097 0.628506H39.6692V7.06003H37.1097V0.628506Z" fill="#113C7B"/>
<path d="M26.5032 34.9199L21.7831 30.1767C20.9365 29.3289 20.4709 28.1986 20.4709 26.9944C20.4709 24.5132 22.4805 22.4935 24.9499 22.4935C25.8349 22.4935 26.6907 22.7515 27.4242 23.2424L26.0064 25.3854C25.6937 25.1769 25.3289 25.0658 24.9499 25.0658C23.8915 25.0658 23.0304 25.9312 23.0304 26.9944C23.0304 27.5109 23.2301 27.994 23.592 28.3577L28.3131 33.1024L26.5032 34.9199Z" fill="#113C7B"/>
<path d="M30.3704 29.8071L25.6226 25.0355C24.7761 24.1877 24.3104 23.0574 24.3104 21.8532C24.3104 19.372 26.32 17.3523 28.789 17.3523C30.048 17.3523 31.1985 17.855 32.1151 18.8046L30.2784 20.5957C29.842 20.1439 29.3559 19.9246 28.7904 19.9246C27.7325 19.9246 26.8714 20.79 26.8714 21.8532C26.8714 22.3697 27.0706 22.8523 27.433 23.2165L32.1818 27.9891L30.3704 29.8071Z" fill="#113C7B"/>
<path d="M41.5875 27.6378C39.1186 27.6378 37.1085 25.6176 37.1085 23.1364C37.1085 21.9342 37.5747 20.8034 38.4212 19.9541L43.5402 14.8095C44.3838 13.9588 45.5084 13.4908 46.7066 13.4908C49.1755 13.4908 51.1851 15.5105 51.1851 17.9917C51.1851 19.1969 50.7194 20.3276 49.8715 21.1754L44.7539 26.3186C43.9074 27.1694 42.7828 27.6378 41.5875 27.6378ZM46.7066 16.0617C46.1927 16.0617 45.7125 16.2623 45.3501 16.626L40.2301 21.7721C39.8677 22.1358 39.6671 22.6214 39.6671 23.1364C39.6671 24.2001 40.5282 25.0655 41.5861 25.0655C42.0985 25.0655 42.5807 24.8648 42.944 24.4996L48.0625 19.355C48.4249 18.9913 48.6256 18.5067 48.6256 17.9908C48.6256 16.9271 47.7645 16.0617 46.7066 16.0617Z" fill="#113C7B"/>
<path d="M46.7071 31.4967C44.2381 31.4967 42.228 29.4765 42.228 26.9953C42.228 26.1044 42.4862 25.2429 42.9762 24.5023L45.1085 25.9267C44.8981 26.2449 44.7876 26.6139 44.7876 26.9953C44.7876 28.059 45.6487 28.9244 46.7071 28.9244C47.2209 28.9244 47.7012 28.7237 48.063 28.36L53.1835 23.2139C53.5454 22.8502 53.7466 22.3646 53.7466 21.8497C53.7466 20.786 52.8854 19.9205 51.8275 19.9205C51.3147 19.9205 50.833 20.1212 50.4696 20.4864L50.2753 20.6817L48.4653 18.8627L48.6597 18.6674C49.5062 17.8167 50.6308 17.3482 51.8261 17.3482C54.295 17.3482 56.3046 19.3679 56.3046 21.8497C56.3046 23.0519 55.839 24.1821 54.9925 25.0319L49.8734 30.1765C49.0294 31.0273 47.9047 31.4967 46.7071 31.4967Z" fill="#113C7B"/>
<path d="M50.547 36.6415C48.0781 36.6415 46.068 34.6218 46.068 32.1405C46.068 30.9354 46.5341 29.8051 47.3816 28.9568L47.5696 28.7684L49.3796 30.5874L49.1906 30.7773C48.8287 31.1415 48.6275 31.6256 48.6275 32.142C48.6275 33.2052 49.4887 34.0706 50.547 34.0706C51.0604 34.0706 51.5411 33.8699 51.903 33.5062L57.0235 28.3601C57.3854 27.9964 57.5865 27.5109 57.5865 26.9959C57.5865 25.9327 56.7254 25.0668 55.667 25.0668C55.2881 25.0668 54.9204 25.1779 54.6062 25.3869L53.1942 23.241C53.9287 22.7529 54.785 22.4935 55.667 22.4935C58.1359 22.4935 60.146 24.5132 60.146 26.9944C60.146 28.1971 59.6799 29.3274 58.8334 30.1767L53.7144 35.3213C52.8708 36.172 51.7452 36.6415 50.547 36.6415Z" fill="#113C7B"/>
<path d="M18.5669 32.1411C18.5672 30.917 19.4295 29.8879 20.5811 29.6427C20.3494 29.2589 20.1671 28.8487 20.0439 28.418C18.4386 28.8846 17.257 30.3752 17.2567 32.1411C17.2567 33.1804 17.6592 34.1539 18.3879 34.8836L21.5983 38.1104L22.1273 37.618L22.5586 37.2111L19.3115 33.9478L19.3075 33.9437C18.8305 33.4627 18.5669 32.8217 18.5669 32.1411ZM39.1561 51.9938L39.4124 52.3763C40.5091 52.6115 41.6374 52.7384 42.7856 52.7384H44.4661L44.6533 52.9867L61.2264 74.7559L62.2681 73.9543L45.109 51.416H42.7856C41.2348 51.4159 39.7213 51.1743 38.2853 50.7121L39.1561 51.9938ZM34.8104 52.0304C33.5817 52.4426 32.2796 52.7015 31.1849 52.7018H30.188L15.8162 73.9909L16.9027 74.7314L30.6966 54.3009L30.8797 54.0242H31.2134C32.8173 54.0186 34.8079 53.5313 36.4868 52.7954C35.9151 52.5704 35.3554 52.3165 34.8104 52.0304ZM58.2397 40.6616L57.9956 40.9098C57.6746 41.2332 57.3135 41.5009 56.9295 41.7236V42.098C56.9298 43.5176 57.4538 44.8903 58.3781 45.9432L58.8013 46.3745L74.113 60.5835L75.0081 59.6151L59.6842 45.3979C58.7672 44.5509 58.2401 43.3496 58.2397 42.098V40.6616ZM1.76188 58.3455L2.65706 59.3099L22.4935 40.7837L21.5658 39.8519L1.76188 58.3455ZM37.0117 51.0579C36.8084 51.1752 36.5949 51.2875 36.3729 51.3957C36.76 51.5659 37.1532 51.721 37.5529 51.8595L37.0117 51.0579ZM24.7559 39.5345L25.179 39.9943L24.7233 40.4175L24.292 40.8162L31.4657 48.0265C32.5092 49.0751 33.6746 49.9567 34.9243 50.6673C35.4624 50.461 35.9687 50.2186 36.4136 49.9593C34.9407 49.2462 33.5785 48.2858 32.3893 47.0907L23.2503 37.9069L24.7559 39.5345ZM56.9295 40.1896C56.9894 40.1362 57.0515 40.0843 57.1086 40.0269L57.8898 39.2415H56.9295V40.1896ZM22.4813 38.9974L23.409 39.9292L23.4131 39.9251L22.522 38.9608L22.4813 38.9974ZM51.4201 34.8104C51.1232 35.1676 50.8948 35.5701 50.7446 36.0026C51.267 35.9763 51.7667 35.8486 52.2257 35.6242L51.4201 34.8104ZM52.3478 33.9478L52.3315 33.9559L53.2593 34.8877L53.2715 34.8796L56.3802 31.7546L55.6396 30.6356L52.3478 33.9478ZM22.9492 30.4647L26.5015 34.0332L27.4292 33.1014L23.6979 29.3538L22.9492 30.4647ZM47.583 29.6631C47.2851 30.0212 47.058 30.4254 46.9076 30.8594C47.4301 30.8327 47.9295 30.7022 48.3887 30.4769L47.583 29.6631ZM58.2275 29.5532C57.6766 29.5532 57.1383 29.6672 56.6447 29.8909L57.2795 30.8512L58.3903 29.7363C58.4432 29.6833 58.4914 29.625 58.5409 29.5695C58.4373 29.561 58.3331 29.5532 58.2275 29.5532ZM44.2179 27.5228C43.8362 27.7547 43.4292 27.9364 43.0013 28.0599C43.3659 29.3406 44.3717 30.348 45.6421 30.717C45.7656 30.285 45.9466 29.8729 46.1792 29.4881C45.1972 29.2792 44.4245 28.5064 44.2179 27.5228ZM48.5067 28.8005L48.4904 28.8086L49.4181 29.7445L49.4303 29.7363L53.8167 25.3215L53.0762 24.1984L48.5067 28.8005ZM21.3135 28.2756C21.4753 28.742 21.7265 29.1719 22.0581 29.5492L22.6929 28.6051C22.2646 28.4088 21.8052 28.2995 21.3135 28.2756ZM26.7904 25.3215L30.3711 28.9185L31.2988 27.9867L27.535 24.2025L26.7904 25.3215ZM46.7082 14.1154C45.6767 14.1154 44.712 14.5187 43.986 15.2507L41.1865 18.0542L41.6545 18.5262L42.0939 18.9657L41.6545 19.4092L39.8437 21.228L39.4002 21.6715L38.9567 21.228L38.5213 20.7886C38.0103 21.4595 37.7319 22.2752 37.7319 23.1364C37.7319 25.2754 39.4686 27.0142 41.5894 27.0142L41.6016 27.0101V26.9938C41.6017 26.5428 41.6706 26.1005 41.7847 25.6714C41.7186 25.6765 41.6522 25.6917 41.5853 25.6917C40.1795 25.6913 39.0422 24.5419 39.0422 23.1364C39.0422 22.4563 39.3075 21.8108 39.7868 21.3298L44.9056 16.1865C45.3846 15.7058 46.0272 15.4378 46.7082 15.4378C47.9313 15.4386 48.9464 16.3081 49.1903 17.4601C49.5715 17.2282 49.9795 17.0468 50.4069 16.923C49.9436 15.304 48.4604 14.1161 46.7082 14.1154ZM43.1925 25.3947C42.9959 25.8313 42.8926 26.3026 42.867 26.7863C43.3328 26.6213 43.763 26.3678 44.1406 26.0295L43.1925 25.3947ZM48.5067 19.7957L43.9331 24.3896L45.048 25.1343L49.4303 20.7316L49.4344 20.7235L48.5067 19.7957ZM25.1546 23.1323C25.3167 23.6001 25.5665 24.032 25.8993 24.41L26.5299 23.4578C26.0985 23.2623 25.6333 23.1575 25.1546 23.1323ZM55.4565 23.1323C54.981 23.1583 54.5165 23.2627 54.0853 23.4578L54.7078 24.41C55.042 24.0311 55.2936 23.6002 55.4565 23.1323ZM31.1117 20.6502C31.1366 20.6767 31.1591 20.7058 31.1849 20.7316L34.2204 23.7874L35.1481 22.8556L32.1045 19.7957C32.0855 19.7766 32.0699 19.7543 32.0516 19.7347L31.1117 20.6502ZM33.9071 16.687C33.1967 16.687 32.6131 17.2723 32.6131 17.9932C32.6133 18.1942 32.6596 18.385 32.7433 18.5588L32.9956 18.8192L32.9468 18.8599C32.9621 18.877 32.9752 18.8963 32.9915 18.9128L36.4746 22.4162L36.5275 22.4691C36.6495 21.5231 37.0261 20.6338 37.6302 19.8934L34.8226 17.0695C34.5774 16.8228 34.2531 16.687 33.9071 16.687ZM71.346 15.446L72.7661 18.3065L72.2087 18.5832L65.153 22.1191L64.5915 22.404L64.3148 21.8384L62.8947 18.9819L63.4521 18.7012L71.0693 14.8844L71.346 15.446ZM13.326 18.6971L13.8835 18.9779L12.4634 21.8343L12.1867 22.3999L11.6252 22.1151L4.5695 18.5791L4.01204 18.3024L5.43213 15.4419L5.70882 14.8804L13.326 18.6971ZM64.5671 19.5394L65.153 20.7194L71.0897 17.745L70.5037 16.5609L64.5671 19.5394ZM5.68441 17.7409L11.6211 20.7153L12.2111 19.5353L6.27034 16.5568L5.68441 17.7409ZM39.3758 19.873L39.4002 19.8975L40.328 18.9657L40.3035 18.9412L39.3758 19.873ZM50.5493 18.1925C50.1191 18.3443 49.7137 18.5679 49.3571 18.868L50.1709 19.6859C50.3947 19.2239 50.523 18.7196 50.5493 18.1925ZM30.0618 18.1925C30.0866 18.6866 30.2007 19.1621 30.3996 19.6004L31.1971 18.8192C30.8438 18.5422 30.4639 18.3329 30.0618 18.1925ZM33.9071 14.1154C32.1529 14.1158 30.6661 15.3055 30.2043 16.9271C30.6287 17.0489 31.0339 17.2263 31.4168 17.4561C31.6623 16.3056 32.6843 15.4378 33.9071 15.4378C34.5877 15.4378 35.2311 15.7049 35.7096 16.1865L38.4969 18.9901L39.4246 18.0583L36.6333 15.2507C35.9075 14.5174 34.9399 14.1154 33.9071 14.1154ZM57.4381 2.34375L59.5784 3.75977L60.0952 4.10563L56.0018 10.3434L55.6559 10.8683L55.1351 10.5184L52.9989 9.10238L52.478 8.76058L56.5714 2.52279L56.9173 1.99788L57.4381 2.34375ZM20.2026 2.51872L24.3001 8.75651L23.7793 9.09831L21.6431 10.5184L21.1182 10.8643L20.7764 10.3394L17.0207 4.6224L16.6789 4.10563L19.3359 2.34375L19.8568 1.99382L20.2026 2.51872ZM18.4041 4.45557L21.4722 9.12679L22.5667 8.39844L19.4987 3.72721L18.4041 4.45557ZM54.2033 8.40251L55.2978 9.12679L58.3659 4.45557L57.2713 3.73128L54.2033 8.40251ZM40.3849 0V7.80029H36.3932V0H40.3849ZM37.736 6.43311H39.0422V1.25326H37.736V6.43311ZM51.8595 37.085C51.4356 37.1978 50.9953 37.2681 50.5452 37.2681L50.533 37.264V37.2884C50.5339 39.4266 52.2661 41.1621 54.3864 41.1621C54.8357 41.162 55.2704 41.0808 55.6803 40.9342V39.4735C55.2918 39.7064 54.8518 39.8436 54.3864 39.8437C52.9801 39.8437 51.8393 38.6938 51.8392 37.2884C51.8392 37.2199 51.8542 37.1525 51.8595 37.085ZM53.0924 37.2884C53.0926 38.0092 53.6761 38.5905 54.3864 38.5905C54.7326 38.5903 55.053 38.4579 55.2978 38.2121L59.139 34.3506C59.3845 34.1038 59.5215 33.7764 59.5215 33.4269C59.5211 32.7067 58.9373 32.1253 58.2275 32.1248C58.0055 32.1248 57.7961 32.1869 57.609 32.2917L54.1585 35.7625C53.9763 35.9463 53.7765 36.107 53.5726 36.259L53.4709 36.3647C53.2255 36.6122 53.0924 36.9384 53.0924 37.2884ZM60.7707 33.4269C60.7707 34.1074 60.5043 34.7529 60.026 35.2336L57.2835 37.9923H59.1349L60.9497 36.1694C61.679 35.4377 62.0809 34.4648 62.0809 33.4269C62.0806 31.8737 61.1639 30.5373 59.8511 29.9194C59.6799 30.1652 59.4929 30.403 59.2773 30.6193L58.9152 30.9774C59.9852 31.2803 60.7704 32.261 60.7707 33.4269ZM48.0184 31.9417C47.5953 32.0543 47.1573 32.1207 46.7082 32.1208L46.6919 32.1167V32.1411C46.6922 33.906 47.8748 35.3929 49.4792 35.8602C49.6024 35.4301 49.7889 35.0228 50.0203 34.6395C48.8672 34.3952 48.0021 33.3661 48.0021 32.1411C48.0021 32.074 48.0133 32.0079 48.0184 31.9417ZM22.404 26.9938C22.4043 25.7708 23.2675 24.7414 24.4181 24.4954C24.1872 24.1116 24.0077 23.7012 23.8851 23.2707C22.2785 23.7366 21.0981 25.2274 21.0978 26.9938V27.0142H21.11C21.5635 27.0142 21.9996 27.0824 22.4202 27.1932C22.4152 27.1272 22.404 27.0607 22.404 26.9938ZM49.2513 32.1411C49.2513 32.8614 49.8357 33.4463 50.5452 33.4473C50.7572 33.4473 50.9578 33.388 51.1393 33.2926L51.4079 33.0282L51.4486 33.0688L51.4608 33.0648L54.9316 29.5695L54.8869 29.5003L55.2409 29.2603L56.5796 27.9175C56.8244 27.6712 56.9616 27.3464 56.9621 26.9979C56.9621 26.2772 56.3778 25.6923 55.6681 25.6917C55.4469 25.6917 55.2362 25.7567 55.0456 25.8626L50.3174 30.6193L50.3133 30.6152C50.1288 30.8011 49.9299 30.9665 49.7233 31.1198L49.6338 31.2174C49.3879 31.4649 49.2515 31.7909 49.2513 32.1411ZM58.2113 26.9979C58.2109 27.4761 58.0694 27.9304 57.8247 28.3284C57.9582 28.3179 58.0926 28.3 58.2275 28.3C58.5787 28.3 58.9216 28.3376 59.2529 28.4058C59.4256 27.9619 59.5215 27.4861 59.5215 26.9938C59.5212 25.2251 58.3357 23.7305 56.7261 23.2666C56.6027 23.699 56.4216 24.11 56.189 24.4954C57.3447 24.7379 58.2113 25.7713 58.2113 26.9979ZM26.2451 21.8547C26.2451 20.4492 27.3863 19.2993 28.7923 19.2993C28.8557 19.2994 28.9177 19.3113 28.9795 19.3156C28.8667 18.889 28.8046 18.4459 28.8045 17.9932V17.9769H28.7882C26.6678 17.9773 24.9349 19.7159 24.9349 21.8547V21.8669H24.9512C25.398 21.867 25.8361 21.9366 26.2614 22.05C26.2565 21.9851 26.2452 21.9204 26.2451 21.8547ZM40.2913 23.1364C40.2913 23.8577 40.876 24.438 41.5853 24.4385C41.9303 24.4385 42.2544 24.3074 42.5008 24.0601L42.5578 23.999L42.8019 23.6328L42.8752 23.6816L47.6196 18.9128L47.6237 18.9046L47.583 18.8639L47.8394 18.6035C47.9396 18.4166 48.0021 18.2089 48.0021 17.9891C48.0012 17.2689 47.4166 16.6879 46.7082 16.687C46.3618 16.687 46.0383 16.8192 45.7926 17.0654L40.6738 22.2127C40.4283 22.4591 40.2913 22.7866 40.2913 23.1364ZM53.1209 21.8506C53.1209 21.129 52.5367 20.5444 51.827 20.5444C51.4814 20.5446 51.1579 20.6792 50.9115 20.9269L50.8138 21.0205C50.661 21.2284 50.499 21.433 50.3133 21.6187L50.3092 21.6146L45.5811 26.3713C45.4761 26.5632 45.4145 26.7725 45.4142 26.9938C45.4142 27.7153 45.9979 28.3 46.7082 28.3C46.923 28.2998 47.1233 28.2391 47.3063 28.1413L47.5708 27.8809L47.6115 27.9215L47.6196 27.9175L52.3763 23.1323L52.3315 23.0632L52.6774 22.8312L52.7384 22.7743C52.9838 22.5277 53.1207 22.1997 53.1209 21.8506ZM54.3498 22.05C54.7772 21.9352 55.2193 21.8669 55.6681 21.8669H55.6763L55.6803 21.8506C55.6803 19.7113 53.9473 17.9733 51.827 17.9728H51.8066L51.8107 17.9932C51.8106 18.4449 51.7438 18.8858 51.6317 19.3115C51.6966 19.3066 51.7613 19.2953 51.827 19.2952C53.2331 19.2952 54.3701 20.4448 54.3701 21.8506C54.3701 21.9178 54.3549 21.9836 54.3498 22.05ZM56.9173 22.0296C59.1298 22.5918 60.7704 24.6033 60.7707 26.9938C60.7707 27.6256 60.65 28.2384 60.4329 28.8127C62.1449 29.6416 63.3298 31.3966 63.3301 33.4269C63.3301 34.7944 62.8005 36.0855 61.8367 37.0524L59.4889 39.4084V42.098C59.4892 42.8897 59.7825 43.655 60.2987 44.2423L60.5347 44.4824L76.77 59.5459L76.3509 60.0057L74.1862 62.3576L57.9508 47.2941C56.5431 45.9949 55.7225 44.1555 55.6844 42.2363C55.265 42.3465 54.8311 42.4112 54.3864 42.4113C51.57 42.4113 49.2807 40.1112 49.2798 37.2884C49.2798 37.2264 49.2858 37.1629 49.2879 37.1012C47.0801 36.5358 45.443 34.5283 45.4427 32.1411C45.4427 32.08 45.4487 32.0187 45.4508 31.958C43.6423 31.496 42.2219 30.0663 41.7643 28.2511C41.7061 28.2531 41.6479 28.2633 41.5894 28.2633C38.8199 28.2633 36.5622 26.0369 36.4868 23.2788L36.4746 23.2992L34.668 25.1139L34.2244 25.5615L33.7809 25.1139L30.2979 21.6146C30.0956 21.4119 29.9158 21.1925 29.7526 20.9635C29.4443 20.6716 29.1408 20.5489 28.7923 20.5485C28.0825 20.5485 27.4984 21.1337 27.4984 21.8547C27.4987 22.2056 27.6318 22.5279 27.8768 22.7743L27.9297 22.8271L28.2878 23.0672L28.2389 23.1364L32.6253 27.5472L33.0648 27.9907L32.6253 28.4302L30.8146 30.249L30.3711 30.6925L29.9276 30.249L25.5575 25.8586C25.3707 25.7562 25.1681 25.6919 24.9512 25.6917C24.241 25.6917 23.6576 26.2732 23.6572 26.9938C23.6572 27.3454 23.7905 27.6711 24.0356 27.9175L24.1007 27.9867L24.4588 28.2267L24.41 28.2959L28.7557 32.6619L29.1951 33.1014L28.7557 33.5449L26.945 35.3597L26.5015 35.8073L26.062 35.3597L21.7204 31.0018C21.543 30.8999 21.3528 30.839 21.11 30.839C20.4007 30.8392 19.8164 31.4199 19.8161 32.1411C19.8161 32.4921 19.9494 32.8177 20.1945 33.0648L33.2764 46.2077C35.817 48.761 39.1927 50.1665 42.7856 50.1668H45.7275L45.9147 50.415L63.6434 73.6938L64.0177 74.1903L61.4909 76.1312L60.9945 76.5137L60.616 76.0132L43.8436 53.9876H42.7856C41.2038 53.9875 39.6562 53.7685 38.1714 53.3569C36.2484 54.4312 33.6734 55.1726 31.5552 55.2531L17.5903 75.9521L17.2363 76.473L16.7196 76.119L14.0869 74.3245L14.4328 73.8078L29.5247 51.4526H31.1849C31.8355 51.4524 32.5832 51.3428 33.3415 51.1597C32.3593 50.5116 31.4326 49.7633 30.5827 48.9095L23.3765 41.6707L3.05176 60.6567L2.59196 61.084L2.16471 60.6242L0.423177 58.7402L0 58.2845L0.455729 57.8573L20.6828 38.9648L17.5008 35.7666C16.5364 34.8007 16.0075 33.5092 16.0075 32.1411C16.0078 29.7532 17.6438 27.7416 19.8527 27.1769C19.8506 27.1162 19.8446 27.0549 19.8446 26.9938C19.8448 24.6052 21.4838 22.5936 23.6938 22.0296C23.6919 21.9714 23.6857 21.9132 23.6857 21.8547C23.6857 19.0314 25.9715 16.7281 28.7882 16.7277C28.8466 16.7277 28.9053 16.7339 28.9632 16.7358C29.5223 14.5169 31.5228 12.8667 33.9071 12.8662C35.2726 12.8662 36.559 13.4006 37.5203 14.3717L40.3076 17.1712L43.0949 14.3677C44.056 13.3985 45.3436 12.8662 46.7082 12.8662C49.0901 12.867 51.0829 14.5159 51.6439 16.7318C51.7045 16.7296 51.766 16.7236 51.827 16.7236C54.6436 16.7241 56.9295 19.0269 56.9295 21.8506C56.9295 21.9105 56.9194 21.97 56.9173 22.0296Z" fill="#113C7B"/>
</svg>
