<svg width="64" height="75" viewBox="0 0 64 75" fill="none" xmlns="http://www.w3.org/2000/svg">
<path d="M57.8474 26.234L58.7077 25.4C60.7786 23.393 60.7786 20.1279 58.7071 18.1215C56.6362 16.1151 53.2661 16.1145 51.1946 18.1209L50.3338 18.9544C45.5075 15.6212 39.686 13.5587 33.3927 13.2714V8.82395H36.4288C38.9392 8.82395 40.9823 6.84445 40.9823 4.41225C40.9823 1.9795 38.9392 0 36.4288 0H27.3212C24.8108 0 22.7677 1.9795 22.7677 4.41225C22.7677 6.84445 24.8108 8.82395 27.3212 8.82395H30.3573V13.2714C13.4831 14.0416 0 27.5822 0 44.1181C0 61.1463 14.2991 75 31.8753 75C49.4509 75 63.75 61.1463 63.75 44.1181C63.75 37.4577 61.5628 31.2835 57.8474 26.234ZM25.8037 4.41225C25.8037 3.60133 26.4842 2.9415 27.3212 2.9415H36.4288C37.2658 2.9415 37.9463 3.60133 37.9463 4.41225C37.9463 5.22262 37.2658 5.88245 36.4288 5.88245H27.3212C26.4842 5.88245 25.8037 5.22262 25.8037 4.41225ZM53.341 20.201C54.229 19.3412 55.6733 19.3412 56.5608 20.201C57.4482 21.0613 57.4482 22.4607 56.5608 23.3205L55.9568 23.9061C54.9605 22.7941 53.8842 21.7514 52.7365 20.7866L53.341 20.201ZM31.8753 72.059C15.9725 72.059 3.0355 59.525 3.0355 44.1181C3.0355 28.7112 15.9725 16.1766 31.8753 16.1766C47.7775 16.1766 60.7145 28.7112 60.7145 44.1181C60.7145 59.525 47.7775 72.059 31.8753 72.059Z" fill="white"/>
<path d="M31.8749 20.5881C18.4911 20.5881 7.58868 31.141 7.58868 44.1179C7.58868 57.0859 18.4826 67.6471 31.8749 67.6471C45.2599 67.6471 56.1606 57.0925 56.1606 44.1179C56.1606 31.1509 45.2684 20.5881 31.8749 20.5881ZM51.6071 45.5881H53.0701C52.7355 50.1607 50.8535 54.3258 47.9291 57.5919L46.901 56.5959C46.3079 56.0218 45.3473 56.0218 44.7541 56.5959C44.1615 57.17 44.1615 58.1012 44.7541 58.6759L45.7822 59.672C42.4104 62.5053 38.1115 64.3287 33.3924 64.6529V63.2354C33.3924 62.4234 32.7125 61.7647 31.8744 61.7647C31.0362 61.7647 30.3569 62.4234 30.3569 63.2354V64.6529C25.6372 64.3287 21.3383 62.5053 17.9671 59.672L18.9952 58.6759C19.5878 58.1012 19.5878 57.17 18.9952 56.5959C18.402 56.0218 17.4414 56.0218 16.8483 56.5959L15.8202 57.5919C12.8958 54.3258 11.0138 50.1607 10.6792 45.5881H12.1422C12.9809 45.5881 13.6602 44.9299 13.6602 44.1179C13.6602 43.3053 12.9809 42.6471 12.1422 42.6471H10.6792C11.0143 38.0744 12.8958 33.9094 15.8202 30.6432L16.8483 31.6393C17.4414 32.2134 18.402 32.2134 18.9952 31.6393C19.5878 31.0652 19.5878 30.1339 18.9952 29.5598L17.9671 28.5637C21.3383 25.7299 25.6372 23.907 30.3569 23.5828V24.9998C30.3569 25.8123 31.0362 26.4705 31.8749 26.4705C32.7131 26.4705 33.3924 25.8123 33.3924 24.9998V23.5823C38.1121 23.907 42.411 25.7299 45.7822 28.5632L44.7541 29.5592C44.1615 30.1334 44.1615 31.0646 44.7541 31.6393C45.3467 32.2134 46.3079 32.2134 46.901 31.6393L47.9291 30.6432C50.8535 33.9094 52.7355 38.0744 53.0701 42.6471H51.6071C50.769 42.6471 50.0891 43.3053 50.0891 44.1173C50.0891 44.9293 50.769 45.5881 51.6071 45.5881Z" fill="white"/>
<path d="M33.3923 39.9591V30.8825C33.3923 30.0704 32.713 29.4123 31.8749 29.4123C31.0362 29.4123 30.3568 30.0704 30.3568 30.8825V39.9591C28.5899 40.5662 27.3208 42.2007 27.3208 44.1181C27.3208 46.5503 29.3639 48.5298 31.8749 48.5298C34.3853 48.5298 36.4284 46.5503 36.4284 44.1181C36.4284 42.2007 35.1593 40.5662 33.3923 39.9591ZM31.8749 45.5883C31.0379 45.5883 30.3568 44.929 30.3568 44.1181C30.3568 43.3072 31.0379 42.6474 31.8749 42.6474C32.7113 42.6474 33.3923 43.3072 33.3923 44.1181C33.3923 44.929 32.7113 45.5883 31.8749 45.5883Z" fill="white"/>
</svg>
