<svg width="69" height="68" viewBox="0 0 69 68" fill="none" xmlns="http://www.w3.org/2000/svg">
<path d="M49.1203 17.6009C49.1203 9.42384 42.321 2.91509 34.0856 2.91504C25.8508 2.91504 19.0508 9.42388 19.0508 17.6009C19.0508 25.7772 25.8509 32.2868 34.0856 32.2868V34.7868L33.6294 34.7811C24.2283 34.5497 16.6511 27.1834 16.4128 18.0444L16.4068 17.6009C16.4068 8.10883 24.3221 0.415039 34.0856 0.415039L34.5417 0.420736C44.0951 0.655955 51.7643 8.25712 51.7643 17.6009L51.7583 18.0444C51.5162 27.3307 43.6972 34.7867 34.0856 34.7868V32.2868C42.3209 32.2867 49.1203 25.7772 49.1203 17.6009Z" fill="currentColor"/>
<path d="M65.1191 60.3777C65.1191 49.1048 56.8878 39.7815 46.0694 37.6556C42.7709 40.1358 38.6248 41.6366 34.0994 41.6367C29.5734 41.6367 25.4257 40.1348 22.1285 37.6556C11.3087 39.7818 3.07702 49.1052 3.07702 60.3777C3.07712 60.877 3.43542 61.2256 3.8103 61.2949L8.22546 62.1103L9.82972 62.3968C26.4175 65.2632 43.4099 65.1679 59.9715 62.1103L64.3867 61.2949L64.4564 61.2786C64.8041 61.1817 65.119 60.8467 65.1191 60.3777ZM67.7596 60.5316C67.6873 62.1124 66.5069 63.4505 64.8936 63.7485L60.4785 64.5639L58.8432 64.8561C42.4752 67.6845 25.7211 67.6845 9.35378 64.8561L7.71853 64.5639L3.30423 63.7485C1.69076 63.4506 0.508918 62.1125 0.436527 60.5316L0.433084 60.3777C0.433084 47.5041 10.1777 36.8441 22.8876 34.9855C25.781 37.4789 29.549 39.0369 33.6966 39.1318L34.0994 39.1367C38.4052 39.1366 42.3229 37.5608 45.3111 34.9855C58.0194 36.8441 67.763 47.5041 67.763 60.3777L67.7596 60.5316Z" fill="currentColor"/>
<path d="M45.3762 34.5744C58.2976 36.4642 68.1971 47.2986 68.198 60.376V60.3882L68.1938 60.5387V60.5509C68.1123 62.3191 66.7909 63.8207 64.9754 64.1561L60.5596 64.974L58.9249 65.2669C42.5062 68.1041 25.6954 68.104 9.27734 65.2669L7.63842 64.974L3.22266 64.1561C1.40727 63.8209 0.0857983 62.3194 0.00424592 60.5509L0 60.5387V60.376C0.000890379 47.2986 9.89896 36.4643 22.8218 34.5744L23.0256 34.5418L23.1785 34.6761C25.9991 37.1067 29.6705 38.6243 33.7084 38.7166H34.099C38.2911 38.7165 42.1066 37.1863 45.0195 34.6761L45.1724 34.5418L45.3762 34.5744ZM22.7624 35.4248C10.3599 37.3303 0.867054 47.7721 0.866168 60.376L0.870414 60.5143L0.938349 61.023C1.19919 62.1846 2.15309 63.1101 3.38825 63.3382L7.79976 64.1561L9.43444 64.445C25.749 67.2639 42.4484 67.264 58.7636 64.445L60.3983 64.1561L64.8098 63.3382C66.2202 63.0777 67.2591 61.9068 67.3234 60.5143L67.3276 60.376C67.3267 47.7721 57.8364 37.3344 45.4356 35.4289C42.3932 37.9872 38.4408 39.5548 34.099 39.5549L33.6914 39.5467C29.5102 39.4511 25.7069 37.9016 22.7624 35.4248ZM64.6824 60.376C64.6815 49.3645 56.6885 40.2559 46.1617 38.1022C42.8188 40.5614 38.6494 42.0531 34.099 42.0532C29.547 42.0532 25.3742 40.5615 22.0321 38.1022C11.5058 40.2576 3.51223 49.3662 3.51138 60.376C3.51144 60.6752 3.72282 60.853 3.89351 60.8846L8.30927 61.7025L9.90999 61.9873C26.4448 64.8446 43.38 64.7502 59.8888 61.7025L64.2833 60.8846L64.3427 60.8724C64.5057 60.8226 64.6823 60.6514 64.6824 60.376ZM34.0905 0L34.5491 0.00406901C44.343 0.245445 52.1994 8.03778 52.1994 17.6025L52.1909 18.0501C51.9431 27.5561 43.9397 35.2047 34.0863 35.2051H34.0778L33.6235 35.1969C23.9855 34.9597 16.2213 27.4098 15.9774 18.0542L15.9732 17.6066C15.9732 7.89003 24.0811 0 34.0905 0ZM48.6838 17.6025C48.6838 9.65077 42.0761 3.33295 34.0863 3.33252C26.0968 3.33252 19.4845 9.65058 19.4845 17.6025C19.4855 25.553 26.0975 31.8685 34.0863 31.8685C42.0754 31.8681 48.6828 25.5528 48.6838 17.6025ZM65.5528 60.376C65.5527 61.0335 65.1063 61.5303 64.5763 61.6781L64.4913 61.6984L64.4701 61.7065L60.0543 62.5203C43.4401 65.5876 26.3934 65.6807 9.75289 62.8052L8.14793 62.5203L3.72792 61.7025C3.14899 61.5953 2.64111 61.0751 2.64096 60.376C2.64182 48.9065 11.0195 39.4138 22.0406 37.2477L22.2401 37.207L22.3972 37.3291C25.6218 39.7534 29.676 41.219 34.099 41.2191C38.5217 41.219 42.5749 39.7544 45.8008 37.3291L45.9579 37.207L46.1574 37.2477C57.1772 39.4136 65.552 48.9062 65.5528 60.376ZM49.5542 17.6025C49.5532 25.8594 42.8027 32.4664 34.5194 32.6904V34.3587C43.6895 34.1383 51.0921 26.9597 51.3247 18.0339L51.329 17.6025L51.3077 16.7521C50.8605 8.02322 43.5535 1.06113 34.5321 0.838216L34.082 0.830078C24.5661 0.83193 16.8436 8.3361 16.8436 17.6025L16.8478 18.0339L16.8903 18.8639C17.5436 27.3977 24.7623 34.1442 33.6405 34.3628H33.6489V32.6904C25.3676 32.465 18.6151 25.8584 18.6141 17.6025C18.6141 9.20044 25.6061 2.49837 34.0863 2.49837C42.5668 2.49881 49.5542 9.20065 49.5542 17.6025Z" fill="currentColor"/>
</svg>
