<svg width="68" height="76" viewBox="0 0 68 76" fill="none" xmlns="http://www.w3.org/2000/svg">
<path d="M16.2121 34.5213L20.6271 37.0155C20.7636 37.0604 20.8541 37.1946 20.9 37.3282C20.9451 37.4615 20.9475 37.5947 20.8565 37.7281L20.4016 38.4842L15.045 35.4635L15.4842 34.743C15.5294 34.6097 15.6683 34.5222 15.8046 34.4778C15.9407 34.4337 16.076 34.4332 16.2121 34.5213Z" fill="#113C7B"/>
<path fill-rule="evenodd" clip-rule="evenodd" d="M43.1371 0.462546C47.6563 0.921431 51.1871 4.7307 51.1877 9.37016L51.1561 10.1105C50.9028 13.2007 49.0753 15.8331 46.4839 17.2366L46.7648 17.5454L46.9507 17.7512L46.9547 17.7592L55.3297 27.0627L63.3843 29.6083H63.4278L63.5742 29.6558C66.2384 30.4882 67.7489 33.3322 66.826 35.9861L66.8221 35.9822C65.9553 38.6107 63.0671 40.0292 60.4172 39.1533L50.9029 36.1287L50.8989 36.1247C49.8731 35.7898 49.0823 35.183 48.4857 34.4936L48.0861 34.0502L46.8439 44.3593L56.1684 53.8766L56.1921 53.9003C56.5505 54.2903 56.8633 54.7241 57.0981 55.187L57.3038 55.6581L62.0827 68.7543L62.0906 68.7701C63.0025 71.3916 61.6316 74.2509 58.9535 75.144C56.327 76.0187 53.4161 74.7186 52.4892 72.0758L48.098 59.9892L37.9705 49.6326L36.5146 60.0684C36.3645 61.1451 35.8963 62.0537 35.217 62.7802L34.9124 63.0851L23.3053 73.5961L23.3014 73.6C21.2619 75.4287 18.0385 75.3275 16.1527 73.315C14.2694 71.3036 14.3758 68.1114 16.4415 66.2562L26.6838 56.9685L29.3502 38.1042V38.0289L29.3621 37.9577C29.4021 37.6837 29.4643 37.4204 29.544 37.1699L30.4698 29.5568L28.5946 30.4753L24.7374 36.0772C24.6417 36.2227 24.5332 36.3575 24.4249 36.4889C24.5778 37.1314 24.5938 37.8583 24.3893 38.5792L24.951 38.896L24.955 38.8999C25.1264 38.9974 25.2745 39.0979 25.3783 39.1691C25.5189 39.2651 25.6599 39.3677 25.7937 39.4779L26.1774 39.8223C26.3 39.9424 26.4164 40.0667 26.5256 40.1945C26.6445 40.3337 26.7477 40.4743 26.8381 40.6023C26.9168 40.7135 27.0238 40.862 27.1229 41.0338C27.22 41.2022 27.2958 41.3636 27.3563 41.497C27.4138 41.6238 27.4836 41.7894 27.5462 41.972L27.6886 42.4748C27.7218 42.6186 27.7561 42.7949 27.7796 42.9855L27.8192 43.4962C27.8239 43.6991 27.8117 43.8818 27.7994 44.0228L27.7242 44.5414C27.6991 44.6675 27.6599 44.847 27.5977 45.0442L27.5937 45.06C27.5425 45.2179 27.4791 45.3716 27.4117 45.5232L27.4157 45.5272C27.3249 45.7334 27.2235 45.9078 27.1704 45.9983L27.1664 46.0022L23.1589 52.7958C23.078 52.9339 22.983 53.0815 22.8701 53.2313C22.7661 53.3691 22.6521 53.5055 22.5339 53.6311L22.5299 53.6272C22.424 53.7403 22.3011 53.8702 22.1541 53.9954C21.9883 54.1365 21.8255 54.2487 21.7387 54.3081C21.6338 54.3798 21.4773 54.4817 21.2917 54.5813L21.2877 54.5773C21.1373 54.6588 20.9862 54.7349 20.8328 54.799L20.8288 54.803C20.6753 54.8667 20.5165 54.9263 20.3501 54.9772H20.3422C20.1494 55.0353 19.9694 55.0753 19.8477 55.0999H19.8358C19.6619 55.1341 19.493 55.1586 19.3374 55.1751H19.3295C19.1815 55.1901 19.0036 55.2048 18.8152 55.2068C18.6385 55.2085 18.4676 55.1993 18.3088 55.187C18.1619 55.1755 17.9828 55.1608 17.7906 55.1276C17.6183 55.0979 17.4535 55.0604 17.3 55.0207L17.2881 55.0168C17.1437 54.9785 16.9764 54.9287 16.8015 54.8663C16.6205 54.8017 16.4569 54.7316 16.3268 54.6723L15.8679 54.4388L3.30342 47.3404C3.17447 47.2675 3.02516 47.1749 2.86825 47.0672C2.72923 46.9721 2.59275 46.8709 2.46078 46.7624L2.06913 46.414L1.72495 46.0458C1.60504 45.9054 1.50295 45.7623 1.41242 45.6341C1.31642 45.4983 1.21939 45.3548 1.13154 45.2025C1.04589 45.0539 0.968806 44.8989 0.898131 44.7433C0.828662 44.5909 0.761167 44.4303 0.704284 44.2643L0.700328 44.2603C0.634906 44.0679 0.59139 43.8926 0.561865 43.7654C0.528507 43.6209 0.494389 43.4451 0.470876 43.2547L0.431315 42.7322L0.435271 42.7282C0.43148 42.5327 0.438578 42.3557 0.451095 42.2135C0.467523 42.0283 0.495648 41.8532 0.526261 41.6989C0.551544 41.5717 0.590732 41.393 0.652855 41.1961L0.656811 41.1803C0.710252 41.0154 0.772465 40.8538 0.842746 40.6973C0.919866 40.5252 1.00539 40.3653 1.08802 40.2262L5.09157 33.4445L5.38036 33.009C5.48923 32.864 5.60312 32.7299 5.71662 32.6092L6.09641 32.2449C6.2383 32.1241 6.38179 32.0172 6.5118 31.9282C6.65584 31.8299 6.80772 31.7401 6.95883 31.659C7.11086 31.5764 7.26336 31.5018 7.41774 31.4373C7.57176 31.3734 7.73765 31.3141 7.90433 31.2631C8.09799 31.2047 8.28505 31.165 8.40675 31.1404H8.41466C8.53551 31.1166 8.71442 31.0823 8.91313 31.0612H8.925C9.11882 31.0417 9.29758 31.0349 9.43533 31.0335L9.94171 31.0493L10.46 31.1127L10.9505 31.2196L10.9624 31.2235C11.107 31.2618 11.2735 31.3114 11.449 31.374C11.5906 31.4245 11.7532 31.4863 11.9237 31.564L11.9197 31.5679L12.3747 31.7936L12.3826 31.7976L12.9246 32.1064C13.4419 31.5705 14.1083 31.1473 14.9105 30.9504C15.4282 30.8239 16.0126 30.7804 16.6037 30.8712C16.6146 30.8542 16.6243 30.8366 16.6354 30.8197L20.7774 23.8718C21.3458 22.987 22.1377 22.3874 23.0482 22.0071L35.9014 15.7163C34.3977 14.224 33.4157 12.204 33.2707 9.95213L33.2509 9.37016C33.2515 4.42116 37.2701 0.415617 42.2193 0.415039L43.1371 0.462546ZM42.2193 2.44202C38.3838 2.44259 35.277 5.54547 35.2764 9.37016C35.2764 11.7919 36.5242 13.9245 38.4175 15.1661L40.4153 16.4765L38.0891 17.003C37.971 17.0298 37.8536 17.0632 37.741 17.102L37.4087 17.2366L23.9343 23.8282L23.9027 23.8441L23.871 23.8559C23.2668 24.0998 22.8053 24.4643 22.4785 24.9763L22.4706 24.9882L18.5026 31.6392L22.4429 33.8681L22.4785 33.8918L22.5181 33.9116C22.8044 34.0901 23.0698 34.3152 23.3211 34.5649L27.0636 29.1253L27.2139 28.8996L27.4592 28.7769L32.9304 26.0888L31.5498 37.4707C31.5498 37.4707 31.547 37.4929 31.5458 37.5024L31.5339 37.6093L31.4983 37.7122C31.4429 37.8728 31.403 38.037 31.3757 38.2031V38.2229L31.3638 38.2942L28.6341 57.6217L28.5867 57.986L28.3137 58.2314L17.7985 67.7645L17.5809 67.9823C16.5834 69.0873 16.5841 70.8102 17.6323 71.9294C18.7495 73.1208 20.7117 73.1967 21.9484 72.0877L33.5515 61.5807C34.0708 61.1052 34.4033 60.5171 34.5049 59.7912L36.2496 47.3127L36.5384 45.2698L49.7042 58.7302L49.8585 58.8886L49.9336 59.0945L54.3961 71.387L54.4 71.3989C54.9351 72.9335 56.6648 73.7683 58.3126 73.22C59.9108 72.687 60.7201 70.9986 60.1759 69.4352L55.4049 56.3628C55.281 56.0293 55.0503 55.6577 54.7205 55.2939L45.0597 45.4322L44.7195 45.0838L44.7789 44.6008L46.6105 29.3866L50.0048 33.1476L50.0207 33.1634C50.423 33.6284 50.9091 33.9964 51.5161 34.1967L61.0344 37.2253L61.0462 37.2292C62.6666 37.7681 64.4032 36.8847 64.9073 35.3408L64.9113 35.321C65.4298 33.8309 64.6302 32.1875 63.0994 31.6353H63.0757L54.4594 28.9155L54.1943 28.8323L54.0123 28.6265L45.4554 19.1171C45.3417 18.9928 45.3445 18.9913 45.2892 18.935L45.2536 18.8993L44.6364 18.2065C44.4816 18.0369 44.3052 17.8873 44.1103 17.7512L42.4408 16.5873L44.3753 15.9578C47.1567 15.051 49.1622 12.4426 49.1622 9.37016C49.1617 5.78478 46.4324 2.83344 42.9314 2.47765L42.2193 2.44202ZM15.3932 32.9179C14.8485 33.0516 14.3938 33.4073 14.0758 33.8958L13.5417 34.7826L11.3857 33.5633C11.2873 33.5083 11.1874 33.4553 11.085 33.4089C10.9816 33.3617 10.8749 33.3201 10.7685 33.2822C10.6622 33.2443 10.5528 33.2119 10.4441 33.1832C10.3358 33.1552 10.2252 33.1308 10.1158 33.1119C10.0056 33.0931 9.89364 33.0809 9.78347 33.0723C9.67396 33.0638 9.56404 33.0594 9.45511 33.0605C9.34549 33.0616 9.23462 33.0654 9.12676 33.0763C9.01884 33.0878 8.91131 33.1071 8.80632 33.1278C8.70117 33.149 8.59481 33.1725 8.49379 33.203C8.39261 33.234 8.29361 33.2698 8.19708 33.3099C8.10086 33.3501 8.00656 33.3951 7.9162 33.4445C7.82595 33.4929 7.73843 33.5459 7.6551 33.6028C7.57111 33.6603 7.48676 33.7234 7.40982 33.7889C7.33315 33.8543 7.26076 33.926 7.19224 33.9987C7.12395 34.0714 7.05798 34.1489 6.99839 34.2284C6.93928 34.3068 6.88615 34.3892 6.83619 34.4738L2.82869 41.2634C2.77818 41.3485 2.73077 41.4378 2.69023 41.5286C2.64977 41.6188 2.61393 41.7116 2.58342 41.8058C2.55356 41.9003 2.53158 41.9974 2.51221 42.0948C2.49292 42.1921 2.47752 42.2921 2.46869 42.3917C2.45988 42.4918 2.45447 42.5947 2.45682 42.6965C2.45861 42.7975 2.46766 42.8992 2.48056 43.0014C2.49291 43.1032 2.51244 43.2044 2.53594 43.3062C2.55934 43.4069 2.58516 43.5075 2.61902 43.6071C2.65313 43.7066 2.6936 43.8073 2.7377 43.904C2.78155 44.0007 2.83036 44.0958 2.88408 44.1891C2.93819 44.2829 2.99858 44.3764 3.0621 44.4662C3.1249 44.5552 3.19229 44.6436 3.26386 44.7275C3.33505 44.8108 3.41065 44.8913 3.48936 44.969C3.56872 45.0472 3.65554 45.1233 3.74255 45.1946C3.82851 45.2655 3.91863 45.333 4.01156 45.3965C4.10427 45.4602 4.20179 45.519 4.30035 45.5747L16.8648 52.6731C16.963 52.7279 17.0633 52.7811 17.1655 52.8275C17.2689 52.8746 17.3756 52.9201 17.482 52.9581C17.5882 52.996 17.6978 53.0284 17.8064 53.0571C17.9146 53.0851 18.0248 53.1094 18.1347 53.1283C18.2445 53.1473 18.3567 53.1593 18.467 53.1679C18.5765 53.1764 18.6865 53.1809 18.7954 53.1798C18.9051 53.1787 19.0158 53.1709 19.1237 53.16C19.2316 53.1485 19.3392 53.1331 19.4442 53.1125C19.5493 53.0912 19.6557 53.0677 19.7567 53.0373C19.858 53.0063 19.9568 52.9705 20.0534 52.9304C20.1497 52.8902 20.2439 52.8451 20.3343 52.7958C20.4251 52.7471 20.5116 52.6908 20.5954 52.6335C20.6794 52.576 20.7637 52.5169 20.8407 52.4514C20.9175 52.3859 20.9902 52.3144 21.0583 52.2415C21.1267 52.1688 21.1924 52.091 21.2521 52.0119C21.3113 51.9335 21.3649 51.8511 21.4143 51.7665L25.4218 44.9729C25.4715 44.8882 25.5205 44.802 25.5603 44.7116C25.6007 44.6216 25.6366 44.5285 25.6671 44.4345C25.6969 44.3402 25.7189 44.2427 25.7383 44.1455C25.7577 44.0477 25.773 43.9447 25.7818 43.8446C25.7905 43.7451 25.796 43.645 25.7937 43.5437C25.7919 43.4428 25.7828 43.341 25.7699 43.2389C25.7576 43.1373 25.738 43.0356 25.7146 42.9341C25.691 42.8327 25.6656 42.7288 25.6315 42.6292C25.5976 42.5304 25.5565 42.4328 25.5128 42.3363C25.4687 42.239 25.4206 42.1411 25.3664 42.0473C25.3124 41.9537 25.2518 41.8637 25.1884 41.7741C25.1255 41.6849 25.0584 41.5968 24.9866 41.5128C24.9154 41.4295 24.8404 41.349 24.7611 41.2713C24.6818 41.1931 24.595 41.117 24.508 41.0457C24.4219 40.9747 24.332 40.9073 24.2389 40.8437C24.1463 40.78 24.0521 40.7173 23.9541 40.6616L21.7031 39.3908L22.2214 38.5278C22.5398 38.038 22.5872 37.4584 22.4508 36.9244C22.314 36.3901 21.9463 35.9456 21.446 35.6338L17.031 33.1396C16.5306 32.8287 15.9385 32.7845 15.3932 32.9179Z" fill="#113C7B"/>
<path d="M42.2404 0L43.16 0.0447591L43.1803 0.0488281C47.9088 0.529587 51.6026 4.51522 51.6032 9.37093V9.38721L51.5706 10.1278V10.144C51.3206 13.1945 49.6047 15.8138 47.1395 17.334L47.2616 17.4723L55.5623 26.6968L63.444 29.1911H63.4928L63.5579 29.2114L63.6963 29.2562C66.5758 30.1558 68.2234 33.2394 67.2201 36.1247L67.0003 36.7513L66.9678 36.7188C65.81 39.1743 62.9378 40.4269 60.2865 39.5508L50.7772 36.5275L50.6795 36.495L50.6633 36.4787C49.7218 36.1502 48.977 35.6067 48.3887 34.9894L47.2778 44.2057L56.4616 53.5807L56.4982 53.6174C56.6885 53.8244 56.8678 54.0457 57.0313 54.2765L57.4707 54.9967L57.4788 55.0212L57.6864 55.4932L57.6945 55.5135L62.4634 68.5832L62.4878 68.632C63.4752 71.4706 61.9865 74.5738 59.0861 75.5412C56.2587 76.4828 53.1028 75.0848 52.0955 72.2127L47.7336 60.2173L38.265 50.529L36.9263 60.1278C36.7633 61.2935 36.2564 62.2805 35.5225 63.0656L35.5103 63.0737L35.2091 63.3789L35.1929 63.3952L23.584 73.9054L23.5799 73.9095C21.3755 75.8861 17.8928 75.7814 15.8488 73.6003C13.8087 71.4214 13.9205 67.9602 16.1621 65.9465L26.2899 56.7627L27.8809 45.4956L27.7954 45.695C27.695 45.923 27.5856 46.1144 27.5309 46.2077L27.5228 46.2118L27.5269 46.2158L23.5189 53.007C23.4315 53.156 23.3259 53.318 23.2015 53.4831C23.0894 53.6314 22.9685 53.7812 22.8394 53.9185L22.5423 54.2277L22.526 54.2114C22.4918 54.2431 22.4615 54.2814 22.4243 54.3132C22.2409 54.4693 22.0613 54.5903 21.9727 54.6509C21.8604 54.7276 21.6914 54.839 21.4884 54.9479L21.2158 55.0944L21.1995 55.0781C21.1586 55.0978 21.1192 55.1206 21.0775 55.1392L21.0653 55.1554L20.988 55.188C20.8258 55.2552 20.6534 55.3194 20.4712 55.3752L20.4142 55.3955H20.3817C20.203 55.4462 20.0422 55.4868 19.93 55.5094L19.8893 55.5176H19.8649C19.6961 55.5492 19.5323 55.5747 19.3807 55.5908L19.3359 55.5949C19.1889 55.6092 19.0102 55.6214 18.8192 55.6234C18.6266 55.6253 18.4431 55.6158 18.278 55.603C18.1308 55.5915 17.9334 55.5746 17.7205 55.5379C17.5344 55.5059 17.3573 55.4658 17.1956 55.424L17.1672 55.4159L17.1549 55.4118C17.0077 55.3721 16.8388 55.32 16.6626 55.2572C16.4672 55.1874 16.291 55.1121 16.154 55.0496L16.1377 55.0456L15.6779 54.8096L15.6616 54.8014L3.09652 47.7051L2.63265 47.4121C2.48483 47.311 2.33991 47.1998 2.19727 47.0825L2.18506 47.0744L1.79036 46.7245L1.76188 46.7L1.42008 46.3298L1.40788 46.3175C1.27421 46.161 1.16066 46.0022 1.07015 45.874C0.971917 45.735 0.865224 45.5768 0.769043 45.4102C0.67526 45.2473 0.591238 45.0777 0.516764 44.9137C0.457855 44.7843 0.403415 44.6399 0.349935 44.4946L0.337728 44.4865L0.305176 44.3929C0.2336 44.1821 0.185371 43.9922 0.154622 43.8599C0.118772 43.7045 0.0825975 43.5138 0.0569662 43.3065V43.2861L0.016276 42.7653L0 42.5741L0.0284831 42.5456C0.0303194 42.4101 0.0270774 42.2836 0.0366211 42.1753C0.054683 41.9724 0.0853068 41.7826 0.118001 41.6178C0.144699 41.4836 0.188092 41.2892 0.256348 41.0726L0.260417 41.0522L0.463867 40.5273C0.54813 40.3393 0.639146 40.165 0.728353 40.0147L4.73226 33.2316L4.74447 33.2153L5.03337 32.78L5.04557 32.7596C5.16374 32.6023 5.28845 32.4555 5.41178 32.3242L5.42806 32.3079L5.80648 31.9458L5.82682 31.9255C5.98105 31.7942 6.13878 31.6793 6.27848 31.5837L6.7627 31.2907C6.92378 31.2033 7.09044 31.1252 7.25912 31.0547C7.42582 30.9856 7.60586 30.9179 7.78402 30.8634C7.99665 30.7993 8.20017 30.7585 8.3252 30.7332L8.36589 30.7251H8.38623C8.50839 30.7015 8.68067 30.668 8.87044 30.6478L8.91113 30.6437H8.92334C9.11681 30.6256 9.29437 30.6167 9.43197 30.6152H9.44824L9.9528 30.6315L9.99349 30.6356L10.5103 30.7007L10.5509 30.7048L11.0392 30.8105L11.084 30.8228L11.0962 30.8268C11.2447 30.8667 11.4098 30.9177 11.5885 30.9814C11.7362 31.0341 11.9119 31.1005 12.0972 31.1849L12.6424 31.4331L12.618 31.4535L12.8662 31.5918C13.3947 31.1143 14.0437 30.7345 14.8112 30.5461L15.2466 30.4606C15.607 30.4066 15.9885 30.3936 16.3778 30.4281L20.4183 23.6572L20.4264 23.645C21.0417 22.6877 21.8963 22.0395 22.8638 21.6309L35.2132 15.5843C33.8676 14.0739 32.9917 12.1287 32.8532 9.97721V9.96501L32.8328 9.38314V9.37093C32.8335 4.19106 37.0416 0.000605097 42.2201 0H42.2404ZM48.7467 9.37093C48.7462 6.00201 46.1784 3.22752 42.8874 2.89307L42.2201 2.85645C38.6139 2.85699 35.6939 5.77704 35.6934 9.37093C35.6936 11.6454 36.8662 13.6513 38.6475 14.8193L41.4632 16.6667L40.507 16.8823L38.1795 17.4113C38.077 17.4346 37.9754 17.4634 37.8784 17.4967L37.5936 17.6107L24.117 24.1984L24.0885 24.2147L24.0519 24.235L24.0194 24.2472C23.4905 24.4622 23.1045 24.7719 22.8312 25.1994L22.8272 25.2075L22.819 25.2197L19.0755 31.486L22.6481 33.5042L22.6766 33.5205L22.6969 33.5368L22.7376 33.5571L23.1974 33.8908C23.2145 33.9048 23.2294 33.9213 23.2463 33.9355L26.7212 28.89L26.8677 28.6702L26.9287 28.5767L27.0264 28.5278L32.7474 25.7161L33.4351 25.3744L33.3455 26.1393L31.9621 37.5203V37.5366C31.9613 37.5427 31.9585 37.5489 31.958 37.5529L31.9499 37.6546L31.9417 37.7035L31.9295 37.7441L31.8929 37.8499C31.8481 37.9799 31.8148 38.1143 31.7912 38.2528L31.7871 38.2894L31.7749 38.3626L29.0487 57.6782L28.9795 58.1909L28.8656 58.2967L28.5929 58.5409L18.0786 68.0745L17.8914 68.2617L17.6107 68.6401C17.0526 69.5682 17.1496 70.8024 17.9362 71.6431C18.8948 72.6655 20.5959 72.7369 21.6675 71.7773L33.2723 61.2712C33.7239 60.8568 34.0071 60.3554 34.0942 59.7331L35.8358 47.2534L36.2427 44.3726L50 58.4391L50.1587 58.5978L50.2197 58.6629L50.2482 58.7443L50.3255 58.9518L54.7892 71.2443L54.7974 71.2687C55.2562 72.5712 56.7412 73.3028 58.1828 72.8231C59.5571 72.3634 60.2502 70.9173 59.7819 69.5719L55.013 56.5064C54.9111 56.2329 54.7123 55.9071 54.4108 55.5745L44.7632 45.7235L44.4214 45.3735L44.283 45.2311L44.3075 45.0317L44.3644 44.5516L46.3053 28.4261L46.9198 29.1056L50.297 32.8532L50.3377 32.8898C50.7016 33.3102 51.127 33.6294 51.648 33.8013L61.1613 36.8286L61.1776 36.8327C62.58 37.2991 64.0663 36.5331 64.502 35.2214L64.5142 35.1847C64.9486 33.9361 64.2997 32.5484 63.0127 32.0516L62.9517 32.0313L54.3335 29.3132L54.069 29.2318L53.9592 29.1952L53.8818 29.1097L53.6987 28.9022L45.1457 19.397C45.0902 19.3362 45.0598 19.3013 45.0399 19.279C45.0236 19.2606 45.0144 19.2499 44.9951 19.2301L44.9422 19.1772L44.3237 18.4855C44.1945 18.3449 44.0434 18.2146 43.8721 18.0949L42.2038 16.9271L41.5161 16.451L44.2464 15.5599C46.8611 14.7071 48.7464 12.2567 48.7467 9.37093ZM15.2954 32.5114C15.9199 32.359 16.6256 32.4027 17.2363 32.7759L21.6512 35.2702L21.6675 35.2783C22.239 35.6345 22.6869 36.1618 22.8556 36.8205C23.0138 37.4396 22.9599 38.1348 22.5749 38.737L22.5789 38.7411L22.2778 39.2375L24.1618 40.2995C24.2749 40.3639 24.3806 40.4339 24.4751 40.4989C24.5776 40.5689 24.6766 40.6439 24.7721 40.7227L25.0529 40.9749L25.3052 41.2435C25.3861 41.3384 25.4608 41.4359 25.529 41.5324C25.5954 41.6263 25.6652 41.7282 25.7284 41.8376C25.7912 41.9465 25.8437 42.0587 25.8911 42.1631C25.9375 42.2655 25.9857 42.377 26.0254 42.4927C26.0668 42.6134 26.0953 42.7365 26.119 42.8385C26.1445 42.9492 26.1695 43.0679 26.1841 43.1885L26.2085 43.5343L26.1963 43.8802C26.186 43.9965 26.1694 44.1152 26.1475 44.2261C26.127 44.3289 26.1024 44.4445 26.0661 44.5597L26.062 44.5638L25.9399 44.8812C25.8901 44.9941 25.8312 45.0971 25.7813 45.1823L21.7733 51.9775C21.7175 52.0729 21.6563 52.1693 21.5861 52.2624L21.3623 52.5269C21.2866 52.6079 21.2014 52.6891 21.11 52.7669C21.0149 52.8479 20.9139 52.9206 20.8293 52.9785L20.5322 53.1616C20.4292 53.2178 20.3233 53.2709 20.2148 53.3162L19.8771 53.4342C19.7574 53.4703 19.6357 53.4978 19.5272 53.5197C19.409 53.5429 19.286 53.5601 19.1691 53.5726C19.0531 53.5843 18.9246 53.5957 18.7988 53.597C18.677 53.5982 18.5555 53.594 18.4367 53.5848C18.3194 53.5756 18.1885 53.5618 18.0623 53.54L17.7002 53.4587C17.5843 53.428 17.4625 53.3917 17.3421 53.3488C17.2205 53.3054 17.1011 53.256 16.9922 53.2064C16.8756 53.1534 16.7652 53.0929 16.6626 53.0355L4.09342 45.9391L3.77604 45.7397C3.67366 45.6698 3.57447 45.5946 3.479 45.516C3.38524 45.4391 3.28907 45.3532 3.19824 45.2637C3.11208 45.1787 3.02552 45.0923 2.94596 44.9992C2.86444 44.9037 2.7907 44.8033 2.72217 44.7062C2.652 44.607 2.58383 44.5028 2.52279 44.397C2.46247 44.2922 2.40942 44.1844 2.36003 44.0755L2.22575 43.7419L2.12809 43.4001C2.10265 43.2898 2.08171 43.174 2.06706 43.0542L2.03857 42.7043C2.03586 42.5827 2.04527 42.4632 2.05485 42.3543C2.06525 42.2374 2.08212 42.1213 2.10368 42.0125C2.12425 41.9092 2.14868 41.7941 2.18506 41.6789L2.3112 41.3574C2.35899 41.2506 2.41324 41.1478 2.46989 41.0522L6.47787 34.2611C6.5331 34.1676 6.59418 34.0703 6.66504 33.9762C6.73462 33.8836 6.81157 33.7939 6.88884 33.7118L7.14111 33.4717L7.41781 33.2601C7.51264 33.1954 7.61335 33.1316 7.71484 33.077C7.81848 33.0204 7.92764 32.9719 8.0363 32.9264C8.14415 32.8817 8.25602 32.8393 8.36996 32.8044C8.48989 32.7682 8.6156 32.7408 8.72396 32.7189C8.83213 32.6976 8.95576 32.6754 9.08203 32.6619C9.20723 32.6494 9.33729 32.6469 9.45231 32.6457C9.5744 32.6445 9.69566 32.6487 9.81445 32.6579C9.93221 32.6671 10.0584 32.681 10.1847 32.7026C10.3062 32.7236 10.4293 32.7496 10.5469 32.78C10.6629 32.8106 10.7886 32.8469 10.909 32.8898C11.0226 32.9304 11.1418 32.9748 11.259 33.0282C11.3759 33.0812 11.4861 33.1418 11.5885 33.1991L13.3911 34.2163L13.7207 33.6792L13.7248 33.667C14.0911 33.1044 14.6323 32.6741 15.2954 32.5114ZM15.4907 33.3211C15.0651 33.4259 14.6941 33.7089 14.4246 34.1227L13.8997 34.9976L13.6882 35.3434L13.3382 35.144L11.1816 33.9274C11.0882 33.8752 11.0001 33.8285 10.9131 33.7891C10.8235 33.7482 10.7273 33.7105 10.6283 33.6751L10.3394 33.5856C10.2414 33.5603 10.1427 33.5372 10.0464 33.5205C9.95275 33.5045 9.85159 33.4959 9.74935 33.488C9.651 33.4804 9.55441 33.4749 9.46045 33.4758C9.35657 33.4768 9.25763 33.4789 9.16748 33.488L9.17155 33.492C9.0824 33.5015 8.98808 33.5128 8.88672 33.5327L8.89079 33.5368L8.6141 33.6019L8.35775 33.6955C8.27485 33.7301 8.19402 33.7678 8.11768 33.8094L8.11361 33.8135C8.03611 33.8551 7.96033 33.8996 7.88981 33.9478C7.81551 33.9987 7.74154 34.0525 7.67822 34.1064C7.61737 34.1584 7.55686 34.2199 7.49512 34.2855C7.43695 34.3474 7.38116 34.4118 7.33236 34.4767C7.28549 34.539 7.23832 34.6092 7.19401 34.6842L3.18604 41.4754L3.0721 41.6992C3.03824 41.7747 3.00813 41.8528 2.98258 41.9312C2.95944 42.0045 2.93963 42.0844 2.92155 42.1753C2.90464 42.2606 2.89222 42.3459 2.88493 42.4276C2.87694 42.5184 2.87084 42.6066 2.87272 42.688L2.89307 42.9484C2.90312 43.0308 2.92064 43.1208 2.94189 43.2129L3.01514 43.4733C3.04429 43.5582 3.07848 43.6454 3.11686 43.7297C3.15496 43.8135 3.20028 43.9007 3.24707 43.9819C3.29419 44.0636 3.3449 44.1458 3.40169 44.2261C3.45875 44.3069 3.51912 44.3859 3.58073 44.458C3.64321 44.5311 3.70929 44.6038 3.78011 44.6737C3.848 44.7406 3.92774 44.8073 4.00798 44.8731L4.24805 45.0521C4.327 45.1063 4.41262 45.1589 4.50439 45.2108L17.0695 52.3112L17.3381 52.4495L17.6229 52.5675C17.714 52.6 17.8116 52.6265 17.9118 52.653L18.2048 52.7181C18.2968 52.734 18.3956 52.7426 18.4977 52.7507C18.5968 52.7584 18.6959 52.7638 18.7907 52.7629C18.8835 52.7619 18.9806 52.7565 19.0796 52.7466L19.3644 52.7018L19.637 52.6367C19.7236 52.6102 19.8096 52.5819 19.8934 52.5472L20.1335 52.4292C20.2047 52.391 20.2818 52.3453 20.3613 52.2909C20.4445 52.234 20.5101 52.1821 20.5688 52.1322C20.6305 52.0797 20.6921 52.0213 20.752 51.9572C20.8098 51.8957 20.8683 51.8286 20.9188 51.7619C20.9664 51.6988 21.0103 51.6275 21.0531 51.5544L25.061 44.7632C25.11 44.6797 25.1497 44.61 25.179 44.5435C25.2128 44.4681 25.2429 44.3862 25.2686 44.3075C25.2915 44.2346 25.3115 44.1541 25.3296 44.0633C25.3463 43.9791 25.3589 43.8904 25.3662 43.807C25.3741 43.717 25.3802 43.6343 25.3784 43.5547L25.3581 43.2902C25.3482 43.2084 25.3303 43.1214 25.3092 43.0298L25.236 42.7653C25.2081 42.6841 25.175 42.5989 25.1343 42.509C25.0936 42.4193 25.0492 42.3349 25.0041 42.2567C24.9596 42.1797 24.9092 42.101 24.8494 42.0166C24.7927 41.9362 24.7317 41.8565 24.6704 41.7847C24.6073 41.7108 24.5411 41.6377 24.471 41.569C24.4033 41.5023 24.323 41.4351 24.2432 41.3696L24.0031 41.1865C23.9128 41.1245 23.8287 41.0704 23.7467 41.0238L21.4966 39.7542L21.1263 39.5426L21.8628 38.3138L21.8709 38.3016C22.1141 37.9275 22.1592 37.4717 22.0459 37.028C21.9423 36.6231 21.6607 36.265 21.2402 35.9985L16.8254 33.5042L16.8091 33.492C16.4235 33.2533 15.9506 33.2086 15.4907 33.3211ZM28.8778 30.7983L25.0814 36.3037L25.0855 36.3078C25.0168 36.412 24.9378 36.5055 24.8657 36.5967C24.972 37.1503 24.9811 37.7513 24.8576 38.3626L25.1546 38.5335L25.2035 38.562L25.2075 38.5661C25.3747 38.6638 25.518 38.7603 25.6144 38.8265C25.761 38.9267 25.9122 39.0361 26.0579 39.1561L26.0742 39.1683L26.4567 39.5142L26.4689 39.5264C26.5997 39.6545 26.7261 39.788 26.8433 39.9251C26.9734 40.0776 27.0841 40.2293 27.1769 40.3605C27.2528 40.4678 27.3718 40.6335 27.4821 40.8244C27.5893 41.0104 27.6722 41.188 27.7344 41.3249L27.9419 41.8376L27.946 41.8579L28.0884 42.3625L28.0965 42.3828L28.1942 42.9362V42.9525L28.2105 43.1763L28.9347 38.0737V37.9964L28.9388 37.9598L28.951 37.8906C28.992 37.6127 29.0512 37.3444 29.13 37.089L29.9642 30.2653L28.8778 30.7983ZM15.6779 34.082C15.8948 34.0121 16.1557 34.0021 16.4144 34.1593L20.8333 36.6536L20.8293 36.6577C20.9514 36.7132 21.0499 36.7876 21.1222 36.8774L21.2931 37.1948L21.3379 37.3698C21.3642 37.5475 21.3345 37.7433 21.2077 37.9395L21.2118 37.9435L20.7601 38.7004L20.5485 39.0462L20.1986 38.8468L14.8397 35.8276L14.4653 35.6161L14.6891 35.2458L15.1286 34.5256C15.2566 34.2636 15.5155 34.1352 15.6779 34.082ZM29.3502 38.1042L29.7607 38.1633L27.0955 57.0272L27.0752 57.1777L26.9653 57.2754L16.7196 66.5649C14.8306 68.2614 14.7295 71.1869 16.4551 73.0306C18.1823 74.8739 21.148 74.9707 23.0225 73.291L23.0265 73.287L34.6314 62.7767L34.9121 62.4959C35.5362 61.8284 35.9627 60.9966 36.1003 60.0098L37.675 48.7345L48.3968 59.6965L48.4578 59.7616L48.4904 59.847L52.8809 71.932C53.7273 74.3455 56.3962 75.5555 58.8216 74.7477C61.2723 73.9302 62.529 71.3213 61.7025 68.9209L61.6903 68.8965L56.9214 55.8268L56.7261 55.3752C56.5111 54.9513 56.2202 54.5491 55.8838 54.1829L55.8716 54.1667L46.5454 44.6493L46.4071 44.5068L46.4315 44.3075L47.7824 33.0892L48.7956 34.2163L48.7996 34.2204C49.2169 34.7025 49.7333 35.1366 50.3621 35.4533L51.0295 35.73L60.5428 38.7573C62.9799 39.5629 65.6338 38.2559 66.4266 35.8521L66.451 35.7666C67.2361 33.3669 65.8701 30.8104 63.4481 30.0537L63.3586 30.0252H63.3219L63.2568 30.0049L55.2043 27.4618L55.0944 27.4251L55.0212 27.3397L46.6064 17.9972L46.5983 17.981L46.4559 17.8263L45.8171 17.1224L46.285 16.8701C48.7579 15.5308 50.4992 13.0189 50.7406 10.0749L50.7731 9.37093C50.7725 4.94816 47.4042 1.31652 43.0949 0.878906L42.2078 0.830078C37.4932 0.836815 33.6676 4.65662 33.667 9.37093L33.6873 9.92432L33.7769 10.7178C34.0679 12.5437 34.9382 14.1754 36.1939 15.4216L36.6089 15.8325L23.23 22.3796L23.2096 22.3918C22.366 22.7441 21.6429 23.2926 21.1263 24.0967L16.9922 31.0343L16.9841 31.0506L16.9759 31.0588C16.972 31.0653 16.9649 31.0807 16.9556 31.0954L16.8091 31.3232L16.5405 31.2826C16.0093 31.2009 15.4807 31.2411 15.0106 31.3558C14.293 31.5319 13.6933 31.9117 13.2243 32.3975L13.0005 32.6294L12.7197 32.4666L12.1745 32.1615L11.735 31.9417L11.6659 31.9092C11.5399 31.8549 11.4189 31.8064 11.3078 31.7668C11.1467 31.7094 10.9943 31.6599 10.8602 31.6244L10.4085 31.5267L9.92025 31.4616L9.43197 31.4494C9.30496 31.4509 9.14253 31.4563 8.9681 31.4738L8.92334 31.4819C8.75757 31.5011 8.60757 31.5292 8.49609 31.5511L8.4554 31.5552C8.34025 31.5789 8.18555 31.6137 8.02816 31.661C7.87353 31.7083 7.71738 31.7653 7.5765 31.8237L7.15739 32.0272C7.01636 32.1029 6.87566 32.1831 6.74642 32.2713C6.62713 32.353 6.49648 32.451 6.368 32.5602L6.02214 32.8939L5.72917 33.2397L5.44027 33.6751L5.4362 33.6711L1.44857 40.4378C1.37281 40.5654 1.29445 40.7137 1.22477 40.8691C1.16082 41.0116 1.10264 41.1582 1.05387 41.3086L1.0498 41.3208C0.994082 41.4974 0.959681 41.6609 0.935872 41.7806C0.90756 41.9234 0.881519 42.0824 0.866699 42.2485C0.855542 42.3752 0.846909 42.5393 0.850423 42.7205V42.7287L0.887044 43.2251C0.908317 43.3902 0.938868 43.5446 0.968425 43.6727C0.994325 43.7841 1.03123 43.9272 1.08236 44.0837L1.09863 44.1284L1.27767 44.5719L1.49333 44.9951L1.75374 45.3939L2.03044 45.7601L2.34782 46.1019L2.72624 46.4396L3.10466 46.7245C3.25138 46.8251 3.39007 46.9103 3.50749 46.9767L16.0563 54.069L16.4998 54.2928L16.9393 54.4718L17.395 54.6143L17.4113 54.6183C17.5545 54.6552 17.7071 54.6891 17.863 54.716C18.0339 54.7454 18.197 54.7615 18.3431 54.773C18.4945 54.7847 18.6517 54.7908 18.811 54.7892L19.2871 54.7607L19.3075 54.7567C19.4477 54.7414 19.5996 54.7221 19.755 54.6916L19.7957 54.6834C19.9084 54.66 20.0624 54.6261 20.223 54.5776L20.2393 54.5695C20.369 54.5293 20.4964 54.4861 20.6217 54.4352L20.6706 54.4149C20.8061 54.3583 20.9458 54.2894 21.0897 54.2114L21.1955 54.1504C21.3186 54.0795 21.428 54.0157 21.5047 53.9632C21.5898 53.905 21.7361 53.8035 21.8831 53.6784C22.0105 53.5699 22.1193 53.4535 22.2249 53.3407L22.29 53.2674C22.3737 53.174 22.4623 53.0791 22.5383 52.9785C22.639 52.8446 22.7244 52.7106 22.7987 52.5838L26.8066 45.7886L26.8351 45.7438C26.8777 45.6703 26.9287 45.5659 26.9857 45.4468L27.0304 45.3532C27.095 45.2078 27.1525 45.068 27.1973 44.93L27.2013 44.9178C27.2569 44.7416 27.2916 44.5767 27.3153 44.458L27.3844 43.9819C27.396 43.8491 27.4048 43.6851 27.4007 43.5059L27.3641 43.0379L27.2868 42.5903L27.1444 42.0858C27.0895 41.9289 27.0287 41.7838 26.9775 41.6707C26.9188 41.5412 26.8485 41.3938 26.7619 41.2435C26.6744 41.0919 26.5785 40.9593 26.4974 40.8447C26.41 40.721 26.3151 40.5912 26.2085 40.4663C26.1114 40.3528 26.0085 40.2403 25.8993 40.1327L25.529 39.799L25.1424 39.5142C25.0403 39.4441 24.903 39.3502 24.7477 39.2619L24.6989 39.2334L24.6908 39.2253L24.1862 38.9404L23.8973 38.7817L23.9868 38.4644C24.1695 37.82 24.1577 37.1657 24.0194 36.5845L23.9705 36.3851L24.1048 36.2223C24.2119 36.0925 24.3077 35.9726 24.3897 35.848L24.3937 35.8398L28.2511 30.2409L28.3122 30.1473L28.4098 30.1025L30.2856 29.1829L30.9774 28.8452L30.8838 29.6061L29.9561 37.2192L29.952 37.2599L29.9398 37.2966C29.8668 37.5258 29.8096 37.7665 29.773 38.0168V38.0249L29.7689 38.0412V38.1633L29.3502 38.1042ZM15.9749 34.8633C15.9739 34.8633 15.9714 34.8667 15.9668 34.8674C15.96 34.8683 15.949 34.8708 15.9342 34.8755C15.9024 34.8859 15.8775 34.895 15.8651 34.904V34.9203L15.8407 34.9609L15.625 35.3109L20.2515 37.9191L20.4997 37.5122L20.5119 37.4919C20.5111 37.4866 20.5085 37.4776 20.5037 37.4634C20.494 37.4364 20.4834 37.4127 20.4753 37.4023L20.459 37.3983L20.4224 37.3779L16.0075 34.8836L15.9871 34.8714L15.9749 34.8633ZM49.5768 9.37093C49.5765 12.6291 47.4499 15.3925 44.5028 16.3534L43.3634 16.7236L44.3481 17.4113C44.563 17.5613 44.7637 17.7288 44.9422 17.924L44.9463 17.9281L45.5485 18.6035L45.5851 18.6401C45.6187 18.6744 45.6388 18.699 45.6624 18.7256L45.7642 18.8355L54.4312 28.4709L63.1348 31.2175H63.1714L63.2406 31.2419C64.9649 31.8639 65.8805 33.7137 65.3117 35.4167L65.3158 35.4207L65.3076 35.4696C64.73 37.2384 62.7472 38.2361 60.9131 37.6261L60.9009 37.6221L51.3916 34.5947L51.3835 34.5907C50.7018 34.3652 50.1643 33.9543 49.7274 33.4554L49.6948 33.4269L46.9157 30.3467L45.1945 44.6493L45.1904 44.6533L45.1538 44.9341L55.0171 55.0008L55.0293 55.013L55.2775 55.3141C55.509 55.6158 55.6847 55.9226 55.7943 56.2175L60.5672 69.2912L60.5713 69.2993C61.19 71.0796 60.2632 73.0096 58.4432 73.6165C56.5929 74.2316 54.6229 73.2982 54.008 71.5373L54.0039 71.5291L49.5402 59.2367L49.4954 59.1105L49.4059 59.021L36.8286 46.167L36.6618 47.3714L34.9162 59.847C34.8002 60.6754 34.4194 61.3535 33.8338 61.8897L22.229 72.3958L22.2249 72.3999C20.823 73.6552 18.6046 73.5722 17.3299 72.2127C16.1336 70.9355 16.1303 68.9701 17.273 67.7043L17.2852 67.688L17.5171 67.4561L28.0355 57.9224L28.1942 57.7759L28.2227 57.5684L30.953 38.2365V38.2243L30.957 38.2039V38.1673L30.9652 38.1348C30.9958 37.9485 31.04 37.7617 31.1035 37.5773L31.1239 37.5122L31.132 37.4552C31.1326 37.45 31.1352 37.4374 31.1361 37.4308V37.4186L32.4219 26.7985L27.6449 29.1504L27.4943 29.2236L27.4089 29.3579L23.6654 34.8022L23.3805 35.2132L23.0265 34.8592C22.7954 34.6297 22.5596 34.4325 22.3145 34.2773L22.29 34.2651L22.2453 34.2407L22.2371 34.2326L18.2983 32.0028L17.9281 31.7912L18.1437 31.425L22.111 24.7762L22.1232 24.7559L22.1313 24.7437C22.5098 24.1546 23.0429 23.7411 23.7142 23.4701L23.7467 23.4538L37.2274 16.862L37.2518 16.8498L37.5855 16.7155L37.6058 16.7074C37.7324 16.6637 37.8643 16.6275 37.9964 16.5975L39.3636 16.2842L38.1877 15.5151C36.183 14.2003 34.8595 11.939 34.8592 9.37093C34.8598 5.31543 38.1552 2.02698 42.2201 2.02637H42.2404L42.9525 2.06299H42.9728L43.6605 2.16471C47.0357 2.83344 49.5763 5.80705 49.5768 9.37093Z" fill="#113C7B"/>
</svg>
