<svg width="74" height="77" viewBox="0 0 74 77" fill="none" xmlns="http://www.w3.org/2000/svg">
<path d="M56.873 60.4045C57.7303 60.4045 58.46 61.0852 58.46 61.9629C58.4597 62.8382 57.7329 63.5213 56.873 63.5213C56.017 63.5206 55.2868 62.8444 55.2861 61.967C55.2861 61.0919 56.0136 60.4051 56.873 60.4045Z" fill="#113C7B"/>
<path d="M56.873 57.1248C57.7294 57.1248 58.4588 57.8018 58.46 58.6792C58.46 59.5547 57.733 60.2417 56.873 60.2417C56.0164 60.241 55.2861 59.5606 55.2861 58.6833C55.2868 57.8095 56.0138 57.1255 56.873 57.1248Z" fill="#113C7B"/>
<path fill-rule="evenodd" clip-rule="evenodd" d="M36.8372 0C46.1724 3.70875e-05 54.9538 3.53553 61.5605 9.9528C68.1685 16.3732 71.8144 24.9134 71.8144 34.0006C71.8144 38.7114 70.8299 43.2646 68.9132 47.5464C68.8748 49.494 68.4395 51.674 67.6234 54.1056C71.8731 57.4822 73.9075 61.4632 73.6577 66.1499C73.6337 66.6018 73.4113 67.0055 73.0718 67.277L72.6974 67.5008C67.8649 69.5313 61.9566 70.3744 56.4499 69.8324C55.4611 69.9294 54.4493 69.9785 53.4266 69.987C53.3576 70.0641 53.2817 70.1383 53.1947 70.2026C47.7782 74.188 41.7058 76.2274 35.1608 76.2451C28.6124 76.2282 22.5348 74.1921 17.1188 70.2067C17.0904 70.186 17.0633 70.1593 17.0374 70.1375C16.8083 70.1461 16.5782 70.1579 16.3538 70.1579C15.8663 70.1578 15.3831 70.1325 14.9093 70.0928C14.456 70.1296 13.9961 70.1538 13.534 70.1538C8.78785 70.1555 3.50546 68.2636 0.468416 65.3158C0.0576319 64.9165 -0.0978833 64.3257 0.0615145 63.7777C0.944523 60.7576 2.2189 58.4254 4.05321 56.6488C1.46746 50.6178 0.818222 45.0917 2.2303 40.2425L2.37271 39.7909C2.03585 37.8892 1.86002 35.9424 1.86002 34.0006C1.86033 24.9146 5.50864 16.3714 12.1139 9.9528C18.7208 3.53463 27.5027 0.000309909 36.8372 0ZM42.5664 58.9518C41.9707 60.3372 41.1209 61.4435 39.9907 62.2477C38.7152 63.155 37.1296 63.6489 35.2625 63.7736C35.1929 63.7781 35.1205 63.7782 35.0509 63.7736C33.184 63.648 31.598 63.1552 30.3227 62.2477C29.1938 61.4441 28.3426 60.3389 27.7471 58.9559C27.1766 59.1463 26.6256 59.3647 26.1072 59.6232L26.1032 59.6191C26.0175 59.6735 25.9293 59.7241 25.8346 59.7616L25.2283 60.1034C22.3776 61.8346 20.444 64.6709 19.784 68.2454C20.7691 68.9252 21.776 69.5345 22.8032 70.0724V67.6758C22.8032 66.7997 23.5292 66.119 24.3861 66.1173C25.2443 66.1173 25.973 66.7986 25.973 67.6758V71.4803C28.8924 72.56 31.9594 73.1151 35.1567 73.1242C38.3524 73.117 41.4205 72.5644 44.3405 71.4844V67.6758C44.3405 66.7992 45.0667 66.1188 45.9233 66.1173C46.7809 66.1173 47.5102 66.7984 47.5102 67.6758V70.0765C48.5365 69.5394 49.5411 68.9283 50.5254 68.2495C49.6888 63.7157 46.8038 60.3652 42.5664 58.9518ZM8.64713 57.1696C8.03597 57.4819 7.48518 57.8306 6.98697 58.2194C6.9576 58.244 6.92144 58.2665 6.88524 58.2926C5.33413 59.5345 4.24261 61.2414 3.40624 63.7044C4.20759 64.3457 5.15701 64.922 6.20572 65.4053V63.4277C6.20607 62.5513 6.93509 61.87 7.79263 61.8693C8.65028 61.8698 9.37513 62.5512 9.37548 63.4277V66.5039C11.1765 66.9502 13.0444 67.1404 14.7669 66.984H15.068C15.6272 67.0344 16.208 67.038 16.8014 67.0207C17.4329 64.2199 18.6935 61.9636 20.2886 60.2051C19.8374 60.4173 19.3131 60.4204 18.8685 60.1888L14.9215 58.1299L10.9787 60.1888C10.4914 60.4428 9.90099 60.4309 9.42431 60.1522C8.9459 59.8726 8.64731 59.3634 8.64713 58.8094V57.1696ZM61.8291 54.0405C60.4022 54.8459 58.3983 55.2287 56.458 55.2287C54.5158 55.2285 52.5134 54.8463 51.0869 54.0405C49.1773 55.0863 47.6173 56.1521 46.3709 57.2713C49.5533 59.1062 52.3775 62.2248 53.4713 66.866C54.4295 66.857 55.3743 66.8146 56.2912 66.7196H56.6248C61.3003 67.2027 66.2934 66.5676 70.492 65.0024C70.3434 60.7648 67.678 57.2426 61.8291 54.0405ZM48.792 51.062C48.2617 51.8676 47.3734 52.431 46.4116 52.6449C45.849 53.459 44.7609 53.9673 43.1564 53.9673C42.8946 53.9671 42.641 53.9207 42.3955 53.8615C42.1681 54.1521 41.9305 54.439 41.6631 54.7038C39.9613 56.3881 37.6456 57.3155 35.1608 57.3242C32.6709 57.3149 30.3554 56.3881 28.6544 54.7038C28.3883 54.4391 28.143 54.154 27.9139 53.8615C27.6697 53.9201 27.4176 53.9672 27.1571 53.9673C25.5484 53.967 24.4549 53.4589 23.8937 52.6408C23.0532 52.4515 22.2691 51.9984 21.7331 51.3468C21.0339 52.1662 20.2553 52.8015 19.4341 53.2756C19.5363 53.2649 19.6405 53.2626 19.7433 53.2715L20.1095 53.3447L20.9884 53.658C22.8345 54.3632 24.3366 55.2715 25.5986 56.4412C26.5354 56.0382 27.4833 55.7313 28.4103 55.5257C29.2276 55.3458 30.0674 55.8241 30.2902 56.6447C30.6541 57.9926 31.2144 58.9283 31.9788 59.554C32.7365 60.1735 33.7624 60.5404 35.1567 60.6486C36.5514 60.5406 37.5766 60.1734 38.3346 59.554C39.0996 58.9283 39.6589 57.9931 40.0233 56.6447C40.2463 55.8201 41.0927 55.3458 41.9072 55.5257C42.3574 55.6256 42.8116 55.7542 43.2663 55.9001C44.7687 54.3484 46.6857 52.9251 49.0565 51.5828C48.9668 51.4088 48.8763 51.2363 48.792 51.062ZM21.196 58.8094C21.1959 59.0263 21.1371 59.229 21.0535 59.4198C21.5701 58.9294 22.1157 58.4856 22.6771 58.0851C22.2285 57.751 21.7362 57.4438 21.1919 57.1655L21.196 58.8094ZM11.1984 53.5848C11.5895 53.8774 11.8291 54.3335 11.8291 54.8258L11.825 56.2093L14.1769 54.9845L14.181 54.9805C14.6453 54.7403 15.2018 54.7423 15.6662 54.9845L18.0181 56.2093V54.8258C18.016 54.4102 18.1876 54.0253 18.4697 53.7394C17.3279 54.2196 16.1486 54.4434 15.0273 54.4434C14.5568 54.4432 14.0959 54.4088 13.6561 54.3416C12.8351 54.2154 12.0034 53.9568 11.1984 53.5848ZM14.9175 33.0159C10.4369 33.4421 6.56629 36.6725 5.27799 41.097C4.14621 44.985 4.58633 49.5422 6.66552 54.6916C7.59346 54.1641 8.6131 53.7162 9.73355 53.3447C10.051 53.2388 10.3892 53.2472 10.702 53.3407C8.17852 51.9921 6.03696 49.4013 5.6564 45.5811C5.42089 43.2172 5.93077 40.6408 7.1009 38.1307C7.33409 37.6314 7.81582 37.2952 8.35823 37.2314C8.89896 37.1718 9.44609 37.3877 9.79052 37.8174C10.7882 39.0633 12.6274 39.8986 14.7588 39.9577C16.5865 40.0086 18.2144 39.4719 19.2998 38.5783C19.2997 38.5666 19.2998 38.5534 19.2998 38.5417C19.3003 37.3004 19.9182 36.203 20.8542 35.5062C19.1471 34.0958 17.0783 33.2204 14.9175 33.0159ZM35.1567 39.4938C34.6113 39.7948 33.9967 39.9757 33.3501 40.0024C32.7588 40.0273 32.179 39.9257 31.6411 39.7176C31.4261 39.9451 31.1884 40.1537 30.9168 40.3239C30.6031 40.5192 30.2579 40.6632 29.8996 40.7674C29.9668 41.5457 29.7914 42.3036 29.3706 43.0013L29.1183 43.3756C28.6039 44.0611 27.8072 44.4467 26.9495 44.4499V45.7479H27.446C27.8632 45.7481 28.2686 45.9116 28.569 46.2077L28.7684 46.4478C28.9422 46.7059 29.0384 47.0127 29.0329 47.3307C28.9965 49.504 29.6626 51.2768 30.9046 52.5065C31.9968 53.5872 33.5031 54.1923 35.1608 54.1992C36.6063 54.1953 37.9434 53.7342 38.9857 52.8931L39.4129 52.5065C40.6543 51.2744 41.321 49.5034 41.2847 47.3307C41.2778 46.908 41.4501 46.5035 41.7485 46.2077L41.9927 46.0124C42.2511 45.8432 42.5568 45.7483 42.8716 45.7479H43.368V44.4499C42.5092 44.4468 41.7131 44.0588 41.1992 43.3756C40.5999 42.5784 40.3308 41.6858 40.4098 40.7674C40.0529 40.6635 39.7136 40.5167 39.4007 40.3198C39.1284 40.1491 38.8808 39.9476 38.6642 39.7176C38.128 39.9227 37.551 40.025 36.9634 40.0024C36.3167 39.9755 35.7022 39.7951 35.1567 39.4938ZM65.7231 46.7448C65.2214 48.5029 64.5985 50.1122 63.8514 51.591C64.2081 51.7935 64.5561 51.998 64.8931 52.2054C65.5254 50.0844 65.7984 48.2688 65.7231 46.7448ZM58.6146 48.5758C57.4545 47.4766 55.4618 47.476 54.3014 48.5758C53.8782 48.9761 53.2714 49.1098 52.7267 48.9421L52.4989 48.8525L50.9445 48.0957C51.3463 49.171 51.8149 50.1387 52.4337 51.2004C52.7576 51.4514 53.2841 51.6837 53.984 51.8473C54.7197 52.0191 55.5854 52.1077 56.458 52.1077C57.3297 52.1077 58.1926 52.0187 58.9279 51.8473C59.627 51.6842 60.1535 51.4508 60.4782 51.2004C61.0269 50.2503 61.5102 49.2231 61.9349 48.112L60.4171 48.8525C60.1963 48.9585 59.9516 49.0153 59.7132 49.0153C59.3138 49.0148 58.9175 48.8627 58.6146 48.5758ZM9.229 41.4632C8.8397 42.8063 8.69607 44.1006 8.81396 45.284C9.17789 48.9265 11.7681 50.8988 14.1444 51.2655C16.059 51.5596 18.5354 50.9062 20.0648 48.2463C19.9798 48.0757 19.9029 47.8959 19.841 47.7091C19.5297 46.7664 19.5329 45.5977 19.9671 44.5679C19.4045 43.9651 19.0324 43.1906 18.9539 42.3462C17.6516 42.8541 16.1876 43.1162 14.6733 43.0745C12.6619 43.0195 10.7562 42.446 9.229 41.4632ZM24.5325 48.0998C24.6641 48.5641 24.5708 49.0615 24.2721 49.4507C24.2975 49.4707 24.3243 49.496 24.3576 49.5158C24.4809 49.5885 24.6206 49.6294 24.7401 49.6297C24.7592 49.6297 24.78 49.6284 24.8011 49.6256C25.2702 49.5489 25.7545 49.6861 26.1154 50C26.0316 49.6163 25.9716 49.2224 25.9282 48.82C25.3898 48.7233 24.9052 48.4689 24.5325 48.0998ZM45.7687 48.112C45.3953 48.4774 44.9099 48.7255 44.373 48.82C44.3299 49.221 44.2732 49.6134 44.1899 49.9959C44.5524 49.6792 45.042 49.5497 45.5083 49.6256C45.5278 49.6285 45.5474 49.6297 45.5693 49.6297C45.6889 49.6297 45.8281 49.5885 45.9518 49.5158C45.9856 49.4959 46.006 49.465 46.0291 49.4466C45.738 49.0632 45.6424 48.5713 45.7687 48.112ZM23.7716 44.4255C23.7035 44.8315 23.482 45.2041 23.1328 45.4468C22.9861 45.5504 22.8694 45.7306 22.8154 45.9839C22.7608 46.2413 22.7835 46.5245 22.8561 46.7448L22.9009 46.8587C22.92 46.8996 22.9395 46.9349 22.9578 46.9604C23.3264 46.9482 23.6864 47.0648 23.9751 47.2819C23.8472 46.9805 23.7719 46.6501 23.7716 46.3013V44.4255ZM46.5378 46.3013C46.5375 46.6509 46.4587 46.9799 46.3302 47.2819C46.617 47.0649 46.9765 46.949 47.3475 46.9604C47.3665 46.9346 47.3888 46.9005 47.4085 46.8587C47.4283 46.8166 47.4433 46.7749 47.4533 46.7448L47.5225 46.3786C47.5298 46.2489 47.5214 46.1125 47.494 45.9839C47.4394 45.7296 47.3249 45.5462 47.1766 45.4427C46.8535 45.2184 46.6238 44.8823 46.5378 44.5028V46.3013ZM53.8742 39.2944C52.8107 39.3384 51.7011 39.5078 50.8061 39.7461C50.7855 39.8074 50.765 39.8688 50.741 39.9292C51.1433 40.5369 51.3758 41.2491 51.3758 41.9963C51.3754 42.8986 51.041 43.7372 50.4888 44.401L53.0115 45.6217C55.0865 44.2917 57.8238 44.2931 59.9004 45.6217L63.1393 44.0552C63.2905 43.3731 63.4237 42.6652 63.5421 41.9312C62.3455 40.8447 60.7568 40.1939 58.9279 40.1164C58.1372 40.0835 57.4475 39.927 56.7225 39.6118C56.1338 39.357 55.087 39.2445 53.8742 39.2944ZM35.1486 28.4587C34.8806 28.4596 34.6889 28.6683 34.6888 28.8859C34.6888 28.9168 34.6947 28.9471 34.701 28.9754L34.7376 29.2358C34.7759 29.8328 34.4602 30.4013 33.9279 30.6925C33.319 31.0261 32.5542 30.9292 32.0521 30.4525C31.9373 30.3424 31.7808 30.2738 31.6086 30.2734C31.2457 30.2741 30.9779 30.5614 30.9779 30.8716C30.9779 30.9015 30.9799 30.9339 30.986 30.9692L31.0104 31.2215C31.0175 31.8053 30.6866 32.3499 30.1559 32.6213C29.5583 32.9257 28.8215 32.8285 28.3289 32.3649L28.0889 32.2103C28.0008 32.1756 27.9037 32.1576 27.804 32.1574C27.484 32.1578 27.2267 32.3354 27.1164 32.5806L27.0594 32.8451C27.0461 33.2943 26.8349 33.7186 26.4816 34.0047C26.1351 34.2841 25.6863 34.4088 25.2446 34.3465C25.2073 34.3413 25.1656 34.3384 25.1266 34.3384C24.7006 34.339 24.3822 34.6709 24.382 35.0423C24.382 35.1766 24.4235 35.307 24.5 35.4207C24.8206 35.8975 24.8521 36.5128 24.5732 37.0199L24.5692 37.0158C24.2941 37.5203 23.7661 37.8299 23.1979 37.8377C22.7811 37.8435 22.4664 38.1771 22.4655 38.5417C22.4655 38.7219 22.5354 38.8965 22.6689 39.0299C22.9976 39.3577 23.1593 39.8132 23.1125 40.2751L23.1165 40.2791C23.0813 40.6298 22.927 40.9492 22.6893 41.1947L22.4248 41.4144C22.22 41.5502 22.1033 41.7711 22.1033 41.9963C22.1041 42.296 22.3173 42.5822 22.6405 42.6717C23.2127 42.8295 23.6568 43.2932 23.7716 43.8802C23.7878 42.4609 24.9792 41.3418 26.4002 41.3411H26.6769C26.7242 41.2496 26.7494 41.1674 26.7502 41.0807C26.7509 40.9719 26.7181 40.7931 26.5589 40.5233L26.3555 40.2222C25.9538 39.696 25.9305 38.9769 26.2985 38.4277C26.6641 37.8829 27.3335 37.6235 27.9709 37.7645L28.3981 37.8296C28.7855 37.8606 29.0507 37.7933 29.2078 37.6953C29.3424 37.6103 29.4687 37.4558 29.5334 37.146L29.5944 36.9263C29.7745 36.4375 30.1927 36.0703 30.7052 35.9456C31.288 35.8073 31.9126 36.0002 32.3044 36.4624C32.5552 36.7605 32.8903 36.901 33.2158 36.8896C33.4244 36.8811 33.6035 36.8105 33.7366 36.6943L33.8546 36.5641C34.1535 36.1449 34.6415 35.9016 35.1527 35.9009C35.6643 35.9009 36.1512 36.1452 36.4507 36.5641C36.585 36.7529 36.813 36.8773 37.0895 36.8896C37.415 36.902 37.7471 36.7624 38.001 36.4624C38.3927 35.9973 39.0194 35.8046 39.6042 35.9456C40.1166 36.0704 40.5349 36.4375 40.715 36.9263L40.776 37.146L40.8371 37.3494C40.9056 37.528 41.0005 37.6315 41.1016 37.6953C41.3096 37.8262 41.7073 37.903 42.3345 37.7645C42.9683 37.6228 43.6436 37.878 44.0109 38.4277C44.332 38.9084 44.356 39.5173 44.0882 40.0146L43.9539 40.2222C43.6143 40.6658 43.5542 40.9364 43.5552 41.0807C43.556 41.1672 43.5848 41.2492 43.6325 41.3411H43.9092C45.3219 41.3411 46.5001 42.4454 46.5296 43.8558C46.6514 43.2834 47.0898 42.8265 47.6567 42.6717C47.9815 42.5832 48.1937 42.2986 48.1938 41.9963C48.1938 41.77 48.0789 41.5511 47.8724 41.4144C47.4876 41.1589 47.2333 40.7447 47.1847 40.2832C47.1363 39.8184 47.2993 39.3589 47.6282 39.0299C47.7641 38.8938 47.8356 38.7244 47.8358 38.5457C47.8358 38.1804 47.5211 37.844 47.1033 37.8377C46.677 37.8321 46.272 37.657 45.9803 37.3576L45.728 37.0199C45.4533 36.5155 45.4791 35.8992 45.8013 35.4207L45.8867 35.2417C45.9062 35.1783 45.9193 35.1104 45.9193 35.0423C45.9182 34.6723 45.601 34.339 45.1746 34.3384C45.1344 34.3384 45.0914 34.3416 45.0566 34.3465C44.6147 34.4085 44.166 34.2848 43.8197 34.0047C43.5594 33.7919 43.3717 33.5012 43.2907 33.1787L43.2419 32.8451C43.2316 32.4866 42.9105 32.1574 42.4972 32.1574C42.2971 32.1582 42.1132 32.2356 41.9764 32.3649C41.4843 32.8297 40.7427 32.9316 40.1413 32.6213C39.5364 32.3097 39.1965 31.6411 39.3153 30.9692C39.3204 30.9332 39.3233 30.9011 39.3234 30.8716C39.3234 30.561 39.0562 30.2734 38.6927 30.2734C38.5224 30.2738 38.3624 30.3406 38.2451 30.4525C37.7415 30.9295 36.9794 31.0227 36.3734 30.6925C35.7607 30.3584 35.4361 29.6633 35.5962 28.9795C35.6035 28.9462 35.6084 28.9149 35.6084 28.8859C35.6083 28.6678 35.4176 28.4587 35.1486 28.4587ZM63.6886 32.2591C63.7411 32.3224 63.8001 32.3814 63.8514 32.4463C65.4797 34.5051 66.4484 37.2257 66.7363 40.332L66.9601 40.3605L66.8909 40.9505C67.1368 41.2702 67.3624 41.6069 67.5705 41.9596C68.2778 39.3835 68.6406 36.7218 68.6406 34.0006C68.6406 33.4158 68.6176 32.8354 68.5836 32.2591H63.6886ZM62.118 35.5225C60.603 36.0769 58.664 36.3565 56.7388 36.381C57.1879 36.4745 57.617 36.5917 58.0042 36.7594C58.3611 36.9146 58.6728 36.9865 59.0662 37.0036L59.7905 37.0565C60.9667 37.1816 62.0863 37.492 63.1149 37.9598C62.8563 37.0256 62.511 36.2202 62.118 35.5225ZM50.2731 36.3403C50.3393 36.4309 50.4063 36.5209 50.4643 36.617C51.3995 36.4015 52.4782 36.2435 53.5609 36.1857C52.5137 36.0372 51.5266 35.8037 50.68 35.4818C50.5345 35.7541 50.3973 36.0399 50.2731 36.3403ZM24.5122 5.54606C20.9474 7.00695 17.71 9.074 14.946 11.6252H17.0334C19.5852 11.6252 21.692 13.6447 21.6924 16.1662C21.6924 18.6891 19.5837 20.7112 17.0334 20.7113H14.4251V21.0693C14.4251 22.7772 13.0009 24.1374 11.2879 24.1374H6.70621C5.62725 27.2366 5.03398 30.552 5.03385 34.0006C5.03385 34.3258 5.04349 34.6521 5.05419 34.9772C7.46748 32.112 10.9493 30.2208 14.7832 29.9032H15.0558L16.126 30.0334C16.8844 30.1565 17.6298 30.3464 18.3558 30.5908V26.7619C18.356 24.2368 20.4648 22.2143 23.0189 22.2127H30.8273C31.3077 22.2127 31.6696 21.8346 31.6696 21.4111C31.6692 20.9873 31.3073 20.6095 30.8273 20.6095C28.6623 20.6089 26.8809 18.8803 26.8804 16.7277V13.8509C25.4088 12.7279 24.5128 11.0091 24.5122 9.1512V5.54606ZM57.0439 31.7993C55.5204 31.6082 54.086 32.0077 52.8732 32.8898C53.8752 33.1205 55.0984 33.2531 56.3522 33.2601C57.6007 33.2669 58.8329 33.1475 59.8597 32.9305C58.9366 32.2723 57.9522 31.9132 57.0439 31.7993ZM49.1541 20.3817C49.1541 22.4724 47.4094 24.1388 45.3008 24.1414H42.3629C42.1712 24.143 42.0364 24.2974 42.0334 24.4385C42.0017 25.7714 41.1458 26.8947 39.9663 27.3763C40.8385 27.6792 41.5651 28.282 42.013 29.0649C42.1731 29.0454 42.3371 29.0406 42.5013 29.0405C44.1038 29.0405 45.4765 29.97 46.082 31.3314C47.087 31.5655 47.9393 32.1775 48.4787 33.0119C49.131 32.0482 49.9116 31.2235 50.7817 30.5542V22.9126C50.7819 20.5257 52.7764 18.6164 55.1885 18.6157H55.2536C55.4516 18.6157 55.5832 18.4595 55.5832 18.3105V16.6707C55.5841 14.5784 57.3311 12.9075 59.4406 12.9069H60.0265C56.9955 9.76589 53.2993 7.24436 49.1541 5.54606V20.3817ZM36.8372 3.11686C33.6559 3.11698 30.5819 3.57892 27.682 4.42708V9.1512C27.6826 10.1804 28.2662 11.1471 29.2241 11.6618C29.7272 11.9308 30.0497 12.4536 30.0501 13.029V16.7277C30.0506 17.1459 30.3966 17.492 30.8273 17.4927C33.0236 17.4927 34.839 19.2337 34.8393 21.4111C34.8393 23.5885 33.0237 25.3296 30.8273 25.3296H23.0189C22.1807 25.3312 21.5258 25.9895 21.5255 26.7619V32.1208C21.7415 32.2601 21.9553 32.405 22.1644 32.5562C22.6932 31.9544 23.4089 31.5136 24.2233 31.3232C24.8298 29.963 26.2083 29.041 27.8081 29.0405C27.9709 29.0406 28.1335 29.0457 28.2923 29.0649C28.9444 27.9235 30.1929 27.1573 31.6126 27.1566C31.7352 27.1566 31.8585 27.1657 31.9788 27.1769C32.5997 26.0777 33.7945 25.3383 35.1567 25.3377C35.5386 25.3377 35.9066 25.4011 36.2513 25.5086C36.8591 24.8958 37.7101 24.5121 38.6479 24.5117H38.6968C38.7442 24.5117 38.7903 24.4936 38.8229 24.4629C38.8546 24.4327 38.8665 24.3988 38.8677 24.3693C38.9122 22.5094 40.4952 21.0259 42.367 21.0246H45.3008C45.6912 21.0246 45.9803 20.7186 45.9803 20.3817V4.42301C43.0844 3.57725 40.0143 3.11688 36.8372 3.11686ZM59.4406 16.0238C59.0484 16.025 58.7579 16.3324 58.757 16.6707V18.3105C58.757 20.2121 57.17 21.7316 55.2576 21.7326H55.1885C54.4928 21.7341 53.9557 22.2802 53.9556 22.9126V28.9673C55.0674 28.6602 56.2439 28.5594 57.4468 28.7109C58.0648 28.789 58.6655 28.938 59.2493 29.1382H68.2418C67.4504 24.3037 65.4969 19.8432 62.6714 16.0238H59.4406ZM12 14.742C10.4165 16.6614 9.06665 18.7679 7.98795 21.0205H11.2554V20.6991C11.2562 18.9691 12.7012 17.591 14.4373 17.5903H17.0334C17.8693 17.5903 18.5185 16.9352 18.5185 16.1662C18.5182 15.3969 17.869 14.742 17.0334 14.742H12Z" fill="#113C7B"/>
</svg>
