<svg xmlns="http://www.w3.org/2000/svg" xmlns:xlink="http://www.w3.org/1999/xlink" width="1200" zoomAndPan="magnify" viewBox="0 0 900 899.99999" height="1200" preserveAspectRatio="xMidYMid meet" version="1.2"><defs><clipPath id="0a4600bb8d"><path d="M 41 133.808594 L 368 133.808594 L 368 468 L 41 468 Z M 41 133.808594 "/></clipPath><clipPath id="c90aa81f38"><path d="M 53 133.808594 L 238 133.808594 L 238 385 L 53 385 Z M 53 133.808594 "/></clipPath><clipPath id="608f1f53f6"><path d="M 619 6 L 860.386719 6 L 860.386719 330 L 619 330 Z M 619 6 "/></clipPath></defs><g id="cf3165606c"><g clip-rule="nonzero" clip-path="url(#0a4600bb8d)"><path style=" stroke:none;fill-rule:nonzero;fill:#113c7b;fill-opacity:1;" d="M 367.222656 250.238281 C 356.550781 216.445312 334.933594 186.484375 306.199219 165.6875 C 283.078125 148.71875 255.851562 138.046875 227.53125 135.039062 C 226.84375 134.902344 226.296875 134.765625 225.613281 134.765625 C 219.867188 134.082031 214.121094 133.808594 208.238281 133.808594 C 140.648438 133.808594 80.175781 174.03125 54.179688 236.421875 C 45.699219 256.671875 41.320312 278.152344 41.320312 300.589844 C 41.320312 392.667969 116.160156 467.644531 208.238281 467.644531 C 215.078125 467.644531 222.054688 467.234375 229.171875 466.140625 C 229.71875 466.140625 230.402344 466.140625 230.949219 466.003906 C 241.074219 464.632812 250.925781 462.445312 260.367188 459.296875 C 266.796875 457.109375 270.765625 450.40625 269.394531 443.703125 C 267.480469 433.714844 266.523438 423.589844 266.523438 413.464844 C 266.523438 402.929688 267.617188 392.121094 269.667969 381.3125 C 275.140625 354.632812 287.320312 329.730469 304.832031 309.070312 C 319.882812 291.148438 339.035156 276.507812 359.96875 266.796875 C 366.261719 263.785156 369.273438 256.808594 367.222656 250.238281 Z M 284.035156 291.285156 C 281.710938 294.023438 279.382812 296.894531 277.195312 299.90625 C 261.460938 320.703125 250.105469 344.78125 244.222656 370.503906 L 244.222656 370.640625 C 243.675781 372.417969 243.261719 374.335938 242.851562 376.113281 C 240.390625 388.5625 239.160156 401.152344 239.160156 413.464844 C 239.160156 421.125 239.707031 428.789062 240.527344 436.449219 C 236.285156 437.542969 231.769531 438.367188 227.253906 438.914062 C 223.289062 439.460938 219.320312 439.871094 215.488281 440.007812 C 213.027344 440.28125 210.5625 440.28125 208.238281 440.28125 C 131.347656 440.28125 68.683594 377.617188 68.683594 300.589844 C 68.683594 287.179688 70.460938 274.046875 74.292969 261.457031 C 75.660156 256.535156 77.300781 251.746094 79.355469 246.957031 C 101.109375 194.828125 151.730469 161.171875 208.238281 161.171875 C 213.300781 161.171875 217.953125 161.445312 222.878906 161.992188 C 225.203125 162.265625 227.253906 162.539062 229.582031 162.949219 L 229.71875 162.949219 C 246.410156 165.277344 262.417969 170.886719 277.058594 179.367188 C 281.574219 181.96875 285.8125 184.703125 290.054688 187.851562 C 310.988281 202.902344 327.40625 223.832031 337.257812 247.640625 C 317.144531 258.859375 298.8125 273.773438 284.035156 291.285156 Z M 284.035156 291.285156 "/></g><g clip-rule="nonzero" clip-path="url(#c90aa81f38)"><path style=" stroke:none;fill-rule:nonzero;fill:#113c7b;fill-opacity:1;" d="M 234.507812 157.300781 C 237.859375 153.453125 238.777344 148.0625 236.914062 143.316406 C 235.039062 138.570312 230.691406 135.257812 225.613281 134.722656 C 219.882812 134.121094 214.148438 133.820312 208.25 133.820312 C 140.691406 133.820312 80.203125 174.074219 54.125 236.367188 C 51.429688 242.8125 54.015625 250.265625 60.144531 253.632812 L 93.941406 272.253906 C 94.472656 272.542969 94.828125 273.074219 94.898438 273.664062 L 100.027344 313.09375 C 101.121094 321.480469 105.773438 328.980469 112.820312 333.65625 L 132.058594 346.832031 L 140.964844 367.21875 C 145.65625 377.945312 156.109375 384.746094 167.753906 384.746094 C 168.039062 384.746094 168.328125 384.746094 168.601562 384.746094 C 180.585938 384.402344 191.027344 376.921875 195.199219 365.6875 L 213.109375 317.472656 C 217.390625 305.9375 213.957031 292.84375 204.53125 284.910156 L 183.980469 267.601562 C 183.582031 267.273438 183.335938 266.765625 183.308594 266.234375 L 181.460938 219.058594 C 181.460938 218.566406 181.613281 218.101562 181.929688 217.730469 L 234.507812 157.3125 Z M 234.507812 157.300781 "/></g><path style=" stroke:none;fill-rule:nonzero;fill:#113c7b;fill-opacity:1;" d="M 367.277344 250.226562 C 356.617188 216.488281 334.90625 186.457031 306.144531 165.6875 C 300.523438 161.621094 292.820312 162.402344 288.125 167.449219 L 252.855469 205.324219 C 246.355469 212.246094 243.015625 221.632812 243.714844 231.058594 C 244.398438 240.5 249.078125 249.308594 256.5625 255.261719 L 268.820312 264.90625 C 270.1875 265.960938 271.066406 267.492188 271.285156 269.1875 L 273.761719 288.988281 C 274.867188 297.332031 279.042969 305.007812 285.527344 310.578125 C 288.015625 312.710938 291.175781 313.875 294.433594 313.875 C 294.789062 313.875 295.160156 313.875 295.527344 313.832031 C 299.167969 313.546875 302.535156 311.808594 304.886719 309.015625 C 319.921875 291.203125 338.980469 276.578125 360.011719 266.753906 C 366.234375 263.851562 369.328125 256.78125 367.261719 250.238281 Z M 367.277344 250.226562 "/><path style=" stroke:none;fill-rule:nonzero;fill:#113c7b;fill-opacity:1;" d="M 263.609375 367.179688 C 258.875 364.167969 252.773438 364.347656 248.214844 367.644531 L 231.878906 379.492188 C 221.605469 386.839844 215.476562 398.714844 215.476562 411.289062 L 215.476562 452.472656 C 215.476562 456.425781 217.1875 460.160156 220.140625 462.761719 C 222.660156 464.960938 225.859375 466.152344 229.15625 466.152344 C 229.757812 466.152344 230.363281 466.113281 230.976562 466.03125 C 241.074219 464.675781 250.9375 462.402344 260.3125 459.285156 C 266.824219 457.109375 270.710938 450.460938 269.421875 443.714844 C 267.492188 433.714844 266.523438 423.519531 266.523438 413.464844 C 266.523438 402.929688 267.589844 392.121094 269.683594 381.324219 C 270.765625 375.8125 268.355469 370.203125 263.609375 367.164062 Z M 263.609375 367.179688 "/><path style=" stroke:none;fill-rule:nonzero;fill:#113c7b;fill-opacity:1;" d="M 246.410156 665.074219 L 115.886719 665.074219 C 108.359375 665.074219 102.203125 671.230469 102.203125 678.753906 L 102.203125 845.261719 C 102.203125 855.25 104.941406 864.554688 109.59375 872.628906 C 119.03125 889.046875 136.820312 899.992188 156.929688 899.992188 L 205.363281 899.992188 C 225.476562 899.992188 243.125 889.046875 252.566406 872.765625 C 257.355469 864.691406 260.09375 855.25 260.09375 845.261719 L 260.09375 678.753906 C 260.09375 671.230469 253.933594 665.074219 246.410156 665.074219 Z M 156.929688 872.628906 C 141.882812 872.628906 129.566406 860.3125 129.566406 845.261719 L 129.566406 692.4375 L 232.726562 692.4375 L 232.726562 845.261719 C 232.726562 860.3125 220.414062 872.628906 205.363281 872.628906 Z M 156.929688 872.628906 "/><path style=" stroke:none;fill-rule:nonzero;fill:#113c7b;fill-opacity:1;" d="M 115.886719 694.078125 L 83.597656 694.078125 C 64.988281 694.078125 49.800781 709.265625 49.800781 727.875 L 49.800781 793.820312 C 49.800781 812.425781 64.988281 827.613281 83.597656 827.613281 L 115.886719 827.613281 C 123.546875 827.613281 129.566406 821.457031 129.566406 813.933594 L 129.566406 707.761719 C 129.566406 700.234375 123.546875 694.078125 115.886719 694.078125 Z M 102.203125 800.25 L 83.597656 800.25 C 80.039062 800.25 77.164062 797.378906 77.164062 793.820312 L 77.164062 727.875 C 77.164062 724.316406 80.039062 721.441406 83.597656 721.441406 L 102.203125 721.441406 Z M 102.203125 800.25 "/><path style=" stroke:none;fill-rule:nonzero;fill:#113c7b;fill-opacity:1;" d="M 251.539062 899.992188 L 63.484375 899.992188 C 55.929688 899.992188 49.800781 893.863281 49.800781 886.308594 C 49.800781 878.757812 55.929688 872.628906 63.484375 872.628906 L 251.527344 872.628906 C 259.078125 872.628906 265.210938 878.757812 265.210938 886.308594 C 265.210938 893.863281 259.078125 899.992188 251.527344 899.992188 Z M 251.539062 899.992188 "/><path style=" stroke:none;fill-rule:nonzero;fill:#113c7b;fill-opacity:1;" d="M 675.472656 759.339844 C 674.242188 767.824219 665.757812 775.347656 657.277344 775.347656 C 653.855469 775.347656 651.121094 774.117188 649.203125 772.066406 C 647.699219 770.148438 646.878906 767.824219 646.878906 765.085938 C 646.878906 764.539062 646.878906 763.855469 647.015625 763.171875 C 648.246094 754.691406 656.867188 747.164062 665.210938 747.164062 C 668.632812 747.164062 671.367188 748.257812 673.285156 750.449219 C 675.199219 752.636719 676.019531 755.785156 675.472656 759.339844 Z M 675.472656 759.339844 "/><path style=" stroke:none;fill-rule:nonzero;fill:#113c7b;fill-opacity:1;" d="M 847.726562 645.644531 C 839.929688 634.835938 827.890625 628.679688 814.480469 628.679688 L 564.238281 628.679688 C 546.589844 628.679688 530.855469 640.035156 525.382812 656.863281 L 453.964844 872.628906 L 334.933594 872.628906 C 327.269531 872.628906 321.25 878.785156 321.25 886.308594 C 321.25 893.835938 327.269531 899.992188 334.933594 899.992188 L 771.792969 899.992188 C 777.675781 899.992188 782.875 896.160156 784.652344 890.550781 L 853.472656 682.585938 C 857.578125 670 855.527344 656.453125 847.726562 645.644531 Z M 702.5625 763.171875 C 699.417969 785.335938 679.441406 802.714844 657.277344 802.714844 C 645.921875 802.714844 635.660156 798.199219 628.542969 789.988281 C 621.429688 781.78125 618.28125 770.5625 619.925781 759.339844 C 623.207031 737.175781 643.046875 719.800781 665.210938 719.800781 C 676.703125 719.800781 686.828125 724.316406 693.945312 732.523438 C 701.058594 740.734375 704.203125 751.953125 702.5625 763.171875 Z M 702.5625 763.171875 "/><path style=" stroke:none;fill-rule:nonzero;fill:#113c7b;fill-opacity:1;" d="M 242.703125 633.042969 C 239.992188 633.042969 237.269531 632.238281 234.875 630.566406 C 228.679688 626.246094 227.1875 617.707031 231.511719 611.507812 C 260.898438 569.492188 309.019531 544.414062 360.230469 544.414062 L 527.96875 544.414062 C 561.914062 544.414062 594.257812 555.140625 621.5 575.429688 C 627.546875 579.945312 628.804688 588.511719 624.289062 594.570312 C 619.773438 600.617188 611.222656 601.90625 605.148438 597.363281 C 582.667969 580.617188 555.988281 571.761719 527.96875 571.761719 L 360.230469 571.761719 C 317.9375 571.761719 278.191406 592.476562 253.921875 627.175781 C 251.265625 630.976562 247.011719 633.015625 242.703125 633.015625 Z M 242.703125 633.042969 "/><path style=" stroke:none;fill-rule:nonzero;fill:#113c7b;fill-opacity:1;" d="M 444.113281 274.867188 C 362.160156 274.867188 295.664062 341.496094 295.664062 423.316406 C 295.664062 473.253906 320.429688 517.582031 358.328125 544.398438 L 358.601562 544.398438 C 380.902344 560.40625 407.445312 570.257812 436.449219 571.761719 C 439.050781 571.898438 441.511719 571.898438 444.113281 571.898438 C 446.710938 571.898438 449.175781 571.898438 451.773438 571.761719 C 480.78125 570.257812 507.597656 560.40625 529.898438 544.535156 C 567.796875 517.582031 592.5625 473.253906 592.5625 423.316406 C 592.5625 341.496094 525.929688 274.867188 444.113281 274.867188 Z M 450.269531 544.398438 C 448.21875 544.535156 446.164062 544.535156 444.113281 544.535156 C 442.0625 544.535156 440.007812 544.535156 437.957031 544.398438 C 374.0625 541.117188 323.027344 488.03125 323.027344 423.316406 C 323.027344 356.546875 377.34375 302.230469 444.113281 302.230469 C 510.878906 302.230469 565.199219 356.546875 565.199219 423.316406 C 565.199219 488.03125 514.164062 541.117188 450.269531 544.398438 Z M 450.269531 544.398438 "/><path style=" stroke:none;fill-rule:nonzero;fill:#113c7b;fill-opacity:1;" d="M 432.894531 836.847656 L 305.761719 836.847656 C 301.546875 836.847656 297.554688 834.90625 294.96875 831.582031 C 292.382812 828.257812 291.464844 823.90625 292.492188 819.828125 L 321.605469 704.394531 C 323.453125 697.0625 330.9375 692.640625 338.214844 694.476562 C 345.550781 696.324219 349.980469 703.765625 348.136719 711.085938 L 323.316406 809.484375 L 432.878906 809.484375 C 440.433594 809.484375 446.5625 815.613281 446.5625 823.167969 C 446.5625 830.71875 440.433594 836.847656 432.878906 836.847656 Z M 432.894531 836.847656 "/><g clip-rule="nonzero" clip-path="url(#608f1f53f6)"><path style=" stroke:none;fill-rule:nonzero;fill:#113c7b;fill-opacity:1;" d="M 739.832031 190.441406 C 704.703125 190.441406 676.226562 161.964844 676.226562 126.832031 C 676.226562 91.707031 704.703125 63.230469 739.832031 63.230469 C 774.960938 63.230469 803.4375 91.707031 803.4375 126.832031 C 803.4375 161.964844 774.960938 190.441406 739.832031 190.441406 Z M 728.105469 6.945312 C 657.511719 13.617188 609.164062 82.019531 621.484375 151.851562 C 633.996094 222.777344 699.394531 244.613281 731.847656 324.234375 C 734.773438 331.40625 744.875 331.449219 747.800781 324.269531 C 783.777344 235.960938 860.273438 218.726562 860.273438 126.832031 C 860.273438 56.445312 799.894531 0.15625 728.105469 6.945312 "/></g></g></svg>