<svg xmlns="http://www.w3.org/2000/svg" xmlns:xlink="http://www.w3.org/1999/xlink" width="1200" zoomAndPan="magnify" viewBox="0 0 900 899.99999" height="1200" preserveAspectRatio="xMidYMid meet" version="1.2"><defs><clipPath id="ecea475623"><path d="M 64.15625 290 L 434 290 L 434 606 L 64.15625 606 Z M 64.15625 290 "/></clipPath><clipPath id="4f7fe3690a"><path d="M 64.15625 290 L 434 290 L 434 606 L 64.15625 606 Z M 64.15625 290 "/></clipPath></defs><g id="59d7923fe4"><path style=" stroke:none;fill-rule:nonzero;fill:#113c7b;fill-opacity:1;" d="M 845.207031 442.445312 L 700.203125 293.144531 C 695.070312 287.863281 686.117188 291.496094 686.117188 298.859375 L 686.117188 398.519531 C 649.339844 398.539062 613.636719 405.765625 579.992188 419.996094 C 547.476562 433.746094 518.285156 453.425781 493.230469 478.484375 C 468.171875 503.539062 448.492188 532.730469 434.742188 565.246094 C 420.492188 598.9375 413.265625 634.695312 413.265625 671.53125 L 413.265625 899.816406 L 512.980469 899.816406 L 512.980469 671.53125 C 512.980469 576.027344 590.632812 498.324219 686.117188 498.234375 L 686.117188 597.464844 C 686.117188 604.828125 695.070312 608.460938 700.203125 603.175781 L 845.207031 453.875 C 848.296875 450.691406 848.296875 445.628906 845.207031 442.445312 Z M 845.207031 442.445312 "/><path style=" stroke:none;fill-rule:nonzero;fill:#113c7b;fill-opacity:1;" d="M 845.207031 442.445312 L 700.203125 293.144531 C 695.070312 287.863281 686.117188 291.496094 686.117188 298.859375 L 686.117188 398.519531 C 649.339844 398.539062 613.636719 405.765625 579.992188 419.996094 C 547.476562 433.746094 518.285156 453.425781 493.230469 478.484375 C 468.171875 503.539062 448.492188 532.730469 434.742188 565.246094 C 420.492188 598.9375 413.265625 634.695312 413.265625 671.53125 L 413.265625 899.816406 L 512.980469 899.816406 L 512.980469 671.53125 C 512.980469 576.027344 590.632812 498.324219 686.117188 498.234375 L 686.117188 597.464844 C 686.117188 604.828125 695.070312 608.460938 700.203125 603.175781 L 845.207031 453.875 C 848.296875 450.691406 848.296875 445.628906 845.207031 442.445312 Z M 845.207031 442.445312 "/><g clip-rule="nonzero" clip-path="url(#ecea475623)"><path style=" stroke:none;fill-rule:nonzero;fill:#113c7b;fill-opacity:1;" d="M 402.257812 551.503906 C 410.816406 531.269531 421.414062 512.179688 433.929688 494.378906 C 429.257812 488.910156 424.359375 483.605469 419.230469 478.476562 C 394.171875 453.421875 364.980469 433.746094 332.464844 419.988281 C 298.824219 405.761719 263.121094 398.535156 226.34375 398.515625 L 226.34375 298.855469 C 226.34375 291.488281 217.390625 287.855469 212.257812 293.140625 L 67.25 442.441406 C 64.160156 445.625 64.160156 450.6875 67.25 453.867188 L 212.257812 603.167969 C 217.386719 608.453125 226.34375 604.820312 226.34375 597.457031 L 226.34375 498.226562 C 297.671875 498.292969 359.050781 541.679688 385.539062 603.441406 C 389.539062 585.738281 395.117188 568.394531 402.257812 551.503906 Z M 402.257812 551.503906 "/></g><path style=" stroke:none;fill-rule:nonzero;fill:#113c7b;fill-opacity:1;" d="M 618.300781 148.292969 L 468.996094 3.289062 C 465.816406 0.199219 460.753906 0.199219 457.570312 3.289062 L 308.269531 148.292969 C 302.984375 153.425781 306.621094 162.378906 313.984375 162.378906 L 413.910156 162.378906 L 413.910156 438.386719 C 422.214844 445.09375 430.195312 452.265625 437.820312 459.890625 C 442.082031 464.152344 446.265625 468.597656 450.292969 473.140625 C 455.984375 466.382812 461.988281 459.847656 468.289062 453.542969 C 481.269531 440.5625 495.234375 428.867188 510.09375 418.503906 L 510.09375 162.378906 L 612.585938 162.378906 C 619.949219 162.378906 623.582031 153.425781 618.300781 148.292969 Z M 618.300781 148.292969 "/><g clip-rule="nonzero" clip-path="url(#4f7fe3690a)"><path style=" stroke:none;fill-rule:nonzero;fill:#113c7b;fill-opacity:1;" d="M 402.257812 551.503906 C 410.816406 531.269531 421.414062 512.179688 433.929688 494.378906 C 429.257812 488.910156 424.359375 483.605469 419.230469 478.476562 C 394.171875 453.421875 364.980469 433.746094 332.464844 419.988281 C 298.824219 405.761719 263.121094 398.535156 226.34375 398.515625 L 226.34375 298.855469 C 226.34375 291.488281 217.390625 287.855469 212.257812 293.140625 L 67.25 442.441406 C 64.160156 445.625 64.160156 450.6875 67.25 453.867188 L 212.257812 603.167969 C 217.386719 608.453125 226.34375 604.820312 226.34375 597.457031 L 226.34375 498.226562 C 297.671875 498.292969 359.050781 541.679688 385.539062 603.441406 C 389.539062 585.738281 395.117188 568.394531 402.257812 551.503906 Z M 402.257812 551.503906 "/></g><path style=" stroke:none;fill-rule:nonzero;fill:#113c7b;fill-opacity:1;" d="M 845.207031 442.445312 L 700.203125 293.144531 C 695.070312 287.863281 686.117188 291.496094 686.117188 298.859375 L 686.117188 398.519531 C 649.339844 398.539062 613.636719 405.765625 579.992188 419.996094 C 547.476562 433.746094 518.285156 453.425781 493.230469 478.484375 C 468.171875 503.539062 448.492188 532.730469 434.742188 565.246094 C 420.492188 598.9375 413.265625 634.695312 413.265625 671.53125 L 413.265625 899.816406 L 512.980469 899.816406 L 512.980469 671.53125 C 512.980469 576.027344 590.632812 498.324219 686.117188 498.234375 L 686.117188 597.464844 C 686.117188 604.828125 695.070312 608.460938 700.203125 603.175781 L 845.207031 453.875 C 848.296875 450.691406 848.296875 445.628906 845.207031 442.445312 Z M 845.207031 442.445312 "/></g></svg>