<svg xmlns="http://www.w3.org/2000/svg" xmlns:xlink="http://www.w3.org/1999/xlink" width="1200" zoomAndPan="magnify" viewBox="0 0 900 899.99999" height="1200" preserveAspectRatio="xMidYMid meet" version="1.2"><g id="1616224838"><path style=" stroke:none;fill-rule:nonzero;fill:#113c7b;fill-opacity:1;" d="M 586.53125 641.527344 C 581.457031 647.585938 576.46875 651.019531 571.398438 651.839844 C 568.355469 652.320312 566.074219 654.980469 566.074219 658.074219 C 566.074219 658.980469 566.242188 659.875 566.664062 660.695312 L 571.738281 672.109375 C 571.90625 672.496094 571.992188 672.910156 572.074219 673.332031 C 573.851562 687.871094 556.269531 698.546875 551.195312 681.328125 C 550.773438 679.976562 551.027344 678.515625 551.875 677.375 C 554.746094 673.5625 554.324219 670.332031 550.773438 667.695312 C 550.691406 667.695312 550.691406 667.6875 550.691406 667.6875 C 548.660156 666.171875 548.152344 663.242188 549.675781 661.1875 C 549.675781 661.167969 549.675781 661.160156 549.675781 661.152344 L 561.171875 645.386719 C 563.453125 642.152344 566.074219 639.117188 568.945312 636.300781 C 575.371094 630.003906 582.554688 622.125 590.5 612.675781 C 591.515625 611.382812 592.109375 609.777344 592.109375 608.136719 C 592.191406 597.867188 595.234375 588.324219 601.320312 579.507812 C 601.660156 579 601.914062 578.410156 601.914062 577.785156 L 603.941406 561.023438 C 604.027344 560.632812 603.941406 560.253906 603.773438 559.933594 C 601.152344 554.386719 601.066406 551.074219 603.941406 544.117188 C 608.082031 534.394531 599.632812 533.171875 601.152344 524.582031 C 603.011719 514.101562 607.660156 505.335938 615.015625 498.277344 C 617.464844 495.886719 621.015625 495.402344 625.496094 496.824219 C 625.75 496.882812 625.917969 496.917969 626.085938 496.917969 C 627.015625 496.917969 627.863281 496.273438 628.117188 495.371094 L 634.457031 469.792969 C 634.878906 467.914062 634.878906 465.953125 634.285156 464.113281 C 628.878906 446.125 633.273438 430.996094 641.050781 414.546875 C 643.753906 408.824219 644.851562 397.234375 650.9375 390.828125 C 652.039062 389.710938 652.292969 388.03125 651.613281 386.601562 L 640.542969 363.433594 C 639.359375 361.125 637.246094 359.476562 634.710938 359.027344 L 621.945312 356.621094 C 620.425781 356.355469 619.15625 355.589844 618.140625 354.4375 L 611.125 346.035156 C 608.757812 343.121094 604.617188 342.222656 601.152344 343.855469 C 587.121094 350.535156 578.414062 349.753906 577.230469 333.035156 C 576.894531 328.34375 575.710938 323.890625 573.597656 319.679688 C 572.074219 316.746094 572.582031 313.207031 574.695312 310.730469 C 578.753906 305.921875 588.050781 296.191406 586.953125 288.785156 C 586.699219 287.441406 587.457031 286.105469 588.640625 285.515625 C 592.023438 283.96875 594.390625 281.878906 595.65625 279.242188 C 596.503906 277.59375 595.996094 275.601562 594.644531 274.433594 C 584.753906 266.25 595.910156 257.664062 603.6875 251.714844 C 605.125 250.605469 606.984375 250.074219 608.84375 250.21875 C 617.464844 250.96875 622.621094 253.65625 624.226562 258.253906 C 624.480469 259.007812 625.15625 259.515625 625.917969 259.515625 C 626.511719 259.515625 627.101562 259.253906 627.441406 258.804688 L 635.890625 248.304688 C 636.90625 247.039062 637.5 245.476562 637.582031 243.851562 C 637.582031 238.585938 634.457031 234.859375 635.046875 229.542969 C 636.398438 217.734375 646.882812 214.734375 647.894531 207.007812 C 648.066406 205.28125 652.628906 198.789062 661.671875 187.523438 C 668.859375 178.4375 671.648438 166.863281 670.125 152.808594 C 669.957031 151.152344 668.773438 149.765625 667.167969 149.359375 L 659.984375 147.585938 C 659.136719 147.375 658.292969 147.019531 657.53125 146.535156 C 648.65625 140.660156 638.089844 134.542969 625.75 128.183594 C 620.507812 125.457031 615.605469 122.066406 611.042969 118.007812 C 609.351562 116.539062 607.492188 115.4375 605.378906 114.78125 C 597.601562 112.269531 591.007812 107.964844 585.597656 101.878906 C 584.246094 100.324219 582.386719 99.3125 580.359375 99.015625 L 573.851562 97.0625 C 571.738281 96.460938 569.707031 95.539062 567.847656 94.339844 L 486.449219 42.769531 C 486.195312 42.59375 485.855469 42.433594 485.605469 42.316406 C 472.417969 37.835938 460.414062 30.09375 449.765625 19.105469 C 449.511719 18.851562 449.257812 18.636719 448.917969 18.460938 C 447.058594 17.328125 444.609375 17.960938 443.425781 19.855469 C 443.257812 20.152344 443.085938 20.457031 443.003906 20.785156 L 438.945312 34.453125 C 438.691406 35.484375 438.015625 36.378906 437.085938 36.996094 C 432.519531 40.058594 427.535156 41.207031 422.039062 40.453125 C 421.785156 40.421875 421.53125 40.402344 421.28125 40.402344 C 418.40625 40.402344 416.039062 42.527344 415.699219 45.316406 L 412.910156 68.257812 C 412.402344 72.492188 409.359375 75.988281 405.21875 77.03125 L 396.597656 79.117188 C 395.667969 79.363281 395.074219 80.214844 395.074219 81.179688 C 395.074219 81.441406 395.074219 81.695312 395.160156 81.933594 C 395.582031 82.996094 396.089844 83.84375 396.765625 84.476562 C 397.441406 85.078125 397.949219 85.785156 398.371094 86.566406 C 400.148438 90.417969 397.949219 95.320312 393.46875 97.425781 C 392.625 97.847656 391.609375 98.144531 390.679688 98.289062 C 385.015625 99.167969 382.566406 101.832031 383.242188 106.285156 C 383.832031 110.222656 383.074219 113.386719 380.789062 115.785156 C 372.589844 124.230469 365.660156 129.242188 359.742188 130.824219 C 358.390625 131.195312 357.207031 132.183594 356.699219 133.503906 L 347.570312 155.671875 C 347.0625 156.90625 347.234375 158.3125 348.078125 159.351562 C 361.941406 177.117188 368.28125 196.332031 350.867188 215.097656 C 350.109375 215.882812 349.09375 216.355469 347.996094 216.414062 L 339.542969 216.777344 C 338.1875 216.84375 337.175781 217.925781 337.175781 219.230469 L 336.667969 249.304688 C 336.667969 250.082031 336.835938 250.851562 337.175781 251.535156 C 341.910156 260.300781 332.695312 268.890625 326.945312 275.429688 C 326.101562 276.453125 325.679688 277.765625 325.679688 279.109375 L 326.355469 293.789062 C 326.441406 296.199219 328.46875 298.117188 330.917969 298.117188 C 331.425781 298.117188 331.933594 298.015625 332.441406 297.832031 C 337.34375 295.953125 342.078125 295.421875 346.640625 296.242188 C 348.164062 296.519531 349.515625 297.550781 350.277344 299.015625 L 359.828125 319.140625 C 360.671875 320.804688 360.84375 322.707031 360.335938 324.5 L 355.09375 344.625 C 354.839844 345.628906 354.925781 346.695312 355.347656 347.667969 C 358.222656 354.480469 362.871094 357.878906 369.210938 357.84375 C 380.453125 357.753906 379.945312 363.753906 389.074219 366.113281 C 404.121094 370.023438 413.417969 380.304688 416.882812 396.964844 C 417.222656 398.679688 418.320312 400.125 419.925781 400.867188 L 438.183594 409.820312 C 440.636719 411.054688 442.664062 413.125 443.847656 415.679688 L 452.46875 434.402344 C 452.722656 434.882812 452.890625 435.390625 452.976562 435.898438 C 454.835938 447.773438 450.441406 458.644531 439.535156 468.515625 C 438.605469 469.445312 437.253906 469.9375 435.902344 469.886719 C 432.519531 469.792969 424.746094 472.371094 412.65625 477.601562 C 411.304688 478.195312 410.207031 479.199219 409.53125 480.46875 C 407.164062 484.710938 405.386719 488.734375 404.035156 492.554688 C 402.597656 496.554688 400.738281 499.097656 398.371094 500.1875 C 396.257812 501.152344 395.246094 503.003906 395.328125 505.734375 C 395.328125 508.304688 394.230469 509.941406 391.949219 510.636719 C 384.511719 512.875 378.425781 512.496094 373.691406 509.503906 C 372.675781 508.859375 371.492188 508.667969 370.394531 508.953125 C 359.320312 511.625 353.910156 519.628906 354.25 532.992188 C 354.417969 542.394531 345.882812 549.257812 339.371094 555.613281 C 337.511719 557.472656 334.976562 558.65625 332.355469 558.976562 C 327.960938 559.457031 323.058594 559.660156 317.648438 559.566406 C 313.085938 559.484375 309.027344 562.011719 307.253906 565.976562 C 305.644531 569.515625 302.519531 571.800781 297.953125 572.832031 C 296.515625 573.183594 294.910156 572.992188 293.558594 572.289062 C 285.105469 567.929688 276.652344 571.46875 271.921875 579.871094 C 271.160156 581.300781 269.808594 583.195312 267.863281 585.550781 C 266.257812 587.582031 265.15625 589.988281 264.820312 592.550781 C 262.875 604.773438 261.523438 613.269531 252.648438 620.175781 C 246.816406 624.765625 245.632812 634.527344 237.011719 635.078125 C 235.65625 635.160156 234.390625 635.660156 233.375 636.488281 C 230.753906 638.644531 230.25 642.53125 232.363281 645.101562 C 233.207031 646.097656 234.304688 646.800781 235.574219 647.113281 C 239.125 647.992188 241.828125 648.644531 243.773438 649.066406 C 245.125 649.371094 246.140625 650.433594 246.476562 651.796875 C 248.675781 661.058594 247.578125 667.40625 243.179688 670.832031 C 236.671875 676.011719 236.164062 682.597656 230.164062 688.683594 C 229.316406 689.527344 228.894531 690.679688 228.894531 691.878906 C 228.894531 693.914062 230.25 695.714844 232.277344 696.230469 C 244.957031 699.527344 256.367188 704.828125 266.339844 712.132812 C 267.441406 712.917969 268.03125 714.234375 267.863281 715.578125 C 267.355469 720.761719 268.199219 726.253906 270.484375 732.070312 C 270.484375 732.207031 270.566406 732.339844 270.652344 732.46875 C 272.425781 736.457031 277.246094 738.222656 281.300781 736.390625 C 281.386719 736.332031 281.472656 736.273438 281.640625 736.210938 C 282.992188 735.511719 284.683594 735.070312 286.710938 734.894531 C 288.742188 734.707031 290.261719 734.878906 291.191406 735.390625 C 304.210938 742.382812 311.480469 752.035156 313.167969 764.335938 C 314.097656 770.726562 317.058594 775.550781 322.042969 778.824219 C 324.074219 780.191406 328.636719 779.1875 332.101562 780.046875 C 332.863281 780.199219 333.960938 781.28125 335.230469 783.277344 C 335.90625 784.273438 336.921875 784.671875 338.273438 784.460938 C 338.867188 784.367188 339.371094 784.078125 339.710938 783.640625 C 345.628906 777.15625 352.050781 776.472656 359.066406 781.59375 C 359.488281 781.898438 359.996094 782.09375 360.503906 782.1875 L 384.679688 786.683594 C 387.46875 787.214844 389.917969 788.710938 391.609375 790.910156 C 401.414062 803.691406 403.359375 818.550781 397.441406 835.480469 C 395.160156 842.117188 393.640625 846.882812 392.878906 849.792969 C 392.457031 851.492188 392.457031 853.25 392.878906 854.921875 L 398.457031 877.457031 C 398.710938 878.53125 399.726562 879.308594 400.824219 879.308594 C 401.839844 879.308594 402.765625 878.582031 403.105469 877.550781 L 410.289062 852.835938 C 410.542969 852.082031 410.882812 851.371094 411.304688 850.746094 L 416.796875 842.929688 C 418.488281 840.578125 421.363281 839.410156 424.238281 839.933594 C 432.859375 841.601562 439.707031 840.511719 444.863281 836.664062 C 451.03125 832 452.214844 826.832031 448.496094 821.171875 C 447.398438 819.582031 447.058594 817.601562 447.652344 815.761719 L 454.5 792.320312 C 455.089844 790.378906 456.273438 788.703125 457.964844 787.597656 L 487.464844 768.238281 C 487.71875 768.121094 487.886719 767.925781 487.96875 767.691406 C 490 763.902344 492.621094 760.589844 496 757.742188 C 497.183594 756.746094 498.707031 756.1875 500.3125 756.1875 C 503.355469 756.1875 506.058594 758.332031 506.734375 761.335938 C 507.75 766.023438 507.328125 770.386719 505.46875 774.417969 C 504.875 775.660156 503.863281 776.691406 502.679688 777.367188 C 496.339844 780.851562 491.773438 784.824219 489.152344 789.269531 C 488.222656 790.84375 486.617188 791.890625 484.84375 792.09375 C 479.6875 792.609375 474.617188 796.726562 469.714844 804.449219 C 464.050781 813.445312 465.0625 827.300781 463.035156 838.703125 C 462.699219 840.351562 461.851562 841.847656 460.585938 842.929688 L 450.273438 851.515625 C 449.765625 851.90625 449.257812 852.167969 448.664062 852.292969 L 425.675781 858.015625 C 424.40625 858.355469 423.5625 859.648438 423.730469 860.964844 C 424.40625 864.660156 423.136719 868.445312 419.925781 872.324219 C 415.785156 877.230469 417.476562 880.59375 418.828125 886.679688 C 419.167969 887.988281 419.082031 889.359375 418.660156 890.632812 C 417.054688 895.664062 413.585938 898.417969 408.175781 898.902344 C 397.527344 899.875 387.636719 895.6875 378.425781 886.367188 C 376.902344 884.820312 376.3125 882.984375 376.5625 880.863281 C 376.734375 879.621094 377.15625 878.277344 377.664062 876.824219 C 378.085938 875.496094 378.085938 874.042969 377.664062 872.691406 L 373.265625 859.925781 C 372.339844 857.425781 372.339844 854.675781 373.265625 852.148438 C 376.394531 843.613281 370.140625 839.792969 375.378906 832.4375 C 382.3125 822.710938 384.511719 814.710938 382.058594 808.449219 C 380.621094 804.789062 376.480469 802.441406 371.832031 802.632812 C 364.390625 802.996094 359.152344 802.601562 356.109375 801.449219 C 354.585938 800.859375 352.898438 801.136719 351.714844 802.175781 C 346.640625 806.421875 338.527344 807.308594 327.285156 804.855469 C 325.257812 804.398438 323.480469 802.953125 322.636719 800.992188 C 319.929688 794.390625 316.042969 790.722656 310.972656 789.996094 C 302.855469 788.789062 296.09375 782.753906 293.726562 774.597656 C 291.867188 768.179688 289.839844 763.320312 287.472656 760.015625 C 286.628906 758.765625 285.191406 757.902344 283.667969 757.605469 L 263.214844 753.792969 C 261.269531 753.4375 259.410156 752.484375 257.972656 751.0625 C 251.632812 744.707031 247.070312 736.566406 247.828125 725.621094 C 248.082031 722.832031 246.984375 718.730469 244.53125 713.3125 C 244.027344 712.03125 242.503906 711.421875 241.238281 711.945312 C 237.769531 713.355469 234.980469 715.132812 232.53125 715.445312 C 227.121094 716.171875 223.824219 713.660156 222.640625 707.90625 C 222.300781 706.085938 221.289062 704.457031 219.851562 703.316406 C 211.144531 696.078125 209.792969 686.957031 215.792969 675.960938 C 219.851562 668.515625 223.0625 663.425781 225.34375 660.695312 C 225.34375 660.664062 225.429688 660.621094 225.429688 660.578125 C 226.277344 659.496094 226.023438 657.933594 224.921875 657.113281 C 224.839844 657.078125 224.839844 657.054688 224.753906 657.019531 C 214.527344 650.417969 213.257812 639.917969 220.949219 625.53125 C 222.472656 622.8125 227.035156 619.007812 234.558594 614.128906 C 234.980469 613.867188 235.320312 613.472656 235.488281 612.996094 L 251.972656 573.152344 C 252.308594 572.304688 252.816406 571.554688 253.410156 570.929688 C 265.664062 558.15625 272.847656 550.023438 289.332031 551.300781 C 290.9375 551.445312 292.542969 551.082031 293.980469 550.253906 C 303.363281 544.589844 313.84375 540.542969 325.59375 538.125 C 329.144531 537.398438 331.511719 533.929688 330.917969 530.355469 C 329.398438 521.40625 331.257812 515.402344 340.722656 509.273438 C 345.542969 506.179688 346.726562 500.1875 350.53125 496.730469 C 358.390625 489.691406 373.859375 482.242188 382.058594 491.644531 C 383.074219 492.722656 384.59375 493.011719 385.777344 492.328125 C 387.46875 491.414062 388.144531 489.570312 387.804688 486.78125 C 387.722656 486.308594 387.804688 485.820312 388.058594 485.378906 L 397.949219 462.566406 C 398.289062 461.820312 398.878906 461.273438 399.726562 461.070312 C 402.34375 460.460938 405.472656 458.542969 408.855469 455.296875 C 410.375 453.917969 412.234375 453.066406 414.261719 452.894531 L 424.574219 451.984375 C 429.5625 451.535156 433.449219 447.28125 433.449219 442.253906 C 433.449219 440.691406 433.113281 439.152344 432.351562 437.765625 C 427.617188 428.609375 419.671875 422.144531 408.429688 418.359375 C 405.386719 417.335938 402.007812 414.242188 398.117188 409.09375 C 397.1875 407.945312 396.679688 406.539062 396.679688 405.09375 C 396.597656 398.339844 394.992188 391.375 391.777344 384.199219 C 391.777344 384.15625 391.695312 384.125 391.695312 384.082031 C 391.101562 382.863281 389.582031 382.382812 388.3125 383.015625 C 388.3125 383.027344 388.230469 383.042969 388.230469 383.058594 C 379.945312 387.84375 373.097656 386.152344 367.773438 377.972656 C 366.675781 376.261719 364.5625 375.402344 362.617188 375.789062 C 355.515625 377.242188 349.347656 375.402344 344.191406 370.253906 C 332.949219 359.027344 327.03125 342.488281 337.851562 329.222656 C 341.148438 325.191406 343.261719 322.410156 344.273438 320.863281 C 344.867188 320.042969 345.121094 319.082031 345.121094 318.09375 C 345.121094 315.378906 342.921875 313.140625 340.21875 313.140625 C 339.371094 313.140625 338.613281 313.324219 337.933594 313.6875 C 320.945312 322.277344 314.691406 311.09375 307.84375 298.238281 C 303.957031 290.847656 303.109375 282.566406 305.390625 273.386719 C 305.5625 272.785156 305.816406 272.21875 306.152344 271.703125 L 318.15625 253.757812 C 319 252.472656 319.339844 250.910156 319.085938 249.398438 C 316.382812 233.859375 315.957031 223.167969 317.648438 217.320312 C 320.4375 207.75 327.621094 200.953125 339.371094 196.921875 C 340.722656 196.441406 341.65625 195.105469 341.570312 193.652344 C 341.148438 186.507812 338.695312 180.328125 334.386719 175.113281 C 321.539062 159.578125 322.128906 149.859375 339.964844 139.359375 C 340.808594 138.859375 341.402344 138.074219 341.738281 137.136719 C 342.414062 135.132812 341.824219 133.832031 340.046875 133.222656 C 339.878906 133.179688 339.796875 133.128906 339.625 133.0625 C 338.273438 132.292969 337.851562 130.296875 338.78125 128.632812 C 338.867188 128.5 338.949219 128.363281 339.035156 128.226562 C 345.375 119.503906 353.402344 112.191406 363.210938 106.285156 C 364.984375 105.253906 366.167969 103.460938 366.421875 101.425781 C 368.28125 88.203125 377.664062 85.339844 386.199219 77.890625 C 387.382812 76.910156 388.144531 75.636719 388.566406 74.207031 C 391.527344 64.214844 394.484375 52.1875 397.441406 38.140625 C 398.203125 34.53125 400.738281 32.1875 404.964844 31.097656 C 406.402344 30.710938 407.671875 29.972656 408.683594 28.960938 C 412.148438 25.6875 415.953125 23.261719 420.09375 21.691406 C 421.449219 21.140625 422.546875 20.082031 423.222656 18.738281 C 425.929688 12.867188 429.476562 7.894531 433.875 3.839844 C 435.058594 2.707031 436.578125 1.886719 438.183594 1.472656 C 441.820312 0.507812 447.226562 0.109375 454.328125 0.289062 C 457.710938 0.382812 462.191406 3.550781 467.851562 9.789062 C 472.503906 15.027344 477.234375 18.417969 481.882812 19.964844 C 494.394531 24.117188 505.128906 30.566406 514.171875 39.324219 C 515.359375 40.472656 516.878906 41.25 518.484375 41.546875 C 531.585938 43.84375 540.800781 49.566406 546.292969 58.722656 C 547.140625 60.167969 548.578125 61.191406 550.265625 61.535156 L 561.929688 64.082031 C 562.523438 64.199219 563.113281 64.425781 563.707031 64.757812 C 581.121094 75.449219 601.238281 87.308594 624.226562 100.335938 C 626.085938 101.390625 628.117188 104.789062 630.398438 110.511719 C 630.988281 111.898438 632.089844 112.96875 633.527344 113.460938 C 653.21875 120.324219 670.464844 125.871094 684.410156 139.953125 C 688.808594 144.347656 690.160156 151.007812 687.792969 156.765625 C 682.972656 168.207031 688.214844 177.066406 684.410156 187.335938 C 678.746094 202.332031 670.71875 212.054688 660.320312 216.507812 C 651.785156 220.183594 649.164062 226.320312 652.96875 234.765625 C 657.445312 244.765625 656.515625 252.835938 650.09375 258.980469 C 644.261719 264.570312 641.808594 269.117188 636.992188 274.660156 C 635.976562 275.734375 634.710938 276.546875 633.355469 277.019531 C 624.566406 279.988281 617.042969 278.144531 610.621094 271.476562 C 610.449219 271.246094 610.113281 271.113281 609.859375 271.113281 C 609.265625 271.113281 608.757812 271.601562 608.757812 272.203125 C 608.253906 283.773438 605.039062 290.003906 599.125 290.882812 C 598.953125 290.898438 598.785156 290.933594 598.617188 290.976562 C 596.335938 291.59375 594.898438 294.027344 595.488281 296.367188 C 595.488281 296.519531 595.574219 296.679688 595.65625 296.832031 C 596.25 298.40625 594.8125 305.996094 591.433594 319.589844 C 591.347656 320.019531 591.261719 320.46875 591.347656 320.90625 C 591.515625 323.085938 593.460938 324.746094 595.574219 324.558594 C 596.082031 324.523438 596.503906 324.40625 596.925781 324.230469 C 606.308594 320.105469 615.269531 321.421875 623.722656 328.175781 C 629.46875 332.722656 635.300781 336.382812 641.386719 339.171875 C 644.9375 340.804688 650.601562 345.234375 658.292969 352.433594 C 659.8125 353.863281 660.914062 355.699219 661.335938 357.710938 C 663.109375 365.460938 665.394531 374.828125 668.011719 385.789062 C 669.957031 394.015625 665.308594 408.460938 663.28125 416.820312 C 663.195312 417.445312 662.941406 418.0625 662.519531 418.636719 L 654.65625 431.035156 C 653.644531 432.675781 653.050781 434.554688 652.96875 436.488281 C 652.714844 444.332031 653.304688 454.054688 654.828125 465.660156 C 656.855469 480.964844 646.375 484.644531 643.332031 495.414062 C 640.371094 506.164062 639.1875 515.953125 639.867188 524.769531 C 639.949219 526.246094 639.1875 527.792969 637.5 529.402344 C 636.484375 530.371094 635.132812 530.921875 633.695312 530.921875 C 631.242188 530.921875 629.128906 529.265625 628.453125 526.898438 C 627.609375 523.90625 626.847656 520.636719 626.085938 517.085938 C 625.917969 516.179688 625.15625 515.511719 624.226562 515.511719 C 623.46875 515.511719 622.789062 515.910156 622.453125 516.542969 C 619.324219 522.171875 617.804688 528.25 617.886719 534.757812 C 618.140625 547.480469 617.042969 551.976562 618.058594 564.378906 C 618.480469 570.335938 624.058594 573.152344 622.707031 579.652344 C 622.285156 581.6875 621.269531 583.574219 619.75 585.054688 C 613.578125 591.113281 610.363281 600.875 609.941406 614.359375 C 609.941406 614.585938 610.027344 614.816406 610.195312 615.019531 C 610.535156 615.609375 611.296875 615.820312 611.886719 615.472656 C 612.054688 615.347656 612.226562 615.171875 612.308594 614.949219 L 622.367188 594.367188 C 623.214844 592.675781 624.902344 591.605469 626.765625 591.605469 C 629.214844 591.605469 631.328125 593.386719 631.667969 595.78125 C 633.273438 606.558594 630.566406 616.363281 623.382812 625.167969 C 622.367188 626.386719 620.675781 626.808594 619.242188 626.21875 L 610.871094 622.761719 C 610.621094 622.652344 610.28125 622.683594 610.027344 622.855469 C 607.492188 624.492188 608.589844 627.714844 613.324219 632.53125 C 614.421875 633.648438 614.589844 635.378906 613.832031 636.707031 L 599.460938 659.335938 C 598.277344 661.203125 596.164062 662.34375 593.96875 662.34375 C 592.53125 662.34375 591.007812 661.828125 589.910156 660.882812 C 584.417969 656.425781 583.65625 650.25 587.796875 642.34375 C 587.796875 642.253906 587.796875 642.160156 587.796875 642.066406 C 587.796875 641.644531 587.457031 641.296875 587.035156 641.296875 C 586.867188 641.296875 586.613281 641.382812 586.53125 641.527344 Z M 509.269531 741.882812 L 483.660156 760.058594 C 482.984375 760.554688 482.136719 760.816406 481.292969 760.816406 C 479.179688 760.816406 477.320312 759.09375 477.234375 756.929688 C 476.558594 742.601562 483.492188 734.175781 497.945312 731.664062 C 500.226562 731.285156 502.171875 729.914062 503.269531 727.9375 C 507.328125 720.972656 513.414062 717.886719 521.78125 718.671875 C 522.878906 718.773438 523.894531 718.03125 524.148438 716.949219 C 526.429688 707.675781 530.65625 701.820312 537.082031 699.367188 C 538.011719 698.988281 538.601562 698.066406 538.601562 697.042969 C 538.601562 696.695312 538.515625 696.359375 538.433594 696.046875 C 535.304688 689.046875 527.445312 670.425781 541.644531 667.882812 C 541.984375 667.820312 542.320312 667.789062 542.660156 667.789062 C 545.703125 667.789062 548.238281 670.308594 548.238281 673.375 C 548.238281 673.417969 548.238281 673.46875 548.238281 673.511719 L 547.730469 704.5 C 547.730469 704.539062 547.730469 704.574219 547.730469 704.617188 C 547.730469 706.410156 549.167969 707.886719 551.027344 707.886719 C 552.464844 707.886719 553.730469 706.925781 554.15625 705.539062 C 557.957031 693.636719 566.582031 690.804688 580.019531 697.042969 C 580.613281 697.304688 581.121094 697.683594 581.542969 698.148438 C 583.316406 700.101562 583.148438 703.230469 581.121094 705.074219 C 580.613281 705.511719 580.019531 705.859375 579.429688 706.085938 C 572.582031 708.722656 573.679688 716.035156 569.960938 719.308594 C 566.074219 722.671875 561.679688 723.59375 556.945312 722.078125 C 556.523438 721.945312 556.015625 721.867188 555.59375 721.867188 C 553.648438 721.867188 551.957031 723.121094 551.449219 724.945312 C 547.054688 738.890625 540.125 754.605469 522.542969 751.5625 C 518.824219 750.929688 516.203125 748.265625 514.597656 743.566406 C 514.089844 742.179688 512.738281 741.242188 511.300781 741.242188 C 510.625 741.242188 509.863281 741.46875 509.269531 741.882812 Z M 635.300781 571.925781 C 633.949219 574.503906 630.988281 575.78125 628.117188 574.96875 L 628.03125 574.96875 C 625.835938 574.359375 624.398438 572.390625 624.398438 570.160156 C 624.398438 569.566406 624.480469 568.984375 624.734375 568.425781 C 627.777344 559.914062 627.523438 552.28125 623.722656 545.527344 C 621.945312 542.28125 622.875 538.148438 625.917969 536.035156 L 626.085938 535.890625 C 626.933594 535.300781 627.949219 534.980469 628.960938 534.980469 C 630.90625 534.980469 632.679688 536.105469 633.441406 537.851562 C 638.9375 549.339844 642.90625 557.886719 635.300781 571.925781 Z M 635.300781 571.925781 "/></g></svg>