<svg xmlns="http://www.w3.org/2000/svg" xmlns:xlink="http://www.w3.org/1999/xlink" width="1200" zoomAndPan="magnify" viewBox="0 0 900 899.99999" height="1200" preserveAspectRatio="xMidYMid meet" version="1.2"><defs><clipPath id="6c2b675d36"><path d="M 45.460938 21.285156 L 854.710938 21.285156 L 854.710938 840.285156 L 45.460938 840.285156 Z M 45.460938 21.285156 "/></clipPath></defs><g id="545f544d73"><g clip-rule="nonzero" clip-path="url(#6c2b675d36)"><path style=" stroke:none;fill-rule:nonzero;fill:#113c7b;fill-opacity:1;" d="M 787.117188 202.261719 C 789.457031 192.207031 790.839844 181.066406 790.839844 168.511719 C 790.839844 130.21875 775.800781 98 747.355469 75.351562 C 722.601562 55.636719 689.464844 44.78125 654.042969 44.78125 C 636.941406 44.78125 620.382812 47.335938 605.03125 52.171875 C 555.867188 31.746094 503.738281 21.359375 450 21.359375 C 341.953125 21.359375 240.371094 63.4375 163.96875 139.839844 C 87.566406 216.242188 45.488281 317.824219 45.488281 425.871094 C 45.488281 512.519531 72.488281 595.144531 123.570312 664.8125 C 171.980469 730.84375 237.847656 779.90625 314.445312 807.105469 L 314.445312 810.367188 C 314.445312 826.992188 327.964844 840.511719 344.585938 840.511719 L 555.410156 840.511719 C 572.03125 840.511719 585.554688 826.992188 585.554688 810.367188 L 585.554688 807.105469 C 662.148438 779.90625 728.019531 730.84375 776.429688 664.8125 C 827.507812 595.144531 854.507812 512.519531 854.507812 425.871094 C 854.507812 345.796875 831.214844 268.601562 787.117188 202.257812 Z M 768.082031 168.511719 C 768.082031 208.6875 751.464844 231.867188 735.398438 254.289062 C 721.023438 274.335938 706.179688 295.050781 705.40625 325.46875 L 685.789062 325.46875 L 685.789062 238.152344 C 685.789062 237.394531 685.789062 236.640625 685.796875 235.894531 C 703.777344 228.773438 718.335938 215.5625 726.503906 198.046875 C 736.304688 177.035156 736.179688 158.152344 726.171875 147.539062 C 719.511719 140.484375 709.796875 138.554688 700.175781 142.371094 C 684.332031 148.664062 667.535156 171.902344 663.796875 218.316406 C 657.117188 219.339844 650.96875 219.339844 644.292969 218.316406 C 640.554688 171.902344 623.757812 148.664062 607.917969 142.371094 C 598.296875 138.546875 588.578125 140.480469 581.921875 147.539062 C 571.910156 158.152344 571.785156 177.035156 581.585938 198.046875 C 589.757812 215.5625 604.308594 228.773438 622.292969 235.898438 C 622.300781 236.640625 622.300781 237.394531 622.300781 238.152344 L 622.300781 325.46875 L 602.683594 325.46875 C 601.910156 295.046875 587.066406 274.335938 572.695312 254.285156 C 556.621094 231.867188 540.007812 208.683594 540.007812 168.511719 C 540.007812 99.132812 599.121094 67.535156 654.046875 67.535156 C 708.972656 67.535156 768.085938 99.132812 768.085938 168.511719 Z M 640.355469 415.738281 L 667.730469 415.738281 L 667.730469 420.945312 C 667.730469 422.328125 666.5625 423.492188 665.183594 423.492188 L 642.90625 423.492188 C 641.523438 423.492188 640.355469 422.324219 640.355469 420.945312 Z M 688.160156 392.984375 L 619.925781 392.984375 C 618.542969 392.984375 617.378906 391.816406 617.378906 390.4375 L 617.378906 382.269531 L 690.710938 382.269531 L 690.710938 390.4375 C 690.710938 391.820312 689.542969 392.984375 688.164062 392.984375 Z M 705.375 356.964844 C 705.375 358.347656 704.207031 359.515625 702.828125 359.515625 L 605.261719 359.515625 C 603.878906 359.515625 602.714844 358.347656 602.714844 356.964844 L 602.714844 348.226562 L 705.375 348.226562 Z M 645.054688 325.46875 L 645.054688 241.378906 C 648.003906 241.671875 651.003906 241.820312 654.042969 241.820312 C 657.082031 241.820312 660.078125 241.671875 663.03125 241.378906 L 663.03125 325.46875 C 663.03125 325.46875 645.050781 325.46875 645.050781 325.46875 Z M 687.675781 209.394531 C 690.992188 186.074219 698.167969 171.886719 705 165.867188 C 707.425781 163.726562 709.136719 163.257812 709.691406 163.21875 C 711.179688 164.773438 712.925781 173.332031 705.882812 188.433594 C 701.542969 197.738281 695.0625 204.574219 687.675781 209.394531 Z M 620.414062 209.394531 C 613.023438 204.570312 606.546875 197.734375 602.207031 188.433594 C 595.164062 173.332031 596.90625 164.773438 598.398438 163.21875 C 598.953125 163.257812 600.664062 163.726562 603.089844 165.867188 C 609.917969 171.886719 617.09375 186.078125 620.414062 209.394531 Z M 560.734375 75.347656 C 532.285156 98 517.25 130.214844 517.25 168.511719 C 517.25 215.996094 536.878906 243.378906 554.195312 267.542969 C 568.019531 286.824219 579.957031 303.480469 579.957031 327.957031 L 579.957031 356.964844 C 579.957031 367.113281 585.980469 375.863281 594.621094 379.890625 L 594.621094 390.433594 C 594.621094 403.601562 604.738281 414.441406 617.601562 415.621094 L 617.601562 420.945312 C 617.601562 434.894531 628.953125 446.246094 642.902344 446.246094 L 665.183594 446.246094 C 679.132812 446.246094 690.484375 434.894531 690.484375 420.945312 L 690.484375 415.621094 C 703.351562 414.441406 713.464844 403.601562 713.464844 390.433594 L 713.464844 379.890625 C 722.109375 375.859375 728.128906 367.113281 728.128906 356.964844 L 728.128906 327.957031 C 728.128906 303.480469 740.066406 286.824219 753.886719 267.542969 C 762.015625 256.203125 770.652344 244.152344 777.53125 229.648438 C 813.070312 288.804688 831.753906 356.179688 831.753906 425.871094 C 831.753906 490.683594 815.503906 552.53125 786.28125 606.886719 L 461.375 419.300781 L 461.375 44.296875 C 500.585938 45.429688 538.820312 52.453125 575.472656 65.222656 C 570.289062 68.28125 565.363281 71.660156 560.730469 75.347656 Z M 438.621094 44.296875 L 438.621094 419.300781 L 113.714844 606.886719 C 84.496094 552.53125 68.242188 490.683594 68.242188 425.871094 C 68.242188 219.175781 233.363281 50.339844 438.621094 44.296875 Z M 562.796875 810.367188 C 562.796875 814.441406 559.484375 817.757812 555.410156 817.757812 L 344.585938 817.757812 C 340.511719 817.757812 337.199219 814.441406 337.199219 810.367188 L 337.199219 551.671875 C 337.199219 547.597656 340.511719 544.285156 344.585938 544.285156 L 381.859375 544.285156 L 381.859375 548.652344 C 381.859375 554.933594 386.953125 560.027344 393.234375 560.027344 L 506.761719 560.027344 C 513.046875 560.027344 518.140625 554.933594 518.140625 548.652344 L 518.140625 544.285156 L 555.410156 544.285156 C 559.488281 544.285156 562.800781 547.597656 562.800781 551.671875 L 562.800781 810.367188 Z M 464.753906 526.671875 C 467.328125 528.832031 470.726562 529.746094 474.035156 529.167969 L 495.386719 525.4375 L 495.386719 537.273438 L 404.613281 537.273438 L 404.613281 525.433594 L 425.964844 529.167969 C 429.269531 529.746094 432.671875 528.832031 435.242188 526.671875 C 437.816406 524.507812 439.300781 521.320312 439.300781 517.960938 L 439.300781 514.929688 C 439.300781 509.03125 444.101562 504.230469 450 504.230469 C 455.898438 504.230469 460.699219 509.03125 460.699219 514.929688 L 460.699219 517.960938 C 460.699219 521.320312 462.183594 524.507812 464.753906 526.671875 Z M 585.554688 782.867188 L 585.554688 551.671875 C 585.554688 535.050781 572.03125 521.53125 555.410156 521.53125 L 517.863281 521.53125 C 517.074219 516.183594 514.4375 511.398438 510.183594 507.820312 C 505.054688 503.511719 498.601562 501.777344 491.996094 502.925781 L 481.851562 504.699219 C 477.519531 491.242188 464.878906 481.476562 449.996094 481.476562 C 435.117188 481.476562 422.476562 491.242188 418.144531 504.699219 L 407.992188 502.925781 C 401.390625 501.769531 394.9375 503.511719 389.808594 507.824219 C 385.558594 511.398438 382.921875 516.183594 382.132812 521.53125 L 344.585938 521.53125 C 327.964844 521.53125 314.441406 535.050781 314.441406 551.671875 L 314.441406 782.867188 C 234.0625 752.398438 168.34375 696.695312 125.082031 626.597656 L 449.996094 439.007812 L 774.910156 626.597656 C 731.648438 696.695312 665.933594 752.398438 585.550781 782.867188 Z M 149.863281 330.582031 L 161.570312 332.890625 L 169.652344 352.390625 L 163.003906 362.304688 C 158.367188 369.21875 159.273438 378.507812 165.160156 384.394531 L 188.335938 407.570312 C 194.21875 413.457031 203.511719 414.363281 210.425781 409.726562 L 220.339844 403.078125 L 239.839844 411.15625 L 242.148438 422.859375 C 243.753906 431.03125 250.96875 436.960938 259.296875 436.960938 L 292.070312 436.960938 C 300.398438 436.960938 307.609375 431.03125 309.214844 422.867188 L 311.523438 411.15625 L 331.023438 403.078125 L 340.9375 409.726562 C 347.855469 414.363281 357.144531 413.457031 363.03125 407.570312 L 386.203125 384.394531 C 392.089844 378.511719 393 369.21875 388.363281 362.304688 L 381.714844 352.386719 L 389.792969 332.890625 L 401.503906 330.582031 C 409.667969 328.96875 415.597656 321.757812 415.597656 313.433594 L 415.597656 280.660156 C 415.597656 272.335938 409.667969 265.125 401.5 263.515625 L 389.792969 261.203125 L 381.714844 241.707031 L 388.363281 231.789062 C 393 224.875 392.089844 215.582031 386.203125 209.699219 L 363.035156 186.53125 C 357.148438 180.636719 347.851562 179.730469 340.9375 184.367188 L 331.023438 191.015625 L 311.523438 182.9375 L 309.214844 171.234375 C 307.609375 163.0625 300.398438 157.132812 292.070312 157.132812 L 259.296875 157.132812 C 250.96875 157.132812 243.753906 163.0625 242.148438 171.226562 L 239.839844 182.9375 L 220.339844 191.015625 L 210.425781 184.367188 C 203.507812 179.730469 194.214844 180.636719 188.335938 186.527344 L 165.160156 209.699219 C 159.273438 215.589844 158.367188 224.878906 163.003906 231.789062 L 169.652344 241.703125 L 161.570312 261.203125 L 149.863281 263.515625 C 141.695312 265.125 135.765625 272.335938 135.765625 280.660156 L 135.765625 313.433594 C 135.765625 321.757812 141.695312 328.96875 149.863281 330.582031 Z M 158.523438 285 L 171.953125 282.347656 C 175.683594 281.613281 178.804688 279.058594 180.261719 275.542969 L 193.003906 244.785156 C 194.460938 241.265625 194.0625 237.253906 191.941406 234.09375 L 184.320312 222.71875 L 201.355469 205.683594 L 212.726562 213.308594 C 215.886719 215.429688 219.902344 215.828125 223.417969 214.371094 L 254.175781 201.625 C 257.695312 200.167969 260.25 197.050781 260.984375 193.316406 L 263.632812 179.886719 L 287.726562 179.886719 L 290.378906 193.316406 C 291.113281 197.050781 293.667969 200.167969 297.183594 201.625 L 327.941406 214.371094 C 331.460938 215.828125 335.476562 215.429688 338.632812 213.308594 L 350.007812 205.683594 L 367.042969 222.722656 L 359.421875 234.09375 C 357.300781 237.253906 356.902344 241.265625 358.359375 244.78125 L 371.101562 275.542969 C 372.558594 279.058594 375.675781 281.613281 379.410156 282.347656 L 392.839844 284.996094 L 392.839844 309.09375 L 379.410156 311.742188 C 375.675781 312.476562 372.558594 315.03125 371.101562 318.550781 L 358.359375 349.308594 C 356.902344 352.824219 357.300781 356.839844 359.421875 360 L 367.042969 371.367188 L 350.007812 388.410156 L 338.632812 380.78125 C 335.476562 378.660156 331.460938 378.261719 327.941406 379.722656 L 297.183594 392.464844 C 293.667969 393.921875 291.113281 397.039062 290.378906 400.773438 L 287.726562 414.207031 L 263.632812 414.207031 L 260.984375 400.773438 C 260.25 397.039062 257.695312 393.917969 254.175781 392.464844 L 223.417969 379.722656 C 219.902344 378.261719 215.886719 378.660156 212.730469 380.78125 L 201.355469 388.410156 L 184.320312 371.371094 L 191.941406 360 C 194.0625 356.835938 194.460938 352.824219 193.003906 349.308594 L 180.261719 318.546875 C 178.804688 315.03125 175.683594 312.476562 171.953125 311.742188 L 158.523438 309.09375 L 158.523438 284.996094 Z M 275.679688 374.339844 C 318.300781 374.339844 352.976562 339.667969 352.976562 297.046875 C 352.976562 254.425781 318.300781 219.753906 275.679688 219.753906 C 233.0625 219.753906 198.386719 254.425781 198.386719 297.046875 C 198.386719 339.667969 233.058594 374.339844 275.679688 374.339844 Z M 275.679688 242.507812 C 305.753906 242.507812 330.222656 266.976562 330.222656 297.050781 C 330.222656 327.121094 305.753906 351.589844 275.679688 351.589844 C 245.609375 351.589844 221.140625 327.121094 221.140625 297.050781 C 221.140625 266.976562 245.605469 242.507812 275.679688 242.507812 Z M 421.832031 598.6875 L 367.214844 598.6875 C 360.929688 598.6875 355.835938 603.78125 355.835938 610.0625 L 355.835938 664.683594 C 355.835938 670.96875 360.929688 676.058594 367.214844 676.058594 L 421.832031 676.058594 C 428.117188 676.058594 433.210938 670.96875 433.210938 664.683594 L 433.210938 610.0625 C 433.210938 603.78125 428.117188 598.6875 421.832031 598.6875 Z M 410.457031 653.304688 L 378.589844 653.304688 L 378.589844 621.441406 L 410.457031 621.441406 Z M 421.832031 699.90625 L 367.214844 699.90625 C 360.929688 699.90625 355.835938 705 355.835938 711.285156 L 355.835938 765.90625 C 355.835938 772.1875 360.929688 777.28125 367.214844 777.28125 L 421.832031 777.28125 C 428.117188 777.28125 433.210938 772.1875 433.210938 765.90625 L 433.210938 711.285156 C 433.210938 705 428.117188 699.90625 421.832031 699.90625 Z M 410.457031 754.527344 L 378.589844 754.527344 L 378.589844 722.660156 L 410.457031 722.660156 Z M 451.605469 617.082031 C 451.605469 610.796875 456.699219 605.703125 462.984375 605.703125 L 500.320312 605.703125 C 506.605469 605.703125 511.699219 610.796875 511.699219 617.082031 C 511.699219 623.363281 506.605469 628.457031 500.320312 628.457031 L 462.984375 628.457031 C 456.699219 628.457031 451.605469 623.363281 451.605469 617.082031 Z M 544.164062 657.664062 C 544.164062 663.949219 539.070312 669.042969 532.785156 669.042969 L 462.984375 669.042969 C 456.699219 669.042969 451.605469 663.949219 451.605469 657.664062 C 451.605469 651.382812 456.699219 646.289062 462.984375 646.289062 L 532.785156 646.289062 C 539.070312 646.289062 544.164062 651.382812 544.164062 657.664062 Z M 451.605469 718.304688 C 451.605469 712.019531 456.699219 706.925781 462.984375 706.925781 L 500.320312 706.925781 C 506.605469 706.925781 511.699219 712.019531 511.699219 718.304688 C 511.699219 724.585938 506.605469 729.679688 500.320312 729.679688 L 462.984375 729.679688 C 456.699219 729.679688 451.605469 724.585938 451.605469 718.304688 Z M 544.164062 758.890625 C 544.164062 765.171875 539.070312 770.265625 532.785156 770.265625 L 462.984375 770.265625 C 456.699219 770.265625 451.605469 765.171875 451.605469 758.890625 C 451.605469 752.605469 456.699219 747.511719 462.984375 747.511719 L 532.785156 747.511719 C 539.070312 747.511719 544.164062 752.605469 544.164062 758.890625 Z M 544.164062 758.890625 "/></g></g></svg>