<svg width="17" height="18" viewBox="0 0 17 18" fill="none" xmlns="http://www.w3.org/2000/svg">
<path fill-rule="evenodd" clip-rule="evenodd" d="M16.8334 9.00033C16.8334 4.39795 13.1025 0.666992 8.50008 0.666992C3.89771 0.666992 0.166748 4.39795 0.166748 9.00033C0.166748 13.6027 3.89771 17.3337 8.50008 17.3337C13.1025 17.3337 16.8334 13.6027 16.8334 9.00033ZM5.41083 7.57774C5.08539 7.90317 5.08539 8.43081 5.41083 8.75625C5.73626 9.08169 6.2639 9.08169 6.58934 8.75625L7.66675 7.67884V12.3337C7.66675 12.7939 8.03984 13.167 8.50008 13.167C8.96032 13.167 9.33342 12.7939 9.33342 12.3337V7.67884L10.4108 8.75625C10.7363 9.08169 11.2639 9.08169 11.5893 8.75625C11.9148 8.43081 11.9148 7.90317 11.5893 7.57774L9.08934 5.07774C8.7639 4.7523 8.23626 4.7523 7.91083 5.07774L5.41083 7.57774Z" fill="#113C7B"/>
</svg>
