<svg width="16" height="13" viewBox="0 0 16 13" fill="none" xmlns="http://www.w3.org/2000/svg">
<path d="M6 12.7C6.3866 13.0866 7.0134 13.0866 7.4 12.7C7.7866 12.3134 7.7866 11.6866 7.4 11.3L4 7.9C3.9262 7.8262 3.97847 7.7 4.08284 7.7L15 7.7C15.5523 7.7 16 7.25228 16 6.7C16 6.14772 15.5523 5.7 15 5.7L4.08284 5.7C3.97847 5.7 3.9262 5.5738 4 5.5L7.4 2.1C7.7866 1.7134 7.7866 1.0866 7.4 0.7C7.0134 0.313401 6.3866 0.313401 6 0.7L0.707108 5.99289C0.316584 6.38342 0.316583 7.01658 0.707107 7.40711L6 12.7Z" fill="currentColor"/>
</svg>
