<svg width="12" height="16" viewBox="0 0 12 16" fill="none" xmlns="http://www.w3.org/2000/svg">
<path d="M11.7523 12.0688C11.7077 12.0398 11.3722 11.8048 11.0362 11.0938C10.4193 9.78807 10.2898 7.94872 10.2898 6.63563C10.2898 6.62992 10.2896 6.62426 10.2894 6.61857C10.2827 4.88316 9.24356 3.38717 7.75651 2.71595V1.68941C7.75651 0.757859 6.9999 0 6.06989 0H5.93011C5.0001 0 4.24348 0.757859 4.24348 1.68941V2.71589C2.75146 3.38927 1.71023 4.89291 1.71023 6.63563C1.71023 7.94872 1.58073 9.78804 0.963773 11.0938C0.627852 11.8048 0.292346 12.0398 0.247738 12.0688C0.0598874 12.1557 -0.0327345 12.3565 0.0104811 12.5601C0.0541115 12.7656 0.246227 12.9073 0.456026 12.9073H3.71266C3.73085 14.1555 4.7496 15.1655 6.00001 15.1655C7.25042 15.1655 8.26917 14.1555 8.28736 12.9073H11.544C11.7538 12.9073 11.9459 12.7656 11.9895 12.5601C12.0327 12.3565 11.9401 12.1557 11.7523 12.0688V12.0688ZM5.13211 1.68941C5.13211 1.24863 5.4901 0.890053 5.93014 0.890053H6.06991C6.50995 0.890053 6.86794 1.24863 6.86794 1.68941V2.42745C6.5875 2.36949 6.29719 2.33898 5.99989 2.33898C5.70269 2.33898 5.41247 2.36946 5.13214 2.42736V1.68941H5.13211ZM6.00001 14.2754C5.23958 14.2754 4.6193 13.6647 4.60126 12.9073H7.39873C7.38072 13.6647 6.76045 14.2754 6.00001 14.2754V14.2754ZM7.78906 12.0172C7.78897 12.0172 1.46859 12.0172 1.46859 12.0172C1.54545 11.8974 1.62368 11.7618 1.70143 11.6085C2.29691 10.4343 2.59886 8.76117 2.59886 6.63563C2.59886 4.75722 4.12456 3.22903 5.99986 3.22903C7.87517 3.22903 9.40087 4.75722 9.40087 6.63711C9.40087 6.64259 9.40096 6.64804 9.40116 6.65349C9.40285 8.7705 9.70477 10.4376 10.2986 11.6085C10.3763 11.7618 10.4546 11.8974 10.5314 12.0172H7.78906Z" fill="#3C4858"/>
</svg>
