<svg width="29" height="29" viewBox="0 0 29 29" fill="none" xmlns="http://www.w3.org/2000/svg">
<rect width="28.4623" height="28.4623" rx="5" fill="#FC8383"/>
<path d="M20.3696 6.73173C19.3879 5.75609 17.8058 5.75609 16.8304 6.73173L15.4922 8.07011L19.9257 12.5105L21.2638 11.1722C22.2456 10.1903 22.2456 8.60797 21.2638 7.63232L20.3696 6.73173V6.73173Z" fill="white"/>
<path d="M6.96932 16.9948L6.0301 20.7035C5.94443 21.0975 6.04448 21.4602 6.29398 21.7104C6.54411 21.9543 6.90054 22.0544 7.24446 21.9731L11.0026 21.0287C11.3528 20.9412 11.6779 20.7598 11.9343 20.5034L18.5126 13.924L14.0729 9.48987L7.49458 16.0129C7.2382 16.3256 7.05686 16.6446 6.96932 16.9948V16.9948Z" fill="white"/>
</svg>
