<svg width="14" height="17" viewBox="0 0 14 17" fill="none" xmlns="http://www.w3.org/2000/svg">
<path d="M13.7869 0.547016C13.6446 0.342714 13.4531 0.193308 13.2127 0.0985311C13.0595 0.0329842 12.8991 0.000153237 12.7313 0.000153237V0H1.26868C1.101 0 0.940681 0.0328309 0.787521 0.0983779C0.54694 0.193078 0.35547 0.342675 0.213305 0.546863C0.0711783 0.751051 0 0.976998 0 1.22497V15.3235C0 15.5715 0.0711783 15.7974 0.213305 16.0018C0.35547 16.2059 0.54694 16.3555 0.787521 16.4501C0.940528 16.5157 1.101 16.5484 1.26868 16.5484C1.61151 16.5484 1.91396 16.4281 2.17653 16.1876L7.00004 11.5499L11.8235 16.1878C12.0788 16.4207 12.3814 16.5374 12.7313 16.5374C12.9136 16.5374 13.0741 16.5084 13.2126 16.4501C13.4531 16.3554 13.6446 16.2059 13.7868 16.0015C13.929 15.7973 14 15.5714 14 15.3234V1.22513C14 0.977151 13.9289 0.751204 13.7869 0.547016ZM12.6001 14.9842L7.97351 10.5436L7.00004 9.61406L6.02664 10.5436L1.40012 14.9842V1.40016H12.6001V14.9842Z" fill="black"/>
<path d="M13.7869 0.547016C13.6446 0.342714 13.4531 0.193308 13.2127 0.0985311C13.0595 0.0329842 12.8991 0.000153237 12.7313 0.000153237V0H1.26868C1.101 0 0.940681 0.0328309 0.787521 0.0983779C0.54694 0.193078 0.35547 0.342675 0.213305 0.546863C0.0711783 0.751051 0 0.976998 0 1.22497V15.3235C0 15.5715 0.0711783 15.7974 0.213305 16.0018C0.35547 16.2059 0.54694 16.3555 0.787521 16.4501C0.940528 16.5157 1.101 16.5484 1.26868 16.5484C1.61151 16.5484 1.91396 16.4281 2.17653 16.1876L7.00004 11.5499L11.8235 16.1878C12.0788 16.4207 12.3814 16.5374 12.7313 16.5374C12.9136 16.5374 13.0741 16.5084 13.2126 16.4501C13.4531 16.3554 13.6446 16.2059 13.7868 16.0015C13.929 15.7973 14 15.5714 14 15.3234V1.22513C14 0.977151 13.9289 0.751204 13.7869 0.547016ZM12.6001 14.9842L7.97351 10.5436L7.00004 9.61406L6.02664 10.5436L1.40012 14.9842V1.40016H12.6001V14.9842Z" stroke="black"/>
</svg>
