<svg xmlns="http://www.w3.org/2000/svg" xmlns:xlink="http://www.w3.org/1999/xlink" width="1200" zoomAndPan="magnify" viewBox="0 0 900 899.99999" height="1200" preserveAspectRatio="xMidYMid meet" version="1.2"><g id="0fab42f291"><path style=" stroke:none;fill-rule:evenodd;fill:#113c7b;fill-opacity:1;" d="M 151.578125 409.355469 C 145.789062 409.355469 141.050781 404.621094 141.050781 398.828125 L 141.050781 180.410156 C 141.050781 174.09375 145.789062 169.882812 151.578125 169.882812 C 157.367188 169.882812 162.105469 174.09375 162.105469 180.410156 L 162.105469 398.828125 C 162.105469 404.621094 157.367188 409.355469 151.578125 409.355469 Z M 151.578125 409.355469 "/><path style=" stroke:none;fill-rule:evenodd;fill:#113c7b;fill-opacity:1;" d="M 750.527344 398.828125 C 744.738281 398.828125 739.472656 404.621094 739.472656 398.828125 L 739.472656 180.410156 C 739.472656 174.09375 744.210938 169.882812 750 169.882812 C 755.789062 169.882812 760.527344 174.09375 760.527344 180.410156 L 760.527344 398.828125 C 760.527344 404.621094 756.316406 398.828125 750.527344 398.828125 Z M 750.527344 398.828125 "/><path style=" stroke:none;fill-rule:evenodd;fill:#113c7b;fill-opacity:1;" d="M 699.472656 404.621094 C 706.84375 394.09375 721.578125 388.304688 736.316406 388.304688 L 763.683594 388.304688 C 777.894531 388.304688 793.15625 394.09375 800.527344 404.621094 Z M 699.472656 404.621094 "/><path style=" stroke:none;fill-rule:evenodd;fill:#113c7b;fill-opacity:1;" d="M 868.421875 631.460938 L 631.578125 631.460938 C 618.949219 631.460938 608.421875 621.460938 608.421875 608.828125 L 608.421875 607.25 C 614.210938 609.882812 621.050781 610.933594 627.894531 610.933594 L 872.105469 610.933594 C 878.949219 610.933594 885.261719 609.882812 891.578125 607.25 L 891.578125 608.828125 C 891.578125 621.460938 881.050781 631.460938 868.421875 631.460938 Z M 868.421875 631.460938 "/><path style=" stroke:none;fill-rule:evenodd;fill:#113c7b;fill-opacity:1;" d="M 872.105469 589.882812 L 627.894531 589.882812 C 612.632812 589.882812 600 577.777344 600 561.988281 L 600 484.621094 L 720 538.828125 C 720 541.460938 721.050781 544.09375 723.15625 545.671875 L 736.84375 559.355469 C 738.421875 561.460938 741.050781 562.515625 744.210938 562.515625 L 755.789062 562.515625 C 758.421875 562.515625 761.050781 561.460938 763.15625 559.355469 L 776.84375 545.671875 C 778.421875 544.09375 779.472656 541.460938 779.472656 538.828125 L 900 484.621094 L 900 561.988281 C 900 577.777344 887.367188 589.882812 872.105469 589.882812 Z M 600 457.777344 L 600 453.566406 C 600 437.777344 612.632812 425.671875 627.894531 425.671875 L 872.105469 425.671875 C 887.367188 425.671875 900 437.777344 900 453.566406 L 900 457.777344 L 779.472656 511.988281 C 778.949219 506.726562 774.738281 503.039062 768.949219 503.039062 L 730.527344 503.039062 C 725.261719 503.039062 721.050781 506.726562 720 511.988281 Z M 748.421875 541.460938 L 751.578125 541.460938 L 758.421875 534.09375 L 758.421875 524.09375 L 741.050781 524.09375 L 741.050781 534.09375 Z M 748.421875 541.460938 "/><path style=" stroke:none;fill-rule:evenodd;fill:#113c7b;fill-opacity:1;" d="M 256.84375 639.882812 L 185.261719 639.882812 L 185.261719 544.09375 C 185.261719 538.304688 180.527344 533.566406 174.738281 533.566406 L 128.421875 533.566406 C 122.105469 533.566406 117.894531 538.304688 117.894531 544.09375 L 117.894531 639.882812 L 45.789062 639.882812 C 40 639.882812 35.261719 635.671875 35.261719 629.355469 L 35.261719 535.671875 C 37.894531 535.144531 40.527344 534.09375 43.15625 532.515625 L 151.578125 469.882812 L 260 532.515625 C 262.632812 534.09375 264.738281 535.144531 267.367188 535.671875 L 267.367188 629.355469 C 267.367188 635.671875 262.632812 639.882812 256.84375 639.882812 Z M 164.210938 639.882812 L 138.949219 639.882812 L 138.949219 554.621094 L 164.210938 554.621094 Z M 164.210938 639.882812 "/><path style=" stroke:none;fill-rule:evenodd;fill:#113c7b;fill-opacity:1;" d="M 27.367188 515.671875 C 26.316406 515.671875 25.261719 515.671875 24.210938 515.144531 C 21.578125 514.621094 19.472656 513.039062 17.894531 510.410156 L 3.15625 484.621094 C 0 479.355469 1.578125 473.039062 6.84375 469.882812 L 146.316406 389.882812 C 149.472656 387.777344 153.683594 387.777344 156.84375 389.882812 L 296.316406 469.882812 C 301.050781 473.039062 303.15625 479.355469 300 484.621094 L 285.261719 510.410156 C 283.683594 513.039062 281.578125 514.621094 278.421875 515.144531 C 275.789062 516.199219 273.15625 515.671875 270.527344 514.09375 L 151.578125 445.671875 L 32.632812 514.09375 C 30.527344 515.144531 28.949219 515.671875 27.367188 515.671875 Z M 27.367188 515.671875 "/><path style=" stroke:none;fill-rule:evenodd;fill:#113c7b;fill-opacity:1;" d="M 450.527344 289.355469 C 396.84375 289.355469 353.15625 245.671875 353.15625 191.988281 C 353.15625 137.777344 396.84375 94.09375 450.527344 94.09375 C 504.738281 94.09375 548.421875 137.777344 548.421875 191.988281 C 548.421875 245.671875 504.738281 289.355469 450.527344 289.355469 Z M 450.527344 289.355469 "/><path style=" stroke:none;fill-rule:evenodd;fill:#113c7b;fill-opacity:1;" d="M 554.738281 811.988281 L 461.050781 811.988281 C 461.050781 811.988281 461.050781 811.460938 461.050781 811.460938 L 461.050781 657.25 C 461.050781 651.460938 456.316406 646.726562 450.527344 646.726562 C 444.738281 646.726562 440 651.460938 440 657.25 L 440 811.460938 C 440 811.460938 440 811.988281 440 811.988281 L 346.84375 811.988281 C 344.210938 811.988281 341.578125 810.933594 339.472656 809.355469 C 337.367188 807.25 336.316406 804.621094 336.316406 801.460938 L 336.316406 426.199219 C 230.527344 327.777344 146.84375 192.515625 142.632812 185.671875 C 130 166.726562 140.527344 149.355469 151.050781 141.460938 C 159.472656 134.621094 167.894531 130.933594 177.367188 130.933594 C 191.578125 130.933594 201.050781 140.410156 202.632812 141.460938 L 242.105469 180.933594 C 242.105469 181.460938 242.632812 181.460938 242.632812 181.988281 C 360 327.777344 440.527344 331.988281 449.472656 331.988281 L 452.105469 331.988281 C 460.527344 331.988281 541.578125 327.777344 658.949219 181.988281 C 658.949219 181.460938 659.472656 181.460938 659.472656 180.933594 L 698.949219 141.460938 C 700.527344 139.882812 710 130.933594 724.210938 130.933594 C 733.15625 130.933594 742.105469 134.621094 750.527344 141.460938 C 761.050781 149.355469 771.578125 166.726562 758.949219 185.671875 C 754.738281 192.515625 671.050781 327.777344 565.261719 426.199219 L 565.261719 801.460938 C 565.261719 807.777344 560.527344 811.988281 554.738281 811.988281 Z M 554.738281 811.988281 "/></g></svg>