<svg width="55" height="54" viewBox="0 0 55 54" fill="none" xmlns="http://www.w3.org/2000/svg">
<g id="Brain">
<path id="Vector" d="M52.8126 26.1562C52.8104 23.921 52.1752 21.7321 50.9807 19.8428C49.7861 17.9535 48.081 16.4411 46.0626 15.4807V15.1875C46.0607 13.0132 45.3588 10.8972 44.061 9.15279C42.7631 7.40833 40.9381 6.12801 38.8561 5.50128C36.7741 4.87454 34.5456 4.93468 32.5004 5.67281C30.4553 6.41093 28.702 7.78781 27.5001 9.59974C26.2982 7.78781 24.545 6.41093 22.4998 5.67281C20.4546 4.93468 18.2261 4.87454 16.1441 5.50128C14.0621 6.12801 12.2371 7.40833 10.9393 9.15279C9.6414 10.8972 8.93956 13.0132 8.93762 15.1875V15.4807C6.91755 16.4385 5.21076 17.9499 4.01562 19.8393C2.82047 21.7287 2.18604 23.9185 2.18604 26.1541C2.18604 28.3898 2.82047 30.5795 4.01562 32.4689C5.21076 34.3583 6.91755 35.8697 8.93762 36.8275V37.125C8.93956 39.2993 9.6414 41.4152 10.9393 43.1597C12.2371 44.9041 14.0621 46.1844 16.1441 46.8112C18.2261 47.4379 20.4546 47.3778 22.4998 46.6396C24.545 45.9015 26.2982 44.5246 27.5001 42.7127C28.702 44.5246 30.4553 45.9015 32.5004 46.6396C34.5456 47.3778 36.7741 47.4379 38.8561 46.8112C40.9381 46.1844 42.7631 44.9041 44.061 43.1597C45.3588 41.4152 46.0607 39.2993 46.0626 37.125V36.8275C48.0807 35.8678 49.7856 34.3562 50.9802 32.4676C52.1748 30.5791 52.8101 28.3909 52.8126 26.1562ZM19.0626 43.875C17.3982 43.8747 15.7926 43.2596 14.5541 42.1476C13.3156 41.0357 12.5316 39.5054 12.3527 37.8506C12.8984 37.9284 13.4489 37.9679 14.0001 37.9687H15.6876C16.1352 37.9687 16.5644 37.7909 16.8809 37.4745C17.1973 37.158 17.3751 36.7288 17.3751 36.2812C17.3751 35.8337 17.1973 35.4044 16.8809 35.088C16.5644 34.7715 16.1352 34.5937 15.6876 34.5937H14.0001C12.0079 34.596 10.0792 33.8934 8.55535 32.6102C7.03151 31.3269 6.01088 29.5459 5.67416 27.5824C5.33743 25.6188 5.70633 23.5995 6.71555 21.8819C7.72477 20.1642 9.30919 18.8591 11.1883 18.1975C11.5171 18.0811 11.8018 17.8657 12.0031 17.5809C12.2044 17.2961 12.3126 16.9559 12.3126 16.6071V15.1875C12.3126 13.3973 13.0238 11.6804 14.2896 10.4145C15.5555 9.14863 17.2724 8.43747 19.0626 8.43747C20.8528 8.43747 22.5697 9.14863 23.8356 10.4145C25.1015 11.6804 25.8126 13.3973 25.8126 15.1875V29.5861C23.9596 27.9194 21.5549 26.9981 19.0626 27C18.6151 27 18.1858 27.1778 17.8694 27.4942C17.5529 27.8107 17.3751 28.2399 17.3751 28.6875C17.3751 29.135 17.5529 29.5642 17.8694 29.8807C18.1858 30.1972 18.6151 30.375 19.0626 30.375C20.8528 30.375 22.5697 31.0861 23.8356 32.352C25.1015 33.6179 25.8126 35.3348 25.8126 37.125C25.8126 38.9152 25.1015 40.6321 23.8356 41.8979C22.5697 43.1638 20.8528 43.875 19.0626 43.875ZM41.0001 34.5937H39.3126C38.8651 34.5937 38.4358 34.7715 38.1194 35.088C37.8029 35.4044 37.6251 35.8337 37.6251 36.2812C37.6251 36.7288 37.8029 37.158 38.1194 37.4745C38.4358 37.7909 38.8651 37.9687 39.3126 37.9687H41.0001C41.5513 37.9679 42.1018 37.9284 42.6475 37.8506C42.5073 39.1472 41.9946 40.3754 41.1712 41.3867C40.3478 42.398 39.2491 43.1492 38.0079 43.5493C36.7667 43.9495 35.4361 43.9816 34.1771 43.6416C32.9181 43.3017 31.7845 42.6043 30.9134 41.6337C30.0423 40.6632 29.4709 39.4611 29.2685 38.1728C29.066 36.8845 29.2411 35.5652 29.7726 34.3742C30.304 33.1833 31.1691 32.1718 32.2632 31.4621C33.3572 30.7524 34.6335 30.3748 35.9376 30.375C36.3852 30.375 36.8144 30.1972 37.1309 29.8807C37.4473 29.5642 37.6251 29.135 37.6251 28.6875C37.6251 28.2399 37.4473 27.8107 37.1309 27.4942C36.8144 27.1778 36.3852 27 35.9376 27C33.4453 26.9981 31.0407 27.9194 29.1876 29.5861V15.1875C29.1876 13.3973 29.8988 11.6804 31.1646 10.4145C32.4305 9.14863 34.1474 8.43747 35.9376 8.43747C37.7278 8.43747 39.4447 9.14863 40.7106 10.4145C41.9765 11.6804 42.6876 13.3973 42.6876 15.1875V16.6071C42.6877 16.9559 42.7958 17.2961 42.9971 17.5809C43.1985 17.8657 43.4831 18.0811 43.8119 18.1975C45.691 18.8591 47.2755 20.1642 48.2847 21.8819C49.2939 23.5995 49.6628 25.6188 49.3261 27.5824C48.9894 29.5459 47.9687 31.3269 46.4449 32.6102C44.921 33.8934 42.9923 34.596 41.0001 34.5937ZM44.3751 23.625C44.3751 24.0725 44.1973 24.5017 43.8809 24.8182C43.5644 25.1347 43.1352 25.3125 42.6876 25.3125H41.8439C39.8299 25.3125 37.8984 24.5124 36.4743 23.0883C35.0502 21.6642 34.2501 19.7327 34.2501 17.7187V16.875C34.2501 16.4274 34.4279 15.9982 34.7444 15.6817C35.0608 15.3653 35.4901 15.1875 35.9376 15.1875C36.3852 15.1875 36.8144 15.3653 37.1309 15.6817C37.4473 15.9982 37.6251 16.4274 37.6251 16.875V17.7187C37.6251 18.8376 38.0696 19.9107 38.8608 20.7018C39.6519 21.493 40.725 21.9375 41.8439 21.9375H42.6876C43.1352 21.9375 43.5644 22.1153 43.8809 22.4317C44.1973 22.7482 44.3751 23.1774 44.3751 23.625ZM13.1564 25.3125H12.3126C11.8651 25.3125 11.4358 25.1347 11.1194 24.8182C10.8029 24.5017 10.6251 24.0725 10.6251 23.625C10.6251 23.1774 10.8029 22.7482 11.1194 22.4317C11.4358 22.1153 11.8651 21.9375 12.3126 21.9375H13.1564C14.2752 21.9375 15.3483 21.493 16.1395 20.7018C16.9306 19.9107 17.3751 18.8376 17.3751 17.7187V16.875C17.3751 16.4274 17.5529 15.9982 17.8694 15.6817C18.1858 15.3653 18.6151 15.1875 19.0626 15.1875C19.5102 15.1875 19.9394 15.3653 20.2559 15.6817C20.5723 15.9982 20.7501 16.4274 20.7501 16.875V17.7187C20.7501 19.7327 19.9501 21.6642 18.526 23.0883C17.1019 24.5124 15.1704 25.3125 13.1564 25.3125Z" fill="#113C7B"/>
</g>
</svg>
