<svg width="20" height="20" viewBox="0 0 20 20" fill="none" xmlns="http://www.w3.org/2000/svg">
<path d="M17.7082 12.1412C17.7082 13.3945 16.9391 14.4681 15.8471 14.9159C15.3861 16.5282 13.9014 17.7083 12.141 17.7083C11.3487 17.7083 10.6123 17.4692 9.99984 17.0593C9.38741 17.4692 8.65094 17.7083 7.85863 17.7083C6.09829 17.7083 4.61359 16.5282 4.15256 14.9159C3.0606 14.4681 2.2915 13.3945 2.2915 12.1412C2.2915 11.3024 2.63601 10.5441 3.19125 9.99999C2.63601 9.45591 2.2915 8.69758 2.2915 7.85879C2.2915 6.31293 3.46161 5.04037 4.96445 4.87849C5.33869 3.39205 6.68428 2.29166 8.28687 2.29166C8.91089 2.29166 9.49593 2.45849 9.99984 2.74999C10.5037 2.45849 11.0888 2.29166 11.7128 2.29166C13.3154 2.29166 14.661 3.39205 15.0352 4.87849C16.5381 5.04037 17.7082 6.31293 17.7082 7.85879C17.7082 8.69758 17.3637 9.45591 16.8084 9.99999C17.3637 10.5441 17.7082 11.3024 17.7082 12.1412Z" fill="#FC8383"/>
<path d="M7.2915 11.4583C8.78728 11.4583 9.99984 12.6709 9.99984 14.1667M12.7082 8.54166C11.2124 8.54166 9.99984 7.32909 9.99984 5.83332M9.99984 3.04689L9.99984 16.761M15.8471 14.9159C16.9391 14.4681 17.7082 13.3945 17.7082 12.1412C17.7082 11.3024 17.3637 10.5441 16.8084 9.99999C17.3637 9.45591 17.7082 8.69758 17.7082 7.85879C17.7082 6.31293 16.5381 5.04037 15.0352 4.87849C14.661 3.39205 13.3154 2.29166 11.7128 2.29166C11.0888 2.29166 10.5037 2.45849 9.99984 2.74999C9.49593 2.45849 8.91089 2.29166 8.28687 2.29166C6.68428 2.29166 5.33869 3.39205 4.96445 4.87849C3.46161 5.04037 2.2915 6.31293 2.2915 7.85879C2.2915 8.69758 2.63601 9.45591 3.19125 9.99999C2.63601 10.5441 2.2915 11.3024 2.2915 12.1412C2.2915 13.3945 3.0606 14.4681 4.15256 14.9159C4.61359 16.5282 6.09829 17.7083 7.85863 17.7083C8.65094 17.7083 9.38741 17.4692 9.99984 17.0593C10.6123 17.4692 11.3487 17.7083 12.141 17.7083C13.9014 17.7083 15.3861 16.5282 15.8471 14.9159Z" stroke="#113C7B" stroke-width="1.5" stroke-linecap="square"/>
</svg>
