<svg width="606" height="341" viewBox="0 0 606 341" fill="none" xmlns="http://www.w3.org/2000/svg">
<g clip-path="url(#clip0_46082_37379)">
<path d="M448.501 147.137H522.677V263.326H448.501V147.137Z" fill="white"/>
<path d="M522.677 264.275H448.501C448.25 264.275 448.01 264.175 447.833 263.997C447.656 263.819 447.556 263.578 447.556 263.326V147.137C447.556 146.885 447.656 146.644 447.833 146.466C448.01 146.288 448.25 146.188 448.501 146.188H522.677C522.928 146.188 523.168 146.288 523.345 146.466C523.522 146.644 523.622 146.885 523.622 147.137V263.326C523.622 263.578 523.522 263.819 523.345 263.997C523.168 264.175 522.928 264.275 522.677 264.275ZM449.446 262.377H521.732V148.086H449.446V262.377Z" fill="#222433"/>
<path d="M463.001 159.399H509.569V206.176H463.001V159.399Z" fill="white"/>
<path d="M509.57 207.126H463.001C462.751 207.126 462.51 207.026 462.333 206.848C462.156 206.67 462.057 206.428 462.057 206.177V159.399C462.057 159.147 462.156 158.906 462.333 158.728C462.51 158.55 462.751 158.45 463.001 158.45H509.57C509.82 158.45 510.06 158.55 510.238 158.728C510.415 158.906 510.514 159.147 510.514 159.399V206.177C510.514 206.428 510.415 206.67 510.238 206.848C510.06 207.026 509.82 207.126 509.57 207.126V207.126ZM463.946 205.228H508.625V160.348H463.946V205.228Z" fill="#222433"/>
<path d="M461.961 214.287H509.569V221.696H461.961V214.287Z" fill="#0782D0"/>
<path d="M509.57 231.95H461.608C461.358 231.95 461.117 231.85 460.94 231.673C460.763 231.495 460.664 231.253 460.664 231.002C460.664 230.75 460.763 230.509 460.94 230.331C461.117 230.153 461.358 230.053 461.608 230.053H509.57C509.82 230.053 510.06 230.153 510.238 230.331C510.415 230.509 510.514 230.75 510.514 231.002C510.514 231.253 510.415 231.495 510.238 231.673C510.06 231.85 509.82 231.95 509.57 231.95V231.95ZM509.57 243.016H461.608C461.358 243.016 461.117 242.916 460.94 242.738C460.763 242.56 460.664 242.319 460.664 242.067C460.664 241.815 460.763 241.574 460.94 241.396C461.117 241.218 461.358 241.118 461.608 241.118H509.57C509.82 241.118 510.06 241.218 510.238 241.396C510.415 241.574 510.514 241.815 510.514 242.067C510.514 242.319 510.415 242.56 510.238 242.738C510.06 242.916 509.82 243.016 509.57 243.016Z" fill="#222433"/>
</g>
<mask id="path-7-outside-1_46082_37379" maskUnits="userSpaceOnUse" x="468.65" y="166.974" width="35" height="32" fill="black">
<rect fill="white" x="468.65" y="166.974" width="35" height="32"/>
<path d="M485.915 189.013C485.64 189.013 485.372 188.935 485.138 188.784L475.379 182.489C475.067 182.287 474.853 181.98 474.777 181.624C474.702 181.267 474.775 180.904 474.984 180.6L475.795 179.421C476.003 179.118 476.322 178.911 476.692 178.84C477.061 178.768 477.437 178.84 477.75 179.042L487.509 185.337C488.153 185.752 488.326 186.6 487.895 187.227L487.084 188.406C486.876 188.709 486.559 188.915 486.192 188.986C486.1 189.004 486.007 189.013 485.915 189.013ZM476.971 179.495C476.924 179.495 476.877 179.5 476.83 179.509C476.645 179.544 476.485 179.648 476.381 179.799L475.57 180.979C475.466 181.129 475.43 181.31 475.468 181.488C475.505 181.666 475.613 181.82 475.77 181.921L485.528 188.217C485.685 188.317 485.871 188.353 486.054 188.318C486.236 188.283 486.394 188.18 486.498 188.029L487.309 186.849C487.414 186.697 487.452 186.514 487.416 186.336C487.38 186.158 487.274 186.005 487.118 185.904L477.359 179.609C477.243 179.534 477.109 179.495 476.971 179.495Z"/>
<path d="M492.391 178.175C492.129 178.175 491.874 178.097 491.651 177.945L482.359 171.65C482.061 171.449 481.858 171.142 481.787 170.786C481.715 170.429 481.784 170.066 481.983 169.762L482.759 168.578C483.167 167.954 484 167.786 484.617 168.204L493.909 174.498C494.207 174.7 494.409 175.007 494.479 175.362C494.549 175.717 494.478 176.08 494.28 176.383L493.504 177.567C493.306 177.87 493.004 178.076 492.655 178.148C492.567 178.166 492.478 178.175 492.391 178.175ZM483.871 168.656C483.655 168.656 483.444 168.761 483.316 168.956L482.541 170.14C482.442 170.291 482.407 170.472 482.443 170.65C482.479 170.828 482.581 170.982 482.73 171.083L492.022 177.378C492.171 177.479 492.348 177.514 492.523 177.479C492.696 177.444 492.847 177.341 492.946 177.19L493.722 176.005C493.925 175.694 493.842 175.273 493.536 175.066L484.244 168.771C484.129 168.693 484 168.656 483.871 168.656Z"/>
<path d="M485.831 185.188C485.764 185.188 485.699 185.169 485.643 185.131L478.086 180.118C477.93 180.015 477.888 179.805 477.992 179.649L483.14 171.95C483.244 171.795 483.454 171.753 483.611 171.856L491.168 176.869C491.243 176.919 491.295 176.996 491.312 177.084C491.33 177.172 491.312 177.263 491.262 177.338L486.113 185.037C486.064 185.112 485.986 185.164 485.898 185.181C485.876 185.186 485.854 185.188 485.831 185.188ZM478.745 179.743L485.737 184.382L490.509 177.245L483.517 172.607L478.745 179.743Z"/>
<path d="M500.222 191.564C499.735 191.564 499.243 191.421 498.809 191.122C498.761 191.089 498.707 191.051 498.657 191.008L487.622 182.239C487.486 182.131 487.454 181.932 487.55 181.785L488.96 179.601C489.055 179.454 489.245 179.406 489.395 179.495L501.503 186.624C502.124 186.99 502.557 187.588 502.722 188.307C502.885 189.018 502.753 189.775 502.36 190.383C501.866 191.149 501.051 191.564 500.222 191.564ZM488.264 181.897L499.066 190.482C499.108 190.517 499.142 190.54 499.172 190.561C500.047 191.161 501.232 190.914 501.816 190.01C502.113 189.55 502.209 189.001 502.086 188.463C501.963 187.928 501.641 187.483 501.178 187.21L489.335 180.237L488.264 181.897Z"/>
<path d="M486.513 197.939H469.993C469.803 197.939 469.65 197.776 469.65 197.574V195.762C469.65 194.15 470.883 192.839 472.399 192.839H484.108C485.624 192.839 486.858 194.15 486.858 195.762V197.574C486.857 197.776 486.703 197.939 486.513 197.939ZM470.337 197.208H486.169V195.762C486.169 194.553 485.244 193.569 484.107 193.569H472.398C471.261 193.569 470.336 194.553 470.336 195.762L470.337 197.208Z"/>
</mask>
<path d="M485.915 189.013C485.64 189.013 485.372 188.935 485.138 188.784L475.379 182.489C475.067 182.287 474.853 181.98 474.777 181.624C474.702 181.267 474.775 180.904 474.984 180.6L475.795 179.421C476.003 179.118 476.322 178.911 476.692 178.84C477.061 178.768 477.437 178.84 477.75 179.042L487.509 185.337C488.153 185.752 488.326 186.6 487.895 187.227L487.084 188.406C486.876 188.709 486.559 188.915 486.192 188.986C486.1 189.004 486.007 189.013 485.915 189.013ZM476.971 179.495C476.924 179.495 476.877 179.5 476.83 179.509C476.645 179.544 476.485 179.648 476.381 179.799L475.57 180.979C475.466 181.129 475.43 181.31 475.468 181.488C475.505 181.666 475.613 181.82 475.77 181.921L485.528 188.217C485.685 188.317 485.871 188.353 486.054 188.318C486.236 188.283 486.394 188.18 486.498 188.029L487.309 186.849C487.414 186.697 487.452 186.514 487.416 186.336C487.38 186.158 487.274 186.005 487.118 185.904L477.359 179.609C477.243 179.534 477.109 179.495 476.971 179.495Z" fill="#0782D0"/>
<path d="M492.391 178.175C492.129 178.175 491.874 178.097 491.651 177.945L482.359 171.65C482.061 171.449 481.858 171.142 481.787 170.786C481.715 170.429 481.784 170.066 481.983 169.762L482.759 168.578C483.167 167.954 484 167.786 484.617 168.204L493.909 174.498C494.207 174.7 494.409 175.007 494.479 175.362C494.549 175.717 494.478 176.08 494.28 176.383L493.504 177.567C493.306 177.87 493.004 178.076 492.655 178.148C492.567 178.166 492.478 178.175 492.391 178.175ZM483.871 168.656C483.655 168.656 483.444 168.761 483.316 168.956L482.541 170.14C482.442 170.291 482.407 170.472 482.443 170.65C482.479 170.828 482.581 170.982 482.73 171.083L492.022 177.378C492.171 177.479 492.348 177.514 492.523 177.479C492.696 177.444 492.847 177.341 492.946 177.19L493.722 176.005C493.925 175.694 493.842 175.273 493.536 175.066L484.244 168.771C484.129 168.693 484 168.656 483.871 168.656Z" fill="#0782D0"/>
<path d="M485.831 185.188C485.764 185.188 485.699 185.169 485.643 185.131L478.086 180.118C477.93 180.015 477.888 179.805 477.992 179.649L483.14 171.95C483.244 171.795 483.454 171.753 483.611 171.856L491.168 176.869C491.243 176.919 491.295 176.996 491.312 177.084C491.33 177.172 491.312 177.263 491.262 177.338L486.113 185.037C486.064 185.112 485.986 185.164 485.898 185.181C485.876 185.186 485.854 185.188 485.831 185.188ZM478.745 179.743L485.737 184.382L490.509 177.245L483.517 172.607L478.745 179.743Z" fill="#0782D0"/>
<path d="M500.222 191.564C499.735 191.564 499.243 191.421 498.809 191.122C498.761 191.089 498.707 191.051 498.657 191.008L487.622 182.239C487.486 182.131 487.454 181.932 487.55 181.785L488.96 179.601C489.055 179.454 489.245 179.406 489.395 179.495L501.503 186.624C502.124 186.99 502.557 187.588 502.722 188.307C502.885 189.018 502.753 189.775 502.36 190.383C501.866 191.149 501.051 191.564 500.222 191.564ZM488.264 181.897L499.066 190.482C499.108 190.517 499.142 190.54 499.172 190.561C500.047 191.161 501.232 190.914 501.816 190.01C502.113 189.55 502.209 189.001 502.086 188.463C501.963 187.928 501.641 187.483 501.178 187.21L489.335 180.237L488.264 181.897Z" fill="#0782D0"/>
<path d="M486.513 197.939H469.993C469.803 197.939 469.65 197.776 469.65 197.574V195.762C469.65 194.15 470.883 192.839 472.399 192.839H484.108C485.624 192.839 486.858 194.15 486.858 195.762V197.574C486.857 197.776 486.703 197.939 486.513 197.939ZM470.337 197.208H486.169V195.762C486.169 194.553 485.244 193.569 484.107 193.569H472.398C471.261 193.569 470.336 194.553 470.336 195.762L470.337 197.208Z" fill="#0782D0"/>
<path d="M502.089 190.297H502.095V190.097H502.089V190.297ZM485.138 188.784L485.247 188.616L485.246 188.616L485.138 188.784ZM475.379 182.489L475.271 182.657L475.271 182.657L475.379 182.489ZM474.777 181.624L474.582 181.666L474.582 181.666L474.777 181.624ZM474.984 180.6L474.819 180.487L474.819 180.487L474.984 180.6ZM475.795 179.421L475.96 179.534L475.96 179.534L475.795 179.421ZM476.692 178.84L476.729 179.036L476.73 179.036L476.692 178.84ZM477.75 179.042L477.641 179.21L477.642 179.21L477.75 179.042ZM487.509 185.337L487.4 185.505L487.4 185.505L487.509 185.337ZM487.895 187.227L487.73 187.113L487.73 187.113L487.895 187.227ZM487.084 188.406L486.919 188.293L486.919 188.293L487.084 188.406ZM486.192 188.986L486.154 188.79L486.154 188.79L486.192 188.986ZM476.83 179.509L476.793 179.312L476.792 179.312L476.83 179.509ZM476.381 179.799L476.216 179.686L476.216 179.686L476.381 179.799ZM475.57 180.979L475.405 180.865L475.405 180.865L475.57 180.979ZM475.468 181.488L475.663 181.446L475.663 181.446L475.468 181.488ZM475.77 181.921L475.661 182.089L475.661 182.089L475.77 181.921ZM485.528 188.217L485.42 188.385L485.42 188.385L485.528 188.217ZM486.054 188.318L486.091 188.515L486.092 188.514L486.054 188.318ZM486.498 188.029L486.663 188.142L486.663 188.142L486.498 188.029ZM487.309 186.849L487.474 186.962L487.474 186.962L487.309 186.849ZM487.416 186.336L487.612 186.296L487.612 186.296L487.416 186.336ZM487.118 185.904L487.227 185.736L487.227 185.736L487.118 185.904ZM477.359 179.609L477.468 179.441L477.468 179.441L477.359 179.609ZM491.651 177.945L491.763 177.78L491.763 177.78L491.651 177.945ZM482.359 171.65L482.471 171.485L482.471 171.485L482.359 171.65ZM481.787 170.786L481.983 170.747L481.983 170.747L481.787 170.786ZM481.983 169.762L481.816 169.653L481.816 169.653L481.983 169.762ZM482.759 168.578L482.591 168.468L482.591 168.468L482.759 168.578ZM484.617 168.204L484.729 168.038L484.729 168.038L484.617 168.204ZM493.909 174.498L494.021 174.332L494.021 174.332L493.909 174.498ZM494.479 175.362L494.675 175.323L494.675 175.323L494.479 175.362ZM494.28 176.383L494.112 176.273L494.112 176.273L494.28 176.383ZM493.504 177.567L493.671 177.677L493.671 177.677L493.504 177.567ZM492.655 178.148L492.615 177.952L492.614 177.952L492.655 178.148ZM483.316 168.956L483.483 169.065L483.483 169.065L483.316 168.956ZM482.541 170.14L482.708 170.25L482.708 170.25L482.541 170.14ZM482.443 170.65L482.247 170.689L482.247 170.689L482.443 170.65ZM482.73 171.083L482.618 171.249L482.618 171.249L482.73 171.083ZM492.022 177.378L492.135 177.213L492.135 177.213L492.022 177.378ZM492.523 177.479L492.561 177.676L492.562 177.675L492.523 177.479ZM492.946 177.19L493.113 177.3L493.113 177.299L492.946 177.19ZM493.722 176.005L493.554 175.896L493.554 175.896L493.722 176.005ZM493.536 175.066L493.424 175.231L493.424 175.231L493.536 175.066ZM484.244 168.771L484.357 168.605L484.357 168.605L484.244 168.771ZM485.643 185.131L485.754 184.965L485.753 184.965L485.643 185.131ZM478.086 180.118L478.197 179.951L478.197 179.951L478.086 180.118ZM477.992 179.649L478.158 179.76L478.158 179.76L477.992 179.649ZM483.14 171.95L483.307 172.061L483.307 172.061L483.14 171.95ZM483.611 171.856L483.722 171.69L483.721 171.689L483.611 171.856ZM491.168 176.869L491.057 177.036L491.057 177.036L491.168 176.869ZM491.312 177.084L491.116 177.123L491.116 177.123L491.312 177.084ZM491.262 177.338L491.096 177.226L491.096 177.227L491.262 177.338ZM486.113 185.037L485.947 184.926L485.947 184.926L486.113 185.037ZM485.898 185.181L485.859 184.985L485.856 184.985L485.898 185.181ZM478.745 179.743L478.579 179.632L478.467 179.798L478.635 179.909L478.745 179.743ZM485.737 184.382L485.626 184.548L485.792 184.659L485.903 184.493L485.737 184.382ZM490.509 177.245L490.675 177.356L490.787 177.189L490.619 177.078L490.509 177.245ZM483.517 172.607L483.628 172.44L483.462 172.33L483.351 172.495L483.517 172.607ZM498.809 191.122L498.695 191.287L498.696 191.287L498.809 191.122ZM498.657 191.008L498.787 190.856L498.781 190.851L498.657 191.008ZM487.622 182.239L487.498 182.396L487.498 182.396L487.622 182.239ZM487.55 181.785L487.718 181.893L487.718 181.893L487.55 181.785ZM488.96 179.601L488.792 179.492L488.792 179.492L488.96 179.601ZM489.395 179.495L489.293 179.667L489.293 179.667L489.395 179.495ZM501.503 186.624L501.604 186.451L501.604 186.451L501.503 186.624ZM502.722 188.307L502.917 188.263V188.263L502.722 188.307ZM502.36 190.383L502.192 190.275L502.192 190.275L502.36 190.383ZM488.264 181.897L488.096 181.788L487.998 181.941L488.14 182.053L488.264 181.897ZM499.066 190.482L499.196 190.33L499.19 190.325L499.066 190.482ZM499.172 190.561L499.285 190.396L499.285 190.396L499.172 190.561ZM501.816 190.01L501.984 190.119L501.984 190.119L501.816 190.01ZM502.086 188.463L502.281 188.418L502.281 188.418L502.086 188.463ZM501.178 187.21L501.28 187.038L501.28 187.038L501.178 187.21ZM489.335 180.237L489.437 180.065L489.271 179.968L489.167 180.129L489.335 180.237ZM486.858 197.574L487.058 197.574V197.574H486.858ZM470.337 197.208L470.137 197.208L470.137 197.408H470.337V197.208ZM486.169 197.208V197.408H486.369V197.208H486.169ZM470.336 195.762H470.136L470.136 195.762L470.336 195.762ZM485.915 188.813C485.679 188.813 485.448 188.746 485.247 188.616L485.029 188.952C485.296 189.124 485.602 189.213 485.915 189.213V188.813ZM485.246 188.616L475.487 182.321L475.271 182.657L485.03 188.952L485.246 188.616ZM475.488 182.321C475.219 182.147 475.037 181.885 474.973 181.583L474.582 181.666C474.668 182.075 474.915 182.427 475.271 182.657L475.488 182.321ZM474.973 181.583C474.909 181.28 474.971 180.972 475.149 180.714L474.819 180.487C474.58 180.835 474.495 181.255 474.582 181.666L474.973 181.583ZM475.149 180.714L475.96 179.534L475.63 179.307L474.819 180.487L475.149 180.714ZM475.96 179.534C476.138 179.275 476.41 179.098 476.729 179.036L476.654 178.644C476.233 178.725 475.869 178.96 475.63 179.307L475.96 179.534ZM476.73 179.036C477.049 178.974 477.372 179.036 477.641 179.21L477.858 178.874C477.502 178.643 477.073 178.562 476.653 178.644L476.73 179.036ZM477.642 179.21L487.4 185.505L487.617 185.169L477.858 178.874L477.642 179.21ZM487.4 185.505C487.951 185.86 488.097 186.581 487.73 187.113L488.06 187.34C488.556 186.62 488.355 185.645 487.617 185.169L487.4 185.505ZM487.73 187.113L486.919 188.293L487.249 188.52L488.06 187.34L487.73 187.113ZM486.919 188.293C486.741 188.552 486.47 188.729 486.154 188.79L486.23 189.183C486.647 189.102 487.011 188.867 487.249 188.519L486.919 188.293ZM486.154 188.79C486.074 188.806 485.994 188.813 485.915 188.813V189.213C486.02 189.213 486.125 189.203 486.231 189.183L486.154 188.79ZM476.971 179.295C476.911 179.295 476.851 179.301 476.793 179.312L476.867 179.705C476.903 179.698 476.938 179.695 476.971 179.695V179.295ZM476.792 179.312C476.557 179.358 476.351 179.49 476.216 179.686L476.546 179.913C476.62 179.806 476.733 179.731 476.868 179.705L476.792 179.312ZM476.216 179.686L475.405 180.865L475.735 181.092L476.546 179.913L476.216 179.686ZM475.405 180.865C475.271 181.06 475.223 181.297 475.272 181.529L475.663 181.446C475.637 181.322 475.662 181.198 475.735 181.092L475.405 180.865ZM475.272 181.529C475.321 181.761 475.461 181.96 475.661 182.089L475.879 181.754C475.764 181.68 475.69 181.571 475.663 181.446L475.272 181.529ZM475.661 182.089L485.42 188.385L485.636 188.048L475.878 181.753L475.661 182.089ZM485.42 188.385C485.62 188.514 485.858 188.559 486.091 188.515L486.016 188.122C485.883 188.147 485.749 188.121 485.636 188.048L485.42 188.385ZM486.092 188.514C486.325 188.469 486.529 188.337 486.663 188.142L486.333 187.915C486.259 188.023 486.147 188.096 486.015 188.122L486.092 188.514ZM486.663 188.142L487.474 186.962L487.145 186.735L486.333 187.915L486.663 188.142ZM487.474 186.962C487.609 186.766 487.659 186.529 487.612 186.296L487.22 186.376C487.245 186.5 487.219 186.627 487.144 186.735L487.474 186.962ZM487.612 186.296C487.565 186.064 487.426 185.865 487.227 185.736L487.01 186.072C487.121 186.144 487.195 186.252 487.22 186.376L487.612 186.296ZM487.227 185.736L477.468 179.441L477.251 179.777L487.01 186.072L487.227 185.736ZM477.468 179.441C477.319 179.345 477.147 179.295 476.971 179.295V179.695C477.071 179.695 477.167 179.723 477.251 179.777L477.468 179.441ZM492.391 177.975C492.17 177.975 491.953 177.909 491.763 177.78L491.539 178.111C491.794 178.285 492.089 178.375 492.391 178.375V177.975ZM491.763 177.78L482.471 171.485L482.247 171.816L491.539 178.111L491.763 177.78ZM482.471 171.485C482.217 171.313 482.044 171.052 481.983 170.747L481.59 170.826C481.672 171.232 481.905 171.585 482.247 171.816L482.471 171.485ZM481.983 170.747C481.921 170.441 481.981 170.131 482.15 169.872L481.816 169.653C481.588 170 481.508 170.417 481.591 170.826L481.983 170.747ZM482.15 169.872L482.926 168.687L482.591 168.468L481.816 169.653L482.15 169.872ZM482.926 168.687C483.273 168.157 483.981 168.015 484.505 168.369L484.729 168.038C484.02 167.558 483.061 167.752 482.591 168.468L482.926 168.687ZM484.505 168.369L493.797 174.664L494.021 174.332L484.729 168.038L484.505 168.369ZM493.797 174.664C494.05 174.836 494.223 175.097 494.283 175.401L494.675 175.323C494.595 174.917 494.363 174.564 494.021 174.332L493.797 174.664ZM494.283 175.4C494.343 175.705 494.282 176.014 494.112 176.273L494.447 176.492C494.674 176.146 494.755 175.73 494.675 175.323L494.283 175.4ZM494.112 176.273L493.337 177.458L493.671 177.677L494.447 176.492L494.112 176.273ZM493.337 177.458C493.167 177.717 492.911 177.891 492.615 177.952L492.695 178.343C493.097 178.261 493.444 178.024 493.671 177.677L493.337 177.458ZM492.614 177.952C492.539 177.967 492.464 177.975 492.391 177.975V178.375C492.492 178.375 492.594 178.364 492.696 178.343L492.614 177.952ZM483.871 168.456C483.591 168.456 483.315 168.593 483.149 168.846L483.483 169.065C483.573 168.929 483.72 168.856 483.871 168.856V168.456ZM483.149 168.846L482.373 170.031L482.708 170.25L483.483 169.065L483.149 168.846ZM482.373 170.031C482.246 170.226 482.201 170.46 482.247 170.689L482.639 170.61C482.614 170.484 482.638 170.356 482.708 170.25L482.373 170.031ZM482.247 170.689C482.293 170.918 482.425 171.118 482.618 171.249L482.843 170.918C482.737 170.846 482.665 170.737 482.639 170.61L482.247 170.689ZM482.618 171.249L491.91 177.544L492.135 177.213L482.843 170.918L482.618 171.249ZM491.91 177.544C492.103 177.675 492.335 177.721 492.561 177.676L492.484 177.283C492.361 177.308 492.238 177.283 492.135 177.213L491.91 177.544ZM492.562 177.675C492.79 177.629 492.986 177.494 493.113 177.3L492.779 177.08C492.708 177.188 492.603 177.259 492.483 177.283L492.562 177.675ZM493.113 177.299L493.889 176.115L493.554 175.896L492.779 177.08L493.113 177.299ZM493.889 176.115C494.152 175.713 494.046 175.169 493.649 174.9L493.424 175.231C493.638 175.376 493.699 175.675 493.554 175.896L493.889 176.115ZM493.649 174.9L484.357 168.605L484.132 168.937L493.424 175.231L493.649 174.9ZM484.357 168.605C484.208 168.505 484.039 168.456 483.871 168.456V168.856C483.961 168.856 484.051 168.882 484.132 168.937L484.357 168.605ZM485.831 184.988C485.803 184.988 485.777 184.98 485.754 184.965L485.532 185.298C485.622 185.357 485.725 185.388 485.831 185.388V184.988ZM485.753 184.965L478.197 179.951L477.976 180.284L485.532 185.298L485.753 184.965ZM478.197 179.951C478.133 179.909 478.116 179.824 478.158 179.76L477.826 179.538C477.66 179.786 477.728 180.12 477.976 180.285L478.197 179.951ZM478.158 179.76L483.307 172.061L482.974 171.839L477.826 179.538L478.158 179.76ZM483.307 172.061C483.349 171.998 483.435 171.98 483.501 172.023L483.721 171.689C483.473 171.526 483.139 171.591 482.974 171.839L483.307 172.061ZM483.5 172.023L491.057 177.036L491.278 176.703L483.722 171.69L483.5 172.023ZM491.057 177.036C491.088 177.057 491.109 177.088 491.116 177.123L491.508 177.045C491.48 176.904 491.397 176.781 491.278 176.703L491.057 177.036ZM491.116 177.123C491.123 177.16 491.116 177.197 491.096 177.226L491.428 177.45C491.508 177.33 491.536 177.184 491.508 177.045L491.116 177.123ZM491.096 177.227L485.947 184.926L486.28 185.148L491.428 177.449L491.096 177.227ZM485.947 184.926C485.927 184.956 485.895 184.978 485.859 184.985L485.937 185.377C486.077 185.349 486.201 185.267 486.28 185.148L485.947 184.926ZM485.856 184.985C485.847 184.987 485.839 184.988 485.831 184.988V185.388C485.868 185.388 485.904 185.384 485.939 185.377L485.856 184.985ZM478.635 179.909L485.626 184.548L485.847 184.215L478.856 179.576L478.635 179.909ZM485.903 184.493L490.675 177.356L490.343 177.134L485.57 184.271L485.903 184.493ZM490.619 177.078L483.628 172.44L483.407 172.773L490.398 177.412L490.619 177.078ZM483.351 172.495L478.579 179.632L478.911 179.854L483.684 172.718L483.351 172.495ZM500.222 191.364C499.775 191.364 499.323 191.232 498.923 190.957L498.696 191.287C499.164 191.609 499.696 191.764 500.222 191.764V191.364ZM498.923 190.958C498.875 190.924 498.828 190.892 498.787 190.856L498.526 191.16C498.585 191.21 498.647 191.253 498.695 191.287L498.923 190.958ZM498.781 190.851L487.747 182.083L487.498 182.396L498.532 191.164L498.781 190.851ZM487.747 182.083C487.692 182.039 487.677 181.956 487.718 181.893L487.382 181.676C487.231 181.909 487.28 182.223 487.498 182.396L487.747 182.083ZM487.718 181.893L489.128 179.709L488.792 179.492L487.382 181.676L487.718 181.893ZM489.128 179.71C489.167 179.649 489.239 179.635 489.293 179.667L489.497 179.323C489.251 179.177 488.944 179.259 488.792 179.492L489.128 179.71ZM489.293 179.667L501.401 186.796L501.604 186.451L489.496 179.323L489.293 179.667ZM501.401 186.796C501.974 187.134 502.374 187.685 502.527 188.352L502.917 188.263C502.74 187.491 502.274 186.846 501.604 186.451L501.401 186.796ZM502.527 188.352C502.678 189.011 502.556 189.712 502.192 190.275L502.528 190.492C502.951 189.838 503.092 189.026 502.917 188.263L502.527 188.352ZM502.192 190.275C501.736 190.982 500.984 191.364 500.222 191.364V191.764C501.118 191.764 501.997 191.315 502.528 190.492L502.192 190.275ZM488.14 182.053L498.942 190.638L499.19 190.325L488.388 181.74L488.14 182.053ZM498.936 190.634C498.987 190.677 499.03 190.706 499.059 190.726L499.285 190.396C499.254 190.374 499.228 190.357 499.196 190.33L498.936 190.634ZM499.059 190.726C500.029 191.392 501.341 191.115 501.984 190.119L501.648 189.902C501.124 190.713 500.065 190.931 499.285 190.396L499.059 190.726ZM501.984 190.119C502.311 189.613 502.416 189.008 502.281 188.418L501.891 188.508C502.002 188.993 501.916 189.487 501.648 189.902L501.984 190.119ZM502.281 188.418C502.146 187.831 501.791 187.339 501.28 187.038L501.077 187.382C501.491 187.626 501.78 188.024 501.891 188.508L502.281 188.418ZM501.28 187.038L489.437 180.065L489.234 180.41L501.077 187.382L501.28 187.038ZM489.167 180.129L488.096 181.788L488.432 182.005L489.503 180.346L489.167 180.129ZM486.513 197.739H469.993V198.139H486.513V197.739ZM469.993 197.739C469.925 197.739 469.85 197.677 469.85 197.574H469.45C469.45 197.874 469.682 198.139 469.993 198.139V197.739ZM469.85 197.574V195.762H469.45V197.574H469.85ZM469.85 195.762C469.85 194.249 471.005 193.039 472.399 193.039V192.639C470.761 192.639 469.45 194.052 469.45 195.762H469.85ZM472.399 193.039H484.108V192.639H472.399V193.039ZM484.108 193.039C485.502 193.039 486.658 194.249 486.658 195.762H487.058C487.058 194.052 485.746 192.639 484.108 192.639V193.039ZM486.658 195.762V197.574H487.058V195.762H486.658ZM486.658 197.574C486.657 197.677 486.582 197.739 486.513 197.739V198.139C486.825 198.139 487.057 197.875 487.058 197.574L486.658 197.574ZM470.337 197.408H486.169V197.008H470.337V197.408ZM486.369 197.208V195.762H485.969V197.208H486.369ZM486.369 195.762C486.369 194.454 485.366 193.369 484.107 193.369V193.769C485.123 193.769 485.969 194.652 485.969 195.762H486.369ZM484.107 193.369H472.398V193.769H484.107V193.369ZM472.398 193.369C471.139 193.369 470.136 194.454 470.136 195.762H470.536C470.536 194.651 471.383 193.769 472.398 193.769V193.369ZM470.136 195.762L470.137 197.208L470.537 197.208L470.536 195.762L470.136 195.762Z" fill="#0782D0" mask="url(#path-7-outside-1_46082_37379)"/>
<g clip-path="url(#clip1_46082_37379)">
<path d="M74.1699 148.082H148.346V263.96H74.1699V148.082Z" fill="white"/>
<path d="M148.346 264.906H74.1698C73.9192 264.906 73.6789 264.807 73.5018 264.629C73.3246 264.452 73.2251 264.211 73.2251 263.96V148.082C73.2251 147.831 73.3246 147.59 73.5018 147.412C73.6789 147.235 73.9192 147.135 74.1698 147.135H148.346C148.597 147.135 148.837 147.235 149.014 147.412C149.191 147.59 149.291 147.831 149.291 148.082V263.96C149.291 264.211 149.191 264.452 149.014 264.629C148.837 264.807 148.597 264.906 148.346 264.906ZM75.1145 263.014H147.401V149.028H75.1145V263.014Z" fill="#222433"/>
<path d="M88.6699 160.311H135.238V206.963H88.6699V160.311Z" fill="white"/>
<path d="M135.239 207.91H88.6703C88.4197 207.91 88.1794 207.81 88.0023 207.633C87.8251 207.455 87.7256 207.215 87.7256 206.964V160.311C87.7256 160.06 87.8251 159.819 88.0023 159.642C88.1794 159.464 88.4197 159.365 88.6703 159.365H135.239C135.489 159.365 135.729 159.464 135.907 159.642C136.084 159.819 136.183 160.06 136.183 160.311V206.964C136.183 207.215 136.084 207.455 135.907 207.633C135.729 207.81 135.489 207.91 135.239 207.91V207.91ZM89.6149 206.017H134.294V161.257H89.6149V206.017Z" fill="#222433"/>
<path d="M87.6299 215.052H135.238V222.442H87.6299V215.052Z" fill="#E2ECF7"/>
<path d="M135.239 232.668H87.2772C87.0267 232.668 86.7864 232.569 86.6092 232.391C86.432 232.214 86.3325 231.973 86.3325 231.722C86.3325 231.471 86.432 231.23 86.6092 231.053C86.7864 230.875 87.0267 230.776 87.2772 230.776H135.239C135.489 230.776 135.729 230.875 135.907 231.053C136.084 231.23 136.183 231.471 136.183 231.722C136.183 231.973 136.084 232.214 135.907 232.391C135.729 232.569 135.489 232.668 135.239 232.668V232.668ZM135.239 243.704H87.2772C87.0267 243.704 86.7864 243.604 86.6092 243.427C86.432 243.249 86.3325 243.009 86.3325 242.758C86.3325 242.507 86.432 242.266 86.6092 242.088C86.7864 241.911 87.0267 241.811 87.2772 241.811H135.239C135.489 241.811 135.729 241.911 135.907 242.088C136.084 242.266 136.183 242.507 136.183 242.758C136.183 243.009 136.084 243.249 135.907 243.427C135.729 243.604 135.489 243.704 135.239 243.704Z" fill="#222433"/>
</g>
<g clip-path="url(#clip2_46082_37379)">
<path d="M127.828 108.614H245.873V292.692H127.828V108.614Z" fill="white"/>
<path d="M245.873 293.639H127.828C127.577 293.639 127.336 293.539 127.158 293.362C126.981 293.185 126.881 292.944 126.881 292.693V108.614C126.881 108.363 126.981 108.122 127.158 107.945C127.336 107.767 127.577 107.667 127.828 107.667H245.873C246.124 107.667 246.364 107.767 246.542 107.945C246.719 108.122 246.819 108.363 246.819 108.614V292.693C246.819 292.944 246.719 293.185 246.542 293.362C246.364 293.539 246.124 293.639 245.873 293.639ZM128.774 291.747H244.927V109.56H128.774V291.747Z" fill="#222433"/>
<path d="M150.904 128.041H225.014V202.151H150.904V128.041Z" fill="white"/>
<path d="M225.013 203.097H150.904C150.653 203.097 150.412 202.997 150.235 202.82C150.057 202.642 149.958 202.402 149.958 202.151V128.041C149.958 127.79 150.057 127.55 150.235 127.372C150.412 127.195 150.653 127.095 150.904 127.095H225.013C225.264 127.095 225.505 127.195 225.682 127.372C225.86 127.55 225.96 127.79 225.96 128.041V202.151C225.96 202.402 225.86 202.642 225.682 202.82C225.505 202.997 225.264 203.097 225.013 203.097V203.097ZM151.85 201.205H224.067V128.988H151.85V201.205Z" fill="#222433"/>
<path d="M149.248 214.999H225.013V226.738H149.248V214.999Z" fill="#0782D0"/>
<path d="M225.013 242.427H148.687C148.436 242.427 148.195 242.327 148.018 242.15C147.84 241.972 147.741 241.731 147.741 241.48C147.741 241.23 147.84 240.989 148.018 240.811C148.195 240.634 148.436 240.534 148.687 240.534H225.013C225.264 240.534 225.505 240.634 225.682 240.811C225.86 240.989 225.96 241.23 225.96 241.48C225.96 241.731 225.86 241.972 225.682 242.15C225.505 242.327 225.264 242.427 225.013 242.427V242.427ZM225.013 259.958H148.687C148.436 259.958 148.195 259.858 148.018 259.681C147.84 259.503 147.741 259.263 147.741 259.012C147.741 258.761 147.84 258.52 148.018 258.343C148.195 258.165 148.436 258.066 148.687 258.066H225.013C225.264 258.066 225.505 258.165 225.682 258.343C225.86 258.52 225.96 258.761 225.96 259.012C225.96 259.263 225.86 259.503 225.682 259.681C225.505 259.858 225.264 259.958 225.013 259.958V259.958Z" fill="#222433"/>
<path d="M178.111 164.808L177.893 184.914C177.893 184.914 178.399 193.558 188.655 193.374C198.335 193.202 198.729 184.914 198.729 184.914V174.786" fill="white"/>
<path d="M185.507 154.774C184.96 153.511 184.062 152.432 182.919 151.666C181.777 150.899 180.438 150.477 179.062 150.449C177.686 150.422 176.331 150.79 175.159 151.511C173.987 152.232 173.046 153.274 172.45 154.514C171.853 155.754 171.625 157.139 171.794 158.505C171.962 159.871 172.519 161.159 173.399 162.217C174.279 163.275 175.444 164.058 176.756 164.473C178.068 164.887 179.472 164.916 180.8 164.555" fill="white"/>
<path d="M209.224 173.861C208.526 172.52 206.915 171.93 205.519 172.413L201.438 173.861C198.915 168.337 193.492 164.744 187.424 164.475V160.882C195.478 160.131 203.64 153.266 203.64 143.344V142.754L203.049 142.646C197.197 141.681 193.277 143.719 190.968 145.65C188.284 147.902 186.673 151.013 186.136 153.427C185.545 152.568 184.74 151.71 183.72 151.013C180.445 148.653 176.149 148.117 171.908 149.511L171.424 149.672V150.209C171.424 155.036 178.136 160.989 185.921 160.989H185.975V164.529C181.357 164.743 177.116 166.835 174.163 170.375C174.055 170.482 174.002 170.643 174.002 170.804C173.25 170.911 172.498 171.126 171.746 171.448L167.719 173.271C167.343 173.432 167.182 173.861 167.343 174.236C167.504 174.612 167.934 174.773 168.31 174.612L172.337 172.842C175.021 171.715 178.189 172.091 180.552 173.807L184.149 176.06C185.008 176.596 186.082 176.864 187.102 176.757L192.472 176.221C193.116 176.167 193.76 176.596 193.921 177.24C194.082 177.883 193.653 178.581 193.009 178.795L188.874 180.082C187.478 180.511 185.921 180.619 184.471 180.297L180.981 179.599C180.605 179.546 180.23 179.76 180.122 180.189C180.015 180.618 180.283 180.94 180.713 181.047L184.203 181.745C184.901 181.906 185.545 181.959 186.243 181.959C187.263 181.959 188.337 181.798 189.304 181.477L193.438 180.189C194.566 179.868 195.318 178.848 195.371 177.722L206.056 173.86C206.808 173.592 207.613 173.914 207.989 174.611C208.204 174.987 208.204 175.416 208.096 175.845C207.989 176.274 207.667 176.596 207.291 176.756L188.176 186.411C187.424 186.787 186.565 186.894 185.76 186.626L173.356 182.925C172.497 182.657 171.585 182.657 170.725 182.818L168.9 183.194C168.524 183.301 168.256 183.676 168.363 184.052C168.47 184.427 168.846 184.695 169.222 184.588L170.994 184.213C171.638 184.052 172.283 184.105 172.927 184.266L185.33 187.967C185.759 188.074 186.243 188.181 186.672 188.181C187.424 188.181 188.122 188.02 188.82 187.645L207.881 177.937C208.632 177.562 209.169 176.918 209.384 176.167C209.707 175.363 209.599 174.559 209.223 173.861L209.224 173.861ZM187.478 157.181V154.929C187.478 153.212 188.713 149.512 191.935 146.776C193.868 145.114 197.25 143.344 202.19 143.987C201.868 152.73 194.673 158.736 187.478 159.434V157.181ZM185.974 159.487C179.37 159.487 173.464 154.714 172.981 150.691C176.578 149.672 180.175 150.155 182.914 152.193C184.793 153.534 185.975 155.465 185.975 157.181L185.974 159.487C186.028 159.487 186.028 159.487 185.974 159.487H185.974ZM192.31 174.719L186.941 175.256C186.243 175.309 185.545 175.148 184.954 174.773L181.411 172.52C179.8 171.341 177.813 170.697 175.827 170.643C178.619 167.64 182.538 165.87 186.673 165.87C192.418 165.87 197.626 169.195 200.042 174.344L195.048 176.221C194.565 175.202 193.491 174.612 192.31 174.719L192.31 174.719Z" fill="#0782D0"/>
</g>
<g clip-path="url(#clip3_46082_37379)">
<path d="M360.443 109.877H478.489V293.956H360.443V109.877Z" fill="white"/>
<path d="M478.488 294.902H360.443C360.192 294.902 359.952 294.802 359.774 294.625C359.597 294.447 359.497 294.207 359.497 293.956V109.877C359.497 109.626 359.597 109.385 359.774 109.208C359.952 109.03 360.192 108.931 360.443 108.931H478.488C478.739 108.931 478.98 109.03 479.157 109.208C479.335 109.385 479.435 109.626 479.435 109.877V293.956C479.435 294.207 479.335 294.447 479.157 294.625C478.98 294.802 478.739 294.902 478.488 294.902ZM361.389 293.01H477.542V110.823H361.389V293.01Z" fill="#222433"/>
<path d="M383.52 129.304H457.629V203.414H383.52V129.304Z" fill="white"/>
<path d="M457.629 204.36H383.519C383.268 204.36 383.028 204.26 382.85 204.083C382.673 203.905 382.573 203.665 382.573 203.414V129.305C382.573 129.054 382.673 128.813 382.85 128.636C383.028 128.458 383.268 128.358 383.519 128.358H457.629C457.88 128.358 458.121 128.458 458.298 128.636C458.476 128.813 458.575 129.054 458.575 129.305V203.414C458.575 203.665 458.475 203.905 458.298 204.083C458.121 204.26 457.88 204.36 457.629 204.36ZM384.466 202.468H456.683V130.251H384.466V202.468Z" fill="#222433"/>
<path d="M381.864 216.263H457.629V228.002H381.864V216.263Z" fill="#9ABEE3"/>
<path d="M457.629 243.69H381.303C381.052 243.69 380.811 243.59 380.634 243.413C380.456 243.235 380.356 242.995 380.356 242.744C380.356 242.493 380.456 242.252 380.634 242.075C380.811 241.897 381.052 241.797 381.303 241.797H457.629C457.88 241.797 458.121 241.897 458.298 242.075C458.476 242.252 458.575 242.493 458.575 242.744C458.575 242.995 458.476 243.235 458.298 243.413C458.121 243.59 457.88 243.69 457.629 243.69V243.69ZM457.629 261.221H381.303C381.052 261.221 380.811 261.122 380.634 260.944C380.456 260.767 380.356 260.526 380.356 260.275C380.356 260.024 380.456 259.783 380.634 259.606C380.811 259.429 381.052 259.329 381.303 259.329H457.629C457.88 259.329 458.121 259.429 458.298 259.606C458.476 259.783 458.575 260.024 458.575 260.275C458.575 260.526 458.476 260.767 458.298 260.944C458.121 261.122 457.88 261.221 457.629 261.221V261.221Z" fill="#222433"/>
<path d="M411.06 168.839L410.977 185.625C410.974 188.162 411.961 190.6 413.729 192.419C415.497 194.239 417.905 195.296 420.441 195.366H420.448C421.726 195.401 422.997 195.184 424.19 194.727C425.384 194.27 426.475 193.583 427.403 192.705C428.331 191.826 429.076 190.773 429.597 189.607C430.118 188.44 430.404 187.182 430.438 185.905V184.103" fill="white"/>
</g>
<g clip-path="url(#clip4_46082_37379)">
<path d="M149.75 78.9635L150.923 82.8435C151.024 83.1755 151.205 83.4775 151.45 83.7227C151.696 83.9679 151.998 84.1486 152.33 84.2489L156.21 85.4237C156.309 85.4534 156.395 85.514 156.456 85.5965C156.517 85.679 156.55 85.779 156.55 85.8818C156.55 85.9845 156.517 86.0845 156.456 86.167C156.395 86.2495 156.309 86.3101 156.21 86.3398L152.33 87.5146C151.998 87.6149 151.696 87.7957 151.45 88.0408C151.205 88.286 151.024 88.588 150.923 88.92L149.75 92.8C149.721 92.8992 149.661 92.9863 149.578 93.0482C149.495 93.1102 149.394 93.1436 149.291 93.1436C149.188 93.1436 149.087 93.1102 149.004 93.0482C148.921 92.9863 148.861 92.8992 148.832 92.8L147.657 88.92C147.557 88.5879 147.376 88.2858 147.131 88.0406C146.886 87.7954 146.584 87.6147 146.252 87.5146L142.372 86.3398C142.273 86.3101 142.187 86.2495 142.126 86.167C142.065 86.0845 142.032 85.9845 142.032 85.8818C142.032 85.779 142.065 85.679 142.126 85.5965C142.187 85.514 142.273 85.4534 142.372 85.4237L146.252 84.2489C146.584 84.1489 146.886 83.9682 147.131 83.7229C147.376 83.4777 147.557 83.1756 147.657 82.8435L148.832 78.9635C148.861 78.8643 148.921 78.7773 149.004 78.7153C149.087 78.6534 149.188 78.6199 149.291 78.6199C149.394 78.6199 149.495 78.6534 149.578 78.7153C149.661 78.7773 149.721 78.8643 149.75 78.9635V78.9635Z" fill="#82B1FF"/>
</g>
<g clip-path="url(#clip5_46082_37379)">
<path d="M462.962 60.8523L464.823 67.0096C464.983 67.5365 465.27 68.0158 465.66 68.4048C466.049 68.7939 466.529 69.0808 467.056 69.24L473.214 71.1043C473.37 71.1515 473.506 71.2476 473.604 71.3785C473.701 71.5094 473.753 71.6681 473.753 71.8312C473.753 71.9942 473.701 72.1529 473.604 72.2838C473.506 72.4148 473.37 72.5109 473.214 72.5581L467.056 74.4224C466.529 74.5816 466.049 74.8685 465.66 75.2575C465.27 75.6466 464.983 76.1258 464.823 76.6527L462.962 82.8101C462.915 82.9675 462.819 83.1057 462.688 83.204C462.557 83.3023 462.397 83.3555 462.233 83.3555C462.069 83.3555 461.909 83.3023 461.778 83.204C461.647 83.1057 461.551 82.9675 461.504 82.8101L459.64 76.6527C459.481 76.1258 459.195 75.6463 458.805 75.2572C458.416 74.868 457.937 74.5812 457.41 74.4224L451.253 72.5581C451.096 72.5109 450.96 72.4148 450.863 72.2838C450.765 72.1529 450.713 71.9942 450.713 71.8312C450.713 71.6681 450.765 71.5094 450.863 71.3785C450.96 71.2476 451.096 71.1515 451.253 71.1043L457.41 69.24C457.937 69.0812 458.416 68.7944 458.805 68.4052C459.195 68.016 459.481 67.5366 459.64 67.0096L461.504 60.8523C461.551 60.6948 461.647 60.5566 461.778 60.4583C461.909 60.36 462.069 60.3069 462.233 60.3069C462.397 60.3069 462.557 60.36 462.688 60.4583C462.819 60.5566 462.915 60.6948 462.962 60.8523V60.8523Z" fill="#FC8383"/>
</g>
<g clip-path="url(#clip6_46082_37379)">
<path d="M507.381 289.781L508.222 292.565C508.294 292.803 508.424 293.02 508.601 293.195C508.777 293.371 508.994 293.501 509.232 293.573L512.015 294.416C512.086 294.437 512.148 294.48 512.192 294.54C512.236 294.599 512.259 294.671 512.259 294.744C512.259 294.818 512.236 294.89 512.192 294.949C512.148 295.008 512.086 295.052 512.015 295.073L509.232 295.916C508.994 295.988 508.777 296.117 508.601 296.293C508.424 296.469 508.294 296.686 508.222 296.924L507.381 299.707C507.36 299.779 507.317 299.841 507.257 299.885C507.198 299.93 507.126 299.954 507.051 299.954C506.977 299.954 506.905 299.93 506.846 299.885C506.786 299.841 506.743 299.779 506.722 299.707L505.879 296.924C505.808 296.686 505.678 296.469 505.502 296.293C505.326 296.117 505.109 295.987 504.871 295.916L502.088 295.073C502.017 295.052 501.955 295.008 501.911 294.949C501.867 294.89 501.844 294.818 501.844 294.744C501.844 294.671 501.867 294.599 501.911 294.54C501.955 294.48 502.017 294.437 502.088 294.416L504.871 293.573C505.109 293.501 505.326 293.371 505.502 293.196C505.678 293.02 505.808 292.803 505.879 292.565L506.722 289.781C506.743 289.71 506.786 289.648 506.846 289.603C506.905 289.559 506.977 289.535 507.051 289.535C507.126 289.535 507.198 289.559 507.257 289.603C507.317 289.648 507.36 289.71 507.381 289.781V289.781Z" fill="#9AE2E0"/>
</g>
<g clip-path="url(#clip7_46082_37379)">
<path d="M336.496 39.9747L326.108 48.8567C322.613 51.8459 322.199 57.1058 325.186 60.6052L355.586 96.2316C358.572 99.731 363.827 100.145 367.322 97.1554L377.71 88.2734C381.205 85.2843 381.619 80.0243 378.632 76.5249L348.232 40.8985C345.246 37.3991 339.991 36.9855 336.496 39.9747Z" fill="#9ABEE3"/>
<path d="M346.782 85.6797L355.655 96.0777C358.641 99.577 363.896 99.9906 367.392 97.0015L436.758 37.6871C440.254 34.698 440.667 29.438 437.681 25.9386L428.808 15.5406C425.822 12.0413 420.567 11.6277 417.072 14.6168L347.705 73.9312C344.21 76.9203 343.796 82.1803 346.782 85.6797Z" fill="#9ABEE3"/>
</g>
<g clip-path="url(#clip8_46082_37379)">
<path d="M219.68 60.3118H389.552V319.076H219.68V60.3118Z" fill="white"/>
<path d="M389.552 320.029H219.68C219.427 320.029 219.185 319.928 219.007 319.75C218.828 319.571 218.728 319.329 218.728 319.076V60.3118C218.728 60.0592 218.828 59.8169 219.007 59.6383C219.185 59.4597 219.427 59.3594 219.68 59.3594H389.552C389.805 59.3594 390.047 59.4597 390.225 59.6383C390.404 59.8169 390.504 60.0592 390.504 60.3118V319.076C390.504 319.329 390.404 319.571 390.225 319.75C390.047 319.928 389.805 320.029 389.552 320.029V320.029ZM220.631 318.124H388.601V61.2642H220.631V318.124Z" fill="#222433"/>
<path d="M359.535 193.496H252.887C252.635 193.496 252.393 193.396 252.214 193.217C252.036 193.038 251.936 192.796 251.936 192.544V85.8096C251.936 85.557 252.036 85.3147 252.214 85.1361C252.393 84.9575 252.635 84.8572 252.887 84.8572H359.535C359.788 84.8572 360.03 84.9575 360.208 85.1361C360.387 85.3147 360.487 85.557 360.487 85.8096V192.544C360.487 192.796 360.387 193.038 360.208 193.217C360.03 193.396 359.788 193.496 359.535 193.496V193.496ZM253.839 191.591H358.584V86.762H253.839L253.839 191.591Z" fill="#222433"/>
<path d="M250.505 207.807H340.037V224.714H250.505V207.807Z" fill="#9AE2E0"/>
<path d="M359.536 243.658H270.605C270.353 243.658 270.111 243.558 269.932 243.379C269.754 243.2 269.653 242.958 269.653 242.706C269.653 242.453 269.754 242.211 269.932 242.032C270.111 241.854 270.353 241.753 270.605 241.753H359.536C359.788 241.753 360.03 241.854 360.209 242.032C360.387 242.211 360.487 242.453 360.487 242.706C360.487 242.958 360.387 243.2 360.209 243.379C360.03 243.558 359.788 243.658 359.536 243.658V243.658ZM359.536 267.153H270.605C270.353 267.153 270.111 267.052 269.932 266.874C269.754 266.695 269.653 266.453 269.653 266.2C269.653 265.948 269.754 265.706 269.932 265.527C270.111 265.348 270.353 265.248 270.605 265.248H359.536C359.788 265.248 360.03 265.348 360.209 265.527C360.387 265.706 360.487 265.948 360.487 266.2C360.487 266.453 360.387 266.695 360.209 266.874C360.03 267.052 359.788 267.153 359.536 267.153V267.153ZM359.536 289.061H270.605C270.353 289.061 270.111 288.961 269.932 288.782C269.754 288.603 269.653 288.361 269.653 288.109C269.653 287.856 269.754 287.614 269.932 287.435C270.111 287.257 270.353 287.156 270.605 287.156H359.536C359.788 287.156 360.03 287.257 360.209 287.435C360.387 287.614 360.487 287.856 360.487 288.109C360.487 288.361 360.387 288.603 360.209 288.782C360.03 288.961 359.788 289.061 359.536 289.061V289.061Z" fill="#222433"/>
<path d="M255.383 246.521C257.734 246.521 259.639 244.614 259.639 242.261C259.639 239.909 257.734 238.002 255.383 238.002C253.033 238.002 251.127 239.909 251.127 242.261C251.127 244.614 253.033 246.521 255.383 246.521Z" fill="white"/>
<path d="M255.383 247.473C254.353 247.473 253.346 247.168 252.49 246.595C251.633 246.022 250.966 245.208 250.572 244.256C250.178 243.303 250.074 242.255 250.275 241.244C250.476 240.233 250.972 239.304 251.701 238.576C252.429 237.847 253.357 237.35 254.367 237.149C255.378 236.948 256.425 237.051 257.376 237.446C258.328 237.84 259.141 238.509 259.714 239.366C260.286 240.223 260.591 241.231 260.591 242.261C260.59 243.643 260.04 244.968 259.064 245.945C258.088 246.922 256.764 247.472 255.383 247.473V247.473ZM255.383 238.954C254.73 238.954 254.091 239.148 253.547 239.512C253.004 239.875 252.58 240.392 252.33 240.996C252.08 241.6 252.015 242.265 252.142 242.907C252.27 243.548 252.584 244.138 253.046 244.6C253.509 245.063 254.097 245.378 254.738 245.505C255.38 245.633 256.044 245.567 256.648 245.317C257.252 245.067 257.768 244.643 258.131 244.099C258.494 243.555 258.688 242.916 258.688 242.261C258.687 241.385 258.338 240.544 257.719 239.924C257.099 239.304 256.259 238.955 255.383 238.954V238.954Z" fill="#222433"/>
<path d="M255.383 270.46C257.734 270.46 259.639 268.553 259.639 266.201C259.639 263.848 257.734 261.941 255.383 261.941C253.033 261.941 251.127 263.848 251.127 266.201C251.127 268.553 253.033 270.46 255.383 270.46Z" fill="white"/>
<path d="M255.383 271.413C254.353 271.413 253.346 271.107 252.49 270.534C251.633 269.961 250.966 269.147 250.572 268.195C250.178 267.243 250.074 266.195 250.275 265.184C250.476 264.173 250.972 263.244 251.701 262.515C252.429 261.786 253.357 261.29 254.367 261.088C255.377 260.887 256.425 260.991 257.376 261.385C258.328 261.78 259.141 262.448 259.713 263.305C260.286 264.162 260.591 265.17 260.591 266.2C260.59 267.582 260.04 268.907 259.064 269.884C258.088 270.861 256.764 271.411 255.383 271.413V271.413ZM255.383 262.893C254.73 262.893 254.091 263.087 253.547 263.451C253.004 263.814 252.58 264.331 252.33 264.935C252.08 265.539 252.015 266.204 252.142 266.846C252.27 267.488 252.584 268.077 253.047 268.539C253.509 269.002 254.098 269.317 254.739 269.445C255.38 269.572 256.044 269.507 256.648 269.256C257.252 269.006 257.768 268.582 258.131 268.038C258.494 267.494 258.688 266.855 258.688 266.2C258.687 265.324 258.338 264.483 257.719 263.863C257.099 263.243 256.259 262.894 255.383 262.893V262.893Z" fill="#222433"/>
<path d="M255.383 292.368C257.734 292.368 259.639 290.461 259.639 288.109C259.639 285.756 257.734 283.849 255.383 283.849C253.033 283.849 251.127 285.756 251.127 288.109C251.127 290.461 253.033 292.368 255.383 292.368Z" fill="white"/>
<path d="M255.383 293.32C254.353 293.32 253.346 293.015 252.49 292.442C251.633 291.869 250.966 291.055 250.572 290.103C250.178 289.15 250.074 288.102 250.275 287.091C250.476 286.08 250.972 285.152 251.701 284.423C252.429 283.694 253.357 283.197 254.367 282.996C255.378 282.795 256.425 282.898 257.376 283.293C258.328 283.688 259.141 284.356 259.714 285.213C260.286 286.07 260.591 287.078 260.591 288.109C260.59 289.49 260.04 290.815 259.064 291.792C258.088 292.769 256.764 293.319 255.383 293.32V293.32ZM255.383 284.801C254.73 284.801 254.091 284.995 253.547 285.359C253.004 285.722 252.58 286.239 252.33 286.843C252.08 287.447 252.015 288.112 252.142 288.754C252.27 289.395 252.584 289.985 253.046 290.447C253.509 290.91 254.097 291.225 254.738 291.352C255.38 291.48 256.044 291.414 256.648 291.164C257.252 290.914 257.768 290.49 258.131 289.946C258.494 289.402 258.688 288.763 258.688 288.109C258.687 287.232 258.338 286.391 257.719 285.771C257.099 285.151 256.259 284.802 255.383 284.801V284.801Z" fill="#222433"/>
<path d="M375.235 233.268L368.641 239.75C366.303 242.049 366.27 245.808 368.566 248.148L441.85 322.814C444.146 325.154 447.903 325.187 450.24 322.889L456.834 316.407C459.172 314.108 459.206 310.349 456.909 308.009L383.626 233.343C381.329 231.003 377.573 230.97 375.235 233.268Z" fill="#0782D0"/>
<path d="M356.76 271.088C384.376 271.088 406.763 248.683 406.763 221.044C406.763 193.406 384.376 171 356.76 171C329.144 171 306.757 193.406 306.757 221.044C306.757 248.683 329.144 271.088 356.76 271.088Z" fill="#0782D0"/>
<path d="M356.76 257.63C376.949 257.63 393.316 241.25 393.316 221.044C393.316 200.838 376.949 184.458 356.76 184.458C336.571 184.458 320.204 200.838 320.204 221.044C320.204 241.25 336.571 257.63 356.76 257.63Z" fill="white"/>
<path d="M356.769 258.582H356.425C346.503 258.501 337.017 254.488 330.045 247.422C323.073 240.356 319.183 230.813 319.226 220.882C319.269 210.952 323.242 201.443 330.275 194.438C337.308 187.433 346.828 183.503 356.751 183.507H357.095C367.017 183.589 376.503 187.602 383.475 194.668C390.447 201.734 394.337 211.276 394.294 221.207C394.251 231.137 390.278 240.646 383.245 247.651C376.212 254.656 366.692 258.587 356.769 258.582V258.582ZM356.751 185.41C347.334 185.408 338.299 189.14 331.624 195.79C324.95 202.439 321.18 211.464 321.139 220.889C321.098 230.314 324.79 239.372 331.406 246.079C338.023 252.786 347.025 256.596 356.442 256.676H356.769C363.783 256.674 370.64 254.599 376.48 250.711C382.32 246.823 386.882 241.295 389.595 234.822C392.307 228.348 393.048 221.217 391.726 214.323C390.403 207.429 387.075 201.08 382.16 196.072C378.891 192.723 374.991 190.057 370.686 188.227C366.381 186.397 361.755 185.44 357.078 185.411L356.751 185.41V185.41Z" fill="#222433"/>
<path d="M368.119 203.592H325.701C321.16 211.377 320.248 219.263 321.77 227.743H368.119V203.592Z" fill="#9AE2E0"/>
<path d="M329.176 245.42H366.952C367.432 245.418 367.892 245.227 368.231 244.887C368.571 244.548 368.762 244.087 368.763 243.607C368.762 243.127 368.571 242.667 368.231 242.327C367.892 241.987 367.432 241.796 366.952 241.794H327.273C326.276 241.794 327.365 242.61 327.365 243.607C327.366 244.087 327.557 244.548 327.897 244.887C328.236 245.227 328.696 245.418 329.176 245.42Z" fill="#222433"/>
<path d="M356.769 258.582H356.425C346.503 258.501 337.017 254.488 330.045 247.422C323.073 240.356 319.183 230.813 319.226 220.882C319.269 210.952 323.242 201.443 330.275 194.438C337.308 187.433 346.828 183.503 356.751 183.507H357.095C367.017 183.589 376.503 187.602 383.475 194.668C390.447 201.734 394.337 211.276 394.294 221.207C394.251 231.137 390.278 240.646 383.245 247.651C376.212 254.656 366.692 258.587 356.769 258.582V258.582ZM356.751 185.41C347.334 185.408 338.299 189.14 331.624 195.79C324.95 202.439 321.18 211.464 321.139 220.889C321.098 230.314 324.79 239.372 331.406 246.079C338.023 252.786 347.025 256.596 356.442 256.676H356.769C363.783 256.674 370.64 254.599 376.48 250.711C382.32 246.823 386.882 241.295 389.595 234.822C392.307 228.348 393.048 221.217 391.726 214.323C390.403 207.429 387.075 201.08 382.16 196.072C378.891 192.723 374.991 190.057 370.686 188.227C366.381 186.397 361.755 185.44 357.078 185.411L356.751 185.41V185.41Z" fill="#222433"/>
<mask id="path-54-outside-2_46082_37379" maskUnits="userSpaceOnUse" x="272.331" y="103.826" width="68" height="70" fill="black">
<rect fill="white" x="272.331" y="103.826" width="68" height="70"/>
<path d="M339.095 133.783H337.476C337.184 128.489 333.045 124.226 327.843 123.823L327.847 122.697C329.174 122.631 331.806 122.26 333.514 120.438C335.827 117.971 335.429 113.932 335.41 113.761C335.367 113.35 335.036 113.032 334.628 113.009C334.458 113.002 330.453 112.809 328.14 115.275C327.646 115.803 327.281 116.404 327.004 117.021C326.719 116.396 326.344 115.788 325.838 115.256C323.492 112.793 319.48 113.001 319.308 113.011C318.898 113.035 318.567 113.359 318.528 113.772C318.512 113.943 318.159 117.997 320.503 120.459C322.223 122.266 324.842 122.635 326.182 122.699L326.178 123.825C323.127 124.079 320.449 125.663 318.7 128.001V123.328C318.7 122.862 318.328 122.485 317.868 122.485H310.859V116.28C310.859 114.472 309.407 113.001 307.622 113.001H305.429C303.644 113.001 302.192 114.472 302.192 116.28V122.485H294.154C293.694 122.485 293.321 122.862 293.321 123.328V130.182L293.143 129.617C292.873 128.517 292.15 127.585 291.159 127.062C290.175 126.543 289.018 126.474 287.985 126.874L286.679 127.38L285.755 124.936C286.37 124.931 286.983 124.823 287.572 124.595C290.246 123.559 291.598 120.54 290.587 117.866C290.173 116.772 289.397 115.859 288.403 115.269C288.753 114.157 288.728 112.953 288.314 111.859C287.567 109.884 285.729 108.603 283.674 108.542C283.625 108.309 283.558 108.081 283.475 107.859C283.027 106.675 282.145 105.742 280.991 105.23C279.841 104.721 278.558 104.693 277.38 105.149C276.201 105.605 275.266 106.494 274.746 107.65C274.225 108.811 274.184 110.102 274.632 111.285C274.716 111.507 274.817 111.722 274.934 111.93C273.446 113.364 272.922 115.56 273.668 117.535C274.082 118.629 274.858 119.542 275.853 120.133C275.501 121.244 275.527 122.45 275.941 123.543C276.432 124.84 277.398 125.864 278.663 126.424C279.33 126.719 280.036 126.867 280.746 126.867C281.379 126.867 282.014 126.749 282.623 126.513C283.213 126.284 283.739 125.95 284.201 125.538L285.125 127.982L283.82 128.488C282.786 128.888 281.97 129.722 281.581 130.775C281.213 131.768 281.273 132.862 281.693 133.78L274.165 133.783C273.705 133.783 273.333 134.161 273.333 134.626V142.321C273.333 142.786 273.705 143.164 274.165 143.164H275.734L280.873 172.017C280.943 172.419 281.289 172.71 281.691 172.71H331.5C331.897 172.71 332.239 172.426 332.316 172.031L337.935 143.164H339.095C339.555 143.164 339.928 142.786 339.928 142.321V134.626C339.928 134.161 339.555 133.783 339.095 133.783ZM282.027 124.941C281.145 125.283 280.187 125.262 279.33 124.882C278.477 124.504 277.825 123.815 277.495 122.942C277.149 122.027 277.208 120.994 277.659 120.106C277.767 119.893 277.781 119.644 277.696 119.42C277.611 119.196 277.436 119.019 277.216 118.933C276.295 118.577 275.569 117.849 275.223 116.934C274.651 115.423 275.189 113.717 276.528 112.786C276.721 112.65 276.85 112.439 276.882 112.203C276.913 111.967 276.845 111.729 276.692 111.547C276.473 111.284 276.302 110.993 276.185 110.685C275.898 109.926 275.925 109.096 276.26 108.349C276.598 107.598 277.206 107.021 277.974 106.724C278.337 106.583 278.714 106.513 279.09 106.513C279.51 106.513 279.928 106.6 280.322 106.775C281.064 107.104 281.632 107.703 281.919 108.463C282.036 108.772 282.1 109.103 282.111 109.446C282.118 109.684 282.224 109.908 282.403 110.063C282.581 110.217 282.818 110.287 283.05 110.257C284.665 110.049 286.188 110.952 286.759 112.462C287.105 113.378 287.046 114.411 286.596 115.298C286.487 115.511 286.474 115.76 286.558 115.984C286.643 116.208 286.818 116.385 287.039 116.471C287.972 116.831 288.68 117.542 289.031 118.47C289.714 120.276 288.793 122.318 286.977 123.022C286.371 123.258 285.729 123.31 285.097 123.196L281.305 113.172C281.141 112.736 280.659 112.52 280.23 112.686C279.801 112.852 279.586 113.339 279.75 113.774L283.542 123.798C283.146 124.31 282.634 124.707 282.027 124.941ZM329.348 116.436C330.609 115.091 332.675 114.776 333.782 114.708C333.774 115.828 333.573 117.925 332.306 119.277C331.046 120.622 328.98 120.937 327.873 121.006C327.881 119.885 328.081 117.787 329.348 116.436ZM321.702 119.291C320.421 117.945 320.192 115.833 320.169 114.704C321.281 114.767 323.351 115.073 324.639 116.426C325.92 117.772 326.148 119.884 326.171 121.013C325.06 120.95 322.99 120.644 321.702 119.291ZM327.041 125.468C331.695 125.468 335.507 129.148 335.811 133.783H323.116C323.402 131.842 325.045 130.343 327.041 130.343C327.501 130.343 327.873 129.965 327.873 129.5C327.873 129.034 327.501 128.657 327.041 128.657C324.124 128.657 321.717 130.907 321.423 133.783H318.271C318.574 129.148 322.386 125.468 327.041 125.468ZM317.036 124.172V131.255C317.036 131.258 317.038 131.261 317.038 131.265C316.794 132.067 316.654 132.913 316.606 133.783H310.86V124.172L317.036 124.172ZM306.63 146.7C310.736 146.7 314.077 150.085 314.077 154.244C314.077 158.403 310.736 161.787 306.63 161.787C302.524 161.787 299.184 158.403 299.184 154.244C299.184 150.084 302.524 146.7 306.63 146.7ZM305.43 114.688H307.623C308.49 114.688 309.195 115.403 309.195 116.281V145.392C308.38 145.15 307.521 145.014 306.63 145.014C305.664 145.014 304.733 145.17 303.858 145.454V116.281C303.858 115.403 304.563 114.688 305.43 114.688ZM302.192 124.172V133.783H294.986L294.987 124.172H302.192ZM283.26 133.229C282.959 132.655 282.914 131.976 283.139 131.368C283.365 130.759 283.818 130.296 284.415 130.065L288.58 128.45C289.178 128.219 289.82 128.258 290.39 128.558C290.958 128.858 291.373 129.393 291.542 130.077L292.706 133.783H283.509L283.26 133.229ZM274.997 135.468H302.193V141.478H274.997V135.468ZM330.816 171.024H282.388L277.425 143.163H302.193V146.19C299.409 147.771 297.52 150.786 297.52 154.243C297.52 159.332 301.608 163.471 306.632 163.471C311.655 163.471 315.743 159.332 315.743 154.243C315.743 150.701 313.76 147.622 310.861 146.076V143.163H336.239L330.816 171.024ZM338.264 141.477H310.86V135.468H338.264V141.477Z"/>
</mask>
<path d="M339.095 133.783H337.476C337.184 128.489 333.045 124.226 327.843 123.823L327.847 122.697C329.174 122.631 331.806 122.26 333.514 120.438C335.827 117.971 335.429 113.932 335.41 113.761C335.367 113.35 335.036 113.032 334.628 113.009C334.458 113.002 330.453 112.809 328.14 115.275C327.646 115.803 327.281 116.404 327.004 117.021C326.719 116.396 326.344 115.788 325.838 115.256C323.492 112.793 319.48 113.001 319.308 113.011C318.898 113.035 318.567 113.359 318.528 113.772C318.512 113.943 318.159 117.997 320.503 120.459C322.223 122.266 324.842 122.635 326.182 122.699L326.178 123.825C323.127 124.079 320.449 125.663 318.7 128.001V123.328C318.7 122.862 318.328 122.485 317.868 122.485H310.859V116.28C310.859 114.472 309.407 113.001 307.622 113.001H305.429C303.644 113.001 302.192 114.472 302.192 116.28V122.485H294.154C293.694 122.485 293.321 122.862 293.321 123.328V130.182L293.143 129.617C292.873 128.517 292.15 127.585 291.159 127.062C290.175 126.543 289.018 126.474 287.985 126.874L286.679 127.38L285.755 124.936C286.37 124.931 286.983 124.823 287.572 124.595C290.246 123.559 291.598 120.54 290.587 117.866C290.173 116.772 289.397 115.859 288.403 115.269C288.753 114.157 288.728 112.953 288.314 111.859C287.567 109.884 285.729 108.603 283.674 108.542C283.625 108.309 283.558 108.081 283.475 107.859C283.027 106.675 282.145 105.742 280.991 105.23C279.841 104.721 278.558 104.693 277.38 105.149C276.201 105.605 275.266 106.494 274.746 107.65C274.225 108.811 274.184 110.102 274.632 111.285C274.716 111.507 274.817 111.722 274.934 111.93C273.446 113.364 272.922 115.56 273.668 117.535C274.082 118.629 274.858 119.542 275.853 120.133C275.501 121.244 275.527 122.45 275.941 123.543C276.432 124.84 277.398 125.864 278.663 126.424C279.33 126.719 280.036 126.867 280.746 126.867C281.379 126.867 282.014 126.749 282.623 126.513C283.213 126.284 283.739 125.95 284.201 125.538L285.125 127.982L283.82 128.488C282.786 128.888 281.97 129.722 281.581 130.775C281.213 131.768 281.273 132.862 281.693 133.78L274.165 133.783C273.705 133.783 273.333 134.161 273.333 134.626V142.321C273.333 142.786 273.705 143.164 274.165 143.164H275.734L280.873 172.017C280.943 172.419 281.289 172.71 281.691 172.71H331.5C331.897 172.71 332.239 172.426 332.316 172.031L337.935 143.164H339.095C339.555 143.164 339.928 142.786 339.928 142.321V134.626C339.928 134.161 339.555 133.783 339.095 133.783ZM282.027 124.941C281.145 125.283 280.187 125.262 279.33 124.882C278.477 124.504 277.825 123.815 277.495 122.942C277.149 122.027 277.208 120.994 277.659 120.106C277.767 119.893 277.781 119.644 277.696 119.42C277.611 119.196 277.436 119.019 277.216 118.933C276.295 118.577 275.569 117.849 275.223 116.934C274.651 115.423 275.189 113.717 276.528 112.786C276.721 112.65 276.85 112.439 276.882 112.203C276.913 111.967 276.845 111.729 276.692 111.547C276.473 111.284 276.302 110.993 276.185 110.685C275.898 109.926 275.925 109.096 276.26 108.349C276.598 107.598 277.206 107.021 277.974 106.724C278.337 106.583 278.714 106.513 279.09 106.513C279.51 106.513 279.928 106.6 280.322 106.775C281.064 107.104 281.632 107.703 281.919 108.463C282.036 108.772 282.1 109.103 282.111 109.446C282.118 109.684 282.224 109.908 282.403 110.063C282.581 110.217 282.818 110.287 283.05 110.257C284.665 110.049 286.188 110.952 286.759 112.462C287.105 113.378 287.046 114.411 286.596 115.298C286.487 115.511 286.474 115.76 286.558 115.984C286.643 116.208 286.818 116.385 287.039 116.471C287.972 116.831 288.68 117.542 289.031 118.47C289.714 120.276 288.793 122.318 286.977 123.022C286.371 123.258 285.729 123.31 285.097 123.196L281.305 113.172C281.141 112.736 280.659 112.52 280.23 112.686C279.801 112.852 279.586 113.339 279.75 113.774L283.542 123.798C283.146 124.31 282.634 124.707 282.027 124.941ZM329.348 116.436C330.609 115.091 332.675 114.776 333.782 114.708C333.774 115.828 333.573 117.925 332.306 119.277C331.046 120.622 328.98 120.937 327.873 121.006C327.881 119.885 328.081 117.787 329.348 116.436ZM321.702 119.291C320.421 117.945 320.192 115.833 320.169 114.704C321.281 114.767 323.351 115.073 324.639 116.426C325.92 117.772 326.148 119.884 326.171 121.013C325.06 120.95 322.99 120.644 321.702 119.291ZM327.041 125.468C331.695 125.468 335.507 129.148 335.811 133.783H323.116C323.402 131.842 325.045 130.343 327.041 130.343C327.501 130.343 327.873 129.965 327.873 129.5C327.873 129.034 327.501 128.657 327.041 128.657C324.124 128.657 321.717 130.907 321.423 133.783H318.271C318.574 129.148 322.386 125.468 327.041 125.468ZM317.036 124.172V131.255C317.036 131.258 317.038 131.261 317.038 131.265C316.794 132.067 316.654 132.913 316.606 133.783H310.86V124.172L317.036 124.172ZM306.63 146.7C310.736 146.7 314.077 150.085 314.077 154.244C314.077 158.403 310.736 161.787 306.63 161.787C302.524 161.787 299.184 158.403 299.184 154.244C299.184 150.084 302.524 146.7 306.63 146.7ZM305.43 114.688H307.623C308.49 114.688 309.195 115.403 309.195 116.281V145.392C308.38 145.15 307.521 145.014 306.63 145.014C305.664 145.014 304.733 145.17 303.858 145.454V116.281C303.858 115.403 304.563 114.688 305.43 114.688ZM302.192 124.172V133.783H294.986L294.987 124.172H302.192ZM283.26 133.229C282.959 132.655 282.914 131.976 283.139 131.368C283.365 130.759 283.818 130.296 284.415 130.065L288.58 128.45C289.178 128.219 289.82 128.258 290.39 128.558C290.958 128.858 291.373 129.393 291.542 130.077L292.706 133.783H283.509L283.26 133.229ZM274.997 135.468H302.193V141.478H274.997V135.468ZM330.816 171.024H282.388L277.425 143.163H302.193V146.19C299.409 147.771 297.52 150.786 297.52 154.243C297.52 159.332 301.608 163.471 306.632 163.471C311.655 163.471 315.743 159.332 315.743 154.243C315.743 150.701 313.76 147.622 310.861 146.076V143.163H336.239L330.816 171.024ZM338.264 141.477H310.86V135.468H338.264V141.477Z" fill="#0782D0"/>
<path d="M339.095 133.783H337.476C337.184 128.489 333.045 124.226 327.843 123.823L327.847 122.697C329.174 122.631 331.806 122.26 333.514 120.438C335.827 117.971 335.429 113.932 335.41 113.761C335.367 113.35 335.036 113.032 334.628 113.009C334.458 113.002 330.453 112.809 328.14 115.275C327.646 115.803 327.281 116.404 327.004 117.021C326.719 116.396 326.344 115.788 325.838 115.256C323.492 112.793 319.48 113.001 319.308 113.011C318.898 113.035 318.567 113.359 318.528 113.772C318.512 113.943 318.159 117.997 320.503 120.459C322.223 122.266 324.842 122.635 326.182 122.699L326.178 123.825C323.127 124.079 320.449 125.663 318.7 128.001V123.328C318.7 122.862 318.328 122.485 317.868 122.485H310.859V116.28C310.859 114.472 309.407 113.001 307.622 113.001H305.429C303.644 113.001 302.192 114.472 302.192 116.28V122.485H294.154C293.694 122.485 293.321 122.862 293.321 123.328V130.182L293.143 129.617C292.873 128.517 292.15 127.585 291.159 127.062C290.175 126.543 289.018 126.474 287.985 126.874L286.679 127.38L285.755 124.936C286.37 124.931 286.983 124.823 287.572 124.595C290.246 123.559 291.598 120.54 290.587 117.866C290.173 116.772 289.397 115.859 288.403 115.269C288.753 114.157 288.728 112.953 288.314 111.859C287.567 109.884 285.729 108.603 283.674 108.542C283.625 108.309 283.558 108.081 283.475 107.859C283.027 106.675 282.145 105.742 280.991 105.23C279.841 104.721 278.558 104.693 277.38 105.149C276.201 105.605 275.266 106.494 274.746 107.65C274.225 108.811 274.184 110.102 274.632 111.285C274.716 111.507 274.817 111.722 274.934 111.93C273.446 113.364 272.922 115.56 273.668 117.535C274.082 118.629 274.858 119.542 275.853 120.133C275.501 121.244 275.527 122.45 275.941 123.543C276.432 124.84 277.398 125.864 278.663 126.424C279.33 126.719 280.036 126.867 280.746 126.867C281.379 126.867 282.014 126.749 282.623 126.513C283.213 126.284 283.739 125.95 284.201 125.538L285.125 127.982L283.82 128.488C282.786 128.888 281.97 129.722 281.581 130.775C281.213 131.768 281.273 132.862 281.693 133.78L274.165 133.783C273.705 133.783 273.333 134.161 273.333 134.626V142.321C273.333 142.786 273.705 143.164 274.165 143.164H275.734L280.873 172.017C280.943 172.419 281.289 172.71 281.691 172.71H331.5C331.897 172.71 332.239 172.426 332.316 172.031L337.935 143.164H339.095C339.555 143.164 339.928 142.786 339.928 142.321V134.626C339.928 134.161 339.555 133.783 339.095 133.783ZM282.027 124.941C281.145 125.283 280.187 125.262 279.33 124.882C278.477 124.504 277.825 123.815 277.495 122.942C277.149 122.027 277.208 120.994 277.659 120.106C277.767 119.893 277.781 119.644 277.696 119.42C277.611 119.196 277.436 119.019 277.216 118.933C276.295 118.577 275.569 117.849 275.223 116.934C274.651 115.423 275.189 113.717 276.528 112.786C276.721 112.65 276.85 112.439 276.882 112.203C276.913 111.967 276.845 111.729 276.692 111.547C276.473 111.284 276.302 110.993 276.185 110.685C275.898 109.926 275.925 109.096 276.26 108.349C276.598 107.598 277.206 107.021 277.974 106.724C278.337 106.583 278.714 106.513 279.09 106.513C279.51 106.513 279.928 106.6 280.322 106.775C281.064 107.104 281.632 107.703 281.919 108.463C282.036 108.772 282.1 109.103 282.111 109.446C282.118 109.684 282.224 109.908 282.403 110.063C282.581 110.217 282.818 110.287 283.05 110.257C284.665 110.049 286.188 110.952 286.759 112.462C287.105 113.378 287.046 114.411 286.596 115.298C286.487 115.511 286.474 115.76 286.558 115.984C286.643 116.208 286.818 116.385 287.039 116.471C287.972 116.831 288.68 117.542 289.031 118.47C289.714 120.276 288.793 122.318 286.977 123.022C286.371 123.258 285.729 123.31 285.097 123.196L281.305 113.172C281.141 112.736 280.659 112.52 280.23 112.686C279.801 112.852 279.586 113.339 279.75 113.774L283.542 123.798C283.146 124.31 282.634 124.707 282.027 124.941ZM329.348 116.436C330.609 115.091 332.675 114.776 333.782 114.708C333.774 115.828 333.573 117.925 332.306 119.277C331.046 120.622 328.98 120.937 327.873 121.006C327.881 119.885 328.081 117.787 329.348 116.436ZM321.702 119.291C320.421 117.945 320.192 115.833 320.169 114.704C321.281 114.767 323.351 115.073 324.639 116.426C325.92 117.772 326.148 119.884 326.171 121.013C325.06 120.95 322.99 120.644 321.702 119.291ZM327.041 125.468C331.695 125.468 335.507 129.148 335.811 133.783H323.116C323.402 131.842 325.045 130.343 327.041 130.343C327.501 130.343 327.873 129.965 327.873 129.5C327.873 129.034 327.501 128.657 327.041 128.657C324.124 128.657 321.717 130.907 321.423 133.783H318.271C318.574 129.148 322.386 125.468 327.041 125.468ZM317.036 124.172V131.255C317.036 131.258 317.038 131.261 317.038 131.265C316.794 132.067 316.654 132.913 316.606 133.783H310.86V124.172L317.036 124.172ZM306.63 146.7C310.736 146.7 314.077 150.085 314.077 154.244C314.077 158.403 310.736 161.787 306.63 161.787C302.524 161.787 299.184 158.403 299.184 154.244C299.184 150.084 302.524 146.7 306.63 146.7ZM305.43 114.688H307.623C308.49 114.688 309.195 115.403 309.195 116.281V145.392C308.38 145.15 307.521 145.014 306.63 145.014C305.664 145.014 304.733 145.17 303.858 145.454V116.281C303.858 115.403 304.563 114.688 305.43 114.688ZM302.192 124.172V133.783H294.986L294.987 124.172H302.192ZM283.26 133.229C282.959 132.655 282.914 131.976 283.139 131.368C283.365 130.759 283.818 130.296 284.415 130.065L288.58 128.45C289.178 128.219 289.82 128.258 290.39 128.558C290.958 128.858 291.373 129.393 291.542 130.077L292.706 133.783H283.509L283.26 133.229ZM274.997 135.468H302.193V141.478H274.997V135.468ZM330.816 171.024H282.388L277.425 143.163H302.193V146.19C299.409 147.771 297.52 150.786 297.52 154.243C297.52 159.332 301.608 163.471 306.632 163.471C311.655 163.471 315.743 159.332 315.743 154.243C315.743 150.701 313.76 147.622 310.861 146.076V143.163H336.239L330.816 171.024ZM338.264 141.477H310.86V135.468H338.264V141.477Z" stroke="#0782D0" stroke-width="0.4" mask="url(#path-54-outside-2_46082_37379)"/>
<mask id="path-55-inside-3_46082_37379" fill="white">
<path d="M430.083 188.181C429.772 188.181 429.464 188.159 429.158 188.112C426.247 187.674 424.688 186.984 423.548 186.48C422.654 186.085 422.063 185.824 421.202 185.824C420.341 185.824 419.75 186.085 418.856 186.48C417.717 186.984 416.157 187.674 413.246 188.112C410.308 188.558 407.077 186.812 405.568 183.967C404.265 181.507 404.573 178.852 406.394 176.865C408.85 174.187 410.117 172.704 411.943 169.746C412.285 169.193 412.597 168.636 412.902 168.092C414.504 165.229 416.162 162.269 421.202 162.269C426.242 162.269 427.9 165.229 429.502 168.092C429.807 168.636 430.119 169.193 430.46 169.746C432.287 172.704 433.554 174.187 436.01 176.865C437.83 178.852 438.139 181.507 436.836 183.967C435.484 186.516 432.752 188.181 430.083 188.181ZM429.377 186.648C432.034 187.05 434.482 185.252 435.531 183.272C436.543 181.363 436.321 179.393 434.923 177.866C432.457 175.178 431.089 173.578 429.205 170.525C428.852 169.954 428.53 169.379 428.215 168.817C426.63 165.986 425.378 163.75 421.202 163.75C417.026 163.75 415.775 165.986 414.19 168.817C413.874 169.379 413.552 169.954 413.2 170.525C411.315 173.578 409.947 175.178 407.482 177.867C406.083 179.393 405.862 181.363 406.873 183.272C407.923 185.253 410.374 187.045 413.027 186.648C415.742 186.239 417.139 185.622 418.26 185.126C419.21 184.705 420.03 184.343 421.203 184.343C422.375 184.343 423.195 184.705 424.145 185.126C425.267 185.622 426.663 186.239 429.377 186.648Z"/>
<path d="M415.108 158.448C412.614 158.448 410.211 156.171 409.507 152.957C408.721 149.368 410.346 145.949 413.13 145.336C415.908 144.721 418.818 147.144 419.604 150.733C420.39 154.322 418.765 157.74 415.981 158.353C415.691 158.417 415.399 158.448 415.108 158.448ZM414.021 146.72C413.829 146.72 413.637 146.74 413.447 146.782C411.458 147.221 410.338 149.848 410.949 152.639C411.561 155.43 413.672 157.344 415.665 156.907C417.653 156.469 418.773 153.842 418.162 151.051C417.609 148.527 415.827 146.72 414.021 146.72Z"/>
<path d="M406.476 168.103C405.447 168.103 404.405 167.724 403.457 166.989C402.227 166.037 401.296 164.588 400.834 162.909C399.858 159.368 401.299 155.867 404.047 155.107C405.416 154.729 406.883 155.069 408.176 156.07C409.405 157.023 410.337 158.471 410.799 160.15C411.261 161.828 411.203 163.551 410.636 165.001C410.039 166.525 408.956 167.574 407.585 167.953C407.221 168.054 406.85 168.103 406.476 168.103ZM405.148 156.438C404.908 156.438 404.671 156.469 404.44 156.533C402.478 157.077 401.499 159.76 402.257 162.515C402.635 163.887 403.382 165.059 404.36 165.817C405.276 166.526 406.282 166.777 407.192 166.525C408.103 166.273 408.838 165.539 409.261 164.46C409.712 163.306 409.753 161.915 409.375 160.543C408.998 159.172 408.251 157.999 407.272 157.242C406.589 156.712 405.855 156.438 405.148 156.438Z"/>
<path d="M427.295 158.448C427.004 158.448 426.713 158.417 426.422 158.353C423.638 157.74 422.013 154.322 422.799 150.733C423.585 147.144 426.487 144.721 429.273 145.336C432.057 145.949 433.682 149.368 432.896 152.957C432.192 156.171 429.789 158.448 427.295 158.448ZM424.241 151.051C423.63 153.842 424.75 156.469 426.738 156.907C428.726 157.345 430.842 155.431 431.454 152.639C432.065 149.848 430.945 147.221 428.957 146.783C426.968 146.344 424.853 148.259 424.241 151.051Z"/>
<path d="M435.927 168.103C435.554 168.103 435.183 168.054 434.818 167.953C433.448 167.574 432.365 166.525 431.768 165.001C431.2 163.551 431.142 161.828 431.605 160.15C432.067 158.471 432.999 157.023 434.228 156.07C435.521 155.069 436.987 154.729 438.356 155.107C441.104 155.867 442.546 159.368 441.57 162.909C441.108 164.588 440.176 166.037 438.947 166.989C437.998 167.724 436.956 168.103 435.927 168.103ZM437.255 156.438C436.548 156.438 435.814 156.712 435.131 157.241C434.153 157.999 433.406 159.172 433.028 160.543C432.65 161.915 432.691 163.306 433.143 164.46C433.565 165.539 434.3 166.273 435.211 166.525C436.122 166.777 437.128 166.526 438.043 165.817C439.022 165.059 439.768 163.887 440.146 162.515C440.905 159.76 439.926 157.077 437.963 156.533C437.732 156.469 437.495 156.438 437.255 156.438Z"/>
</mask>
<path d="M430.083 188.181C429.772 188.181 429.464 188.159 429.158 188.112C426.247 187.674 424.688 186.984 423.548 186.48C422.654 186.085 422.063 185.824 421.202 185.824C420.341 185.824 419.75 186.085 418.856 186.48C417.717 186.984 416.157 187.674 413.246 188.112C410.308 188.558 407.077 186.812 405.568 183.967C404.265 181.507 404.573 178.852 406.394 176.865C408.85 174.187 410.117 172.704 411.943 169.746C412.285 169.193 412.597 168.636 412.902 168.092C414.504 165.229 416.162 162.269 421.202 162.269C426.242 162.269 427.9 165.229 429.502 168.092C429.807 168.636 430.119 169.193 430.46 169.746C432.287 172.704 433.554 174.187 436.01 176.865C437.83 178.852 438.139 181.507 436.836 183.967C435.484 186.516 432.752 188.181 430.083 188.181ZM429.377 186.648C432.034 187.05 434.482 185.252 435.531 183.272C436.543 181.363 436.321 179.393 434.923 177.866C432.457 175.178 431.089 173.578 429.205 170.525C428.852 169.954 428.53 169.379 428.215 168.817C426.63 165.986 425.378 163.75 421.202 163.75C417.026 163.75 415.775 165.986 414.19 168.817C413.874 169.379 413.552 169.954 413.2 170.525C411.315 173.578 409.947 175.178 407.482 177.867C406.083 179.393 405.862 181.363 406.873 183.272C407.923 185.253 410.374 187.045 413.027 186.648C415.742 186.239 417.139 185.622 418.26 185.126C419.21 184.705 420.03 184.343 421.203 184.343C422.375 184.343 423.195 184.705 424.145 185.126C425.267 185.622 426.663 186.239 429.377 186.648Z" fill="#0782D0"/>
<path d="M415.108 158.448C412.614 158.448 410.211 156.171 409.507 152.957C408.721 149.368 410.346 145.949 413.13 145.336C415.908 144.721 418.818 147.144 419.604 150.733C420.39 154.322 418.765 157.74 415.981 158.353C415.691 158.417 415.399 158.448 415.108 158.448ZM414.021 146.72C413.829 146.72 413.637 146.74 413.447 146.782C411.458 147.221 410.338 149.848 410.949 152.639C411.561 155.43 413.672 157.344 415.665 156.907C417.653 156.469 418.773 153.842 418.162 151.051C417.609 148.527 415.827 146.72 414.021 146.72Z" fill="#0782D0"/>
<path d="M406.476 168.103C405.447 168.103 404.405 167.724 403.457 166.989C402.227 166.037 401.296 164.588 400.834 162.909C399.858 159.368 401.299 155.867 404.047 155.107C405.416 154.729 406.883 155.069 408.176 156.07C409.405 157.023 410.337 158.471 410.799 160.15C411.261 161.828 411.203 163.551 410.636 165.001C410.039 166.525 408.956 167.574 407.585 167.953C407.221 168.054 406.85 168.103 406.476 168.103ZM405.148 156.438C404.908 156.438 404.671 156.469 404.44 156.533C402.478 157.077 401.499 159.76 402.257 162.515C402.635 163.887 403.382 165.059 404.36 165.817C405.276 166.526 406.282 166.777 407.192 166.525C408.103 166.273 408.838 165.539 409.261 164.46C409.712 163.306 409.753 161.915 409.375 160.543C408.998 159.172 408.251 157.999 407.272 157.242C406.589 156.712 405.855 156.438 405.148 156.438Z" fill="#0782D0"/>
<path d="M427.295 158.448C427.004 158.448 426.713 158.417 426.422 158.353C423.638 157.74 422.013 154.322 422.799 150.733C423.585 147.144 426.487 144.721 429.273 145.336C432.057 145.949 433.682 149.368 432.896 152.957C432.192 156.171 429.789 158.448 427.295 158.448ZM424.241 151.051C423.63 153.842 424.75 156.469 426.738 156.907C428.726 157.345 430.842 155.431 431.454 152.639C432.065 149.848 430.945 147.221 428.957 146.783C426.968 146.344 424.853 148.259 424.241 151.051Z" fill="#0782D0"/>
<path d="M435.927 168.103C435.554 168.103 435.183 168.054 434.818 167.953C433.448 167.574 432.365 166.525 431.768 165.001C431.2 163.551 431.142 161.828 431.605 160.15C432.067 158.471 432.999 157.023 434.228 156.07C435.521 155.069 436.987 154.729 438.356 155.107C441.104 155.867 442.546 159.368 441.57 162.909C441.108 164.588 440.176 166.037 438.947 166.989C437.998 167.724 436.956 168.103 435.927 168.103ZM437.255 156.438C436.548 156.438 435.814 156.712 435.131 157.241C434.153 157.999 433.406 159.172 433.028 160.543C432.65 161.915 432.691 163.306 433.143 164.46C433.565 165.539 434.3 166.273 435.211 166.525C436.122 166.777 437.128 166.526 438.043 165.817C439.022 165.059 439.768 163.887 440.146 162.515C440.905 159.76 439.926 157.077 437.963 156.533C437.732 156.469 437.495 156.438 437.255 156.438Z" fill="#0782D0"/>
<path d="M430.083 188.181C429.772 188.181 429.464 188.159 429.158 188.112C426.247 187.674 424.688 186.984 423.548 186.48C422.654 186.085 422.063 185.824 421.202 185.824C420.341 185.824 419.75 186.085 418.856 186.48C417.717 186.984 416.157 187.674 413.246 188.112C410.308 188.558 407.077 186.812 405.568 183.967C404.265 181.507 404.573 178.852 406.394 176.865C408.85 174.187 410.117 172.704 411.943 169.746C412.285 169.193 412.597 168.636 412.902 168.092C414.504 165.229 416.162 162.269 421.202 162.269C426.242 162.269 427.9 165.229 429.502 168.092C429.807 168.636 430.119 169.193 430.46 169.746C432.287 172.704 433.554 174.187 436.01 176.865C437.83 178.852 438.139 181.507 436.836 183.967C435.484 186.516 432.752 188.181 430.083 188.181ZM429.377 186.648C432.034 187.05 434.482 185.252 435.531 183.272C436.543 181.363 436.321 179.393 434.923 177.866C432.457 175.178 431.089 173.578 429.205 170.525C428.852 169.954 428.53 169.379 428.215 168.817C426.63 165.986 425.378 163.75 421.202 163.75C417.026 163.75 415.775 165.986 414.19 168.817C413.874 169.379 413.552 169.954 413.2 170.525C411.315 173.578 409.947 175.178 407.482 177.867C406.083 179.393 405.862 181.363 406.873 183.272C407.923 185.253 410.374 187.045 413.027 186.648C415.742 186.239 417.139 185.622 418.26 185.126C419.21 184.705 420.03 184.343 421.203 184.343C422.375 184.343 423.195 184.705 424.145 185.126C425.267 185.622 426.663 186.239 429.377 186.648Z" stroke="#0782D0" stroke-width="2" mask="url(#path-55-inside-3_46082_37379)"/>
<path d="M415.108 158.448C412.614 158.448 410.211 156.171 409.507 152.957C408.721 149.368 410.346 145.949 413.13 145.336C415.908 144.721 418.818 147.144 419.604 150.733C420.39 154.322 418.765 157.74 415.981 158.353C415.691 158.417 415.399 158.448 415.108 158.448ZM414.021 146.72C413.829 146.72 413.637 146.74 413.447 146.782C411.458 147.221 410.338 149.848 410.949 152.639C411.561 155.43 413.672 157.344 415.665 156.907C417.653 156.469 418.773 153.842 418.162 151.051C417.609 148.527 415.827 146.72 414.021 146.72Z" stroke="#0782D0" stroke-width="2" mask="url(#path-55-inside-3_46082_37379)"/>
<path d="M406.476 168.103C405.447 168.103 404.405 167.724 403.457 166.989C402.227 166.037 401.296 164.588 400.834 162.909C399.858 159.368 401.299 155.867 404.047 155.107C405.416 154.729 406.883 155.069 408.176 156.07C409.405 157.023 410.337 158.471 410.799 160.15C411.261 161.828 411.203 163.551 410.636 165.001C410.039 166.525 408.956 167.574 407.585 167.953C407.221 168.054 406.85 168.103 406.476 168.103ZM405.148 156.438C404.908 156.438 404.671 156.469 404.44 156.533C402.478 157.077 401.499 159.76 402.257 162.515C402.635 163.887 403.382 165.059 404.36 165.817C405.276 166.526 406.282 166.777 407.192 166.525C408.103 166.273 408.838 165.539 409.261 164.46C409.712 163.306 409.753 161.915 409.375 160.543C408.998 159.172 408.251 157.999 407.272 157.242C406.589 156.712 405.855 156.438 405.148 156.438Z" stroke="#0782D0" stroke-width="2" mask="url(#path-55-inside-3_46082_37379)"/>
<path d="M427.295 158.448C427.004 158.448 426.713 158.417 426.422 158.353C423.638 157.74 422.013 154.322 422.799 150.733C423.585 147.144 426.487 144.721 429.273 145.336C432.057 145.949 433.682 149.368 432.896 152.957C432.192 156.171 429.789 158.448 427.295 158.448ZM424.241 151.051C423.63 153.842 424.75 156.469 426.738 156.907C428.726 157.345 430.842 155.431 431.454 152.639C432.065 149.848 430.945 147.221 428.957 146.783C426.968 146.344 424.853 148.259 424.241 151.051Z" stroke="#0782D0" stroke-width="2" mask="url(#path-55-inside-3_46082_37379)"/>
<path d="M435.927 168.103C435.554 168.103 435.183 168.054 434.818 167.953C433.448 167.574 432.365 166.525 431.768 165.001C431.2 163.551 431.142 161.828 431.605 160.15C432.067 158.471 432.999 157.023 434.228 156.07C435.521 155.069 436.987 154.729 438.356 155.107C441.104 155.867 442.546 159.368 441.57 162.909C441.108 164.588 440.176 166.037 438.947 166.989C437.998 167.724 436.956 168.103 435.927 168.103ZM437.255 156.438C436.548 156.438 435.814 156.712 435.131 157.241C434.153 157.999 433.406 159.172 433.028 160.543C432.65 161.915 432.691 163.306 433.143 164.46C433.565 165.539 434.3 166.273 435.211 166.525C436.122 166.777 437.128 166.526 438.043 165.817C439.022 165.059 439.768 163.887 440.146 162.515C440.905 159.76 439.926 157.077 437.963 156.533C437.732 156.469 437.495 156.438 437.255 156.438Z" stroke="#0782D0" stroke-width="2" mask="url(#path-55-inside-3_46082_37379)"/>
</g>
<path d="M112.194 169.663C111.981 169.513 111.693 169.516 111.484 169.671C111.081 169.97 101.608 177.063 101.631 184.43C101.649 189.869 105.945 194.318 111.323 194.629L111.332 197.38C111.333 197.706 111.601 197.969 111.932 197.969H111.934C112.265 197.968 112.533 197.703 112.532 197.376L112.523 194.63C115.012 194.486 117.335 193.469 119.118 191.709C121.08 189.771 122.156 187.185 122.147 184.427C122.122 176.762 112.599 169.95 112.194 169.663L112.194 169.663ZM118.268 190.875C116.712 192.412 114.688 193.308 112.519 193.449L112.506 189.465L117.551 184.482C117.785 184.251 117.784 183.877 117.55 183.647C117.315 183.417 116.935 183.417 116.702 183.648L112.501 187.797L112.485 182.809L115.055 180.27C115.289 180.039 115.288 179.665 115.054 179.435C114.82 179.204 114.44 179.205 114.205 179.436L112.48 181.14L112.467 177.298C112.466 176.972 112.198 176.709 111.867 176.709H111.865C111.534 176.71 111.266 176.975 111.267 177.302L111.28 181.118L109.564 179.434C109.329 179.204 108.949 179.205 108.716 179.436C108.482 179.667 108.482 180.041 108.717 180.271L111.285 182.792L111.301 187.796L107.074 183.647C106.839 183.416 106.459 183.417 106.225 183.648C105.991 183.879 105.992 184.253 106.226 184.483L111.307 189.469L111.32 193.447C106.603 193.136 102.847 189.215 102.832 184.427C102.813 178.413 110.143 172.246 111.853 170.89C113.576 172.201 120.927 178.161 120.947 184.431C120.955 186.873 120.003 189.161 118.268 190.875L118.268 190.875Z" fill="#0782D0"/>
<defs>
<clipPath id="clip0_46082_37379">
<rect width="76.0656" height="118.087" fill="white" transform="translate(447.556 146.188)"/>
</clipPath>
<clipPath id="clip1_46082_37379">
<rect width="76.0656" height="117.771" fill="white" transform="translate(73.2251 147.135)"/>
</clipPath>
<clipPath id="clip2_46082_37379">
<rect width="119.938" height="185.971" fill="white" transform="translate(126.881 107.667)"/>
</clipPath>
<clipPath id="clip3_46082_37379">
<rect width="119.938" height="185.971" fill="white" transform="translate(359.497 108.931)"/>
</clipPath>
<clipPath id="clip4_46082_37379">
<rect width="14.5188" height="14.5241" fill="white" transform="translate(142.031 78.6194)"/>
</clipPath>
<clipPath id="clip5_46082_37379">
<rect width="23.0406" height="23.0491" fill="white" transform="translate(450.712 60.3064)"/>
</clipPath>
<clipPath id="clip6_46082_37379">
<rect width="10.4156" height="10.4194" fill="white" transform="translate(501.844 289.534)"/>
</clipPath>
<clipPath id="clip7_46082_37379">
<rect width="116.466" height="86.513" fill="white" transform="translate(323.2 12.6296)"/>
</clipPath>
<clipPath id="clip8_46082_37379">
<rect width="239.875" height="265.222" fill="white" transform="translate(218.728 59.3594)"/>
</clipPath>
</defs>
</svg>
