<svg width="16" height="16" viewBox="0 0 16 16" fill="none" xmlns="http://www.w3.org/2000/svg">
<path d="M2.5 2.5H13.5V12.1667H10.0103L7.99862 13.8333L6.01034 12.1667H2.5V2.5Z" fill="inherit"/>
<path d="M2.5 2.5V1.75H1.75V2.5H2.5ZM13.5 2.5H14.25V1.75H13.5V2.5ZM13.5 12.1667V12.9167H14.25V12.1667H13.5ZM2.5 12.1667H1.75V12.9167H2.5V12.1667ZM7.99862 13.8333L7.51681 14.4081L7.9958 14.8096L8.4771 14.4109L7.99862 13.8333ZM10.0103 12.1667V11.4167H9.74002L9.53185 11.5891L10.0103 12.1667ZM6.01034 12.1667L6.49214 11.5919L6.2831 11.4167H6.01034V12.1667ZM7.26469 7.94222V8.69222H8.76469V7.94222H8.01469H7.26469ZM8.58772 7.07571L9.00931 7.696L9.00937 7.69596L8.58772 7.07571ZM2.5 2.5V3.25H13.5V2.5V1.75H2.5V2.5ZM13.5 2.5H12.75V12.1667H13.5H14.25V2.5H13.5ZM2.5 12.1667H3.25V2.5H2.5H1.75V12.1667H2.5ZM13.5 12.1667V11.4167H10.0103V12.1667V12.9167H13.5V12.1667ZM10.0103 12.1667L9.53185 11.5891L7.52013 13.2558L7.99862 13.8333L8.4771 14.4109L10.4888 12.7442L10.0103 12.1667ZM7.99862 13.8333L8.48042 13.2586L6.49214 11.5919L6.01034 12.1667L5.52853 12.7414L7.51681 14.4081L7.99862 13.8333ZM6.01034 12.1667V11.4167H2.5V12.1667V12.9167H6.01034V12.1667ZM8.01469 7.94222H8.76469C8.76469 7.91255 8.76929 7.90055 8.77018 7.89819C8.77143 7.8949 8.77479 7.887 8.78683 7.87229C8.80011 7.85606 8.82247 7.83336 8.86082 7.8026C8.90068 7.77062 8.94577 7.73919 9.00931 7.696L8.58772 7.07571L8.16613 6.45542C7.92737 6.6177 7.26469 7.04296 7.26469 7.94222H8.01469ZM8.58772 7.07571L9.00937 7.69596C9.30564 7.49455 9.83244 7.08054 9.83244 6.28512H9.08244H8.33244C8.33244 6.29721 8.33153 6.30487 8.33088 6.30891C8.33024 6.31289 8.32963 6.31469 8.32952 6.31502C8.3294 6.31537 8.32924 6.31581 8.32874 6.31676C8.32819 6.3178 8.32675 6.32033 8.32367 6.32452C8.3074 6.34664 8.26845 6.38586 8.16607 6.45546L8.58772 7.07571ZM9.08244 6.28512H9.83244C9.83244 5.31985 9.05589 4.52555 8.08244 4.52555V5.27555V6.02555C8.21402 6.02555 8.33244 6.13478 8.33244 6.28512H9.08244ZM8.08244 5.27555V4.52555C7.10899 4.52555 6.33244 5.31985 6.33244 6.28512H7.08244H7.83244C7.83244 6.13478 7.95085 6.02555 8.08244 6.02555V5.27555Z" fill="#113C7B"/>
<path d="M7.99951 9.08325C8.32157 9.08325 8.58332 9.34424 8.5835 9.66626C8.5835 9.98843 8.32168 10.2502 7.99951 10.2502C7.67749 10.2501 7.4165 9.98832 7.4165 9.66626C7.41668 9.34435 7.6776 9.08343 7.99951 9.08325Z" fill="black" stroke="black" stroke-width="0.5"/>
</svg>
