<svg xmlns="http://www.w3.org/2000/svg" xmlns:xlink="http://www.w3.org/1999/xlink" width="1200" zoomAndPan="magnify" viewBox="0 0 900 899.99999" height="1200" preserveAspectRatio="xMidYMid meet" version="1.2"><defs><clipPath id="336ea2f800"><path d="M 57.261719 281 L 80 281 L 80 392 L 57.261719 392 Z M 57.261719 281 "/></clipPath><clipPath id="ccef750ec0"><path d="M 57.261719 58 L 842.511719 58 L 842.511719 841.726562 L 57.261719 841.726562 Z M 57.261719 58 "/></clipPath><clipPath id="383865a971"><path d="M 820 281 L 842.511719 281 L 842.511719 392 L 820 392 Z M 820 281 "/></clipPath></defs><g id="c25b2a13bd"><path style=" stroke:none;fill-rule:nonzero;fill:#113c7b;fill-opacity:1;" d="M 546.632812 135.300781 L 353.363281 134.605469 C 347.078125 134.605469 342.191406 139.667969 342.015625 145.777344 C 342.015625 152.0625 347.078125 157.125 353.1875 157.125 L 546.457031 157.824219 C 552.742188 157.824219 557.632812 152.761719 557.804688 146.652344 C 557.808594 140.367188 552.917969 135.300781 546.632812 135.300781 Z M 546.632812 135.300781 "/><g clip-rule="nonzero" clip-path="url(#336ea2f800)"><path style=" stroke:none;fill-rule:nonzero;fill:#113c7b;fill-opacity:1;" d="M 68.609375 281.257812 C 62.324219 281.257812 57.261719 286.320312 57.261719 292.605469 L 57.261719 380.425781 C 57.261719 386.710938 62.324219 391.773438 68.609375 391.773438 C 74.894531 391.773438 79.957031 386.710938 79.957031 380.425781 L 79.957031 292.605469 C 79.785156 286.320312 74.722656 281.257812 68.609375 281.257812 Z M 68.609375 281.257812 "/></g><g clip-rule="nonzero" clip-path="url(#ccef750ec0)"><path style=" stroke:none;fill-rule:nonzero;fill:#113c7b;fill-opacity:1;" d="M 831.386719 166.378906 L 773.421875 166.378906 L 773.421875 124.652344 C 773.421875 87.988281 743.570312 58.132812 706.90625 58.132812 L 192.917969 58.132812 C 156.253906 58.132812 126.398438 87.988281 126.398438 124.652344 L 126.398438 166.378906 L 68.609375 166.378906 C 62.324219 166.378906 57.261719 171.441406 57.261719 177.550781 L 57.261719 251.925781 C 57.261719 258.210938 62.324219 263.277344 68.609375 263.277344 C 74.894531 263.277344 79.957031 258.210938 79.957031 251.925781 L 79.957031 188.902344 L 126.574219 188.902344 L 126.574219 682.289062 C 126.574219 715.460938 151.015625 743.042969 182.964844 747.933594 L 182.964844 812.703125 C 182.964844 828.765625 197.804688 841.859375 215.960938 841.859375 L 296.796875 841.859375 C 314.953125 841.859375 329.792969 828.765625 329.792969 812.703125 L 329.792969 748.632812 L 566.1875 748.632812 L 566.1875 812.703125 C 566.1875 828.765625 581.027344 841.859375 599.183594 841.859375 L 680.019531 841.859375 C 698.175781 841.859375 713.015625 828.765625 713.015625 812.703125 L 713.015625 748.457031 C 746.710938 745.3125 773.25 716.855469 773.25 682.289062 L 773.25 188.902344 L 819.863281 188.902344 L 819.863281 251.925781 C 819.863281 258.210938 824.925781 263.277344 831.210938 263.277344 C 837.496094 263.277344 842.558594 258.210938 842.558594 251.925781 L 842.558594 177.550781 C 842.558594 171.441406 837.496094 166.378906 831.386719 166.378906 Z M 149.09375 232.546875 L 438.738281 232.546875 L 438.738281 502.984375 L 149.09375 502.984375 Z M 461.257812 232.546875 L 750.902344 232.546875 L 750.902344 502.984375 L 461.257812 502.984375 Z M 149.09375 124.652344 C 149.09375 100.382812 168.824219 80.65625 193.09375 80.65625 L 707.078125 80.65625 C 731.347656 80.65625 751.074219 100.382812 751.074219 124.652344 L 751.074219 210.027344 L 149.09375 210.027344 Z M 307.273438 812.703125 C 307.273438 815.847656 302.734375 819.339844 296.796875 819.339844 L 215.960938 819.339844 C 209.851562 819.339844 205.488281 815.847656 205.488281 812.703125 L 205.488281 748.632812 L 307.445312 748.632812 L 307.445312 812.703125 Z M 690.667969 812.703125 C 690.667969 815.847656 686.128906 819.339844 680.191406 819.339844 L 599.359375 819.339844 C 593.25 819.339844 588.882812 815.847656 588.882812 812.703125 L 588.882812 748.632812 L 690.84375 748.632812 L 690.84375 812.703125 Z M 750.902344 682.113281 C 750.902344 706.378906 731.171875 726.109375 706.90625 726.109375 L 192.917969 726.109375 C 168.648438 726.109375 148.921875 706.378906 148.921875 682.113281 L 148.921875 525.507812 L 750.726562 525.507812 L 750.726562 682.113281 Z M 750.902344 682.113281 "/></g><g clip-rule="nonzero" clip-path="url(#383865a971)"><path style=" stroke:none;fill-rule:nonzero;fill:#113c7b;fill-opacity:1;" d="M 831.386719 281.257812 C 825.101562 281.257812 820.039062 286.320312 820.039062 292.605469 L 820.039062 380.425781 C 820.039062 386.710938 825.101562 391.773438 831.386719 391.773438 C 837.671875 391.773438 842.734375 386.710938 842.734375 380.425781 L 842.734375 292.605469 C 842.558594 286.320312 837.496094 281.257812 831.386719 281.257812 Z M 831.386719 281.257812 "/></g><path style=" stroke:none;fill-rule:nonzero;fill:#113c7b;fill-opacity:1;" d="M 243.722656 675.652344 C 272.355469 675.652344 295.574219 652.433594 295.574219 623.800781 C 295.574219 595.167969 272.355469 571.949219 243.722656 571.949219 C 215.089844 571.949219 191.871094 595.167969 191.871094 623.800781 C 191.871094 652.433594 215.089844 675.652344 243.722656 675.652344 Z M 243.722656 594.46875 C 259.960938 594.46875 273.054688 607.5625 273.054688 623.800781 C 273.054688 640.035156 259.960938 653.132812 243.722656 653.132812 C 227.484375 653.132812 214.390625 639.863281 214.390625 623.800781 C 214.390625 607.5625 227.660156 594.46875 243.722656 594.46875 Z M 243.722656 594.46875 "/><path style=" stroke:none;fill-rule:nonzero;fill:#113c7b;fill-opacity:1;" d="M 656.101562 675.652344 C 684.730469 675.652344 707.953125 652.433594 707.953125 623.800781 C 707.953125 595.167969 684.730469 571.949219 656.101562 571.949219 C 627.46875 571.949219 604.246094 595.167969 604.246094 623.800781 C 604.246094 652.433594 627.46875 675.652344 656.101562 675.652344 Z M 656.101562 594.46875 C 672.335938 594.46875 685.429688 607.5625 685.429688 623.800781 C 685.429688 640.035156 672.335938 653.132812 656.101562 653.132812 C 639.863281 653.132812 626.769531 640.035156 626.769531 623.800781 C 626.769531 607.5625 640.039062 594.46875 656.101562 594.46875 Z M 656.101562 594.46875 "/></g></svg>