<svg xmlns="http://www.w3.org/2000/svg" xmlns:xlink="http://www.w3.org/1999/xlink" width="1200" zoomAndPan="magnify" viewBox="0 0 900 899.99999" height="1200" preserveAspectRatio="xMidYMid meet" version="1.2"><g id="f3f37c6524"><path style=" stroke:none;fill-rule:nonzero;fill:#113c7b;fill-opacity:1;" d="M 95.910156 17.1875 L 367.25 17.1875 C 380.46875 17.1875 383.640625 25.984375 383.640625 34.453125 L 383.640625 284.277344 C 383.640625 293.976562 383.820312 300.847656 386.503906 307.601562 C 389.144531 314.289062 393.855469 319.410156 400.554688 325.636719 L 778.308594 676.421875 C 789.238281 686.59375 793.117188 693.925781 798.507812 707.976562 L 808.679688 734.347656 C 811.261719 741.101562 816.371094 745.105469 820.003906 747.328125 C 823.839844 749.570312 826.410156 752.253906 821.132812 758.019531 C 818.425781 761.007812 814.894531 764.832031 811.027344 768.710938 C 806.75 772.996094 803.582031 776.695312 801.753906 781.464844 C 799.996094 786.214844 799.882812 790.738281 799.882812 796.207031 C 799.882812 802.433594 799.464844 805.015625 798.585938 806.898438 C 797.773438 808.726562 795.878906 811.015625 791.605469 815.3125 C 786.191406 820.714844 782.617188 825.699219 780.902344 831.460938 C 779.144531 837.167969 779.3125 842.4375 779.3125 849.023438 C 779.3125 859.195312 785.964844 866.132812 790.410156 869.761719 L 793.578125 872.222656 C 795.054688 873.449219 795.167969 874.230469 795.167969 875.335938 L 795.167969 879.800781 C 795.167969 882.089844 794.773438 882.734375 791.707031 882.734375 L 635.152344 882.734375 C 624.113281 882.734375 621.824219 881.4375 619.535156 879.035156 C 617.246094 876.6875 614.425781 870.226562 608.605469 860.480469 C 594.789062 837.214844 581.402344 808.195312 551.265625 794.144531 C 540.867188 789.269531 531.417969 789.980469 525.011719 790.746094 C 523.140625 790.929688 521.796875 791.03125 520.78125 791.03125 C 517.152344 791.03125 518.144531 788.277344 518.730469 786.035156 C 519.496094 783.226562 519.722656 779.707031 517.960938 775.410156 C 515.277344 768.957031 510.269531 763.847656 503.820312 761.144531 C 496.769531 758.277344 489.949219 758.671875 484.128906 759.316406 C 478.375 759.96875 473.378906 760.613281 469.566406 760.613281 C 461.527344 760.5 460.230469 757.972656 458.007812 752.75 C 451.308594 737.132812 438.035156 730.242188 425.695312 726.609375 C 412.015625 722.617188 398.796875 726.136719 387.394531 728.324219 C 376.003906 730.433594 367.015625 731.253906 360.429688 727.433594 C 354.675781 724.140625 349.148438 714.867188 349.636719 709.410156 C 350.097656 703.34375 352.148438 696.246094 353.199219 688.613281 C 354.214844 680.910156 353.964844 671.515625 347.695312 663.992188 L 273.855469 575.707031 C 266.503906 566.953125 265.625 561.5625 264.632812 553.679688 C 263.570312 545.875 262.757812 535.410156 255.710938 523.261719 L 219.28125 460.058594 C 216.066406 454.363281 216.351562 452.59375 223.511719 459.699219 C 229.859375 466.09375 239.019531 468.101562 246.664062 464.863281 C 254.246094 461.695312 259.171875 452.234375 257.246094 442.714844 C 254.539062 429.925781 244.09375 422.808594 236.558594 417.40625 C 234.753906 416.109375 233.097656 414.753906 231.585938 413.820312 C 225.949219 410.347656 229.691406 408.125 233.042969 408.765625 C 237.339844 409.578125 244.207031 411.167969 251.898438 413.222656 C 260.132812 415.464844 268.535156 412.171875 272.820312 406.242188 C 277.050781 400.363281 277.757812 391.894531 273.53125 385.082031 C 268.996094 377.75 261.484375 373.746094 253.375 370.464844 C 245.335938 367.171875 236.390625 364.996094 228.347656 363.9375 C 221.480469 363.054688 214.015625 363 207.089844 364.644531 C 200.152344 366.28125 192.394531 370.523438 190.105469 378.980469 C 188.515625 384.980469 190.34375 389.796875 190.34375 392.785156 C 190.34375 399.011719 187.703125 400.667969 181.929688 392.605469 L 128.84375 318.246094 C 120.429688 306.441406 120.316406 302.933594 120.316406 288.359375 L 120.316406 251.730469 C 120.316406 242.570312 119.964844 235.917969 117.429688 229.464844 C 114.847656 223.058594 110.515625 218.0625 104.457031 212.019531 L 82.894531 190.34375 C 78.089844 185.539062 76.546875 183.066406 75.734375 180.359375 C 74.921875 177.652344 74.785156 173.671875 74.785156 166.554688 L 74.785156 149.050781 C 74.785156 140.886719 77.253906 138.25 81.484375 132.835938 C 85.667969 127.433594 91.769531 119.277344 91.769531 106.929688 L 91.769531 60.460938 C 91.769531 51.890625 88.601562 45.429688 86.3125 40.859375 C 83.953125 36.269531 82.546875 33.6875 82.613281 29.457031 C 82.871094 15.890625 84.699219 17.1875 95.910156 17.1875 Z M 88.511719 0.15625 C 82.128906 0.15625 74.71875 2.097656 70.421875 7.894531 C 66.191406 13.65625 65.550781 20.539062 65.550781 29.457031 C 65.550781 37.804688 68.761719 44.085938 71.007812 48.597656 C 73.296875 53.0625 74.75 55.839844 74.75 60.460938 L 74.75 106.929688 C 74.75 114.328125 72.351562 116.75 68.007812 122.265625 C 63.710938 127.78125 57.722656 136.285156 57.722656 149.042969 L 57.722656 166.546875 C 57.722656 173.59375 57.542969 179.234375 59.367188 185.289062 C 61.171875 191.347656 64.941406 196.625 70.757812 202.445312 L 92.4375 224.042969 C 98.074219 229.679688 100.363281 232.738281 101.605469 235.804688 C 102.777344 238.859375 103.25 243.089844 103.25 251.71875 L 103.25 288.316406 C 103.25 303.574219 105.125 314.335938 114.992188 328.140625 L 168.035156 402.507812 C 173.605469 410.367188 180.835938 414.957031 188.1875 415.195312 C 195.460938 415.5 201.800781 411.441406 204.96875 405.914062 C 208.320312 400.039062 208.273438 393.699219 207.148438 389.988281 C 204.675781 381.835938 207.789062 382.058594 211.027344 381.191406 C 215.367188 380.007812 220.78125 380.1875 226.117188 380.832031 C 232.636719 381.664062 240.519531 383.648438 246.914062 386.234375 C 251.378906 388.070312 255.089844 390.238281 257.085938 392.109375 C 260.652344 395.457031 257.898438 397.464844 254.730469 396.339844 C 246.800781 393.585938 239.042969 391.648438 231.113281 391.589844 C 226.882812 391.535156 222.238281 392.355469 218.1875 395.234375 C 214.195312 398.164062 211.375 402.8125 210.394531 407.921875 C 209.03125 414.789062 212.335938 418.554688 216.035156 423.089844 C 218.964844 426.609375 223.015625 428.730469 226.613281 431.3125 C 233.84375 436.464844 239.414062 441.824219 240.472656 446.234375 C 241.421875 450.214844 237.472656 450.394531 235.476562 447.644531 C 233.886719 445.464844 231.25 442.816406 227.71875 440.121094 C 224.1875 437.414062 218.265625 434.707031 212.164062 436.363281 C 207.269531 437.707031 202.230469 441.113281 200.007812 446.820312 C 197.761719 452.515625 198.949219 459.023438 202.410156 465.035156 L 240.9375 531.6875 C 246.292969 540.925781 246.574219 547.308594 247.703125 555.957031 C 248.832031 564.53125 251.164062 575.222656 260.671875 586.554688 L 334.511719 674.898438 C 336.632812 677.425781 337.050781 680.46875 336.269531 686.289062 C 335.527344 692.152344 333.269531 699.550781 332.640625 707.953125 C 331.410156 722.527344 340.285156 735.449219 351.914062 742.128906 C 364.714844 749.546875 378.5625 747.179688 390.507812 744.957031 C 402.429688 742.78125 413.0625 740.730469 420.855469 742.960938 C 431.253906 746.019531 439.894531 751.242188 442.949219 761.234375 C 444.710938 767.0625 449.050781 771.28125 453.632812 773.683594 C 458.277344 776.152344 463.386719 777.203125 468.394531 777.5625 C 475.140625 777.96875 481.015625 776.851562 485.953125 776.265625 C 490.894531 775.75 494.761719 775.5 497.300781 776.976562 C 502.703125 779.964844 501.992188 782.144531 500.832031 786.722656 C 500.300781 788.660156 499.601562 790.949219 499.703125 794.175781 C 499.816406 797.414062 501.644531 802.171875 505.230469 804.585938 C 512.851562 809.921875 521.085938 808.273438 526.949219 807.574219 C 532.769531 806.933594 537.417969 806.527344 544.003906 809.582031 C 567.621094 820.625 579.53125 844.929688 593.988281 869.210938 C 599.097656 877.839844 601.21875 884.648438 607.140625 890.875 C 613.015625 897.101562 622.25 899.742188 635.152344 899.742188 L 792.519531 899.742188 C 798.460938 899.742188 803.933594 898.984375 808.027344 894.753906 C 812.074219 890.527344 812.253906 885.484375 812.253906 881.875 L 812.253906 872.539062 C 812.253906 867.664062 809.503906 863.796875 807.28125 861.5625 C 804.992188 859.320312 802.917969 857.863281 801.15625 856.445312 C 797.761719 853.667969 796.351562 852.632812 796.351562 848.976562 C 796.351562 842.390625 796.464844 838.691406 797.164062 836.289062 C 797.933594 833.945312 799.21875 831.765625 803.683594 827.3125 C 808.195312 822.789062 811.726562 819.089844 814.082031 813.914062 C 816.441406 808.746094 816.902344 803.222656 816.902344 796.171875 C 816.902344 791.050781 817.140625 788.898438 817.667969 787.535156 C 818.199219 786.179688 819.304688 784.488281 823.003906 780.789062 C 826.703125 777.089844 831 773.085938 834.632812 768.28125 C 838.332031 763.445312 841.636719 757.464844 841.636719 750.246094 C 841.636719 746.019531 839.988281 741.609375 837.585938 738.855469 C 835.117188 736.027344 832.523438 734.796875 830.648438 733.746094 C 826.949219 731.683594 825.777344 731.335938 824.59375 728.164062 L 814.445312 701.796875 C 808.691406 686.875 802.566406 675.699219 789.878906 663.890625 L 412.230469 313.171875 C 406.015625 307.351562 403.546875 304.363281 402.316406 301.25 C 401.085938 298.195312 400.667969 293.550781 400.667969 284.277344 L 400.667969 34.453125 C 400.667969 13.476562 385.160156 0.15625 367.25 0.15625 Z M 88.511719 0.15625 "/></g></svg>