<svg xmlns="http://www.w3.org/2000/svg" xmlns:xlink="http://www.w3.org/1999/xlink" width="1200" zoomAndPan="magnify" viewBox="0 0 900 899.99999" height="1200" preserveAspectRatio="xMidYMid meet" version="1.2"><g id="93768623c4"><path style=" stroke:none;fill-rule:nonzero;fill:#113c7b;fill-opacity:1;" d="M 575.871094 332.003906 C 571.398438 328.203125 566.761719 324.609375 561.964844 321.226562 C 557.167969 317.847656 552.226562 314.6875 547.140625 311.753906 C 542.058594 308.824219 536.851562 306.125 531.523438 303.664062 C 526.191406 301.207031 520.761719 298.992188 515.234375 297.023438 C 509.703125 295.054688 504.09375 293.34375 498.410156 291.882812 C 492.722656 290.425781 486.984375 289.226562 481.1875 288.289062 C 475.394531 287.351562 469.570312 286.679688 463.714844 286.273438 C 457.859375 285.863281 451.996094 285.71875 446.128906 285.84375 L 435.429688 285.746094 L 433.4375 393.714844 L 619.300781 393.648438 L 612.472656 378.441406 C 607.964844 369.570312 602.628906 361.226562 596.46875 353.414062 C 590.308594 345.597656 583.441406 338.460938 575.871094 332.003906 Z M 455.4375 372.085938 L 456.617188 307.765625 C 461.351562 307.894531 466.078125 308.226562 470.785156 308.757812 C 475.496094 309.285156 480.175781 310.011719 484.824219 310.9375 C 489.472656 311.859375 494.074219 312.980469 498.628906 314.289062 C 503.183594 315.601562 507.671875 317.101562 512.101562 318.792969 C 516.527344 320.484375 520.878906 322.355469 525.148438 324.414062 C 529.417969 326.46875 533.59375 328.699219 537.675781 331.109375 C 541.757812 333.515625 545.730469 336.09375 549.597656 338.835938 C 553.460938 341.578125 557.203125 344.480469 560.824219 347.539062 C 569.273438 354.851562 576.792969 363.015625 583.382812 372.039062 Z M 403.351562 285.84375 C 397.480469 285.722656 391.617188 285.863281 385.761719 286.273438 C 379.90625 286.683594 374.078125 287.355469 368.285156 288.292969 C 362.488281 289.234375 356.75 290.429688 351.0625 291.890625 C 345.375 293.347656 339.769531 295.0625 334.238281 297.03125 C 328.707031 299 323.277344 301.214844 317.945312 303.675781 C 312.617188 306.136719 307.410156 308.835938 302.324219 311.769531 C 297.238281 314.703125 292.296875 317.859375 287.5 321.242188 C 282.699219 324.625 278.066406 328.21875 273.59375 332.019531 C 266.027344 338.46875 259.164062 345.597656 253.003906 353.402344 C 246.84375 361.207031 241.507812 369.535156 236.988281 378.390625 L 230.179688 393.597656 L 416.027344 393.648438 L 414.050781 285.679688 Z M 266.144531 372.039062 C 269.855469 367.152344 273.828125 362.488281 278.066406 358.054688 C 282.304688 353.617188 286.777344 349.433594 291.488281 345.503906 C 296.199219 341.574219 301.117188 337.921875 306.242188 334.546875 C 311.367188 331.171875 316.664062 328.101562 322.136719 325.324219 C 327.609375 322.550781 333.21875 320.097656 338.972656 317.957031 C 344.722656 315.820312 350.574219 314.011719 356.527344 312.535156 C 362.484375 311.058594 368.503906 309.921875 374.585938 309.128906 C 380.667969 308.332031 386.777344 307.882812 392.914062 307.78125 L 394.089844 372.101562 Z M 885.300781 474.695312 C 879.65625 456.054688 873.074219 437.75 865.550781 419.78125 L 863.691406 415.453125 L 859.246094 413.820312 C 858.152344 413.429688 751.082031 375.289062 692.640625 358.742188 C 611.152344 278.949219 521.558594 238.476562 426.316406 238.476562 C 409.070312 238.78125 391.914062 240.1875 374.851562 242.695312 C 357.785156 245.203125 340.953125 248.792969 324.347656 253.464844 C 307.746094 258.136719 291.507812 263.851562 275.640625 270.609375 C 259.769531 277.367188 244.398438 285.113281 229.523438 293.847656 C 191.652344 315.082031 156.777344 340.445312 124.90625 369.929688 L 35.933594 379.585938 L -0.785156 559.730469 L 75.707031 574.628906 L 105.941406 574.628906 C 105.960938 576.0625 106.015625 577.5 106.105469 578.933594 C 106.195312 580.367188 106.320312 581.796875 106.476562 583.226562 C 106.636719 584.652344 106.832031 586.078125 107.058594 587.496094 C 107.285156 588.914062 107.550781 590.324219 107.847656 591.730469 C 108.144531 593.136719 108.472656 594.535156 108.839844 595.921875 C 109.203125 597.3125 109.601562 598.691406 110.035156 600.0625 C 110.46875 601.433594 110.933594 602.792969 111.429688 604.136719 C 111.929688 605.484375 112.460938 606.820312 113.023438 608.140625 C 113.585938 609.464844 114.183594 610.769531 114.808594 612.0625 C 115.433594 613.355469 116.09375 614.632812 116.78125 615.894531 C 117.472656 617.152344 118.191406 618.398438 118.941406 619.621094 C 119.691406 620.847656 120.46875 622.054688 121.277344 623.242188 C 122.085938 624.429688 122.921875 625.597656 123.785156 626.742188 C 124.652344 627.890625 125.542969 629.015625 126.464844 630.121094 C 127.382812 631.222656 128.328125 632.304688 129.300781 633.359375 C 130.273438 634.417969 131.273438 635.453125 132.296875 636.460938 C 133.316406 637.46875 134.363281 638.453125 135.433594 639.410156 C 136.503906 640.367188 137.597656 641.300781 138.714844 642.203125 C 139.832031 643.109375 140.96875 643.988281 142.125 644.835938 C 143.285156 645.6875 144.464844 646.507812 145.660156 647.296875 C 146.859375 648.089844 148.078125 648.851562 149.3125 649.585938 C 150.550781 650.320312 151.800781 651.019531 153.070312 651.691406 C 154.339844 652.363281 155.625 653.003906 156.925781 653.613281 C 158.230469 654.222656 159.542969 654.800781 160.871094 655.347656 C 162.203125 655.890625 163.542969 656.402344 164.898438 656.882812 C 166.25 657.363281 167.617188 657.808594 168.992188 658.222656 C 170.367188 658.636719 171.753906 659.015625 173.148438 659.363281 C 174.542969 659.710938 175.945312 660.019531 177.351562 660.300781 C 178.761719 660.578125 180.179688 660.820312 181.597656 661.03125 C 183.019531 661.238281 184.445312 661.414062 185.875 661.550781 C 187.304688 661.691406 188.738281 661.796875 190.171875 661.867188 C 191.609375 661.9375 193.042969 661.972656 194.480469 661.972656 C 195.917969 661.972656 197.351562 661.9375 198.789062 661.867188 C 200.222656 661.796875 201.65625 661.691406 203.085938 661.550781 C 204.515625 661.414062 205.941406 661.238281 207.359375 661.03125 C 208.78125 660.820312 210.199219 660.578125 211.605469 660.300781 C 213.015625 660.019531 214.417969 659.710938 215.8125 659.363281 C 217.207031 659.015625 218.59375 658.636719 219.96875 658.222656 C 221.34375 657.808594 222.707031 657.363281 224.0625 656.882812 C 225.417969 656.402344 226.757812 655.890625 228.085938 655.347656 C 229.417969 654.800781 230.730469 654.222656 232.03125 653.613281 C 233.332031 653.003906 234.617188 652.363281 235.886719 651.691406 C 237.160156 651.019531 238.410156 650.320312 239.648438 649.585938 C 240.882812 648.851562 242.097656 648.089844 243.296875 647.296875 C 244.496094 646.507812 245.675781 645.6875 246.832031 644.835938 C 247.992188 643.988281 249.128906 643.109375 250.246094 642.207031 C 251.359375 641.300781 252.453125 640.367188 253.523438 639.410156 C 254.59375 638.453125 255.640625 637.46875 256.664062 636.460938 C 257.6875 635.453125 258.683594 634.417969 259.65625 633.359375 C 260.628906 632.304688 261.578125 631.222656 262.496094 630.121094 C 263.414062 629.015625 264.308594 627.890625 265.171875 626.742188 C 266.039062 625.597656 266.875 624.429688 267.683594 623.242188 C 268.492188 622.054688 269.269531 620.847656 270.019531 619.621094 C 270.769531 618.398438 271.488281 617.152344 272.175781 615.894531 C 272.867188 614.632812 273.523438 613.355469 274.152344 612.0625 C 274.777344 610.769531 275.375 609.464844 275.9375 608.140625 C 276.5 606.820312 277.03125 605.484375 277.527344 604.136719 C 278.027344 602.792969 278.492188 601.433594 278.925781 600.0625 C 279.355469 598.691406 279.753906 597.3125 280.121094 595.921875 C 280.484375 594.535156 280.816406 593.136719 281.113281 591.730469 C 281.410156 590.324219 281.671875 588.914062 281.902344 587.496094 C 282.128906 586.078125 282.324219 584.652344 282.480469 583.226562 C 282.640625 581.796875 282.765625 580.367188 282.855469 578.933594 C 282.945312 577.5 283 576.0625 283.019531 574.628906 L 283.019531 574.089844 C 374.324219 573.828125 500.488281 573.417969 611.332031 572.914062 C 611.332031 573.484375 611.332031 574.054688 611.332031 574.546875 C 611.351562 575.984375 611.402344 577.417969 611.492188 578.851562 C 611.582031 580.285156 611.707031 581.714844 611.867188 583.144531 C 612.023438 584.570312 612.21875 585.996094 612.445312 587.414062 C 612.675781 588.832031 612.9375 590.242188 613.234375 591.648438 C 613.53125 593.054688 613.863281 594.453125 614.226562 595.839844 C 614.59375 597.230469 614.992188 598.609375 615.421875 599.980469 C 615.855469 601.351562 616.320312 602.710938 616.820312 604.058594 C 617.316406 605.402344 617.847656 606.738281 618.410156 608.058594 C 618.976562 609.382812 619.570312 610.6875 620.195312 611.980469 C 620.824219 613.273438 621.480469 614.550781 622.171875 615.8125 C 622.859375 617.070312 623.578125 618.316406 624.328125 619.539062 C 625.078125 620.765625 625.855469 621.972656 626.664062 623.160156 C 627.472656 624.347656 628.308594 625.515625 629.175781 626.664062 C 630.039062 627.808594 630.933594 628.933594 631.851562 630.039062 C 632.773438 631.140625 633.71875 632.222656 634.691406 633.28125 C 635.664062 634.335938 636.660156 635.371094 637.683594 636.378906 C 638.707031 637.386719 639.753906 638.371094 640.824219 639.328125 C 641.894531 640.289062 642.988281 641.21875 644.101562 642.125 C 645.21875 643.027344 646.355469 643.90625 647.515625 644.753906 C 648.671875 645.605469 649.851562 646.425781 651.050781 647.214844 C 652.25 648.007812 653.464844 648.769531 654.703125 649.503906 C 655.9375 650.238281 657.191406 650.9375 658.460938 651.609375 C 659.730469 652.28125 661.015625 652.921875 662.316406 653.53125 C 663.617188 654.140625 664.933594 654.71875 666.261719 655.265625 C 667.589844 655.808594 668.933594 656.320312 670.285156 656.800781 C 671.640625 657.28125 673.003906 657.730469 674.378906 658.140625 C 675.757812 658.554688 677.140625 658.933594 678.535156 659.28125 C 679.929688 659.628906 681.332031 659.941406 682.742188 660.21875 C 684.152344 660.496094 685.566406 660.738281 686.988281 660.949219 C 688.410156 661.15625 689.835938 661.332031 691.265625 661.46875 C 692.695312 661.609375 694.125 661.714844 695.5625 661.785156 C 696.996094 661.855469 698.433594 661.890625 699.867188 661.890625 C 701.304688 661.890625 702.742188 661.855469 704.175781 661.785156 C 705.609375 661.714844 707.042969 661.609375 708.472656 661.46875 C 709.902344 661.332031 711.328125 661.15625 712.75 660.949219 C 714.171875 660.738281 715.585938 660.496094 716.996094 660.21875 C 718.40625 659.941406 719.808594 659.628906 721.199219 659.28125 C 722.59375 658.933594 723.980469 658.554688 725.355469 658.140625 C 726.730469 657.730469 728.097656 657.28125 729.449219 656.800781 C 730.804688 656.320312 732.148438 655.808594 733.476562 655.265625 C 734.804688 654.71875 736.121094 654.140625 737.421875 653.53125 C 738.722656 652.921875 740.007812 652.28125 741.277344 651.609375 C 742.546875 650.9375 743.800781 650.238281 745.035156 649.503906 C 746.269531 648.769531 747.488281 648.007812 748.6875 647.214844 C 749.886719 646.425781 751.0625 645.605469 752.222656 644.753906 C 753.378906 643.90625 754.519531 643.027344 755.632812 642.125 C 756.75 641.21875 757.84375 640.289062 758.914062 639.328125 C 759.984375 638.371094 761.03125 637.386719 762.054688 636.378906 C 763.074219 635.371094 764.074219 634.335938 765.046875 633.28125 C 766.019531 632.222656 766.964844 631.140625 767.882812 630.039062 C 768.804688 628.933594 769.695312 627.808594 770.5625 626.664062 C 771.425781 625.515625 772.261719 624.347656 773.070312 623.160156 C 773.878906 621.972656 774.660156 620.765625 775.40625 619.539062 C 776.15625 618.316406 776.875 617.070312 777.566406 615.8125 C 778.253906 614.550781 778.914062 613.273438 779.539062 611.980469 C 780.167969 610.6875 780.761719 609.382812 781.324219 608.058594 C 781.886719 606.738281 782.417969 605.402344 782.917969 604.058594 C 783.414062 602.710938 783.882812 601.351562 784.3125 599.980469 C 784.746094 598.609375 785.144531 597.230469 785.507812 595.839844 C 785.875 594.453125 786.203125 593.054688 786.5 591.648438 C 786.796875 590.242188 787.0625 588.832031 787.289062 587.414062 C 787.519531 585.996094 787.710938 584.570312 787.871094 583.144531 C 788.03125 581.714844 788.152344 580.285156 788.242188 578.851562 C 788.332031 577.417969 788.386719 575.984375 788.40625 574.546875 C 788.40625 573.632812 788.324219 572.71875 788.292969 571.800781 C 831.152344 571.441406 857.972656 571.101562 867.984375 570.742188 C 870.191406 570.730469 872.359375 570.449219 874.492188 569.886719 C 876.625 569.328125 878.652344 568.511719 880.578125 567.433594 C 882.5 566.359375 884.261719 565.058594 885.855469 563.535156 C 887.449219 562.011719 888.824219 560.316406 889.988281 558.441406 C 899.183594 543.921875 897.679688 516.429688 885.300781 474.695312 Z M 194.472656 641.566406 C 193.375 641.566406 192.28125 641.539062 191.1875 641.484375 C 190.089844 641.429688 189 641.347656 187.90625 641.242188 C 186.816406 641.132812 185.730469 641 184.644531 640.839844 C 183.5625 640.679688 182.480469 640.492188 181.40625 640.277344 C 180.332031 640.0625 179.261719 639.824219 178.199219 639.558594 C 177.136719 639.292969 176.082031 639 175.03125 638.679688 C 173.984375 638.363281 172.941406 638.019531 171.910156 637.648438 C 170.878906 637.28125 169.855469 636.886719 168.84375 636.464844 C 167.832031 636.046875 166.828125 635.601562 165.839844 635.132812 C 164.847656 634.664062 163.871094 634.171875 162.902344 633.65625 C 161.9375 633.140625 160.984375 632.601562 160.042969 632.035156 C 159.101562 631.472656 158.175781 630.886719 157.265625 630.277344 C 156.355469 629.667969 155.457031 629.039062 154.578125 628.386719 C 153.699219 627.734375 152.835938 627.058594 151.988281 626.363281 C 151.140625 625.667969 150.308594 624.953125 149.5 624.214844 C 148.6875 623.480469 147.890625 622.722656 147.117188 621.949219 C 146.34375 621.175781 145.585938 620.382812 144.851562 619.570312 C 144.113281 618.757812 143.398438 617.925781 142.703125 617.082031 C 142.007812 616.234375 141.335938 615.371094 140.683594 614.488281 C 140.027344 613.609375 139.398438 612.710938 138.789062 611.800781 C 138.179688 610.890625 137.59375 609.964844 137.03125 609.023438 C 136.46875 608.085938 135.925781 607.132812 135.410156 606.164062 C 134.894531 605.199219 134.402344 604.21875 133.933594 603.226562 C 133.464844 602.238281 133.019531 601.234375 132.601562 600.222656 C 132.179688 599.210938 131.785156 598.1875 131.417969 597.15625 C 131.046875 596.125 130.703125 595.085938 130.386719 594.035156 C 130.066406 592.988281 129.777344 591.929688 129.507812 590.867188 C 129.242188 589.804688 129.003906 588.734375 128.789062 587.660156 C 128.574219 586.585938 128.386719 585.503906 128.226562 584.421875 C 128.066406 583.335938 127.933594 582.25 127.824219 581.160156 C 127.71875 580.070312 127.636719 578.976562 127.582031 577.882812 C 127.53125 576.785156 127.503906 575.691406 127.503906 574.59375 C 127.503906 573.5 127.53125 572.402344 127.582031 571.308594 C 127.636719 570.214844 127.71875 569.121094 127.824219 568.03125 C 127.933594 566.941406 128.066406 565.851562 128.226562 564.769531 C 128.386719 563.683594 128.574219 562.605469 128.789062 561.53125 C 129.003906 560.457031 129.242188 559.386719 129.507812 558.324219 C 129.777344 557.261719 130.066406 556.203125 130.386719 555.15625 C 130.703125 554.105469 131.046875 553.066406 131.417969 552.035156 C 131.785156 551.003906 132.179688 549.980469 132.601562 548.96875 C 133.019531 547.953125 133.464844 546.953125 133.933594 545.960938 C 134.402344 544.972656 134.894531 543.992188 135.410156 543.027344 C 135.925781 542.058594 136.46875 541.105469 137.03125 540.167969 C 137.59375 539.226562 138.179688 538.300781 138.789062 537.390625 C 139.398438 536.476562 140.027344 535.582031 140.683594 534.703125 C 141.335938 533.820312 142.007812 532.957031 142.703125 532.109375 C 143.398438 531.261719 144.113281 530.433594 144.851562 529.621094 C 145.585938 528.808594 146.34375 528.015625 147.117188 527.242188 C 147.890625 526.464844 148.6875 525.710938 149.5 524.972656 C 150.308594 524.238281 151.140625 523.523438 151.988281 522.828125 C 152.835938 522.132812 153.699219 521.457031 154.578125 520.804688 C 155.457031 520.152344 156.355469 519.519531 157.265625 518.914062 C 158.175781 518.304688 159.101562 517.71875 160.042969 517.152344 C 160.984375 516.589844 161.9375 516.050781 162.902344 515.535156 C 163.871094 515.015625 164.847656 514.523438 165.839844 514.054688 C 166.828125 513.585938 167.832031 513.144531 168.84375 512.722656 C 169.855469 512.304688 170.878906 511.910156 171.910156 511.539062 C 172.941406 511.171875 173.984375 510.828125 175.03125 510.511719 C 176.082031 510.191406 177.136719 509.898438 178.199219 509.632812 C 179.261719 509.367188 180.332031 509.125 181.40625 508.914062 C 182.480469 508.699219 183.5625 508.511719 184.644531 508.351562 C 185.730469 508.191406 186.816406 508.054688 187.90625 507.949219 C 189 507.839844 190.089844 507.761719 191.1875 507.707031 C 192.28125 507.652344 193.375 507.625 194.472656 507.625 C 198.546875 507.628906 202.585938 508.003906 206.589844 508.753906 C 208.613281 509.136719 210.613281 509.613281 212.59375 510.179688 C 214.570312 510.75 216.519531 511.40625 218.4375 512.15625 C 220.355469 512.902344 222.234375 513.738281 224.074219 514.660156 C 225.914062 515.582031 227.707031 516.585938 229.457031 517.671875 C 231.203125 518.757812 232.898438 519.921875 234.539062 521.164062 C 236.179688 522.410156 237.761719 523.722656 239.28125 525.113281 C 240.800781 526.5 242.25 527.957031 243.636719 529.480469 C 245.023438 531 246.335938 532.585938 247.574219 534.226562 C 248.8125 535.871094 249.972656 537.566406 251.054688 539.320312 C 252.140625 541.070312 253.140625 542.867188 254.054688 544.707031 C 254.972656 546.550781 255.804688 548.433594 256.546875 550.351562 C 257.292969 552.269531 257.945312 554.21875 258.507812 556.199219 C 259.074219 558.179688 259.542969 560.179688 259.921875 562.203125 C 260.304688 564.226562 260.589844 566.261719 260.78125 568.3125 C 260.972656 570.363281 261.070312 572.414062 261.070312 574.472656 C 261.074219 576.53125 260.980469 578.585938 260.792969 580.636719 C 260.605469 582.683594 260.324219 584.722656 259.949219 586.746094 C 259.574219 588.769531 259.109375 590.773438 258.550781 592.753906 C 257.988281 594.734375 257.339844 596.683594 256.601562 598.605469 C 255.859375 600.527344 255.035156 602.410156 254.121094 604.253906 C 253.207031 606.097656 252.214844 607.898438 251.132812 609.648438 C 250.054688 611.402344 248.898438 613.101562 247.664062 614.75 C 246.425781 616.394531 245.117188 617.980469 243.734375 619.507812 C 242.355469 621.03125 240.90625 622.492188 239.390625 623.882812 C 237.871094 625.273438 236.296875 626.59375 234.65625 627.839844 C 233.019531 629.085938 231.328125 630.253906 229.582031 631.34375 C 227.835938 632.4375 226.042969 633.445312 224.207031 634.367188 C 222.367188 635.292969 220.488281 636.132812 218.574219 636.886719 C 216.65625 637.636719 214.710938 638.300781 212.734375 638.871094 C 210.757812 639.445312 208.757812 639.925781 206.738281 640.3125 C 204.714844 640.703125 202.679688 640.996094 200.632812 641.199219 C 198.582031 641.398438 196.53125 641.503906 194.472656 641.515625 Z M 699.761719 641.566406 C 698.667969 641.566406 697.570312 641.539062 696.476562 641.484375 C 695.382812 641.429688 694.289062 641.347656 693.199219 641.242188 C 692.109375 641.132812 691.019531 641 689.9375 640.839844 C 688.851562 640.679688 687.773438 640.492188 686.695312 640.277344 C 685.621094 640.0625 684.554688 639.824219 683.488281 639.558594 C 682.425781 639.292969 681.371094 639 680.320312 638.679688 C 679.273438 638.363281 678.234375 638.019531 677.199219 637.648438 C 676.167969 637.28125 675.148438 636.886719 674.132812 636.464844 C 673.121094 636.046875 672.121094 635.601562 671.128906 635.132812 C 670.136719 634.664062 669.160156 634.171875 668.191406 633.65625 C 667.226562 633.140625 666.273438 632.601562 665.332031 632.035156 C 664.394531 631.472656 663.46875 630.886719 662.554688 630.277344 C 661.644531 629.667969 660.75 629.039062 659.867188 628.386719 C 658.988281 627.734375 658.125 627.058594 657.277344 626.363281 C 656.429688 625.667969 655.601562 624.953125 654.789062 624.214844 C 653.976562 623.480469 653.183594 622.722656 652.40625 621.949219 C 651.632812 621.175781 650.878906 620.382812 650.140625 619.570312 C 649.40625 618.757812 648.691406 617.925781 647.996094 617.082031 C 647.300781 616.234375 646.625 615.371094 645.972656 614.488281 C 645.320312 613.609375 644.6875 612.710938 644.078125 611.800781 C 643.46875 610.890625 642.882812 609.964844 642.320312 609.023438 C 641.757812 608.085938 641.21875 607.132812 640.699219 606.164062 C 640.183594 605.199219 639.691406 604.21875 639.222656 603.226562 C 638.753906 602.238281 638.308594 601.234375 637.890625 600.222656 C 637.472656 599.210938 637.078125 598.1875 636.707031 597.15625 C 636.339844 596.125 635.996094 595.085938 635.675781 594.035156 C 635.359375 592.988281 635.066406 591.929688 634.800781 590.867188 C 634.535156 589.804688 634.292969 588.734375 634.078125 587.660156 C 633.867188 586.585938 633.679688 585.503906 633.519531 584.421875 C 633.355469 583.335938 633.222656 582.25 633.117188 581.160156 C 633.007812 580.070312 632.925781 578.976562 632.875 577.882812 C 632.820312 576.785156 632.792969 575.691406 632.792969 574.59375 C 632.792969 573.5 632.820312 572.402344 632.875 571.308594 C 632.925781 570.214844 633.007812 569.121094 633.117188 568.03125 C 633.222656 566.941406 633.355469 565.851562 633.519531 564.769531 C 633.679688 563.683594 633.867188 562.605469 634.078125 561.53125 C 634.292969 560.457031 634.535156 559.386719 634.800781 558.324219 C 635.066406 557.261719 635.359375 556.203125 635.675781 555.15625 C 635.996094 554.105469 636.339844 553.066406 636.707031 552.035156 C 637.078125 551.003906 637.472656 549.980469 637.890625 548.96875 C 638.308594 547.953125 638.753906 546.953125 639.222656 545.960938 C 639.691406 544.972656 640.183594 543.992188 640.699219 543.027344 C 641.21875 542.058594 641.757812 541.105469 642.320312 540.167969 C 642.882812 539.226562 643.46875 538.300781 644.078125 537.390625 C 644.6875 536.476562 645.320312 535.582031 645.972656 534.703125 C 646.625 533.820312 647.300781 532.957031 647.996094 532.109375 C 648.691406 531.261719 649.40625 530.433594 650.140625 529.621094 C 650.878906 528.808594 651.632812 528.015625 652.40625 527.242188 C 653.183594 526.464844 653.976562 525.710938 654.789062 524.972656 C 655.601562 524.238281 656.429688 523.523438 657.277344 522.828125 C 658.125 522.132812 658.988281 521.457031 659.867188 520.804688 C 660.75 520.152344 661.644531 519.519531 662.554688 518.914062 C 663.46875 518.304688 664.394531 517.71875 665.332031 517.152344 C 666.273438 516.589844 667.226562 516.050781 668.191406 515.535156 C 669.160156 515.015625 670.136719 514.523438 671.128906 514.054688 C 672.121094 513.585938 673.121094 513.144531 674.132812 512.722656 C 675.148438 512.304688 676.167969 511.910156 677.199219 511.539062 C 678.234375 511.171875 679.273438 510.828125 680.320312 510.511719 C 681.371094 510.191406 682.425781 509.898438 683.488281 509.632812 C 684.554688 509.367188 685.621094 509.125 686.695312 508.914062 C 687.773438 508.699219 688.851562 508.511719 689.9375 508.351562 C 691.019531 508.191406 692.105469 508.054688 693.199219 507.949219 C 694.289062 507.839844 695.382812 507.761719 696.476562 507.707031 C 697.570312 507.652344 698.667969 507.625 699.761719 507.625 C 703.785156 507.628906 707.773438 507.984375 711.734375 508.6875 C 713.765625 509.0625 715.773438 509.53125 717.761719 510.089844 C 719.746094 510.648438 721.703125 511.300781 723.628906 512.039062 C 725.554688 512.78125 727.445312 513.609375 729.292969 514.523438 C 731.144531 515.441406 732.949219 516.441406 734.703125 517.523438 C 736.460938 518.605469 738.167969 519.765625 739.816406 521.003906 C 741.464844 522.246094 743.054688 523.558594 744.585938 524.945312 C 746.113281 526.332031 747.574219 527.785156 748.96875 529.308594 C 750.363281 530.828125 751.683594 532.414062 752.933594 534.058594 C 754.179688 535.699219 755.351562 537.398438 756.441406 539.152344 C 757.53125 540.902344 758.539062 542.703125 759.464844 544.546875 C 760.390625 546.394531 761.226562 548.277344 761.976562 550.199219 C 762.726562 552.121094 763.386719 554.074219 763.957031 556.058594 C 764.527344 558.042969 765.003906 560.050781 765.386719 562.078125 C 765.773438 564.105469 766.0625 566.144531 766.257812 568.199219 C 766.453125 570.253906 766.554688 572.316406 766.558594 574.378906 C 766.5625 576.441406 766.472656 578.503906 766.289062 580.558594 C 766.101562 582.613281 765.824219 584.65625 765.449219 586.6875 C 765.074219 588.714844 764.609375 590.726562 764.046875 592.710938 C 763.488281 594.699219 762.839844 596.65625 762.097656 598.582031 C 761.355469 600.507812 760.527344 602.394531 759.613281 604.246094 C 758.699219 606.097656 757.699219 607.898438 756.617188 609.65625 C 755.535156 611.414062 754.375 613.117188 753.132812 614.769531 C 751.894531 616.417969 750.582031 618.007812 749.195312 619.539062 C 747.808594 621.066406 746.355469 622.527344 744.832031 623.921875 C 743.308594 625.316406 741.726562 626.636719 740.082031 627.886719 C 738.441406 629.132812 736.742188 630.304688 734.988281 631.394531 C 733.238281 632.484375 731.4375 633.492188 729.59375 634.417969 C 727.75 635.34375 725.863281 636.179688 723.941406 636.929688 C 722.019531 637.683594 720.066406 638.34375 718.082031 638.910156 C 716.097656 639.480469 714.09375 639.960938 712.0625 640.34375 C 710.035156 640.726562 707.996094 641.019531 705.941406 641.214844 C 703.886719 641.410156 701.828125 641.511719 699.761719 641.515625 Z M 871.644531 546.957031 C 871.417969 547.347656 871.140625 547.699219 870.8125 548.007812 C 870.484375 548.316406 870.117188 548.574219 869.714844 548.777344 C 869.3125 548.980469 868.886719 549.121094 868.441406 549.199219 C 868 549.28125 867.550781 549.296875 867.105469 549.246094 C 857.207031 549.589844 828.882812 549.964844 784.925781 550.308594 C 784.550781 548.949219 784.0625 547.644531 783.621094 546.304688 C 783.328125 545.4375 783.082031 544.539062 782.753906 543.691406 C 782.003906 541.667969 781.121094 539.707031 780.289062 537.761719 C 780.140625 537.4375 780.027344 537.09375 779.863281 536.765625 C 778.800781 534.511719 777.640625 532.308594 776.417969 530.230469 C 776.027344 529.5625 775.585938 528.941406 775.175781 528.273438 C 774.292969 526.835938 773.394531 525.398438 772.433594 524.007812 C 771.875 523.226562 771.289062 522.472656 770.71875 521.707031 C 769.820312 520.511719 768.921875 519.304688 767.972656 518.160156 C 767.320312 517.359375 766.617188 516.609375 765.929688 515.84375 C 764.984375 514.78125 764.035156 513.71875 763.054688 512.707031 C 762.304688 511.953125 761.539062 511.234375 760.769531 510.515625 C 759.773438 509.554688 758.742188 508.605469 757.699219 507.691406 C 756.652344 506.777344 756.066406 506.320312 755.214844 505.648438 C 754.367188 504.980469 753.058594 504.015625 751.949219 503.132812 C 750.839844 502.253906 750.183594 501.894531 749.285156 501.289062 C 748.386719 500.683594 747 499.785156 745.839844 499.066406 C 744.679688 498.347656 743.976562 497.957031 743.015625 497.433594 C 742.050781 496.910156 740.597656 496.144531 739.371094 495.523438 C 738.390625 495.03125 737.429688 494.558594 736.433594 494.117188 C 735.15625 493.53125 733.867188 493.007812 732.5625 492.484375 C 731.566406 492.09375 730.585938 491.683594 729.554688 491.324219 C 728.214844 490.851562 726.828125 490.425781 725.457031 490.019531 C 724.441406 489.707031 723.445312 489.382812 722.433594 489.121094 C 720.964844 488.726562 719.476562 488.433594 717.992188 488.125 C 717.011719 487.910156 716.046875 487.683594 715.066406 487.503906 C 713.433594 487.226562 711.703125 487.027344 710.019531 486.832031 C 709.171875 486.734375 708.386719 486.589844 707.503906 486.523438 C 704.957031 486.292969 702.375 486.164062 699.761719 486.164062 C 694.519531 486.164062 689.316406 486.625 684.152344 487.550781 C 678.992188 488.476562 673.953125 489.851562 669.035156 491.671875 C 664.117188 493.496094 659.402344 495.734375 654.882812 498.398438 C 650.363281 501.058594 646.113281 504.09375 642.136719 507.511719 C 640.273438 509.144531 638.527344 510.777344 636.8125 512.410156 C 636.273438 512.949219 635.765625 513.539062 635.179688 514.046875 C 634.050781 515.253906 632.941406 516.460938 631.910156 517.738281 C 631.324219 518.421875 630.769531 519.140625 630.277344 519.84375 C 629.332031 521.054688 628.414062 522.261719 627.535156 523.503906 C 626.996094 524.269531 626.472656 525.023438 625.898438 525.804688 C 625.050781 527.078125 624.265625 528.386719 623.464844 529.726562 C 623.027344 530.476562 622.566406 531.230469 622.144531 531.996094 C 621.308594 533.5 620.511719 535.050781 619.808594 536.601562 C 619.515625 537.222656 619.1875 537.8125 618.910156 538.449219 C 617.929688 540.636719 617.03125 542.859375 616.230469 545.128906 C 616.101562 545.503906 616 545.898438 615.871094 546.273438 C 615.316406 547.90625 614.777344 549.539062 614.320312 551.171875 C 501.617188 551.695312 372.578125 552.121094 280.175781 552.382812 C 279.769531 550.746094 279.261719 549.113281 278.753906 547.613281 C 278.609375 547.136719 278.492188 546.679688 278.347656 546.222656 C 277.5625 543.921875 276.714844 541.648438 275.734375 539.429688 C 275.457031 538.808594 275.144531 538.21875 274.867188 537.617188 C 274.132812 535.980469 273.382812 534.347656 272.546875 532.878906 C 272.140625 532.09375 271.683594 531.328125 271.242188 530.558594 C 270.457031 529.203125 269.609375 527.878906 268.824219 526.574219 C 268.324219 525.777344 267.777344 524.996094 267.191406 524.222656 C 266.308594 522.964844 265.410156 521.722656 264.460938 520.515625 C 263.90625 519.777344 263.351562 519.042969 262.828125 518.324219 C 261.742188 517.050781 260.652344 515.808594 259.5625 514.601562 C 259.023438 514.011719 258.515625 513.410156 257.929688 512.835938 C 256.296875 511.074219 254.464844 509.375 252.605469 507.742188 C 250.605469 506 248.535156 504.351562 246.386719 502.796875 C 244.238281 501.238281 242.027344 499.785156 239.75 498.425781 C 237.472656 497.070312 235.140625 495.820312 232.75 494.671875 C 230.359375 493.523438 227.921875 492.488281 225.441406 491.558594 C 222.957031 490.628906 220.4375 489.816406 217.882812 489.113281 C 215.324219 488.410156 212.742188 487.824219 210.132812 487.355469 C 207.523438 486.886719 204.898438 486.53125 202.257812 486.296875 C 199.617188 486.0625 196.972656 485.949219 194.320312 485.953125 C 191.671875 485.957031 189.027344 486.078125 186.386719 486.320312 C 183.746094 486.558594 181.121094 486.917969 178.515625 487.394531 C 175.90625 487.871094 173.324219 488.464844 170.769531 489.171875 C 168.214844 489.878906 165.699219 490.703125 163.21875 491.636719 C 160.738281 492.570312 158.304688 493.617188 155.917969 494.769531 C 153.53125 495.921875 151.199219 497.179688 148.925781 498.542969 C 146.652344 499.902344 144.441406 501.367188 142.300781 502.925781 C 140.15625 504.488281 138.089844 506.140625 136.09375 507.886719 C 134.230469 509.519531 132.46875 511.15625 130.753906 513.015625 C 130.199219 513.589844 129.691406 514.191406 129.121094 514.78125 C 127.992188 516.003906 126.882812 517.261719 125.851562 518.539062 C 125.265625 519.257812 124.710938 520.007812 124.136719 520.742188 C 123.207031 521.96875 122.292969 523.191406 121.425781 524.464844 C 120.886719 525.25 120.363281 526.101562 119.792969 526.851562 C 118.960938 528.15625 118.160156 529.480469 117.425781 530.820312 C 116.96875 531.605469 116.511719 532.453125 116.085938 533.1875 C 115.289062 534.722656 114.539062 536.277344 113.832031 537.84375 C 113.539062 538.496094 113.195312 539.132812 112.917969 539.789062 C 111.96875 542.027344 111.101562 544.28125 110.335938 546.582031 C 110.1875 547.054688 110.074219 547.546875 109.925781 548.019531 C 109.421875 549.652344 108.914062 551.285156 108.507812 552.820312 L 77.683594 552.902344 L 24.617188 542.566406 L 53.902344 399.347656 L 134.527344 390.609375 L 137.207031 388.078125 C 168.597656 358.039062 282.203125 260.070312 426.316406 260.070312 C 516.445312 260.070312 601.628906 299.105469 679.492188 376.039062 L 681.484375 378 L 684.179688 378.75 C 734.570312 392.816406 826.171875 424.992188 847.519531 432.523438 C 850.882812 440.804688 858.382812 459.929688 864.589844 480.804688 C 879.078125 529.660156 873.667969 543.789062 871.644531 546.957031 Z M 871.644531 546.957031 "/></g></svg>