<svg xmlns="http://www.w3.org/2000/svg" xmlns:xlink="http://www.w3.org/1999/xlink" width="1200" zoomAndPan="magnify" viewBox="0 0 900 899.99999" height="1200" preserveAspectRatio="xMidYMid meet" version="1.2"><defs><clipPath id="945a490d75"><path d="M 306 496 L 737 496 L 737 691.863281 L 306 691.863281 Z M 306 496 "/></clipPath></defs><g id="ea9ea55c29"><path style=" stroke:none;fill-rule:nonzero;fill:#113c7b;fill-opacity:1;" d="M 173.976562 629.875 C 170.78125 629.875 167.667969 628.398438 165.667969 625.601562 C 162.394531 621.011719 163.433594 614.621094 168.027344 611.347656 L 238.109375 561.308594 C 247.015625 548.25 305.675781 466.308594 368.214844 466.308594 C 421.246094 466.308594 458.703125 501.328125 466.371094 509.074219 L 522.71875 537.269531 C 533.339844 534.671875 563.609375 527.644531 582.898438 527.644531 C 613.765625 527.644531 622.871094 553.960938 623.269531 555.078125 C 624.75 559.511719 623.03125 564.382812 619.078125 566.941406 C 612.289062 571.292969 551.789062 609.429688 521.558594 609.429688 C 498.796875 609.429688 442.769531 590.582031 436.460938 588.464844 C 431.148438 586.628906 428.273438 580.835938 430.109375 575.484375 C 431.90625 570.132812 437.699219 567.257812 443.089844 569.097656 C 459.34375 574.605469 505.148438 588.984375 521.558594 588.984375 C 537.851562 588.984375 574.949219 569.855469 599.667969 554.921875 C 596.476562 551.527344 591.203125 548.089844 582.898438 548.089844 C 562.292969 548.089844 524.515625 557.875 524.15625 557.996094 C 521.757812 558.632812 519.203125 558.355469 516.96875 557.234375 L 455.628906 526.566406 C 454.550781 526.007812 453.511719 525.25 452.671875 524.332031 C 452.355469 523.972656 417.371094 486.753906 368.214844 486.753906 C 312.585938 486.753906 254.640625 573.289062 254.082031 574.167969 C 253.363281 575.207031 252.484375 576.125 251.488281 576.882812 L 179.925781 628 C 178.128906 629.277344 176.050781 629.875 173.976562 629.875 "/><g clip-rule="nonzero" clip-path="url(#945a490d75)"><path style=" stroke:none;fill-rule:nonzero;fill:#113c7b;fill-opacity:1;" d="M 317.097656 691.214844 C 315.300781 691.214844 313.503906 690.734375 311.867188 689.777344 C 307.035156 686.902344 305.4375 680.632812 308.3125 675.800781 C 309.671875 673.484375 342.058594 619.652344 388.660156 619.652344 C 404.792969 619.652344 429.3125 624.324219 455.308594 629.277344 C 483.261719 634.585938 512.175781 640.097656 531.78125 640.097656 C 550.671875 640.097656 612.367188 610.429688 647.949219 591.101562 L 711.285156 518.738281 C 709.605469 517.980469 707.652344 517.421875 705.574219 517.421875 C 694.511719 517.421875 674.1875 532.4375 657.894531 544.457031 C 637.648438 559.390625 624.707031 568.539062 613.566406 568.539062 C 607.9375 568.539062 603.34375 563.945312 603.34375 558.3125 C 603.34375 552.683594 607.9375 548.089844 613.566406 548.089844 C 618.636719 548.011719 634.972656 535.992188 645.753906 528.003906 C 666.398438 512.75 687.804688 496.976562 705.574219 496.976562 C 722.386719 496.976562 732.890625 509.636719 734.046875 511.074219 C 737.082031 514.945312 736.960938 520.457031 733.726562 524.171875 L 662.167969 605.957031 C 661.367188 606.832031 660.410156 607.59375 659.332031 608.191406 C 649.546875 613.542969 562.492188 660.542969 531.78125 660.542969 C 510.21875 660.542969 480.347656 654.875 451.476562 649.363281 C 426.476562 644.609375 402.835938 640.097656 388.660156 640.097656 C 353.757812 640.097656 326.164062 685.742188 325.882812 686.222656 C 323.96875 689.417969 320.574219 691.214844 317.097656 691.214844 "/></g><path style=" stroke:none;fill-rule:nonzero;fill:#113c7b;fill-opacity:1;" d="M 613.566406 563.785156 C 611.929688 563.785156 610.253906 563.386719 608.695312 562.546875 C 603.742188 559.871094 601.867188 553.640625 604.582031 548.691406 L 635.25 492.105469 C 653.261719 464.871094 664.324219 456.082031 695.351562 456.082031 C 698.425781 456.082031 701.300781 457.480469 703.257812 459.835938 C 705.214844 462.195312 705.972656 465.308594 705.375 468.304688 L 695.949219 515.34375 C 694.871094 520.855469 689.480469 524.449219 683.929688 523.371094 C 678.417969 522.253906 674.824219 516.863281 675.902344 511.3125 L 682.773438 477.207031 C 670.3125 478.925781 664.5625 484.796875 652.78125 502.605469 L 622.550781 558.433594 C 620.714844 561.867188 617.160156 563.785156 613.566406 563.785156 "/><path style=" stroke:none;fill-rule:nonzero;fill:#113c7b;fill-opacity:1;" d="M 439.773438 180.0625 C 405.074219 180.0625 368.214844 208.253906 368.214844 260.449219 C 368.214844 321.625 442.570312 408.800781 542.003906 464.828125 C 641.402344 408.800781 715.796875 321.625 715.796875 260.449219 C 715.796875 208.253906 678.9375 180.0625 644.234375 180.0625 C 601.464844 180.0625 566.285156 227.023438 551.710938 270.671875 C 550.3125 274.824219 546.398438 277.660156 542.003906 277.660156 C 537.613281 277.660156 533.699219 274.824219 532.300781 270.671875 C 517.726562 227.023438 482.503906 180.0625 439.773438 180.0625 Z M 542.003906 486.753906 C 540.328125 486.753906 538.609375 486.355469 537.09375 485.515625 C 427.394531 425.296875 347.765625 330.652344 347.765625 260.449219 C 347.765625 194.957031 395.167969 159.617188 439.773438 159.617188 C 484.742188 159.617188 521.28125 197.191406 542.003906 240.320312 C 562.730469 197.191406 599.230469 159.617188 644.234375 159.617188 C 688.84375 159.617188 736.242188 194.957031 736.242188 260.449219 C 736.242188 330.652344 656.617188 425.296875 546.917969 485.515625 C 545.398438 486.355469 543.683594 486.753906 542.003906 486.753906 "/></g></svg>