<svg width="54" height="54" viewBox="0 0 54 54" fill="none" xmlns="http://www.w3.org/2000/svg">
<g id="CirclesThreePlus">
<path id="Vector" d="M16.875 8.4375C15.2062 8.4375 13.5749 8.93235 12.1874 9.85948C10.7998 10.7866 9.71838 12.1044 9.07977 13.6461C8.44116 15.1879 8.27407 16.8844 8.59963 18.5211C8.92519 20.1578 9.72878 21.6612 10.9088 22.8412C12.0888 24.0212 13.5922 24.8248 15.2289 25.1504C16.8656 25.4759 18.5621 25.3089 20.1039 24.6702C21.6456 24.0316 22.9634 22.9502 23.8905 21.5626C24.8176 20.1751 25.3125 18.5438 25.3125 16.875C25.3125 14.6372 24.4236 12.4911 22.8412 10.9088C21.2589 9.32645 19.1128 8.4375 16.875 8.4375ZM16.875 21.9375C15.8737 21.9375 14.895 21.6406 14.0624 21.0843C13.2299 20.528 12.581 19.7374 12.1979 18.8123C11.8147 17.8873 11.7144 16.8694 11.9098 15.8874C12.1051 14.9053 12.5873 14.0033 13.2953 13.2953C14.0033 12.5873 14.9053 12.1051 15.8874 11.9098C16.8694 11.7144 17.8873 11.8147 18.8123 12.1979C19.7374 12.581 20.528 13.2299 21.0843 14.0624C21.6406 14.895 21.9375 15.8737 21.9375 16.875C21.9375 18.2177 21.4041 19.5053 20.4547 20.4547C19.5053 21.4041 18.2177 21.9375 16.875 21.9375ZM37.125 25.3125C38.7938 25.3125 40.4251 24.8176 41.8126 23.8905C43.2002 22.9634 44.2816 21.6456 44.9202 20.1039C45.5588 18.5621 45.7259 16.8656 45.4004 15.2289C45.0748 13.5922 44.2712 12.0888 43.0912 10.9088C41.9112 9.72878 40.4078 8.92519 38.7711 8.59963C37.1344 8.27407 35.4379 8.44116 33.8961 9.07977C32.3544 9.71838 31.0366 10.7998 30.1095 12.1874C29.1824 13.5749 28.6875 15.2062 28.6875 16.875C28.6875 19.1128 29.5765 21.2589 31.1588 22.8412C32.7411 24.4236 34.8872 25.3125 37.125 25.3125ZM37.125 11.8125C38.1263 11.8125 39.1051 12.1094 39.9376 12.6657C40.7701 13.222 41.419 14.0126 41.8021 14.9377C42.1853 15.8627 42.2856 16.8806 42.0902 17.8626C41.8949 18.8447 41.4127 19.7467 40.7047 20.4547C39.9967 21.1627 39.0947 21.6449 38.1126 21.8402C37.1306 22.0356 36.1127 21.9353 35.1877 21.5521C34.2626 21.169 33.472 20.5201 32.9157 19.6876C32.3594 18.8551 32.0625 17.8763 32.0625 16.875C32.0625 15.5323 32.5959 14.2447 33.5453 13.2953C34.4947 12.3459 35.7823 11.8125 37.125 11.8125ZM16.875 28.6875C15.2062 28.6875 13.5749 29.1824 12.1874 30.1095C10.7998 31.0366 9.71838 32.3544 9.07977 33.8961C8.44116 35.4379 8.27407 37.1344 8.59963 38.7711C8.92519 40.4078 9.72878 41.9112 10.9088 43.0912C12.0888 44.2712 13.5922 45.0748 15.2289 45.4004C16.8656 45.7259 18.5621 45.5588 20.1039 44.9202C21.6456 44.2816 22.9634 43.2002 23.8905 41.8126C24.8176 40.4251 25.3125 38.7938 25.3125 37.125C25.3125 34.8872 24.4236 32.7411 22.8412 31.1588C21.2589 29.5765 19.1128 28.6875 16.875 28.6875ZM16.875 42.1875C15.8737 42.1875 14.895 41.8906 14.0624 41.3343C13.2299 40.778 12.581 39.9874 12.1979 39.0623C11.8147 38.1373 11.7144 37.1194 11.9098 36.1374C12.1051 35.1553 12.5873 34.2533 13.2953 33.5453C14.0033 32.8373 14.9053 32.3551 15.8874 32.1598C16.8694 31.9644 17.8873 32.0647 18.8123 32.4479C19.7374 32.831 20.528 33.4799 21.0843 34.3124C21.6406 35.145 21.9375 36.1237 21.9375 37.125C21.9375 38.4677 21.4041 39.7553 20.4547 40.7047C19.5053 41.6541 18.2177 42.1875 16.875 42.1875ZM45.5625 37.125C45.5625 37.5726 45.3847 38.0018 45.0682 38.3182C44.7518 38.6347 44.3226 38.8125 43.875 38.8125H38.8125V43.875C38.8125 44.3226 38.6347 44.7518 38.3182 45.0682C38.0018 45.3847 37.5726 45.5625 37.125 45.5625C36.6774 45.5625 36.2482 45.3847 35.9318 45.0682C35.6153 44.7518 35.4375 44.3226 35.4375 43.875V38.8125H30.375C29.9274 38.8125 29.4982 38.6347 29.1818 38.3182C28.8653 38.0018 28.6875 37.5726 28.6875 37.125C28.6875 36.6774 28.8653 36.2482 29.1818 35.9318C29.4982 35.6153 29.9274 35.4375 30.375 35.4375H35.4375V30.375C35.4375 29.9274 35.6153 29.4982 35.9318 29.1818C36.2482 28.8653 36.6774 28.6875 37.125 28.6875C37.5726 28.6875 38.0018 28.8653 38.3182 29.1818C38.6347 29.4982 38.8125 29.9274 38.8125 30.375V35.4375H43.875C44.3226 35.4375 44.7518 35.6153 45.0682 35.9318C45.3847 36.2482 45.5625 36.6774 45.5625 37.125Z" fill="#113C7B"/>
</g>
</svg>
