<svg viewBox="0 0 17 17" fill="none" xmlns="http://www.w3.org/2000/svg">
<path fill-rule="evenodd" clip-rule="evenodd" d="M2.93625 2.72891C6.01958 -0.239805 10.9257 -0.146894 13.8944 2.93643C16.8632 6.01976 16.7702 10.9259 13.6869 13.8946C10.6036 16.8633 5.69745 16.7704 2.72873 13.6871C-0.239985 10.6038 -0.147075 5.69763 2.93625 2.72891ZM3.97664 3.80946C1.49009 6.20359 1.41516 10.1602 3.80928 12.6467C6.20341 15.1333 10.16 15.2082 12.6465 12.8141C15.1331 10.4199 15.208 6.46337 12.8139 3.97682C10.4198 1.49027 6.46319 1.41534 3.97664 3.80946ZM11.3717 9.57201C11.3796 9.15788 11.0502 8.81579 10.6361 8.80795L7.85103 8.75521L7.90377 5.97017C7.91161 5.55603 7.58224 5.21395 7.1681 5.20611C6.75396 5.19826 6.41188 5.52763 6.40404 5.94177L6.33709 9.47667C6.32925 9.89081 6.65862 10.2329 7.07276 10.2407L10.6077 10.3077C11.0218 10.3155 11.3639 9.98615 11.3717 9.57201Z" fill="#3C4858"/>
</svg>
