<svg width="134" height="117" viewBox="0 0 134 117" fill="none" xmlns="http://www.w3.org/2000/svg">
<path d="M61.7252 95.902L80.6897 95.8551L69.2291 69.0362L74.415 57.7151L83.5578 70.4558L91.2841 95.8551H110.085L101.012 63.405C100.673 62.2905 100.134 61.2346 99.4201 60.3195L79.683 35.0023L79.6595 35.0141C79.5893 34.8146 79.5074 34.6152 79.4254 34.4275L59.1498 42.7571L51.2479 66.4083C50.7562 67.8748 50.8148 69.4703 51.4001 70.9016L61.7252 95.902Z" fill="white"/>
<path d="M93.9885 53.339C92.0803 54.8289 89.3293 54.4887 87.8426 52.5881C86.3558 50.6759 86.6953 47.9189 88.5918 46.429" fill="#9AE2E0"/>
<path d="M101.305 64.6602C101.234 64.6602 101.164 64.6602 101.094 64.6602C98.6706 64.6602 96.7156 66.6194 96.7156 69.0478C96.7156 71.4763 98.6706 73.4355 101.094 73.4355C101.96 73.4355 102.803 73.1774 103.529 72.6964C103.33 72.2623 101.738 66.1501 101.305 64.6602Z" fill="#9AE2E0"/>
<path d="M88.6971 82.4338C88.1703 82.4338 87.6435 82.5277 87.1519 82.7154C87.7489 84.2171 89.7273 90.8807 89.7858 91.0684C92.1271 90.4701 93.5436 88.0768 92.9466 85.7305C92.4549 83.7947 90.6989 82.4338 88.6971 82.4338Z" fill="#9AE2E0"/>
<path d="M57.8034 51.6614C57.3703 51.3563 56.8786 51.1452 56.3752 51.0161C56.0123 52.5882 53.8583 59.1932 53.7998 59.3926C56.0709 60.2373 58.5878 59.0758 59.4306 56.7999C60.1213 54.9111 59.454 52.7993 57.8034 51.6614Z" fill="#82B1FF"/>
<path d="M82.3873 58.7942C80.1279 58.7942 78.2432 60.5188 78.0325 62.7713C78.2549 62.783 78.4305 62.9707 78.4539 63.1936C78.5827 64.0852 79.3553 64.8243 79.9055 65.5048C80.4557 66.1852 81.0293 66.8187 81.5912 67.4874C83.9677 67.9332 86.2621 66.3729 86.707 63.9914C87.1518 61.6098 85.5949 59.3104 83.2184 58.8646C82.9375 58.8177 82.6682 58.7942 82.3873 58.7942Z" fill="#9AE2E0"/>
<path d="M73.9468 54.2658C76.3649 54.2658 78.3251 52.3014 78.3251 49.8782C78.3251 47.4549 76.3649 45.4905 73.9468 45.4905C71.5288 45.4905 69.5686 47.4549 69.5686 49.8782C69.5686 52.3014 71.5288 54.2658 73.9468 54.2658Z" fill="#9AE2E0"/>
<path d="M57.3235 76.791C59.7416 76.791 61.7018 74.8266 61.7018 72.4033C61.7018 69.9801 59.7416 68.0156 57.3235 68.0156C54.9055 68.0156 52.9453 69.9801 52.9453 72.4033C52.9453 74.8266 54.9055 76.791 57.3235 76.791Z" fill="#82B1FF"/>
<path d="M83.0894 39.5425C83.0894 39.5307 83.0894 39.5307 83.0777 39.519C82.8201 39.2492 80.0925 35.3659 79.3433 34.533C79.3433 34.533 79.3316 34.5213 79.3316 34.5095C78.9921 34.6268 75.7143 35.9995 75.2226 36.281C74.8246 38.6743 76.4401 40.9268 78.8282 41.3257C80.4671 41.5955 82.1294 40.9151 83.1011 39.5542L83.0894 39.5425Z" fill="#9AE2E0"/>
<path d="M75.7846 84.4985C74.7896 86.7041 72.2024 87.6895 70.0016 86.6923C67.8008 85.6951 66.8174 83.1024 67.8125 80.8968C68.7607 78.7969 71.1606 77.7879 73.3145 78.5857" fill="#9AE2E0"/>
<path d="M106.21 82.7388C106.046 82.7153 105.87 82.7036 105.706 82.7036C103.283 82.7036 101.328 84.6628 101.328 87.0913C101.328 89.5198 103.283 91.479 105.706 91.479C106.772 91.479 107.802 91.0918 108.61 90.3762C107.989 89.3321 106.374 83.431 106.21 82.7388Z" fill="#9AE2E0"/>
<path d="M60.5428 5.56721C62.6851 5.56721 63.1299 8.42976 61.5729 9.61467C61.5261 9.64987 61.4793 9.67333 61.4208 9.6968C61.3154 10.4359 61.0579 11.1515 60.6715 11.7968C61.093 11.9141 61.2217 12.4186 61.4442 12.923C61.69 13.4627 61.2452 14.2487 62.0295 14.237C62.7319 14.2253 75.1291 12.9934 75.9602 13.0052C76.5104 13.0169 77.4703 12.8644 78.0088 12.9348C75.8197 11.656 73.338 10.9756 70.8094 10.9756C70.1889 8.06608 68.2222 5.32084 65.2488 3.23259C62.3456 1.19126 59.0795 0.00634766 55.509 0.00634766C53.6359 0.00634766 58.8453 2.37617 60.5428 5.56721Z" fill="#0782D0"/>
<path d="M49.8898 28.2212C50.4283 26.6843 51.4 25.3117 52.1258 23.8687C52.9686 22.191 53.6944 20.4782 54.6661 18.8709C54.9002 18.4838 55.1461 18.1084 55.427 17.7447C55.6143 17.5101 55.8367 17.2989 55.9772 17.0408C56.2699 16.5011 55.6846 15.9849 55.6846 15.4101C55.6728 15.105 55.7548 14.7883 55.9304 14.5302C55.5324 14.5536 55.1461 14.5654 54.748 14.5419C54.1159 14.5185 51.1893 13.709 50.2059 11.0928C50.0303 11.2453 49.8079 11.3391 49.5855 11.3861C49.5152 11.3978 49.445 11.3978 49.3748 11.3861L49.4567 28.186C49.4567 28.3854 49.6089 28.5379 49.8079 28.5379H49.8898C49.8547 28.4441 49.8547 28.3268 49.8898 28.2212Z" fill="#0782D0"/>
<path d="M128.99 115.529C128.99 113.71 127.714 112.138 125.935 111.763L116.757 109.862C115.411 109.581 114.322 108.607 113.889 107.305L110.096 95.8665H91.2954V115.529L98.612 115.646V108.408L105.929 115.646L128.99 115.529Z" fill="white"/>
<path d="M105.929 115.998C105.835 115.998 105.753 115.963 105.683 115.893L98.9635 109.241V115.635C98.9635 115.729 98.9284 115.822 98.8582 115.881C98.7879 115.94 98.6943 115.987 98.6006 115.987L91.2841 115.869C91.0968 115.869 90.9329 115.705 90.9329 115.517V95.8666C90.9329 95.6672 91.085 95.5146 91.2841 95.5146H110.085C110.237 95.5146 110.366 95.6085 110.412 95.761L114.205 107.2C114.603 108.384 115.598 109.264 116.816 109.522L125.994 111.423C127.937 111.834 129.318 113.546 129.33 115.529C129.33 115.729 129.178 115.881 128.979 115.881L105.929 115.998ZM98.6123 108.056C98.706 108.056 98.7879 108.091 98.8582 108.162L106.069 115.294L128.616 115.177C128.452 113.664 127.34 112.42 125.853 112.103L116.675 110.203C115.212 109.898 114.018 108.83 113.55 107.411L109.839 96.2186H91.647V115.177L98.2611 115.283V108.408C98.2611 108.208 98.425 108.056 98.6123 108.056Z" fill="#222433"/>
<path d="M87.4676 74.069C87.3857 74.069 87.3038 74.0455 87.2452 73.9869L83.347 70.7489C83.1948 70.6199 83.1714 70.4087 83.3001 70.2562C83.4289 70.1037 83.6396 70.0802 83.7918 70.2093L87.6901 73.4472C87.8423 73.5763 87.8657 73.7874 87.7369 73.94C87.6784 74.0221 87.573 74.069 87.4676 74.069Z" fill="#222433"/>
<path d="M110.752 98.436C110.553 98.436 110.401 98.2835 110.401 98.084C110.401 97.9902 110.436 97.8963 110.506 97.8377L121.896 86.4226C122.798 85.5193 124.249 85.5193 125.151 86.4226C126.052 87.326 126.052 88.7807 125.151 89.6841C125.022 89.8131 124.87 89.9304 124.706 90.036L110.927 98.389C110.881 98.4242 110.822 98.436 110.752 98.436ZM123.524 86.4461C123.102 86.4461 122.692 86.6103 122.388 86.9154L113.046 96.2773L124.343 89.426C125.104 88.9684 125.35 87.983 124.893 87.2204C124.612 86.7394 124.086 86.4461 123.524 86.4461Z" fill="#222433"/>
<path d="M110.752 98.4359C110.553 98.4359 110.401 98.2834 110.401 98.084C110.401 97.9432 110.483 97.8259 110.6 97.7672L125.163 90.8924C126.321 90.3527 127.691 90.8455 128.23 92.0069C128.534 92.6522 128.522 93.403 128.194 94.0365C127.878 94.67 127.293 95.1158 126.591 95.2566L110.81 98.4359C110.799 98.4359 110.775 98.4359 110.752 98.4359ZM126.146 91.3734C125.912 91.3734 125.678 91.4203 125.467 91.5259L113.526 97.1689L126.462 94.5644C126.942 94.4706 127.352 94.1538 127.574 93.7197C127.972 92.9337 127.668 91.96 126.872 91.5611C126.649 91.4321 126.403 91.3734 126.146 91.3734Z" fill="#222433"/>
<path d="M42.8311 115.564C42.8311 115.564 44.1071 112.174 45.8864 111.798L55.0643 109.898C56.4106 109.616 57.4993 108.642 57.9324 107.34L61.7253 95.9016H80.5259V115.564L73.3733 115.482V108.408L70.9734 115.529L42.8311 115.564Z" fill="white"/>
<path d="M80.5258 115.916L73.3732 115.834C73.1859 115.834 73.022 115.67 73.022 115.482V110.555L71.3011 115.646C71.2543 115.787 71.1138 115.881 70.9733 115.881L42.8309 115.916C42.6319 115.916 42.4797 115.764 42.4797 115.564C42.4797 115.517 42.4914 115.482 42.5031 115.435C42.5617 115.294 43.8728 111.857 45.8161 111.446L54.994 109.546C56.2114 109.288 57.2065 108.408 57.6045 107.223L61.3974 95.7845C61.4442 95.6437 61.5847 95.5381 61.7252 95.5381H80.5258C80.7248 95.5381 80.877 95.6906 80.877 95.89V115.564C80.877 115.764 80.7248 115.916 80.5258 115.916ZM61.9827 96.2537L58.2718 107.446C57.7918 108.865 56.6095 109.933 55.1462 110.238L45.9566 112.15C44.8444 112.385 43.8377 114.156 43.3577 115.224L70.7158 115.189L73.0337 108.302C73.0922 108.115 73.2912 108.021 73.4785 108.079C73.619 108.126 73.7126 108.267 73.7126 108.408V115.13L80.1629 115.201V96.2537H61.9827Z" fill="#222433"/>
<path d="M94.1519 53.5502L100.356 18.918C100.977 15.4102 98.6355 12.0666 95.1236 11.4448C94.5148 11.3393 93.8944 11.3158 93.2856 11.3862L62.1932 14.3661L56.6912 16.7124C56.4804 16.8063 56.457 16.7124 56.1878 17.17L47.326 30.7905L40.6533 29.6174L28.9468 37.4777L46.9045 44.4229C46.9865 44.4581 47.0684 44.4933 47.1387 44.5285C50.2409 46.0067 53.9635 44.6927 55.4386 41.5838C55.5439 41.3609 55.6376 41.138 55.7195 40.9033L58.5642 33.7235C58.8451 34.8028 58.9856 34.5564 58.7866 35.6006C58.0842 37.9235 58.1545 40.4106 58.9856 42.6866L79.472 34.5564C78.5472 32.3157 76.92 30.4269 74.8362 29.195C73.9816 28.5615 72.8344 26.7079 72.8344 26.7079L86.1798 25.171L83.581 40.0117L94.1519 53.5502Z" fill="white"/>
<path d="M94.1521 53.9022C94.0467 53.9022 93.9414 53.8552 93.8711 53.7614L83.3002 40.2112C83.2416 40.1291 83.2182 40.0352 83.2299 39.9296L85.7585 25.5817L73.4433 27.0012C73.8296 27.5643 74.5086 28.5029 75.0354 28.9017C77.1777 30.1805 78.8517 32.1163 79.7999 34.4157C79.8702 34.5917 79.7882 34.8028 79.6126 34.8732C79.6126 34.8732 79.6126 34.8732 79.6009 34.8732L59.1146 43.0033C58.939 43.0737 58.7282 42.9916 58.658 42.8039V42.7922C57.8034 40.4458 57.7215 37.8883 58.4473 35.495C58.5292 35.0844 58.5526 34.9202 58.5175 34.7559L56.0358 40.9972C54.8651 44.4464 51.119 46.2765 47.689 45.1033C47.4432 45.0212 47.2091 44.9274 46.9866 44.81C46.9047 44.7748 46.8345 44.7396 46.7759 44.7162L28.8182 37.8062C28.6426 37.7358 28.5489 37.5363 28.6192 37.3486C28.6426 37.2782 28.6894 37.2196 28.7479 37.1844L40.4544 29.3241C40.5247 29.2772 40.6183 29.2537 40.712 29.2654L47.1622 30.4034L55.8953 16.9823C56.1177 16.6068 56.2348 16.4895 56.4806 16.4191C56.504 16.4074 56.5274 16.4074 56.5625 16.3957L62.0646 14.0493C62.0997 14.0376 62.1348 14.0259 62.1699 14.0259L93.2624 11.046C96.985 10.6236 100.345 13.3219 100.766 17.0527C100.836 17.6979 100.813 18.3431 100.708 18.9884L94.5033 53.6206C94.4799 53.7614 94.3745 53.867 94.2457 53.9022C94.2106 53.9022 94.1872 53.9022 94.1521 53.9022ZM83.9557 39.9179L93.9531 52.7173L100.017 18.8593C100.602 15.5393 98.3781 12.3834 95.0769 11.7968C94.5033 11.6912 93.9179 11.6795 93.3443 11.7382L62.2987 14.718L56.8552 17.0409C56.8084 17.0644 56.7498 17.0761 56.703 17.0996C56.6913 17.0996 56.6913 17.0996 56.6796 17.1113C56.6211 17.1934 56.5625 17.2756 56.5157 17.3577C56.5157 17.3577 56.5157 17.3694 56.504 17.3694L47.6422 30.99C47.5603 31.1073 47.4198 31.166 47.291 31.1425L40.7588 29.9928L29.7313 37.3956L47.0569 44.0944C47.1388 44.1296 47.2208 44.1648 47.3144 44.2117C50.241 45.6078 53.753 44.3642 55.1461 41.4313C55.2397 41.2201 55.3334 41.0089 55.4036 40.7978C55.4036 40.7978 55.4036 40.786 55.4153 40.786L58.26 33.6062C58.3302 33.4302 58.5409 33.3364 58.7165 33.4068C58.8219 33.4537 58.8921 33.5358 58.9273 33.6414C59.0092 33.9347 59.0677 34.1224 59.1263 34.2749C59.2902 34.7442 59.3136 34.9084 59.1614 35.6827C59.1614 35.6944 59.1614 35.7062 59.1497 35.7179C58.5058 37.8531 58.5292 40.1291 59.2316 42.2408L79.039 34.3805C78.1259 32.3509 76.604 30.6498 74.6959 29.5118C74.6842 29.5001 74.6725 29.5001 74.6608 29.4883C73.7594 28.8196 72.6121 26.9895 72.5653 26.9073C72.4599 26.7431 72.5185 26.5202 72.6824 26.4263C72.7292 26.4029 72.776 26.3794 72.8229 26.3794L86.1682 24.8426C86.3556 24.8191 86.5311 24.9599 86.5546 25.1476C86.5546 25.1828 86.5546 25.218 86.5546 25.2532L83.9557 39.9179Z" fill="#222433"/>
<path d="M60.9523 98.7644C60.9289 98.7644 60.9054 98.7644 60.8703 98.7527L45.1602 95.2214C43.9193 94.9398 43.135 93.708 43.4042 92.4644C43.6852 91.2208 44.9144 90.4348 46.1553 90.7047C46.3426 90.7398 46.5182 90.8102 46.6821 90.8924L61.1045 98.0839C61.28 98.1661 61.3503 98.3772 61.2566 98.5532C61.2098 98.694 61.081 98.7644 60.9523 98.7644ZM45.6636 91.3616C44.7739 91.3616 44.0598 92.0773 44.0598 92.9572C44.0598 93.708 44.5866 94.365 45.3124 94.5292L58.2012 97.427L46.3777 91.5259C46.1553 91.4203 45.9094 91.3616 45.6636 91.3616Z" fill="#222433"/>
<path d="M44.7274 100.794C43.4514 100.782 42.4213 99.7381 42.433 98.4594C42.433 98.3773 42.433 98.2951 42.4447 98.2013C42.5969 96.9342 43.7324 96.0309 44.9967 96.1717L60.9877 98.0488C61.175 98.0722 61.3155 98.2482 61.2921 98.4359C61.2687 98.6002 61.1516 98.7292 60.9877 98.7409L45.0201 100.747C44.9264 100.782 44.8328 100.794 44.7274 100.794ZM44.7391 96.8756C43.8494 96.8756 43.1353 97.5912 43.1353 98.4711C43.1353 98.9052 43.3109 99.3158 43.6153 99.6208C43.9665 99.9728 44.4465 100.137 44.9381 100.067L58.0377 98.4124L44.9147 96.8756C44.8679 96.8756 44.8094 96.8756 44.7391 96.8756Z" fill="#222433"/>
<path d="M35.9005 26.0158C35.1864 29.5353 34.285 32.6091 32.9153 32.9141C31.6979 33.1839 31.534 31.3538 31.9788 26.7549C30.7379 31.1074 30.0238 32.2336 28.7595 32.4331C27.4952 32.6325 27.3196 30.1102 28.303 26.7549C27.3196 29.3828 27.1089 29.8756 26.2895 30.1336C25.3061 30.4387 25.1773 28.5733 25.5285 26.7666L25.5402 26.6258C25.7861 24.6666 26.9801 24.2208 27.9518 24.2326C28.5371 24.2443 29.1224 24.127 29.6609 23.8923C30.2345 23.6225 30.8901 23.5639 31.5106 23.7046C32.1895 23.8806 32.8919 23.8806 33.5709 23.7046C34.5308 23.4465 35.6312 23.3996 36.3805 24.2326C37.3404 25.2884 37.0243 27.0365 37.0243 27.0365L39.2368 27.189L37.2819 28.3152L42.6317 25.2415C43.4161 24.784 44.2823 25.7108 43.7672 26.4733L41.6601 29.6175C40.5831 30.4035 37.9842 32.9845 35.7249 34.4861C35.2449 36.4805 33.1495 37.9353 30.7028 37.818C27.9752 37.7006 25.8563 35.6945 25.95 33.3482C25.9851 32.4331 26.6641 30.5208 27.1206 29.5001" fill="white"/>
<path d="M30.9488 38.1815C30.8551 38.1815 30.7732 38.1815 30.6795 38.1698C27.7646 38.0407 25.4818 35.8704 25.5989 33.3363C25.634 32.6441 25.9852 31.4709 26.3481 30.4737C26.0555 30.5559 25.7511 30.4855 25.517 30.286C24.8731 29.7112 24.9199 28.057 25.1775 26.7078L25.1892 26.5905V26.5788C25.4935 24.1151 27.2261 23.8687 27.9519 23.8805C28.4904 23.8922 29.0172 23.7866 29.5089 23.5755C30.1644 23.2704 30.8902 23.2 31.5926 23.3643C32.2131 23.5168 32.8686 23.5168 33.4891 23.3643C34.8704 22.9889 35.9357 23.2 36.6498 23.9978C37.4342 24.8542 37.4693 26.0978 37.4224 26.7196L39.1667 26.8369L42.4562 24.9363C43.0299 24.6079 43.7791 24.8073 44.1069 25.3821C44.341 25.781 44.3176 26.2855 44.06 26.6609L41.9529 29.805C41.9294 29.8402 41.906 29.8637 41.8709 29.8872C41.4846 30.1687 40.8876 30.6966 40.1852 31.3184C38.9677 32.3978 37.4576 33.7352 36.0411 34.6972C35.4558 36.762 33.372 38.1815 30.9488 38.1815ZM27.3549 29.8637C26.9217 30.8844 26.3364 32.5855 26.3013 33.3715C26.2076 35.5184 28.186 37.3603 30.7146 37.4776C32.974 37.5715 34.929 36.2927 35.3738 34.4156C35.3972 34.3335 35.4441 34.2514 35.526 34.2044C36.9308 33.2659 38.476 31.905 39.7169 30.814C40.3959 30.2156 40.9929 29.6877 41.4027 29.3827L43.4864 26.2855C43.6386 26.0509 43.5801 25.7341 43.3459 25.5816C43.182 25.476 42.983 25.4643 42.8074 25.5581L39.4243 27.5056L37.4693 28.6319C37.2937 28.7257 37.083 28.667 36.9893 28.4911C36.8957 28.3268 36.9542 28.1157 37.1181 28.0218L38.078 27.4704L37.0127 27.4C36.8137 27.3883 36.6732 27.2123 36.6849 27.0246C36.6849 27.0129 36.6849 27.0011 36.6849 26.9894C36.6849 26.9777 36.9542 25.3939 36.123 24.4788C35.5962 23.8922 34.7885 23.7514 33.6647 24.0565C32.9272 24.2442 32.1662 24.2442 31.4287 24.0565C30.8902 23.9274 30.3166 23.9861 29.8015 24.2207C29.2045 24.4788 28.5606 24.6079 27.9168 24.5961C27.0973 24.5961 26.1023 24.9598 25.8916 26.6726L25.8799 26.8017C25.8799 26.8134 25.8799 26.8252 25.8799 26.8369C25.5872 28.3503 25.7043 29.5235 25.9969 29.7816C26.0203 29.805 26.0672 29.8402 26.1959 29.805C26.4418 29.7346 26.6642 29.5821 26.8164 29.371C26.8281 29.3358 26.8515 29.3123 26.8749 29.2888C27.1442 28.8665 27.4368 28.1157 27.987 26.6492C28.0573 26.4615 28.2563 26.3793 28.4436 26.438C28.6192 26.5084 28.7128 26.6844 28.6543 26.8721C27.8348 29.676 27.9285 31.4827 28.3616 31.9871C28.4436 32.0927 28.5841 32.1397 28.7128 32.1045C29.7196 31.9402 30.3869 31.119 31.6512 26.6726C31.7097 26.4849 31.897 26.3793 32.0843 26.4263C32.2482 26.4732 32.3535 26.6257 32.3418 26.8017C32.1077 29.195 31.9204 32.0106 32.5057 32.5268C32.5643 32.5737 32.6462 32.6207 32.8569 32.5855C34.2968 32.2687 35.2568 27.5173 35.5728 25.957C35.6079 25.7693 35.7952 25.6402 35.9826 25.6872C36.1699 25.7224 36.2986 25.9101 36.2518 26.0978C35.2919 30.8257 34.3202 32.9726 32.9974 33.2659C32.6579 33.3598 32.295 33.2776 32.0375 33.0547C31.5575 32.6207 31.3585 31.6704 31.4287 29.7112C30.621 31.8698 29.9186 32.6089 28.8182 32.7849C28.4436 32.8553 28.069 32.7145 27.8348 32.4329C27.3783 31.9167 27.2729 30.9665 27.3549 29.8637Z" fill="#222433"/>
<path d="M86.1447 25.7107C86.0042 25.7107 85.8755 25.6169 85.8169 25.4878L84.5058 22.1677C84.4356 21.9917 84.5175 21.7806 84.6931 21.7102C84.8687 21.6398 85.0794 21.7219 85.1497 21.8979C85.1497 21.8979 85.1497 21.8979 85.1497 21.9096L85.9808 24.0096L86.3203 21.6985C86.3437 21.5107 86.5193 21.37 86.7183 21.3934C86.9056 21.4169 87.0461 21.5929 87.0227 21.7923V21.804L86.4959 25.4174C86.4725 25.5699 86.3437 25.699 86.1915 25.7107C86.1681 25.7107 86.1564 25.7107 86.1447 25.7107Z" fill="#222433"/>
<path d="M96.0484 55.9902C96.3527 56.0371 96.6688 56.0723 97.0083 56.1192C100.59 56.5768 110.6 55.2276 110.12 52.8109C109.827 51.3444 107.287 52.2125 102.382 52.588C106.666 51.4969 109.101 48.0595 108.223 46.7925C107.345 45.5254 104.454 48.5757 101.152 49.4321C102.979 47.9187 104.184 44.7394 103.33 43.9064C102.089 42.7098 100.473 44.9271 99.2442 46.288C96.54 49.3031 94.6085 45.3377 92.2321 44.3992C90.8741 43.8595 89.0362 44.364 87.9241 45.5841" fill="white"/>
<path d="M98.659 56.5534C98.0971 56.5534 97.5234 56.5299 96.9615 56.4595C96.622 56.4126 96.306 56.3774 96.0016 56.3304C95.8143 56.307 95.6738 56.131 95.6972 55.9316C95.7206 55.7321 95.8962 55.6031 96.0952 55.6265C96.3996 55.6735 96.7157 55.7087 97.0552 55.7556C100.286 56.1662 107.977 55.1455 109.546 53.4444C109.827 53.1394 109.78 52.9282 109.768 52.8578C109.628 52.1422 108.481 52.2478 105.905 52.5528C104.899 52.6701 103.751 52.8109 102.393 52.9165C102.194 52.9282 102.03 52.7875 102.019 52.588C102.007 52.412 102.112 52.2595 102.288 52.2243C105.238 51.4735 107.345 49.5495 107.907 48.0361C108.083 47.5785 108.083 47.2031 107.919 46.9685C107.603 46.5227 106.526 47.1562 105.261 47.8836C104.126 48.5405 102.709 49.3618 101.223 49.7489C101.035 49.7958 100.848 49.6903 100.79 49.4908C100.754 49.3618 100.801 49.221 100.907 49.1271C102.241 48.0244 103.189 46.0182 103.236 44.8333C103.248 44.4931 103.189 44.2467 103.061 44.1177C102.908 43.9534 102.709 43.8713 102.487 43.8713C101.726 43.9065 100.743 45.0327 99.9467 45.9478C99.7828 46.1355 99.6306 46.3115 99.4784 46.4758C97.383 48.8104 95.627 47.3556 94.0934 46.0534C93.4379 45.502 92.7589 44.9389 92.0799 44.6691C90.8624 44.1763 89.1767 44.6456 88.1582 45.7601C88.0295 45.9009 87.807 45.9126 87.6666 45.7836C87.5261 45.6545 87.5144 45.4316 87.6432 45.2908C88.8606 43.9534 90.839 43.4255 92.3375 44.0238C93.1218 44.3288 93.8359 44.9389 94.5383 45.5137C96.2591 46.9568 97.3947 47.7428 98.9633 45.9948C99.1155 45.8305 99.2677 45.6545 99.4199 45.4668C100.345 44.3992 101.398 43.1909 102.464 43.1557C102.873 43.1439 103.271 43.2964 103.552 43.5897C103.833 43.8596 103.962 44.2819 103.939 44.8333C103.903 45.8305 103.318 47.3439 102.382 48.564C103.248 48.1769 104.091 47.7311 104.91 47.2383C106.537 46.2998 107.813 45.5489 108.492 46.5344C108.797 46.9685 108.808 47.5551 108.551 48.2473C108.094 49.4674 106.772 50.9104 104.863 51.931C105.191 51.8958 105.507 51.8606 105.8 51.8254C107.123 51.6729 108.153 51.5439 108.902 51.6025C109.23 51.626 110.237 51.6964 110.436 52.6936C110.494 52.9869 110.471 53.4327 110.038 53.8902C108.504 55.6265 102.358 56.5534 98.659 56.5534Z" fill="#222433"/>
<path d="M61.7251 96.2538C61.5846 96.2538 61.4558 96.1717 61.3973 96.0309L51.0722 71.0305C50.4517 69.5171 50.3932 67.8395 50.9083 66.2909L58.8101 42.6396C58.8453 42.5458 58.9155 42.4636 59.0092 42.4284L79.2848 34.0989C79.4604 34.0285 79.6594 34.1106 79.7413 34.2866C79.8116 34.4626 79.8818 34.6151 79.9403 34.7676C79.9403 34.7793 79.9521 34.7793 79.9521 34.791L99.6892 60.1082C100.438 61.0585 100.989 62.1496 101.34 63.311L110.412 95.7728C110.459 95.9605 110.354 96.16 110.167 96.2069C110.131 96.2186 110.108 96.2186 110.073 96.2186H91.2839C91.1318 96.2186 90.9913 96.1131 90.9444 95.9723L83.2299 70.6316L74.4734 58.4306L69.6035 69.0596L80.9939 95.7376C81.0759 95.9136 80.9822 96.1248 80.8066 96.1952C80.7598 96.2186 80.713 96.2186 80.6662 96.2186L61.7251 96.2538ZM59.4306 43.0268L51.5872 66.5255C51.119 67.9099 51.1775 69.4233 51.7394 70.7724L61.9709 95.5499L80.1628 95.503L68.9128 69.1769C68.8777 69.083 68.8777 68.9775 68.9128 68.8953L74.0988 57.5742C74.1808 57.3982 74.3915 57.3161 74.5671 57.3982C74.6256 57.4216 74.6724 57.4686 74.7076 57.5155L83.8503 70.2562C83.8737 70.2914 83.8854 70.3266 83.8971 70.3618L91.5415 95.503H109.616L100.673 63.4987C100.345 62.4194 99.8297 61.4222 99.139 60.5306L79.4838 35.319C79.4136 35.272 79.355 35.2134 79.3316 35.1313C79.3082 35.0491 79.2731 34.967 79.238 34.8849L59.4306 43.0268Z" fill="#222433"/>
<path d="M50.0537 11.0109L49.7844 5.21537L52.594 2.98633L57.7917 7.83155C57.7917 6.54106 58.8335 5.49693 60.1213 5.49693C61.409 5.49693 62.4508 6.54106 62.4508 7.83155C62.4274 9.20417 61.2568 9.90808 61.2568 9.90808C61.1982 10.3187 61.0812 10.7058 60.929 11.093C60.8822 11.2103 60.8353 11.3159 60.7768 11.4215L61.7485 13.9907L62.0645 14.8589C62.2167 15.1991 62.287 15.5745 62.287 15.9499C62.287 17.6276 60.929 18.9885 59.255 18.9885C58.0141 18.9885 56.8903 18.2259 56.4337 17.0527L56.2815 16.6304L55.544 14.7298C55.5323 14.7298 55.5206 14.7298 55.5089 14.7298C53.0974 14.7298 50.9434 13.2634 50.0537 11.0109Z" fill="white"/>
<path d="M59.2551 19.3403C57.862 19.3403 56.6094 18.4839 56.106 17.1817L55.9539 16.7476L55.2983 15.0817C52.8165 15.0113 50.6274 13.4627 49.726 11.1515C49.7143 11.1163 49.7026 11.0811 49.7026 11.0342L49.4333 5.2387C49.4333 5.12138 49.4802 5.0158 49.5621 4.94541L52.3717 2.71637C52.5122 2.61078 52.6995 2.61078 52.8282 2.73983L57.5342 7.11579C57.9323 5.68451 59.419 4.83982 60.8472 5.25043C61.3037 5.37948 61.7135 5.62585 62.0412 5.95434C62.5329 6.45881 62.8139 7.13925 62.8022 7.84316C62.7787 9.11019 61.9242 9.87275 61.573 10.1309C61.5027 10.5063 61.3974 10.8817 61.2452 11.2454C61.2218 11.3158 61.1867 11.3862 61.1515 11.4565L62.0647 13.885L62.3807 14.7532C62.5446 15.1403 62.6266 15.5509 62.6266 15.9733C62.6383 17.8152 61.1281 19.3403 59.2551 19.3403ZM55.5441 14.3778C55.6846 14.3778 55.8251 14.4716 55.8719 14.6007L56.6094 16.5012L56.7616 16.9353C57.3001 18.3196 58.8571 18.9883 60.2384 18.4487C61.2569 18.0498 61.9359 17.0526 61.9359 15.9498C61.9359 15.6213 61.8773 15.3046 61.7369 14.9995C61.7369 14.9878 61.7369 14.9878 61.7252 14.9761L61.4091 14.1079L60.4375 11.5504C60.4023 11.4565 60.4023 11.3627 60.4492 11.2688C60.5077 11.1515 60.5545 11.0577 60.5896 10.9521C60.7418 10.6001 60.8355 10.2247 60.894 9.84929C60.9057 9.7437 60.9759 9.66158 61.0579 9.60292C61.093 9.57946 62.0647 8.96941 62.0764 7.81969C62.0881 7.30349 61.8891 6.81076 61.5262 6.43534C60.7652 5.64931 59.5009 5.63758 58.7166 6.40015C58.342 6.77556 58.1196 7.28003 58.1196 7.81969C58.1196 8.01913 57.9674 8.17165 57.7684 8.17165C57.6747 8.17165 57.5928 8.13645 57.5342 8.07779L52.559 3.44374L50.124 5.36775L50.3816 10.9169C51.2244 13.0051 53.2497 14.366 55.4856 14.3543H55.5441V14.3778Z" fill="#222433"/>
<path d="M50.4165 10.7645C49.3629 11.6326 47.8059 11.4801 46.9397 10.4242C46.0734 9.36838 46.2256 7.80805 47.2792 6.9399C48.3327 6.07175 49.8897 6.22426 50.756 7.28012C51.0135 7.59688 51.1891 7.96057 51.2711 8.35945" fill="white"/>
<path d="M48.8479 11.6794C47.2909 11.6794 46.0266 10.4123 46.0266 8.85202C46.0266 7.29169 47.2909 6.02466 48.8479 6.02466C50.1824 6.02466 51.3414 6.9632 51.6106 8.27716C51.6574 8.46487 51.5287 8.65258 51.3414 8.6995C51.1541 8.74643 50.9667 8.61738 50.9199 8.42967V8.41794C50.6858 7.26823 49.562 6.52912 48.4147 6.76376C47.2675 6.9984 46.53 8.12465 46.7641 9.27436C46.9982 10.4241 48.1221 11.1632 49.2693 10.9285C49.6088 10.8582 49.9249 10.7056 50.1941 10.4827C50.3463 10.3537 50.5687 10.3771 50.6858 10.5297C50.8029 10.6822 50.7912 10.9051 50.639 11.0224C50.1356 11.4565 49.5034 11.6794 48.8479 11.6794Z" fill="#222433"/>
<path d="M55.5092 15.0815C55.3101 15.0815 55.158 14.929 55.158 14.7295C55.158 14.5301 55.3101 14.3776 55.5092 14.3776C56.352 14.3658 57.1832 14.1781 57.9441 13.8262C58.1197 13.7441 58.3304 13.8262 58.4124 14.0022C58.4943 14.1781 58.4124 14.3893 58.2368 14.4714C57.3822 14.8586 56.4457 15.0698 55.5092 15.0815Z" fill="#222433"/>
<path d="M52.957 13.275H51.6693C51.4703 13.275 51.3181 13.1224 51.3181 12.923C51.3181 12.7236 51.4703 12.571 51.6693 12.571H52.957C53.156 12.571 53.3082 12.7236 53.3082 12.923C53.3082 13.1224 53.156 13.275 52.957 13.275Z" fill="#222433"/>
<path d="M51.716 11.7616C51.7043 11.7616 51.6926 11.7616 51.6926 11.7616L50.2059 11.6442C50.0069 11.6325 49.8664 11.4565 49.8781 11.2688C49.8781 11.2336 49.8898 11.2102 49.9015 11.175L51.1541 7.65544C51.2244 7.46773 51.4234 7.37388 51.599 7.44427C51.7863 7.51466 51.8799 7.7141 51.8097 7.89008L50.7093 10.9755L51.7395 11.0577C51.9385 11.0694 52.0789 11.2454 52.0672 11.4331C52.0555 11.6208 51.9033 11.7616 51.716 11.7616Z" fill="#222433"/>
<path d="M59.1847 8.6526C58.9857 8.6526 58.8335 8.50009 58.8335 8.30065C58.8335 8.23026 58.8569 8.15987 58.892 8.10121L59.9924 6.50569C60.0978 6.34144 60.3202 6.30625 60.4841 6.41183C60.648 6.51742 60.6831 6.74032 60.5778 6.90457C60.5778 6.90457 60.5778 6.9163 60.5661 6.9163L59.8871 7.89004L60.9992 7.78445C61.1982 7.77272 61.3621 7.9135 61.3855 8.10121C61.3972 8.30065 61.2567 8.46489 61.0694 8.48836L59.2081 8.6526C59.2081 8.6526 59.1964 8.6526 59.1847 8.6526Z" fill="#222433"/>
<path d="M48.8479 10.6001C49.0872 10.6001 49.2811 10.4057 49.2811 10.166C49.2811 9.92628 49.0872 9.73193 48.8479 9.73193C48.6087 9.73193 48.4148 9.92628 48.4148 10.166C48.4148 10.4057 48.6087 10.6001 48.8479 10.6001Z" fill="#222433"/>
<path d="M57.6279 7.42076C58.0844 5.8487 60.2267 4.65206 61.6315 5.83697C61.6666 5.86043 61.69 5.89563 61.7135 5.91909C61.7252 5.8839 61.7252 5.8487 61.7135 5.81351L61.6666 5.48502V5.47328C61.6666 5.46155 61.6666 5.43809 61.6666 5.42636C61.2218 2.01241 58.0962 -0.392606 54.6896 0.0532017C51.8917 0.416887 49.6909 2.63419 49.328 5.43809C49.3046 5.6258 49.4451 5.80177 49.6324 5.82524C49.726 5.83697 49.8197 5.81351 49.8899 5.75485L51.9268 4.14759L54.233 6.17719C55.1695 6.98668 56.3519 7.46769 57.5811 7.51461C57.6162 7.49115 57.6162 7.45595 57.6279 7.42076Z" fill="#0782D0"/>
<path d="M53.9637 11.3275C55.3279 11.3275 56.4338 10.2192 56.4338 8.85211C56.4338 7.48499 55.3279 6.37671 53.9637 6.37671C52.5995 6.37671 51.4937 7.48499 51.4937 8.85211C51.4937 10.2192 52.5995 11.3275 53.9637 11.3275Z" fill="white"/>
<path d="M53.9638 11.6794C52.4069 11.6794 51.1426 10.4123 51.1426 8.85202C51.1426 7.29169 52.4069 6.02466 53.9638 6.02466C55.5208 6.02466 56.7851 7.29169 56.7851 8.85202C56.7851 10.4123 55.5208 11.6794 53.9638 11.6794ZM53.9638 6.72856C52.7932 6.72856 51.845 7.67884 51.845 8.85202C51.845 10.0252 52.7932 10.9755 53.9638 10.9755C55.1345 10.9755 56.0827 10.0252 56.0827 8.85202C56.0827 7.67884 55.1345 6.72856 53.9638 6.72856Z" fill="#222433"/>
<path d="M53.9639 10.6001C54.2031 10.6001 54.397 10.4057 54.397 10.166C54.397 9.92628 54.2031 9.73193 53.9639 9.73193C53.7247 9.73193 53.5308 9.92628 53.5308 10.166C53.5308 10.4057 53.7247 10.6001 53.9639 10.6001Z" fill="#222433"/>
<path d="M60.18 10.518C59.981 10.518 59.8288 10.3654 59.8288 10.166C59.8288 9.96656 59.981 9.81405 60.18 9.81405C61.2805 9.81405 62.1701 8.92243 62.1701 7.81965C62.1701 6.71686 61.2805 5.82524 60.18 5.82524C59.0796 5.82524 58.1899 6.71686 58.1899 7.81965C58.1899 8.01909 58.0378 8.1716 57.8387 8.1716C57.6397 8.1716 57.4875 8.01909 57.4875 7.81965C57.4875 6.32971 58.6933 5.12134 60.18 5.12134C61.6668 5.12134 62.8725 6.32971 62.8725 7.81965C62.8725 9.30958 61.6551 10.518 60.18 10.518Z" fill="#222433"/>
<path d="M71.2598 63.5195L63.4115 45.9431V28.3547H36.8826C36.0654 31.6014 35.2001 33.1355 34.0931 33.3816C33.9959 33.4037 33.8966 33.4151 33.7969 33.4155C33.5476 33.4198 33.3057 33.3305 33.1188 33.1653C32.6288 32.7312 32.4333 31.7698 32.5008 29.7966C31.6936 31.9776 30.9879 32.7263 29.8754 32.9016C29.6924 32.9357 29.5037 32.9208 29.3284 32.8583C29.153 32.7959 28.9974 32.6881 28.8772 32.5459C28.4203 32.0258 28.3092 31.0342 28.4003 29.8951C28.1651 30.2254 27.8234 30.4646 27.4326 30.5728C27.2831 30.6261 27.122 30.6382 26.9662 30.6078C26.8104 30.5775 26.6657 30.5058 26.5471 30.4003C26.1359 30.0313 26.0034 29.235 26.027 28.3554H13.355V45.9431L21.2033 63.5195L13.355 81.1079L21.2033 98.6962L13.355 116.273H63.4115L71.2598 98.6962L63.4115 81.1079L71.2598 63.5195Z" fill="white"/>
<path d="M63.4111 116.627H13.3546C13.2955 116.627 13.2373 116.612 13.1853 116.584C13.1334 116.556 13.0893 116.515 13.0571 116.465C13.0249 116.416 13.0057 116.359 13.0011 116.3C12.9965 116.241 13.0068 116.182 13.0309 116.128L20.8146 98.696L13.0308 81.2522C13.0105 81.2067 13 81.1575 13 81.1077C13 81.0579 13.0105 81.0086 13.0308 80.9632L20.8146 63.5194L13.0309 46.0875C13.0106 46.042 13.0001 45.9927 13 45.9429V28.3546C13 28.2606 13.0374 28.1704 13.1039 28.1039C13.1704 28.0374 13.2606 28 13.3546 28H26.0269C26.0743 28 26.1212 28.0095 26.1649 28.0279C26.2085 28.0463 26.2481 28.0733 26.2811 28.1073C26.3142 28.1412 26.3401 28.1815 26.3573 28.2256C26.3746 28.2698 26.3828 28.3169 26.3815 28.3643C26.3579 29.239 26.5041 29.8852 26.7834 30.1359C26.8563 30.2005 26.9456 30.2438 27.0415 30.261C27.1374 30.2783 27.2362 30.2687 27.3271 30.2335C27.6457 30.1479 27.9243 29.9534 28.1144 29.6837C28.1603 29.6218 28.225 29.5766 28.2988 29.5548C28.3727 29.533 28.4516 29.5359 28.5237 29.5629C28.5958 29.5899 28.6571 29.6397 28.6984 29.7047C28.7397 29.7696 28.7587 29.8463 28.7527 29.923C28.6608 31.0722 28.7992 31.9206 29.1427 32.3115C29.2233 32.4089 29.3288 32.4826 29.448 32.5247C29.5672 32.5668 29.6956 32.5758 29.8195 32.5507C30.6823 32.4149 31.3431 31.9006 32.1672 29.673C32.1965 29.594 32.2529 29.5279 32.3264 29.4867C32.3999 29.4455 32.4856 29.4318 32.5683 29.4481C32.651 29.4644 32.7252 29.5095 32.7776 29.5755C32.8299 29.6415 32.8571 29.724 32.8542 29.8082C32.7931 31.5867 32.9469 32.54 33.353 32.8997C33.4437 32.975 33.5517 33.0269 33.6672 33.0505C33.7828 33.0742 33.9024 33.069 34.0155 33.0354C34.9712 32.8226 35.7729 31.308 36.5381 28.2681C36.5573 28.1914 36.6017 28.1234 36.6641 28.0748C36.7264 28.0263 36.8032 27.9999 36.8822 28H63.4111C63.5052 28 63.5954 28.0374 63.6619 28.1039C63.7284 28.1704 63.7657 28.2606 63.7657 28.3546V45.8673L71.5832 63.3747C71.6035 63.4202 71.614 63.4695 71.614 63.5194C71.614 63.5692 71.6035 63.6185 71.5832 63.664L63.7994 81.1077L71.5833 98.5515C71.6036 98.597 71.6141 98.6462 71.6141 98.696C71.6141 98.7459 71.6036 98.7951 71.5833 98.8406L63.735 116.417C63.7071 116.48 63.6616 116.533 63.6041 116.57C63.5467 116.607 63.4796 116.627 63.4111 116.627ZM13.9013 115.918H63.1811L70.8711 98.696L63.0873 81.2522C63.067 81.2067 63.0565 81.1575 63.0565 81.1077C63.0565 81.0579 63.067 81.0086 63.0873 80.9632L70.8711 63.5194L63.0874 46.0875C63.0671 46.042 63.0566 45.9927 63.0565 45.9429V28.7092H37.1575C36.3164 31.9447 35.417 33.4503 34.1694 33.7277C34.0469 33.7553 33.9218 33.7694 33.7962 33.77C33.4602 33.7742 33.1347 33.6533 32.8829 33.4306C32.4744 33.0688 32.2457 32.4568 32.1656 31.4399C31.5493 32.5798 30.8748 33.1026 29.9298 33.2514C29.6878 33.2945 29.4387 33.2736 29.2073 33.1908C28.9758 33.108 28.77 32.9663 28.6101 32.7796C28.2306 32.3472 28.0319 31.6524 28.0165 30.7083C27.8645 30.7921 27.7043 30.8599 27.5383 30.9106C27.3299 30.9819 27.1063 30.9966 26.8903 30.9532C26.6743 30.9098 26.4738 30.8099 26.309 30.6637C25.9058 30.3018 25.6916 29.6452 25.6708 28.7092H13.7092V45.8673L21.5267 63.3747C21.547 63.4202 21.5575 63.4695 21.5575 63.5194C21.5575 63.5692 21.547 63.6185 21.5267 63.664L13.7429 81.1077L21.5268 98.5515C21.5471 98.597 21.5576 98.6462 21.5576 98.696C21.5576 98.7459 21.5471 98.7951 21.5268 98.8406L13.9013 115.918Z" fill="#222433"/>
<path d="M63.4113 46.1794H13.3548C13.2608 46.1794 13.1706 46.1421 13.1041 46.0756C13.0376 46.0091 13.0002 45.9189 13.0002 45.8248C13.0002 45.7308 13.0376 45.6406 13.1041 45.5741C13.1706 45.5076 13.2608 45.4702 13.3548 45.4702H63.4113C63.5054 45.4702 63.5956 45.5076 63.6621 45.5741C63.7286 45.6406 63.7659 45.7308 63.7659 45.8248C63.7659 45.9189 63.7286 46.0091 63.6621 46.0756C63.5956 46.1421 63.5054 46.1794 63.4113 46.1794Z" fill="#222433"/>
<path d="M63.4113 81.3445H13.3548C13.2608 81.3445 13.1706 81.3071 13.1041 81.2406C13.0376 81.1741 13.0002 81.0839 13.0002 80.9899C13.0002 80.8958 13.0376 80.8056 13.1041 80.7391C13.1706 80.6726 13.2608 80.6353 13.3548 80.6353H63.4113C63.5054 80.6353 63.5956 80.6726 63.6621 80.7391C63.7286 80.8056 63.7659 80.8958 63.7659 80.9899C63.7659 81.0839 63.7286 81.1741 63.6621 81.2406C63.5956 81.3071 63.5054 81.3445 63.4113 81.3445Z" fill="#222433"/>
<path d="M71.2597 63.7678H21.2032C21.1092 63.7678 21.019 63.7304 20.9525 63.6639C20.886 63.5974 20.8486 63.5072 20.8486 63.4132C20.8486 63.3192 20.886 63.229 20.9525 63.1625C21.019 63.096 21.1092 63.0586 21.2032 63.0586H71.2597C71.3538 63.0586 71.444 63.096 71.5105 63.1625C71.577 63.229 71.6143 63.3192 71.6143 63.4132C71.6143 63.5072 71.577 63.5974 71.5105 63.6639C71.444 63.7304 71.3538 63.7678 71.2597 63.7678Z" fill="#222433"/>
<path d="M71.0233 98.9326H21.2032C21.1092 98.9326 21.019 98.8952 20.9525 98.8287C20.886 98.7622 20.8486 98.672 20.8486 98.578C20.8486 98.4839 20.886 98.3938 20.9525 98.3273C21.019 98.2608 21.1092 98.2234 21.2032 98.2234H71.0233C71.1174 98.2234 71.2076 98.2608 71.2741 98.3273C71.3406 98.3938 71.3779 98.4839 71.3779 98.578C71.3779 98.672 71.3406 98.7622 71.2741 98.8287C71.2076 98.8952 71.1174 98.9326 71.0233 98.9326Z" fill="#222433"/>
<path d="M133.753 116.743H0.247172C0.107108 116.743 0 116.582 0 116.372C0 116.161 0.107108 116 0.247172 116H133.753C133.893 116 134 116.161 134 116.372C134 116.582 133.893 116.743 133.753 116.743Z" fill="#222433"/>
</svg>
