<svg viewBox="0 0 428 325" fill="none" xmlns="http://www.w3.org/2000/svg">
<g clip-path="url(#clip0_44062_16794)">
<path d="M213.505 18.4031C218.417 18.4031 222.399 14.4271 222.399 9.52251C222.399 4.61792 218.417 0.641968 213.505 0.641968C208.593 0.641968 204.611 4.61792 204.611 9.52251C204.611 14.4271 208.593 18.4031 213.505 18.4031Z" fill="white"/>
<path d="M213.505 19.045C211.619 19.045 209.775 18.4865 208.207 17.4402C206.638 16.3938 205.416 14.9066 204.694 13.1666C203.972 11.4266 203.784 9.51195 204.152 7.66477C204.519 5.81758 205.428 4.12083 206.761 2.78908C208.095 1.45734 209.794 0.550405 211.644 0.182977C213.494 -0.184452 215.412 0.00412595 217.154 0.724862C218.897 1.4456 220.386 2.66612 221.434 4.23209C222.482 5.79806 223.042 7.63914 223.042 9.52252C223.039 12.0472 222.033 14.4676 220.245 16.2528C218.457 18.038 216.033 19.0421 213.505 19.045ZM213.505 1.28394C211.873 1.28394 210.278 1.76712 208.921 2.67239C207.564 3.57766 206.507 4.86435 205.882 6.36975C205.258 7.87515 205.094 9.53166 205.413 11.1298C205.731 12.7279 206.517 14.1959 207.671 15.3481C208.825 16.5003 210.295 17.2849 211.895 17.6028C213.496 17.9207 215.155 17.7575 216.662 17.134C218.17 16.5104 219.459 15.4545 220.365 14.0996C221.272 12.7448 221.756 11.152 221.756 9.52252C221.753 7.33827 220.883 5.24421 219.336 3.69971C217.79 2.15522 215.692 1.28643 213.505 1.28394Z" fill="#222433"/>
<path d="M214.148 4.62219V5.67074C214.984 5.73483 215.789 6.01506 216.484 6.4839L215.862 7.46825C215.337 7.13231 214.745 6.91335 214.126 6.82628V8.96617C215.391 9.13736 216.548 9.67233 216.527 11.0205C216.505 12.3258 215.455 13.0962 214.126 13.2673V14.3801H213.055V13.2887C212.112 13.2032 211.083 12.8822 210.419 12.3258L211.062 11.3628C211.631 11.8068 212.315 12.0812 213.033 12.1546V10.0147L212.926 9.99332C211.726 9.82213 210.612 9.28715 210.655 7.91762C210.676 6.65509 211.683 5.86333 213.033 5.69214V4.62219H214.148ZM213.076 8.79498V6.84768C212.369 6.97607 211.941 7.33985 211.919 7.87483C211.919 8.3884 212.305 8.64519 213.076 8.79498ZM214.148 10.1645V12.1118C214.834 11.9834 215.305 11.6196 215.327 11.0847C215.327 10.6139 214.898 10.3357 214.148 10.1645Z" fill="#9ABEE3"/>
<path d="M213.505 16.6911C212.085 16.6911 210.697 16.2707 209.516 15.483C208.336 14.6953 207.416 13.5757 206.872 12.2658C206.329 10.9559 206.187 9.51456 206.464 8.12399C206.741 6.73341 207.424 5.45608 208.428 4.45353C209.432 3.45098 210.712 2.76823 212.104 2.49163C213.497 2.21503 214.941 2.35699 216.252 2.89956C217.564 3.44214 218.685 4.36096 219.474 5.53984C220.263 6.71871 220.684 8.10469 220.684 9.52252C220.682 11.4231 219.925 13.2452 218.579 14.5891C217.233 15.933 215.408 16.689 213.505 16.6911ZM213.505 3.63782C212.339 3.63782 211.2 3.98295 210.231 4.62957C209.262 5.27619 208.506 6.19525 208.06 7.27054C207.614 8.34583 207.497 9.52904 207.725 10.6706C207.952 11.8121 208.513 12.8606 209.338 13.6836C210.162 14.5066 211.212 15.0671 212.355 15.2941C213.498 15.5212 214.683 15.4047 215.76 14.9593C216.837 14.5139 217.758 13.7596 218.405 12.7919C219.053 11.8241 219.398 10.6864 219.398 9.52252C219.397 7.96235 218.775 6.46661 217.67 5.36341C216.565 4.26021 215.067 3.63963 213.505 3.63782Z" fill="#222433"/>
</g>
<g clip-path="url(#clip1_44062_16794)">
<path d="M402.268 266.457C402.233 266.462 402.198 266.465 402.162 266.465L8.08227 264.758C7.89964 264.757 7.72468 264.683 7.59588 264.553C7.46707 264.423 7.39497 264.247 7.39544 264.064C7.39591 263.881 7.4689 263.705 7.59837 263.576C7.72783 263.447 7.90317 263.375 8.08579 263.376L402.166 265.083C402.339 265.083 402.507 265.15 402.634 265.268C402.761 265.387 402.839 265.55 402.852 265.724C402.865 265.897 402.812 266.069 402.704 266.206C402.595 266.342 402.44 266.431 402.268 266.457Z" fill="#222433"/>
</g>
<g clip-path="url(#clip2_44062_16794)">
<path d="M370.669 83.1774L370.607 80.2997C370.578 78.9855 371.645 77.8975 372.99 77.8692C373.369 77.8612 373.745 77.9398 374.087 78.0985L381.47 81.515L374.243 85.2335C373.051 85.8463 371.576 85.3993 370.949 84.2349C370.773 83.9083 370.677 83.5463 370.669 83.1774Z" fill="white"/>
<path d="M373.111 86.2341C372.794 86.2341 372.475 86.1875 372.164 86.093C371.353 85.8471 370.688 85.307 370.292 84.5725C370.064 84.149 369.937 83.6718 369.927 83.1934C369.927 83.1931 369.927 83.1929 369.927 83.1929L369.865 80.3152C369.847 79.4864 370.16 78.6999 370.748 78.101C371.335 77.502 372.126 77.1625 372.974 77.1449C373.469 77.1345 373.961 77.2379 374.405 77.444L381.788 80.8598C382.042 80.9775 382.206 81.2251 382.212 81.4996C382.218 81.7741 382.064 82.0283 381.816 82.1563L374.588 85.8748C374.125 86.1133 373.62 86.2341 373.111 86.2341ZM371.411 83.1622C371.416 83.4173 371.484 83.6715 371.606 83.8972C371.817 84.2891 372.171 84.5771 372.604 84.7083C373.037 84.8395 373.496 84.7982 373.897 84.5921L379.811 81.5494L373.769 78.7536C373.532 78.6436 373.272 78.589 373.006 78.5939C372.554 78.6033 372.132 78.7843 371.819 79.1037C371.506 79.4229 371.339 79.8421 371.349 80.284L371.411 83.1622Z" fill="#222433"/>
<path d="M379.776 70.9611L382.722 70.9006C384.068 70.8775 385.18 71.9249 385.203 73.2405C385.21 73.6065 385.13 73.9692 384.97 74.3002L381.47 81.515L377.664 74.4476C377.039 73.2818 377.5 71.8422 378.693 71.2321C379.028 71.0611 379.398 70.9683 379.776 70.9611Z" fill="white"/>
<path d="M381.47 82.2399C381.195 82.2399 380.942 82.091 380.814 81.8525L377.007 74.7852C376.193 73.2656 376.796 71.3844 378.35 70.5899C378.783 70.3681 379.271 70.2458 379.76 70.2364L382.706 70.176C384.462 70.1463 385.914 71.5146 385.945 73.2277C385.954 73.7027 385.849 74.1806 385.641 74.61L382.141 81.8252C382.02 82.0734 381.767 82.2338 381.486 82.2396C381.48 82.2399 381.475 82.2399 381.47 82.2399ZM382.765 71.625C382.755 71.625 382.745 71.625 382.735 71.6252L379.792 71.6857C379.791 71.6857 379.791 71.6857 379.791 71.6857C379.53 71.6907 379.269 71.756 379.038 71.8744C378.209 72.2982 377.888 73.3016 378.321 74.1115L381.436 79.894L384.3 73.99C384.41 73.7617 384.466 73.5067 384.462 73.2533C384.445 72.3494 383.687 71.625 382.765 71.625ZM379.776 70.961H379.778H379.776Z" fill="#222433"/>
</g>
<g clip-path="url(#clip3_44062_16794)">
<path d="M309.963 75.6483C310.392 72.8645 310.211 70.0213 309.432 67.3136C308.654 64.6059 307.297 62.0977 305.454 59.9607C303.612 57.8238 301.326 56.1086 298.756 54.9327C296.185 53.7569 293.389 53.1481 290.56 53.1481C287.731 53.1481 284.935 53.7569 282.364 54.9327C279.793 56.1086 277.508 57.8238 275.665 59.9607C273.823 62.0977 272.466 64.6059 271.687 67.3136C270.909 70.0213 270.728 72.8645 271.157 75.6483C267.194 79.4901 264.473 84.4209 263.341 89.8102C262.208 95.1995 262.716 100.803 264.799 105.903C266.882 111.004 270.446 115.37 275.034 118.444C279.623 121.518 285.029 123.16 290.56 123.16C296.091 123.16 301.497 121.518 306.085 118.444C310.674 115.37 314.238 111.004 316.321 105.903C318.404 100.803 318.912 95.1995 317.779 89.8102C316.647 84.4209 313.925 79.4901 309.963 75.6483Z" fill="white"/>
<path d="M290.559 123.856C284.918 123.858 279.404 122.194 274.714 119.074C270.023 115.955 266.368 111.521 264.21 106.333C262.052 101.145 261.489 95.436 262.592 89.9291C263.694 84.4223 266.413 79.3648 270.403 75.3965C270.282 74.4935 270.221 73.5834 270.221 72.6723C270.239 67.3149 272.39 62.1832 276.202 58.4014C280.014 54.6196 285.177 52.4961 290.559 52.4961C295.94 52.4961 301.103 54.6196 304.915 58.4014C308.727 62.1832 310.878 67.3149 310.896 72.6723C310.896 73.5834 310.835 74.4935 310.713 75.3965C314.704 79.3647 317.423 84.4222 318.525 89.929C319.628 95.4357 319.064 101.144 316.907 106.332C314.749 111.52 311.094 115.954 306.404 119.074C301.713 122.193 296.199 123.858 290.558 123.856H290.559ZM290.559 53.8371C285.543 53.8428 280.733 55.829 277.186 59.3601C273.639 62.8911 271.644 67.6787 271.638 72.6723C271.638 73.633 271.711 74.5922 271.856 75.5419C271.873 75.6527 271.863 75.7659 271.827 75.8722C271.791 75.9784 271.731 76.0746 271.65 76.1528C267.789 79.8968 265.137 84.702 264.033 89.9541C262.929 95.2062 263.424 100.667 265.454 105.637C267.484 110.608 270.957 114.863 275.429 117.859C279.901 120.855 285.169 122.455 290.559 122.455C295.949 122.455 301.217 120.855 305.689 117.859C310.161 114.863 313.634 110.608 315.664 105.637C317.694 100.667 318.189 95.2062 317.085 89.9541C315.982 84.702 313.33 79.8968 309.468 76.1528C309.388 76.0746 309.327 75.9784 309.291 75.8722C309.255 75.7659 309.245 75.6527 309.262 75.5419C309.408 74.5922 309.481 73.633 309.481 72.6723C309.475 67.6786 307.479 62.8911 303.932 59.3601C300.385 55.829 295.576 53.8428 290.559 53.8371Z" fill="#222433"/>
<path d="M195.485 224.88C192.019 229.074 186.691 231.603 179.773 232.249L170.243 232.548C167.212 232.171 164.144 232.877 161.587 234.541C159.03 236.205 157.149 238.718 156.28 241.634L186.348 253.382L208.101 250.374L204.068 260.297L216.514 265.149L225.394 242.563L195.485 224.88Z" fill="white"/>
<path d="M216.514 265.854C216.425 265.854 216.338 265.837 216.256 265.805L203.809 260.953C203.722 260.919 203.643 260.869 203.575 260.804C203.508 260.739 203.454 260.661 203.417 260.576C203.38 260.49 203.361 260.398 203.359 260.305C203.358 260.212 203.376 260.119 203.411 260.033L206.985 251.241L186.445 254.08C186.325 254.097 186.202 254.082 186.089 254.038L156.02 242.29C155.855 242.225 155.72 242.102 155.642 241.943C155.565 241.784 155.549 241.602 155.6 241.433C156.507 238.362 158.48 235.711 161.169 233.954C163.857 232.197 167.085 231.448 170.277 231.841L179.729 231.545C186.442 230.914 191.56 228.521 194.938 224.433C195.046 224.303 195.197 224.215 195.363 224.186C195.53 224.157 195.701 224.188 195.847 224.274L225.756 241.957C225.901 242.042 226.01 242.176 226.064 242.334C226.119 242.492 226.115 242.664 226.054 242.819L217.174 265.406C217.122 265.538 217.031 265.651 216.914 265.731C216.796 265.811 216.657 265.854 216.515 265.854H216.514ZM204.993 259.901L216.113 264.235L224.515 242.863L195.637 225.79C192.011 229.902 186.699 232.31 179.838 232.951C179.824 232.953 179.809 232.954 179.795 232.954L170.266 233.252C170.229 233.253 170.192 233.252 170.156 233.247C167.4 232.896 164.607 233.496 162.242 234.947C159.876 236.398 158.083 238.612 157.159 241.22L186.434 252.658L208.004 249.677C208.127 249.66 208.253 249.675 208.368 249.722C208.483 249.768 208.584 249.844 208.66 249.942C208.737 250.04 208.786 250.156 208.803 250.278C208.82 250.401 208.805 250.526 208.758 250.64L204.993 259.901Z" fill="#222433"/>
<path d="M359.009 236.547C360.407 251.445 367.287 251.613 367.287 251.613C370.249 252.362 372.848 254.133 374.62 256.612C376.393 259.091 377.223 262.115 376.964 265.147H344.658L338.573 254.444L338.689 265.147H325.32L325.346 236.115L359.009 236.547Z" fill="white"/>
<path d="M376.964 265.852H344.658C344.533 265.852 344.41 265.818 344.301 265.756C344.193 265.693 344.104 265.603 344.042 265.494L339.311 257.172L339.397 265.139C339.398 265.232 339.38 265.325 339.345 265.411C339.31 265.498 339.258 265.576 339.192 265.642C339.126 265.709 339.048 265.761 338.962 265.797C338.875 265.833 338.782 265.852 338.689 265.852H325.32C325.132 265.852 324.952 265.777 324.819 265.645C324.686 265.513 324.612 265.334 324.612 265.147L324.638 236.114C324.638 236.021 324.656 235.929 324.693 235.843C324.729 235.757 324.782 235.679 324.849 235.613C324.985 235.484 325.166 235.411 325.355 235.41L359.018 235.843C359.193 235.845 359.361 235.911 359.489 236.03C359.618 236.148 359.698 236.309 359.714 236.482C361.026 250.46 367.249 250.906 367.312 250.909C367.362 250.911 367.412 250.918 367.461 250.93C370.591 251.712 373.338 253.579 375.209 256.196C377.08 258.812 377.953 262.007 377.67 265.207C377.655 265.383 377.574 265.547 377.443 265.666C377.313 265.785 377.142 265.852 376.964 265.852ZM345.071 264.442H376.297C376.393 261.688 375.541 258.984 373.882 256.778C372.223 254.573 369.857 252.997 367.176 252.312C366.281 252.24 359.865 251.233 358.367 237.244L326.054 236.829L326.029 264.442H337.974L337.866 254.452C337.864 254.295 337.915 254.143 338.009 254.018C338.104 253.894 338.238 253.804 338.39 253.763C338.541 253.723 338.702 253.733 338.847 253.794C338.992 253.854 339.113 253.961 339.19 254.097L345.071 264.442Z" fill="#222433"/>
<path d="M358.142 158.203L315.749 120.454L311.853 116.983L307.441 83.1297L301.509 82.3425L300.518 98.9968L282.244 100.51L279.482 83.5996L273.862 84.8026L274.318 124.133H274.33L274.32 124.143L272.205 126.572L262.441 137.789L259.018 141.723L245.835 156.868L242.106 161.14L233.689 170.809L229.967 175.085L195.104 215.135C194.399 215.946 193.882 216.901 193.589 217.933C193.296 218.965 193.234 220.049 193.407 221.107C193.581 222.165 193.986 223.173 194.593 224.059C195.201 224.944 195.997 225.686 196.924 226.232L223.263 241.777C224.769 242.665 226.543 242.989 228.268 242.692C229.992 242.396 231.554 241.497 232.674 240.158L252.869 216.004L256.2 212.01L265.795 200.534L269.128 196.54L298.774 161.072L305.477 167.364L309.924 171.54L318.013 179.136L322.026 182.912V231.629C322.025 232.277 322.152 232.918 322.401 233.516C322.65 234.114 323.015 234.657 323.476 235.114C323.936 235.571 324.483 235.933 325.084 236.179C325.686 236.425 326.33 236.55 326.98 236.547H359.921C361.235 236.547 362.494 236.027 363.422 235.103C364.351 234.178 364.873 232.925 364.873 231.618V173.713C364.872 170.808 364.275 167.933 363.117 165.266C361.959 162.599 360.266 160.195 358.142 158.203Z" fill="white"/>
<path d="M227.023 243.514C225.573 243.513 224.149 243.122 222.903 242.384L196.563 226.839C195.546 226.24 194.674 225.427 194.008 224.456C193.342 223.485 192.898 222.381 192.708 221.22C192.518 220.06 192.586 218.873 192.907 217.741C193.229 216.61 193.796 215.563 194.568 214.674L241.571 160.679L245.3 156.407L273.606 123.887L273.154 84.813C273.152 84.6504 273.206 84.4921 273.308 84.365C273.41 84.2379 273.553 84.1498 273.713 84.1156L279.333 82.9126C279.427 82.8925 279.524 82.8916 279.618 82.91C279.712 82.9284 279.802 82.9656 279.881 83.0195C279.96 83.0734 280.028 83.1428 280.079 83.2235C280.131 83.3041 280.165 83.3944 280.181 83.4887L282.838 99.7536L299.847 98.3438L300.803 82.2996C300.808 82.2027 300.834 82.1081 300.878 82.0216C300.922 81.9351 300.984 81.8586 301.059 81.7968C301.134 81.7351 301.221 81.6894 301.315 81.6627C301.408 81.636 301.507 81.6289 301.603 81.6417L307.535 82.429C307.689 82.4496 307.833 82.5203 307.943 82.6302C308.053 82.7401 308.123 82.883 308.143 83.0369L312.521 116.631L358.614 157.678L358.627 157.69C360.818 159.751 362.565 162.235 363.76 164.989C364.956 167.744 365.576 170.712 365.582 173.713V231.618C365.581 233.112 364.985 234.545 363.923 235.601C362.862 236.658 361.422 237.252 359.921 237.252H326.973C326.231 237.254 325.495 237.11 324.809 236.828C324.122 236.546 323.498 236.132 322.973 235.61C322.447 235.087 322.03 234.467 321.746 233.784C321.462 233.101 321.317 232.369 321.318 231.629V183.216L317.527 179.648L298.836 162.099L269.672 196.991L266.339 200.985L256.744 212.461L253.414 216.455L233.218 240.609C232.464 241.517 231.518 242.248 230.447 242.75C229.376 243.253 228.207 243.513 227.023 243.514ZM274.84 124.622L195.639 215.597C195.002 216.33 194.535 217.193 194.271 218.126C194.006 219.058 193.95 220.038 194.107 220.994C194.264 221.951 194.63 222.861 195.179 223.661C195.728 224.462 196.447 225.132 197.285 225.626L223.624 241.171C224.984 241.979 226.589 242.275 228.149 242.006C229.709 241.738 231.121 240.923 232.13 239.708L252.325 215.554L255.655 211.559L265.251 200.083L268.583 196.088L298.229 160.62C298.291 160.546 298.367 160.486 298.454 160.442C298.54 160.399 298.634 160.373 298.731 160.368C298.827 160.362 298.924 160.376 299.015 160.408C299.106 160.441 299.189 160.492 299.259 160.558L318.499 178.622L322.511 182.399C322.581 182.465 322.637 182.544 322.675 182.632C322.713 182.72 322.733 182.815 322.733 182.911V231.628C322.732 232.183 322.841 232.732 323.054 233.244C323.267 233.756 323.579 234.221 323.974 234.612C324.368 235.004 324.836 235.314 325.35 235.525C325.865 235.736 326.417 235.843 326.974 235.841H359.921C361.047 235.841 362.126 235.396 362.922 234.603C363.718 233.811 364.165 232.736 364.165 231.616V173.713C364.16 170.906 363.58 168.129 362.462 165.552C361.344 162.975 359.711 160.651 357.663 158.723L311.379 117.51C311.253 117.397 311.171 117.243 311.149 117.075L306.808 83.7573L302.17 83.1417L301.224 99.0389C301.214 99.2082 301.143 99.3682 301.024 99.4896C300.905 99.611 300.746 99.6855 300.576 99.6996L282.302 101.213C282.124 101.227 281.948 101.175 281.807 101.066C281.667 100.957 281.573 100.799 281.544 100.623L278.902 84.4448L274.576 85.371L275.025 124.03C275.042 124.136 275.034 124.245 275.003 124.347C274.971 124.45 274.915 124.544 274.841 124.622L274.84 124.622Z" fill="#222433"/>
<path d="M274.098 84.3329L274.238 119.327L261.319 134.354C260.276 135.614 258.981 136.644 257.516 137.378C256.051 138.112 254.448 138.535 252.81 138.619C252.61 138.628 252.409 138.633 252.208 138.633C249.101 138.633 246.119 137.413 243.909 135.238L222.37 114.025C222.176 113.835 224.249 112.796 224.072 112.596C225.948 112.695 231.344 117.737 235.864 110.653C240.705 103.066 235.194 96.915 232.496 94.0648C234.945 94.4439 237.211 95.5837 238.97 97.3214L251.317 109.483L268.857 88.2871C270.933 86.0737 272.028 85.1809 274.098 84.3329Z" fill="#0782D0"/>
<path d="M301.725 81.9362L300.635 99.0461L282.479 100.51L279.328 83.1383L282.947 82.4717C282.947 82.4717 282.998 90.9163 290.915 91.1548C299.164 91.4032 299.089 81.3728 299.089 81.3728L301.725 81.9362Z" fill="#0782D0"/>
<path d="M348.917 149.502C344.357 146.692 312.098 116.981 312.098 116.981L309.259 95.2703L307.763 82.7592C311.162 83.652 312.322 84.641 314.196 87.4211C314.198 87.422 314.2 87.4233 314.201 87.4249C314.202 87.4265 314.203 87.4285 314.203 87.4305L315.346 89.47L348.917 149.502Z" fill="#0782D0"/>
<path d="M246.07 156.868L242.35 161.14C242.716 162.264 242.808 163.458 242.621 164.624C242.434 165.79 241.972 166.896 241.273 167.851C240.575 168.805 239.659 169.582 238.601 170.117C237.543 170.652 236.373 170.93 235.187 170.928C234.763 170.93 234.341 170.893 233.924 170.82L230.202 175.097C232.68 176.153 235.432 176.398 238.06 175.796C240.687 175.194 243.055 173.777 244.82 171.749C246.586 169.72 247.659 167.186 247.883 164.511C248.108 161.837 247.473 159.16 246.07 156.868Z" fill="#0782D0"/>
<path d="M223.073 193.927C220.557 193.926 218.098 194.668 216.006 196.059C213.914 197.45 212.283 199.428 211.32 201.741C210.357 204.055 210.104 206.601 210.595 209.057C211.085 211.513 212.296 213.77 214.075 215.541C215.853 217.312 218.12 218.518 220.587 219.007C223.054 219.496 225.612 219.246 227.936 218.288C230.261 217.33 232.248 215.708 233.646 213.626C235.044 211.544 235.79 209.096 235.791 206.591V206.587C235.791 203.229 234.451 200.009 232.066 197.635C229.681 195.261 226.446 193.927 223.073 193.927ZM223.073 214.07C221.586 214.071 220.133 213.632 218.896 212.81C217.66 211.988 216.696 210.82 216.126 209.453C215.557 208.085 215.407 206.581 215.697 205.129C215.987 203.677 216.702 202.344 217.753 201.297C218.804 200.25 220.144 199.536 221.602 199.247C223.06 198.958 224.572 199.106 225.946 199.672C227.319 200.238 228.494 201.197 229.32 202.427C230.147 203.657 230.588 205.104 230.589 206.584V206.587C230.589 207.569 230.395 208.542 230.017 209.45C229.64 210.358 229.087 211.182 228.389 211.877C227.691 212.572 226.863 213.124 225.951 213.5C225.04 213.876 224.063 214.07 223.076 214.07H223.073Z" fill="#0782D0"/>
<path d="M261.635 193.927C259.065 193.927 256.555 194.702 254.436 196.15C252.317 197.598 250.689 199.652 249.766 202.039C248.842 204.427 248.667 207.037 249.263 209.525C249.859 212.014 251.198 214.264 253.104 215.98L256.435 211.986C255.061 210.675 254.238 208.895 254.131 207.004C254.024 205.113 254.642 203.252 255.859 201.796C257.076 200.34 258.802 199.398 260.69 199.16C262.577 198.921 264.486 199.404 266.03 200.51L269.362 196.516C267.144 194.828 264.427 193.918 261.635 193.927Z" fill="#0782D0"/>
<path d="M271.671 155.501C269.155 155.5 266.696 156.242 264.604 157.633C262.512 159.024 260.881 161.002 259.918 163.315C258.954 165.629 258.702 168.175 259.192 170.631C259.683 173.087 260.894 175.344 262.672 177.115C264.451 178.886 266.717 180.092 269.185 180.581C271.652 181.07 274.21 180.82 276.534 179.862C278.859 178.904 280.845 177.282 282.244 175.2C283.642 173.118 284.388 170.67 284.389 168.165V168.161C284.389 164.803 283.049 161.583 280.664 159.209C278.279 156.835 275.044 155.501 271.671 155.501ZM271.671 175.644C270.184 175.644 268.731 175.205 267.494 174.383C266.258 173.561 265.294 172.392 264.725 171.024C264.156 169.657 264.007 168.152 264.298 166.701C264.588 165.249 265.304 163.915 266.355 162.869C267.406 161.822 268.746 161.11 270.204 160.821C271.663 160.532 273.174 160.68 274.548 161.247C275.921 161.813 277.096 162.772 277.922 164.003C278.748 165.234 279.189 166.68 279.189 168.161C279.189 169.143 278.995 170.116 278.617 171.024C278.24 171.932 277.687 172.756 276.989 173.451C276.291 174.146 275.463 174.698 274.551 175.074C273.64 175.45 272.663 175.644 271.676 175.644H271.671Z" fill="#0782D0"/>
<path d="M278.389 129.655C278.385 129.636 278.38 129.62 278.375 129.603C277.724 127.427 276.496 125.465 274.821 123.924L271.721 127.982C272.626 128.977 273.243 130.197 273.506 131.513C273.508 131.516 273.508 131.518 273.508 131.523C273.636 132.077 273.7 132.644 273.699 133.212C273.699 135.196 272.908 137.099 271.499 138.502C270.09 139.905 268.179 140.694 266.186 140.696H266.182C264.632 140.697 263.12 140.221 261.853 139.333L258.536 143.142C260.66 144.709 263.221 145.579 265.864 145.63C268.506 145.682 271.1 144.912 273.283 143.429C275.466 141.946 277.131 139.823 278.046 137.354C278.962 134.885 279.081 132.194 278.389 129.655Z" fill="#0782D0"/>
<path d="M317.394 129.034C314.878 129.034 312.418 129.776 310.326 131.167C308.234 132.558 306.603 134.535 305.64 136.849C304.677 139.162 304.425 141.708 304.915 144.165C305.405 146.621 306.616 148.877 308.395 150.648C310.174 152.42 312.44 153.626 314.907 154.115C317.375 154.604 319.932 154.354 322.257 153.396C324.581 152.438 326.568 150.815 327.966 148.733C329.364 146.651 330.111 144.203 330.111 141.699V141.694C330.111 138.337 328.77 135.117 326.386 132.743C324.001 130.369 320.766 129.035 317.394 129.034ZM317.394 149.178C315.907 149.179 314.453 148.741 313.216 147.919C311.979 147.098 311.015 145.93 310.445 144.562C309.875 143.195 309.725 141.691 310.015 140.239C310.304 138.787 311.019 137.453 312.07 136.406C313.12 135.359 314.459 134.645 315.918 134.355C317.376 134.066 318.887 134.213 320.261 134.779C321.635 135.344 322.81 136.303 323.637 137.533C324.464 138.763 324.906 140.209 324.907 141.69V141.694C324.907 143.678 324.115 145.581 322.706 146.984C321.298 148.388 319.387 149.177 317.394 149.178Z" fill="#0782D0"/>
<path d="M323.446 178.995C323.445 176.899 322.921 174.836 321.922 172.991C320.924 171.146 319.48 169.576 317.722 168.423C315.963 167.27 313.945 166.57 311.848 166.384C309.751 166.199 307.64 166.535 305.705 167.362L310.152 171.537C310.343 171.523 310.534 171.513 310.728 171.513C312.721 171.513 314.633 172.302 316.042 173.705C317.452 175.108 318.243 177.011 318.243 178.995V179.133L322.256 182.909V184.335C323.041 182.664 323.448 180.84 323.446 178.995Z" fill="#0782D0"/>
<path d="M349.712 172.498C346.338 172.499 343.103 173.834 340.717 176.209C338.332 178.585 336.992 181.806 336.993 185.164C336.993 188.523 338.334 191.744 340.72 194.118C343.106 196.493 346.341 197.827 349.715 197.827C353.089 197.827 356.325 196.493 358.711 194.118C361.097 191.744 362.437 188.523 362.438 185.164C362.438 181.806 361.098 178.585 358.713 176.209C356.328 173.834 353.093 172.499 349.719 172.498H349.712ZM349.712 192.641C348.225 192.642 346.771 192.203 345.535 191.382C344.298 190.56 343.334 189.391 342.765 188.024C342.195 186.657 342.046 185.152 342.336 183.7C342.625 182.248 343.341 180.915 344.392 179.868C345.443 178.821 346.782 178.108 348.24 177.818C349.699 177.529 351.21 177.677 352.584 178.243C353.958 178.809 355.132 179.768 355.959 180.998C356.785 182.229 357.227 183.675 357.227 185.155V185.158C357.227 187.142 356.436 189.045 355.026 190.449C353.617 191.852 351.705 192.641 349.712 192.641Z" fill="#0782D0"/>
<path d="M322.582 207.86H322.261V213.029H322.582C324.552 213.064 326.43 213.868 327.811 215.267C329.192 216.666 329.966 218.55 329.966 220.512C329.966 222.473 329.192 224.357 327.811 225.756C326.43 227.156 324.552 227.959 322.582 227.994H322.261V231.615C322.261 232.147 322.347 232.675 322.516 233.18H322.582C325.925 233.134 329.116 231.781 331.464 229.411C333.812 227.042 335.128 223.847 335.128 220.519C335.128 217.19 333.812 213.996 331.464 211.626C329.116 209.257 325.925 207.903 322.582 207.858V207.86Z" fill="#0782D0"/>
<path d="M354.322 231.667C354.319 233.342 354.652 235.001 355.301 236.547H360.156C360.521 236.548 360.884 236.508 361.24 236.427C360.441 235.459 359.898 234.308 359.663 233.077C359.427 231.847 359.505 230.577 359.89 229.385C360.275 228.192 360.954 227.115 361.866 226.252C362.778 225.389 363.893 224.767 365.108 224.444V219.152C362.105 219.613 359.367 221.127 357.389 223.423C355.41 225.718 354.322 228.642 354.322 231.667Z" fill="#0782D0"/>
<path d="M274.554 124.136L274.567 124.133L274.557 124.144L274.554 124.136Z" fill="#F36B7F"/>
<path d="M304.694 122.27L304.438 122.453L304.429 122.322L304.694 122.27Z" fill="#F36B7F"/>
<path d="M299.009 161.777C298.836 161.777 298.67 161.714 298.54 161.6L289.535 153.668C289.396 153.543 289.313 153.369 289.303 153.184C289.292 152.999 289.356 152.817 289.479 152.678C289.603 152.539 289.777 152.454 289.963 152.441C290.149 152.429 290.332 152.49 290.473 152.612L299.479 160.544C299.586 160.639 299.662 160.764 299.697 160.903C299.731 161.042 299.722 161.188 299.671 161.322C299.621 161.456 299.53 161.571 299.412 161.652C299.293 161.734 299.153 161.777 299.009 161.777Z" fill="#222433"/>
<path d="M327.014 188.114C326.833 188.114 326.658 188.045 326.526 187.92L321.775 183.422C321.641 183.293 321.565 183.116 321.561 182.931C321.557 182.745 321.627 182.566 321.756 182.432C321.884 182.297 322.061 182.219 322.247 182.213C322.433 182.207 322.614 182.275 322.751 182.401L327.502 186.898C327.605 186.995 327.676 187.121 327.706 187.258C327.736 187.396 327.724 187.539 327.672 187.67C327.619 187.801 327.529 187.913 327.411 187.992C327.294 188.071 327.156 188.114 327.014 188.114Z" fill="#222433"/>
<path d="M285.164 110.087C284.982 110.087 284.807 110.017 284.675 109.891C284.543 109.766 284.465 109.595 284.457 109.413C284.449 109.232 284.511 109.055 284.631 108.918C284.751 108.781 284.92 108.696 285.101 108.68L298.994 107.425C299.088 107.416 299.182 107.425 299.271 107.452C299.361 107.479 299.445 107.523 299.517 107.582C299.589 107.642 299.649 107.715 299.693 107.797C299.737 107.88 299.764 107.97 299.772 108.063C299.781 108.156 299.771 108.249 299.742 108.338C299.714 108.427 299.669 108.51 299.608 108.581C299.548 108.653 299.474 108.711 299.39 108.754C299.307 108.796 299.216 108.822 299.122 108.829L285.229 110.085C285.207 110.085 285.186 110.087 285.164 110.087Z" fill="#222433"/>
<path d="M213.785 94.4288C217.007 94.168 218.317 95.0703 220.411 94.739C225.967 93.8579 226.312 100.613 220.493 101.363C217.014 101.809 214.12 102.056 212.338 102.183C210.895 102.025 210.223 102.035 208.951 101.255L206.742 99.7343C205.917 99.1635 205.273 98.3693 204.887 97.4458C204.501 96.5222 204.389 95.5079 204.563 94.5228C204.765 93.5156 205.22 92.5756 205.885 91.7902C206.55 91.0047 207.403 90.3993 208.366 90.0303C212.004 88.7021 218.25 90.1045 220.775 90.8487C219.701 88.2742 218.796 85.6329 218.067 82.9414C216.398 76.3789 222.389 74.9668 223.333 78.0237C224.277 81.0805 229.036 88.0002 232.838 94.6591C232.838 94.6591 236.083 97.1112 237.007 100.512L237.495 102.458C238.355 105.888 237.029 109.341 234.457 111.779C232.006 114.103 228.018 114.791 225.509 113.108C225.091 112.832 224.689 112.532 224.305 112.21" fill="white"/>
<path d="M228.837 114.751C227.518 114.775 226.222 114.407 225.114 113.694C224.676 113.404 224.256 113.09 223.854 112.754C223.709 112.634 223.618 112.463 223.601 112.277C223.583 112.09 223.641 111.905 223.761 111.761C223.881 111.617 224.053 111.527 224.24 111.509C224.427 111.492 224.613 111.549 224.758 111.669C225.123 111.976 225.506 112.262 225.905 112.525C228.082 113.985 231.7 113.421 233.969 111.269C236.502 108.868 237.563 105.638 236.808 102.63L236.32 100.684C235.473 97.5647 232.441 95.2449 232.41 95.2218C232.334 95.1642 232.27 95.0917 232.223 95.0087C230.878 92.6527 229.432 90.2958 228.033 88.0169C225.489 83.8693 223.291 80.2866 222.657 78.2321C222.356 77.26 221.382 77.0509 220.603 77.2687C219.093 77.6896 217.936 79.554 218.754 82.7702C219.476 85.4292 220.37 88.0389 221.43 90.5829C221.48 90.7059 221.495 90.8406 221.472 90.9714C221.449 91.1022 221.389 91.2239 221.3 91.3224C221.21 91.4209 221.094 91.4922 220.966 91.5282C220.837 91.5641 220.701 91.5631 220.573 91.5254C217.647 90.6626 211.833 89.5162 208.61 90.6929C207.765 91.0219 207.016 91.5559 206.431 92.2464C205.846 92.9369 205.444 93.762 205.261 94.6466C205.111 95.499 205.209 96.3761 205.543 97.175C205.877 97.9738 206.433 98.6612 207.146 99.1563L209.338 100.665C210.324 101.267 210.841 101.32 211.967 101.436C212.089 101.448 212.217 101.461 212.352 101.476C214.154 101.346 216.995 101.102 220.403 100.664C222.096 100.446 223.343 99.6441 223.824 98.4641C223.985 98.1066 224.047 97.7127 224.003 97.3233C223.959 96.9339 223.811 96.5634 223.574 96.2505C222.98 95.5071 221.896 95.2183 220.522 95.4359C219.404 95.6131 218.489 95.4728 217.521 95.3243C216.308 95.1034 215.072 95.0389 213.843 95.1323C213.655 95.1475 213.47 95.088 213.327 94.9669C213.184 94.8458 213.095 94.6731 213.079 94.4868C213.064 94.3004 213.124 94.1157 213.246 93.9732C213.367 93.8307 213.541 93.7421 213.728 93.727C215.067 93.6227 216.415 93.6912 217.737 93.9309C218.666 94.0736 219.4 94.1859 220.3 94.0435C222.172 93.7467 223.769 94.2315 224.682 95.3729C225.077 95.8805 225.327 96.4844 225.407 97.1214C225.487 97.7584 225.394 98.4051 225.136 98.9937C224.458 100.659 222.799 101.777 220.584 102.062C217.103 102.509 214.206 102.757 212.389 102.887C212.346 102.89 212.304 102.889 212.261 102.884C212.106 102.867 211.96 102.852 211.821 102.837C210.635 102.715 209.851 102.635 208.579 101.854C208.569 101.848 208.559 101.841 208.549 101.834L206.339 100.314C205.404 99.6648 204.675 98.7635 204.237 97.7159C203.799 96.6683 203.67 95.518 203.866 94.4002C204.09 93.2715 204.598 92.2178 205.342 91.3378C206.086 90.4577 207.043 89.7801 208.122 89.3684C211.576 88.1074 217.011 89.1694 219.595 89.8043C218.729 87.618 217.99 85.3842 217.38 83.1137C216.334 78.9997 218.119 76.4952 220.22 75.9092C221.928 75.4332 223.522 76.2351 224.01 77.8162C224.592 79.7025 226.851 83.3837 229.242 87.2805C230.622 89.5305 232.048 91.8553 233.385 94.1903C234.007 94.6882 236.808 97.0734 237.69 100.328L238.182 102.286C239.062 105.794 237.852 109.533 234.946 112.289C233.295 113.848 231.113 114.727 228.837 114.751Z" fill="#222433"/>
<path d="M312.157 116.936C310.789 118.138 309.027 118.8 307.202 118.797H307.198C306.088 118.797 304.992 118.551 303.988 118.079C302.984 117.607 302.098 116.919 301.393 116.066C300.689 115.212 300.182 114.214 299.911 113.142C299.64 112.071 299.61 110.953 299.825 109.868C300.039 108.784 300.492 107.761 301.151 106.871C301.81 105.982 302.658 105.249 303.636 104.725C304.613 104.201 305.695 103.899 306.803 103.84C307.912 103.782 309.019 103.969 310.047 104.387L309.296 98.8252C307.146 98.466 304.939 98.6628 302.888 99.3966C300.836 100.131 299.008 101.377 297.58 103.016C296.151 104.655 295.17 106.633 294.73 108.758C294.29 110.884 294.406 113.086 295.066 115.154C295.727 117.222 296.911 119.086 298.504 120.568C300.096 122.05 302.045 123.099 304.162 123.616C306.28 124.132 308.495 124.098 310.595 123.518C312.696 122.937 314.611 121.828 316.158 120.299L312.157 116.936Z" fill="#0782D0"/>
<path d="M227.259 243.514C225.809 243.513 224.385 243.122 223.139 242.384L196.799 226.839C195.782 226.24 194.91 225.427 194.244 224.456C193.578 223.485 193.134 222.381 192.944 221.22C192.754 220.06 192.822 218.873 193.143 217.741C193.465 216.61 194.032 215.563 194.804 214.674L241.807 160.679L245.536 156.407L273.842 123.887L273.389 84.813C273.387 84.6504 273.442 84.4921 273.544 84.365C273.646 84.2379 273.789 84.1498 273.949 84.1156L279.569 82.9126C279.662 82.8925 279.759 82.8916 279.854 82.91C279.948 82.9284 280.037 82.9656 280.117 83.0195C280.196 83.0734 280.263 83.1428 280.315 83.2235C280.367 83.3041 280.401 83.3944 280.416 83.4887L283.074 99.7536L300.083 98.3438L301.038 82.2996C301.044 82.2027 301.07 82.1081 301.114 82.0216C301.158 81.9351 301.219 81.8586 301.295 81.7968C301.37 81.7351 301.457 81.6894 301.55 81.6627C301.644 81.636 301.742 81.6289 301.839 81.6417L307.77 82.429C307.925 82.4496 308.068 82.5203 308.178 82.6302C308.288 82.7401 308.359 82.883 308.379 83.0369L312.757 116.631L358.85 157.678L358.863 157.69C361.054 159.751 362.801 162.235 363.996 164.989C365.192 167.744 365.811 170.712 365.817 173.713V231.618C365.817 233.112 365.221 234.545 364.159 235.601C363.098 236.658 361.658 237.252 360.157 237.252H327.209C326.467 237.254 325.731 237.11 325.044 236.828C324.358 236.546 323.734 236.132 323.208 235.61C322.683 235.087 322.266 234.467 321.982 233.784C321.698 233.101 321.552 232.369 321.553 231.629V183.216L317.762 179.648L299.072 162.099L269.908 196.991L266.575 200.985L256.98 212.461L253.65 216.455L233.454 240.609C232.7 241.517 231.753 242.248 230.683 242.75C229.612 243.253 228.443 243.513 227.259 243.514ZM275.076 124.622L195.875 215.597C195.238 216.33 194.771 217.193 194.506 218.126C194.242 219.058 194.186 220.038 194.343 220.994C194.5 221.951 194.866 222.861 195.415 223.661C195.964 224.462 196.683 225.132 197.521 225.626L223.86 241.171C225.22 241.979 226.825 242.275 228.385 242.006C229.945 241.738 231.357 240.923 232.366 239.708L252.561 215.554L255.891 211.559L265.486 200.083L268.819 196.088L298.465 160.62C298.527 160.546 298.603 160.486 298.69 160.442C298.776 160.399 298.87 160.373 298.967 160.368C299.063 160.362 299.16 160.376 299.251 160.408C299.342 160.441 299.425 160.492 299.495 160.558L318.735 178.622L322.747 182.399C322.817 182.465 322.873 182.544 322.911 182.632C322.949 182.72 322.969 182.815 322.969 182.911V231.628C322.968 232.183 323.077 232.732 323.29 233.244C323.503 233.756 323.815 234.221 324.209 234.612C324.603 235.004 325.071 235.314 325.586 235.525C326.101 235.736 326.653 235.843 327.21 235.841H360.157C361.283 235.841 362.362 235.396 363.158 234.603C363.954 233.811 364.401 232.736 364.401 231.616V173.713C364.395 170.906 363.816 168.129 362.698 165.552C361.58 162.975 359.947 160.651 357.898 158.723L311.615 117.51C311.489 117.397 311.407 117.243 311.385 117.075L307.044 83.7573L302.406 83.1417L301.46 99.0389C301.45 99.2082 301.379 99.3682 301.26 99.4896C301.141 99.611 300.981 99.6855 300.812 99.6996L282.538 101.213C282.36 101.227 282.184 101.175 282.043 101.065C281.903 100.956 281.809 100.798 281.78 100.623L279.138 84.4448L274.812 85.371L275.26 124.03C275.278 124.136 275.27 124.245 275.238 124.347C275.207 124.45 275.151 124.544 275.077 124.622L275.076 124.622Z" fill="#222433"/>
<path d="M222.57 106.92C226.527 107.455 226.254 112.912 221.048 113.581C217.569 114.027 214.675 114.274 212.895 114.401C211.692 114.488 210.496 114.161 209.506 113.475L207.297 111.952C206.471 111.381 205.828 110.586 205.442 109.662C205.057 108.738 204.945 107.724 205.12 106.739C205.264 105.931 205.596 105.168 206.089 104.512L207.411 105.846C209.171 107.174 211.532 108.584 215.544 107.879L219.295 107.367L222.57 106.92Z" fill="white"/>
<path d="M212.517 115.119C211.296 115.119 210.104 114.747 209.101 114.053L206.893 112.532C206.235 112.076 205.676 111.493 205.249 110.818C204.822 110.142 204.536 109.388 204.408 108.6C204.28 107.813 204.313 107.007 204.504 106.232C204.696 105.457 205.042 104.728 205.523 104.09C205.584 104.008 205.662 103.941 205.751 103.893C205.841 103.844 205.94 103.816 206.041 103.809C206.143 103.802 206.245 103.817 206.34 103.853C206.436 103.889 206.522 103.945 206.594 104.017L207.878 105.315C209.675 106.663 211.837 107.814 215.42 107.184L215.447 107.181L222.473 106.222C222.537 106.213 222.601 106.213 222.665 106.222C224.658 106.491 225.993 107.916 225.986 109.767C225.98 111.641 224.461 113.853 221.139 114.28C217.658 114.726 214.762 114.974 212.946 115.104C212.803 115.114 212.66 115.119 212.517 115.119ZM206.218 105.646C205.735 106.619 205.62 107.733 205.892 108.784C206.164 109.835 206.806 110.754 207.701 111.374L209.909 112.895C210.767 113.489 211.802 113.772 212.844 113.698C214.643 113.569 217.51 113.324 220.957 112.882C223.447 112.562 224.566 111.084 224.57 109.763C224.573 108.881 224.045 107.87 222.566 107.633L215.653 108.575C211.505 109.3 208.942 107.886 206.982 106.407C206.955 106.387 206.93 106.365 206.906 106.341L206.218 105.646Z" fill="#222433"/>
<path d="M222.703 100.661C226.51 101.305 226.181 106.639 221.039 107.3C217.559 107.747 214.666 107.993 212.884 108.12C211.681 108.205 210.486 107.878 209.496 107.192L207.285 105.66C206.459 105.088 205.814 104.292 205.429 103.367C205.043 102.441 204.932 101.425 205.109 100.439C205.212 99.8582 205.413 99.2988 205.703 98.7845L207.99 100.594C209.6 101.754 212.162 102.303 214.127 102.004L221.208 101.299L222.703 100.661Z" fill="white"/>
<path d="M212.514 108.838C211.291 108.838 210.096 108.465 209.091 107.771L206.88 106.239C205.661 105.393 204.802 104.125 204.471 102.684C204.139 101.242 204.358 99.7289 205.086 98.4392C205.136 98.3502 205.205 98.2731 205.288 98.2133C205.371 98.1534 205.466 98.1123 205.567 98.0926C205.668 98.073 205.771 98.0753 205.871 98.0995C205.971 98.1237 206.064 98.1691 206.144 98.2327L208.418 100.033C209.84 101.051 212.192 101.587 214.02 101.308C214.032 101.306 214.044 101.305 214.057 101.303L221.029 100.609L222.424 100.013C222.55 99.96 222.688 99.9436 222.822 99.9665C224.745 100.292 226.013 101.731 225.977 103.548C225.939 105.396 224.407 107.578 221.129 107.999C217.646 108.446 214.75 108.694 212.934 108.823C212.794 108.833 212.654 108.838 212.514 108.838ZM205.976 99.9009C205.66 100.833 205.656 101.841 205.965 102.775C206.274 103.709 206.879 104.519 207.689 105.081L209.901 106.614C210.758 107.206 211.793 107.489 212.834 107.417C214.631 107.289 217.498 107.044 220.948 106.601C223.407 106.285 224.534 104.826 224.56 103.519C224.576 102.678 224.113 101.7 222.78 101.395L221.487 101.948C221.42 101.976 221.35 101.994 221.278 102.001L214.215 102.704C212.017 103.033 209.29 102.402 207.574 101.166C207.565 101.16 207.557 101.153 207.549 101.147L205.976 99.9009Z" fill="#222433"/>
<path d="M278.29 65.4976C276.919 65.8598 275.462 65.6912 274.211 65.0259C272.96 64.3606 272.009 63.2479 271.55 61.9123C271.091 60.5767 271.158 59.1175 271.737 57.8288C272.315 56.5401 273.364 55.5179 274.67 54.9681L281.633 55.4876L278.29 65.4976Z" fill="white"/>
<path d="M276.85 66.3883C275.394 66.3881 273.983 65.8866 272.856 64.9689C271.728 64.0513 270.955 62.7738 270.665 61.3531C270.376 59.9324 270.59 58.4559 271.269 57.1738C271.949 55.8918 273.053 54.8831 274.394 54.3187C274.498 54.2752 274.61 54.2569 274.722 54.2651L281.685 54.7846C281.793 54.7926 281.897 54.8249 281.99 54.879C282.083 54.9331 282.162 55.0076 282.222 55.0968C282.282 55.186 282.32 55.2876 282.334 55.3938C282.349 55.5001 282.339 55.6082 282.305 55.7099L278.961 65.7193C278.924 65.8303 278.86 65.9304 278.774 66.0105C278.688 66.0906 278.584 66.1483 278.47 66.1782C277.942 66.3176 277.397 66.3882 276.85 66.3883ZM274.794 55.6843C273.713 56.1838 272.852 57.0589 272.372 58.1452C271.893 59.2316 271.828 60.4547 272.19 61.5851C272.552 62.7156 273.316 63.6757 274.339 64.2855C275.361 64.8954 276.572 65.1129 277.744 64.8974L280.675 56.123L274.794 55.6843Z" fill="#222433"/>
<path d="M283.522 54.0721C283.443 54.2 278.865 59.3407 278.791 59.4728C277.282 62.1576 276.906 65.3292 277.746 68.2899C278.586 71.2507 280.573 73.7581 283.27 75.2605H283.271L282.726 82.9163C282.588 84.8421 283.163 86.7514 284.341 88.2847C285.52 89.818 287.221 90.8694 289.124 91.2408C290.212 91.4532 291.333 91.4366 292.414 91.1921C293.495 90.9477 294.513 90.4807 295.402 89.8212C296.291 89.1618 297.032 88.3245 297.576 87.3631C298.121 86.4017 298.457 85.3375 298.564 84.2389C298.564 84.2389 300.412 67.373 300.5 66.7466C301.332 67.6502 302.409 68.2948 303.601 68.6025C304.794 68.9102 306.05 68.8678 307.218 68.4805C308.387 68.0932 309.418 67.3776 310.187 66.4199C310.956 65.4622 311.43 64.3035 311.552 63.0835C311.674 61.8635 311.439 60.6345 310.874 59.5447C310.31 58.4549 309.441 57.5509 308.372 56.9418C307.303 56.3328 306.08 56.0447 304.851 56.1124C303.621 56.18 302.437 56.6005 301.442 57.3231C302.063 55.8649 302.356 55.0317 302.382 54.2857L283.522 54.0721Z" fill="white"/>
<path d="M290.648 92.0921C289.46 92.0918 288.285 91.848 287.196 91.3759C286.107 90.9038 285.127 90.2135 284.317 89.3481C283.508 88.4826 282.886 87.4605 282.491 86.3455C282.096 85.2304 281.935 84.0462 282.019 82.8667L282.533 75.6489C279.803 73.99 277.823 71.343 277.011 68.263C276.198 65.1831 276.614 61.9094 278.173 59.1286C278.234 59.0198 278.249 58.994 280.806 56.0976C281.748 55.0306 282.814 53.8233 282.949 53.6568C283.016 53.5664 283.104 53.493 283.205 53.4426C283.306 53.3921 283.417 53.366 283.53 53.3663L302.389 53.5799C302.483 53.581 302.577 53.6008 302.663 53.6382C302.75 53.6756 302.828 53.7298 302.893 53.7976C302.958 53.8655 303.009 53.9456 303.043 54.0333C303.076 54.121 303.092 54.2145 303.089 54.3083C303.061 54.822 302.959 55.329 302.788 55.8144C303.938 55.4002 305.175 55.2889 306.38 55.4911C307.585 55.6934 308.718 56.2024 309.667 56.9687C310.616 57.7351 311.35 58.7327 311.798 59.8649C312.246 60.997 312.392 62.2251 312.222 63.43C312.053 64.635 311.573 65.7757 310.829 66.7416C310.086 67.7075 309.105 68.4657 307.98 68.9425C306.856 69.4194 305.627 69.5988 304.412 69.4633C303.197 69.3278 302.038 68.8819 301.048 68.1691C300.687 71.3836 299.785 79.5923 299.268 84.3111C299.059 86.4422 298.06 88.4196 296.467 89.8578C294.873 91.2959 292.799 92.0917 290.647 92.09L290.648 92.0921ZM283.599 74.6364C283.721 74.7001 283.822 74.7977 283.889 74.9175C283.956 75.0372 283.987 75.1738 283.977 75.3105L283.432 82.9666C283.297 84.857 283.917 86.7238 285.155 88.163C286.394 89.6021 288.152 90.4977 290.049 90.6558C291.946 90.8139 293.83 90.2218 295.291 89.0077C296.753 87.7936 297.675 86.0552 297.859 84.1689C297.935 83.4713 299.71 67.2769 299.798 66.6472C299.817 66.5148 299.873 66.3903 299.96 66.2884C300.046 66.1865 300.161 66.1112 300.289 66.0715C300.417 66.0317 300.554 66.0291 300.684 66.0639C300.813 66.0987 300.93 66.1694 301.021 66.268C301.592 66.8888 302.296 67.3746 303.08 67.6896C303.864 68.0046 304.709 68.1408 305.553 68.0882C306.927 67.9898 308.219 67.4028 309.193 66.4345C310.168 65.4662 310.76 64.1812 310.861 62.8142C310.931 61.7434 310.692 60.6751 310.173 59.7346C309.654 58.794 308.877 58.0202 307.932 57.5036C306.987 56.9871 305.914 56.7493 304.838 56.8181C303.762 56.887 302.729 57.2595 301.858 57.8922C301.733 57.9832 301.581 58.0308 301.426 58.0278C301.271 58.0248 301.122 57.9712 301 57.8754C300.879 57.7796 300.792 57.6468 300.754 57.4973C300.716 57.3478 300.728 57.19 300.788 57.048C301.093 56.3775 301.35 55.6865 301.557 54.9803L283.847 54.7799C283.58 55.0877 283.032 55.7106 281.868 57.0282C280.851 58.1796 279.595 59.6027 279.383 59.8598C277.986 62.3785 277.646 65.3445 278.435 68.1121C279.225 70.8796 281.081 73.2246 283.599 74.6364Z" fill="#222433"/>
<path d="M305.237 64.6455C305.094 64.6455 304.955 64.6026 304.838 64.5224L301.439 62.2099C301.322 62.1306 301.232 62.0186 301.18 61.8882C301.128 61.7577 301.117 61.6148 301.147 61.4777C301.177 61.3406 301.247 61.2155 301.349 61.1185C301.451 61.0215 301.58 60.957 301.719 60.9333L306.062 60.1913C306.246 60.1623 306.434 60.2066 306.585 60.3146C306.736 60.4226 306.839 60.5856 306.87 60.7683C306.902 60.9509 306.86 61.1386 306.753 61.2906C306.647 61.4427 306.484 61.5469 306.301 61.5806L303.681 62.0282L305.636 63.3586C305.761 63.4436 305.856 63.5663 305.906 63.7087C305.955 63.8511 305.958 64.0056 305.913 64.1496C305.868 64.2935 305.778 64.4194 305.656 64.5086C305.534 64.5979 305.387 64.6459 305.235 64.6455H305.237Z" fill="#222433"/>
<path d="M289.659 64.8805C289.605 64.8806 289.551 64.8743 289.498 64.862L286.166 64.0885C285.986 64.0469 285.83 63.9374 285.731 63.7833C285.631 63.6291 285.596 63.4424 285.632 63.2628L286.708 57.9362C286.746 57.7533 286.855 57.5926 287.011 57.4895C287.167 57.3863 287.358 57.3491 287.542 57.3859C287.726 57.4228 287.887 57.5307 287.991 57.686C288.095 57.8413 288.133 58.0313 288.097 58.2144L287.156 62.8706L289.819 63.4891C289.989 63.5283 290.138 63.628 290.238 63.7694C290.338 63.9108 290.382 64.0839 290.362 64.2558C290.343 64.4277 290.26 64.5863 290.13 64.7015C290.001 64.8167 289.833 64.8804 289.659 64.8805Z" fill="#222433"/>
<path d="M288.336 70.3944C288.221 70.3944 288.105 70.3885 287.99 70.3768C287.554 70.3333 287.132 70.2044 286.747 69.9975C286.362 69.7905 286.022 69.5097 285.747 69.1712L284.38 67.4926C284.296 67.3892 284.242 67.2641 284.227 67.1318C284.211 66.9996 284.233 66.8656 284.291 66.7453C284.348 66.6251 284.439 66.5235 284.552 66.4524C284.665 66.3813 284.796 66.3436 284.93 66.3436H291.824C291.96 66.3436 292.093 66.3824 292.207 66.4554C292.321 66.5284 292.412 66.6326 292.469 66.7554C292.525 66.8783 292.545 67.0147 292.526 67.1484C292.506 67.2822 292.449 67.4076 292.36 67.5098L290.845 69.2532C290.719 69.3972 290.581 69.5301 290.432 69.6505C289.841 70.1322 289.1 70.3951 288.336 70.3944ZM286.415 67.7534L286.846 68.2823C287.166 68.674 287.63 68.9229 288.135 68.9743C288.64 69.0258 289.144 68.8756 289.538 68.5568C289.623 68.4878 289.702 68.4117 289.774 68.3293L290.275 67.7534H286.415Z" fill="#222433"/>
<path d="M282.701 62.3939C284.721 62.3939 286.359 60.7633 286.359 58.7519C286.359 56.7405 284.721 55.11 282.701 55.11C280.68 55.11 279.042 56.7405 279.042 58.7519C279.042 60.7633 280.68 62.3939 282.701 62.3939Z" fill="white"/>
<path d="M282.701 63.0988C281.837 63.0988 280.993 62.8439 280.275 62.3662C279.557 61.8886 278.997 61.2097 278.667 60.4154C278.336 59.6212 278.25 58.7472 278.418 57.904C278.587 57.0608 279.003 56.2862 279.613 55.6783C280.224 55.0704 281.002 54.6564 281.849 54.4887C282.696 54.321 283.574 54.407 284.372 54.736C285.17 55.065 285.852 55.6222 286.332 56.337C286.811 57.0518 287.068 57.8923 287.068 58.752C287.066 59.9044 286.606 61.0093 285.787 61.8242C284.969 62.6391 283.859 63.0975 282.701 63.0988ZM282.701 55.8149C282.117 55.8149 281.547 55.9872 281.062 56.3099C280.577 56.6326 280.198 57.0913 279.975 57.628C279.752 58.1647 279.693 58.7552 279.807 59.325C279.921 59.8947 280.202 60.418 280.615 60.8288C281.027 61.2395 281.553 61.5193 282.125 61.6326C282.698 61.7459 283.291 61.6878 283.83 61.4655C284.369 61.2432 284.83 60.8667 285.154 60.3837C285.478 59.9007 285.651 59.3329 285.651 58.752C285.65 57.9733 285.339 57.2268 284.786 56.6761C284.233 56.1255 283.483 55.8158 282.701 55.8149Z" fill="#222433"/>
<path d="M293.665 62.3939C295.685 62.3939 297.323 60.7633 297.323 58.7519C297.323 56.7405 295.685 55.11 293.665 55.11C291.644 55.11 290.006 56.7405 290.006 58.7519C290.006 60.7633 291.644 62.3939 293.665 62.3939Z" fill="white"/>
<path d="M293.665 63.0988C292.801 63.0988 291.957 62.8439 291.239 62.3662C290.521 61.8886 289.961 61.2097 289.63 60.4154C289.3 59.6212 289.214 58.7472 289.382 57.904C289.55 57.0608 289.966 56.2862 290.577 55.6783C291.188 55.0704 291.966 54.6564 292.813 54.4887C293.66 54.321 294.538 54.407 295.336 54.736C296.134 55.065 296.816 55.6222 297.296 56.337C297.775 57.0518 298.031 57.8923 298.031 58.752C298.03 59.9044 297.57 61.0093 296.751 61.8242C295.932 62.6391 294.822 63.0975 293.665 63.0988ZM293.665 55.8149C293.081 55.8149 292.511 55.9872 292.026 56.3099C291.54 56.6326 291.162 57.0913 290.939 57.628C290.716 58.1647 290.657 58.7552 290.771 59.325C290.885 59.8947 291.166 60.418 291.578 60.8288C291.991 61.2395 292.517 61.5193 293.089 61.6326C293.661 61.7459 294.255 61.6878 294.794 61.4655C295.333 61.2432 295.794 60.8667 296.118 60.3837C296.442 59.9007 296.615 59.3329 296.615 58.752C296.614 57.9733 296.303 57.2268 295.75 56.6761C295.197 56.1255 294.447 55.8158 293.665 55.8149Z" fill="#222433"/>
<path d="M289.65 58.7801H286.716C286.528 58.7801 286.348 58.7059 286.215 58.5737C286.082 58.4415 286.008 58.2622 286.008 58.0753C286.008 57.8883 286.082 57.709 286.215 57.5768C286.348 57.4446 286.528 57.3704 286.716 57.3704H289.65C289.838 57.3704 290.018 57.4446 290.151 57.5768C290.283 57.709 290.358 57.8883 290.358 58.0753C290.358 58.2622 290.283 58.4415 290.151 58.5737C290.018 58.7059 289.838 58.7801 289.65 58.7801Z" fill="#222433"/>
<path d="M288.964 77.4412C286.847 77.4408 284.765 76.8993 282.919 75.8686C282.755 75.7773 282.634 75.6248 282.583 75.4449C282.532 75.2649 282.555 75.0722 282.647 74.909C282.739 74.7459 282.892 74.6257 283.073 74.5749C283.254 74.5242 283.447 74.547 283.611 74.6383C284.998 75.4133 286.539 75.8778 288.125 75.9996C289.711 76.1213 291.304 75.8973 292.794 75.3432C292.97 75.2778 293.165 75.2846 293.336 75.3622C293.507 75.4398 293.64 75.5818 293.706 75.757C293.771 75.9322 293.765 76.1262 293.687 76.2963C293.609 76.4664 293.466 76.5988 293.29 76.6642C291.906 77.1781 290.441 77.4412 288.964 77.4412Z" fill="#222433"/>
<path d="M292.433 61.555C293.112 61.555 293.662 61.0069 293.662 60.3309C293.662 59.6548 293.112 59.1067 292.433 59.1067C291.753 59.1067 291.203 59.6548 291.203 60.3309C291.203 61.0069 291.753 61.555 292.433 61.555Z" fill="#222433"/>
<path d="M281.532 61.555C282.212 61.555 282.762 61.0069 282.762 60.3309C282.762 59.6548 282.212 59.1067 281.532 59.1067C280.853 59.1067 280.303 59.6548 280.303 60.3309C280.303 61.0069 280.853 61.555 281.532 61.555Z" fill="#222433"/>
<path d="M276.05 63.3142C275.921 63.3141 275.795 63.2792 275.685 63.2132C275.575 63.1472 275.485 63.0527 275.425 62.9397C275.365 62.8267 275.336 62.6995 275.343 62.5718C275.35 62.444 275.392 62.3205 275.464 62.2146L276.809 60.2329L274.705 59.2439C274.618 59.2057 274.541 59.1507 274.477 59.0822C274.412 59.0138 274.362 58.9332 274.329 58.8453C274.297 58.7573 274.282 58.6637 274.286 58.57C274.29 58.4763 274.313 58.3843 274.353 58.2995C274.393 58.2146 274.45 58.1386 274.52 58.0759C274.59 58.0132 274.672 57.9651 274.761 57.9343C274.85 57.9036 274.944 57.8908 275.038 57.8968C275.133 57.9028 275.224 57.9274 275.309 57.9692L278.16 59.3085C278.253 59.3519 278.335 59.4147 278.4 59.4925C278.466 59.5703 278.514 59.6613 278.541 59.7594C278.568 59.8574 278.573 59.9601 278.557 60.0604C278.54 60.1607 278.502 60.2562 278.445 60.3405L276.637 63.0038C276.572 63.0995 276.485 63.1778 276.382 63.2319C276.28 63.2861 276.166 63.3143 276.05 63.3142Z" fill="#222433"/>
<path d="M302.877 54.7771C303.585 43.4988 297.684 40.2093 290.447 40.3033C283.879 40.3881 278.921 44.8999 278.556 51.8708H278.554C278.554 51.8708 269.143 51.1307 269.143 52.7026C269.143 54.3473 281.124 55.2002 291.477 55.0052C291.665 55.0017 291.85 54.9979 292.034 54.9939C294.729 55.048 297.486 55.4145 300.988 55.013C301.467 54.9829 301.942 54.9042 302.405 54.778L302.877 54.7771Z" fill="#FC8383"/>
<path d="M294.961 54.2476H294.951C294.763 54.2449 294.584 54.168 294.454 54.034C294.323 53.8999 294.251 53.7195 294.253 53.5326C294.324 48.6517 296.795 46.1587 301.598 46.1226H301.603C301.791 46.1219 301.972 46.1955 302.105 46.3272C302.238 46.4589 302.313 46.6379 302.314 46.8249C302.315 47.0118 302.241 47.1914 302.109 47.3241C301.976 47.4567 301.796 47.5317 301.609 47.5323C297.616 47.5624 295.729 49.4755 295.669 53.5531C295.667 53.7383 295.591 53.915 295.458 54.045C295.326 54.175 295.147 54.2478 294.961 54.2476Z" fill="#222433"/>
<path d="M302.642 55.012C302.626 55.012 302.611 55.012 302.594 55.0104C281.293 53.6476 278.507 52.6236 278.259 52.5113C278.087 52.4365 277.952 52.2967 277.883 52.1227C277.814 51.9486 277.818 51.7546 277.893 51.5832C277.968 51.4118 278.109 51.2772 278.283 51.2089C278.458 51.1406 278.653 51.1442 278.825 51.219C278.982 51.2766 281.96 52.2775 302.685 53.6032C302.869 53.6147 303.041 53.697 303.164 53.8324C303.288 53.9679 303.354 54.146 303.348 54.329C303.342 54.512 303.265 54.6856 303.133 54.813C303.001 54.9403 302.824 55.0116 302.64 55.0115L302.642 55.012Z" fill="#222433"/>
<g clip-path="url(#clip4_44062_16794)">
<path d="M224.78 66.5808C229.692 66.5808 233.673 62.6048 233.673 57.7002C233.673 52.7957 229.692 48.8197 224.78 48.8197C219.868 48.8197 215.886 52.7957 215.886 57.7002C215.886 62.6048 219.868 66.5808 224.78 66.5808Z" fill="white"/>
<path d="M224.78 67.2228C222.894 67.2228 221.05 66.6643 219.482 65.6179C217.913 64.5716 216.691 63.0844 215.969 61.3444C215.247 59.6043 215.058 57.6897 215.426 55.8425C215.794 53.9953 216.703 52.2986 218.036 50.9668C219.37 49.6351 221.069 48.7281 222.919 48.3607C224.769 47.9933 226.687 48.1819 228.429 48.9026C230.172 49.6233 231.661 50.8439 232.709 52.4098C233.757 53.9758 234.316 55.8169 234.316 57.7003C234.314 60.2249 233.308 62.6453 231.52 64.4305C229.732 66.2157 227.308 67.2199 224.78 67.2228ZM224.78 49.4617C223.148 49.4617 221.553 49.9449 220.196 50.8501C218.839 51.7554 217.782 53.0421 217.157 54.5475C216.533 56.0529 216.369 57.7094 216.688 59.3075C217.006 60.9056 217.792 62.3736 218.946 63.5258C220.1 64.678 221.57 65.4626 223.17 65.7805C224.771 66.0984 226.43 65.9353 227.937 65.3117C229.445 64.6881 230.734 63.6322 231.64 62.2774C232.547 60.9225 233.031 59.3297 233.031 57.7003C233.028 55.516 232.158 53.4219 230.611 51.8774C229.064 50.333 226.967 49.4642 224.78 49.4617Z" fill="#222433"/>
<path d="M225.423 52.7999V53.8485C226.259 53.9126 227.064 54.1928 227.759 54.6616L227.137 55.646C226.611 55.31 226.019 55.0911 225.401 55.004V57.1439C226.666 57.3151 227.823 57.8501 227.802 59.1982C227.78 60.5035 226.73 61.2739 225.401 61.4451V62.5578H224.33V61.4665C223.387 61.3809 222.358 61.0599 221.694 60.5035L222.337 59.5406C222.906 59.9845 223.59 60.259 224.308 60.3323V58.1924L224.201 58.1711C223.001 57.9999 221.887 57.4649 221.93 56.0954C221.951 54.8328 222.958 54.0411 224.308 53.8699V52.7999H225.423ZM224.351 56.9727V55.0254C223.644 55.1538 223.215 55.5176 223.194 56.0526C223.194 56.5661 223.58 56.8229 224.351 56.9727ZM225.423 58.3422V60.2895C226.109 60.1611 226.58 59.7974 226.601 59.2624C226.601 58.7916 226.173 58.5134 225.423 58.3422Z" fill="#9ABEE3"/>
<path d="M224.78 64.8689C223.36 64.8689 221.972 64.4484 220.791 63.6607C219.611 62.873 218.69 61.7535 218.147 60.4436C217.604 59.1337 217.462 57.6923 217.739 56.3017C218.016 54.9111 218.699 53.6338 219.703 52.6313C220.707 51.6287 221.987 50.946 223.379 50.6694C224.772 50.3928 226.215 50.5347 227.527 51.0773C228.839 51.6199 229.96 52.5387 230.749 53.7176C231.538 54.8964 231.959 56.2824 231.959 57.7003C231.957 59.6008 231.2 61.4229 229.854 62.7669C228.508 64.1108 226.683 64.8667 224.78 64.8689ZM224.78 51.8156C223.614 51.8156 222.475 52.1607 221.506 52.8073C220.536 53.4539 219.781 54.373 219.335 55.4483C218.889 56.5236 218.772 57.7068 219 58.8483C219.227 59.9898 219.788 61.0384 220.613 61.8614C221.437 62.6843 222.487 63.2448 223.63 63.4719C224.773 63.6989 225.958 63.5824 227.035 63.137C228.112 62.6916 229.033 61.9373 229.68 60.9696C230.328 60.0019 230.673 58.8641 230.673 57.7003C230.671 56.1401 230.05 54.6443 228.945 53.5411C227.84 52.4379 226.342 51.8174 224.78 51.8156Z" fill="#222433"/>
</g>
<g clip-path="url(#clip5_44062_16794)">
<path d="M224.78 66.5808C229.692 66.5808 233.673 62.6048 233.673 57.7002C233.673 52.7957 229.692 48.8197 224.78 48.8197C219.868 48.8197 215.886 52.7957 215.886 57.7002C215.886 62.6048 219.868 66.5808 224.78 66.5808Z" fill="white"/>
<path d="M224.78 67.2228C222.894 67.2228 221.05 66.6643 219.482 65.6179C217.913 64.5716 216.691 63.0844 215.969 61.3444C215.247 59.6043 215.058 57.6897 215.426 55.8425C215.794 53.9953 216.703 52.2986 218.036 50.9668C219.37 49.6351 221.069 48.7281 222.919 48.3607C224.769 47.9933 226.687 48.1819 228.429 48.9026C230.172 49.6233 231.661 50.8439 232.709 52.4098C233.757 53.9758 234.316 55.8169 234.316 57.7003C234.314 60.2249 233.308 62.6453 231.52 64.4305C229.732 66.2157 227.308 67.2199 224.78 67.2228ZM224.78 49.4617C223.148 49.4617 221.553 49.9449 220.196 50.8501C218.839 51.7554 217.782 53.0421 217.157 54.5475C216.533 56.0529 216.369 57.7094 216.688 59.3075C217.006 60.9056 217.792 62.3736 218.946 63.5258C220.1 64.678 221.57 65.4626 223.17 65.7805C224.771 66.0984 226.43 65.9353 227.937 65.3117C229.445 64.6881 230.734 63.6322 231.64 62.2774C232.547 60.9225 233.031 59.3297 233.031 57.7003C233.028 55.516 232.158 53.4219 230.611 51.8774C229.064 50.333 226.967 49.4642 224.78 49.4617Z" fill="#222433"/>
<path d="M225.423 52.7999V53.8485C226.259 53.9126 227.064 54.1928 227.759 54.6616L227.137 55.646C226.611 55.31 226.019 55.0911 225.401 55.004V57.1439C226.666 57.3151 227.823 57.8501 227.802 59.1982C227.78 60.5035 226.73 61.2739 225.401 61.4451V62.5578H224.33V61.4665C223.387 61.3809 222.358 61.0599 221.694 60.5035L222.337 59.5406C222.906 59.9845 223.59 60.259 224.308 60.3323V58.1924L224.201 58.1711C223.001 57.9999 221.887 57.4649 221.93 56.0954C221.951 54.8328 222.958 54.0411 224.308 53.8699V52.7999H225.423ZM224.351 56.9727V55.0254C223.644 55.1538 223.215 55.5176 223.194 56.0526C223.194 56.5661 223.58 56.8229 224.351 56.9727ZM225.423 58.3422V60.2895C226.109 60.1611 226.58 59.7974 226.601 59.2624C226.601 58.7916 226.173 58.5134 225.423 58.3422Z" fill="#9ABEE3"/>
<path d="M224.78 64.8689C223.36 64.8689 221.972 64.4484 220.791 63.6607C219.611 62.873 218.69 61.7535 218.147 60.4436C217.604 59.1337 217.462 57.6923 217.739 56.3017C218.016 54.9111 218.699 53.6338 219.703 52.6313C220.707 51.6287 221.987 50.946 223.379 50.6694C224.772 50.3928 226.215 50.5347 227.527 51.0773C228.839 51.6199 229.96 52.5387 230.749 53.7176C231.538 54.8964 231.959 56.2824 231.959 57.7003C231.957 59.6008 231.2 61.4229 229.854 62.7669C228.508 64.1108 226.683 64.8667 224.78 64.8689ZM224.78 51.8156C223.614 51.8156 222.475 52.1607 221.506 52.8073C220.536 53.4539 219.781 54.373 219.335 55.4483C218.889 56.5236 218.772 57.7068 219 58.8483C219.227 59.9898 219.788 61.0384 220.613 61.8614C221.437 62.6843 222.487 63.2448 223.63 63.4719C224.773 63.6989 225.958 63.5824 227.035 63.137C228.112 62.6916 229.033 61.9373 229.68 60.9696C230.328 60.0019 230.673 58.8641 230.673 57.7003C230.671 56.1401 230.05 54.6443 228.945 53.5411C227.84 52.4379 226.342 51.8174 224.78 51.8156Z" fill="#222433"/>
</g>
</g>
<g clip-path="url(#clip6_44062_16794)">
<path d="M183.328 186.021V45.447H51.1482V75.937V186.021H183.328Z" fill="white"/>
<path d="M183.328 186.686H51.1483C50.7801 186.686 50.4817 186.388 50.4817 186.021V45.447C50.4817 45.0796 50.7801 44.7819 51.1483 44.7819H183.328C183.697 44.7819 183.995 45.0796 183.995 45.447V186.021C183.995 186.388 183.697 186.686 183.328 186.686ZM51.8149 185.356H182.662V46.1122H51.8149V185.356Z" fill="#222433"/>
<path d="M183.328 61.7752H51.1483C50.7801 61.7752 50.4817 61.4774 50.4817 61.11C50.4817 60.7426 50.7801 60.4448 51.1483 60.4448H183.328C183.697 60.4448 183.995 60.7426 183.995 61.11C183.995 61.4774 183.697 61.7752 183.328 61.7752Z" fill="#222433"/>
<path d="M58.1522 55.8927C59.5991 55.8927 60.772 54.7223 60.772 53.2785C60.772 51.8347 59.5991 50.6643 58.1522 50.6643C56.7054 50.6643 55.5325 51.8347 55.5325 53.2785C55.5325 54.7223 56.7054 55.8927 58.1522 55.8927Z" fill="#9ABEE3"/>
<path d="M65.4848 55.8927C66.9316 55.8927 68.1045 54.7223 68.1045 53.2785C68.1045 51.8347 66.9316 50.6643 65.4848 50.6643C64.0379 50.6643 62.865 51.8347 62.865 53.2785C62.865 54.7223 64.0379 55.8927 65.4848 55.8927Z" fill="#9ABEE3"/>
<path d="M72.8175 55.8927C74.2644 55.8927 75.4373 54.7223 75.4373 53.2785C75.4373 51.8347 74.2644 50.6643 72.8175 50.6643C71.3707 50.6643 70.1978 51.8347 70.1978 53.2785C70.1978 54.7223 71.3707 55.8927 72.8175 55.8927Z" fill="#9ABEE3"/>
</g>
<g clip-path="url(#clip7_44062_16794)">
<path d="M155.758 108.37C160.67 108.37 164.652 104.394 164.652 99.4898C164.652 94.5852 160.67 90.6093 155.758 90.6093C150.846 90.6093 146.864 94.5852 146.864 99.4898C146.864 104.394 150.846 108.37 155.758 108.37Z" fill="white"/>
<path d="M155.758 109.012C153.872 109.012 152.028 108.454 150.46 107.407C148.892 106.361 147.669 104.874 146.947 103.134C146.226 101.394 146.037 99.4792 146.405 97.6321C146.773 95.7849 147.681 94.0881 149.015 92.7564C150.348 91.4246 152.048 90.5177 153.898 90.1503C155.748 89.7828 157.665 89.9714 159.408 90.6921C161.15 91.4129 162.64 92.6334 163.688 94.1994C164.735 95.7653 165.295 97.6064 165.295 99.4898C165.292 102.014 164.286 104.435 162.498 106.22C160.71 108.005 158.286 109.009 155.758 109.012ZM155.758 91.2512C154.126 91.2512 152.531 91.7344 151.174 92.6397C149.817 93.5449 148.76 94.8316 148.135 96.337C147.511 97.8424 147.347 99.4989 147.666 101.097C147.984 102.695 148.77 104.163 149.924 105.315C151.078 106.468 152.548 107.252 154.148 107.57C155.749 107.888 157.408 107.725 158.916 107.101C160.423 106.478 161.712 105.422 162.618 104.067C163.525 102.712 164.009 101.119 164.009 99.4898C164.006 97.3056 163.136 95.2115 161.59 93.667C160.043 92.1225 157.946 91.2537 155.758 91.2512Z" fill="#222433"/>
<path d="M156.401 94.5895V95.638C157.237 95.7021 158.042 95.9823 158.737 96.4512L158.116 97.4355C157.59 97.0996 156.998 96.8806 156.38 96.7936V98.9335C157.644 99.1046 158.801 99.6396 158.78 100.988C158.758 102.293 157.708 103.063 156.38 103.235V104.347H155.308V103.256C154.365 103.17 153.336 102.849 152.672 102.293L153.315 101.33C153.885 101.774 154.568 102.049 155.287 102.122V99.982L155.18 99.9606C153.979 99.7894 152.865 99.2544 152.908 97.8849C152.929 96.6224 153.937 95.8306 155.287 95.6594V94.5895H156.401ZM155.33 98.7623V96.815C154.622 96.9434 154.194 97.3071 154.172 97.8421C154.172 98.3557 154.558 98.6125 155.33 98.7623ZM156.401 100.132V102.079C157.087 101.951 157.558 101.587 157.58 101.052C157.58 100.581 157.151 100.303 156.401 100.132Z" fill="#9ABEE3"/>
<path d="M155.758 106.658C154.338 106.658 152.95 106.238 151.77 105.45C150.589 104.663 149.669 103.543 149.125 102.233C148.582 100.923 148.44 99.4818 148.717 98.0913C148.994 96.7007 149.678 95.4234 150.682 94.4208C151.686 93.4183 152.965 92.7355 154.358 92.4589C155.75 92.1823 157.194 92.3243 158.506 92.8668C159.817 93.4094 160.939 94.3282 161.727 95.5071C162.516 96.686 162.937 98.072 162.937 99.4898C162.935 101.39 162.178 103.212 160.832 104.556C159.486 105.9 157.662 106.656 155.758 106.658ZM155.758 93.6051C154.593 93.6051 153.453 93.9502 152.484 94.5969C151.515 95.2435 150.759 96.1625 150.313 97.2378C149.867 98.3131 149.751 99.4963 149.978 100.638C150.205 101.779 150.767 102.828 151.591 103.651C152.415 104.474 153.465 105.034 154.608 105.261C155.752 105.488 156.937 105.372 158.013 104.927C159.09 104.481 160.011 103.727 160.658 102.759C161.306 101.791 161.652 100.654 161.652 99.4898C161.65 97.9296 161.028 96.4339 159.923 95.3307C158.819 94.2275 157.321 93.6069 155.758 93.6051Z" fill="#222433"/>
</g>
<g clip-path="url(#clip8_44062_16794)">
<path d="M236.056 38.9043C240.968 38.9043 244.95 34.9283 244.95 30.0237C244.95 25.1191 240.968 21.1432 236.056 21.1432C231.144 21.1432 227.162 25.1191 227.162 30.0237C227.162 34.9283 231.144 38.9043 236.056 38.9043Z" fill="white"/>
<path d="M236.056 39.5462C234.17 39.5462 232.326 38.9878 230.758 37.9414C229.19 36.8951 227.967 35.4079 227.245 33.6678C226.524 31.9278 226.335 30.0132 226.703 28.166C227.071 26.3188 227.979 24.6221 229.313 23.2903C230.646 21.9586 232.346 21.0516 234.196 20.6842C236.046 20.3168 237.963 20.5053 239.706 21.2261C241.448 21.9468 242.938 23.1673 243.986 24.7333C245.034 26.2993 245.593 28.1404 245.593 30.0237C245.59 32.5484 244.584 34.9688 242.796 36.754C241.009 38.5392 238.585 39.5434 236.056 39.5462ZM236.056 21.7852C234.424 21.7852 232.829 22.2683 231.472 23.1736C230.115 24.0789 229.058 25.3656 228.433 26.871C227.809 28.3764 227.646 30.0329 227.964 31.631C228.282 33.2291 229.068 34.6971 230.222 35.8493C231.376 37.0015 232.846 37.7861 234.447 38.104C236.047 38.4219 237.706 38.2587 239.214 37.6352C240.721 37.0116 242.01 35.9557 242.916 34.6008C243.823 33.246 244.307 31.6532 244.307 30.0237C244.305 27.8395 243.434 25.7454 241.888 24.2009C240.341 22.6564 238.244 21.7877 236.056 21.7852Z" fill="#222433"/>
<path d="M236.699 25.1234V26.172C237.535 26.2361 238.34 26.5163 239.035 26.9851L238.414 27.9695C237.888 27.6335 237.296 27.4146 236.678 27.3275V29.4674C237.942 29.6386 239.099 30.1736 239.078 31.5217C239.057 32.827 238.006 33.5974 236.678 33.7686V34.8813H235.606V33.79C234.663 33.7044 233.635 33.3834 232.97 32.827L233.613 31.8641C234.183 32.308 234.866 32.5824 235.585 32.6558V30.5159L235.478 30.4945C234.277 30.3233 233.163 29.7884 233.206 28.4188C233.227 27.1563 234.235 26.3645 235.585 26.1934V25.1234H236.699ZM235.628 29.2962V27.3489C234.92 27.4773 234.492 27.8411 234.47 28.376C234.47 28.8896 234.856 29.1464 235.628 29.2962ZM236.699 30.6657V32.613C237.385 32.4846 237.856 32.1209 237.878 31.5859C237.878 31.1151 237.449 30.8369 236.699 30.6657Z" fill="#9ABEE3"/>
<path d="M236.056 37.1924C234.636 37.1924 233.248 36.7719 232.068 35.9842C230.887 35.1965 229.967 34.0769 229.423 32.7671C228.88 31.4572 228.738 30.0158 229.015 28.6252C229.292 27.2346 229.976 25.9573 230.98 24.9547C231.984 23.9522 233.263 23.2695 234.656 22.9928C236.048 22.7162 237.492 22.8582 238.804 23.4008C240.115 23.9434 241.237 24.8622 242.026 26.0411C242.814 27.2199 243.236 28.6059 243.236 30.0237C243.233 31.9243 242.476 33.7464 241.13 35.0903C239.784 36.4343 237.96 37.1902 236.056 37.1924ZM236.056 24.139C234.891 24.139 233.751 24.4842 232.782 25.1308C231.813 25.7774 231.057 26.6965 230.611 27.7718C230.165 28.847 230.049 30.0303 230.276 31.1718C230.503 32.3133 231.065 33.3619 231.889 34.1848C232.713 35.0078 233.763 35.5683 234.906 35.7954C236.05 36.0224 237.235 35.9059 238.312 35.4605C239.388 35.0151 240.309 34.2608 240.956 33.2931C241.604 32.3254 241.95 31.1876 241.95 30.0237C241.948 28.4636 241.326 26.9678 240.222 25.8646C239.117 24.7614 237.619 24.1409 236.056 24.139Z" fill="#222433"/>
</g>
<g clip-path="url(#clip9_44062_16794)">
<path d="M125.675 121.411H107.19C102.168 121.411 97.3515 123.407 93.8004 126.96C90.2492 130.512 88.2542 135.33 88.2542 140.354C88.2542 145.378 90.2492 150.196 93.8004 153.749C97.3515 157.301 102.168 159.297 107.19 159.297H125.675C130.697 159.297 135.514 157.301 139.065 153.749C142.616 150.196 144.611 145.378 144.611 140.354C144.611 135.33 142.616 130.512 139.065 126.96C135.514 123.407 130.697 121.411 125.675 121.411Z" fill="#9AE2E0"/>
<path d="M134.559 150.221L126.127 158.656L135.85 168.383L144.283 159.947L134.559 150.221Z" fill="#9AE2E0"/>
<path d="M110.366 155.125C114.947 150.543 98.4829 150.415 98.399 150.302L88.7507 159.954L97.1831 168.389L110.404 155.163C110.379 155.162 110.348 155.142 110.366 155.125Z" fill="#9AE2E0"/>
<path d="M135.211 114.24H134.918C132.634 114.24 130.444 115.148 128.829 116.763C127.214 118.379 126.306 120.57 126.306 122.855V129.237H135.211V114.24Z" fill="#9AE2E0"/>
<path d="M132.956 135.889C133.766 135.889 134.422 135.233 134.422 134.423C134.422 133.614 133.766 132.958 132.956 132.958C132.147 132.958 131.491 133.614 131.491 134.423C131.491 135.233 132.147 135.889 132.956 135.889Z" fill="#222433"/>
<path d="M135.211 129.913C135.031 129.913 134.859 129.842 134.733 129.715C134.606 129.588 134.534 129.416 134.534 129.237V124.005C134.534 123.825 134.606 123.653 134.733 123.527C134.859 123.4 135.031 123.328 135.211 123.328C135.39 123.328 135.562 123.4 135.689 123.527C135.816 123.653 135.887 123.825 135.887 124.005V129.237C135.887 129.416 135.816 129.588 135.689 129.715C135.562 129.842 135.39 129.913 135.211 129.913Z" fill="#222433"/>
<path d="M126.239 124.005H104.688C104.508 124.005 104.336 123.934 104.21 123.807C104.083 123.68 104.011 123.508 104.011 123.328C104.011 123.149 104.083 122.977 104.21 122.85C104.336 122.723 104.508 122.652 104.688 122.652H126.239C126.418 122.652 126.59 122.723 126.717 122.85C126.844 122.977 126.915 123.149 126.915 123.328C126.915 123.508 126.844 123.68 126.717 123.807C126.59 123.934 126.418 124.005 126.239 124.005Z" fill="#222433"/>
<path d="M148.092 134.604H140.833V146.105H148.092V134.604Z" fill="#9AE2E0"/>
<path d="M144.011 137.289C143.857 137.289 143.708 137.236 143.588 137.14C143.468 137.043 143.385 136.909 143.352 136.759C143.241 136.263 143.076 135.537 142.912 134.975C142.886 134.889 142.877 134.799 142.886 134.71C142.895 134.621 142.922 134.535 142.965 134.457C143.007 134.378 143.065 134.309 143.135 134.252C143.204 134.196 143.284 134.155 143.37 134.13C143.456 134.105 143.546 134.097 143.634 134.107C143.723 134.117 143.809 134.144 143.887 134.188C143.965 134.231 144.034 134.289 144.09 134.359C144.145 134.43 144.186 134.51 144.21 134.596C144.385 135.196 144.558 135.949 144.672 136.465C144.711 136.641 144.679 136.824 144.582 136.975C144.486 137.127 144.334 137.234 144.159 137.273C144.11 137.283 144.061 137.289 144.011 137.289Z" fill="#222433"/>
</g>
<g clip-path="url(#clip10_44062_16794)">
<path d="M117.799 98.9716C123.193 98.9716 127.565 94.6059 127.565 89.2204C127.565 83.835 123.193 79.4692 117.799 79.4692C112.406 79.4692 108.033 83.835 108.033 89.2204C108.033 94.6059 112.406 98.9716 117.799 98.9716Z" fill="white"/>
<path d="M117.799 99.6765C115.728 99.6765 113.703 99.0632 111.981 97.9143C110.259 96.7654 108.917 95.1324 108.125 93.2218C107.332 91.3112 107.125 89.2088 107.529 87.1805C107.933 85.1522 108.93 83.2891 110.394 81.8268C111.859 80.3645 113.725 79.3686 115.756 78.9652C117.787 78.5617 119.893 78.7688 121.806 79.5602C123.72 80.3516 125.355 81.6918 126.506 83.4113C127.656 85.1308 128.271 87.1524 128.271 89.2204C128.267 91.9925 127.163 94.6503 125.2 96.6105C123.237 98.5707 120.575 99.6733 117.799 99.6765ZM117.799 80.1741C116.007 80.1741 114.256 80.7047 112.766 81.6987C111.276 82.6927 110.115 84.1055 109.429 85.7585C108.743 87.4115 108.564 89.2304 108.913 90.9852C109.263 92.74 110.126 94.3519 111.393 95.6171C112.66 96.8822 114.274 97.7438 116.032 98.0929C117.789 98.4419 119.611 98.2628 121.266 97.5781C122.921 96.8934 124.336 95.7339 125.332 94.2462C126.327 92.7586 126.859 91.0096 126.859 89.2204C126.856 86.822 125.901 84.5226 124.202 82.8267C122.504 81.1308 120.201 80.1768 117.799 80.1741Z" fill="#222433"/>
<path d="M118.505 83.8396V84.9909C119.423 85.0613 120.307 85.369 121.07 85.8838L120.387 86.9647C119.81 86.5958 119.16 86.3554 118.481 86.2598V88.6095C119.87 88.7974 121.14 89.3849 121.117 90.8652C121.093 92.2985 119.94 93.1444 118.481 93.3323V94.5542H117.305V93.3558C116.269 93.2618 115.14 92.9094 114.41 92.2985L115.116 91.2411C115.742 91.7286 116.492 92.0299 117.281 92.1105V89.7608L117.164 89.7373C115.846 89.5493 114.622 88.9619 114.669 87.4581C114.693 86.0718 115.799 85.2024 117.281 85.0144V83.8396H118.505ZM117.328 88.4215V86.2833C116.552 86.4243 116.081 86.8237 116.058 87.4111C116.058 87.975 116.481 88.257 117.328 88.4215ZM118.505 89.9253V92.0635C119.258 91.9225 119.776 91.5231 119.799 90.9356C119.799 90.4187 119.329 90.1133 118.505 89.9253Z" fill="#9ABEE3"/>
<path d="M117.799 97.0918C116.24 97.0918 114.716 96.6301 113.419 95.7652C112.123 94.9003 111.112 93.6709 110.516 92.2326C109.919 90.7943 109.763 89.2116 110.067 87.6847C110.371 86.1578 111.122 84.7552 112.225 83.6544C113.327 82.5535 114.732 81.8038 116.261 81.5001C117.79 81.1964 119.375 81.3523 120.816 81.9481C122.256 82.5438 123.487 83.5527 124.353 84.8472C125.22 86.1416 125.682 87.6635 125.682 89.2203C125.68 91.3072 124.848 93.308 123.37 94.7837C121.893 96.2593 119.889 97.0894 117.799 97.0918ZM117.799 82.7587C116.519 82.7587 115.268 83.1377 114.204 83.8477C113.139 84.5577 112.31 85.5669 111.82 86.7476C111.33 87.9283 111.202 89.2275 111.452 90.4809C111.702 91.7344 112.318 92.8857 113.223 93.7894C114.128 94.6931 115.281 95.3085 116.536 95.5578C117.792 95.8071 119.093 95.6792 120.275 95.1901C121.458 94.701 122.468 93.8728 123.18 92.8102C123.891 91.7476 124.27 90.4983 124.27 89.2203C124.268 87.5072 123.586 85.8648 122.373 84.6535C121.159 83.4421 119.515 82.7607 117.799 82.7587Z" fill="#222433"/>
</g>
<g clip-path="url(#clip11_44062_16794)">
<path d="M81.7088 107.598C86.8133 107.598 90.9513 103.466 90.9513 98.3694C90.9513 93.2725 86.8133 89.1406 81.7088 89.1406C76.6043 89.1406 72.4663 93.2725 72.4663 98.3694C72.4663 103.466 76.6043 107.598 81.7088 107.598Z" fill="white"/>
<path d="M81.7087 108.265C79.7486 108.265 77.8325 107.685 76.2027 106.598C74.5729 105.51 73.3026 103.965 72.5525 102.156C71.8024 100.348 71.6061 98.3585 71.9885 96.4389C72.3709 94.5192 73.3148 92.7559 74.7009 91.372C76.0869 89.988 77.8528 89.0455 79.7753 88.6637C81.6977 88.2818 83.6904 88.4778 85.5014 89.2268C87.3123 89.9758 88.8601 91.2442 89.9491 92.8716C91.0381 94.499 91.6194 96.4122 91.6194 98.3695C91.6164 100.993 90.5712 103.508 88.7133 105.364C86.8553 107.219 84.3363 108.262 81.7087 108.265ZM81.7087 89.8078C80.0129 89.8078 78.3551 90.3099 76.9451 91.2507C75.535 92.1915 74.436 93.5286 73.7871 95.0931C73.1381 96.6575 72.9683 98.379 73.2991 100.04C73.63 101.701 74.4466 103.226 75.6457 104.423C76.8449 105.621 78.3727 106.436 80.036 106.767C81.6992 107.097 83.4232 106.927 84.99 106.279C86.5568 105.631 87.8959 104.534 88.8381 103.126C89.7802 101.718 90.2831 100.063 90.2831 98.3695C90.2805 96.0996 89.3763 93.9234 87.7689 92.3183C86.1614 90.7133 83.982 89.8104 81.7087 89.8078Z" fill="#222433"/>
<path d="M82.3769 93.277V94.3666C83.2458 94.4332 84.0824 94.7245 84.8044 95.2117L84.1586 96.2346C83.6122 95.8855 82.9969 95.658 82.3546 95.5675V97.7913C83.6686 97.9692 84.8712 98.5252 84.849 99.9262C84.8267 101.283 83.7354 102.083 82.3546 102.261V103.418H81.2411V102.283C80.2611 102.194 79.1921 101.861 78.5017 101.283L79.1698 100.282C79.7617 100.743 80.4719 101.029 81.2188 101.105V98.881L81.1074 98.8587C79.8602 98.6808 78.7021 98.1249 78.7467 96.7016C78.769 95.3896 79.8157 94.5668 81.2188 94.3889V93.277H82.3769ZM81.2633 97.6134V95.5897C80.5284 95.7232 80.083 96.1012 80.0607 96.6572C80.0607 97.1909 80.4616 97.4577 81.2633 97.6134ZM82.3769 99.0366V101.06C83.0896 100.927 83.5795 100.549 83.6018 99.9929C83.6018 99.5036 83.1564 99.2145 82.3769 99.0366Z" fill="#9ABEE3"/>
<path d="M81.7086 105.819C80.233 105.819 78.7905 105.382 77.5636 104.564C76.3367 103.745 75.3804 102.582 74.8157 101.22C74.251 99.8591 74.1033 98.3612 74.3912 96.9161C74.679 95.471 75.3896 94.1435 76.433 93.1017C77.4764 92.0598 78.8058 91.3503 80.2531 91.0628C81.7003 90.7754 83.2005 90.9229 84.5637 91.4868C85.927 92.0506 87.0922 93.0055 87.9121 94.2306C88.7319 95.4557 89.1694 96.896 89.1694 98.3694C89.1672 100.345 88.3804 102.238 86.9817 103.635C85.583 105.031 83.6867 105.817 81.7086 105.819ZM81.7086 92.254C80.4973 92.254 79.3132 92.6126 78.306 93.2846C77.2988 93.9566 76.5138 94.9117 76.0503 96.0291C75.5867 97.1466 75.4654 98.3762 75.7018 99.5625C75.9381 100.749 76.5214 101.838 77.3779 102.694C78.2344 103.549 79.3257 104.131 80.5138 104.367C81.7018 104.603 82.9333 104.482 84.0524 104.019C85.1715 103.557 86.128 102.773 86.801 101.767C87.474 100.761 87.8332 99.579 87.8332 98.3694C87.8313 96.7481 87.1854 95.1937 86.0372 94.0472C84.8891 92.9008 83.3324 92.2558 81.7086 92.254Z" fill="#222433"/>
</g>
<g clip-path="url(#clip12_44062_16794)">
<path d="M52.9214 263.613C52.7062 263.613 52.4998 263.528 52.3476 263.377C52.1954 263.225 52.1099 263.02 52.1099 262.806V227.112C52.1099 226.898 52.1954 226.693 52.3476 226.541C52.4998 226.39 52.7062 226.305 52.9214 226.305C53.1367 226.305 53.3431 226.39 53.4953 226.541C53.6475 226.693 53.733 226.898 53.733 227.112V262.806C53.733 263.02 53.6475 263.225 53.4953 263.377C53.3431 263.528 53.1367 263.613 52.9214 263.613Z" fill="#222433"/>
<path d="M58.6198 227.265H47.2232C46.3016 227.253 45.4217 226.881 44.774 226.229C44.1264 225.577 43.7632 224.697 43.7632 223.78C43.7632 222.863 44.1264 221.983 44.774 221.331C45.4217 220.679 46.3016 220.307 47.2232 220.295H58.6198C59.5414 220.307 60.4213 220.679 61.069 221.331C61.7166 221.983 62.0798 222.863 62.0798 223.78C62.0798 224.697 61.7166 225.577 61.069 226.229C60.4213 226.881 59.5414 227.253 58.6198 227.265ZM47.2232 223.091C47.0394 223.091 46.8631 223.163 46.7331 223.293C46.6031 223.422 46.5301 223.597 46.5301 223.78C46.5301 223.963 46.6031 224.138 46.7331 224.268C46.8631 224.397 47.0394 224.47 47.2232 224.47H58.6198C58.8036 224.47 58.9799 224.397 59.1099 224.268C59.2398 224.138 59.3129 223.963 59.3129 223.78C59.3129 223.597 59.2398 223.422 59.1099 223.293C58.9799 223.163 58.8036 223.091 58.6198 223.091H47.2232Z" fill="#0782D0"/>
<path d="M59.6014 239.904C57.8687 239.904 52.9214 236.763 52.9214 236.763C52.9214 236.763 57.869 233.622 59.6014 233.622C60.4388 233.622 61.2418 233.953 61.8339 234.542C62.426 235.131 62.7587 235.93 62.7587 236.763C62.7587 237.596 62.426 238.395 61.8339 238.984C61.2418 239.573 60.4388 239.904 59.6014 239.904Z" fill="white"/>
<path d="M59.6015 240.711C57.7268 240.711 53.3443 237.989 52.4849 237.444C52.3699 237.371 52.2753 237.27 52.2098 237.151C52.1442 237.032 52.1099 236.899 52.1099 236.763C52.1099 236.627 52.1442 236.494 52.2098 236.375C52.2753 236.256 52.3699 236.155 52.4849 236.082C53.3446 235.537 57.7271 232.815 59.6015 232.815C60.6541 232.815 61.6636 233.231 62.4079 233.971C63.1522 234.712 63.5704 235.716 63.5704 236.763C63.5704 237.81 63.1522 238.814 62.4079 239.555C61.6636 240.295 60.6541 240.711 59.6015 240.711ZM54.4721 236.764C56.3809 237.889 58.7483 239.097 59.6015 239.097C60.2236 239.097 60.8203 238.851 61.2602 238.413C61.7001 237.976 61.9472 237.382 61.9472 236.764C61.9472 236.145 61.7001 235.551 61.2602 235.114C60.8203 234.676 60.2236 234.43 59.6015 234.43C58.7478 234.43 56.3804 235.637 54.4721 236.764Z" fill="#222433"/>
<path d="M46.222 239.904C47.9547 239.904 52.902 236.763 52.902 236.763C52.902 236.763 47.9544 233.622 46.222 233.622C45.3846 233.622 44.5815 233.953 43.9894 234.542C43.3973 235.131 43.0647 235.93 43.0647 236.763C43.0647 237.596 43.3973 238.395 43.9894 238.984C44.5815 239.573 45.3846 239.904 46.222 239.904Z" fill="white"/>
<path d="M46.222 240.711C45.1694 240.711 44.1599 240.295 43.4156 239.555C42.6713 238.814 42.2532 237.81 42.2532 236.763C42.2532 235.716 42.6713 234.712 43.4156 233.971C44.1599 233.231 45.1694 232.815 46.222 232.815C48.0965 232.815 52.4789 235.537 53.3387 236.082C53.4536 236.155 53.5482 236.256 53.6138 236.375C53.6793 236.494 53.7137 236.627 53.7137 236.763C53.7137 236.899 53.6793 237.032 53.6138 237.151C53.5482 237.27 53.4536 237.371 53.3387 237.444C52.4789 237.989 48.0965 240.711 46.222 240.711ZM46.222 234.43C45.5999 234.43 45.0033 234.676 44.5634 235.113C44.1234 235.551 43.8763 236.144 43.8763 236.763C43.8763 237.382 44.1234 237.975 44.5634 238.413C45.0033 238.85 45.5999 239.096 46.222 239.096C47.0752 239.096 49.4426 237.889 51.3511 236.763C49.4426 235.637 47.075 234.43 46.222 234.43Z" fill="#222433"/>
</g>
<g clip-path="url(#clip13_44062_16794)">
<path d="M7.58671 183.268L16.6329 188.665L22.0512 179.654C22.8942 178.257 23.4527 176.709 23.6948 175.097C23.937 173.485 23.858 171.842 23.4625 170.261C23.067 168.679 22.3626 167.191 21.3897 165.881C20.4167 164.571 19.1942 163.464 17.7919 162.625L17.7581 162.604L8.71186 157.208L3.29359 166.218C2.45063 167.615 1.89213 169.163 1.64998 170.775C1.40782 172.387 1.48676 174.03 1.88228 175.611C2.2778 177.193 2.98215 178.681 3.95512 179.991C4.9281 181.302 6.15064 182.408 7.55294 183.248L7.58671 183.268Z" fill="white"/>
<path d="M16.633 189.429C16.7656 189.429 16.896 189.395 17.0113 189.33C17.1267 189.265 17.2232 189.171 17.2913 189.058L22.7096 180.047C24.5165 177.053 25.0552 173.466 24.2072 170.075C23.3592 166.685 21.1938 163.769 18.1875 161.969L18.1532 161.949L9.10622 156.552C8.93162 156.448 8.72267 156.417 8.52531 156.466C8.32795 156.515 8.15832 156.641 8.05372 156.815L2.63545 165.825C0.828571 168.82 0.289909 172.407 1.13795 175.797C1.98599 179.187 4.15128 182.103 7.15754 183.903L7.19182 183.923L16.2386 189.321C16.3578 189.392 16.4941 189.429 16.633 189.429ZM8.976 158.256L17.3929 163.276C18.7095 164.064 19.8574 165.102 20.771 166.332C21.6847 167.561 22.3462 168.958 22.7177 170.442C23.0892 171.927 23.1634 173.469 22.9362 174.982C22.7089 176.495 22.1847 177.949 21.3933 179.26L16.369 187.615L7.94806 182.592C5.2907 181.001 3.37679 178.423 2.62734 175.426C1.87788 172.43 2.35427 169.259 3.95171 166.612L8.976 158.256Z" fill="#222433"/>
<path d="M35.5012 264.36C35.5644 264.36 35.6273 264.352 35.6885 264.337C35.7863 264.312 35.8782 264.269 35.9592 264.209C36.0401 264.149 36.1084 264.074 36.1602 263.988C36.212 263.902 36.2463 263.807 36.261 263.707C36.2758 263.608 36.2707 263.507 36.2462 263.409L13.7181 173.946C13.6686 173.749 13.5426 173.58 13.368 173.476C13.1933 173.372 12.9842 173.341 12.7868 173.39C12.5893 173.439 12.4196 173.565 12.3149 173.739C12.2103 173.913 12.1794 174.121 12.2289 174.318L34.7568 263.781C34.7983 263.946 34.8941 264.093 35.029 264.198C35.1639 264.303 35.3301 264.36 35.5012 264.36Z" fill="#222433"/>
<path d="M8.71143 157.973C8.77457 157.972 8.83746 157.965 8.8987 157.949C8.99647 157.925 9.08845 157.882 9.16939 157.822C9.25033 157.762 9.31865 157.687 9.37044 157.601C9.42223 157.515 9.45648 157.419 9.47123 157.32C9.48598 157.22 9.48095 157.119 9.45642 157.022L7.41283 148.906C7.3633 148.709 7.23736 148.54 7.06272 148.436C6.88808 148.332 6.67905 148.301 6.4816 148.35C6.28415 148.4 6.11447 148.525 6.00988 148.699C5.90529 148.873 5.87435 149.081 5.92389 149.278L7.96747 157.394C8.00903 157.559 8.10479 157.706 8.23957 157.811C8.37435 157.915 8.54042 157.972 8.71143 157.973Z" fill="#222433"/>
<path d="M8.71295 157.973C8.89323 157.972 9.06766 157.909 9.20566 157.793C9.34365 157.678 9.43641 157.517 9.46765 157.341L10.9223 149.12C10.9417 149.02 10.9409 148.918 10.9201 148.818C10.8993 148.719 10.8588 148.625 10.8011 148.541C10.7434 148.458 10.6695 148.387 10.5838 148.332C10.4982 148.277 10.4024 148.239 10.3021 148.222C10.2018 148.204 10.099 148.207 9.99961 148.229C9.90027 148.251 9.80638 148.293 9.72343 148.352C9.64048 148.411 9.57012 148.486 9.51646 148.572C9.46279 148.658 9.42689 148.754 9.41086 148.854L7.9562 157.075C7.93672 157.185 7.94169 157.298 7.97074 157.406C7.9998 157.514 8.05225 157.614 8.12439 157.7C8.19653 157.785 8.28661 157.854 8.38829 157.901C8.48998 157.948 8.6008 157.973 8.71295 157.973Z" fill="#222433"/>
<path d="M8.71255 157.972C8.85676 157.972 8.99804 157.932 9.12019 157.855C9.24234 157.779 9.34042 157.67 9.4032 157.541C9.46597 157.411 9.4909 157.267 9.47513 157.124C9.45936 156.981 9.40352 156.846 9.31401 156.733L4.10451 150.177C3.97566 150.026 3.79293 149.931 3.59487 149.911C3.39681 149.892 3.1989 149.95 3.04291 150.073C2.88692 150.196 2.78504 150.375 2.75877 150.571C2.7325 150.768 2.78389 150.967 2.9021 151.126L8.11032 157.682C8.18212 157.773 8.27363 157.846 8.37795 157.896C8.48227 157.946 8.59668 157.972 8.71255 157.972Z" fill="#222433"/>
<path d="M18.1141 200.654C14.7512 200.654 12.025 197.939 12.025 194.589C12.025 191.24 14.7512 188.524 18.1141 188.524C21.477 188.524 24.2031 191.24 24.2031 194.589C24.2031 197.939 21.477 200.654 18.1141 200.654Z" fill="white"/>
<path d="M18.1142 201.419C19.4702 201.419 20.7958 201.018 21.9233 200.268C23.0508 199.518 23.9296 198.451 24.4486 197.203C24.9675 195.955 25.1033 194.582 24.8387 193.257C24.5742 191.933 23.9212 190.716 22.9623 189.761C22.0034 188.806 20.7817 188.155 19.4518 187.892C18.1218 187.628 16.7432 187.763 15.4904 188.28C14.2375 188.797 13.1667 189.673 12.4134 190.796C11.66 191.919 11.2579 193.239 11.2579 194.59C11.26 196.4 11.9831 198.136 13.2684 199.416C14.5537 200.697 16.2964 201.417 18.1142 201.419ZM18.1142 189.289C19.1666 189.289 20.1954 189.6 21.0705 190.183C21.9456 190.765 22.6276 191.593 23.0304 192.561C23.4332 193.53 23.5385 194.596 23.3332 195.624C23.1279 196.652 22.6211 197.596 21.8769 198.338C21.1327 199.079 20.1845 199.584 19.1523 199.788C18.1201 199.993 17.0501 199.888 16.0778 199.487C15.1054 199.085 14.2744 198.406 13.6896 197.534C13.1049 196.663 12.7928 195.638 12.7928 194.59C12.7943 193.184 13.3554 191.837 14.353 190.843C15.3506 189.85 16.7033 189.291 18.1142 189.289V189.289Z" fill="#222433"/>
</g>
<g clip-path="url(#clip14_44062_16794)">
<path d="M408.899 135.68C413.012 136.331 416.873 133.544 417.523 129.456C418.173 125.368 415.366 121.526 411.253 120.875C407.139 120.224 403.278 123.01 402.628 127.099C401.978 131.187 404.785 135.029 408.899 135.68Z" fill="white"/>
<path d="M408.778 136.438C407.154 136.181 405.643 135.451 404.435 134.341C403.228 133.23 402.378 131.789 401.994 130.2C401.609 128.61 401.708 126.944 402.276 125.411C402.845 123.878 403.858 122.548 405.187 121.588C406.517 120.629 408.104 120.083 409.746 120.02C411.389 119.957 413.014 120.38 414.416 121.235C415.818 122.09 416.934 123.339 417.623 124.824C418.312 126.309 418.543 127.963 418.286 129.577C417.94 131.74 416.744 133.677 414.962 134.963C413.179 136.25 410.955 136.78 408.778 136.438ZM411.132 121.633C409.81 121.423 408.455 121.609 407.24 122.165C406.024 122.721 405.003 123.623 404.303 124.757C403.604 125.891 403.26 127.206 403.313 128.536C403.366 129.866 403.814 131.151 404.601 132.228C405.389 133.305 406.479 134.126 407.735 134.588C408.991 135.05 410.356 135.131 411.658 134.821C412.959 134.512 414.139 133.825 415.047 132.849C415.956 131.872 416.552 130.65 416.761 129.335C417.039 127.573 416.603 125.773 415.547 124.329C414.492 122.885 412.904 121.915 411.132 121.633Z" fill="#222433"/>
<path d="M414.268 152.718C418.382 153.369 422.243 150.582 422.893 146.494C423.543 142.406 420.736 138.564 416.622 137.913C412.509 137.262 408.647 140.048 407.997 144.137C407.347 148.225 410.155 152.067 414.268 152.718Z" fill="white"/>
<path d="M414.148 153.476C412.524 153.219 411.013 152.489 409.805 151.379C408.597 150.268 407.748 148.827 407.363 147.238C406.979 145.648 407.077 143.982 407.646 142.449C408.214 140.916 409.227 139.586 410.557 138.626C411.887 137.666 413.473 137.121 415.116 137.058C416.759 136.995 418.384 137.418 419.786 138.273C421.188 139.128 422.304 140.377 422.993 141.862C423.682 143.347 423.912 145.001 423.656 146.615C423.309 148.778 422.114 150.715 420.331 152.001C418.549 153.288 416.325 153.818 414.148 153.476ZM416.502 138.67C415.179 138.461 413.825 138.646 412.609 139.203C411.394 139.759 410.372 140.661 409.673 141.795C408.974 142.929 408.629 144.244 408.682 145.574C408.735 146.904 409.184 148.188 409.971 149.266C410.758 150.343 411.849 151.164 413.105 151.626C414.361 152.088 415.726 152.169 417.028 151.859C418.329 151.549 419.509 150.863 420.417 149.887C421.325 148.91 421.922 147.687 422.131 146.373C422.409 144.611 421.972 142.811 420.917 141.367C419.862 139.923 418.274 138.953 416.502 138.67Z" fill="#222433"/>
<path d="M399.334 150.769C403.447 151.42 407.309 148.633 407.959 144.545C408.609 140.456 405.801 136.614 401.688 135.963C397.574 135.312 393.713 138.099 393.063 142.188C392.413 146.276 395.22 150.118 399.334 150.769Z" fill="white"/>
<path d="M399.213 151.527C397.589 151.27 396.078 150.54 394.87 149.43C393.663 148.319 392.813 146.878 392.429 145.289C392.044 143.699 392.143 142.033 392.711 140.5C393.28 138.967 394.293 137.636 395.622 136.677C396.952 135.717 398.539 135.172 400.181 135.109C401.824 135.046 403.449 135.469 404.851 136.324C406.253 137.179 407.369 138.428 408.058 139.913C408.747 141.397 408.978 143.051 408.721 144.665C408.375 146.829 407.179 148.766 405.397 150.052C403.614 151.339 401.39 151.869 399.213 151.527ZM401.567 136.721C400.245 136.512 398.89 136.697 397.675 137.253C396.459 137.81 395.438 138.712 394.739 139.846C394.04 140.98 393.695 142.295 393.748 143.625C393.801 144.955 394.249 146.239 395.036 147.317C395.824 148.394 396.914 149.215 398.17 149.677C399.426 150.138 400.791 150.22 402.093 149.91C403.395 149.6 404.574 148.914 405.482 147.937C406.391 146.961 406.987 145.738 407.196 144.424C407.474 142.662 407.038 140.862 405.982 139.418C404.927 137.974 403.339 137.004 401.567 136.721Z" fill="#222433"/>
<path d="M412.111 169.238C416.224 169.889 420.086 167.102 420.736 163.014C421.386 158.926 418.578 155.084 414.465 154.433C410.351 153.782 406.49 156.568 405.84 160.657C405.19 164.745 407.998 168.587 412.111 169.238Z" fill="white"/>
<path d="M411.99 169.996C410.366 169.739 408.855 169.009 407.648 167.899C406.44 166.788 405.59 165.347 405.206 163.758C404.821 162.168 404.92 160.502 405.488 158.969C406.057 157.436 407.07 156.106 408.4 155.146C409.729 154.187 411.316 153.641 412.959 153.578C414.601 153.515 416.226 153.938 417.628 154.793C419.031 155.648 420.147 156.897 420.835 158.382C421.524 159.867 421.755 161.521 421.498 163.135C421.152 165.298 419.956 167.235 418.174 168.522C416.391 169.808 414.168 170.338 411.99 169.996ZM414.344 155.191C413.022 154.981 411.667 155.167 410.452 155.723C409.237 156.279 408.215 157.181 407.516 158.315C406.817 159.449 406.472 160.764 406.525 162.094C406.578 163.424 407.026 164.709 407.814 165.786C408.601 166.863 409.691 167.684 410.947 168.146C412.203 168.608 413.569 168.689 414.87 168.379C416.172 168.07 417.351 167.383 418.259 166.407C419.168 165.43 419.764 164.208 419.973 162.893C420.251 161.131 419.815 159.331 418.759 157.887C417.704 156.443 416.116 155.473 414.344 155.191Z" fill="#222433"/>
<path d="M397.155 167.26C401.268 167.911 405.13 165.124 405.78 161.036C406.43 156.947 403.622 153.105 399.509 152.454C395.396 151.803 391.534 154.59 390.884 158.678C390.234 162.767 393.042 166.609 397.155 167.26Z" fill="white"/>
<path d="M397.034 168.018C395.41 167.761 393.899 167.031 392.691 165.92C391.484 164.81 390.634 163.369 390.25 161.78C389.865 160.19 389.964 158.523 390.532 156.991C391.101 155.458 392.114 154.127 393.443 153.168C394.773 152.208 396.36 151.662 398.002 151.6C399.645 151.537 401.27 151.96 402.672 152.815C404.074 153.67 405.19 154.919 405.879 156.404C406.568 157.888 406.799 159.542 406.542 161.156C406.196 163.32 405 165.257 403.218 166.543C401.435 167.829 399.211 168.36 397.034 168.018ZM399.388 153.212C398.066 153.003 396.711 153.188 395.496 153.744C394.28 154.3 393.259 155.203 392.56 156.337C391.861 157.471 391.516 158.786 391.569 160.116C391.622 161.445 392.07 162.73 392.857 163.807C393.645 164.885 394.735 165.706 395.991 166.168C397.247 166.629 398.613 166.71 399.914 166.401C401.216 166.091 402.395 165.405 403.303 164.428C404.212 163.452 404.808 162.229 405.017 160.915C405.295 159.153 404.859 157.352 403.803 155.908C402.748 154.464 401.16 153.495 399.388 153.212Z" fill="#222433"/>
<path d="M395.156 241.953C394.957 241.921 394.779 241.814 394.658 241.654C394.537 241.493 394.485 241.293 394.511 241.094L408.859 131.676C408.872 131.576 408.905 131.48 408.956 131.392C409.006 131.305 409.074 131.228 409.154 131.167C409.316 131.043 409.522 130.988 409.725 131.015C409.928 131.041 410.112 131.147 410.237 131.308C410.362 131.47 410.418 131.674 410.391 131.876L396.042 241.295C396.029 241.395 395.996 241.491 395.946 241.578C395.895 241.666 395.828 241.742 395.747 241.804C395.667 241.865 395.575 241.91 395.477 241.936C395.379 241.962 395.277 241.969 395.177 241.956L395.156 241.953Z" fill="#222433"/>
</g>
<g clip-path="url(#clip15_44062_16794)">
<path d="M96.7898 265.48C97.1259 265.48 97.4182 265.229 97.4638 264.884L104.15 214.212C104.2 213.836 103.938 213.49 103.565 213.44C103.192 213.39 102.85 213.655 102.8 214.03L96.1139 264.703C96.0642 265.079 96.3263 265.424 96.699 265.474C96.7294 265.479 96.7598 265.48 96.7898 265.48Z" fill="#222433"/>
<path d="M103.475 220.27C100.108 220.27 97.379 217.517 97.379 214.121C97.379 210.725 100.108 207.972 103.475 207.972C106.842 207.972 109.572 210.725 109.572 214.121C109.572 217.517 106.842 220.27 103.475 220.27Z" fill="#9ABEE3"/>
</g>
<g clip-path="url(#clip16_44062_16794)">
<path d="M151.139 203.535C149.692 202.656 147.809 203.12 146.932 204.571C146.932 204.573 146.931 204.574 146.93 204.575C147.807 203.12 147.342 201.228 145.892 200.348C144.441 199.468 142.555 199.935 141.678 201.39L133.605 214.698L135.713 199.263C135.92 197.578 134.725 196.043 133.045 195.835C131.403 195.633 129.897 196.773 129.642 198.413C129.898 196.734 128.748 195.166 127.075 194.909C125.401 194.653 123.838 195.806 123.582 197.485C123.579 197.51 123.575 197.535 123.572 197.56L123.288 199.589L121.378 213.276C120.702 218.115 122.928 222.901 127.06 225.489L127.038 225.52C128.525 226.41 130.173 226.998 131.886 227.25V227.211C136.717 227.819 141.453 225.518 143.973 221.339L151.103 209.516L152.161 207.763C153.042 206.314 152.587 204.423 151.144 203.539C151.142 203.538 151.14 203.536 151.139 203.535Z" fill="white"/>
<path d="M133.419 228.026C132.96 228.026 132.499 228.001 132.036 227.952C131.954 227.97 131.868 227.973 131.783 227.96C129.967 227.694 128.247 227.08 126.671 226.137C126.597 226.093 126.533 226.037 126.48 225.971C122.241 223.207 119.965 218.212 120.669 213.176L122.874 197.377C123.189 195.309 125.121 193.884 127.183 194.199C128.428 194.389 129.439 195.172 129.975 196.218C130.77 195.409 131.917 194.972 133.133 195.122C135.202 195.378 136.678 197.275 136.423 199.351L134.781 211.377L141.066 201.016C142.145 199.226 144.476 198.65 146.262 199.733C147.341 200.387 147.978 201.5 148.075 202.673C148.26 202.595 148.452 202.531 148.651 202.482C149.631 202.24 150.646 202.396 151.51 202.921C151.512 202.922 151.514 202.924 151.516 202.925C151.517 202.926 151.519 202.927 151.52 202.927L151.519 202.928C153.299 204.033 153.854 206.36 152.772 208.137L144.585 221.711C142.205 225.658 137.942 228.025 133.419 228.026ZM131.886 226.492C131.916 226.492 131.946 226.494 131.975 226.498C136.52 227.07 140.989 224.899 143.36 220.967L151.548 207.39C152.224 206.28 151.874 204.828 150.77 204.152L151.139 203.535L150.768 204.15C150.232 203.824 149.601 203.727 148.992 203.877C148.385 204.027 147.871 204.404 147.547 204.941C147.546 204.943 147.544 204.945 147.543 204.947C147.339 205.286 146.899 205.395 146.561 205.19C146.249 205.002 146.132 204.613 146.274 204.288C146.286 204.259 146.301 204.231 146.318 204.203C146.989 203.089 146.631 201.636 145.521 200.963C144.411 200.289 142.962 200.648 142.291 201.761L134.217 215.071C134.04 215.362 133.685 215.489 133.365 215.375C133.046 215.261 132.85 214.938 132.895 214.6L135.003 199.165C135.079 198.55 134.908 197.933 134.522 197.437C134.136 196.941 133.581 196.625 132.958 196.548C131.693 196.391 130.547 197.26 130.35 198.524C130.289 198.915 129.923 199.184 129.533 199.123C129.143 199.063 128.875 198.696 128.934 198.305C129.13 197.02 128.247 195.815 126.967 195.62C125.687 195.423 124.486 196.309 124.29 197.594L123.997 199.689L122.087 213.376C121.451 217.929 123.551 222.445 127.439 224.881C127.499 224.919 127.553 224.965 127.6 225.018C128.894 225.762 130.293 226.261 131.764 226.504C131.804 226.496 131.845 226.492 131.886 226.492Z" fill="#222433"/>
<path d="M140.818 215.426C140.692 215.426 140.564 215.392 140.448 215.322C140.11 215.117 140.001 214.675 140.206 214.335L146.444 203.992C146.649 203.653 147.089 203.544 147.427 203.749C147.766 203.955 147.874 204.396 147.67 204.736L141.432 215.079C141.297 215.302 141.061 215.426 140.818 215.426Z" fill="#222433"/>
<path d="M116.27 264.36C116.19 264.36 116.109 264.347 116.03 264.319C115.657 264.186 115.463 263.775 115.595 263.401L130.524 221.263C130.656 220.889 131.066 220.694 131.438 220.827C131.811 220.96 132.006 221.371 131.873 221.745L116.945 263.882C116.84 264.177 116.564 264.36 116.27 264.36Z" fill="#222433"/>
<path d="M128.015 210.859C127.982 210.859 127.949 210.857 127.915 210.852C127.523 210.797 127.25 210.434 127.305 210.041L128.974 198.069C129.028 197.676 129.389 197.403 129.782 197.457C130.174 197.512 130.447 197.875 130.392 198.268L128.724 210.24C128.673 210.599 128.367 210.859 128.015 210.859Z" fill="#222433"/>
<path d="M129.387 227.338C129.307 227.338 129.226 227.325 129.147 227.296C128.774 227.163 128.58 226.753 128.712 226.379L132.937 214.457C133.07 214.083 133.48 213.888 133.852 214.021C134.225 214.154 134.42 214.565 134.287 214.938L130.062 226.86C129.958 227.154 129.682 227.338 129.387 227.338Z" fill="#222433"/>
</g>
<defs>
<clipPath id="clip0_44062_16794">
<rect width="19.0733" height="19.045" fill="white" transform="translate(203.968)"/>
</clipPath>
<clipPath id="clip1_44062_16794">
<rect width="390.784" height="61.662" fill="white" transform="matrix(0.988885 -0.148681 0.149315 0.98879 7.30005 263.486)"/>
</clipPath>
<clipPath id="clip2_44062_16794">
<rect width="16.0814" height="16.0576" fill="white" transform="translate(369.864 70.1753)"/>
</clipPath>
<clipPath id="clip3_44062_16794">
<rect width="222.148" height="225.553" fill="white" transform="translate(155.572 40.3007)"/>
</clipPath>
<clipPath id="clip4_44062_16794">
<rect width="19.0733" height="19.045" fill="white" transform="translate(215.243 48.1777)"/>
</clipPath>
<clipPath id="clip5_44062_16794">
<rect width="19.0733" height="19.045" fill="white" transform="translate(215.243 48.1777)"/>
</clipPath>
<clipPath id="clip6_44062_16794">
<rect width="133.513" height="141.904" fill="white" transform="translate(50.4817 44.7819)"/>
</clipPath>
<clipPath id="clip7_44062_16794">
<rect width="19.0733" height="19.045" fill="white" transform="translate(146.221 89.9673)"/>
</clipPath>
<clipPath id="clip8_44062_16794">
<rect width="19.0733" height="19.045" fill="white" transform="translate(226.52 20.5012)"/>
</clipPath>
<clipPath id="clip9_44062_16794">
<rect width="59.8379" height="54.1477" fill="white" transform="translate(88.2542 114.24)"/>
</clipPath>
<clipPath id="clip10_44062_16794">
<rect width="20.9432" height="20.9122" fill="white" transform="translate(107.327 78.7643)"/>
</clipPath>
<clipPath id="clip11_44062_16794">
<rect width="19.8213" height="19.7919" fill="white" transform="translate(71.7981 88.4735)"/>
</clipPath>
<clipPath id="clip12_44062_16794">
<rect width="21.3172" height="43.3182" fill="white" transform="translate(42.2532 220.295)"/>
</clipPath>
<clipPath id="clip13_44062_16794">
<rect width="35.5287" height="116.138" fill="white" transform="matrix(-1 0 0 1 36.269 148.223)"/>
</clipPath>
<clipPath id="clip14_44062_16794">
<rect width="32.1439" height="122.873" fill="white" transform="matrix(0.987708 0.15631 -0.157015 0.987596 396.172 117.711)"/>
</clipPath>
<clipPath id="clip15_44062_16794">
<rect width="13.4635" height="57.5086" fill="white" transform="matrix(-1 0 0 1 109.572 207.972)"/>
</clipPath>
<clipPath id="clip16_44062_16794">
<rect width="37.7726" height="70.2053" fill="white" transform="translate(115.554 194.155)"/>
</clipPath>
</defs>
</svg>
