<svg width="96" height="96" viewBox="0 0 96 96" fill="none" xmlns="http://www.w3.org/2000/svg">
<rect width="96" height="96" rx="6" fill="#E2ECF7"/>
<mask id="mask0_42234:8000" style="mask-type:alpha" maskUnits="userSpaceOnUse" x="0" y="0" width="96" height="96">
<rect width="96" height="96" rx="6" fill="#9ABEE3"/>
</mask>
<g mask="url(#mask0_42234:8000)">
<path d="M67.4468 28.7445C71.4191 24.2329 74.8949 20.2226 78.8672 16.2123C88.798 5.68517 104.687 4.68258 116.108 13.7058C123.556 19.7213 127.528 27.7419 128.521 36.7652C130.011 46.791 128.025 55.8142 122.563 63.8349C121.57 65.3387 121.073 66.3413 120.08 67.3439C102.701 87.3955 85.3222 107.447 67.9434 127.499L67.4468 128C66.9502 127.499 66.9503 127.499 66.4537 126.997C49.5714 107.447 32.1925 87.3955 15.3101 67.8452C7.86202 58.8219 4.88279 48.2948 6.37241 36.7652C7.36548 28.7445 10.8413 21.2251 16.7997 15.2097C27.7236 4.18127 46.0956 4.1813 56.5229 15.711C59.9987 19.22 62.9779 23.2303 66.4537 27.2406C66.9503 27.7419 66.9502 28.2432 67.4468 28.7445Z" fill="#E8CDD5"/>
</g>
<path d="M50 44V45" stroke="#8492A6" stroke-width="4" stroke-linecap="round" stroke-linejoin="round"/>
<path d="M84 44V45" stroke="#8492A6" stroke-width="4" stroke-linecap="round" stroke-linejoin="round"/>
<path d="M76 50C76 53.866 72.1944 57 67.5 57C62.8056 57 59 53.866 59 50" stroke="#8492A6" stroke-width="4" stroke-linecap="round"/>
</svg>
