<svg width="585" height="304" viewBox="0 0 585 304" fill="none" xmlns="http://www.w3.org/2000/svg">
<g filter="url(#filter0_f_42424:8311)">
<path fill-rule="evenodd" clip-rule="evenodd" d="M373.669 257.242C319.67 265.749 271.398 236.616 221.926 221.714C175.081 207.602 123.187 197.237 93.2281 172.762C61.2736 146.657 31.4217 112.498 52.4957 83.2973C73.5684 54.0986 143.201 49.45 193.025 34.4824C225.88 24.6125 258.406 17.591 293.739 10.8264C337.393 2.4684 378.991 -16.2167 423.757 -9.69248C470.64 -2.8597 506.366 20.2423 526.457 44.7426C545.857 68.4013 540.968 95.3807 530.655 120.672C521.078 144.159 493.56 162.312 470.247 182.593C439.814 209.069 428.143 248.66 373.669 257.242Z" fill="#9AE2E0" fill-opacity="0.4"/>
</g>
<defs>
<filter id="filter0_f_42424:8311" x="0.441528" y="-56.0488" width="584.258" height="359.818" filterUnits="userSpaceOnUse" color-interpolation-filters="sRGB">
<feFlood flood-opacity="0" result="BackgroundImageFix"/>
<feBlend mode="normal" in="SourceGraphic" in2="BackgroundImageFix" result="shape"/>
<feGaussianBlur stdDeviation="22.5" result="effect1_foregroundBlur_42424:8311"/>
</filter>
</defs>
</svg>
