<svg width="258" height="249" viewBox="0 0 258 249" fill="none" xmlns="http://www.w3.org/2000/svg">
<g filter="url(#filter0_f_42409:8579)">
<path fill-rule="evenodd" clip-rule="evenodd" d="M119.323 48.657C136.395 52.461 145.61 69.7616 160.455 78.9635C177.078 89.2673 205.711 86.8722 211.152 105.578C216.645 124.464 194.094 139.601 182.782 155.728C174.972 166.862 166.645 176.88 155.568 184.817C144.532 192.724 132.779 199.204 119.323 201.194C104.032 203.456 87.3882 205.003 74.2918 196.838C60.8528 188.459 54.3888 172.783 49.6272 157.742C44.9039 142.822 45.504 127.541 47.44 112.019C49.8455 92.7337 47.556 69.9607 62.1842 57.0665C76.9507 44.0503 100.064 44.3657 119.323 48.657Z" fill="#9AE2E0" fill-opacity="0.3"/>
</g>
<defs>
<filter id="filter0_f_42409:8579" x="0" y="0" width="258" height="249" filterUnits="userSpaceOnUse" color-interpolation-filters="sRGB">
<feFlood flood-opacity="0" result="BackgroundImageFix"/>
<feBlend mode="normal" in="SourceGraphic" in2="BackgroundImageFix" result="shape"/>
<feGaussianBlur stdDeviation="23" result="effect1_foregroundBlur_42409:8579"/>
</filter>
</defs>
</svg>
