<svg xmlns="http://www.w3.org/2000/svg" xmlns:xlink="http://www.w3.org/1999/xlink" width="1200" zoomAndPan="magnify" viewBox="0 0 900 899.99999" height="1200" preserveAspectRatio="xMidYMid meet" version="1.2"><defs><clipPath id="5d7b2a49c1"><path d="M 117.914062 0 L 817 0 L 817 900 L 117.914062 900 Z M 117.914062 0 "/></clipPath></defs><g id="1c6bd71e9a"><g clip-rule="nonzero" clip-path="url(#5d7b2a49c1)"><path style=" stroke:none;fill-rule:nonzero;fill:#113c7b;fill-opacity:1;" d="M 432.996094 177.117188 C 481.777344 177.117188 521.460938 137.429688 521.460938 88.652344 C 521.460938 39.875 481.777344 0.1875 432.996094 0.1875 C 384.214844 0.1875 344.53125 39.875 344.53125 88.652344 C 344.53125 137.429688 384.21875 177.117188 432.996094 177.117188 Z M 432.996094 25.683594 C 467.71875 25.683594 495.964844 53.933594 495.964844 88.652344 C 495.964844 123.371094 467.71875 151.621094 432.996094 151.621094 C 398.277344 151.621094 370.027344 123.375 370.027344 88.652344 C 370.027344 53.933594 398.277344 25.683594 432.996094 25.683594 Z M 814.839844 796.097656 L 758.421875 540.746094 C 752.875 515.625 730.234375 498.203125 704.566406 499.351562 L 583.21875 504.839844 C 570.261719 485.484375 554.71875 468.003906 537.089844 452.890625 L 513.902344 227.484375 C 513.34375 222.035156 509.367188 217.558594 504.027344 216.351562 L 375.953125 187.472656 C 368.53125 185.800781 345.941406 180.710938 329.847656 196.804688 L 218.179688 308.472656 C 207.917969 318.734375 203.5625 333.320312 206.511719 347.535156 L 222.769531 440.179688 C 156.984375 487.980469 117.953125 564.21875 117.953125 645.78125 C 117.953125 785.855469 231.910156 899.808594 371.984375 899.808594 C 512.054688 899.808594 626.011719 785.855469 626.011719 645.78125 C 626.011719 633.214844 625.078125 620.871094 623.308594 608.789062 L 664.90625 606.917969 L 711.734375 818.875 C 714.773438 832.644531 722.996094 844.40625 734.886719 851.992188 C 743.476562 857.472656 753.234375 860.300781 763.183594 860.300781 C 767.003906 860.300781 770.851562 859.882812 774.675781 859.039062 C 803.097656 852.765625 821.117188 824.527344 814.839844 796.097656 Z M 236.207031 326.5 L 347.875 214.832031 C 350.519531 212.183594 355.726562 209.046875 370.34375 212.34375 L 489.480469 239.207031 L 509.324219 432.175781 C 469.699219 406.609375 422.542969 391.753906 371.980469 391.753906 C 368.929688 391.753906 365.886719 391.816406 362.847656 391.925781 L 352.476562 288.886719 C 351.980469 283.988281 348.710938 279.808594 344.074219 278.15625 C 339.4375 276.5 334.257812 277.667969 330.777344 281.148438 L 271.886719 340.039062 C 268.945312 342.976562 267.625 347.164062 268.34375 351.257812 L 293.390625 493.957031 C 295.039062 503.398438 288.695312 512.421875 279.253906 514.074219 C 274.675781 514.871094 270.070312 513.84375 266.269531 511.171875 C 262.472656 508.5 259.9375 504.511719 259.136719 499.925781 L 231.578125 342.917969 C 231.550781 342.765625 231.523438 342.617188 231.492188 342.464844 C 230.257812 336.652344 232.019531 330.683594 236.207031 326.5 Z M 345.730469 476.449219 L 350.90625 527.875 C 353.179688 549.21875 360.101562 614.171875 445.4375 616.761719 C 445.566406 616.765625 445.695312 616.769531 445.824219 616.769531 C 446.015625 616.769531 446.203125 616.765625 446.394531 616.757812 L 540.085938 612.535156 C 542.210938 623.296875 543.335938 634.40625 543.335938 645.78125 C 543.335938 740.265625 466.46875 817.132812 371.980469 817.132812 C 277.496094 817.132812 200.628906 740.265625 200.628906 645.78125 C 200.628906 602.078125 217.441406 560.03125 247.171875 528.390625 C 248.574219 529.679688 250.03125 530.917969 251.617188 532.03125 C 258.917969 537.160156 267.4375 539.839844 276.179688 539.835938 C 278.65625 539.835938 281.152344 539.621094 283.648438 539.1875 C 306.9375 535.117188 322.578125 512.859375 318.507812 489.558594 L 317.417969 483.328125 C 326.652344 480.226562 336.105469 477.925781 345.730469 476.449219 Z M 371.152344 474.445312 C 371.429688 474.445312 371.703125 474.425781 371.984375 474.425781 C 445.949219 474.425781 509.117188 521.539062 533.066406 587.332031 L 445.742188 591.265625 C 390.535156 589.40625 379.632812 556.824219 376.265625 525.246094 Z M 294.605469 353.378906 L 329.800781 318.183594 L 337.445312 394.09375 C 325.800781 395.675781 314.304688 398.058594 303.007812 401.238281 Z M 371.984375 874.316406 C 245.96875 874.316406 143.449219 771.792969 143.449219 645.78125 C 143.449219 576.640625 174.628906 511.761719 227.746094 468.515625 L 234.027344 504.320312 C 234.078125 504.617188 234.167969 504.898438 234.222656 505.191406 C 196.578125 542.105469 175.132812 592.882812 175.132812 645.777344 C 175.132812 754.324219 263.4375 842.628906 371.980469 842.628906 C 480.523438 842.628906 568.828125 754.320312 568.828125 645.777344 C 568.828125 537.234375 480.523438 448.929688 371.980469 448.929688 C 351.761719 448.929688 331.976562 451.964844 312.957031 457.945312 L 307.4375 426.507812 C 328.308594 420.371094 349.964844 417.242188 371.980469 417.242188 C 497.996094 417.242188 600.511719 519.761719 600.511719 645.777344 C 600.511719 771.792969 497.996094 874.316406 371.984375 874.316406 Z M 769.175781 834.144531 C 762.050781 835.71875 754.746094 834.425781 748.597656 830.5 C 742.453125 826.578125 738.199219 820.496094 736.628906 813.375 L 687.488281 590.949219 C 686.152344 584.902344 680.671875 580.699219 674.464844 580.96875 L 618.273438 583.496094 C 613.503906 564.640625 606.625 546.621094 597.894531 529.699219 L 705.707031 524.824219 C 718.925781 524.257812 730.65625 533.246094 733.527344 546.25 L 789.941406 801.601562 C 793.1875 816.296875 783.871094 830.898438 769.175781 834.144531 Z M 769.175781 834.144531 "/></g></g></svg>