<svg xmlns="http://www.w3.org/2000/svg" xmlns:xlink="http://www.w3.org/1999/xlink" width="1200" zoomAndPan="magnify" viewBox="0 0 900 899.99999" height="1200" preserveAspectRatio="xMidYMid meet" version="1.2"><g id="b03d4ebd28"><path style=" stroke:none;fill-rule:nonzero;fill:#113c7b;fill-opacity:1;" d="M 527.78125 471.191406 C 521.476562 509.667969 484.917969 550.097656 424.558594 585.488281 C 356.699219 545.683594 318.832031 499.128906 320.441406 457.15625 C 321.410156 431.941406 336.34375 416.164062 348.84375 410.304688 C 371.3125 399.757812 391.816406 408.820312 405.046875 418.289062 C 405.066406 418.296875 405.089844 418.296875 405.097656 418.320312 C 405.335938 435.488281 412.214844 452.105469 424.847656 465.632812 C 427.261719 468.222656 430.570312 469.574219 433.933594 469.574219 C 435.945312 469.574219 437.976562 469.089844 439.84375 468.078125 L 518.230469 425.621094 C 527.058594 437.976562 530.542969 454.25 527.78125 471.191406 Z M 433.097656 248.085938 C 441.78125 238.445312 454.972656 234.484375 467.574219 237.761719 C 487.984375 243.085938 502.605469 250.160156 507.667969 257.183594 C 515.0625 267.421875 476.433594 325.101562 436.367188 357.453125 C 424.125 367.34375 415.183594 379.214844 410.058594 392.042969 C 399.507812 386.0625 388.671875 382.441406 377.875 381.214844 C 374.574219 370.160156 367.816406 350.882812 356.628906 333.054688 Z M 804.492188 157.21875 C 799.632812 152.375 791.777344 152.375 786.917969 157.21875 L 664.238281 279.910156 L 592.328125 355.019531 C 589.398438 358.070312 586.046875 360.628906 582.363281 362.621094 L 437.171875 441.265625 C 431.820312 433.015625 429.363281 423.917969 430.023438 414.503906 C 430.984375 400.839844 438.78125 387.453125 451.980469 376.789062 C 476.03125 357.359375 553.097656 277.652344 527.808594 242.628906 C 519.042969 230.492188 500.882812 220.769531 473.832031 213.722656 C 452.21875 208.074219 429.539062 214.890625 414.628906 231.460938 L 331.640625 323.667969 C 327.691406 328.0625 327.371094 334.621094 330.886719 339.363281 C 341.488281 353.699219 348.441406 371.160156 352.316406 382.84375 C 347.574219 384.007812 342.882812 385.648438 338.292969 387.804688 C 327.289062 392.960938 317.882812 401.136719 310.707031 411.234375 L 267.246094 334.660156 C 262.472656 326.257812 261.917969 315.964844 265.742188 307.105469 C 281.746094 270.042969 336.984375 178.847656 359.992188 141.359375 C 364.847656 133.4375 372.914062 128.261719 382.113281 127.128906 C 434.996094 120.621094 577.570312 104.636719 608.796875 101.40625 C 611.644531 101.109375 614.292969 99.851562 616.304688 97.828125 L 691.699219 22.441406 C 696.546875 17.585938 696.546875 9.726562 691.699219 4.871094 C 686.855469 0.0234375 678.984375 0.0234375 674.128906 4.871094 L 601.847656 77.152344 C 563.398438 81.226562 429.902344 96.210938 379.070312 102.46875 C 362.320312 104.53125 347.644531 113.96875 338.820312 128.355469 C 315.53125 166.296875 259.566406 258.707031 242.929688 297.257812 C 236.03125 313.222656 237.042969 331.785156 245.632812 346.921875 L 298.011719 439.203125 C 296.671875 444.699219 295.835938 450.390625 295.617188 456.207031 C 294.433594 487.1875 308.757812 548.363281 417.792969 610.269531 C 418.414062 610.671875 419.082031 611.035156 419.785156 611.324219 C 421.320312 611.960938 422.941406 612.273438 424.539062 612.273438 C 425.507812 612.273438 426.46875 612.15625 427.394531 611.941406 C 428.695312 611.632812 429.953125 611.117188 431.117188 610.394531 C 431.128906 610.394531 431.128906 610.382812 431.148438 610.375 C 521.375 559.203125 546.828125 508.636719 552.292969 475.203125 C 555.953125 452.824219 551.539062 431.035156 540.175781 413.730469 L 594.195312 384.472656 C 600.144531 381.253906 605.546875 377.128906 610.269531 372.210938 L 681.996094 297.277344 L 804.492188 174.792969 C 809.339844 169.9375 809.339844 162.078125 804.492188 157.21875 "/><path style=" stroke:none;fill-rule:nonzero;fill:#113c7b;fill-opacity:1;" d="M 504.410156 714.441406 C 502.214844 715.140625 500.367188 716.410156 498.945312 718.007812 C 494.632812 712.234375 489.417969 707.128906 483.394531 702.941406 L 535.90625 681.191406 C 559.882812 671.261719 587.285156 671.035156 611.332031 680.140625 Z M 451.960938 664.132812 C 473.277344 655.875 496.664062 655.140625 518.242188 661.609375 L 452.835938 688.699219 L 421.507812 675.933594 Z M 645.4375 669.351562 C 644.902344 668.941406 644.324219 668.558594 643.707031 668.230469 L 633.992188 663.113281 C 609.589844 650.253906 581.167969 645.941406 554.035156 650.398438 C 520.839844 630.378906 479.464844 626.824219 442.976562 640.972656 L 387.980469 662.269531 L 366.117188 653.359375 C 331.011719 639.042969 291.699219 637.464844 255.429688 648.933594 L 195.925781 667.722656 L 109.988281 667.722656 C 103.121094 667.722656 97.5625 673.28125 97.5625 680.140625 C 97.5625 687.007812 103.121094 692.566406 109.988281 692.566406 L 197.84375 692.566406 C 199.121094 692.566406 200.378906 692.371094 201.585938 691.988281 L 262.917969 672.621094 C 293.660156 662.90625 326.980469 664.238281 356.742188 676.375 L 460.839844 718.800781 C 477.019531 725.390625 487.476562 740.945312 487.476562 758.414062 C 487.476562 763.753906 485.351562 768.726562 481.507812 772.417969 C 477.667969 776.109375 472.636719 778.019531 467.285156 777.8125 L 290.070312 770.726562 C 283.203125 770.632812 277.425781 775.789062 277.160156 782.648438 C 276.878906 789.507812 282.210938 795.28125 289.082031 795.558594 L 466.292969 802.644531 C 466.902344 802.664062 467.511719 802.675781 468.121094 802.675781 C 479.597656 802.675781 490.394531 798.335938 498.726562 790.332031 C 507.496094 781.917969 512.320312 770.574219 512.320312 758.414062 C 512.320312 751.578125 511.300781 744.933594 509.390625 738.632812 C 510.257812 738.550781 511.136719 738.375 512 738.109375 L 648.121094 694.433594 C 679.605469 684.316406 713.75 697.558594 730.488281 725.371094 L 454.375 869.050781 C 443.378906 874.773438 430.632812 876.597656 418.484375 874.226562 L 184.269531 828.355469 C 183.488281 828.210938 182.695312 828.128906 181.890625 828.128906 L 109.988281 828.128906 C 103.121094 828.128906 97.5625 833.6875 97.5625 840.554688 C 97.5625 847.414062 103.121094 852.972656 109.988281 852.972656 L 180.683594 852.972656 L 413.710938 898.617188 C 418.753906 899.605469 423.859375 900.089844 428.960938 900.089844 C 441.730469 900.089844 454.445312 897.027344 465.851562 891.097656 L 748.761719 743.871094 C 756.992188 739.582031 760.351562 729.640625 756.402344 721.234375 C 736.746094 679.367188 689.742188 657.710938 645.4375 669.351562 "/></g></svg>