<svg width="32" height="33" viewBox="0 0 32 33" fill="none" xmlns="http://www.w3.org/2000/svg">
<g id="noun-volunteer-4317084 1">
<g id="Group">
<path id="Vector" d="M30.0113 16.5075C29.5528 16.0172 28.9259 15.7329 28.266 15.7158C27.6061 15.6987 26.9662 15.9503 26.4845 16.4162L20.7284 21.7007C20.5956 21.2667 20.3326 20.8874 19.9774 20.6177C19.6222 20.3479 19.1932 20.2017 18.7523 20.2H7.08484C6.95752 19.8267 6.72139 19.5033 6.40887 19.2741C6.09635 19.0449 5.72277 18.9212 5.33941 18.92H4.09964C3.60655 18.9206 3.13383 19.1231 2.78519 19.483C2.43656 19.843 2.24048 20.331 2.23999 20.84V29.8C2.24048 30.309 2.43656 30.797 2.78519 31.1569C3.13383 31.5169 3.60655 31.7194 4.09964 31.72H5.33941C5.72277 31.7188 6.09635 31.595 6.40887 31.3659C6.72139 31.1367 6.95752 30.8133 7.08484 30.44H9.67861C9.68738 30.44 9.69465 30.4352 9.70335 30.4348L10.4862 30.7694C12.8913 31.7942 15.5512 31.9965 18.0759 31.3467C20.6006 30.6969 22.8572 29.2292 24.5147 27.1587L30.1596 20.1081C30.5719 19.5959 30.7851 18.9437 30.7576 18.2783C30.7302 17.6129 30.4642 16.9818 30.0113 16.5075ZM5.33941 30.44H4.09964C3.93526 30.4399 3.77764 30.3724 3.66142 30.2524C3.54519 30.1324 3.47986 29.9697 3.47976 29.8V20.84C3.47986 20.6703 3.54519 20.5076 3.66142 20.3876C3.77764 20.2676 3.93526 20.2001 4.09964 20.2H5.33941C5.5038 20.2001 5.66141 20.2676 5.77764 20.3876C5.89387 20.5076 5.9592 20.6703 5.9593 20.84V29.8C5.9592 29.9697 5.89387 30.1324 5.77764 30.2524C5.66141 30.3724 5.5038 30.4399 5.33941 30.44ZM9.05875 29.16H7.19907V21.48H9.05875V29.16ZM29.2044 19.2925L23.5594 26.3437C22.0706 28.2031 20.0438 29.5212 17.7763 30.1048C15.5087 30.6883 13.1197 30.5066 10.9595 29.5862L10.2985 29.3041V21.48H18.7523C18.9502 21.4801 19.1418 21.5519 19.2937 21.6829C19.4455 21.8139 19.548 21.9958 19.5833 22.1968C19.6185 22.3978 19.5843 22.6053 19.4865 22.7829C19.3887 22.9605 19.2336 23.0971 19.0483 23.1687L15.0396 24.7206C14.8858 24.7805 14.7612 24.9009 14.6932 25.0554C14.6252 25.2099 14.6194 25.386 14.677 25.545C14.7366 25.7025 14.8534 25.8298 15.0025 25.8997C15.1517 25.9696 15.3214 25.9767 15.4755 25.9194L19.4842 24.3675C19.7338 24.2667 19.9634 24.1194 20.1616 23.9331L27.3193 17.3619C27.5654 17.122 27.8932 16.992 28.2315 16.9999C28.5699 17.0079 28.8916 17.1532 29.1269 17.4044C29.3644 17.6531 29.5039 17.9841 29.5182 18.333C29.5325 18.6819 29.4207 19.0239 29.2044 19.2925ZM16.185 18.8331C16.28 18.8897 16.3877 18.9194 16.4974 18.9194C16.607 18.9194 16.7148 18.8897 16.8098 18.8331C17.1535 18.6256 25.232 13.6925 25.232 7.84124C25.2322 6.36879 24.6667 4.95637 23.6594 3.91381C22.6521 2.87125 21.2853 2.28368 19.8589 2.27999C18.6358 2.2766 17.4488 2.70783 16.4973 3.50124C15.5459 2.70783 14.3589 2.2766 13.1358 2.27999C11.7094 2.28368 10.3426 2.87125 9.3353 3.91381C8.32801 4.95637 7.76243 6.36879 7.76265 7.84124C7.76265 13.6925 15.8412 18.6256 16.185 18.8331ZM13.1358 3.55999C13.6791 3.55852 14.2173 3.66855 14.719 3.88368C15.2207 4.0988 15.6761 4.41473 16.0585 4.81311C16.1769 4.92927 16.334 4.99404 16.4974 4.99404C16.6607 4.99404 16.8178 4.92927 16.9362 4.81311C17.3187 4.41474 17.774 4.09881 18.2757 3.88368C18.7774 3.66856 19.3156 3.55853 19.8589 3.55999C20.9566 3.56321 22.0083 4.01577 22.7831 4.81838C23.558 5.62098 23.9929 6.7081 23.9923 7.84124C23.9923 12.3644 17.9526 16.5787 16.4973 17.5287C15.0408 16.58 9.00242 12.3706 9.00242 7.84124C9.00181 6.7081 9.43664 5.62098 10.2115 4.81837C10.9864 4.01576 12.0381 3.56321 13.1358 3.55999ZM17.9539 13.2481C20.2488 11.2187 21.5127 9.29811 21.5127 7.84124C21.514 7.38675 21.3406 6.95029 21.0306 6.6276C20.7205 6.30492 20.2992 6.12236 19.8589 6.11999C19.6944 6.11999 19.5367 6.05256 19.4205 5.93254C19.3042 5.81251 19.2389 5.64973 19.2389 5.47999C19.2389 5.31025 19.3042 5.14746 19.4205 5.02744C19.5367 4.90742 19.6944 4.83999 19.8589 4.83999C20.6279 4.84274 21.3644 5.16028 21.9069 5.72294C22.4494 6.28559 22.7535 7.04741 22.7525 7.84124C22.7525 10.1956 20.5817 12.6094 18.7602 14.2206C18.6476 14.319 18.5045 14.3724 18.3571 14.371C18.2318 14.3687 18.1101 14.3274 18.0079 14.2526C17.9057 14.1778 17.8277 14.0729 17.7842 13.9516C17.7406 13.8303 17.7335 13.6983 17.7638 13.5728C17.7941 13.4473 17.8603 13.3341 17.9539 13.2481Z" fill="#4B4AC6"/>
</g>
</g>
</svg>
