<svg xmlns="http://www.w3.org/2000/svg" xmlns:xlink="http://www.w3.org/1999/xlink" width="1200" zoomAndPan="magnify" viewBox="0 0 900 899.99999" height="1200" preserveAspectRatio="xMidYMid meet" version="1.2"><defs><clipPath id="10221c6d77"><path d="M 331 400 L 683 400 L 683 644.125 L 331 644.125 Z M 331 400 "/></clipPath><clipPath id="9a6a9fe131"><path d="M 523 485 L 683 485 L 683 644.125 L 523 644.125 Z M 523 485 "/></clipPath><clipPath id="5937b8ad08"><path d="M 205 398 L 346 398 L 346 644.125 L 205 644.125 Z M 205 398 "/></clipPath><clipPath id="803401a3ca"><path d="M 329 398 L 745.375 398 L 745.375 467 L 329 467 Z M 329 398 "/></clipPath></defs><g id="7489d8e0e4"><path style=" stroke:none;fill-rule:evenodd;fill:#113c7b;fill-opacity:1;" d="M 442.042969 606.625 C 440.316406 606.625 438.585938 605.933594 437.203125 604.550781 C 424.757812 592.105469 411.964844 584.84375 401.246094 578.621094 C 383.265625 568.246094 367.707031 559.257812 367.707031 535.054688 C 367.707031 513.273438 386.03125 495.292969 408.503906 495.292969 C 424.757812 495.292969 434.4375 502.207031 442.042969 513.273438 C 449.652344 502.207031 459.332031 495.292969 475.582031 495.292969 C 498.058594 495.292969 516.382812 513.273438 516.382812 535.054688 C 516.382812 559.257812 500.824219 568.246094 482.84375 578.621094 C 471.777344 584.84375 459.332031 592.105469 446.882812 604.550781 C 445.5 605.933594 443.773438 606.625 442.042969 606.625 Z M 408.160156 509.125 C 393.636719 509.125 381.535156 520.878906 381.535156 535.054688 C 381.535156 550.613281 389.835938 556.144531 408.160156 566.519531 C 417.839844 572.398438 429.941406 579.3125 442.042969 590.03125 C 454.144531 579.3125 466.246094 572.398438 475.929688 566.519531 C 494.253906 556.144531 502.550781 550.613281 502.550781 535.054688 C 502.550781 520.878906 490.449219 509.125 475.582031 509.125 C 462.789062 509.125 456.21875 514.308594 448.269531 530.214844 C 446.882812 532.289062 444.464844 534.019531 442.042969 534.019531 C 439.277344 534.019531 436.859375 532.289062 435.820312 530.214844 C 427.867188 514.308594 420.953125 509.125 408.160156 509.125 Z M 408.160156 509.125 "/><g clip-rule="nonzero" clip-path="url(#10221c6d77)"><path style=" stroke:none;fill-rule:evenodd;fill:#113c7b;fill-opacity:1;" d="M 675.429688 644.316406 L 338.664062 644.316406 C 334.859375 644.316406 331.746094 641.203125 331.746094 637.398438 L 331.746094 407.816406 C 331.746094 405.050781 333.128906 402.285156 335.894531 401.246094 C 338.316406 400.210938 341.429688 400.902344 343.503906 402.976562 L 392.253906 452.417969 L 675.429688 448.269531 C 677.503906 448.269531 678.886719 448.960938 680.269531 450.34375 C 681.65625 451.726562 682.347656 453.457031 682.347656 455.183594 L 682.347656 637.398438 C 682.347656 641.203125 679.234375 644.316406 675.429688 644.316406 Z M 345.578125 630.484375 L 668.515625 630.484375 L 668.515625 462.101562 L 389.488281 466.25 C 387.414062 466.25 385.6875 465.558594 384.300781 464.175781 L 345.578125 424.757812 Z M 345.578125 630.484375 "/></g><g clip-rule="nonzero" clip-path="url(#9a6a9fe131)"><path style=" stroke:none;fill-rule:evenodd;fill:#113c7b;fill-opacity:1;" d="M 574.816406 644.316406 L 530.210938 644.316406 C 527.445312 644.316406 525.027344 642.585938 523.988281 640.164062 C 522.953125 637.398438 523.644531 634.632812 525.371094 632.558594 L 670.589844 487.339844 C 672.664062 485.265625 675.429688 484.574219 678.195312 485.957031 C 680.617188 486.996094 682.347656 489.414062 682.347656 492.179688 L 682.347656 537.128906 C 682.347656 538.859375 681.65625 540.585938 680.269531 541.96875 L 580 642.238281 C 578.617188 643.625 576.890625 644.316406 574.816406 644.316406 Z M 547.15625 630.484375 L 572.050781 630.484375 L 668.515625 534.019531 L 668.515625 508.777344 Z M 547.15625 630.484375 "/></g><g clip-rule="nonzero" clip-path="url(#5937b8ad08)"><path style=" stroke:none;fill-rule:evenodd;fill:#113c7b;fill-opacity:1;" d="M 338.664062 644.316406 L 212.113281 644.316406 C 208.3125 644.316406 205.199219 641.203125 205.199219 637.398438 L 205.199219 434.441406 C 205.199219 430.636719 208.3125 427.523438 212.113281 427.523438 L 293.367188 427.523438 C 295.789062 426.140625 299.246094 424.066406 303.050781 421.644531 C 306.507812 419.570312 311.691406 416.460938 316.878906 413.347656 L 239.085938 412.65625 C 235.28125 412.65625 232.167969 409.546875 232.167969 405.742188 C 232.167969 401.9375 235.28125 398.828125 239.085938 398.828125 L 338.664062 398.828125 C 342.464844 398.828125 345.578125 401.9375 345.578125 405.742188 L 345.578125 637.398438 C 345.578125 641.203125 342.464844 644.316406 338.664062 644.316406 Z M 219.03125 630.484375 L 331.746094 630.484375 L 331.746094 420.261719 C 325.871094 424.066406 318.609375 428.5625 309.964844 433.746094 C 305.46875 436.167969 301.667969 438.589844 298.898438 440.316406 C 297.863281 441.007812 296.480469 441.355469 295.441406 441.355469 L 219.03125 441.355469 Z M 219.03125 630.484375 "/></g><g clip-rule="nonzero" clip-path="url(#803401a3ca)"><path style=" stroke:none;fill-rule:evenodd;fill:#113c7b;fill-opacity:1;" d="M 389.488281 466.25 C 387.414062 466.25 385.6875 465.558594 384.300781 464.175781 L 331.746094 410.582031 C 329.671875 408.507812 329.328125 405.742188 330.363281 402.976562 C 331.402344 400.554688 333.820312 398.828125 336.589844 398.828125 L 692.71875 398.828125 C 694.792969 398.828125 696.523438 399.519531 697.90625 401.246094 L 743.199219 449.652344 C 745.273438 451.726562 745.621094 454.492188 744.582031 456.914062 C 743.546875 459.679688 741.125 461.0625 738.359375 461.0625 Z M 353.183594 412.65625 L 392.253906 452.417969 L 722.453125 447.578125 L 689.605469 412.65625 Z M 353.183594 412.65625 "/></g><path style=" stroke:none;fill-rule:evenodd;fill:#113c7b;fill-opacity:1;" d="M 295.441406 441.355469 L 161.980469 441.355469 C 158.867188 441.355469 156.101562 439.28125 155.410156 436.515625 C 154.375 433.402344 155.757812 430.289062 158.175781 428.5625 L 202.78125 399.863281 C 203.816406 399.171875 205.199219 398.480469 206.582031 398.480469 L 338.664062 399.519531 C 341.429688 399.519531 343.847656 401.246094 344.886719 403.667969 C 345.921875 406.085938 345.578125 409.199219 343.847656 411.273438 C 339.699219 415.769531 327.253906 423.375 309.964844 433.746094 C 305.46875 436.515625 301.667969 438.589844 298.898438 440.316406 C 297.863281 441.007812 296.480469 441.355469 295.441406 441.355469 Z M 185.144531 427.523438 L 293.367188 427.523438 C 295.789062 426.140625 299.246094 424.066406 303.050781 421.644531 C 306.507812 419.570312 311.691406 416.460938 316.878906 413.347656 L 208.3125 412.65625 Z M 185.144531 427.523438 "/><path style=" stroke:none;fill-rule:evenodd;fill:#113c7b;fill-opacity:1;" d="M 660.21875 412.65625 L 552.339844 412.65625 C 550.613281 412.65625 548.882812 411.964844 547.5 410.582031 L 486.648438 349.730469 C 478.347656 341.429688 473.507812 330.019531 473.507812 317.917969 C 473.507812 305.816406 478.347656 294.40625 486.648438 286.109375 C 495.289062 277.464844 506.699219 272.625 518.800781 272.625 C 530.902344 272.625 541.96875 277.464844 550.613281 286.109375 L 662.292969 397.445312 C 663.328125 398.828125 664.710938 400.210938 665.75 401.59375 C 667.476562 403.667969 667.824219 406.433594 666.441406 408.851562 C 665.402344 411.273438 662.984375 412.65625 660.21875 412.65625 Z M 555.453125 398.828125 L 643.964844 398.828125 L 540.929688 295.789062 C 535.054688 289.914062 527.101562 286.457031 518.800781 286.457031 C 510.160156 286.457031 502.550781 289.914062 496.675781 295.789062 C 490.796875 301.667969 487.339844 309.621094 487.339844 317.917969 C 487.339844 326.21875 490.796875 334.167969 496.675781 340.046875 Z M 555.453125 398.828125 "/><path style=" stroke:none;fill-rule:evenodd;fill:#113c7b;fill-opacity:1;" d="M 577.925781 391.566406 C 575.507812 391.566406 573.085938 390.183594 571.703125 388.109375 C 570.667969 386.035156 570.667969 383.265625 572.050781 380.847656 C 579.308594 369.089844 584.496094 354.914062 587.609375 338.320312 C 587.953125 335.554688 589.683594 333.476562 592.101562 332.785156 C 594.523438 332.09375 597.289062 332.785156 599.019531 334.515625 L 620.457031 355.605469 C 622.53125 358.027344 623.222656 361.140625 621.492188 363.90625 C 606.96875 389.835938 579.308594 391.566406 578.273438 391.566406 C 577.925781 391.566406 577.925781 391.566406 577.925781 391.566406 Z M 598.328125 353.1875 C 596.597656 360.792969 594.175781 367.707031 591.410156 373.933594 C 596.253906 371.511719 602.128906 367.707031 606.625 361.484375 Z M 598.328125 353.1875 "/><path style=" stroke:none;fill-rule:evenodd;fill:#113c7b;fill-opacity:1;" d="M 536.78125 350.421875 C 534.363281 350.421875 531.941406 349.039062 530.558594 346.960938 C 529.519531 344.886719 529.519531 342.121094 530.902344 340.046875 C 538.164062 327.945312 543.351562 313.769531 546.464844 297.171875 C 546.808594 294.40625 548.539062 292.332031 550.957031 291.640625 C 553.722656 290.949219 556.144531 291.640625 558.21875 293.371094 L 579.308594 314.460938 C 581.382812 316.882812 582.074219 319.992188 580.347656 322.757812 C 566.171875 348.691406 538.164062 350.421875 537.128906 350.421875 C 536.78125 350.421875 536.78125 350.421875 536.78125 350.421875 Z M 557.179688 312.042969 C 555.453125 319.648438 553.03125 326.5625 550.265625 332.785156 C 555.453125 330.710938 560.984375 326.5625 565.480469 320.339844 Z M 557.179688 312.042969 "/><path style=" stroke:none;fill-rule:evenodd;fill:#113c7b;fill-opacity:1;" d="M 345.230469 310.3125 C 344.539062 310.3125 344.195312 310.3125 343.503906 309.964844 L 276.773438 292.332031 C 274.695312 291.988281 273.3125 290.949219 272.277344 289.222656 C 271.585938 287.839844 271.238281 285.761719 271.585938 284.035156 L 277.464844 261.558594 C 278.5 258.101562 282.304688 255.683594 286.105469 256.71875 L 352.839844 274.355469 C 354.566406 274.699219 356.296875 276.082031 356.988281 277.464844 C 358.023438 279.195312 358.371094 280.921875 357.679688 282.652344 L 351.800781 305.125 C 351.109375 308.238281 348.34375 310.3125 345.230469 310.3125 Z M 286.796875 280.921875 L 340.390625 294.753906 L 342.8125 286.109375 L 289.21875 271.933594 Z M 286.796875 280.921875 "/><path style=" stroke:none;fill-rule:evenodd;fill:#113c7b;fill-opacity:1;" d="M 333.476562 413.347656 C 333.476562 413.347656 333.128906 413.347656 333.128906 413.347656 L 219.722656 412.65625 C 217.648438 412.65625 215.574219 411.621094 214.191406 409.890625 C 213.152344 407.816406 212.804688 405.742188 213.152344 403.667969 L 230.09375 349.039062 C 237.007812 326.910156 256.71875 310.3125 279.539062 306.855469 L 285.761719 287.492188 C 286.796875 283.6875 290.257812 281.613281 294.058594 282.652344 L 332.09375 292.679688 C 334.167969 293.371094 335.550781 294.40625 336.589844 296.136719 C 337.28125 297.863281 337.625 299.59375 336.933594 301.324219 L 330.363281 322.757812 C 347.304688 338.664062 354.222656 363.214844 346.960938 385.34375 L 340.046875 408.507812 C 339.007812 411.621094 336.242188 413.347656 333.476562 413.347656 Z M 229.402344 398.828125 L 328.289062 399.519531 L 333.820312 381.191406 C 339.699219 362.867188 333.476562 342.46875 318.261719 330.367188 C 315.84375 328.636719 315.152344 325.527344 315.84375 322.757812 L 321.71875 304.433594 L 296.824219 297.863281 L 291.292969 315.152344 C 290.601562 317.917969 288.183594 319.992188 285.414062 319.992188 C 266.054688 321.375 249.109375 334.859375 243.578125 353.1875 Z M 229.402344 398.828125 "/><path style=" stroke:none;fill-rule:evenodd;fill:#113c7b;fill-opacity:1;" d="M 414.730469 412.65625 L 367.707031 412.65625 C 365.632812 412.65625 363.902344 411.964844 362.519531 410.582031 C 355.949219 403.320312 352.492188 394.332031 352.492188 384.648438 C 352.492188 363.214844 369.78125 345.925781 391.21875 345.925781 C 403.664062 345.925781 415.421875 352.148438 422.683594 362.523438 C 424.410156 364.941406 424.410156 368.054688 422.683594 370.472656 C 419.914062 374.625 418.1875 379.464844 418.1875 384.648438 C 418.1875 389.835938 419.914062 394.675781 422.683594 398.828125 C 424.410156 401.246094 424.410156 404.359375 422.683594 406.777344 C 421.988281 408.160156 420.953125 409.199219 419.914062 410.582031 C 418.53125 411.964844 416.804688 412.65625 414.730469 412.65625 Z M 370.816406 398.828125 L 407.121094 398.828125 C 405.394531 394.332031 404.355469 389.492188 404.355469 384.648438 C 404.355469 378.425781 405.738281 372.550781 408.503906 367.015625 C 404.011719 362.523438 397.785156 359.753906 391.21875 359.753906 C 377.386719 359.753906 366.324219 370.820312 366.324219 384.648438 C 366.324219 389.835938 368.050781 394.675781 370.816406 398.828125 Z M 370.816406 398.828125 "/><path style=" stroke:none;fill-rule:evenodd;fill:#113c7b;fill-opacity:1;" d="M 466.59375 412.65625 L 419.570312 412.65625 C 417.496094 412.65625 415.765625 411.964844 414.382812 410.582031 C 407.8125 403.320312 404.355469 394.332031 404.355469 384.648438 C 404.355469 363.214844 421.644531 345.925781 443.082031 345.925781 C 464.171875 345.925781 481.804688 363.214844 481.804688 384.648438 C 481.804688 394.332031 478.003906 403.320312 471.777344 410.582031 C 470.394531 411.964844 468.667969 412.65625 466.59375 412.65625 Z M 422.683594 398.828125 L 463.136719 398.828125 C 466.246094 394.675781 467.976562 389.835938 467.976562 384.648438 C 467.976562 370.820312 456.566406 359.753906 443.082031 359.753906 C 429.25 359.753906 418.1875 370.820312 418.1875 384.648438 C 418.1875 389.835938 419.914062 394.675781 422.683594 398.828125 Z M 422.683594 398.828125 "/><path style=" stroke:none;fill-rule:evenodd;fill:#113c7b;fill-opacity:1;" d="M 417.148438 373.242188 C 414.730469 373.242188 412.65625 372.203125 411.273438 370.472656 C 406.777344 363.90625 399.171875 359.753906 391.21875 359.753906 C 388.796875 359.753906 386.722656 358.71875 385.6875 356.988281 C 380.84375 350.421875 378.425781 342.8125 378.425781 334.515625 C 378.425781 313.425781 395.710938 296.136719 417.148438 296.136719 C 438.242188 296.136719 455.875 313.425781 455.875 334.515625 C 455.875 342.8125 453.109375 350.421875 448.613281 356.988281 C 447.230469 358.71875 445.15625 359.753906 443.082031 359.753906 C 435.128906 359.753906 427.523438 363.90625 422.683594 370.472656 C 421.644531 372.203125 419.222656 373.242188 417.148438 373.242188 Z M 395.019531 346.269531 C 403.320312 346.960938 410.925781 350.421875 417.148438 355.953125 C 423.027344 350.421875 430.980469 346.960938 438.933594 346.269531 C 441.007812 342.8125 442.042969 338.664062 442.042969 334.515625 C 442.042969 321.03125 430.632812 309.964844 417.148438 309.964844 C 403.320312 309.964844 392.253906 321.03125 392.253906 334.515625 C 392.253906 338.664062 393.292969 342.8125 395.019531 346.269531 Z M 395.019531 346.269531 "/><path style=" stroke:none;fill-rule:evenodd;fill:#113c7b;fill-opacity:1;" d="M 417.148438 309.964844 C 415.765625 309.964844 414.382812 309.621094 413.347656 308.582031 C 410.234375 306.507812 409.195312 302.359375 411.273438 299.25 C 411.964844 297.863281 415.765625 291.296875 409.195312 285.070312 C 406.429688 282.304688 406.429688 277.8125 409.195312 275.046875 C 411.617188 272.277344 416.113281 272.277344 418.878906 275.046875 C 430.980469 286.457031 426.832031 300.976562 423.027344 306.855469 C 421.644531 308.929688 419.222656 309.964844 417.148438 309.964844 Z M 417.148438 309.964844 "/></g></svg>