<svg xmlns="http://www.w3.org/2000/svg" xmlns:xlink="http://www.w3.org/1999/xlink" width="1200" zoomAndPan="magnify" viewBox="0 0 900 899.99999" height="1200" preserveAspectRatio="xMidYMid meet" version="1.2"><defs><clipPath id="3310dfabde"><path d="M 359 196.152344 L 541 196.152344 L 541 378 L 359 378 Z M 359 196.152344 "/></clipPath><clipPath id="2c4e0f2b30"><path d="M 214.242188 305 L 382 305 L 382 432 L 214.242188 432 Z M 214.242188 305 "/></clipPath><clipPath id="1ea63213c3"><path d="M 214.242188 413 L 685 413 L 685 703.902344 L 214.242188 703.902344 Z M 214.242188 413 "/></clipPath><clipPath id="6875fa1deb"><path d="M 214.242188 413 L 685 413 L 685 432 L 214.242188 432 Z M 214.242188 413 "/></clipPath></defs><g id="64d74b34fd"><path style=" stroke:none;fill-rule:nonzero;fill:#113c7b;fill-opacity:1;" d="M 449.546875 296.144531 C 448.65625 296.144531 447.769531 296.101562 446.882812 296.015625 C 446 295.929688 445.121094 295.796875 444.25 295.625 C 443.378906 295.449219 442.515625 295.234375 441.664062 294.976562 C 440.8125 294.71875 439.976562 294.417969 439.15625 294.078125 C 438.335938 293.738281 437.53125 293.359375 436.746094 292.941406 C 435.964844 292.519531 435.203125 292.066406 434.460938 291.570312 C 433.722656 291.078125 433.007812 290.546875 432.320312 289.984375 C 431.632812 289.417969 430.976562 288.824219 430.347656 288.195312 C 429.71875 287.566406 429.121094 286.90625 428.558594 286.21875 C 427.992188 285.53125 427.464844 284.820312 426.972656 284.078125 C 426.476562 283.339844 426.019531 282.578125 425.601562 281.792969 C 425.183594 281.011719 424.800781 280.207031 424.460938 279.386719 C 424.121094 278.5625 423.824219 277.726562 423.5625 276.878906 C 423.304688 276.027344 423.089844 275.164062 422.917969 274.292969 C 422.742188 273.421875 422.613281 272.542969 422.527344 271.65625 C 422.4375 270.773438 422.394531 269.886719 422.394531 268.996094 C 422.394531 268.105469 422.4375 267.21875 422.527344 266.335938 C 422.613281 265.449219 422.742188 264.570312 422.917969 263.699219 C 423.089844 262.828125 423.304688 261.964844 423.5625 261.113281 C 423.824219 260.261719 424.121094 259.425781 424.460938 258.605469 C 424.800781 257.785156 425.183594 256.980469 425.601562 256.195312 C 426.019531 255.414062 426.476562 254.652344 426.972656 253.910156 C 427.464844 253.171875 427.992188 252.457031 428.558594 251.773438 C 429.121094 251.085938 429.71875 250.425781 430.347656 249.796875 C 430.976562 249.167969 431.632812 248.570312 432.320312 248.007812 C 433.007812 247.445312 433.722656 246.914062 434.460938 246.421875 C 435.203125 245.925781 435.964844 245.46875 436.746094 245.050781 C 437.53125 244.632812 438.335938 244.253906 439.15625 243.910156 C 439.976562 243.570312 440.8125 243.273438 441.664062 243.015625 C 442.515625 242.757812 443.378906 242.539062 444.25 242.367188 C 445.121094 242.191406 446 242.0625 446.882812 241.976562 C 447.769531 241.886719 448.65625 241.84375 449.546875 241.84375 C 450.433594 241.84375 451.320312 241.886719 452.207031 241.976562 C 453.09375 242.0625 453.96875 242.191406 454.84375 242.367188 C 455.714844 242.539062 456.578125 242.757812 457.425781 243.015625 C 458.277344 243.273438 459.113281 243.570312 459.9375 243.910156 C 460.757812 244.253906 461.558594 244.632812 462.34375 245.050781 C 463.128906 245.46875 463.890625 245.925781 464.628906 246.421875 C 465.371094 246.914062 466.082031 247.445312 466.769531 248.007812 C 467.457031 248.570312 468.117188 249.167969 468.746094 249.796875 C 469.375 250.425781 469.96875 251.085938 470.535156 251.773438 C 471.097656 252.457031 471.625 253.171875 472.121094 253.910156 C 472.613281 254.652344 473.070312 255.414062 473.492188 256.195312 C 473.910156 256.980469 474.289062 257.785156 474.628906 258.605469 C 474.96875 259.425781 475.269531 260.261719 475.527344 261.113281 C 475.785156 261.964844 476 262.828125 476.175781 263.699219 C 476.347656 264.570312 476.480469 265.449219 476.566406 266.335938 C 476.652344 267.21875 476.695312 268.105469 476.695312 268.996094 C 476.695312 269.589844 476.636719 270.179688 476.523438 270.761719 C 476.40625 271.34375 476.234375 271.910156 476.007812 272.460938 C 475.78125 273.007812 475.5 273.53125 475.171875 274.023438 C 474.839844 274.519531 474.464844 274.976562 474.046875 275.394531 C 473.625 275.816406 473.167969 276.191406 472.675781 276.519531 C 472.179688 276.851562 471.660156 277.128906 471.109375 277.355469 C 470.5625 277.585938 469.996094 277.757812 469.410156 277.871094 C 468.828125 277.988281 468.242188 278.046875 467.644531 278.046875 C 467.050781 278.046875 466.464844 277.988281 465.878906 277.871094 C 465.296875 277.757812 464.730469 277.585938 464.183594 277.355469 C 463.632812 277.128906 463.113281 276.851562 462.617188 276.519531 C 462.125 276.191406 461.667969 275.816406 461.246094 275.394531 C 460.828125 274.976562 460.453125 274.519531 460.121094 274.023438 C 459.792969 273.53125 459.511719 273.007812 459.285156 272.460938 C 459.058594 271.910156 458.886719 271.34375 458.769531 270.761719 C 458.652344 270.179688 458.597656 269.589844 458.597656 268.996094 C 458.597656 268.402344 458.539062 267.8125 458.421875 267.230469 C 458.304688 266.648438 458.132812 266.082031 457.90625 265.53125 C 457.679688 264.984375 457.402344 264.460938 457.070312 263.96875 C 456.742188 263.472656 456.367188 263.015625 455.945312 262.597656 C 455.523438 262.175781 455.066406 261.800781 454.574219 261.472656 C 454.078125 261.140625 453.558594 260.863281 453.007812 260.632812 C 452.460938 260.40625 451.894531 260.234375 451.3125 260.121094 C 450.730469 260.003906 450.140625 259.945312 449.546875 259.945312 C 448.953125 259.945312 448.363281 260.003906 447.78125 260.121094 C 447.199219 260.234375 446.632812 260.40625 446.082031 260.632812 C 445.535156 260.863281 445.011719 261.140625 444.519531 261.472656 C 444.023438 261.800781 443.566406 262.175781 443.144531 262.597656 C 442.726562 263.015625 442.351562 263.472656 442.019531 263.96875 C 441.691406 264.460938 441.410156 264.984375 441.183594 265.53125 C 440.957031 266.082031 440.785156 266.648438 440.667969 267.230469 C 440.554688 267.8125 440.496094 268.402344 440.496094 268.996094 C 440.496094 269.589844 440.554688 270.179688 440.667969 270.761719 C 440.785156 271.34375 440.957031 271.910156 441.183594 272.460938 C 441.410156 273.007812 441.691406 273.53125 442.019531 274.023438 C 442.351562 274.519531 442.726562 274.976562 443.144531 275.394531 C 443.566406 275.816406 444.023438 276.191406 444.519531 276.519531 C 445.011719 276.851562 445.535156 277.128906 446.082031 277.355469 C 446.632812 277.585938 447.199219 277.757812 447.78125 277.871094 C 448.363281 277.988281 448.953125 278.046875 449.546875 278.046875 C 450.140625 278.046875 450.730469 278.105469 451.3125 278.21875 C 451.894531 278.335938 452.460938 278.507812 453.007812 278.734375 C 453.558594 278.960938 454.078125 279.242188 454.574219 279.570312 C 455.066406 279.902344 455.523438 280.277344 455.945312 280.695312 C 456.367188 281.117188 456.742188 281.574219 457.070312 282.066406 C 457.402344 282.5625 457.679688 283.082031 457.90625 283.632812 C 458.132812 284.183594 458.304688 284.746094 458.421875 285.332031 C 458.539062 285.914062 458.597656 286.5 458.597656 287.097656 C 458.597656 287.691406 458.539062 288.277344 458.421875 288.863281 C 458.304688 289.445312 458.132812 290.011719 457.90625 290.558594 C 457.679688 291.109375 457.402344 291.628906 457.070312 292.125 C 456.742188 292.617188 456.367188 293.074219 455.945312 293.496094 C 455.523438 293.914062 455.066406 294.289062 454.574219 294.621094 C 454.078125 294.953125 453.558594 295.230469 453.007812 295.457031 C 452.460938 295.683594 451.894531 295.855469 451.3125 295.972656 C 450.730469 296.089844 450.140625 296.144531 449.546875 296.144531 Z M 449.546875 296.144531 "/><path style=" stroke:none;fill-rule:nonzero;fill:#113c7b;fill-opacity:1;" d="M 449.546875 332.347656 C 448.65625 332.347656 447.769531 332.300781 446.886719 332.214844 C 446 332.125 445.121094 331.996094 444.25 331.820312 C 443.378906 331.644531 442.519531 331.429688 441.667969 331.171875 C 440.816406 330.914062 439.980469 330.613281 439.160156 330.273438 C 438.339844 329.933594 437.535156 329.550781 436.753906 329.132812 C 435.96875 328.714844 435.207031 328.257812 434.46875 327.761719 C 433.730469 327.269531 433.015625 326.738281 432.328125 326.175781 C 431.644531 325.609375 430.984375 325.015625 430.355469 324.386719 C 429.726562 323.757812 429.132812 323.101562 428.566406 322.414062 C 428.003906 321.726562 427.472656 321.011719 426.980469 320.273438 C 426.484375 319.535156 426.03125 318.773438 425.609375 317.988281 C 425.191406 317.207031 424.8125 316.402344 424.46875 315.582031 C 424.128906 314.761719 423.828125 313.925781 423.570312 313.074219 C 423.3125 312.222656 423.097656 311.363281 422.921875 310.492188 C 422.746094 309.621094 422.617188 308.742188 422.527344 307.855469 C 422.441406 306.972656 422.394531 306.085938 422.394531 305.195312 C 422.394531 304.601562 422.453125 304.015625 422.570312 303.429688 C 422.683594 302.847656 422.855469 302.28125 423.085938 301.734375 C 423.3125 301.183594 423.589844 300.664062 423.921875 300.167969 C 424.25 299.675781 424.625 299.21875 425.046875 298.796875 C 425.464844 298.375 425.921875 298 426.417969 297.671875 C 426.910156 297.339844 427.433594 297.0625 427.980469 296.835938 C 428.53125 296.609375 429.097656 296.4375 429.679688 296.320312 C 430.261719 296.203125 430.851562 296.144531 431.445312 296.144531 C 432.039062 296.144531 432.628906 296.203125 433.210938 296.320312 C 433.792969 296.4375 434.359375 296.609375 434.910156 296.835938 C 435.457031 297.0625 435.980469 297.339844 436.472656 297.671875 C 436.96875 298 437.425781 298.375 437.84375 298.796875 C 438.265625 299.21875 438.640625 299.675781 438.96875 300.167969 C 439.300781 300.664062 439.578125 301.183594 439.808594 301.734375 C 440.035156 302.28125 440.207031 302.847656 440.320312 303.429688 C 440.4375 304.015625 440.496094 304.601562 440.496094 305.195312 C 440.496094 305.789062 440.554688 306.378906 440.667969 306.960938 C 440.785156 307.542969 440.957031 308.109375 441.183594 308.660156 C 441.410156 309.207031 441.691406 309.730469 442.019531 310.222656 C 442.351562 310.71875 442.726562 311.175781 443.144531 311.597656 C 443.566406 312.015625 444.023438 312.390625 444.519531 312.722656 C 445.011719 313.050781 445.535156 313.332031 446.082031 313.558594 C 446.632812 313.785156 447.199219 313.957031 447.78125 314.074219 C 448.363281 314.1875 448.953125 314.246094 449.546875 314.246094 C 450.140625 314.246094 450.730469 314.1875 451.3125 314.074219 C 451.894531 313.957031 452.460938 313.785156 453.007812 313.558594 C 453.558594 313.332031 454.078125 313.050781 454.574219 312.722656 C 455.066406 312.390625 455.523438 312.015625 455.945312 311.597656 C 456.367188 311.175781 456.742188 310.71875 457.070312 310.222656 C 457.402344 309.730469 457.679688 309.207031 457.90625 308.660156 C 458.132812 308.109375 458.304688 307.542969 458.421875 306.960938 C 458.539062 306.378906 458.597656 305.789062 458.597656 305.195312 C 458.597656 304.601562 458.539062 304.015625 458.421875 303.429688 C 458.304688 302.847656 458.132812 302.28125 457.90625 301.734375 C 457.679688 301.183594 457.402344 300.664062 457.070312 300.167969 C 456.742188 299.675781 456.367188 299.21875 455.945312 298.796875 C 455.523438 298.375 455.066406 298 454.574219 297.671875 C 454.078125 297.339844 453.558594 297.0625 453.007812 296.835938 C 452.460938 296.609375 451.894531 296.4375 451.3125 296.320312 C 450.730469 296.203125 450.140625 296.144531 449.546875 296.144531 C 448.953125 296.144531 448.363281 296.089844 447.78125 295.972656 C 447.199219 295.855469 446.632812 295.683594 446.082031 295.457031 C 445.535156 295.230469 445.011719 294.953125 444.519531 294.621094 C 444.023438 294.289062 443.566406 293.914062 443.144531 293.496094 C 442.726562 293.074219 442.351562 292.617188 442.019531 292.125 C 441.691406 291.628906 441.410156 291.109375 441.183594 290.558594 C 440.957031 290.011719 440.785156 289.445312 440.667969 288.863281 C 440.554688 288.277344 440.496094 287.691406 440.496094 287.097656 C 440.496094 286.5 440.554688 285.914062 440.667969 285.332031 C 440.785156 284.746094 440.957031 284.183594 441.183594 283.632812 C 441.410156 283.082031 441.691406 282.5625 442.019531 282.066406 C 442.351562 281.574219 442.726562 281.117188 443.144531 280.695312 C 443.566406 280.277344 444.023438 279.902344 444.519531 279.570312 C 445.011719 279.242188 445.535156 278.960938 446.082031 278.734375 C 446.632812 278.507812 447.199219 278.335938 447.78125 278.21875 C 448.363281 278.105469 448.953125 278.046875 449.546875 278.046875 C 450.433594 278.046875 451.320312 278.089844 452.207031 278.175781 C 453.09375 278.265625 453.96875 278.394531 454.84375 278.566406 C 455.714844 278.742188 456.578125 278.957031 457.425781 279.214844 C 458.277344 279.472656 459.113281 279.773438 459.9375 280.113281 C 460.757812 280.453125 461.558594 280.832031 462.34375 281.25 C 463.128906 281.671875 463.890625 282.128906 464.628906 282.621094 C 465.371094 283.117188 466.082031 283.644531 466.769531 284.207031 C 467.457031 284.773438 468.117188 285.371094 468.746094 286 C 469.375 286.625 469.96875 287.285156 470.535156 287.972656 C 471.097656 288.660156 471.625 289.375 472.121094 290.113281 C 472.613281 290.851562 473.070312 291.613281 473.492188 292.398438 C 473.910156 293.183594 474.289062 293.984375 474.628906 294.804688 C 474.96875 295.628906 475.269531 296.464844 475.527344 297.316406 C 475.785156 298.167969 476 299.027344 476.175781 299.898438 C 476.347656 300.773438 476.480469 301.648438 476.566406 302.535156 C 476.652344 303.421875 476.695312 304.308594 476.695312 305.195312 C 476.695312 306.085938 476.652344 306.972656 476.566406 307.859375 C 476.480469 308.742188 476.347656 309.621094 476.175781 310.492188 C 476 311.367188 475.785156 312.226562 475.527344 313.078125 C 475.269531 313.929688 474.96875 314.765625 474.628906 315.585938 C 474.289062 316.40625 473.910156 317.210938 473.492188 317.996094 C 473.070312 318.78125 472.613281 319.542969 472.121094 320.28125 C 471.625 321.019531 471.097656 321.734375 470.535156 322.421875 C 469.96875 323.109375 469.375 323.765625 468.746094 324.394531 C 468.117188 325.023438 467.457031 325.621094 466.769531 326.183594 C 466.082031 326.75 465.371094 327.277344 464.628906 327.769531 C 463.890625 328.265625 463.128906 328.722656 462.34375 329.140625 C 461.558594 329.558594 460.757812 329.941406 459.9375 330.28125 C 459.113281 330.621094 458.277344 330.917969 457.425781 331.179688 C 456.578125 331.4375 455.714844 331.652344 454.84375 331.824219 C 453.96875 332 453.09375 332.128906 452.207031 332.214844 C 451.320312 332.304688 450.433594 332.347656 449.546875 332.347656 Z M 449.546875 332.347656 "/><path style=" stroke:none;fill-rule:nonzero;fill:#113c7b;fill-opacity:1;" d="M 449.546875 259.945312 C 448.953125 259.945312 448.363281 259.886719 447.78125 259.773438 C 447.199219 259.65625 446.632812 259.484375 446.082031 259.257812 C 445.535156 259.027344 445.011719 258.75 444.519531 258.421875 C 444.023438 258.089844 443.566406 257.714844 443.144531 257.292969 C 442.726562 256.875 442.351562 256.417969 442.019531 255.921875 C 441.691406 255.429688 441.410156 254.90625 441.183594 254.359375 C 440.957031 253.808594 440.785156 253.242188 440.667969 252.660156 C 440.554688 252.078125 440.496094 251.488281 440.496094 250.894531 L 440.496094 241.84375 C 440.496094 241.25 440.554688 240.664062 440.667969 240.078125 C 440.785156 239.496094 440.957031 238.929688 441.183594 238.382812 C 441.410156 237.832031 441.691406 237.3125 442.019531 236.816406 C 442.351562 236.324219 442.726562 235.867188 443.144531 235.445312 C 443.566406 235.027344 444.023438 234.648438 444.519531 234.320312 C 445.011719 233.988281 445.535156 233.710938 446.082031 233.484375 C 446.632812 233.257812 447.199219 233.085938 447.78125 232.96875 C 448.363281 232.851562 448.953125 232.792969 449.546875 232.792969 C 450.140625 232.792969 450.730469 232.851562 451.3125 232.96875 C 451.894531 233.085938 452.460938 233.257812 453.007812 233.484375 C 453.558594 233.710938 454.078125 233.988281 454.574219 234.320312 C 455.066406 234.648438 455.523438 235.027344 455.945312 235.445312 C 456.367188 235.867188 456.742188 236.324219 457.070312 236.816406 C 457.402344 237.3125 457.679688 237.832031 457.90625 238.382812 C 458.132812 238.929688 458.304688 239.496094 458.421875 240.078125 C 458.539062 240.664062 458.597656 241.25 458.597656 241.84375 L 458.597656 250.894531 C 458.597656 251.488281 458.539062 252.078125 458.421875 252.660156 C 458.304688 253.242188 458.132812 253.808594 457.90625 254.359375 C 457.679688 254.90625 457.402344 255.429688 457.070312 255.921875 C 456.742188 256.417969 456.367188 256.875 455.945312 257.292969 C 455.523438 257.714844 455.066406 258.089844 454.574219 258.421875 C 454.078125 258.75 453.558594 259.027344 453.007812 259.257812 C 452.460938 259.484375 451.894531 259.65625 451.3125 259.773438 C 450.730469 259.886719 450.140625 259.945312 449.546875 259.945312 Z M 449.546875 259.945312 "/><path style=" stroke:none;fill-rule:nonzero;fill:#113c7b;fill-opacity:1;" d="M 449.546875 341.398438 C 448.953125 341.398438 448.363281 341.339844 447.78125 341.222656 C 447.199219 341.109375 446.632812 340.9375 446.082031 340.707031 C 445.535156 340.480469 445.011719 340.203125 444.519531 339.871094 C 444.023438 339.542969 443.566406 339.167969 443.144531 338.746094 C 442.726562 338.328125 442.351562 337.871094 442.019531 337.375 C 441.691406 336.882812 441.410156 336.359375 441.183594 335.808594 C 440.957031 335.261719 440.785156 334.695312 440.667969 334.113281 C 440.554688 333.53125 440.496094 332.941406 440.496094 332.347656 L 440.496094 323.296875 C 440.496094 322.703125 440.554688 322.113281 440.667969 321.53125 C 440.785156 320.949219 440.957031 320.382812 441.183594 319.832031 C 441.410156 319.285156 441.691406 318.761719 442.019531 318.269531 C 442.351562 317.773438 442.726562 317.316406 443.144531 316.898438 C 443.566406 316.476562 444.023438 316.101562 444.519531 315.773438 C 445.011719 315.441406 445.535156 315.164062 446.082031 314.9375 C 446.632812 314.707031 447.199219 314.535156 447.78125 314.421875 C 448.363281 314.304688 448.953125 314.246094 449.546875 314.246094 C 450.140625 314.246094 450.730469 314.304688 451.3125 314.421875 C 451.894531 314.535156 452.460938 314.707031 453.007812 314.9375 C 453.558594 315.164062 454.078125 315.441406 454.574219 315.773438 C 455.066406 316.101562 455.523438 316.476562 455.945312 316.898438 C 456.367188 317.316406 456.742188 317.773438 457.070312 318.269531 C 457.402344 318.761719 457.679688 319.285156 457.90625 319.832031 C 458.132812 320.382812 458.304688 320.949219 458.421875 321.53125 C 458.539062 322.113281 458.597656 322.703125 458.597656 323.296875 L 458.597656 332.347656 C 458.597656 332.941406 458.539062 333.53125 458.421875 334.113281 C 458.304688 334.695312 458.132812 335.261719 457.90625 335.808594 C 457.679688 336.359375 457.402344 336.882812 457.070312 337.375 C 456.742188 337.871094 456.367188 338.328125 455.945312 338.746094 C 455.523438 339.167969 455.066406 339.542969 454.574219 339.871094 C 454.078125 340.203125 453.558594 340.480469 453.007812 340.707031 C 452.460938 340.9375 451.894531 341.109375 451.3125 341.222656 C 450.730469 341.339844 450.140625 341.398438 449.546875 341.398438 Z M 449.546875 341.398438 "/><g clip-rule="nonzero" clip-path="url(#3310dfabde)"><path style=" stroke:none;fill-rule:nonzero;fill:#113c7b;fill-opacity:1;" d="M 449.546875 377.597656 C 448.066406 377.597656 446.585938 377.5625 445.105469 377.488281 C 443.625 377.417969 442.148438 377.308594 440.675781 377.164062 C 439.203125 377.015625 437.730469 376.835938 436.265625 376.617188 C 434.800781 376.402344 433.34375 376.148438 431.890625 375.859375 C 430.4375 375.570312 428.992188 375.246094 427.554688 374.886719 C 426.117188 374.527344 424.691406 374.132812 423.273438 373.699219 C 421.855469 373.269531 420.453125 372.808594 419.058594 372.308594 C 417.664062 371.808594 416.28125 371.277344 414.914062 370.710938 C 413.542969 370.140625 412.191406 369.542969 410.851562 368.910156 C 409.511719 368.277344 408.191406 367.609375 406.882812 366.910156 C 405.578125 366.214844 404.289062 365.484375 403.019531 364.722656 C 401.75 363.960938 400.496094 363.167969 399.265625 362.347656 C 398.035156 361.523438 396.824219 360.671875 395.632812 359.789062 C 394.445312 358.90625 393.277344 357.996094 392.132812 357.054688 C 390.988281 356.117188 389.867188 355.148438 388.769531 354.152344 C 387.671875 353.160156 386.597656 352.136719 385.550781 351.089844 C 384.503906 350.042969 383.484375 348.972656 382.488281 347.875 C 381.492188 346.777344 380.527344 345.65625 379.585938 344.511719 C 378.648438 343.363281 377.734375 342.199219 376.855469 341.007812 C 375.972656 339.820312 375.117188 338.609375 374.296875 337.375 C 373.472656 336.144531 372.679688 334.894531 371.917969 333.625 C 371.160156 332.351562 370.429688 331.066406 369.730469 329.757812 C 369.03125 328.453125 368.367188 327.128906 367.734375 325.789062 C 367.101562 324.453125 366.5 323.097656 365.933594 321.730469 C 365.367188 320.359375 364.832031 318.980469 364.335938 317.585938 C 363.835938 316.191406 363.371094 314.785156 362.941406 313.367188 C 362.511719 311.949219 362.117188 310.523438 361.757812 309.085938 C 361.394531 307.648438 361.070312 306.203125 360.78125 304.753906 C 360.492188 303.300781 360.242188 301.839844 360.023438 300.375 C 359.804688 298.910156 359.625 297.441406 359.480469 295.96875 C 359.335938 294.492188 359.226562 293.015625 359.152344 291.535156 C 359.082031 290.058594 359.042969 288.578125 359.042969 287.097656 C 359.042969 285.613281 359.082031 284.132812 359.152344 282.65625 C 359.226562 281.175781 359.335938 279.699219 359.480469 278.226562 C 359.625 276.75 359.804688 275.28125 360.023438 273.816406 C 360.242188 272.351562 360.492188 270.894531 360.78125 269.441406 C 361.070312 267.988281 361.394531 266.542969 361.757812 265.105469 C 362.117188 263.667969 362.511719 262.242188 362.941406 260.824219 C 363.371094 259.40625 363.835938 258 364.335938 256.605469 C 364.832031 255.210938 365.367188 253.832031 365.933594 252.460938 C 366.5 251.09375 367.101562 249.742188 367.734375 248.402344 C 368.367188 247.0625 369.03125 245.738281 369.730469 244.433594 C 370.429688 243.128906 371.160156 241.839844 371.917969 240.570312 C 372.679688 239.296875 373.472656 238.046875 374.296875 236.816406 C 375.117188 235.585938 375.972656 234.375 376.855469 233.183594 C 377.738281 231.996094 378.648438 230.828125 379.585938 229.683594 C 380.527344 228.539062 381.492188 227.417969 382.488281 226.320312 C 383.484375 225.222656 384.503906 224.148438 385.550781 223.101562 C 386.597656 222.054688 387.671875 221.03125 388.769531 220.039062 C 389.867188 219.042969 390.988281 218.078125 392.132812 217.136719 C 393.277344 216.199219 394.445312 215.285156 395.632812 214.402344 C 396.824219 213.523438 398.035156 212.667969 399.265625 211.847656 C 400.496094 211.023438 401.75 210.230469 403.019531 209.46875 C 404.289062 208.707031 405.578125 207.980469 406.882812 207.28125 C 408.191406 206.582031 409.511719 205.917969 410.851562 205.285156 C 412.191406 204.648438 413.542969 204.050781 414.914062 203.484375 C 416.28125 202.917969 417.664062 202.382812 419.058594 201.882812 C 420.453125 201.386719 421.855469 200.921875 423.273438 200.492188 C 424.691406 200.0625 426.117188 199.667969 427.554688 199.304688 C 428.992188 198.945312 430.4375 198.621094 431.890625 198.332031 C 433.34375 198.042969 434.800781 197.789062 436.265625 197.574219 C 437.730469 197.355469 439.203125 197.175781 440.675781 197.03125 C 442.148438 196.882812 443.625 196.777344 445.105469 196.703125 C 446.585938 196.628906 448.066406 196.59375 449.546875 196.59375 C 451.027344 196.59375 452.507812 196.628906 453.988281 196.703125 C 455.464844 196.777344 456.941406 196.882812 458.417969 197.03125 C 459.890625 197.175781 461.359375 197.355469 462.824219 197.574219 C 464.289062 197.789062 465.75 198.042969 467.203125 198.332031 C 468.65625 198.621094 470.097656 198.945312 471.535156 199.304688 C 472.972656 199.667969 474.398438 200.0625 475.816406 200.492188 C 477.234375 200.921875 478.640625 201.386719 480.035156 201.882812 C 481.429688 202.382812 482.8125 202.917969 484.179688 203.484375 C 485.546875 204.050781 486.902344 204.648438 488.242188 205.285156 C 489.578125 205.917969 490.902344 206.582031 492.207031 207.28125 C 493.515625 207.980469 494.804688 208.707031 496.074219 209.46875 C 497.34375 210.230469 498.59375 211.023438 499.828125 211.847656 C 501.058594 212.667969 502.269531 213.523438 503.457031 214.402344 C 504.648438 215.285156 505.816406 216.199219 506.960938 217.136719 C 508.105469 218.078125 509.226562 219.042969 510.324219 220.039062 C 511.421875 221.03125 512.492188 222.054688 513.539062 223.101562 C 514.585938 224.148438 515.609375 225.222656 516.605469 226.320312 C 517.597656 227.417969 518.566406 228.539062 519.503906 229.683594 C 520.445312 230.828125 521.355469 231.996094 522.238281 233.183594 C 523.121094 234.375 523.972656 235.585938 524.796875 236.816406 C 525.617188 238.046875 526.410156 239.296875 527.171875 240.570312 C 527.933594 241.839844 528.664062 243.128906 529.363281 244.433594 C 530.058594 245.738281 530.726562 247.0625 531.359375 248.402344 C 531.992188 249.742188 532.59375 251.09375 533.160156 252.460938 C 533.726562 253.832031 534.257812 255.210938 534.757812 256.605469 C 535.257812 258 535.722656 259.40625 536.152344 260.824219 C 536.582031 262.242188 536.976562 263.667969 537.335938 265.105469 C 537.695312 266.542969 538.019531 267.988281 538.308594 269.441406 C 538.597656 270.894531 538.851562 272.351562 539.070312 273.816406 C 539.285156 275.28125 539.46875 276.75 539.613281 278.226562 C 539.757812 279.699219 539.867188 281.175781 539.9375 282.65625 C 540.011719 284.132812 540.046875 285.613281 540.046875 287.097656 C 540.046875 288.578125 540.007812 290.054688 539.933594 291.535156 C 539.859375 293.015625 539.75 294.488281 539.601562 295.964844 C 539.457031 297.4375 539.273438 298.90625 539.054688 300.371094 C 538.835938 301.835938 538.582031 303.292969 538.292969 304.746094 C 538 306.195312 537.675781 307.640625 537.316406 309.078125 C 536.953125 310.511719 536.558594 311.9375 536.128906 313.355469 C 535.695312 314.773438 535.230469 316.179688 534.730469 317.570312 C 534.230469 318.964844 533.699219 320.347656 533.132812 321.714844 C 532.5625 323.082031 531.964844 324.433594 531.328125 325.773438 C 530.695312 327.109375 530.03125 328.433594 529.332031 329.738281 C 528.632812 331.042969 527.902344 332.332031 527.140625 333.601562 C 526.378906 334.871094 525.585938 336.121094 524.765625 337.351562 C 523.941406 338.582031 523.089844 339.792969 522.207031 340.980469 C 521.324219 342.171875 520.414062 343.335938 519.472656 344.480469 C 518.535156 345.625 517.566406 346.746094 516.574219 347.84375 C 515.578125 348.941406 514.558594 350.011719 513.511719 351.0625 C 512.464844 352.109375 511.390625 353.128906 510.292969 354.121094 C 509.199219 355.117188 508.078125 356.085938 506.933594 357.023438 C 505.789062 357.964844 504.621094 358.875 503.433594 359.757812 C 502.242188 360.636719 501.03125 361.492188 499.800781 362.3125 C 498.570312 363.136719 497.320312 363.929688 496.050781 364.691406 C 494.78125 365.453125 493.492188 366.183594 492.1875 366.882812 C 490.882812 367.578125 489.558594 368.246094 488.222656 368.878906 C 486.882812 369.511719 485.53125 370.113281 484.164062 370.679688 C 482.796875 371.25 481.414062 371.78125 480.019531 372.28125 C 478.628906 372.78125 477.222656 373.246094 475.804688 373.679688 C 474.390625 374.109375 472.960938 374.503906 471.527344 374.867188 C 470.089844 375.226562 468.648438 375.550781 467.195312 375.84375 C 465.742188 376.132812 464.285156 376.386719 462.820312 376.605469 C 461.355469 376.824219 459.886719 377.007812 458.414062 377.152344 C 456.941406 377.300781 455.464844 377.410156 453.984375 377.484375 C 452.507812 377.558594 451.027344 377.597656 449.546875 377.597656 Z M 449.546875 214.695312 C 448.359375 214.695312 447.175781 214.722656 445.992188 214.78125 C 444.808594 214.839844 443.628906 214.925781 442.449219 215.042969 C 441.269531 215.160156 440.09375 215.304688 438.921875 215.476562 C 437.75 215.652344 436.582031 215.855469 435.421875 216.085938 C 434.257812 216.316406 433.101562 216.578125 431.953125 216.863281 C 430.804688 217.152344 429.664062 217.46875 428.527344 217.8125 C 427.394531 218.15625 426.269531 218.527344 425.15625 218.925781 C 424.039062 219.324219 422.933594 219.753906 421.839844 220.207031 C 420.746094 220.660156 419.660156 221.140625 418.589844 221.644531 C 417.519531 222.152344 416.460938 222.683594 415.417969 223.242188 C 414.371094 223.800781 413.339844 224.386719 412.324219 224.996094 C 411.308594 225.605469 410.308594 226.238281 409.320312 226.894531 C 408.335938 227.554688 407.367188 228.238281 406.417969 228.941406 C 405.464844 229.648438 404.53125 230.378906 403.613281 231.128906 C 402.699219 231.878906 401.800781 232.652344 400.925781 233.449219 C 400.046875 234.246094 399.1875 235.0625 398.351562 235.902344 C 397.511719 236.738281 396.695312 237.597656 395.898438 238.472656 C 395.105469 239.351562 394.332031 240.25 393.578125 241.164062 C 392.828125 242.082031 392.097656 243.015625 391.390625 243.964844 C 390.6875 244.917969 390.003906 245.886719 389.347656 246.871094 C 388.6875 247.855469 388.054688 248.859375 387.445312 249.875 C 386.835938 250.890625 386.25 251.921875 385.695312 252.964844 C 385.136719 254.011719 384.601562 255.070312 384.09375 256.140625 C 383.589844 257.210938 383.109375 258.292969 382.65625 259.390625 C 382.203125 260.484375 381.777344 261.589844 381.375 262.703125 C 380.976562 263.820312 380.605469 264.945312 380.261719 266.078125 C 379.917969 267.214844 379.601562 268.355469 379.3125 269.503906 C 379.027344 270.652344 378.765625 271.808594 378.535156 272.972656 C 378.304688 274.132812 378.101562 275.300781 377.929688 276.472656 C 377.753906 277.644531 377.609375 278.820312 377.492188 280 C 377.375 281.179688 377.289062 282.359375 377.230469 283.542969 C 377.171875 284.726562 377.144531 285.910156 377.144531 287.097656 C 377.144531 288.28125 377.171875 289.464844 377.230469 290.648438 C 377.289062 291.832031 377.375 293.011719 377.492188 294.191406 C 377.609375 295.371094 377.753906 296.546875 377.929688 297.71875 C 378.101562 298.890625 378.304688 300.058594 378.535156 301.222656 C 378.765625 302.382812 379.027344 303.539062 379.3125 304.6875 C 379.601562 305.835938 379.917969 306.980469 380.261719 308.113281 C 380.605469 309.246094 380.976562 310.371094 381.375 311.488281 C 381.777344 312.601562 382.203125 313.707031 382.65625 314.804688 C 383.109375 315.898438 383.589844 316.980469 384.09375 318.050781 C 384.601562 319.121094 385.136719 320.179688 385.695312 321.226562 C 386.25 322.269531 386.835938 323.300781 387.445312 324.316406 C 388.054688 325.335938 388.6875 326.335938 389.347656 327.320312 C 390.003906 328.304688 390.6875 329.273438 391.390625 330.226562 C 392.097656 331.175781 392.828125 332.109375 393.578125 333.027344 C 394.332031 333.941406 395.105469 334.839844 395.898438 335.71875 C 396.695312 336.597656 397.511719 337.453125 398.351562 338.292969 C 399.1875 339.128906 400.046875 339.945312 400.925781 340.742188 C 401.800781 341.539062 402.699219 342.3125 403.613281 343.0625 C 404.53125 343.816406 405.464844 344.542969 406.417969 345.25 C 407.367188 345.957031 408.335938 346.636719 409.320312 347.296875 C 410.308594 347.953125 411.308594 348.585938 412.324219 349.195312 C 413.339844 349.804688 414.371094 350.390625 415.417969 350.949219 C 416.460938 351.507812 417.519531 352.039062 418.589844 352.546875 C 419.660156 353.054688 420.746094 353.53125 421.839844 353.988281 C 422.933594 354.441406 424.039062 354.867188 425.15625 355.265625 C 426.269531 355.664062 427.394531 356.035156 428.527344 356.378906 C 429.664062 356.722656 430.804688 357.039062 431.953125 357.328125 C 433.101562 357.617188 434.257812 357.875 435.421875 358.105469 C 436.582031 358.335938 437.75 358.539062 438.921875 358.714844 C 440.09375 358.886719 441.269531 359.03125 442.449219 359.148438 C 443.628906 359.265625 444.808594 359.351562 445.992188 359.410156 C 447.175781 359.46875 448.359375 359.496094 449.546875 359.496094 C 450.730469 359.496094 451.914062 359.46875 453.097656 359.410156 C 454.28125 359.351562 455.464844 359.265625 456.640625 359.148438 C 457.820312 359.03125 458.996094 358.886719 460.167969 358.714844 C 461.339844 358.539062 462.507812 358.335938 463.671875 358.105469 C 464.832031 357.875 465.988281 357.617188 467.136719 357.328125 C 468.289062 357.039062 469.429688 356.722656 470.5625 356.378906 C 471.695312 356.035156 472.820312 355.664062 473.9375 355.265625 C 475.054688 354.867188 476.15625 354.441406 477.253906 353.988281 C 478.347656 353.53125 479.429688 353.054688 480.5 352.546875 C 481.574219 352.039062 482.628906 351.507812 483.675781 350.949219 C 484.722656 350.390625 485.75 349.804688 486.769531 349.195312 C 487.785156 348.585938 488.785156 347.953125 489.769531 347.296875 C 490.753906 346.636719 491.722656 345.957031 492.675781 345.25 C 493.628906 344.542969 494.5625 343.816406 495.476562 343.0625 C 496.394531 342.3125 497.289062 341.539062 498.167969 340.742188 C 499.046875 339.945312 499.902344 339.128906 500.742188 338.292969 C 501.578125 337.453125 502.394531 336.597656 503.191406 335.71875 C 503.988281 334.839844 504.761719 333.941406 505.511719 333.027344 C 506.265625 332.109375 506.992188 331.175781 507.699219 330.226562 C 508.40625 329.273438 509.085938 328.304688 509.746094 327.320312 C 510.402344 326.335938 511.039062 325.335938 511.648438 324.316406 C 512.257812 323.300781 512.839844 322.269531 513.398438 321.226562 C 513.957031 320.179688 514.488281 319.121094 514.996094 318.050781 C 515.503906 316.980469 515.984375 315.898438 516.4375 314.804688 C 516.890625 313.707031 517.316406 312.601562 517.714844 311.488281 C 518.113281 310.371094 518.484375 309.246094 518.828125 308.113281 C 519.175781 306.980469 519.488281 305.835938 519.777344 304.6875 C 520.066406 303.539062 520.324219 302.382812 520.554688 301.222656 C 520.789062 300.058594 520.988281 298.890625 521.164062 297.71875 C 521.335938 296.546875 521.484375 295.371094 521.597656 294.191406 C 521.714844 293.011719 521.800781 291.832031 521.859375 290.648438 C 521.917969 289.464844 521.949219 288.28125 521.949219 287.097656 C 521.945312 285.910156 521.914062 284.726562 521.855469 283.542969 C 521.796875 282.363281 521.707031 281.179688 521.589844 280.003906 C 521.472656 278.824219 521.328125 277.648438 521.152344 276.476562 C 520.976562 275.304688 520.773438 274.136719 520.542969 272.976562 C 520.308594 271.816406 520.050781 270.660156 519.761719 269.511719 C 519.472656 268.363281 519.15625 267.222656 518.8125 266.089844 C 518.464844 264.953125 518.09375 263.832031 517.695312 262.714844 C 517.292969 261.601562 516.867188 260.496094 516.414062 259.402344 C 515.960938 258.308594 515.480469 257.226562 514.972656 256.15625 C 514.464844 255.085938 513.933594 254.027344 513.375 252.984375 C 512.816406 251.9375 512.230469 250.90625 511.621094 249.890625 C 511.011719 248.875 510.378906 247.875 509.71875 246.890625 C 509.0625 245.90625 508.378906 244.9375 507.671875 243.988281 C 506.96875 243.035156 506.238281 242.101562 505.488281 241.1875 C 504.734375 240.273438 503.960938 239.375 503.167969 238.496094 C 502.371094 237.621094 501.554688 236.761719 500.71875 235.925781 C 499.878906 235.085938 499.023438 234.269531 498.144531 233.476562 C 497.265625 232.679688 496.371094 231.90625 495.453125 231.15625 C 494.539062 230.402344 493.605469 229.675781 492.65625 228.96875 C 491.703125 228.261719 490.734375 227.582031 489.75 226.921875 C 488.765625 226.261719 487.765625 225.628906 486.75 225.019531 C 485.734375 224.410156 484.703125 223.828125 483.660156 223.269531 C 482.613281 222.710938 481.558594 222.175781 480.488281 221.667969 C 479.417969 221.164062 478.335938 220.683594 477.238281 220.226562 C 476.144531 219.773438 475.042969 219.347656 473.925781 218.949219 C 472.8125 218.546875 471.6875 218.175781 470.554688 217.832031 C 469.421875 217.484375 468.28125 217.167969 467.128906 216.878906 C 465.980469 216.59375 464.828125 216.332031 463.664062 216.097656 C 462.503906 215.867188 461.335938 215.664062 460.164062 215.488281 C 458.992188 215.3125 457.820312 215.167969 456.640625 215.050781 C 455.460938 214.933594 454.28125 214.84375 453.097656 214.785156 C 451.914062 214.726562 450.730469 214.695312 449.546875 214.695312 Z M 449.546875 214.695312 "/></g><path style=" stroke:none;fill-rule:nonzero;fill:#113c7b;fill-opacity:1;" d="M 567.199219 377.597656 L 331.894531 377.597656 C 331.300781 377.597656 330.710938 377.539062 330.128906 377.425781 C 329.542969 377.308594 328.980469 377.136719 328.429688 376.910156 C 327.882812 376.683594 327.359375 376.402344 326.863281 376.074219 C 326.371094 375.742188 325.914062 375.367188 325.492188 374.949219 C 325.074219 374.527344 324.699219 374.070312 324.367188 373.574219 C 324.039062 373.082031 323.757812 372.558594 323.53125 372.011719 C 323.304688 371.460938 323.132812 370.894531 323.015625 370.3125 C 322.902344 369.730469 322.84375 369.140625 322.84375 368.546875 C 322.84375 367.953125 322.902344 367.363281 323.015625 366.78125 C 323.132812 366.199219 323.304688 365.632812 323.53125 365.085938 C 323.757812 364.535156 324.039062 364.015625 324.367188 363.519531 C 324.699219 363.027344 325.074219 362.570312 325.492188 362.148438 C 325.914062 361.726562 326.371094 361.351562 326.863281 361.023438 C 327.359375 360.691406 327.882812 360.414062 328.429688 360.1875 C 328.980469 359.960938 329.542969 359.789062 330.128906 359.671875 C 330.710938 359.554688 331.300781 359.496094 331.894531 359.496094 L 567.199219 359.496094 C 567.792969 359.496094 568.382812 359.554688 568.964844 359.671875 C 569.546875 359.789062 570.113281 359.960938 570.660156 360.1875 C 571.210938 360.414062 571.734375 360.691406 572.226562 361.023438 C 572.71875 361.351562 573.179688 361.726562 573.597656 362.148438 C 574.019531 362.570312 574.394531 363.027344 574.722656 363.519531 C 575.054688 364.015625 575.332031 364.535156 575.558594 365.085938 C 575.789062 365.632812 575.957031 366.199219 576.074219 366.78125 C 576.191406 367.363281 576.25 367.953125 576.25 368.546875 C 576.25 369.140625 576.191406 369.730469 576.074219 370.3125 C 575.957031 370.894531 575.789062 371.460938 575.558594 372.011719 C 575.332031 372.558594 575.054688 373.082031 574.722656 373.574219 C 574.394531 374.070312 574.019531 374.527344 573.597656 374.949219 C 573.179688 375.367188 572.71875 375.742188 572.226562 376.074219 C 571.734375 376.402344 571.210938 376.683594 570.660156 376.910156 C 570.113281 377.136719 569.546875 377.308594 568.964844 377.425781 C 568.382812 377.539062 567.792969 377.597656 567.199219 377.597656 Z M 567.199219 377.597656 "/><g clip-rule="nonzero" clip-path="url(#2c4e0f2b30)"><path style=" stroke:none;fill-rule:nonzero;fill:#113c7b;fill-opacity:1;" d="M 223.28125 431.898438 C 222.898438 431.898438 222.515625 431.875 222.132812 431.824219 C 221.753906 431.777344 221.378906 431.703125 221.007812 431.605469 C 220.632812 431.507812 220.269531 431.390625 219.914062 431.246094 C 219.558594 431.101562 219.210938 430.9375 218.878906 430.75 C 218.542969 430.5625 218.21875 430.355469 217.910156 430.128906 C 217.601562 429.898438 217.308594 429.652344 217.03125 429.386719 C 216.753906 429.121094 216.496094 428.839844 216.253906 428.542969 C 216.011719 428.242188 215.789062 427.929688 215.589844 427.601562 C 215.386719 427.277344 215.207031 426.9375 215.046875 426.589844 C 214.890625 426.238281 214.753906 425.882812 214.640625 425.515625 C 214.527344 425.148438 214.4375 424.773438 214.371094 424.394531 C 214.308594 424.019531 214.265625 423.636719 214.25 423.253906 C 214.230469 422.871094 214.238281 422.488281 214.269531 422.105469 C 214.300781 421.722656 214.359375 421.34375 214.4375 420.964844 C 214.515625 420.589844 214.621094 420.222656 214.746094 419.859375 C 214.875 419.496094 215.023438 419.144531 215.195312 418.800781 L 269.496094 310.199219 C 269.871094 309.445312 270.34375 308.761719 270.910156 308.140625 C 271.476562 307.519531 272.117188 306.988281 272.832031 306.546875 C 273.546875 306.105469 274.308594 305.769531 275.117188 305.539062 C 275.925781 305.3125 276.75 305.195312 277.59375 305.195312 L 372.800781 305.195312 C 373.394531 305.195312 373.984375 305.253906 374.566406 305.371094 C 375.148438 305.488281 375.714844 305.65625 376.261719 305.886719 C 376.8125 306.113281 377.335938 306.390625 377.828125 306.722656 C 378.324219 307.050781 378.78125 307.425781 379.199219 307.847656 C 379.621094 308.265625 379.996094 308.722656 380.324219 309.21875 C 380.65625 309.710938 380.933594 310.234375 381.160156 310.785156 C 381.390625 311.332031 381.5625 311.898438 381.675781 312.480469 C 381.792969 313.0625 381.851562 313.652344 381.851562 314.246094 C 381.851562 314.839844 381.792969 315.429688 381.675781 316.011719 C 381.5625 316.59375 381.390625 317.160156 381.160156 317.710938 C 380.933594 318.257812 380.65625 318.78125 380.324219 319.273438 C 379.996094 319.769531 379.621094 320.226562 379.199219 320.644531 C 378.78125 321.066406 378.324219 321.441406 377.828125 321.773438 C 377.335938 322.101562 376.8125 322.378906 376.261719 322.609375 C 375.714844 322.835938 375.148438 323.007812 374.566406 323.121094 C 373.984375 323.238281 373.394531 323.296875 372.800781 323.296875 L 283.1875 323.296875 L 231.386719 426.898438 C 231.011719 427.648438 230.539062 428.335938 229.96875 428.957031 C 229.402344 429.578125 228.761719 430.109375 228.046875 430.550781 C 227.328125 430.992188 226.566406 431.328125 225.757812 431.558594 C 224.949219 431.785156 224.121094 431.898438 223.28125 431.898438 Z M 223.28125 431.898438 "/></g><path style=" stroke:none;fill-rule:nonzero;fill:#113c7b;fill-opacity:1;" d="M 675.808594 431.898438 C 674.96875 431.902344 674.144531 431.785156 673.335938 431.558594 C 672.523438 431.328125 671.761719 430.992188 671.046875 430.550781 C 670.328125 430.109375 669.6875 429.578125 669.121094 428.957031 C 668.554688 428.335938 668.082031 427.648438 667.707031 426.898438 L 615.90625 323.296875 L 526.296875 323.296875 C 525.703125 323.296875 525.113281 323.238281 524.53125 323.121094 C 523.949219 323.007812 523.382812 322.835938 522.832031 322.609375 C 522.285156 322.378906 521.761719 322.101562 521.269531 321.773438 C 520.773438 321.441406 520.316406 321.066406 519.898438 320.644531 C 519.476562 320.226562 519.101562 319.769531 518.769531 319.273438 C 518.441406 318.78125 518.164062 318.257812 517.933594 317.710938 C 517.707031 317.160156 517.535156 316.59375 517.417969 316.011719 C 517.304688 315.429688 517.246094 314.839844 517.246094 314.246094 C 517.246094 313.652344 517.304688 313.0625 517.417969 312.480469 C 517.535156 311.898438 517.707031 311.332031 517.933594 310.785156 C 518.164062 310.234375 518.441406 309.710938 518.769531 309.21875 C 519.101562 308.722656 519.476562 308.265625 519.898438 307.847656 C 520.316406 307.425781 520.773438 307.050781 521.269531 306.722656 C 521.761719 306.390625 522.285156 306.113281 522.832031 305.886719 C 523.382812 305.65625 523.949219 305.488281 524.53125 305.371094 C 525.113281 305.253906 525.703125 305.195312 526.296875 305.195312 L 621.5 305.195312 C 622.339844 305.195312 623.164062 305.3125 623.972656 305.539062 C 624.78125 305.769531 625.542969 306.105469 626.257812 306.546875 C 626.972656 306.988281 627.613281 307.519531 628.179688 308.140625 C 628.746094 308.761719 629.21875 309.445312 629.59375 310.199219 L 683.894531 418.800781 C 684.066406 419.144531 684.21875 419.496094 684.34375 419.859375 C 684.472656 420.222656 684.574219 420.589844 684.65625 420.964844 C 684.734375 421.34375 684.789062 421.722656 684.820312 422.105469 C 684.851562 422.488281 684.859375 422.871094 684.84375 423.253906 C 684.828125 423.636719 684.785156 424.019531 684.71875 424.394531 C 684.652344 424.773438 684.5625 425.148438 684.449219 425.515625 C 684.339844 425.882812 684.203125 426.238281 684.042969 426.589844 C 683.886719 426.9375 683.703125 427.277344 683.503906 427.601562 C 683.300781 427.929688 683.078125 428.242188 682.839844 428.542969 C 682.597656 428.839844 682.335938 429.121094 682.058594 429.386719 C 681.78125 429.652344 681.488281 429.898438 681.179688 430.128906 C 680.871094 430.355469 680.550781 430.5625 680.214844 430.75 C 679.878906 430.9375 679.535156 431.101562 679.175781 431.246094 C 678.820312 431.390625 678.457031 431.507812 678.085938 431.605469 C 677.714844 431.703125 677.339844 431.777344 676.957031 431.824219 C 676.578125 431.875 676.195312 431.898438 675.808594 431.898438 Z M 675.808594 431.898438 "/><g clip-rule="nonzero" clip-path="url(#1ea63213c3)"><path style=" stroke:none;fill-rule:nonzero;fill:#113c7b;fill-opacity:1;" d="M 675.800781 703.40625 L 223.289062 703.40625 C 222.695312 703.40625 222.109375 703.347656 221.523438 703.230469 C 220.941406 703.117188 220.375 702.945312 219.828125 702.714844 C 219.277344 702.488281 218.757812 702.210938 218.261719 701.878906 C 217.769531 701.550781 217.3125 701.175781 216.890625 700.753906 C 216.472656 700.335938 216.097656 699.878906 215.765625 699.382812 C 215.4375 698.890625 215.15625 698.367188 214.929688 697.820312 C 214.703125 697.269531 214.53125 696.703125 214.414062 696.121094 C 214.296875 695.539062 214.242188 694.949219 214.242188 694.355469 L 214.242188 422.847656 C 214.242188 422.253906 214.296875 421.667969 214.414062 421.082031 C 214.53125 420.5 214.703125 419.933594 214.929688 419.386719 C 215.15625 418.835938 215.4375 418.316406 215.765625 417.820312 C 216.097656 417.328125 216.472656 416.871094 216.890625 416.449219 C 217.3125 416.03125 217.769531 415.65625 218.261719 415.324219 C 218.757812 414.992188 219.277344 414.714844 219.828125 414.488281 C 220.375 414.261719 220.941406 414.089844 221.523438 413.972656 C 222.109375 413.855469 222.695312 413.800781 223.289062 413.800781 C 223.886719 413.800781 224.472656 413.855469 225.054688 413.972656 C 225.640625 414.089844 226.207031 414.261719 226.753906 414.488281 C 227.304688 414.714844 227.824219 414.992188 228.320312 415.324219 C 228.8125 415.65625 229.269531 416.03125 229.691406 416.449219 C 230.109375 416.871094 230.484375 417.328125 230.816406 417.820312 C 231.144531 418.316406 231.425781 418.835938 231.652344 419.386719 C 231.878906 419.933594 232.050781 420.5 232.167969 421.082031 C 232.28125 421.667969 232.339844 422.253906 232.339844 422.847656 L 232.339844 685.304688 L 666.75 685.304688 L 666.75 422.847656 C 666.75 422.253906 666.808594 421.667969 666.925781 421.082031 C 667.039062 420.5 667.210938 419.933594 667.441406 419.386719 C 667.667969 418.835938 667.945312 418.316406 668.277344 417.820312 C 668.605469 417.328125 668.980469 416.871094 669.402344 416.449219 C 669.820312 416.03125 670.277344 415.65625 670.773438 415.324219 C 671.265625 414.992188 671.789062 414.714844 672.335938 414.488281 C 672.886719 414.261719 673.453125 414.089844 674.035156 413.972656 C 674.617188 413.855469 675.207031 413.800781 675.800781 413.800781 C 676.394531 413.800781 676.984375 413.855469 677.566406 413.972656 C 678.148438 414.089844 678.714844 414.261719 679.265625 414.488281 C 679.8125 414.714844 680.335938 414.992188 680.828125 415.324219 C 681.324219 415.65625 681.78125 416.03125 682.199219 416.449219 C 682.621094 416.871094 682.996094 417.328125 683.324219 417.820312 C 683.65625 418.316406 683.933594 418.835938 684.164062 419.386719 C 684.390625 419.933594 684.5625 420.5 684.675781 421.082031 C 684.792969 421.667969 684.851562 422.253906 684.851562 422.847656 L 684.851562 694.355469 C 684.851562 694.949219 684.792969 695.539062 684.675781 696.121094 C 684.5625 696.703125 684.390625 697.269531 684.164062 697.820312 C 683.933594 698.367188 683.65625 698.890625 683.324219 699.382812 C 682.996094 699.878906 682.621094 700.335938 682.199219 700.753906 C 681.78125 701.175781 681.324219 701.550781 680.828125 701.878906 C 680.335938 702.210938 679.8125 702.488281 679.265625 702.714844 C 678.714844 702.945312 678.148438 703.117188 677.566406 703.230469 C 676.984375 703.347656 676.394531 703.40625 675.800781 703.40625 Z M 675.800781 703.40625 "/></g><g clip-rule="nonzero" clip-path="url(#6875fa1deb)"><path style=" stroke:none;fill-rule:nonzero;fill:#113c7b;fill-opacity:1;" d="M 675.800781 431.898438 L 223.289062 431.898438 C 222.695312 431.898438 222.109375 431.839844 221.523438 431.726562 C 220.941406 431.609375 220.375 431.4375 219.828125 431.210938 C 219.277344 430.984375 218.757812 430.703125 218.261719 430.375 C 217.769531 430.042969 217.3125 429.667969 216.890625 429.25 C 216.472656 428.828125 216.097656 428.371094 215.765625 427.878906 C 215.4375 427.382812 215.15625 426.863281 214.929688 426.3125 C 214.703125 425.761719 214.53125 425.199219 214.414062 424.613281 C 214.296875 424.03125 214.242188 423.445312 214.242188 422.847656 C 214.242188 422.253906 214.296875 421.667969 214.414062 421.082031 C 214.53125 420.5 214.703125 419.933594 214.929688 419.386719 C 215.15625 418.835938 215.4375 418.316406 215.765625 417.820312 C 216.097656 417.328125 216.472656 416.871094 216.890625 416.449219 C 217.3125 416.03125 217.769531 415.65625 218.261719 415.324219 C 218.757812 414.992188 219.277344 414.714844 219.828125 414.488281 C 220.375 414.261719 220.941406 414.089844 221.523438 413.972656 C 222.109375 413.855469 222.695312 413.800781 223.289062 413.800781 L 675.800781 413.800781 C 676.394531 413.800781 676.984375 413.855469 677.566406 413.972656 C 678.148438 414.089844 678.714844 414.261719 679.265625 414.488281 C 679.8125 414.714844 680.335938 414.992188 680.828125 415.324219 C 681.324219 415.65625 681.78125 416.03125 682.199219 416.449219 C 682.621094 416.871094 682.996094 417.328125 683.324219 417.820312 C 683.65625 418.316406 683.933594 418.835938 684.164062 419.386719 C 684.390625 419.933594 684.5625 420.5 684.675781 421.082031 C 684.792969 421.667969 684.851562 422.253906 684.851562 422.847656 C 684.851562 423.445312 684.792969 424.03125 684.675781 424.613281 C 684.5625 425.199219 684.390625 425.761719 684.164062 426.3125 C 683.933594 426.863281 683.65625 427.382812 683.324219 427.878906 C 682.996094 428.371094 682.621094 428.828125 682.199219 429.25 C 681.78125 429.667969 681.324219 430.042969 680.828125 430.375 C 680.335938 430.703125 679.8125 430.984375 679.265625 431.210938 C 678.714844 431.4375 678.148438 431.609375 677.566406 431.726562 C 676.984375 431.839844 676.394531 431.898438 675.800781 431.898438 Z M 675.800781 431.898438 "/></g><path style=" stroke:none;fill-rule:nonzero;fill:#113c7b;fill-opacity:1;" d="M 449.546875 644.667969 C 448.34375 644.671875 447.191406 644.441406 446.082031 643.980469 C 444.972656 643.523438 443.996094 642.867188 443.148438 642.019531 L 366.351562 565.222656 C 365.109375 563.960938 363.929688 562.644531 362.8125 561.269531 C 361.699219 559.894531 360.652344 558.464844 359.679688 556.988281 C 358.703125 555.507812 357.800781 553.988281 356.976562 552.421875 C 356.148438 550.855469 355.402344 549.25 354.730469 547.613281 C 354.0625 545.972656 353.472656 544.304688 352.964844 542.605469 C 352.460938 540.910156 352.039062 539.191406 351.699219 537.453125 C 351.359375 535.714844 351.109375 533.964844 350.941406 532.203125 C 350.773438 530.4375 350.695312 528.671875 350.699219 526.898438 C 350.707031 525.128906 350.796875 523.363281 350.976562 521.601562 C 351.15625 519.839844 351.417969 518.089844 351.769531 516.351562 C 352.117188 514.617188 352.550781 512.902344 353.070312 511.207031 C 353.589844 509.515625 354.1875 507.851562 354.867188 506.214844 C 355.546875 504.582031 356.304688 502.980469 357.144531 501.421875 C 357.980469 499.859375 358.890625 498.34375 359.875 496.871094 C 360.863281 495.402344 361.917969 493.980469 363.039062 492.613281 C 364.164062 491.242188 365.351562 489.933594 366.605469 488.679688 C 367.859375 487.429688 369.167969 486.242188 370.535156 485.117188 C 371.90625 483.992188 373.324219 482.9375 374.796875 481.953125 C 376.269531 480.96875 377.785156 480.058594 379.347656 479.21875 C 380.90625 478.382812 382.503906 477.625 384.140625 476.945312 C 385.777344 476.265625 387.441406 475.664062 389.132812 475.148438 C 390.828125 474.628906 392.542969 474.195312 394.277344 473.847656 C 396.015625 473.496094 397.765625 473.234375 399.527344 473.054688 C 401.289062 472.875 403.054688 472.785156 404.824219 472.777344 C 406.597656 472.773438 408.363281 472.851562 410.125 473.019531 C 411.890625 473.1875 413.640625 473.441406 415.378906 473.777344 C 417.117188 474.117188 418.835938 474.539062 420.53125 475.046875 C 422.230469 475.554688 423.898438 476.140625 425.535156 476.8125 C 427.175781 477.480469 428.777344 478.230469 430.34375 479.054688 C 431.910156 479.882812 433.433594 480.785156 434.914062 481.757812 C 436.390625 482.734375 437.816406 483.78125 439.191406 484.894531 C 440.570312 486.011719 441.886719 487.191406 443.148438 488.433594 L 449.546875 494.832031 L 455.945312 488.433594 C 457.203125 487.179688 458.519531 485.988281 459.894531 484.859375 C 461.269531 483.734375 462.699219 482.679688 464.175781 481.691406 C 465.65625 480.703125 467.179688 479.792969 468.75 478.957031 C 470.316406 478.117188 471.921875 477.359375 473.566406 476.679688 C 475.210938 476 476.882812 475.40625 478.582031 474.890625 C 480.285156 474.375 482.007812 473.941406 483.75 473.597656 C 485.496094 473.25 487.25 472.988281 489.019531 472.816406 C 490.789062 472.640625 492.5625 472.554688 494.339844 472.554688 C 496.121094 472.554688 497.894531 472.640625 499.664062 472.816406 C 501.433594 472.988281 503.1875 473.25 504.933594 473.597656 C 506.675781 473.941406 508.398438 474.375 510.101562 474.890625 C 511.800781 475.40625 513.472656 476 515.117188 476.679688 C 516.761719 477.359375 518.367188 478.117188 519.933594 478.957031 C 521.503906 479.792969 523.027344 480.703125 524.507812 481.691406 C 525.984375 482.679688 527.414062 483.734375 528.789062 484.859375 C 530.164062 485.988281 531.480469 487.179688 532.738281 488.433594 C 533.996094 489.691406 535.183594 491.007812 536.3125 492.386719 C 537.4375 493.761719 538.496094 495.1875 539.480469 496.667969 C 540.464844 498.144531 541.378906 499.667969 542.214844 501.238281 C 543.050781 502.804688 543.808594 504.414062 544.488281 506.054688 C 545.167969 507.699219 545.765625 509.371094 546.28125 511.070312 C 546.796875 512.773438 547.226562 514.496094 547.574219 516.238281 C 547.917969 517.984375 548.179688 519.738281 548.355469 521.507812 C 548.527344 523.277344 548.613281 525.050781 548.613281 526.828125 C 548.613281 528.605469 548.527344 530.378906 548.355469 532.148438 C 548.179688 533.917969 547.917969 535.675781 547.574219 537.417969 C 547.226562 539.160156 546.796875 540.882812 546.28125 542.585938 C 545.765625 544.289062 545.167969 545.960938 544.488281 547.601562 C 543.808594 549.246094 543.050781 550.851562 542.214844 552.417969 C 541.378906 553.988281 540.464844 555.511719 539.480469 556.992188 C 538.496094 558.46875 537.4375 559.898438 536.3125 561.273438 C 535.183594 562.648438 533.996094 563.964844 532.738281 565.222656 L 455.945312 642.019531 C 455.097656 642.871094 454.117188 643.523438 453.007812 643.984375 C 451.902344 644.441406 450.746094 644.671875 449.546875 644.667969 Z M 404.753906 490.652344 C 402.972656 490.648438 401.203125 490.777344 399.441406 491.039062 C 397.679688 491.296875 395.949219 491.683594 394.242188 492.199219 C 392.539062 492.714844 390.882812 493.355469 389.273438 494.113281 C 387.664062 494.875 386.117188 495.75 384.636719 496.738281 C 383.15625 497.726562 381.753906 498.816406 380.4375 500.011719 C 379.117188 501.207031 377.890625 502.492188 376.761719 503.867188 C 375.632812 505.242188 374.609375 506.695312 373.691406 508.222656 C 372.777344 509.75 371.976562 511.335938 371.296875 512.980469 C 370.613281 514.625 370.058594 516.308594 369.625 518.035156 C 369.191406 519.761719 368.886719 521.511719 368.714844 523.285156 C 368.539062 525.054688 368.496094 526.832031 368.582031 528.609375 C 368.671875 530.386719 368.886719 532.148438 369.234375 533.894531 C 369.582031 535.640625 370.058594 537.351562 370.65625 539.03125 C 371.257812 540.707031 371.976562 542.328125 372.816406 543.898438 C 373.65625 545.46875 374.609375 546.96875 375.667969 548.398438 C 376.730469 549.828125 377.890625 551.171875 379.152344 552.429688 L 449.546875 622.824219 L 519.941406 552.429688 C 520.777344 551.589844 521.570312 550.710938 522.320312 549.792969 C 523.074219 548.878906 523.777344 547.925781 524.433594 546.941406 C 525.089844 545.953125 525.699219 544.9375 526.257812 543.890625 C 526.8125 542.847656 527.320312 541.777344 527.769531 540.679688 C 528.222656 539.585938 528.621094 538.46875 528.964844 537.335938 C 529.308594 536.203125 529.597656 535.054688 529.828125 533.890625 C 530.058594 532.726562 530.230469 531.558594 530.347656 530.378906 C 530.460938 529.199219 530.519531 528.015625 530.519531 526.832031 C 530.519531 525.644531 530.460938 524.464844 530.347656 523.285156 C 530.230469 522.105469 530.058594 520.933594 529.828125 519.773438 C 529.597656 518.609375 529.308594 517.460938 528.964844 516.328125 C 528.621094 515.191406 528.222656 514.078125 527.769531 512.984375 C 527.320312 511.886719 526.8125 510.816406 526.257812 509.769531 C 525.699219 508.726562 525.089844 507.710938 524.433594 506.722656 C 523.777344 505.738281 523.074219 504.785156 522.320312 503.867188 C 521.570312 502.953125 520.777344 502.074219 519.941406 501.234375 C 519.101562 500.398438 518.222656 499.605469 517.304688 498.851562 C 516.390625 498.101562 515.4375 497.398438 514.449219 496.742188 C 513.464844 496.085938 512.449219 495.476562 511.402344 494.917969 C 510.355469 494.363281 509.285156 493.855469 508.191406 493.402344 C 507.097656 492.953125 505.980469 492.554688 504.847656 492.210938 C 503.710938 491.867188 502.5625 491.578125 501.402344 491.347656 C 500.238281 491.117188 499.066406 490.945312 497.890625 490.828125 C 496.710938 490.714844 495.527344 490.65625 494.339844 490.65625 C 493.15625 490.65625 491.972656 490.714844 490.792969 490.828125 C 489.617188 490.945312 488.445312 491.117188 487.28125 491.347656 C 486.121094 491.578125 484.972656 491.867188 483.835938 492.210938 C 482.703125 492.554688 481.585938 492.953125 480.492188 493.402344 C 479.398438 493.855469 478.328125 494.363281 477.28125 494.917969 C 476.234375 495.476562 475.21875 496.085938 474.234375 496.742188 C 473.246094 497.398438 472.292969 498.101562 471.378906 498.851562 C 470.460938 499.605469 469.582031 500.398438 468.742188 501.234375 L 455.945312 514.03125 C 455.523438 514.453125 455.066406 514.828125 454.574219 515.15625 C 454.078125 515.488281 453.558594 515.765625 453.007812 515.992188 C 452.460938 516.21875 451.894531 516.390625 451.3125 516.507812 C 450.726562 516.625 450.140625 516.679688 449.546875 516.679688 C 448.953125 516.679688 448.363281 516.625 447.78125 516.507812 C 447.199219 516.390625 446.632812 516.21875 446.082031 515.992188 C 445.535156 515.765625 445.011719 515.488281 444.519531 515.15625 C 444.023438 514.828125 443.566406 514.453125 443.148438 514.03125 L 430.347656 501.234375 C 428.667969 499.554688 426.839844 498.054688 424.863281 496.734375 C 422.890625 495.414062 420.804688 494.300781 418.605469 493.390625 C 416.410156 492.484375 414.148438 491.796875 411.816406 491.335938 C 409.484375 490.875 407.132812 490.648438 404.753906 490.652344 Z M 404.753906 490.652344 "/></g></svg>