<svg width="418" height="354" viewBox="0 0 418 354" fill="none" xmlns="http://www.w3.org/2000/svg">
<g opacity="0.3" filter="url(#filter0_f_44792_16602)">
<path fill-rule="evenodd" clip-rule="evenodd" d="M275.457 188.233C264.891 198.129 248.6 197.593 235.38 203.889C217.034 212.626 204.055 236.099 183.237 232.153C162.907 228.3 153.45 203.955 142.391 186.264C131.842 169.39 120.046 151.792 121.064 132.696C122.064 113.915 132.705 96.6157 147.74 85.8892C161.118 76.3458 179.971 81.412 196.632 78.7862C211.533 76.4378 225.398 66.2145 240.103 71.333C254.988 76.5144 262.625 92.3501 272.064 105.043C281.966 118.358 295.617 130.881 296.269 146.861C296.931 163.098 286.989 177.432 275.457 188.233Z" fill="#FC8383"/>
</g>
<defs>
<filter id="filter0_f_44792_16602" x="0.00195312" y="-51.0834" width="417.298" height="404.679" filterUnits="userSpaceOnUse" color-interpolation-filters="sRGB">
<feFlood flood-opacity="0" result="BackgroundImageFix"/>
<feBlend mode="normal" in="SourceGraphic" in2="BackgroundImageFix" result="shape"/>
<feGaussianBlur stdDeviation="60.5" result="effect1_foregroundBlur_44792_16602"/>
</filter>
</defs>
</svg>
