<svg width="120" height="120" viewBox="0 0 120 120" fill="none" xmlns="http://www.w3.org/2000/svg">
<path d="M99.1967 95.5332H84.9167V97.056C84.9167 98.9496 85.669 100.766 87.008 102.105C88.347 103.444 90.1631 104.196 92.0567 104.196C93.9504 104.196 95.7665 103.444 97.1055 102.105C98.4445 100.766 99.1967 98.9496 99.1967 97.056V95.5332Z" fill="#D7E8F0"/>
<path d="M41.1196 102.858C42.1784 103.487 43.3876 103.818 44.6192 103.816V104.089L44.6203 104.362C43.2902 104.364 41.9839 104.006 40.8405 103.326L41.1196 102.858Z" fill="#CCDDE2"/>
<path d="M92.0558 5.72729V6.27275H44.6194C42.7979 6.27313 41.0515 6.99721 39.7636 8.28518C38.4756 9.57315 37.7515 11.3195 37.7511 13.141L37.7735 17.9031L37.2281 17.9052L37.2057 13.1421V13.141C37.2061 11.1749 37.9877 9.28979 39.3779 7.89953C40.7682 6.50927 42.6533 5.72767 44.6194 5.72729H92.0558Z" fill="#CCDDE2"/>
<path d="M84.6453 13.1411H85.1907V96.9483H84.6453V13.1411Z" fill="#CCDDE2"/>
<path d="M84.918 24.4668H99.198V13.1412C99.198 11.2476 98.4457 9.43149 97.1067 8.09248C95.7677 6.75347 93.9516 6.00122 92.058 6.00122C90.1643 6.00122 88.3482 6.75347 87.0092 8.09248C85.6702 9.43149 84.918 11.2476 84.918 13.1412V26.1228" fill="#D7E8F0"/>
<path d="M98.9251 13.1412C98.9251 11.3199 98.2016 9.57318 96.9137 8.28533C95.6259 6.99752 93.8792 6.27397 92.0579 6.27397C90.2366 6.27399 88.4899 6.99749 87.2021 8.28533C85.9142 9.57318 85.1907 11.3199 85.1907 13.1412V24.1941H98.9251V13.1412ZM99.4705 24.7395H85.1907V26.1223H84.6453V13.1412C84.6453 11.1752 85.4263 9.28982 86.8164 7.89968C88.2066 6.50955 90.092 5.72854 92.0579 5.72852C94.0238 5.72852 95.9092 6.50958 97.2994 7.89968C98.6895 9.28982 99.4705 11.1752 99.4705 13.1412V24.7395Z" fill="#CCDDE2"/>
<path d="M84.644 96.949V95.5332H85.1895V96.949C85.1895 98.7703 85.9131 100.517 87.2009 101.805C88.4887 103.093 90.2354 103.816 92.0567 103.816V104.362C90.0907 104.362 88.2053 103.581 86.8152 102.191C85.4251 100.8 84.644 98.915 84.644 96.949Z" fill="#CCDDE2"/>
<path d="M47.9403 103.816V104.362H44.6196V103.816H47.9403Z" fill="#CCDDE2"/>
<path d="M98.9251 96.9478V95.8047H84.918V95.2593H99.4705V96.9478C99.4699 98.9139 98.6884 100.799 97.2983 102.189C95.9949 103.493 94.2566 104.262 92.4244 104.353L92.0568 104.362H57.5856V103.816H92.0568C93.8782 103.815 95.6247 103.092 96.9126 101.804C98.2005 100.516 98.9244 98.7693 98.9251 96.9478Z" fill="#CCDDE2"/>
<path d="M76.9283 37.1228V37.6683H65.3928V37.1228H76.9283Z" fill="#CCDDE2"/>
<path d="M76.9283 41.5952V42.1407H65.3928V41.5952H76.9283Z" fill="#CCDDE2"/>
<path d="M76.9283 46.0688V46.6143H65.3928V46.0688H76.9283Z" fill="#CCDDE2"/>
<path d="M76.9283 50.5413V51.0867H65.3928V50.5413H76.9283Z" fill="#CCDDE2"/>
<path d="M76.9283 55.0137V55.5591H65.3928V55.0137H76.9283Z" fill="#CCDDE2"/>
<path d="M76.9283 59.4861V60.0315H65.3928V59.4861H76.9283Z" fill="#CCDDE2"/>
<path d="M76.9283 74.4285V74.9739H65.3928V74.4285H76.9283Z" fill="#CCDDE2"/>
<path d="M76.9283 76.5142V77.0596H65.3928V76.5142H76.9283Z" fill="#CCDDE2"/>
<path d="M76.9283 78.5996V79.1451H65.3928V78.5996H76.9283Z" fill="#CCDDE2"/>
<path d="M76.9283 80.6853V81.2308H65.3928V80.6853H76.9283Z" fill="#CCDDE2"/>
<path d="M81.6247 34.0007C81.6246 32.7875 80.6412 31.804 79.428 31.804H62.701C61.4879 31.8041 60.5044 32.7875 60.5043 34.0007V84.5426C60.5044 85.7558 61.4879 86.7393 62.701 86.7394H79.428C80.6412 86.7394 81.6246 85.7559 81.6247 84.5426V34.0007ZM82.1702 84.5426C82.1701 86.0571 80.9425 87.2848 79.428 87.2848H62.701C61.1866 87.2847 59.9589 86.0571 59.9589 84.5426V34.0007C59.9589 32.4863 61.1866 31.2586 62.701 31.2585H79.428C80.9425 31.2585 82.1701 32.4863 82.1702 34.0007V84.5426Z" fill="#CCDDE2"/>
<path d="M63.7668 41.0257C63.7668 41.0257 70.1532 52.1137 67.6524 57.2161C67.6524 57.2161 65.8152 60.8005 61.7496 60.4441C57.684 60.0877 59.76 51.8977 56.1024 49.7293C52.4448 47.5609 58.1736 38.5693 58.23 38.6401C58.2864 38.7109 63.7668 41.0257 63.7668 41.0257Z" fill="white"/>
<path d="M65.3926 26.8005V27.346H56.2679V26.8005H65.3926Z" fill="#CCDDE2"/>
<path d="M65.3927 21.5457V22.0911H57.7404V21.5457H65.3927Z" fill="#CCDDE2"/>
<path d="M65.3931 24.1736V24.719H56.6711V24.1736H65.3931Z" fill="#CCDDE2"/>
<path d="M65.3924 18.9189V19.4644H55.0692V18.9189H65.3924Z" fill="#CCDDE2"/>
<path d="M64.278 42.0948C58.0668 41.0664 56.358 47.154 56.358 47.154C56.358 47.154 58.1796 50.6628 58.2252 50.8536C58.3812 52.9644 56.4372 53.0808 56.4372 53.0808L49.5708 54.5208L46.7616 50.1144C46.7616 50.1144 44.67 36.018 44.1216 36.0264C43.5732 36.0348 43.8816 35.8092 43.8816 35.8092C44.4216 35.3712 44.1384 33.3096 44.1384 33.3096C44.0592 32.4288 45.5328 32.0976 47.0388 31.6476C48.5448 31.1976 47.802 32.1192 47.55 33.3096C47.298 34.5 47.0232 37.1496 50.0244 37.3968C53.0256 37.644 53.2932 36.2472 54.0408 34.9968C54.5568 34.134 54.3 32.9688 54.0936 32.3316C55.5008 32.8211 56.8536 33.4549 58.1304 34.2228C58.3296 34.3428 58.5204 34.4628 58.7088 34.6008C61.4064 36.4512 62.9292 39.1896 64.278 42.0948Z" fill="#2E2E2E"/>
<path d="M30.7296 60.0889C30.7296 60.0889 30.4524 60.2377 31.3836 60.2437C32.3148 60.2497 42.984 59.4733 51.4344 64.0153C51.4344 64.0153 54.0132 65.3353 54.9612 67.3417C54.9612 67.3417 55.2193 67.5913 55.734 66.3733C56.2489 65.1553 57.5196 61.2925 57.5196 61.2925C57.5196 61.2925 57.8568 60.9697 57.1441 60.9325C56.4313 60.8953 47.784 59.8849 44.1444 58.8517C40.5048 57.8185 36.6864 57.3013 36.1728 56.1901L36.2928 55.4893C36.2928 55.4893 31.8588 55.2001 31.7436 55.9201C31.6284 56.6401 30.7296 60.0889 30.7296 60.0889Z" fill="#2E2E2E"/>
<path d="M51.4047 24.5496C51.9652 24.0234 51.9825 23.1315 51.4436 22.5575C50.9046 21.9836 50.0134 21.9449 49.453 22.4712C48.8925 22.9974 48.8752 23.8893 49.4141 24.4633C49.9531 25.0372 50.8443 25.0759 51.4047 24.5496Z" fill="#D7E8F0"/>
<path d="M47.4179 23.9414C47.9788 23.4147 47.9962 22.522 47.4568 21.9476C46.9173 21.3732 46.0254 21.3345 45.4645 21.8612C44.9036 22.388 44.8861 23.2806 45.4256 23.855C45.965 24.4295 46.857 24.4681 47.4179 23.9414Z" fill="#D7E8F0"/>
<path d="M48.3408 29.5596C48.3408 29.5596 48.2136 30.2712 47.946 31.488C47.2848 31.476 46.4904 32.088 45.84 32.0784C45.564 30.2148 45.9696 28.7748 46.4232 27.8208C46.92 29.058 47.7156 29.4528 48.3408 29.5596Z" fill="#FC8383"/>
<path d="M59.0124 34.7651C57.714 34.0007 56.382 33.0371 54.906 32.6267L54.066 32.2451C54.066 32.2451 54.0024 32.0855 54 32.0831C53.844 31.6475 53.5812 31.0679 53.508 30.6131C53.4183 30.0746 53.4094 29.5258 53.4816 28.9847C53.6016 28.1807 54.0276 26.4887 54.7224 25.9715C55.302 25.5431 55.5324 25.6439 55.8756 24.9575C56.1156 24.4679 56.2356 23.6375 55.8036 23.2571C55.3236 22.8395 55.1004 23.0411 54.5052 23.0819C52.2408 23.2367 51.0012 21.5723 50.2284 19.6703C50.1179 19.3504 49.964 19.0472 49.7712 18.7691C49.5312 18.4631 49.194 18.3851 48.9216 18.1343C48.8597 18.0845 48.8141 18.0173 48.7908 17.9414C48.7675 17.8654 48.7675 17.7843 48.7908 17.7083C48.827 17.6391 48.8777 17.5785 48.9396 17.5307C49.4832 17.0599 50.1291 16.7222 50.826 16.5443C51.9283 16.2629 53.0837 16.2629 54.186 16.5443C55.3722 16.9585 56.3754 17.776 57.0204 18.8543C57.942 20.4143 58.1256 22.0187 57.5352 23.5883C56.9352 25.1975 56.2524 27.0875 57.246 28.6835C58.5696 30.8039 59.3628 32.2907 59.0124 34.7651Z" fill="#FC8383"/>
<path d="M50.4377 16.0416C51.7122 15.7653 53.0403 15.8482 54.2729 16.2845C55.4415 16.6925 56.4406 17.4729 57.1195 18.5025L57.2505 18.7124L57.2516 18.7134C58.2102 20.3361 58.4096 22.0262 57.7875 23.6811C57.486 24.4897 57.1766 25.3373 57.0598 26.1762C56.944 27.0088 57.0216 27.8098 57.4743 28.537C58.7999 30.6689 59.6438 32.2279 59.2853 34.8033L59.0147 34.7649L58.7441 34.7276C59.0332 32.651 58.4958 31.3077 57.4764 29.5884L57.0108 28.8257C56.4699 27.9568 56.3926 27.0142 56.5197 26.1005C56.646 25.1932 56.9776 24.2909 57.2761 23.4904L57.372 23.2113C57.8102 21.8163 57.6109 20.3939 56.7818 18.9904C56.1696 17.9682 55.2178 17.1919 54.0929 16.799C52.8802 16.3696 51.5657 16.3107 50.3194 16.6296C48.714 17.0432 47.7119 18.2053 47.1032 19.6499V19.6552L47.0829 19.7042C46.8375 20.3107 46.6517 20.9398 46.5289 21.5824V21.5845C46.455 21.9554 46.3986 22.3285 46.3574 22.6957C46.1682 24.3887 46.2013 25.6532 46.367 26.5948L46.4458 26.9794L46.4469 26.9837C46.502 27.2346 46.5782 27.4804 46.6738 27.7188L46.7633 27.9244C47.2234 28.9044 47.8833 29.2052 48.3869 29.2912C48.6551 29.3369 48.9299 29.3273 49.1944 29.2635L49.3223 29.793C48.9858 29.8741 48.6365 29.8863 48.2953 29.8281C47.5821 29.7063 46.7031 29.2522 46.1678 27.9223C46.0609 27.6559 45.9758 27.3812 45.9142 27.1009L45.9153 27.0998C45.6666 26.0455 45.595 24.6041 45.8152 22.635C45.8579 22.2542 45.916 21.8668 45.9931 21.4801C46.1192 20.8201 46.3088 20.1739 46.5577 19.5497V19.5401L46.5779 19.4901C47.2265 17.9217 48.3413 16.5757 50.1831 16.1012L50.4377 16.0416Z" fill="black"/>
<path d="M46.4106 27.1847C45.8723 28.0633 45.1633 29.7385 45.5797 32.0906L45.3112 32.1385L45.0427 32.1854C44.5977 29.6709 45.3566 27.8613 45.9461 26.8992L46.4106 27.1847Z" fill="black"/>
<path d="M46.9536 20.9317C47.5214 20.8704 48.2007 21.1324 48.8509 22.1217L48.395 22.4222C47.8217 21.5499 47.3197 21.4408 47.0122 21.474C46.8437 21.4922 46.7005 21.5558 46.5977 21.6178C46.5473 21.6483 46.5082 21.6772 46.4827 21.6977C46.47 21.708 46.4603 21.7164 46.455 21.7212L46.4507 21.7254L46.0693 21.3355L46.0715 21.3334C46.0727 21.3322 46.075 21.3308 46.0768 21.3291C46.0805 21.3257 46.0847 21.3206 46.0906 21.3153C46.1026 21.3045 46.1199 21.2905 46.1407 21.2737C46.1822 21.2403 46.2415 21.1965 46.3165 21.1512C46.4655 21.0613 46.6844 20.9609 46.9536 20.9317Z" fill="black"/>
<path d="M51.2626 25.117C51.3753 25.1727 51.4348 25.2991 51.4075 25.4217C51.3971 25.4684 51.3846 25.5156 51.3713 25.5623L51.3724 25.5634C51.2051 26.1657 50.953 26.8729 50.4658 27.3777L50.4647 27.3787C49.9881 27.8693 49.1739 28.0294 48.6153 27.5535L48.611 27.5492C48.491 27.4424 48.3921 27.3136 48.3202 27.1699L48.3212 27.1689C48.1641 26.8702 48.0816 26.5381 48.0837 26.2005L48.09 26.1461C48.1013 26.0926 48.1276 26.0428 48.1678 26.0045C48.2212 25.9535 48.2933 25.927 48.367 25.9299C49.3507 25.9697 50.3432 25.8873 50.9324 25.1863C51.0132 25.0901 51.15 25.0614 51.2626 25.117ZM50.6117 26.1174C50.0019 26.4286 49.2902 26.4891 48.6557 26.4817C48.6723 26.5731 48.6951 26.6632 48.7282 26.7502L48.8049 26.9207L48.8081 26.926C48.8482 27.006 48.9026 27.0779 48.969 27.138L49.0851 27.2157C49.3748 27.3661 49.7852 27.2955 50.0737 26.9984C50.3042 26.7595 50.4753 26.4518 50.6117 26.1174Z" fill="black"/>
<path d="M50.0758 20.787C50.408 20.6726 50.8918 20.6565 51.5705 20.9191C52.2483 21.1815 52.6139 21.5196 52.8074 21.8193C52.9032 21.9679 52.954 22.1027 52.9799 22.205C52.9928 22.2557 52.9998 22.2983 53.0034 22.3307C53.0052 22.3467 53.006 22.3604 53.0066 22.3712V22.3946C53.0066 22.3949 53.0066 22.3958 52.7339 22.3936L52.4611 22.3914L52.4505 22.3382C52.4378 22.2885 52.4102 22.21 52.3493 22.1155C52.2286 21.9285 51.9634 21.6567 51.3734 21.4284C50.7842 21.2004 50.4362 21.2399 50.2537 21.3026C50.1609 21.3347 50.1008 21.3753 50.0673 21.4039C50.0514 21.4175 50.0406 21.4287 50.0353 21.4347L50.0364 21.4337L49.5804 21.1333L49.5826 21.129C49.5835 21.1276 49.5857 21.1264 49.5868 21.1247C49.5892 21.1214 49.5921 21.1173 49.5954 21.113C49.602 21.1042 49.6104 21.0934 49.6209 21.0811C49.6425 21.0559 49.6726 21.0236 49.7125 20.9894C49.7928 20.9208 49.9118 20.8435 50.0758 20.787Z" fill="black"/>
<path d="M47.1632 22.3337C47.4045 22.2976 47.7494 22.3013 48.058 22.5127L47.9036 22.7375L47.7502 22.9623C47.6016 22.8605 47.4171 22.8479 47.2441 22.8739C47.1603 22.8864 47.0874 22.9074 47.0353 22.925C47.0096 22.9337 46.9894 22.9411 46.9767 22.9463C46.9704 22.9489 46.9653 22.9506 46.9629 22.9516C46.9619 22.9521 46.9609 22.9516 46.9607 22.9516C46.9583 22.9462 46.9436 22.9124 46.8467 22.7055C46.7448 22.4877 46.733 22.4615 46.7317 22.4584V22.4573H46.7328C46.7335 22.4569 46.7349 22.4567 46.736 22.4562C46.738 22.4553 46.7403 22.4534 46.7434 22.452C46.7499 22.4491 46.7592 22.4458 46.77 22.4413C46.792 22.4324 46.823 22.421 46.8606 22.4083C46.9352 22.3831 47.0401 22.3522 47.1632 22.3337Z" fill="black"/>
<path d="M50.3492 22.7084C50.5905 22.6719 50.9353 22.6748 51.244 22.8863L51.0896 23.1111L50.9362 23.3359C50.7879 23.2343 50.604 23.2214 50.4312 23.2474C50.3472 23.2601 50.2734 23.2809 50.2213 23.2986C50.1955 23.3073 50.1754 23.3147 50.1627 23.3199L50.1478 23.3273C50.1464 23.3241 50.1346 23.2958 50.0327 23.0791C49.9277 22.8555 49.9174 22.835 49.9166 22.833L49.9294 22.8266C49.936 22.8237 49.9451 22.8205 49.956 22.816C49.9779 22.807 50.0081 22.7946 50.0455 22.7819C50.1202 22.7565 50.2259 22.727 50.3492 22.7084Z" fill="black"/>
<path d="M47.912 18.3214C48.1594 18.2789 48.4215 18.319 48.6844 18.4674H48.6855C48.8618 18.5672 49.0082 18.727 49.1361 18.8999C49.2659 19.0752 49.3919 19.2861 49.5186 19.5082C49.7767 19.9605 50.0476 20.4734 50.4049 20.9634C50.7595 21.4497 51.1886 21.8965 51.7473 22.2067C52.303 22.5152 53.0027 22.6979 53.9131 22.6328H53.9142C54.2138 22.6123 54.5831 22.5939 54.9433 22.6382C55.3021 22.6822 55.681 22.7914 55.9788 23.0504L56.0779 23.1463C56.5398 23.6418 56.4853 24.372 56.226 24.8882C56.0306 25.2781 55.7623 25.547 55.477 25.7703C55.3359 25.8807 55.1886 25.9816 55.0456 26.0781C54.9004 26.1761 54.7603 26.2697 54.6215 26.3722C54.3424 26.5804 54.1439 26.9425 54.0005 27.3853C53.8584 27.8241 53.7826 28.3026 53.7224 28.7042L53.7213 28.7085C53.6371 29.2144 53.6305 29.7304 53.7022 30.2383H53.7032C53.7875 30.7564 53.9969 31.2153 54.1805 31.7724H54.1816L54.5843 32.9901L54.5949 33.022L54.597 33.0561C54.7594 35.3733 53.2343 37.7174 50.6638 37.668C49.7672 37.6501 48.8572 37.3448 48.1784 36.788C47.4939 36.2265 47.0425 35.4053 47.0949 34.3867C47.1021 34.2539 47.1453 33.9973 47.2036 33.69C47.2634 33.3747 47.3442 32.9854 47.4326 32.5746C47.4683 32.4079 47.5037 32.236 47.5424 32.0622L47.9078 30.3289C47.9574 30.0854 47.9993 29.8801 48.0282 29.7355C48.0425 29.6633 48.0535 29.6061 48.0612 29.5671C48.065 29.5478 48.0677 29.5325 48.0697 29.5224C48.0707 29.5174 48.0724 29.5132 48.0729 29.5107V29.5075C48.0729 29.5075 48.0731 29.5072 48.3403 29.5597C48.6057 29.6118 48.6087 29.6119 48.6088 29.6119L48.6077 29.6129C48.6076 29.6136 48.6079 29.6149 48.6077 29.6161C48.6072 29.6188 48.6066 29.6228 48.6056 29.6279C48.6036 29.6381 48.5999 29.653 48.596 29.6726C48.5882 29.7119 48.5774 29.7694 48.563 29.842C48.534 29.9873 48.4924 30.1941 48.4426 30.4386L48.075 32.1794C48.0369 32.3508 48.0015 32.5196 47.9653 32.6886C47.8774 33.0971 47.7981 33.482 47.7394 33.7912C47.6793 34.1083 47.6452 34.3274 47.6404 34.4166C47.5983 35.2396 47.9551 35.8997 48.5235 36.3661C49.0977 36.8373 49.8865 37.1068 50.6745 37.1225C52.8194 37.1637 54.1866 35.2136 54.0537 33.1232L53.6627 31.9428C53.5031 31.4584 53.2575 30.8995 53.1642 30.3257L53.1631 30.3203C53.0928 29.826 53.0894 29.3246 53.1524 28.8299L53.1833 28.619C53.2431 28.2207 53.3245 27.7035 53.4816 27.2181C53.6378 26.7358 53.8826 26.2423 54.2977 25.9333C54.448 25.8222 54.6 25.7215 54.7409 25.6264C54.884 25.5299 55.017 25.4383 55.1414 25.3409C55.3869 25.1488 55.5903 24.938 55.738 24.6431H55.7391C55.9543 24.2146 55.9266 23.7271 55.6208 23.4617C55.4387 23.3033 55.1825 23.2169 54.8772 23.1794C54.5729 23.142 54.2481 23.1548 53.9514 23.1751L53.9525 23.1762C52.9431 23.2484 52.137 23.0469 51.4831 22.684C50.8323 22.3227 50.3472 21.8098 49.9639 21.2841C49.5834 20.7621 49.2921 20.2098 49.0456 19.7777C48.9199 19.5575 48.8073 19.371 48.6983 19.2237C48.5879 19.0748 48.4953 18.987 48.417 18.9425L48.303 18.8892C48.1931 18.8486 48.0946 18.844 48.0047 18.8594C47.879 18.881 47.751 18.9452 47.6255 19.0437C47.3778 19.2382 47.1841 19.5275 47.0811 19.7042C47.0794 19.7086 47.0797 19.7137 47.0779 19.7181L47.0725 19.7308L47.0651 19.7426C47.0477 19.7735 47.0349 19.7981 47.0267 19.8139C47.0227 19.8217 47.0199 19.8275 47.0182 19.831C47.0176 19.8323 47.0175 19.8335 47.0171 19.8342C47.0171 19.8341 47.0134 19.8326 46.77 19.7181C46.6514 19.6622 46.5899 19.633 46.558 19.6179C46.5596 19.6489 46.5647 19.6797 46.5772 19.7085L46.5345 19.6062C46.5238 19.6011 46.5228 19.6019 46.5228 19.6019H46.5239V19.6009L46.525 19.5987C46.5256 19.5973 46.5271 19.5955 46.5282 19.5934L46.525 19.587L46.5878 19.4709L46.5963 19.4549L46.5995 19.4485L46.7061 19.2738C46.836 19.0748 47.0345 18.814 47.2888 18.6144C47.4606 18.4796 47.6704 18.3629 47.912 18.3214Z" fill="black"/>
<path d="M48.4335 23.2021C48.6673 23.2814 48.6892 23.2888 48.6913 23.2895V23.2905L48.6902 23.2927C48.6895 23.2949 48.6885 23.2989 48.687 23.3033C48.6839 23.3127 48.6791 23.3271 48.6732 23.3449C48.6613 23.3803 48.6444 23.4312 48.6242 23.4929C48.5837 23.6166 48.5299 23.7831 48.4772 23.9553C48.4242 24.1283 48.3726 24.3046 48.3365 24.4475C48.3292 24.4765 48.3231 24.5036 48.3174 24.5285C48.3428 24.5254 48.3679 24.524 48.3898 24.5199C48.4081 24.5165 48.4234 24.5126 48.4335 24.5103C48.4382 24.5093 48.4419 24.5088 48.4441 24.5082L48.4463 24.5071C48.4462 24.5072 48.446 24.5078 48.5144 24.7714C48.579 25.0199 48.5835 25.0347 48.5837 25.0356H48.5826L48.5805 25.0366C48.579 25.037 48.5765 25.0371 48.5741 25.0377C48.5694 25.0388 48.5627 25.0402 48.5549 25.0419C48.5391 25.0456 48.5172 25.0509 48.491 25.0558C48.4396 25.0655 48.3668 25.0765 48.2897 25.0803C48.218 25.0839 48.1156 25.0831 48.0191 25.0505C47.9136 25.0147 47.7717 24.9214 47.7474 24.7319C47.7383 24.6611 47.7509 24.5807 47.7602 24.5285C47.7714 24.4652 47.7886 24.3916 47.8081 24.3143C47.8475 24.1586 47.9012 23.9726 47.9551 23.7966C48.0092 23.6199 48.0641 23.4493 48.1054 23.3236C48.1259 23.2608 48.1433 23.2086 48.1554 23.1723C48.1615 23.1542 48.166 23.1394 48.1693 23.1297C48.1708 23.1251 48.1727 23.1215 48.1735 23.119C48.1739 23.1178 48.1744 23.1165 48.1746 23.1158V23.1147C48.1746 23.1147 48.1752 23.1145 48.4335 23.2021Z" fill="black"/>
<path d="M51.3742 22.6222C50.865 22.0803 50.032 22.0513 49.5145 22.5373C48.9972 23.0234 48.9744 23.8559 49.4831 24.3979C49.9921 24.94 50.8251 24.9701 51.3428 24.4843C51.8604 23.9982 51.8833 23.1643 51.3742 22.6222ZM51.7718 22.2488C52.4785 23.0014 52.4624 24.1811 51.7162 24.8819C50.9699 25.5824 49.7922 25.5239 49.0855 24.7713C48.3791 24.0188 48.3952 22.8404 49.1411 22.1397C49.8872 21.4391 51.065 21.4964 51.7718 22.2488Z" fill="black"/>
<path d="M47.3865 22.013C46.8774 21.4712 46.0443 21.4422 45.5268 21.9282C45.0095 22.4142 44.9867 23.2468 45.4955 23.7888C46.0045 24.3309 46.8375 24.361 47.3551 23.8751C47.8727 23.3891 47.8956 22.5552 47.3865 22.013ZM47.7841 21.6396C48.4909 22.3923 48.4747 23.572 47.7285 24.2728C46.9823 24.9733 45.8045 24.9147 45.0978 24.1622C44.3914 23.4097 44.4075 22.2313 45.1534 21.5306C45.8995 20.8299 47.0773 20.8873 47.7841 21.6396Z" fill="black"/>
<path d="M46.4052 21.7669C46.463 21.7672 46.5207 21.7716 46.578 21.7801C46.8774 21.8268 47.1471 21.9878 47.3302 22.2293C47.5133 22.4709 47.5955 22.774 47.5596 23.0749C47.5299 23.3401 47.4032 23.5849 47.2038 23.7621C47.0043 23.9394 46.7464 24.0366 46.4796 24.0349C46.4217 24.0347 46.364 24.0302 46.3068 24.0217C46.0073 23.9745 45.7378 23.8131 45.5548 23.5715C45.3718 23.3299 45.2895 23.0267 45.3252 22.7257C45.3564 22.4619 45.4839 22.2188 45.6832 22.043C45.8824 21.8672 46.1395 21.7711 46.4052 21.7729M46.4052 21.5017C46.0732 21.5009 45.7523 21.6214 45.503 21.8407C45.2537 22.0599 45.0931 22.3627 45.0516 22.6921C45.0258 22.894 45.0434 23.0991 45.1032 23.2937C45.1629 23.4883 45.2635 23.6679 45.3982 23.8206C45.5329 23.9732 45.6986 24.0953 45.8842 24.1789C46.0699 24.2624 46.2712 24.3054 46.4748 24.3049C46.8066 24.3061 47.1275 24.1858 47.3768 23.9667C47.6262 23.7477 47.7868 23.445 47.8284 23.1157C47.8736 22.7445 47.7726 22.3703 47.5469 22.0723C47.3211 21.7742 46.9883 21.5756 46.6188 21.5185C46.5481 21.5071 46.4767 21.5014 46.4052 21.5017Z" fill="white"/>
<path d="M48.8934 22.9957L48.8519 23.2652L48.8114 23.5347L47.9751 23.408L48.0561 22.8689L48.8934 22.9957Z" fill="black"/>
<path d="M37.7484 47.1084V42.9756H28.4928C28.464 42.9756 28.4376 42.9756 28.4088 42.9756L28.356 42.9816C28.355 42.9812 28.354 42.9809 28.353 42.9809C28.3519 42.9809 28.3509 42.9812 28.35 42.9816C28.332 42.9816 28.3152 42.9888 28.2972 42.9924C28.2807 42.9949 28.2646 42.9994 28.2492 43.0056C28.2333 43.0098 28.218 43.0158 28.2036 43.0236C28.1964 43.0236 28.1904 43.0236 28.1832 43.0296C28.176 43.0356 28.146 43.0452 28.128 43.0548C28.1054 43.0654 28.0837 43.0778 28.0632 43.092C28.0443 43.1016 28.0266 43.1133 28.0104 43.1268C27.9827 43.1453 27.957 43.1666 27.9336 43.1904C27.9073 43.2116 27.8836 43.2358 27.8628 43.2624C27.8417 43.2876 27.822 43.3141 27.804 43.3416C27.7859 43.368 27.7699 43.3956 27.756 43.4244C27.7403 43.4529 27.7279 43.4831 27.7188 43.5144C27.708 43.545 27.6992 43.5763 27.6924 43.608C27.6805 43.662 27.674 43.7171 27.6732 43.7724L27.6264 46.2588C27.6239 46.2867 27.6239 46.3148 27.6264 46.3428C27.6239 46.3551 27.6239 46.3677 27.6264 46.38V46.3908C27.6258 46.3988 27.6258 46.4068 27.6264 46.4148C27.6284 46.4295 27.632 46.444 27.6372 46.458C27.6392 46.4779 27.6445 46.4974 27.6528 46.5156C27.6692 46.5726 27.6918 46.6277 27.72 46.68C27.7457 46.7257 27.7754 46.7691 27.8088 46.8096C27.8259 46.8303 27.8444 46.8499 27.864 46.8684C27.8827 46.887 27.9023 46.9046 27.9228 46.9212L27.96 46.9512C27.9804 46.9644 27.9996 46.9776 28.0224 46.9908C28.0489 47.0075 28.0766 47.0223 28.1052 47.0352C28.135 47.0493 28.1659 47.0609 28.1976 47.07C28.2753 47.0942 28.3562 47.1067 28.4376 47.1072H30.216L30.762 46.8876C31.11 46.8876 31.5 46.7052 31.8492 46.7052L32.1984 47.1528L37.7484 47.1084Z" fill="#D7E8F0"/>
<path d="M52.5108 43.8V46.2888C52.5108 46.5068 52.4242 46.7159 52.2701 46.87C52.1159 47.0242 51.9068 47.1108 51.6888 47.1108H37.7496V42.9768H51.6888C51.7969 42.9768 51.9039 42.9981 52.0037 43.0395C52.1035 43.0809 52.1942 43.1415 52.2705 43.218C52.3468 43.2944 52.4074 43.3852 52.4486 43.4851C52.4898 43.5849 52.511 43.692 52.5108 43.8Z" fill="#9AE2E0"/>
<path d="M37.7484 47.1084H39.15V55.5276H30.6744C30.3691 55.5419 30.0634 55.5136 29.766 55.4436C29.736 55.4352 29.7048 55.4244 29.6736 55.4136L29.6568 55.4064C29.4217 55.3268 29.2216 55.1682 29.0904 54.9576C29.0912 54.9553 29.0912 54.9527 29.0904 54.9504L29.064 54.9072C29.3112 54.966 29.562 55.014 29.8116 55.0512C29.8607 55.0617 29.9104 55.0693 29.9604 55.074C30.0804 55.0908 30.2004 55.104 30.3264 55.1172C30.3419 55.1196 30.3577 55.1196 30.3732 55.1172L30.5676 55.134C30.6325 55.1412 30.6978 55.1448 30.7632 55.1448C30.766 55.146 30.7691 55.1466 30.7722 55.1466C30.7753 55.1466 30.7783 55.146 30.7812 55.1448C30.8532 55.1448 30.924 55.152 30.996 55.1544C31.011 55.1573 31.0265 55.1573 31.0416 55.1544C31.0626 55.158 31.0841 55.158 31.1052 55.1544C31.2396 55.1616 31.3752 55.1616 31.5108 55.1544C31.7004 55.1544 31.8888 55.146 32.0748 55.1352C32.2213 55.1274 32.3671 55.1106 32.5116 55.0848C32.5618 55.0775 32.6115 55.0671 32.6604 55.0536C32.701 55.0454 32.7411 55.0346 32.7804 55.0212L32.8008 55.014C32.8775 54.9878 32.9515 54.954 33.0216 54.9132C33.3048 54.7488 33.5196 54.4332 33.4644 54.1068C33.4344 53.9564 33.358 53.8191 33.246 53.7144C33.2364 53.706 33.228 53.6964 33.2172 53.688L33.2088 53.682C33.1516 53.6317 33.0888 53.5882 33.0216 53.5524C32.8258 53.4541 32.6162 53.3861 32.4 53.3508L32.3208 53.3352C32.3604 53.3412 32.4012 53.346 32.4408 53.3532H32.4672C32.7799 53.4073 33.0989 53.4154 33.414 53.3772L33.474 53.3712L33.498 53.364C33.6678 53.3337 33.8293 53.2679 33.972 53.1709C34.1147 53.074 34.2353 52.948 34.326 52.8012C34.3424 52.7707 34.3564 52.739 34.368 52.7064C34.3752 52.6934 34.3812 52.6797 34.386 52.6656C34.4139 52.5776 34.4265 52.4855 34.4232 52.3932C34.4233 52.3603 34.4209 52.3274 34.416 52.2948C34.4012 52.1778 34.3631 52.0649 34.3039 51.9629C34.2448 51.8609 34.1658 51.7718 34.0716 51.7008C34.0402 51.6763 34.0064 51.655 33.9708 51.6372C33.8343 51.5705 33.6866 51.5298 33.5352 51.5172H33.5064C33.426 51.5076 33.3396 51.504 33.2592 51.4992C32.6316 51.4668 32.0064 51.4308 31.38 51.3984H31.3116L30.3888 51.3504L29.832 51.3192H29.7948L29.2992 51.2928C29.3544 51.2928 29.4096 51.2988 29.4636 51.3036H29.5104L29.7012 51.3144C30.2376 51.3468 30.7752 51.378 31.3116 51.3972H31.38C31.38 51.3972 31.38 51.3972 31.3908 51.3972C31.4988 51.3972 31.608 51.4044 31.716 51.408H31.74C32.0184 51.4152 32.2944 51.4188 32.5728 51.4188C32.8569 51.4337 33.1414 51.3975 33.4128 51.312C33.541 51.2646 33.6582 51.1915 33.7572 51.0972C33.7706 51.0866 33.7823 51.0741 33.792 51.06C33.8862 50.9665 33.9512 50.8477 33.9792 50.718C34.0061 50.57 33.9859 50.4172 33.9216 50.2812C33.9158 50.2634 33.9077 50.2465 33.8976 50.2308C33.8379 50.1178 33.7563 50.0179 33.6576 49.9368C33.4193 49.7595 33.1419 49.6422 32.8488 49.5948C32.6796 49.56 32.5116 49.5312 32.34 49.512C32.3365 49.5107 32.3327 49.5107 32.3292 49.512C32.1029 49.4861 31.8753 49.472 31.6476 49.47H31.5864C31.4664 49.47 31.3344 49.47 31.2084 49.47C30.6084 49.488 30.0228 49.5996 29.4288 49.59C29.4228 49.5717 29.4228 49.5519 29.4288 49.5336C29.4351 49.5205 29.4428 49.508 29.4516 49.4964C29.4743 49.471 29.5027 49.4513 29.5344 49.4388C29.7268 49.378 29.9223 49.3271 30.12 49.2864C30.3209 49.2241 30.5167 49.1463 30.7056 49.0536C30.7692 49.0224 30.8328 48.9876 30.8964 48.9552C30.9011 48.9525 30.9055 48.9493 30.9096 48.9456C31.1518 48.8104 31.3787 48.6495 31.5864 48.4656L31.6392 48.42C31.6716 48.3912 31.7052 48.3624 31.7352 48.3324C31.9084 48.178 32.0481 47.9898 32.1456 47.7792C32.1679 47.7254 32.1848 47.6696 32.196 47.6124C32.2007 47.5946 32.2043 47.5766 32.2068 47.5584C32.2116 47.527 32.214 47.4953 32.214 47.4636C32.214 47.4336 32.1996 47.1732 32.1948 47.1432" fill="#D7E8F0"/>
<path d="M50.9088 47.1084V54.0912C50.909 54.1433 50.9062 54.1954 50.9004 54.2472L48.24 54.7968C47.4468 54.9636 47.1108 54.8316 46.9428 54.4248C46.3248 52.938 44.6796 52.9848 44.6796 52.9848L43.38 52.9788C43.1712 52.9788 42.966 52.9524 42.7596 52.9392C42.6309 52.9315 42.5019 52.9502 42.3806 52.994C42.2592 53.0378 42.1481 53.1058 42.0539 53.1939C41.9597 53.2821 41.8844 53.3884 41.8327 53.5066C41.7809 53.6248 41.7538 53.7522 41.7528 53.8812C41.753 54.0783 41.8146 54.2704 41.929 54.4308C42.0434 54.5912 42.205 54.712 42.3912 54.7764L43.3908 54.9756C43.431 54.9834 43.4688 55.0004 43.5012 55.0253C43.5337 55.0502 43.5599 55.0823 43.5778 55.1191C43.5958 55.1559 43.6049 55.1963 43.6045 55.2372C43.6041 55.2781 43.5942 55.3184 43.5756 55.3548C43.5161 55.4296 43.439 55.4885 43.3512 55.5264H39.1512V47.1084H50.9088Z" fill="#9AE2E0"/>
<path d="M39.1502 42.7029V43.2483H36.3036V42.7029H39.1502Z" fill="black"/>
<path d="M52.2351 43.8005C52.2351 43.7284 52.2212 43.6562 52.1936 43.5896C52.166 43.523 52.1252 43.4626 52.0742 43.4116C52.0233 43.3608 51.9629 43.3199 51.8963 43.2923C51.8298 43.2648 51.7585 43.2508 51.6865 43.2508H28.4215L28.3981 43.2529C28.3473 43.2617 28.298 43.2784 28.2522 43.3019L28.25 43.304C28.2407 43.3087 28.2288 43.3152 28.2053 43.3296L28.1968 43.3349L28.1872 43.3392L28.185 43.3413L28.168 43.3541C28.1519 43.3655 28.1364 43.3778 28.1222 43.3914L28.1158 43.3989C28.1004 43.4126 28.0858 43.4271 28.0721 43.4425L28.0316 43.4958L28.0295 43.5001C28.0201 43.5139 28.0179 43.5193 27.9933 43.5629C27.9938 43.5619 27.9923 43.5642 27.989 43.5725C27.9874 43.5767 27.986 43.5821 27.9837 43.5885C27.9825 43.5917 27.9808 43.5954 27.9794 43.5991C27.9784 43.6021 27.9764 43.6054 27.9752 43.6087C27.9682 43.6285 27.9636 43.6501 27.9592 43.6705V43.6716C27.9512 43.7076 27.9459 43.7444 27.9453 43.7813V43.7824L27.9017 46.271V46.3168L27.9006 46.3285L27.9017 46.336V46.3871L27.907 46.4084C27.9083 46.4136 27.9091 46.4179 27.9102 46.4223C27.9112 46.4264 27.9127 46.4294 27.9134 46.4319V46.434L27.9176 46.4447C27.9279 46.48 27.9411 46.5143 27.9581 46.5469L28.0146 46.6311C28.0346 46.6526 28.0427 46.6613 28.0561 46.6748C28.0682 46.6868 28.0813 46.6981 28.0945 46.7089L28.1201 46.7302L28.1595 46.7547L28.1637 46.7579C28.1824 46.7691 28.2016 46.7795 28.2213 46.7888L28.2724 46.8079L28.283 46.8111L28.3629 46.8303C28.3897 46.8346 28.4167 46.8368 28.4439 46.8367H30.2071V47.3822H28.445C28.3353 47.3824 28.2266 47.3645 28.1222 47.331V47.3321C28.1204 47.3316 28.1187 47.3305 28.1169 47.33C28.1152 47.3294 28.1132 47.3295 28.1115 47.3289V47.3278C28.0697 47.3152 28.0285 47.3007 27.989 47.282C27.9522 47.2647 27.9162 47.2455 27.8814 47.2245V47.2234C27.8525 47.2064 27.8244 47.1877 27.8122 47.1798L27.7994 47.1723L27.7514 47.1339V47.1329L27.6715 47.0615C27.6487 47.0387 27.6199 47.0074 27.6098 46.9965L27.6034 46.9901L27.598 46.9837C27.5543 46.9308 27.5155 46.8732 27.4819 46.8133L27.4787 46.8079L27.4798 46.8069C27.444 46.7396 27.4147 46.6691 27.3935 46.5959L27.3946 46.5949C27.39 46.5801 27.3851 46.5665 27.3828 46.5576C27.3813 46.5516 27.3796 46.5456 27.3786 46.5416C27.378 46.5394 27.3768 46.5376 27.3764 46.5363C27.3757 46.5339 27.3732 46.5262 27.3711 46.5192C27.3687 46.5113 27.3656 46.4988 27.3626 46.4841C27.3603 46.4729 27.3595 46.4569 27.3583 46.4383L27.3573 46.4393C27.3571 46.4365 27.3574 46.4337 27.3573 46.4308C27.3571 46.4273 27.3562 46.4238 27.3562 46.4202H27.3573C27.357 46.412 27.357 46.4039 27.3573 46.3957H27.3562V46.3477H27.3573C27.3567 46.3338 27.3567 46.3201 27.3573 46.3062H27.3562V46.2614L27.4009 43.7728L27.4073 43.6631C27.4116 43.6269 27.4187 43.5911 27.4265 43.5555C27.4357 43.5126 27.4471 43.4701 27.4617 43.4287V43.4266C27.4684 43.4078 27.4885 43.3482 27.5181 43.2955C27.5243 43.2846 27.5509 43.235 27.5767 43.1964C27.6005 43.1603 27.6257 43.1252 27.6534 43.092L27.6566 43.0888C27.6862 43.0547 27.7178 43.022 27.7514 42.9919C27.7781 42.9668 27.8073 42.9445 27.8367 42.9227V42.9216L27.8388 42.9205C27.8435 42.917 27.8479 42.9122 27.8527 42.9088L27.8537 42.9109C27.8751 42.8944 27.8973 42.8794 27.9208 42.8662V42.8641C27.9404 42.8521 27.9723 42.833 28.0061 42.8161C28.102 42.7672 28.2046 42.7328 28.3107 42.7149L28.3246 42.7128L28.3544 42.978L28.3257 42.7128L28.3779 42.7075L28.3928 42.7053H51.6865C51.8301 42.7053 51.9724 42.7335 52.1051 42.7884C52.238 42.8434 52.3593 42.9243 52.461 43.026C52.5624 43.1275 52.6425 43.2482 52.6975 43.3807C52.7525 43.5136 52.7806 43.6567 52.7806 43.8005V46.2859L52.7763 46.3935C52.766 46.5003 52.7396 46.6051 52.6985 46.7046C52.644 46.8367 52.5629 46.9561 52.462 47.0572L52.4631 47.0583C52.3638 47.1597 52.2454 47.2404 52.1147 47.2959L52.1137 47.2948C51.979 47.3532 51.8343 47.3829 51.6875 47.3822V47.3832H32.1428V46.8378H51.6897C51.7615 46.8382 51.8326 46.824 51.8985 46.7952L51.9017 46.7941C51.966 46.7668 52.0242 46.7268 52.0732 46.6769L52.0753 46.6737C52.1262 46.623 52.1672 46.5632 52.1946 46.4969C52.2221 46.4305 52.2353 46.3589 52.2351 46.287V43.8005Z" fill="black"/>
<path d="M51.1813 46.8381V54.0878C51.1815 54.1503 51.1786 54.2131 51.1717 54.2753L51.1493 54.4724L50.9554 54.5118L48.2889 55.0604L48.2899 55.0615C47.8813 55.1474 47.5426 55.1679 47.2704 55.0839C47.0103 55.0035 46.8403 54.8375 46.7292 54.6215L46.6845 54.5267C46.4129 53.8733 45.9197 53.5577 45.4817 53.4017C45.2617 53.3233 45.0581 53.2866 44.9096 53.2696C44.8356 53.2611 44.7758 53.2571 44.736 53.2557C44.7164 53.2551 44.7016 53.2547 44.6923 53.2547C44.6876 53.2547 44.6834 53.2547 44.6816 53.2547L44.672 53.2557V53.2547L43.3723 53.2494H43.3713C43.1542 53.2469 42.9226 53.2208 42.7363 53.2089C42.6449 53.2036 42.5529 53.2172 42.4668 53.2483C42.3804 53.2795 42.3016 53.3283 42.2345 53.391C42.1674 53.4539 42.1138 53.5295 42.0769 53.6137C42.04 53.6979 42.02 53.7891 42.0193 53.8811C42.02 54.0206 42.0641 54.1564 42.1451 54.27C42.2242 54.381 42.3357 54.464 42.4636 54.5107L43.4384 54.7057C43.4789 54.7138 43.5182 54.727 43.5556 54.744L43.661 54.8079L43.7495 54.8932L43.8166 54.9976L43.8571 55.1137C43.8662 55.1538 43.8711 55.1949 43.8709 55.2362C43.8704 55.319 43.8505 55.4009 43.8134 55.4749L43.8006 55.5004L43.7825 55.5228C43.6951 55.6324 43.582 55.7186 43.4533 55.7742L43.4011 55.7966H30.2345V55.7955C30.1779 55.7963 30.1214 55.793 30.0652 55.7859V55.787C30.0612 55.7866 30.0573 55.7863 30.0534 55.7859V55.7849C30.0176 55.7812 29.9822 55.7748 29.9469 55.7678V55.7689C29.9438 55.7686 29.9404 55.7671 29.9373 55.7668C29.9303 55.7653 29.923 55.7651 29.916 55.7636V55.7614C29.9031 55.7592 29.8904 55.7571 29.8777 55.754V55.755C29.8654 55.7529 29.8536 55.7491 29.8414 55.7465V55.7454C29.801 55.7369 29.7603 55.7295 29.721 55.7167V55.7156C29.6681 55.701 29.6164 55.6823 29.5666 55.6592L29.5495 55.6528L29.5378 55.6474C29.5019 55.6301 29.4592 55.609 29.4142 55.5835V55.5825C29.3676 55.5596 29.3231 55.5331 29.2811 55.5026V55.5036C29.2326 55.4723 29.1853 55.4363 29.1522 55.4109L29.149 55.4077C29.1051 55.3731 29.065 55.3341 29.0264 55.2937L29.0254 55.2948C28.9721 55.2418 28.9231 55.1847 28.8784 55.1244L28.8336 55.0658L29.052 54.9028L29.2704 54.7387C29.2741 54.7436 29.2773 54.7489 29.28 54.7526L29.2949 54.7717L29.3024 54.7803L29.3088 54.7888C29.3393 54.8312 29.3729 54.8712 29.41 54.9081L29.4164 54.9145C29.4376 54.937 29.4604 54.958 29.4845 54.9773L29.5762 55.0455L29.5857 55.0508L29.5943 55.0572L29.6625 55.0988L29.6731 55.103L29.6838 55.1094C29.708 55.1232 29.7321 55.1352 29.7647 55.151L29.7807 55.1584L29.7914 55.1627L29.8734 55.1925L29.8819 55.1947L29.8904 55.1979L29.9735 55.2181L29.9916 55.2213L30.0066 55.2266L30.0215 55.2288L30.0364 55.232C30.062 55.2378 30.088 55.2413 30.1142 55.2437L30.1269 55.2447V55.2458C30.1608 55.2504 30.1951 55.2517 30.2292 55.2511H43.2754C43.2844 55.2456 43.2936 55.2405 43.302 55.2341L42.3315 55.0413L42.3134 55.0381L42.2963 55.0317C42.0565 54.9488 41.8481 54.793 41.7008 54.5864C41.5536 54.3798 41.4741 54.1326 41.4739 53.879V53.8768C41.4751 53.711 41.5107 53.5473 41.5772 53.3953C41.6438 53.2432 41.7405 53.106 41.8617 52.9926C41.9828 52.8793 42.1254 52.7912 42.2814 52.7348C42.4374 52.6785 42.6038 52.6547 42.7693 52.6645H42.7715C42.9978 52.679 43.1773 52.7016 43.3777 52.7039H43.3766L44.6752 52.7092C44.6796 52.7092 44.6853 52.7092 44.6923 52.7092C44.7074 52.7092 44.7288 52.7094 44.7551 52.7103C44.8077 52.7121 44.8816 52.7171 44.9714 52.7273C45.1506 52.7478 45.3967 52.7916 45.6649 52.8871C46.2039 53.0791 46.8419 53.4836 47.1884 54.3179L47.2363 54.4127C47.2869 54.4938 47.348 54.5372 47.4313 54.5629C47.5673 54.6049 47.7936 54.6086 48.1781 54.5278H48.1791L50.6358 54.0207V47.3836H37.7484V46.8381H51.1813Z" fill="black"/>
<path d="M51.6312 36.5053V38.1097C51.6312 38.2503 51.5753 38.3852 51.4759 38.4847C51.3764 38.5842 51.2415 38.6401 51.1008 38.6401H38.598V35.9749H51.1008C51.2415 35.9749 51.3764 36.0307 51.4759 36.1302C51.5753 36.2297 51.6312 36.3646 51.6312 36.5053Z" fill="#9AE2E0"/>
<path d="M38.598 35.9749V38.6401H32.598C32.5276 38.6399 32.458 38.6258 32.3932 38.5986C32.3284 38.5713 32.2696 38.5315 32.2203 38.4814C32.1709 38.4313 32.132 38.3719 32.1058 38.3066C32.0796 38.2414 32.0666 38.1716 32.0676 38.1013L32.0964 36.4945C32.0989 36.3556 32.1559 36.2232 32.2551 36.126C32.3544 36.0288 32.4878 35.9745 32.6268 35.9749H38.598Z" fill="#D7E8F0"/>
<path d="M50.598 38.6399V42.0491C50.5974 42.2949 50.4994 42.5305 50.3256 42.7043C50.1518 42.8781 49.9162 42.9761 49.6704 42.9767H39.5028V38.6399H50.598Z" fill="#3FBDF1"/>
<path d="M39.5028 38.6399V42.9767H33.75C33.5041 42.9764 33.2683 42.8785 33.0944 42.7047C32.9205 42.5308 32.8227 42.295 32.8224 42.0491V38.6399H39.5028Z" fill="#D7E8F0"/>
<path d="M38.0212 42.9768V47.1093H37.4757V42.9768H38.0212Z" fill="black"/>
<path d="M39.4228 47.1096V55.529H38.8773V47.1096H39.4228Z" fill="black"/>
<path d="M51.3587 36.5054C51.3587 36.4371 51.3313 36.3716 51.2831 36.3232C51.2347 36.2749 51.1692 36.2476 51.1009 36.2476H38.8708V38.3676H51.1009C51.1692 38.3676 51.2348 38.3403 51.2831 38.292C51.3313 38.2437 51.3587 38.1781 51.3587 38.1098V36.5054ZM51.9042 38.1098C51.9041 38.3228 51.8193 38.5271 51.6687 38.6776C51.5181 38.8282 51.3138 38.9131 51.1009 38.9131H38.3253V35.7021H51.1009C51.3139 35.7022 51.5181 35.787 51.6687 35.9376C51.8193 36.0882 51.9042 36.2925 51.9042 36.5054V38.1098Z" fill="black"/>
<path d="M38.8709 35.7021V38.9131H32.5971C32.491 38.9128 32.386 38.8913 32.2881 38.8502C32.19 38.809 32.1007 38.7481 32.026 38.6723C31.9515 38.5965 31.892 38.5068 31.8524 38.4081C31.8129 38.3096 31.7935 38.2042 31.7949 38.0981V38.096L31.8236 36.4894C31.8275 36.279 31.9141 36.0785 32.0644 35.9312C32.2146 35.784 32.4166 35.7029 32.6269 35.7032V35.7021H38.8709ZM32.6258 36.2476C32.5586 36.2475 32.4938 36.2741 32.4458 36.3211C32.398 36.3681 32.3704 36.432 32.3691 36.499L32.3403 38.1066C32.3401 38.1403 32.347 38.1734 32.3595 38.2046C32.3723 38.2364 32.3909 38.2655 32.4149 38.2899C32.4389 38.3143 32.4675 38.3341 32.4991 38.3474C32.5304 38.3605 32.5641 38.3675 32.5981 38.3676H38.3254V36.2476H32.6258Z" fill="black"/>
<path d="M50.598 38.6399V42.0491C50.5974 42.2949 50.4994 42.5305 50.3256 42.7043C50.1518 42.8781 49.9162 42.9761 49.6704 42.9767H39.5028V38.6399H50.598Z" fill="#9AE2E0"/>
<path d="M50.8711 38.3672V42.0501C50.8702 42.3679 50.7432 42.6723 50.5185 42.897C50.2937 43.1217 49.9893 43.2487 49.6715 43.2496H39.2301V38.3672H50.8711ZM39.7756 42.7042H49.6694C49.8431 42.7037 50.01 42.6342 50.1328 42.5114C50.2555 42.3887 50.325 42.2225 50.3256 42.049V38.9126H39.7756V42.7042Z" fill="black"/>
<path d="M39.7759 38.3672V43.2496H33.7493C33.4313 43.2491 33.1261 43.1219 32.9012 42.897C32.7048 42.7003 32.5837 42.4426 32.5561 42.1683L32.5497 42.049V38.3672H39.7759ZM33.1079 42.1768C33.1331 42.3026 33.1949 42.4192 33.2869 42.5114C33.4097 42.6342 33.5766 42.704 33.7503 42.7042H39.2304V38.9126H33.0951V42.049L33.1079 42.1768Z" fill="black"/>
<path d="M45.2544 28.4591V30.0635C45.2552 30.1337 45.2421 30.2033 45.2158 30.2683C45.1895 30.3334 45.1505 30.3926 45.1012 30.4424C45.0519 30.4923 44.9931 30.5319 44.9284 30.559C44.8636 30.586 44.7942 30.5999 44.724 30.5999H35.724V27.9287H44.724C44.8647 27.9287 44.9996 27.9846 45.099 28.0841C45.1985 28.1835 45.2544 28.3184 45.2544 28.4591Z" fill="#9AE2E0"/>
<path d="M35.7288 27.9275H30.0684V30.5939H35.7288V27.9275Z" fill="#D7E8F0"/>
<path d="M44.2224 30.6001V35.1049C44.2217 35.3507 44.1238 35.5863 43.95 35.7601C43.7762 35.9339 43.5406 36.0319 43.2948 36.0325H36.6348V30.6001H44.2224Z" fill="#9AE2E0"/>
<path d="M36.6348 30.6001V36.0325H30.882C30.8573 36.035 30.8324 36.035 30.8076 36.0325V30.6001H36.6348Z" fill="#D7E8F0"/>
<path d="M44.9818 28.4593C44.9818 28.391 44.9545 28.3254 44.9062 28.2771C44.8579 28.2288 44.7924 28.2015 44.724 28.2015H35.9967V30.3268H44.724C44.758 30.3268 44.7917 30.3207 44.8231 30.3076C44.8545 30.2946 44.8833 30.2753 44.9073 30.2512C44.9312 30.2269 44.9499 30.1976 44.9627 30.1659C44.9754 30.1344 44.9822 30.1009 44.9818 30.0669V28.4593ZM45.5273 30.0605L45.5134 30.2182C45.5036 30.2702 45.4886 30.3212 45.4687 30.3705C45.4289 30.469 45.3697 30.5592 45.295 30.6347C45.2204 30.7101 45.1309 30.7696 45.033 30.8105C44.984 30.8309 44.9335 30.847 44.8817 30.8574L44.724 30.8723H35.4513V27.656H44.724C44.937 27.656 45.1412 27.7408 45.2918 27.8914C45.4424 28.0421 45.5273 28.2463 45.5273 28.4593V30.0605Z" fill="black"/>
<path d="M36.0016 27.656V30.8723H29.7289C29.6225 30.8723 29.5171 30.8515 29.4189 30.8105C29.3206 30.7693 29.2316 30.7085 29.1568 30.6326C29.0821 30.5567 29.0228 30.4672 28.9832 30.3684C28.9436 30.2696 28.924 30.1637 28.9256 30.0573V30.0562L28.9544 28.4486C28.9582 28.2383 29.0448 28.0375 29.1952 27.8904C29.3454 27.7435 29.5476 27.6628 29.7577 27.6635V27.6624L35.7289 27.656H36.0016ZM29.7577 28.2079H29.7566C29.6895 28.2075 29.6245 28.2334 29.5766 28.2803C29.5286 28.3272 29.5011 28.3912 29.4998 28.4582L29.4711 30.0658C29.4706 30.0997 29.4767 30.1334 29.4892 30.1649C29.5019 30.1966 29.5217 30.2257 29.5457 30.2501C29.5695 30.2743 29.5974 30.2945 29.6288 30.3076C29.6603 30.3208 29.6947 30.3268 29.7289 30.3268H35.4562V28.2015L29.7577 28.2079Z" fill="black"/>
<path d="M44.4949 30.3274V35.1054L44.4885 35.2237C44.4607 35.4982 44.3401 35.7567 44.1433 35.9535C43.9465 36.1502 43.688 36.2708 43.4136 36.2986L43.2953 36.305H36.3621V30.3274H44.4949ZM36.9075 35.7596H43.2942C43.4679 35.7591 43.6348 35.6906 43.7577 35.5678C43.8802 35.4452 43.9486 35.2787 43.9494 35.1054V30.8728H36.9075V35.7596Z" fill="black"/>
<path d="M36.9078 30.3274V36.305H30.8812C30.5632 36.3045 30.2581 36.1783 30.0332 35.9535C29.8084 35.7286 29.6821 35.4235 29.6816 35.1054V30.3274H36.9078ZM30.2271 35.1044L30.2399 35.2333C30.2652 35.359 30.3269 35.4758 30.4189 35.5678C30.5417 35.6906 30.7086 35.7593 30.8823 35.7596H36.3624V30.8728H30.2271V35.1044Z" fill="black"/>
<path d="M43.266 22.9381V23.9917C43.266 24.0375 43.257 24.0828 43.2394 24.1251C43.2218 24.1674 43.1961 24.2059 43.1636 24.2382C43.1312 24.2705 43.0927 24.2961 43.0503 24.3135C43.008 24.331 42.9626 24.3398 42.9168 24.3397H37.0116V22.5901H42.9168C42.9626 22.5899 43.008 22.5988 43.0503 22.6162C43.0927 22.6337 43.1312 22.6593 43.1636 22.6916C43.1961 22.7239 43.2218 22.7623 43.2394 22.8046C43.257 22.8469 43.266 22.8923 43.266 22.9381Z" fill="#9AE2E0"/>
<path d="M37.0115 22.5901H33.2939V24.3397H37.0115V22.5901Z" fill="#D7E8F0"/>
<path d="M42.588 24.3396V27.2976C42.5874 27.459 42.5229 27.6135 42.4087 27.7275C42.2945 27.8415 42.1398 27.9057 41.9784 27.906H37.6068V24.3396H42.588Z" fill="#9AE2E0"/>
<path d="M37.6068 24.3384H33.8376V27.9048H37.6068V24.3384Z" fill="#D7E8F0"/>
<path d="M42.9871 22.9097C42.9834 22.9007 42.9781 22.8922 42.9711 22.8852C42.9641 22.8782 42.9558 22.8719 42.9466 22.8682C42.9375 22.8644 42.9277 22.8628 42.9179 22.8628H37.2843V24.0667H42.9179C42.9277 24.0667 42.9375 24.0651 42.9466 24.0613C42.9557 24.0576 42.9642 24.0523 42.9711 24.0454C42.9781 24.0385 42.9833 24.0299 42.9871 24.0209C42.9909 24.0118 42.9935 24.0019 42.9935 23.9921V22.9385C42.9935 22.9287 42.9908 22.9188 42.9871 22.9097ZM43.539 23.9921C43.5389 24.0737 43.5223 24.1543 43.491 24.2297C43.4597 24.3051 43.4136 24.3734 43.3557 24.431C43.2979 24.4886 43.2299 24.5353 43.1544 24.5663C43.0791 24.5973 42.9982 24.6112 42.9168 24.6111V24.6121H36.7389V22.3174H42.9168V22.3184C42.9982 22.3183 43.0791 22.3333 43.1544 22.3643C43.2297 22.3953 43.298 22.441 43.3557 22.4985C43.4135 22.5561 43.4597 22.6245 43.491 22.6998C43.5224 22.7753 43.539 22.8568 43.539 22.9385V23.9921Z" fill="black"/>
<path d="M37.0118 22.3177H37.2846V24.6124H33.0711C32.988 24.6122 32.9058 24.5949 32.8293 24.5623C32.7529 24.5298 32.6836 24.4825 32.6258 24.4228C32.5681 24.3631 32.5226 24.2925 32.4927 24.215C32.4627 24.1375 32.4485 24.0542 32.4511 23.9711L32.4703 22.9196L32.4852 22.7992C32.5109 22.682 32.5697 22.5733 32.6567 22.4881C32.7727 22.3746 32.929 22.3112 33.0914 22.3113L37.0118 22.3177ZM33.0903 22.8567C33.0709 22.8569 33.052 22.8645 33.0381 22.878C33.031 22.885 33.026 22.8936 33.0221 22.9025L33.0157 22.9302L32.9966 23.9849V23.9881C32.9963 23.9983 32.9982 24.0085 33.0019 24.018C33.0055 24.0274 33.0108 24.0362 33.0179 24.0435C33.025 24.0509 33.034 24.0566 33.0434 24.0606C33.0528 24.0645 33.0631 24.0669 33.0733 24.067H36.7391V22.8621L33.0903 22.8567Z" fill="black"/>
<path d="M42.8611 24.0669V27.2991C42.8601 27.5324 42.7662 27.7554 42.6012 27.9202C42.4359 28.0851 42.2124 28.1786 41.979 28.1791H37.3341V24.0669H42.8611ZM37.8796 27.6337H41.9779L42.044 27.6262C42.1086 27.6132 42.1692 27.5819 42.2166 27.5346C42.2793 27.4719 42.3149 27.3867 42.3156 27.2981V24.6123H37.8796V27.6337Z" fill="black"/>
<path d="M37.8796 24.0669V28.1791H33.8292C33.5958 28.1787 33.372 28.0852 33.207 27.9202C33.042 27.7552 32.9486 27.5315 32.9481 27.2981V24.0669H37.8796ZM33.4936 27.297L33.5 27.3631C33.513 27.4276 33.5454 27.4873 33.5927 27.5346C33.6556 27.5975 33.7412 27.6335 33.8302 27.6337H37.3341V24.6123H33.4936V27.297Z" fill="black"/>
<path d="M42.2292 18.4393V19.3201C42.2289 19.3973 42.1981 19.4713 42.1434 19.5259C42.0888 19.5806 42.0148 19.6114 41.9376 19.6117H37.0044V18.1477H41.9376C41.9759 18.1477 42.0138 18.1552 42.0492 18.1699C42.0846 18.1846 42.1167 18.206 42.1438 18.2331C42.1709 18.2602 42.1923 18.2923 42.207 18.3277C42.2217 18.3631 42.2292 18.401 42.2292 18.4393Z" fill="#9AE2E0"/>
<path d="M37.0055 18.1477H34.0151V19.6105H37.0055V18.1477Z" fill="#D7E8F0"/>
<path d="M41.6628 19.6104V22.08C41.6622 22.2147 41.6084 22.3437 41.5131 22.439C41.4178 22.5343 41.2888 22.5881 41.154 22.5888H37.5012V19.6104H41.6628Z" fill="#9AE2E0"/>
<path d="M37.5013 19.6104V22.59H34.3465C34.2687 22.5903 34.1919 22.5726 34.1222 22.5382C34.0524 22.5039 33.9916 22.4538 33.9445 22.392H34.4533V19.6104H37.5013Z" fill="#D7E8F0"/>
<path d="M41.9551 18.4319C41.9541 18.4296 41.9525 18.4273 41.9508 18.4255C41.9491 18.4239 41.9466 18.4222 41.9444 18.4213C41.9424 18.4205 41.9402 18.4203 41.938 18.4202H37.2771V19.3385H41.9369C41.942 19.3384 41.9472 19.3368 41.9508 19.3332C41.9544 19.3296 41.9559 19.3244 41.9561 19.3194V18.4394C41.9561 18.4369 41.956 18.4342 41.9551 18.4319ZM42.5016 19.3215C42.5008 19.4705 42.4418 19.6135 42.3364 19.7189C42.231 19.8242 42.0881 19.8833 41.9391 19.884H36.7317V17.8748H41.938C42.0118 17.8748 42.085 17.8892 42.1532 17.9174C42.2216 17.9457 42.2841 17.9876 42.3364 18.0399C42.3888 18.0923 42.4306 18.1547 42.459 18.2231C42.4873 18.2916 42.5016 18.3653 42.5016 18.4394V19.3215Z" fill="black"/>
<path d="M37.2767 17.8748V19.8829H33.7121C33.6375 19.8826 33.5635 19.8672 33.4948 19.8382C33.426 19.8091 33.3627 19.7669 33.3105 19.7135C33.2584 19.6604 33.2177 19.5972 33.1901 19.5282C33.1625 19.4589 33.1484 19.3843 33.1496 19.3098V19.3087L33.1656 18.4287C33.168 18.281 33.2286 18.1403 33.3339 18.0367C33.4392 17.9332 33.5805 17.8748 33.7281 17.8748H37.2767ZM33.7164 18.4255C33.7131 18.4287 33.7112 18.4328 33.711 18.4373V18.4383L33.6951 19.3183C33.695 19.3208 33.6952 19.3234 33.6961 19.3258C33.6971 19.3281 33.6986 19.3304 33.7004 19.3321C33.7021 19.3339 33.7045 19.3354 33.7068 19.3364C33.709 19.3373 33.7118 19.3375 33.7142 19.3375H36.7313V18.4202H33.7281C33.7236 18.4203 33.7196 18.4224 33.7164 18.4255Z" fill="black"/>
<path d="M41.9352 19.3376V22.0809C41.9342 22.2874 41.8521 22.4856 41.7061 22.6317C41.56 22.7778 41.362 22.8608 41.1554 22.8618H37.2285V19.3376H41.9352ZM37.774 22.3163H41.1532C41.2159 22.3159 41.2761 22.2904 41.3205 22.246C41.3645 22.2019 41.3891 22.1422 41.3897 22.0798V19.8831H37.774V22.3163Z" fill="black"/>
<path d="M37.7743 19.3376V22.8629H34.3428C34.1365 22.8609 33.9394 22.7772 33.7942 22.6306C33.649 22.484 33.5673 22.2862 33.5673 22.0798V19.3376H37.7743ZM34.1127 22.0798C34.1127 22.1423 34.137 22.2027 34.1809 22.2471C34.2249 22.2915 34.2856 22.3168 34.3482 22.3174H37.2288V19.8831H34.1127V22.0798Z" fill="black"/>
<path d="M39.4334 84.6787C39.6309 94.4401 41.0361 104.139 43.616 113.556H43.6149C43.6378 113.638 43.6424 113.725 43.6266 113.808C43.6107 113.893 43.575 113.972 43.5233 114.041C43.4715 114.109 43.4041 114.164 43.3273 114.203C43.2505 114.241 43.1659 114.261 43.0801 114.261L32.024 114.273C31.8172 114.273 31.6122 114.232 31.421 114.153C31.2298 114.075 31.056 113.959 30.9096 113.813C30.7633 113.667 30.6469 113.493 30.5677 113.302C30.5082 113.159 30.4699 113.008 30.4547 112.854L30.4473 112.699C30.4457 112.303 30.594 111.919 30.8628 111.628C31.1315 111.336 31.5008 111.157 31.8961 111.126L36.0446 110.776L36.067 111.048L36.0904 111.32C34.708 111.437 33.3252 111.554 31.942 111.669H31.9398C31.6813 111.689 31.4401 111.807 31.2644 111.997C31.0887 112.188 30.9915 112.439 30.9927 112.698V112.699C30.9927 112.834 31.0198 112.969 31.0716 113.093C31.1233 113.218 31.1987 113.332 31.2942 113.427C31.3899 113.522 31.5038 113.598 31.6287 113.65C31.7537 113.701 31.8878 113.728 32.0229 113.727L43.0801 113.716C43.0815 113.716 43.083 113.715 43.0844 113.715C43.0858 113.714 43.0876 113.713 43.0886 113.711C43.0895 113.71 43.0894 113.709 43.0897 113.707V113.7C40.498 104.24 39.0863 94.4957 38.888 84.6894L39.4334 84.6787Z" fill="black"/>
<path d="M57.1647 52.938V52.9401H56.6193V52.938H57.1647Z" fill="black"/>
<path d="M54.5996 66.2816C54.4542 66.9162 54.3046 67.5509 54.1468 68.1843L54.0168 68.6957C53.1776 71.9788 52.1472 75.2155 51.4749 78.4851C50.8051 81.7433 50.5027 84.9899 51.118 88.2404C52.7107 96.6497 57.8847 105.576 62.0516 112.176L62.8698 113.464L62.8709 113.466C62.932 113.562 62.9301 113.676 62.8847 113.765C62.8496 113.834 62.7955 113.876 62.7665 113.896C62.7041 113.94 62.6254 113.972 62.5587 113.995C62.4168 114.045 62.2253 114.092 62.0367 114.131C61.8454 114.171 61.6457 114.207 61.4817 114.232C61.4047 114.243 61.3294 114.254 61.2644 114.261L61.1078 114.273C57.8033 114.244 53.2828 114.217 49.7853 114.188C49.384 114.185 48.9998 114.023 48.7168 113.738C48.4338 113.454 48.2747 113.069 48.2736 112.668V112.645C48.2724 112.284 48.399 111.935 48.6315 111.659C48.8644 111.382 49.1882 111.198 49.5445 111.138C50.2005 111.029 50.991 110.92 51.7082 110.812C52.2059 110.737 52.6657 110.661 53.0325 110.589L51.7093 109.078L51.7051 109.073C48.8811 105.678 45.7354 102.159 43.6436 98.179C40.3719 91.9408 38.4988 85.0149 37.943 78.0046C37.6386 74.1883 37.8787 70.3441 38.7899 66.6193L39.3205 66.7493C38.4246 70.4114 38.187 74.197 38.4874 77.962C39.0379 84.9051 40.8917 91.7582 44.1262 97.9254C46.183 101.839 49.2759 105.301 52.1195 108.719L54.0371 110.908L53.6109 111.021C53.1842 111.133 52.5078 111.243 51.7892 111.351C51.0625 111.46 50.2858 111.568 49.6351 111.676C49.4063 111.714 49.1987 111.833 49.0492 112.01C48.8997 112.188 48.8181 112.412 48.819 112.644V112.667L48.8233 112.762C48.8459 112.985 48.9445 113.194 49.1035 113.354C49.2626 113.514 49.4714 113.613 49.6937 113.637L49.7906 113.642L61.112 113.728L61.1365 113.725C61.1532 113.724 61.175 113.722 61.2015 113.719C61.2544 113.713 61.3221 113.704 61.3997 113.692C61.555 113.669 61.7448 113.635 61.9249 113.598C62.0483 113.572 62.1621 113.542 62.2562 113.516C57.9975 106.84 52.2827 97.3203 50.5822 88.3416C49.9484 84.9935 50.2641 81.6687 50.9412 78.3754C51.616 75.0934 52.6609 71.7979 53.4884 68.5604L53.6173 68.0533C53.774 67.4243 53.923 66.7927 54.068 66.1602L54.5996 66.2816Z" fill="black"/>
<path d="M47.9842 31.7477C47.9756 31.7489 47.9681 31.7494 47.949 31.7531C47.9306 31.7566 47.9067 31.7618 47.8755 31.7658C47.8341 31.7712 47.7927 31.7763 47.7498 31.784L47.7509 31.785L47.6092 31.8117L47.5847 31.8159H47.5772C47.0143 31.9205 46.4599 32.0665 45.9185 32.2527H45.9174C45.3791 32.4374 44.854 32.6586 44.346 32.9153L44.2225 32.6725L44.0989 32.4285C44.6294 32.1602 45.1782 31.9289 45.7406 31.736L46.1731 31.5965C46.6087 31.4646 47.0516 31.3571 47.4994 31.2747L47.5239 31.2705H47.5335L47.6518 31.2492L47.6529 31.2481C47.7034 31.239 47.7542 31.2313 47.8063 31.2247C47.8211 31.2227 47.8327 31.2209 47.8467 31.2183C47.8603 31.2157 47.8837 31.2101 47.9096 31.2065L47.9842 31.7477Z" fill="black"/>
<path d="M32.1085 55.598C31.798 56.7858 31.5007 57.9777 31.2189 59.1743C30.8325 60.8244 30.4798 62.482 30.1589 64.1441C28.6026 72.2708 27.9371 80.63 29.0978 88.8334C29.6526 92.7702 30.5568 96.6503 31.8006 100.426C32.4228 102.312 33.129 104.167 33.9185 105.992L34.3287 106.988C34.5293 107.475 34.7794 108.076 35.0361 108.659C35.2933 109.244 35.5544 109.807 35.7765 110.221C35.8881 110.429 35.9859 110.591 36.0641 110.697C36.1037 110.751 36.1312 110.782 36.1472 110.796C36.1738 110.82 36.1404 110.777 36.062 110.777V111.323C35.9294 111.323 35.8317 111.246 35.785 111.205C35.7277 111.154 35.6739 111.088 35.6241 111.02C35.5234 110.883 35.4115 110.694 35.296 110.479C35.0636 110.046 34.7961 109.467 34.5375 108.879C34.2783 108.29 34.025 107.685 33.8237 107.196C33.6207 106.702 33.4738 106.335 33.4189 106.209H33.4178C32.6218 104.37 31.9102 102.498 31.2829 100.597C30.1073 97.028 29.232 93.3675 28.6664 89.6537L28.5577 88.9101C27.3858 80.6282 28.0595 72.2039 29.6231 64.0397C29.9453 62.3708 30.3004 60.7077 30.6884 59.0507L31.1241 57.2514C31.2727 56.6531 31.4243 56.0556 31.5801 55.4595L32.1085 55.598Z" fill="black"/>
<path d="M54.1812 32.0662L54.194 32.0705C55.6188 32.5661 56.9889 33.2073 58.2817 33.9849L58.2827 33.986C58.4865 34.11 58.6823 34.2376 58.8751 34.3727L59.3768 34.7391C61.494 36.3726 62.858 38.563 64.0089 40.8947L64.5267 41.9803L64.9251 42.8496C66.645 46.6725 68.1121 49.2005 68.477 53.5531L68.5004 53.8791C68.5877 55.4889 68.2708 56.7934 67.6279 57.8325C66.9426 58.9402 65.9024 59.7205 64.6481 60.2509C62.1518 61.3065 58.7581 61.392 55.4223 61.0754C54.461 60.985 53.5044 60.8588 52.5714 60.7132L52.4511 60.6972L52.4404 60.6951L52.4287 60.693C52.4182 60.6906 52.4074 60.6894 52.3967 60.6887L52.433 60.1443C52.4641 60.1464 52.495 60.1512 52.5256 60.1571L52.6471 60.1742H52.6513C53.3457 60.2826 54.0522 60.3792 54.7629 60.4586L55.4745 60.5321L56.0956 60.5864C59.1965 60.8313 62.2178 60.6871 64.4361 59.7491C65.6129 59.2515 66.5513 58.5351 67.1634 57.546C67.7751 56.5574 68.0767 55.2697 67.9337 53.5999C67.6673 50.4224 66.8065 48.2632 65.6592 45.7526L64.4276 43.0744C64.296 42.784 64.1637 42.4957 64.0313 42.2093C62.6855 39.3107 61.1883 36.6341 58.5651 34.8212L58.5629 34.8201C58.3794 34.6916 58.1934 34.5706 57.9994 34.4526C56.7418 33.6963 55.4093 33.0709 54.0235 32.5882L54.0075 32.584L54.1609 32.0598L54.1812 32.0662Z" fill="black"/>
<path d="M58.2645 50.2168C58.4514 50.5699 58.5311 50.9707 58.4935 51.3685C58.4559 51.7653 58.3024 52.1417 58.0535 52.453L58.0546 52.4541C57.7557 52.8327 57.3788 53.049 56.9892 53.1945C56.6103 53.336 56.1901 53.4191 55.8248 53.5098L55.8142 53.5119L48.295 55.0641L48.2939 55.0631C47.8861 55.1487 47.5483 55.1704 47.2765 55.0865C47.0165 55.0063 46.8464 54.84 46.7353 54.6242L46.6906 54.5293C46.4191 53.8764 45.926 53.5606 45.4878 53.4043C45.2678 53.3259 45.0643 53.2883 44.9157 53.2712C44.8418 53.2627 44.7819 53.2598 44.7421 53.2584C44.7222 53.2577 44.7067 53.2573 44.6973 53.2573H44.6782L43.3785 53.2509C43.16 53.2508 42.9238 53.2231 42.7424 53.2115C42.651 53.2062 42.5591 53.2198 42.4729 53.2509C42.3867 53.2821 42.3076 53.3301 42.2407 53.3926C42.1735 53.4555 42.1199 53.5321 42.083 53.6163C42.0462 53.7004 42.0262 53.7909 42.0255 53.8827C42.026 54.0224 42.07 54.1588 42.1512 54.2726C42.2304 54.3836 42.3418 54.4667 42.4697 54.5134L43.4445 54.7083L43.5617 54.7456C43.5991 54.7626 43.6344 54.7843 43.6672 54.8095C43.6999 54.8348 43.7296 54.864 43.7556 54.8958L43.8227 55.0002L43.8632 55.1163C43.8723 55.1564 43.8773 55.1975 43.877 55.2389C43.8765 55.3217 43.8567 55.4035 43.8195 55.4775L43.8067 55.5031L43.7886 55.5244C43.7011 55.6342 43.5883 55.7212 43.4594 55.7769L43.4072 55.7992H36.6359C36.6025 55.803 36.57 55.8131 36.5411 55.8301C36.5107 55.8481 36.4842 55.8723 36.4644 55.9015C36.4446 55.9308 36.4324 55.9646 36.4271 55.9995C36.4218 56.0344 36.4234 56.0701 36.4335 56.1039L36.4367 56.1124L36.4388 56.121C36.4781 56.2901 36.5988 56.4412 36.7883 56.5727C36.9771 56.7037 37.2111 56.7987 37.4253 56.8603C40.8358 57.8487 44.2613 58.6453 47.7538 59.2978C49.3835 59.6023 51.0174 59.8935 52.6544 60.1725L52.5628 60.7104C50.923 60.431 49.2862 60.1387 47.6537 59.8337C44.1455 59.1782 40.7034 58.3784 37.274 57.3845C37.0252 57.3129 36.7309 57.1961 36.4772 57.0201C36.228 56.8472 35.9968 56.6 35.9125 56.2605C35.8792 56.1493 35.8695 56.0323 35.887 55.9175C35.9045 55.8025 35.9475 55.6921 36.0127 55.5957C36.0778 55.4995 36.164 55.4193 36.2641 55.3603C36.3642 55.3013 36.4765 55.2652 36.5922 55.2548L36.605 55.2538H43.2815C43.2905 55.2482 43.2997 55.2432 43.3081 55.2367L42.3376 55.0439L42.3195 55.0396L42.3025 55.0343C42.0626 54.9514 41.8543 54.7956 41.7069 54.589C41.5597 54.3825 41.4803 54.1352 41.48 53.8816V53.8795C41.4812 53.7135 41.5167 53.5489 41.5834 53.3969C41.65 53.245 41.7467 53.1075 41.8678 52.9942C41.9888 52.881 42.1317 52.7937 42.2875 52.7374C42.4436 52.6811 42.6099 52.6573 42.7755 52.6671C43.0062 52.6819 43.1811 52.7054 43.3795 52.7055H43.3816L44.6814 52.7119H44.6984C44.7135 52.7119 44.735 52.712 44.7613 52.7129C44.8138 52.7148 44.8877 52.7197 44.9775 52.73C45.1567 52.7506 45.4029 52.7942 45.6711 52.8898C46.2099 53.0819 46.848 53.4869 47.1945 54.3205L47.2424 54.4154C47.293 54.4963 47.3542 54.5399 47.4374 54.5656C47.5735 54.6075 47.7998 54.6102 48.1842 54.5293L55.6917 52.9803C56.0944 52.8803 56.4584 52.8112 56.7986 52.6842C57.128 52.5611 57.4081 52.3928 57.6263 52.1163L57.6274 52.1142C57.8106 51.8855 57.9226 51.608 57.9502 51.3163C57.9777 51.0247 57.9199 50.7314 57.7829 50.4725L57.7819 50.4704L54.7009 44.5556L54.9427 44.4299L55.1856 44.3042L58.2645 50.2168Z" fill="black"/>
<path d="M30.2108 47.1108L30.3237 47.359C30.0438 47.4856 29.7682 47.5788 29.5141 47.6616C29.2553 47.7458 29.0246 47.8178 28.812 47.9076C28.4032 48.0805 28.0865 48.3065 27.8766 48.7674C27.3885 49.9101 27.1664 51.1494 27.2257 52.3906L27.2513 52.6527C27.3351 53.2451 27.5777 53.6968 27.9416 54.0302C28.3098 54.3674 28.8211 54.6003 29.464 54.7205L29.7484 54.7652L29.758 54.7663C30.4077 54.8755 31.0676 54.9151 31.7257 54.8835L32.0389 54.8675C32.3396 54.8513 32.6041 54.8252 32.839 54.7173L32.8411 54.7162C33.0173 54.6369 33.1455 54.4814 33.1873 54.3242C33.2208 54.1982 33.201 54.069 33.0947 53.9567L33.0435 53.9087C32.8548 53.7544 32.5818 53.689 32.2552 53.6232L32.3223 53.0831C32.671 53.101 33.0022 53.1144 33.2747 53.1204H33.2758C33.7446 53.1332 34.1427 52.8149 34.143 52.4045C34.143 52.1649 34.0524 52.0316 33.9235 51.9442C33.7775 51.8453 33.5591 51.7913 33.3013 51.778L29.2744 51.5703L29.3021 51.0248L31.9611 51.1537L32.4864 51.1761C32.6706 51.1786 32.8586 51.1713 33.035 51.142C33.3878 51.0835 33.5972 50.9533 33.671 50.7212C33.7043 50.6137 33.7023 50.4985 33.6657 50.392C33.6289 50.2853 33.5592 50.1931 33.4665 50.1289L33.4654 50.1278C33.0592 49.8446 32.4895 49.7944 31.9143 49.7624H31.9079C31.108 49.7 30.3033 49.7202 29.5077 49.8231L29.4938 49.7528C29.4468 49.7654 29.401 49.7798 29.3553 49.7922C29.3916 49.8109 29.4201 49.8173 29.4224 49.8178C29.4519 49.824 29.4764 49.8232 29.48 49.8231C29.4847 49.8231 29.489 49.8233 29.4917 49.8231C29.483 49.8243 29.469 49.8264 29.4491 49.8295C29.3957 49.8378 29.3172 49.8505 29.2371 49.8636C29.1581 49.8765 29.0769 49.8901 29.0197 49.8988C28.9927 49.9029 28.966 49.9063 28.9473 49.9084C28.9424 49.9089 28.9348 49.91 28.9271 49.9105C28.9232 49.9107 28.9166 49.9115 28.9089 49.9116C28.9043 49.9116 28.8854 49.911 28.8621 49.9073C28.8529 49.9058 28.8196 49.9005 28.7822 49.8817C28.7526 49.8668 28.6314 49.7956 28.632 49.6367C28.6326 49.5102 28.716 49.4402 28.7268 49.4311C28.7496 49.4115 28.771 49.4001 28.779 49.3959C28.7963 49.3869 28.8115 49.3816 28.8163 49.3799C28.8202 49.3786 28.8239 49.3766 28.8269 49.3757C28.9973 49.3221 29.178 49.2742 29.3564 49.2265C29.5368 49.1784 29.7164 49.1306 29.8922 49.0785C30.2461 48.9735 30.5643 48.8542 30.8148 48.6896L30.965 48.9176L31.1142 49.1456C31.092 49.1601 31.0677 49.1711 31.0449 49.185C31.3469 49.186 31.649 49.1945 31.9505 49.218H31.9494C32.4967 49.2485 33.2254 49.2954 33.7775 49.6804H33.7765C33.9648 49.8107 34.1067 49.9976 34.1813 50.2141C34.2559 50.4306 34.26 50.6655 34.192 50.8842L34.1909 50.8853C34.1306 51.0756 34.0287 51.2211 33.9054 51.3349C34.0195 51.3735 34.1294 51.4249 34.2293 51.4925C34.5103 51.6829 34.6884 51.9865 34.6884 52.4045C34.6882 53.1051 34.1267 53.5471 33.5421 53.6445C33.7403 53.891 33.7866 54.1889 33.7136 54.4638C33.6278 54.7867 33.3841 55.07 33.0648 55.2138L33.0638 55.2127C32.6313 55.4105 32.1305 55.4079 31.7545 55.4279H31.7534C31.0593 55.4613 30.3635 55.4198 29.6781 55.3054C28.8276 55.1957 28.1015 54.9159 27.573 54.4318C27.0396 53.9431 26.7318 53.2684 26.6813 52.4226L26.6802 52.4194C26.6166 51.095 26.855 49.7736 27.3759 48.5543L27.378 48.549C27.6614 47.9217 28.1067 47.6134 28.6 47.4048C28.8392 47.3037 29.0966 47.2235 29.3447 47.1427C29.5975 47.0604 29.8486 46.9758 30.0989 46.8625L30.2108 47.1108ZM29.4949 49.8231C29.4942 49.8232 29.493 49.8231 29.4917 49.8231C29.4949 49.8227 29.4974 49.8223 29.4991 49.8221C29.4983 49.8221 29.4969 49.823 29.4949 49.8231Z" fill="black"/>
<path d="M31.5813 46.4328L31.5898 46.4339L31.5972 46.4349L31.6526 46.4424C31.6765 46.4444 31.6998 46.4488 31.7229 46.4552C31.7415 46.4583 31.7575 46.4585 31.7688 46.4616C31.7802 46.4647 31.7912 46.4681 31.7975 46.4701C31.8001 46.4709 31.8023 46.4728 31.8039 46.4733C31.8514 46.4858 31.8984 46.5026 31.9424 46.5244L31.9413 46.5255C32.0026 46.5546 32.0593 46.5913 32.1118 46.6341L32.1129 46.6331C32.1146 46.6344 32.1154 46.637 32.1171 46.6384C32.1193 46.6402 32.1224 46.6408 32.1246 46.6427L32.1235 46.6437C32.1424 46.6589 32.1602 46.675 32.1768 46.6927L32.1778 46.6917C32.1793 46.6932 32.1806 46.6955 32.1821 46.697C32.1842 46.6993 32.1875 46.701 32.1896 46.7034C32.2322 46.7482 32.2695 46.7967 32.3036 46.8483L32.3057 46.8504L32.3068 46.8525C32.3078 46.8541 32.3096 46.8559 32.311 46.8579C32.3138 46.8619 32.3168 46.867 32.3206 46.8728C32.3283 46.8848 32.3387 46.9011 32.3494 46.9207C32.3706 46.9597 32.3959 47.014 32.4186 47.0816C32.4645 47.2185 32.4988 47.4121 32.458 47.643C32.3751 48.1124 32.0032 48.6561 31.0433 49.1942L30.9101 48.9566L30.7759 48.718C31.6605 48.2221 31.8766 47.7934 31.92 47.5482C31.9423 47.4219 31.9241 47.3216 31.9019 47.2552C31.8907 47.2217 31.8781 47.1966 31.87 47.1817C31.8675 47.1773 31.8661 47.1735 31.8646 47.1711L31.854 47.1562C31.8353 47.1267 31.8134 47.0991 31.789 47.0741L31.7837 47.0677L31.7815 47.0656L31.772 47.0592L31.773 47.0581C31.7528 47.041 31.7299 47.0268 31.7059 47.0155L31.7006 47.0134C31.6893 47.0079 31.6775 47.0028 31.6654 46.9996L31.6601 46.9985C31.6545 46.9969 31.6494 46.9955 31.6452 46.9942L31.6345 46.991H31.6132L31.5919 46.9836L31.5823 46.9825L31.5418 46.9761C31.4815 46.972 31.4206 46.9741 31.3607 46.9825L31.3618 46.9836C31.3188 46.9899 31.2761 46.9985 31.234 47.0091L31.2244 47.0113L31.2158 47.0134L31.186 47.0177C31.1793 47.0194 31.1732 47.0217 31.1679 47.023C31.1602 47.025 31.1543 47.0258 31.1487 47.0273C31.1382 47.03 31.1342 47.0321 31.1327 47.0326L31.1178 47.0379L31.055 47.056L30.9335 47.0965L30.9325 47.0954C30.8908 47.1105 30.8594 47.123 30.8259 47.137C30.7694 47.1605 30.7427 47.1698 30.7034 47.1871L30.7013 47.1881C30.5606 47.2489 30.4392 47.3075 30.3231 47.3596L30.2112 47.1104L30.0994 46.8621C30.1969 46.8183 30.3425 46.749 30.485 46.6874C30.5269 46.6691 30.5871 46.6451 30.6161 46.6331C30.6667 46.612 30.7151 46.5955 30.7556 46.5809L30.7631 46.5777L30.8898 46.5361L30.8973 46.534L30.9602 46.5148C30.9973 46.5026 31.0424 46.4919 31.0486 46.4903L31.0603 46.4871L31.071 46.485L31.1168 46.4765C31.1716 46.4631 31.2271 46.4517 31.283 46.4434C31.3323 46.4365 31.3835 46.4324 31.4332 46.4307L31.5813 46.4328Z" fill="black"/>
<path d="M31.3274 52.9906C31.6007 53.0176 31.8649 53.0445 32.0604 53.0641C32.158 53.0739 32.2385 53.0819 32.2947 53.0875C32.3227 53.0903 32.3448 53.0924 32.3597 53.0939C32.367 53.0947 32.3729 53.0957 32.3768 53.0961H32.3832L32.3278 53.6394L32.3267 53.6383C32.3257 53.6382 32.3243 53.6385 32.3224 53.6383C32.3186 53.6379 32.3129 53.6369 32.3054 53.6362C32.2905 53.6347 32.2685 53.6326 32.2404 53.6298C32.1843 53.6241 32.1036 53.6161 32.006 53.6064C31.8107 53.5868 31.5471 53.5609 31.2741 53.5339C30.7255 53.4797 30.1468 53.423 30 53.4125L30.0384 52.8691C30.1943 52.8803 30.7839 52.9369 31.3274 52.9906Z" fill="black"/>
<path d="M33.4023 59.9709C35.0855 59.9776 37.403 60.0604 39.9393 60.363C44.9924 60.9658 50.9886 62.4511 54.5259 66.0274C54.634 66.1202 54.7811 66.2759 54.9126 66.4695C55.0521 66.6747 55.1882 66.9412 55.2333 67.2355C55.2796 67.5381 55.2287 67.8684 54.9968 68.1708C54.7708 68.4655 54.393 68.7079 53.8377 68.8889L53.7525 68.6289L53.6683 68.3701C54.164 68.2085 54.4282 68.0144 54.5632 67.8385C54.6921 67.6703 54.7215 67.4951 54.6942 67.3175C54.6657 67.1317 54.574 66.9426 54.4609 66.7763C54.348 66.6102 54.2267 66.4856 54.1605 66.4311L54.1498 66.4226L54.1392 66.413C50.7427 62.9778 44.9135 61.5054 39.8743 60.9041C37.3642 60.6047 35.0685 60.523 33.4002 60.5164C32.5662 60.5131 31.8895 60.5289 31.4219 60.5451C31.1881 60.5532 31.0066 60.5612 30.8839 60.5675C30.8225 60.5706 30.7755 60.5731 30.7443 60.575C30.7288 60.5759 30.7169 60.5766 30.7091 60.5771C30.7054 60.5773 30.7024 60.578 30.7006 60.5782H30.6985C30.6984 60.5782 30.6982 60.5782 30.6804 60.3065L30.6633 60.0338C30.6639 60.0337 30.6654 60.0338 30.6665 60.0338C30.6687 60.0336 30.6722 60.0329 30.6761 60.0327C30.6844 60.0322 30.6965 60.0315 30.7123 60.0306C30.7448 60.0287 30.7934 60.0263 30.8562 60.0231C30.9817 60.0167 31.166 60.0079 31.4027 59.9997C31.8765 59.9832 32.5605 59.9676 33.4023 59.9709Z" fill="black"/>
<path d="M57.6086 60.9601C57.8425 61.0219 57.8689 61.0285 57.8718 61.0294V61.0304C57.8716 61.0311 57.871 61.0324 57.8707 61.0336C57.87 61.0363 57.8689 61.0403 57.8675 61.0453C57.8648 61.0556 57.8611 61.0714 57.8558 61.0912C57.8451 61.1307 57.8294 61.1886 57.8089 61.2627C57.7678 61.4114 57.7076 61.626 57.631 61.888C57.4777 62.4123 57.2581 63.1302 56.995 63.9015C56.7321 64.6722 56.424 65.5006 56.0927 66.2453C55.7635 66.9852 55.4029 67.662 55.0305 68.1171L54.6086 67.7719C54.9334 67.375 55.2697 66.7518 55.5941 66.0226C55.9163 65.2983 56.2184 64.4868 56.4783 63.7247C56.738 62.9633 56.9552 62.2546 57.1069 61.7357C57.1827 61.4764 57.2421 61.2644 57.2826 61.1178C57.3029 61.0445 57.3191 60.987 57.3295 60.9484C57.3347 60.9293 57.3386 60.9144 57.3412 60.9047C57.3425 60.9001 57.3427 60.8964 57.3434 60.8941L57.3444 60.8909C57.3444 60.8909 57.345 60.8905 57.6086 60.9601Z" fill="black"/>
<path d="M54.1644 66.0527C54.1644 66.0527 55.638 66.9191 54.582 68.2067L53.6904 68.6291L54.3168 66.2927L54.1644 66.0527Z" fill="black"/>
<path d="M59.1744 63.1633C59.8668 55.9129 58.1148 53.6545 56.7864 52.9633L56.892 52.9345C61.5576 52.3057 62.532 61.2325 62.6952 63.3037L59.1744 63.1633Z" fill="#D7E8F0"/>
<path d="M59.0988 63.7332C59.7912 56.4828 58.1148 53.6532 56.7864 52.9668L56.892 52.938C61.5576 52.3092 62.562 61.6608 62.724 63.738L59.0988 63.7332Z" fill="#D7E8F0"/>
<path d="M52.4472 63.7993H48.6636V85.8037H52.4472V63.7993Z" fill="white"/>
<path d="M56.8556 52.6677C58.2951 52.474 59.4062 53.1231 60.2423 54.1538C61.0707 55.1751 61.6474 56.5887 62.0502 57.9965C62.4544 59.4091 62.6906 60.8411 62.8258 61.9169C62.8935 62.4553 62.9365 62.9064 62.9622 63.2231C62.975 63.3812 62.9834 63.5061 62.9888 63.5917C62.9915 63.6343 62.9929 63.6673 62.9941 63.6897C62.9947 63.7008 62.9959 63.7094 62.9962 63.7152V63.7248L63.0101 64.0103H58.8105L58.8265 63.7227C59.1312 58.1183 58.0939 55.6347 57.0623 54.5448C56.5497 54.0032 56.0273 53.7931 55.6411 53.7149C55.4468 53.6756 55.2844 53.6692 55.1735 53.6723C55.1182 53.6738 55.0759 53.6776 55.0488 53.6808C55.0352 53.6824 55.0256 53.6842 55.02 53.6851C55.0182 53.6854 55.0167 53.6849 55.0158 53.6851L55.0147 53.684C55.0115 53.6846 55.0088 53.6868 55.0062 53.6872L54.9114 53.1503H54.9124L54.9146 53.1492C54.9158 53.149 54.9173 53.1495 54.9188 53.1492L54.922 53.1481C54.923 53.148 54.9251 53.1477 54.9284 53.1471C54.9303 53.1468 54.9327 53.1463 54.9348 53.146L54.9359 53.1449C54.9409 53.1439 54.947 53.1432 54.954 53.1417C54.9738 53.1374 54.9996 53.1319 55.0307 53.1247C55.0929 53.1102 55.1745 53.0902 55.2683 53.0672C55.4555 53.0212 55.6907 52.9625 55.9213 52.9042C56.1519 52.8458 56.3776 52.7884 56.5456 52.7454C56.6296 52.7239 56.6994 52.7057 56.748 52.6932C56.7723 52.687 56.7916 52.6827 56.8045 52.6794C56.8109 52.6777 56.8161 52.676 56.8194 52.6751C56.8208 52.6748 56.8218 52.6743 56.8226 52.6741H56.8237L56.8396 52.6698L56.8556 52.6677ZM59.8194 54.4979C59.0694 53.5733 58.1347 53.049 56.9398 53.2057V53.2067C56.9268 53.2101 56.9076 53.2154 56.8833 53.2216C56.8346 53.2341 56.765 53.2523 56.6809 53.2738C56.5804 53.2996 56.4588 53.3291 56.3283 53.3623C56.6876 53.5173 57.0789 53.7686 57.4586 54.1698C58.6273 55.4046 59.6399 58.0111 59.3826 63.4649H62.4327C62.4285 63.4068 62.4238 63.3405 62.4178 63.2667C62.3926 62.9567 62.3512 62.5135 62.2846 61.9841C62.1513 60.9241 61.9198 59.5227 61.5261 58.1467C61.131 56.7659 60.5793 55.435 59.8194 54.4979Z" fill="black"/>
<path d="M71.07 64.7749H53.4432V85.7377H71.07V64.7749Z" fill="#3FBDF1"/>
<path d="M71.0699 63.6648H52.5107V85.7376H71.0699V63.6648Z" fill="white"/>
<path d="M71.2956 64.5599V84.9155C71.2956 85.4927 70.7316 85.9607 70.0344 85.9607H49.7628C49.0656 85.9607 48.5004 85.4927 48.5004 84.9155V64.5599C48.5004 63.9827 49.0656 63.5147 49.7628 63.5147H70.0344C70.7316 63.5099 71.2956 63.9779 71.2956 64.5599Z" fill="#0782D0"/>
<path d="M70.212 65.5297V84.0733C70.213 84.1973 70.1895 84.3203 70.1429 84.4353C70.0963 84.5502 70.0276 84.6549 69.9405 84.7432C69.8535 84.8316 69.7499 84.902 69.6357 84.9503C69.5215 84.9986 69.3989 85.024 69.2748 85.0249H54.2232C54.0992 85.024 53.9766 84.9986 53.8624 84.9503C53.7482 84.902 53.6446 84.8316 53.5575 84.7432C53.4705 84.6549 53.4018 84.5502 53.3552 84.4353C53.3086 84.3203 53.2851 84.1973 53.286 84.0733V65.5297C53.2851 65.4057 53.3086 65.2827 53.3552 65.1678C53.4018 65.0528 53.4705 64.9482 53.5575 64.8598C53.6446 64.7714 53.7482 64.7011 53.8624 64.6528C53.9766 64.6044 54.0992 64.5791 54.2232 64.5781H69.2748C69.3989 64.5791 69.5215 64.6044 69.6357 64.6528C69.7499 64.7011 69.8535 64.7714 69.9405 64.8598C70.0276 64.9482 70.0963 65.0528 70.1429 65.1678C70.1895 65.2827 70.213 65.4057 70.212 65.5297Z" fill="#0782D0"/>
<path d="M71.3426 63.4604V86.0105H52.2368V63.4604H71.3426ZM52.7823 85.4651H70.7972V64.0059H52.7823V85.4651Z" fill="black"/>
<path d="M52.7052 63.4604V86.0105H48.4545V63.4604H52.7052ZM48.9999 85.4651H52.1597V64.0059H48.9999V85.4651Z" fill="black"/>
<path d="M52.6551 85.5791L52.4324 85.7378L52.2108 85.8966L50.5585 83.5837L48.9509 85.8934L48.7271 85.7378L48.5034 85.5812L50.3326 82.9552L50.5531 82.6377L52.6551 85.5791Z" fill="black"/>
<path d="M50.8533 63.7332L50.8288 83.1106H50.2833L50.3078 63.7332H50.8533Z" fill="black"/>
<path d="M56.3752 60.804V63.7336H55.8297V60.804H56.3752Z" fill="black"/>
<path d="M59.1396 60.9599C59.1396 60.9599 56.3472 60.9119 55.8372 60.7667C55.8372 60.7667 56.1024 60.4391 56.1024 61.6175C56.1024 62.7959 55.998 63.7283 56.2464 63.7283C56.4948 63.7283 58.974 63.6599 58.974 63.6599C58.974 63.6599 59.172 63.4823 59.1348 62.9399C59.0976 62.3975 59.1396 60.9599 59.1396 60.9599Z" fill="black"/>
<path d="M99.1963 113.721V114.267H20.8032V113.721H99.1963Z" fill="black"/>
<path d="M73.7088 22.3729C74.4895 22.3729 75.1224 21.74 75.1224 20.9593C75.1224 20.1785 74.4895 19.5457 73.7088 19.5457C72.9281 19.5457 72.2952 20.1785 72.2952 20.9593C72.2952 21.74 72.9281 22.3729 73.7088 22.3729Z" fill="#D7E8F0"/>
<path d="M70.1292 26.718C70.1292 25.7687 70.5063 24.8582 71.1776 24.1869C71.8489 23.5156 72.7594 23.1384 73.7088 23.1384C74.6581 23.1384 75.5686 23.5156 76.2399 24.1869C76.9112 24.8582 77.2884 25.7687 77.2884 26.718H70.1292Z" fill="#D7E8F0"/>
<path d="M78.2454 19.4393C78.2454 18.9736 77.8683 18.5957 77.4027 18.5955H70.0157C69.5499 18.5955 69.1719 18.9735 69.1719 19.4393V26.8263C69.1721 27.2919 69.5501 27.669 70.0157 27.669H77.4027C77.8682 27.6688 78.2452 27.2918 78.2454 26.8263V19.4393ZM78.7909 26.8263C78.7907 27.593 78.1694 28.2143 77.4027 28.2145H70.0157C69.2488 28.2145 68.6267 27.5931 68.6265 26.8263V19.4393C68.6265 18.6723 69.2487 18.05 70.0157 18.05H77.4027C78.1696 18.0502 78.7909 18.6724 78.7909 19.4393V26.8263Z" fill="#CCDDE2"/>
<path d="M74.058 90.9L75.1044 93.0204C75.1325 93.0769 75.174 93.1258 75.2252 93.1628C75.2764 93.1998 75.3358 93.2238 75.3984 93.2328L77.7372 93.5724C77.8091 93.5829 77.8766 93.6134 77.9322 93.6602C77.9877 93.7071 78.0291 93.7686 78.0515 93.8377C78.074 93.9069 78.0767 93.9809 78.0593 94.0515C78.0419 94.1221 78.0052 94.1864 77.9532 94.2372L76.26 95.8872C76.2149 95.9315 76.1812 95.9861 76.1618 96.0463C76.1424 96.1065 76.1378 96.1704 76.1484 96.2328L76.548 98.562C76.5603 98.6336 76.5523 98.7073 76.525 98.7747C76.4976 98.8421 76.452 98.9005 76.3932 98.9433C76.3344 98.9861 76.2648 99.0116 76.1923 99.017C76.1198 99.0223 76.0472 99.0073 75.9828 98.9736L73.89 97.8732C73.8345 97.8441 73.7727 97.8288 73.71 97.8288C73.6473 97.8288 73.5855 97.8441 73.53 97.8732L71.4372 98.9736C71.3728 99.0073 71.3002 99.0223 71.2277 99.017C71.1551 99.0116 71.0855 98.9861 71.0268 98.9433C70.968 98.9005 70.9223 98.8421 70.895 98.7747C70.8676 98.7073 70.8597 98.6336 70.872 98.562L71.2716 96.2328C71.2825 96.1704 71.2781 96.1064 71.2586 96.0461C71.2392 95.9859 71.2053 95.9313 71.16 95.8872L69.4668 94.2372C69.4148 94.1864 69.378 94.1221 69.3607 94.0515C69.3433 93.9809 69.346 93.9069 69.3685 93.8377C69.3909 93.7686 69.4322 93.7071 69.4878 93.6602C69.5433 93.6134 69.6109 93.5829 69.6828 93.5724L72.0228 93.2328C72.0852 93.2238 72.1445 93.1998 72.1955 93.1628C72.2465 93.1258 72.2877 93.0769 72.3156 93.0204L73.362 90.9C73.3945 90.8356 73.4443 90.7816 73.5057 90.7438C73.5672 90.706 73.6379 90.686 73.71 90.686C73.7821 90.686 73.8528 90.706 73.9142 90.7438C73.9757 90.7816 74.0254 90.8356 74.058 90.9Z" fill="#D7E8F0"/>
<path d="M66.1764 95.9553V96.5008H58.23V95.9553H66.1764Z" fill="#CCDDE2"/>
</svg>
