<svg width="16" height="16" viewBox="0 0 16 16" fill="none" xmlns="http://www.w3.org/2000/svg">
<path d="M14.1668 12.8334V3.16675H1.8335V12.8334H14.1668Z" fill="inherit"/>
<path d="M14.1668 3.16675H14.9168V2.41675H14.1668V3.16675ZM14.1668 12.8334V13.5834H14.9168V12.8334H14.1668ZM1.8335 12.8334H1.0835V13.5834H1.8335V12.8334ZM1.8335 3.16675V2.41675H1.0835V3.16675H1.8335ZM8.00016 8.66675L7.52523 9.24722L8.00016 9.63579L8.47509 9.24722L8.00016 8.66675ZM2.47509 3.17719L1.89462 2.70226L0.944766 3.8632L1.52523 4.33812L2.00016 3.75766L2.47509 3.17719ZM14.4751 4.33812L15.0556 3.8632L14.1057 2.70226L13.5252 3.17719L14.0002 3.75766L14.4751 4.33812ZM14.1668 3.16675H13.4168V12.8334H14.1668H14.9168V3.16675H14.1668ZM14.1668 12.8334V12.0834H1.8335V12.8334V13.5834H14.1668V12.8334ZM1.8335 12.8334H2.5835V3.16675H1.8335H1.0835V12.8334H1.8335ZM1.8335 3.16675V3.91675H14.1668V3.16675V2.41675H1.8335V3.16675ZM8.00016 8.66675L8.47509 8.08628L2.47509 3.17719L2.00016 3.75766L1.52523 4.33812L7.52523 9.24722L8.00016 8.66675ZM14.0002 3.75766L13.5252 3.17719L7.52523 8.08628L8.00016 8.66675L8.47509 9.24722L14.4751 4.33812L14.0002 3.75766Z" fill="#113C7B"/>
</svg>
