<svg viewBox="0 0 321 169" fill="none" xmlns="http://www.w3.org/2000/svg">
<g clip-path="url(#clip0_43319_13349)">
<path d="M162.857 114.489V1.52686H56.6997V26.028V114.489H162.857Z" fill="white"/>
<path d="M162.857 115.024H56.6999C56.4042 115.024 56.1646 114.785 56.1646 114.489V1.52672C56.1646 1.23148 56.4042 0.992188 56.6999 0.992188H162.857C163.153 0.992188 163.392 1.23148 163.392 1.52672V114.489C163.392 114.785 163.153 115.024 162.857 115.024ZM57.2353 113.955H162.322V2.06125H57.2353V113.955Z" fill="#222433"/>
<path d="M162.857 14.6477H56.6999C56.4042 14.6477 56.1646 14.4084 56.1646 14.1131C56.1646 13.8179 56.4042 13.5786 56.6999 13.5786H162.857C163.153 13.5786 163.392 13.8179 163.392 14.1131C163.392 14.4084 163.153 14.6477 162.857 14.6477Z" fill="#222433"/>
<path d="M62.3247 9.92066C63.4867 9.92066 64.4287 8.98014 64.4287 7.81995C64.4287 6.65976 63.4867 5.71924 62.3247 5.71924C61.1627 5.71924 60.2207 6.65976 60.2207 7.81995C60.2207 8.98014 61.1627 9.92066 62.3247 9.92066Z" fill="#0782D0"/>
<path d="M68.2139 9.92066C69.3759 9.92066 70.3179 8.98014 70.3179 7.81995C70.3179 6.65976 69.3759 5.71924 68.2139 5.71924C67.0519 5.71924 66.1099 6.65976 66.1099 7.81995C66.1099 8.98014 67.0519 9.92066 68.2139 9.92066Z" fill="#0782D0"/>
<path d="M74.103 9.92066C75.265 9.92066 76.207 8.98014 76.207 7.81995C76.207 6.65976 75.265 5.71924 74.103 5.71924C72.941 5.71924 71.999 6.65976 71.999 7.81995C71.999 8.98014 72.941 9.92066 74.103 9.92066Z" fill="#0782D0"/>
</g>
<g clip-path="url(#clip1_43319_13349)">
<path d="M116.363 69.6276L116.363 88.0273L150.82 88.0273L150.82 69.6276L116.363 69.6276Z" fill="white"/>
<path d="M151.282 69.6275L151.282 88.0272C151.282 88.1496 151.233 88.267 151.146 88.3536C151.06 88.4401 150.943 88.4888 150.82 88.4888L116.363 88.4888C116.241 88.4888 116.124 88.4401 116.037 88.3536C115.95 88.267 115.902 88.1496 115.902 88.0272L115.902 69.6275C115.902 69.5051 115.95 69.3877 116.037 69.3012C116.124 69.2146 116.241 69.166 116.363 69.166L150.82 69.166C150.943 69.166 151.06 69.2146 151.146 69.3012C151.233 69.3877 151.282 69.5051 151.282 69.6275V69.6275ZM150.359 87.5657L150.359 70.089L116.825 70.089L116.825 87.5657L150.359 87.5657Z" fill="#222433"/>
</g>
<g clip-path="url(#clip2_43319_13349)">
<path d="M138.908 96.4992H123.104C122.809 96.4992 122.569 96.2596 122.569 95.9639C122.569 95.6683 122.809 95.4287 123.104 95.4287H138.908C139.204 95.4287 139.443 95.6683 139.443 95.9639C139.443 96.2596 139.204 96.4992 138.908 96.4992Z" fill="#222433"/>
<path d="M138.908 100.454H123.104C122.809 100.454 122.569 100.215 122.569 99.919C122.569 99.6234 122.809 99.3838 123.104 99.3838H138.908C139.204 99.3838 139.443 99.6234 139.443 99.919C139.443 100.215 139.204 100.454 138.908 100.454Z" fill="#222433"/>
<path d="M138.908 104.41H123.104C122.809 104.41 122.569 104.17 122.569 103.875C122.569 103.579 122.809 103.339 123.104 103.339H138.908C139.204 103.339 139.443 103.579 139.443 103.875C139.443 104.17 139.204 104.41 138.908 104.41Z" fill="#222433"/>
</g>
<g clip-path="url(#clip3_43319_13349)">
<path d="M188.345 24.9629L184.806 28.0259L186.635 29.8842" fill="white"/>
<path d="M186.635 30.4244C186.495 30.4244 186.355 30.3704 186.249 30.2629L184.42 28.4045C184.316 28.2981 184.26 28.1533 184.266 28.0044C184.272 27.8555 184.339 27.7156 184.452 27.6178L187.99 24.5548C188.216 24.3595 188.558 24.3838 188.753 24.6092C188.949 24.8347 188.925 25.1759 188.699 25.3713L185.596 28.0576L187.021 29.5057C187.23 29.7185 187.227 30.0605 187.014 30.2695C186.909 30.3729 186.772 30.4244 186.635 30.4244Z" fill="#222433"/>
<path d="M194.653 47.3264C194.653 47.3264 194.38 42.437 194.36 42.4303C188.547 40.4823 185.416 34.1981 187.367 28.3943C187.633 27.6038 187.987 26.8545 188.415 26.1546C188.415 26.1519 188.415 26.1492 188.415 26.1465C188.5 25.3231 188.676 24.5113 188.94 23.7264C189.093 23.2786 189.291 22.0249 190.439 20.8057L202.135 27.4189L205.742 34.0814L206.164 47.0739L194.653 47.3264Z" fill="white"/>
<path d="M194.653 47.8663C194.366 47.8663 194.129 47.643 194.113 47.3562C194.028 45.8351 193.902 43.645 193.848 42.8226C191.056 41.7922 188.799 39.7711 187.468 37.0984C186.082 34.3181 185.865 31.1656 186.854 28.2219C187.115 27.4474 187.463 26.6929 187.89 25.9773C187.984 25.1475 188.164 24.3363 188.427 23.5539C188.449 23.4887 188.471 23.4083 188.498 23.313C188.668 22.7002 188.986 21.5593 190.044 20.435C190.215 20.2535 190.488 20.212 190.705 20.3348L202.402 26.9481C202.49 26.9981 202.563 27.0719 202.611 27.1613L206.218 33.8238C206.258 33.8975 206.28 33.9794 206.283 34.0631L206.704 47.0556C206.709 47.1999 206.656 47.3398 206.556 47.4446C206.457 47.5494 206.32 47.6101 206.175 47.6131L194.665 47.8659C194.661 47.8663 194.657 47.8663 194.653 47.8663ZM190.557 21.4929C189.899 22.3142 189.678 23.1066 189.54 23.6029C189.507 23.7218 189.479 23.8221 189.452 23.9004C189.202 24.6441 189.034 25.4191 188.953 26.2017C188.945 26.2816 188.918 26.367 188.876 26.4356C188.463 27.1134 188.127 27.8302 187.88 28.5662C186.982 31.2364 187.18 34.0959 188.436 36.6178C189.692 39.1396 191.857 41.0221 194.532 41.9183C194.878 42.0339 194.898 42.3243 194.918 42.6051C194.927 42.7405 194.94 42.9335 194.954 43.1649C194.982 43.6248 195.019 44.2374 195.054 44.8498C195.096 45.5775 195.137 46.3047 195.164 46.7749L205.605 46.5457L205.206 34.2261L201.733 27.8122L190.557 21.4929Z" fill="#222433"/>
<path d="M169.444 146.165L171.58 155.624C171.239 156.736 170.737 157.097 170.737 157.097C165.507 158.45 162.315 161.857 162.732 167.277H186.072L193.057 151.857L197.007 160.141L207.263 155.129L196.779 133.787" fill="#113C7B"/>
<path d="M155.966 116.012L159.573 101.787L184.979 105.075L189.461 115.618L197.115 133.622L168.365 146.844L160.475 127.176L155.966 116.012Z" fill="white"/>
<path d="M168.365 147.385C168.298 147.385 168.23 147.372 168.165 147.346C168.027 147.292 167.918 147.183 167.863 147.045L159.972 127.378L155.464 116.214C155.421 116.108 155.413 115.991 155.441 115.88L159.048 101.654C159.116 101.389 159.371 101.216 159.642 101.251L185.049 104.539C185.239 104.564 185.402 104.688 185.477 104.864L197.613 133.411C197.727 133.68 197.607 133.991 197.341 134.113L168.592 147.335C168.52 147.368 168.443 147.385 168.365 147.385ZM156.534 115.974L160.976 126.974L168.656 146.116L196.412 133.35L184.602 105.571L159.979 102.384L156.534 115.974Z" fill="#222433"/>
<path d="M203.172 16.238C200.4 15.3047 197.402 15.4468 194.729 16.6392C191.445 18.1156 190.033 20.4303 189.974 20.5281L189.923 20.6142L189.905 20.713C189.874 20.8951 189.146 25.2151 190.369 28.9141C190.369 28.9141 192.245 26.7108 193.142 26.5685C196.674 26.0085 199.429 27.97 199.278 31.2449C199.158 33.8491 195.955 35.4315 195.955 35.4315C199.269 37.8581 202.62 39.1696 204.321 39.735C204.597 39.8272 204.878 39.8717 205.157 39.8717C205.973 39.8717 206.759 39.4888 207.262 38.8026C208.325 37.3601 210.207 34.2366 210.883 29.5249C211.836 22.8528 209.17 18.2583 203.172 16.238Z" fill="#9AE2E0"/>
<path d="M212.272 53.5557L230.022 84.9215C232.168 89.4935 230.195 94.9362 225.616 97.0785C225.406 97.1766 225.192 97.2669 224.975 97.349L213.497 101.247" fill="white"/>
<path d="M213.497 101.787C213.272 101.787 213.062 101.645 212.985 101.42C212.889 101.138 213.04 100.831 213.323 100.735L224.792 96.8404C224.993 96.7644 225.193 96.6798 225.387 96.589C229.682 94.5797 231.543 89.4601 229.541 85.1689L211.802 53.8212C211.655 53.5614 211.746 53.2319 212.006 53.0851C212.266 52.9383 212.597 53.03 212.744 53.2897L230.494 84.6557C230.5 84.6676 230.507 84.6798 230.513 84.6922C232.781 89.5266 230.688 95.3025 225.846 97.5675C225.624 97.6711 225.396 97.7674 225.167 97.854C225.162 97.8562 225.156 97.8584 225.15 97.8603L213.671 101.758C213.614 101.778 213.555 101.787 213.497 101.787Z" fill="#222433"/>
<path d="M129.012 143.119C126.483 153.304 119.443 155.68 119.443 155.68C114.219 157.008 110.723 161.914 111.179 167.277H130.837L147.193 158.106L147.095 167.277H158.515L158.499 145.915" fill="#113C7B"/>
<path d="M208.897 50.3237C212.869 52.9522 214.937 57.5432 215.217 61.4923C215.321 62.9649 215.324 64.2215 215.311 65.3415L213.136 101.787L213.066 102.603C213.372 112.679 203.502 121.518 192.501 118.005L190.773 117.453L162.818 104.845L159.243 145.986L127.735 142.998L133.506 82.2591C133.682 80.4055 134.865 74.5965 146.588 72.7958L183.379 71.8955L193.117 50.6473" fill="white"/>
<path d="M159.244 146.526C159.227 146.526 159.209 146.525 159.192 146.524L127.684 143.536C127.386 143.508 127.168 143.244 127.196 142.947L132.967 82.2083C133.251 79.2267 135.387 73.9698 146.505 72.262C146.528 72.2584 146.551 72.2564 146.574 72.2559L183.028 71.3638L192.626 50.4227C192.75 50.1515 193.071 50.0321 193.343 50.1564C193.614 50.2804 193.734 50.6011 193.609 50.8723L183.871 72.1205C183.785 72.3083 183.599 72.4307 183.392 72.4358L146.636 73.3352C136.272 74.9367 134.298 79.6448 134.045 82.3106L128.325 142.512L158.752 145.396L162.279 104.798C162.294 104.624 162.393 104.468 162.544 104.379C162.696 104.29 162.881 104.281 163.041 104.353L190.968 116.948L192.666 117.49C197.436 119.013 202.423 118.193 206.349 115.239C210.364 112.218 212.673 107.5 212.525 102.619C212.525 102.598 212.525 102.577 212.527 102.556L212.597 101.741L214.771 65.3225C214.784 64.2172 214.781 62.9928 214.677 61.5306C214.436 58.1156 212.712 53.4965 208.598 50.7742C208.349 50.6094 208.281 50.2741 208.446 50.0255C208.611 49.7768 208.947 49.7089 209.196 49.8737C213.637 52.8126 215.497 57.783 215.757 61.4544C215.864 62.9652 215.865 64.2704 215.852 65.3479C215.852 65.3565 215.852 65.3652 215.852 65.3736L213.676 101.819L213.608 102.618C213.756 107.838 211.287 112.876 207 116.102C202.79 119.27 197.445 120.151 192.337 118.52L190.608 117.968C190.588 117.961 190.569 117.954 190.55 117.946L163.291 105.651L159.783 146.032C159.77 146.176 159.701 146.308 159.59 146.401C159.492 146.482 159.37 146.526 159.244 146.526ZM215.311 65.3414H215.313H215.311Z" fill="#222433"/>
<path d="M201.455 16.3525C201.41 15.9677 201.387 15.5764 201.387 15.1797C201.387 9.59863 205.919 5.07422 211.508 5.07422C217.098 5.07422 221.629 9.59863 221.629 15.1797C221.629 20.7607 217.098 25.2852 211.508 25.2852C211.126 25.2852 210.748 25.2639 210.376 25.2227" fill="#9AE2E0"/>
<path d="M195.365 32.7008C195.28 32.7008 195.193 32.6804 195.112 32.6374L192.888 31.4562C192.708 31.3607 192.598 31.1729 192.601 30.97C192.605 30.767 192.722 30.583 192.905 30.4939L196.039 28.9651C196.308 28.8342 196.632 28.9453 196.763 29.2134C196.894 29.4815 196.783 29.8049 196.514 29.9358L194.333 30.9997L195.62 31.6834C195.884 31.8235 195.984 32.1507 195.843 32.4141C195.746 32.5967 195.559 32.7008 195.365 32.7008Z" fill="#222433"/>
<path d="M214.067 38.1105C213.556 38.1105 213.147 37.9466 212.849 37.7624C209.75 35.8472 209.789 26.2551 209.804 25.1677C209.807 24.9525 209.937 24.7596 210.136 24.6766C210.335 24.5936 210.564 24.6363 210.719 24.7854C211.005 25.0593 217.71 31.5401 217.135 35.4815C216.989 36.481 216.42 37.2424 215.443 37.7447C214.926 38.0111 214.465 38.1105 214.067 38.1105ZM210.896 26.4998C210.98 29.8372 211.519 35.6696 213.419 36.8437C213.694 37.014 214.153 37.193 214.948 36.7841C215.605 36.4461 215.97 35.9689 216.064 35.3255C216.417 32.905 213.024 28.7422 210.896 26.4998Z" fill="#222433"/>
<path d="M206.122 37.8391C205.778 37.8391 205.421 37.7802 205.051 37.6625C203.783 37.2593 203.346 36.4528 203.203 35.847C202.366 32.3076 209.187 25.5469 209.967 24.7875C210.122 24.6374 210.351 24.5931 210.55 24.6746C210.75 24.7562 210.881 24.9483 210.886 25.1635C210.894 25.5588 211.047 34.8691 207.85 37.2528C207.326 37.6434 206.747 37.8391 206.122 37.8391ZM209.796 26.5014C207.492 28.9228 203.743 33.4296 204.256 35.5989C204.33 35.9131 204.528 36.3624 205.379 36.633C206.083 36.857 206.68 36.7767 207.202 36.3874C209.164 34.9247 209.713 29.5884 209.796 26.5014Z" fill="#222433"/>
<path d="M152.645 78.0398C152.34 77.8884 152.038 77.7119 151.741 77.5094C151.667 77.4571 151.593 77.4067 151.523 77.3545C149.122 75.606 146.41 74.2447 142.337 75.7573C139.466 76.8251 135.331 78.8653 134.415 76.1174C133.78 74.2123 138.518 71.6283 141.943 69.5989C136.244 70.1859 128.777 70.9422 128.366 68.3889C127.955 65.8355 133.322 64.7875 140.713 64.0672C132.472 63.4207 128.038 64.2167 127.928 61.7155C127.747 57.5901 144.7 57.9178 150.529 59.5997C150.529 59.5997 151.925 59.9598 157.021 61.024C158.32 61.2981 159.391 61.7755 160.269 62.3882" fill="white"/>
<path d="M152.645 78.58C152.564 78.58 152.481 78.5618 152.404 78.5232C152.075 78.3596 151.749 78.1685 151.436 77.9553L151.365 77.9056C151.309 77.8663 151.254 77.8275 151.2 77.7878C148.611 75.9022 146.143 74.9199 142.526 76.2634C142.187 76.3894 141.83 76.5295 141.463 76.6734C139.261 77.5359 136.765 78.5137 135.163 77.765C134.559 77.4826 134.134 76.9856 133.902 76.2879C133.261 74.3636 136.253 72.3487 139.561 70.376C133.031 70.9794 128.241 71.0118 127.832 68.4743C127.734 67.8664 127.881 67.3035 128.27 66.8011C129.11 65.7124 131.067 64.9244 134.662 64.2985C132.498 64.2234 130.787 64.1608 129.604 63.887C129.073 63.7644 127.46 63.3913 127.388 61.739C127.366 61.2546 127.515 60.5405 128.345 59.8892C131.903 57.0945 145.682 57.6385 150.68 59.0807C150.68 59.0807 152.123 59.4491 157.133 60.4953C158.435 60.7702 159.594 61.258 160.58 61.9455C160.824 62.1164 160.884 62.4532 160.713 62.6977C160.542 62.9422 160.205 63.002 159.96 62.8311C159.094 62.2272 158.068 61.797 156.91 61.5526C151.86 60.4982 150.451 60.1377 150.394 60.1227C145.116 58.6002 132.084 58.3271 129.014 60.7384C128.632 61.0382 128.454 61.3501 128.469 61.6918C128.524 62.952 130.449 63.0715 134.799 63.2222C136.522 63.2818 138.474 63.3495 140.755 63.5285C141.035 63.5505 141.251 63.7821 141.254 64.0621C141.257 64.3421 141.045 64.5776 140.766 64.6048C136.017 65.0676 130.402 65.8105 129.127 67.4612C128.923 67.7254 128.851 67.9928 128.901 68.3031C129.233 70.365 137.465 69.5171 141.888 69.0615C142.14 69.0352 142.377 69.1885 142.457 69.4294C142.536 69.6703 142.438 69.9339 142.219 70.0634C141.943 70.2269 141.659 70.3942 141.369 70.5644C138.794 72.0773 134.483 74.6096 134.929 75.947C135.068 76.3638 135.288 76.6307 135.622 76.7866C136.803 77.3386 139.168 76.4123 141.068 75.6679C141.441 75.5215 141.804 75.3794 142.149 75.2512C146.459 73.6504 149.355 75.1064 151.842 76.9183C151.892 76.9548 151.939 76.9878 151.986 77.0211L152.054 77.0686C152.319 77.2489 152.601 77.4147 152.887 77.5566C153.154 77.6895 153.263 78.0138 153.13 78.2809C153.035 78.4701 152.844 78.58 152.645 78.58Z" fill="#222433"/>
<path d="M206.453 65.8349L195.831 87.571C194.12 91.0721 190.598 93.1337 186.912 93.1337C185.639 93.1337 184.348 92.8881 183.104 92.3709L156.96 81.5021C151.903 79.3995 149.51 73.6018 151.616 68.5523C153.722 63.5028 159.529 61.1135 164.586 63.2163L182.101 70.498C182.101 70.498 182.044 70.4724 188.068 57.1961C189.275 54.5363 191.151 52.067 193.104 50.6758" fill="white"/>
<path d="M186.912 93.6738C185.531 93.6738 184.18 93.4031 182.896 92.8694L156.752 82.0006C151.428 79.7868 148.9 73.6607 151.117 68.3444C152.191 65.769 154.205 63.7652 156.788 62.7024C159.372 61.6397 162.215 61.6449 164.794 62.7174L181.81 69.7914C181.931 69.5083 182.104 69.1165 182.35 68.5637C183.027 67.0365 184.484 63.7859 187.575 56.9728C188.845 54.176 190.794 51.6574 192.79 50.2357C193.033 50.0625 193.371 50.1189 193.545 50.3618C193.718 50.6047 193.662 50.942 193.419 51.1152C191.571 52.4311 189.755 54.7875 188.561 57.4187C183.201 69.2305 182.669 70.525 182.617 70.659C182.612 70.677 182.605 70.6948 182.597 70.7124C182.48 70.9834 182.166 71.1099 181.893 70.9964L164.378 63.7148C162.066 62.7532 159.516 62.7485 157.2 63.7015C154.884 64.6544 153.079 66.4508 152.115 68.7598C150.128 73.5262 152.394 79.0185 157.168 81.0032L183.312 91.872C184.463 92.3506 185.674 92.5933 186.912 92.5933C190.473 92.5933 193.783 90.529 195.345 87.3341L205.967 65.5979C206.098 65.3298 206.422 65.2185 206.691 65.3493C206.959 65.4802 207.071 65.8036 206.94 66.0717L196.317 87.8078C194.576 91.3714 190.884 93.6738 186.912 93.6738Z" fill="#222433"/>
<path d="M162.818 105.385C162.742 105.385 162.665 105.369 162.592 105.335L160.248 104.258C159.977 104.133 159.858 103.812 159.983 103.541C160.108 103.27 160.43 103.152 160.701 103.277L163.044 104.354C163.316 104.479 163.434 104.8 163.309 105.071C163.218 105.268 163.022 105.385 162.818 105.385Z" fill="#222433"/>
<path d="M193.047 47.3612L208.517 47.0214C209.44 47.0011 210.205 47.7318 210.226 48.6536C210.246 49.5751 209.514 50.3388 208.591 50.3592L193.121 50.699C192.198 50.7193 191.433 49.9886 191.413 49.0668C191.392 48.145 192.124 47.3815 193.047 47.3612Z" fill="white"/>
<path d="M193.083 51.2397C191.885 51.2397 190.898 50.2805 190.872 49.0789C190.845 47.8609 191.815 46.8482 193.035 46.8214L208.505 46.4816C209.725 46.4531 210.739 47.4239 210.766 48.6419C210.793 49.8598 209.823 50.8725 208.603 50.8994L193.133 51.2392C193.116 51.2395 193.1 51.2397 193.083 51.2397ZM193.059 47.9016C192.757 47.9083 192.476 48.032 192.267 48.2497C192.058 48.4675 191.947 48.7535 191.953 49.0551C191.967 49.6774 192.486 50.1723 193.109 50.1591L208.579 49.8193C209.202 49.8056 209.698 49.2881 209.684 48.6658C209.671 48.0435 209.152 47.5494 208.529 47.5618L193.059 47.9016ZM193.047 47.3614H193.049H193.047Z" fill="#222433"/>
<path d="M196.156 35.5857C195.936 35.5857 195.728 35.4506 195.648 35.2324C195.544 34.9525 195.688 34.6419 195.968 34.5386C197.481 33.9813 198.497 32.5245 198.497 30.9136C198.497 28.7837 196.762 27.0511 194.629 27.0511C193.218 27.0511 191.918 27.8188 191.237 29.0547C191.093 29.3162 190.764 29.4115 190.502 29.2676C190.24 29.1237 190.145 28.7953 190.289 28.5338C191.16 26.9528 192.823 25.9707 194.629 25.9707C197.358 25.9707 199.579 28.1881 199.579 30.9136C199.579 32.9748 198.278 34.8389 196.343 35.5522C196.281 35.5749 196.218 35.5857 196.156 35.5857Z" fill="#222433"/>
</g>
<g clip-path="url(#clip4_43319_13349)">
<path d="M305.445 158.172L299.234 137.251C298.45 134.613 296.937 132.252 294.871 130.444C292.805 128.637 290.271 127.455 287.564 127.038V126.975C286.979 126.903 286.39 126.867 285.8 126.868H270.965C267.85 126.868 264.818 127.879 262.32 129.749C259.823 131.62 257.992 134.251 257.101 137.251L250.891 158.172C250.569 159.252 250.503 160.394 250.698 161.505C250.893 162.616 251.344 163.666 252.014 164.57C252.684 165.475 253.556 166.21 254.559 166.716C255.562 167.222 256.669 167.486 257.791 167.485H298.544C299.666 167.486 300.773 167.222 301.776 166.716C302.78 166.21 303.651 165.475 304.321 164.57C304.992 163.666 305.442 162.616 305.637 161.505C305.832 160.394 305.766 159.252 305.445 158.172V158.172Z" fill="white"/>
<path d="M298.545 168.076H257.79C256.577 168.076 255.38 167.791 254.295 167.243C253.21 166.696 252.268 165.901 251.543 164.923C250.818 163.944 250.331 162.809 250.12 161.608C249.91 160.406 249.981 159.172 250.329 158.003L256.539 137.082C257.466 133.961 259.371 131.223 261.97 129.277C264.569 127.33 267.724 126.279 270.965 126.278H285.8C286.413 126.28 287.026 126.317 287.635 126.39C287.733 126.401 287.826 126.438 287.907 126.496C290.67 126.979 293.246 128.224 295.346 130.094C297.446 131.963 298.987 134.383 299.797 137.082L306.007 158.004C306.355 159.172 306.426 160.407 306.215 161.608C306.004 162.809 305.517 163.944 304.792 164.923C304.067 165.901 303.125 166.696 302.04 167.243C300.956 167.791 299.759 168.076 298.545 168.076V168.076ZM257.791 166.897H298.545C299.576 166.897 300.593 166.654 301.514 166.189C302.435 165.724 303.236 165.05 303.851 164.218C304.467 163.387 304.881 162.423 305.06 161.403C305.239 160.382 305.178 159.334 304.883 158.341V158.341L298.672 137.42C297.914 134.892 296.461 132.631 294.48 130.897C292.499 129.163 290.07 128.028 287.475 127.621C287.393 127.608 287.314 127.578 287.244 127.532C286.767 127.483 286.287 127.458 285.807 127.458H270.965C267.98 127.472 265.077 128.447 262.684 130.24C260.29 132.032 258.531 134.549 257.663 137.42L251.453 158.341C251.157 159.334 251.097 160.382 251.276 161.402C251.455 162.423 251.869 163.387 252.484 164.218C253.1 165.049 253.9 165.724 254.822 166.189C255.743 166.654 256.76 166.897 257.79 166.897H257.791Z" fill="#222433"/>
<path d="M283.774 161.72H272.682C271.684 161.724 270.714 161.385 269.932 160.76C269.151 160.136 268.605 159.262 268.384 158.283L266.943 152.018C266.679 150.873 266.877 149.669 267.495 148.671C268.113 147.673 269.099 146.962 270.238 146.694C270.567 146.616 270.904 146.577 271.242 146.579H285.214C285.277 146.579 285.35 146.582 285.433 146.588C286.059 146.638 286.667 146.822 287.216 147.128C287.765 147.433 288.243 147.854 288.617 148.361C289 148.878 289.269 149.471 289.404 150.101C289.54 150.731 289.54 151.383 289.404 152.013L287.982 158.607C287.977 158.627 287.972 158.646 287.966 158.666C287.678 159.555 287.117 160.329 286.364 160.878C285.611 161.426 284.704 161.721 283.774 161.72ZM271.24 147.758C270.752 147.758 270.271 147.869 269.832 148.082C269.393 148.295 269.007 148.605 268.704 148.989C268.401 149.373 268.188 149.821 268.081 150.299C267.974 150.778 267.976 151.274 268.087 151.751L269.528 158.018C269.69 158.736 270.091 159.377 270.665 159.836C271.238 160.294 271.949 160.543 272.682 160.541H283.773C284.451 160.542 285.112 160.328 285.663 159.931C286.213 159.534 286.626 158.972 286.842 158.326L288.257 151.763C288.358 151.298 288.358 150.816 288.257 150.351C288.157 149.885 287.959 149.447 287.676 149.065C287.402 148.693 287.052 148.385 286.649 148.16C286.247 147.936 285.801 147.801 285.342 147.764C285.294 147.76 285.251 147.758 285.214 147.758H271.24H271.24Z" fill="#222433"/>
<path d="M287.265 140.571H269.07C268.915 140.571 268.766 140.509 268.656 140.398C268.546 140.288 268.484 140.138 268.484 139.981C268.484 139.825 268.546 139.675 268.656 139.564C268.766 139.454 268.915 139.392 269.07 139.392H287.265C287.421 139.392 287.57 139.454 287.68 139.564C287.79 139.675 287.852 139.825 287.852 139.981C287.852 140.138 287.79 140.288 287.68 140.398C287.57 140.509 287.421 140.571 287.265 140.571V140.571Z" fill="#222433"/>
<path d="M269.086 137.791C268.93 137.791 268.781 137.729 268.671 137.619C268.561 137.508 268.499 137.358 268.499 137.202V126.608C268.499 126.58 268.501 126.551 268.505 126.523C268.517 126.438 269.842 118 278.268 118C286.297 118 287.814 126.477 287.828 126.562C287.834 126.596 287.837 126.631 287.836 126.665L287.748 137.197C287.746 137.353 287.684 137.501 287.574 137.611C287.464 137.72 287.316 137.782 287.161 137.782L269.086 137.792V137.791ZM269.672 126.654V136.612L286.579 136.603L286.663 126.711C286.532 126.008 285.081 119.179 278.268 119.179C271.068 119.179 269.779 126.001 269.672 126.655V126.654Z" fill="#222433"/>
</g>
<g clip-path="url(#clip5_43319_13349)">
<path d="M184.154 119.68C181.394 119.68 179.157 117.439 179.158 114.677V103.409C179.158 103.409 179.158 103.408 179.158 103.408C179.159 99.3658 182.434 96.0898 186.473 96.0909H209.766H209.766L215.165 74.8638C215.959 71.7405 218.77 69.5546 221.99 69.5557H240.095C242.535 69.5555 244.513 71.5344 244.513 73.9757C244.513 74.3436 244.467 74.7103 244.376 75.0669L233.767 116.78C233.332 118.486 231.797 119.68 230.037 119.68" fill="white"/>
<path d="M230.038 120.206C229.748 120.206 229.513 119.971 229.512 119.681C229.512 119.39 229.747 119.155 230.037 119.155C231.558 119.155 232.882 118.125 233.258 116.65L243.867 74.9373C243.947 74.6233 243.988 74.2997 243.988 73.9757C243.988 71.8281 242.242 70.081 240.095 70.081H221.99C221.99 70.081 221.989 70.081 221.988 70.081C219.006 70.081 216.409 72.1006 215.674 74.9933L210.275 96.2205C210.216 96.4532 210.006 96.6163 209.766 96.6163H186.473C186.473 96.6163 186.472 96.6163 186.472 96.6163C184.659 96.6163 182.954 97.3224 181.672 98.6048C180.39 99.8875 179.683 101.593 179.683 103.408V114.677C179.682 117.146 181.688 119.154 184.155 119.155C184.445 119.155 184.68 119.39 184.679 119.681C184.679 119.971 184.438 120.201 184.154 120.206C181.109 120.205 178.632 117.724 178.633 114.677V103.409C178.633 101.312 179.449 99.3428 180.93 97.8616C182.41 96.3809 184.378 95.5655 186.471 95.5655C186.472 95.5655 186.473 95.5655 186.473 95.5655H209.357L214.656 74.7342C215.51 71.3756 218.525 69.0303 221.988 69.0303C221.989 69.0303 221.99 69.0303 221.991 69.0303H240.095C242.82 69.0301 245.038 71.2486 245.038 73.9757C245.038 74.3872 244.986 74.7979 244.885 75.1967L234.276 116.91C233.781 118.85 232.038 120.205 230.038 120.206Z" fill="#222433"/>
<path d="M235.217 168.366C234.927 168.366 234.692 168.131 234.692 167.841V124.516C234.692 122.049 233.793 120.206 232.989 120.206H181.386C180.582 120.206 179.683 122.049 179.683 124.514V167.841C179.683 168.131 179.448 168.366 179.158 168.366C178.868 168.366 178.633 168.131 178.633 167.841V124.514C178.633 121.459 179.817 119.155 181.386 119.155H232.989C234.559 119.155 235.742 121.46 235.742 124.516V167.841C235.742 168.131 235.507 168.366 235.217 168.366Z" fill="#222433"/>
</g>
<g clip-path="url(#clip6_43319_13349)">
<path d="M271.436 45.8883C283.456 45.8883 293.199 36.1446 293.199 24.1253C293.199 12.1059 283.456 2.3623 271.436 2.3623C259.417 2.3623 249.673 12.1059 249.673 24.1253C249.673 36.1446 259.417 45.8883 271.436 45.8883Z" fill="white"/>
<path d="M271.437 46.4415C259.131 46.4415 249.12 36.4305 249.12 24.1251C249.12 11.8196 259.131 1.80859 271.437 1.80859C283.742 1.80859 293.753 11.8196 293.753 24.1251C293.753 36.4305 283.742 46.4415 271.437 46.4415ZM271.437 2.91556C259.742 2.91556 250.227 12.4301 250.227 24.1251C250.227 35.82 259.742 45.3345 271.437 45.3345C283.131 45.3345 292.646 35.82 292.646 24.1251C292.646 12.4301 283.131 2.91556 271.437 2.91556Z" fill="#222433"/>
<path d="M271.437 24.6783C271.354 24.6783 271.271 24.66 271.195 24.6226C271.004 24.5299 270.883 24.3366 270.883 24.1248V9.57741C270.883 9.2717 271.131 9.02393 271.437 9.02393C271.742 9.02393 271.99 9.2717 271.99 9.57741V22.9863L280.098 16.6179C280.338 16.4292 280.687 16.4709 280.875 16.7113C281.064 16.9517 281.022 17.2996 280.782 17.4883L271.779 24.56C271.679 24.6382 271.559 24.6783 271.437 24.6783Z" fill="#222433"/>
</g>
<g clip-path="url(#clip7_43319_13349)">
<path d="M271.196 73.3843H273.533C274.601 73.3841 275.467 74.2495 275.467 75.3172C275.467 75.6179 275.397 75.9145 275.263 76.1832L272.364 81.9833L269.465 76.1832C268.987 75.2285 269.373 74.0669 270.328 73.5888C270.597 73.454 270.894 73.3839 271.196 73.3843Z" fill="#0782D0"/>
<path d="M279.457 80.4747V82.4031C279.458 83.284 278.745 83.999 277.864 84C277.615 84.0003 277.37 83.9425 277.148 83.8313L272.363 81.4397L277.148 79.0465C277.937 78.6531 278.896 78.9738 279.289 79.7629C279.399 79.9839 279.457 80.2276 279.457 80.4747Z" fill="#0782D0"/>
</g>
<g clip-path="url(#clip8_43319_13349)">
<path d="M19.0126 89.0482C19.1465 88.9338 19.2719 88.8062 19.3857 88.6632L23.6936 83.2455C24.6507 82.0418 24.4535 80.2869 23.2531 79.3257C22.0526 78.3644 20.3038 78.561 19.3466 79.7647L17.4895 82.1L17.1558 79.1311C16.9838 77.6002 15.6077 76.4984 14.0821 76.6698C12.5564 76.8413 11.4592 78.2211 11.6313 79.752L11.965 82.7211L9.63472 80.8552C8.43427 79.894 6.6854 80.0905 5.72827 81.2942C4.77113 82.498 4.96835 84.2528 6.1688 85.2141L11.5718 89.5404C11.7843 89.7106 12.0144 89.8426 12.2538 89.941C6.2209 92.2682 2.27049 98.4551 3.02883 105.203C3.92997 113.221 11.1386 118.993 19.1295 118.095C27.1205 117.197 32.868 109.969 31.9669 101.95C31.1861 95.0031 25.6696 89.7456 19.0126 89.0482Z" fill="#FC8383"/>
<path d="M24.2644 167.27C23.9485 167.306 23.6636 167.078 23.628 166.761L16.5391 103.684C16.5035 103.367 16.7306 103.082 17.0465 103.046C17.3624 103.011 17.6473 103.239 17.6829 103.556L24.7718 166.632C24.8074 166.949 24.5803 167.235 24.2644 167.27Z" fill="#222433"/>
</g>
<g clip-path="url(#clip9_43319_13349)">
<path d="M41.0243 167.277C41.1645 167.277 41.2997 167.225 41.4041 167.131C41.5085 167.037 41.5748 166.908 41.5902 166.768L44.4219 141.171C44.4371 141.021 44.3927 140.871 44.2982 140.753C44.2038 140.636 44.0671 140.56 43.9177 140.544C43.7683 140.527 43.6184 140.57 43.5006 140.664C43.3828 140.758 43.3066 140.895 43.2886 141.045L40.457 166.641C40.4403 166.792 40.484 166.943 40.5784 167.062C40.6729 167.181 40.8103 167.257 40.9606 167.274C40.9817 167.276 41.003 167.277 41.0243 167.277V167.277Z" fill="#222433"/>
<path d="M49.721 141.996C50.4743 141.994 51.2118 141.779 51.8486 141.374C52.4855 140.97 52.9959 140.393 53.3211 139.71C53.6463 139.027 53.7732 138.266 53.6872 137.513C53.6011 136.761 53.3056 136.049 52.8346 135.458C52.5067 135.044 52.1004 134.7 51.6391 134.445C51.1779 134.19 50.6709 134.03 50.1476 133.973L39.0805 132.74C38.0252 132.623 36.9672 132.933 36.1391 133.601C35.3109 134.268 34.7805 135.239 34.6644 136.3C34.5505 137.36 34.8593 138.422 35.5232 139.254C36.187 140.086 37.1518 140.62 38.2063 140.738V140.738L49.2734 141.971C49.422 141.988 49.5714 141.996 49.721 141.996ZM38.6358 133.861C38.7424 133.861 38.849 133.867 38.955 133.879L50.0224 135.113C50.7743 135.199 51.4617 135.581 51.9341 136.175C52.4065 136.769 52.6255 137.528 52.5432 138.284C52.4609 139.04 52.084 139.733 51.4949 140.21C50.9058 140.688 50.1525 140.911 49.3998 140.832L38.3324 139.598C37.7695 139.536 37.2374 139.308 36.8036 138.942C36.3698 138.576 36.0538 138.089 35.8956 137.543C35.7373 136.996 35.744 136.415 35.9147 135.872C36.0854 135.329 36.4124 134.849 36.8545 134.494C37.3589 134.084 37.9876 133.861 38.6358 133.861V133.861ZM50.4948 139.416C50.7998 139.416 51.0955 139.311 51.3321 139.117C51.539 138.95 51.6918 138.725 51.7713 138.47C51.8508 138.216 51.8535 137.943 51.7788 137.687C51.7042 137.431 51.5557 137.203 51.3521 137.032C51.1485 136.861 50.899 136.754 50.6351 136.725V136.725L38.0732 135.325C37.898 135.305 37.7206 135.321 37.5513 135.37C37.382 135.42 37.2241 135.502 37.0867 135.613C36.9492 135.724 36.8349 135.862 36.7503 136.017C36.6656 136.173 36.6124 136.343 36.5936 136.52C36.5555 136.875 36.6592 137.231 36.8819 137.51C37.1046 137.788 37.4281 137.967 37.7815 138.006L50.3434 139.407C50.3936 139.412 50.4442 139.415 50.4948 139.416V139.416ZM50.5095 137.864C50.5639 137.87 50.614 137.897 50.6486 137.94C50.665 137.96 50.6772 137.983 50.6844 138.008C50.6916 138.034 50.6937 138.06 50.6906 138.086C50.6879 138.113 50.6798 138.139 50.667 138.163C50.6541 138.187 50.6367 138.208 50.6157 138.226C50.5956 138.242 50.5722 138.255 50.5472 138.262C50.5221 138.269 50.4958 138.271 50.4699 138.268L37.9081 136.868C37.8816 136.865 37.8558 136.858 37.8323 136.845C37.8088 136.833 37.788 136.816 37.7711 136.795C37.7543 136.774 37.7417 136.75 37.7341 136.725C37.7265 136.699 37.7241 136.672 37.727 136.646C37.7325 136.591 37.7595 136.541 37.8018 136.506C37.8219 136.49 37.8453 136.477 37.8703 136.47C37.8954 136.463 37.9217 136.461 37.9476 136.464L50.5095 137.864Z" fill="#222433"/>
<path d="M36.8238 152.52C37.5939 152.52 38.824 152.173 40.5697 151.465C41.943 150.907 43.1062 150.338 43.1543 150.314C43.2407 150.272 43.315 150.208 43.3705 150.13C43.4259 150.051 43.4607 149.959 43.4715 149.863C43.4823 149.767 43.4688 149.67 43.4323 149.581C43.3958 149.492 43.3374 149.413 43.2627 149.353C42.8311 149.004 38.9994 145.938 37.3428 145.753C36.4493 145.654 35.5532 145.915 34.851 146.479C34.1487 147.043 33.6976 147.864 33.5965 148.762C33.5032 149.657 33.7653 150.552 34.326 151.254C34.8866 151.956 35.7003 152.406 36.5899 152.508V152.508C36.6676 152.516 36.7457 152.521 36.8238 152.52V152.52ZM41.8244 149.676C40.0293 150.499 37.5785 151.464 36.7157 151.368C36.4217 151.335 36.1371 151.244 35.8785 151.1C35.6199 150.955 35.3923 150.761 35.209 150.528C35.0253 150.3 34.8884 150.038 34.8061 149.757C34.7238 149.475 34.6979 149.18 34.7297 148.889C34.7965 148.293 35.096 147.748 35.5623 147.373C36.0287 146.999 36.6238 146.826 37.217 146.892C38.0745 146.988 40.2554 148.475 41.8244 149.676Z" fill="#222433"/>
<path d="M48.8545 153.847C49.6272 153.849 50.3771 153.584 50.9792 153.097C51.3236 152.821 51.6101 152.479 51.8221 152.091C52.034 151.703 52.1671 151.276 52.2137 150.836C52.3115 149.938 52.0515 149.037 51.4905 148.332C50.9296 147.626 50.1133 147.173 49.2205 147.071C48.478 146.988 47.1753 147.329 45.2406 148.114C43.8672 148.672 42.7039 149.241 42.6551 149.265C42.5688 149.307 42.4945 149.37 42.4392 149.449C42.3838 149.528 42.3492 149.62 42.3385 149.716C42.3278 149.812 42.3413 149.909 42.3779 149.998C42.4145 150.087 42.4729 150.166 42.5477 150.226C42.9791 150.575 46.8109 153.641 48.4675 153.826C48.596 153.84 48.7252 153.847 48.8545 153.847ZM48.9651 148.203C49.0084 148.203 49.0516 148.205 49.0947 148.21C49.6874 148.278 50.2291 148.579 50.6012 149.048C50.9734 149.517 51.1456 150.114 51.0803 150.71C51.0497 151.001 50.962 151.282 50.8223 151.539C50.6825 151.795 50.4935 152.021 50.2663 152.203C50.0332 152.39 49.7654 152.53 49.4784 152.613C49.1913 152.696 48.8907 152.721 48.5939 152.687V152.687C47.7357 152.591 45.5548 151.104 43.9861 149.902C45.6977 149.117 48.0099 148.203 48.9651 148.203Z" fill="#222433"/>
</g>
<g clip-path="url(#clip10_43319_13349)">
<path d="M67.0508 24.6694V61.1378L110.867 61.1231V24.6694H67.0508Z" fill="#0782D0"/>
</g>
<g clip-path="url(#clip11_43319_13349)">
<path d="M144.624 36.8981H128.82C128.524 36.8981 128.285 36.6585 128.285 36.3629C128.285 36.0672 128.524 35.8276 128.82 35.8276H144.624C144.919 35.8276 145.159 36.0672 145.159 36.3629C145.159 36.6585 144.919 36.8981 144.624 36.8981Z" fill="#222433"/>
<path d="M144.624 40.8532H128.82C128.524 40.8532 128.285 40.6136 128.285 40.3179C128.285 40.0223 128.524 39.7827 128.82 39.7827H144.624C144.919 39.7827 145.159 40.0223 145.159 40.3179C145.159 40.6136 144.919 40.8532 144.624 40.8532Z" fill="#222433"/>
<path d="M144.624 44.8087H128.82C128.524 44.8087 128.285 44.5691 128.285 44.2735C128.285 43.9779 128.524 43.7383 128.82 43.7383H144.624C144.919 43.7383 145.159 43.9779 145.159 44.2735C145.159 44.5691 144.919 44.8087 144.624 44.8087Z" fill="#222433"/>
</g>
<g clip-path="url(#clip12_43319_13349)">
<path d="M97.5416 96.7711H81.7371C81.4419 96.7711 81.2026 96.5315 81.2026 96.2359C81.2026 95.9403 81.4419 95.7007 81.7371 95.7007H97.5416C97.8368 95.7007 98.0761 95.9403 98.0761 96.2359C98.0761 96.5315 97.8368 96.7711 97.5416 96.7711Z" fill="#222433"/>
<path d="M97.5416 100.726H81.7371C81.4419 100.726 81.2026 100.487 81.2026 100.191C81.2026 99.8954 81.4419 99.6558 81.7371 99.6558H97.5416C97.8368 99.6558 98.0761 99.8954 98.0761 100.191C98.0761 100.487 97.8368 100.726 97.5416 100.726Z" fill="#222433"/>
<path d="M97.5416 104.682H81.7371C81.4419 104.682 81.2026 104.442 81.2026 104.147C81.2026 103.851 81.4419 103.611 81.7371 103.611H97.5416C97.8368 103.611 98.0761 103.851 98.0761 104.147C98.0761 104.442 97.8368 104.682 97.5416 104.682Z" fill="#222433"/>
</g>
<g clip-path="url(#clip13_43319_13349)">
<path d="M72.2749 69.9001L72.2749 88.2998L106.732 88.2998L106.732 69.9001L72.2749 69.9001Z" fill="white"/>
<path d="M107.193 69.9L107.193 88.2997C107.193 88.4221 107.145 88.5395 107.058 88.6261C106.972 88.7126 106.854 88.7612 106.732 88.7612L72.275 88.7612C72.1526 88.7612 72.0352 88.7126 71.9486 88.6261C71.8621 88.5395 71.8135 88.4221 71.8135 88.2997L71.8135 69.9C71.8135 69.7776 71.8621 69.6602 71.9486 69.5736C72.0352 69.4871 72.1526 69.4384 72.275 69.4384L106.732 69.4384C106.854 69.4384 106.972 69.4871 107.058 69.5736C107.145 69.6602 107.193 69.7776 107.193 69.9V69.9ZM106.27 87.8382L106.27 70.3615L72.7364 70.3615L72.7364 87.8382L106.27 87.8382Z" fill="#222433"/>
</g>
<path d="M320.423 168.23H8.57735C8.25018 168.23 8 167.953 8 167.592C8 167.23 8.25018 166.953 8.57735 166.953H320.423C320.75 166.953 321 167.23 321 167.592C321 167.953 320.75 168.23 320.423 168.23Z" fill="#222433"/>
<defs>
<clipPath id="clip0_43319_13349">
<rect width="107.228" height="114.032" fill="white" transform="translate(56.1646 0.992188)"/>
</clipPath>
<clipPath id="clip1_43319_13349">
<rect width="19.3228" height="35.3797" fill="white" transform="translate(115.902 88.4888) rotate(-90)"/>
</clipPath>
<clipPath id="clip2_43319_13349">
<rect width="16.8734" height="8.98101" fill="white" transform="translate(122.569 95.4287)"/>
</clipPath>
<clipPath id="clip3_43319_13349">
<rect width="119.747" height="162.203" fill="white" transform="translate(111.139 5.07422)"/>
</clipPath>
<clipPath id="clip4_43319_13349">
<rect width="56.0633" height="49.8038" fill="white" transform="translate(250 118)"/>
</clipPath>
<clipPath id="clip5_43319_13349">
<rect width="66.1329" height="99.3354" fill="white" transform="translate(178.633 69.0303)"/>
</clipPath>
<clipPath id="clip6_43319_13349">
<rect width="44.6329" height="44.6329" fill="white" transform="translate(249.12 1.80859)"/>
</clipPath>
<clipPath id="clip7_43319_13349">
<rect width="11.1582" height="11.1582" fill="white" transform="translate(269.26 73.3843)"/>
</clipPath>
<clipPath id="clip8_43319_13349">
<rect width="29.1203" height="91.1709" fill="white" transform="translate(0 78.2524) rotate(-6.41233)"/>
</clipPath>
<clipPath id="clip9_43319_13349">
<rect width="20.1392" height="34.5633" fill="white" transform="matrix(-1 0 0 1 53.7148 132.714)"/>
</clipPath>
<clipPath id="clip10_43319_13349">
<rect width="43.8165" height="36.4684" fill="white" transform="translate(67.0508 24.6694)"/>
</clipPath>
<clipPath id="clip11_43319_13349">
<rect width="16.8734" height="8.98101" fill="white" transform="translate(128.285 35.8276)"/>
</clipPath>
<clipPath id="clip12_43319_13349">
<rect width="16.8734" height="8.98101" fill="white" transform="translate(81.2026 95.7007)"/>
</clipPath>
<clipPath id="clip13_43319_13349">
<rect width="19.3228" height="35.3797" fill="white" transform="translate(71.8135 88.7612) rotate(-90)"/>
</clipPath>
</defs>
</svg>
