<svg  viewBox="0 0 298 153" fill="none" xmlns="http://www.w3.org/2000/svg">
<path d="M140.222 114.516C140.222 114.516 128.868 111.674 123.814 104.28C123.724 104.31 123.629 104.326 123.534 104.327C121.785 104.357 120.035 104.352 118.286 104.339C118.281 104.514 118.221 104.683 118.114 104.821C118.007 104.959 117.859 105.06 117.691 105.109C117.323 105.209 116.957 105.325 116.591 105.445C116.196 105.654 115.803 105.909 115.398 106.008C114.686 106.182 114.029 106.142 113.461 106.672C112.439 107.628 111.746 108.606 110.265 108.865C107.168 109.406 104.672 106.977 102.75 104.889C102.666 104.8 102.602 104.696 102.561 104.581C100.569 104.652 98.5777 104.713 96.5849 104.725L96.5726 124.617H106.495L106.432 115.663L120.618 124.617H147.395C147.585 122.356 146.969 120.102 145.656 118.252C144.343 116.403 142.418 115.08 140.222 114.516Z" fill="#113C7B"/>
<path d="M125.046 52.7681L125.058 104.432L118.764 104.458L102.515 104.502L93.4809 104.535L93.2816 58.0663" fill="white"/>
<path d="M93.4816 105.048C93.3462 105.048 93.2162 104.994 93.1202 104.898C93.0241 104.802 92.9699 104.673 92.9693 104.537L92.77 58.0687C92.7697 58.0014 92.7827 57.9347 92.8082 57.8723C92.8337 57.81 92.8711 57.7533 92.9185 57.7055C92.9659 57.6577 93.0222 57.6197 93.0842 57.5937C93.1463 57.5676 93.2128 57.5541 93.2801 57.5538C93.3476 57.5528 93.4146 57.5653 93.4772 57.5906C93.5398 57.6158 93.5967 57.6534 93.6446 57.7009C93.6925 57.7485 93.7305 57.8051 93.7563 57.8676C93.782 57.93 93.7951 57.9969 93.7947 58.0645L93.9917 104.02L102.513 103.989L118.764 103.945L124.546 103.922L124.534 52.7681C124.534 52.6321 124.588 52.5017 124.684 52.4055C124.78 52.3094 124.911 52.2554 125.047 52.2554C125.183 52.2554 125.313 52.3094 125.409 52.4055C125.505 52.5017 125.559 52.6321 125.559 52.7681L125.57 104.432C125.57 104.568 125.516 104.698 125.421 104.794C125.325 104.89 125.195 104.944 125.06 104.945L118.767 104.971L102.516 105.015L93.4835 105.047L93.4816 105.048Z" fill="#222433"/>
<path d="M45.6308 114.516H45.2038C44.4576 114.534 43.7152 114.404 43.0193 114.134C42.3233 113.864 41.6875 113.459 41.1483 112.943C40.6091 112.426 40.1771 111.808 39.8772 111.124C39.5773 110.44 39.4153 109.703 39.4006 108.956C39.2128 108.914 15.3085 91.8131 15.2532 91.7661L0 114.379L8.2313 119.934L14.214 110.707L26.0259 124.617H52.8033C52.9933 122.357 52.3772 120.102 51.0642 118.253C49.7512 116.404 47.8262 115.08 45.6308 114.516Z" fill="#113C7B"/>
<path d="M110.798 21.2499L97.2557 11.3371C89.6427 5.76506 80.4564 2.76036 71.0248 2.75732H55.0063C50.6089 2.75886 46.392 4.5078 43.2826 7.61972C40.1732 10.7316 38.4257 14.9519 38.4241 19.3528C38.4241 19.3577 38.4241 19.3627 38.4241 19.3677L38.407 19.3699L37.3141 58.7136L14.2084 91.0158L40.5929 109.919L66.5164 73.6683" fill="white"/>
<path d="M40.593 110.431C40.4861 110.431 40.3818 110.398 40.2949 110.336L13.9103 91.4329C13.8556 91.3937 13.8091 91.3441 13.7736 91.2869C13.738 91.2298 13.714 91.1661 13.703 91.0997C13.6921 91.0333 13.6943 90.9653 13.7095 90.8997C13.7248 90.8341 13.7528 90.7722 13.7919 90.7175L36.8065 58.543L37.8948 19.3558C37.8958 19.3154 37.9015 19.2752 37.9119 19.2362C37.9484 14.7208 39.7649 10.4026 42.9661 7.22063C46.1674 4.03866 50.4945 2.25037 55.0063 2.2447H71.0249C80.5685 2.22718 89.8669 5.26858 97.5581 10.9234L111.1 20.8362C111.155 20.876 111.201 20.926 111.236 20.9836C111.271 21.0411 111.294 21.1049 111.304 21.1715C111.315 21.238 111.312 21.3059 111.296 21.3714C111.28 21.4368 111.251 21.4984 111.212 21.5528C111.172 21.6071 111.122 21.6531 111.064 21.6881C111.007 21.7231 110.943 21.7464 110.877 21.7568C110.81 21.7671 110.742 21.7642 110.677 21.7483C110.611 21.7324 110.55 21.7037 110.496 21.664L96.9532 11.7511C89.4373 6.22523 80.3509 3.25313 71.0249 3.27017H55.0063C50.7458 3.27497 46.6612 4.97093 43.6486 7.98599C40.6359 11.001 38.9413 15.089 38.9365 19.3529C38.9365 19.402 38.9296 19.4508 38.916 19.498L37.8265 58.7281C37.8236 58.8302 37.7903 58.9292 37.7309 59.0123L14.9233 90.8974L40.4747 109.203L66.1 73.37C66.1388 73.3145 66.1883 73.2672 66.2455 73.2309C66.3028 73.1946 66.3666 73.1701 66.4334 73.1587C66.5001 73.1472 66.5685 73.1492 66.6345 73.1644C66.7005 73.1796 66.7629 73.2077 66.818 73.2472C66.873 73.2867 66.9197 73.3367 66.9554 73.3943C66.991 73.452 67.0149 73.5161 67.0256 73.5831C67.0363 73.65 67.0336 73.7184 67.0177 73.7843C67.0018 73.8502 66.973 73.9123 66.933 73.967L41.0095 110.217C40.9621 110.284 40.8996 110.338 40.8271 110.375C40.7546 110.412 40.6743 110.432 40.5929 110.432L40.593 110.431Z" fill="#222433"/>
<path d="M122.938 45.1027C124.41 45.4164 125.834 45.9091 127.308 46.2137C128.423 46.4437 129.556 47.0658 130.704 47.1219C130.783 47.1174 130.863 47.1185 130.943 47.1253C130.975 47.1282 131.004 47.1366 131.035 47.1424C131.152 46.7895 131.286 46.4427 131.438 46.1034C131.801 45.3519 132.335 44.6962 132.998 44.1892C134.194 43.2343 135.756 42.201 137.352 42.3695C138.107 42.4492 138.845 42.6907 139.587 42.8447C140.172 42.9373 140.731 43.1528 141.227 43.477L131.154 8.79065C130.505 6.83206 129.393 5.05913 127.913 3.62222C126.433 2.1853 124.628 1.12677 122.652 0.536391C120.676 -0.0539897 118.587 -0.15881 116.563 0.230819C114.538 0.620448 112.636 1.49303 111.02 2.77458L91.4495 21.6261L105.214 40.1186L112.591 34.2564L114.978 43.4724C117.676 43.7549 120.29 44.5386 122.938 45.1027Z" fill="#0782D0"/>
<path d="M105.519 54.1796C104.627 51.7723 105.388 48.691 107.05 46.8022C108.028 45.6913 109.515 44.8839 110.84 44.2693C112.224 43.6274 113.699 43.1523 115.239 43.1545C116.868 43.1569 118.498 43.6175 120.061 44.0357C121.797 44.5004 123.519 44.988 125.269 45.4016C126.903 45.7877 128.467 46.3203 130.074 46.7828C130.382 46.8778 130.697 46.9485 131.016 46.994C131.036 46.9342 131.062 46.8765 131.094 46.8214C131.159 46.705 131.236 46.5961 131.325 46.4967C132.494 44.8511 133.693 43.1673 135.737 42.5686C137.227 42.1321 138.565 42.4953 139.8 43.1752C139.502 42.8892 139.187 42.6224 138.856 42.3763L99.6124 13.4225C97.7518 12.4286 95.6761 11.9063 93.567 11.9014H62.896C53.5547 11.9014 47.3385 21.5578 51.198 30.0692L60.0953 49.6727C61.5027 52.7558 63.7654 55.3694 66.6143 57.2025C69.4632 59.0356 72.7783 60.011 76.1651 60.0128H115.072C114.361 59.7684 107.711 60.0897 105.519 54.1796Z" fill="#0782D0"/>
<path d="M60.0953 50.1857C59.9969 50.1857 59.9005 50.1573 59.8177 50.1039C59.7349 50.0506 59.6693 49.9744 59.6286 49.8847L50.7313 30.2812C49.3805 27.2966 49.1697 23.92 50.1388 20.7904C51.1078 17.6607 53.1894 14.995 55.9898 13.2978C56.106 13.2273 56.2454 13.206 56.3774 13.2384C56.4428 13.2545 56.5043 13.2833 56.5585 13.3232C56.6127 13.3631 56.6586 13.4132 56.6934 13.4708C56.7283 13.5284 56.7515 13.5923 56.7616 13.6589C56.7718 13.7255 56.7688 13.7934 56.7527 13.8588C56.7367 13.9242 56.7079 13.9858 56.6681 14.04C56.6282 14.0943 56.5781 14.1402 56.5205 14.1751C53.9346 15.7423 52.0124 18.2037 51.1176 21.0936C50.2227 23.9836 50.4173 27.1015 51.6646 29.8575L60.5619 49.461C60.5973 49.5391 60.6127 49.6248 60.6064 49.7104C60.6002 49.7959 60.5726 49.8785 60.5263 49.9506C60.4799 50.0227 60.4161 50.0821 60.3409 50.1232C60.2657 50.1643 60.1814 50.1858 60.0957 50.1858L60.0953 50.1857Z" fill="#222433"/>
<path d="M92.5333 12.9268H60.0388C59.9029 12.9268 59.7726 12.8728 59.6765 12.7767C59.5805 12.6805 59.5265 12.5501 59.5265 12.4141C59.5265 12.2781 59.5805 12.1477 59.6765 12.0515C59.7726 11.9554 59.9029 11.9014 60.0388 11.9014H92.5333C92.6692 11.9014 92.7995 11.9554 92.8956 12.0515C92.9917 12.1477 93.0456 12.2781 93.0456 12.4141C93.0456 12.5501 92.9917 12.6805 92.8956 12.7767C92.7995 12.8728 92.6692 12.9268 92.5333 12.9268Z" fill="#222433"/>
<path d="M133.309 44.1657C133.203 44.1657 133.1 44.133 133.014 44.0721C132.927 44.0112 132.862 43.925 132.826 43.8254C131.163 39.1657 128.267 35.2837 124.216 32.2872L98.622 12.9729C98.5683 12.9324 98.5231 12.8817 98.4889 12.8236C98.4548 12.7656 98.4324 12.7014 98.4231 12.6348C98.4137 12.5681 98.4176 12.5002 98.4344 12.435C98.4513 12.3698 98.4808 12.3086 98.5213 12.2549C98.5618 12.2011 98.6125 12.1558 98.6705 12.1217C98.7285 12.0875 98.7926 12.0651 98.8592 12.0558C98.9259 12.0464 98.9937 12.0503 99.0588 12.0671C99.1239 12.084 99.1851 12.1136 99.2388 12.1541L124.829 31.4655C128.945 34.4882 132.066 38.6719 133.791 43.4805C133.819 43.5579 133.827 43.6408 133.816 43.7223C133.805 43.8037 133.775 43.8813 133.728 43.9485C133.68 44.0156 133.618 44.0705 133.545 44.1083C133.472 44.1462 133.391 44.1659 133.309 44.1659V44.1657Z" fill="#222433"/>
<path d="M130.813 47.694C130.698 47.6939 130.587 47.6552 130.497 47.5842C130.406 47.5132 130.343 47.4139 130.316 47.3023C129.121 42.3876 126.244 38.0469 122.184 35.0345L92.2284 12.8258C92.1732 12.7861 92.1264 12.7359 92.0908 12.678C92.0552 12.6201 92.0314 12.5557 92.0209 12.4885C92.0104 12.4213 92.0134 12.3527 92.0296 12.2867C92.0458 12.2207 92.075 12.1586 92.1155 12.1039C92.1559 12.0493 92.2068 12.0033 92.2652 11.9685C92.3236 11.9338 92.3883 11.911 92.4556 11.9015C92.5229 11.892 92.5914 11.896 92.6571 11.9133C92.7228 11.9305 92.7844 11.9607 92.8384 12.002L122.793 34.2102C127.046 37.3655 130.06 41.912 131.311 47.0599C131.33 47.1354 131.331 47.2141 131.314 47.2901C131.298 47.366 131.264 47.4372 131.216 47.4983C131.168 47.5593 131.107 47.6087 131.037 47.6426C130.967 47.6765 130.891 47.6941 130.813 47.694Z" fill="#222433"/>
<path d="M130.997 46.9566L115.716 43.3832C113.684 42.9047 111.101 43.2227 109.5 44.5625C104.374 48.8544 103.967 53.5524 106.956 56.7314C107.883 57.7061 109.058 58.4093 110.354 58.7652L120.905 61.5746C121.396 64.3597 122.852 66.8825 125.017 68.7003C127.181 70.5182 129.917 71.5147 132.743 71.5152C132.919 71.5152 133.095 71.5114 133.27 71.5039L151.858 65.2451C152.156 65.0629 152.435 64.8501 152.689 64.6104C154.731 62.8109 156.102 60.3715 156.579 57.6909C157.055 55.0103 156.609 52.2471 155.313 49.8531C154.017 47.4592 151.948 45.5761 149.444 44.5116C146.94 43.4472 144.149 43.2645 141.528 43.9934" fill="white"/>
<path d="M132.743 72.0279C129.851 72.0332 127.047 71.0356 124.808 69.2049C122.569 67.3742 121.033 64.8236 120.461 61.9871L110.222 59.2609C108.834 58.8804 107.576 58.1277 106.584 57.084C105.159 55.5683 104.468 53.7418 104.584 51.8001C104.739 49.1908 106.325 46.5519 109.172 44.1693C111.009 42.6311 113.842 42.4149 115.834 42.8842L131.114 46.4574C131.244 46.4897 131.357 46.5723 131.428 46.6874C131.498 46.8024 131.521 46.9406 131.49 47.072C131.459 47.2034 131.378 47.3174 131.264 47.3892C131.15 47.4611 131.012 47.485 130.88 47.4559L115.6 43.8825C113.856 43.4723 111.395 43.6446 109.829 44.9558C107.205 47.1528 105.745 49.5408 105.606 51.8606C105.508 53.5133 106.103 55.0758 107.329 56.3793C108.191 57.2861 109.284 57.9403 110.491 58.2711L121.037 61.079C121.131 61.1042 121.217 61.1558 121.283 61.2279C121.349 61.3001 121.393 61.3896 121.41 61.486C121.875 64.1545 123.267 66.5728 125.341 68.314C127.414 70.0552 130.036 71.0074 132.743 71.0024C132.888 71.0024 133.033 70.9998 133.177 70.9944L151.63 64.781L151.649 64.7678C151.901 64.611 152.136 64.4293 152.351 64.2253C154.305 62.5025 155.618 60.167 156.074 57.6007C156.531 55.0343 156.104 52.389 154.863 50.0971C153.622 47.8052 151.641 46.0023 149.244 44.9833C146.847 43.9643 144.175 43.7894 141.665 44.4872C141.535 44.5219 141.396 44.5038 141.279 44.4367C141.162 44.3696 141.076 44.259 141.04 44.1288C141.004 43.9987 141.02 43.8596 141.086 43.7417C141.152 43.6238 141.261 43.5366 141.391 43.4991C144.126 42.7308 147.041 42.9159 149.657 44.0239C152.273 45.1318 154.435 47.0969 155.788 49.5966C157.141 52.0963 157.604 54.982 157.103 57.7802C156.601 60.5784 155.164 63.1228 153.027 64.9958C152.778 65.2304 152.507 65.4401 152.217 65.6218L152.141 65.6721C152.104 65.697 152.064 65.7168 152.021 65.7312L133.434 71.9898C133.388 72.0052 133.34 72.0141 133.292 72.0161C133.11 72.024 132.925 72.0279 132.743 72.0279Z" fill="#222433"/>
<path d="M136.004 55.5688V57.8078L148.3 57.1754C149.206 57.1285 150.097 57.4239 150.796 58.0031C151.495 58.5824 151.951 59.4032 152.074 60.3031L152.672 64.61" fill="white"/>
<path d="M152.672 65.1233C152.548 65.1232 152.429 65.0783 152.336 64.9971C152.243 64.9158 152.182 64.8036 152.165 64.6811L151.567 60.3742C151.459 59.603 151.067 58.9002 150.468 58.4033C149.869 57.9064 149.106 57.6513 148.329 57.688L136.031 58.3204C135.962 58.3244 135.892 58.314 135.827 58.2898C135.762 58.2657 135.702 58.2283 135.652 58.18C135.602 58.1321 135.562 58.0745 135.534 58.0106C135.507 57.9467 135.493 57.8778 135.493 57.8083V55.5694C135.493 55.4334 135.547 55.303 135.643 55.2068C135.739 55.1107 135.869 55.0566 136.005 55.0566C136.141 55.0566 136.271 55.1107 136.367 55.2068C136.463 55.303 136.517 55.4334 136.517 55.5694V57.2686L148.274 56.6639C149.308 56.6149 150.322 56.9538 151.119 57.6141C151.916 58.2743 152.438 59.2085 152.582 60.2337L153.18 64.5407C153.198 64.6753 153.163 64.8117 153.081 64.92C152.999 65.0282 152.877 65.0995 152.742 65.118C152.719 65.1214 152.695 65.1232 152.672 65.1233Z" fill="#222433"/>
<path d="M130.676 48.989C130.678 47.6362 131.096 46.3167 131.875 45.2107C132.653 44.1047 133.754 43.2661 135.026 42.8093C136.299 42.3526 137.681 42.2998 138.984 42.6584C140.288 43.0169 141.449 43.7693 142.309 44.8128C143.17 45.8562 143.687 47.14 143.792 48.4888C143.896 49.8377 143.582 51.1859 142.892 52.3495C142.203 53.513 141.171 54.4353 139.938 54.9904C138.706 55.5455 137.332 55.7063 136.004 55.451" fill="white"/>
<path d="M137.251 56.0816C136.8 56.0817 136.35 56.039 135.908 55.9543C135.841 55.9421 135.778 55.9168 135.721 55.88C135.664 55.8431 135.615 55.7953 135.577 55.7395C135.539 55.6836 135.512 55.6207 135.498 55.5544C135.484 55.4881 135.484 55.4197 135.497 55.3532C135.509 55.2867 135.535 55.2234 135.573 55.1669C135.61 55.1104 135.658 55.0619 135.714 55.0242C135.77 54.9864 135.834 54.9602 135.9 54.947C135.966 54.9338 136.035 54.9339 136.101 54.9473C137.327 55.1843 138.595 55.0368 139.734 54.5251C140.873 54.0133 141.826 53.1623 142.464 52.0881C143.101 51.0139 143.391 49.769 143.295 48.5234C143.199 47.2778 142.722 46.0922 141.927 45.1286C141.133 44.165 140.06 43.4703 138.857 43.1394C137.653 42.8085 136.376 42.8576 135.202 43.2799C134.027 43.7022 133.011 44.4772 132.293 45.499C131.574 46.5207 131.189 47.7395 131.188 48.9888C131.188 49.1248 131.134 49.2552 131.038 49.3514C130.942 49.4475 130.812 49.5015 130.676 49.5015C130.54 49.5015 130.41 49.4475 130.314 49.3514C130.218 49.2552 130.164 49.1248 130.164 48.9888C130.164 47.586 130.579 46.2147 131.358 45.0483C132.137 43.8818 133.244 42.9727 134.539 42.4359C135.834 41.8991 137.259 41.7586 138.634 42.0323C140.008 42.306 141.271 42.9815 142.262 43.9734C143.253 44.9654 143.928 46.2292 144.202 47.6051C144.475 48.9809 144.335 50.4071 143.799 51.7031C143.262 52.9991 142.354 54.1069 141.188 54.8863C140.023 55.6656 138.653 56.0816 137.251 56.0816Z" fill="#222433"/>
<path d="M130.796 67.1912C130.698 67.1913 130.602 67.1632 130.519 67.1104C130.437 67.0576 130.371 66.9822 130.33 66.8932L130.125 66.4488C129.648 65.3911 129.443 64.2313 129.526 63.074C129.61 61.9167 129.98 60.7985 130.603 59.8204L131.289 58.7745C131.363 58.6608 131.48 58.5814 131.613 58.5537C131.746 58.526 131.885 58.5524 131.998 58.627C132.112 58.7016 132.191 58.8183 132.219 58.9514C132.247 59.0846 132.22 59.2233 132.146 59.337L131.463 60.3796C130.932 61.2122 130.617 62.1639 130.546 63.1488C130.475 64.1337 130.65 65.1208 131.056 66.021L131.261 66.4635C131.297 66.5416 131.313 66.6275 131.307 66.7134C131.301 66.7992 131.274 66.8822 131.228 66.9547C131.181 67.0272 131.118 67.0868 131.042 67.1281C130.967 67.1695 130.882 67.1912 130.796 67.1912H130.796Z" fill="#222433"/>
<path d="M137.234 50.8686C137.225 50.8686 137.215 50.8686 137.206 50.8686C137.107 50.8632 137.012 50.8295 136.933 50.7715C136.853 50.7136 136.792 50.6338 136.756 50.5418L135.526 47.3628C135.477 47.2359 135.481 47.0947 135.536 46.9702C135.591 46.8458 135.693 46.7483 135.82 46.6992C135.946 46.6501 136.087 46.6534 136.212 46.7085C136.336 46.7635 136.434 46.8657 136.483 46.9927L137.302 49.1119L138.692 46.4286C138.756 46.3104 138.864 46.2219 138.992 46.1824C139.121 46.1428 139.26 46.1553 139.379 46.2172C139.498 46.2791 139.588 46.3854 139.63 46.5132C139.672 46.641 139.662 46.7801 139.602 46.9005L137.689 50.5922C137.646 50.6756 137.581 50.7455 137.5 50.7942C137.42 50.843 137.328 50.8687 137.234 50.8686Z" fill="#222433"/>
<path d="M121.594 92.1321C121.485 92.1323 121.378 92.0972 121.29 92.0321C121.201 91.967 121.136 91.8753 121.104 91.7704C121.072 91.6655 121.074 91.5531 121.11 91.4495C121.147 91.346 121.215 91.2569 121.306 91.1952L133.898 82.6326C134.011 82.5562 134.149 82.5275 134.282 82.553C134.416 82.5785 134.534 82.6561 134.61 82.7685C134.686 82.881 134.715 83.0193 134.69 83.1528C134.664 83.2864 134.587 83.4044 134.474 83.4808L121.882 92.0434C121.797 92.1013 121.697 92.1322 121.594 92.1321Z" fill="#222433"/>
<path d="M144.765 88.1107C151.518 88.1107 156.992 82.6319 156.992 75.8735C156.992 69.115 151.518 63.6362 144.765 63.6362C138.012 63.6362 132.538 69.115 132.538 75.8735C132.538 82.6319 138.012 88.1107 144.765 88.1107Z" fill="white"/>
<path d="M144.765 88.6235C142.245 88.6235 139.782 87.8757 137.687 86.4747C135.592 85.0737 133.959 83.0825 132.995 80.7527C132.031 78.423 131.779 75.8594 132.27 73.3861C132.762 70.9129 133.975 68.641 135.757 66.8579C137.538 65.0748 139.808 63.8605 142.28 63.3685C144.751 62.8766 147.312 63.1291 149.64 64.0941C151.968 65.0591 153.958 66.6933 155.358 68.79C156.758 70.8867 157.505 73.3518 157.505 75.8735C157.501 79.2538 156.157 82.4946 153.769 84.8848C151.381 87.2751 148.143 88.6196 144.765 88.6235ZM144.765 64.149C142.448 64.149 140.183 64.8366 138.256 66.1249C136.33 67.4132 134.828 69.2444 133.942 71.3867C133.055 73.5291 132.823 75.8865 133.275 78.1608C133.727 80.4352 134.843 82.5243 136.481 84.164C138.12 85.8037 140.207 86.9203 142.48 87.3727C144.752 87.8251 147.108 87.5929 149.248 86.7055C151.389 85.8181 153.218 84.3154 154.506 82.3873C155.793 80.4592 156.48 78.1924 156.48 75.8735C156.477 72.765 155.241 69.7849 153.045 67.5868C150.849 65.3888 147.871 64.1524 144.765 64.1488V64.149Z" fill="#222433"/>
<path d="M136.807 71.3946C136.721 71.3945 136.637 71.3727 136.561 71.3313C136.486 71.29 136.422 71.2303 136.376 71.1579C136.33 71.0855 136.303 71.0026 136.297 70.9169C136.291 70.8311 136.307 70.7453 136.343 70.6672C136.783 69.84 137.391 69.114 138.128 68.5358C138.865 67.9577 139.715 67.5402 140.623 67.3102C140.754 67.2757 140.894 67.295 141.011 67.3636C141.128 67.4323 141.214 67.5448 141.248 67.6764C141.282 67.8079 141.263 67.9478 141.195 68.0652C141.126 68.1826 141.014 68.2679 140.882 68.3023C140.12 68.493 139.405 68.8402 138.783 69.3217C138.162 69.8033 137.647 70.4087 137.271 71.0998C137.23 71.1879 137.164 71.2624 137.082 71.3145C137 71.3667 136.904 71.3945 136.807 71.3946Z" fill="#222433"/>
<path d="M124.887 98.1597L124.016 95.4935L123.982 95.4839L123.999 95.4764C122.342 92.4684 120.208 89.4945 118.398 87.8025C117.885 87.3239 117.322 86.7599 116.707 86.1447C113.213 82.6069 108.769 80.1588 103.913 79.0971C99.0577 78.0354 93.9986 78.4056 89.3489 80.1628L96.1286 86.0592C95.0698 88.9647 93.1742 97.5102 95.5992 98.8434C96.9194 99.5754 98.8198 99.4533 100.796 99.2559C101.674 101.602 102.489 103.473 103.028 104.723C103.463 105.742 104.235 106.58 105.214 107.098L107.4 108.261C107.971 108.561 108.596 108.745 109.239 108.8C109.882 108.855 110.529 108.781 111.143 108.582C111.757 108.382 112.325 108.062 112.813 107.64C113.301 107.217 113.7 106.701 113.985 106.122C114.637 106.235 115.304 106.211 115.946 106.052C116.588 105.894 117.19 105.604 117.714 105.201C118.147 104.873 118.521 104.474 118.821 104.022C119.508 104.179 120.221 104.182 120.909 104.031C121.598 103.881 122.245 103.58 122.803 103.15C124.289 102.022 125.263 99.9714 124.887 98.1597Z" fill="white"/>
<path d="M109.655 109.339C108.784 109.34 107.926 109.125 107.158 108.713L104.974 107.551C103.892 106.976 103.039 106.049 102.556 104.923L102.479 104.745C101.982 103.593 101.244 101.885 100.455 99.8042C98.5266 99.9849 96.7036 100.042 95.3511 99.2915C92.394 97.6661 94.7363 88.6459 95.5319 86.2193L89.0128 80.5509C88.9459 80.4927 88.8952 80.4181 88.8657 80.3344C88.8362 80.2508 88.8289 80.1609 88.8446 80.0735C88.8602 79.9862 88.8982 79.9044 88.9549 79.8362C89.0115 79.7679 89.0849 79.7156 89.1679 79.6842C93.9107 77.8945 99.0701 77.5183 104.022 78.6012C108.974 79.684 113.506 82.1794 117.071 85.7857C117.671 86.3861 118.24 86.9553 118.747 87.4289C120.523 89.0884 122.692 92.0536 124.419 95.1776C124.456 95.2249 124.484 95.2783 124.503 95.3354L125.374 98.0016C125.38 98.0197 125.385 98.0382 125.389 98.0568C125.787 99.9773 124.851 102.241 123.113 103.56C122.542 104.001 121.886 104.32 121.187 104.497C120.487 104.673 119.759 104.705 119.047 104.588C118.494 105.315 117.765 105.889 116.929 106.255C116.092 106.621 115.176 106.767 114.268 106.679C113.913 107.286 113.443 107.817 112.884 108.243C111.958 108.955 110.823 109.341 109.655 109.339ZM100.797 98.7428C100.901 98.7429 101.003 98.7748 101.088 98.8344C101.174 98.8939 101.24 98.9782 101.276 99.0759C102.108 101.299 102.897 103.128 103.42 104.337L103.498 104.519C103.889 105.43 104.58 106.181 105.455 106.646L107.64 107.808C108.15 108.077 108.709 108.241 109.284 108.29C109.859 108.339 110.437 108.272 110.986 108.094C111.535 107.916 112.042 107.629 112.478 107.252C112.914 106.874 113.271 106.413 113.526 105.895C113.575 105.796 113.654 105.716 113.753 105.666C113.851 105.615 113.963 105.598 114.072 105.617C114.897 105.755 115.744 105.651 116.511 105.317C117.278 104.984 117.932 104.435 118.394 103.737C118.452 103.651 118.535 103.584 118.631 103.545C118.728 103.506 118.834 103.498 118.935 103.521C119.548 103.663 120.185 103.666 120.8 103.532C121.415 103.398 121.993 103.129 122.491 102.744C123.898 101.676 124.692 99.809 124.391 98.291L123.576 95.7957C123.533 95.7396 123.502 95.6751 123.486 95.6065C121.814 92.595 119.738 89.7569 118.048 88.1776C117.528 87.6921 116.954 87.1168 116.345 86.5078C113.023 83.1467 108.824 80.7874 104.228 79.6987C99.6307 78.6101 94.8207 78.8359 90.3459 80.3506L96.4652 85.6728C96.5435 85.7409 96.5993 85.8311 96.6252 85.9316C96.6511 86.0321 96.6459 86.1381 96.6104 86.2356C95.2992 89.8339 93.9813 97.3691 95.8465 98.3945C97.0336 99.0527 98.8417 98.9361 100.746 98.7463C100.763 98.7442 100.78 98.7434 100.797 98.7434V98.7428Z" fill="#222433"/>
<path d="M108.493 102.877C108.391 102.877 108.291 102.847 108.207 102.79C108.122 102.733 108.057 102.653 108.018 102.558C106.125 97.9211 103.679 96.0778 102.208 96.3239C102.016 96.3686 101.836 96.4541 101.679 96.5745C101.523 96.6949 101.395 96.8474 101.303 97.0217C101.139 97.2996 101.038 97.6098 101.007 97.9306C100.975 98.2514 101.014 98.5753 101.12 98.8797C101.165 99.0081 101.157 99.149 101.098 99.2715C101.039 99.394 100.933 99.4879 100.805 99.5327C100.677 99.5776 100.536 99.5695 100.414 99.5104C100.291 99.4513 100.197 99.346 100.153 99.2176C99.9977 98.771 99.9418 98.296 99.9888 97.8256C100.036 97.3552 100.184 96.9006 100.424 96.4934C100.592 96.1899 100.823 95.9267 101.103 95.7225C101.383 95.5183 101.704 95.378 102.044 95.3116C103.819 95.012 106.703 96.6276 108.966 102.17C108.998 102.248 109.01 102.333 109.002 102.416C108.993 102.5 108.964 102.58 108.917 102.65C108.871 102.72 108.807 102.777 108.733 102.817C108.659 102.856 108.576 102.877 108.492 102.877H108.493Z" fill="#222433"/>
<path d="M95.5821 101.869L51.659 90.4691C49.6554 89.9503 47.8071 88.9533 46.2726 87.5634C44.7381 86.1735 43.563 84.4321 42.8479 82.4884C42.1328 80.5446 41.899 78.4564 42.1665 76.4025C42.4341 74.3485 43.195 72.3901 44.3841 70.6947L66.7725 38.7002L87.7606 53.4327L75.9602 70.3016L102.02 77.0697L95.5821 101.869Z" fill="#0782D0"/>
<path d="M37.3312 63.8412C37.1953 63.8412 37.065 63.7872 36.9689 63.6911C36.8728 63.5949 36.8188 63.4645 36.8188 63.3285V58.7139C36.8188 58.5779 36.8728 58.4475 36.9689 58.3513C37.065 58.2552 37.1953 58.2012 37.3312 58.2012C37.467 58.2012 37.5974 58.2552 37.6934 58.3513C37.7895 58.4475 37.8435 58.5779 37.8435 58.7139V63.3285C37.8435 63.4645 37.7895 63.5949 37.6934 63.6911C37.5974 63.7872 37.467 63.8412 37.3312 63.8412Z" fill="#222433"/>
<path d="M96.7434 60.5253H93.3279C93.192 60.5253 93.0617 60.4713 92.9656 60.3751C92.8695 60.279 92.8156 60.1486 92.8156 60.0126V55.9791C92.8179 52.8734 92.1511 49.8037 90.8604 46.9793C89.5698 44.1549 87.6857 41.6423 85.3367 39.6128L55.9197 14.1235C55.868 14.0797 55.8255 14.026 55.7946 13.9656C55.7637 13.9053 55.7452 13.8394 55.7399 13.7717C55.7347 13.7041 55.7429 13.6361 55.7641 13.5717C55.7853 13.5073 55.8191 13.4477 55.8635 13.3965C55.9078 13.3452 55.9619 13.3033 56.0226 13.2731C56.0833 13.2429 56.1493 13.225 56.217 13.2206C56.2846 13.2161 56.3524 13.2251 56.4165 13.247C56.4807 13.269 56.5398 13.3034 56.5905 13.3484L86.0068 38.8372C88.4672 40.9629 90.4406 43.5947 91.7925 46.553C93.1443 49.5113 93.8428 52.7266 93.8402 55.9796V59.5004H96.231V55.9796C96.2338 52.3831 95.4615 48.8284 93.9669 45.5577C92.4723 42.287 90.2905 39.3774 87.5702 37.0273L59.7025 12.8018C59.6503 12.7581 59.6074 12.7044 59.5762 12.6439C59.5449 12.5834 59.5261 12.5172 59.5207 12.4493C59.5153 12.3814 59.5235 12.3131 59.5448 12.2484C59.5661 12.1837 59.6 12.1239 59.6446 12.0725C59.6893 12.0211 59.7437 11.9791 59.8047 11.9489C59.8658 11.9188 59.9322 11.9011 60.0001 11.897C60.068 11.8928 60.1361 11.9022 60.2004 11.9247C60.2646 11.9471 60.3238 11.9822 60.3743 12.0278L88.2411 36.2517C91.0724 38.698 93.3434 41.7266 94.899 45.131C96.4547 48.5354 97.2585 52.2356 97.2557 55.9791V60.0126C97.2557 60.1486 97.2017 60.279 97.1056 60.3751C97.0096 60.4713 96.8792 60.5253 96.7434 60.5253Z" fill="#222433"/>
<path d="M59.7197 49.3309C59.6495 49.3308 59.5801 49.3164 59.5158 49.2885C59.4514 49.2605 59.3935 49.2196 59.3456 49.1684C59.2976 49.1171 59.2607 49.0565 59.2372 48.9904C59.2136 48.9243 59.2039 48.854 59.2085 48.7839L59.6526 42.1013C59.6561 42.0334 59.6731 41.9669 59.7025 41.9057C59.7319 41.8444 59.7733 41.7897 59.824 41.7445C59.8748 41.6994 59.9341 41.6648 59.9983 41.6428C60.0626 41.6208 60.1306 41.6118 60.1983 41.6164C60.2661 41.6209 60.3323 41.6389 60.393 41.6692C60.4538 41.6996 60.5079 41.7418 60.5523 41.7932C60.5966 41.8447 60.6303 41.9045 60.6513 41.9691C60.6723 42.0338 60.6803 42.1019 60.6748 42.1697L60.3524 47.0236L62.2376 44.336C62.3158 44.2251 62.4348 44.1498 62.5684 44.1265C62.702 44.1033 62.8394 44.134 62.9504 44.212C63.0614 44.29 63.137 44.4089 63.1606 44.5425C63.1842 44.6762 63.1538 44.8138 63.0762 44.9251L60.1389 49.1124C60.0917 49.1798 60.0289 49.2349 59.956 49.2729C59.883 49.3109 59.8019 49.3308 59.7197 49.3309Z" fill="#222433"/>
<path d="M83.1498 60.5251C83.0561 60.525 82.9642 60.4992 82.8841 60.4504C82.804 60.4017 82.7389 60.3319 82.6957 60.2486C82.6525 60.1653 82.633 60.0718 82.6392 59.9782C82.6454 59.8846 82.6772 59.7945 82.7311 59.7177L84.7462 56.8464C84.7849 56.7913 84.8341 56.7444 84.8909 56.7083C84.9477 56.6722 85.011 56.6477 85.0773 56.6361C85.1436 56.6245 85.2115 56.6261 85.2771 56.6407C85.3428 56.6554 85.4049 56.6829 85.46 56.7216C85.515 56.7603 85.5619 56.8095 85.598 56.8663C85.6341 56.9232 85.6586 56.9866 85.6702 57.0529C85.6818 57.1192 85.6802 57.1872 85.6655 57.2529C85.6509 57.3186 85.6234 57.3808 85.5847 57.4359L83.5696 60.3072C83.5223 60.3746 83.4594 60.4296 83.3864 60.4675C83.3133 60.5055 83.2322 60.5252 83.1498 60.5251Z" fill="#222433"/>
<path d="M75.9603 74.1815C75.8244 74.1815 75.6941 74.1274 75.598 74.0313C75.5019 73.9351 75.448 73.8047 75.448 73.6687V71.5898L73.6342 73.5083C73.5882 73.5584 73.5328 73.5988 73.4711 73.6273C73.4094 73.6558 73.3427 73.6717 73.2748 73.6741C73.2068 73.6765 73.1391 73.6654 73.0756 73.6414C73.012 73.6173 72.9539 73.5809 72.9045 73.5342C72.8551 73.4874 72.8156 73.4313 72.7881 73.3691C72.7606 73.307 72.7457 73.2399 72.7444 73.1719C72.743 73.1039 72.7552 73.0364 72.7802 72.9731C72.8052 72.9099 72.8425 72.8523 72.8899 72.8036L75.5882 69.9494C75.6586 69.8749 75.7498 69.8232 75.8499 69.8011C75.95 69.779 76.0545 69.7875 76.1497 69.8254C76.245 69.8633 76.3267 69.929 76.3842 70.0139C76.4418 70.0988 76.4726 70.199 76.4726 70.3016V73.6686C76.4726 73.7359 76.4594 73.8026 76.4337 73.8648C76.4079 73.9271 76.3702 73.9836 76.3226 74.0312C76.275 74.0789 76.2186 74.1166 76.1564 74.1424C76.0942 74.1682 76.0276 74.1815 75.9603 74.1815Z" fill="#222433"/>
<path d="M141.805 83.1907C141.787 83.1908 141.769 83.1899 141.75 83.188C141.673 83.1798 141.599 83.1541 141.533 83.113C141.468 83.072 141.412 83.0165 141.371 82.9508L137.079 76.1143C137.042 76.0573 137.016 75.9935 137.004 75.9265C136.992 75.8595 136.993 75.7908 137.007 75.7243C137.022 75.6578 137.05 75.5948 137.089 75.5391C137.128 75.4834 137.178 75.4361 137.235 75.3998C137.293 75.3636 137.357 75.3393 137.424 75.3282C137.492 75.3171 137.56 75.3194 137.626 75.3352C137.693 75.3509 137.755 75.3797 137.81 75.4199C137.865 75.46 137.911 75.5107 137.946 75.569L141.893 81.8542L149.442 74.1162C149.489 74.0671 149.545 74.0277 149.607 74.0004C149.669 73.9731 149.736 73.9584 149.803 73.9571C149.871 73.9559 149.939 73.9681 150.002 73.9931C150.065 74.0182 150.122 74.0555 150.171 74.1029C150.219 74.1503 150.258 74.2069 150.284 74.2693C150.311 74.3318 150.325 74.3989 150.325 74.4668C150.326 74.5347 150.312 74.602 150.287 74.6647C150.261 74.7275 150.223 74.7845 150.175 74.8325L142.171 83.0362C142.124 83.0851 142.067 83.124 142.004 83.1505C141.941 83.1771 141.873 83.1907 141.805 83.1907Z" fill="#222433"/>
<path d="M134.461 82.6777C134.332 82.6774 134.209 82.6289 134.114 82.5417C134.02 82.4545 133.962 82.335 133.951 82.2069C133.941 82.0787 133.979 81.9513 134.058 81.8499C134.137 81.7484 134.251 81.6804 134.377 81.6592L134.546 81.6312C136.376 81.3238 138.108 80.5908 139.603 79.4912L139.667 79.4445C139.721 79.4046 139.782 79.3758 139.848 79.3597C139.913 79.3435 139.981 79.3404 140.047 79.3505C140.114 79.3607 140.178 79.3838 140.235 79.4186C140.293 79.4534 140.343 79.4993 140.383 79.5535C140.423 79.6077 140.452 79.6693 140.468 79.7347C140.484 79.8 140.487 79.8679 140.477 79.9345C140.467 80.0011 140.444 80.065 140.409 80.1226C140.374 80.1803 140.328 80.2305 140.274 80.2704L140.211 80.317C138.586 81.5121 136.703 82.3086 134.714 82.6426L134.546 82.6707C134.518 82.6754 134.489 82.6778 134.461 82.6777Z" fill="#222433"/>
<path d="M148.195 77.7611C147.825 77.7682 147.454 77.7409 147.089 77.6794C146.957 77.6512 146.842 77.572 146.768 77.4592C146.694 77.3463 146.667 77.2088 146.694 77.0766C146.721 76.9443 146.798 76.8279 146.91 76.7525C147.022 76.6772 147.159 76.6491 147.292 76.6743C147.323 76.6804 149.821 77.1357 154.033 75.3924C154.937 75.0164 155.758 74.4645 156.448 73.7688C156.544 73.6739 156.674 73.621 156.809 73.6216C156.945 73.6222 157.074 73.6761 157.17 73.7718C157.265 73.8675 157.319 73.997 157.32 74.1323C157.32 74.2675 157.267 74.3975 157.172 74.4939C156.387 75.2851 155.453 75.9125 154.424 76.3398C151.534 77.5358 149.396 77.7611 148.195 77.7611Z" fill="#222433"/>
<path d="M146.82 69.8596C147.81 69.8596 148.613 69.0562 148.613 68.0651C148.613 67.074 147.81 66.2705 146.82 66.2705C145.83 66.2705 145.027 67.074 145.027 68.0651C145.027 69.0562 145.83 69.8596 146.82 69.8596Z" fill="#222433"/>
<path d="M159.55 125.388C159.429 125.388 159.311 125.346 159.217 125.27C159.123 125.193 159.059 125.087 159.035 124.969L154.981 105.103C154.967 105.035 154.966 104.965 154.979 104.897C154.992 104.829 155.018 104.765 155.056 104.707C155.095 104.649 155.144 104.599 155.201 104.561C155.259 104.522 155.324 104.495 155.392 104.481C155.46 104.467 155.53 104.467 155.598 104.481C155.666 104.494 155.731 104.521 155.789 104.559C155.847 104.597 155.896 104.647 155.935 104.704C155.973 104.762 156 104.827 156.013 104.894L160.065 124.761C160.093 124.897 160.065 125.038 159.988 125.154C159.911 125.269 159.792 125.35 159.655 125.378C159.62 125.384 159.585 125.388 159.55 125.388Z" fill="#222433"/>
<path d="M154.55 105.522C152.898 105.522 151.284 105.034 149.911 104.121C148.537 103.208 147.467 101.91 146.835 100.392C146.203 98.8736 146.038 97.2028 146.36 95.5909C146.682 93.9789 147.477 92.4983 148.645 91.3362C149.813 90.1741 151.301 89.3826 152.921 89.062C154.541 88.7414 156.22 88.9059 157.746 89.5349C159.271 90.1638 160.576 91.2289 161.493 92.5954C162.411 93.9619 162.901 95.5685 162.901 97.212C162.898 99.4151 162.017 101.527 160.452 103.085C158.886 104.643 156.764 105.519 154.55 105.522ZM154.55 89.9498C153.107 89.9498 151.696 90.3757 150.495 91.1737C149.295 91.9717 148.36 93.1059 147.807 94.4329C147.255 95.7599 147.111 97.22 147.392 98.6288C147.674 100.038 148.369 101.332 149.389 102.347C150.41 103.363 151.71 104.054 153.126 104.335C154.542 104.615 156.009 104.471 157.343 103.921C158.676 103.372 159.816 102.441 160.618 101.247C161.42 100.052 161.848 98.6483 161.848 97.212C161.846 95.2866 161.076 93.4407 159.708 92.0792C158.34 90.7178 156.485 89.952 154.55 89.9498Z" fill="#222433"/>
<path d="M154.55 105.522C152.898 105.522 151.284 105.034 149.911 104.121C148.537 103.208 147.467 101.91 146.835 100.392C146.203 98.8736 146.038 97.2028 146.36 95.5909C146.682 93.9789 147.477 92.4983 148.645 91.3362C149.813 90.1741 151.301 89.3826 152.921 89.062C154.541 88.7414 156.22 88.9059 157.746 89.5349C159.271 90.1638 160.576 91.2289 161.493 92.5954C162.411 93.9619 162.901 95.5685 162.901 97.212C162.898 99.4151 162.017 101.527 160.452 103.085C158.886 104.643 156.764 105.519 154.55 105.522ZM154.55 89.9498C153.107 89.9498 151.696 90.3757 150.495 91.1737C149.295 91.9717 148.36 93.1059 147.807 94.4329C147.255 95.7599 147.111 97.22 147.392 98.6288C147.674 100.038 148.369 101.332 149.389 102.347C150.41 103.363 151.71 104.054 153.126 104.335C154.542 104.615 156.009 104.471 157.343 103.921C158.676 103.372 159.816 102.441 160.618 101.247C161.42 100.052 161.848 98.6483 161.848 97.212C161.846 95.2866 161.076 93.4407 159.708 92.0792C158.34 90.7178 156.485 89.952 154.55 89.9498Z" fill="#222433"/>
<path d="M154.55 104.998C158.871 104.998 162.374 101.512 162.374 97.2122C162.374 92.9121 158.871 89.4263 154.55 89.4263C150.229 89.4263 146.726 92.9121 146.726 97.2122C146.726 101.512 150.229 104.998 154.55 104.998Z" fill="white"/>
<path d="M154.55 105.522C152.898 105.522 151.284 105.034 149.911 104.121C148.537 103.208 147.467 101.91 146.835 100.392C146.203 98.8736 146.038 97.2028 146.36 95.5909C146.682 93.9789 147.477 92.4983 148.645 91.3362C149.813 90.1741 151.301 89.3826 152.921 89.062C154.541 88.7414 156.22 88.9059 157.746 89.5349C159.271 90.1638 160.576 91.2289 161.493 92.5954C162.411 93.9619 162.901 95.5685 162.901 97.212C162.898 99.4151 162.017 101.527 160.452 103.085C158.886 104.643 156.764 105.519 154.55 105.522ZM154.55 89.9498C153.107 89.9498 151.696 90.3757 150.495 91.1737C149.295 91.9717 148.36 93.1059 147.807 94.4329C147.255 95.7599 147.111 97.22 147.392 98.6288C147.674 100.038 148.369 101.332 149.389 102.347C150.41 103.363 151.71 104.054 153.126 104.335C154.542 104.615 156.009 104.471 157.343 103.921C158.676 103.372 159.816 102.441 160.618 101.247C161.42 100.052 161.848 98.6483 161.848 97.212C161.846 95.2866 161.076 93.4407 159.708 92.0792C158.34 90.7178 156.485 89.952 154.55 89.9498Z" fill="#222433"/>
<path d="M153.301 99.0643C151.98 99.0638 150.678 98.7521 149.501 98.1547C148.325 97.5573 147.307 96.6911 146.532 95.6272C146.49 95.5715 146.46 95.5081 146.443 95.4408C146.426 95.3734 146.423 95.3034 146.434 95.2348C146.444 95.1662 146.469 95.1004 146.505 95.0412C146.541 94.982 146.589 94.9306 146.646 94.8899C146.702 94.8493 146.766 94.8203 146.834 94.8045C146.902 94.7887 146.973 94.7866 147.041 94.7981C147.11 94.8097 147.176 94.8347 147.235 94.8718C147.294 94.9089 147.345 94.9572 147.385 95.0141C148.2 96.1341 149.319 96.9992 150.612 97.5078C151.904 98.0164 153.315 98.1473 154.68 97.8851C156.044 97.6229 157.305 96.9785 158.314 96.0277C159.323 95.0769 160.038 93.8591 160.376 92.5177C160.392 92.4509 160.422 92.3881 160.463 92.3328C160.504 92.2776 160.556 92.2309 160.615 92.1954C160.674 92.16 160.74 92.1365 160.808 92.1264C160.877 92.1162 160.946 92.1195 161.014 92.1362C161.081 92.1528 161.144 92.1824 161.199 92.2233C161.255 92.2642 161.302 92.3156 161.337 92.3745C161.373 92.4335 161.397 92.4988 161.407 92.5669C161.417 92.6349 161.414 92.7042 161.397 92.771C161.008 94.3045 160.188 95.6963 159.034 96.7839C157.88 97.8715 156.438 98.6101 154.878 98.9135C154.359 99.0138 153.83 99.0643 153.301 99.0643Z" fill="#222433"/>
<path d="M157.866 97.5959C157.823 97.5958 157.781 97.5906 157.74 97.5805C156.193 97.1997 154.788 96.3871 153.69 95.2383C152.592 94.0895 151.847 92.6525 151.542 91.0964C151.466 90.7014 151.418 90.3017 151.399 89.9C151.395 89.8309 151.405 89.7617 151.428 89.6964C151.451 89.631 151.487 89.5709 151.534 89.5195C151.58 89.468 151.637 89.4263 151.699 89.3966C151.762 89.367 151.83 89.35 151.9 89.3468C151.969 89.3435 152.039 89.354 152.104 89.3776C152.17 89.4012 152.23 89.4375 152.281 89.4844C152.332 89.5312 152.374 89.5877 152.403 89.6506C152.432 89.7134 152.448 89.7814 152.451 89.8506C152.468 90.2023 152.509 90.5523 152.576 90.8981C152.842 92.2576 153.493 93.513 154.453 94.5166C155.412 95.5202 156.64 96.2302 157.991 96.5629C158.117 96.5929 158.227 96.6678 158.3 96.7733C158.374 96.8787 158.406 97.0075 158.391 97.135C158.375 97.2625 158.313 97.3799 158.216 97.4649C158.119 97.5499 157.995 97.5965 157.866 97.5959Z" fill="#222433"/>
<path d="M187.374 72.775C186.909 72.5226 186.362 72.4659 185.854 72.6171C185.346 72.7683 184.919 73.1152 184.667 73.5814C184.909 73.1149 184.959 72.5714 184.804 72.0688C184.649 71.5662 184.302 71.1451 183.839 70.8967C183.375 70.6484 182.833 70.593 182.329 70.7424C181.825 70.8918 181.4 71.2341 181.147 71.6949L176.31 80.623L177.175 70.5047C177.244 69.9786 177.101 69.4467 176.778 69.0259C176.456 68.6052 175.979 68.33 175.453 68.2611C175.193 68.2269 174.928 68.2444 174.675 68.3126C174.421 68.3807 174.184 68.4982 173.976 68.6582C173.555 68.9815 173.28 69.4586 173.211 69.9847C173.213 70.0417 173.205 70.0985 173.188 70.153C173.219 69.8903 173.197 69.6241 173.125 69.3698C173.052 69.1155 172.93 68.8782 172.765 68.6715C172.6 68.4649 172.396 68.2929 172.164 68.1657C171.932 68.0384 171.678 67.9584 171.415 67.9302C171.152 67.9019 170.887 67.9261 170.633 68.0012C170.38 68.0764 170.144 68.201 169.939 68.368C169.734 68.5349 169.564 68.7409 169.439 68.9739C169.314 69.2069 169.236 69.4624 169.21 69.7257C169.204 69.7435 169.215 69.7665 169.208 69.7838L169.091 71.1137L168.297 80.0813C168.155 81.6328 168.467 83.1919 169.196 84.5685C169.925 85.945 171.038 87.0794 172.4 87.8332L172.394 87.851C173.393 88.3743 174.483 88.7029 175.604 88.8193L175.611 88.8014C177.163 88.914 178.715 88.5749 180.08 87.825C181.445 87.0752 182.564 85.9466 183.302 84.5751L187.555 76.6479L188.185 75.4679C188.314 75.2388 188.394 74.9862 188.423 74.7252C188.451 74.4642 188.427 74.2001 188.351 73.9488C188.276 73.6974 188.15 73.4639 187.982 73.2623C187.814 73.0606 187.607 72.8949 187.374 72.7751L187.374 72.775Z" fill="white"/>
<path d="M175.547 89.368C174.356 89.2456 173.199 88.8966 172.138 88.3397C172.091 88.315 172.048 88.2837 172.01 88.2468C170.589 87.4289 169.432 86.2203 168.677 84.7642C167.921 83.3082 167.599 81.6658 167.748 80.0318L168.657 69.759C168.656 69.718 168.659 69.6769 168.666 69.6365C168.725 69.1181 168.943 68.6306 169.289 68.2402C169.635 67.8497 170.092 67.5751 170.599 67.4536C171.106 67.3321 171.638 67.3695 172.123 67.5609C172.608 67.7523 173.023 68.0883 173.31 68.5234C173.415 68.4089 173.53 68.304 173.653 68.21C173.918 68.007 174.219 67.8587 174.541 67.7735C174.863 67.6884 175.199 67.6682 175.529 67.7141C175.863 67.7581 176.185 67.8682 176.477 68.038C176.769 68.2078 177.023 68.4339 177.227 68.7031C177.428 68.9655 177.575 69.265 177.661 69.5845C177.746 69.904 177.768 70.2372 177.724 70.565L177.085 78.0339L180.662 71.4326C180.916 70.9729 181.305 70.6028 181.777 70.3732C182.249 70.1435 182.78 70.0655 183.298 70.1497C183.816 70.2339 184.295 70.4763 184.67 70.8437C185.045 71.211 185.297 71.6854 185.392 72.2018C185.743 72.049 186.123 71.976 186.505 71.9881C186.887 72.0003 187.262 72.0972 187.602 72.2719C187.634 72.2854 187.664 72.3019 187.693 72.3211C188.273 72.6483 188.703 73.1891 188.892 73.8287C188.985 74.1464 189.013 74.4799 188.974 74.8089C188.935 75.1379 188.83 75.4555 188.664 75.7425L188.041 76.9081L183.789 84.8363C183.01 86.2819 181.835 87.4753 180.403 88.2767C178.971 89.078 177.34 89.454 175.701 89.3605C175.651 89.3708 175.599 89.3733 175.547 89.368ZM172.77 87.4233C173.637 87.8603 174.573 88.1419 175.536 88.2554C175.574 88.2495 175.612 88.2479 175.65 88.2506C177.097 88.3551 178.542 88.0392 179.814 87.3408C181.085 86.6425 182.127 85.5915 182.816 84.3142L187.699 75.2077C187.793 75.0476 187.853 74.8699 187.876 74.6856C187.899 74.5014 187.884 74.3144 187.832 74.1362C187.778 73.9498 187.687 73.7763 187.564 73.6263C187.441 73.4763 187.289 73.3529 187.116 73.2636C186.78 73.0808 186.384 73.0388 186.016 73.1468C185.649 73.2548 185.339 73.5041 185.154 73.8401C185.085 73.9683 184.969 74.0643 184.831 74.1074C184.692 74.1504 184.542 74.1371 184.413 74.0702C184.284 74.0033 184.187 73.8883 184.142 73.75C184.098 73.6118 184.109 73.4615 184.174 73.3317C184.349 72.9891 184.381 72.5912 184.263 72.2251C184.146 71.859 183.888 71.5545 183.546 71.3782C183.214 71.2064 182.827 71.1713 182.469 71.2804C182.111 71.3895 181.81 71.6342 181.629 71.9623L176.795 80.8855C176.735 80.9972 176.638 81.0848 176.521 81.1334C176.404 81.1819 176.274 81.1887 176.152 81.1523C176.03 81.116 175.925 81.0389 175.854 80.934C175.782 80.829 175.749 80.7027 175.76 80.5762L176.625 70.458C176.626 70.4486 176.627 70.4397 176.628 70.43C176.654 70.2439 176.643 70.0545 176.595 69.8728C176.547 69.6911 176.463 69.5208 176.349 69.3718C176.233 69.2182 176.088 69.0893 175.922 68.9925C175.755 68.8957 175.572 68.833 175.381 68.8079C175.195 68.7823 175.005 68.7939 174.824 68.8419C174.642 68.89 174.472 68.9736 174.323 69.0878C174.019 69.3169 173.818 69.656 173.762 70.0322C173.76 70.138 173.741 70.2429 173.706 70.3429C173.66 70.469 173.569 70.574 173.451 70.638C173.333 70.702 173.195 70.7207 173.065 70.6905C172.934 70.6604 172.818 70.5835 172.74 70.4743C172.662 70.365 172.626 70.231 172.639 70.0972C172.681 69.7172 172.57 69.3362 172.332 69.0373C172.094 68.7383 171.748 68.5456 171.369 68.5009C170.989 68.4562 170.608 68.5633 170.307 68.7988C170.006 69.0343 169.81 69.3792 169.762 69.7585C169.762 69.7917 169.76 69.8249 169.756 69.8577L168.847 80.129C168.714 81.574 169.005 83.0261 169.684 84.3083C170.362 85.5904 171.399 86.6471 172.667 87.3494C172.704 87.3701 172.739 87.3948 172.77 87.4233Z" fill="#222433"/>
<path d="M172.453 78.3978C172.309 78.3827 172.177 78.3116 172.085 78.1998C171.993 78.0879 171.948 77.9443 171.961 77.8L172.656 69.9536C172.668 69.8077 172.739 69.6729 172.851 69.5789C172.963 69.4849 173.108 69.4393 173.254 69.4522C173.326 69.4576 173.397 69.4776 173.462 69.5108C173.526 69.5441 173.584 69.59 173.63 69.6458C173.677 69.7016 173.712 69.7661 173.733 69.8357C173.755 69.9053 173.762 69.9784 173.755 70.0509L173.06 77.897C173.054 77.9693 173.033 78.0396 173 78.1039C172.966 78.1682 172.92 78.2253 172.865 78.2719C172.809 78.3184 172.745 78.3536 172.676 78.3754C172.607 78.3971 172.534 78.405 172.462 78.3987L172.453 78.3978Z" fill="#222433"/>
<path d="M180.961 80.9474C180.871 80.938 180.785 80.9065 180.71 80.8557C180.635 80.8049 180.573 80.7364 180.531 80.6562C180.489 80.576 180.467 80.4867 180.467 80.396C180.468 80.3053 180.49 80.2161 180.533 80.1362L184.266 73.1946C184.3 73.13 184.346 73.0727 184.402 73.0261C184.459 72.9796 184.523 72.9446 184.593 72.9233C184.663 72.9019 184.736 72.8946 184.809 72.9018C184.881 72.909 184.952 72.9305 185.016 72.965C185.08 72.9996 185.137 73.0466 185.183 73.1033C185.229 73.1599 185.263 73.2252 185.284 73.2952C185.304 73.3652 185.311 73.4386 185.303 73.5112C185.295 73.5837 185.273 73.654 185.238 73.7179L181.505 80.6598C181.453 80.7563 181.374 80.8352 181.277 80.8864C181.18 80.9376 181.07 80.9589 180.961 80.9474Z" fill="#222433"/>
<path d="M155.031 150.307C154.995 150.303 154.96 150.296 154.926 150.285C154.786 150.242 154.669 150.145 154.6 150.016C154.532 149.886 154.517 149.735 154.56 149.595L174.659 84.2052C174.703 84.0663 174.8 83.9504 174.928 83.8827C175.057 83.815 175.208 83.801 175.347 83.8438C175.486 83.8866 175.603 83.9828 175.671 84.1112C175.74 84.2397 175.755 84.3902 175.713 84.5298L155.616 149.919C155.578 150.041 155.5 150.147 155.393 150.218C155.286 150.288 155.158 150.32 155.031 150.307Z" fill="#222433"/>
<path d="M218.739 124.867L207.221 124.808C207.068 124.807 206.919 124.766 206.787 124.689C206.655 124.613 206.546 124.503 206.47 124.371C206.393 124.239 206.353 124.09 206.352 123.938C206.351 123.785 206.39 123.635 206.465 123.503C206.833 122.817 207.385 122.247 208.059 121.857C209.411 121.106 211.03 120.972 211.456 120.969H211.457C211.548 120.954 211.633 120.916 211.705 120.859C211.777 120.802 211.833 120.728 211.87 120.644L214.552 106.18C214.578 106.055 214.644 105.941 214.739 105.856C214.835 105.771 214.955 105.719 215.083 105.708L223.8 104.969C223.929 104.959 224.058 104.976 224.179 105.021C224.3 105.067 224.41 105.138 224.5 105.231C224.59 105.323 224.658 105.435 224.7 105.557C224.742 105.679 224.756 105.809 224.742 105.937L222.842 122.883C222.824 123.043 222.762 123.196 222.662 123.323C222.563 123.45 222.431 123.547 222.28 123.604L219.049 124.813C218.95 124.849 218.845 124.868 218.739 124.867Z" fill="white"/>
<path d="M218.744 125.387H218.736L207.218 125.327C206.975 125.326 206.737 125.261 206.527 125.139C206.317 125.018 206.143 124.843 206.021 124.633C205.899 124.423 205.834 124.185 205.832 123.943C205.831 123.7 205.892 123.461 206.011 123.249C206.426 122.478 207.048 121.838 207.807 121.401C209.295 120.575 211.001 120.465 211.377 120.451L214.042 106.084C214.09 105.848 214.212 105.633 214.392 105.471C214.572 105.31 214.799 105.211 215.04 105.189L223.756 104.45C223.962 104.433 224.168 104.461 224.361 104.533C224.554 104.605 224.729 104.719 224.872 104.867C225.016 105.015 225.125 105.192 225.192 105.387C225.259 105.582 225.282 105.789 225.259 105.994L223.359 122.94C223.331 123.196 223.232 123.439 223.074 123.642C222.915 123.845 222.704 124 222.462 124.09L219.232 125.299C219.076 125.357 218.91 125.387 218.744 125.387ZM218.742 124.347C218.785 124.351 218.828 124.343 218.868 124.325L222.098 123.117C222.159 123.094 222.213 123.054 222.253 123.003C222.294 122.951 222.319 122.889 222.326 122.824L224.226 105.879C224.232 105.827 224.226 105.774 224.209 105.724C224.192 105.675 224.165 105.63 224.128 105.592C224.091 105.555 224.047 105.526 223.998 105.508C223.949 105.489 223.896 105.482 223.844 105.486L215.127 106.225C215.112 106.227 215.097 106.233 215.085 106.244C215.073 106.254 215.065 106.268 215.062 106.284L212.381 120.737C212.322 120.942 212.202 121.123 212.037 121.258C211.872 121.392 211.67 121.472 211.458 121.488H211.454C210.359 121.529 209.287 121.809 208.312 122.31C207.724 122.654 207.242 123.154 206.919 123.755C206.888 123.81 206.871 123.872 206.872 123.935C206.872 123.998 206.889 124.059 206.922 124.113C206.952 124.166 206.996 124.21 207.049 124.241C207.102 124.271 207.163 124.287 207.224 124.287L218.742 124.346L218.742 124.347Z" fill="#222433"/>
<path d="M268.204 106.01C268.112 107.055 267.863 108.08 267.465 109.051L260.9 124.868H248.879C247.754 121.784 253.279 120.935 253.279 120.935L256.085 112.412C256.83 110.108 256.033 107.25 254.024 104.998L251.218 101.862L251.2 101.845C250.082 100.571 249.439 98.9484 249.382 97.2538L249.373 97.0428L261.581 94.8311L268.204 106.01Z" fill="white"/>
<path d="M260.9 125.388H248.879C248.773 125.388 248.669 125.355 248.582 125.294C248.494 125.233 248.428 125.146 248.391 125.046C248.245 124.69 248.183 124.305 248.211 123.921C248.238 123.537 248.355 123.165 248.55 122.834C249.46 121.295 251.983 120.661 252.881 120.48L255.591 112.249C256.281 110.115 255.532 107.467 253.636 105.343L250.832 102.21C250.825 102.204 250.819 102.197 250.812 102.189C249.616 100.825 248.927 99.0888 248.862 97.2748L248.854 97.0629C248.849 96.9377 248.889 96.815 248.968 96.7173C249.046 96.6195 249.157 96.5534 249.28 96.5311L261.489 94.3194C261.594 94.3004 261.701 94.3139 261.798 94.358C261.894 94.4021 261.975 94.4746 262.029 94.5659L268.651 105.745C268.707 105.839 268.732 105.948 268.722 106.056C268.625 107.154 268.363 108.23 267.945 109.25L261.381 125.066C261.341 125.162 261.275 125.243 261.189 125.3C261.104 125.357 261.003 125.388 260.9 125.388ZM249.274 124.348H260.554L266.986 108.852C267.343 107.981 267.573 107.064 267.671 106.128L261.319 95.4068L249.915 97.4726C250.017 98.957 250.602 100.367 251.58 101.488L251.587 101.495C251.593 101.502 251.599 101.509 251.605 101.515L254.411 104.651C256.553 107.051 257.384 110.086 256.58 112.572L253.774 121.098C253.744 121.189 253.689 121.27 253.616 121.332C253.543 121.394 253.454 121.435 253.36 121.449C252.508 121.581 250.144 122.183 249.446 123.363C249.268 123.659 249.207 124.01 249.274 124.348Z" fill="#222433"/>
<path d="M254.717 121.455H253.279C253.141 121.455 253.009 121.401 252.912 121.303C252.814 121.206 252.759 121.074 252.759 120.936C252.759 120.798 252.814 120.666 252.912 120.568C253.009 120.471 253.141 120.416 253.279 120.416H254.717C254.854 120.416 254.987 120.471 255.084 120.568C255.182 120.666 255.236 120.798 255.236 120.936C255.236 121.074 255.182 121.206 255.084 121.303C254.987 121.401 254.854 121.455 254.717 121.455Z" fill="#222433"/>
<path d="M199.549 110.143C199.549 110.143 213.527 106.107 221.685 106.245C222.247 106.253 222.808 106.224 223.366 106.159L223.418 106.245L221.963 120.971C221.963 120.971 217.13 121.819 217.823 124.868H232.39L236.322 107.822C236.457 107.216 236.446 106.586 236.287 105.985L235.11 101.747C241.699 98.5747 249.185 95.3022 258.692 97.7795C259.715 99.9229 261.21 101.806 263.065 103.288C264.921 104.769 267.089 105.81 269.405 106.332L271.379 106.782C272.335 107 273.199 107.508 273.854 108.237C274.508 108.966 274.921 109.88 275.034 110.853L276.143 120.468C276.143 120.468 271.795 121.785 272.09 124.868H284.11L286.102 108.532C286.275 107.133 286.126 105.713 285.667 104.38C285.207 103.047 284.45 101.836 283.452 100.84L276.004 92.6115L275.742 87.6291C275.754 87.4039 275.762 87.1768 275.762 86.9466C275.764 86.7962 275.759 86.6458 275.744 86.4962C275.627 83.0801 274.399 79.7956 272.245 77.1413C276.541 75.2183 284.041 70.8874 290.173 62.3121C296.339 53.7194 297.292 45.3347 297.274 40.8825C297.309 39.6698 295.802 39.1155 295.005 40.0336L271.206 66.8682C269.917 68.329 268.31 69.4733 266.507 70.2124C264.705 70.9514 262.757 71.2654 260.814 71.1299C260.415 71.0953 260.017 71.0779 259.601 71.0779L241.622 71.0953H241.466C228.213 71.1094 215.333 75.4866 204.815 83.5511C201.593 86.0111 198.198 88.4537 194.561 90.4806C191.27 92.317 185.277 93.6856 184.826 94.1879L180.617 98.8481C179.694 100.059 179.184 101.535 179.162 103.058L179.093 109.034L171.385 120.104L173.897 122.356C174.8 123.154 175.911 123.676 177.101 123.864L178.643 124.089C180.09 124.342 181.576 124.278 182.996 123.901C184.416 123.524 185.738 122.843 186.87 121.906L190.196 118.926L191.361 117.832" fill="white"/>
<path d="M284.11 125.388H272.09C271.96 125.388 271.836 125.34 271.74 125.253C271.645 125.166 271.585 125.046 271.572 124.918C271.295 122.025 274.423 120.556 275.579 120.115L274.518 110.913C274.416 110.046 274.049 109.233 273.466 108.584C272.883 107.935 272.113 107.482 271.263 107.289L269.289 106.838C266.934 106.314 264.727 105.268 262.83 103.777C260.933 102.286 259.396 100.387 258.33 98.2222C249.584 96.0221 242.629 98.7257 235.728 102.027L236.788 105.846C236.97 106.53 236.984 107.247 236.828 107.937L232.896 124.985C232.87 125.099 232.805 125.202 232.714 125.275C232.622 125.348 232.508 125.388 232.39 125.388H217.823C217.705 125.388 217.591 125.348 217.499 125.274C217.407 125.201 217.342 125.098 217.316 124.983C217.22 124.602 217.206 124.205 217.273 123.818C217.341 123.431 217.49 123.062 217.709 122.737C218.623 121.363 220.631 120.748 221.483 120.542L222.848 106.729C222.446 106.759 222.06 106.771 221.677 106.765C213.693 106.622 199.832 110.602 199.693 110.642C199.627 110.663 199.558 110.67 199.489 110.664C199.42 110.657 199.353 110.637 199.292 110.604C199.231 110.571 199.177 110.527 199.134 110.473C199.09 110.419 199.058 110.357 199.039 110.29C199.019 110.224 199.014 110.154 199.022 110.085C199.03 110.017 199.052 109.95 199.086 109.89C199.12 109.83 199.166 109.777 199.221 109.734C199.275 109.692 199.338 109.661 199.405 109.644C199.979 109.478 213.552 105.587 221.694 105.725C222.233 105.734 222.771 105.706 223.305 105.641C223.405 105.63 223.505 105.647 223.595 105.692C223.684 105.736 223.759 105.805 223.811 105.891L223.863 105.977C223.92 106.073 223.945 106.184 223.934 106.295L222.479 121.02C222.468 121.133 222.42 121.239 222.343 121.323C222.266 121.406 222.163 121.462 222.052 121.481C222.026 121.486 219.476 121.953 218.573 123.313C218.365 123.617 218.261 123.979 218.275 124.347H231.976L235.815 107.704C235.932 107.179 235.921 106.633 235.783 106.114L234.609 101.884C234.576 101.767 234.586 101.642 234.636 101.531C234.687 101.42 234.774 101.33 234.884 101.277C242.157 97.776 249.461 94.8352 258.822 97.2751C258.895 97.2942 258.963 97.3291 259.022 97.3774C259.08 97.4256 259.127 97.486 259.16 97.5544C260.143 99.6306 261.587 101.455 263.382 102.888C265.177 104.321 267.276 105.326 269.518 105.824L271.493 106.275C272.553 106.517 273.513 107.081 274.239 107.89C274.965 108.7 275.423 109.714 275.549 110.794L276.658 120.408C276.671 120.529 276.643 120.651 276.576 120.752C276.509 120.854 276.409 120.929 276.292 120.965C276.255 120.976 272.823 122.051 272.605 124.348H283.649L285.585 108.468C285.75 107.147 285.611 105.806 285.177 104.547C284.744 103.288 284.027 102.146 283.083 101.207C283.077 101.201 283.071 101.194 283.066 101.188L275.618 92.9594C275.538 92.8709 275.491 92.7576 275.485 92.6384L275.222 87.6562C275.221 87.6376 275.221 87.6189 275.222 87.6003C275.235 87.3697 275.241 87.1559 275.241 86.9463C275.244 86.8151 275.239 86.6839 275.227 86.5532C275.226 86.5401 275.225 86.5269 275.224 86.5137C275.113 83.2097 273.925 80.0326 271.84 77.467C271.79 77.4051 271.755 77.3326 271.738 77.255C271.72 77.1774 271.721 77.0969 271.74 77.0195C271.758 76.9422 271.794 76.8702 271.845 76.809C271.896 76.7479 271.96 76.6992 272.033 76.6667C276.007 74.8875 283.595 70.6172 289.749 62.0097C295.883 53.4635 296.772 45.1056 296.755 40.8843C296.765 40.7276 296.725 40.5717 296.64 40.4396C296.555 40.3075 296.43 40.2062 296.283 40.1506C296.131 40.0895 295.963 40.0781 295.804 40.1183C295.645 40.1584 295.503 40.248 295.398 40.3741L271.595 67.2129C270.251 68.7305 268.576 69.9194 266.7 70.6883C264.825 71.4571 262.797 71.7854 260.775 71.6478C260.382 71.6132 260 71.5974 259.601 71.5974L241.466 71.6147C228.331 71.6535 215.57 75.9905 205.13 83.9637C202.202 86.1997 198.687 88.7761 194.814 90.9344C192.802 92.057 189.844 92.996 187.685 93.6811C186.628 94.0163 185.433 94.3959 185.195 94.5558L181.018 99.1792C180.174 100.3 179.706 101.66 179.682 103.063L179.613 109.04C179.612 109.144 179.579 109.246 179.52 109.331L172.074 120.024L174.243 121.969C175.072 122.7 176.092 123.179 177.183 123.35L178.717 123.574C180.092 123.818 181.502 123.76 182.852 123.404C184.201 123.047 185.457 122.402 186.531 121.512L189.85 118.539L191.006 117.453C191.056 117.406 191.114 117.37 191.178 117.345C191.242 117.321 191.31 117.31 191.378 117.312C191.446 117.314 191.513 117.33 191.575 117.358C191.638 117.386 191.694 117.426 191.74 117.476C191.787 117.526 191.824 117.584 191.848 117.648C191.872 117.712 191.883 117.78 191.881 117.848C191.879 117.916 191.863 117.983 191.835 118.045C191.807 118.108 191.767 118.164 191.717 118.21L190.552 119.305L187.217 122.293C187.212 122.298 187.206 122.302 187.201 122.307C186.012 123.294 184.623 124.01 183.129 124.406C181.635 124.803 180.074 124.869 178.552 124.601L177.026 124.378C175.736 124.176 174.531 123.61 173.553 122.746L171.039 120.491C170.944 120.407 170.884 120.29 170.87 120.164C170.855 120.038 170.887 119.911 170.959 119.807L178.576 108.868L178.643 103.051C178.67 101.418 179.217 99.8359 180.204 98.5342C180.213 98.5221 180.222 98.5105 180.232 98.4996L184.441 93.8395C184.702 93.5479 185.398 93.3165 187.371 92.6904C189.488 92.0184 192.388 91.098 194.308 90.0265C198.124 87.9003 201.601 85.3511 204.5 83.1378C209.772 79.1001 215.667 75.9495 221.954 73.8102C228.236 71.6675 234.828 70.5746 241.466 70.5753H241.622L259.601 70.558C260.031 70.558 260.443 70.5753 260.859 70.612C262.721 70.7369 264.587 70.4333 266.314 69.7245C268.04 69.0158 269.581 67.9208 270.819 66.5236L294.618 39.689C294.863 39.4019 295.192 39.1987 295.559 39.1078C295.925 39.017 296.311 39.0431 296.662 39.1824C297.006 39.3143 297.3 39.5505 297.504 39.8581C297.707 40.1656 297.809 40.529 297.796 40.8975C297.813 45.2284 296.9 53.832 290.597 62.6153C286.094 68.9321 280.059 73.9994 273.059 77.3406C275.033 79.9814 276.152 83.1633 276.265 86.4588C276.28 86.6208 276.286 86.7834 276.283 86.946C276.283 87.1661 276.277 87.3898 276.264 87.629L276.515 92.3992L283.831 100.482C284.883 101.532 285.682 102.809 286.165 104.215C286.649 105.621 286.804 107.119 286.619 108.595L284.627 124.931C284.612 125.057 284.551 125.173 284.456 125.258C284.36 125.342 284.238 125.388 284.11 125.388ZM185.213 94.5348L185.212 94.5364L185.213 94.5348Z" fill="#222433"/>
<path d="M174.313 122.529L173.711 116.765L171.385 120.139L174.313 122.529Z" fill="#222433"/>
<path d="M183.371 107.648L182.557 106.124C182.521 106.06 182.503 105.987 182.505 105.914C182.507 105.841 182.529 105.769 182.568 105.707C182.607 105.645 182.662 105.595 182.727 105.561C182.792 105.528 182.865 105.513 182.938 105.517L184.289 105.552C184.369 105.554 184.446 105.579 184.512 105.623C184.578 105.667 184.63 105.729 184.662 105.801C184.695 105.873 184.706 105.953 184.696 106.032C184.685 106.11 184.652 106.184 184.601 106.245L183.371 107.648Z" fill="#222433"/>
<path d="M277.892 120.988H275.952C275.814 120.988 275.682 120.933 275.585 120.835C275.487 120.738 275.432 120.606 275.432 120.468C275.432 120.33 275.487 120.198 275.585 120.1C275.682 120.003 275.814 119.948 275.952 119.948H277.892C278.03 119.948 278.162 120.003 278.26 120.1C278.357 120.198 278.412 120.33 278.412 120.468C278.412 120.606 278.357 120.738 278.26 120.835C278.162 120.933 278.03 120.988 277.892 120.988Z" fill="#222433"/>
<path d="M177.678 124.346C176.306 124.345 174.983 123.836 173.965 122.916L173.272 122.292C173.17 122.2 173.108 122.071 173.101 121.933C173.094 121.796 173.141 121.661 173.234 121.558C173.326 121.456 173.455 121.394 173.593 121.387C173.73 121.38 173.865 121.427 173.968 121.52L174.66 122.143C175.336 122.752 176.179 123.144 177.08 123.265C177.982 123.387 178.899 123.234 179.711 122.826L182.292 121.544C182.353 121.513 182.42 121.494 182.489 121.488C182.558 121.483 182.627 121.491 182.692 121.513C182.758 121.534 182.818 121.568 182.87 121.613C182.922 121.658 182.965 121.713 182.995 121.775C183.026 121.837 183.044 121.904 183.049 121.973C183.053 122.041 183.044 122.11 183.021 122.175C182.999 122.241 182.964 122.301 182.918 122.352C182.872 122.403 182.817 122.445 182.755 122.475L180.174 123.757C179.398 124.143 178.544 124.345 177.678 124.346Z" fill="#222433"/>
<path d="M185.571 97.9298L189.364 115.895C189.48 116.44 189.774 116.931 190.201 117.289C190.628 117.647 191.163 117.851 191.72 117.87L194.786 117.974C195.326 117.992 195.858 117.835 196.301 117.525C196.745 117.216 197.076 116.772 197.246 116.258L200.103 107.579C200.302 106.971 200.369 106.328 200.3 105.691C200.231 105.055 200.029 104.441 199.705 103.889L195.375 96.5093" fill="white"/>
<path d="M194.864 118.494C194.832 118.494 194.801 118.494 194.77 118.493L191.702 118.389C191.03 118.367 190.383 118.121 189.867 117.688C189.351 117.256 188.995 116.663 188.856 116.004L185.063 98.037C185.037 97.9029 185.064 97.7637 185.139 97.6496C185.214 97.5355 185.332 97.4556 185.465 97.4274C185.599 97.3991 185.739 97.4247 185.854 97.4986C185.969 97.5725 186.05 97.6887 186.08 97.8222L189.873 115.787C189.964 116.218 190.197 116.607 190.535 116.89C190.872 117.174 191.295 117.335 191.736 117.35L194.804 117.454C195.231 117.467 195.652 117.341 196.002 117.097C196.353 116.852 196.616 116.501 196.752 116.096L199.61 107.417C199.784 106.878 199.843 106.309 199.782 105.746C199.721 105.184 199.542 104.64 199.257 104.152L194.926 96.7716C194.891 96.7127 194.867 96.6474 194.857 96.5793C194.847 96.5112 194.85 96.4418 194.867 96.3751C194.884 96.3083 194.914 96.2456 194.955 96.1906C194.997 96.1355 195.049 96.0893 195.108 96.0544C195.167 96.0196 195.233 95.9969 195.301 95.9876C195.369 95.9784 195.439 95.9828 195.505 96.0005C195.572 96.0183 195.634 96.0491 195.688 96.0912C195.743 96.1332 195.789 96.1857 195.823 96.2455L200.153 103.625C200.512 104.241 200.738 104.926 200.814 105.635C200.891 106.343 200.817 107.06 200.597 107.739L197.74 116.42C197.538 117.024 197.151 117.548 196.635 117.92C196.119 118.292 195.5 118.493 194.864 118.494Z" fill="#222433"/>
<path d="M235.144 102.469C235.03 102.468 234.919 102.431 234.829 102.362C234.738 102.292 234.673 102.195 234.643 102.085L233.794 98.9669C233.759 98.8341 233.777 98.6926 233.846 98.5734C233.914 98.4541 234.027 98.3669 234.16 98.3308C234.292 98.2946 234.434 98.3125 234.553 98.3805C234.673 98.4486 234.76 98.5612 234.797 98.6937L235.646 101.812C235.667 101.889 235.669 101.97 235.654 102.048C235.638 102.127 235.605 102.201 235.557 102.264C235.508 102.328 235.445 102.379 235.374 102.415C235.302 102.45 235.223 102.468 235.143 102.469H235.144Z" fill="#222433"/>
<path d="M276.056 93.1308C275.972 93.1309 275.889 93.1105 275.814 93.0714C275.74 93.0324 275.676 92.9758 275.628 92.9065L273.653 90.0481C273.578 89.9346 273.549 89.7958 273.575 89.6617C273.6 89.5276 273.678 89.409 273.79 89.3314C273.902 89.2538 274.041 89.2235 274.175 89.2471C274.309 89.2706 274.429 89.3461 274.508 89.4573L276.483 92.3157C276.537 92.3937 276.568 92.4848 276.574 92.5793C276.579 92.6737 276.559 92.7679 276.515 92.8517C276.471 92.9355 276.405 93.0057 276.324 93.0547C276.243 93.1038 276.151 93.1298 276.056 93.13L276.056 93.1308Z" fill="#222433"/>
<path d="M189.395 37.0005H191.602C192.61 37.0003 193.427 37.8173 193.427 38.8254C193.427 39.1093 193.361 39.3893 193.234 39.643L190.497 45.1189L187.76 39.643C187.309 38.7416 187.674 37.645 188.575 37.1936C188.83 37.0663 189.11 37.0001 189.395 37.0005Z" fill="#9AE2E0"/>
<path d="M198.615 44.0143V46.2213C198.617 47.2294 197.8 48.0477 196.792 48.0489C196.508 48.0492 196.227 47.9831 195.973 47.8558L190.497 45.1188L195.973 42.3799C196.876 41.9296 197.973 42.2967 198.423 43.1997C198.55 43.4526 198.615 43.7315 198.615 44.0143Z" fill="#9AE2E0"/>
<path d="M293.657 125.433H1.82509C1.51892 125.433 1.28479 125.199 1.28479 124.892C1.28479 124.585 1.51892 124.351 1.82509 124.351H293.657C293.963 124.351 294.197 124.585 294.197 124.892C294.197 125.199 293.963 125.433 293.657 125.433Z" fill="#222433"/>
</svg>
