<svg viewBox="0 0 294 145" fill="none" xmlns="http://www.w3.org/2000/svg">
<path d="M57.0386 67.417H50.5911V142.113H57.0386V67.417Z" fill="white"/>
<path d="M57.0387 142.613H50.5912C50.4583 142.613 50.3308 142.56 50.2369 142.467C50.1429 142.373 50.0901 142.245 50.0901 142.113V67.4168C50.0901 67.2841 50.1429 67.1569 50.2369 67.063C50.3308 66.9692 50.4583 66.9165 50.5912 66.9165H57.0387C57.1716 66.9165 57.299 66.9692 57.393 67.063C57.487 67.1569 57.5398 67.2841 57.5398 67.4168V142.113C57.5398 142.245 57.487 142.373 57.393 142.467C57.299 142.56 57.1716 142.613 57.0387 142.613ZM51.0923 141.612H56.5376V67.9171H51.0923V141.612Z" fill="#222433"/>
<path d="M59.6778 67.3001H26.2544V50.74C26.2546 46.8876 27.7875 43.1931 30.5158 40.469C33.2442 37.745 36.9445 36.2146 40.803 36.2144H71.8044" fill="white"/>
<path d="M59.6777 67.8008H26.2543C26.1214 67.8008 25.9939 67.748 25.8999 67.6542C25.806 67.5604 25.7532 67.4331 25.7532 67.3004V50.7403C25.7576 46.7565 27.3446 42.9372 30.166 40.1202C32.9874 37.3033 36.8128 35.7188 40.8029 35.7144H71.8043C71.9372 35.7144 72.0647 35.7671 72.1586 35.8609C72.2526 35.9547 72.3054 36.082 72.3054 36.2147C72.3054 36.3474 72.2526 36.4746 72.1586 36.5684C72.0647 36.6623 71.9372 36.715 71.8043 36.715H40.8029C37.0786 36.7194 33.5081 38.1985 30.8747 40.8278C28.2412 43.4571 26.7598 47.0219 26.7554 50.7403V66.8001H59.6777C59.8106 66.8001 59.938 66.8529 60.032 66.9467C60.126 67.0405 60.1788 67.1678 60.1788 67.3004C60.1788 67.4331 60.126 67.5604 60.032 67.6542C59.938 67.748 59.8106 67.8008 59.6777 67.8008Z" fill="#222433"/>
<path d="M86.3366 67.3168V50.7399C86.3395 48.8338 85.9655 46.9458 85.2362 45.1842C84.5069 43.4226 83.4366 41.8221 82.0867 40.4742C80.7367 39.1264 79.1336 38.0578 77.3692 37.3296C75.6048 36.6015 73.7139 36.2281 71.8047 36.231C67.9463 36.2312 64.2459 37.7616 61.5175 40.4857C58.7892 43.2097 57.2563 46.9042 57.2561 50.7566V67.3168H86.3366Z" fill="white"/>
<path d="M86.3365 67.8174H57.256C57.1231 67.8174 56.9956 67.7647 56.9017 67.6709C56.8077 67.5771 56.7549 67.4498 56.7549 67.3171V50.7569C56.7557 47.7839 57.6395 44.8779 59.2947 42.4065C60.9499 39.935 63.3021 38.0092 66.0536 36.8726C68.8052 35.7361 71.8325 35.4398 74.7528 36.0212C77.673 36.6027 80.355 38.0358 82.4593 40.1392C83.8559 41.5289 84.9621 43.1818 85.7137 45.0017C86.4653 46.8217 86.8473 48.7727 86.8376 50.7413V67.3171C86.8376 67.4498 86.7848 67.5771 86.6908 67.6709C86.5969 67.7647 86.4694 67.8174 86.3365 67.8174ZM57.7571 66.8168H85.8354V50.7403C85.8383 48.8998 85.4773 47.0769 84.7732 45.376C84.0691 43.6751 83.0357 42.1297 81.7323 40.8283C80.4288 39.5269 78.8809 38.4952 77.1773 37.7922C75.4738 37.0892 73.648 36.7288 71.8046 36.7317C68.0803 36.7361 64.5099 38.2151 61.8764 40.8444C59.2429 43.4737 57.7615 47.0386 57.7571 50.7569V66.8168Z" fill="#222433"/>
<path d="M110.172 67.8004H57.2726C57.1397 67.8004 57.0122 67.7477 56.9183 67.6539C56.8243 67.5601 56.7715 67.4328 56.7715 67.3001C56.7715 67.1674 56.8243 67.0402 56.9183 66.9463C57.0122 66.8525 57.1397 66.7998 57.2726 66.7998H110.172C110.305 66.7998 110.432 66.8525 110.526 66.9463C110.62 67.0402 110.673 67.1674 110.673 67.3001C110.673 67.4328 110.62 67.5601 110.526 67.6539C110.432 67.7477 110.305 67.8004 110.172 67.8004Z" fill="#222433"/>
<path d="M144.949 26.7071L172.819 3.55571C174.195 2.40654 175.816 1.58899 177.557 1.16611C179.298 0.743238 181.113 0.726337 182.862 1.11671C184.611 1.50709 186.247 2.29431 187.644 3.41766C189.041 4.54102 190.161 5.97048 190.919 7.59582L168.609 21.6148L144.949 26.7071Z" fill="white"/>
<path d="M163.513 10.5152C164.645 11.1845 165.934 11.5422 167.248 11.5521C168.563 11.5619 169.857 11.2235 170.999 10.5712C172.14 9.91897 173.089 8.976 173.749 7.83803C174.41 6.70005 174.757 5.40756 174.757 4.0917C174.757 3.44194 174.673 2.79491 174.506 2.16699C173.897 2.77773 163.949 10.1761 163.513 10.5152Z" fill="#0782D0"/>
<path d="M144.949 26.8744C144.846 26.8743 144.745 26.8425 144.661 26.7832C144.577 26.7238 144.512 26.6399 144.477 26.5428C144.443 26.4457 144.438 26.3402 144.465 26.2406C144.493 26.141 144.55 26.0522 144.629 25.9863L172.499 2.83492C173.933 1.63694 175.624 0.784738 177.439 0.344009C179.255 -0.0967208 181.148 -0.114201 182.971 0.292916C184.795 0.700033 186.501 1.52087 187.957 2.69215C189.414 3.86342 190.582 5.35384 191.372 7.0485C191.424 7.15941 191.434 7.28548 191.399 7.40296C191.364 7.52044 191.288 7.62123 191.185 7.68633L168.876 21.7051C168.827 21.7361 168.772 21.7583 168.715 21.7705L145.055 26.8628C145.02 26.8704 144.985 26.8742 144.949 26.8744ZM180.32 1.00155C177.696 1.00141 175.155 1.92316 173.14 3.60608L146.843 25.4517L168.418 20.8073L190.268 7.0766C189.326 5.24826 187.9 3.71448 186.145 2.64303C184.39 1.57158 182.375 1.00371 180.32 1.00155Z" fill="#222433"/>
<path d="M174.49 41.762L170.88 83.9496C170.652 86.8885 169.327 89.6336 167.169 91.6391C165.01 93.6445 162.177 94.7631 159.232 94.7726C158.723 94.7719 158.215 94.7384 157.711 94.6722L109.846 88.416L112.871 65.1977L148.502 69.8481L149.722 54.5588C146.815 53.5134 144.287 51.6213 142.463 49.1259L139.271 36.4429C140.073 28.7815 146.279 24.1981 152.011 22.6758C159.197 20.7689 167.37 20.8358 171.932 16.1352C174.926 12.3716 179.052 9.67346 183.698 8.44043L196.304 53.0585L180.005 71.9725L182.713 113.207L149.355 115.398L147.91 93.3912" fill="white"/>
<path d="M150.192 54.3468C149.328 54.3177 148.488 53.9086 147.768 53.4536C145.853 52.272 144.202 50.7081 142.918 48.8594C142.189 49.1759 132.885 50.4168 132.388 50.6018C131.383 50.9757 126.209 57.5733 116.033 50.9531C114.378 49.8763 113.227 48.0342 112.462 46.1943C110.485 52.518 111.049 59.3643 114.034 65.2783C115.252 65.2832 148.486 70.0973 148.67 69.8489C148.845 69.6113 150.058 56.1869 150.192 54.3468Z" fill="#113C7B"/>
<path d="M147.937 93.2151C133.871 91.4921 113.706 88.6578 111.509 88.7923C111.441 88.7965 111.373 88.7932 111.306 88.7822C111.303 88.9443 111.3 89.1066 111.3 89.2695C111.301 93.7411 112.482 98.1331 114.724 102.001C116.966 105.869 120.188 109.075 124.066 111.296C127.944 113.516 132.339 114.671 136.807 114.645C141.274 114.618 145.655 113.411 149.506 111.145C149.349 110.524 148.012 96.3932 147.937 93.2151Z" fill="#113C7B"/>
<path d="M151.19 115.33C149.668 121.959 143.858 129.515 134.23 130.989C128.999 131.792 125.74 137.027 126.124 142.347L155.037 142.364L171.649 126.723L171.582 142.364H179.487L179.518 113.424C177.353 113.845 153.601 115.256 151.19 115.33Z" fill="#0782D0"/>
<path d="M277.947 104.716C277.662 105.349 254.032 123.175 253.874 123.121C253.689 124.851 252.975 126.483 251.83 127.792C250.684 129.101 249.163 130.025 247.473 130.436C246.621 130.637 245.852 130.821 245.217 130.972C240.053 132.159 236.711 137.01 237.112 142.33H255.612C260.105 142.333 264.478 140.877 268.073 138.181C271.668 135.484 274.292 131.692 275.55 127.375L278.191 118.342L287.383 131.005L293.75 126.338L277.947 104.716Z" fill="#0782D0"/>
<path d="M157.343 37.7645C161.46 37.7645 164.797 34.4243 164.797 30.3039C164.797 26.1835 161.46 22.8433 157.343 22.8433C153.227 22.8433 149.889 26.1835 149.889 30.3039C149.889 34.4243 153.227 37.7645 157.343 37.7645Z" fill="#0782D0"/>
<path d="M163.794 26.5654C163.164 28.1555 161.975 29.4594 160.45 30.2305C160.068 30.4225 159.67 30.5799 159.26 30.7006C157.602 31.1788 155.827 31.0242 154.277 30.2667C152.727 29.5091 151.514 28.2027 150.872 26.6006C150.653 26.9794 150.47 27.3775 150.323 27.7899C151.281 29.57 152.879 30.9189 154.793 31.5626C156.708 32.2063 158.795 32.0967 160.632 31.2559L160.697 31.2258C162.256 30.4917 163.536 29.2738 164.349 27.7531C164.199 27.3414 164.014 26.9439 163.794 26.5654Z" fill="#222433"/>
<path d="M160.906 30.9999C160.862 31.0956 160.789 31.1748 160.697 31.2257L160.632 31.2558C160.574 31.2791 160.513 31.2911 160.451 31.2909C160.378 31.2908 160.307 31.2748 160.241 31.2441C159.901 31.0865 159.573 30.9048 159.26 30.7004C158.146 29.9764 157.23 28.9859 156.595 27.8185C155.959 26.6511 155.625 25.3436 155.621 24.0143C155.621 23.6849 155.642 23.3558 155.683 23.029C156.024 22.9511 156.371 22.8979 156.719 22.8701C156.656 23.2482 156.624 23.6309 156.624 24.0143C156.628 25.3025 156.987 26.5647 157.662 27.6615C158.337 28.7583 159.302 29.6473 160.45 30.2304C160.52 30.2655 160.592 30.3006 160.663 30.3341C160.723 30.3618 160.777 30.401 160.821 30.4495C160.866 30.498 160.9 30.5548 160.923 30.6166C160.945 30.6785 160.955 30.7442 160.952 30.8099C160.95 30.8757 160.934 30.9402 160.906 30.9999Z" fill="#222433"/>
<path d="M188.952 28.9463C187.217 29.5247 185.755 30.7197 184.841 32.3049C184.621 32.6831 184.437 33.0807 184.289 33.4926C183.825 34.7801 183.724 36.1706 183.996 37.512C184.269 38.8534 184.905 40.0939 185.834 41.0977C186.764 42.1015 187.952 42.8299 189.267 43.2032C190.583 43.5766 191.976 43.5804 193.294 43.2143C193.136 42.8471 189.221 29.9707 188.952 28.9463Z" fill="#0782D0"/>
<path d="M191.512 37.0691C191.479 36.9427 191.444 36.817 191.405 36.6921C191.371 36.6921 191.337 36.6941 191.302 36.6941C189.91 36.6928 188.551 36.2739 187.399 35.4915C186.247 34.709 185.356 33.599 184.841 32.3047C184.622 32.6829 184.437 33.0805 184.29 33.4924C184.97 34.7621 185.981 35.8236 187.216 36.5641C188.451 37.3046 189.863 37.6963 191.302 37.6977C191.399 37.6977 191.495 37.696 191.59 37.6924C191.549 37.4869 191.523 37.2786 191.512 37.0691Z" fill="#222433"/>
<path d="M112.42 68.9406C110.755 68.0063 108.822 67.654 107.139 68.1084C102.392 69.3964 96.9441 74.6155 90.6435 70.0823C87.9563 68.152 84.0147 65.8501 82.0398 67.9411C77.8784 65.7354 75.0386 68.6796 77.8084 72.2234C80.5325 75.7028 89.2397 83.7656 99.1836 83.3307C106.036 83.0296 110.398 82.394 110.782 82.5445" fill="white"/>
<path d="M98.429 83.8493C94.2705 83.8493 89.8253 82.4126 85.5193 79.6685C81.8127 77.3064 78.9012 74.4337 77.4138 72.5333C75.7741 70.4356 76.037 68.6755 76.8297 67.7277C77.873 66.48 79.8578 66.3383 81.9524 67.3366C83.7099 65.8677 86.7291 66.6533 90.9358 69.6748C95.3479 72.8496 99.2636 71.009 103.051 69.229C104.425 68.5831 105.723 67.9731 107.008 67.6243C108.762 67.1499 110.825 67.4706 112.665 68.503C112.722 68.5352 112.773 68.5785 112.814 68.6303C112.854 68.682 112.885 68.7413 112.902 68.8048C112.92 68.8682 112.925 68.9346 112.918 69C112.91 69.0655 112.889 69.1288 112.857 69.1863C112.825 69.2438 112.782 69.2944 112.73 69.3352C112.678 69.3759 112.619 69.4061 112.556 69.424C112.492 69.4419 112.426 69.4471 112.361 69.4393C112.295 69.4315 112.232 69.4109 112.175 69.3787C110.561 68.4729 108.773 68.1872 107.269 68.5925C106.07 68.9182 104.81 69.5102 103.477 70.1368C99.6163 71.9516 95.2406 74.0078 90.3509 70.4893C86.4425 67.6827 83.6945 66.9211 82.4043 68.2867C82.329 68.3665 82.2296 68.4194 82.1214 68.4372C82.0133 68.4551 81.9022 68.4369 81.8053 68.3856C79.7864 67.315 78.2379 67.6076 77.5986 68.3719C76.9086 69.1971 77.14 70.5545 78.2033 71.9145C80.6944 75.0963 89.3211 83.26 99.1619 82.8298C103.034 82.6595 106.094 82.3836 108.12 82.201C110.301 82.0041 110.709 81.977 110.965 82.0775C111.085 82.1244 111.183 82.216 111.238 82.3332C111.292 82.4503 111.299 82.5841 111.258 82.7065C111.216 82.8289 111.129 82.9305 111.015 82.9902C110.9 83.05 110.767 83.0631 110.643 83.027C110.415 83.0036 109.392 83.0939 108.21 83.2006C106.175 83.3846 103.101 83.6613 99.2062 83.8324C98.9482 83.8437 98.6892 83.8493 98.429 83.8493ZM110.6 83.0129H110.601H110.6Z" fill="#222433"/>
<path d="M98.5447 81.4426C95.2972 81.4426 93.0283 80.6982 92.6242 78.5035C92.4882 77.7653 92.6055 77.1243 92.9725 76.5986C93.9167 75.2463 96.3664 74.8291 99.7577 74.2515C101.897 73.8872 104.321 73.4741 106.938 72.7436C107.002 72.7251 107.068 72.7194 107.134 72.7268C107.2 72.7342 107.264 72.7547 107.322 72.7869C107.38 72.8192 107.431 72.8627 107.472 72.9148C107.513 72.9669 107.543 73.0267 107.561 73.0906C107.579 73.1546 107.584 73.2214 107.576 73.2873C107.567 73.3532 107.546 73.4168 107.513 73.4744C107.481 73.532 107.437 73.5826 107.384 73.6231C107.331 73.6636 107.271 73.6932 107.207 73.7103C104.541 74.4547 102.089 74.8724 99.9259 75.2409C96.8939 75.7575 94.499 76.1653 93.7949 77.1735C93.5815 77.4793 93.5228 77.8443 93.6111 78.3217C94.1945 81.4898 101.51 80.4656 108.323 79.2566C108.453 79.2334 108.588 79.2632 108.697 79.3395C108.806 79.4157 108.881 79.5322 108.904 79.6633C108.927 79.7944 108.897 79.9293 108.821 80.0384C108.745 80.1475 108.628 80.2219 108.498 80.2451C104.834 80.895 101.329 81.4425 98.5447 81.4426Z" fill="#222433"/>
<path d="M153.566 54.3586C152.373 54.3573 151.197 54.6442 150.138 55.195C150.121 57.4596 149.666 59.6814 149.322 61.9122C149.138 63.0999 149.02 64.307 148.908 65.504C148.848 66.149 148.732 66.7716 148.618 67.3964C149.52 68.199 150.604 68.7701 151.776 69.0607C152.948 69.3513 154.172 69.3526 155.345 69.0646C156.517 68.7766 157.602 68.2078 158.507 67.4072C159.411 66.6066 160.107 65.5982 160.536 64.4685C160.965 63.3389 161.113 62.122 160.968 60.9224C160.823 59.7228 160.389 58.5764 159.703 57.5818C159.018 56.5872 158.101 55.7742 157.032 55.2128C155.963 54.6513 154.773 54.3581 153.566 54.3584V54.3586Z" fill="#0782D0"/>
<path d="M160.032 58.106C159.402 59.6858 158.22 60.9826 156.706 61.7543C156.325 61.9486 155.927 62.1065 155.516 62.226C154.497 62.5244 153.423 62.5847 152.377 62.4024C151.331 62.22 150.34 61.7998 149.482 61.1742C149.484 61.1956 149.487 61.2168 149.488 61.2392C149.483 61.6064 149.46 61.9731 149.417 62.3378C150.342 62.9042 151.372 63.2756 152.444 63.429C153.517 63.5824 154.61 63.5146 155.655 63.2298C156.701 62.945 157.677 62.4492 158.524 61.7729C159.372 61.0966 160.072 60.254 160.581 59.297C160.434 58.8842 160.25 58.4856 160.032 58.106Z" fill="#222433"/>
<path d="M157.146 62.5157C157.118 62.5755 157.079 62.6294 157.031 62.674C156.982 62.7187 156.925 62.7534 156.864 62.7761C156.802 62.7988 156.736 62.8091 156.67 62.8063C156.605 62.8035 156.54 62.7877 156.48 62.7599C156.147 62.6053 155.824 62.427 155.516 62.2263C154.398 61.5031 153.478 60.5119 152.84 59.3425C152.201 58.1731 151.865 56.8627 151.861 55.5301C151.861 55.1996 151.881 54.8694 151.923 54.5415C152.264 54.4643 152.61 54.4118 152.959 54.3843C152.896 54.7629 152.864 55.1462 152.864 55.5301C152.868 56.8215 153.229 58.0866 153.907 59.1852C154.585 60.2839 155.554 61.1731 156.706 61.7546C156.771 61.7864 156.836 61.8198 156.903 61.8499C156.963 61.8776 157.016 61.9169 157.061 61.9653C157.105 62.0138 157.14 62.0706 157.162 62.1325C157.185 62.1943 157.195 62.26 157.192 62.3258C157.189 62.3915 157.173 62.4561 157.146 62.5157Z" fill="#222433"/>
<path d="M171.888 73.5781C170.316 73.8381 168.869 74.5954 167.758 75.7389C166.648 76.8825 165.933 78.3522 165.718 79.9325C165.503 81.5127 165.799 83.1203 166.564 84.5194C167.329 85.9186 168.521 87.0357 169.966 87.7068C171.175 86.0969 171.74 74.9259 171.888 73.5781Z" fill="#0782D0"/>
<path d="M166.631 77.2354C166.414 77.6149 166.231 78.0129 166.083 78.4247C166.607 79.3948 167.326 80.2459 168.195 80.9245C169.063 81.603 170.063 82.0943 171.13 82.3675C171.169 82.0362 171.207 81.6983 171.242 81.3604C170.209 81.0732 169.256 80.5518 168.456 79.8364C167.656 79.1211 167.032 78.2311 166.631 77.2354Z" fill="#222433"/>
<path d="M131.445 91.399C133.663 91.8956 135.925 92.1718 138.198 92.2233C138.978 91.2006 139.481 89.9933 139.657 88.7187C139.834 87.4441 139.678 86.1455 139.204 84.9491C138.731 83.7527 137.957 82.6991 136.957 81.8908C135.956 81.0824 134.764 80.5468 133.496 80.3358C132.228 80.1249 130.927 80.2458 129.719 80.6869C128.511 81.128 127.438 81.8742 126.604 82.8531C125.769 83.832 125.202 85.0103 124.957 86.2734C124.712 87.5366 124.797 88.8417 125.205 90.0621C127.293 89.7094 129.446 90.9553 131.445 91.399Z" fill="#0782D0"/>
<path d="M138.725 83.9585C138.097 85.5452 136.91 86.8471 135.389 87.6186C135.009 87.812 134.611 87.9694 134.201 88.0886C132.543 88.572 130.765 88.4205 129.212 87.6635C127.66 86.9065 126.445 85.5983 125.803 83.9936C125.584 84.3725 125.401 84.7706 125.255 85.183C126.209 86.9565 127.799 88.3021 129.705 88.9487C131.611 89.5953 133.691 89.4948 135.526 88.6674C135.527 88.6674 135.527 88.6672 135.528 88.6669C135.528 88.6666 135.528 88.6662 135.528 88.6657C135.582 88.6406 135.635 88.6155 135.688 88.5921L135.69 88.5904C137.221 87.8523 138.478 86.6461 139.28 85.1462C139.131 84.7345 138.945 84.337 138.725 83.9585Z" fill="#222433"/>
<path d="M135.854 88.3931C135.818 88.4724 135.761 88.5405 135.69 88.5905L135.688 88.5922C135.64 88.6264 135.585 88.6513 135.528 88.6658C135.528 88.6662 135.528 88.6667 135.527 88.667C135.527 88.6673 135.527 88.6675 135.526 88.6675C135.485 88.6789 135.442 88.6845 135.399 88.6842C135.326 88.6841 135.255 88.6681 135.189 88.6374C134.847 88.4787 134.516 88.2953 134.201 88.0887C133.089 87.3642 132.175 86.3742 131.541 85.2078C130.907 84.0414 130.573 82.7354 130.569 81.4076C130.569 81.0771 130.59 80.7468 130.631 80.419C130.972 80.3418 131.319 80.2892 131.667 80.2617C131.604 80.6403 131.572 81.0236 131.572 81.4076C131.576 82.6941 131.935 83.9546 132.608 85.0504C133.282 86.1462 134.244 87.0348 135.389 87.6186C135.463 87.6571 135.536 87.6922 135.611 87.7274C135.671 87.7551 135.725 87.7943 135.769 87.8428C135.814 87.8913 135.848 87.9481 135.871 88.0099C135.893 88.0718 135.903 88.1374 135.9 88.2032C135.898 88.269 135.882 88.3335 135.854 88.3931Z" fill="#222433"/>
<path d="M112.836 69.1249L112.338 69.067L112.789 65.1694C112.793 65.1364 112.803 65.1045 112.82 65.0756C112.836 65.0466 112.858 65.0211 112.884 65.0007C112.91 64.9802 112.94 64.9651 112.972 64.9563C113.004 64.9475 113.037 64.9451 113.07 64.9493L113.989 65.0664L113.926 65.5644L113.257 65.4792L112.836 69.1249Z" fill="#2B292D"/>
<path d="M111.501 88.8659L109.981 88.6652C109.915 88.6565 109.855 88.622 109.814 88.5692C109.774 88.5164 109.756 88.4497 109.765 88.3837L110.534 82.5122L111.031 82.5776L110.294 88.2005L111.567 88.3678L111.501 88.8659Z" fill="#2B292D"/>
<path d="M180.172 72.4744C180.049 72.4742 179.931 72.429 179.839 72.3473C179.747 72.2655 179.689 72.153 179.674 72.0309L179.14 67.4642C179.132 67.3987 179.137 67.3322 179.155 67.2686C179.172 67.205 179.203 67.1456 179.243 67.0937C179.284 67.0419 179.335 66.9986 179.392 66.9663C179.45 66.934 179.513 66.9135 179.579 66.9058C179.644 66.8981 179.711 66.9034 179.774 66.9214C179.838 66.9394 179.897 66.9698 179.949 67.0108C180 67.0518 180.044 67.1026 180.076 67.1603C180.108 67.218 180.128 67.2815 180.135 67.3471L180.67 71.9138C180.679 71.9842 180.672 72.0556 180.651 72.1232C180.629 72.1908 180.594 72.2531 180.547 72.3061C180.5 72.359 180.442 72.4014 180.377 72.4304C180.313 72.4593 180.243 72.4743 180.172 72.4742V72.4744Z" fill="#222433"/>
<path d="M91.3121 74.6496C91.2571 74.6495 91.2025 74.6404 91.1505 74.6225C87.7853 73.4751 85.1664 71.2075 83.4335 69.7071C82.9079 69.2259 82.3528 68.7779 81.7715 68.3659C81.6618 68.2934 81.585 68.1808 81.5575 68.0522C81.53 67.9237 81.554 67.7894 81.6244 67.6784C81.6947 67.5673 81.8058 67.4884 81.9337 67.4585C82.0617 67.4286 82.1962 67.4501 82.3084 67.5185C82.9331 67.9551 83.5282 68.4327 84.0896 68.9482C85.8637 70.4842 88.2935 72.588 91.4739 73.6725C91.5865 73.7107 91.6818 73.7877 91.7429 73.8898C91.804 73.9919 91.8269 74.1124 91.8074 74.2298C91.788 74.3472 91.7275 74.4538 91.6368 74.5307C91.5461 74.6076 91.431 74.6497 91.3121 74.6496Z" fill="#222433"/>
<path d="M149.521 115.9C149.394 115.9 149.272 115.851 149.179 115.764C149.086 115.677 149.03 115.558 149.022 115.432L147.604 93.8359L109.948 88.9137C109.816 88.8965 109.697 88.8275 109.616 88.7221C109.535 88.6166 109.499 88.4833 109.516 88.3513L112.541 65.133C112.558 65.0011 112.627 64.8814 112.732 64.8002C112.838 64.7191 112.971 64.6831 113.103 64.7003L148.211 69.2826L149.359 54.8938C146.503 53.7982 144.024 51.8974 142.225 49.4214C142.187 49.3696 142.159 49.311 142.144 49.2488L138.952 36.5657C138.937 36.5086 138.933 36.4495 138.939 36.3909C139.792 28.253 146.534 23.6553 152.049 22.1908C154.112 21.6433 156.266 21.255 158.35 20.8793C163.604 19.9322 168.568 19.0374 171.722 15.8026C174.777 11.9598 178.991 9.20741 183.735 7.95539C183.862 7.92147 183.998 7.93898 184.112 8.00414C184.226 8.06931 184.311 8.17689 184.346 8.30367L196.953 52.9215C196.976 53.0014 196.978 53.0856 196.96 53.1666C196.942 53.2476 196.904 53.3229 196.85 53.3857L180.686 72.145L183.38 113.174C183.384 113.24 183.376 113.306 183.354 113.368C183.333 113.431 183.3 113.488 183.257 113.538C183.213 113.588 183.16 113.628 183.101 113.657C183.042 113.686 182.978 113.703 182.912 113.708L149.554 115.899C149.543 115.9 149.532 115.9 149.521 115.9ZM148.617 93.968L149.989 114.864L182.346 112.739L179.673 72.0054C179.664 71.874 179.707 71.7445 179.793 71.6449L195.916 52.9348L183.52 9.05759C179.165 10.3121 175.31 12.8956 172.493 16.448C172.483 16.4607 172.472 16.4731 172.46 16.4849C169.082 19.9643 163.957 20.8889 158.53 21.8671C156.466 22.2393 154.331 22.6241 152.308 23.1608C147.121 24.5382 140.786 28.8316 139.948 36.4076L143.093 48.9089C144.852 51.2895 147.278 53.0925 150.064 54.0883C150.166 54.1262 150.253 54.1966 150.312 54.2888C150.371 54.381 150.398 54.4899 150.39 54.599L149.17 69.8883C149.164 69.9561 149.145 70.022 149.113 70.0822C149.082 70.1423 149.038 70.1954 148.985 70.2382C148.933 70.281 148.872 70.3126 148.806 70.3311C148.741 70.3496 148.672 70.3546 148.605 70.3458L113.471 65.7602L110.575 87.9835L148.132 92.8923C148.139 92.8923 148.146 92.8939 148.153 92.8951L157.943 94.1746C158.426 94.2382 158.912 94.2703 159.399 94.2708C161.963 94.2724 164.449 93.3848 166.434 91.7588C167.615 90.7982 168.589 89.6071 169.296 88.2579C170.004 86.9088 170.429 85.4297 170.547 83.9107L174.157 41.7192C174.163 41.6536 174.181 41.5896 174.212 41.5311C174.242 41.4726 174.284 41.4206 174.334 41.3782C174.384 41.3357 174.443 41.3036 174.505 41.2837C174.568 41.2637 174.634 41.2564 174.7 41.262C174.765 41.2676 174.829 41.2861 174.888 41.3164C174.946 41.3468 174.998 41.3883 175.041 41.4387C175.083 41.4891 175.115 41.5474 175.135 41.6102C175.155 41.6731 175.162 41.7392 175.157 41.8049L171.547 83.9925C171.417 85.6461 170.954 87.2562 170.184 88.7249C169.414 90.1936 168.353 91.4903 167.067 92.5363C164.904 94.3082 162.194 95.2755 159.399 95.2738C158.869 95.2733 158.339 95.2384 157.814 95.1693L148.617 93.968Z" fill="#222433"/>
<path d="M149.521 115.9C149.394 115.9 149.272 115.851 149.179 115.764C149.086 115.677 149.03 115.558 149.022 115.432L147.604 93.8359L109.948 88.9137C109.816 88.8965 109.697 88.8275 109.616 88.7221C109.535 88.6166 109.499 88.4833 109.516 88.3513L112.541 65.133C112.558 65.0011 112.627 64.8814 112.732 64.8002C112.838 64.7191 112.971 64.6831 113.103 64.7003L148.211 69.2826L149.359 54.8938C146.503 53.7982 144.024 51.8974 142.225 49.4214C142.187 49.3696 142.159 49.311 142.144 49.2488L138.952 36.5657C138.937 36.5086 138.933 36.4495 138.939 36.3909C139.792 28.253 146.534 23.6553 152.049 22.1908C154.112 21.6433 156.266 21.255 158.35 20.8793C163.604 19.9322 168.568 19.0374 171.722 15.8026C174.777 11.9598 178.991 9.20741 183.735 7.95539C183.862 7.92147 183.998 7.93898 184.112 8.00414C184.226 8.06931 184.311 8.17689 184.346 8.30367L196.953 52.9215C196.976 53.0014 196.978 53.0856 196.96 53.1666C196.942 53.2476 196.904 53.3229 196.85 53.3857L180.686 72.145L183.38 113.174C183.384 113.24 183.376 113.306 183.354 113.368C183.333 113.431 183.3 113.488 183.257 113.538C183.213 113.588 183.16 113.628 183.101 113.657C183.042 113.686 182.978 113.703 182.912 113.708L149.554 115.899C149.543 115.9 149.532 115.9 149.521 115.9ZM148.617 93.968L149.989 114.864L182.346 112.739L179.673 72.0054C179.664 71.874 179.707 71.7445 179.793 71.6449L195.916 52.9348L183.52 9.05759C179.165 10.3121 175.31 12.8956 172.493 16.448C172.483 16.4607 172.472 16.4731 172.46 16.4849C169.082 19.9643 163.957 20.8889 158.53 21.8671C156.466 22.2393 154.331 22.6241 152.308 23.1608C147.121 24.5382 140.786 28.8316 139.948 36.4076L143.093 48.9089C144.852 51.2895 147.278 53.0925 150.064 54.0883C150.166 54.1262 150.253 54.1966 150.312 54.2888C150.371 54.381 150.398 54.4899 150.39 54.599L149.17 69.8883C149.164 69.9561 149.145 70.022 149.113 70.0822C149.082 70.1423 149.038 70.1954 148.985 70.2382C148.933 70.281 148.872 70.3126 148.806 70.3311C148.741 70.3496 148.672 70.3546 148.605 70.3458L113.471 65.7602L110.575 87.9835L148.132 92.8923C148.139 92.8923 148.146 92.8939 148.153 92.8951L157.943 94.1746C158.426 94.2382 158.912 94.2703 159.399 94.2708C161.963 94.2724 164.449 93.3848 166.434 91.7588C167.615 90.7982 168.589 89.6071 169.296 88.2579C170.004 86.9088 170.429 85.4297 170.547 83.9107L174.157 41.7192C174.163 41.6536 174.181 41.5896 174.212 41.5311C174.242 41.4726 174.284 41.4206 174.334 41.3782C174.384 41.3357 174.443 41.3036 174.505 41.2837C174.568 41.2637 174.634 41.2564 174.7 41.262C174.765 41.2676 174.829 41.2861 174.888 41.3164C174.946 41.3468 174.998 41.3883 175.041 41.4387C175.083 41.4891 175.115 41.5474 175.135 41.6102C175.155 41.6731 175.162 41.7392 175.157 41.8049L171.547 83.9925C171.417 85.6461 170.954 87.2562 170.184 88.7249C169.414 90.1936 168.353 91.4903 167.067 92.5363C164.904 94.3082 162.194 95.2755 159.399 95.2738C158.869 95.2733 158.339 95.2384 157.814 95.1693L148.617 93.968Z" fill="#222433"/>
<path d="M280.297 102.902L211.805 16.4865C209.274 12.9541 205.774 10.232 201.729 8.64955C197.684 7.06715 193.267 6.69234 189.013 7.57052L183.866 8.44037L195.347 51.6819L253.841 123.327L280.297 102.902Z" fill="white"/>
<path d="M253.841 123.829C253.767 123.829 253.693 123.812 253.626 123.78C253.559 123.749 253.5 123.702 253.453 123.645L194.959 51.9992C194.914 51.9439 194.881 51.8796 194.863 51.8106L183.381 8.56905C183.363 8.50159 183.36 8.43113 183.371 8.36218C183.381 8.29323 183.407 8.22731 183.444 8.16862C183.482 8.10993 183.532 8.05977 183.59 8.02134C183.648 7.98291 183.714 7.95706 183.782 7.94543L188.921 7.07692C193.266 6.18462 197.777 6.56964 201.908 8.18555C206.04 9.80146 209.616 12.5792 212.205 16.1839L280.69 102.589C280.731 102.642 280.762 102.701 280.78 102.765C280.798 102.829 280.803 102.896 280.795 102.962C280.787 103.028 280.765 103.092 280.733 103.15C280.7 103.207 280.656 103.258 280.603 103.299L254.147 123.723C254.06 123.791 253.952 123.828 253.841 123.829ZM195.804 51.4472L253.921 122.631L279.588 102.815L211.412 16.7981L211.398 16.7787C208.921 13.3277 205.499 10.6681 201.545 9.12122C197.591 7.57434 193.274 7.20629 189.115 8.06152L189.097 8.06487L184.493 8.84305L195.804 51.4472Z" fill="#222433"/>
<path d="M139.439 36.443L141.382 36.0917C142.229 35.9588 143.094 35.9942 143.928 36.1959C144.761 36.3976 145.547 36.7616 146.24 37.2673C146.933 37.7729 147.519 38.4101 147.966 39.1427C148.413 39.8752 148.712 40.6887 148.844 41.5366C148.977 42.3845 148.942 43.2503 148.74 44.0846C148.539 44.9189 148.175 45.7052 147.67 46.3988C147.165 47.0923 146.528 47.6795 145.796 48.1268C145.064 48.5741 144.252 48.8727 143.404 49.0056L141.466 49.3067L132.469 50.7168C130.965 52.0217 129.175 52.953 127.244 53.4352C125.312 53.9174 123.295 53.9368 121.354 53.4919C119.414 53.0469 117.606 52.1502 116.077 50.8746C114.548 49.5989 113.341 47.9803 112.555 46.1501L111.414 36.4311C111.4 36.247 111.39 36.0615 111.383 35.8747C111.366 35.3333 111.383 34.7914 111.433 34.2521L116.132 29.1421L123.151 34.6623L136.521 32.1531L139.439 36.443Z" fill="white"/>
<path d="M124.179 54.3132C121.606 54.3209 119.087 53.5697 116.938 52.1533C114.789 50.7369 113.104 48.7181 112.095 46.3491C112.075 46.3045 112.063 46.2574 112.057 46.2092L110.916 36.4885C110.916 36.4816 110.914 36.4746 110.914 36.4677C110.9 36.2791 110.889 36.085 110.882 35.8911C110.864 35.3283 110.882 34.7648 110.934 34.2041C110.944 34.0948 110.99 33.9919 111.065 33.9112L115.764 28.8022C115.85 28.7092 115.967 28.6519 116.093 28.6418C116.218 28.6316 116.343 28.6693 116.443 28.7473L123.283 34.127L136.43 31.6598C136.525 31.6415 136.625 31.6517 136.715 31.6891C136.805 31.7266 136.882 31.7897 136.936 31.8706L139.671 35.8911L141.294 35.5979C141.301 35.5967 141.308 35.5956 141.315 35.5947C142.227 35.4523 143.158 35.4911 144.056 35.709C144.953 35.9268 145.799 36.3195 146.544 36.8645C147.29 37.4094 147.921 38.0961 148.402 38.8852C148.882 39.6744 149.203 40.5505 149.345 41.4637C149.488 42.3768 149.449 43.3091 149.231 44.2072C149.013 45.1054 148.621 45.9518 148.077 46.6982C147.532 47.4446 146.846 48.0764 146.058 48.5574C145.269 49.0384 144.394 49.3593 143.482 49.5018L141.543 49.8029L132.688 51.1913C130.412 53.1212 127.549 54.2205 124.568 54.309C124.438 54.312 124.308 54.3132 124.179 54.3132ZM113.044 46.0185C113.808 47.7659 114.971 49.3092 116.44 50.5237C117.909 51.7383 119.643 52.5901 121.502 53.0104C123.36 53.4308 125.291 53.4078 127.14 52.9435C128.988 52.4791 130.701 51.5864 132.141 50.3373C132.212 50.2755 132.299 50.2349 132.391 50.2202L143.327 48.509C144.906 48.2605 146.322 47.3946 147.263 46.1016C148.204 44.8087 148.594 43.1945 148.346 41.614C148.099 40.0336 147.235 38.6161 145.943 37.6734C144.652 36.7306 143.039 36.3398 141.46 36.5867L139.528 36.936C139.432 36.9532 139.334 36.9424 139.245 36.9049C139.155 36.8674 139.079 36.8048 139.024 36.7247L136.291 32.706L123.244 35.1546C123.173 35.1679 123.101 35.166 123.032 35.149C122.962 35.132 122.897 35.1003 122.841 35.0561L116.187 29.8236L111.918 34.4659C111.881 34.9294 111.87 35.3945 111.885 35.8592C111.891 36.034 111.9 36.2105 111.913 36.3829L113.044 46.0185Z" fill="#222433"/>
<path d="M132.274 40.7752C132.179 40.7752 132.086 40.748 132.005 40.6969C131.925 40.6458 131.861 40.5728 131.82 40.4865C131.78 40.4002 131.765 40.3042 131.777 40.2097C131.789 40.1151 131.828 40.026 131.889 39.9527L134.68 36.5904C134.722 36.5397 134.773 36.4978 134.832 36.4671C134.89 36.4363 134.954 36.4174 135.019 36.4113C135.085 36.4052 135.151 36.4122 135.214 36.4317C135.277 36.4512 135.335 36.4829 135.386 36.525C135.436 36.5671 135.478 36.6188 135.509 36.6771C135.54 36.7354 135.559 36.7992 135.565 36.8648C135.571 36.9304 135.564 36.9966 135.544 37.0596C135.525 37.1225 135.493 37.181 135.451 37.2317L133.452 39.6405L135.596 39.4064C135.728 39.392 135.861 39.4308 135.964 39.5142C136.068 39.5976 136.134 39.7188 136.149 39.8511C136.163 39.9834 136.124 40.116 136.041 40.2197C135.958 40.3235 135.837 40.3898 135.704 40.4042L132.329 40.7722C132.311 40.7742 132.292 40.7752 132.274 40.7752Z" fill="#222433"/>
<path d="M114.837 43.1568C114.391 44.2142 113.569 45.0683 112.53 45.5533C111.491 46.0383 110.309 46.1195 109.213 45.7813C108.118 45.443 107.187 44.7095 106.601 43.7229C106.015 42.7363 105.816 41.5671 106.043 40.4422C106.27 39.3173 106.907 38.3169 107.829 37.6352C108.751 36.9534 109.894 36.639 111.035 36.7528C112.176 36.8667 113.234 37.4007 114.003 38.2513C114.773 39.1019 115.2 40.2084 115.2 41.356L114.837 43.1568Z" fill="white"/>
<path d="M110.579 46.4852C109.565 46.4852 108.575 46.1845 107.732 45.621C106.89 45.0576 106.233 44.2567 105.845 43.3196C105.457 42.3826 105.356 41.3515 105.554 40.3568C105.751 39.362 106.239 38.4482 106.956 37.731C107.672 37.0139 108.585 36.5254 109.579 36.3276C110.573 36.1297 111.603 36.2312 112.539 36.6193C113.475 37.0075 114.275 37.6648 114.838 38.5081C115.401 39.3514 115.702 40.3429 115.702 41.3571C115.702 41.3905 115.698 41.4238 115.692 41.4565L115.328 43.2567C115.322 43.2897 115.312 43.3219 115.299 43.3529C114.908 44.2822 114.251 45.0752 113.411 45.6324C112.572 46.1897 111.586 46.4863 110.579 46.4852ZM110.579 37.2328C109.836 37.233 109.107 37.4341 108.469 37.8149C107.831 38.1957 107.307 38.7421 106.954 39.3962C106.601 40.0503 106.431 40.7879 106.462 41.5308C106.493 42.2736 106.725 42.9943 107.132 43.6164C107.539 44.2384 108.106 44.7389 108.774 45.0647C109.441 45.3905 110.185 45.5295 110.925 45.4671C111.665 45.4047 112.375 45.1432 112.979 44.7102C113.583 44.2772 114.058 43.6889 114.356 43.0075L114.698 41.3083C114.685 40.2233 114.245 39.1874 113.474 38.4246C112.703 37.6618 111.663 37.2335 110.579 37.2322V37.2328Z" fill="#222433"/>
<path d="M120.111 45.7073C122.664 45.7073 124.733 43.6361 124.733 41.0812C124.733 38.5263 122.664 36.4551 120.111 36.4551C117.559 36.4551 115.489 38.5263 115.489 41.0812C115.489 43.6361 117.559 45.7073 120.111 45.7073Z" fill="white"/>
<path d="M120.111 46.2093C119.098 46.2093 118.107 45.9086 117.265 45.3451C116.422 44.7816 115.765 43.9807 115.378 43.0437C114.99 42.1066 114.888 41.0755 115.086 40.0807C115.284 39.0859 115.772 38.1722 116.488 37.455C117.205 36.7378 118.118 36.2494 119.112 36.0516C120.106 35.8538 121.136 35.9554 122.072 36.3436C123.008 36.7318 123.808 37.3892 124.371 38.2326C124.934 39.0759 125.234 40.0675 125.234 41.0817C125.233 42.4412 124.692 43.7446 123.732 44.7058C122.772 45.6671 121.469 46.2078 120.111 46.2093ZM120.111 36.957C119.296 36.9569 118.499 37.1988 117.822 37.652C117.144 38.1051 116.616 38.7492 116.304 39.5028C115.992 40.2565 115.91 41.0857 116.069 41.8858C116.228 42.6859 116.621 43.4208 117.197 43.9976C117.773 44.5745 118.507 44.9673 119.307 45.1265C120.106 45.2857 120.935 45.2041 121.688 44.892C122.441 44.5799 123.084 44.0513 123.537 43.3731C123.99 42.6948 124.231 41.8974 124.232 41.0817C124.23 39.9882 123.796 38.9398 123.023 38.1665C122.251 37.3932 121.204 36.9583 120.111 36.957Z" fill="#222433"/>
<path d="M116.147 50.6276C116.014 50.6295 115.885 50.5785 115.79 50.4858C115.695 50.3931 115.64 50.2662 115.638 50.1331C115.636 50 115.687 49.8716 115.78 49.7761C115.872 49.6806 115.999 49.6259 116.132 49.6239L118.923 49.5403C119.056 49.5363 119.185 49.5853 119.282 49.6766C119.379 49.7679 119.435 49.894 119.439 50.027C119.443 50.1601 119.394 50.2894 119.303 50.3863C119.212 50.4832 119.086 50.5399 118.953 50.5439L116.162 50.6276H116.147Z" fill="#222433"/>
<path d="M132.475 51.2301C132.373 51.2301 132.273 51.1989 132.19 51.1408C132.106 51.0826 132.041 51.0001 132.006 50.9044C131.97 50.8088 131.964 50.7044 131.989 50.6053C132.014 50.5062 132.069 50.4172 132.145 50.35C133.662 49.0239 134.83 47.3465 135.55 45.4641C135.571 45.3998 135.605 45.3405 135.65 45.2898C135.695 45.2391 135.75 45.198 135.811 45.169C135.872 45.1399 135.938 45.1236 136.006 45.121C136.074 45.1183 136.141 45.1294 136.204 45.1536C136.267 45.1778 136.325 45.2145 136.374 45.2616C136.423 45.3087 136.461 45.3651 136.487 45.4276C136.514 45.49 136.527 45.5571 136.527 45.6249C136.526 45.6926 136.512 45.7596 136.486 45.8218C135.708 47.8577 134.444 49.672 132.804 51.1063C132.713 51.186 132.596 51.2299 132.475 51.2301Z" fill="#222433"/>
<path d="M108.551 43.5185C109.068 43.5185 109.487 43.0991 109.487 42.5818C109.487 42.0644 109.068 41.645 108.551 41.645C108.034 41.645 107.615 42.0644 107.615 42.5818C107.615 43.0991 108.034 43.5185 108.551 43.5185Z" fill="#222433"/>
<path d="M113.958 47.1821C113.882 47.1821 113.807 47.1648 113.738 47.1315C113.67 47.0982 113.61 47.0498 113.563 46.9899C113.516 46.93 113.484 46.8602 113.468 46.7859C113.452 46.7115 113.453 46.6344 113.471 46.5605L115.17 39.6519C115.185 39.5873 115.213 39.5263 115.251 39.4726C115.29 39.4188 115.339 39.3732 115.396 39.3386C115.452 39.3039 115.515 39.2808 115.581 39.2706C115.646 39.2604 115.713 39.2633 115.777 39.2792C115.842 39.295 115.902 39.3235 115.956 39.3629C116.009 39.4024 116.054 39.452 116.088 39.509C116.122 39.5659 116.144 39.6291 116.154 39.6948C116.163 39.7605 116.16 39.8274 116.143 39.8916L114.602 46.1586L116.667 46.0952C116.8 46.0911 116.929 46.14 117.026 46.2312C117.122 46.3225 117.179 46.4485 117.183 46.5816C117.187 46.7147 117.138 46.844 117.047 46.941C116.956 47.038 116.83 47.0947 116.697 47.0988L113.973 47.1825L113.958 47.1821Z" fill="#222433"/>
<path d="M118.478 43.2012C118.995 43.2012 119.414 42.7818 119.414 42.2644C119.414 41.747 118.995 41.3276 118.478 41.3276C117.961 41.3276 117.542 41.747 117.542 42.2644C117.542 42.7818 117.961 43.2012 118.478 43.2012Z" fill="#222433"/>
<path d="M139.028 36.3352C139.219 33.8799 140.365 31.1495 141.702 29.1422C139.755 28.6629 138.747 28.4301 136.653 28.4301C136.222 28.4301 135.794 28.4421 135.369 28.4635C132.94 24.6591 128.532 22.2165 123.654 22.3579C120.357 22.4395 117.214 23.7702 114.859 26.0815C112.647 28.2539 111.265 31.1326 110.951 34.2184C110.941 34.3175 110.961 34.4173 111.008 34.505C111.055 34.5927 111.127 34.6644 111.215 34.7111C111.303 34.7577 111.403 34.7771 111.502 34.7668C111.601 34.7566 111.694 34.7171 111.771 34.6533L116.228 30.9409L116.545 31.2086L121.476 35.2735C123.538 36.9732 126.128 37.9005 128.8 37.8959H128.818C128.819 37.8909 128.818 37.8863 128.82 37.8813C128.905 37.4847 129.804 34.2514 133.077 33.9448C136.993 33.1381 138.273 35.8486 138.907 36.4427C139.239 36.7532 139.007 36.6123 139.028 36.3352Z" fill="#113C7B"/>
<path d="M138.591 41.3813C138.506 41.3813 138.422 41.3595 138.348 41.318C138.273 41.2765 138.211 41.2167 138.166 41.1442C138.121 41.0717 138.095 40.9889 138.091 40.9036C138.087 40.8184 138.104 40.7335 138.142 40.657C138.451 40.0336 138.61 39.3469 138.608 38.6512C138.608 37.4489 138.131 36.2958 137.282 35.4457C136.432 34.5955 135.28 34.1179 134.079 34.1179C132.878 34.1179 131.726 34.5955 130.877 35.4457C130.027 36.2958 129.55 37.4489 129.55 38.6512C129.55 38.7843 129.497 38.9119 129.403 39.006C129.309 39.1001 129.182 39.153 129.049 39.153C128.916 39.153 128.788 39.1001 128.694 39.006C128.6 38.9119 128.547 38.7843 128.547 38.6512C128.547 37.1827 129.13 35.7744 130.168 34.736C131.205 33.6976 132.612 33.1143 134.079 33.1143C135.546 33.1143 136.953 33.6976 137.991 34.736C139.028 35.7744 139.611 37.1827 139.611 38.6512C139.613 39.5012 139.418 40.3401 139.041 41.1016C139 41.1856 138.936 41.2563 138.856 41.3058C138.777 41.3552 138.685 41.3814 138.591 41.3813Z" fill="#222433"/>
<path d="M39.9542 46.2779L40.3066 44.2943C40.4672 43.3884 41.3312 42.7841 42.2367 42.9444C42.4916 42.9896 42.7325 43.0936 42.9401 43.2483L47.4207 46.58L42.0681 48.1669C41.1854 48.4282 40.2583 47.9244 39.9971 47.0413C39.924 46.7935 39.9094 46.5323 39.9542 46.2779Z" fill="white"/>
<path d="M41.1726 48.7027C40.9603 48.6604 40.7533 48.5858 40.5576 48.4794C40.0474 48.2021 39.6757 47.7426 39.5111 47.1855C39.4161 46.8643 39.3967 46.5198 39.4551 46.19C39.4551 46.1899 39.4551 46.1897 39.4551 46.1897L39.8075 44.2061C39.9088 43.6348 40.2265 43.1368 40.702 42.8041C41.1776 42.4714 41.754 42.3441 42.3252 42.4453C42.6578 42.5042 42.9735 42.641 43.243 42.8418L47.7233 46.1729C47.8775 46.2877 47.9536 46.4796 47.92 46.6688C47.8865 46.858 47.7489 47.012 47.5646 47.0667L42.2122 48.6536C41.869 48.7553 41.5139 48.7708 41.1726 48.7027ZM40.4537 46.3669C40.4226 46.5428 40.4329 46.7263 40.4838 46.8975C40.5717 47.1947 40.7698 47.4398 41.042 47.5877C41.3143 47.7356 41.6276 47.7686 41.9247 47.6807L46.3045 46.3822L42.6378 43.6558C42.494 43.5487 42.3268 43.4764 42.1483 43.4442C41.8438 43.3903 41.5366 43.4582 41.283 43.6356C41.0295 43.8129 40.8602 44.0783 40.8062 44.3829L40.4537 46.3669Z" fill="#222433"/>
<path d="M47.7295 39.1087L49.712 39.4609C50.6178 39.6249 51.219 40.4923 51.0549 41.3986C51.0093 41.6508 50.9061 41.889 50.7536 42.0949L47.4206 46.5797L45.8367 41.2198C45.5777 40.3361 46.0837 39.4095 46.967 39.1502C47.2147 39.0775 47.4755 39.0633 47.7295 39.1087Z" fill="white"/>
<path d="M47.3214 47.078C47.1371 47.0412 46.9878 46.9053 46.9344 46.7244L45.3505 41.3645C45.0129 40.2127 45.6742 39.0018 46.8244 38.6641C47.1454 38.5698 47.4892 38.5511 47.8183 38.61L49.8009 38.9621C50.9818 39.1764 51.7676 40.3096 51.5541 41.4897C51.4949 41.8169 51.3588 42.1309 51.161 42.3979L47.8275 46.883C47.7128 47.0372 47.521 47.1135 47.3319 47.0799C47.3283 47.0794 47.3249 47.0787 47.3214 47.078ZM49.6422 39.9647C49.6354 39.9633 49.6286 39.962 49.6217 39.9608L47.6409 39.609C47.6407 39.6089 47.6405 39.6089 47.6404 39.6089C47.4646 39.5775 47.2813 39.5875 47.11 39.6378C46.4963 39.8179 46.1437 40.4638 46.3236 41.0777L47.6196 45.4631L50.3469 41.7931C50.4521 41.6511 50.5246 41.4836 50.5563 41.3091C50.6687 40.6863 50.2598 40.0878 49.6422 39.9647ZM47.7294 39.1095L47.7311 39.1098L47.7294 39.1095Z" fill="#222433"/>
<path d="M86.1775 26.2868L87.544 25.9963C88.168 25.8635 88.7817 26.2617 88.9145 26.8858C88.9518 27.0616 88.9477 27.2437 88.9025 27.4175L87.9288 31.168L85.5136 28.1379C85.1155 27.6393 85.197 26.9123 85.6956 26.5142C85.8364 26.4019 86.0014 26.324 86.1775 26.2868Z" fill="#9AE2E0"/>
<path d="M92.8096 29.416L93.1001 30.7825C93.2336 31.4064 92.836 32.0205 92.212 32.1539C92.0359 32.1916 91.8534 32.1876 91.6793 32.1422L87.9288 31.1684L90.9585 28.7519C91.4583 28.3542 92.1859 28.4371 92.5836 28.9369C92.695 29.0769 92.7724 29.2409 92.8096 29.416Z" fill="#9AE2E0"/>
<path d="M11.2047 93.6233C13.8281 93.2249 15.6331 90.7842 15.2363 88.1719C14.8395 85.5596 12.3912 83.7649 9.76786 84.1633C7.14449 84.5618 5.33947 87.0025 5.73623 89.6148C6.133 92.2271 8.58131 94.0218 11.2047 93.6233Z" fill="white"/>
<path d="M11.2783 94.1074C10.2427 94.2647 9.18383 94.1127 8.23568 93.6705C7.28754 93.2284 6.49269 92.5159 5.95165 91.6233C5.41061 90.7307 5.14767 89.6981 5.19609 88.6559C5.24451 87.6137 5.60211 86.6089 6.22367 85.7684C6.84524 84.928 7.70285 84.2896 8.68805 83.9342C9.67325 83.5787 10.7418 83.522 11.7586 83.7714C12.7753 84.0207 13.6947 84.5648 14.4003 85.3349C15.1059 86.105 15.5661 87.0665 15.7228 88.0978C15.9311 89.4805 15.5802 90.8897 14.747 92.0163C13.9138 93.143 12.6664 93.895 11.2783 94.1074ZM9.84151 84.6474C8.99824 84.7755 8.21172 85.1497 7.58141 85.7227C6.95111 86.2957 6.50534 87.0418 6.30046 87.8666C6.09559 88.6915 6.14081 89.558 6.43041 90.3566C6.72002 91.1552 7.241 91.85 7.92747 92.3532C8.61394 92.8564 9.43507 93.1454 10.287 93.1836C11.139 93.2218 11.9835 93.0075 12.7138 92.5678C13.4441 92.1281 14.0273 91.4828 14.3898 90.7135C14.7522 89.9441 14.8776 89.0853 14.7501 88.2455C14.5778 87.1201 13.9643 86.1092 13.0441 85.4347C12.1239 84.7601 10.9721 84.477 9.84151 84.6474Z" fill="#222433"/>
<path d="M17.7633 102.95C20.3866 102.552 22.1917 100.111 21.7949 97.499C21.3981 94.8867 18.9498 93.092 16.3265 93.4905C13.7031 93.8889 11.8981 96.3296 12.2948 98.9419C12.6916 101.554 15.1399 103.349 17.7633 102.95Z" fill="white"/>
<path d="M17.8367 103.434C16.801 103.591 15.7422 103.439 14.794 102.997C13.8459 102.555 13.051 101.843 12.51 100.95C11.969 100.057 11.706 99.0247 11.7544 97.9826C11.8029 96.9404 12.1605 95.9355 12.782 95.0951C13.4036 94.2546 14.2612 93.6163 15.2464 93.2608C16.2316 92.9053 17.3001 92.8487 18.3169 93.098C19.3337 93.3474 20.253 93.8915 20.9586 94.6616C21.6642 95.4317 22.1245 96.3932 22.2811 97.4245C22.4895 98.8071 22.1387 100.216 21.3054 101.343C20.4722 102.47 19.2248 103.222 17.8367 103.434ZM16.3999 93.9741C15.5566 94.1021 14.7701 94.4764 14.1398 95.0494C13.5095 95.6224 13.0637 96.3685 12.8588 97.1933C12.6539 98.0181 12.6992 98.8846 12.9888 99.6832C13.2784 100.482 13.7993 101.177 14.4858 101.68C15.1723 102.183 15.9934 102.472 16.8454 102.51C17.6973 102.548 18.5418 102.334 19.2721 101.894C20.0024 101.455 20.5856 100.809 20.9481 100.04C21.3106 99.2708 21.4359 98.4119 21.3084 97.5722C21.1361 96.4468 20.5226 95.4359 19.6024 94.7613C18.6822 94.0868 17.5305 93.8037 16.3999 93.9741Z" fill="#222433"/>
<path d="M8.31869 104.648C10.9421 104.25 12.7471 101.809 12.3503 99.1968C11.9536 96.5845 9.50524 94.7898 6.88187 95.1882C4.2585 95.5867 2.45348 98.0274 2.85025 100.64C3.24702 103.252 5.69532 105.047 8.31869 104.648Z" fill="white"/>
<path d="M8.39211 105.133C7.35645 105.29 6.2976 105.138 5.34945 104.696C4.40131 104.254 3.60646 103.541 3.06542 102.649C2.52438 101.756 2.26144 100.723 2.30986 99.6813C2.35828 98.6391 2.71588 97.6343 3.33744 96.7938C3.95901 95.9533 4.81662 95.315 5.80182 94.9595C6.78702 94.6041 7.85556 94.5474 8.87233 94.7968C9.8891 95.0461 10.8084 95.5902 11.514 96.3603C12.2197 97.1304 12.6799 98.0919 12.8365 99.1232C13.0449 100.506 12.694 101.915 11.8608 103.042C11.0276 104.168 9.78015 104.92 8.39211 105.133ZM6.95528 95.6728C6.11201 95.8009 5.32549 96.1751 4.69518 96.7481C4.06488 97.3211 3.61911 98.0672 3.41423 98.892C3.20935 99.7169 3.25458 100.583 3.54418 101.382C3.83379 102.181 4.35477 102.875 5.04124 103.379C5.72771 103.882 6.54884 104.171 7.4008 104.209C8.25275 104.247 9.09727 104.033 9.82754 103.593C10.5578 103.154 11.1411 102.508 11.5035 101.739C11.866 100.969 11.9914 100.111 11.8638 99.2709C11.6916 98.1455 11.078 97.1346 10.1578 96.4601C9.23762 95.7855 8.08588 95.5024 6.95528 95.6728Z" fill="#222433"/>
<path d="M19.6512 113.416C22.2746 113.017 24.0796 110.577 23.6828 107.964C23.2861 105.352 20.8378 103.557 18.2144 103.956C15.591 104.354 13.786 106.795 14.1828 109.407C14.5795 112.02 17.0278 113.814 19.6512 113.416Z" fill="white"/>
<path d="M19.7246 113.899C18.689 114.057 17.6301 113.905 16.682 113.463C15.7338 113.02 14.939 112.308 14.3979 111.415C13.8569 110.523 13.594 109.49 13.6424 108.448C13.6908 107.406 14.0484 106.401 14.67 105.56C15.2915 104.72 16.1491 104.082 17.1343 103.726C18.1195 103.371 19.1881 103.314 20.2049 103.563C21.2216 103.813 22.1409 104.357 22.8466 105.127C23.5522 105.897 24.0124 106.858 24.169 107.89C24.3775 109.272 24.0266 110.682 23.1934 111.808C22.3602 112.935 21.1127 113.687 19.7246 113.899ZM18.2878 104.439C17.4445 104.567 16.658 104.942 16.0277 105.515C15.3974 106.088 14.9516 106.834 14.7468 107.659C14.5419 108.483 14.5871 109.35 14.8767 110.149C15.1663 110.947 15.6873 111.642 16.3738 112.145C17.0602 112.648 17.8814 112.937 18.7333 112.976C19.5853 113.014 20.4298 112.799 21.1601 112.36C21.8903 111.92 22.4736 111.275 22.836 110.505C23.1985 109.736 23.3239 108.877 23.1963 108.038C23.0241 106.912 22.4106 105.901 21.4903 105.227C20.5701 104.552 19.4184 104.269 18.2878 104.439Z" fill="#222433"/>
<path d="M10.1881 115.099C12.8115 114.701 14.6165 112.26 14.2197 109.648C13.8229 107.036 11.3746 105.241 8.75126 105.639C6.12788 106.038 4.32286 108.479 4.71963 111.091C5.1164 113.703 7.56471 115.498 10.1881 115.099Z" fill="white"/>
<path d="M10.2615 115.584C9.22583 115.741 8.16698 115.589 7.21884 115.147C6.2707 114.705 5.47585 113.992 4.9348 113.1C4.39376 112.207 4.13082 111.175 4.17924 110.132C4.22766 109.09 4.58527 108.085 5.20683 107.245C5.82839 106.405 6.686 105.766 7.6712 105.411C8.6564 105.055 9.72495 104.999 10.7417 105.248C11.7585 105.497 12.6778 106.041 13.3834 106.811C14.089 107.582 14.5493 108.543 14.7059 109.574C14.9143 110.957 14.5634 112.366 13.7302 113.493C12.897 114.62 11.6495 115.372 10.2615 115.584ZM8.82467 106.124C7.98139 106.252 7.19487 106.626 6.56457 107.199C5.93427 107.772 5.48849 108.518 5.28362 109.343C5.07874 110.168 5.12396 111.035 5.41357 111.833C5.70317 112.632 6.22415 113.327 6.91062 113.83C7.59709 114.333 8.41823 114.622 9.27018 114.66C10.1221 114.698 10.9667 114.484 11.6969 114.044C12.4272 113.605 13.0105 112.959 13.3729 112.19C13.7354 111.421 13.8607 110.562 13.7332 109.722C13.561 108.597 12.9474 107.586 12.0272 106.911C11.107 106.237 9.95527 105.954 8.82467 106.124Z" fill="#222433"/>
<path d="M20.0697 142.895C19.9755 142.909 19.8794 142.886 19.8019 142.831C19.7245 142.776 19.6717 142.693 19.655 142.599L10.3864 91.0677C10.3779 91.0206 10.3788 90.9723 10.3891 90.9256C10.3994 90.8788 10.4188 90.8345 10.4462 90.7952C10.5016 90.7159 10.5864 90.6616 10.6819 90.6445C10.7774 90.6273 10.8757 90.6486 10.9554 90.7037C11.035 90.7588 11.0893 90.8431 11.1065 90.9382L20.375 142.47C20.3835 142.517 20.3826 142.566 20.3723 142.612C20.362 142.659 20.3426 142.703 20.3152 142.743C20.2877 142.782 20.2528 142.815 20.2124 142.841C20.1719 142.867 20.1268 142.885 20.0795 142.893L20.0697 142.895Z" fill="#222433"/>
<path d="M35.4942 142.364C35.358 142.364 35.2274 142.309 35.1311 142.212C35.0348 142.115 34.9807 141.983 34.9807 141.846V116.65C34.9807 116.513 35.0348 116.381 35.1311 116.284C35.2274 116.187 35.358 116.132 35.4942 116.132C35.6304 116.132 35.7611 116.187 35.8574 116.284C35.9537 116.381 36.0078 116.513 36.0078 116.65V141.846C36.0078 141.983 35.9537 142.115 35.8574 142.212C35.7611 142.309 35.6304 142.364 35.4942 142.364Z" fill="#222433"/>
<path d="M42.29 116.857H28.6985C27.5862 116.857 26.5195 116.412 25.733 115.618C24.9465 114.825 24.5046 113.748 24.5046 112.626C24.5046 111.504 24.9465 110.428 25.733 109.635C26.5195 108.841 27.5862 108.396 28.6985 108.396H42.29C43.4023 108.396 44.469 108.841 45.2555 109.635C46.042 110.428 46.4839 111.504 46.4839 112.626C46.4839 113.748 46.042 114.825 45.2555 115.618C44.469 116.412 43.4023 116.857 42.29 116.857ZM28.6985 111.78C28.476 111.78 28.2627 111.869 28.1054 112.028C27.9481 112.187 27.8597 112.402 27.8597 112.626C27.8597 112.851 27.9481 113.066 28.1054 113.225C28.2627 113.383 28.476 113.473 28.6985 113.473H42.29C42.5125 113.473 42.7258 113.383 42.8831 113.225C43.0404 113.066 43.1288 112.851 43.1288 112.626C43.1288 112.402 43.0404 112.187 42.8831 112.028C42.7258 111.869 42.5125 111.78 42.29 111.78H28.6985Z" fill="#9AE2E0"/>
<path d="M41.4513 128.704C39.808 128.704 35.6986 126.089 35.2353 125.79C35.1626 125.743 35.1027 125.679 35.0613 125.603C35.0198 125.526 34.998 125.441 34.998 125.354C34.998 125.267 35.0198 125.181 35.0613 125.105C35.1027 125.028 35.1626 124.964 35.2353 124.917C35.6984 124.619 39.808 122.003 41.4513 122.003C42.3321 122.003 43.1767 122.356 43.7995 122.985C44.4223 123.613 44.7722 124.465 44.7722 125.354C44.7722 126.242 44.4223 127.094 43.7995 127.723C43.1767 128.351 42.3321 128.704 41.4513 128.704ZM36.4856 125.354C38.1791 126.387 40.5692 127.668 41.4513 127.668C42.0597 127.668 42.6431 127.424 43.0733 126.99C43.5034 126.556 43.7451 125.967 43.7451 125.354C43.7451 124.74 43.5034 124.151 43.0733 123.717C42.6431 123.283 42.0597 123.04 41.4513 123.04C40.5686 123.04 38.1787 124.32 36.4856 125.354Z" fill="#222433"/>
<path d="M29.5545 128.704C28.6737 128.704 27.8291 128.351 27.2063 127.723C26.5835 127.094 26.2336 126.242 26.2336 125.354C26.2336 124.465 26.5835 123.613 27.2063 122.985C27.8291 122.356 28.6737 122.003 29.5545 122.003C31.1978 122.003 35.3076 124.619 35.7708 124.917C35.8436 124.964 35.9034 125.028 35.9449 125.105C35.9864 125.181 36.0081 125.267 36.0081 125.354C36.0081 125.441 35.9864 125.526 35.9449 125.603C35.9034 125.679 35.8436 125.743 35.7708 125.79C35.3074 126.089 31.1978 128.704 29.5545 128.704ZM29.5545 123.04C28.9461 123.04 28.3627 123.283 27.9325 123.717C27.5024 124.151 27.2607 124.74 27.2607 125.354C27.2607 125.967 27.5024 126.556 27.9325 126.99C28.3627 127.424 28.9461 127.668 29.5545 127.668C30.4367 127.668 32.8269 126.387 34.5204 125.354C32.8269 124.32 30.4367 123.04 29.5545 123.04Z" fill="#222433"/>
<path d="M66.4648 143C66.2151 143 66.0127 142.818 66.0127 142.593V127.184C66.0127 126.959 66.2151 126.777 66.4648 126.777C66.7145 126.777 66.9169 126.959 66.9169 127.184V142.593C66.9169 142.818 66.7144 143 66.4648 143Z" fill="#222433"/>
<path d="M73.0583 116.138C72.1478 116.138 71.4096 116.802 71.4096 117.622C71.4096 116.802 70.6714 116.138 69.7609 116.138C68.8512 116.138 68.1136 116.802 68.1136 117.62C68.1136 117.621 68.1136 117.621 68.1136 117.622C68.1136 116.802 67.3755 116.138 66.4649 116.138C65.5543 116.138 64.8161 116.802 64.8161 117.622C64.8161 116.802 64.078 116.138 63.1674 116.138C62.2568 116.138 61.5186 116.802 61.5186 117.622C61.5194 116.803 60.7826 116.139 59.8729 116.138C59.8725 116.138 59.8719 116.138 59.8714 116.138C58.9608 116.138 58.2227 116.802 58.2227 117.622V123.829C58.2227 127.925 61.9127 131.245 66.4649 131.245C71.0166 131.244 74.7062 127.924 74.7071 123.829V117.622C74.7071 116.802 73.9689 116.138 73.0583 116.138Z" fill="#FC8383"/>
<path d="M71.4096 123.741C71.1599 123.741 70.9575 123.559 70.9575 123.334V117.504C70.9575 117.279 71.1599 117.097 71.4096 117.097C71.6594 117.097 71.8618 117.279 71.8618 117.504V123.334C71.8618 123.559 71.6592 123.741 71.4096 123.741Z" fill="#222433"/>
<path d="M68.112 123.741C67.8623 123.741 67.6599 123.559 67.6599 123.334V117.504C67.6599 117.279 67.8623 117.097 68.112 117.097C68.3618 117.097 68.5642 117.279 68.5642 117.504V123.334C68.5642 123.559 68.3616 123.741 68.112 123.741Z" fill="#222433"/>
<path d="M64.8161 123.741C64.5664 123.741 64.364 123.559 64.364 123.334V117.504C64.364 117.279 64.5664 117.097 64.8161 117.097C65.0659 117.097 65.2683 117.279 65.2683 117.504V123.334C65.2683 123.559 65.0657 123.741 64.8161 123.741Z" fill="#222433"/>
<path d="M61.5188 123.741C61.2691 123.741 61.0667 123.559 61.0667 123.334V117.504C61.0667 117.279 61.2691 117.097 61.5188 117.097C61.7685 117.097 61.9709 117.279 61.9709 117.504V123.334C61.9709 123.559 61.7683 123.741 61.5188 123.741Z" fill="#222433"/>
<path d="M84.0929 84.4513C83.6428 84.3573 83.1735 84.4456 82.7884 84.6968C82.4032 84.9479 82.1336 85.3412 82.0389 85.7904C82.1256 85.3433 82.0321 84.8804 81.7789 84.502C81.5256 84.1235 81.1329 83.8601 80.686 83.7688C80.2391 83.6776 79.7739 83.7659 79.3915 84.0145C79.0091 84.2632 78.7402 84.6521 78.6432 85.0971L76.826 93.6986L75.0435 85.0932C74.9708 84.6399 74.7206 84.234 74.3478 83.965C73.9751 83.6959 73.5103 83.5858 73.0559 83.6587C72.8308 83.6948 72.6151 83.7748 72.421 83.894C72.2268 84.0133 72.0581 84.1695 71.9245 84.3538C71.6545 84.726 71.5437 85.1897 71.6163 85.6431C71.6316 85.69 71.6392 85.739 71.639 85.7883C71.5996 85.5628 71.5157 85.3474 71.3923 85.1546C71.2689 84.9617 71.1084 84.7951 70.9201 84.6646C70.7318 84.534 70.5194 84.4419 70.2951 84.3937C70.0709 84.3455 69.8392 84.3422 69.6136 84.3838C69.3879 84.4254 69.1728 84.5113 68.9805 84.6363C68.7882 84.7613 68.6226 84.9231 68.4933 85.1123C68.364 85.3015 68.2735 85.5144 68.227 85.7386C68.1806 85.9628 68.1791 86.1939 68.2227 86.4187C68.2217 86.435 68.2365 86.4514 68.2356 86.4673L68.4667 87.5993L70.0237 95.2329C70.2893 96.5547 70.9348 97.7704 71.8816 98.7316C72.8283 99.6929 74.0354 100.358 75.3553 100.646L75.3545 100.662C76.3154 100.849 77.3033 100.852 78.2657 100.671L78.2667 100.654C79.5865 100.363 80.7942 99.6979 81.7444 98.7383C82.6945 97.7786 83.3467 96.5657 83.6222 95.2454L85.2006 87.6186L85.4337 86.4838C85.4838 86.2621 85.4885 86.0326 85.4477 85.8091C85.4069 85.5856 85.3213 85.3726 85.1961 85.1829C85.071 84.9932 84.9087 84.8307 84.719 84.705C84.5294 84.5793 84.3163 84.4931 84.0924 84.4515L84.0929 84.4513Z" fill="white"/>
<path d="M78.354 101.14C77.3323 101.333 76.283 101.33 75.2627 101.131C75.2176 101.122 75.1739 101.107 75.1332 101.085C73.7484 100.759 72.4868 100.043 71.498 99.0225C70.5093 98.002 69.8348 96.7197 69.5545 95.3277L67.7706 86.5833C67.7594 86.5495 67.7516 86.5148 67.7475 86.4795C67.669 86.0348 67.7295 85.5767 67.9208 85.1672C68.112 84.7578 68.4248 84.4168 68.8167 84.1905C69.2086 83.9642 69.6607 83.8636 70.1116 83.9023C70.5625 83.941 70.9905 84.117 71.3375 84.4067C71.3964 84.2858 71.466 84.1703 71.5456 84.0618C71.7152 83.8281 71.9296 83.6303 72.1765 83.48C72.4233 83.3298 72.6976 83.2299 72.9834 83.1864C73.2726 83.1401 73.5681 83.1516 73.8527 83.2202C74.1374 83.2889 74.4054 83.4133 74.6413 83.5862C74.8736 83.754 75.0703 83.9659 75.2203 84.2098C75.3703 84.4536 75.4706 84.7246 75.5154 85.0073L76.831 91.3595L78.1749 84.9996C78.2723 84.5555 78.5049 84.1522 78.8408 83.845C79.1767 83.5377 79.5995 83.3415 80.0513 83.2831C80.5031 83.2248 80.9618 83.3072 81.3646 83.5191C81.7674 83.7309 82.0946 84.0619 82.3014 84.4667C82.5554 84.2531 82.8537 84.0985 83.1748 84.0139C83.4959 83.9294 83.8317 83.917 84.158 83.9777C84.1878 83.981 84.2173 83.9871 84.2459 83.9959C84.8098 84.1236 85.3014 84.4657 85.6161 84.9495C85.7726 85.1899 85.8784 85.4596 85.9272 85.7421C85.9761 86.0246 85.9668 86.3141 85.9001 86.5931L85.6701 87.7138L84.0917 95.3416C83.801 96.7332 83.1187 98.0137 82.1249 99.0328C81.131 100.052 79.8668 100.767 78.4804 101.095C78.4408 101.117 78.3982 101.131 78.354 101.14ZM75.5621 100.214C76.391 100.362 77.2396 100.364 78.0695 100.22C78.0995 100.206 78.131 100.195 78.1635 100.188C79.3929 99.9163 80.5178 99.2965 81.403 98.4026C82.2882 97.5088 82.8959 96.3791 83.1531 95.1493L84.9647 86.3884C85.0033 86.2324 85.0096 86.0701 84.983 85.9116C84.9564 85.7532 84.8976 85.6018 84.8101 85.467C84.7192 85.3257 84.6004 85.2044 84.461 85.1104C84.3216 85.0164 84.1644 84.9518 83.9991 84.9203C83.6736 84.8521 83.3341 84.9152 83.0548 85.0958C82.7755 85.2764 82.5791 85.5598 82.5084 85.8843C82.4831 86.0075 82.4103 86.1159 82.3055 86.1859C82.2008 86.256 82.0726 86.282 81.9489 86.2584C81.8251 86.2349 81.7156 86.1636 81.6443 86.06C81.5729 85.9564 81.5453 85.8289 81.5676 85.7051C81.6282 85.3777 81.5565 85.0398 81.368 84.7653C81.1795 84.4908 80.8896 84.3021 80.5618 84.2405C80.2426 84.1803 79.9124 84.2468 79.6414 84.4259C79.3704 84.605 79.1801 84.8825 79.1111 85.1994L77.2949 93.7962C77.2724 93.9038 77.2134 94.0003 77.1279 94.0696C77.0424 94.1389 76.9356 94.1767 76.8255 94.1767C76.7153 94.1767 76.6086 94.1388 76.5233 94.0694C76.438 94.0001 76.3792 93.9035 76.3569 93.7959L74.5745 85.1905C74.573 85.1825 74.5715 85.1749 74.57 85.1666C74.5456 85.0058 74.4893 84.8515 74.4046 84.7127C74.3198 84.5739 74.2082 84.4533 74.0762 84.358C73.9417 84.2594 73.7889 84.1885 73.6267 84.1493C73.4644 84.1102 73.296 84.1036 73.1311 84.13C72.9699 84.1549 72.8151 84.2114 72.6758 84.2962C72.5365 84.381 72.4154 84.4925 72.3195 84.6242C72.1237 84.8893 72.0399 85.2204 72.0862 85.5462C72.1108 85.6345 72.1212 85.7261 72.1169 85.8176C72.1095 85.9337 72.0599 86.0432 71.9775 86.1255C71.895 86.2078 71.7853 86.2573 71.6689 86.2647C71.5525 86.2721 71.4375 86.2369 71.3453 86.1657C71.2532 86.0945 71.1903 85.9922 71.1684 85.8779C71.1087 85.5526 70.9226 85.264 70.6506 85.0749C70.3787 84.8859 70.0428 84.8118 69.7161 84.8686C69.3894 84.9255 69.0983 85.1087 68.9061 85.3785C68.714 85.6483 68.6363 85.9828 68.69 86.3092C68.6987 86.3367 68.7051 86.3647 68.7093 86.3931L70.493 95.1364C70.7402 96.3674 71.3413 97.4998 72.223 98.3952C73.1046 99.2905 74.2286 99.9103 75.4579 100.179C75.4939 100.187 75.5288 100.199 75.5621 100.214Z" fill="#222433"/>
<path d="M73.066 92.8081C72.9424 92.8313 72.8147 92.8051 72.7104 92.7351C72.6061 92.6652 72.5336 92.5571 72.5085 92.4342L71.1462 85.7551C71.1209 85.6309 71.146 85.5017 71.2161 85.396C71.2862 85.2902 71.3956 85.2165 71.5201 85.1911C71.5818 85.1777 71.6455 85.1768 71.7076 85.1883C71.7696 85.1999 71.8287 85.2238 71.8813 85.2585C71.934 85.2932 71.9791 85.3381 72.0141 85.3905C72.0491 85.4429 72.0732 85.5018 72.0849 85.5637L73.4472 92.2426C73.4598 92.3041 73.4601 92.3675 73.4481 92.4291C73.4361 92.4908 73.4121 92.5495 73.3774 92.6018C73.3427 92.6542 73.2979 92.6993 73.2458 92.7344C73.1936 92.7696 73.1351 92.7942 73.0734 92.8067L73.066 92.8081Z" fill="#222433"/>
<path d="M80.777 92.8158C80.6997 92.8303 80.62 92.8256 80.545 92.802C80.4699 92.7785 80.4019 92.7369 80.3468 92.6809C80.2918 92.6248 80.2514 92.5561 80.2293 92.4808C80.2072 92.4055 80.204 92.3259 80.2201 92.2491L81.6098 85.5682C81.622 85.5062 81.6465 85.4473 81.6817 85.3948C81.7169 85.3422 81.7622 85.2972 81.815 85.2622C81.8677 85.2273 81.9269 85.2031 81.9891 85.1911C82.0512 85.179 82.1151 85.1794 82.1771 85.1922C82.2391 85.205 82.298 85.2299 82.3502 85.2656C82.4025 85.3012 82.4471 85.3468 82.4816 85.3997C82.516 85.4527 82.5396 85.512 82.551 85.5741C82.5624 85.6362 82.5613 85.7 82.5478 85.7617L81.1582 92.4427C81.1389 92.5356 81.0924 92.6207 81.0245 92.6871C80.9566 92.7535 80.8704 92.7984 80.777 92.8158Z" fill="#222433"/>
<path d="M76.3701 142.931C76.3461 142.935 76.3216 142.937 76.2971 142.937C76.1975 142.936 76.1024 142.897 76.0329 142.828C75.9633 142.759 75.9249 142.665 75.9262 142.567L76.5223 96.9539C76.5243 96.8567 76.5655 96.764 76.6367 96.6959C76.708 96.6278 76.8036 96.5899 76.9027 96.5904C77.0019 96.5909 77.0965 96.6297 77.1659 96.6985C77.2354 96.7672 77.2741 96.8603 77.2737 96.9575L76.678 142.57C76.677 142.655 76.6458 142.738 76.5896 142.804C76.5335 142.87 76.4559 142.914 76.3701 142.931Z" fill="#222433"/>
<path d="M85.2949 112.711C83.0548 112.418 81.478 110.353 81.7731 108.099C82.0681 105.844 84.1233 104.254 86.3634 104.547C88.6035 104.84 90.1802 106.906 89.8852 109.16C89.5901 111.415 87.535 113.005 85.2949 112.711Z" fill="white"/>
<path d="M85.2352 113.168C87.7216 113.493 90.0108 111.722 90.3383 109.219C90.6659 106.716 88.9096 104.415 86.4233 104.09C83.937 103.765 81.6477 105.536 81.3202 108.039C80.9926 110.542 82.7489 112.842 85.2352 113.168ZM86.3037 105.004C88.2904 105.264 89.6939 107.101 89.4323 109.1C89.1707 111.1 87.3414 112.514 85.3548 112.254C83.3681 111.994 81.9646 110.156 82.2262 108.157C82.4878 106.158 84.3171 104.744 86.3037 105.004Z" fill="#222433"/>
<path d="M76.9188 142.142C77.1423 142.171 77.3588 142.03 77.4192 141.804L86.2703 108.748C86.3361 108.502 86.1919 108.25 85.9483 108.184C85.7051 108.118 85.4539 108.264 85.3881 108.51L76.5369 141.566C76.4711 141.811 76.6153 142.064 76.8589 142.13C76.8788 142.135 76.8987 142.139 76.9188 142.142Z" fill="#222433"/>
<path d="M293.465 142.85H4.55881C4.25571 142.85 4.02393 142.593 4.02393 142.258C4.02393 141.923 4.25571 141.667 4.55881 141.667H293.465C293.768 141.667 294 141.923 294 142.258C294 142.593 293.768 142.85 293.465 142.85Z" fill="#222433"/>
</svg>
