<svg viewBox="0 0 278 279" fill="none" xmlns="http://www.w3.org/2000/svg">
<path fill-rule="evenodd" clip-rule="evenodd" d="M201.337 76.4089C210.511 90.8227 209.059 108.434 214.456 124.639C221.755 146.555 248.847 167.258 238.448 187.844C228.158 208.214 196.504 201.928 173.876 204.973C158.143 207.09 143.31 203.638 127.453 202.779C108.241 201.738 87.195 210.205 71.2455 199.412C54.4566 188.051 45.0142 166.783 44.3437 146.54C43.6988 127.072 59.6777 112.327 67.7746 94.6312C76.726 75.0679 76.127 49.1053 94.2365 37.5001C112.679 25.6815 137.771 29.0671 158.393 36.559C177.2 43.3913 190.589 59.5226 201.337 76.4089Z" fill="#9AE2E0" fill-opacity="0.4"/>
<path d="M122.176 63.5058L125.583 72.5729L126.051 72.5575C132.15 72.1339 133.11 68.9467 133.11 68.9467C133.557 68.2862 135.143 65.9003 136.938 65.7931L140.485 65.6491C146.513 66.039 144.57 62.9341 142.704 62.5674L138.282 61.6847L145.078 59.114C147.517 57.6247 145.921 56.0726 144.582 56.2645L138.096 57.426L144.015 54.536C144.799 54.0375 145.259 52.2093 143.527 52.0636C143.262 52.0445 142.995 52.0654 142.736 52.1255L138.623 53.0278C136.093 53.6096 130.4 56.577 128.415 58.2488L122.176 63.5058Z" fill="white"/>
<path d="M125.583 73.0374C125.488 73.0374 125.395 73.0086 125.318 72.9547C125.24 72.9009 125.18 72.8246 125.147 72.7361L121.741 63.669C121.707 63.5792 121.702 63.4812 121.726 63.3884C121.75 63.2957 121.803 63.2127 121.876 63.1508L128.115 57.8939C130.089 56.2311 135.802 53.1996 138.519 52.5752L142.637 51.6716C142.941 51.6015 143.255 51.5775 143.566 51.6005C144.395 51.6702 144.966 52.096 145.132 52.7694C145.213 53.1742 145.174 53.5937 145.02 53.9768C144.866 54.3599 144.604 54.6902 144.266 54.9275C144.251 54.9368 144.236 54.9453 144.22 54.9531L141.296 56.3807L144.5 55.8077L144.515 55.8053C145.464 55.6699 146.433 56.1924 146.724 56.9963C146.871 57.4048 147.03 58.4675 145.321 59.5108C145.296 59.526 145.27 59.5388 145.243 59.549L139.962 61.5467L142.795 62.1125C143.935 62.3364 145.152 63.4405 145.01 64.5283C144.899 65.3766 144.024 66.3388 140.479 66.1151L136.957 66.2581C135.949 66.3183 134.793 67.294 133.53 69.1576C133.334 69.6841 131.982 72.6122 126.083 73.0216H126.067L125.598 73.0371L125.583 73.0374ZM122.728 63.6495L125.901 72.0974L126.028 72.0933C131.675 71.6985 132.628 68.9268 132.666 68.809C132.68 68.7656 132.7 68.7244 132.725 68.6865L132.748 68.653C133.284 67.8604 134.915 65.4485 136.911 65.3292L140.467 65.1849C140.483 65.1839 140.499 65.1839 140.516 65.1849C143.056 65.3489 144.027 64.8685 144.087 64.4067C144.152 63.9081 143.368 63.1706 142.614 63.0226L138.191 62.1399C138.092 62.1201 138.002 62.0687 137.935 61.9934C137.868 61.9181 137.827 61.8231 137.818 61.7226C137.81 61.6221 137.835 61.5216 137.889 61.4363C137.943 61.3511 138.023 61.2856 138.117 61.2499L144.872 58.6947C145.639 58.2175 145.994 57.7142 145.848 57.3099C145.71 56.9275 145.154 56.6553 144.655 56.7225L138.178 57.8824C138.068 57.9023 137.954 57.8816 137.857 57.8242C137.761 57.7667 137.688 57.6763 137.653 57.5698C137.618 57.4632 137.623 57.3476 137.667 57.2443C137.711 57.141 137.791 57.057 137.891 57.0078L143.784 54.1309C144.07 53.9336 144.327 53.393 144.229 52.9911C144.203 52.8892 144.127 52.5794 143.488 52.5265C143.27 52.5118 143.05 52.5296 142.836 52.5792L138.723 53.4817C136.353 54.0267 130.738 56.8994 128.715 58.6038L122.728 63.6495Z" fill="#222433"/>
<path d="M130.544 65.9917C130.526 65.9917 130.509 65.9907 130.492 65.9888C130.369 65.9752 130.257 65.9136 130.18 65.8175C130.103 65.7214 130.067 65.5986 130.08 65.4762C130.098 65.3202 130.121 65.2903 130.513 64.8056C131.302 63.8288 133.398 61.2338 133.988 59.3753C134.142 58.8902 133.75 58.542 133.627 58.4469C133.428 58.2891 133.188 58.1936 132.935 58.1723C132.682 58.1511 132.429 58.2051 132.206 58.3275L128.11 62.0232C128.019 62.1059 127.898 62.1488 127.775 62.1426C127.651 62.1364 127.536 62.0816 127.453 61.9902C127.37 61.8988 127.327 61.7783 127.333 61.6552C127.339 61.5321 127.394 61.4166 127.486 61.3339L131.614 57.6091C131.634 57.5912 131.655 57.575 131.678 57.5608C132.063 57.3264 132.51 57.2152 132.96 57.2421C133.41 57.269 133.841 57.4327 134.195 57.7113C134.838 58.2068 135.099 58.9514 134.875 59.6559C134.233 61.6808 132.057 64.3746 131.238 65.3887C131.119 65.5361 130.996 65.6883 130.954 65.7449C130.915 65.8193 130.855 65.8816 130.783 65.9251C130.711 65.9686 130.628 65.9916 130.544 65.9917Z" fill="#222433"/>
<path d="M98.1368 173.76L88.9668 192.894L109.603 202.603L133.948 202.588C133.785 197.295 130.484 195.315 126.722 193.954L120.082 191.297C118.557 190.68 117.208 189.696 116.157 188.432C115.106 187.168 114.385 185.664 114.06 184.053L114.511 181.516L98.1368 173.76Z" fill="white"/>
<path d="M109.603 203.068C109.534 203.068 109.467 203.053 109.404 203.023L88.768 193.315C88.7125 193.289 88.6627 193.252 88.6215 193.207C88.5803 193.161 88.5485 193.108 88.5279 193.05C88.5074 192.993 88.4984 192.932 88.5016 192.87C88.5048 192.809 88.5201 192.749 88.5466 192.694L97.7166 173.56C97.7698 173.449 97.8649 173.364 97.981 173.322C98.0971 173.281 98.2247 173.288 98.336 173.341L114.71 181.096C114.802 181.14 114.877 181.212 114.924 181.303C114.971 181.393 114.986 181.497 114.969 181.597L114.533 184.046C114.853 185.564 115.542 186.981 116.54 188.17C117.537 189.36 118.814 190.285 120.255 190.866L126.888 193.52C130.695 194.898 134.239 196.95 134.413 202.573C134.415 202.635 134.404 202.697 134.382 202.755C134.359 202.813 134.325 202.866 134.282 202.911C134.239 202.956 134.187 202.991 134.129 203.015C134.072 203.04 134.01 203.052 133.948 203.052L109.603 203.068V203.068ZM89.5882 192.674L109.707 202.139L133.458 202.123C133.148 197.679 130.472 195.805 126.563 194.391L126.548 194.385L119.909 191.728C118.31 191.085 116.897 190.056 115.797 188.732C114.696 187.409 113.942 185.833 113.603 184.147C113.592 184.089 113.591 184.03 113.601 183.972L113.99 181.784L98.3562 174.378L89.5882 192.674Z" fill="#222433"/>
<path d="M119.095 197.041C117.49 197.042 115.894 196.795 114.364 196.31L107.308 194.07C104.467 193.23 101.996 191.451 100.299 189.026C99.6626 188.103 98.8933 187.278 98.0162 186.577C97.0051 185.779 95.8881 185.125 94.6971 184.632L93.2578 184.037C93.1438 183.99 93.0532 183.899 93.006 183.785C92.9589 183.671 92.9589 183.543 93.0063 183.43C93.0536 183.316 93.1443 183.225 93.2584 183.178C93.3725 183.131 93.5007 183.131 93.6147 183.179L95.054 183.774C96.3243 184.299 97.5156 184.998 98.5941 185.849C99.5428 186.606 100.375 187.498 101.064 188.496C102.641 190.75 104.939 192.402 107.58 193.182L114.646 195.425C117.004 196.172 119.513 196.312 121.94 195.834L128.705 194.589C128.826 194.568 128.949 194.596 129.05 194.666C129.15 194.736 129.219 194.842 129.241 194.962C129.263 195.083 129.237 195.207 129.168 195.308C129.1 195.409 128.994 195.479 128.874 195.502L122.114 196.747C121.12 196.943 120.108 197.042 119.095 197.041Z" fill="#222433"/>
<path d="M137.204 77.604C137.201 77.5057 134.173 77.7279 134.074 77.7308L125.682 77.9704L132.559 72.9619C132.598 72.934 132.623 72.8921 132.63 72.8455C132.638 72.7988 132.626 72.7512 132.598 72.713L122.646 59.1018C122.633 59.0829 122.615 59.0669 122.595 59.0547C122.575 59.0426 122.553 59.0344 122.53 59.0308C122.507 59.0272 122.483 59.0282 122.46 59.0337C122.437 59.0392 122.416 59.0491 122.397 59.0629L93.3255 80.2349C92.1838 81.0907 91.2624 82.2051 90.6373 83.4863C90.0122 84.7675 89.7014 86.1787 89.7304 87.6034C89.7957 89.8842 90.7662 92.0457 92.4283 93.6124C94.0905 95.1791 96.3081 96.0226 98.5933 95.9574L134.567 94.9303C134.614 94.929 134.659 94.909 134.692 94.8746C134.724 94.8403 134.742 94.7945 134.74 94.7473L137.204 77.604Z" fill="#113C7B"/>
<path d="M132.546 108.35L126.876 89.297C126.816 89.0869 126.725 88.6554 126.63 88.1712C126.234 86.2218 126.565 84.195 127.561 82.4723C128.48 80.9152 129.671 80.1073 131.335 79.2035C131.335 79.2035 134.055 78.7287 135.125 78.7287H153.462C156.107 78.5511 158.795 79.9079 158.795 79.9079C160.544 80.5049 161.994 83.1244 161.994 83.1244C162.796 85.299 163.084 87.9291 163.084 90.2463V108.35L132.546 108.35Z" fill="#113C7B"/>
<path d="M184.418 95.5473C183.851 94.8826 183.186 94.3087 182.445 93.8457L158.58 78.9107C156.641 77.7054 154.303 77.3148 152.077 77.8241C149.851 78.3334 147.918 79.7013 146.699 81.629C145.491 83.5637 145.1 85.8968 145.61 88.1186C146.121 90.3404 147.491 92.2703 149.423 93.4868L166.543 104.201L159.357 117.201C158.26 119.2 157.999 121.551 158.633 123.741C159.267 125.931 160.743 127.781 162.74 128.888C164.742 129.984 167.098 130.244 169.292 129.611C171.486 128.978 173.34 127.505 174.45 125.512L185.546 105.439C186.404 103.875 186.756 102.085 186.554 100.314C186.352 98.5433 185.606 96.8781 184.418 95.5473Z" fill="#113C7B"/>
<path d="M162.827 180.853L162.896 202.724H202.948L202.776 202.201C202.034 199.923 200.72 197.872 198.959 196.244C197.198 194.615 195.049 193.464 192.716 192.899L192.193 192.774C188.187 191.173 184.16 188.398 182.326 184.451L181.583 180.869L162.827 180.853Z" fill="white"/>
<path d="M202.948 203.189H162.896C162.773 203.189 162.654 203.14 162.567 203.053C162.48 202.967 162.431 202.849 162.43 202.726L162.361 180.854C162.361 180.793 162.373 180.732 162.396 180.675C162.42 180.619 162.454 180.567 162.497 180.524C162.54 180.481 162.592 180.447 162.648 180.423C162.705 180.4 162.766 180.388 162.827 180.388L181.584 180.403C181.691 180.403 181.794 180.44 181.877 180.507C181.96 180.575 182.017 180.669 182.039 180.773L182.771 184.302C184.881 188.789 189.65 191.252 192.334 192.329L192.824 192.446C197.735 193.618 201.62 197.21 203.217 202.055L203.39 202.578C203.413 202.648 203.419 202.722 203.408 202.795C203.396 202.867 203.368 202.936 203.325 202.996C203.282 203.055 203.225 203.104 203.159 203.137C203.094 203.171 203.021 203.188 202.948 203.188L202.948 203.189ZM163.36 202.26H202.305C201.586 200.072 200.316 198.105 198.619 196.545C196.922 194.986 194.852 193.886 192.608 193.351L192.085 193.226C192.063 193.221 192.041 193.214 192.02 193.206C189.204 192.08 184.146 189.472 181.904 184.646C181.889 184.614 181.878 184.58 181.871 184.545L181.204 181.334L163.294 181.318L163.36 202.26Z" fill="#222433"/>
<path d="M189.112 147.485C189.104 145.722 188.544 144.005 187.512 142.574L163.134 108.765L162.687 108L132.675 107.913L131.419 109.276C128.443 112.831 128.109 117.623 129.452 121.598L121.012 144.158C120.796 144.734 120.486 145.269 120.095 145.744L97.2563 173.413L120.653 185.299L140.756 161.843C141.592 160.867 142.267 159.765 142.756 158.577L151.7 136.847L162.777 153.535L162.87 184.507L189.294 184.941L189.112 147.485Z" fill="white"/>
<path d="M120.653 185.764C120.579 185.764 120.507 185.746 120.442 185.713L97.0454 173.828C96.9833 173.796 96.9291 173.751 96.8867 173.696C96.8444 173.641 96.815 173.577 96.8008 173.508C96.7866 173.44 96.7879 173.37 96.8046 173.302C96.8212 173.235 96.8529 173.172 96.8972 173.118L119.735 145.449C120.094 145.014 120.378 144.523 120.575 143.995L128.959 121.589C127.474 117.035 128.255 112.331 131.061 108.978C131.066 108.972 131.071 108.967 131.077 108.961L132.334 107.599C132.377 107.551 132.43 107.514 132.489 107.488C132.548 107.462 132.612 107.449 132.676 107.449H132.678L162.689 107.535C162.77 107.536 162.85 107.557 162.92 107.597C162.99 107.638 163.049 107.696 163.09 107.766L163.525 108.512L187.891 142.302C188.983 143.81 189.573 145.622 189.578 147.483L189.759 184.939C189.76 185.001 189.748 185.062 189.724 185.119C189.7 185.176 189.665 185.228 189.621 185.272C189.531 185.359 189.411 185.407 189.286 185.406L162.862 184.972C162.74 184.97 162.624 184.92 162.538 184.834C162.453 184.747 162.405 184.63 162.404 184.508L162.311 153.676L151.797 137.835L143.187 158.753C142.679 159.987 141.978 161.132 141.109 162.145L121.006 185.601C120.963 185.652 120.908 185.693 120.847 185.721C120.786 185.749 120.72 185.764 120.653 185.764ZM97.9846 173.262L120.537 184.719L140.403 161.541C141.207 160.603 141.857 159.543 142.326 158.401L151.271 136.671C151.303 136.593 151.356 136.525 151.424 136.475C151.492 136.424 151.572 136.393 151.656 136.385C151.74 136.377 151.825 136.392 151.901 136.428C151.978 136.464 152.043 136.52 152.09 136.591L163.165 153.279C163.215 153.354 163.242 153.443 163.242 153.534L163.334 184.05L188.826 184.468L188.647 147.487C188.642 145.82 188.113 144.197 187.135 142.845L162.756 109.036C162.747 109.024 162.739 109.012 162.731 108.999L162.419 108.464L132.879 108.379L131.769 109.583C129.145 112.724 128.444 117.159 129.893 121.451C129.928 121.552 129.926 121.661 129.888 121.761L121.448 144.321C121.215 144.945 120.879 145.526 120.455 146.04L97.9846 173.262Z" fill="#222433"/>
<path d="M194.924 189.374C194.749 189.373 194.574 189.363 194.401 189.341L183.505 188.126C183.398 188.114 183.299 188.065 183.224 187.989C183.149 187.912 183.103 187.812 183.093 187.705C183.084 187.598 183.111 187.492 183.172 187.403C183.232 187.314 183.321 187.249 183.424 187.219L194.287 183.993C194.84 183.824 195.434 183.848 195.971 184.062C196.508 184.275 196.956 184.665 197.241 185.167C197.275 185.227 197.306 185.29 197.336 185.352C197.827 186.39 197.772 187.532 197.194 188.333C196.702 189.013 195.908 189.374 194.924 189.374ZM185.888 187.457L194.508 188.418C195.386 188.523 196.07 188.3 196.439 187.79C196.819 187.263 196.84 186.482 196.494 185.749C196.473 185.703 196.449 185.658 196.425 185.613C196.242 185.297 195.957 185.053 195.617 184.92C195.277 184.788 194.901 184.775 194.553 184.884L185.888 187.457Z" fill="#222433"/>
<path d="M125.225 189.663C124.918 189.661 124.612 189.625 124.312 189.555L113.606 187.199C113.502 187.176 113.408 187.117 113.342 187.033C113.275 186.949 113.24 186.845 113.242 186.738C113.244 186.631 113.282 186.527 113.352 186.446C113.421 186.364 113.516 186.309 113.622 186.289L124.765 184.224C125.333 184.115 125.921 184.201 126.432 184.47C126.944 184.738 127.348 185.173 127.579 185.702C127.606 185.767 127.631 185.832 127.654 185.897C128.032 186.981 127.857 188.111 127.197 188.846C126.947 189.116 126.641 189.329 126.3 189.47C125.96 189.611 125.593 189.677 125.225 189.663ZM116.046 186.785L124.517 188.649C125.378 188.846 126.083 188.695 126.503 188.226C126.937 187.743 127.04 186.968 126.774 186.203C126.757 186.155 126.738 186.107 126.718 186.059C126.57 185.726 126.313 185.453 125.988 185.286C125.664 185.118 125.292 185.066 124.934 185.138L116.046 186.785Z" fill="#222433"/>
<path d="M163.056 102.397C162.932 102.397 162.814 102.348 162.727 102.261C162.639 102.174 162.59 102.056 162.59 101.933V96.1601C162.59 96.0369 162.639 95.9188 162.727 95.8316C162.814 95.7445 162.932 95.6956 163.056 95.6956C163.179 95.6956 163.298 95.7445 163.385 95.8316C163.472 95.9188 163.521 96.0369 163.521 96.1601V101.932C163.521 101.993 163.509 102.054 163.486 102.11C163.463 102.166 163.428 102.218 163.385 102.261C163.342 102.304 163.291 102.338 163.234 102.362C163.178 102.385 163.117 102.397 163.056 102.397Z" fill="#222433"/>
<path d="M166.925 107.076C166.816 107.076 166.711 107.038 166.628 106.969C166.544 106.899 166.488 106.803 166.468 106.696L166.023 104.307C166.007 104.221 166.016 104.132 166.049 104.051C166.081 103.969 166.136 103.899 166.207 103.847C166.278 103.795 166.362 103.765 166.449 103.759C166.537 103.753 166.625 103.772 166.702 103.813L169.209 105.16C169.262 105.189 169.31 105.229 169.349 105.276C169.387 105.323 169.416 105.378 169.434 105.436C169.451 105.495 169.457 105.556 169.451 105.617C169.445 105.677 169.427 105.736 169.398 105.79C169.369 105.844 169.329 105.891 169.282 105.93C169.235 105.968 169.18 105.997 169.122 106.015C169.063 106.032 169.002 106.038 168.941 106.032C168.88 106.026 168.821 106.008 168.767 105.979L167.116 105.091L167.383 106.526C167.394 106.586 167.394 106.648 167.381 106.707C167.368 106.767 167.344 106.824 167.309 106.874C167.275 106.924 167.231 106.968 167.179 107.001C167.128 107.034 167.071 107.057 167.011 107.068C166.983 107.073 166.954 107.076 166.925 107.076Z" fill="#222433"/>
<path d="M131.168 98.2181C131.05 98.2182 130.936 98.1733 130.85 98.0926L128.181 95.5994C128.113 95.5357 128.065 95.453 128.045 95.3621C128.025 95.2712 128.032 95.1762 128.066 95.0896C128.101 95.0029 128.16 94.9285 128.237 94.8761C128.315 94.8237 128.406 94.7957 128.499 94.7957H128.501L132.168 94.8111C132.292 94.8114 132.41 94.8606 132.497 94.9479C132.584 95.0352 132.633 95.1535 132.633 95.2767C132.632 95.3999 132.583 95.518 132.496 95.6049C132.408 95.6919 132.29 95.7406 132.166 95.7403H132.164L129.682 95.7296L131.485 97.4142C131.553 97.4779 131.601 97.5606 131.621 97.6515C131.642 97.7425 131.634 97.8375 131.6 97.9242C131.566 98.0109 131.506 98.0853 131.429 98.1377C131.352 98.1901 131.26 98.2181 131.167 98.2181H131.168Z" fill="#222433"/>
<path d="M115.615 85.1291C115.515 85.1294 115.418 85.0974 115.337 85.038C115.257 84.9786 115.197 84.8949 115.168 84.7992C115.139 84.7036 115.142 84.6012 115.176 84.5072C115.21 84.4132 115.273 84.3326 115.357 84.2773L125.547 77.493C125.65 77.4246 125.776 77.3998 125.897 77.4239C125.957 77.4359 126.014 77.4595 126.065 77.4934C126.116 77.5274 126.159 77.571 126.193 77.6217C126.227 77.6725 126.251 77.7294 126.262 77.7893C126.274 77.8491 126.274 77.9107 126.262 77.9706C126.25 78.0304 126.227 78.0873 126.193 78.138C126.159 78.1887 126.115 78.2322 126.064 78.2661L115.873 85.0504C115.797 85.1015 115.707 85.1289 115.615 85.1291Z" fill="#222433"/>
<path d="M120.426 146.061C120.325 146.061 120.225 146.028 120.144 145.967C120.063 145.905 120.005 145.819 119.977 145.721C119.95 145.623 119.956 145.518 119.994 145.424C120.032 145.33 120.099 145.25 120.187 145.198L124.238 142.778C124.291 142.747 124.349 142.726 124.409 142.717C124.47 142.708 124.531 142.711 124.591 142.726C124.65 142.741 124.706 142.767 124.755 142.804C124.804 142.84 124.845 142.886 124.877 142.938C124.908 142.99 124.929 143.048 124.938 143.109C124.947 143.169 124.944 143.231 124.929 143.29C124.914 143.349 124.888 143.405 124.851 143.454C124.815 143.503 124.769 143.544 124.716 143.575L120.666 145.995C120.594 146.039 120.511 146.061 120.426 146.061Z" fill="#222433"/>
<path d="M151.64 137.369C151.563 137.369 151.487 137.349 151.419 137.313C151.351 137.276 151.294 137.224 151.251 137.159C151.209 137.095 151.183 137.021 151.177 136.944C151.17 136.868 151.182 136.791 151.213 136.72L153.702 130.959C153.751 130.846 153.843 130.757 153.958 130.711C154.072 130.666 154.201 130.668 154.314 130.716C154.427 130.765 154.517 130.857 154.562 130.972C154.608 131.086 154.606 131.214 154.557 131.327L152.068 137.088C152.032 137.171 151.972 137.242 151.896 137.292C151.82 137.342 151.731 137.369 151.64 137.369Z" fill="#222433"/>
<path d="M162.845 154.271C162.723 154.271 162.605 154.222 162.518 154.137C162.431 154.051 162.381 153.934 162.379 153.812L162.329 150.137C162.328 150.075 162.339 150.015 162.362 149.958C162.384 149.902 162.418 149.85 162.46 149.806C162.503 149.762 162.554 149.727 162.61 149.703C162.666 149.679 162.727 149.666 162.788 149.666C162.849 149.665 162.91 149.676 162.966 149.699C163.023 149.721 163.075 149.755 163.119 149.797C163.163 149.84 163.198 149.89 163.222 149.947C163.246 150.003 163.259 150.063 163.26 150.124L163.311 153.799C163.311 153.86 163.3 153.921 163.278 153.978C163.255 154.034 163.221 154.086 163.179 154.13C163.136 154.174 163.085 154.208 163.029 154.233C162.973 154.257 162.913 154.27 162.851 154.27L162.845 154.271Z" fill="#222433"/>
<path d="M190.701 197.55H190.628L176.207 197.441C174.969 197.429 173.767 197.02 172.778 196.275L169.387 193.704C168.52 193.047 167.488 192.644 166.405 192.54L163.227 192.232C163.105 192.22 162.992 192.159 162.914 192.064C162.836 191.969 162.799 191.847 162.811 191.725C162.823 191.603 162.883 191.49 162.978 191.412C163.072 191.334 163.194 191.296 163.317 191.307L166.495 191.615C167.749 191.736 168.946 192.203 169.95 192.964L173.341 195.535C174.169 196.159 175.176 196.502 176.214 196.512L190.634 196.621C191.654 196.629 192.668 196.455 193.627 196.108L197.417 194.685C197.533 194.641 197.661 194.646 197.773 194.696C197.886 194.747 197.974 194.841 198.017 194.956C198.061 195.071 198.056 195.199 198.005 195.311C197.954 195.424 197.861 195.511 197.745 195.554L193.949 196.98C192.908 197.358 191.809 197.551 190.701 197.55Z" fill="#222433"/>
<path d="M136.53 77.7372C136.689 79.1469 137.328 80.4596 138.339 81.4562C141.069 84.0317 146.032 84.8748 149.911 81.7822C151.075 80.8546 152.044 78.3598 152.044 78.3598C152.162 78.0393 151.842 77.716 151.521 77.5964L148.515 76.4751L139.965 76.5525L136.53 77.7372Z" fill="white"/>
<path d="M144.342 84.234C141.885 84.234 139.578 83.2653 138.02 81.7945C136.93 80.7217 136.241 79.3084 136.068 77.7902C136.066 77.7728 136.065 77.7554 136.065 77.7379C136.065 77.6411 136.095 77.5468 136.151 77.468C136.208 77.3892 136.287 77.3298 136.379 77.2981L139.814 76.1143C139.861 76.098 139.911 76.0894 139.961 76.0889L148.511 76.0115C148.568 76.0122 148.624 76.0221 148.678 76.0407L151.685 77.1622C152.245 77.3712 152.696 77.9366 152.481 78.521C152.437 78.6351 151.449 81.1515 150.202 82.1458C148.547 83.4932 146.478 84.2306 144.342 84.234ZM137.047 78.0507C137.252 79.2159 137.816 80.2884 138.659 81.1193C141.177 83.4944 145.874 84.407 149.621 81.42C150.613 80.6302 151.495 78.4793 151.6 78.2186C151.542 78.1324 151.457 78.0672 151.359 78.0327L148.433 76.9419L140.046 77.0178L137.047 78.0507Z" fill="#222433"/>
<path d="M141.714 69.6346C146.088 69.6346 149.634 66.1686 149.634 61.8931C149.634 57.6176 146.088 54.1516 141.714 54.1516C137.34 54.1516 133.794 57.6176 133.794 61.8931C133.794 66.1686 137.34 69.6346 141.714 69.6346Z" fill="#0782D0"/>
<path d="M152.897 64.1379C152.897 63.6109 152.783 63.0902 152.561 62.612C152.339 62.1337 152.016 61.7094 151.613 61.3684C151.211 61.0273 150.739 60.7778 150.23 60.6371C149.721 60.4965 149.187 60.468 148.666 60.5536C148.555 56.3289 145.556 55.757 142.607 55.757C141.673 55.7567 140.752 55.9662 139.91 56.3699C139.069 56.7735 138.329 57.361 137.746 58.0888C137.163 58.8165 136.751 59.6659 136.542 60.574C136.333 61.4821 136.331 62.4255 136.536 63.3345C136.1 63.5524 135.71 63.8539 135.391 64.222C135.071 64.59 134.827 65.0173 134.673 65.4795C134.518 65.9416 134.457 66.4296 134.491 66.9155C134.526 67.4014 134.656 67.8758 134.874 68.3115C135.093 68.7472 135.395 69.1357 135.764 69.4549C136.132 69.774 136.561 70.0175 137.024 70.1716C137.487 70.3256 137.976 70.3871 138.462 70.3525C138.949 70.3179 139.425 70.188 139.861 69.9701C139.915 70.125 139.972 70.2775 140.037 70.4265V77.1664C140.04 78.3034 140.495 79.3928 141.3 80.1968C142.106 81.0008 143.197 81.4539 144.336 81.4573C145.476 81.4539 146.567 81.0008 147.373 80.1968C148.178 79.3928 148.632 78.3033 148.636 77.1664V73.5226C149.878 72.896 150.876 71.8755 151.474 70.6214C152.072 69.3672 152.236 67.9503 151.94 66.5932C152.557 65.924 152.899 65.0474 152.897 64.1379Z" fill="white"/>
<path d="M144.336 81.9214C143.073 81.92 141.862 81.4185 140.969 80.527C140.075 79.6355 139.573 78.4267 139.572 77.1659V70.5982C139.125 70.7558 138.655 70.8358 138.182 70.8347C137.269 70.8347 136.381 70.5364 135.654 69.9855C134.926 69.4346 134.4 68.6613 134.154 67.7836C133.908 66.906 133.957 65.9722 134.293 65.1248C134.628 64.2773 135.233 63.5629 136.014 63.0904C135.85 62.1325 135.897 61.1504 136.153 60.2127C136.408 59.2751 136.866 58.4044 137.494 57.6617C138.122 56.9191 138.905 56.3222 139.788 55.9129C140.671 55.5036 141.633 55.2918 142.607 55.2922C145.471 55.2922 148.757 55.8459 149.105 60.0437C149.894 60.0142 150.674 60.2124 151.353 60.6145C152.032 61.0166 152.58 61.6054 152.932 62.3106C153.284 63.0157 153.425 63.8073 153.338 64.5903C153.251 65.3733 152.939 66.1147 152.441 66.7255C152.692 68.1051 152.505 69.5286 151.906 70.7972C151.308 72.0657 150.327 73.116 149.101 73.8014V77.1662C149.1 78.427 148.597 79.6358 147.704 80.5273C146.811 81.4187 145.6 81.9201 144.336 81.9214ZM139.861 69.5049C139.958 69.5049 140.052 69.5351 140.131 69.5912C140.21 69.6474 140.269 69.7267 140.301 69.8181C140.356 69.9779 140.41 70.1162 140.464 70.2404C140.489 70.299 140.503 70.3622 140.503 70.4262V77.1661C140.503 78.1809 140.907 79.1541 141.625 79.8717C142.344 80.5892 143.32 80.9924 144.336 80.9924C145.353 80.9924 146.328 80.5892 147.047 79.8717C147.766 79.1541 148.17 78.1809 148.17 77.1661V73.5225C148.17 73.4366 148.194 73.3525 148.239 73.2793C148.284 73.2062 148.348 73.1469 148.425 73.1081C149.387 72.6257 150.195 71.8854 150.759 70.9702C151.323 70.055 151.621 69.0012 151.618 67.9267C151.618 67.5114 151.573 67.0973 151.485 66.6914C151.469 66.6187 151.471 66.5433 151.49 66.4715C151.51 66.3997 151.546 66.3337 151.597 66.2789C152.044 65.7934 152.328 65.1809 152.409 64.5267C152.49 63.8725 152.365 63.2093 152.051 62.6295C151.737 62.0497 151.249 61.5822 150.656 61.2923C150.062 61.0024 149.393 60.9045 148.742 61.0122C148.676 61.0229 148.609 61.0195 148.545 61.0022C148.481 60.9848 148.421 60.954 148.37 60.9117C148.319 60.8694 148.277 60.8167 148.248 60.757C148.219 60.6974 148.203 60.6322 148.201 60.5659C148.101 56.7479 145.453 56.2214 142.607 56.2214C141.743 56.2211 140.89 56.4149 140.112 56.7884C139.333 57.1618 138.649 57.7054 138.109 58.3788C137.57 59.0522 137.189 59.8382 136.995 60.6784C136.802 61.5186 136.8 62.3916 136.99 63.2326C137.013 63.3342 137.001 63.4405 136.956 63.5345C136.911 63.6284 136.836 63.7045 136.742 63.7506C136.355 63.9379 136.008 64.2 135.723 64.5219C135.438 64.8438 135.22 65.219 135.081 65.6257C134.942 66.0324 134.886 66.4626 134.915 66.8912C134.944 67.3199 135.059 67.7385 135.251 68.1227C135.444 68.507 135.711 68.8493 136.037 69.1297C136.363 69.4102 136.742 69.6232 137.151 69.7564C137.56 69.8896 137.992 69.9404 138.421 69.9059C138.85 69.8713 139.268 69.752 139.65 69.5549C139.716 69.5219 139.788 69.5048 139.861 69.5049Z" fill="#222433"/>
<path d="M135.942 63.9646L140.157 63.8657L138.872 60.7464C138.617 60.0765 138.741 59.5628 139.419 59.3264L145.911 57.0617C146.483 56.8624 147.251 57.7511 147.677 58.1798L148.583 58.1262C148.601 58.1443 148.565 58.0893 148.536 57.9831C148.33 57.2379 147.804 56.764 147.234 56.3379L146.814 56.0238C146.631 55.8081 146.002 55.6546 145.725 55.5976L140.638 54.552L135.583 59.071L135.942 63.9646Z" fill="#0782D0"/>
<path d="M146.657 65.1616C146.546 65.1616 146.439 65.122 146.355 65.0498C146.27 64.9777 146.214 64.8778 146.197 64.7683C146.18 64.6587 146.203 64.5467 146.262 64.4524C146.32 64.3582 146.411 64.2879 146.516 64.2543L147.59 63.9136L146.021 61.0815C145.963 60.9738 145.95 60.8477 145.985 60.7306C146.02 60.6135 146.099 60.5147 146.206 60.4557C146.313 60.3967 146.44 60.3821 146.557 60.4152C146.675 60.4482 146.775 60.5263 146.836 60.6324L148.679 63.9596C148.712 64.0197 148.732 64.0865 148.736 64.155C148.74 64.2236 148.729 64.2922 148.704 64.356C148.678 64.4199 148.639 64.4773 148.589 64.5241C148.538 64.5709 148.478 64.606 148.413 64.6269L146.799 65.1396C146.753 65.1543 146.705 65.1617 146.657 65.1616Z" fill="#222433"/>
<path d="M143.176 63.8655C144.488 63.8655 145.552 62.8041 145.552 61.4949C145.552 60.1856 144.488 59.1243 143.176 59.1243C141.865 59.1243 140.801 60.1856 140.801 61.4949C140.801 62.8041 141.865 63.8655 143.176 63.8655Z" fill="white"/>
<path d="M143.176 64.3301C142.615 64.33 142.065 64.1637 141.598 63.8522C141.131 63.5406 140.767 63.0978 140.552 62.5797C140.337 62.0617 140.281 61.4916 140.391 60.9417C140.5 60.3917 140.771 59.8865 141.168 59.49C141.565 59.0935 142.071 58.8235 142.622 58.7141C143.174 58.6048 143.745 58.6609 144.264 58.8755C144.783 59.0901 145.226 59.4535 145.539 59.9197C145.851 60.386 146.017 60.9341 146.017 61.4949C146.016 62.2466 145.717 62.9672 145.184 63.4988C144.652 64.0303 143.93 64.3292 143.176 64.3301ZM143.176 59.5888C142.799 59.5889 142.43 59.7007 142.116 59.9101C141.801 60.1196 141.557 60.4173 141.412 60.7656C141.268 61.1139 141.23 61.4971 141.304 61.8668C141.377 62.2365 141.559 62.5761 141.826 62.8427C142.093 63.1092 142.434 63.2908 142.804 63.3643C143.175 63.4378 143.559 63.4001 143.907 63.2558C144.256 63.1115 144.555 62.8672 144.765 62.5538C144.974 62.2403 145.086 61.8718 145.086 61.4949C145.086 60.9895 144.884 60.505 144.526 60.1477C144.168 59.7903 143.683 59.5894 143.176 59.5888Z" fill="#222433"/>
<path d="M149.258 62.8151C150.569 62.8151 151.633 61.7537 151.633 60.4445C151.633 59.1352 150.569 58.0739 149.258 58.0739C147.946 58.0739 146.882 59.1352 146.882 60.4445C146.882 61.7537 147.946 62.8151 149.258 62.8151Z" fill="white"/>
<path d="M149.257 63.2795C148.696 63.2796 148.146 63.1133 147.679 62.8018C147.212 62.4903 146.848 62.0475 146.633 61.5294C146.418 61.0114 146.361 60.4413 146.471 59.8913C146.581 59.3413 146.851 58.8361 147.248 58.4396C147.646 58.0431 148.152 57.773 148.703 57.6636C149.254 57.5542 149.825 57.6103 150.344 57.8249C150.863 58.0395 151.307 58.4029 151.619 58.8692C151.931 59.3354 152.098 59.8836 152.098 60.4443C152.097 61.196 151.797 61.9166 151.265 62.4481C150.732 62.9796 150.01 63.2786 149.257 63.2795ZM149.257 58.5383C148.88 58.5383 148.51 58.65 148.196 58.8594C147.882 59.0689 147.637 59.3665 147.493 59.7148C147.348 60.0631 147.31 60.4463 147.384 60.8161C147.458 61.1858 147.64 61.5255 147.907 61.792C148.174 62.0586 148.514 62.2402 148.885 62.3137C149.255 62.3873 149.639 62.3495 149.988 62.2053C150.337 62.061 150.635 61.8167 150.845 61.5033C151.055 61.1898 151.167 60.8213 151.167 60.4443C151.166 59.939 150.965 59.4546 150.607 59.0973C150.249 58.7399 149.764 58.5389 149.257 58.5383Z" fill="#222433"/>
<path d="M144.664 62.9763C145.036 62.9763 145.339 62.6747 145.339 62.3027C145.339 61.9306 145.036 61.629 144.664 61.629C144.291 61.629 143.989 61.9306 143.989 62.3027C143.989 62.6747 144.291 62.9763 144.664 62.9763Z" fill="#222433"/>
<path d="M150.474 61.9791C150.847 61.9791 151.149 61.6775 151.149 61.3055C151.149 60.9334 150.847 60.6318 150.474 60.6318C150.102 60.6318 149.799 60.9334 149.799 61.3055C149.799 61.6775 150.102 61.9791 150.474 61.9791Z" fill="#222433"/>
<path d="M146.363 67.8389C146.261 67.839 146.162 67.8056 146.08 67.7438C145.999 67.682 145.94 67.5952 145.913 67.4969C145.887 67.3986 145.893 67.2941 145.931 67.1996C145.97 67.1051 146.038 67.0259 146.126 66.9741L146.425 66.798C146.867 66.538 147.358 66.3741 147.868 66.3172C148.378 66.2603 148.894 66.3116 149.382 66.4677L149.551 66.5221C149.61 66.5407 149.663 66.5706 149.71 66.6101C149.757 66.6495 149.795 66.6978 149.823 66.752C149.851 66.8063 149.868 66.8655 149.873 66.9263C149.878 66.9871 149.871 67.0483 149.852 67.1064C149.834 67.1645 149.804 67.2184 149.764 67.2649C149.725 67.3114 149.676 67.3497 149.622 67.3776C149.567 67.4055 149.508 67.4225 149.447 67.4275C149.386 67.4325 149.325 67.4254 149.267 67.4068L149.097 67.3524C148.734 67.2362 148.351 67.198 147.971 67.2404C147.592 67.2828 147.227 67.4047 146.898 67.5982L146.599 67.7744C146.528 67.8166 146.446 67.8388 146.363 67.8389Z" fill="#222433"/>
<path d="M139.649 63.6528C139.537 63.6527 139.428 63.612 139.343 63.5381C139.259 63.4641 139.203 63.3621 139.188 63.2507C139.173 63.1394 139.199 63.0264 139.261 62.9326C139.323 62.8387 139.417 62.7705 139.525 62.7405L140.733 62.4058C140.792 62.3892 140.854 62.3843 140.915 62.3915C140.975 62.3988 141.034 62.4179 141.088 62.4479C141.141 62.4779 141.188 62.5181 141.226 62.5663C141.264 62.6144 141.292 62.6696 141.308 62.7285C141.325 62.7875 141.329 62.8491 141.322 62.9098C141.314 62.9706 141.295 63.0292 141.264 63.0824C141.234 63.1356 141.194 63.1823 141.145 63.2199C141.097 63.2574 141.041 63.285 140.982 63.3011L139.774 63.6358C139.734 63.647 139.692 63.6527 139.649 63.6528Z" fill="#222433"/>
<path d="M145.491 61.4263C145.374 61.4264 145.262 61.3828 145.176 61.3043C145.09 61.2257 145.037 61.1179 145.027 61.0021C145.017 60.8862 145.05 60.7708 145.121 60.6786C145.192 60.5865 145.295 60.5242 145.41 60.5041L146.732 60.2704C146.792 60.2598 146.854 60.2611 146.914 60.2742C146.973 60.2874 147.03 60.3121 147.08 60.3471C147.13 60.382 147.173 60.4265 147.206 60.4779C147.239 60.5294 147.261 60.5867 147.272 60.6468C147.282 60.7069 147.281 60.7685 147.268 60.8281C147.255 60.8876 147.23 60.944 147.195 60.994C147.16 61.044 147.115 61.0867 147.064 61.1195C147.012 61.1523 146.955 61.1747 146.895 61.1854L145.573 61.4192C145.545 61.4239 145.518 61.4263 145.491 61.4263Z" fill="#222433"/>
<path d="M145.986 74.5259C145.162 74.5262 144.344 74.3888 143.565 74.1194L143.227 74.0024C143.169 73.9826 143.116 73.9515 143.07 73.911C143.024 73.8705 142.987 73.8213 142.96 73.7663C142.933 73.7113 142.917 73.6516 142.913 73.5905C142.91 73.5294 142.918 73.4682 142.938 73.4104C142.958 73.3526 142.99 73.2993 143.031 73.2537C143.071 73.208 143.121 73.1708 143.176 73.1442C143.231 73.1177 143.291 73.1023 143.352 73.0989C143.414 73.0955 143.475 73.1043 143.533 73.1246L143.871 73.2417C145.284 73.7302 146.824 73.7145 148.227 73.1971L148.523 73.0876C148.581 73.0653 148.642 73.0547 148.704 73.0563C148.765 73.0579 148.826 73.0718 148.882 73.0971C148.939 73.1223 148.989 73.1585 149.031 73.2035C149.074 73.2485 149.106 73.3014 149.128 73.3592C149.149 73.4169 149.159 73.4784 149.156 73.5399C149.154 73.6015 149.139 73.6619 149.113 73.7177C149.087 73.7734 149.05 73.8235 149.004 73.8649C148.958 73.9062 148.905 73.9381 148.847 73.9587L148.551 74.0683C147.729 74.3713 146.861 74.5263 145.986 74.5259Z" fill="#222433"/>
<path d="M141.4 68.7877C140.963 69.4272 140.341 69.9184 139.617 70.1954C138.894 70.4724 138.102 70.522 137.349 70.3376C136.596 70.1531 135.918 69.7434 135.404 69.1634C134.891 68.5833 134.568 67.8606 134.478 67.092C134.387 66.3235 134.535 65.5457 134.9 64.863C135.264 64.1803 135.83 63.6251 136.52 63.272C137.21 62.9188 137.991 62.7845 138.76 62.887C139.528 62.9895 140.247 63.3239 140.82 63.8454" fill="white"/>
<path d="M138.256 70.9108C137.562 70.9108 136.879 70.742 136.265 70.4191C135.651 70.0962 135.126 69.6288 134.734 69.0575C134.342 68.4861 134.095 67.828 134.015 67.1401C133.935 66.4522 134.025 65.7553 134.275 65.1096C134.526 64.464 134.931 63.889 135.454 63.4346C135.978 62.9802 136.605 62.6599 137.28 62.5016C137.956 62.3433 138.659 62.3517 139.331 62.5261C140.002 62.7004 140.621 63.0355 141.134 63.5022C141.18 63.5432 141.217 63.5928 141.244 63.6482C141.27 63.7036 141.285 63.7637 141.289 63.8251C141.292 63.8864 141.283 63.9478 141.262 64.0056C141.241 64.0634 141.209 64.1166 141.167 64.162C141.126 64.2073 141.076 64.244 141.02 64.2699C140.964 64.2959 140.904 64.3105 140.842 64.3129C140.781 64.3154 140.719 64.3057 140.662 64.2843C140.604 64.2629 140.551 64.2303 140.506 64.1884C140.003 63.7309 139.373 63.4376 138.698 63.3478C138.024 63.258 137.338 63.376 136.733 63.686C136.128 63.9959 135.632 64.4831 135.312 65.0822C134.992 65.6813 134.862 66.3637 134.942 67.0381C135.021 67.7124 135.305 68.3465 135.755 68.8555C136.205 69.3644 136.801 69.7238 137.461 69.8856C138.122 70.0474 138.817 70.0039 139.452 69.7608C140.087 69.5178 140.633 69.0868 141.016 68.5256C141.086 68.4252 141.193 68.3564 141.314 68.3343C141.434 68.3122 141.559 68.3385 141.66 68.4076C141.761 68.4766 141.831 68.5828 141.855 68.703C141.878 68.8232 141.853 68.9477 141.785 69.0495C141.393 69.6232 140.867 70.0926 140.252 70.417C139.637 70.7413 138.952 70.9109 138.256 70.9108Z" fill="#222433"/>
<path d="M138.037 67.9416C137.944 67.9416 137.854 67.9143 137.778 67.8632C137.701 67.812 137.642 67.7393 137.606 67.6543C137.571 67.5693 137.562 67.4758 137.58 67.3856C137.598 67.2955 137.643 67.2127 137.708 67.1478L138.455 66.4062L136.527 66.2865C136.466 66.2834 136.406 66.2681 136.35 66.2416C136.294 66.215 136.245 66.1778 136.204 66.1319C136.163 66.0861 136.131 66.0326 136.111 65.9745C136.091 65.9164 136.083 65.8549 136.086 65.7936C136.09 65.7323 136.106 65.6723 136.133 65.6172C136.161 65.562 136.198 65.5128 136.245 65.4724C136.291 65.432 136.345 65.4012 136.404 65.3818C136.462 65.3623 136.524 65.3546 136.585 65.3592L139.546 65.5428C139.636 65.5484 139.722 65.5796 139.794 65.6328C139.866 65.686 139.921 65.7589 139.953 65.8427C139.984 65.9265 139.991 66.0176 139.972 66.1051C139.953 66.1926 139.909 66.2727 139.845 66.3359L138.365 67.8071C138.322 67.8499 138.271 67.8839 138.214 67.907C138.158 67.9301 138.097 67.9418 138.037 67.9416Z" fill="#222433"/>
<path d="M232.261 203.184C232.246 203.188 232.231 203.19 232.217 203.19L67.3298 203.412C67.2534 203.412 67.18 203.358 67.1259 203.261C67.0717 203.164 67.0412 203.033 67.041 202.896C67.0409 202.759 67.0711 202.627 67.125 202.53C67.1789 202.433 67.2521 202.378 67.3285 202.378L232.215 202.157C232.288 202.156 232.358 202.205 232.412 202.294C232.465 202.382 232.498 202.503 232.504 202.633C232.51 202.763 232.488 202.892 232.443 202.994C232.398 203.097 232.333 203.164 232.261 203.184Z" fill="#222433"/>
<path d="M145.071 45.7562C145.042 45.6475 145.047 45.5323 145.085 45.427L148.783 35.3015C148.806 35.2338 148.842 35.1715 148.89 35.1183C148.937 35.0651 148.995 35.0221 149.059 34.9917C149.123 34.9613 149.192 34.9443 149.263 34.9415C149.334 34.9387 149.405 34.9503 149.472 34.9755C149.538 35.0008 149.6 35.0392 149.651 35.0885C149.703 35.1378 149.745 35.197 149.774 35.2627C149.803 35.3284 149.819 35.3992 149.821 35.4709C149.823 35.5427 149.81 35.6141 149.784 35.6807L146.087 45.8063C146.048 45.9133 145.976 46.0048 145.882 46.0676C145.788 46.1303 145.676 46.1612 145.563 46.1556C145.45 46.15 145.342 46.1083 145.253 46.0365C145.165 45.9648 145.101 45.8666 145.071 45.7562Z" fill="#222433"/>
<path d="M116.045 44.8662C116.012 44.7479 116.021 44.6223 116.068 44.51C116.116 44.3977 116.2 44.3053 116.307 44.2481C116.413 44.1909 116.537 44.1723 116.656 44.1953C116.775 44.2183 116.883 44.2815 116.962 44.3746L123.983 52.5987C124.075 52.7074 124.122 52.8486 124.112 52.9914C124.102 53.1341 124.036 53.2666 123.929 53.3597C123.822 53.4528 123.683 53.499 123.542 53.4879C123.401 53.4769 123.269 53.4097 123.176 53.301L116.156 45.0769C116.104 45.0159 116.066 44.9439 116.045 44.8662Z" fill="#222433"/>
<path d="M131.099 35.259C131.057 35.1218 131.071 34.974 131.138 34.8479C131.204 34.7218 131.317 34.6279 131.453 34.5868C131.588 34.5457 131.734 34.5607 131.859 34.6287C131.985 34.6966 132.078 34.8118 132.12 34.9489L135.566 45.2061C135.59 45.2735 135.6 45.3448 135.595 45.4159C135.591 45.4869 135.573 45.5564 135.542 45.6202C135.512 45.6841 135.469 45.741 135.416 45.7878C135.363 45.8346 135.301 45.8703 135.235 45.8928C135.168 45.9153 135.098 45.9242 135.027 45.9191C134.957 45.9139 134.888 45.8947 134.825 45.8626C134.762 45.8305 134.706 45.7861 134.66 45.732C134.614 45.6779 134.578 45.6152 134.556 45.5475L131.109 35.2903C131.105 35.2797 131.102 35.2693 131.099 35.259Z" fill="#222433"/>
<path d="M196.476 49.3496L197.016 51.1361C197.111 51.4466 197.354 51.6895 197.665 51.7832L199.452 52.3242C199.568 52.3594 199.634 52.4824 199.599 52.5988C199.578 52.6694 199.522 52.7247 199.452 52.746L197.665 53.2869C197.354 53.3807 197.111 53.6236 197.016 53.9341L196.476 55.7206C196.442 55.8373 196.319 55.9042 196.203 55.8699C196.131 55.8487 196.074 55.7925 196.053 55.7206L195.512 53.9341C195.418 53.6235 195.175 53.3805 194.865 53.2869L193.078 52.746C192.961 52.7108 192.895 52.5878 192.93 52.4714C192.952 52.4008 193.007 52.3455 193.078 52.3242L194.865 51.7832C195.175 51.6897 195.418 51.4467 195.512 51.1361L196.053 49.3496C196.088 49.2328 196.21 49.1659 196.327 49.2003C196.399 49.2213 196.455 49.2776 196.476 49.3496Z" fill="white"/>
<path d="M196.265 56.1768C196.216 56.1768 196.167 56.1697 196.118 56.1555C195.948 56.1056 195.817 55.9744 195.767 55.8045L195.227 54.0203C195.161 53.8044 194.994 53.637 194.778 53.572L192.991 53.0308C192.859 52.9908 192.75 52.9016 192.684 52.7796C192.619 52.6577 192.605 52.5175 192.645 52.385C192.695 52.2188 192.825 52.0893 192.991 52.039L194.778 51.4981C194.994 51.433 195.162 51.2655 195.227 51.05L195.768 49.2631C195.848 48.9914 196.136 48.8339 196.41 48.9143C196.58 48.9642 196.711 49.0948 196.761 49.2641L197.301 51.0498C197.366 51.2651 197.534 51.4328 197.75 51.498L199.538 52.0389C199.67 52.0789 199.779 52.1681 199.844 52.2901C199.91 52.4121 199.924 52.5522 199.884 52.6848C199.833 52.851 199.704 52.9804 199.538 53.0307L197.751 53.5717C197.534 53.6369 197.366 53.8046 197.301 54.0204L196.761 55.8067C196.723 55.9372 196.634 56.0468 196.513 56.1131C196.435 56.1553 196.351 56.1768 196.265 56.1768ZM196.19 55.6355C196.19 55.6359 196.19 55.6363 196.19 55.6367L196.19 55.6355ZM196.338 55.6332L196.338 55.6342C196.338 55.6339 196.338 55.6335 196.338 55.6332ZM193.408 52.535L194.951 53.0019C195.358 53.1245 195.674 53.4409 195.797 53.848L196.264 55.391L196.731 53.8478C196.855 53.4408 197.171 53.1246 197.578 53.0018L199.12 52.535L197.578 52.0681C197.171 51.9453 196.855 51.6292 196.731 51.2226L196.264 49.679L195.797 51.2223C195.674 51.6291 195.358 51.9454 194.95 52.0682L193.408 52.535ZM199.365 52.609H199.366H199.365ZM196.339 49.4334L196.338 49.4346C196.338 49.4342 196.338 49.4338 196.339 49.4334Z" fill="#222433"/>
<path d="M185.906 36.8762L186.32 38.2453C186.393 38.4833 186.579 38.6694 186.817 38.7413L188.187 39.1558C188.276 39.1828 188.327 39.2771 188.3 39.3663C188.283 39.4204 188.241 39.4627 188.187 39.4791L186.817 39.8936C186.579 39.9655 186.393 40.1517 186.32 40.3896L185.906 41.7587C185.88 41.8482 185.786 41.8995 185.697 41.8731C185.641 41.8569 185.598 41.8138 185.582 41.7587L185.167 40.3896C185.096 40.1516 184.909 39.9654 184.671 39.8936L183.302 39.4791C183.212 39.4521 183.162 39.3579 183.189 39.2686C183.205 39.2145 183.248 39.1722 183.302 39.1558L184.671 38.7413C184.909 38.6695 185.096 38.4833 185.167 38.2453L185.582 36.8762C185.609 36.7867 185.702 36.7355 185.792 36.7618C185.847 36.7779 185.89 36.821 185.906 36.8762Z" fill="#9AE2E0"/>
</svg>
