<svg viewBox="0 0 17 17" fill="none" xmlns="http://www.w3.org/2000/svg">
<circle cx="8.5" cy="8.5" r="8.5" fill="#EA343E"/>
<path d="M8.17391 10.0241L8.08696 5H8.87826L8.7913 10.0241H8.17391ZM8.50435 12C8.35942 12 8.23768 11.947 8.13913 11.8411C8.04638 11.7286 8 11.5929 8 11.434C8 11.2752 8.04638 11.1428 8.13913 11.0369C8.23768 10.9243 8.35942 10.8681 8.50435 10.8681C8.64348 10.8681 8.75942 10.9243 8.85217 11.0369C8.95072 11.1428 9 11.2752 9 11.434C9 11.5929 8.95072 11.7286 8.85217 11.8411C8.75942 11.947 8.64348 12 8.50435 12Z" fill="white"/>
</svg>
