<svg xmlns="http://www.w3.org/2000/svg" xmlns:xlink="http://www.w3.org/1999/xlink" width="1200" zoomAndPan="magnify" viewBox="0 0 900 899.99999" height="1200" preserveAspectRatio="xMidYMid meet" version="1.2"><g id="31e87480e7"><path style=" stroke:none;fill-rule:nonzero;fill:#113c7b;fill-opacity:1;" d="M 712.5 744 L 187.5 744 C 170.128906 744 156 729.871094 156 712.5 L 156 324 L 744 324 L 744 712.5 C 744 729.871094 729.871094 744 712.5 744 Z M 187.5 198 L 250.5 198 L 250.5 229.5 C 250.5 246.871094 264.628906 261 282 261 C 299.371094 261 313.5 246.871094 313.5 229.5 L 313.5 198 L 418.5 198 L 418.5 229.5 C 418.5 246.871094 432.628906 261 450 261 C 467.371094 261 481.5 246.871094 481.5 229.5 L 481.5 198 L 586.5 198 L 586.5 229.5 C 586.5 246.871094 600.628906 261 618 261 C 635.371094 261 649.5 246.871094 649.5 229.5 L 649.5 198 L 712.5 198 C 729.871094 198 744 212.128906 744 229.5 L 744 303 L 156 303 L 156 229.5 C 156 212.128906 170.128906 198 187.5 198 Z M 271.5 166.5 C 271.5 160.710938 276.210938 156 282 156 C 287.789062 156 292.5 160.710938 292.5 166.5 L 292.5 229.5 C 292.5 235.289062 287.789062 240 282 240 C 276.210938 240 271.5 235.289062 271.5 229.5 Z M 439.5 166.5 C 439.5 160.710938 444.210938 156 450 156 C 455.789062 156 460.5 160.710938 460.5 166.5 L 460.5 229.5 C 460.5 235.289062 455.789062 240 450 240 C 444.210938 240 439.5 235.289062 439.5 229.5 Z M 607.5 166.5 C 607.5 160.710938 612.210938 156 618 156 C 623.789062 156 628.5 160.710938 628.5 166.5 L 628.5 229.5 C 628.5 235.289062 623.789062 240 618 240 C 612.210938 240 607.5 235.289062 607.5 229.5 Z M 712.5 177 L 649.5 177 L 649.5 166.5 C 649.5 149.128906 635.371094 135 618 135 C 600.628906 135 586.5 149.128906 586.5 166.5 L 586.5 177 L 481.5 177 L 481.5 166.5 C 481.5 149.128906 467.371094 135 450 135 C 432.628906 135 418.5 149.128906 418.5 166.5 L 418.5 177 L 313.5 177 L 313.5 166.5 C 313.5 149.128906 299.371094 135 282 135 C 264.628906 135 250.5 149.128906 250.5 166.5 L 250.5 177 L 187.5 177 C 158.554688 177 135 200.554688 135 229.5 L 135 712.5 C 135 741.445312 158.554688 765 187.5 765 L 712.5 765 C 741.445312 765 765 741.445312 765 712.5 L 765 229.5 C 765 200.554688 741.445312 177 712.5 177 "/><path style=" stroke:none;fill-rule:nonzero;fill:#113c7b;fill-opacity:1;" d="M 681 439.5 L 660 439.5 L 660 418.5 L 681 418.5 Z M 691.5 397.5 L 649.5 397.5 C 643.703125 397.5 639 402.203125 639 408 L 639 450 C 639 455.796875 643.703125 460.5 649.5 460.5 L 691.5 460.5 C 697.296875 460.5 702 455.796875 702 450 L 702 408 C 702 402.203125 697.296875 397.5 691.5 397.5 "/><path style=" stroke:none;fill-rule:nonzero;fill:#113c7b;fill-opacity:1;" d="M 471 649.5 L 450 649.5 L 450 628.5 L 471 628.5 Z M 481.5 607.5 L 439.5 607.5 C 433.703125 607.5 429 612.203125 429 618 L 429 660 C 429 665.796875 433.703125 670.5 439.5 670.5 L 481.5 670.5 C 487.296875 670.5 492 665.796875 492 660 L 492 618 C 492 612.203125 487.296875 607.5 481.5 607.5 "/><path style=" stroke:none;fill-rule:nonzero;fill:#113c7b;fill-opacity:1;" d="M 366 439.5 L 345 439.5 L 345 418.5 L 366 418.5 Z M 376.5 397.5 L 334.5 397.5 C 328.703125 397.5 324 402.203125 324 408 L 324 450 C 324 455.796875 328.703125 460.5 334.5 460.5 L 376.5 460.5 C 382.296875 460.5 387 455.796875 387 450 L 387 408 C 387 402.203125 382.296875 397.5 376.5 397.5 "/><path style=" stroke:none;fill-rule:nonzero;fill:#113c7b;fill-opacity:1;" d="M 261 544.5 L 240 544.5 L 240 523.5 L 261 523.5 Z M 271.5 502.5 L 229.5 502.5 C 223.703125 502.5 219 507.203125 219 513 L 219 555 C 219 560.796875 223.703125 565.5 229.5 565.5 L 271.5 565.5 C 277.296875 565.5 282 560.796875 282 555 L 282 513 C 282 507.203125 277.296875 502.5 271.5 502.5 "/><path style=" stroke:none;fill-rule:nonzero;fill:#113c7b;fill-opacity:1;" d="M 366 544.5 L 345 544.5 L 345 523.5 L 366 523.5 Z M 376.5 502.5 L 334.5 502.5 C 328.703125 502.5 324 507.203125 324 513 L 324 555 C 324 560.796875 328.703125 565.5 334.5 565.5 L 376.5 565.5 C 382.296875 565.5 387 560.796875 387 555 L 387 513 C 387 507.203125 382.296875 502.5 376.5 502.5 "/><path style=" stroke:none;fill-rule:nonzero;fill:#113c7b;fill-opacity:1;" d="M 261 649.5 L 240 649.5 L 240 628.5 L 261 628.5 Z M 271.5 607.5 L 229.5 607.5 C 223.703125 607.5 219 612.203125 219 618 L 219 660 C 219 665.796875 223.703125 670.5 229.5 670.5 L 271.5 670.5 C 277.296875 670.5 282 665.796875 282 660 L 282 618 C 282 612.203125 277.296875 607.5 271.5 607.5 "/><path style=" stroke:none;fill-rule:nonzero;fill:#113c7b;fill-opacity:1;" d="M 366 649.5 L 345 649.5 L 345 628.5 L 366 628.5 Z M 376.5 607.5 L 334.5 607.5 C 328.703125 607.5 324 612.203125 324 618 L 324 660 C 324 665.796875 328.703125 670.5 334.5 670.5 L 376.5 670.5 C 382.296875 670.5 387 665.796875 387 660 L 387 618 C 387 612.203125 382.296875 607.5 376.5 607.5 "/><path style=" stroke:none;fill-rule:nonzero;fill:#113c7b;fill-opacity:1;" d="M 547.484375 486.882812 C 545.15625 489.265625 544.101562 492.621094 544.636719 495.90625 L 551.074219 535.347656 L 518.082031 517.113281 C 516.496094 516.238281 514.75 515.804688 513 515.804688 C 511.25 515.804688 509.503906 516.238281 507.917969 517.113281 L 474.925781 535.347656 L 481.363281 495.90625 C 481.898438 492.621094 480.84375 489.265625 478.515625 486.882812 L 450.785156 458.464844 L 488.632812 452.679688 C 492.09375 452.152344 495.0625 449.933594 496.546875 446.765625 L 513 411.710938 L 529.453125 446.765625 C 530.9375 449.933594 533.90625 452.152344 537.367188 452.679688 L 575.214844 458.464844 Z M 598.585938 440.792969 L 546.078125 432.769531 L 522.503906 382.539062 C 520.777344 378.851562 517.070312 376.5 513 376.5 C 508.929688 376.5 505.222656 378.851562 503.496094 382.539062 L 479.921875 432.769531 L 427.414062 440.792969 C 423.523438 441.386719 420.292969 444.105469 419.042969 447.835938 C 417.792969 451.570312 418.734375 455.6875 421.484375 458.503906 L 459.78125 497.757812 L 450.722656 553.308594 C 450.078125 557.277344 451.753906 561.265625 455.039062 563.582031 C 458.324219 565.898438 462.648438 566.136719 466.164062 564.1875 L 513 538.300781 L 559.835938 564.1875 C 561.425781 565.0625 563.171875 565.5 564.914062 565.5 C 567.039062 565.5 569.15625 564.855469 570.960938 563.582031 C 574.246094 561.265625 575.921875 557.277344 575.277344 553.308594 L 566.21875 497.757812 L 604.515625 458.503906 C 607.265625 455.6875 608.207031 451.570312 606.957031 447.835938 C 605.707031 444.105469 602.476562 441.386719 598.585938 440.792969 "/><path style=" stroke:none;fill-rule:nonzero;fill:#113c7b;fill-opacity:1;" d="M 681 544.5 L 660 544.5 L 660 523.5 L 681 523.5 Z M 691.5 502.5 L 649.5 502.5 C 643.703125 502.5 639 507.203125 639 513 L 639 555 C 639 560.796875 643.703125 565.5 649.5 565.5 L 691.5 565.5 C 697.296875 565.5 702 560.796875 702 555 L 702 513 C 702 507.203125 697.296875 502.5 691.5 502.5 "/><path style=" stroke:none;fill-rule:nonzero;fill:#113c7b;fill-opacity:1;" d="M 681 649.5 L 660 649.5 L 660 628.5 L 681 628.5 Z M 691.5 607.5 L 649.5 607.5 C 643.703125 607.5 639 612.203125 639 618 L 639 660 C 639 665.796875 643.703125 670.5 649.5 670.5 L 691.5 670.5 C 697.296875 670.5 702 665.796875 702 660 L 702 618 C 702 612.203125 697.296875 607.5 691.5 607.5 "/><path style=" stroke:none;fill-rule:nonzero;fill:#113c7b;fill-opacity:1;" d="M 576 649.5 L 555 649.5 L 555 628.5 L 576 628.5 Z M 586.5 607.5 L 544.5 607.5 C 538.703125 607.5 534 612.203125 534 618 L 534 660 C 534 665.796875 538.703125 670.5 544.5 670.5 L 586.5 670.5 C 592.296875 670.5 597 665.796875 597 660 L 597 618 C 597 612.203125 592.296875 607.5 586.5 607.5 "/></g></svg>