<svg width="29" height="30" viewBox="0 0 29 30" fill="none" xmlns="http://www.w3.org/2000/svg">
  <rect y="0.889648" width="28.4623" height="28.4623" rx="5" fill="currentColor"/>
  <path fill-rule="evenodd" clip-rule="evenodd" d="M20 10.223V19.5563C20 19.9099 19.8595 20.2491 19.6095 20.4991C19.3594 20.7492 19.0203 20.8896 18.6667 20.8896H16.1667C16.0783 20.8896 15.9935 20.8545 15.931 20.792C15.8685 20.7295 15.8333 20.6447 15.8333 20.5563V16.5563H17.3933C17.4702 16.5563 17.5447 16.5298 17.6042 16.4812C17.6637 16.4326 17.7046 16.3649 17.72 16.2896L17.96 15.0896C17.9649 15.0657 17.9645 15.041 17.9587 15.0172C17.953 14.9935 17.9421 14.9713 17.9269 14.9522C17.9116 14.9331 17.8923 14.9176 17.8704 14.9068C17.8485 14.896 17.8244 14.8901 17.8 14.8896H15.8333V12.723C15.8333 12.6788 15.8509 12.6364 15.8821 12.6051C15.9134 12.5739 15.9558 12.5563 16 12.5563H17.6667C17.7551 12.5563 17.8399 12.5212 17.9024 12.4587C17.9649 12.3962 18 12.3114 18 12.223V11.223C18 11.1346 17.9649 11.0498 17.9024 10.9873C17.8399 10.9248 17.7551 10.8896 17.6667 10.8896H16C15.4696 10.8896 14.9609 11.1004 14.5858 11.4754C14.2107 11.8505 14 12.3592 14 12.8896V14.8896H13.18C13.0916 14.8896 13.0068 14.9248 12.9443 14.9873C12.8818 15.0498 12.8467 15.1346 12.8467 15.223V16.223C12.8467 16.3114 12.8818 16.3962 12.9443 16.4587C13.0068 16.5212 13.0916 16.5563 13.18 16.5563H14V20.5563C14 20.6447 13.9649 20.7295 13.9024 20.792C13.8399 20.8545 13.7551 20.8896 13.6667 20.8896H9.33333C8.97971 20.8896 8.64057 20.7492 8.39052 20.4991C8.14048 20.2491 8 19.9099 8 19.5563V10.223C8 9.86936 8.14048 9.53022 8.39052 9.28017C8.64057 9.03012 8.97971 8.88965 9.33333 8.88965H18.6667C19.0203 8.88965 19.3594 9.03012 19.6095 9.28017C19.8595 9.53022 20 9.86936 20 10.223Z" fill="white"/>
</svg>
