<svg xmlns="http://www.w3.org/2000/svg" xmlns:xlink="http://www.w3.org/1999/xlink" width="1200" zoomAndPan="magnify" viewBox="0 0 900 899.99999" height="1200" preserveAspectRatio="xMidYMid meet" version="1.2"><g id="a02cc49909"><path style=" stroke:none;fill-rule:nonzero;fill:#113c7b;fill-opacity:1;" d="M 872.824219 337.21875 C 855.496094 319.90625 818.128906 309.550781 792.023438 309.550781 L 774.449219 309.550781 C 780.546875 305.652344 786.195312 301.1875 791.402344 296.160156 L 792.148438 295.414062 C 797.492188 290.101562 802.160156 284.25 806.160156 277.863281 C 808.804688 273.691406 811.152344 269.355469 813.195312 264.855469 C 815.234375 260.355469 816.957031 255.738281 818.351562 250.996094 C 819.75 246.257812 820.808594 241.441406 821.535156 236.554688 C 822.261719 231.667969 822.640625 226.753906 822.679688 221.8125 C 822.503906 215.695312 821.832031 209.632812 820.664062 203.625 C 819.496094 197.617188 817.851562 191.746094 815.726562 186.007812 C 813.601562 180.269531 811.023438 174.742188 807.996094 169.421875 C 804.96875 164.105469 801.53125 159.070312 797.679688 154.3125 C 795.792969 152.171875 794.152344 150.410156 792.96875 149.226562 L 792.148438 148.28125 C 789.023438 145.113281 785.660156 142.210938 782.066406 139.582031 C 778.542969 136.859375 774.859375 134.375 771.015625 132.121094 C 766.546875 129.714844 761.941406 127.605469 757.199219 125.796875 C 752.457031 123.984375 747.617188 122.488281 742.679688 121.308594 C 737.742188 120.125 732.75 119.265625 727.703125 118.730469 C 722.652344 118.195312 717.589844 117.992188 712.515625 118.113281 C 703.386719 118.664062 694.46875 120.347656 685.765625 123.160156 C 681.5625 124.582031 677.46875 126.261719 673.480469 128.203125 C 669.492188 130.144531 665.644531 132.328125 661.929688 134.757812 C 658.21875 137.1875 654.675781 139.839844 651.300781 142.71875 C 647.925781 145.597656 644.746094 148.675781 641.761719 151.957031 C 638.777344 155.238281 636.011719 158.691406 633.464844 162.324219 C 630.917969 165.957031 628.613281 169.734375 626.542969 173.65625 C 624.476562 177.582031 622.664062 181.621094 621.109375 185.773438 C 619.550781 189.925781 618.265625 194.164062 617.246094 198.480469 C 615.371094 206.15625 614.441406 213.945312 614.460938 221.847656 C 614.453125 225.265625 614.613281 228.671875 614.941406 232.070312 C 615.269531 235.46875 615.765625 238.84375 616.425781 242.191406 C 617.089844 245.542969 617.914062 248.851562 618.90625 252.121094 C 619.894531 255.386719 621.042969 258.597656 622.351562 261.753906 C 623.660156 264.910156 625.117188 267.992188 626.730469 271 C 628.34375 274.011719 630.101562 276.933594 632.003906 279.769531 C 633.902344 282.605469 635.941406 285.34375 638.113281 287.976562 C 640.285156 290.609375 642.582031 293.132812 645.003906 295.539062 L 645.589844 296 C 650.792969 301.089844 656.453125 305.605469 662.570312 309.550781 L 645.164062 309.550781 C 635.726562 309.582031 626.5 311.011719 617.496094 313.839844 C 613.25 315.183594 609.105469 316.792969 605.0625 318.660156 L 604.105469 317.566406 C 603.410156 316.773438 602.703125 315.964844 601.917969 315.082031 L 601.171875 314.347656 C 599.976562 313.152344 598.753906 311.988281 597.5 310.851562 C 596.25 309.714844 594.96875 308.613281 593.664062 307.539062 C 592.355469 306.464844 591.023438 305.425781 589.667969 304.417969 C 588.3125 303.40625 586.929688 302.433594 585.527344 301.492188 C 584.121094 300.550781 582.695312 299.644531 581.246094 298.773438 C 579.796875 297.902344 578.328125 297.066406 576.839844 296.265625 C 575.351562 295.464844 573.84375 294.703125 572.316406 293.976562 C 570.789062 293.25 569.246094 292.5625 567.6875 291.910156 C 566.128906 291.257812 564.550781 290.648438 562.960938 290.070312 C 561.371094 289.496094 559.769531 288.960938 558.152344 288.464844 C 556.539062 287.96875 554.910156 287.511719 553.273438 287.09375 C 551.632812 286.679688 549.988281 286.300781 548.328125 285.964844 C 546.671875 285.628906 545.007812 285.332031 543.339844 285.074219 C 541.667969 284.820312 539.992188 284.605469 538.308594 284.429688 C 536.628906 284.257812 534.941406 284.125 533.253906 284.03125 C 531.566406 283.941406 529.878906 283.890625 528.1875 283.878906 C 526.496094 283.871094 524.808594 283.902344 523.117188 283.972656 C 521.429688 284.046875 519.742188 284.160156 518.058594 284.316406 C 516.375 284.472656 514.699219 284.667969 513.023438 284.902344 C 511.351562 285.140625 509.683594 285.417969 508.023438 285.734375 C 506.363281 286.054688 504.710938 286.410156 503.066406 286.808594 C 501.425781 287.207031 499.792969 287.644531 498.171875 288.125 C 496.550781 288.601562 494.941406 289.121094 493.34375 289.675781 C 491.75 290.230469 490.167969 290.828125 488.597656 291.460938 C 487.03125 292.09375 485.480469 292.765625 483.945312 293.472656 C 482.410156 294.183594 480.894531 294.929688 479.398438 295.710938 C 477.898438 296.496094 476.421875 297.3125 474.960938 298.167969 C 473.503906 299.023438 472.066406 299.914062 470.652344 300.839844 C 469.238281 301.761719 467.84375 302.722656 466.476562 303.714844 C 465.109375 304.707031 463.765625 305.734375 462.445312 306.792969 C 461.128906 307.851562 459.835938 308.941406 458.570312 310.0625 C 457.308594 311.183594 456.070312 312.332031 454.859375 313.515625 L 453.902344 314.335938 C 452.53125 315.707031 451.195312 317.113281 449.902344 318.558594 C 448.609375 320 447.355469 321.480469 446.144531 322.996094 C 444.933594 324.511719 443.765625 326.058594 442.640625 327.636719 C 441.515625 329.21875 440.433594 330.828125 439.398438 332.46875 C 438.363281 334.109375 437.375 335.777344 436.4375 337.472656 C 435.496094 339.167969 434.601562 340.890625 433.757812 342.636719 C 432.910156 344.382812 432.117188 346.148438 431.371094 347.941406 C 430.625 349.730469 429.929688 351.539062 429.285156 353.371094 C 428.640625 355.199219 428.046875 357.042969 427.503906 358.90625 C 426.964844 360.769531 426.476562 362.644531 426.039062 364.535156 C 425.601562 366.425781 425.21875 368.324219 424.890625 370.238281 C 424.558594 372.148438 424.285156 374.066406 424.0625 375.996094 C 423.839844 377.921875 423.671875 379.851562 423.558594 381.789062 C 423.441406 383.726562 423.382812 385.664062 423.378906 387.601562 C 423.371094 389.542969 423.421875 391.480469 423.523438 393.417969 C 423.625 395.355469 423.78125 397.285156 423.992188 399.214844 C 424.203125 401.140625 424.46875 403.0625 424.789062 404.976562 C 425.105469 406.890625 425.480469 408.792969 425.902344 410.683594 C 426.328125 412.578125 426.808594 414.457031 427.335938 416.320312 C 427.867188 418.1875 428.449219 420.035156 429.082031 421.871094 C 429.71875 423.703125 430.402344 425.515625 431.136719 427.3125 C 431.871094 429.105469 432.65625 430.878906 433.492188 432.628906 C 434.328125 434.378906 435.210938 436.105469 436.140625 437.808594 C 437.074219 439.507812 438.050781 441.183594 439.074219 442.828125 C 440.101562 444.476562 441.171875 446.09375 442.285156 447.679688 C 443.402344 449.265625 444.5625 450.820312 445.765625 452.34375 C 446.964844 453.863281 448.210938 455.351562 449.496094 456.804688 C 450.78125 458.253906 452.109375 459.667969 453.472656 461.046875 C 454.835938 462.425781 456.238281 463.765625 457.679688 465.0625 C 459.121094 466.363281 460.59375 467.621094 462.105469 468.835938 C 463.617188 470.054688 465.160156 471.226562 466.734375 472.359375 C 468.3125 473.488281 469.917969 474.574219 471.554688 475.613281 L 461.835938 475.613281 C 457.222656 475.59375 452.644531 475.949219 448.09375 476.679688 C 443.542969 477.410156 439.082031 478.507812 434.710938 479.972656 C 430.339844 481.4375 426.117188 483.246094 422.042969 485.40625 C 417.96875 487.5625 414.097656 490.039062 410.433594 492.832031 C 405.226562 496.769531 400.515625 501.230469 396.300781 506.210938 C 392.082031 511.191406 388.460938 516.574219 385.433594 522.355469 C 380.367188 521.1875 375.238281 520.527344 370.042969 520.378906 C 372.8125 518.285156 375.429688 516.015625 377.902344 513.578125 C 378.914062 512.566406 379.90625 511.527344 380.871094 510.464844 C 381.835938 509.402344 382.773438 508.320312 383.683594 507.210938 C 384.597656 506.105469 385.480469 504.976562 386.335938 503.824219 C 387.195312 502.675781 388.023438 501.503906 388.820312 500.3125 C 389.621094 499.121094 390.390625 497.914062 391.132812 496.683594 C 391.871094 495.457031 392.582031 494.210938 393.261719 492.949219 C 393.945312 491.683594 394.59375 490.40625 395.210938 489.113281 C 395.828125 487.816406 396.414062 486.507812 396.96875 485.1875 C 397.523438 483.863281 398.042969 482.527344 398.53125 481.179688 C 399.023438 479.832031 399.476562 478.472656 399.902344 477.101562 C 400.324219 475.730469 400.714844 474.347656 401.070312 472.960938 C 401.425781 471.570312 401.746094 470.171875 402.035156 468.765625 C 402.320312 467.363281 402.574219 465.949219 402.792969 464.535156 C 403.011719 463.117188 403.195312 461.695312 403.347656 460.265625 C 403.496094 458.839844 403.609375 457.410156 403.691406 455.980469 C 403.769531 454.546875 403.816406 453.113281 403.824219 451.679688 C 403.835938 450.246094 403.8125 448.8125 403.75 447.378906 C 403.691406 445.945312 403.597656 444.515625 403.46875 443.085938 C 403.339844 441.65625 403.175781 440.234375 402.976562 438.8125 C 402.777344 437.390625 402.542969 435.976562 402.277344 434.566406 C 402.007812 433.15625 401.707031 431.757812 401.371094 430.363281 C 401.035156 428.96875 400.667969 427.582031 400.261719 426.207031 C 399.859375 424.828125 399.421875 423.464844 398.953125 422.109375 C 398.484375 420.753906 397.980469 419.410156 397.445312 418.078125 C 396.910156 416.746094 396.34375 415.429688 395.742188 414.128906 C 395.144531 412.824219 394.511719 411.535156 393.851562 410.265625 C 393.1875 408.992188 392.496094 407.738281 391.773438 406.496094 C 391.050781 405.257812 390.296875 404.039062 389.515625 402.835938 C 388.730469 401.636719 387.921875 400.453125 387.078125 399.289062 C 386.238281 398.128906 385.371094 396.984375 384.476562 395.867188 C 383.578125 394.746094 382.65625 393.648438 381.707031 392.574219 C 380.757812 391.496094 379.785156 390.445312 378.78125 389.417969 L 377.914062 388.558594 C 374.441406 385.105469 370.703125 381.964844 366.703125 379.136719 C 362.703125 376.3125 358.492188 373.839844 354.074219 371.722656 C 349.65625 369.605469 345.09375 367.875 340.382812 366.527344 C 335.671875 365.179688 330.882812 364.238281 326.015625 363.699219 C 323.71875 358.8125 321.027344 354.160156 317.933594 349.738281 C 314.746094 344.984375 311.074219 340.636719 306.917969 336.699219 C 302.785156 332.597656 298.292969 328.929688 293.449219 325.699219 C 288.601562 322.464844 283.492188 319.726562 278.117188 317.480469 C 272.28125 314.890625 266.242188 312.925781 260 311.585938 C 253.757812 310.246094 247.445312 309.558594 241.0625 309.523438 L 223.757812 309.523438 C 229.902344 305.617188 235.5625 301.097656 240.738281 295.976562 L 241.320312 295.515625 C 246.695312 290.105469 251.421875 284.179688 255.496094 277.738281 C 259.574219 271.296875 262.902344 264.488281 265.488281 257.316406 C 267.402344 248.089844 269.429688 238.992188 271.46875 229.890625 L 271.742188 228.3125 C 271.863281 226.148438 271.976562 223.988281 271.976562 221.824219 C 271.960938 218.269531 271.75 214.726562 271.34375 211.195312 C 271.21875 210.1875 271.09375 209.183594 270.96875 208.285156 L 269.8125 200.890625 C 269.613281 200.207031 269.464844 199.574219 269.304688 198.9375 C 269.140625 198.304688 269.003906 197.695312 268.84375 197.171875 C 268.4375 195.148438 267.910156 193.15625 267.265625 191.195312 C 266.792969 189.746094 266.25 188.324219 265.636719 186.929688 L 265.386719 186.222656 C 264.839844 184.707031 264.292969 183.214844 263.757812 181.808594 C 263.105469 180.15625 262.347656 178.550781 261.484375 177 L 259.582031 172.808594 C 259 171.714844 258.339844 170.695312 257.742188 169.703125 C 257.308594 168.992188 256.859375 168.285156 256.386719 167.453125 C 255.667969 166.371094 255.058594 165.414062 254.386719 164.207031 C 253.089844 162.265625 251.683594 160.40625 250.171875 158.625 C 249.925781 158.238281 249.664062 157.90625 249.414062 157.542969 C 249.164062 157.183594 248.980469 156.835938 248.617188 156.386719 C 246.628906 153.976562 244.765625 151.898438 242.914062 150.046875 L 242.664062 149.75 C 242.503906 149.550781 242.339844 149.351562 242.179688 149.191406 L 241.296875 148.308594 C 237.125 144.3125 232.730469 140.582031 228.109375 137.121094 L 227.746094 136.921875 C 227.601562 136.828125 227.464844 136.726562 227.335938 136.609375 C 227.136719 136.449219 226.9375 136.300781 226.789062 136.199219 C 222.179688 133.089844 217.363281 130.34375 212.332031 127.96875 C 211.625 127.609375 210.914062 127.261719 210.15625 126.816406 C 205.101562 124.582031 199.898438 122.78125 194.542969 121.40625 L 191.910156 120.613281 C 189.148438 120.113281 187.121094 119.867188 184.734375 119.566406 C 182.347656 119.269531 179.640625 118.945312 175.722656 118.324219 C 175.148438 118.117188 174.554688 118.007812 173.945312 117.988281 C 168.855469 117.722656 163.773438 117.824219 158.699219 118.292969 C 153.625 118.765625 148.613281 119.597656 143.660156 120.789062 C 138.703125 121.984375 133.863281 123.527344 129.132812 125.421875 C 124.402344 127.316406 119.832031 129.542969 115.421875 132.097656 C 111.511719 134.273438 107.8125 136.761719 104.320312 139.554688 C 100.671875 142.199219 97.296875 145.15625 94.1875 148.417969 L 93.445312 149.164062 C 90.054688 152.558594 87.003906 156.234375 84.292969 160.191406 C 80.449219 164.617188 77.09375 169.390625 74.234375 174.511719 C 71.375 179.632812 69.066406 184.988281 67.3125 190.585938 C 64.039062 201.972656 62.859375 213.578125 63.769531 225.390625 C 63.734375 237.734375 65.804688 249.714844 69.984375 261.328125 C 72.0625 267.1875 74.9375 272.617188 78.613281 277.625 C 79.546875 278.683594 80.265625 279.515625 84.828125 284.847656 L 85.761719 285.929688 C 89.128906 289.921875 91.976562 293.164062 94.1875 295.613281 L 94.960938 296.371094 C 100.152344 301.339844 105.792969 305.730469 111.878906 309.550781 L 94.289062 309.550781 C 92.050781 309.550781 89.503906 309.671875 86.980469 309.921875 C 84.472656 310.121094 81.988281 310.460938 79.519531 310.941406 C 74.699219 311.871094 69.964844 313.132812 65.316406 314.722656 C 60.671875 316.316406 56.160156 318.222656 51.777344 320.445312 C 47.398438 322.671875 43.195312 325.1875 39.167969 328 C 35.140625 330.808594 31.328125 333.886719 27.734375 337.234375 C 24.703125 340.300781 21.890625 343.554688 19.292969 347 C 16.699219 350.441406 14.339844 354.039062 12.222656 357.796875 C 10.105469 361.550781 8.246094 365.429688 6.644531 369.433594 C 5.046875 373.4375 3.714844 377.53125 2.660156 381.710938 C 0.890625 389.019531 0.00390625 396.429688 0 403.949219 L 0 630.453125 C 0.0078125 631.488281 0.117188 632.507812 0.324219 633.523438 C 0.53125 634.535156 0.832031 635.515625 1.230469 636.46875 C 1.628906 637.421875 2.113281 638.332031 2.6875 639.191406 C 3.257812 640.050781 3.910156 640.84375 4.636719 641.578125 C 5.363281 642.3125 6.15625 642.96875 7.011719 643.546875 C 7.867188 644.128906 8.769531 644.621094 9.71875 645.027344 C 10.667969 645.429688 11.648438 645.742188 12.660156 645.957031 C 13.671875 646.171875 14.691406 646.285156 15.726562 646.304688 L 529.746094 646.304688 C 530.265625 648.789062 530.777344 651.113281 531.484375 653.574219 C 532.105469 655.566406 532.726562 657.429688 533.472656 659.417969 L 534.09375 661.28125 C 536.546875 667.699219 539.617188 673.804688 543.300781 679.601562 C 546.984375 685.398438 551.207031 690.769531 555.972656 695.714844 C 560.449219 700.316406 564.925781 704.914062 569.523438 709.390625 C 577.105469 716.972656 584.6875 724.433594 592.394531 732.140625 L 595.628906 735.371094 C 615.640625 755.507812 635.78125 775.523438 655.667969 795.535156 L 666.484375 806.351562 C 669.414062 809.703125 672.761719 812.5625 676.527344 814.933594 C 680.296875 817.304688 684.324219 819.082031 688.613281 820.273438 L 699.054688 820.398438 L 700.171875 820.273438 C 704.449219 819.097656 708.464844 817.324219 712.210938 814.953125 C 715.960938 812.582031 719.28125 809.714844 722.175781 806.351562 L 771.652344 756.875 L 803.597656 725.054688 C 809.441406 719.210938 815.40625 713.242188 821.25 707.277344 C 825.101562 703.421875 828.957031 699.570312 832.6875 695.714844 C 837.628906 690.648438 841.988281 685.117188 845.757812 679.125 C 849.53125 673.132812 852.628906 666.8125 855.0625 660.164062 C 856.304688 656.683594 857.425781 653.203125 858.292969 649.847656 C 858.503906 648.863281 858.714844 647.945312 858.929688 646.988281 L 882.933594 646.988281 C 884.019531 646.910156 885.09375 646.742188 886.152344 646.480469 C 887.214844 646.222656 888.242188 645.871094 889.242188 645.433594 C 890.242188 644.996094 891.195312 644.476562 892.105469 643.878906 C 893.015625 643.277344 893.871094 642.601562 894.664062 641.851562 C 895.457031 641.105469 896.183594 640.296875 896.839844 639.421875 C 897.492188 638.550781 898.070312 637.628906 898.566406 636.660156 C 899.0625 635.6875 899.472656 634.679688 899.796875 633.640625 C 900.121094 632.597656 900.355469 631.535156 900.496094 630.453125 L 900.496094 403.949219 C 900.488281 400.859375 900.328125 397.777344 900.015625 394.703125 C 899.707031 391.628906 899.246094 388.578125 898.636719 385.546875 C 898.027344 382.519531 897.273438 379.523438 896.375 376.570312 C 895.472656 373.613281 894.433594 370.707031 893.25 367.855469 C 892.066406 365 890.746094 362.210938 889.289062 359.484375 C 887.832031 356.757812 886.25 354.109375 884.535156 351.539062 C 882.820312 348.96875 880.984375 346.488281 879.027344 344.09375 C 877.074219 341.703125 875.003906 339.410156 872.824219 337.21875 Z M 666.769531 170.945312 L 667.34375 170.484375 C 668.183594 169.652344 669.042969 168.835938 669.925781 168.046875 C 670.804688 167.253906 671.703125 166.484375 672.621094 165.734375 C 673.542969 164.988281 674.476562 164.261719 675.429688 163.558594 C 676.382812 162.855469 677.355469 162.179688 678.339844 161.523438 C 679.328125 160.867188 680.328125 160.238281 681.347656 159.628906 C 682.363281 159.023438 683.394531 158.441406 684.441406 157.886719 C 685.488281 157.332031 686.546875 156.800781 687.617188 156.296875 C 688.691406 155.792969 689.773438 155.3125 690.867188 154.863281 C 691.960938 154.410156 693.066406 153.984375 694.183594 153.589844 C 695.300781 153.191406 696.421875 152.820312 697.558594 152.476562 C 698.691406 152.136719 699.832031 151.820312 700.980469 151.53125 C 702.128906 151.246094 703.285156 150.988281 704.449219 150.757812 C 705.609375 150.523438 706.777344 150.324219 707.949219 150.148438 C 709.117188 149.976562 710.292969 149.828125 711.472656 149.714844 C 712.652344 149.597656 713.832031 149.507812 715.015625 149.449219 C 716.199219 149.390625 717.382812 149.359375 718.566406 149.359375 C 719.75 149.359375 720.933594 149.386719 722.117188 149.441406 C 723.300781 149.5 724.480469 149.582031 725.660156 149.699219 C 726.839844 149.8125 728.015625 149.953125 729.1875 150.125 C 730.359375 150.296875 731.523438 150.496094 732.6875 150.726562 C 733.847656 150.953125 735.003906 151.210938 736.15625 151.496094 C 737.304688 151.777344 738.445312 152.089844 739.582031 152.433594 C 740.714844 152.773438 741.839844 153.140625 742.957031 153.535156 C 744.074219 153.929688 745.179688 154.351562 746.277344 154.800781 C 747.371094 155.25 748.457031 155.726562 749.527344 156.230469 C 750.601562 156.730469 751.660156 157.257812 752.707031 157.8125 C 753.753906 158.367188 754.789062 158.945312 755.808594 159.550781 C 756.824219 160.152344 757.828125 160.78125 758.816406 161.433594 C 759.804688 162.085938 760.777344 162.765625 761.730469 163.464844 C 762.6875 164.164062 763.625 164.890625 764.542969 165.636719 C 765.464844 166.382812 766.367188 167.148438 767.246094 167.9375 C 768.128906 168.730469 768.992188 169.539062 769.835938 170.371094 L 770.542969 171.21875 C 771.359375 172.0625 772.15625 172.929688 772.929688 173.816406 C 773.703125 174.699219 774.457031 175.601562 775.1875 176.523438 C 775.917969 177.445312 776.625 178.382812 777.308594 179.339844 C 777.996094 180.292969 778.65625 181.265625 779.292969 182.253906 C 779.933594 183.238281 780.546875 184.242188 781.136719 185.257812 C 781.726562 186.277344 782.292969 187.304688 782.832031 188.351562 C 783.371094 189.394531 783.886719 190.453125 784.375 191.519531 C 784.863281 192.589844 785.328125 193.671875 785.761719 194.761719 C 786.199219 195.855469 786.609375 196.953125 786.992188 198.066406 C 787.378906 199.175781 787.734375 200.296875 788.0625 201.425781 C 788.394531 202.554688 788.695312 203.691406 788.96875 204.832031 C 789.242188 205.976562 789.492188 207.125 789.710938 208.28125 C 789.929688 209.4375 790.121094 210.597656 790.28125 211.761719 C 790.445312 212.925781 790.582031 214.09375 790.6875 215.261719 C 790.792969 216.433594 790.871094 217.605469 790.921875 218.78125 C 790.972656 219.957031 790.992188 221.128906 790.984375 222.304688 C 790.980469 223.480469 790.945312 224.65625 790.878906 225.832031 C 790.816406 227.003906 790.722656 228.175781 790.605469 229.34375 C 790.484375 230.515625 790.335938 231.679688 790.160156 232.84375 C 789.980469 234.003906 789.777344 235.164062 789.546875 236.316406 C 789.3125 237.46875 789.050781 238.613281 788.765625 239.753906 C 788.476562 240.894531 788.160156 242.027344 787.820312 243.152344 C 787.476562 244.273438 787.105469 245.390625 786.710938 246.496094 C 786.3125 247.605469 785.890625 248.699219 785.441406 249.789062 C 784.992188 250.875 784.515625 251.949219 784.015625 253.011719 C 783.511719 254.074219 782.988281 255.125 782.433594 256.164062 C 781.882812 257.203125 781.304688 258.226562 780.703125 259.234375 C 780.101562 260.246094 779.476562 261.242188 778.828125 262.21875 C 778.175781 263.199219 777.503906 264.164062 776.808594 265.109375 C 776.109375 266.058594 775.390625 266.988281 774.652344 267.902344 C 773.910156 268.8125 773.148438 269.707031 772.363281 270.582031 C 771.578125 271.457031 770.773438 272.316406 769.949219 273.152344 L 769.324219 273.761719 C 768.480469 274.582031 767.613281 275.382812 766.730469 276.160156 C 765.847656 276.9375 764.941406 277.695312 764.019531 278.429688 C 763.101562 279.164062 762.160156 279.878906 761.203125 280.566406 C 760.25 281.253906 759.277344 281.921875 758.289062 282.5625 C 757.300781 283.203125 756.296875 283.820312 755.277344 284.414062 C 754.257812 285.007812 753.226562 285.574219 752.179688 286.117188 C 751.132812 286.660156 750.074219 287.179688 749.003906 287.667969 C 747.933594 288.160156 746.847656 288.625 745.753906 289.0625 C 744.660156 289.5 743.558594 289.914062 742.445312 290.296875 C 741.328125 290.683594 740.207031 291.039062 739.074219 291.371094 C 737.945312 291.699219 736.804688 292.003906 735.660156 292.277344 C 734.511719 292.550781 733.359375 292.796875 732.203125 293.015625 C 731.042969 293.234375 729.882812 293.425781 728.714844 293.585938 C 727.546875 293.75 726.375 293.882812 725.203125 293.988281 C 724.027344 294.09375 722.851562 294.167969 721.675781 294.214844 C 720.496094 294.265625 719.320312 294.28125 718.140625 294.273438 C 716.960938 294.261719 715.785156 294.226562 714.609375 294.160156 C 713.429688 294.089844 712.257812 293.996094 711.085938 293.871094 C 709.914062 293.746094 708.746094 293.59375 707.578125 293.414062 C 706.414062 293.234375 705.253906 293.023438 704.101562 292.785156 C 702.945312 292.546875 701.800781 292.28125 700.65625 291.988281 C 699.515625 291.695312 698.382812 291.375 697.257812 291.027344 C 696.128906 290.679688 695.015625 290.300781 693.90625 289.898438 C 692.796875 289.496094 691.703125 289.066406 690.613281 288.609375 C 689.527344 288.15625 688.453125 287.671875 687.390625 287.164062 C 686.328125 286.65625 685.277344 286.121094 684.238281 285.5625 C 683.203125 285 682.179688 284.417969 681.171875 283.808594 C 680.160156 283.199219 679.167969 282.5625 678.191406 281.90625 C 677.214844 281.246094 676.25 280.566406 675.308594 279.863281 C 674.363281 279.15625 673.433594 278.429688 672.527344 277.679688 C 671.617188 276.929688 670.726562 276.160156 669.855469 275.367188 C 668.984375 274.574219 668.128906 273.757812 667.296875 272.925781 C 666.464844 272.089844 665.65625 271.234375 664.863281 270.359375 C 664.074219 269.488281 663.304688 268.59375 662.558594 267.683594 C 661.8125 266.769531 661.085938 265.839844 660.386719 264.894531 C 659.683594 263.949219 659.003906 262.984375 658.351562 262.003906 C 657.695312 261.023438 657.0625 260.03125 656.457031 259.019531 C 655.851562 258.007812 655.269531 256.984375 654.714844 255.945312 C 654.15625 254.90625 653.625 253.855469 653.121094 252.789062 C 652.613281 251.726562 652.136719 250.648438 651.683594 249.558594 C 651.230469 248.472656 650.804688 247.375 650.402344 246.265625 C 650.003906 245.15625 649.632812 244.039062 649.285156 242.910156 C 648.941406 241.785156 648.625 240.648438 648.332031 239.507812 C 648.042969 238.367188 647.78125 237.214844 647.546875 236.0625 C 647.3125 234.90625 647.109375 233.746094 646.929688 232.582031 C 646.753906 231.414062 646.605469 230.246094 646.484375 229.074219 C 646.363281 227.902344 646.269531 226.726562 646.207031 225.550781 C 646.144531 224.375 646.109375 223.195312 646.101562 222.019531 C 646.097656 220.839844 646.121094 219.660156 646.171875 218.484375 C 646.222656 217.304688 646.300781 216.128906 646.410156 214.957031 C 646.519531 213.785156 646.65625 212.613281 646.820312 211.445312 C 646.988281 210.28125 647.179688 209.117188 647.402344 207.960938 C 647.625 206.800781 647.875 205.652344 648.152344 204.503906 C 648.429688 203.359375 648.738281 202.222656 649.070312 201.09375 C 649.402344 199.960938 649.765625 198.839844 650.152344 197.726562 C 650.539062 196.613281 650.957031 195.511719 651.398438 194.417969 C 651.839844 193.324219 652.308594 192.246094 652.800781 191.175781 C 653.296875 190.105469 653.816406 189.046875 654.363281 188.003906 C 654.90625 186.957031 655.476562 185.929688 656.074219 184.910156 C 656.671875 183.894531 657.289062 182.894531 657.933594 181.90625 C 658.578125 180.917969 659.25 179.949219 659.941406 178.996094 C 660.632812 178.042969 661.347656 177.105469 662.085938 176.183594 C 662.824219 175.265625 663.582031 174.363281 664.363281 173.484375 C 665.144531 172.601562 665.945312 171.738281 666.769531 170.894531 Z M 454.972656 387.925781 C 454.945312 383.164062 455.390625 378.449219 456.300781 373.773438 C 457.214844 369.101562 458.578125 364.5625 460.390625 360.160156 C 462.203125 355.757812 464.433594 351.578125 467.078125 347.617188 C 469.722656 343.65625 472.730469 339.996094 476.105469 336.636719 L 476.550781 336.152344 L 476.550781 336.003906 L 476.824219 335.667969 C 477.671875 334.851562 478.539062 334.054688 479.421875 333.277344 C 480.308594 332.503906 481.210938 331.75 482.132812 331.019531 C 483.054688 330.289062 483.992188 329.582031 484.949219 328.894531 C 485.902344 328.210938 486.875 327.546875 487.863281 326.910156 C 488.851562 326.269531 489.855469 325.65625 490.871094 325.066406 C 491.890625 324.476562 492.921875 323.910156 493.964844 323.371094 C 495.011719 322.832031 496.066406 322.316406 497.136719 321.828125 C 498.207031 321.339844 499.289062 320.875 500.378906 320.4375 C 501.472656 320.003906 502.574219 319.59375 503.6875 319.210938 C 504.800781 318.828125 505.917969 318.472656 507.050781 318.140625 C 508.179688 317.8125 509.316406 317.511719 510.460938 317.238281 C 511.601562 316.964844 512.753906 316.71875 513.910156 316.5 C 515.066406 316.28125 516.226562 316.09375 517.390625 315.929688 C 518.554688 315.769531 519.722656 315.632812 520.894531 315.53125 C 522.066406 315.425781 523.238281 315.347656 524.414062 315.296875 C 525.589844 315.25 526.765625 315.230469 527.941406 315.238281 C 529.117188 315.246094 530.292969 315.285156 531.46875 315.347656 C 532.644531 315.414062 533.816406 315.507812 534.984375 315.628906 C 536.15625 315.753906 537.320312 315.902344 538.484375 316.082031 C 539.644531 316.261719 540.804688 316.46875 541.957031 316.703125 C 543.109375 316.9375 544.253906 317.199219 545.394531 317.488281 C 546.535156 317.78125 547.667969 318.097656 548.792969 318.441406 C 549.914062 318.789062 551.03125 319.160156 552.136719 319.558594 C 553.246094 319.957031 554.339844 320.382812 555.425781 320.835938 C 556.511719 321.289062 557.585938 321.765625 558.648438 322.269531 C 559.710938 322.773438 560.761719 323.304688 561.800781 323.859375 C 562.835938 324.414062 563.859375 324.992188 564.867188 325.597656 C 565.875 326.203125 566.871094 326.832031 567.847656 327.484375 C 568.828125 328.136719 569.789062 328.8125 570.734375 329.511719 C 571.679688 330.210938 572.609375 330.933594 573.519531 331.679688 C 574.429688 332.421875 575.324219 333.1875 576.195312 333.976562 C 577.070312 334.761719 577.925781 335.570312 578.757812 336.398438 L 579.480469 337.109375 C 582.621094 340.347656 585.449219 343.835938 587.972656 347.574219 C 588.074219 347.945312 588.253906 348.277344 588.503906 348.570312 C 590.546875 351.761719 592.292969 355.105469 593.75 358.601562 C 594.144531 359.410156 594.492188 360.242188 594.796875 361.089844 L 595.179688 362.070312 C 596.265625 364.992188 597.160156 367.972656 597.867188 371.007812 C 598.175781 372.125 598.402344 373.246094 598.613281 374.300781 L 598.722656 374.875 C 599.53125 379.085938 599.976562 383.339844 600.054688 387.628906 L 600.054688 387.726562 C 599.980469 392.132812 599.539062 396.5 598.722656 400.828125 L 597.988281 404.160156 C 597.132812 407.730469 596.035156 411.222656 594.695312 414.640625 C 594.558594 415 594.449219 415.347656 594.335938 415.710938 C 594.269531 415.960938 594.191406 416.210938 594.097656 416.457031 C 592.367188 420.394531 590.296875 424.144531 587.882812 427.707031 C 587.636719 428.144531 587.355469 428.558594 587.039062 428.949219 L 586.542969 429.683594 C 584.472656 432.492188 582.242188 435.167969 579.851562 437.710938 C 579.394531 438.171875 578.957031 438.65625 578.535156 439.15625 C 578.113281 439.652344 577.777344 440.035156 577.417969 440.398438 C 574.496094 443.066406 571.425781 445.554688 568.207031 447.855469 C 567.808594 448.054688 567.398438 448.292969 566.960938 448.527344 C 566.527344 448.761719 566.265625 448.925781 565.792969 449.160156 C 563.066406 450.855469 560.238281 452.367188 557.3125 453.6875 C 554.386719 455.007812 551.382812 456.128906 548.308594 457.050781 C 545.230469 457.96875 542.105469 458.683594 538.9375 459.191406 C 535.765625 459.699219 532.574219 459.992188 529.363281 460.074219 C 526.152344 460.160156 522.953125 460.027344 519.757812 459.6875 C 516.566406 459.34375 513.410156 458.792969 510.289062 458.03125 C 507.171875 457.269531 504.113281 456.304688 501.125 455.136719 C 498.132812 453.96875 495.230469 452.605469 492.417969 451.054688 C 489.609375 449.5 486.914062 447.769531 484.332031 445.859375 C 481.75 443.945312 479.308594 441.871094 477.003906 439.636719 C 474.699219 437.402344 472.550781 435.023438 470.5625 432.503906 C 468.570312 429.980469 466.757812 427.339844 465.121094 424.578125 C 463.480469 421.816406 462.03125 418.957031 460.773438 416.003906 C 459.515625 413.046875 458.457031 410.023438 457.601562 406.929688 C 456.742188 403.835938 456.09375 400.695312 455.65625 397.515625 C 455.214844 394.332031 454.988281 391.136719 454.972656 387.925781 Z M 305.042969 395.0625 C 307.304688 394.617188 309.585938 394.3125 311.882812 394.152344 C 314.183594 393.988281 316.484375 393.96875 318.785156 394.089844 C 321.089844 394.210938 323.375 394.472656 325.644531 394.875 C 327.914062 395.277344 330.148438 395.816406 332.351562 396.496094 C 334.554688 397.175781 336.707031 397.984375 338.8125 398.929688 C 340.914062 399.875 342.949219 400.941406 344.921875 402.136719 C 346.894531 403.332031 348.78125 404.644531 350.59375 406.074219 C 352.402344 407.5 354.117188 409.035156 355.734375 410.675781 L 356.457031 411.410156 C 358.386719 413.40625 360.160156 415.535156 361.777344 417.796875 C 363.394531 420.054688 364.839844 422.417969 366.109375 424.890625 C 367.382812 427.359375 368.464844 429.910156 369.363281 432.539062 C 370.261719 435.167969 370.960938 437.847656 371.464844 440.582031 C 371.972656 443.3125 372.273438 446.066406 372.375 448.84375 C 372.476562 451.621094 372.375 454.386719 372.070312 457.148438 C 371.765625 459.910156 371.261719 462.636719 370.558594 465.324219 C 369.855469 468.011719 368.957031 470.632812 367.871094 473.191406 C 366.78125 475.746094 365.515625 478.210938 364.066406 480.578125 C 362.617188 482.949219 361.003906 485.203125 359.222656 487.335938 C 357.445312 489.472656 355.519531 491.464844 353.449219 493.316406 C 351.378906 495.167969 349.183594 496.859375 346.863281 498.390625 C 344.546875 499.921875 342.128906 501.273438 339.609375 502.449219 C 337.09375 503.625 334.503906 504.613281 331.84375 505.410156 C 329.179688 506.207031 326.476562 506.804688 323.726562 507.203125 C 320.976562 507.605469 318.214844 507.800781 315.433594 507.796875 L 314.503906 507.796875 C 310.765625 507.742188 307.070312 507.320312 303.417969 506.53125 C 299.761719 505.742188 296.222656 504.597656 292.796875 503.105469 C 289.371094 501.609375 286.125 499.792969 283.058594 497.65625 C 279.996094 495.515625 277.171875 493.09375 274.585938 490.394531 C 273.316406 489.066406 272.109375 487.683594 270.972656 486.238281 C 269.832031 484.792969 268.765625 483.300781 267.773438 481.753906 C 266.777344 480.207031 265.859375 478.617188 265.019531 476.980469 C 264.179688 475.347656 263.417969 473.675781 262.738281 471.96875 C 262.058594 470.257812 261.464844 468.523438 260.953125 466.757812 C 260.4375 464.992188 260.011719 463.203125 259.671875 461.398438 C 259.332031 459.589844 259.082031 457.773438 258.917969 455.941406 C 258.753906 454.109375 258.675781 452.273438 258.691406 450.4375 C 258.703125 448.597656 258.804688 446.765625 258.992188 444.9375 C 259.183594 443.105469 259.460938 441.292969 259.824219 439.488281 C 260.1875 437.6875 260.640625 435.90625 261.175781 434.148438 C 261.710938 432.390625 262.332031 430.660156 263.035156 428.964844 C 263.738281 427.265625 264.519531 425.605469 265.382812 423.980469 C 266.246094 422.355469 267.1875 420.78125 268.203125 419.246094 C 269.214844 417.714844 270.304688 416.234375 271.460938 414.804688 C 272.621094 413.378906 273.84375 412.007812 275.132812 410.699219 C 275.90625 410.015625 276.726562 409.371094 277.621094 408.710938 L 279.125 407.46875 C 282.367188 404.714844 285.878906 402.355469 289.65625 400.394531 C 293.433594 398.429688 297.378906 396.914062 301.5 395.84375 C 302.667969 395.523438 303.847656 395.285156 305.042969 395.0625 Z M 96.710938 237.015625 L 96.710938 236.082031 C 95.734375 231.386719 95.238281 226.644531 95.222656 221.847656 C 95.238281 217.441406 95.683594 213.078125 96.550781 208.757812 L 97.410156 204.867188 C 98.128906 201.984375 99.03125 199.15625 100.117188 196.390625 C 100.578125 195.011719 101.152344 193.617188 101.785156 192.101562 C 103.027344 189.515625 104.371094 186.917969 105.726562 184.53125 C 106.1875 183.867188 106.601562 183.175781 106.96875 182.457031 C 107.253906 181.957031 107.539062 181.449219 107.824219 181.011719 C 110.230469 177.578125 112.867188 174.328125 115.730469 171.269531 L 116.492188 170.523438 C 123.035156 163.972656 130.566406 158.886719 139.089844 155.269531 L 139.734375 154.945312 C 143.75 153.234375 147.894531 151.941406 152.167969 151.066406 C 152.503906 151.066406 152.824219 150.929688 153.125 150.867188 C 153.488281 150.757812 153.863281 150.691406 154.242188 150.667969 C 158.726562 149.765625 163.257812 149.285156 167.832031 149.226562 C 172.613281 149.242188 177.351562 149.71875 182.042969 150.667969 C 186.730469 151.613281 191.285156 153.011719 195.699219 154.855469 C 200.113281 156.703125 204.304688 158.960938 208.273438 161.632812 C 212.242188 164.304688 215.910156 167.335938 219.28125 170.734375 C 220.523438 171.976562 221.59375 173.417969 222.6875 174.808594 C 223.257812 175.542969 223.84375 176.277344 224.402344 176.960938 C 224.960938 177.644531 225.535156 178.351562 226.117188 179.023438 C 226.703125 179.695312 227.546875 180.691406 228.167969 181.511719 C 229.171875 183.152344 230.085938 184.835938 230.917969 186.570312 C 231.289062 187.316406 231.6875 188.085938 232.160156 188.882812 L 233.265625 190.871094 C 233.8125 191.816406 234.371094 192.796875 234.796875 193.605469 C 235.703125 196.339844 236.734375 199.449219 237.492188 202.417969 C 237.65625 203.128906 237.878906 203.835938 238.113281 204.546875 C 238.441406 205.464844 238.6875 206.40625 238.847656 207.367188 C 239.824219 211.929688 240.3125 216.546875 240.300781 221.214844 C 240.300781 221.601562 240.390625 221.898438 240.425781 221.800781 C 240.378906 226.402344 239.894531 230.960938 238.972656 235.472656 C 238.90625 235.769531 238.859375 236.066406 238.835938 236.367188 C 238.8125 236.601562 238.777344 236.835938 238.722656 237.066406 C 238.472656 238.226562 238.195312 239.378906 237.890625 240.527344 C 237.582031 241.675781 237.25 242.816406 236.886719 243.945312 C 236.523438 245.078125 236.136719 246.199219 235.71875 247.3125 C 235.300781 248.421875 234.855469 249.523438 234.386719 250.613281 C 233.914062 251.703125 233.417969 252.78125 232.894531 253.847656 C 232.371094 254.914062 231.820312 255.96875 231.246094 257.007812 C 230.667969 258.046875 230.070312 259.070312 229.441406 260.078125 C 228.816406 261.089844 228.167969 262.082031 227.492188 263.0625 C 226.820312 264.039062 226.121094 265 225.398438 265.941406 C 224.679688 266.886719 223.933594 267.8125 223.167969 268.71875 C 222.402344 269.625 221.613281 270.515625 220.800781 271.382812 C 219.992188 272.25 219.160156 273.097656 218.308594 273.925781 C 217.457031 274.753906 216.585938 275.5625 215.695312 276.347656 C 214.804688 277.132812 213.894531 277.894531 212.964844 278.636719 C 212.035156 279.375 211.089844 280.09375 210.125 280.789062 C 209.164062 281.480469 208.183594 282.152344 207.1875 282.796875 C 206.191406 283.445312 205.179688 284.066406 204.152344 284.660156 C 203.125 285.257812 202.082031 285.828125 201.027344 286.375 C 199.972656 286.921875 198.90625 287.441406 197.824219 287.933594 C 196.746094 288.425781 195.652344 288.894531 194.550781 289.332031 C 193.445312 289.773438 192.332031 290.1875 191.207031 290.570312 C 190.085938 290.957031 188.953125 291.3125 187.8125 291.644531 C 186.671875 291.972656 185.523438 292.273438 184.367188 292.546875 C 183.210938 292.820312 182.050781 293.066406 180.882812 293.285156 C 179.714844 293.5 178.539062 293.6875 177.363281 293.847656 C 176.1875 294.007812 175.007812 294.136719 173.824219 294.238281 C 172.640625 294.339844 171.453125 294.410156 170.265625 294.457031 C 169.082031 294.5 167.894531 294.511719 166.707031 294.496094 C 165.519531 294.484375 164.332031 294.4375 163.144531 294.367188 C 161.960938 294.292969 160.777344 294.191406 159.597656 294.058594 C 158.417969 293.929688 157.238281 293.769531 156.066406 293.582031 C 154.894531 293.390625 153.726562 293.175781 152.566406 292.929688 C 145.886719 291.472656 139.53125 289.132812 133.5 285.917969 C 127.46875 282.699219 121.992188 278.722656 117.0625 273.984375 L 116.402344 273.238281 C 113.9375 270.769531 111.65625 268.140625 109.570312 265.34375 C 107.480469 262.546875 105.605469 259.617188 103.9375 256.550781 C 102.269531 253.484375 100.832031 250.316406 99.621094 247.042969 C 98.410156 243.769531 97.441406 240.425781 96.710938 237.015625 Z M 200.425781 552.859375 C 195.136719 560.671875 191.457031 569.179688 189.386719 578.382812 C 188.257812 583.523438 187.707031 588.730469 187.730469 593.992188 L 187.730469 614.703125 L 31.449219 614.703125 L 31.449219 403.839844 C 31.464844 399.710938 31.878906 395.625 32.695312 391.578125 C 33.515625 387.535156 34.71875 383.605469 36.308594 379.796875 C 37.902344 375.992188 39.847656 372.375 42.152344 368.949219 C 44.453125 365.523438 47.070312 362.355469 49.996094 359.445312 C 54.828125 354.710938 60.289062 350.867188 66.382812 347.921875 C 70.738281 345.808594 75.269531 344.167969 79.972656 343 C 84.675781 341.832031 89.445312 341.167969 94.289062 341 L 241.160156 341 C 244.410156 340.992188 247.636719 341.238281 250.847656 341.738281 C 254.054688 342.242188 257.203125 342.992188 260.296875 343.992188 C 263.386719 344.992188 266.378906 346.226562 269.273438 347.699219 C 272.167969 349.171875 274.929688 350.863281 277.558594 352.773438 C 282.777344 356.449219 287.335938 360.816406 291.230469 365.875 C 287.933594 366.8125 284.707031 367.964844 281.5625 369.328125 C 281.292969 369.4375 281.03125 369.5625 280.777344 369.703125 C 280.449219 369.878906 280.105469 370.015625 279.746094 370.113281 C 275.628906 371.996094 271.683594 374.179688 267.898438 376.664062 L 264.730469 378.691406 C 260.710938 381.441406 256.984375 384.542969 253.542969 387.988281 L 252.96875 388.4375 C 251.945312 389.457031 250.945312 390.503906 249.972656 391.574219 C 248.996094 392.644531 248.050781 393.742188 247.132812 394.859375 C 246.210938 395.976562 245.320312 397.113281 244.457031 398.277344 C 243.59375 399.4375 242.757812 400.621094 241.953125 401.824219 C 241.148438 403.023438 240.371094 404.246094 239.625 405.488281 C 238.878906 406.726562 238.164062 407.984375 237.480469 409.261719 C 236.796875 410.539062 236.148438 411.828125 235.527344 413.136719 C 234.90625 414.445312 234.320312 415.765625 233.765625 417.105469 C 233.210938 418.441406 232.6875 419.789062 232.199219 421.152344 C 231.710938 422.515625 231.253906 423.890625 230.835938 425.273438 C 230.414062 426.660156 230.027344 428.054688 229.675781 429.457031 C 229.324219 430.859375 229.003906 432.273438 228.722656 433.691406 C 228.4375 435.109375 228.191406 436.535156 227.976562 437.96875 C 227.765625 439.398438 227.585938 440.835938 227.445312 442.277344 C 227.304688 443.71875 227.195312 445.160156 227.125 446.605469 C 227.054688 448.050781 227.019531 449.496094 227.019531 450.945312 C 227.019531 452.390625 227.054688 453.839844 227.125 455.285156 C 227.195312 456.730469 227.304688 458.171875 227.445312 459.613281 C 227.585938 461.054688 227.765625 462.488281 227.976562 463.921875 C 228.191406 465.351562 228.4375 466.777344 228.722656 468.199219 C 229.003906 469.617188 229.320312 471.03125 229.675781 472.433594 C 230.027344 473.835938 230.414062 475.230469 230.835938 476.617188 C 231.253906 478 231.710938 479.375 232.199219 480.738281 C 232.6875 482.101562 233.210938 483.449219 233.765625 484.785156 C 234.320312 486.121094 234.90625 487.445312 235.527344 488.753906 C 236.148438 490.0625 236.796875 491.351562 237.480469 492.628906 C 238.164062 493.902344 238.878906 495.164062 239.625 496.402344 C 240.371094 497.644531 241.148438 498.867188 241.953125 500.066406 C 242.757812 501.269531 243.59375 502.453125 244.457031 503.613281 C 245.320312 504.773438 246.210938 505.914062 247.132812 507.03125 C 248.050781 508.148438 248.996094 509.242188 249.972656 510.316406 C 250.945312 511.386719 251.945312 512.433594 252.96875 513.453125 C 255.410156 515.910156 257.984375 518.21875 260.6875 520.378906 C 256.042969 520.445312 251.441406 520.914062 246.878906 521.78125 C 242.21875 522.835938 237.695312 524.304688 233.304688 526.191406 C 228.914062 528.078125 224.734375 530.351562 220.765625 533.007812 C 216.792969 535.664062 213.097656 538.660156 209.679688 541.996094 C 206.261719 545.332031 203.175781 548.953125 200.425781 552.859375 Z M 411.589844 614.730469 L 219.28125 614.730469 L 219.28125 594.019531 C 219.257812 591.15625 219.542969 588.320312 220.128906 585.515625 C 220.984375 581.480469 222.390625 577.648438 224.351562 574.019531 C 226.308594 570.386719 228.738281 567.105469 231.636719 564.171875 L 232.222656 563.589844 C 234.152344 561.796875 236.191406 560.140625 238.339844 558.617188 C 241.761719 556.386719 245.433594 554.6875 249.351562 553.523438 C 253.269531 552.359375 257.273438 551.777344 261.359375 551.777344 L 369.507812 551.777344 C 373 551.820312 376.429688 552.300781 379.796875 553.214844 C 383.167969 554.132812 386.367188 555.457031 389.398438 557.1875 C 391.644531 558.355469 393.746094 559.742188 395.703125 561.351562 C 396.074219 561.671875 396.472656 561.972656 396.882812 562.269531 C 397.363281 562.617188 397.820312 562.992188 398.25 563.402344 C 400.773438 565.78125 403.003906 568.410156 404.949219 571.28125 L 405.660156 572.527344 C 407.105469 575.175781 408.320312 577.925781 409.300781 580.78125 C 409.660156 581.738281 409.898438 582.570312 410.132812 583.390625 C 411.085938 586.875 411.5625 590.421875 411.5625 594.03125 Z M 528.5 607.953125 L 527.433594 614.730469 L 443.164062 614.730469 L 443.164062 594.019531 C 443.128906 589.660156 442.714844 585.339844 441.917969 581.054688 C 441.769531 580.308594 441.585938 579.625 441.398438 578.941406 C 441.273438 578.46875 441.136719 577.996094 441.050781 577.558594 C 440.363281 574.378906 439.429688 571.269531 438.242188 568.238281 L 437.121094 565.242188 C 435.6875 561.605469 433.894531 558.160156 431.738281 554.898438 L 431.390625 554.414062 C 430.5625 553.140625 429.660156 551.921875 428.679688 550.757812 C 428.144531 550.089844 427.597656 549.417969 427.027344 548.632812 C 426.457031 547.851562 426.007812 547.390625 425.523438 546.742188 C 424.773438 545.679688 423.941406 544.683594 423.039062 543.75 C 422.914062 543.445312 422.730469 543.183594 422.492188 542.964844 L 421.621094 542.082031 C 419.941406 540.457031 418.152344 538.964844 416.25 537.605469 C 415.8125 537.214844 415.398438 536.800781 415.007812 536.363281 C 414.671875 536.042969 414.335938 535.71875 413.976562 535.40625 C 417.839844 528.4375 422.960938 522.5625 429.339844 517.78125 C 431.683594 516.039062 434.152344 514.492188 436.742188 513.140625 C 439.332031 511.792969 442.015625 510.65625 444.785156 509.730469 C 447.558594 508.808594 450.382812 508.109375 453.265625 507.636719 C 456.148438 507.160156 459.050781 506.917969 461.972656 506.902344 L 593.242188 506.902344 C 599.777344 506.871094 606.09375 508.035156 612.1875 510.394531 C 617.738281 512.566406 622.710938 515.664062 627.105469 519.695312 C 619.824219 520.085938 612.660156 521.199219 605.605469 523.03125 C 598.550781 524.867188 591.746094 527.382812 585.199219 530.582031 C 584.785156 530.773438 584.414062 531.023438 584.082031 531.328125 C 580.40625 533.164062 576.859375 535.210938 573.429688 537.46875 C 570.003906 539.730469 566.726562 542.1875 563.59375 544.839844 C 560.464844 547.496094 557.503906 550.328125 554.710938 553.339844 C 551.921875 556.347656 549.320312 559.515625 546.910156 562.835938 C 544.5 566.160156 542.296875 569.617188 540.300781 573.203125 C 538.308594 576.789062 536.535156 580.484375 534.984375 584.285156 C 533.433594 588.085938 532.117188 591.964844 531.03125 595.925781 C 529.945312 599.882812 529.105469 603.894531 528.5 607.953125 Z M 825.351562 651.214844 C 821.796875 660.011719 816.660156 667.761719 809.9375 674.460938 L 809.8125 674.460938 C 783.832031 701.1875 756.859375 727.914062 730.878906 753.894531 C 719.316406 765.328125 707.878906 776.765625 696.320312 788.203125 C 694.578125 790.066406 694.578125 790.441406 692.339844 788.203125 L 658.839844 754.761719 C 632.113281 728.160156 605.386719 701.558594 578.910156 674.460938 C 572.898438 668.421875 568.09375 661.542969 564.488281 653.824219 C 562.863281 650.179688 561.550781 646.421875 560.554688 642.554688 C 559.558594 638.691406 558.890625 634.769531 558.550781 630.789062 C 558.210938 626.8125 558.207031 622.832031 558.535156 618.855469 C 558.867188 614.875 559.523438 610.953125 560.511719 607.082031 L 561.382812 605.964844 L 561.382812 603.480469 C 561.539062 603.074219 561.664062 602.660156 561.753906 602.234375 C 562.625 599.875 563.496094 597.636719 564.488281 595.398438 C 565.234375 593.535156 565.980469 591.667969 566.355469 590.675781 L 567.597656 588.066406 C 569.167969 584.988281 570.972656 582.054688 573.011719 579.261719 C 575.046875 576.46875 577.289062 573.855469 579.738281 571.417969 C 582.183594 568.980469 584.808594 566.75 587.609375 564.722656 C 590.410156 562.699219 593.351562 560.910156 596.4375 559.347656 C 597.390625 559.082031 598.304688 558.710938 599.171875 558.230469 L 600.789062 557.484375 C 602.355469 556.703125 603.96875 556.039062 605.636719 555.496094 C 609.621094 553.949219 613.722656 552.832031 617.941406 552.140625 C 621.273438 551.492188 624.628906 551.035156 628.011719 550.773438 C 629.128906 550.667969 630.246094 550.625 631.367188 550.648438 C 633.738281 550.6875 636.101562 550.855469 638.453125 551.144531 C 648.261719 552.085938 657.542969 554.820312 666.296875 559.347656 L 667.042969 559.597656 C 672.328125 562.714844 677.21875 566.359375 681.710938 570.535156 L 683.082031 571.65625 C 684.183594 572.695312 685.386719 573.609375 686.683594 574.390625 L 687.679688 574.886719 C 687.925781 575.128906 688.21875 575.292969 688.550781 575.386719 L 692.277344 576.628906 L 700.359375 576.132812 L 702.222656 574.390625 C 703.476562 573.546875 704.679688 572.636719 705.828125 571.65625 L 707.070312 570.660156 C 711.386719 566.652344 716.070312 563.128906 721.117188 560.09375 L 722.609375 559.347656 C 727.046875 556.945312 731.683594 555.03125 736.523438 553.605469 C 741.359375 552.179688 746.296875 551.277344 751.324219 550.894531 C 754.554688 550.667969 757.789062 550.625 761.023438 550.773438 C 764.253906 551.019531 767.609375 551.519531 771.089844 552.140625 C 775.347656 552.894531 779.492188 554.054688 783.523438 555.621094 C 785.042969 556.125 786.535156 556.703125 787.996094 557.359375 L 789.613281 558.230469 C 790.234375 558.480469 791.230469 558.976562 792.347656 559.347656 C 795.527344 560.957031 798.558594 562.808594 801.441406 564.90625 C 804.320312 567.007812 807.011719 569.324219 809.515625 571.859375 C 812.019531 574.394531 814.304688 577.117188 816.367188 580.023438 C 818.429688 582.929688 820.242188 585.984375 821.808594 589.183594 L 823.921875 594.03125 C 824.667969 596.144531 825.539062 598.132812 826.285156 600.121094 L 826.410156 602.359375 L 828.023438 605.714844 C 829.039062 609.453125 829.746094 613.25 830.144531 617.101562 C 830.546875 620.953125 830.636719 624.8125 830.414062 628.675781 C 830.191406 632.542969 829.660156 636.367188 828.824219 640.148438 C 827.984375 643.925781 826.847656 647.617188 825.414062 651.214844 Z M 860.160156 607.953125 C 859.3125 602.558594 858.066406 597.253906 856.429688 592.042969 C 855.402344 588.796875 854.214844 585.605469 852.871094 582.476562 C 851.527344 579.347656 850.03125 576.292969 848.382812 573.3125 C 846.734375 570.332031 844.941406 567.4375 843.007812 564.636719 C 841.070312 561.832031 839.003906 559.132812 836.800781 556.535156 C 834.59375 553.9375 832.269531 551.457031 829.820312 549.089844 C 827.367188 546.722656 824.808594 544.484375 822.136719 542.371094 C 819.460938 540.261719 816.691406 538.285156 813.824219 536.449219 C 810.953125 534.613281 808 532.921875 804.964844 531.378906 L 803.226562 530.507812 C 796.761719 527.332031 790.042969 524.832031 783.074219 523.011719 C 776.105469 521.191406 769.023438 520.085938 761.828125 519.695312 C 760.214844 519.570312 758.472656 519.570312 756.734375 519.570312 C 751.648438 519.53125 746.59375 519.902344 741.566406 520.6875 C 733.71875 521.867188 726.121094 523.949219 718.765625 526.933594 C 711.410156 529.914062 704.511719 533.71875 698.058594 538.339844 C 697.285156 538.796875 696.539062 539.292969 695.820312 539.832031 C 695.324219 540.082031 694.828125 540.453125 694.328125 540.703125 C 694.082031 540.578125 693.957031 540.453125 693.707031 540.328125 C 692.714844 539.582031 691.71875 538.960938 690.726562 538.339844 C 683.070312 532.957031 674.847656 528.671875 666.050781 525.488281 L 665.914062 524.566406 C 665.445312 520.894531 664.492188 517.351562 663.0625 513.9375 C 661.628906 510.523438 659.765625 507.359375 657.472656 504.453125 C 657.472656 504.453125 655.804688 502.539062 654.042969 500.726562 C 652.050781 498.71875 649.96875 496.820312 647.792969 495.019531 C 645.617188 493.222656 643.355469 491.535156 641.011719 489.960938 C 638.667969 488.386719 636.25 486.933594 633.761719 485.597656 C 631.277344 484.261719 628.726562 483.054688 626.121094 481.96875 C 623.511719 480.886719 620.859375 479.933594 618.15625 479.113281 C 615.457031 478.292969 612.71875 477.605469 609.949219 477.054688 C 607.179688 476.507812 604.390625 476.09375 601.582031 475.820312 C 598.769531 475.546875 595.953125 475.410156 593.128906 475.414062 L 583.546875 475.414062 C 585.746094 473.972656 587.683594 472.59375 589.761719 471.003906 L 592.160156 469.25 C 595.21875 466.875 598.226562 464.078125 600.265625 462.152344 L 601.011719 461.40625 C 603.660156 458.734375 606.148438 455.914062 608.46875 452.953125 C 608.917969 452.515625 609.285156 452.015625 609.574219 451.460938 C 611.621094 448.949219 613.519531 446.328125 615.269531 443.605469 L 615.679688 442.882812 C 615.980469 442.558594 616.214844 442.191406 616.375 441.777344 L 616.660156 441.34375 C 617.90625 439.265625 619.046875 437.066406 620.179688 434.878906 C 620.75 433.773438 621.324219 432.679688 621.90625 431.582031 L 622.082031 431.097656 C 622.148438 430.804688 622.253906 430.527344 622.40625 430.265625 C 622.515625 430.042969 622.628906 429.804688 622.714844 429.605469 C 624.460938 425.628906 625.96875 421.566406 627.242188 417.414062 C 627.476562 416.660156 627.644531 415.894531 627.75 415.113281 C 628.746094 411.65625 629.503906 408.144531 630.023438 404.582031 C 630.148438 404 630.25 403.402344 630.347656 402.820312 C 630.449219 402.234375 630.523438 401.761719 630.660156 401.066406 C 631.207031 396.632812 631.5 392.183594 631.542969 387.714844 C 631.523438 383.113281 631.1875 378.535156 630.535156 373.980469 C 630.535156 373.492188 630.386719 372.996094 630.296875 372.476562 C 630.210938 371.953125 630.113281 371.34375 630.039062 370.695312 C 629.371094 366.609375 628.457031 362.578125 627.300781 358.601562 C 627.285156 358.441406 627.246094 358.28125 627.191406 358.128906 L 626.992188 357.359375 L 626.992188 357.222656 L 626.816406 356.476562 C 625.511719 352.808594 624.15625 349.019531 622.480469 345.289062 C 623.820312 344.714844 625.265625 344.195312 626.769531 343.722656 C 632.78125 341.917969 638.925781 341.03125 645.203125 341.0625 L 792.011719 341.0625 C 826.894531 341.0625 869.023438 369.09375 869.023438 403.886719 L 869.023438 592.042969 L 869.097656 592.515625 L 869.160156 592.789062 L 869.160156 615.910156 L 861.339844 615.910156 Z M 860.160156 607.953125 "/></g></svg>