<svg width="16" height="12" viewBox="0 0 16 12" fill="none" xmlns="http://www.w3.org/2000/svg">
<path d="M15.5534 2.0625C15.4055 1.23779 14.7007 0.637207 13.8829 0.449707C12.6591 0.1875 10.3941 0 7.94345 0C5.49429 0 3.19304 0.1875 1.96774 0.449707C1.15135 0.637207 0.44517 1.19971 0.297263 2.0625C0.147907 3 0 4.3125 0 6C0 7.6875 0.147907 9 0.333515 9.9375C0.482871 10.7622 1.1876 11.3628 2.00399 11.5503C3.30324 11.8125 5.53054 12 7.98115 12C10.4318 12 12.6591 11.8125 13.9583 11.5503C14.7747 11.3628 15.4794 10.8003 15.6288 9.9375C15.7767 9 15.9623 7.64941 16 6C15.9246 4.3125 15.739 3 15.5534 2.0625ZM5.93946 8.625V3.375L10.468 6L5.93946 8.625Z" fill="#9AE2E0"/>
</svg>
