<svg viewBox="0 0 16 17" fill="none" xmlns="http://www.w3.org/2000/svg">
<path fill-rule="evenodd" clip-rule="evenodd" d="M14 4.2228V13.5561C14 13.9098 13.8595 14.2489 13.6095 14.4989C13.3594 14.749 13.0203 14.8895 12.6667 14.8895H10.1667C10.0783 14.8895 9.99348 14.8543 9.93096 14.7918C9.86845 14.7293 9.83333 14.6445 9.83333 14.5561V10.5561H11.3933C11.4702 10.5561 11.5447 10.5296 11.6042 10.481C11.6637 10.4324 11.7046 10.3648 11.72 10.2895L11.96 9.08947C11.9649 9.06552 11.9645 9.04079 11.9587 9.01703C11.953 8.99328 11.9421 8.97107 11.9269 8.95198C11.9116 8.9329 11.8923 8.91741 11.8704 8.9066C11.8485 8.8958 11.8244 8.88995 11.8 8.88947H9.83333V6.7228C9.83333 6.6786 9.85089 6.6362 9.88215 6.60495C9.9134 6.57369 9.9558 6.55613 10 6.55613H11.6667C11.7551 6.55613 11.8399 6.52101 11.9024 6.4585C11.9649 6.39599 12 6.3112 12 6.2228V5.2228C12 5.13439 11.9649 5.04961 11.9024 4.9871C11.8399 4.92458 11.7551 4.88947 11.6667 4.88947H10C9.46957 4.88947 8.96086 5.10018 8.58579 5.47525C8.21071 5.85032 8 6.35903 8 6.88947V8.88947H7.18C7.0916 8.88947 7.00681 8.92458 6.9443 8.9871C6.88179 9.04961 6.84667 9.13439 6.84667 9.2228V10.2228C6.84667 10.3112 6.88179 10.396 6.9443 10.4585C7.00681 10.521 7.0916 10.5561 7.18 10.5561H8V14.5561C8 14.6445 7.96488 14.7293 7.90237 14.7918C7.83986 14.8543 7.75507 14.8895 7.66667 14.8895H3.33333C2.97971 14.8895 2.64057 14.749 2.39052 14.4989C2.14048 14.2489 2 13.9098 2 13.5561V4.2228C2 3.86918 2.14048 3.53004 2.39052 3.27999C2.64057 3.02994 2.97971 2.88947 3.33333 2.88947H12.6667C13.0203 2.88947 13.3594 3.02994 13.6095 3.27999C13.8595 3.53004 14 3.86918 14 4.2228Z" fill="#9AE2E0"/>
</svg>
