<svg viewBox="0 0 17 16" fill="none" xmlns="http://www.w3.org/2000/svg">
<g clip-path="url(#clip0_42552:755)">
<path d="M16.397 3C15.797 3.3 15.197 3.4 14.497 3.5C15.197 3.1 15.697 2.5 15.897 1.7C15.297 2.1 14.597 2.3 13.797 2.5C13.197 1.9 12.297 1.5 11.397 1.5C9.69699 1.5 8.19699 3 8.19699 4.8C8.19699 5.1 8.19699 5.3 8.29699 5.5C5.59699 5.4 3.09699 4.1 1.49699 2.1C1.19699 2.6 1.09699 3.1 1.09699 3.8C1.09699 4.9 1.69699 5.9 2.59699 6.5C2.09699 6.5 1.59699 6.3 1.09699 6.1C1.09699 7.7 2.19699 9 3.69699 9.3C3.39699 9.4 3.09699 9.4 2.79699 9.4C2.59699 9.4 2.39699 9.4 2.19699 9.3C2.59699 10.6 3.79699 11.6 5.29699 11.6C4.19699 12.5 2.79699 13 1.19699 13H0.396988C1.89699 13.9 3.59699 14.5 5.39699 14.5C11.397 14.5 14.697 9.5 14.697 5.2V4.8C15.397 4.3 15.997 3.7 16.397 3Z" fill="currentColor"/>
</g>
<defs>
<clipPath id="clip0_42552:755">
<rect width="16" height="16" fill="white" transform="translate(0.396988)"/>
</clipPath>
</defs>
</svg>
