<svg viewBox="0 0 17 16" fill="none" xmlns="http://www.w3.org/2000/svg">
<path d="M5.80905 6.33333V13C5.80905 13.0884 5.77393 13.1732 5.71142 13.2357C5.6489 13.2982 5.56412 13.3333 5.47571 13.3333H3.80905C3.72064 13.3333 3.63586 13.2982 3.57334 13.2357C3.51083 13.1732 3.47571 13.0884 3.47571 13V6.33333C3.47571 6.24493 3.51083 6.16014 3.57334 6.09763C3.63586 6.03512 3.72064 6 3.80905 6H5.47571C5.56412 6 5.6489 6.03512 5.71142 6.09763C5.77393 6.16014 5.80905 6.24493 5.80905 6.33333ZM14.809 8.94C14.8202 8.2394 14.5916 7.55602 14.1612 7.00313C13.7308 6.45024 13.1243 6.06102 12.4424 5.9C11.9784 5.80009 11.4972 5.81271 11.0391 5.93681C10.5809 6.06091 10.1592 6.29288 9.80905 6.61333V6.33333C9.80905 6.24493 9.77393 6.16014 9.71142 6.09763C9.6489 6.03512 9.56412 6 9.47571 6H7.80905C7.72064 6 7.63586 6.03512 7.57334 6.09763C7.51083 6.16014 7.47571 6.24493 7.47571 6.33333V13C7.47571 13.0884 7.51083 13.1732 7.57334 13.2357C7.63586 13.2982 7.72064 13.3333 7.80905 13.3333H9.47571C9.56412 13.3333 9.6489 13.2982 9.71142 13.2357C9.77393 13.1732 9.80905 13.0884 9.80905 13V9.24C9.80107 8.91565 9.90764 8.59885 10.11 8.34526C10.3124 8.09167 10.5977 7.9175 10.9157 7.85333C11.1088 7.82 11.3068 7.82964 11.4958 7.88155C11.6847 7.93346 11.8599 8.02637 12.0088 8.15367C12.1578 8.28097 12.2768 8.43953 12.3575 8.61808C12.4382 8.79662 12.4786 8.99075 12.4757 9.18667V13C12.4757 13.0884 12.5108 13.1732 12.5733 13.2357C12.6359 13.2982 12.7206 13.3333 12.809 13.3333H14.4757C14.5641 13.3333 14.6489 13.2982 14.7114 13.2357C14.7739 13.1732 14.809 13.0884 14.809 13V8.94ZM4.47571 2C4.21201 2 3.95422 2.0782 3.73495 2.22471C3.51569 2.37122 3.34479 2.57945 3.24387 2.82309C3.14296 3.06672 3.11655 3.33481 3.168 3.59345C3.21945 3.8521 3.34643 4.08967 3.5329 4.27614C3.71937 4.46261 3.95695 4.5896 4.21559 4.64105C4.47423 4.69249 4.74232 4.66609 4.98596 4.56517C5.22959 4.46426 5.43783 4.29336 5.58434 4.07409C5.73085 3.85483 5.80905 3.59704 5.80905 3.33333C5.80905 2.97971 5.66857 2.64057 5.41852 2.39052C5.16847 2.14048 4.82934 2 4.47571 2Z" fill="currentColor"/>
</svg>
