<svg viewBox="0 0 17 16" fill="none" xmlns="http://www.w3.org/2000/svg">
<g clip-path="url(#clip0_42552:760)">
<path d="M12.6827 4.85201C13.2129 4.85201 13.6427 4.4222 13.6427 3.89201C13.6427 3.36181 13.2129 2.93201 12.6827 2.93201C12.1525 2.93201 11.7227 3.36181 11.7227 3.89201C11.7227 4.4222 12.1525 4.85201 12.6827 4.85201Z" fill="#9AE2E0"/>
<path d="M8.53769 12C6.33169 12 4.53769 10.206 4.53769 8C4.53769 5.794 6.33169 4 8.53769 4C10.7437 4 12.5377 5.794 12.5377 8C12.5377 10.206 10.7437 12 8.53769 12ZM8.53769 6C7.43469 6 6.53769 6.897 6.53769 8C6.53769 9.103 7.43469 10 8.53769 10C9.64069 10 10.5377 9.103 10.5377 8C10.5377 6.897 9.64069 6 8.53769 6Z" fill="#9AE2E0"/>
<path d="M12.5377 16H4.53769C2.48169 16 0.537689 14.056 0.537689 12V4C0.537689 1.944 2.48169 0 4.53769 0H12.5377C14.5937 0 16.5377 1.944 16.5377 4V12C16.5377 14.056 14.5937 16 12.5377 16ZM4.53769 2C3.60269 2 2.53769 3.065 2.53769 4V12C2.53769 12.953 3.58469 14 4.53769 14H12.5377C13.4727 14 14.5377 12.935 14.5377 12V4C14.5377 3.065 13.4727 2 12.5377 2H4.53769Z" fill="#9AE2E0"/>
</g>
<defs>
<clipPath id="clip0_42552:760">
<rect width="16" height="16" fill="white" transform="translate(0.537689)"/>
</clipPath>
</defs>
</svg>
