<svg xmlns="http://www.w3.org/2000/svg" xmlns:xlink="http://www.w3.org/1999/xlink" width="1200" zoomAndPan="magnify" viewBox="0 0 900 899.99999" height="1200" preserveAspectRatio="xMidYMid meet" version="1.2"><defs><clipPath id="c71c876d6d"><path d="M 299 31.191406 L 599 31.191406 L 599 331 L 299 331 Z M 299 31.191406 "/></clipPath><clipPath id="bb618bfcce"><path d="M 61.03125 211 L 338 211 L 338 421 L 61.03125 421 Z M 61.03125 211 "/></clipPath><clipPath id="fd83444055"><path d="M 61.03125 390 L 838 390 L 838 868.941406 L 61.03125 868.941406 Z M 61.03125 390 "/></clipPath><clipPath id="2772268f0b"><path d="M 61.03125 390 L 838 390 L 838 421 L 61.03125 421 Z M 61.03125 390 "/></clipPath></defs><g id="8e285367cb"><path style=" stroke:none;fill-rule:nonzero;fill:#113c7b;fill-opacity:1;" d="M 449.253906 196.160156 C 447.785156 196.160156 446.324219 196.085938 444.863281 195.941406 C 443.402344 195.796875 441.953125 195.582031 440.515625 195.296875 C 439.074219 195.011719 437.652344 194.65625 436.25 194.230469 C 434.847656 193.804688 433.464844 193.308594 432.109375 192.75 C 430.753906 192.1875 429.429688 191.558594 428.136719 190.867188 C 426.84375 190.175781 425.585938 189.425781 424.367188 188.609375 C 423.148438 187.792969 421.96875 186.921875 420.835938 185.992188 C 419.703125 185.058594 418.617188 184.074219 417.578125 183.039062 C 416.542969 182 415.558594 180.914062 414.625 179.78125 C 413.695312 178.648438 412.824219 177.46875 412.007812 176.25 C 411.191406 175.03125 410.4375 173.773438 409.746094 172.480469 C 409.054688 171.1875 408.429688 169.859375 407.867188 168.503906 C 407.308594 167.148438 406.8125 165.769531 406.386719 164.367188 C 405.960938 162.960938 405.605469 161.542969 405.320312 160.101562 C 405.03125 158.664062 404.816406 157.214844 404.675781 155.753906 C 404.53125 154.292969 404.457031 152.832031 404.457031 151.363281 C 404.457031 149.894531 404.53125 148.433594 404.675781 146.972656 C 404.816406 145.511719 405.03125 144.0625 405.320312 142.625 C 405.605469 141.183594 405.960938 139.765625 406.386719 138.359375 C 406.8125 136.957031 407.308594 135.578125 407.867188 134.222656 C 408.429688 132.867188 409.054688 131.542969 409.746094 130.246094 C 410.4375 128.953125 411.191406 127.695312 412.007812 126.476562 C 412.824219 125.257812 413.695312 124.078125 414.625 122.945312 C 415.558594 121.8125 416.542969 120.726562 417.578125 119.6875 C 418.617188 118.652344 419.703125 117.667969 420.835938 116.738281 C 421.96875 115.804688 423.148438 114.933594 424.367188 114.117188 C 425.585938 113.300781 426.84375 112.550781 428.136719 111.859375 C 429.429688 111.167969 430.753906 110.539062 432.109375 109.976562 C 433.464844 109.417969 434.847656 108.921875 436.25 108.496094 C 437.652344 108.070312 439.074219 107.714844 440.515625 107.429688 C 441.953125 107.144531 443.402344 106.929688 444.863281 106.785156 C 446.324219 106.640625 447.785156 106.570312 449.253906 106.570312 C 450.71875 106.570312 452.183594 106.640625 453.644531 106.785156 C 455.105469 106.929688 456.554688 107.144531 457.992188 107.429688 C 459.429688 107.714844 460.851562 108.070312 462.257812 108.496094 C 463.660156 108.921875 465.039062 109.417969 466.394531 109.976562 C 467.75 110.539062 469.074219 111.167969 470.371094 111.859375 C 471.664062 112.550781 472.921875 113.300781 474.140625 114.117188 C 475.359375 114.933594 476.535156 115.804688 477.671875 116.738281 C 478.804688 117.667969 479.890625 118.652344 480.929688 119.6875 C 481.964844 120.726562 482.949219 121.8125 483.878906 122.945312 C 484.8125 124.078125 485.683594 125.257812 486.5 126.476562 C 487.3125 127.695312 488.066406 128.953125 488.757812 130.246094 C 489.449219 131.542969 490.078125 132.867188 490.636719 134.222656 C 491.199219 135.578125 491.695312 136.957031 492.121094 138.359375 C 492.546875 139.765625 492.902344 141.183594 493.1875 142.625 C 493.472656 144.0625 493.6875 145.511719 493.832031 146.972656 C 493.976562 148.433594 494.046875 149.894531 494.046875 151.363281 C 494.046875 152.34375 493.953125 153.316406 493.761719 154.277344 C 493.570312 155.238281 493.285156 156.171875 492.910156 157.078125 C 492.535156 157.984375 492.078125 158.84375 491.53125 159.660156 C 490.988281 160.472656 490.367188 161.226562 489.675781 161.921875 C 488.980469 162.613281 488.226562 163.234375 487.414062 163.777344 C 486.597656 164.324219 485.738281 164.78125 484.832031 165.160156 C 483.925781 165.535156 482.992188 165.816406 482.03125 166.007812 C 481.066406 166.199219 480.097656 166.296875 479.117188 166.296875 C 478.136719 166.296875 477.164062 166.199219 476.203125 166.007812 C 475.242188 165.816406 474.308594 165.535156 473.402344 165.160156 C 472.496094 164.78125 471.636719 164.324219 470.820312 163.777344 C 470.007812 163.234375 469.25 162.613281 468.558594 161.921875 C 467.863281 161.226562 467.246094 160.472656 466.703125 159.660156 C 466.15625 158.84375 465.695312 157.984375 465.320312 157.078125 C 464.945312 156.171875 464.664062 155.238281 464.472656 154.277344 C 464.28125 153.316406 464.183594 152.34375 464.183594 151.363281 C 464.183594 150.382812 464.089844 149.410156 463.898438 148.449219 C 463.707031 147.488281 463.421875 146.554688 463.046875 145.648438 C 462.671875 144.742188 462.214844 143.882812 461.667969 143.066406 C 461.125 142.253906 460.503906 141.5 459.8125 140.804688 C 459.117188 140.113281 458.363281 139.492188 457.550781 138.949219 C 456.734375 138.402344 455.875 137.945312 454.96875 137.566406 C 454.0625 137.191406 453.128906 136.910156 452.167969 136.71875 C 451.203125 136.527344 450.234375 136.433594 449.253906 136.433594 C 448.273438 136.433594 447.300781 136.527344 446.339844 136.71875 C 445.378906 136.910156 444.445312 137.191406 443.539062 137.566406 C 442.632812 137.945312 441.773438 138.402344 440.957031 138.949219 C 440.144531 139.492188 439.386719 140.113281 438.695312 140.804688 C 438 141.5 437.382812 142.253906 436.839844 143.066406 C 436.292969 143.882812 435.832031 144.742188 435.457031 145.648438 C 435.082031 146.554688 434.800781 147.488281 434.609375 148.449219 C 434.417969 149.410156 434.320312 150.382812 434.320312 151.363281 C 434.320312 152.34375 434.417969 153.316406 434.609375 154.277344 C 434.800781 155.238281 435.082031 156.171875 435.457031 157.078125 C 435.832031 157.984375 436.292969 158.84375 436.839844 159.660156 C 437.382812 160.472656 438 161.226562 438.695312 161.921875 C 439.386719 162.613281 440.144531 163.234375 440.957031 163.777344 C 441.773438 164.324219 442.632812 164.78125 443.539062 165.160156 C 444.445312 165.535156 445.378906 165.816406 446.339844 166.007812 C 447.300781 166.199219 448.273438 166.296875 449.253906 166.296875 C 450.234375 166.296875 451.203125 166.390625 452.167969 166.582031 C 453.128906 166.773438 454.0625 167.054688 454.96875 167.429688 C 455.875 167.808594 456.734375 168.265625 457.550781 168.8125 C 458.363281 169.355469 459.117188 169.976562 459.8125 170.667969 C 460.503906 171.363281 461.125 172.117188 461.667969 172.929688 C 462.214844 173.746094 462.671875 174.605469 463.046875 175.511719 C 463.421875 176.417969 463.707031 177.351562 463.898438 178.3125 C 464.089844 179.273438 464.183594 180.246094 464.183594 181.226562 C 464.183594 182.207031 464.089844 183.179688 463.898438 184.140625 C 463.707031 185.101562 463.421875 186.035156 463.046875 186.941406 C 462.671875 187.847656 462.214844 188.707031 461.667969 189.523438 C 461.125 190.335938 460.503906 191.089844 459.8125 191.785156 C 459.117188 192.476562 458.363281 193.097656 457.550781 193.640625 C 456.734375 194.1875 455.875 194.644531 454.96875 195.023438 C 454.0625 195.398438 453.128906 195.679688 452.167969 195.871094 C 451.203125 196.0625 450.234375 196.160156 449.253906 196.160156 Z M 449.253906 196.160156 "/><path style=" stroke:none;fill-rule:nonzero;fill:#113c7b;fill-opacity:1;" d="M 449.253906 255.882812 C 447.785156 255.882812 446.324219 255.808594 444.863281 255.664062 C 443.40625 255.519531 441.957031 255.304688 440.519531 255.015625 C 439.078125 254.726562 437.660156 254.371094 436.253906 253.945312 C 434.851562 253.519531 433.472656 253.023438 432.117188 252.460938 C 430.765625 251.898438 429.441406 251.273438 428.148438 250.582031 C 426.855469 249.890625 425.597656 249.136719 424.378906 248.320312 C 423.160156 247.503906 421.984375 246.632812 420.847656 245.703125 C 419.714844 244.769531 418.628906 243.789062 417.59375 242.75 C 416.554688 241.714844 415.570312 240.628906 414.640625 239.496094 C 413.710938 238.359375 412.839844 237.183594 412.023438 235.964844 C 411.207031 234.746094 410.453125 233.488281 409.761719 232.195312 C 409.070312 230.902344 408.445312 229.578125 407.882812 228.222656 C 407.320312 226.871094 406.824219 225.492188 406.398438 224.085938 C 405.972656 222.683594 405.613281 221.265625 405.328125 219.824219 C 405.039062 218.386719 404.824219 216.9375 404.679688 215.480469 C 404.535156 214.019531 404.460938 212.554688 404.457031 211.089844 C 404.457031 210.109375 404.554688 209.136719 404.746094 208.175781 C 404.9375 207.214844 405.21875 206.28125 405.59375 205.375 C 405.96875 204.46875 406.429688 203.609375 406.976562 202.792969 C 407.519531 201.980469 408.136719 201.226562 408.832031 200.53125 C 409.523438 199.839844 410.28125 199.21875 411.09375 198.675781 C 411.910156 198.128906 412.769531 197.671875 413.675781 197.292969 C 414.582031 196.917969 415.515625 196.636719 416.476562 196.445312 C 417.4375 196.253906 418.410156 196.160156 419.390625 196.160156 C 420.371094 196.160156 421.339844 196.253906 422.304688 196.445312 C 423.265625 196.636719 424.199219 196.917969 425.105469 197.292969 C 426.011719 197.671875 426.871094 198.128906 427.6875 198.675781 C 428.5 199.21875 429.253906 199.839844 429.949219 200.53125 C 430.640625 201.226562 431.261719 201.980469 431.804688 202.792969 C 432.351562 203.609375 432.808594 204.46875 433.183594 205.375 C 433.558594 206.28125 433.84375 207.214844 434.035156 208.175781 C 434.226562 209.136719 434.320312 210.109375 434.320312 211.089844 C 434.320312 212.070312 434.417969 213.042969 434.609375 214.003906 C 434.800781 214.964844 435.082031 215.898438 435.457031 216.804688 C 435.832031 217.710938 436.292969 218.570312 436.839844 219.386719 C 437.382812 220.199219 438 220.953125 438.695312 221.648438 C 439.386719 222.339844 440.144531 222.960938 440.957031 223.503906 C 441.773438 224.050781 442.632812 224.507812 443.539062 224.886719 C 444.445312 225.261719 445.378906 225.542969 446.339844 225.734375 C 447.300781 225.925781 448.273438 226.019531 449.253906 226.023438 C 450.234375 226.019531 451.203125 225.925781 452.167969 225.734375 C 453.128906 225.542969 454.0625 225.261719 454.96875 224.886719 C 455.875 224.507812 456.734375 224.050781 457.550781 223.503906 C 458.363281 222.960938 459.117188 222.339844 459.8125 221.648438 C 460.503906 220.953125 461.125 220.199219 461.667969 219.386719 C 462.214844 218.570312 462.671875 217.710938 463.046875 216.804688 C 463.421875 215.898438 463.707031 214.964844 463.898438 214.003906 C 464.089844 213.042969 464.183594 212.070312 464.183594 211.089844 C 464.183594 210.109375 464.089844 209.136719 463.898438 208.175781 C 463.707031 207.214844 463.421875 206.28125 463.046875 205.375 C 462.671875 204.46875 462.214844 203.609375 461.667969 202.792969 C 461.125 201.980469 460.503906 201.226562 459.8125 200.53125 C 459.117188 199.839844 458.363281 199.21875 457.550781 198.675781 C 456.734375 198.128906 455.875 197.671875 454.96875 197.292969 C 454.0625 196.917969 453.128906 196.636719 452.167969 196.445312 C 451.203125 196.253906 450.234375 196.160156 449.253906 196.160156 C 448.273438 196.160156 447.300781 196.0625 446.339844 195.871094 C 445.378906 195.679688 444.445312 195.398438 443.539062 195.023438 C 442.632812 194.644531 441.773438 194.1875 440.957031 193.640625 C 440.144531 193.097656 439.386719 192.476562 438.695312 191.785156 C 438 191.089844 437.382812 190.335938 436.839844 189.523438 C 436.292969 188.707031 435.832031 187.847656 435.457031 186.941406 C 435.082031 186.035156 434.800781 185.101562 434.609375 184.140625 C 434.417969 183.179688 434.320312 182.207031 434.320312 181.226562 C 434.320312 180.246094 434.417969 179.273438 434.609375 178.3125 C 434.800781 177.351562 435.082031 176.417969 435.457031 175.511719 C 435.832031 174.605469 436.292969 173.746094 436.839844 172.929688 C 437.382812 172.117188 438 171.363281 438.695312 170.667969 C 439.386719 169.976562 440.144531 169.355469 440.957031 168.8125 C 441.773438 168.265625 442.632812 167.808594 443.539062 167.429688 C 444.445312 167.054688 445.378906 166.773438 446.339844 166.582031 C 447.300781 166.390625 448.273438 166.296875 449.253906 166.296875 C 450.71875 166.296875 452.183594 166.367188 453.644531 166.511719 C 455.105469 166.65625 456.554688 166.871094 457.992188 167.15625 C 459.429688 167.441406 460.851562 167.796875 462.257812 168.222656 C 463.660156 168.648438 465.039062 169.144531 466.394531 169.703125 C 467.75 170.265625 469.074219 170.894531 470.371094 171.585938 C 471.664062 172.277344 472.921875 173.027344 474.140625 173.84375 C 475.359375 174.660156 476.535156 175.53125 477.671875 176.464844 C 478.804688 177.394531 479.890625 178.378906 480.929688 179.414062 C 481.964844 180.453125 482.949219 181.539062 483.878906 182.671875 C 484.8125 183.804688 485.683594 184.984375 486.5 186.203125 C 487.3125 187.421875 488.066406 188.679688 488.757812 189.972656 C 489.449219 191.265625 490.078125 192.59375 490.636719 193.949219 C 491.199219 195.304688 491.695312 196.683594 492.121094 198.085938 C 492.546875 199.492188 492.902344 200.910156 493.1875 202.351562 C 493.472656 203.789062 493.6875 205.238281 493.832031 206.699219 C 493.976562 208.160156 494.046875 209.621094 494.046875 211.089844 C 494.046875 212.558594 493.976562 214.019531 493.832031 215.480469 C 493.6875 216.941406 493.472656 218.390625 493.1875 219.828125 C 492.902344 221.269531 492.546875 222.6875 492.121094 224.09375 C 491.695312 225.496094 491.199219 226.875 490.636719 228.230469 C 490.078125 229.585938 489.449219 230.914062 488.757812 232.207031 C 488.066406 233.5 487.3125 234.757812 486.5 235.976562 C 485.683594 237.195312 484.8125 238.375 483.878906 239.507812 C 482.949219 240.640625 481.964844 241.726562 480.929688 242.765625 C 479.890625 243.800781 478.804688 244.785156 477.671875 245.714844 C 476.535156 246.648438 475.359375 247.519531 474.140625 248.335938 C 472.921875 249.152344 471.664062 249.902344 470.371094 250.59375 C 469.074219 251.285156 467.75 251.914062 466.394531 252.476562 C 465.039062 253.035156 463.660156 253.53125 462.257812 253.957031 C 460.851562 254.382812 459.429688 254.738281 457.992188 255.023438 C 456.554688 255.308594 455.105469 255.523438 453.644531 255.667969 C 452.183594 255.8125 450.71875 255.882812 449.253906 255.882812 Z M 449.253906 255.882812 "/><path style=" stroke:none;fill-rule:nonzero;fill:#113c7b;fill-opacity:1;" d="M 449.253906 136.433594 C 448.273438 136.433594 447.300781 136.335938 446.339844 136.144531 C 445.378906 135.953125 444.445312 135.671875 443.539062 135.296875 C 442.632812 134.921875 441.773438 134.460938 440.957031 133.914062 C 440.144531 133.371094 439.386719 132.75 438.695312 132.058594 C 438 131.363281 437.382812 130.609375 436.839844 129.796875 C 436.292969 128.980469 435.832031 128.121094 435.457031 127.214844 C 435.082031 126.308594 434.800781 125.375 434.609375 124.414062 C 434.417969 123.453125 434.320312 122.480469 434.320312 121.5 L 434.320312 106.570312 C 434.320312 105.589844 434.417969 104.617188 434.609375 103.65625 C 434.800781 102.695312 435.082031 101.761719 435.457031 100.855469 C 435.832031 99.949219 436.292969 99.089844 436.839844 98.273438 C 437.382812 97.457031 438 96.703125 438.695312 96.011719 C 439.386719 95.316406 440.144531 94.699219 440.957031 94.152344 C 441.773438 93.609375 442.632812 93.148438 443.539062 92.773438 C 444.445312 92.398438 445.378906 92.113281 446.339844 91.921875 C 447.300781 91.734375 448.273438 91.636719 449.253906 91.636719 C 450.234375 91.636719 451.203125 91.734375 452.167969 91.921875 C 453.128906 92.113281 454.0625 92.398438 454.96875 92.773438 C 455.875 93.148438 456.734375 93.609375 457.550781 94.152344 C 458.363281 94.699219 459.117188 95.316406 459.8125 96.011719 C 460.503906 96.703125 461.125 97.457031 461.667969 98.273438 C 462.214844 99.089844 462.671875 99.949219 463.046875 100.855469 C 463.421875 101.761719 463.707031 102.695312 463.898438 103.65625 C 464.089844 104.617188 464.183594 105.589844 464.183594 106.570312 L 464.183594 121.5 C 464.183594 122.480469 464.089844 123.453125 463.898438 124.414062 C 463.707031 125.375 463.421875 126.308594 463.046875 127.214844 C 462.671875 128.121094 462.214844 128.980469 461.667969 129.796875 C 461.125 130.609375 460.503906 131.363281 459.8125 132.058594 C 459.117188 132.75 458.363281 133.371094 457.550781 133.914062 C 456.734375 134.460938 455.875 134.921875 454.96875 135.296875 C 454.0625 135.671875 453.128906 135.953125 452.167969 136.144531 C 451.203125 136.335938 450.234375 136.433594 449.253906 136.433594 Z M 449.253906 136.433594 "/><path style=" stroke:none;fill-rule:nonzero;fill:#113c7b;fill-opacity:1;" d="M 449.253906 270.816406 C 448.273438 270.816406 447.300781 270.71875 446.339844 270.53125 C 445.378906 270.339844 444.445312 270.054688 443.539062 269.679688 C 442.632812 269.304688 441.773438 268.84375 440.957031 268.300781 C 440.144531 267.753906 439.386719 267.136719 438.695312 266.441406 C 438 265.75 437.382812 264.996094 436.839844 264.179688 C 436.292969 263.363281 435.832031 262.503906 435.457031 261.597656 C 435.082031 260.691406 434.800781 259.757812 434.609375 258.796875 C 434.417969 257.835938 434.320312 256.863281 434.320312 255.882812 L 434.320312 240.953125 C 434.320312 239.972656 434.417969 239 434.609375 238.039062 C 434.800781 237.078125 435.082031 236.144531 435.457031 235.238281 C 435.832031 234.332031 436.292969 233.472656 436.839844 232.65625 C 437.382812 231.84375 438 231.089844 438.695312 230.394531 C 439.386719 229.703125 440.144531 229.082031 440.957031 228.539062 C 441.773438 227.992188 442.632812 227.535156 443.539062 227.15625 C 444.445312 226.78125 445.378906 226.5 446.339844 226.308594 C 447.300781 226.117188 448.273438 226.023438 449.253906 226.023438 C 450.234375 226.023438 451.203125 226.117188 452.167969 226.308594 C 453.128906 226.5 454.0625 226.78125 454.96875 227.15625 C 455.875 227.535156 456.734375 227.992188 457.550781 228.539062 C 458.363281 229.082031 459.117188 229.703125 459.8125 230.394531 C 460.503906 231.089844 461.125 231.84375 461.667969 232.65625 C 462.214844 233.472656 462.671875 234.332031 463.046875 235.238281 C 463.421875 236.144531 463.707031 237.078125 463.898438 238.039062 C 464.089844 239 464.183594 239.972656 464.183594 240.953125 L 464.183594 255.882812 C 464.183594 256.863281 464.089844 257.835938 463.898438 258.796875 C 463.707031 259.757812 463.421875 260.691406 463.046875 261.597656 C 462.671875 262.503906 462.214844 263.363281 461.667969 264.179688 C 461.125 264.996094 460.503906 265.75 459.8125 266.441406 C 459.117188 267.136719 458.363281 267.753906 457.550781 268.300781 C 456.734375 268.84375 455.875 269.304688 454.96875 269.679688 C 454.0625 270.054688 453.128906 270.339844 452.167969 270.53125 C 451.203125 270.71875 450.234375 270.816406 449.253906 270.816406 Z M 449.253906 270.816406 "/><g clip-rule="nonzero" clip-path="url(#c71c876d6d)"><path style=" stroke:none;fill-rule:nonzero;fill:#113c7b;fill-opacity:1;" d="M 449.253906 330.542969 C 446.808594 330.542969 444.367188 330.484375 441.925781 330.363281 C 439.484375 330.242188 437.050781 330.0625 434.617188 329.824219 C 432.1875 329.585938 429.761719 329.285156 427.34375 328.925781 C 424.925781 328.566406 422.519531 328.152344 420.125 327.671875 C 417.726562 327.195312 415.34375 326.660156 412.972656 326.066406 C 410.601562 325.472656 408.246094 324.824219 405.910156 324.113281 C 403.570312 323.402344 401.25 322.636719 398.949219 321.8125 C 396.648438 320.992188 394.371094 320.113281 392.113281 319.175781 C 389.855469 318.242188 387.621094 317.25 385.414062 316.207031 C 383.203125 315.160156 381.019531 314.0625 378.867188 312.910156 C 376.710938 311.761719 374.585938 310.554688 372.488281 309.300781 C 370.394531 308.042969 368.328125 306.734375 366.296875 305.378906 C 364.265625 304.019531 362.269531 302.613281 360.304688 301.160156 C 358.34375 299.703125 356.417969 298.199219 354.527344 296.648438 C 352.640625 295.097656 350.789062 293.503906 348.980469 291.863281 C 347.167969 290.222656 345.398438 288.535156 343.671875 286.808594 C 341.941406 285.082031 340.257812 283.3125 338.617188 281.5 C 336.976562 279.691406 335.378906 277.839844 333.832031 275.953125 C 332.28125 274.0625 330.777344 272.136719 329.320312 270.175781 C 327.867188 268.210938 326.460938 266.214844 325.101562 264.183594 C 323.742188 262.148438 322.4375 260.085938 321.179688 257.992188 C 319.925781 255.894531 318.71875 253.769531 317.566406 251.613281 C 316.417969 249.457031 315.316406 247.277344 314.273438 245.066406 C 313.226562 242.859375 312.238281 240.625 311.304688 238.367188 C 310.367188 236.109375 309.488281 233.832031 308.664062 231.53125 C 307.84375 229.230469 307.074219 226.910156 306.367188 224.570312 C 305.65625 222.230469 305.003906 219.878906 304.410156 217.507812 C 303.816406 215.136719 303.28125 212.753906 302.804688 210.355469 C 302.328125 207.960938 301.910156 205.554688 301.554688 203.136719 C 301.195312 200.71875 300.894531 198.292969 300.65625 195.863281 C 300.417969 193.429688 300.238281 190.992188 300.117188 188.554688 C 299.996094 186.113281 299.9375 183.671875 299.9375 181.226562 C 299.9375 178.78125 299.996094 176.339844 300.117188 173.898438 C 300.238281 171.460938 300.417969 169.023438 300.65625 166.589844 C 300.894531 164.160156 301.195312 161.734375 301.554688 159.316406 C 301.910156 156.898438 302.328125 154.492188 302.804688 152.097656 C 303.28125 149.699219 303.816406 147.316406 304.410156 144.945312 C 305.003906 142.574219 305.65625 140.222656 306.367188 137.882812 C 307.074219 135.542969 307.84375 133.222656 308.664062 130.921875 C 309.488281 128.621094 310.367188 126.34375 311.304688 124.085938 C 312.238281 121.828125 313.226562 119.59375 314.273438 117.386719 C 315.316406 115.175781 316.417969 112.996094 317.566406 110.839844 C 318.71875 108.683594 319.925781 106.558594 321.179688 104.460938 C 322.4375 102.367188 323.742188 100.304688 325.101562 98.269531 C 326.460938 96.238281 327.867188 94.242188 329.320312 92.277344 C 330.777344 90.316406 332.28125 88.390625 333.832031 86.5 C 335.378906 84.613281 336.976562 82.761719 338.617188 80.953125 C 340.257812 79.140625 341.941406 77.371094 343.671875 75.644531 C 345.398438 73.917969 347.167969 72.230469 348.980469 70.589844 C 350.789062 68.949219 352.640625 67.355469 354.527344 65.804688 C 356.417969 64.253906 358.34375 62.75 360.304688 61.292969 C 362.269531 59.839844 364.265625 58.433594 366.296875 57.074219 C 368.328125 55.71875 370.394531 54.410156 372.488281 53.152344 C 374.585938 51.898438 376.710938 50.695312 378.867188 49.542969 C 381.019531 48.390625 383.203125 47.292969 385.414062 46.246094 C 387.621094 45.203125 389.855469 44.210938 392.113281 43.277344 C 394.371094 42.339844 396.648438 41.460938 398.949219 40.640625 C 401.25 39.816406 403.570312 39.050781 405.910156 38.339844 C 408.246094 37.628906 410.601562 36.980469 412.972656 36.386719 C 415.34375 35.792969 417.726562 35.257812 420.125 34.78125 C 422.519531 34.304688 424.925781 33.886719 427.34375 33.527344 C 429.761719 33.167969 432.1875 32.867188 434.617188 32.628906 C 437.050781 32.390625 439.484375 32.210938 441.925781 32.089844 C 444.367188 31.96875 446.808594 31.910156 449.253906 31.910156 C 451.695312 31.910156 454.140625 31.96875 456.578125 32.089844 C 459.019531 32.210938 461.457031 32.390625 463.890625 32.628906 C 466.320312 32.867188 468.746094 33.167969 471.164062 33.527344 C 473.578125 33.886719 475.988281 34.304688 478.382812 34.78125 C 480.78125 35.257812 483.164062 35.792969 485.535156 36.386719 C 487.90625 36.980469 490.257812 37.628906 492.597656 38.339844 C 494.9375 39.050781 497.253906 39.816406 499.554688 40.640625 C 501.855469 41.460938 504.136719 42.339844 506.394531 43.277344 C 508.652344 44.210938 510.886719 45.203125 513.09375 46.246094 C 515.304688 47.292969 517.484375 48.390625 519.640625 49.542969 C 521.796875 50.695312 523.921875 51.898438 526.015625 53.152344 C 528.113281 54.410156 530.175781 55.71875 532.210938 57.074219 C 534.242188 58.433594 536.238281 59.839844 538.199219 61.292969 C 540.164062 62.75 542.089844 64.253906 543.980469 65.804688 C 545.867188 67.355469 547.71875 68.949219 549.527344 70.589844 C 551.339844 72.230469 553.109375 73.917969 554.835938 75.644531 C 556.5625 77.371094 558.25 79.140625 559.890625 80.953125 C 561.53125 82.761719 563.125 84.613281 564.675781 86.5 C 566.226562 88.390625 567.730469 90.316406 569.183594 92.277344 C 570.640625 94.242188 572.046875 96.238281 573.40625 98.269531 C 574.761719 100.304688 576.070312 102.367188 577.324219 104.460938 C 578.582031 106.558594 579.785156 108.683594 580.9375 110.839844 C 582.089844 112.996094 583.1875 115.175781 584.234375 117.386719 C 585.277344 119.59375 586.269531 121.828125 587.203125 124.085938 C 588.136719 126.34375 589.019531 128.621094 589.839844 130.921875 C 590.664062 133.222656 591.429688 135.542969 592.140625 137.882812 C 592.847656 140.222656 593.5 142.574219 594.09375 144.945312 C 594.6875 147.316406 595.222656 149.699219 595.699219 152.097656 C 596.175781 154.492188 596.59375 156.898438 596.953125 159.316406 C 597.3125 161.734375 597.609375 164.160156 597.851562 166.589844 C 598.089844 169.023438 598.269531 171.460938 598.390625 173.898438 C 598.507812 176.339844 598.570312 178.78125 598.570312 181.226562 C 598.566406 183.667969 598.503906 186.109375 598.382812 188.550781 C 598.257812 190.992188 598.078125 193.425781 597.835938 195.855469 C 597.59375 198.289062 597.292969 200.710938 596.929688 203.128906 C 596.570312 205.542969 596.152344 207.949219 595.671875 210.34375 C 595.195312 212.742188 594.65625 215.121094 594.0625 217.492188 C 593.464844 219.863281 592.8125 222.214844 592.101562 224.550781 C 591.390625 226.890625 590.625 229.207031 589.800781 231.507812 C 588.976562 233.804688 588.09375 236.085938 587.15625 238.339844 C 586.222656 240.597656 585.230469 242.828125 584.1875 245.039062 C 583.140625 247.246094 582.039062 249.425781 580.886719 251.582031 C 579.734375 253.734375 578.53125 255.859375 577.273438 257.953125 C 576.019531 260.046875 574.710938 262.109375 573.351562 264.140625 C 571.996094 266.171875 570.589844 268.167969 569.132812 270.132812 C 567.675781 272.09375 566.175781 274.019531 564.625 275.90625 C 563.074219 277.792969 561.480469 279.644531 559.839844 281.453125 C 558.199219 283.261719 556.511719 285.03125 554.785156 286.757812 C 553.058594 288.488281 551.289062 290.171875 549.480469 291.8125 C 547.671875 293.453125 545.820312 295.046875 543.933594 296.597656 C 542.042969 298.148438 540.121094 299.652344 538.15625 301.105469 C 536.195312 302.5625 534.199219 303.96875 532.167969 305.328125 C 530.136719 306.683594 528.074219 307.992188 525.980469 309.246094 C 523.886719 310.503906 521.761719 311.710938 519.605469 312.863281 C 517.453125 314.015625 515.273438 315.113281 513.0625 316.160156 C 510.855469 317.203125 508.625 318.195312 506.367188 319.132812 C 504.113281 320.066406 501.832031 320.949219 499.535156 321.773438 C 497.234375 322.597656 494.914062 323.363281 492.578125 324.074219 C 490.242188 324.785156 487.886719 325.4375 485.519531 326.035156 C 483.148438 326.628906 480.765625 327.167969 478.371094 327.644531 C 475.976562 328.125 473.570312 328.542969 471.152344 328.90625 C 468.738281 329.265625 466.316406 329.566406 463.882812 329.808594 C 461.453125 330.050781 459.015625 330.234375 456.578125 330.355469 C 454.136719 330.476562 451.695312 330.539062 449.253906 330.542969 Z M 449.253906 61.773438 C 447.296875 61.773438 445.34375 61.820312 443.390625 61.917969 C 441.441406 62.011719 439.492188 62.15625 437.546875 62.347656 C 435.597656 62.539062 433.660156 62.78125 431.726562 63.066406 C 429.792969 63.351562 427.867188 63.6875 425.949219 64.070312 C 424.03125 64.449219 422.125 64.878906 420.230469 65.351562 C 418.332031 65.828125 416.449219 66.351562 414.578125 66.917969 C 412.707031 67.484375 410.851562 68.097656 409.011719 68.757812 C 407.171875 69.414062 405.347656 70.117188 403.539062 70.867188 C 401.734375 71.613281 399.949219 72.40625 398.179688 73.242188 C 396.414062 74.078125 394.667969 74.957031 392.945312 75.878906 C 391.21875 76.800781 389.519531 77.761719 387.84375 78.769531 C 386.164062 79.773438 384.515625 80.820312 382.890625 81.90625 C 381.261719 82.992188 379.664062 84.117188 378.09375 85.28125 C 376.523438 86.445312 374.984375 87.648438 373.472656 88.886719 C 371.960938 90.128906 370.480469 91.40625 369.035156 92.71875 C 367.585938 94.03125 366.167969 95.378906 364.789062 96.761719 C 363.40625 98.144531 362.058594 99.558594 360.746094 101.007812 C 359.433594 102.457031 358.15625 103.933594 356.914062 105.445312 C 355.675781 106.957031 354.472656 108.5 353.308594 110.070312 C 352.144531 111.640625 351.019531 113.238281 349.933594 114.863281 C 348.847656 116.488281 347.800781 118.140625 346.796875 119.816406 C 345.789062 121.492188 344.828125 123.191406 343.90625 124.917969 C 342.984375 126.640625 342.105469 128.386719 341.269531 130.152344 C 340.433594 131.921875 339.640625 133.707031 338.894531 135.515625 C 338.144531 137.320312 337.441406 139.144531 336.78125 140.984375 C 336.125 142.824219 335.511719 144.679688 334.945312 146.550781 C 334.375 148.421875 333.855469 150.304688 333.378906 152.203125 C 332.90625 154.097656 332.476562 156.003906 332.09375 157.921875 C 331.714844 159.839844 331.378906 161.765625 331.09375 163.699219 C 330.804688 165.632812 330.566406 167.574219 330.375 169.519531 C 330.183594 171.464844 330.039062 173.414062 329.945312 175.367188 C 329.847656 177.316406 329.800781 179.273438 329.800781 181.226562 C 329.800781 183.179688 329.847656 185.136719 329.945312 187.089844 C 330.039062 189.039062 330.183594 190.988281 330.375 192.933594 C 330.566406 194.878906 330.804688 196.820312 331.09375 198.753906 C 331.378906 200.6875 331.714844 202.613281 332.09375 204.53125 C 332.476562 206.449219 332.90625 208.355469 333.378906 210.25 C 333.855469 212.148438 334.375 214.03125 334.945312 215.902344 C 335.511719 217.773438 336.125 219.628906 336.78125 221.46875 C 337.441406 223.308594 338.144531 225.132812 338.894531 226.9375 C 339.640625 228.746094 340.433594 230.53125 341.269531 232.300781 C 342.105469 234.066406 342.984375 235.8125 343.90625 237.535156 C 344.828125 239.261719 345.789062 240.960938 346.796875 242.636719 C 347.800781 244.316406 348.847656 245.964844 349.933594 247.589844 C 351.019531 249.214844 352.144531 250.8125 353.308594 252.382812 C 354.472656 253.953125 355.675781 255.496094 356.914062 257.007812 C 358.15625 258.519531 359.433594 259.996094 360.746094 261.445312 C 362.058594 262.894531 363.40625 264.308594 364.789062 265.691406 C 366.167969 267.074219 367.585938 268.421875 369.035156 269.734375 C 370.480469 271.046875 371.960938 272.324219 373.472656 273.566406 C 374.984375 274.804688 376.523438 276.007812 378.09375 277.171875 C 379.664062 278.335938 381.261719 279.460938 382.890625 280.546875 C 384.515625 281.632812 386.164062 282.679688 387.84375 283.683594 C 389.519531 284.691406 391.21875 285.652344 392.945312 286.574219 C 394.667969 287.496094 396.414062 288.375 398.179688 289.210938 C 399.949219 290.046875 401.734375 290.839844 403.539062 291.585938 C 405.347656 292.335938 407.171875 293.039062 409.011719 293.695312 C 410.851562 294.355469 412.707031 294.96875 414.578125 295.535156 C 416.449219 296.101562 418.332031 296.625 420.230469 297.101562 C 422.125 297.574219 424.03125 298.003906 425.949219 298.382812 C 427.867188 298.765625 429.792969 299.101562 431.726562 299.386719 C 433.660156 299.671875 435.597656 299.914062 437.546875 300.105469 C 439.492188 300.296875 441.441406 300.441406 443.390625 300.535156 C 445.34375 300.632812 447.296875 300.679688 449.253906 300.679688 C 451.207031 300.679688 453.164062 300.632812 455.113281 300.535156 C 457.066406 300.441406 459.015625 300.296875 460.960938 300.105469 C 462.90625 299.914062 464.847656 299.671875 466.78125 299.386719 C 468.714844 299.101562 470.640625 298.765625 472.558594 298.382812 C 474.476562 298.003906 476.382812 297.574219 478.277344 297.101562 C 480.175781 296.625 482.058594 296.101562 483.929688 295.535156 C 485.800781 294.96875 487.65625 294.355469 489.496094 293.695312 C 491.335938 293.039062 493.160156 292.335938 494.964844 291.585938 C 496.773438 290.839844 498.558594 290.046875 500.324219 289.210938 C 502.09375 288.375 503.839844 287.496094 505.5625 286.574219 C 507.289062 285.652344 508.988281 284.691406 510.664062 283.683594 C 512.339844 282.679688 513.992188 281.632812 515.617188 280.546875 C 517.242188 279.460938 518.839844 278.335938 520.410156 277.171875 C 521.980469 276.007812 523.523438 274.804688 525.035156 273.566406 C 526.542969 272.324219 528.023438 271.046875 529.472656 269.734375 C 530.921875 268.421875 532.335938 267.074219 533.71875 265.691406 C 535.101562 264.308594 536.449219 262.894531 537.761719 261.445312 C 539.074219 259.996094 540.351562 258.519531 541.59375 257.007812 C 542.832031 255.496094 544.035156 253.953125 545.199219 252.382812 C 546.363281 250.8125 547.488281 249.214844 548.574219 247.589844 C 549.660156 245.964844 550.707031 244.316406 551.710938 242.636719 C 552.714844 240.960938 553.679688 239.261719 554.601562 237.535156 C 555.523438 235.8125 556.402344 234.066406 557.238281 232.300781 C 558.074219 230.53125 558.867188 228.746094 559.613281 226.9375 C 560.363281 225.132812 561.066406 223.308594 561.722656 221.46875 C 562.382812 219.628906 562.996094 217.773438 563.5625 215.902344 C 564.128906 214.03125 564.652344 212.148438 565.125 210.25 C 565.601562 208.355469 566.03125 206.449219 566.410156 204.53125 C 566.792969 202.613281 567.125 200.6875 567.414062 198.753906 C 567.699219 196.820312 567.941406 194.878906 568.132812 192.933594 C 568.324219 190.988281 568.464844 189.039062 568.5625 187.089844 C 568.660156 185.136719 568.707031 183.179688 568.707031 181.226562 C 568.703125 179.273438 568.652344 177.320312 568.554688 175.367188 C 568.457031 173.414062 568.3125 171.46875 568.117188 169.523438 C 567.925781 167.578125 567.683594 165.640625 567.394531 163.707031 C 567.105469 161.773438 566.769531 159.847656 566.386719 157.933594 C 566.003906 156.015625 565.574219 154.109375 565.097656 152.214844 C 564.625 150.320312 564.101562 148.4375 563.53125 146.566406 C 562.964844 144.695312 562.347656 142.84375 561.691406 141.003906 C 561.03125 139.164062 560.324219 137.339844 559.578125 135.535156 C 558.828125 133.730469 558.035156 131.945312 557.199219 130.179688 C 556.363281 128.410156 555.484375 126.667969 554.5625 124.945312 C 553.640625 123.222656 552.675781 121.519531 551.671875 119.84375 C 550.664062 118.167969 549.617188 116.519531 548.53125 114.894531 C 547.445312 113.269531 546.320312 111.671875 545.15625 110.101562 C 543.992188 108.535156 542.789062 106.992188 541.550781 105.484375 C 540.308594 103.972656 539.035156 102.492188 537.722656 101.046875 C 536.410156 99.597656 535.0625 98.183594 533.679688 96.800781 C 532.296875 95.417969 530.882812 94.070312 529.433594 92.757812 C 527.988281 91.445312 526.507812 90.171875 524.996094 88.929688 C 523.484375 87.691406 521.945312 86.488281 520.375 85.324219 C 518.808594 84.160156 517.210938 83.035156 515.585938 81.945312 C 513.960938 80.859375 512.3125 79.816406 510.632812 78.808594 C 508.957031 77.804688 507.257812 76.839844 505.535156 75.917969 C 503.8125 74.996094 502.066406 74.117188 500.300781 73.28125 C 498.535156 72.445312 496.75 71.652344 494.945312 70.902344 C 493.140625 70.152344 491.316406 69.449219 489.476562 68.789062 C 487.636719 68.128906 485.785156 67.515625 483.914062 66.949219 C 482.042969 66.378906 480.160156 65.855469 478.265625 65.378906 C 476.371094 64.902344 474.464844 64.472656 472.546875 64.089844 C 470.632812 63.707031 468.707031 63.371094 466.773438 63.085938 C 464.839844 62.796875 462.902344 62.554688 460.957031 62.359375 C 459.011719 62.167969 457.066406 62.023438 455.113281 61.925781 C 453.160156 61.824219 451.207031 61.777344 449.253906 61.773438 Z M 449.253906 61.773438 "/></g><path style=" stroke:none;fill-rule:nonzero;fill:#113c7b;fill-opacity:1;" d="M 643.363281 330.542969 L 255.140625 330.542969 C 254.160156 330.542969 253.191406 330.445312 252.230469 330.257812 C 251.269531 330.066406 250.335938 329.78125 249.429688 329.40625 C 248.523438 329.03125 247.660156 328.570312 246.847656 328.027344 C 246.03125 327.480469 245.277344 326.863281 244.585938 326.167969 C 243.890625 325.476562 243.273438 324.722656 242.726562 323.90625 C 242.183594 323.089844 241.722656 322.230469 241.347656 321.324219 C 240.972656 320.417969 240.6875 319.484375 240.496094 318.523438 C 240.304688 317.5625 240.210938 316.589844 240.210938 315.609375 C 240.210938 314.628906 240.304688 313.660156 240.496094 312.699219 C 240.6875 311.738281 240.972656 310.804688 241.347656 309.898438 C 241.722656 308.992188 242.183594 308.128906 242.726562 307.316406 C 243.273438 306.5 243.890625 305.746094 244.585938 305.054688 C 245.277344 304.359375 246.03125 303.742188 246.847656 303.195312 C 247.660156 302.652344 248.523438 302.191406 249.429688 301.816406 C 250.335938 301.441406 251.269531 301.15625 252.230469 300.964844 C 253.191406 300.773438 254.160156 300.679688 255.140625 300.679688 L 643.363281 300.679688 C 644.34375 300.679688 645.316406 300.773438 646.277344 300.964844 C 647.238281 301.15625 648.171875 301.441406 649.078125 301.816406 C 649.984375 302.191406 650.84375 302.652344 651.660156 303.195312 C 652.476562 303.742188 653.230469 304.359375 653.921875 305.054688 C 654.617188 305.746094 655.234375 306.5 655.78125 307.316406 C 656.324219 308.128906 656.785156 308.992188 657.160156 309.898438 C 657.535156 310.804688 657.816406 311.738281 658.007812 312.699219 C 658.199219 313.660156 658.296875 314.628906 658.296875 315.609375 C 658.296875 316.589844 658.199219 317.5625 658.007812 318.523438 C 657.816406 319.484375 657.535156 320.417969 657.160156 321.324219 C 656.785156 322.230469 656.324219 323.089844 655.78125 323.90625 C 655.234375 324.722656 654.617188 325.476562 653.921875 326.167969 C 653.230469 326.863281 652.476562 327.480469 651.660156 328.027344 C 650.84375 328.570312 649.984375 329.03125 649.078125 329.40625 C 648.171875 329.78125 647.238281 330.066406 646.277344 330.257812 C 645.316406 330.445312 644.34375 330.542969 643.363281 330.542969 Z M 643.363281 330.542969 "/><g clip-rule="nonzero" clip-path="url(#bb618bfcce)"><path style=" stroke:none;fill-rule:nonzero;fill:#113c7b;fill-opacity:1;" d="M 75.949219 420.132812 C 75.316406 420.132812 74.683594 420.089844 74.054688 420.011719 C 73.425781 419.929688 72.804688 419.808594 72.195312 419.648438 C 71.582031 419.488281 70.980469 419.292969 70.390625 419.054688 C 69.804688 418.820312 69.234375 418.546875 68.679688 418.238281 C 68.128906 417.929688 67.597656 417.585938 67.085938 417.210938 C 66.578125 416.832031 66.09375 416.425781 65.636719 415.988281 C 65.179688 415.550781 64.75 415.085938 64.351562 414.59375 C 63.953125 414.097656 63.589844 413.582031 63.253906 413.042969 C 62.921875 412.503906 62.625 411.949219 62.363281 411.371094 C 62.101562 410.792969 61.878906 410.203125 61.691406 409.597656 C 61.503906 408.992188 61.359375 408.378906 61.25 407.753906 C 61.140625 407.128906 61.074219 406.5 61.042969 405.867188 C 61.015625 405.234375 61.027344 404.601562 61.082031 403.972656 C 61.132812 403.339844 61.222656 402.714844 61.355469 402.09375 C 61.488281 401.476562 61.660156 400.867188 61.867188 400.269531 C 62.078125 399.671875 62.324219 399.089844 62.605469 398.523438 L 152.195312 219.34375 C 152.816406 218.101562 153.59375 216.972656 154.53125 215.949219 C 155.464844 214.925781 156.523438 214.046875 157.703125 213.320312 C 158.882812 212.589844 160.136719 212.035156 161.472656 211.65625 C 162.804688 211.277344 164.167969 211.089844 165.550781 211.089844 L 322.632812 211.089844 C 323.613281 211.089844 324.585938 211.183594 325.546875 211.375 C 326.507812 211.566406 327.441406 211.851562 328.347656 212.226562 C 329.253906 212.601562 330.113281 213.0625 330.929688 213.605469 C 331.742188 214.152344 332.5 214.769531 333.191406 215.464844 C 333.886719 216.15625 334.503906 216.910156 335.046875 217.726562 C 335.59375 218.542969 336.054688 219.402344 336.429688 220.308594 C 336.804688 221.214844 337.085938 222.148438 337.277344 223.109375 C 337.46875 224.070312 337.566406 225.042969 337.566406 226.023438 C 337.566406 227 337.46875 227.972656 337.277344 228.933594 C 337.085938 229.894531 336.804688 230.828125 336.429688 231.734375 C 336.054688 232.640625 335.59375 233.5 335.046875 234.316406 C 334.503906 235.132812 333.886719 235.886719 333.191406 236.578125 C 332.5 237.273438 331.742188 237.890625 330.929688 238.4375 C 330.113281 238.980469 329.253906 239.441406 328.347656 239.816406 C 327.441406 240.191406 326.507812 240.476562 325.546875 240.667969 C 324.585938 240.859375 323.613281 240.953125 322.632812 240.953125 L 174.785156 240.953125 L 89.320312 411.878906 C 88.699219 413.121094 87.917969 414.253906 86.984375 415.277344 C 86.046875 416.300781 84.988281 417.179688 83.808594 417.90625 C 82.625 418.636719 81.367188 419.191406 80.03125 419.566406 C 78.699219 419.945312 77.335938 420.132812 75.949219 420.132812 Z M 75.949219 420.132812 "/></g><path style=" stroke:none;fill-rule:nonzero;fill:#113c7b;fill-opacity:1;" d="M 822.558594 420.132812 C 821.171875 420.136719 819.808594 419.945312 818.472656 419.570312 C 817.136719 419.191406 815.878906 418.636719 814.699219 417.910156 C 813.519531 417.179688 812.457031 416.304688 811.523438 415.277344 C 810.585938 414.253906 809.808594 413.121094 809.1875 411.878906 L 723.722656 240.953125 L 575.882812 240.953125 C 574.902344 240.953125 573.929688 240.859375 572.96875 240.667969 C 572.007812 240.476562 571.074219 240.191406 570.167969 239.816406 C 569.261719 239.441406 568.402344 238.980469 567.585938 238.4375 C 566.769531 237.890625 566.015625 237.273438 565.324219 236.578125 C 564.628906 235.886719 564.011719 235.132812 563.464844 234.316406 C 562.921875 233.5 562.460938 232.640625 562.085938 231.734375 C 561.710938 230.828125 561.425781 229.894531 561.234375 228.933594 C 561.046875 227.972656 560.949219 227 560.949219 226.023438 C 560.949219 225.042969 561.046875 224.070312 561.234375 223.109375 C 561.425781 222.148438 561.710938 221.214844 562.085938 220.308594 C 562.460938 219.402344 562.921875 218.542969 563.464844 217.726562 C 564.011719 216.910156 564.628906 216.15625 565.324219 215.464844 C 566.015625 214.769531 566.769531 214.152344 567.585938 213.605469 C 568.402344 213.0625 569.261719 212.601562 570.167969 212.226562 C 571.074219 211.851562 572.007812 211.566406 572.96875 211.375 C 573.929688 211.183594 574.902344 211.089844 575.882812 211.089844 L 732.953125 211.089844 C 734.339844 211.089844 735.699219 211.277344 737.035156 211.65625 C 738.367188 212.035156 739.625 212.589844 740.804688 213.320312 C 741.984375 214.046875 743.042969 214.925781 743.976562 215.949219 C 744.914062 216.972656 745.691406 218.101562 746.3125 219.34375 L 835.898438 398.523438 C 836.183594 399.089844 836.429688 399.671875 836.640625 400.269531 C 836.847656 400.867188 837.019531 401.476562 837.152344 402.09375 C 837.28125 402.714844 837.375 403.339844 837.425781 403.972656 C 837.480469 404.601562 837.492188 405.234375 837.460938 405.867188 C 837.433594 406.5 837.367188 407.128906 837.257812 407.753906 C 837.148438 408.378906 837.003906 408.992188 836.816406 409.597656 C 836.628906 410.203125 836.40625 410.792969 836.144531 411.371094 C 835.882812 411.949219 835.585938 412.503906 835.25 413.042969 C 834.917969 413.582031 834.554688 414.097656 834.15625 414.59375 C 833.757812 415.085938 833.328125 415.550781 832.871094 415.988281 C 832.414062 416.425781 831.929688 416.832031 831.417969 417.210938 C 830.910156 417.585938 830.378906 417.929688 829.824219 418.238281 C 829.273438 418.546875 828.703125 418.820312 828.113281 419.054688 C 827.527344 419.292969 826.925781 419.488281 826.3125 419.648438 C 825.699219 419.808594 825.078125 419.929688 824.453125 420.011719 C 823.824219 420.089844 823.191406 420.132812 822.558594 420.132812 Z M 822.558594 420.132812 "/><g clip-rule="nonzero" clip-path="url(#fd83444055)"><path style=" stroke:none;fill-rule:nonzero;fill:#113c7b;fill-opacity:1;" d="M 822.542969 868.082031 L 75.960938 868.082031 C 74.984375 868.082031 74.011719 867.984375 73.050781 867.792969 C 72.089844 867.601562 71.15625 867.320312 70.25 866.945312 C 69.34375 866.570312 68.484375 866.109375 67.667969 865.566406 C 66.851562 865.019531 66.097656 864.402344 65.40625 863.707031 C 64.710938 863.015625 64.09375 862.261719 63.546875 861.445312 C 63.003906 860.628906 62.542969 859.769531 62.167969 858.863281 C 61.792969 857.957031 61.507812 857.023438 61.316406 856.0625 C 61.125 855.101562 61.03125 854.128906 61.03125 853.148438 L 61.03125 405.199219 C 61.03125 404.21875 61.125 403.25 61.316406 402.289062 C 61.507812 401.328125 61.792969 400.394531 62.167969 399.488281 C 62.542969 398.582031 63.003906 397.71875 63.546875 396.90625 C 64.09375 396.089844 64.710938 395.335938 65.40625 394.644531 C 66.097656 393.949219 66.851562 393.332031 67.667969 392.785156 C 68.484375 392.242188 69.34375 391.78125 70.25 391.40625 C 71.15625 391.03125 72.089844 390.746094 73.050781 390.554688 C 74.011719 390.363281 74.984375 390.269531 75.960938 390.269531 C 76.941406 390.269531 77.914062 390.363281 78.875 390.554688 C 79.835938 390.746094 80.769531 391.03125 81.675781 391.40625 C 82.582031 391.78125 83.441406 392.242188 84.257812 392.785156 C 85.074219 393.332031 85.828125 393.949219 86.519531 394.644531 C 87.214844 395.335938 87.832031 396.089844 88.378906 396.90625 C 88.921875 397.71875 89.382812 398.582031 89.757812 399.488281 C 90.132812 400.394531 90.417969 401.328125 90.609375 402.289062 C 90.800781 403.25 90.894531 404.21875 90.894531 405.199219 L 90.894531 838.21875 L 807.613281 838.21875 L 807.613281 405.199219 C 807.613281 404.21875 807.707031 403.25 807.898438 402.289062 C 808.089844 401.328125 808.375 400.394531 808.75 399.488281 C 809.125 398.582031 809.582031 397.71875 810.128906 396.90625 C 810.671875 396.089844 811.292969 395.335938 811.984375 394.644531 C 812.679688 393.949219 813.433594 393.332031 814.25 392.785156 C 815.0625 392.242188 815.925781 391.78125 816.828125 391.40625 C 817.734375 391.03125 818.667969 390.746094 819.632812 390.554688 C 820.59375 390.363281 821.5625 390.269531 822.542969 390.269531 C 823.523438 390.269531 824.496094 390.363281 825.457031 390.554688 C 826.417969 390.746094 827.351562 391.03125 828.257812 391.40625 C 829.164062 391.78125 830.023438 392.242188 830.839844 392.785156 C 831.65625 393.332031 832.410156 393.949219 833.101562 394.644531 C 833.796875 395.335938 834.414062 396.089844 834.960938 396.90625 C 835.503906 397.71875 835.964844 398.582031 836.339844 399.488281 C 836.714844 400.394531 836.996094 401.328125 837.1875 402.289062 C 837.378906 403.25 837.476562 404.21875 837.476562 405.199219 L 837.476562 853.148438 C 837.476562 854.128906 837.378906 855.101562 837.1875 856.0625 C 836.996094 857.023438 836.714844 857.957031 836.339844 858.863281 C 835.964844 859.769531 835.503906 860.628906 834.960938 861.445312 C 834.414062 862.261719 833.796875 863.015625 833.101562 863.707031 C 832.410156 864.402344 831.65625 865.019531 830.839844 865.566406 C 830.023438 866.109375 829.164062 866.570312 828.257812 866.945312 C 827.351562 867.320312 826.417969 867.601562 825.457031 867.792969 C 824.496094 867.984375 823.523438 868.082031 822.542969 868.082031 Z M 822.542969 868.082031 "/></g><g clip-rule="nonzero" clip-path="url(#2772268f0b)"><path style=" stroke:none;fill-rule:nonzero;fill:#113c7b;fill-opacity:1;" d="M 822.542969 420.132812 L 75.960938 420.132812 C 74.984375 420.132812 74.011719 420.035156 73.050781 419.84375 C 72.089844 419.65625 71.15625 419.371094 70.25 418.996094 C 69.34375 418.621094 68.484375 418.160156 67.667969 417.617188 C 66.851562 417.070312 66.097656 416.453125 65.40625 415.757812 C 64.710938 415.066406 64.09375 414.3125 63.546875 413.496094 C 63.003906 412.679688 62.542969 411.820312 62.167969 410.914062 C 61.792969 410.007812 61.507812 409.074219 61.316406 408.113281 C 61.125 407.152344 61.03125 406.179688 61.03125 405.199219 C 61.03125 404.21875 61.125 403.25 61.316406 402.289062 C 61.507812 401.328125 61.792969 400.394531 62.167969 399.488281 C 62.542969 398.582031 63.003906 397.71875 63.546875 396.90625 C 64.09375 396.089844 64.710938 395.335938 65.40625 394.644531 C 66.097656 393.949219 66.851562 393.332031 67.667969 392.785156 C 68.484375 392.242188 69.34375 391.78125 70.25 391.40625 C 71.15625 391.03125 72.089844 390.746094 73.050781 390.554688 C 74.011719 390.363281 74.984375 390.269531 75.960938 390.269531 L 822.542969 390.269531 C 823.523438 390.269531 824.496094 390.363281 825.457031 390.554688 C 826.417969 390.746094 827.351562 391.03125 828.257812 391.40625 C 829.164062 391.78125 830.023438 392.242188 830.839844 392.785156 C 831.65625 393.332031 832.410156 393.949219 833.101562 394.644531 C 833.796875 395.335938 834.414062 396.089844 834.960938 396.90625 C 835.503906 397.71875 835.964844 398.582031 836.339844 399.488281 C 836.714844 400.394531 836.996094 401.328125 837.1875 402.289062 C 837.378906 403.25 837.476562 404.21875 837.476562 405.199219 C 837.476562 406.179688 837.378906 407.152344 837.1875 408.113281 C 836.996094 409.074219 836.714844 410.007812 836.339844 410.914062 C 835.964844 411.820312 835.503906 412.679688 834.960938 413.496094 C 834.414062 414.3125 833.796875 415.066406 833.101562 415.757812 C 832.410156 416.453125 831.65625 417.070312 830.839844 417.617188 C 830.023438 418.160156 829.164062 418.621094 828.257812 418.996094 C 827.351562 419.371094 826.417969 419.65625 825.457031 419.84375 C 824.496094 420.035156 823.523438 420.132812 822.542969 420.132812 Z M 822.542969 420.132812 "/></g><path style=" stroke:none;fill-rule:nonzero;fill:#113c7b;fill-opacity:1;" d="M 449.253906 771.175781 C 447.273438 771.175781 445.367188 770.800781 443.539062 770.042969 C 441.707031 769.28125 440.09375 768.203125 438.695312 766.800781 L 311.996094 640.097656 C 310.96875 639.058594 309.96875 637.996094 308.996094 636.910156 C 308.023438 635.820312 307.078125 634.710938 306.15625 633.574219 C 305.238281 632.441406 304.347656 631.285156 303.484375 630.105469 C 302.621094 628.929688 301.789062 627.730469 300.984375 626.511719 C 300.179688 625.292969 299.40625 624.054688 298.660156 622.796875 C 297.917969 621.542969 297.207031 620.269531 296.523438 618.976562 C 295.84375 617.683594 295.195312 616.378906 294.574219 615.054688 C 293.957031 613.730469 293.375 612.394531 292.820312 611.042969 C 292.269531 609.691406 291.75 608.328125 291.265625 606.949219 C 290.78125 605.574219 290.328125 604.183594 289.910156 602.785156 C 289.492188 601.386719 289.109375 599.976562 288.761719 598.558594 C 288.414062 597.140625 288.097656 595.714844 287.820312 594.28125 C 287.542969 592.851562 287.296875 591.410156 287.089844 589.964844 C 286.878906 588.519531 286.707031 587.070312 286.570312 585.617188 C 286.429688 584.164062 286.328125 582.707031 286.261719 581.25 C 286.195312 579.789062 286.164062 578.332031 286.171875 576.871094 C 286.175781 575.410156 286.214844 573.953125 286.292969 572.492188 C 286.367188 571.035156 286.480469 569.582031 286.625 568.128906 C 286.773438 566.675781 286.957031 565.226562 287.175781 563.78125 C 287.394531 562.339844 287.648438 560.902344 287.933594 559.46875 C 288.222656 558.039062 288.546875 556.617188 288.90625 555.199219 C 289.261719 553.785156 289.65625 552.378906 290.082031 550.980469 C 290.507812 549.585938 290.96875 548.199219 291.464844 546.828125 C 291.957031 545.453125 292.484375 544.09375 293.046875 542.746094 C 293.609375 541.394531 294.203125 540.0625 294.828125 538.742188 C 295.453125 537.425781 296.113281 536.121094 296.800781 534.835938 C 297.492188 533.546875 298.210938 532.277344 298.964844 531.027344 C 299.714844 529.777344 300.5 528.542969 301.3125 527.328125 C 302.121094 526.117188 302.964844 524.921875 303.835938 523.75 C 304.707031 522.578125 305.605469 521.429688 306.53125 520.300781 C 307.457031 519.171875 308.410156 518.066406 309.390625 516.984375 C 310.375 515.902344 311.378906 514.847656 312.414062 513.816406 C 313.445312 512.78125 314.5 511.777344 315.582031 510.796875 C 316.664062 509.8125 317.769531 508.859375 318.898438 507.933594 C 320.027344 507.007812 321.175781 506.109375 322.347656 505.238281 C 323.523438 504.367188 324.714844 503.527344 325.929688 502.714844 C 327.140625 501.902344 328.375 501.121094 329.625 500.367188 C 330.878906 499.617188 332.148438 498.894531 333.433594 498.207031 C 334.71875 497.515625 336.023438 496.859375 337.34375 496.230469 C 338.660156 495.605469 339.996094 495.011719 341.34375 494.453125 C 342.691406 493.890625 344.050781 493.363281 345.425781 492.867188 C 346.800781 492.375 348.183594 491.914062 349.582031 491.488281 C 350.976562 491.058594 352.382812 490.667969 353.800781 490.308594 C 355.214844 489.953125 356.636719 489.628906 358.070312 489.339844 C 359.5 489.050781 360.9375 488.800781 362.382812 488.582031 C 363.824219 488.363281 365.273438 488.179688 366.726562 488.035156 C 368.179688 487.886719 369.636719 487.773438 371.09375 487.699219 C 372.550781 487.621094 374.011719 487.582031 375.46875 487.578125 C 376.929688 487.574219 378.390625 487.605469 379.847656 487.671875 C 381.308594 487.738281 382.761719 487.839844 384.21875 487.976562 C 385.671875 488.113281 387.121094 488.289062 388.566406 488.496094 C 390.011719 488.707031 391.449219 488.949219 392.882812 489.226562 C 394.316406 489.507812 395.742188 489.820312 397.160156 490.171875 C 398.578125 490.519531 399.984375 490.902344 401.382812 491.320312 C 402.785156 491.738281 404.171875 492.1875 405.546875 492.675781 C 406.925781 493.160156 408.289062 493.679688 409.640625 494.230469 C 410.992188 494.78125 412.332031 495.367188 413.652344 495.984375 C 414.976562 496.601562 416.285156 497.253906 417.574219 497.933594 C 418.867188 498.617188 420.140625 499.328125 421.398438 500.070312 C 422.652344 500.816406 423.890625 501.589844 425.109375 502.394531 C 426.328125 503.199219 427.527344 504.03125 428.703125 504.894531 C 429.882812 505.757812 431.039062 506.648438 432.171875 507.570312 C 433.308594 508.488281 434.417969 509.433594 435.507812 510.40625 C 436.59375 511.382812 437.65625 512.382812 438.695312 513.40625 L 449.253906 523.964844 L 459.808594 513.40625 C 460.847656 512.371094 461.910156 511.363281 462.996094 510.378906 C 464.085938 509.398438 465.195312 508.441406 466.328125 507.511719 C 467.460938 506.582031 468.617188 505.683594 469.796875 504.8125 C 470.976562 503.9375 472.175781 503.097656 473.394531 502.28125 C 474.613281 501.46875 475.851562 500.6875 477.109375 499.933594 C 478.367188 499.179688 479.644531 498.460938 480.9375 497.769531 C 482.230469 497.078125 483.539062 496.421875 484.863281 495.796875 C 486.1875 495.171875 487.527344 494.578125 488.882812 494.015625 C 490.238281 493.457031 491.605469 492.929688 492.984375 492.4375 C 494.367188 491.945312 495.757812 491.484375 497.160156 491.058594 C 498.5625 490.636719 499.976562 490.246094 501.398438 489.890625 C 502.820312 489.535156 504.25 489.210938 505.6875 488.925781 C 507.125 488.640625 508.570312 488.390625 510.019531 488.175781 C 511.46875 487.960938 512.921875 487.78125 514.382812 487.640625 C 515.839844 487.496094 517.300781 487.386719 518.765625 487.316406 C 520.230469 487.246094 521.695312 487.207031 523.160156 487.207031 C 524.625 487.207031 526.089844 487.246094 527.554688 487.316406 C 529.019531 487.386719 530.480469 487.496094 531.9375 487.640625 C 533.398438 487.78125 534.851562 487.960938 536.300781 488.175781 C 537.753906 488.390625 539.195312 488.640625 540.632812 488.925781 C 542.070312 489.210938 543.5 489.535156 544.921875 489.890625 C 546.34375 490.246094 547.757812 490.636719 549.160156 491.058594 C 550.5625 491.484375 551.953125 491.945312 553.335938 492.4375 C 554.714844 492.929688 556.082031 493.457031 557.4375 494.015625 C 558.792969 494.578125 560.132812 495.171875 561.457031 495.796875 C 562.78125 496.421875 564.09375 497.078125 565.386719 497.769531 C 566.679688 498.460938 567.953125 499.179688 569.210938 499.933594 C 570.46875 500.6875 571.707031 501.46875 572.925781 502.28125 C 574.148438 503.097656 575.347656 503.9375 576.523438 504.8125 C 577.703125 505.683594 578.859375 506.582031 579.992188 507.511719 C 581.125 508.441406 582.238281 509.398438 583.324219 510.378906 C 584.410156 511.363281 585.472656 512.371094 586.511719 513.40625 C 587.546875 514.445312 588.554688 515.507812 589.539062 516.59375 C 590.519531 517.679688 591.476562 518.792969 592.40625 519.925781 C 593.332031 521.058594 594.234375 522.214844 595.105469 523.394531 C 595.976562 524.570312 596.820312 525.769531 597.632812 526.992188 C 598.445312 528.210938 599.230469 529.449219 599.980469 530.707031 C 600.734375 531.964844 601.457031 533.238281 602.144531 534.53125 C 602.835938 535.824219 603.492188 537.132812 604.117188 538.460938 C 604.746094 539.785156 605.335938 541.125 605.898438 542.480469 C 606.457031 543.832031 606.984375 545.203125 607.476562 546.582031 C 607.96875 547.960938 608.429688 549.351562 608.851562 550.753906 C 609.277344 552.160156 609.667969 553.570312 610.023438 554.992188 C 610.378906 556.414062 610.699219 557.84375 610.984375 559.28125 C 611.269531 560.71875 611.519531 562.164062 611.734375 563.613281 C 611.949219 565.0625 612.128906 566.515625 612.273438 567.976562 C 612.417969 569.433594 612.523438 570.894531 612.597656 572.359375 C 612.667969 573.824219 612.703125 575.289062 612.703125 576.753906 C 612.703125 578.21875 612.667969 579.683594 612.597656 581.148438 C 612.523438 582.609375 612.417969 584.074219 612.273438 585.53125 C 612.128906 586.988281 611.949219 588.445312 611.734375 589.894531 C 611.519531 591.34375 611.269531 592.789062 610.984375 594.226562 C 610.699219 595.664062 610.378906 597.09375 610.023438 598.515625 C 609.667969 599.9375 609.277344 601.347656 608.851562 602.75 C 608.429688 604.152344 607.96875 605.542969 607.476562 606.925781 C 606.984375 608.304688 606.457031 609.671875 605.898438 611.027344 C 605.335938 612.382812 604.746094 613.722656 604.117188 615.046875 C 603.492188 616.371094 602.835938 617.679688 602.144531 618.972656 C 601.457031 620.265625 600.734375 621.542969 599.980469 622.800781 C 599.230469 624.058594 598.445312 625.296875 597.632812 626.515625 C 596.820312 627.734375 595.976562 628.933594 595.105469 630.113281 C 594.234375 631.289062 593.332031 632.445312 592.40625 633.582031 C 591.476562 634.714844 590.519531 635.824219 589.539062 636.910156 C 588.554688 638 587.546875 639.0625 586.511719 640.097656 L 459.808594 766.804688 C 458.410156 768.207031 456.796875 769.285156 454.96875 770.042969 C 453.136719 770.800781 451.234375 771.179688 449.253906 771.175781 Z M 375.355469 517.0625 C 373.886719 517.0625 372.421875 517.117188 370.960938 517.222656 C 369.496094 517.328125 368.039062 517.488281 366.589844 517.703125 C 365.136719 517.917969 363.695312 518.183594 362.265625 518.503906 C 360.835938 518.824219 359.417969 519.195312 358.011719 519.621094 C 356.609375 520.046875 355.222656 520.523438 353.855469 521.050781 C 352.484375 521.574219 351.136719 522.152344 349.8125 522.777344 C 348.484375 523.40625 347.183594 524.078125 345.90625 524.800781 C 344.628906 525.523438 343.382812 526.292969 342.160156 527.105469 C 340.941406 527.917969 339.753906 528.777344 338.597656 529.679688 C 337.441406 530.582031 336.316406 531.523438 335.230469 532.507812 C 334.144531 533.492188 333.09375 534.515625 332.082031 535.578125 C 331.070312 536.640625 330.097656 537.738281 329.167969 538.871094 C 328.238281 540.003906 327.351562 541.171875 326.503906 542.371094 C 325.660156 543.566406 324.859375 544.796875 324.105469 546.054688 C 323.351562 547.3125 322.644531 548.597656 321.984375 549.90625 C 321.324219 551.214844 320.714844 552.546875 320.152344 553.902344 C 319.589844 555.257812 319.078125 556.632812 318.621094 558.023438 C 318.160156 559.417969 317.75 560.824219 317.394531 562.246094 C 317.039062 563.671875 316.734375 565.105469 316.484375 566.550781 C 316.234375 567.992188 316.035156 569.445312 315.890625 570.90625 C 315.746094 572.367188 315.65625 573.828125 315.621094 575.292969 C 315.585938 576.761719 315.605469 578.226562 315.675781 579.691406 C 315.75 581.15625 315.875 582.617188 316.054688 584.074219 C 316.234375 585.527344 316.464844 586.976562 316.753906 588.414062 C 317.039062 589.851562 317.378906 591.277344 317.769531 592.691406 C 318.160156 594.105469 318.605469 595.503906 319.097656 596.882812 C 319.59375 598.261719 320.136719 599.625 320.734375 600.964844 C 321.328125 602.304688 321.972656 603.621094 322.664062 604.914062 C 323.355469 606.210938 324.09375 607.476562 324.878906 608.714844 C 325.664062 609.953125 326.492188 611.160156 327.367188 612.339844 C 328.242188 613.515625 329.15625 614.660156 330.117188 615.769531 C 331.074219 616.878906 332.074219 617.953125 333.109375 618.992188 L 449.253906 735.132812 L 565.394531 618.992188 C 566.777344 617.605469 568.085938 616.15625 569.324219 614.644531 C 570.5625 613.128906 571.722656 611.558594 572.808594 609.933594 C 573.890625 608.304688 574.894531 606.628906 575.816406 604.90625 C 576.734375 603.179688 577.566406 601.414062 578.316406 599.605469 C 579.0625 597.800781 579.71875 595.960938 580.285156 594.089844 C 580.851562 592.21875 581.324219 590.324219 581.707031 588.40625 C 582.085938 586.488281 582.371094 584.554688 582.5625 582.609375 C 582.753906 580.664062 582.851562 578.714844 582.851562 576.757812 C 582.851562 574.800781 582.753906 572.851562 582.5625 570.90625 C 582.371094 568.960938 582.085938 567.027344 581.707031 565.109375 C 581.324219 563.191406 580.851562 561.296875 580.285156 559.425781 C 579.71875 557.554688 579.0625 555.714844 578.316406 553.910156 C 577.566406 552.101562 576.734375 550.335938 575.816406 548.609375 C 574.894531 546.886719 573.890625 545.210938 572.808594 543.582031 C 571.722656 541.957031 570.5625 540.386719 569.324219 538.871094 C 568.085938 537.359375 566.777344 535.910156 565.394531 534.523438 C 564.011719 533.144531 562.5625 531.835938 561.046875 530.597656 C 559.535156 529.359375 557.964844 528.199219 556.339844 527.113281 C 554.710938 526.027344 553.035156 525.027344 551.308594 524.105469 C 549.582031 523.1875 547.816406 522.355469 546.011719 521.605469 C 544.203125 520.859375 542.363281 520.203125 540.492188 519.636719 C 538.621094 519.070312 536.726562 518.597656 534.808594 518.214844 C 532.890625 517.835938 530.957031 517.550781 529.011719 517.359375 C 527.066406 517.167969 525.117188 517.070312 523.160156 517.070312 C 521.207031 517.070312 519.253906 517.167969 517.308594 517.359375 C 515.363281 517.550781 513.429688 517.835938 511.511719 518.214844 C 509.59375 518.597656 507.699219 519.070312 505.828125 519.636719 C 503.957031 520.203125 502.117188 520.859375 500.3125 521.605469 C 498.503906 522.355469 496.738281 523.1875 495.011719 524.105469 C 493.285156 525.027344 491.609375 526.027344 489.984375 527.113281 C 488.355469 528.199219 486.785156 529.359375 485.273438 530.597656 C 483.757812 531.835938 482.308594 533.144531 480.925781 534.523438 L 459.808594 555.640625 C 459.117188 556.332031 458.363281 556.953125 457.546875 557.496094 C 456.734375 558.039062 455.871094 558.5 454.964844 558.875 C 454.0625 559.25 453.128906 559.535156 452.164062 559.726562 C 451.203125 559.917969 450.234375 560.011719 449.253906 560.011719 C 448.273438 560.011719 447.300781 559.917969 446.339844 559.726562 C 445.378906 559.535156 444.445312 559.25 443.539062 558.875 C 442.632812 558.5 441.773438 558.039062 440.960938 557.496094 C 440.144531 556.953125 439.390625 556.332031 438.695312 555.640625 L 417.582031 534.523438 C 414.808594 531.753906 411.792969 529.277344 408.535156 527.101562 C 405.273438 524.921875 401.832031 523.085938 398.207031 521.585938 C 394.585938 520.089844 390.851562 518.957031 387.003906 518.199219 C 383.15625 517.4375 379.273438 517.058594 375.355469 517.0625 Z M 375.355469 517.0625 "/></g></svg>