<svg width="19" height="17" viewBox="0 0 19 17" fill="none" xmlns="http://www.w3.org/2000/svg">
<path d="M9.18504 16.8331C9.28004 16.8897 9.38775 16.9194 9.49745 16.9194C9.60705 16.9194 9.71484 16.8897 9.80984 16.8331C10.1535 16.6256 18.232 11.6925 18.232 5.84124C18.2322 4.36879 17.6667 2.95637 16.6594 1.91381C15.6521 0.871248 14.2853 0.283678 12.8589 0.279988C11.6358 0.276598 10.4488 0.707828 9.49734 1.50124C8.54594 0.707828 7.35895 0.276598 6.13585 0.279988C4.70945 0.283678 3.34265 0.871248 2.33535 1.91381C1.32806 2.95637 0.762475 4.36879 0.762695 5.84124C0.762695 11.6925 8.84124 16.6256 9.18504 16.8331ZM6.13585 1.55999C6.67915 1.55852 7.21734 1.66855 7.71904 1.88368C8.22074 2.0988 8.67615 2.41473 9.05855 2.81311C9.17695 2.92927 9.33405 2.99404 9.49745 2.99404C9.66075 2.99404 9.81784 2.92927 9.93624 2.81311C10.3187 2.41474 10.774 2.09881 11.2757 1.88368C11.7774 1.66856 12.3156 1.55853 12.8589 1.55999C13.9566 1.56321 15.0083 2.01577 15.7831 2.81838C16.558 3.62098 16.9929 4.7081 16.9923 5.84124C16.9923 10.3644 10.9526 14.5787 9.49734 15.5287C8.04084 14.58 2.00247 10.3706 2.00247 5.84124C2.00186 4.7081 2.43668 3.62098 3.21154 2.81837C3.98645 2.01576 5.03815 1.56321 6.13585 1.55999ZM10.9539 11.2481C13.2488 9.2187 14.5127 7.29811 14.5127 5.84124C14.514 5.38675 14.3406 4.95029 14.0306 4.6276C13.7205 4.30492 13.2992 4.12236 12.8589 4.11999C12.6944 4.11999 12.5367 4.05256 12.4205 3.93254C12.3042 3.81251 12.2389 3.64973 12.2389 3.47999C12.2389 3.31025 12.3042 3.14746 12.4205 3.02744C12.5367 2.90742 12.6944 2.83999 12.8589 2.83999C13.6279 2.84274 14.3644 3.16028 14.9069 3.72294C15.4494 4.28559 15.7535 5.04741 15.7525 5.84124C15.7525 8.1956 13.5817 10.6094 11.7602 12.2206C11.6476 12.319 11.5045 12.3724 11.3571 12.371C11.2318 12.3687 11.1101 12.3274 11.0079 12.2526C10.9057 12.1778 10.8277 12.0729 10.7842 11.9516C10.7406 11.8303 10.7335 11.6983 10.7638 11.5728C10.7941 11.4473 10.8603 11.3341 10.9539 11.2481Z" fill="white"/>
</svg>
