<svg xmlns="http://www.w3.org/2000/svg" xmlns:xlink="http://www.w3.org/1999/xlink" width="1200" zoomAndPan="magnify" viewBox="0 0 900 899.99999" height="1200" preserveAspectRatio="xMidYMid meet" version="1.2"><g id="1b53dbb9d3"><path style=" stroke:none;fill-rule:evenodd;fill:#113c7b;fill-opacity:1;" d="M 437.894531 669.601562 C 435.261719 669.601562 432.632812 668.546875 430.527344 666.441406 C 411.578125 647.496094 392.105469 636.441406 375.789062 626.96875 C 348.421875 611.179688 324.738281 597.496094 324.738281 560.652344 C 324.738281 527.496094 352.632812 500.125 386.84375 500.125 C 411.578125 500.125 426.316406 510.652344 437.894531 527.496094 C 449.472656 510.652344 464.210938 500.125 488.949219 500.125 C 523.15625 500.125 551.050781 527.496094 551.050781 560.652344 C 551.050781 597.496094 527.367188 611.179688 500 626.96875 C 483.15625 636.441406 464.210938 647.496094 445.261719 666.441406 C 443.15625 668.546875 440.527344 669.601562 437.894531 669.601562 Z M 386.316406 521.179688 C 364.210938 521.179688 345.789062 539.074219 345.789062 560.652344 C 345.789062 584.335938 358.421875 592.757812 386.316406 608.546875 C 401.050781 617.496094 419.472656 628.019531 437.894531 644.335938 C 456.316406 628.019531 474.738281 617.496094 489.472656 608.546875 C 517.367188 592.757812 530 584.335938 530 560.652344 C 530 539.074219 511.578125 521.179688 488.949219 521.179688 C 469.472656 521.179688 459.472656 529.074219 447.367188 553.285156 C 445.261719 556.441406 441.578125 559.074219 437.894531 559.074219 C 433.683594 559.074219 430 556.441406 428.421875 553.285156 C 416.316406 529.074219 405.789062 521.179688 386.316406 521.179688 Z M 386.316406 521.179688 "/><path style=" stroke:none;fill-rule:evenodd;fill:#113c7b;fill-opacity:1;" d="M 793.15625 726.96875 L 280.527344 726.96875 C 274.738281 726.96875 270 722.230469 270 716.441406 L 270 366.96875 C 270 362.757812 272.105469 358.546875 276.316406 356.96875 C 280 355.390625 284.738281 356.441406 287.894531 359.601562 L 362.105469 434.863281 L 793.15625 428.546875 C 796.316406 428.546875 798.421875 429.601562 800.527344 431.707031 C 802.632812 433.8125 803.683594 436.441406 803.683594 439.074219 L 803.683594 716.441406 C 803.683594 722.230469 798.949219 726.96875 793.15625 726.96875 Z M 291.050781 705.914062 L 782.632812 705.914062 L 782.632812 449.601562 L 357.894531 455.914062 C 354.738281 455.914062 352.105469 454.863281 350 452.757812 L 291.050781 392.757812 Z M 291.050781 705.914062 "/><path style=" stroke:none;fill-rule:evenodd;fill:#113c7b;fill-opacity:1;" d="M 640 726.96875 L 572.105469 726.96875 C 567.894531 726.96875 564.210938 724.335938 562.632812 720.652344 C 561.050781 716.441406 562.105469 712.230469 564.738281 709.074219 L 785.789062 488.019531 C 788.949219 484.863281 793.15625 483.8125 797.367188 485.914062 C 801.050781 487.496094 803.683594 491.179688 803.683594 495.390625 L 803.683594 563.8125 C 803.683594 566.441406 802.632812 569.074219 800.527344 571.179688 L 647.894531 723.8125 C 645.789062 725.914062 643.15625 726.96875 640 726.96875 Z M 597.894531 705.914062 L 635.789062 705.914062 L 782.632812 559.074219 L 782.632812 520.652344 Z M 597.894531 705.914062 "/><path style=" stroke:none;fill-rule:evenodd;fill:#113c7b;fill-opacity:1;" d="M 280.527344 726.96875 L 87.894531 726.96875 C 82.105469 726.96875 77.367188 722.230469 77.367188 716.441406 L 77.367188 407.496094 C 77.367188 401.707031 82.105469 396.96875 87.894531 396.96875 L 211.578125 396.96875 C 215.261719 394.863281 220.527344 391.707031 226.316406 388.019531 C 231.578125 384.863281 239.472656 380.125 247.367188 375.390625 L 128.949219 374.335938 C 123.15625 374.335938 118.421875 369.601562 118.421875 363.8125 C 118.421875 358.019531 123.15625 353.285156 128.949219 353.285156 L 280.527344 353.285156 C 286.316406 353.285156 291.050781 358.019531 291.050781 363.8125 L 291.050781 716.441406 C 291.050781 722.230469 286.316406 726.96875 280.527344 726.96875 Z M 98.421875 705.914062 L 270 705.914062 L 270 385.914062 C 261.050781 391.707031 250 398.546875 236.84375 406.441406 C 230 410.125 224.210938 413.8125 220 416.441406 C 218.421875 417.496094 216.316406 418.019531 214.738281 418.019531 L 98.421875 418.019531 Z M 98.421875 705.914062 "/><path style=" stroke:none;fill-rule:evenodd;fill:#113c7b;fill-opacity:1;" d="M 357.894531 455.914062 C 354.738281 455.914062 352.105469 454.863281 350 452.757812 L 270 371.179688 C 266.84375 368.019531 266.316406 363.8125 267.894531 359.601562 C 269.472656 355.914062 273.15625 353.285156 277.367188 353.285156 L 819.472656 353.285156 C 822.632812 353.285156 825.261719 354.335938 827.367188 356.96875 L 896.316406 430.652344 C 899.472656 433.8125 900 438.019531 898.421875 441.707031 C 896.84375 445.914062 893.15625 448.019531 888.949219 448.019531 Z M 302.632812 374.335938 L 362.105469 434.863281 L 864.738281 427.496094 L 814.738281 374.335938 Z M 302.632812 374.335938 "/><path style=" stroke:none;fill-rule:evenodd;fill:#113c7b;fill-opacity:1;" d="M 214.738281 418.019531 L 11.578125 418.019531 C 6.84375 418.019531 2.632812 414.863281 1.578125 410.652344 C 0 405.914062 2.105469 401.179688 5.789062 398.546875 L 73.683594 354.863281 C 75.261719 353.8125 77.367188 352.757812 79.472656 352.757812 L 280.527344 354.335938 C 284.738281 354.335938 288.421875 356.96875 290 360.652344 C 291.578125 364.335938 291.050781 369.074219 288.421875 372.230469 C 282.105469 379.074219 263.15625 390.652344 236.84375 406.441406 C 230 410.652344 224.210938 413.8125 220 416.441406 C 218.421875 417.496094 216.316406 418.019531 214.738281 418.019531 Z M 46.84375 396.96875 L 211.578125 396.96875 C 215.261719 394.863281 220.527344 391.707031 226.316406 388.019531 C 231.578125 384.863281 239.472656 380.125 247.367188 375.390625 L 82.105469 374.335938 Z M 46.84375 396.96875 "/><path style=" stroke:none;fill-rule:evenodd;fill:#113c7b;fill-opacity:1;" d="M 770 374.335938 L 605.789062 374.335938 C 603.15625 374.335938 600.527344 373.285156 598.421875 371.179688 L 505.789062 278.546875 C 493.15625 265.914062 485.789062 248.546875 485.789062 230.125 C 485.789062 211.707031 493.15625 194.335938 505.789062 181.707031 C 518.949219 168.546875 536.316406 161.179688 554.738281 161.179688 C 573.15625 161.179688 590 168.546875 603.15625 181.707031 L 773.15625 351.179688 C 774.738281 353.285156 776.84375 355.390625 778.421875 357.496094 C 781.050781 360.652344 781.578125 364.863281 779.472656 368.546875 C 777.894531 372.230469 774.210938 374.335938 770 374.335938 Z M 610.527344 353.285156 L 745.261719 353.285156 L 588.421875 196.441406 C 579.472656 187.496094 567.367188 182.230469 554.738281 182.230469 C 541.578125 182.230469 530 187.496094 521.050781 196.441406 C 512.105469 205.390625 506.84375 217.496094 506.84375 230.125 C 506.84375 242.757812 512.105469 254.863281 521.050781 263.8125 Z M 610.527344 353.285156 "/><path style=" stroke:none;fill-rule:evenodd;fill:#113c7b;fill-opacity:1;" d="M 644.738281 342.230469 C 641.050781 342.230469 637.367188 340.125 635.261719 336.96875 C 633.683594 333.8125 633.683594 329.601562 635.789062 325.914062 C 646.84375 308.019531 654.738281 286.441406 659.472656 261.179688 C 660 256.96875 662.632812 253.8125 666.316406 252.757812 C 670 251.707031 674.210938 252.757812 676.84375 255.390625 L 709.472656 287.496094 C 712.632812 291.179688 713.683594 295.914062 711.050781 300.125 C 688.949219 339.601562 646.84375 342.230469 645.261719 342.230469 C 644.738281 342.230469 644.738281 342.230469 644.738281 342.230469 Z M 675.789062 283.8125 C 673.15625 295.390625 669.472656 305.914062 665.261719 315.390625 C 672.632812 311.707031 681.578125 305.914062 688.421875 296.441406 Z M 675.789062 283.8125 "/><path style=" stroke:none;fill-rule:evenodd;fill:#113c7b;fill-opacity:1;" d="M 582.105469 279.601562 C 578.421875 279.601562 574.738281 277.496094 572.632812 274.335938 C 571.050781 271.179688 571.050781 266.96875 573.15625 263.8125 C 584.210938 245.390625 592.105469 223.8125 596.84375 198.546875 C 597.367188 194.335938 600 191.179688 603.683594 190.125 C 607.894531 189.074219 611.578125 190.125 614.738281 192.757812 L 646.84375 224.863281 C 650 228.546875 651.050781 233.285156 648.421875 237.496094 C 626.84375 276.96875 584.210938 279.601562 582.632812 279.601562 C 582.105469 279.601562 582.105469 279.601562 582.105469 279.601562 Z M 613.15625 221.179688 C 610.527344 232.757812 606.84375 243.285156 602.632812 252.757812 C 610.527344 249.601562 618.949219 243.285156 625.789062 233.8125 Z M 613.15625 221.179688 "/><path style=" stroke:none;fill-rule:evenodd;fill:#113c7b;fill-opacity:1;" d="M 290.527344 218.546875 C 289.472656 218.546875 288.949219 218.546875 287.894531 218.019531 L 186.316406 191.179688 C 183.15625 190.652344 181.050781 189.074219 179.472656 186.441406 C 178.421875 184.335938 177.894531 181.179688 178.421875 178.546875 L 187.367188 144.335938 C 188.949219 139.074219 194.738281 135.390625 200.527344 136.96875 L 302.105469 163.8125 C 304.738281 164.335938 307.367188 166.441406 308.421875 168.546875 C 310 171.179688 310.527344 173.8125 309.472656 176.441406 L 300.527344 210.652344 C 299.472656 215.390625 295.261719 218.546875 290.527344 218.546875 Z M 201.578125 173.8125 L 283.15625 194.863281 L 286.84375 181.707031 L 205.261719 160.125 Z M 201.578125 173.8125 "/><path style=" stroke:none;fill-rule:evenodd;fill:#113c7b;fill-opacity:1;" d="M 272.632812 375.390625 C 272.632812 375.390625 272.105469 375.390625 272.105469 375.390625 L 99.472656 374.335938 C 96.316406 374.335938 93.15625 372.757812 91.050781 370.125 C 89.472656 366.96875 88.949219 363.8125 89.472656 360.652344 L 115.261719 277.496094 C 125.789062 243.8125 155.789062 218.546875 190.527344 213.285156 L 200 183.8125 C 201.578125 178.019531 206.84375 174.863281 212.632812 176.441406 L 270.527344 191.707031 C 273.683594 192.757812 275.789062 194.335938 277.367188 196.96875 C 278.421875 199.601562 278.949219 202.230469 277.894531 204.863281 L 267.894531 237.496094 C 293.683594 261.707031 304.210938 299.074219 293.15625 332.757812 L 282.632812 368.019531 C 281.050781 372.757812 276.84375 375.390625 272.632812 375.390625 Z M 114.210938 353.285156 L 264.738281 354.335938 L 273.15625 326.441406 C 282.105469 298.546875 272.632812 267.496094 249.472656 249.074219 C 245.789062 246.441406 244.738281 241.707031 245.789062 237.496094 L 254.738281 209.601562 L 216.84375 199.601562 L 208.421875 225.914062 C 207.367188 230.125 203.683594 233.285156 199.472656 233.285156 C 170 235.390625 144.210938 255.914062 135.789062 283.8125 Z M 114.210938 353.285156 "/><path style=" stroke:none;fill-rule:evenodd;fill:#113c7b;fill-opacity:1;" d="M 396.316406 374.335938 L 324.738281 374.335938 C 321.578125 374.335938 318.949219 373.285156 316.84375 371.179688 C 306.84375 360.125 301.578125 346.441406 301.578125 331.707031 C 301.578125 299.074219 327.894531 272.757812 360.527344 272.757812 C 379.472656 272.757812 397.367188 282.230469 408.421875 298.019531 C 411.050781 301.707031 411.050781 306.441406 408.421875 310.125 C 404.210938 316.441406 401.578125 323.8125 401.578125 331.707031 C 401.578125 339.601562 404.210938 346.96875 408.421875 353.285156 C 411.050781 356.96875 411.050781 361.707031 408.421875 365.390625 C 407.367188 367.496094 405.789062 369.074219 404.210938 371.179688 C 402.105469 373.285156 399.472656 374.335938 396.316406 374.335938 Z M 329.472656 353.285156 L 384.738281 353.285156 C 382.105469 346.441406 380.527344 339.074219 380.527344 331.707031 C 380.527344 322.230469 382.632812 313.285156 386.84375 304.863281 C 380 298.019531 370.527344 293.8125 360.527344 293.8125 C 339.472656 293.8125 322.632812 310.652344 322.632812 331.707031 C 322.632812 339.601562 325.261719 346.96875 329.472656 353.285156 Z M 329.472656 353.285156 "/><path style=" stroke:none;fill-rule:evenodd;fill:#113c7b;fill-opacity:1;" d="M 475.261719 374.335938 L 403.683594 374.335938 C 400.527344 374.335938 397.894531 373.285156 395.789062 371.179688 C 385.789062 360.125 380.527344 346.441406 380.527344 331.707031 C 380.527344 299.074219 406.84375 272.757812 439.472656 272.757812 C 471.578125 272.757812 498.421875 299.074219 498.421875 331.707031 C 498.421875 346.441406 492.632812 360.125 483.15625 371.179688 C 481.050781 373.285156 478.421875 374.335938 475.261719 374.335938 Z M 408.421875 353.285156 L 470 353.285156 C 474.738281 346.96875 477.367188 339.601562 477.367188 331.707031 C 477.367188 310.652344 460 293.8125 439.472656 293.8125 C 418.421875 293.8125 401.578125 310.652344 401.578125 331.707031 C 401.578125 339.601562 404.210938 346.96875 408.421875 353.285156 Z M 408.421875 353.285156 "/><path style=" stroke:none;fill-rule:evenodd;fill:#113c7b;fill-opacity:1;" d="M 400 314.335938 C 396.316406 314.335938 393.15625 312.757812 391.050781 310.125 C 384.210938 300.125 372.632812 293.8125 360.527344 293.8125 C 356.84375 293.8125 353.683594 292.230469 352.105469 289.601562 C 344.738281 279.601562 341.050781 268.019531 341.050781 255.390625 C 341.050781 223.285156 367.367188 196.96875 400 196.96875 C 432.105469 196.96875 458.949219 223.285156 458.949219 255.390625 C 458.949219 268.019531 454.738281 279.601562 447.894531 289.601562 C 445.789062 292.230469 442.632812 293.8125 439.472656 293.8125 C 427.367188 293.8125 415.789062 300.125 408.421875 310.125 C 406.84375 312.757812 403.15625 314.335938 400 314.335938 Z M 366.316406 273.285156 C 378.949219 274.335938 390.527344 279.601562 400 288.019531 C 408.949219 279.601562 421.050781 274.335938 433.15625 273.285156 C 436.316406 268.019531 437.894531 261.707031 437.894531 255.390625 C 437.894531 234.863281 420.527344 218.019531 400 218.019531 C 378.949219 218.019531 362.105469 234.863281 362.105469 255.390625 C 362.105469 261.707031 363.683594 268.019531 366.316406 273.285156 Z M 366.316406 273.285156 "/><path style=" stroke:none;fill-rule:evenodd;fill:#113c7b;fill-opacity:1;" d="M 400 218.019531 C 397.894531 218.019531 395.789062 217.496094 394.210938 215.914062 C 389.472656 212.757812 387.894531 206.441406 391.050781 201.707031 C 392.105469 199.601562 397.894531 189.601562 387.894531 180.125 C 383.683594 175.914062 383.683594 169.074219 387.894531 164.863281 C 391.578125 160.652344 398.421875 160.652344 402.632812 164.863281 C 421.050781 182.230469 414.738281 204.335938 408.949219 213.285156 C 406.84375 216.441406 403.15625 218.019531 400 218.019531 Z M 400 218.019531 "/></g></svg>