<svg viewBox="0 0 1434 280" fill="none" xmlns="http://www.w3.org/2000/svg">
<mask id="mask0_44020_16501" style="mask-type:alpha" maskUnits="userSpaceOnUse" x="0" y="0" width="1440" height="281">
<rect x="1440" y="280" width="1440" height="280" transform="rotate(180 1440 280)" fill="#E6F3FA"/>
</mask>
<g mask="url(#mask0_44020_16501)">
<g opacity="0.15" filter="url(#filter0_f_44020_16501)">
<path d="M1063.66 386.182C987.841 401.351 931.722 465.242 913.14 495.292C804.233 640.652 802.556 260.684 927.023 24.1876C1051.49 -212.309 1205.39 -11.7578 1379.85 145.182C1554.31 302.121 1158.43 367.221 1063.66 386.182Z" fill="#0782D0"/>
</g>
<g opacity="0.14" filter="url(#filter1_f_44020_16501)">
<path fill-rule="evenodd" clip-rule="evenodd" d="M395.227 -66.4022C430.347 -42.9874 439.668 3.59941 466.336 36.9344C503.347 83.1963 578.613 104.449 581.267 166.144C583.858 226.391 521.047 269.386 478.189 312.51C437.31 353.643 395.207 398.797 340.325 408.583C286.348 418.207 230.161 399.496 189.707 363.947C153.715 332.319 155.55 275.458 137.009 229.92C120.427 189.194 82.18 156.634 86.9237 111.509C91.7258 65.8293 131.594 33.648 161.343 -1.56195C192.55 -38.4982 219.011 -85.5469 263.939 -98.0023C309.588 -110.658 356.893 -91.9587 395.227 -66.4022Z" fill="#0782D0"/>
</g>
</g>
<defs>
<filter id="filter0_f_44020_16501" x="711.506" y="-205.434" width="833.207" height="853.95" filterUnits="userSpaceOnUse" color-interpolation-filters="sRGB">
<feFlood flood-opacity="0" result="BackgroundImageFix"/>
<feBlend mode="normal" in="SourceGraphic" in2="BackgroundImageFix" result="shape"/>
<feGaussianBlur stdDeviation="60.5" result="effect1_foregroundBlur_44020_16501"/>
</filter>
<filter id="filter1_f_44020_16501" x="-34.4805" y="-223.063" width="736.825" height="755.157" filterUnits="userSpaceOnUse" color-interpolation-filters="sRGB">
<feFlood flood-opacity="0" result="BackgroundImageFix"/>
<feBlend mode="normal" in="SourceGraphic" in2="BackgroundImageFix" result="shape"/>
<feGaussianBlur stdDeviation="60.5" result="effect1_foregroundBlur_44020_16501"/>
</filter>
</defs>
</svg>
