<svg width="55" height="54" viewBox="0 0 55 54" fill="none" xmlns="http://www.w3.org/2000/svg">
<g id="Handshake">
<path id="Vector" d="M54.1416 22.7624L48.7585 11.9919C48.5602 11.5955 48.2857 11.242 47.9508 10.9517C47.6159 10.6613 47.227 10.4398 46.8065 10.2997C46.3859 10.1597 45.9419 10.1038 45.4998 10.1354C45.0576 10.167 44.6261 10.2853 44.2297 10.4837L38.9837 13.1056L27.9326 10.1821C27.6491 10.1083 27.3514 10.1083 27.0678 10.1821L16.0168 13.1056L10.7708 10.4837C10.3744 10.2853 9.94278 10.167 9.50065 10.1354C9.05852 10.1038 8.6145 10.1597 8.19395 10.2997C7.7734 10.4398 7.38456 10.6613 7.04963 10.9517C6.7147 11.242 6.44024 11.5955 6.24193 11.9919L0.858807 22.7603C0.660433 23.1566 0.542085 23.5882 0.510521 24.0304C0.478957 24.4725 0.534796 24.9165 0.674849 25.3371C0.814902 25.7576 1.03643 26.1465 1.32677 26.4814C1.61711 26.8163 1.97059 27.0908 2.36701 27.2891L8.06232 30.1389L19.7672 38.4983C19.9397 38.621 20.1336 38.7104 20.3389 38.762L33.8389 42.137C34.1216 42.2079 34.4179 42.2043 34.6988 42.1267C34.9798 42.0491 35.2358 41.9 35.442 41.694L47.0583 30.0756L52.6313 27.2891C53.4314 26.8886 54.0397 26.1868 54.3225 25.3379C54.6053 24.4891 54.5395 23.5627 54.1395 22.7624H54.1416ZM42.5633 29.8013L35.3049 23.9879C34.9797 23.7275 34.5697 23.5966 34.1538 23.6203C33.7379 23.6441 33.3455 23.8208 33.0521 24.1166C29.2953 27.9008 25.1082 27.422 22.4377 25.7345L31.5587 16.8751H38.2686L44.0082 28.3522L42.5633 29.8013ZM9.26045 13.5001L13.5783 15.6559L8.18467 26.4242L3.87521 24.2706L9.26045 13.5001ZM33.7292 38.6291L21.4716 35.5663L11.0935 28.1539L16.9997 16.3414L27.5002 13.5592L29.5674 14.1055L20.0752 23.3192L20.0583 23.3382C19.701 23.6955 19.4285 24.1285 19.2609 24.6052C19.0933 25.082 19.0348 25.5902 19.0899 26.0925C19.145 26.5948 19.3121 27.0784 19.5791 27.5074C19.846 27.9365 20.2058 28.3002 20.6321 28.5716C24.969 31.3412 30.2023 30.8919 34.324 27.5169L40.1565 32.2018L33.7292 38.6291ZM46.8073 26.4221L41.4242 15.6643L45.74 13.5001L51.1252 24.2706L46.8073 26.4221ZM28.2976 45.9697C28.2064 46.3344 27.996 46.6583 27.6999 46.8898C27.4037 47.1214 27.0387 47.2475 26.6628 47.248C26.5241 47.2478 26.386 47.2308 26.2515 47.1974L17.4617 44.9994C17.2561 44.9487 17.0621 44.8592 16.8901 44.7357L11.3319 40.7659C10.9901 40.4975 10.765 40.1077 10.7035 39.6776C10.6419 39.2475 10.7487 38.8102 11.0015 38.4568C11.2543 38.1034 11.6337 37.8611 12.0607 37.7805C12.4876 37.6998 12.9292 37.7869 13.2936 38.0237L18.5902 41.8079L27.0783 43.9257C27.5124 44.0343 27.8856 44.3109 28.1158 44.6946C28.3461 45.0783 28.4145 45.5377 28.306 45.9718L28.2976 45.9697Z" fill="#113C7B"/>
</g>
</svg>
