<svg width="12" height="14" viewBox="0 0 12 14" fill="none" xmlns="http://www.w3.org/2000/svg">
<path d="M2.96485 4.35168L2.45732 1.60847L2.90568 1.24054C3.88215 0.439222 5.37827 0.875385 5.74675 2.06879M8.16877 8.65713C8.85497 8.11107 9.8648 8.19655 10.4405 8.85345C11.0365 9.53342 10.9435 10.5598 10.2346 11.1267L9.01054 12.1056C6.97532 13.7331 3.98038 13.4581 2.29049 11.4885C0.585318 9.50111 0.850382 6.53812 2.88253 4.87049L7.19272 1.33345C7.86583 0.781077 8.86936 0.866941 9.43416 1.52523C9.99897 2.18352 9.91117 3.16495 9.23806 3.71732L6.6651 5.82875L7.07136 5.49536C7.74447 4.943 8.74799 5.02886 9.3128 5.68715C9.8776 6.34543 9.78981 7.32687 9.1167 7.87923L8.71044 8.21262" stroke="#113C7B" stroke-width="1.5" stroke-linecap="square"/>
</svg>
