<svg width="55" height="54" viewBox="0 0 55 54" fill="none" xmlns="http://www.w3.org/2000/svg">
<g id="HandHeart">
<path id="Vector" d="M49.0852 29.7548C48.5334 29.3295 47.9008 29.021 47.2259 28.848C46.5511 28.675 45.848 28.6412 45.1597 28.7486C49.1211 24.7492 51.125 20.7731 51.125 16.875C51.125 11.2914 46.6341 6.74995 41.1139 6.74995C39.6492 6.74076 38.2002 7.05228 36.8686 7.66265C35.5371 8.27303 34.3553 9.16746 33.4062 10.2832C32.4572 9.16746 31.2754 8.27303 29.9439 7.66265C28.6123 7.05228 27.1633 6.74076 25.6986 6.74995C20.1784 6.74995 15.6875 11.2914 15.6875 16.875C15.6875 19.1953 16.3709 21.4502 17.8095 23.8359C16.6313 24.1344 15.5561 24.7467 14.6982 25.6078L9.9268 30.375H3.875C2.97989 30.375 2.12145 30.7305 1.48851 31.3635C0.855579 31.9964 0.5 32.8548 0.5 33.75L0.5 42.1875C0.5 43.0826 0.855579 43.941 1.48851 44.5739C2.12145 45.2069 2.97989 45.5625 3.875 45.5625H25.8125C25.9505 45.5625 26.0879 45.5455 26.2217 45.5118L39.7217 42.1368C39.8078 42.1163 39.8918 42.0881 39.9727 42.0525L48.1719 38.5635L48.2647 38.5214C49.0527 38.1276 49.7275 37.5397 50.2255 36.8131C50.7235 36.0865 51.0283 35.245 51.1112 34.3681C51.1942 33.4911 51.0525 32.6074 50.6995 31.8003C50.3465 30.9932 49.7939 30.2893 49.0937 29.7548H49.0852ZM25.6986 10.125C27.0056 10.1058 28.2886 10.477 29.3835 11.1909C30.4785 11.9048 31.3356 12.9291 31.8453 14.1328C31.9725 14.4423 32.1887 14.707 32.4667 14.8933C32.7446 15.0796 33.0716 15.1791 33.4062 15.1791C33.7409 15.1791 34.0679 15.0796 34.3458 14.8933C34.6238 14.707 34.84 14.4423 34.9672 14.1328C35.4769 12.9291 36.334 11.9048 37.429 11.1909C38.5239 10.477 39.8069 10.1058 41.1139 10.125C44.7104 10.125 47.75 13.2152 47.75 16.875C47.75 20.9903 44.4193 25.6457 38.1186 30.3539L35.7793 30.8918C35.9846 30.0244 35.991 29.1217 35.7978 28.2516C35.6047 27.3814 35.2171 26.5662 34.6642 25.8671C34.1112 25.168 33.4071 24.6031 32.6048 24.2148C31.8024 23.8265 30.9226 23.6249 30.0312 23.625H21.7372C19.9168 21.1696 19.0625 19.0096 19.0625 16.875C19.0625 13.2152 22.1021 10.125 25.6986 10.125ZM3.875 33.75H8.9375V42.1875H3.875V33.75ZM46.786 35.4818L38.7704 38.8947L25.6016 42.1875H12.3125V32.7607L17.086 27.9893C17.3983 27.6745 17.77 27.4249 18.1796 27.2551C18.5891 27.0853 19.0283 26.9985 19.4717 27H30.0312C30.7026 27 31.3464 27.2666 31.8211 27.7413C32.2958 28.216 32.5625 28.8599 32.5625 29.5312C32.5625 30.2025 32.2958 30.8464 31.8211 31.3211C31.3464 31.7958 30.7026 32.0625 30.0312 32.0625H24.125C23.6774 32.0625 23.2482 32.2402 22.9318 32.5567C22.6153 32.8732 22.4375 33.3024 22.4375 33.75C22.4375 34.1975 22.6153 34.6267 22.9318 34.9432C23.2482 35.2597 23.6774 35.4375 24.125 35.4375H30.875C31.002 35.4371 31.1286 35.4229 31.2526 35.3953L45.3854 32.1447L45.4508 32.1278C45.8822 32.0081 46.3427 32.0521 46.7436 32.2514C47.1446 32.4507 47.4576 32.7913 47.6225 33.2076C47.7875 33.6238 47.7926 34.0864 47.637 34.5062C47.4814 34.9261 47.1761 35.2735 46.7797 35.4818H46.786Z" fill="#113C7B"/>
</g>
</svg>
