<svg width="54" height="55" viewBox="0 0 54 55" fill="none" xmlns="http://www.w3.org/2000/svg">
<g id="HandsClapping">
<path id="Vector" d="M33.7965 5.0625V1.6875C33.7965 1.23995 33.9743 0.810725 34.2908 0.494257C34.6072 0.17779 35.0364 0 35.484 0C35.9315 0 36.3608 0.17779 36.6772 0.494257C36.9937 0.810725 37.1715 1.23995 37.1715 1.6875V5.0625C37.1715 5.51005 36.9937 5.93928 36.6772 6.25574C36.3608 6.57221 35.9315 6.75 35.484 6.75C35.0364 6.75 34.6072 6.57221 34.2908 6.25574C33.9743 5.93928 33.7965 5.51005 33.7965 5.0625ZM41.3649 8.64844C41.6295 8.81093 41.9341 8.8964 42.2445 8.89523C42.5341 8.8957 42.819 8.82162 43.0717 8.68013C43.3244 8.53864 43.5364 8.33449 43.6874 8.08734L45.3749 5.32195C45.4902 5.13248 45.5672 4.92214 45.6012 4.70294C45.6353 4.48374 45.6259 4.25997 45.5735 4.04441C45.5211 3.82885 45.4268 3.62572 45.2959 3.44662C45.165 3.26752 45.0001 3.11596 44.8106 3.00059C44.6211 2.88521 44.4108 2.80829 44.1916 2.77421C43.9724 2.74012 43.7486 2.74955 43.5331 2.80194C43.3175 2.85434 43.1144 2.94868 42.9353 3.07958C42.7562 3.21048 42.6046 3.37537 42.4892 3.56484L40.8017 6.32812C40.6862 6.51743 40.6092 6.72764 40.575 6.94673C40.5408 7.16583 40.5501 7.38952 40.6024 7.60501C40.6547 7.8205 40.749 8.02357 40.8798 8.20261C41.0107 8.38165 41.1755 8.53314 41.3649 8.64844ZM51.3866 11.3041C51.3186 11.0929 51.2097 10.8972 51.066 10.7282C50.9223 10.5591 50.7467 10.4201 50.5492 10.319C50.3517 10.2179 50.1362 10.1567 49.915 10.139C49.6939 10.1213 49.4714 10.1474 49.2603 10.2157L46.0836 11.2387C45.6998 11.3614 45.3726 11.6174 45.1611 11.9604C44.9496 12.3033 44.8679 12.7106 44.9305 13.1086C44.9932 13.5066 45.1962 13.8691 45.5029 14.1304C45.8096 14.3918 46.1996 14.5348 46.6025 14.5336C46.7787 14.5329 46.9537 14.5052 47.1214 14.4513L50.296 13.4283C50.5081 13.3606 50.7047 13.2516 50.8745 13.1075C51.0443 12.9635 51.1839 12.7873 51.2853 12.589C51.3866 12.3908 51.4478 12.1745 51.4652 11.9525C51.4826 11.7305 51.4558 11.5073 51.3866 11.2957V11.3041ZM45.7735 20.5833C47.5607 23.6906 48.3149 27.2851 47.9275 30.8487C47.54 34.4123 46.0309 37.7608 43.6177 40.4114C43.546 40.7763 43.4659 41.1413 43.3667 41.5041C42.4967 44.7307 40.6902 47.6272 38.1753 49.8279C35.6604 52.0287 32.5498 53.4349 29.2363 53.8691C25.9227 54.3033 22.5548 53.7461 19.5578 52.2677C16.5607 50.7893 14.0689 48.456 12.3969 45.5625L4.95712 32.6953C4.50524 31.9124 4.25387 31.03 4.22538 30.1265C4.19689 29.223 4.39217 28.3265 4.79383 27.5167C5.19549 26.7069 5.79109 26.0089 6.52763 25.4849C7.26418 24.9609 8.11883 24.627 9.01556 24.513L8.38274 23.4162C7.93145 22.6339 7.6803 21.7524 7.65161 20.8498C7.62291 19.9471 7.81755 19.0514 8.21824 18.2421C8.61894 17.4328 9.21328 16.7349 9.9485 16.2105C10.6837 15.6861 11.5371 15.3514 12.4327 15.236L12.2851 14.9766C11.6595 13.8992 11.4194 12.641 11.6042 11.409C11.789 10.177 12.3877 9.04462 13.3019 8.19825C14.216 7.35188 15.3911 6.84195 16.6336 6.7524C17.8762 6.66285 19.1122 6.99901 20.1383 7.70555C20.6335 6.88996 21.3324 6.21731 22.1664 5.75375C23.0003 5.29019 23.9406 5.05169 24.8947 5.06169C25.8488 5.07169 26.7838 5.32986 27.6079 5.8108C28.432 6.29175 29.1166 6.9789 29.5946 7.80469L32.1807 12.2766C32.7307 11.5592 33.4491 10.9885 34.2723 10.615C35.0954 10.2414 35.9979 10.0765 36.9 10.1349C37.8021 10.1933 38.6758 10.4732 39.4439 10.9498C40.212 11.4263 40.8508 12.0849 41.3038 12.8672L45.7735 20.5833ZM23.007 11.6016L28.2805 20.7077C28.7203 20.1321 29.2698 19.6494 29.8972 19.2873C30.5247 18.9253 31.2176 18.6911 31.936 18.5984L26.6668 9.49219C26.3871 9.00687 25.926 8.65255 25.3851 8.50718C24.8441 8.3618 24.2676 8.43727 23.7822 8.71699C23.2969 8.99671 22.9426 9.45777 22.7972 9.99873C22.6518 10.5397 22.7273 11.1162 23.007 11.6016ZM15.2129 13.2891L16.5756 15.6452C17.0155 15.0703 17.5648 14.588 18.1918 14.226C18.8188 13.864 19.5111 13.6294 20.229 13.5359L18.8684 11.1797C18.7299 10.9397 18.5455 10.7293 18.3257 10.5605C18.1059 10.3918 17.855 10.268 17.5873 10.1962C17.3197 10.1244 17.0405 10.106 16.7657 10.1421C16.491 10.1782 16.226 10.2681 15.986 10.4066C15.746 10.5451 15.5356 10.7295 15.3668 10.9493C15.1981 11.1692 15.0743 11.4201 15.0025 11.6877C14.9307 11.9554 14.9123 12.2346 14.9484 12.5093C14.9845 12.7841 15.0744 13.049 15.2129 13.2891ZM38.7409 30.375L34.4757 22.9922C34.217 22.496 33.7717 22.1228 33.2379 21.9549C32.704 21.787 32.1253 21.838 31.6291 22.0968C31.1329 22.3555 30.7598 22.8008 30.5918 23.3346C30.4239 23.8685 30.4749 24.4471 30.7337 24.9434L33.3915 29.5312C33.6153 29.9192 33.6758 30.3802 33.5597 30.8128C33.4436 31.2453 33.1604 31.6141 32.7724 31.8379C32.3844 32.0616 31.9234 32.1221 31.4909 32.006C31.0583 31.8899 30.6896 31.6067 30.4658 31.2188L22.7666 17.9297C22.4869 17.4444 22.0258 17.0901 21.4848 16.9447C20.9439 16.7993 20.3673 16.8748 19.882 17.1545C19.3967 17.4342 19.0424 17.8953 18.897 18.4362C18.7516 18.9772 18.8271 19.5537 19.1068 20.0391L24.6017 29.5312C24.8255 29.9192 24.886 30.3802 24.7699 30.8128C24.6538 31.2453 24.3706 31.6141 23.9826 31.8379C23.5947 32.0616 23.1337 32.1221 22.7011 32.006C22.2685 31.8899 21.8998 31.6067 21.676 31.2188L14.9766 19.6172C14.6969 19.1324 14.2361 18.7786 13.6955 18.6337C13.155 18.4887 12.5789 18.5644 12.0942 18.8441C11.6094 19.1238 11.2556 19.5847 11.1107 20.1252C10.9657 20.6658 11.0414 21.2418 11.3211 21.7266L18.7503 34.5938C18.9741 34.9823 19.0344 35.4438 18.9179 35.8768C18.8014 36.3097 18.5176 36.6787 18.1291 36.9025C17.7406 37.1262 17.2791 37.1865 16.8461 37.07C16.4131 36.9535 16.0442 36.6698 15.8204 36.2812L11.5426 28.8984C11.2629 28.4134 10.8019 28.0594 10.2612 27.9142C9.72039 27.769 9.14411 27.8446 8.65907 28.1243C8.17403 28.404 7.81998 28.865 7.6748 29.4057C7.52962 29.9465 7.60521 30.5228 7.88493 31.0078L15.3247 43.875C16.663 46.1886 18.6568 48.0539 21.0544 49.2353C23.4519 50.4167 26.1458 50.8612 28.7958 50.5127C31.4458 50.1643 33.9332 49.0384 35.9438 47.2774C37.9545 45.5164 39.3983 43.1991 40.093 40.6181C40.5568 38.9062 40.6761 37.1193 40.444 35.361C40.2119 33.6027 39.633 31.9079 38.7409 30.375ZM42.8352 22.2708L38.3759 14.5547C38.2374 14.314 38.0529 14.1029 37.8328 13.9335C37.6127 13.7641 37.3614 13.6397 37.0933 13.5674C36.5517 13.4215 35.9744 13.4966 35.4882 13.7763C35.2475 13.9148 35.0364 14.0994 34.867 14.3195C34.6976 14.5396 34.5732 14.7908 34.501 15.059C34.355 15.6005 34.4301 16.1779 34.7099 16.6641L41.6708 28.698C42.6357 30.3619 43.3098 32.1781 43.6642 34.0685C44.4269 32.1673 44.7485 30.1179 44.6049 28.0744C44.4613 26.031 43.8563 24.0467 42.8352 22.2708Z" fill="#113C7B"/>
</g>
</svg>
