<svg xmlns="http://www.w3.org/2000/svg" xmlns:xlink="http://www.w3.org/1999/xlink" width="1200" zoomAndPan="magnify" viewBox="0 0 900 899.99999" height="1200" preserveAspectRatio="xMidYMid meet" version="1.2"><defs><clipPath id="2da8cb6d9b"><path d="M 165 167.660156 L 767.582031 167.660156 L 767.582031 732.410156 L 165 732.410156 Z M 165 167.660156 "/></clipPath></defs><g id="7639bc7c6e"><path style=" stroke:none;fill-rule:nonzero;fill:#113c7b;fill-opacity:1;" d="M 236.503906 374.074219 C 239.324219 374.074219 242.144531 373.605469 244.964844 373.136719 C 257.65625 370.785156 268.46875 363.734375 275.519531 353.390625 C 282.570312 343.050781 285.390625 330.828125 283.042969 318.605469 C 278.339844 293.222656 253.425781 276.296875 228.042969 281 C 215.347656 283.351562 204.539062 290.402344 197.484375 300.742188 C 190.433594 311.085938 187.613281 323.308594 189.964844 335.527344 C 194.195312 358.09375 213.9375 374.074219 236.503906 374.074219 Z M 212.527344 311.554688 C 216.757812 305.445312 223.339844 301.214844 231.332031 299.804688 C 246.84375 296.980469 261.886719 307.324219 264.707031 322.367188 C 266.117188 329.417969 264.238281 336.941406 260.476562 343.050781 C 256.246094 349.160156 249.664062 353.390625 241.675781 354.800781 C 226.160156 357.625 211.117188 347.28125 208.296875 332.238281 C 206.886719 325.1875 208.296875 317.667969 212.527344 311.554688 Z M 212.527344 311.554688 "/><g clip-rule="nonzero" clip-path="url(#2da8cb6d9b)"><path style=" stroke:none;fill-rule:nonzero;fill:#113c7b;fill-opacity:1;" d="M 758.765625 308.734375 C 753.59375 308.265625 748.894531 311.554688 748.425781 316.726562 C 745.132812 343.519531 729.621094 367.964844 707.527344 382.539062 C 697.65625 389.117188 686.371094 393.347656 674.621094 398.519531 C 669.921875 400.402344 664.75 402.75 660.046875 404.632812 C 680.261719 379.71875 692.484375 347.75 692.484375 313.433594 C 692.484375 233.050781 627.140625 167.710938 546.757812 167.710938 C 466.375 167.710938 400.5625 233.050781 400.5625 313.433594 C 400.5625 393.820312 465.902344 459.160156 546.289062 459.160156 C 569.320312 459.160156 590.945312 453.992188 610.21875 444.589844 C 609.75 445.527344 608.808594 446.46875 608.339844 446.9375 C 604.109375 452.578125 600.347656 457.75 596.117188 462.453125 C 584.835938 474.675781 569.320312 482.664062 554.28125 490.1875 L 500.21875 518.390625 C 493.640625 521.683594 486.117188 525.914062 480.007812 532.023438 C 471.542969 540.484375 467.785156 550.828125 463.554688 560.699219 C 460.261719 568.691406 457.441406 576.210938 452.742188 581.851562 C 449.449219 585.613281 444.75 588.90625 439.578125 592.664062 C 433.46875 596.894531 427.355469 601.125 422.1875 607.707031 C 415.605469 615.699219 412.3125 625.101562 409.492188 634.503906 C 407.613281 639.671875 405.734375 644.84375 403.851562 649.074219 C 403.851562 649.074219 403.851562 649.074219 403.851562 648.605469 L 389.28125 570.101562 C 387.871094 562.109375 383.167969 555.058594 376.117188 551.296875 L 319.238281 511.8125 L 311.246094 469.972656 L 338.042969 474.675781 C 338.511719 474.675781 338.980469 474.675781 339.921875 474.675781 C 341.800781 474.675781 343.683594 474.203125 345.5625 472.792969 L 403.851562 429.546875 C 411.84375 423.433594 413.722656 412.621094 408.082031 404.160156 L 404.792969 398.050781 L 407.144531 396.171875 C 415.136719 390.058594 417.015625 379.246094 411.375 370.785156 L 405.261719 359.972656 C 405.261719 359.503906 404.792969 359.035156 404.324219 358.5625 C 401.503906 354.332031 396.800781 351.980469 391.628906 351.042969 C 386.460938 350.101562 381.757812 351.511719 377.527344 354.332031 L 332.871094 387.238281 L 290.09375 379.71875 C 279.75 377.367188 274.578125 376.898438 264.707031 378.777344 L 227.101562 385.359375 C 217.230469 387.238281 208.296875 392.878906 202.65625 400.871094 C 197.015625 408.863281 194.664062 418.734375 196.546875 428.605469 L 217.230469 534.84375 L 226.160156 601.125 C 226.632812 603.007812 226.160156 605.355469 225.222656 606.765625 C 225.222656 606.765625 225.222656 607.238281 224.75 607.238281 L 196.074219 665.996094 C 193.726562 670.230469 193.253906 675.398438 194.195312 680.101562 C 195.605469 684.800781 198.894531 689.03125 203.597656 691.382812 L 217.699219 698.902344 C 207.359375 701.722656 196.546875 703.605469 185.734375 704.074219 C 179.621094 704.542969 169.75 707.367188 166.460938 715.355469 C 164.582031 720.058594 165.050781 724.757812 168.339844 728.988281 C 170.222656 731.339844 173.042969 732.28125 175.390625 732.28125 C 177.742188 732.28125 179.621094 731.339844 181.503906 729.929688 C 183.855469 728.050781 184.792969 725.699219 184.792969 722.878906 C 185.265625 722.878906 185.734375 722.40625 186.203125 722.40625 C 211.589844 721.46875 235.5625 713.476562 259.066406 705.484375 C 281.160156 697.964844 302.316406 691.382812 324.410156 689.972656 C 330.519531 689.503906 336.632812 689.503906 343.210938 689.503906 C 351.671875 689.503906 360.605469 689.503906 369.535156 688.5625 C 383.640625 687.152344 402.441406 681.980469 414.664062 665.996094 C 420.777344 658.007812 424.066406 649.074219 426.886719 640.144531 C 429.707031 632.152344 432.058594 625.101562 436.757812 619.460938 C 440.050781 615.230469 445.21875 611.9375 450.390625 608.175781 C 456.03125 604.417969 461.671875 600.1875 466.84375 594.546875 C 473.894531 586.554688 477.65625 577.152344 480.945312 567.75 C 484.238281 559.289062 487.527344 550.828125 493.167969 545.1875 C 497.398438 540.957031 503.039062 538.136719 508.679688 535.316406 L 562.742188 507.109375 C 578.253906 499.117188 596.117188 489.714844 609.277344 475.613281 C 614.449219 469.972656 619.152344 463.863281 623.382812 458.222656 C 628.082031 451.640625 632.3125 445.527344 637.953125 440.828125 C 649.707031 429.546875 665.21875 422.964844 681.671875 416.382812 C 693.894531 411.210938 706.585938 406.511719 717.867188 398.992188 C 744.664062 381.597656 763.464844 351.980469 767.226562 319.546875 C 767.699219 313.90625 763.9375 309.203125 758.765625 308.734375 Z M 213 674.460938 L 241.675781 615.699219 C 244.496094 610.527344 245.90625 603.945312 244.964844 598.304688 L 236.03125 532.023438 L 216.289062 425.785156 C 215.347656 421.085938 216.289062 416.382812 219.109375 412.152344 C 221.929688 407.921875 226.632812 405.101562 231.332031 404.160156 L 268.9375 397.582031 C 275.988281 396.171875 278.339844 396.640625 287.273438 398.519531 L 334.28125 406.980469 C 336.632812 407.453125 339.453125 406.980469 341.332031 405.101562 L 389.28125 369.84375 L 394.921875 380.65625 C 394.921875 381.128906 395.390625 381.128906 395.863281 381.597656 L 391.628906 384.886719 C 390.691406 384.417969 389.75 384.417969 388.808594 383.949219 C 383.640625 383.007812 378.9375 384.417969 374.707031 387.238281 L 330.050781 420.144531 L 273.640625 411.210938 C 268.46875 410.273438 263.769531 414.035156 262.828125 419.203125 C 261.886719 424.375 265.648438 429.074219 270.820312 430.015625 L 330.519531 439.886719 C 332.871094 440.359375 335.691406 439.886719 337.570312 438.007812 L 385.988281 402.75 L 391.628906 413.5625 C 391.628906 414.035156 392.101562 414.035156 392.570312 414.503906 L 337.570312 455.402344 L 268.46875 442.707031 C 263.296875 441.769531 258.597656 445.058594 257.65625 450.230469 C 256.714844 455.402344 260.007812 460.101562 265.179688 461.042969 L 291.503906 465.742188 L 301.375 518.390625 C 301.84375 520.742188 303.253906 523.09375 305.605469 524.503906 C 306.074219 524.503906 306.074219 524.972656 306.546875 524.972656 L 365.304688 565.871094 C 365.304688 565.871094 365.777344 566.339844 366.246094 566.339844 C 368.597656 567.75 370.476562 570.101562 370.945312 572.453125 L 385.519531 650.957031 L 366.714844 654.246094 L 354.964844 595.484375 C 353.554688 587.492188 348.382812 580.441406 341.332031 576.210938 L 280.691406 541.894531 L 280.222656 537.664062 C 279.75 532.496094 275.519531 528.734375 270.347656 528.734375 C 265.179688 529.203125 261.417969 533.433594 261.417969 538.605469 L 265.648438 611.9375 C 265.648438 612.410156 265.648438 612.410156 265.648438 612.878906 C 266.117188 614.757812 265.648438 617.109375 264.707031 618.519531 C 264.707031 618.519531 264.707031 618.988281 264.238281 618.988281 L 232.273438 684.800781 C 232.273438 684.800781 231.800781 684.800781 231.800781 684.800781 L 213 674.929688 C 212.527344 674.929688 213 674.460938 213 674.460938 Z M 343.683594 670.699219 C 337.101562 670.699219 330.519531 670.699219 323.9375 671.167969 C 299.496094 672.578125 276.460938 680.570312 253.894531 687.621094 C 252.957031 688.09375 252.015625 688.09375 251.074219 688.5625 L 280.691406 627.449219 C 283.511719 622.28125 284.921875 616.167969 283.980469 610.527344 L 281.632812 564.460938 L 331.929688 592.664062 C 334.28125 594.074219 336.160156 596.425781 336.632812 598.777344 L 347.914062 658.945312 C 348.851562 664.117188 351.671875 667.878906 355.433594 670.699219 C 351.671875 670.699219 347.441406 670.699219 343.683594 670.699219 Z M 419.367188 313.433594 C 419.367188 243.394531 476.246094 186.511719 546.289062 186.511719 C 616.332031 186.511719 673.210938 243.394531 673.210938 313.433594 C 673.210938 383.476562 616.332031 440.359375 546.289062 440.359375 C 476.246094 440.359375 419.367188 383.476562 419.367188 313.433594 Z M 419.367188 313.433594 "/></g><path style=" stroke:none;fill-rule:nonzero;fill:#113c7b;fill-opacity:1;" d="M 536.886719 210.015625 C 485.175781 210.015625 442.871094 252.324219 442.871094 304.035156 C 442.871094 309.203125 447.101562 313.433594 452.269531 313.433594 C 457.441406 313.433594 461.671875 309.203125 461.671875 304.035156 C 461.671875 262.667969 495.519531 228.820312 536.886719 228.820312 C 542.058594 228.820312 546.289062 224.589844 546.289062 219.417969 C 546.289062 214.246094 542.058594 210.015625 536.886719 210.015625 Z M 536.886719 210.015625 "/></g></svg>