<svg width="9" height="9" viewBox="0 0 9 9" fill="none" xmlns="http://www.w3.org/2000/svg">
<path d="M4.49611 1.61736C4.78676 1.28179 5.04109 0.983498 5.33175 0.68521C6.05839 -0.0977976 7.22102 -0.17237 8.05666 0.498779C8.60164 0.946212 8.8923 1.54279 8.96497 2.21394C9.07396 2.95966 8.92863 3.63081 8.52898 4.22739C8.45632 4.33924 8.41998 4.41382 8.34732 4.48839C7.07569 5.97983 5.80407 7.47127 4.53244 8.96271L4.49611 9C4.45977 8.96271 4.45977 8.96272 4.42344 8.92543C3.18815 7.47127 1.91652 5.97983 0.681228 4.52567C0.136245 3.85452 -0.0817474 3.07152 0.0272492 2.21394C0.0999135 1.61736 0.354238 1.05807 0.790224 0.610636C1.58953 -0.209658 2.93382 -0.209655 3.6968 0.647924C3.95112 0.908927 4.16912 1.20721 4.42344 1.5055C4.45977 1.54279 4.45977 1.58008 4.49611 1.61736Z" fill="currentColor"/>
</svg>
