<svg width="55" height="54" viewBox="0 0 55 54" fill="none" xmlns="http://www.w3.org/2000/svg">
<g id="HeartStraight">
<path id="Vector" d="M47.2054 12.0234C44.9128 9.73654 41.8079 8.45052 38.5697 8.44657C35.3316 8.44262 32.2236 9.72105 29.9254 12.0023L27.1663 14.5652L24.4052 11.9939C22.1075 9.70269 18.9938 8.41807 15.7491 8.42262C12.5043 8.42717 9.3942 9.72052 7.10301 12.0181C4.81182 14.3158 3.5272 17.4295 3.53175 20.6742C3.5363 23.919 4.82965 27.0291 7.12727 29.3203L25.9745 48.4439C26.1316 48.6033 26.3187 48.7299 26.5251 48.8164C26.7316 48.9028 26.9531 48.9473 27.1769 48.9473C27.4007 48.9473 27.6222 48.9028 27.8286 48.8164C28.035 48.7299 28.2222 48.6033 28.3792 48.4439L47.2054 29.3203C49.4982 27.0261 50.7862 23.9153 50.7862 20.6719C50.7862 17.4284 49.4982 14.3176 47.2054 12.0234ZM44.8113 26.9494L27.1663 44.8453L9.51086 26.9325C7.84932 25.2709 6.91588 23.0174 6.91588 20.6676C6.91588 18.3179 7.84932 16.0643 9.51086 14.4028C11.1724 12.7412 13.4259 11.8078 15.7757 11.8078C18.1255 11.8078 20.379 12.7412 22.0406 14.4028L22.0827 14.445L26.0167 18.1047C26.329 18.3954 26.7398 18.5569 27.1663 18.5569C27.5929 18.5569 28.0037 18.3954 28.3159 18.1047L32.2499 14.445L32.2921 14.4028C33.9548 12.7424 36.2089 11.8104 38.5587 11.812C40.9085 11.8136 43.1614 12.7486 44.8218 14.4112C46.4822 16.0739 47.4141 18.328 47.4126 20.6778C47.411 23.0276 46.476 25.2805 44.8134 26.9409L44.8113 26.9494Z" fill="#113C7B"/>
</g>
</svg>
