<svg width="134" height="138" viewBox="0 0 134 138" fill="none" xmlns="http://www.w3.org/2000/svg">
<path d="M116.019 138C112.293 138 109.887 137.166 108.663 135.45C106.592 132.548 108.217 127.703 110.099 122.093C111.729 117.229 113.578 111.717 113.082 106.861C112.459 100.749 107.876 98.5999 103.024 96.3244C98.3029 94.1104 93.4212 91.8212 92.5769 85.6144C91.8327 80.1248 94.3642 76.412 96.5978 73.1362C98.2074 70.7754 99.5983 68.7365 99.5983 66.4054C99.5983 63.8459 98.6921 62.454 97.5449 60.692C96.6774 59.3597 95.6941 57.8495 94.9321 55.5486C94.8967 55.4421 94.9049 55.3258 94.9548 55.2254C95.0046 55.1249 95.0921 55.0485 95.1979 55.013C95.3037 54.9774 95.4193 54.9857 95.5191 55.0358C95.6189 55.086 95.6948 55.174 95.7301 55.2805C96.457 57.4774 97.4083 58.9387 98.2479 60.2281C99.4236 62.034 100.439 63.5932 100.439 66.4054C100.439 68.9989 98.9105 71.2414 97.2914 73.6151C95.1441 76.7646 92.7103 80.3343 93.4105 85.4997C94.1925 91.249 98.6544 93.3415 103.379 95.557C108.231 97.8321 113.248 100.185 113.92 106.774C114.434 111.813 112.554 117.418 110.896 122.363C109.089 127.753 107.528 132.407 109.346 134.956C110.401 136.435 112.584 137.153 116.02 137.153C116.132 137.153 116.239 137.198 116.318 137.277C116.397 137.357 116.441 137.464 116.441 137.577C116.441 137.689 116.397 137.797 116.318 137.876C116.239 137.955 116.132 138 116.02 138H116.019Z" fill="#222433"/>
<path d="M107.552 49.0436L104.741 50.6304L103.142 47.8282C102.254 46.3113 100.805 45.1997 99.1065 44.7316C97.4078 44.2634 95.5939 44.4759 94.0534 45.3235C92.5321 46.2045 91.4189 47.6446 90.9524 49.3352C90.4859 51.0257 90.7032 52.8324 91.5576 54.3683L93.1572 57.1705L99.7489 68.7198L111.332 62.1805L114.142 60.5937C115.664 59.7126 116.777 58.2725 117.243 56.582C117.71 54.8914 117.492 53.0848 116.638 51.5489C115.75 50.0326 114.302 48.9213 112.604 48.4531C110.906 47.9849 109.092 48.1968 107.552 49.0436Z" fill="#FC8383"/>
<path d="M19.4885 136.975L16.3262 131.327C15.9584 130.667 16.1958 129.833 16.8568 129.465C16.9388 129.42 17.0254 129.382 17.1151 129.354C17.7214 129.169 18.3759 129.424 18.6969 129.971L20.161 132.468L20.1268 128.788C20.1229 128.107 20.6717 127.552 21.3525 127.549C21.3548 127.549 21.357 127.549 21.3594 127.549C22.0198 127.548 22.5633 128.068 22.592 128.727L22.7453 132.698L23.9903 130.791C24.3454 130.252 25.0562 130.078 25.6201 130.392L25.783 130.484C26.3707 130.818 26.579 131.564 26.25 132.154L23.5164 136.975" fill="white"/>
<path d="M19.4892 137.385C19.3453 137.385 19.2056 137.31 19.1303 137.175L15.968 131.527C15.7362 131.111 15.6805 130.631 15.8109 130.173C15.9411 129.716 16.2417 129.337 16.6573 129.106C16.7638 129.046 16.8768 128.998 16.9931 128.962C17.7869 128.719 18.6325 129.048 19.0515 129.762L19.736 130.93L19.7162 128.791C19.7113 127.883 20.4444 127.142 21.3505 127.137C21.351 127.137 21.3516 127.137 21.352 127.137C22.2434 127.137 22.9644 127.827 23.0027 128.709L23.1064 131.393L23.6464 130.566C24.1182 129.849 25.0727 129.616 25.8204 130.033L25.9848 130.125C26.7667 130.57 27.0459 131.569 26.6092 132.354L23.8742 137.177C23.7623 137.374 23.5115 137.444 23.3142 137.332C23.1168 137.22 23.0475 136.969 23.1594 136.772L25.893 131.951C26.1098 131.562 25.9701 131.062 25.5802 130.84L25.419 130.75C25.0466 130.542 24.5694 130.658 24.3339 131.016L23.09 132.922C22.9922 133.071 22.8088 133.141 22.6364 133.093C22.4639 133.045 22.3422 132.892 22.3353 132.713L22.1819 128.743C22.1626 128.304 21.8022 127.959 21.3609 127.959C21.3606 127.959 21.3603 127.959 21.3601 127.959C20.9021 127.961 20.5355 128.332 20.5379 128.785L20.5722 132.463C20.5739 132.649 20.4503 132.813 20.2707 132.863C20.0913 132.912 19.9009 132.835 19.8067 132.675L18.3427 130.178C18.1171 129.793 17.6618 129.616 17.2355 129.746C17.175 129.765 17.1142 129.791 17.0568 129.823C16.8331 129.948 16.6712 130.152 16.6011 130.398C16.531 130.645 16.561 130.903 16.6855 131.127L19.8474 136.774C19.9582 136.972 19.8875 137.222 19.6896 137.333C19.6261 137.368 19.5572 137.385 19.4892 137.385Z" fill="#222433"/>
<path d="M80.1021 112.2C84.1774 114.625 84.7357 117.746 84.5263 121.828C84.4426 123.43 84.3449 126.481 84.6798 128.056C85.1125 130.146 87.9317 131.038 89.1739 131.358L95.7754 111.977L90.43 105.164L97.3525 107.366L98.9994 102.545L85.0427 97.8079L80.1021 112.2Z" fill="white"/>
<path d="M89.1736 131.776C89.1381 131.776 89.1029 131.771 89.0686 131.762C87.117 131.259 84.7002 130.222 84.2693 128.139C83.9253 126.523 84.0205 123.477 84.1077 121.805C84.32 117.665 83.6974 114.825 79.8872 112.558C79.8047 112.509 79.7417 112.433 79.7086 112.343C79.6756 112.253 79.6746 112.155 79.7058 112.064L84.6464 97.6713C84.6824 97.5667 84.7584 97.4806 84.8578 97.4318C84.9572 97.383 85.0719 97.3755 85.1768 97.411L99.1335 102.148C99.1856 102.166 99.2337 102.194 99.275 102.23C99.3163 102.266 99.3501 102.31 99.3744 102.359C99.3987 102.409 99.413 102.462 99.4166 102.517C99.4201 102.572 99.4128 102.627 99.395 102.679L97.7481 107.5C97.7127 107.603 97.6381 107.689 97.5402 107.738C97.4424 107.787 97.3291 107.796 97.2247 107.763L91.5964 105.973L96.1045 111.719C96.1473 111.773 96.1759 111.838 96.1875 111.906C96.1992 111.975 96.1936 112.045 96.1712 112.111L89.5697 131.491C89.5417 131.574 89.4885 131.646 89.4174 131.697C89.3464 131.748 89.2611 131.776 89.1736 131.776ZM80.6067 112.019C84.503 114.466 85.1617 117.606 84.9441 121.85C84.8756 123.163 84.7524 126.387 85.089 127.969C85.4209 129.573 87.4778 130.438 88.9041 130.851L95.3056 112.058L90.0997 105.422C90.0446 105.352 90.0134 105.266 90.0109 105.177C90.0083 105.087 90.0345 105 90.0856 104.926C90.1367 104.853 90.2099 104.798 90.2947 104.769C90.3794 104.74 90.4711 104.739 90.5564 104.767L97.0881 106.843L98.4673 102.806L85.3031 98.3373L80.6067 112.019Z" fill="#222433"/>
<path d="M77.9271 123.223C77.7999 123.223 77.6728 123.217 77.5462 123.204C76.8249 123.13 76.1419 122.844 75.5834 122.383C75.0249 121.921 74.6161 121.304 74.4087 120.611C74.2013 119.917 74.2047 119.178 74.4184 118.486C74.6321 117.795 75.0465 117.182 75.6092 116.725C77.0555 115.544 82.0954 115.292 82.6654 115.267C82.7305 115.264 82.7954 115.277 82.8549 115.303C82.9144 115.33 82.9669 115.37 83.0081 115.42C83.0493 115.471 83.0781 115.53 83.0923 115.594C83.1064 115.657 83.1055 115.723 83.0897 115.786C82.9501 116.339 81.6879 121.222 80.2259 122.404C79.578 122.935 78.7653 123.225 77.9271 123.223ZM82.1314 116.133C80.3776 116.25 77.0678 116.613 76.1378 117.373C75.7034 117.725 75.3833 118.198 75.2182 118.731C75.053 119.265 75.0502 119.836 75.2101 120.371C75.37 120.906 75.6854 121.382 76.1164 121.738C76.5474 122.095 77.0746 122.315 77.6312 122.372C77.9993 122.412 78.3715 122.377 78.7262 122.271C79.0809 122.166 79.4108 121.99 79.6968 121.755L79.6983 121.754C80.638 120.994 81.6638 117.827 82.1314 116.133Z" fill="#222433"/>
<path d="M55.8308 116.353C58.9432 119.919 57.9801 122.901 57.0171 126.872C56.8497 127.568 55.0213 131.247 55.3284 132.835C55.4459 133.454 55.6478 134.054 55.9285 134.618C56.5136 135.739 57.379 136.689 58.4407 137.377L70.7784 121.02L67.8336 112.883L73.7233 117.119L77.5195 112.438L65.8098 103.702L55.8308 116.353Z" fill="white"/>
<path d="M58.4411 137.795C58.3602 137.795 58.2811 137.771 58.2133 137.727C57.0907 137 56.1758 135.995 55.5577 134.811C55.259 134.212 55.0441 133.575 54.9189 132.918C54.6861 131.715 55.4403 129.713 56.2326 127.765C56.4086 127.332 56.5748 126.923 56.6107 126.774C56.6634 126.556 56.7159 126.342 56.768 126.131C57.6667 122.476 58.3156 119.836 55.5158 116.627C55.4517 116.553 55.4153 116.46 55.4128 116.363C55.4104 116.265 55.4421 116.17 55.5025 116.094L65.4815 103.443C65.5491 103.357 65.6475 103.301 65.7558 103.287C65.8641 103.273 65.9737 103.301 66.0612 103.366L77.7708 112.102C77.816 112.136 77.8538 112.178 77.8822 112.227C77.9105 112.276 77.9287 112.329 77.9357 112.385C77.9427 112.441 77.9383 112.498 77.9228 112.552C77.9073 112.606 77.8811 112.656 77.8456 112.7L74.0494 117.382C73.9821 117.465 73.8855 117.519 73.7794 117.533C73.6734 117.547 73.5659 117.52 73.4791 117.458L68.6882 114.012L71.1725 120.878C71.1962 120.943 71.2031 121.013 71.1928 121.082C71.1824 121.15 71.1551 121.215 71.1132 121.271L58.7755 137.628C58.7365 137.68 58.686 137.722 58.628 137.751C58.57 137.78 58.506 137.795 58.4411 137.795ZM56.3718 116.343C59.1955 119.763 58.4805 122.672 57.5811 126.33C57.5294 126.541 57.4772 126.754 57.4245 126.97C57.3065 127.347 57.1675 127.717 57.0082 128.079C56.4936 129.344 55.5357 131.7 55.7399 132.755C55.8489 133.336 56.038 133.899 56.3017 134.427C56.7916 135.367 57.4919 136.18 58.3482 136.806L70.308 120.95L67.4402 113.025C67.4098 112.941 67.4071 112.85 67.4326 112.764C67.4581 112.678 67.5103 112.603 67.5817 112.549C67.6531 112.496 67.7399 112.466 67.8293 112.465C67.9188 112.464 68.0062 112.492 68.0787 112.544L73.6475 116.548L76.9208 112.512L65.8868 104.28L56.3718 116.343Z" fill="#222433"/>
<path d="M51.4423 126.322C50.7002 126.321 49.9757 126.095 49.3642 125.676C48.7526 125.256 48.2824 124.661 48.0153 123.97C47.6687 123.065 47.6963 122.059 48.0922 121.174C48.488 120.289 49.2197 119.597 50.1264 119.25C51.8797 118.579 56.7484 119.906 57.2976 120.06C57.3604 120.078 57.4183 120.109 57.4666 120.153C57.5148 120.197 57.5522 120.252 57.5756 120.312C57.599 120.373 57.6079 120.439 57.6015 120.503C57.5951 120.568 57.5736 120.631 57.5387 120.686C57.2339 121.167 54.5101 125.406 52.7569 126.078C52.3374 126.239 51.8918 126.322 51.4423 126.322ZM51.4652 119.893C51.1135 119.879 50.762 119.926 50.4261 120.031C49.7266 120.3 49.1626 120.835 48.8584 121.519C48.5542 122.203 48.5346 122.979 48.8039 123.678C49.0732 124.376 49.6094 124.939 50.2945 125.243C50.9796 125.546 51.7575 125.566 52.4571 125.297C53.5845 124.865 55.5466 122.179 56.5192 120.718C55.1976 120.38 52.9383 119.893 51.4652 119.893Z" fill="#222433"/>
<path d="M48.8942 90.7583L55.6353 78.0237C57.1167 77.4232 58.3276 76.3035 59.0407 74.8749C60.6597 71.6286 42.8789 64.5786 42.8789 64.5786L31.1413 88.752C30.988 89.014 30.8483 89.2837 30.7226 89.5601C27.8755 95.8995 34.1979 100.344 34.1979 100.344C34.9376 100.929 56.1098 117.83 56.1098 117.83L66.5215 104.858L48.8942 90.7583Z" fill="white"/>
<path d="M56.11 118.248C56.015 118.248 55.9228 118.215 55.8487 118.156C55.6375 117.988 34.8167 101.368 33.9468 100.678C32.8029 99.8146 31.8194 98.7575 31.0407 97.5551C29.3581 94.9398 29.1162 92.1161 30.3411 89.3889C30.4704 89.1041 30.6141 88.8261 30.7716 88.5558L42.5025 64.3964C42.5486 64.3014 42.629 64.2273 42.7276 64.189C42.8262 64.1508 42.9357 64.1512 43.034 64.1902C43.0711 64.205 46.8023 65.6884 50.6473 67.5806C55.8878 70.159 58.846 72.2524 59.44 73.8024C59.5266 74.0017 59.5693 74.2173 59.5651 74.4345C59.561 74.6516 59.5101 74.8654 59.4159 75.0612C58.68 76.5324 57.4478 77.6972 55.9362 78.3505L49.4264 90.6481L66.7836 104.532C66.8703 104.601 66.9258 104.702 66.9379 104.812C66.9501 104.923 66.9179 105.033 66.8485 105.12L56.4368 118.091C56.3976 118.14 56.3479 118.179 56.2913 118.207C56.2347 118.234 56.1727 118.248 56.11 118.248ZM43.0856 65.1114L31.5183 88.9342C31.5137 88.9434 31.509 88.9525 31.5044 88.9614C31.3581 89.2111 31.2249 89.4681 31.1052 89.7315C29.9898 92.215 30.2004 94.6881 31.7314 97.0811C32.4588 98.2035 33.3751 99.1918 34.4399 100.002C34.4461 100.007 34.4526 100.012 34.4586 100.016C35.1401 100.555 53.3638 115.102 56.0453 117.242L65.9336 104.923L48.6325 91.0842C48.5566 91.0234 48.5042 90.9381 48.4845 90.843C48.4647 90.7478 48.4788 90.6488 48.5242 90.5628L55.2653 77.8283C55.311 77.7419 55.3856 77.6742 55.476 77.637C56.8625 77.0735 57.9962 76.0257 58.6657 74.6891C58.7086 74.5967 58.7302 74.4959 58.7288 74.3941C58.7274 74.2922 58.703 74.192 58.6576 74.1009C57.6432 71.4539 47.4052 66.853 43.0856 65.1114Z" fill="#222433"/>
<path d="M46.9964 78.8734L46.4939 98.7833C46.48 99.0899 46.48 99.3964 46.48 99.689C46.48 106.627 54.6028 107.84 54.6028 107.84C54.6725 107.84 81.8601 113.51 81.8601 113.51L85.8378 95.1887L63.4792 91.19L63.6327 78.2604C63.8421 69.0787 61.5951 64.5645 57.9663 64.5645C55.7891 64.5645 55.2587 64.5784 54.0724 66.2225L47.3313 65.5815" fill="white"/>
<path d="M81.8601 113.928C81.8312 113.928 81.8024 113.925 81.7742 113.919C72.542 111.994 55.0131 108.34 54.539 108.253C53.0601 107.987 51.6374 107.471 50.332 106.728C47.538 105.118 46.0613 102.684 46.0613 99.6888C46.0613 99.3897 46.0613 99.0802 46.0752 98.7641L46.5777 78.8628C46.5791 78.8079 46.5912 78.7538 46.6136 78.7036C46.6359 78.6534 46.6679 78.6081 46.7077 78.5703C46.7476 78.5324 46.7945 78.5028 46.8458 78.4831C46.8971 78.4633 46.9519 78.4539 47.0068 78.4553C47.0618 78.4566 47.116 78.4688 47.1663 78.4911C47.2165 78.5133 47.2619 78.5453 47.2998 78.5851C47.3378 78.6249 47.3674 78.6717 47.3872 78.7229C47.407 78.7742 47.4165 78.8288 47.4151 78.8837L46.9126 98.7936C46.8987 99.0993 46.8987 99.399 46.8987 99.6888C46.8987 102.398 48.1876 104.519 50.7296 105.992C51.9521 106.686 53.2825 107.171 54.6654 107.426V107.43C55.0337 107.497 57.8245 108.07 81.5401 113.016L85.3367 95.5229L63.4054 91.6012C63.3078 91.5838 63.2197 91.5324 63.1565 91.4562C63.0934 91.38 63.0593 91.2838 63.0605 91.1849L63.214 78.2553C63.3515 72.2213 62.4324 68.0211 60.5551 66.1043C60.2246 65.749 59.8239 65.4659 59.3784 65.2728C58.9328 65.0797 58.452 64.9808 57.9663 64.9823C55.8624 64.9823 55.4831 64.9823 54.4121 66.4665C54.3694 66.5257 54.3119 66.5727 54.2454 66.6029C54.1788 66.633 54.1055 66.6452 54.0328 66.6383L47.2917 65.9974C47.2363 65.9931 47.1823 65.9778 47.1329 65.9524C47.0834 65.927 47.0396 65.892 47.0038 65.8496C46.9681 65.8071 46.9412 65.7579 46.9246 65.7049C46.9081 65.652 46.9023 65.5962 46.9076 65.541C46.9129 65.4858 46.9291 65.4321 46.9554 65.3832C46.9817 65.3343 47.0174 65.2911 47.0606 65.2562C47.1037 65.2212 47.1534 65.1952 47.2068 65.1796C47.2601 65.164 47.316 65.1591 47.3713 65.1653L53.876 65.7837C55.1101 64.1463 55.8681 64.1463 57.9663 64.1463C58.5639 64.1431 59.1556 64.2635 59.7042 64.4999C60.2529 64.7363 60.7465 65.0836 61.154 65.5199C63.1917 67.6014 64.1939 72.0102 64.0513 78.2698L63.9021 90.8415L85.9117 94.7778C85.9671 94.7877 86.0199 94.8087 86.0669 94.8395C86.114 94.8702 86.1543 94.9101 86.1856 94.9568C86.2169 95.0035 86.2384 95.0559 86.2489 95.1111C86.2594 95.1663 86.2586 95.223 86.2467 95.2778L82.2691 113.599C82.2487 113.693 82.197 113.776 82.1226 113.836C82.0482 113.895 81.9556 113.928 81.8601 113.928Z" fill="#222433"/>
<path d="M48.0849 48.6947L35.2168 41.7283L28.5037 34.2046C27.4544 33.0324 25.9827 32.3229 24.4106 32.2315C22.8385 32.1401 21.2942 32.6742 20.1157 33.717C18.9415 34.7644 18.2308 36.2337 18.1392 37.8031C18.0477 39.3724 18.5827 40.9141 19.6273 42.0906L26.9405 50.297C27.4581 50.8824 28.0897 51.3565 28.7968 51.6902C29.019 51.8503 29.2522 51.9947 29.4946 52.1222L44.5399 60.0638C47.4289 61.5964 45.7123 57.7371 47.2475 54.853C48.7827 51.9828 50.96 50.2273 48.0849 48.6947Z" fill="#9AE2E0"/>
<path d="M67.9735 25.5245C64.8332 25.0369 61.8883 27.294 61.4278 30.5125L60.0461 40.0286L54.0587 48.4439C52.1885 51.0772 52.7467 54.8112 55.3008 56.7339C57.8549 58.6567 57.1989 64.1322 59.0691 61.4989L69.6483 46.5909C69.8044 46.3815 69.9399 46.1575 70.053 45.9221C70.6747 45.1078 71.0782 44.1488 71.2254 43.1356L72.8025 32.268C73.277 29.0356 71.0997 26.0122 67.9735 25.5245Z" fill="#9AE2E0"/>
<path d="M63.3394 17.8339L65.0003 24.2987L63.5488 23.7275C63.5348 23.7693 63.1161 25.5666 63.1161 25.6084C62.2508 29.5792 65.8237 31.5438 68.6848 30.9864C72.6485 30.2062 71.867 25.5805 71.6716 24.7585C71.3506 23.4349 70.6248 23.1841 70.4294 22.0695C70.3038 21.345 70.4155 20.5926 71.0714 19.2829C71.6855 18.0429 72.7881 16.2874 71.5878 15.744C70.7644 15.3817 69.3827 17.3881 68.322 18.8231C68.8384 16.3013 69.5222 12.9714 68.3918 12.6788C67.2613 12.3862 66.5355 14.7408 65.8935 18.015C65.9773 14.295 66.5355 12.3305 65.419 12.1633C64.2327 11.9961 63.5627 14.9498 63.3394 17.8339Z" fill="white"/>
<path d="M67.7026 31.498C66.2411 31.498 64.7981 30.9368 63.8288 29.948C62.7279 28.8252 62.3297 27.2524 62.7072 25.5193L62.7102 25.52C62.7833 25.1207 63.1481 23.6065 63.1522 23.5944C63.1702 23.5406 63.1991 23.4911 63.2369 23.4488C63.2748 23.4065 63.3209 23.3723 63.3724 23.3484C63.4239 23.3244 63.4798 23.3112 63.5366 23.3095C63.5934 23.3078 63.6499 23.3176 63.7028 23.3384L64.3912 23.6094L62.9342 17.9375C62.9228 17.8932 62.9188 17.8472 62.9223 17.8016C63.0595 16.0287 63.4589 12.919 64.5911 12.0111C64.7123 11.9079 64.8539 11.8313 65.0066 11.7862C65.1593 11.7411 65.3198 11.7285 65.4778 11.7492C66.3862 11.8853 66.5538 12.6687 66.5192 13.9808C66.8445 13.1632 67.1891 12.6697 67.5836 12.4218C67.7171 12.3349 67.8674 12.2769 68.0247 12.2516C68.1821 12.2262 68.343 12.234 68.4972 12.2746C69.659 12.5752 69.5718 14.4123 69.0854 17.1017C70.0154 15.9155 70.9386 15.002 71.757 15.3619C71.9208 15.4292 72.0686 15.5302 72.1906 15.6583C72.3127 15.7865 72.4062 15.9389 72.4652 16.1057C72.7531 16.9327 72.1805 18.0423 71.6751 19.0209C71.5955 19.1753 71.5179 19.3254 71.447 19.4686C70.8036 20.7533 70.7401 21.409 70.8423 21.9985C70.9241 22.4647 71.1108 22.7436 71.3471 23.0967C71.6906 23.5655 71.9391 24.0967 72.0789 24.6605C72.1516 24.967 72.7488 27.6902 71.4964 29.6345C70.8963 30.5654 69.9781 31.1582 68.7661 31.3967C68.4157 31.4645 68.0595 31.4984 67.7026 31.498ZM63.5312 25.664C63.5298 25.675 63.5279 25.686 63.5255 25.6968C63.1208 27.5541 63.7925 28.7156 64.4273 29.3631C65.4406 30.3966 67.0804 30.8724 68.605 30.5753C69.5841 30.3824 70.3203 29.9133 70.7922 29.181C71.8759 27.499 71.29 24.9612 71.2645 24.8539C71.1471 24.3864 70.9385 23.9466 70.6504 23.5598C70.394 23.177 70.1291 22.7811 70.0168 22.1405C69.8603 21.2382 70.0508 20.385 70.6966 19.0951C70.7687 18.9495 70.8483 18.7952 70.9302 18.6365C71.3158 17.8899 71.8438 16.8671 71.6737 16.3794C71.6522 16.3204 71.6178 16.2669 71.573 16.2228C71.5282 16.1786 71.4741 16.145 71.4147 16.1243C71.4094 16.1217 71.1763 16.0308 70.4796 16.7562C69.9169 17.3821 69.3926 18.0414 68.9096 18.7304C68.8246 18.8464 68.7408 18.9603 68.6592 19.0708C68.6026 19.1474 68.5214 19.2024 68.4292 19.2267C68.337 19.251 68.2392 19.2432 68.1521 19.2045C68.065 19.1658 67.9937 19.0985 67.95 19.0139C67.9064 18.9292 67.893 18.8322 67.9121 18.7389L67.9149 18.725C68.1735 17.462 68.4666 16.0306 68.5579 14.8751C68.6875 13.2348 68.3284 13.0935 68.287 13.0828C68.2434 13.0709 68.1977 13.0688 68.1532 13.0768C68.1087 13.0847 68.0666 13.1025 68.0299 13.1288C67.1727 13.6676 66.5194 16.9997 66.3047 18.0947C66.2845 18.1974 66.2265 18.2887 66.1421 18.3507C66.0576 18.4127 65.953 18.4409 65.8488 18.4297C65.7446 18.4184 65.6485 18.3685 65.5793 18.2899C65.5101 18.2113 65.473 18.1097 65.4753 18.0051C65.4984 16.9721 65.5568 16.0917 65.6081 15.3151C65.7245 13.5574 65.7663 12.6374 65.3569 12.5761C65.3128 12.5718 65.2683 12.5773 65.2265 12.5922C65.1848 12.6071 65.1468 12.6311 65.1155 12.6623C64.5014 13.1544 63.9725 15.1659 63.7625 17.7968L65.406 24.1943C65.4253 24.2689 65.4235 24.3474 65.4008 24.4211C65.3782 24.4947 65.3356 24.5607 65.2778 24.6117C65.22 24.6628 65.1491 24.6968 65.0731 24.7102C64.9971 24.7235 64.9189 24.7156 64.8471 24.6874L63.8446 24.2928C63.7265 24.7972 63.553 25.5501 63.5312 25.664Z" fill="#222433"/>
<path d="M67.2057 26.6812C67.1638 25.065 65.9357 23.616 65.182 21.8744C64.1492 19.478 63.242 18.0011 62.6 17.9036C61.1625 17.6667 62.7814 21.3868 63.1862 24.7585C63.2141 24.9396 63.242 25.1068 63.2839 25.2879" fill="white"/>
<path d="M67.2056 27.099C67.0964 27.099 66.9916 27.0565 66.9134 26.9804C66.8351 26.9044 66.7898 26.8009 66.7869 26.6919C66.7617 25.7151 66.2287 24.7523 65.6633 23.7331C65.3648 23.1946 65.056 22.6376 64.798 22.04C63.283 18.5246 62.6093 18.3275 62.537 18.3166C62.516 18.3129 62.4948 18.311 62.4735 18.3108C62.2992 18.6187 62.6512 20.1048 62.9095 21.1957C63.2047 22.3506 63.4355 23.521 63.6009 24.7015C63.6288 24.8865 63.6549 25.034 63.6918 25.1938C63.705 25.2476 63.7074 25.3035 63.6988 25.3582C63.6902 25.4129 63.6708 25.4654 63.6417 25.5126C63.6126 25.5598 63.5745 25.6007 63.5294 25.633C63.4843 25.6653 63.4333 25.6883 63.3792 25.7008C63.3252 25.7132 63.2692 25.7148 63.2145 25.7055C63.1598 25.6961 63.1075 25.676 63.0607 25.6463C63.0138 25.6166 62.9734 25.578 62.9416 25.5325C62.9099 25.4871 62.8876 25.4358 62.8759 25.3817C62.8327 25.1955 62.8033 25.0232 62.7723 24.8218C62.7723 24.8172 62.7709 24.8126 62.7703 24.8079C62.6084 23.6563 62.3828 22.5146 62.0946 21.3878C61.61 19.3421 61.38 18.25 61.8713 17.725C61.9725 17.6205 62.0992 17.544 62.2389 17.503C62.3786 17.4619 62.5266 17.4577 62.6685 17.4908C63.204 17.5722 64.0223 18.1259 65.5668 21.709C65.809 22.2685 66.1075 22.8073 66.3964 23.3284C67.0122 24.4395 67.5939 25.4889 67.6246 26.6702C67.6275 26.7809 67.5861 26.8883 67.5097 26.9687C67.4333 27.049 67.328 27.0958 67.2171 27.0987L67.2056 27.099Z" fill="#222433"/>
<path d="M62 66.8908L60.7579 61.6103L59.5436 52.0524C58.5388 48.9036 55.3148 46.8695 51.8814 46.967C48.4481 46.8695 45.2241 48.9036 44.2192 52.0524L43.1306 60.426L41.7629 66.8351C41.2325 67.9219 46.4244 67.1974 51.1138 67.3367C54.4495 67.4342 62.4745 68.0751 62 66.8908Z" fill="#9AE2E0"/>
<path d="M22.8099 25.9989C22.8099 25.9989 26.2292 33.2161 26.2572 33.2439C28.7135 36.6435 26.1595 39.9734 23.2286 40.6144C19.1672 41.506 17.9809 36.8246 17.8273 35.9608C17.5761 34.5815 18.1623 34.052 17.8832 32.9095C17.7017 32.1711 17.283 31.5163 16.1107 30.541C15.022 29.6214 13.2496 28.4232 14.1567 27.4061C14.7848 26.7094 16.9202 28.047 18.5252 28.9666C16.9899 26.793 14.9662 23.9368 15.9153 23.1984C16.8643 22.446 18.5112 24.3827 20.4931 27.211C18.8741 23.7278 17.5342 22.1116 18.5252 21.4847C19.544 20.8716 21.4142 23.3656 22.8099 25.9989Z" fill="white"/>
<path d="M22.2372 41.1449C21.4447 41.1515 20.6687 40.9186 20.0113 40.4768C17.9842 39.1236 17.4367 36.159 17.4144 36.0335C17.3105 35.4462 17.3242 34.8443 17.4547 34.2624C17.5322 33.8304 17.5933 33.4895 17.4756 33.0084C17.3298 32.4146 16.9961 31.822 15.8419 30.8619C15.7084 30.7492 15.5675 30.6345 15.4225 30.5165C14.551 29.8072 13.563 29.0033 13.4917 28.1127C13.4781 27.9331 13.5024 27.7527 13.563 27.583C13.6236 27.4134 13.7192 27.2583 13.8436 27.1278C14.4708 26.432 15.7446 26.9387 17.1301 27.6905C15.5412 25.3359 14.6831 23.6266 15.6575 22.8684C15.7839 22.7677 15.9299 22.6946 16.0863 22.6536C16.2427 22.6127 16.4059 22.6049 16.5655 22.6307C17.0568 22.7022 17.6008 23.0409 18.2822 23.7325C17.6807 22.4708 17.4911 21.6434 18.3006 21.1313C18.4376 21.05 18.5902 20.9983 18.7484 20.9796C18.9067 20.9609 19.0671 20.9755 19.2194 21.0225C20.7285 21.4404 22.4915 24.5057 23.1796 25.8031C23.1825 25.8087 23.1853 25.8142 23.188 25.8198C24.4851 28.5576 26.4357 32.6676 26.6138 33.023C27.6728 34.5024 27.9385 36.1451 27.3617 37.6515C26.7304 39.2999 25.1426 40.6229 23.3178 41.0221C22.9631 41.1018 22.6008 41.143 22.2372 41.1449ZM14.6817 27.6301C14.5259 27.6301 14.4764 27.6755 14.4673 27.6858C14.4186 27.7319 14.3807 27.7881 14.3564 27.8505C14.3321 27.9129 14.3218 27.9799 14.3265 28.0467C14.3693 28.5814 15.2839 29.3256 15.9519 29.8689C16.1009 29.9903 16.2459 30.1083 16.3807 30.2221C17.5313 31.1792 18.0671 31.9054 18.2895 32.8103C18.449 33.4636 18.3627 33.9448 18.2793 34.4102C18.1668 34.8945 18.1531 35.3965 18.2389 35.8862C18.259 35.9992 18.7433 38.6251 20.477 39.7824C21.2314 40.2858 22.1266 40.4286 23.1381 40.2064C24.6957 39.8658 26.0463 38.7462 26.5794 37.3539C26.9162 36.4746 27.0745 35.0904 25.9172 33.4887L25.9205 33.4863C25.8076 33.2989 25.3589 32.3577 22.435 26.1864C21.1684 23.7988 19.7867 22.0483 18.9952 21.8286C18.9545 21.8119 18.9105 21.8045 18.8665 21.8069C18.8225 21.8094 18.7796 21.8215 18.741 21.8425C18.3726 22.0756 18.7934 22.9304 19.6332 24.5472C20.0032 25.2601 20.4229 26.0671 20.8724 27.0347C20.9165 27.1295 20.9233 27.2373 20.8917 27.3369C20.8601 27.4365 20.7923 27.5207 20.7016 27.5728C20.6109 27.625 20.5039 27.6413 20.4017 27.6186C20.2996 27.596 20.2096 27.5359 20.1496 27.4503C19.4125 26.3986 17.455 23.6049 16.4448 23.4579C16.3977 23.4484 16.349 23.4494 16.3024 23.4611C16.2558 23.4728 16.2123 23.4947 16.1753 23.5253C16.013 23.6517 16.0426 24.1989 16.6498 25.3333C17.2119 26.3825 18.0807 27.6125 18.8472 28.6977L18.8667 28.7256C18.9217 28.8034 18.9484 28.8976 18.9424 28.9925C18.9365 29.0875 18.8983 29.1776 18.8341 29.248C18.7699 29.3184 18.6836 29.3647 18.5894 29.3795C18.4952 29.3942 18.3988 29.3764 18.3161 29.329C18.1757 29.2487 18.0311 29.1649 17.8835 29.0798C17.1408 28.6498 16.2991 28.1625 15.6043 27.8767C15.1283 27.6805 14.8462 27.6298 14.6819 27.6298L14.6817 27.6301Z" fill="#222433"/>
<path d="M22.8378 35.9606C22.2097 34.414 22.768 32.547 22.768 30.5825C22.754 27.8796 22.9913 26.124 23.5495 25.7618C24.8056 24.9398 24.8056 29.1196 25.8384 32.4913C25.8935 32.6691 25.9355 32.8508 25.9641 33.0347" fill="white"/>
<path d="M22.8379 36.3784C22.7545 36.3785 22.673 36.3536 22.6039 36.3071C22.5347 36.2606 22.481 36.1945 22.4497 36.1173C21.99 34.9854 22.1075 33.7509 22.2319 32.444C22.2895 31.8371 22.3493 31.2094 22.3493 30.5823C22.3286 26.5717 22.8578 25.7119 23.3213 25.4111C23.4391 25.3222 23.578 25.2654 23.7244 25.2462C23.8708 25.2271 24.0196 25.2463 24.1564 25.3019C24.8263 25.5885 25.0581 26.7006 25.4433 28.8063C25.649 29.9304 25.8821 31.2045 26.2388 32.3687C26.2999 32.5658 26.3466 32.7671 26.3784 32.9709C26.3875 33.0255 26.3856 33.0813 26.3729 33.1351C26.3602 33.189 26.3369 33.2398 26.3044 33.2846C26.2719 33.3293 26.2308 33.3673 26.1835 33.3961C26.1362 33.4249 26.0837 33.4441 26.0289 33.4525C25.9742 33.4609 25.9183 33.4583 25.8645 33.445C25.8107 33.4317 25.7601 33.4078 25.7157 33.3748C25.6712 33.3419 25.6337 33.3004 25.6054 33.2528C25.5771 33.2053 25.5585 33.1526 25.5508 33.0978C25.5253 32.9341 25.488 32.7723 25.4391 32.614C25.0966 31.4114 24.8233 30.1902 24.6206 28.9565C24.4136 27.825 24.1312 26.2823 23.8404 26.0786C23.8192 26.0873 23.799 26.0982 23.7801 26.1111C23.6765 26.1783 23.1675 26.7055 23.1876 30.5802C23.1876 31.249 23.1261 31.8967 23.0664 32.523C22.952 33.7252 22.844 34.8609 23.2267 35.8033C23.2525 35.8668 23.2623 35.9357 23.2552 36.0039C23.248 36.0721 23.2242 36.1375 23.1858 36.1943C23.1474 36.2511 23.0955 36.2976 23.0349 36.3297C22.9742 36.3619 22.9066 36.3786 22.8379 36.3784Z" fill="#222433"/>
<path d="M61.9719 67.8663H41.7766C41.6662 67.8663 41.5604 67.8228 41.482 67.7453C41.4036 67.6678 41.359 67.5626 41.3579 67.4525C41.3422 65.8799 41.3988 63.9041 41.9787 62.5724C42.523 61.2605 42.8755 60.2913 42.7961 58.8894C42.7923 58.8342 42.7995 58.7788 42.8173 58.7265C42.8352 58.6741 42.8632 58.6258 42.8999 58.5843C42.9365 58.5428 42.981 58.509 43.0309 58.4849C43.0807 58.4607 43.1348 58.4467 43.1902 58.4435C43.2455 58.4404 43.3009 58.4483 43.3531 58.4667C43.4053 58.4851 43.4534 58.5136 43.4945 58.5507C43.5356 58.5878 43.5689 58.6326 43.5926 58.6827C43.6162 58.7327 43.6296 58.7869 43.6321 58.8421C43.7214 60.4178 43.3227 61.5172 42.7495 62.899C42.275 63.9893 42.1943 65.6978 42.1933 67.0303H61.5483C61.5091 65.8352 61.2434 64.6583 60.7652 63.562C60.1484 62.1367 59.8737 60.5874 59.9628 59.0373C59.9705 58.9278 60.0211 58.8256 60.1036 58.753C60.1862 58.6804 60.2941 58.6431 60.4039 58.6492C60.5138 58.6554 60.6168 58.7045 60.6907 58.7859C60.7646 58.8673 60.8034 58.9744 60.7988 59.0842C60.7171 60.5041 60.9686 61.9235 61.5333 63.2293C62.1136 64.5611 62.4057 66.0002 62.3906 67.4525C62.3895 67.5626 62.3448 67.6678 62.2664 67.7453C62.188 67.8228 62.0822 67.8663 61.9719 67.8663Z" fill="#222433"/>
<path d="M46.4103 36.2251C45.465 36.3111 44.5198 36.0598 43.7426 35.5158C42.9654 34.9718 42.4065 34.1704 42.1652 33.2539C41.924 32.3375 42.016 31.3653 42.4249 30.5102C42.8338 29.655 43.5331 28.9723 44.3986 28.5832C45.2641 28.1941 46.2397 28.124 47.1522 28.3852C48.0646 28.6463 48.8547 29.222 49.3822 30.0098C49.9097 30.7976 50.1403 31.7465 50.0332 32.688C49.926 33.6296 49.488 34.5027 48.7969 35.1522" fill="white"/>
<path d="M46.0354 36.6609C45.2145 36.6577 44.4104 36.4288 43.7114 35.9992C43.0124 35.5696 42.4455 34.956 42.0729 34.2257C41.7031 33.492 41.5449 32.67 41.616 31.8516C41.687 31.0332 41.9846 30.2507 42.4755 29.5914C42.9663 28.9321 43.6311 28.422 44.3956 28.1181C45.1601 27.8142 45.9941 27.7284 46.8046 27.8704C47.6151 28.0123 48.3701 28.3764 48.9852 28.922C49.6004 29.4676 50.0515 30.1731 50.2882 30.9598C50.5249 31.7466 50.5379 32.5835 50.3256 33.3772C50.1134 34.1708 49.6843 34.8899 49.0863 35.4542C49.006 35.5308 48.8985 35.5724 48.7875 35.5699C48.6765 35.5674 48.571 35.521 48.4943 35.4408C48.4175 35.3607 48.3758 35.2534 48.3783 35.1425C48.3809 35.0317 48.4274 34.9264 48.5077 34.8498C49.1372 34.2559 49.5316 33.4556 49.6188 32.5953C49.7059 31.735 49.4799 30.8721 48.9822 30.1645C48.4844 29.4568 47.7481 28.9516 46.9079 28.7413C46.0677 28.5311 45.1798 28.6297 44.4065 29.0192C43.9842 29.2318 43.6081 29.5254 43.2997 29.8834C42.9913 30.2413 42.7567 30.6565 42.6093 31.1051C42.4619 31.5537 42.4047 32.0269 42.4409 32.4977C42.4771 32.9684 42.606 33.4274 42.8202 33.8483C43.1475 34.4921 43.6608 35.0231 44.2937 35.3726C44.9266 35.7221 45.6499 35.874 46.3702 35.8088C46.4807 35.7981 46.591 35.8318 46.6767 35.9023C46.7624 35.9728 46.8165 36.0744 46.8272 36.1848C46.8379 36.2951 46.8042 36.4052 46.7335 36.4907C46.6629 36.5763 46.5611 36.6304 46.4506 36.641C46.3121 36.6543 46.1737 36.6609 46.0354 36.6609Z" fill="#222433"/>
<path d="M54.114 34.7484C53.5472 33.9786 53.2724 33.0331 53.3385 32.08C53.4046 31.127 53.8073 30.2282 54.4749 29.5438C55.1425 28.8593 56.0317 28.4335 56.9843 28.3422C57.9369 28.2509 58.8911 28.4999 59.677 29.0451C60.4629 29.5902 61.0295 30.396 61.2761 31.3191C61.5227 32.2421 61.4332 33.2226 61.0235 34.086C60.6138 34.9494 59.9106 35.6396 59.0389 36.0339C58.1672 36.4282 57.1837 36.5009 56.2633 36.2392" fill="white"/>
<path d="M57.3579 36.8084C56.9493 36.8086 56.5426 36.7523 56.1495 36.6412C56.0441 36.6097 55.9554 36.5381 55.9025 36.4419C55.8495 36.3456 55.8367 36.2324 55.8667 36.1268C55.8967 36.0211 55.9671 35.9315 56.0628 35.8773C56.1584 35.8231 56.2716 35.8086 56.3778 35.837C57.1259 36.0473 57.9217 36.013 58.6488 35.7391C59.3759 35.4652 59.9961 34.9661 60.4184 34.3148C60.6751 33.9181 60.8499 33.4742 60.9327 33.0092C61.0154 32.5442 61.0044 32.0673 60.9004 31.6066C60.7834 31.0847 60.5516 30.5954 60.2216 30.1741C59.8917 29.7528 59.472 29.4101 58.9929 29.1708C58.5138 28.9316 57.9873 28.8018 57.4517 28.791C56.9162 28.7801 56.3849 28.8884 55.8964 29.108C55.408 29.3276 54.9746 29.6529 54.6278 30.0605C54.281 30.4681 54.0294 30.9476 53.8913 31.4643C53.7532 31.981 53.732 32.5219 53.8294 33.0478C53.9267 33.5737 54.1401 34.0713 54.4541 34.5046C54.5177 34.5946 54.5431 34.706 54.5249 34.8147C54.5066 34.9233 54.4462 35.0203 54.3567 35.0847C54.2672 35.1491 54.1558 35.1756 54.0468 35.1585C53.9378 35.1413 53.84 35.082 53.7746 34.9932C53.1795 34.1855 52.8745 33.201 52.9091 32.1988C52.9438 31.1967 53.3159 30.2355 53.9654 29.4706C54.6149 28.7057 55.5038 28.1819 56.4885 27.9837C57.4731 27.7855 58.4959 27.9246 59.3916 28.3785C60.2873 28.8324 61.0034 29.5745 61.4243 30.485C61.8452 31.3954 61.9462 32.421 61.7111 33.3958C61.4759 34.3707 60.9183 35.2379 60.1283 35.8573C59.3384 36.4767 58.3623 36.812 57.3579 36.8091V36.8084Z" fill="#222433"/>
<path d="M46.5776 37.0054C46.2849 36.8788 45.9675 36.8189 45.6487 36.8301C45.3299 36.8412 45.0175 36.9232 44.7344 37.07C44.4513 37.2168 44.2045 37.4247 44.0119 37.6787C43.8194 37.9327 43.686 38.2263 43.6214 38.5381C43.5568 38.85 43.5626 39.1724 43.6385 39.4817C43.7143 39.7911 43.8583 40.0797 44.0598 40.3265C44.2614 40.5734 44.5156 40.7723 44.8038 40.9088C45.0921 41.0453 45.4072 41.1159 45.7262 41.1156C45.9541 41.1148 46.1804 41.0772 46.3962 41.0041C46.283 41.4315 46.2267 41.8718 46.2287 42.3138C46.2296 43.1513 46.427 43.977 46.8051 44.7246C47.1831 45.4722 47.7314 46.121 48.4059 46.619V50.5063C48.4055 50.9199 48.4868 51.3296 48.6452 51.7118C48.8035 52.094 49.0358 52.4413 49.3288 52.7338C49.6218 53.0262 49.9697 53.2582 50.3526 53.4163C50.7354 53.5743 51.1458 53.6555 51.5601 53.6551C52.6487 53.6551 54.7981 52.8888 54.7702 50.6317L54.7143 46.633C55.3929 46.1379 55.945 45.49 56.3257 44.742C56.7064 43.9939 56.9051 43.1668 56.9055 42.3277C56.9075 41.8857 56.8512 41.4454 56.738 41.0181C56.9587 41.0911 57.1895 41.1288 57.4219 41.1295C57.992 41.1295 58.5386 40.9035 58.9417 40.5011C59.3448 40.0987 59.5712 39.5529 59.5712 38.9839C59.5712 38.4148 59.3448 37.8691 58.9417 37.4667C58.5386 37.0643 57.992 36.8382 57.4219 36.8382C57.1243 36.8404 56.8301 36.902 56.5566 37.0194V36.9776L51.5601 33.1042L46.5776 37.0054Z" fill="white"/>
<path d="M51.5601 54.0727C50.6128 54.0717 49.7047 53.6955 49.0349 53.0269C48.3651 52.3582 47.9883 51.4516 47.9872 50.5059V46.8236C47.3108 46.2812 46.7642 45.5947 46.3875 44.8144C46.0109 44.0341 45.8135 43.1797 45.81 42.3135C45.8094 42.0512 45.8272 41.7892 45.8631 41.5293C45.8174 41.532 45.7719 41.5332 45.7262 41.5332C45.0451 41.5332 44.392 41.2631 43.9104 40.7824C43.4288 40.3016 43.1582 39.6495 43.1582 38.9696C43.1582 38.2897 43.4288 37.6376 43.9104 37.1568C44.392 36.6761 45.0451 36.406 45.7262 36.406C45.9904 36.4063 46.2529 36.4486 46.5038 36.5314L51.3016 32.7747C51.3751 32.7171 51.4657 32.6858 51.5591 32.6855C51.6524 32.6853 51.7432 32.7162 51.8169 32.7734L56.6683 36.5344C57.0275 36.4241 57.4065 36.3939 57.7787 36.4459C58.1509 36.4979 58.5071 36.6308 58.8222 36.8353C59.1373 37.0398 59.4036 37.3108 59.6022 37.6292C59.8009 37.9477 59.9271 38.3058 59.972 38.6783C60.0168 39.0508 59.9792 39.4286 59.8618 39.7849C59.7443 40.1413 59.55 40.4676 59.2924 40.7408C59.0348 41.014 58.7203 41.2274 58.371 41.3659C58.0218 41.5044 57.6463 41.5648 57.2712 41.5426C57.407 42.5342 57.2815 43.5441 56.9071 44.4726C56.5326 45.4011 55.9221 46.216 55.1358 46.837L55.1887 50.6256C55.2031 51.0522 55.1306 51.4773 54.9757 51.8752C54.8209 52.2731 54.5868 52.6355 54.2877 52.9405C53.5518 53.6444 52.5789 54.0482 51.5601 54.0727ZM46.3961 40.5858C46.4603 40.5858 46.5237 40.6005 46.5813 40.6288C46.6389 40.6571 46.6892 40.6983 46.7283 40.7491C46.7674 40.7999 46.7943 40.859 46.8069 40.9218C46.8195 40.9847 46.8174 41.0496 46.8009 41.1115C46.6968 41.5036 46.6452 41.9078 46.6474 42.3135C46.6458 43.0863 46.8268 43.8486 47.1758 44.5384C47.5248 45.2282 48.032 45.8261 48.656 46.2835C48.7083 46.3224 48.7508 46.3729 48.7801 46.4311C48.8094 46.4893 48.8246 46.5536 48.8246 46.6187V50.5059C48.8255 51.2299 49.1139 51.924 49.6268 52.436C50.1396 52.9479 50.8349 53.2359 51.5601 53.2368C52.3553 53.2134 53.114 52.8988 53.6919 52.353C53.9137 52.1272 54.0867 51.8584 54.2002 51.5631C54.3136 51.2678 54.3651 50.9524 54.3514 50.6365L54.2956 46.6385C54.2947 46.572 54.3097 46.5063 54.3393 46.4467C54.3689 46.3872 54.4123 46.3356 54.4659 46.2961C55.0934 45.8415 55.6038 45.2447 55.9551 44.5547C56.3064 43.8648 56.4887 43.1014 56.4868 42.3274C56.4889 41.9217 56.4373 41.5176 56.3333 41.1254C56.3138 41.0525 56.3145 40.9757 56.3352 40.9031C56.3559 40.8305 56.3959 40.7649 56.451 40.7132C56.5061 40.6615 56.5741 40.6257 56.648 40.6095C56.7218 40.5933 56.7986 40.5973 56.8703 40.6212C57.0482 40.6803 57.2343 40.7107 57.4218 40.7112C57.8808 40.7112 58.321 40.5292 58.6455 40.2052C58.9701 39.8812 59.1524 39.4417 59.1524 38.9835C59.1524 38.5253 58.9701 38.0859 58.6455 37.7619C58.321 37.4379 57.8808 37.2559 57.4218 37.2559C57.1799 37.2579 56.9409 37.3083 56.7189 37.4043C56.624 37.4441 56.5178 37.4477 56.4204 37.4142C56.3231 37.3808 56.2415 37.3128 56.1912 37.2231L51.5614 33.6334L46.8361 37.3339C46.7773 37.3799 46.7073 37.4094 46.6333 37.4193C46.5593 37.4293 46.484 37.4192 46.4151 37.3903C46.1979 37.2948 45.9636 37.2443 45.7262 37.2419C45.2672 37.2419 44.827 37.424 44.5025 37.748C44.1779 38.072 43.9956 38.5114 43.9956 38.9696C43.9956 39.4278 44.1779 39.8672 44.5025 40.1912C44.827 40.5152 45.2672 40.6973 45.7262 40.6973C45.9091 40.6967 46.0907 40.6663 46.2637 40.6073C46.3064 40.593 46.3511 40.5858 46.3961 40.5858Z" fill="#222433"/>
<path d="M48.4197 46.6331C49.3065 47.2813 50.3716 47.6412 51.4703 47.6636C52.569 47.6861 53.648 47.3701 54.5606 46.7585" fill="white"/>
<path d="M51.5741 48.0818C50.3515 48.0777 49.1614 47.6888 48.173 46.9704C48.1286 46.9381 48.091 46.8973 48.0624 46.8504C48.0338 46.8035 48.0147 46.7515 48.0062 46.6973C47.9977 46.643 48.0001 46.5877 48.013 46.5343C48.026 46.481 48.0493 46.4307 48.0818 46.3864C48.1142 46.342 48.155 46.3045 48.202 46.2759C48.2489 46.2474 48.3011 46.2283 48.3554 46.2198C48.4097 46.2114 48.4652 46.2137 48.5186 46.2266C48.572 46.2396 48.6224 46.2629 48.6668 46.2952C49.5116 46.9095 50.529 47.2421 51.5741 47.2459C52.5547 47.248 53.5135 46.9574 54.3272 46.4113C54.4194 46.3494 54.5324 46.3267 54.6414 46.348C54.7504 46.3693 54.8464 46.433 54.9084 46.525C54.9703 46.617 54.9932 46.7298 54.9718 46.8386C54.9504 46.9474 54.8867 47.0433 54.7945 47.1052C53.8426 47.7439 52.7211 48.0841 51.5741 48.0818Z" fill="#222433"/>
<path d="M56.9334 37.3817C56.9334 34.4837 54.5886 32.1151 51.6438 32.0037H51.4344C48.5314 32.1151 46.2007 34.4837 46.2007 37.3678C48.8804 37.2702 51.1413 36.2114 51.56 33.6199C52.0067 36.2253 54.2258 37.2842 56.9334 37.3817Z" fill="white"/>
<path d="M56.9336 37.7995C56.9286 37.7995 56.9236 37.7995 56.9184 37.7995C54.2527 37.7035 52.4016 36.7266 51.5649 35.0105C50.7415 36.7156 48.8915 37.6881 46.2161 37.7855C46.1599 37.7876 46.1038 37.7783 46.0512 37.7582C45.9987 37.7381 45.9507 37.7076 45.9102 37.6686C45.8697 37.6296 45.8375 37.5828 45.8155 37.5311C45.7935 37.4794 45.7822 37.4237 45.7822 37.3675C45.7863 35.862 46.3766 34.417 47.4284 33.338C48.4803 32.259 49.9111 31.6305 51.4186 31.5854H51.4347H51.644C51.6493 31.5854 51.6546 31.5854 51.6599 31.5854C54.8518 31.7064 57.3523 34.2522 57.3523 37.3815C57.3523 37.4923 57.3082 37.5987 57.2297 37.677C57.1511 37.7554 57.0446 37.7995 56.9336 37.7995ZM51.5603 33.2017C51.6591 33.2017 51.7547 33.2365 51.8302 33.3001C51.9058 33.3637 51.9563 33.4519 51.973 33.5491C52.4001 36.0409 54.5752 36.7838 56.4949 36.9376C56.2733 34.469 54.22 32.5228 51.6358 32.4214H51.4426C50.2303 32.4592 49.0734 32.9374 48.1891 33.7661C47.3047 34.5948 46.7537 35.7172 46.6393 36.9227C48.3173 36.7824 50.7313 36.1249 51.1473 33.553C51.1631 33.4554 51.2131 33.3665 51.2883 33.3022C51.3636 33.2378 51.4593 33.2022 51.5583 33.2017H51.5603Z" fill="#222433"/>
<path d="M49.5165 39.3609C49.5561 39.1177 49.3907 38.8886 49.1472 38.8491C48.9038 38.8097 48.6743 38.9749 48.6348 39.2181C48.5953 39.4613 48.7606 39.6904 49.0041 39.7299C49.2476 39.7693 49.477 39.6041 49.5165 39.3609Z" fill="#222433"/>
<path d="M54.0863 39.7226C54.3329 39.7226 54.5329 39.5228 54.5329 39.2764C54.5329 39.0301 54.3329 38.8303 54.0863 38.8303C53.8396 38.8303 53.6396 39.0301 53.6396 39.2764C53.6396 39.5228 53.8396 39.7226 54.0863 39.7226Z" fill="#222433"/>
<path d="M51.4903 41.8394C51.3918 41.8395 51.2965 41.8049 51.221 41.7417C51.1455 41.6786 51.0947 41.5908 51.0776 41.494C51.0605 41.3972 51.0782 41.2974 51.1275 41.2123C51.1768 41.1271 51.2545 41.0621 51.3471 41.0285L52.1393 40.741L51.4485 39.3188C51.4245 39.2694 51.4105 39.2158 51.4073 39.161C51.404 39.1062 51.4117 39.0513 51.4297 38.9994C51.4477 38.9476 51.4758 38.8998 51.5124 38.8588C51.5489 38.8177 51.5932 38.7843 51.6427 38.7604C51.6922 38.7364 51.7459 38.7224 51.8008 38.7192C51.8557 38.716 51.9107 38.7236 51.9626 38.7416C52.0146 38.7596 52.0625 38.7877 52.1036 38.8241C52.1446 38.8606 52.1781 38.9048 52.2021 38.9542L53.0954 40.7934C53.1209 40.846 53.1351 40.9034 53.1371 40.9619C53.139 41.0203 53.1286 41.0786 53.1066 41.1328C53.0846 41.187 53.0514 41.236 53.0092 41.2766C52.967 41.3172 52.9168 41.3485 52.8617 41.3685L51.6335 41.8143C51.5876 41.831 51.5392 41.8395 51.4903 41.8394Z" fill="#222433"/>
<path d="M51.9789 44.5708C51.2373 44.5708 50.1646 43.8563 50.1646 42.5645C50.1646 42.4536 50.2087 42.3473 50.2872 42.2689C50.3657 42.1905 50.4722 42.1465 50.5833 42.1465H53.3467C53.4548 42.1464 53.5588 42.1881 53.6368 42.2628C53.7149 42.3375 53.7609 42.4395 53.7654 42.5473C53.7801 42.8137 53.7404 43.0802 53.6485 43.3307C53.5566 43.5812 53.4145 43.8103 53.231 44.0041C53.07 44.1763 52.8765 44.315 52.6616 44.4123C52.4467 44.5095 52.2147 44.5634 51.9789 44.5708ZM51.0699 42.9825C51.2522 43.5063 51.7538 43.7348 51.9789 43.7348C52.2265 43.7184 52.4583 43.6075 52.6264 43.4252C52.7463 43.3005 52.8341 43.1486 52.8822 42.9825H51.0699Z" fill="#222433"/>
<path d="M45.0982 39.9727C44.9924 39.9728 44.8905 39.9329 44.813 39.861C44.7355 39.7892 44.6881 39.6907 44.6803 39.5854C44.6726 39.4801 44.705 39.3757 44.7712 39.2933C44.8373 39.2109 44.9323 39.1566 45.0369 39.1412L45.3382 39.0963L44.9395 38.7587C44.8548 38.687 44.8021 38.5847 44.793 38.4742C44.7839 38.3637 44.8192 38.2541 44.891 38.1696C44.9628 38.0851 45.0654 38.0325 45.176 38.0234C45.2867 38.0143 45.3965 38.0495 45.4811 38.1212L46.5837 39.0547C46.6451 39.1067 46.6901 39.1752 46.7135 39.252C46.7369 39.3289 46.7376 39.4109 46.7155 39.4881C46.6934 39.5654 46.6495 39.6346 46.589 39.6876C46.5285 39.7406 46.454 39.775 46.3744 39.7869L45.1601 39.968C45.1396 39.971 45.1189 39.9726 45.0982 39.9727Z" fill="#222433"/>
<path d="M58.1335 39.8613C58.1113 39.8613 58.0891 39.8595 58.0672 39.8561L56.839 39.6611C56.7599 39.6485 56.6861 39.6135 56.6262 39.5603C56.5664 39.5071 56.5232 39.4379 56.5016 39.3609C56.48 39.2838 56.481 39.2023 56.5045 39.1258C56.5279 39.0493 56.5729 38.9812 56.634 38.9294L57.7366 37.996C57.7784 37.9596 57.827 37.932 57.8797 37.9145C57.9323 37.8971 57.9878 37.8903 58.0431 37.8945C58.0984 37.8987 58.1523 37.9138 58.2016 37.9389C58.251 37.9641 58.2949 37.9988 58.3308 38.041C58.3666 38.0832 58.3937 38.1321 58.4105 38.1848C58.4273 38.2376 58.4334 38.2931 58.4285 38.3482C58.4236 38.4034 58.4078 38.457 58.3819 38.5059C58.3561 38.5549 58.3208 38.5983 58.2781 38.6335L57.8707 38.9783L58.1988 39.0305C58.3029 39.0469 58.3969 39.1019 58.4621 39.1845C58.5273 39.2671 58.5589 39.3712 58.5507 39.476C58.5425 39.5808 58.4949 39.6787 58.4176 39.7501C58.3403 39.8215 58.2388 39.8612 58.1335 39.8613Z" fill="#222433"/>
<path d="M51.3103 2.6298L49.9442 2.1952C49.3203 1.99651 48.6541 2.33865 48.4558 2.95951C48.4 3.13427 48.386 3.31973 48.4148 3.50112L49.0331 7.41222L51.8018 4.57986C52.2582 4.11267 52.2471 3.3647 51.7771 2.90901C51.6452 2.78126 51.4854 2.68575 51.3103 2.6298Z" fill="white"/>
<path d="M52.435 4.19471C52.4785 4.04754 52.5 3.89311 52.4976 3.73515C52.4915 3.32353 52.3249 2.93856 52.0283 2.65127C51.8573 2.48549 51.6467 2.35948 51.4196 2.28706C51.4195 2.28703 51.4194 2.28699 51.4194 2.28699L50.0532 1.85239C49.6598 1.72711 49.2411 1.76173 48.8744 1.94998C48.5076 2.13834 48.2368 2.45774 48.1119 2.84941C48.039 3.07748 48.0209 3.32068 48.0583 3.55607L48.6763 7.46684C48.6976 7.60143 48.7934 7.71264 48.9237 7.75411C49.054 7.79558 49.1965 7.76021 49.2918 7.6627L52.0605 4.83045C52.238 4.6488 52.3651 4.43125 52.435 4.19471ZM51.201 2.97184C51.3221 3.01047 51.4343 3.07757 51.5253 3.16604C51.6836 3.31942 51.7725 3.52467 51.7757 3.74422C51.7789 3.96388 51.6961 4.17127 51.5426 4.32854L49.2771 6.6462L48.7712 3.44554C48.7512 3.31998 48.7609 3.19119 48.7997 3.0686C48.8663 2.85981 49.0106 2.68958 49.2062 2.58919C49.4017 2.48877 49.6248 2.47035 49.8346 2.53716L51.201 2.97184Z" fill="#222433"/>
<path d="M44.225 5.13679L43.7914 6.49645C43.5953 7.11868 43.943 7.78235 44.5682 7.97884C44.7422 8.03354 44.9264 8.04756 45.1065 8.0199L49.034 7.41143L46.1808 4.64724C45.7097 4.19284 44.9586 4.20404 44.5032 4.67231C44.3755 4.80362 44.2803 4.96251 44.225 5.13679Z" fill="white"/>
<path d="M49.3801 7.51346C49.4179 7.38572 49.3816 7.24722 49.2853 7.15398L46.432 4.38979C45.818 3.79753 44.8365 3.81218 44.2434 4.42195C44.0779 4.59206 43.9525 4.80148 43.8807 5.02737L43.4472 6.38703C43.1917 7.19846 43.6459 8.06567 44.46 8.32163C44.6857 8.39261 44.9285 8.41104 45.1621 8.37519L49.0899 7.76644C49.225 7.74548 49.3365 7.65035 49.3778 7.52067C49.3787 7.51829 49.3794 7.51588 49.3801 7.51346ZM44.1313 6.61875C44.1326 6.61404 44.134 6.60933 44.1355 6.60465L44.5688 5.24614C44.5688 5.24603 44.5689 5.24591 44.5689 5.2458C44.6072 5.1252 44.6741 5.01355 44.7625 4.92271C45.0788 4.59739 45.6024 4.58962 45.9297 4.90528L48.2641 7.16692L45.0502 7.66482C44.926 7.68386 44.7965 7.67401 44.676 7.63621C44.2465 7.50098 44.0046 7.04677 44.1313 6.61875ZM44.2248 5.13664L44.2245 5.13779L44.2248 5.13664Z" fill="#222433"/>
<path d="M89.7356 25.0676H91.1694C91.8243 25.0675 92.3553 25.598 92.3555 26.2525C92.3555 26.4368 92.3125 26.6186 92.23 26.7834L90.4519 30.3387L88.6739 26.7834C88.3806 26.1981 88.6177 25.4861 89.2032 25.193C89.3685 25.1103 89.5508 25.0674 89.7356 25.0676Z" fill="#0782D0"/>
<path d="M95.7261 29.6217V31.0546C95.727 31.7092 95.1966 32.2405 94.5417 32.2412C94.3569 32.2415 94.1745 32.1985 94.0094 32.1158L90.4519 30.3388L94.0094 28.5605C94.596 28.2681 95.3088 28.5064 95.6014 29.0928C95.6834 29.257 95.7261 29.4381 95.7261 29.6217Z" fill="#0782D0"/>
<path d="M133.753 137.743H0.247172C0.107108 137.743 0 137.582 0 137.372C0 137.161 0.107108 137 0.247172 137H133.753C133.893 137 134 137.161 134 137.372C134 137.582 133.893 137.743 133.753 137.743Z" fill="#222433"/>
</svg>
