<svg xmlns="http://www.w3.org/2000/svg" xmlns:xlink="http://www.w3.org/1999/xlink" width="1200" zoomAndPan="magnify" viewBox="0 0 900 899.99999" height="1200" preserveAspectRatio="xMidYMid meet" version="1.2"><defs><clipPath id="0685becace"><path d="M 457 35.804688 L 630 35.804688 L 630 208 L 457 208 Z M 457 35.804688 "/></clipPath></defs><g id="5880371700"><path style=" stroke:none;fill-rule:evenodd;fill:#113c7b;fill-opacity:1;" d="M 525.226562 187.941406 C 574.21875 193.554688 609.945312 238.972656 603.820312 287.964844 L 574.21875 539.5625 C 573.710938 542.113281 571.160156 544.152344 568.605469 544.152344 L 484.402344 533.949219 C 435.410156 528.332031 399.6875 482.914062 405.808594 433.921875 L 425.714844 266.53125 C 431.328125 217.539062 476.746094 181.816406 525.738281 187.941406 Z M 525.226562 187.941406 "/><path style=" stroke:none;fill-rule:nonzero;fill:#113c7b;fill-opacity:1;" d="M 525.738281 186.410156 C 550.746094 189.472656 572.179688 202.230469 586.46875 220.601562 C 600.757812 238.972656 608.414062 262.960938 605.351562 287.964844 L 575.75 539.5625 C 575.75 541.09375 574.730469 542.625 573.199219 543.644531 C 571.667969 544.664062 570.136719 545.175781 568.605469 545.175781 L 484.402344 534.96875 C 459.394531 531.90625 437.960938 519.148438 423.671875 500.777344 C 409.382812 482.402344 401.726562 458.417969 404.789062 433.410156 L 424.691406 266.023438 C 427.753906 241.015625 440.511719 219.582031 458.886719 205.292969 C 477.257812 191.003906 501.242188 183.347656 526.25 186.410156 Z M 584.425781 222.132812 C 570.136719 204.273438 549.722656 192.023438 525.226562 188.960938 C 501.242188 185.898438 477.765625 193.554688 459.90625 207.332031 C 442.042969 221.625 429.796875 242.035156 426.734375 266.53125 L 406.832031 433.921875 C 403.769531 457.90625 411.421875 481.382812 425.203125 499.246094 C 439.492188 517.105469 459.90625 529.355469 484.402344 532.417969 L 568.605469 542.625 C 569.628906 542.625 570.648438 542.625 571.160156 541.601562 C 571.667969 541.09375 572.6875 540.070312 572.6875 539.050781 L 602.289062 287.457031 C 605.351562 263.46875 597.695312 239.996094 583.917969 222.132812 Z M 584.425781 222.132812 "/><path style=" stroke:none;fill-rule:nonzero;fill:#113c7b;fill-opacity:1;" d="M 453.78125 521.699219 C 436.429688 503.328125 436.941406 474.75 454.800781 457.398438 C 473.175781 440.046875 501.753906 440.554688 519.105469 458.417969 L 684.960938 631.421875 C 689.554688 636.523438 693.128906 642.136719 695.167969 647.753906 L 748.753906 797.789062 C 756.917969 821.777344 744.671875 847.804688 720.6875 855.96875 C 696.699219 864.132812 670.671875 851.886719 662.507812 827.898438 L 612.496094 687.046875 L 453.78125 521.1875 Z M 453.78125 521.699219 "/><path style=" stroke:none;fill-rule:nonzero;fill:#113c7b;fill-opacity:1;" d="M 403.769531 442.597656 C 407.339844 417.589844 430.304688 400.238281 454.800781 403.300781 C 479.808594 406.875 497.160156 429.839844 494.097656 454.335938 L 461.4375 692.660156 C 459.90625 703.890625 454.800781 713.074219 447.148438 720.21875 L 317.011719 840.660156 C 298.640625 857.5 269.550781 856.480469 252.710938 838.105469 C 235.867188 819.734375 236.890625 790.644531 255.261719 773.804688 L 373.148438 664.59375 L 403.769531 443.109375 Z M 403.769531 442.597656 "/><path style=" stroke:none;fill-rule:nonzero;fill:#113c7b;fill-opacity:1;" d="M 320.585938 431.878906 C 306.804688 453.316406 278.738281 459.4375 257.304688 445.660156 C 235.867188 431.878906 229.746094 403.8125 243.523438 382.378906 L 305.785156 285.925781 C 310.886719 277.761719 318.03125 272.144531 326.707031 268.574219 L 477.765625 193.042969 C 500.222656 181.816406 527.78125 191.003906 539.007812 213.457031 C 550.234375 235.914062 541.046875 263.46875 518.59375 274.699219 L 376.210938 346.144531 Z M 320.585938 431.878906 "/><path style=" stroke:none;fill-rule:nonzero;fill:#113c7b;fill-opacity:1;" d="M 772.738281 356.863281 C 796.726562 364.515625 809.996094 390.542969 801.828125 414.53125 C 794.175781 438.515625 768.148438 451.785156 744.160156 443.617188 L 637.5 408.914062 C 628.316406 405.855469 621.171875 400.238281 615.558594 393.605469 L 503.792969 267.042969 C 486.953125 248.160156 488.996094 219.582031 507.875 202.742188 C 526.757812 185.898438 555.339844 187.941406 572.179688 206.824219 L 677.308594 326.242188 L 772.230469 356.863281 Z M 772.738281 356.863281 "/><g clip-rule="nonzero" clip-path="url(#0685becace)"><path style=" stroke:none;fill-rule:nonzero;fill:#113c7b;fill-opacity:1;" d="M 629.335938 121.597656 C 629.335938 123 629.300781 124.402344 629.234375 125.804688 C 629.164062 127.207031 629.0625 128.605469 628.921875 130 C 628.785156 131.398438 628.613281 132.789062 628.410156 134.179688 C 628.203125 135.566406 627.960938 136.949219 627.6875 138.324219 C 627.414062 139.699219 627.109375 141.070312 626.765625 142.429688 C 626.425781 143.792969 626.050781 145.144531 625.644531 146.484375 C 625.238281 147.828125 624.796875 149.160156 624.324219 150.480469 C 623.851562 151.800781 623.347656 153.109375 622.808594 154.40625 C 622.273438 155.703125 621.703125 156.984375 621.105469 158.253906 C 620.503906 159.523438 619.875 160.777344 619.210938 162.011719 C 618.550781 163.25 617.859375 164.472656 617.136719 165.675781 C 616.417969 166.878906 615.667969 168.0625 614.886719 169.230469 C 614.109375 170.398438 613.300781 171.542969 612.464844 172.671875 C 611.628906 173.796875 610.765625 174.902344 609.875 175.988281 C 608.984375 177.074219 608.070312 178.136719 607.125 179.175781 C 606.183594 180.214844 605.21875 181.230469 604.226562 182.222656 C 603.234375 183.214844 602.214844 184.183594 601.175781 185.125 C 600.136719 186.066406 599.074219 186.984375 597.992188 187.871094 C 596.90625 188.761719 595.800781 189.625 594.671875 190.460938 C 593.546875 191.296875 592.398438 192.105469 591.234375 192.882812 C 590.066406 193.664062 588.882812 194.414062 587.675781 195.136719 C 586.472656 195.855469 585.253906 196.546875 584.015625 197.210938 C 582.777344 197.871094 581.527344 198.503906 580.257812 199.101562 C 578.988281 199.703125 577.707031 200.269531 576.410156 200.808594 C 575.113281 201.34375 573.804688 201.847656 572.484375 202.320312 C 571.164062 202.792969 569.832031 203.234375 568.488281 203.640625 C 567.144531 204.050781 565.792969 204.421875 564.433594 204.765625 C 563.070312 205.105469 561.703125 205.414062 560.328125 205.6875 C 558.949219 205.960938 557.566406 206.199219 556.179688 206.40625 C 554.792969 206.613281 553.398438 206.785156 552.003906 206.921875 C 550.609375 207.058594 549.207031 207.160156 547.808594 207.230469 C 546.40625 207.300781 545.003906 207.332031 543.601562 207.332031 C 542.195312 207.332031 540.792969 207.300781 539.394531 207.230469 C 537.992188 207.160156 536.59375 207.058594 535.195312 206.921875 C 533.800781 206.785156 532.40625 206.613281 531.019531 206.40625 C 529.632812 206.199219 528.25 205.960938 526.875 205.6875 C 525.496094 205.414062 524.128906 205.105469 522.769531 204.765625 C 521.40625 204.421875 520.054688 204.050781 518.710938 203.640625 C 517.371094 203.234375 516.039062 202.792969 514.714844 202.320312 C 513.394531 201.847656 512.085938 201.34375 510.789062 200.808594 C 509.492188 200.269531 508.210938 199.703125 506.941406 199.101562 C 505.675781 198.503906 504.421875 197.871094 503.183594 197.210938 C 501.945312 196.546875 500.726562 195.855469 499.523438 195.136719 C 498.320312 194.414062 497.132812 193.664062 495.96875 192.882812 C 494.800781 192.105469 493.652344 191.296875 492.527344 190.460938 C 491.398438 189.625 490.292969 188.761719 489.210938 187.871094 C 488.125 186.984375 487.0625 186.066406 486.023438 185.125 C 484.984375 184.183594 483.96875 183.214844 482.976562 182.222656 C 481.984375 181.230469 481.015625 180.214844 480.074219 179.175781 C 479.132812 178.136719 478.214844 177.074219 477.324219 175.988281 C 476.433594 174.902344 475.570312 173.796875 474.734375 172.671875 C 473.902344 171.542969 473.09375 170.398438 472.3125 169.230469 C 471.535156 168.0625 470.785156 166.878906 470.0625 165.675781 C 469.339844 164.472656 468.648438 163.25 467.988281 162.011719 C 467.328125 160.777344 466.695312 159.523438 466.09375 158.253906 C 465.496094 156.984375 464.925781 155.703125 464.390625 154.40625 C 463.851562 153.109375 463.347656 151.800781 462.875 150.480469 C 462.402344 149.160156 461.964844 147.828125 461.554688 146.484375 C 461.148438 145.144531 460.773438 143.792969 460.433594 142.429688 C 460.09375 141.070312 459.785156 139.699219 459.511719 138.324219 C 459.238281 136.949219 458.996094 135.566406 458.792969 134.179688 C 458.585938 132.789062 458.414062 131.398438 458.277344 130 C 458.140625 128.605469 458.035156 127.207031 457.96875 125.804688 C 457.898438 124.402344 457.863281 123 457.863281 121.597656 C 457.863281 120.195312 457.898438 118.792969 457.96875 117.390625 C 458.035156 115.988281 458.140625 114.589844 458.277344 113.195312 C 458.414062 111.796875 458.585938 110.40625 458.792969 109.019531 C 458.996094 107.628906 459.238281 106.246094 459.511719 104.871094 C 459.785156 103.496094 460.09375 102.125 460.433594 100.765625 C 460.773438 99.40625 461.148438 98.050781 461.554688 96.710938 C 461.964844 95.367188 462.402344 94.035156 462.875 92.714844 C 463.347656 91.394531 463.851562 90.085938 464.390625 88.789062 C 464.925781 87.492188 465.496094 86.210938 466.09375 84.941406 C 466.695312 83.671875 467.328125 82.417969 467.988281 81.183594 C 468.648438 79.945312 469.339844 78.722656 470.0625 77.519531 C 470.785156 76.316406 471.535156 75.132812 472.3125 73.964844 C 473.09375 72.796875 473.902344 71.652344 474.738281 70.523438 C 475.570312 69.398438 476.433594 68.292969 477.324219 67.207031 C 478.214844 66.121094 479.132812 65.0625 480.074219 64.019531 C 481.015625 62.980469 481.984375 61.964844 482.976562 60.972656 C 483.96875 59.980469 484.984375 59.015625 486.023438 58.070312 C 487.0625 57.128906 488.125 56.214844 489.210938 55.324219 C 490.292969 54.433594 491.398438 53.570312 492.527344 52.734375 C 493.652344 51.898438 494.800781 51.089844 495.96875 50.3125 C 497.132812 49.53125 498.320312 48.78125 499.523438 48.058594 C 500.726562 47.339844 501.945312 46.648438 503.183594 45.984375 C 504.421875 45.324219 505.675781 44.691406 506.941406 44.09375 C 508.210938 43.492188 509.492188 42.925781 510.789062 42.386719 C 512.085938 41.851562 513.394531 41.347656 514.714844 40.875 C 516.039062 40.402344 517.371094 39.960938 518.710938 39.554688 C 520.054688 39.144531 521.40625 38.773438 522.769531 38.429688 C 524.128906 38.089844 525.496094 37.78125 526.875 37.507812 C 528.25 37.234375 529.632812 36.996094 531.019531 36.789062 C 532.40625 36.582031 533.800781 36.410156 535.195312 36.273438 C 536.59375 36.136719 537.992188 36.035156 539.394531 35.964844 C 540.792969 35.894531 542.195312 35.863281 543.601562 35.863281 C 545.003906 35.863281 546.40625 35.894531 547.808594 35.964844 C 549.207031 36.035156 550.609375 36.136719 552.003906 36.273438 C 553.398438 36.410156 554.792969 36.582031 556.179688 36.789062 C 557.566406 36.996094 558.949219 37.234375 560.328125 37.507812 C 561.703125 37.78125 563.070312 38.089844 564.433594 38.429688 C 565.792969 38.773438 567.144531 39.144531 568.488281 39.554688 C 569.832031 39.960938 571.164062 40.402344 572.484375 40.875 C 573.804688 41.347656 575.113281 41.851562 576.410156 42.386719 C 577.707031 42.925781 578.988281 43.492188 580.257812 44.09375 C 581.527344 44.691406 582.777344 45.324219 584.015625 45.984375 C 585.253906 46.648438 586.472656 47.339844 587.675781 48.058594 C 588.882812 48.78125 590.066406 49.53125 591.234375 50.3125 C 592.398438 51.089844 593.546875 51.898438 594.671875 52.734375 C 595.800781 53.570312 596.90625 54.433594 597.992188 55.324219 C 599.074219 56.214844 600.136719 57.128906 601.175781 58.070312 C 602.214844 59.015625 603.234375 59.980469 604.226562 60.972656 C 605.21875 61.964844 606.183594 62.980469 607.125 64.019531 C 608.070312 65.0625 608.984375 66.121094 609.875 67.207031 C 610.765625 68.292969 611.628906 69.398438 612.464844 70.523438 C 613.300781 71.652344 614.109375 72.796875 614.886719 73.964844 C 615.667969 75.132812 616.417969 76.316406 617.136719 77.519531 C 617.859375 78.722656 618.550781 79.945312 619.210938 81.183594 C 619.875 82.417969 620.503906 83.671875 621.105469 84.941406 C 621.703125 86.210938 622.273438 87.492188 622.808594 88.789062 C 623.347656 90.085938 623.851562 91.394531 624.324219 92.714844 C 624.796875 94.035156 625.238281 95.367188 625.644531 96.710938 C 626.050781 98.050781 626.425781 99.40625 626.765625 100.765625 C 627.109375 102.125 627.414062 103.496094 627.6875 104.871094 C 627.960938 106.246094 628.203125 107.628906 628.410156 109.019531 C 628.613281 110.40625 628.785156 111.796875 628.921875 113.195312 C 629.0625 114.589844 629.164062 115.988281 629.234375 117.390625 C 629.300781 118.792969 629.335938 120.195312 629.335938 121.597656 Z M 629.335938 121.597656 "/></g><path style=" stroke:none;fill-rule:evenodd;fill:#113c7b;fill-opacity:1;" d="M 177.660156 422.433594 L 318.550781 503.777344 C 319.65625 504.417969 320.730469 505.101562 321.773438 505.832031 C 322.820312 506.5625 323.828125 507.339844 324.804688 508.15625 C 325.777344 508.972656 326.710938 509.828125 327.605469 510.722656 C 328.5 511.617188 329.347656 512.546875 330.152344 513.511719 C 330.957031 514.476562 331.714844 515.472656 332.421875 516.496094 C 333.132812 517.523438 333.789062 518.570312 334.394531 519.648438 C 334.996094 520.722656 335.546875 521.816406 336.042969 522.929688 C 336.539062 524.046875 336.980469 525.175781 337.359375 526.320312 C 337.742188 527.464844 338.066406 528.617188 338.328125 529.777344 C 338.59375 530.941406 338.796875 532.105469 338.941406 533.277344 C 339.085938 534.445312 339.167969 535.613281 339.191406 536.777344 C 339.214844 537.941406 339.175781 539.097656 339.074219 540.246094 C 338.976562 541.398438 338.816406 542.53125 338.597656 543.65625 C 338.375 544.777344 338.097656 545.882812 337.757812 546.96875 C 337.417969 548.054688 337.019531 549.113281 336.566406 550.152344 C 336.113281 551.1875 335.601562 552.199219 335.035156 553.175781 L 290.113281 630.988281 C 289.546875 631.964844 288.929688 632.910156 288.257812 633.824219 C 287.585938 634.738281 286.867188 635.609375 286.097656 636.445312 C 285.324219 637.285156 284.507812 638.078125 283.648438 638.828125 C 282.785156 639.582031 281.882812 640.289062 280.933594 640.949219 C 279.988281 641.609375 279.007812 642.222656 277.988281 642.785156 C 276.96875 643.347656 275.914062 643.859375 274.832031 644.320312 C 273.746094 644.777344 272.636719 645.183594 271.496094 645.539062 C 270.359375 645.890625 269.199219 646.1875 268.015625 646.429688 C 266.835938 646.667969 265.636719 646.855469 264.421875 646.980469 C 263.210938 647.109375 261.988281 647.179688 260.753906 647.195312 C 259.519531 647.207031 258.28125 647.164062 257.039062 647.0625 C 255.800781 646.960938 254.558594 646.804688 253.320312 646.589844 C 252.082031 646.375 250.855469 646.101562 249.632812 645.777344 C 248.410156 645.449219 247.203125 645.070312 246.007812 644.636719 C 244.8125 644.199219 243.636719 643.710938 242.480469 643.171875 C 241.324219 642.632812 240.195312 642.046875 239.089844 641.40625 L 98.199219 560.0625 C 97.09375 559.421875 96.019531 558.738281 94.972656 558.007812 C 93.929688 557.277344 92.917969 556.503906 91.945312 555.683594 C 90.972656 554.867188 90.035156 554.011719 89.144531 553.117188 C 88.25 552.222656 87.398438 551.292969 86.59375 550.328125 C 85.789062 549.363281 85.035156 548.367188 84.324219 547.34375 C 83.617188 546.320312 82.960938 545.269531 82.355469 544.195312 C 81.75 543.117188 81.199219 542.023438 80.703125 540.910156 C 80.207031 539.792969 79.769531 538.664062 79.386719 537.519531 C 79.003906 536.375 78.683594 535.222656 78.417969 534.0625 C 78.15625 532.898438 77.949219 531.734375 77.804688 530.566406 C 77.664062 529.394531 77.578125 528.230469 77.558594 527.0625 C 77.535156 525.898438 77.574219 524.742188 77.671875 523.59375 C 77.773438 522.441406 77.933594 521.308594 78.152344 520.183594 C 78.371094 519.0625 78.652344 517.957031 78.992188 516.871094 C 79.332031 515.789062 79.726562 514.726562 80.179688 513.6875 C 80.636719 512.652344 81.144531 511.644531 81.710938 510.664062 L 126.632812 432.855469 C 127.199219 431.875 127.820312 430.929688 128.488281 430.015625 C 129.160156 429.105469 129.882812 428.230469 130.652344 427.394531 C 131.421875 426.558594 132.238281 425.761719 133.101562 425.011719 C 133.964844 424.257812 134.867188 423.550781 135.8125 422.890625 C 136.757812 422.230469 137.742188 421.617188 138.761719 421.054688 C 139.78125 420.492188 140.832031 419.980469 141.917969 419.519531 C 143 419.0625 144.113281 418.65625 145.25 418.304688 C 146.390625 417.949219 147.550781 417.652344 148.730469 417.414062 C 149.914062 417.171875 151.109375 416.988281 152.324219 416.859375 C 153.539062 416.730469 154.761719 416.660156 155.996094 416.644531 C 157.226562 416.632812 158.464844 416.675781 159.707031 416.777344 C 160.949219 416.878906 162.1875 417.035156 163.425781 417.25 C 164.664062 417.464844 165.894531 417.738281 167.117188 418.0625 C 168.339844 418.390625 169.546875 418.769531 170.742188 419.207031 C 171.9375 419.640625 173.109375 420.128906 174.265625 420.667969 C 175.421875 421.207031 176.554688 421.792969 177.660156 422.433594 Z M 177.660156 422.433594 "/><path style=" stroke:none;fill-rule:nonzero;fill:#113c7b;fill-opacity:1;" d="M 218.515625 444.128906 L 278.738281 478.832031 L 283.839844 470.15625 C 284.859375 468.625 284.859375 467.09375 284.351562 465.5625 C 283.839844 464.03125 282.820312 462.5 281.289062 461.992188 L 231.785156 433.410156 C 230.253906 432.390625 228.722656 432.390625 227.191406 432.902344 C 225.664062 433.410156 224.132812 434.433594 223.621094 435.964844 L 218.515625 444.640625 Z M 277.714844 499.246094 L 193.511719 450.761719 L 207.800781 426.265625 C 211.371094 420.652344 216.476562 416.570312 222.601562 415.039062 C 228.722656 413.507812 235.359375 414.019531 240.972656 417.589844 L 290.472656 446.171875 C 296.089844 449.742188 300.171875 454.847656 301.703125 460.96875 C 303.234375 467.09375 302.722656 473.726562 299.148438 479.34375 L 284.859375 503.835938 L 277.207031 499.246094 Z M 277.714844 499.246094 "/></g></svg>