<svg xmlns="http://www.w3.org/2000/svg" xmlns:xlink="http://www.w3.org/1999/xlink" width="1200" zoomAndPan="magnify" viewBox="0 0 900 899.99999" height="1200" preserveAspectRatio="xMidYMid meet" version="1.2"><defs><clipPath id="31b66a93e4"><path d="M 462 204.757812 L 564 204.757812 L 564 307 L 462 307 Z M 462 204.757812 "/></clipPath></defs><g id="a8d08c4a5f"><path style=" stroke:none;fill-rule:evenodd;fill:#113c7b;fill-opacity:1;" d="M 502.105469 294.832031 C 531.113281 298.15625 552.265625 325.046875 548.640625 354.054688 L 531.113281 503.023438 C 530.8125 504.535156 529.300781 505.742188 527.789062 505.742188 L 477.933594 499.699219 C 448.925781 496.375 427.773438 469.484375 431.398438 440.476562 L 443.183594 341.367188 C 446.507812 312.359375 473.398438 291.207031 502.40625 294.832031 Z M 502.105469 294.832031 "/><path style=" stroke:none;fill-rule:nonzero;fill:#113c7b;fill-opacity:1;" d="M 502.40625 293.925781 C 517.214844 295.738281 529.90625 303.292969 538.367188 314.171875 C 546.824219 325.046875 551.359375 339.25 549.546875 354.054688 L 532.019531 503.023438 C 532.019531 503.929688 531.414062 504.835938 530.507812 505.441406 C 529.601562 506.046875 528.695312 506.347656 527.789062 506.347656 L 477.933594 500.304688 C 463.125 498.492188 450.433594 490.9375 441.972656 480.058594 C 433.515625 469.183594 428.980469 454.980469 430.792969 440.171875 L 442.578125 341.0625 C 444.390625 326.257812 451.945312 313.566406 462.824219 305.105469 C 473.703125 296.644531 487.902344 292.113281 502.710938 293.925781 Z M 537.15625 315.078125 C 528.695312 304.5 516.609375 297.25 502.105469 295.4375 C 487.902344 293.625 474.003906 298.15625 463.429688 306.316406 C 452.851562 314.773438 445.601562 326.863281 443.789062 341.367188 L 432.003906 440.476562 C 430.191406 454.675781 434.722656 468.578125 442.882812 479.152344 C 451.339844 489.730469 463.429688 496.980469 477.933594 498.792969 L 527.789062 504.835938 C 528.394531 504.835938 529 504.835938 529.300781 504.234375 C 529.601562 503.929688 530.207031 503.328125 530.207031 502.722656 L 547.734375 353.753906 C 549.546875 339.550781 545.011719 325.652344 536.855469 315.078125 Z M 537.15625 315.078125 "/><path style=" stroke:none;fill-rule:nonzero;fill:#113c7b;fill-opacity:1;" d="M 459.800781 492.449219 C 449.527344 481.570312 449.832031 464.648438 460.40625 454.375 C 471.285156 444.101562 488.207031 444.402344 498.480469 454.980469 L 596.683594 557.414062 C 599.402344 560.4375 601.519531 563.757812 602.726562 567.082031 L 634.453125 655.921875 C 639.289062 670.121094 632.035156 685.53125 617.835938 690.367188 C 603.632812 695.203125 588.222656 687.949219 583.386719 673.746094 L 553.777344 590.351562 L 459.800781 492.144531 Z M 459.800781 492.449219 "/><path style=" stroke:none;fill-rule:nonzero;fill:#113c7b;fill-opacity:1;" d="M 430.191406 445.613281 C 432.304688 430.808594 445.902344 420.53125 460.40625 422.347656 C 475.210938 424.460938 485.488281 438.058594 483.671875 452.5625 L 464.335938 593.675781 C 463.429688 600.320312 460.40625 605.761719 455.875 609.992188 L 378.820312 681.300781 C 367.945312 691.273438 350.71875 690.667969 340.75 679.792969 C 330.777344 668.914062 331.382812 651.691406 342.261719 641.71875 L 412.058594 577.054688 L 430.191406 445.914062 Z M 430.191406 445.613281 "/><path style=" stroke:none;fill-rule:nonzero;fill:#113c7b;fill-opacity:1;" d="M 380.9375 439.265625 C 372.777344 451.957031 356.160156 455.585938 343.46875 447.425781 C 330.777344 439.265625 327.152344 422.648438 335.308594 409.957031 L 372.175781 352.847656 C 375.195312 348.011719 379.425781 344.691406 384.5625 342.574219 L 474.003906 297.855469 C 487.300781 291.207031 503.617188 296.644531 510.265625 309.941406 C 516.910156 323.234375 511.472656 339.550781 498.175781 346.199219 L 413.875 388.503906 Z M 380.9375 439.265625 "/><path style=" stroke:none;fill-rule:nonzero;fill:#113c7b;fill-opacity:1;" d="M 648.65625 394.847656 C 662.859375 399.382812 670.714844 414.792969 665.878906 428.992188 C 661.347656 443.195312 645.9375 451.050781 631.734375 446.21875 L 568.582031 425.667969 C 563.144531 423.855469 558.914062 420.53125 555.589844 416.605469 L 489.414062 341.667969 C 479.441406 330.488281 480.652344 313.566406 491.832031 303.59375 C 503.011719 293.625 519.933594 294.832031 529.90625 306.011719 L 592.152344 376.71875 L 648.355469 394.847656 Z M 648.65625 394.847656 "/><g clip-rule="nonzero" clip-path="url(#31b66a93e4)"><path style=" stroke:none;fill-rule:nonzero;fill:#113c7b;fill-opacity:1;" d="M 563.746094 255.550781 C 563.746094 257.214844 563.664062 258.871094 563.503906 260.527344 C 563.339844 262.179688 563.097656 263.824219 562.773438 265.453125 C 562.449219 267.085938 562.042969 268.695312 561.5625 270.285156 C 561.078125 271.878906 560.519531 273.441406 559.882812 274.976562 C 559.246094 276.511719 558.535156 278.015625 557.753906 279.480469 C 556.96875 280.945312 556.117188 282.371094 555.191406 283.753906 C 554.269531 285.136719 553.277344 286.46875 552.222656 287.753906 C 551.167969 289.039062 550.054688 290.269531 548.878906 291.445312 C 547.703125 292.621094 546.472656 293.738281 545.1875 294.792969 C 543.902344 295.847656 542.570312 296.835938 541.1875 297.757812 C 539.804688 298.683594 538.378906 299.535156 536.914062 300.320312 C 535.445312 301.105469 533.945312 301.8125 532.410156 302.449219 C 530.875 303.085938 529.308594 303.644531 527.71875 304.128906 C 526.128906 304.609375 524.519531 305.015625 522.886719 305.339844 C 521.257812 305.664062 519.613281 305.90625 517.960938 306.070312 C 516.304688 306.234375 514.644531 306.316406 512.984375 306.316406 C 511.320312 306.316406 509.664062 306.234375 508.007812 306.070312 C 506.351562 305.90625 504.710938 305.664062 503.078125 305.339844 C 501.449219 305.015625 499.839844 304.609375 498.246094 304.128906 C 496.65625 303.644531 495.09375 303.085938 493.558594 302.449219 C 492.019531 301.8125 490.519531 301.105469 489.054688 300.320312 C 487.585938 299.535156 486.164062 298.683594 484.78125 297.757812 C 483.398438 296.835938 482.0625 295.847656 480.777344 294.792969 C 479.492188 293.738281 478.261719 292.621094 477.089844 291.445312 C 475.914062 290.269531 474.796875 289.039062 473.742188 287.753906 C 472.6875 286.46875 471.699219 285.136719 470.773438 283.753906 C 469.851562 282.371094 468.996094 280.945312 468.214844 279.480469 C 467.429688 278.015625 466.71875 276.511719 466.082031 274.976562 C 465.449219 273.441406 464.886719 271.878906 464.40625 270.285156 C 463.921875 268.695312 463.519531 267.085938 463.195312 265.453125 C 462.871094 263.824219 462.628906 262.179688 462.464844 260.527344 C 462.300781 258.871094 462.21875 257.214844 462.21875 255.550781 C 462.21875 253.886719 462.300781 252.230469 462.464844 250.574219 C 462.628906 248.921875 462.871094 247.277344 463.195312 245.648438 C 463.519531 244.015625 463.921875 242.40625 464.40625 240.816406 C 464.886719 239.222656 465.449219 237.660156 466.082031 236.125 C 466.71875 234.589844 467.429688 233.085938 468.214844 231.621094 C 468.996094 230.15625 469.851562 228.730469 470.773438 227.347656 C 471.699219 225.964844 472.6875 224.632812 473.742188 223.347656 C 474.796875 222.0625 475.914062 220.832031 477.089844 219.65625 C 478.261719 218.480469 479.492188 217.363281 480.777344 216.308594 C 482.0625 215.253906 483.398438 214.265625 484.78125 213.34375 C 486.164062 212.417969 487.585938 211.566406 489.054688 210.78125 C 490.519531 209.996094 492.019531 209.289062 493.558594 208.652344 C 495.09375 208.015625 496.65625 207.457031 498.246094 206.972656 C 499.839844 206.488281 501.449219 206.085938 503.078125 205.761719 C 504.710938 205.4375 506.351562 205.195312 508.007812 205.03125 C 509.664062 204.867188 511.320312 204.785156 512.984375 204.785156 C 514.644531 204.785156 516.304688 204.867188 517.960938 205.03125 C 519.613281 205.195312 521.257812 205.4375 522.886719 205.761719 C 524.519531 206.085938 526.128906 206.488281 527.71875 206.972656 C 529.308594 207.457031 530.875 208.015625 532.410156 208.652344 C 533.945312 209.289062 535.445312 209.996094 536.914062 210.78125 C 538.378906 211.566406 539.804688 212.417969 541.1875 213.34375 C 542.570312 214.265625 543.902344 215.253906 545.1875 216.308594 C 546.472656 217.363281 547.703125 218.480469 548.878906 219.65625 C 550.054688 220.832031 551.167969 222.0625 552.222656 223.347656 C 553.277344 224.632812 554.269531 225.964844 555.191406 227.347656 C 556.117188 228.730469 556.96875 230.15625 557.753906 231.621094 C 558.535156 233.085938 559.246094 234.589844 559.882812 236.125 C 560.519531 237.660156 561.078125 239.222656 561.5625 240.816406 C 562.042969 242.40625 562.449219 244.015625 562.773438 245.648438 C 563.097656 247.277344 563.339844 248.921875 563.503906 250.574219 C 563.664062 252.230469 563.746094 253.886719 563.746094 255.550781 Z M 563.746094 255.550781 "/></g><path style=" stroke:none;fill-rule:evenodd;fill:#113c7b;fill-opacity:1;" d="M 296.3125 433.671875 L 379.734375 481.835938 C 380.386719 482.214844 381.023438 482.621094 381.640625 483.054688 C 382.261719 483.488281 382.859375 483.945312 383.433594 484.429688 C 384.011719 484.914062 384.566406 485.417969 385.09375 485.949219 C 385.625 486.480469 386.125 487.03125 386.601562 487.601562 C 387.078125 488.171875 387.527344 488.761719 387.945312 489.367188 C 388.367188 489.976562 388.753906 490.597656 389.113281 491.234375 C 389.472656 491.871094 389.796875 492.515625 390.089844 493.175781 C 390.382812 493.835938 390.644531 494.507812 390.871094 495.183594 C 391.097656 495.859375 391.289062 496.542969 391.445312 497.230469 C 391.601562 497.921875 391.722656 498.609375 391.804688 499.300781 C 391.890625 499.996094 391.941406 500.6875 391.953125 501.375 C 391.96875 502.066406 391.945312 502.75 391.886719 503.429688 C 391.828125 504.109375 391.730469 504.785156 391.601562 505.449219 C 391.472656 506.113281 391.304688 506.765625 391.105469 507.410156 C 390.902344 508.050781 390.667969 508.679688 390.398438 509.292969 C 390.132812 509.910156 389.828125 510.507812 389.496094 511.085938 L 362.894531 557.15625 C 362.5625 557.738281 362.195312 558.296875 361.796875 558.835938 C 361.398438 559.375 360.972656 559.894531 360.515625 560.390625 C 360.0625 560.886719 359.578125 561.355469 359.066406 561.800781 C 358.554688 562.246094 358.019531 562.664062 357.460938 563.054688 C 356.902344 563.445312 356.320312 563.808594 355.714844 564.140625 C 355.113281 564.476562 354.488281 564.777344 353.847656 565.050781 C 353.203125 565.324219 352.546875 565.5625 351.871094 565.773438 C 351.199219 565.980469 350.511719 566.15625 349.8125 566.300781 C 349.113281 566.441406 348.402344 566.550781 347.683594 566.628906 C 346.964844 566.703125 346.242188 566.746094 345.511719 566.753906 C 344.78125 566.761719 344.046875 566.734375 343.3125 566.675781 C 342.578125 566.617188 341.84375 566.523438 341.113281 566.394531 C 340.378906 566.265625 339.648438 566.105469 338.925781 565.914062 C 338.203125 565.71875 337.488281 565.496094 336.78125 565.238281 C 336.074219 564.980469 335.378906 564.691406 334.691406 564.371094 C 334.007812 564.054688 333.339844 563.703125 332.683594 563.328125 L 249.265625 515.164062 C 248.609375 514.785156 247.972656 514.378906 247.355469 513.945312 C 246.734375 513.511719 246.136719 513.054688 245.5625 512.570312 C 244.984375 512.085938 244.429688 511.582031 243.902344 511.050781 C 243.375 510.519531 242.871094 509.96875 242.394531 509.398438 C 241.917969 508.828125 241.46875 508.238281 241.050781 507.632812 C 240.628906 507.023438 240.242188 506.402344 239.882812 505.765625 C 239.523438 505.128906 239.199219 504.480469 238.90625 503.820312 C 238.613281 503.164062 238.351562 502.492188 238.125 501.816406 C 237.898438 501.136719 237.707031 500.457031 237.550781 499.769531 C 237.394531 499.078125 237.273438 498.390625 237.191406 497.699219 C 237.105469 497.003906 237.054688 496.3125 237.042969 495.625 C 237.027344 494.933594 237.050781 494.25 237.109375 493.570312 C 237.167969 492.890625 237.265625 492.214844 237.394531 491.550781 C 237.523438 490.886719 237.691406 490.234375 237.890625 489.589844 C 238.09375 488.949219 238.328125 488.320312 238.597656 487.707031 C 238.867188 487.089844 239.167969 486.492188 239.503906 485.914062 L 266.101562 439.84375 C 266.4375 439.261719 266.800781 438.703125 267.199219 438.164062 C 267.597656 437.621094 268.023438 437.105469 268.480469 436.609375 C 268.9375 436.113281 269.417969 435.644531 269.929688 435.199219 C 270.441406 434.753906 270.976562 434.335938 271.535156 433.945312 C 272.09375 433.554688 272.675781 433.191406 273.28125 432.859375 C 273.882812 432.523438 274.507812 432.222656 275.148438 431.949219 C 275.792969 431.675781 276.449219 431.4375 277.125 431.226562 C 277.796875 431.019531 278.484375 430.84375 279.183594 430.699219 C 279.882812 430.558594 280.59375 430.449219 281.3125 430.371094 C 282.03125 430.296875 282.753906 430.253906 283.484375 430.246094 C 284.214844 430.238281 284.949219 430.265625 285.683594 430.324219 C 286.417969 430.382812 287.152344 430.476562 287.886719 430.605469 C 288.617188 430.734375 289.347656 430.894531 290.070312 431.085938 C 290.792969 431.28125 291.507812 431.503906 292.214844 431.761719 C 292.921875 432.019531 293.617188 432.308594 294.304688 432.628906 C 294.988281 432.945312 295.65625 433.296875 296.3125 433.671875 Z M 296.3125 433.671875 "/><path style=" stroke:none;fill-rule:nonzero;fill:#113c7b;fill-opacity:1;" d="M 320.503906 446.519531 L 356.160156 467.066406 L 359.179688 461.929688 C 359.785156 461.023438 359.785156 460.117188 359.484375 459.210938 C 359.179688 458.304688 358.578125 457.398438 357.671875 457.09375 L 328.359375 440.171875 C 327.453125 439.570312 326.546875 439.570312 325.640625 439.871094 C 324.734375 440.171875 323.828125 440.777344 323.527344 441.683594 L 320.503906 446.820312 Z M 355.554688 479.152344 L 305.699219 450.449219 L 314.160156 435.945312 C 316.273438 432.621094 319.296875 430.203125 322.921875 429.296875 C 326.546875 428.390625 330.476562 428.691406 333.800781 430.808594 L 363.109375 447.726562 C 366.433594 449.84375 368.851562 452.863281 369.757812 456.492188 C 370.664062 460.117188 370.363281 464.042969 368.246094 467.367188 L 359.785156 481.871094 L 355.253906 479.152344 Z M 355.554688 479.152344 "/></g></svg>