<svg xmlns="http://www.w3.org/2000/svg" xmlns:xlink="http://www.w3.org/1999/xlink" width="1200" zoomAndPan="magnify" viewBox="0 0 900 899.99999" height="1200" preserveAspectRatio="xMidYMid meet" version="1.2"><defs><clipPath id="b65b98712c"><path d="M 527 435 L 682.195312 435 L 682.195312 521 L 527 521 Z M 527 435 "/></clipPath></defs><g id="27f3180407"><path style=" stroke:none;fill-rule:evenodd;fill:#113c7b;fill-opacity:1;" d="M 296.109375 427.472656 C 293.125 427.472656 290.679688 425.027344 290.679688 422.042969 L 290.679688 309.410156 C 290.679688 306.152344 293.125 303.980469 296.109375 303.980469 C 299.09375 303.980469 301.539062 306.152344 301.539062 309.410156 L 301.539062 422.042969 C 301.539062 425.027344 299.09375 427.472656 296.109375 427.472656 Z M 296.109375 427.472656 "/><path style=" stroke:none;fill-rule:evenodd;fill:#113c7b;fill-opacity:1;" d="M 604.972656 422.042969 C 601.988281 422.042969 599.273438 425.027344 599.273438 422.042969 L 599.273438 309.410156 C 599.273438 306.152344 601.714844 303.980469 604.703125 303.980469 C 607.6875 303.980469 610.128906 306.152344 610.128906 309.410156 L 610.128906 422.042969 C 610.128906 425.027344 607.957031 422.042969 604.972656 422.042969 Z M 604.972656 422.042969 "/><path style=" stroke:none;fill-rule:evenodd;fill:#113c7b;fill-opacity:1;" d="M 578.644531 425.027344 C 582.445312 419.601562 590.046875 416.613281 597.644531 416.613281 L 611.757812 416.613281 C 619.085938 416.613281 626.957031 419.601562 630.757812 425.027344 Z M 578.644531 425.027344 "/><path style=" stroke:none;fill-rule:evenodd;fill:#113c7b;fill-opacity:1;" d="M 665.769531 542.003906 L 543.632812 542.003906 C 537.121094 542.003906 531.691406 536.847656 531.691406 530.335938 L 531.691406 529.519531 C 534.679688 530.878906 538.207031 531.421875 541.734375 531.421875 L 667.667969 531.421875 C 671.195312 531.421875 674.453125 530.878906 677.710938 529.519531 L 677.710938 530.335938 C 677.710938 536.847656 672.28125 542.003906 665.769531 542.003906 Z M 665.769531 542.003906 "/><g clip-rule="nonzero" clip-path="url(#b65b98712c)"><path style=" stroke:none;fill-rule:evenodd;fill:#113c7b;fill-opacity:1;" d="M 667.667969 520.566406 L 541.734375 520.566406 C 533.863281 520.566406 527.351562 514.320312 527.351562 506.179688 L 527.351562 466.28125 L 589.230469 494.238281 C 589.230469 495.59375 589.773438 496.953125 590.859375 497.765625 L 597.917969 504.824219 C 598.730469 505.910156 600.085938 506.453125 601.714844 506.453125 L 607.6875 506.453125 C 609.042969 506.453125 610.402344 505.910156 611.488281 504.824219 L 618.542969 497.765625 C 619.355469 496.953125 619.898438 495.59375 619.898438 494.238281 L 682.054688 466.28125 L 682.054688 506.179688 C 682.054688 514.320312 675.539062 520.566406 667.667969 520.566406 Z M 527.351562 452.441406 L 527.351562 450.269531 C 527.351562 442.128906 533.863281 435.886719 541.734375 435.886719 L 667.667969 435.886719 C 675.539062 435.886719 682.054688 442.128906 682.054688 450.269531 L 682.054688 452.441406 L 619.898438 480.394531 C 619.628906 477.683594 617.457031 475.78125 614.472656 475.78125 L 594.660156 475.78125 C 591.945312 475.78125 589.773438 477.683594 589.230469 480.394531 Z M 603.886719 495.59375 L 605.515625 495.59375 L 609.042969 491.796875 L 609.042969 486.636719 L 600.085938 486.636719 L 600.085938 491.796875 Z M 603.886719 495.59375 "/></g><path style=" stroke:none;fill-rule:evenodd;fill:#113c7b;fill-opacity:1;" d="M 350.390625 546.347656 L 313.480469 546.347656 L 313.480469 496.953125 C 313.480469 493.964844 311.035156 491.523438 308.050781 491.523438 L 284.167969 491.523438 C 280.910156 491.523438 278.738281 493.964844 278.738281 496.953125 L 278.738281 546.347656 L 241.554688 546.347656 C 238.570312 546.347656 236.128906 544.175781 236.128906 540.921875 L 236.128906 492.609375 C 237.484375 492.339844 238.84375 491.796875 240.199219 490.980469 L 296.109375 458.683594 L 352.019531 490.980469 C 353.375 491.796875 354.460938 492.339844 355.820312 492.609375 L 355.820312 540.921875 C 355.820312 544.175781 353.375 546.347656 350.390625 546.347656 Z M 302.625 546.347656 L 289.59375 546.347656 L 289.59375 502.378906 L 302.625 502.378906 Z M 302.625 546.347656 "/><path style=" stroke:none;fill-rule:evenodd;fill:#113c7b;fill-opacity:1;" d="M 232.058594 482.296875 C 231.515625 482.296875 230.972656 482.296875 230.429688 482.023438 C 229.070312 481.753906 227.984375 480.9375 227.171875 479.582031 L 219.570312 466.28125 C 217.945312 463.570312 218.757812 460.3125 221.472656 458.683594 L 293.394531 417.429688 C 295.023438 416.34375 297.195312 416.34375 298.824219 417.429688 L 370.746094 458.683594 C 373.1875 460.3125 374.273438 463.570312 372.648438 466.28125 L 365.046875 479.582031 C 364.234375 480.9375 363.148438 481.753906 361.519531 482.023438 C 360.160156 482.566406 358.804688 482.296875 357.449219 481.480469 L 296.109375 446.199219 L 234.769531 481.480469 C 233.683594 482.023438 232.871094 482.296875 232.058594 482.296875 Z M 232.058594 482.296875 "/><path style=" stroke:none;fill-rule:evenodd;fill:#113c7b;fill-opacity:1;" d="M 450.269531 365.589844 C 422.585938 365.589844 400.058594 343.0625 400.058594 315.378906 C 400.058594 287.425781 422.585938 264.898438 450.269531 264.898438 C 478.226562 264.898438 500.75 287.425781 500.75 315.378906 C 500.75 343.0625 478.226562 365.589844 450.269531 365.589844 Z M 450.269531 365.589844 "/><path style=" stroke:none;fill-rule:evenodd;fill:#113c7b;fill-opacity:1;" d="M 504.007812 635.097656 L 455.699219 635.097656 C 455.699219 635.097656 455.699219 634.828125 455.699219 634.828125 L 455.699219 555.304688 C 455.699219 552.320312 453.253906 549.875 450.269531 549.875 C 447.285156 549.875 444.839844 552.320312 444.839844 555.304688 L 444.839844 634.828125 C 444.839844 634.828125 444.839844 635.097656 444.839844 635.097656 L 396.800781 635.097656 C 395.445312 635.097656 394.089844 634.554688 393.003906 633.742188 C 391.917969 632.65625 391.375 631.300781 391.375 629.671875 L 391.375 436.15625 C 336.820312 385.402344 293.667969 315.652344 291.496094 312.121094 C 284.980469 302.351562 290.410156 293.394531 295.835938 289.324219 C 300.179688 285.796875 304.523438 283.894531 309.410156 283.894531 C 316.738281 283.894531 321.621094 288.78125 322.4375 289.324219 L 342.792969 309.679688 C 342.792969 309.949219 343.0625 309.949219 343.0625 310.222656 C 403.585938 385.402344 445.113281 387.574219 449.726562 387.574219 L 451.082031 387.574219 C 455.425781 387.574219 497.222656 385.402344 557.746094 310.222656 C 557.746094 309.949219 558.019531 309.949219 558.019531 309.679688 L 578.375 289.324219 C 579.1875 288.511719 584.074219 283.894531 591.402344 283.894531 C 596.015625 283.894531 600.628906 285.796875 604.972656 289.324219 C 610.402344 293.394531 615.828125 302.351562 609.316406 312.121094 C 607.144531 315.652344 563.988281 385.402344 509.4375 436.15625 L 509.4375 629.671875 C 509.4375 632.929688 506.992188 635.097656 504.007812 635.097656 Z M 504.007812 635.097656 "/></g></svg>