<svg width="29" height="29" viewBox="0 0 29 29" fill="none" xmlns="http://www.w3.org/2000/svg">
<rect x="0.537598" width="28.4623" height="28.4623" rx="5" fill="currentColor"/>
<g clip-path="url(#clip0_42814_12952)">
<path d="M18.6827 10.8521C19.2128 10.8521 19.6427 10.4223 19.6427 9.89213C19.6427 9.36194 19.2128 8.93213 18.6827 8.93213C18.1525 8.93213 17.7227 9.36194 17.7227 9.89213C17.7227 10.4223 18.1525 10.8521 18.6827 10.8521Z" fill="white"/>
<path d="M14.5376 18C12.3316 18 10.5376 16.206 10.5376 14C10.5376 11.794 12.3316 10 14.5376 10C16.7436 10 18.5376 11.794 18.5376 14C18.5376 16.206 16.7436 18 14.5376 18ZM14.5376 12C13.4346 12 12.5376 12.897 12.5376 14C12.5376 15.103 13.4346 16 14.5376 16C15.6406 16 16.5376 15.103 16.5376 14C16.5376 12.897 15.6406 12 14.5376 12Z" fill="white"/>
<path d="M18.5376 22H10.5376C8.4816 22 6.5376 20.056 6.5376 18V10C6.5376 7.944 8.4816 6 10.5376 6H18.5376C20.5936 6 22.5376 7.944 22.5376 10V18C22.5376 20.056 20.5936 22 18.5376 22ZM10.5376 8C9.6026 8 8.5376 9.065 8.5376 10V18C8.5376 18.953 9.5846 20 10.5376 20H18.5376C19.4726 20 20.5376 18.935 20.5376 18V10C20.5376 9.065 19.4726 8 18.5376 8H10.5376Z" fill="white"/>
</g>
<defs>
<clipPath id="clip0_42814_12952">
<rect width="16" height="16" fill="white" transform="translate(6.5376 6)"/>
</clipPath>
</defs>
</svg>
