<svg viewBox="0 0 411 219" fill="none" xmlns="http://www.w3.org/2000/svg">
<path d="M56.8842 64.9804C53.2923 64.9804 50.3805 62.0619 50.3805 58.4618C50.3805 54.8616 53.2923 51.9431 56.8842 51.9431C60.4761 51.9431 63.3879 54.8616 63.3879 58.4618C63.3879 62.0619 60.4761 64.9804 56.8842 64.9804Z" fill="#0782D0"/>
<path d="M50.4514 79.1213C46.8595 79.1213 43.9477 76.2028 43.9477 72.6026C43.9477 69.0025 46.8595 66.084 50.4514 66.084C54.0433 66.084 56.9551 69.0025 56.9551 72.6026C56.9551 76.2028 54.0433 79.1213 50.4514 79.1213Z" fill="#0782D0"/>
<path d="M63.4611 79.0549C59.8692 79.0549 56.9574 76.1364 56.9574 72.5362C56.9574 68.9361 59.8692 66.0176 63.4611 66.0176C67.053 66.0176 69.9648 68.9361 69.9648 72.5362C69.9648 76.1364 67.053 79.0549 63.4611 79.0549Z" fill="#0782D0"/>
<path d="M50.5243 93.6035C46.9324 93.6035 44.0205 90.685 44.0205 87.0848C44.0205 83.4847 46.9324 80.5662 50.5243 80.5662C54.1162 80.5662 57.0281 83.4847 57.0281 87.0848C57.0281 90.685 54.1162 93.6035 50.5243 93.6035Z" fill="#0782D0"/>
<path d="M63.5341 93.5371C59.9422 93.5371 57.0304 90.6186 57.0304 87.0184C57.0304 83.4183 59.9422 80.4998 63.5341 80.4998C67.126 80.4998 70.0378 83.4183 70.0378 87.0184C70.0378 90.6186 67.126 93.5371 63.5341 93.5371Z" fill="#0782D0"/>
<path d="M55.228 144.118C55.3258 144.118 55.4251 144.097 55.5195 144.053C55.8619 143.891 56.0088 143.482 55.8477 143.139L30.8247 89.8559C30.6634 89.5127 30.2552 89.3655 29.9128 89.5269C29.5703 89.6886 29.4235 90.0977 29.5845 90.4409L54.6075 143.724C54.7243 143.972 54.9708 144.118 55.228 144.118Z" fill="#222433"/>
<path d="M11.806 76.1928C12.9329 75.3428 14.5338 75.5681 15.3834 76.6965C14.5014 75.5933 14.6786 73.9823 15.7793 73.0981C16.8799 72.2138 18.4872 72.3917 19.3694 73.4949C19.4012 73.5347 19.4318 73.5752 19.4611 73.6169L27.2646 83.9524L24.2172 71.3593C23.8455 69.9956 24.6476 68.5879 26.0082 68.2156C27.3688 67.8433 28.7732 68.647 29.1447 70.0107C29.1566 70.054 29.1671 70.0975 29.1767 70.1412C28.805 68.7775 29.607 67.3698 30.9676 66.9975C32.3282 66.6252 33.7327 67.4289 34.1041 68.7926C34.116 68.8359 34.1265 68.8794 34.1361 68.9231L34.5405 70.5785L37.2817 81.7475C38.2458 85.6953 36.8043 89.8421 33.6016 92.3349L33.6221 92.36C32.4596 93.2193 31.1401 93.8417 29.7386 94.1918V94.1597C25.7873 95.0694 21.6717 93.5665 19.2303 90.3222L12.3246 81.1361L11.3011 79.7738C10.4555 78.6448 10.6814 77.0427 11.806 76.1928Z" fill="white"/>
<path d="M27.4435 95.1077C28.1864 95.1077 28.9347 95.0319 29.6785 94.8762C29.7532 94.8826 29.8295 94.8771 29.9042 94.8584C31.4003 94.4847 32.7881 93.8303 34.0287 92.9128C34.0927 92.8654 34.1473 92.808 34.1909 92.743C37.4842 90.0741 38.9571 85.7192 37.9474 81.5841L34.8018 68.7597C34.7938 68.7215 34.7803 68.6663 34.7652 68.6113C34.2947 66.8845 32.5101 65.8633 30.7872 66.3347C29.9524 66.5632 29.2566 67.1038 28.8274 67.8569C28.7757 67.9475 28.7287 68.0403 28.6862 68.1342C28.561 68.0357 28.4278 67.9459 28.2871 67.8654C27.5358 67.4351 26.6622 67.3243 25.8275 67.5528C24.9928 67.7813 24.2969 68.3219 23.8679 69.075C23.4389 69.828 23.3281 70.7036 23.5561 71.5403L25.8215 80.9029L20.0075 73.2025C19.983 73.1673 19.9444 73.116 19.9042 73.0656C18.7871 71.6685 16.7444 71.4427 15.3507 72.5624C14.5553 73.2014 14.1404 74.1424 14.1384 75.0924C13.2196 74.8603 12.2076 75.0304 11.3939 75.6442C11.3936 75.6445 11.3936 75.6445 11.3934 75.6447C9.96998 76.7204 9.68284 78.7579 10.7531 80.1867L18.683 90.7361C20.7805 93.523 24.0493 95.1077 27.4435 95.1077ZM29.7386 93.4729C29.6874 93.4729 29.636 93.4786 29.5853 93.4903C25.9026 94.3379 22.0529 92.9323 19.7777 89.9086L11.8489 79.3606C11.2321 78.5372 11.3975 77.3622 12.2183 76.7417C13.0245 76.1338 14.1674 76.2796 14.7972 77.0599C14.8141 77.0821 14.8312 77.1044 14.8488 77.1261C15.0832 77.4192 15.5086 77.4693 15.8044 77.2388C16.1 77.0082 16.1564 76.5825 15.9307 76.2828C15.9138 76.2604 15.8967 76.2382 15.8793 76.2164C15.2797 75.4123 15.4208 74.2668 16.208 73.6344C17.0122 72.9885 18.1905 73.1187 18.8349 73.9247C18.8582 73.9538 18.8806 73.9838 18.9023 74.0142L26.7186 84.3671C26.9146 84.6268 27.2653 84.7129 27.5588 84.5732C27.8521 84.4338 28.0077 84.107 27.9312 83.7908L24.8838 71.1977C24.7474 70.6961 24.8114 70.191 25.0588 69.7566C25.3062 69.3223 25.7078 69.0102 26.1893 68.8785C26.6709 68.7466 27.1748 68.8108 27.6082 69.0587C28.0367 69.3039 28.3456 69.7001 28.4797 70.1752C28.4906 70.2244 28.503 70.2734 28.5162 70.3224C28.614 70.6816 28.9797 70.8973 29.3407 70.8085C29.7016 70.7199 29.9262 70.359 29.8471 69.9952C29.8364 69.946 29.8245 69.897 29.8117 69.8482C29.7181 69.4001 29.7902 68.9392 30.0187 68.5383C30.2661 68.1039 30.6677 67.7919 31.1492 67.6602C32.1432 67.3884 33.1728 67.9773 33.4442 68.9735C33.4528 69.0054 33.4606 69.0372 33.4677 69.0693L33.8759 70.7418L36.6174 81.9115C37.5157 85.5903 36.1674 89.469 33.1824 91.7923C33.1323 91.8312 33.0883 91.8765 33.0515 91.9267C32.0539 92.6346 30.9528 93.1542 29.7729 93.4734C29.7606 93.4731 29.7496 93.4729 29.7386 93.4729Z" fill="#222433"/>
<path d="M31.5244 80.3924C31.5785 80.3924 31.6334 80.386 31.6882 80.3725C32.0558 80.282 32.2808 79.9102 32.1905 79.5418L29.801 69.7718C29.7108 69.4034 29.3398 69.1777 28.9723 69.2683C28.6047 69.3588 28.3797 69.7306 28.4699 70.099L30.8594 79.869C30.9359 80.1822 31.216 80.3924 31.5244 80.3924Z" fill="#222433"/>
<path d="M21.298 85.2554C21.4415 85.2554 21.5863 85.2102 21.7099 85.1171C22.0122 84.8888 22.0727 84.4581 21.8449 84.1552L15.8072 76.1208C15.5795 75.8178 15.1498 75.7572 14.8475 75.9855C14.5453 76.2137 14.4848 76.6444 14.7125 76.9473L20.7502 84.9817C20.8848 85.161 21.0902 85.2554 21.298 85.2554Z" fill="#222433"/>
<path d="M59.6164 144.118C59.8878 144.118 60.1448 143.955 60.2524 143.688L80.0649 94.3958C80.2063 94.0439 80.0364 93.6437 79.6853 93.5019C79.3342 93.3602 78.9348 93.5306 78.7934 93.8825L58.9809 143.174C58.8395 143.526 59.0095 143.926 59.3606 144.068C59.4444 144.102 59.531 144.118 59.6164 144.118Z" fill="#222433"/>
<path d="M80.8864 109.132C79.2143 108.459 75.6711 103.502 75.6711 103.502C75.6711 103.502 81.6494 102.386 83.3239 103.06C84.9968 103.734 85.8073 105.641 85.1343 107.317C84.4613 108.994 82.5593 109.806 80.8864 109.132Z" fill="white"/>
<path d="M82.1056 110.058C82.6311 110.058 83.156 109.951 83.654 109.738C84.6247 109.324 85.3762 108.555 85.7701 107.574C86.5831 105.548 85.6006 103.237 83.5798 102.423C81.7721 101.696 76.1778 102.708 75.5457 102.826C75.3152 102.869 75.1229 103.027 75.0354 103.245C74.9479 103.463 74.9776 103.711 75.114 103.902C75.4886 104.426 78.8255 109.043 80.6311 109.77C81.1078 109.961 81.607 110.058 82.1056 110.058ZM81.6257 103.529C82.2592 103.529 82.7716 103.578 83.0688 103.697C84.3878 104.229 85.0295 105.738 84.4986 107.061C84.2413 107.702 83.7507 108.204 83.1167 108.475C82.4828 108.745 81.7817 108.753 81.1423 108.495C81.1421 108.495 81.1421 108.495 81.1419 108.495C80.2185 108.123 78.261 105.813 76.883 103.991C78.4115 103.748 80.2884 103.529 81.6257 103.529Z" fill="#222433"/>
<path d="M68.0206 103.946C69.6928 104.619 75.6711 103.502 75.6711 103.502C75.6711 103.502 72.1303 98.5467 70.4581 97.8736C68.7852 97.199 66.8832 98.0114 66.2102 99.6881C65.5372 101.365 66.3477 103.271 68.0206 103.946Z" fill="white"/>
<path d="M69.7851 104.843C72.1415 104.843 75.3289 104.264 75.7968 104.177C76.0271 104.134 76.2196 103.976 76.3069 103.758C76.3944 103.54 76.3647 103.292 76.2283 103.102C75.8539 102.578 72.5191 97.9629 70.7135 97.2361C69.7349 96.8414 68.6612 96.8524 67.6905 97.2671C66.7199 97.6817 65.9683 98.4504 65.5745 99.4317C64.7615 101.457 65.744 103.768 67.7648 104.583C67.765 104.583 67.765 104.583 67.7652 104.583C68.234 104.772 68.9584 104.843 69.7851 104.843ZM68.0206 103.946H68.0184H68.0206ZM74.4597 103.013C72.2071 103.371 69.1989 103.68 68.276 103.309C66.9566 102.776 66.3151 101.267 66.846 99.9448C67.1032 99.3039 67.5939 98.802 68.2278 98.5312C68.8618 98.2603 69.5629 98.2532 70.2023 98.511C71.1261 98.8826 73.0824 101.192 74.4597 103.013Z" fill="#222433"/>
<path d="M90.593 89.2828L78.8054 97.2966C78.4767 97.518 78.031 97.4306 77.8099 97.1009C77.7594 97.0255 77.7235 96.941 77.7044 96.8524L74.7346 82.897L90.593 89.2828Z" fill="#9AE2E0"/>
<path d="M49.5084 163.117C49.3371 157.219 40.8204 152.988 40.8204 143.431H74.9106C74.9106 152.818 66.4583 157.329 65.9786 163.072L49.5084 163.117Z" fill="white"/>
<path d="M49.5083 163.804C49.509 163.804 49.5095 163.804 49.5102 163.804L65.9804 163.758C66.336 163.758 66.6317 163.484 66.6613 163.129C66.8487 160.888 68.3966 158.795 70.1892 156.372C72.7235 152.946 75.5957 149.063 75.5957 143.431C75.5957 143.052 75.2889 142.744 74.9104 142.744H40.82C40.4415 142.744 40.1347 143.052 40.1347 143.431C40.1347 149.056 42.9231 152.85 45.3834 156.198C47.1926 158.659 48.7549 160.785 48.8233 163.137C48.8342 163.508 49.1378 163.804 49.5083 163.804ZM65.377 162.386L50.1416 162.428C49.8266 159.927 48.2005 157.714 46.4872 155.383C44.2569 152.349 41.7425 148.927 41.5213 144.118H74.2091C73.9813 148.939 71.3883 152.445 69.0883 155.554C67.3983 157.838 65.7946 160.006 65.377 162.386Z" fill="#222433"/>
<path d="M33.414 192.361C33.4216 205.891 44.3715 216.854 57.871 216.847C71.3707 216.839 82.3081 205.864 82.3005 192.333C82.296 184.328 78.3896 176.83 71.8379 172.251C67.2051 168.558 65.7659 165.691 65.9784 163.092L49.5082 163.117C49.5813 165.635 48.3267 168.718 43.8812 172.262C37.3199 176.841 33.4099 184.348 33.414 192.361Z" fill="white"/>
<path d="M57.857 217.533C57.8621 217.533 57.8664 217.533 57.8714 217.533C71.7273 217.526 82.9936 206.221 82.9858 192.333C82.9813 184.117 78.9671 176.405 72.2477 171.7C68.2226 168.487 66.4469 165.77 66.6612 163.148C66.6769 162.957 66.6118 162.768 66.4818 162.627C66.3519 162.485 66.1675 162.401 65.9772 162.405L49.507 162.43C49.322 162.43 49.145 162.505 49.0161 162.638C48.8873 162.771 48.8176 162.951 48.8231 163.137C48.904 165.926 47.1036 168.811 43.4714 171.711C36.7401 176.417 32.7246 184.135 32.7287 192.361C32.7365 206.244 44.008 217.533 57.857 217.533ZM65.2761 163.78C65.3641 166.655 67.3348 169.539 71.4112 172.788C71.4224 172.797 71.434 172.806 71.4459 172.814C77.8094 177.262 81.6108 184.558 81.6152 192.334C81.6225 205.464 70.9707 216.152 57.8705 216.16C57.8666 216.16 57.8609 216.16 57.857 216.16C44.7623 216.16 34.1067 205.487 34.0993 192.36C34.0955 184.576 37.8986 177.273 44.2728 172.826C44.2846 172.818 44.2965 172.809 44.3079 172.8C48.0181 169.842 49.9904 166.818 50.1814 163.802L65.2761 163.78ZM33.414 192.361H33.4117H33.414Z" fill="#222433"/>
<path d="M49.7682 164.077H65.9624C66.3409 164.077 66.6477 163.769 66.6477 163.39C66.6477 163.011 66.3409 162.703 65.9624 162.703H49.7682C49.3896 162.703 49.0828 163.011 49.0828 163.39C49.0828 163.769 49.3896 164.077 49.7682 164.077Z" fill="#222433"/>
<path d="M57.2864 144.063C57.2875 144.063 57.2887 144.063 57.2896 144.063C57.6681 144.061 57.9735 143.752 57.9717 143.373L57.5696 58.4586C57.5678 58.0792 57.2585 57.7831 56.8811 57.7749C56.5026 57.7767 56.1972 58.0856 56.199 58.465L56.6011 143.379C56.6029 143.757 56.9094 144.063 57.2864 144.063Z" fill="#222433"/>
<path d="M405.909 144.667C404.268 144.207 400.423 139.942 400.423 139.942C400.423 139.942 405.913 138.267 407.554 138.722C409.194 139.178 410.155 140.879 409.699 142.52C409.244 144.162 407.545 145.123 405.905 144.667H405.909Z" fill="white"/>
<path d="M406.735 145.428C407.37 145.428 407.997 145.265 408.565 144.944C409.432 144.453 410.056 143.654 410.323 142.693C410.589 141.733 410.466 140.726 409.976 139.858C409.486 138.99 408.688 138.365 407.728 138.099C405.956 137.607 400.815 139.146 400.235 139.323C400.023 139.387 399.859 139.556 399.8 139.769C399.741 139.982 399.795 140.211 399.943 140.376C400.346 140.822 403.895 144.718 405.683 145.275C405.699 145.281 405.715 145.286 405.732 145.291C406.063 145.383 406.4 145.428 406.735 145.428ZM406.812 139.288C407.043 139.288 407.236 139.306 407.382 139.346C408.008 139.521 408.529 139.929 408.849 140.495C409.169 141.062 409.25 141.72 409.076 142.347C408.902 142.974 408.494 143.496 407.928 143.816C407.372 144.13 406.73 144.214 406.114 144.052C406.104 144.049 406.094 144.046 406.084 144.043C405.177 143.789 403.097 141.832 401.612 140.272C403.355 139.791 405.601 139.288 406.812 139.288Z" fill="#222433"/>
<path d="M393.296 141.159C394.935 141.617 400.427 139.942 400.427 139.942C400.427 139.942 396.585 135.673 394.946 135.215C393.306 134.759 391.607 135.72 391.152 137.361C390.696 139.003 391.656 140.703 393.296 141.159Z" fill="white"/>
<path d="M394.021 141.88C396.218 141.88 400.115 140.714 400.616 140.561C400.827 140.497 400.992 140.328 401.051 140.115C401.11 139.902 401.056 139.673 400.908 139.508C400.502 139.057 396.888 135.085 395.119 134.591C394.159 134.324 393.153 134.448 392.286 134.938C391.419 135.429 390.795 136.228 390.528 137.188C390.261 138.149 390.385 139.156 390.875 140.023C391.365 140.891 392.163 141.516 393.122 141.783C393.365 141.851 393.672 141.88 394.021 141.88ZM399.239 139.612C397.163 140.183 394.374 140.788 393.47 140.536C393.47 140.536 393.469 140.535 393.469 140.535C392.176 140.176 391.415 138.83 391.775 137.535C391.949 136.908 392.357 136.386 392.923 136.065C393.489 135.745 394.146 135.665 394.773 135.839C395.677 136.091 397.755 138.05 399.239 139.612Z" fill="#222433"/>
<path d="M407.563 131.274L401.309 136.624L398.698 128.811C397.292 124.598 401.161 120.523 405.439 121.712C408.389 122.529 410.119 125.585 409.302 128.538C409.008 129.603 408.402 130.555 407.563 131.274Z" fill="white"/>
<path d="M401.309 137.272C401.462 137.272 401.611 137.218 401.73 137.117L407.984 131.766C407.984 131.766 407.984 131.766 407.984 131.766C408.924 130.961 409.596 129.904 409.926 128.71C410.367 127.116 410.161 125.445 409.346 124.005C408.531 122.565 407.205 121.529 405.612 121.088C403.368 120.464 401.071 121.101 399.467 122.791C397.864 124.48 397.347 126.807 398.084 129.016L400.696 136.83C400.764 137.034 400.929 137.191 401.137 137.248C401.194 137.264 401.252 137.272 401.309 137.272ZM407.143 130.782L401.619 135.508L399.312 128.606C398.729 126.859 399.137 125.018 400.405 123.683C401.674 122.346 403.491 121.842 405.266 122.336C406.527 122.685 407.576 123.504 408.22 124.643C408.864 125.781 409.027 127.103 408.679 128.365C408.418 129.309 407.886 130.145 407.143 130.782Z" fill="#222433"/>
<path d="M368.987 139.442C369.238 139.442 369.478 139.294 369.582 139.048L372.088 133.141C372.227 132.812 372.074 132.432 371.745 132.292C371.416 132.152 371.036 132.306 370.897 132.635L368.391 138.541C368.252 138.871 368.405 139.251 368.734 139.391C368.817 139.426 368.902 139.442 368.987 139.442Z" fill="#222433"/>
<path d="M368.987 139.442C369.143 139.442 369.297 139.386 369.418 139.277C369.616 139.101 369.686 138.821 369.594 138.571L367.461 132.764C367.337 132.428 366.965 132.256 366.63 132.38C366.295 132.503 366.123 132.875 366.246 133.211L367.816 137.483L363.544 135.342C363.225 135.182 362.836 135.311 362.676 135.631C362.516 135.951 362.645 136.34 362.965 136.5L368.697 139.374C368.789 139.42 368.888 139.442 368.987 139.442Z" fill="#222433"/>
<path d="M380.288 146.389L379.311 143.734C378.458 141.412 378.434 138.866 379.242 136.527L379.835 134.801L358.144 142.787L359.707 143.713C361.837 144.968 363.468 146.924 364.32 149.247L365.297 151.902C366.811 156.044 371.394 158.172 375.532 156.656C375.537 156.654 375.543 156.652 375.548 156.65C379.686 155.132 381.81 150.544 380.293 146.403C380.292 146.399 380.29 146.394 380.288 146.389Z" fill="white"/>
<path d="M372.785 157.795C373.785 157.795 374.787 157.619 375.754 157.264C380.237 155.62 382.538 150.65 380.901 146.181C380.901 146.18 380.896 146.166 380.895 146.166L379.919 143.511C379.119 141.335 379.096 138.93 379.854 136.739L380.447 135.011C380.528 134.775 380.467 134.513 380.288 134.338C380.109 134.163 379.847 134.107 379.612 134.193L357.92 142.179C357.686 142.265 357.522 142.479 357.499 142.728C357.477 142.977 357.599 143.217 357.814 143.344L359.378 144.27C361.375 145.447 362.914 147.294 363.713 149.47L364.69 152.126C365.481 154.29 367.068 156.017 369.158 156.988C370.314 157.525 371.547 157.795 372.785 157.795ZM380.288 146.389L379.684 146.619C381.078 150.425 379.122 154.649 375.326 156.042C373.47 156.722 371.479 156.639 369.703 155.813C367.926 154.988 366.577 153.52 365.904 151.679L364.927 149.023C364.026 146.567 362.288 144.483 360.035 143.155L359.646 142.924L378.781 135.879L378.631 136.317C377.776 138.788 377.802 141.502 378.704 143.958L379.681 146.613C379.682 146.614 379.682 146.614 379.682 146.614L380.288 146.389Z" fill="#222433"/>
<path d="M384.755 107.855C384.761 107.855 384.767 107.855 384.774 107.854C385.131 107.844 385.412 107.546 385.402 107.188L385.222 101.029C385.212 100.671 384.914 100.39 384.557 100.4C384.2 100.411 383.918 100.709 383.929 101.066L384.108 107.226C384.118 107.577 384.406 107.855 384.755 107.855Z" fill="#222433"/>
<path d="M384.755 107.855C385.009 107.855 385.25 107.704 385.353 107.454L387.701 101.758C387.837 101.428 387.68 101.049 387.349 100.913C387.019 100.776 386.641 100.934 386.505 101.265L384.157 106.96C384.02 107.291 384.178 107.669 384.508 107.806C384.589 107.839 384.672 107.855 384.755 107.855Z" fill="#222433"/>
<path d="M384.755 107.855C384.849 107.855 384.945 107.834 385.036 107.79C385.358 107.635 385.493 107.248 385.337 106.926L382.661 101.375C382.506 101.053 382.119 100.918 381.797 101.073C381.475 101.228 381.34 101.616 381.495 101.938L384.172 107.489C384.284 107.72 384.515 107.855 384.755 107.855Z" fill="#222433"/>
<path d="M390.368 112.509L384.755 107.207L379.458 112.825C375.999 116.494 376.167 122.273 379.831 125.735L385.448 131.04L390.746 125.42C394.204 121.752 394.037 115.972 390.372 112.51L390.368 112.509Z" fill="white"/>
<path d="M385.448 131.687C385.454 131.687 385.46 131.687 385.467 131.687C385.638 131.682 385.801 131.609 385.918 131.484L391.217 125.864C394.914 121.942 394.735 115.74 390.816 112.039C390.804 112.027 390.79 112.016 390.777 112.005L385.199 106.736C385.074 106.618 384.908 106.556 384.736 106.56C384.564 106.565 384.402 106.638 384.284 106.763L378.987 112.381C377.196 114.281 376.251 116.765 376.327 119.376C376.402 121.988 377.489 124.413 379.387 126.206L385.004 131.511C385.124 131.624 385.283 131.687 385.448 131.687ZM389.963 113.014C393.329 116.228 393.473 121.584 390.276 124.975L385.421 130.124L380.276 125.264C378.629 123.708 377.686 121.604 377.62 119.339C377.555 117.073 378.374 114.918 379.929 113.27L384.782 108.123L389.924 112.98C389.936 112.992 389.949 113.003 389.963 113.014ZM390.368 112.509H390.366H390.368Z" fill="#222433"/>
<path d="M385.569 139.942C383.11 139.942 381.116 137.946 381.116 135.485C381.116 133.023 383.11 131.028 385.569 131.028C388.029 131.028 390.022 133.023 390.022 135.485C390.022 137.946 388.029 139.942 385.569 139.942Z" fill="white"/>
<path d="M385.569 140.589C388.382 140.589 390.669 138.3 390.669 135.485C390.669 132.67 388.382 130.38 385.569 130.38C382.757 130.38 380.469 132.67 380.469 135.485C380.469 138.3 382.757 140.589 385.569 140.589ZM385.569 131.675C387.668 131.675 389.376 133.384 389.376 135.485C389.376 137.585 387.668 139.294 385.569 139.294C383.471 139.294 381.763 137.585 381.763 135.485C381.763 133.384 383.471 131.675 385.569 131.675Z" fill="#222433"/>
<path d="M383.342 178.506C383.416 178.506 383.491 178.493 383.565 178.466C383.9 178.343 384.072 177.971 383.949 177.635L374.01 150.59C373.886 150.255 373.515 150.083 373.179 150.206C372.844 150.33 372.672 150.702 372.795 151.037L382.735 178.082C382.831 178.344 383.078 178.506 383.342 178.506Z" fill="#222433"/>
<path d="M389.837 178.506C390.12 178.506 390.38 178.319 390.46 178.032L402.072 136.276C402.167 135.932 401.966 135.575 401.622 135.479C401.278 135.382 400.921 135.584 400.825 135.929L389.213 177.685C389.117 178.029 389.319 178.386 389.663 178.482C389.721 178.499 389.779 178.506 389.837 178.506Z" fill="#222433"/>
<path d="M386.793 178.506C386.8 178.506 386.807 178.506 386.814 178.506C387.171 178.494 387.452 178.195 387.44 177.838L386.216 139.921C386.205 139.564 385.905 139.286 385.549 139.295C385.192 139.306 384.912 139.605 384.923 139.963L386.147 177.879C386.158 178.23 386.445 178.506 386.793 178.506Z" fill="#222433"/>
<path d="M385.477 187.572L377.959 177.859H396.298L388.771 187.585C394.81 187.997 400.02 192.108 401.784 197.977L401.853 198.21C404.044 206 399.511 214.093 391.729 216.287C390.44 216.65 389.108 216.834 387.769 216.835H386.492C378.412 216.933 371.782 210.456 371.684 202.369C371.589 194.503 377.708 188.013 385.477 187.572Z" fill="#9AE2E0"/>
<path d="M403.491 82.4461C403.867 82.4461 404.172 82.1415 404.172 81.7656V79.1181C404.172 78.7422 403.867 78.4375 403.491 78.4375C403.115 78.4375 402.811 78.7422 402.811 79.1181V81.7656C402.811 82.1415 403.115 82.4461 403.491 82.4461Z" fill="#222433"/>
<path d="M403.491 90.9875C403.867 90.9875 404.172 90.6829 404.172 90.307V87.6595C404.172 87.2836 403.867 86.9789 403.491 86.9789C403.115 86.9789 402.811 87.2836 402.811 87.6595V90.307C402.811 90.6829 403.115 90.9875 403.491 90.9875Z" fill="#222433"/>
<path d="M405.573 83.3083C405.747 83.3083 405.921 83.2418 406.054 83.1089L407.925 81.2373C408.191 80.9714 408.191 80.5406 407.925 80.2747C407.659 80.009 407.229 80.009 406.963 80.2747L405.092 82.1463C404.826 82.4122 404.826 82.843 405.092 83.1089C405.225 83.2418 405.399 83.3083 405.573 83.3083Z" fill="#222433"/>
<path d="M399.536 89.3495C399.71 89.3495 399.884 89.283 400.017 89.1501L401.888 87.2785C402.154 87.0126 402.154 86.5818 401.888 86.3159C401.622 86.0503 401.192 86.0503 400.926 86.3159L399.055 88.1875C398.789 88.4534 398.789 88.8842 399.055 89.1501C399.188 89.283 399.362 89.3495 399.536 89.3495Z" fill="#222433"/>
<path d="M406.437 85.3932H409.082C409.457 85.3932 409.762 85.0885 409.762 84.7126C409.762 84.3367 409.457 84.032 409.082 84.032H406.437C406.061 84.032 405.757 84.3367 405.757 84.7126C405.757 85.0885 406.061 85.3932 406.437 85.3932Z" fill="#222433"/>
<path d="M397.899 85.3932H400.543C400.919 85.3932 401.223 85.0885 401.223 84.7126C401.223 84.3367 400.919 84.032 400.543 84.032H397.899C397.523 84.032 397.218 84.3367 397.218 84.7126C397.218 85.0885 397.523 85.3932 397.899 85.3932Z" fill="#222433"/>
<path d="M407.444 89.3495C407.618 89.3495 407.792 89.283 407.925 89.1501C408.191 88.8842 408.191 88.4534 407.925 88.1875L406.054 86.3159C405.788 86.0503 405.358 86.0503 405.092 86.3159C404.826 86.5818 404.826 87.0126 405.092 87.2785L406.963 89.1501C407.096 89.283 407.27 89.3495 407.444 89.3495Z" fill="#222433"/>
<path d="M401.407 83.3083C401.581 83.3083 401.755 83.2418 401.888 83.1089C402.154 82.843 402.154 82.4122 401.888 82.1463L400.017 80.2747C399.751 80.009 399.321 80.009 399.055 80.2747C398.789 80.5406 398.789 80.9714 399.055 81.2373L400.926 83.1089C401.059 83.2418 401.233 83.3083 401.407 83.3083Z" fill="#222433"/>
<path d="M351.574 165.416C351.95 165.416 352.255 165.111 352.255 164.735V162.088C352.255 161.712 351.95 161.407 351.574 161.407C351.198 161.407 350.894 161.712 350.894 162.088V164.735C350.894 165.111 351.198 165.416 351.574 165.416Z" fill="#222433"/>
<path d="M351.574 173.957C351.95 173.957 352.255 173.652 352.255 173.276V170.629C352.255 170.253 351.95 169.948 351.574 169.948C351.198 169.948 350.894 170.253 350.894 170.629V173.276C350.894 173.652 351.198 173.957 351.574 173.957Z" fill="#222433"/>
<path d="M353.656 166.278C353.83 166.278 354.004 166.211 354.137 166.078L356.008 164.207C356.274 163.941 356.274 163.51 356.008 163.244C355.742 162.979 355.312 162.979 355.046 163.244L353.175 165.116C352.909 165.382 352.909 165.812 353.175 166.078C353.308 166.211 353.482 166.278 353.656 166.278Z" fill="#222433"/>
<path d="M347.619 172.319C347.793 172.319 347.967 172.253 348.1 172.12L349.971 170.248C350.237 169.982 350.237 169.551 349.971 169.285C349.705 169.02 349.275 169.02 349.009 169.285L347.138 171.157C346.872 171.423 346.872 171.854 347.138 172.12C347.271 172.253 347.445 172.319 347.619 172.319Z" fill="#222433"/>
<path d="M354.52 168.363H357.165C357.54 168.363 357.845 168.058 357.845 167.682C357.845 167.306 357.54 167.001 357.165 167.001H354.52C354.144 167.001 353.84 167.306 353.84 167.682C353.84 168.058 354.144 168.363 354.52 168.363Z" fill="#222433"/>
<path d="M345.982 168.363H348.626C349.002 168.363 349.306 168.058 349.306 167.682C349.306 167.306 349.002 167.001 348.626 167.001H345.982C345.606 167.001 345.301 167.306 345.301 167.682C345.301 168.058 345.606 168.363 345.982 168.363Z" fill="#222433"/>
<path d="M355.527 172.319C355.701 172.319 355.875 172.253 356.008 172.12C356.274 171.854 356.274 171.423 356.008 171.157L354.137 169.285C353.871 169.02 353.441 169.02 353.175 169.285C352.909 169.551 352.909 169.982 353.175 170.248L355.046 172.12C355.179 172.253 355.353 172.319 355.527 172.319Z" fill="#222433"/>
<path d="M349.49 166.278C349.664 166.278 349.838 166.211 349.971 166.078C350.237 165.812 350.237 165.382 349.971 165.116L348.1 163.244C347.834 162.979 347.404 162.979 347.138 163.244C346.872 163.51 346.872 163.941 347.138 164.207L349.009 166.078C349.142 166.211 349.316 166.278 349.49 166.278Z" fill="#222433"/>
<path d="M144.308 10.3786C146.471 8.47636 149.764 8.65461 151.708 10.7791L153.319 12.5547L154.933 10.7791C156.876 8.66063 160.162 8.48261 162.324 10.3786C164.514 12.3045 164.723 15.6353 162.792 17.8188C162.775 17.8382 162.757 17.8577 162.74 17.8769L154.959 26.4656C154.135 27.3726 152.73 27.4425 151.82 26.6214C151.766 26.5721 151.713 26.5202 151.664 26.4656L143.881 17.8769C141.92 15.7214 142.083 12.3892 144.245 10.4344C144.266 10.4156 144.287 10.3971 144.308 10.3786Z" fill="white"/>
<path d="M153.31 27.8874C154.106 27.8874 154.9 27.5654 155.475 26.9316L163.315 18.2781C164.372 17.0831 164.899 15.5489 164.799 13.9585C164.699 12.3681 163.984 10.9117 162.785 9.85771C160.355 7.72651 156.602 7.92977 154.419 10.3105L153.32 11.5201L152.224 10.3133C150.037 7.92213 146.279 7.71864 143.847 9.85771L143.777 9.91998C142.593 10.9897 141.899 12.4554 141.821 14.0463C141.743 15.6374 142.291 17.1634 143.364 18.3434L151.147 26.9311C151.212 27.0033 151.281 27.0714 151.353 27.1362C151.91 27.6395 152.611 27.8874 153.31 27.8874ZM158.838 9.76905C159.917 9.76905 161 10.142 161.864 10.8999C162.783 11.7079 163.332 12.8253 163.408 14.0453C163.485 15.2656 163.081 16.4423 162.27 17.359L162.224 17.4095L154.442 26C153.878 26.6214 152.911 26.6693 152.287 26.1063C152.25 26.0723 152.214 26.0366 152.18 25.9993L144.397 17.4113C143.573 16.5053 143.153 15.3348 143.212 14.1143C143.272 12.8938 143.805 11.7697 144.713 10.9488L144.768 10.9004C144.768 10.9002 144.768 10.8999 144.768 10.8995C146.634 9.25859 149.517 9.41462 151.193 11.2472L152.803 13.0207C152.935 13.1661 153.122 13.2492 153.319 13.2492H153.319C153.516 13.2492 153.703 13.1663 153.835 13.0209L155.449 11.2453C156.346 10.2675 157.59 9.76905 158.838 9.76905Z" fill="#222433"/>
<path d="M317.748 153.535L320.652 143.054L327.466 117.862L332.896 97.7866C334.072 93.3176 330.732 88.9378 326.142 88.9378L291.355 88.8506C287.907 88.8419 284.878 91.1316 283.953 94.4455L267.437 153.61" fill="white"/>
<path d="M267.437 154.262C267.723 154.262 267.986 154.073 268.066 153.785L284.582 94.6204C285.424 91.605 288.2 89.5027 291.336 89.5027C291.342 89.5027 291.347 89.5027 291.354 89.5027L326.14 89.5898C328.108 89.5898 329.929 90.4862 331.137 92.0488C332.366 93.6395 332.777 95.6705 332.263 97.6209L320.021 142.884L317.118 153.362C317.022 153.709 317.226 154.068 317.574 154.164C317.922 154.26 318.282 154.056 318.378 153.709L321.282 143.228L333.527 97.9565C334.145 95.6079 333.651 93.1659 332.172 91.2524C330.714 89.367 328.517 88.2856 326.142 88.2856L291.357 88.1985C291.35 88.1985 291.343 88.1985 291.336 88.1985C287.615 88.1985 284.322 90.6927 283.323 94.2707L266.807 153.435C266.71 153.782 266.914 154.141 267.261 154.238C267.32 154.254 267.379 154.262 267.437 154.262Z" fill="#222433"/>
<path d="M239.333 217.08C239.59 217.08 239.833 216.928 239.937 216.677L266.117 153.517C266.255 153.185 266.097 152.803 265.763 152.666C265.43 152.528 265.047 152.686 264.909 153.019L238.729 216.178C238.591 216.511 238.75 216.892 239.084 217.03C239.165 217.063 239.25 217.08 239.333 217.08Z" fill="#222433"/>
<path d="M247.136 156.596H314.681C316.375 156.596 317.748 155.226 317.748 153.535V152.666H245.623L247.136 156.596Z" fill="#222433"/>
<path d="M342.558 217.533C342.653 217.533 342.749 217.512 342.841 217.469C343.166 217.313 343.303 216.923 343.146 216.598L313.278 154.674C313.121 154.349 312.73 154.213 312.405 154.369C312.08 154.525 311.943 154.915 312.1 155.239L341.969 217.164C342.081 217.397 342.315 217.533 342.558 217.533Z" fill="#222433"/>
<path d="M315.396 217.533C315.491 217.533 315.587 217.512 315.679 217.469C316.004 217.313 316.141 216.923 315.984 216.598L286.118 154.674C285.962 154.35 285.571 154.213 285.246 154.369C284.92 154.525 284.784 154.915 284.94 155.24L314.806 217.164C314.919 217.397 315.152 217.533 315.396 217.533Z" fill="#222433"/>
<path d="M125.066 176.141C124.056 185.558 113.59 199.934 97.8335 202.296C90.8525 203.343 85.3709 210.222 84.6244 217.2L127.058 217.217L146.295 203.065L143.646 217.23H153.899L156.533 202.758" fill="white"/>
<path d="M143.645 217.882H153.899C154.213 217.882 154.483 217.657 154.539 217.347L157.173 202.875C157.238 202.521 157.003 202.182 156.65 202.117C156.296 202.053 155.957 202.287 155.892 202.642L153.356 216.579H144.43L146.935 203.185C146.984 202.922 146.868 202.655 146.642 202.513C146.415 202.371 146.125 202.382 145.91 202.54L126.844 216.566L85.3656 216.549C86.4091 209.763 91.8056 203.859 97.93 202.94C105.151 201.858 112.086 198.083 117.456 192.309C122.079 187.339 125.165 181.321 125.713 176.211C125.751 175.853 125.492 175.532 125.135 175.494C124.778 175.455 124.456 175.714 124.418 176.072C123.457 185.037 113.403 199.304 97.737 201.652C90.8391 202.686 84.7949 209.486 83.977 217.131C83.9572 217.315 84.0165 217.498 84.1399 217.636C84.2634 217.773 84.4394 217.852 84.6241 217.852L127.057 217.869H127.057C127.196 217.869 127.331 217.825 127.443 217.743L145.352 204.568L143.006 217.111C142.97 217.301 143.021 217.498 143.144 217.647C143.268 217.796 143.452 217.882 143.645 217.882Z" fill="#222433"/>
<path d="M214.617 113.106C219.349 119.061 216.142 129.25 208.043 129.321C207.933 129.321 207.826 129.321 207.719 129.318C204.13 129.236 200.508 129.749 197.558 134.087C195.484 137.137 192.84 142.04 190.005 139.941C188.047 138.48 190.9 132.623 192.848 128.226C187.65 132.758 180.835 138.68 178.635 136.42C176.435 134.161 180.985 129.392 187.762 123.56C179.198 128.625 175.388 132.489 173.526 130.071C170.46 126.078 187.379 114.664 194.292 112.305C194.292 112.305 195.925 111.704 201.681 109.233C207.576 106.708 212.135 109.984 214.617 113.106Z" fill="white"/>
<path d="M191.41 141.1C191.575 141.1 191.74 141.085 191.907 141.055C194.01 140.679 195.779 137.978 197.34 135.595C197.599 135.199 197.852 134.813 198.096 134.454C200.71 130.609 203.828 129.88 207.704 129.97C207.799 129.972 207.896 129.972 207.994 129.972H208.042C211.711 129.94 214.743 127.967 216.367 124.559C218.201 120.708 217.703 115.942 215.126 112.7C213.355 110.472 208.473 105.615 201.425 108.633C195.766 111.062 194.083 111.688 194.067 111.694C188.178 113.703 174.254 122.685 172.669 127.937C172.295 129.175 172.648 129.996 173.011 130.468C174.237 132.062 176.088 131.316 176.696 131.071C178.059 130.521 179.797 129.391 181.993 127.958C178.883 131.074 177.502 133.217 177.428 134.892C177.394 135.668 177.643 136.335 178.169 136.875C180.354 139.119 185.053 135.759 191.065 130.627C189.187 134.894 187.641 138.99 189.616 140.463C190.188 140.887 190.79 141.1 191.41 141.1ZM207.086 128.659C203.565 128.659 199.957 129.4 197.02 133.721C196.771 134.086 196.515 134.478 196.251 134.881C194.904 136.936 193.228 139.495 191.678 139.772C191.241 139.85 190.82 139.734 190.392 139.417C189.013 138.388 191.385 133.092 192.954 129.587C193.121 129.213 193.285 128.847 193.444 128.49C193.567 128.211 193.481 127.883 193.235 127.701C192.989 127.52 192.651 127.534 192.421 127.734C188.388 131.25 180.883 137.795 179.102 135.965C178.829 135.685 178.711 135.363 178.729 134.95C178.841 132.41 183.842 127.793 188.186 124.054C188.442 123.834 188.487 123.455 188.291 123.18C188.094 122.906 187.721 122.827 187.431 122.999C185.063 124.399 183.096 125.683 181.36 126.815C176.967 129.682 174.985 130.897 174.042 129.673C173.783 129.335 173.741 128.89 173.915 128.314C175.283 123.781 188.287 115.043 194.502 112.922C194.584 112.892 196.231 112.281 201.937 109.831C208.162 107.166 212.522 111.517 214.107 113.511C216.381 116.373 216.817 120.587 215.191 123.998C213.79 126.939 211.182 128.641 208.037 128.669H207.995C207.907 128.669 207.821 128.669 207.735 128.667C207.519 128.662 207.303 128.659 207.086 128.659Z" fill="#222433"/>
<path d="M307.713 143.095C303.434 148.179 296.945 152.73 289.887 153.756L243.014 153.539L228.475 118.131L233.249 115.524L307.713 143.095Z" fill="white"/>
<path d="M289.887 154.408C289.918 154.408 289.95 154.406 289.981 154.402C296.451 153.46 303.266 149.391 308.211 143.515C308.348 143.353 308.397 143.134 308.343 142.929C308.288 142.723 308.138 142.557 307.939 142.484L233.475 114.913C233.298 114.848 233.102 114.862 232.937 114.952L228.163 117.559C227.871 117.718 227.746 118.071 227.873 118.379L242.412 153.787C242.512 154.03 242.748 154.19 243.011 154.191L289.884 154.408C289.885 154.408 289.886 154.408 289.887 154.408ZM306.605 143.38C301.933 148.623 295.73 152.233 289.841 153.105L243.451 152.89L229.298 118.423L233.3 116.238L306.605 143.38Z" fill="#222433"/>
<path d="M266.884 77.6921C260.333 82.6671 235.419 103.793 235.419 103.793L199.179 109.007L200.513 115.175L201.783 121.606H248.439L266.884 118.565L281.424 85.1116L266.884 77.6921Z" fill="white"/>
<path d="M201.783 122.258H248.439C248.474 122.258 248.51 122.255 248.545 122.249L266.99 119.208C267.208 119.172 267.393 119.028 267.481 118.825L282.021 85.3718C282.158 85.056 282.026 84.6878 281.72 84.5312L267.18 77.1117C266.958 76.9981 266.69 77.0219 266.491 77.1731C260.259 81.9059 237.185 101.443 235.141 103.175L199.086 108.362C198.907 108.388 198.747 108.487 198.644 108.635C198.541 108.784 198.504 108.968 198.542 109.145L199.877 115.314L201.144 121.733C201.204 122.038 201.472 122.258 201.783 122.258ZM248.386 120.955H202.318L201.151 115.049L199.963 109.553L235.511 104.439C235.632 104.421 235.746 104.37 235.839 104.291C236.084 104.083 260.031 83.7845 266.953 78.4594L280.582 85.4142L266.429 117.98L248.386 120.955Z" fill="#222433"/>
<path d="M246.703 39.4935L251.694 32.325L266.863 44.1053L280.556 57.9581L279.471 59.6959L245.835 41.2314L246.703 39.4935Z" fill="white"/>
<path d="M194.609 121.503L182.626 123.5C178.25 124.234 174.222 126.344 171.125 129.524L157.212 143.602L144.468 156.493L125.063 176.141L128.82 179.319L144.034 192.19L157.638 203.693L171.58 189.425L185.818 174.84L196.163 164.226L203.866 161.942" fill="white"/>
<path d="M157.638 204.344C157.807 204.344 157.976 204.278 158.103 204.148L172.046 189.881L186.284 175.296L196.51 164.803L204.051 162.567C204.396 162.464 204.592 162.102 204.49 161.757C204.388 161.411 204.026 161.214 203.681 161.317L195.978 163.601C195.871 163.633 195.774 163.692 195.697 163.771L185.352 174.385L171.115 188.969L157.595 202.804L144.454 191.692L126.021 176.098L144.931 156.951L157.675 144.061L171.587 129.982C174.612 126.877 178.465 124.858 182.733 124.143L194.715 122.146C195.07 122.087 195.31 121.752 195.251 121.396C195.192 121.042 194.856 120.801 194.502 120.861L182.519 122.857C177.975 123.619 173.874 125.767 170.658 129.069L156.749 143.144L144.005 156.034L124.6 175.683C124.472 175.812 124.405 175.989 124.413 176.17C124.421 176.352 124.504 176.522 124.643 176.639L157.218 204.19C157.34 204.293 157.489 204.344 157.638 204.344Z" fill="#222433"/>
<path d="M218.466 190.4C216 196.311 211.024 200.968 202.679 202.296C196.106 203.343 193.311 210.222 195.301 217.2L239.57 217.217L251.447 203.065L254.32 217.23H264.576L256.039 176.278" fill="white"/>
<path d="M254.32 217.882H264.576C264.772 217.882 264.957 217.794 265.081 217.641C265.205 217.489 265.253 217.289 265.213 217.097L256.676 176.145C256.603 175.793 256.258 175.566 255.906 175.64C255.554 175.713 255.328 176.059 255.401 176.411L263.775 216.579H254.852L252.085 202.935C252.035 202.69 251.85 202.495 251.608 202.433C251.365 202.372 251.109 202.454 250.948 202.645L239.267 216.565L195.8 216.548C194.874 212.903 195.289 209.344 196.96 206.72C198.283 204.642 200.296 203.335 202.782 202.939C210.601 201.694 216.232 197.445 219.067 190.651C219.206 190.319 219.049 189.937 218.718 189.798C218.386 189.66 218.004 189.817 217.866 190.149C215.214 196.504 209.928 200.482 202.577 201.652C199.713 202.108 197.391 203.618 195.862 206.019C193.92 209.071 193.487 213.211 194.675 217.378C194.755 217.658 195.01 217.851 195.301 217.851L239.57 217.869H239.57C239.763 217.869 239.945 217.784 240.069 217.636L251.078 204.518L253.682 217.36C253.744 217.664 254.01 217.882 254.32 217.882ZM195.301 217.2H195.299H195.301Z" fill="#222433"/>
<path d="M245.704 153.657L252.101 167.56L256.114 176.279L218.543 190.399L215.766 184.969L207.387 168.57L193.284 140.947C190.516 134.407 191.169 126.918 195.027 120.957C198.086 116.217 202.889 112.966 208.296 111.831H231.079" fill="white"/>
<path d="M218.544 191.051C218.62 191.051 218.697 191.038 218.772 191.009L256.342 176.889C256.512 176.826 256.647 176.694 256.716 176.527C256.785 176.36 256.781 176.171 256.705 176.007L246.295 153.384C246.145 153.057 245.758 152.914 245.431 153.065C245.105 153.215 244.962 153.602 245.112 153.929L255.229 175.915L218.858 189.585L207.967 168.273L193.874 140.671C191.197 134.327 191.832 127.092 195.573 121.311C198.476 116.813 203.135 113.599 208.364 112.482H231.079C231.438 112.482 231.73 112.191 231.73 111.831C231.73 111.471 231.438 111.179 231.079 111.179H208.296C208.251 111.179 208.206 111.184 208.162 111.193C202.569 112.367 197.582 115.797 194.48 120.603C190.5 126.753 189.829 134.453 192.685 141.201C192.691 141.215 192.697 141.229 192.704 141.243L206.808 168.866L215.186 185.265L217.964 190.696C218.078 190.92 218.305 191.051 218.544 191.051Z" fill="#222433"/>
<path d="M284.877 73.2504C290.936 74.2683 296.343 77.6519 299.964 82.5659L299.963 82.5661L328.922 120.389C333.733 126.523 332.666 135.399 326.538 140.215C324.054 142.167 320.987 143.228 317.829 143.229C317.647 143.229 317.46 143.229 317.276 143.218L264.825 141.161C258.768 140.924 253.752 136.898 251.967 131.451" fill="white"/>
<path d="M317.829 143.88C321.118 143.88 324.354 142.76 326.94 140.727C330.04 138.291 332.007 134.791 332.478 130.874C332.949 126.957 331.868 123.09 329.434 119.987L300.496 82.1907C300.493 82.1868 300.49 82.1827 300.488 82.1788C296.709 77.0513 291.203 73.6523 284.984 72.6074C284.63 72.5481 284.294 72.7873 284.235 73.1422C284.175 73.4972 284.414 73.8332 284.769 73.8928C290.644 74.8796 295.848 78.0894 299.424 82.9313C299.431 82.9417 299.439 82.9521 299.446 82.9621L328.405 120.786C330.629 123.621 331.615 127.147 331.186 130.718C330.756 134.29 328.963 137.481 326.136 139.702C323.778 141.556 320.828 142.577 317.829 142.577C317.657 142.577 317.479 142.577 317.314 142.567L264.851 140.509C259.258 140.291 254.329 136.569 252.586 131.248C252.474 130.906 252.106 130.719 251.764 130.831C251.423 130.943 251.237 131.312 251.349 131.654C253.261 137.49 258.667 141.572 264.8 141.811L317.25 143.869C317.441 143.88 317.638 143.88 317.829 143.88Z" fill="#222433"/>
<path d="M271.617 124.929C271.93 132.532 263.337 138.867 256.755 134.142C256.666 134.077 256.579 134.014 256.494 133.949C253.645 131.763 250.418 130.039 245.479 131.8C242.007 133.038 236.983 135.437 235.931 132.067C235.211 129.732 240.965 126.687 245.13 124.286C238.262 124.877 229.269 125.635 228.824 122.512C228.379 119.388 234.863 118.223 243.771 117.515C233.872 116.549 228.518 117.42 228.44 114.368C228.316 109.332 248.704 110.106 255.676 112.282C255.676 112.282 257.349 112.76 263.454 114.163C269.701 115.606 271.453 120.943 271.617 124.929Z" fill="white"/>
<path d="M261.677 136.428C263.215 136.428 264.778 136.024 266.282 135.211C270.033 133.185 272.438 129.042 272.268 124.902C272.268 124.902 272.268 124.902 272.268 124.902C272.151 122.057 271.07 115.253 263.6 113.528C257.599 112.149 255.872 111.66 255.855 111.655C249.916 109.801 233.379 108.833 229.004 112.138C227.974 112.917 227.775 113.789 227.789 114.383C227.841 116.395 229.774 116.885 230.41 117.046C231.834 117.407 233.904 117.521 236.521 117.66C232.174 118.34 229.796 119.256 228.75 120.565C228.265 121.171 228.073 121.857 228.18 122.603C228.621 125.705 234.396 125.767 242.275 125.173C238.244 127.509 234.582 129.903 235.309 132.259C235.578 133.12 236.083 133.735 236.811 134.09C238.73 135.028 241.75 133.891 244.415 132.889C244.858 132.722 245.289 132.56 245.698 132.414C250.075 130.853 253.021 132.105 256.099 134.466C256.175 134.524 256.254 134.582 256.334 134.641L256.371 134.668C258.001 135.839 259.82 136.428 261.677 136.428ZM270.967 124.956C271.117 128.609 268.986 132.269 265.664 134.064C262.799 135.612 259.69 135.447 257.134 133.612L257.102 133.589C257.03 133.536 256.96 133.485 256.891 133.432C253.936 131.165 250.481 129.325 245.261 131.186C244.845 131.335 244.407 131.499 243.956 131.669C241.658 132.534 238.797 133.611 237.382 132.919C236.983 132.724 236.712 132.382 236.553 131.873C236.045 130.228 241.081 127.351 244.413 125.448C244.768 125.245 245.117 125.046 245.455 124.851C245.719 124.698 245.842 124.383 245.751 124.091C245.66 123.799 245.378 123.611 245.074 123.637C239.746 124.095 229.829 124.948 229.469 122.419C229.414 122.033 229.508 121.702 229.766 121.379C231.353 119.394 238.112 118.619 243.823 118.165C244.159 118.138 244.419 117.859 244.422 117.521C244.425 117.184 244.17 116.899 243.834 116.867C241.097 116.599 238.752 116.474 236.683 116.364C231.447 116.085 229.13 115.896 229.09 114.351C229.08 113.925 229.308 113.541 229.788 113.179C233.564 110.326 249.213 110.947 255.482 112.904C255.566 112.929 257.256 113.407 263.308 114.799C269.905 116.321 270.862 122.409 270.967 124.956Z" fill="#222433"/>
<path d="M189.42 164.887H196.163C196.522 164.887 196.814 164.595 196.814 164.235C196.814 163.875 196.522 163.583 196.163 163.583H189.42C189.061 163.583 188.769 163.875 188.769 164.235C188.769 164.595 189.061 164.887 189.42 164.887Z" fill="#222433"/>
<path d="M108.046 192.095C110.973 192.095 120.623 187.384 121.713 186.847C121.936 186.737 122.077 186.51 122.077 186.262C122.077 186.014 121.936 185.787 121.713 185.677C120.623 185.14 110.973 180.429 108.048 180.429C108.047 180.429 108.046 180.429 108.045 180.429C104.834 180.429 102.22 183.044 102.219 186.26V186.262C102.219 189.478 104.833 192.095 108.046 192.095ZM119.929 186.262C116.456 187.915 110.007 190.791 108.048 190.791C105.551 190.791 103.521 188.76 103.521 186.262V186.26C103.522 183.763 105.552 181.733 108.046 181.733C108.046 181.733 108.047 181.733 108.048 181.733C110.008 181.733 116.457 184.609 119.929 186.262Z" fill="#222433"/>
<path d="M113.068 202.563C113.286 202.563 113.506 202.55 113.727 202.526C115.273 202.352 116.66 201.587 117.632 200.369C119.457 198.079 121.801 187.59 122.062 186.402C122.115 186.16 122.026 185.908 121.832 185.753C121.639 185.598 121.373 185.566 121.149 185.672C120.049 186.19 110.35 190.799 108.524 193.089C107.553 194.306 107.114 195.828 107.286 197.376C107.459 198.924 108.223 200.311 109.439 201.283L109.442 201.287C110.485 202.12 111.753 202.563 113.068 202.563ZM120.492 187.433C119.616 191.181 117.837 198.022 116.614 199.556C115.86 200.501 114.783 201.096 113.582 201.23C112.381 201.365 111.199 201.023 110.255 200.268C110.254 200.267 110.253 200.267 110.252 200.266C109.308 199.51 108.714 198.433 108.58 197.231C108.446 196.03 108.787 194.847 109.541 193.903C110.765 192.368 117.035 189.118 120.492 187.433Z" fill="#222433"/>
<path d="M204.108 200.184C204.357 200.184 204.608 200.168 204.859 200.136C207.765 199.764 216.729 193.863 217.741 193.192C217.948 193.055 218.059 192.812 218.027 192.566C217.995 192.319 217.827 192.112 217.592 192.032C216.442 191.638 206.274 188.192 203.371 188.563C200.188 188.976 197.931 191.905 198.34 195.091C198.538 196.636 199.325 198.012 200.556 198.964C201.587 199.762 202.826 200.184 204.108 200.184ZM215.898 192.839C212.667 194.921 206.641 198.594 204.695 198.842C203.495 198.996 202.308 198.673 201.352 197.933C200.396 197.193 199.785 196.125 199.632 194.925V194.924C199.314 192.45 201.067 190.176 203.538 189.856C205.482 189.608 212.244 191.641 215.898 192.839Z" fill="#222433"/>
<path d="M230.631 200.496C231.864 200.496 233.06 200.106 234.072 199.361C235.325 198.437 236.145 197.08 236.379 195.54L236.379 195.538C236.863 192.36 234.674 189.381 231.5 188.894C231.498 188.894 231.496 188.894 231.495 188.894C228.606 188.449 218.351 191.66 217.191 192.027C216.955 192.102 216.781 192.305 216.744 192.551C216.707 192.796 216.812 193.042 217.016 193.183C218.014 193.879 226.848 199.989 229.742 200.429C230.039 200.474 230.336 200.496 230.631 200.496ZM235.092 195.342C235.092 195.344 235.091 195.346 235.091 195.347C234.91 196.54 234.274 197.594 233.3 198.311C232.327 199.028 231.132 199.322 229.938 199.14C227.999 198.845 222.053 195.03 218.867 192.873C222.551 191.76 229.363 189.884 231.297 190.181C233.767 190.558 235.468 192.873 235.092 195.342Z" fill="#222433"/>
<path d="M245.602 38.9676C246.35 34.6851 248.593 30.7863 251.917 27.9896C255.444 25.0099 259.925 23.4962 264.534 23.7289C270.591 24.0313 276.174 27.2565 279.492 32.3631C279.627 32.5517 282.815 37.2706 286.16 37.2706C288.238 37.2706 290.398 36.1629 292.59 33.6537C297.305 28.2262 304.127 24.9586 311.307 24.6886C315.938 24.5118 320.539 25.5771 324.611 27.7705C328.56 29.898 331.933 33.0331 334.369 36.8446C336.422 40.1624 339.054 42.0079 341.983 42.1815C344.967 42.3551 347.972 40.7487 350.448 37.6477C350.742 37.2076 351.062 36.7705 351.397 36.3511C355.057 31.7143 360.54 28.9257 366.44 28.7006C371.852 28.4975 377.017 30.4361 380.985 34.1622C384.951 37.8862 387.246 42.9492 387.448 48.4186C387.864 59.7142 379.12 69.2464 367.955 69.6676C361.475 69.9101 355.241 66.9905 351.272 61.8584C348.624 59.0427 345.57 57.6876 342.668 58.043C339.866 58.3858 337.433 60.2661 335.633 63.4811C331.277 71.9768 322.709 77.4753 313.268 77.8314C312.936 77.844 312.604 77.85 312.273 77.85C302.066 77.85 292.791 71.9025 288.454 62.4877C286.798 58.9582 284.767 56.6847 283.273 56.6847C283.267 56.6847 283.261 56.6847 283.255 56.6847C282.357 56.696 281.53 57.5462 280.798 59.2123C280.699 59.4394 280.479 59.5895 280.231 59.6005C279.982 59.6112 279.751 59.4808 279.632 59.2638C279.609 59.223 277.345 55.1845 273.89 55.1063C273.69 55.1017 281.361 55.4315 283.491 47.5345C284.724 41.2922 276.518 32.3599 268.01 41.1184C267.226 41.9263 266.676 45.4221 266.569 45.3889C264.551 44.7602 262.322 44.071 259.937 42.0132C258 40.3429 252.827 35.6761 251.194 34.2007L246.741 39.4996C246.552 39.7251 246.235 39.7952 245.968 39.6705C245.701 39.5459 245.551 39.2578 245.602 38.9676Z" fill="#FC8383"/>
<path d="M243.048 173.611C246.773 173.611 250.242 171.605 252.104 168.376L252.412 167.839C252.592 167.527 252.485 167.129 252.174 166.949C251.862 166.77 251.464 166.877 251.284 167.188L250.976 167.725C249.346 170.552 246.308 172.308 243.048 172.308C243.047 172.308 243.047 172.308 243.046 172.308C239.786 172.308 236.749 170.553 235.119 167.726C233.492 164.903 233.492 161.395 235.119 158.572C236.741 155.746 239.766 153.987 243.02 153.974L245.563 154.189C245.921 154.219 246.236 153.953 246.266 153.594C246.297 153.235 246.031 152.92 245.673 152.89L243.101 152.673C243.083 152.671 243.063 152.669 243.046 152.67C239.318 152.674 235.848 154.686 233.99 157.922C232.133 161.146 232.133 165.153 233.991 168.378C235.853 171.606 239.322 173.611 243.046 173.611C243.046 173.611 243.047 173.611 243.048 173.611Z" fill="#222433"/>
<path d="M215.689 185.621C215.921 185.621 216.136 185.497 216.252 185.296L217.225 183.612C219.086 180.383 219.086 176.372 217.225 173.143C215.361 169.92 211.893 167.919 208.174 167.919C208.172 167.919 208.17 167.919 208.167 167.919H207.31C207.083 167.919 206.873 168.037 206.755 168.231C206.637 168.424 206.627 168.665 206.731 168.867L215.109 185.266C215.218 185.479 215.434 185.615 215.672 185.621C215.678 185.621 215.683 185.621 215.689 185.621ZM208.376 169.225C211.556 169.295 214.5 171.033 216.097 173.796C217.727 176.622 217.727 180.134 216.097 182.96L215.724 183.607L208.376 169.225Z" fill="#222433"/>
<path d="M287.889 114.463C288.133 114.463 288.357 114.326 288.468 114.108C288.584 113.882 288.558 113.609 288.401 113.409L280.502 103.336C278.815 101.192 277.832 98.6196 277.66 95.8966C277.637 95.5373 277.328 95.2632 276.969 95.2875C276.61 95.3101 276.338 95.6199 276.36 95.979C276.549 98.9672 277.628 101.79 279.478 104.142L286.507 113.105L265.957 112.292C265.955 112.292 265.953 112.291 265.951 112.291C264.334 112.228 262.734 112.426 261.196 112.881C260.851 112.982 260.654 113.345 260.756 113.69C260.858 114.035 261.22 114.232 261.564 114.131C262.965 113.717 264.423 113.537 265.897 113.594C265.898 113.594 265.9 113.594 265.902 113.594L287.863 114.463C287.872 114.463 287.88 114.463 287.889 114.463Z" fill="#222433"/>
<path d="M286.226 73.5193C287.888 74.4892 288.854 76.6116 288.854 79.0502C288.854 84.6243 283.429 89.1449 276.715 89.1449C270.26 89.1449 264.996 84.966 264.6 79.6895L266.678 77.8498" fill="white"/>
<path d="M276.715 89.7966C283.768 89.7966 289.505 84.9758 289.505 79.0502C289.505 76.3131 288.402 74.035 286.554 72.9564C286.243 72.7753 285.845 72.8802 285.664 73.1913C285.482 73.5021 285.587 73.9012 285.898 74.0826C287.32 74.9126 288.203 76.816 288.203 79.0504C288.203 84.2572 283.05 88.4934 276.715 88.4934C270.788 88.4934 265.838 84.7694 265.279 79.9582L267.109 78.3383C267.378 78.0998 267.404 77.6882 267.166 77.4184C266.927 77.1486 266.516 77.1236 266.247 77.3619L264.168 79.2016C264.016 79.3367 263.935 79.5353 263.95 79.7386C264.374 85.3783 269.981 89.7966 276.715 89.7966Z" fill="#222433"/>
<path d="M280.201 58.9716L284.787 72.9656C285.147 74.0537 285.302 75.1989 285.245 76.3435C285.072 80.1231 282.607 83.412 279.03 84.6352C274.27 86.2307 269.118 83.6609 267.524 78.8953C267.515 78.8673 266.681 76.4586 266.681 76.4586L265.382 72.5359C264.322 72.6814 263.24 72.7329 262.145 72.681C252.399 72.1944 244.889 63.8028 245.368 53.9406C245.469 51.7667 245.964 49.6548 246.806 47.6974C246.563 46.931 246.367 46.1439 246.228 45.3382C245.873 43.2667 245.878 41.1496 246.243 39.0798" fill="white"/>
<path d="M276.135 85.7627C277.176 85.7627 278.221 85.5937 279.237 85.2533C283.097 83.9332 285.709 80.4481 285.896 76.3735C285.957 75.1464 285.792 73.9301 285.405 72.761L280.819 58.7686C280.707 58.4266 280.339 58.2402 279.997 58.3526C279.656 58.4649 279.47 58.8331 279.582 59.175L284.169 73.169C284.505 74.186 284.648 75.2429 284.595 76.3112C284.432 79.8499 282.166 82.8741 278.819 84.0187C276.686 84.7339 274.397 84.5742 272.38 83.5678C270.362 82.5613 268.857 80.8285 268.141 78.6888C268.131 78.6605 267.295 76.2456 267.295 76.2456L265.999 72.3311C265.9 72.0331 265.603 71.8478 265.293 71.8906C264.26 72.0324 263.211 72.0793 262.176 72.0305C252.806 71.5625 245.557 63.4618 246.018 53.9725C246.115 51.8923 246.581 49.8684 247.404 47.9555C247.466 47.8115 247.474 47.6501 247.426 47.5006C247.187 46.747 247 45.9822 246.869 45.2273C246.526 43.2253 246.531 41.1948 246.884 39.1937C246.946 38.8392 246.71 38.5012 246.356 38.4386C246.002 38.3765 245.664 38.6126 245.602 38.9672C245.222 41.1169 245.217 43.2976 245.586 45.4491C245.713 46.1855 245.891 46.9291 246.114 47.6637C245.287 49.6553 244.818 51.7557 244.718 53.9111C244.222 64.1159 252.025 72.829 262.112 73.3327C263.049 73.3771 263.994 73.3486 264.931 73.2482L266.062 76.6646C266.065 76.6731 266.885 79.0411 266.908 79.1059C267.733 81.5729 269.47 83.573 271.799 84.7347C273.169 85.4175 274.648 85.7627 276.135 85.7627Z" fill="#222433"/>
<path d="M265.373 73.2067C265.403 73.2067 265.432 73.2047 265.462 73.2006C268.697 72.7581 271.756 71.4484 274.31 69.4132C274.591 69.189 274.638 68.7791 274.414 68.4974C274.19 68.2158 273.781 68.1693 273.499 68.3933C271.128 70.2826 268.288 71.4982 265.286 71.9092C264.93 71.9578 264.68 72.2865 264.729 72.6432C264.774 72.9699 265.053 73.2067 265.373 73.2067Z" fill="#222433"/>
<path d="M251.214 58.2678C251.441 58.2678 251.661 58.149 251.781 57.9374C251.958 57.6244 251.849 57.2266 251.536 57.0491L248.206 55.1581L251.569 48.6619C251.735 48.3423 251.61 47.9489 251.291 47.7834C250.972 47.6179 250.579 47.7426 250.413 48.0621L246.761 55.1156C246.6 55.4266 246.714 55.8094 247.018 55.9823L250.894 58.1829C250.995 58.2404 251.105 58.2678 251.214 58.2678Z" fill="#222433"/>
<path d="M256.824 51.2209C256.106 51.2209 255.524 50.6325 255.524 49.9066C255.524 49.1808 256.106 48.5924 256.824 48.5924C257.542 48.5924 258.124 49.1808 258.124 49.9066C258.124 50.6325 257.542 51.2209 256.824 51.2209Z" fill="#222433"/>
<path d="M247.15 51.5859C246.432 51.5859 245.85 50.9975 245.85 50.2716C245.85 49.5458 246.432 48.9574 247.15 48.9574C247.868 48.9574 248.45 49.5458 248.45 50.2716C248.45 50.9975 247.868 51.5859 247.15 51.5859Z" fill="#222433"/>
<path d="M253.896 63.4399C254.073 63.4399 254.251 63.4292 254.43 63.4079C255.602 63.2676 256.649 62.6787 257.379 61.7496C257.489 61.6108 257.59 61.4637 257.682 61.313L257.772 61.1692C257.962 60.8637 257.868 60.4616 257.563 60.2714C257.258 60.0811 256.856 60.1745 256.666 60.4799L256.573 60.6298C256.505 60.7421 256.433 60.8457 256.356 60.9439C255.841 61.5993 255.102 62.0148 254.275 62.1137C253.448 62.2127 252.632 61.9834 251.977 61.4679L251.417 61.0314C251.133 60.8103 250.724 60.8614 250.503 61.1455C250.283 61.4296 250.334 61.8389 250.617 62.06L251.175 62.4945C251.96 63.1123 252.91 63.4399 253.896 63.4399Z" fill="#222433"/>
<path d="M273.904 54.4566C274.299 54.5131 274.701 54.5424 275.111 54.5424C279.824 54.5424 283.644 50.6763 283.644 45.9075C283.644 41.1386 279.824 37.2726 275.111 37.2726C270.79 37.2726 267.22 40.5226 266.656 44.7386" fill="white"/>
<path d="M275.111 55.194C280.175 55.194 284.295 51.0282 284.295 45.9074C284.295 40.7867 280.175 36.6208 275.111 36.6208C270.535 36.6208 266.623 40.0735 266.011 44.6521C265.963 45.0088 266.213 45.3368 266.57 45.3844C266.926 45.4319 267.254 45.1817 267.301 44.825C267.827 40.8909 271.185 37.9242 275.111 37.9242C279.457 37.9242 282.993 41.5055 282.993 45.9074C282.993 50.3094 279.457 53.8907 275.111 53.8907C274.738 53.8907 274.363 53.8639 273.997 53.8116C273.641 53.7603 273.311 54.008 273.26 54.3644C273.209 54.7207 273.456 55.0509 273.812 55.1019C274.24 55.163 274.677 55.194 275.111 55.194Z" fill="#222433"/>
<path d="M277.79 49.2441C278.105 49.2441 278.382 49.0151 278.432 48.6941C278.489 48.3387 278.246 48.0048 277.891 47.9485L273.132 47.1952L277.62 43.3937C277.894 43.1612 277.928 42.75 277.696 42.4752C277.464 42.2004 277.053 42.1663 276.779 42.3987L271.206 47.1192C271.011 47.2838 270.931 47.5467 270.999 47.7921C271.068 48.0376 271.273 48.2205 271.525 48.2603L277.688 49.2356C277.722 49.2415 277.756 49.2441 277.79 49.2441Z" fill="#222433"/>
<path d="M197.117 152.67C197.781 152.67 198.113 152.6 198.616 152.494L198.875 152.44C199.227 152.368 199.454 152.024 199.382 151.671C199.31 151.318 198.966 151.091 198.614 151.163L198.347 151.219C197.88 151.318 197.645 151.367 197.117 151.367C191.912 151.367 187.677 147.128 187.677 141.918C187.677 138.409 189.147 135.483 191.71 133.891C192.015 133.701 192.109 133.299 191.919 132.993C191.73 132.688 191.328 132.594 191.023 132.783C188.069 134.619 186.375 137.948 186.375 141.918C186.375 147.847 191.194 152.67 197.117 152.67Z" fill="#222433"/>
<path d="M151.763 166.573C157.925 166.573 162.939 161.554 162.939 155.386C162.939 150.807 160.201 146.737 155.963 145.015C155.63 144.88 155.25 145.04 155.115 145.374C154.979 145.707 155.14 146.088 155.473 146.223C159.218 147.744 161.637 151.34 161.637 155.386C161.637 160.836 157.208 165.27 151.763 165.27C147.691 165.27 144.088 162.823 142.584 159.035C142.451 158.701 142.073 158.537 141.739 158.67C141.404 158.803 141.241 159.182 141.374 159.517C143.076 163.803 147.154 166.573 151.763 166.573Z" fill="#222433"/>
<path d="M172.008 189.128C172.212 189.128 172.413 189.033 172.54 188.853C172.748 188.56 172.679 188.153 172.385 187.945C170.003 186.255 168.581 183.503 168.581 180.585C168.581 175.614 172.621 171.57 177.587 171.57C180.397 171.57 182.996 172.848 184.717 175.078C184.937 175.363 185.346 175.415 185.631 175.195C185.915 174.975 185.968 174.566 185.748 174.281C183.778 171.73 180.804 170.266 177.587 170.266C171.903 170.266 167.279 174.895 167.279 180.585C167.279 183.925 168.906 187.074 171.632 189.009C171.747 189.089 171.878 189.128 172.008 189.128Z" fill="#222433"/>
<path d="M145.876 193.813C146.09 193.813 146.298 193.709 146.423 193.516C147.574 191.739 148.183 189.676 148.183 187.55C148.183 181.496 143.263 176.571 137.215 176.571C134.424 176.571 131.764 177.621 129.727 179.529C129.464 179.774 129.45 180.187 129.696 180.45C129.941 180.713 130.353 180.726 130.616 180.481C132.411 178.8 134.755 177.874 137.215 177.874C142.545 177.874 146.88 182.215 146.88 187.55C146.88 189.424 146.344 191.242 145.331 192.807C145.135 193.109 145.221 193.512 145.523 193.708C145.632 193.779 145.755 193.813 145.876 193.813Z" fill="#222433"/>
<path d="M221.096 144.198C215.463 144.198 210.897 139.627 210.897 133.989C210.897 128.35 215.463 123.779 221.096 123.779C226.729 123.779 231.295 128.35 231.295 133.989C231.295 139.627 226.729 144.198 221.096 144.198Z" fill="white"/>
<path d="M221.096 144.85C227.079 144.85 231.947 139.978 231.947 133.989C231.947 128 227.079 123.127 221.096 123.127C215.113 123.127 210.246 128 210.246 133.989C210.246 139.978 215.113 144.85 221.096 144.85ZM221.096 124.43C226.361 124.43 230.645 128.718 230.645 133.989C230.645 139.259 226.361 143.547 221.096 143.547C215.831 143.547 211.548 139.259 211.548 133.989C211.548 128.718 215.831 124.43 221.096 124.43Z" fill="#222433"/>
<path d="M233.783 112.371H221.137L215.821 77.4119C215.394 74.6032 212.977 72.5279 210.135 72.5295H160.823C157.648 72.5288 155.074 75.1009 155.074 78.2741C155.074 78.5643 155.096 78.8541 155.139 79.1411L160.811 116.418H221.752H229.218" fill="white"/>
<path d="M229.218 117.133H160.811C160.457 117.133 160.156 116.875 160.103 116.525L154.432 79.2486C154.383 78.9273 154.358 78.5994 154.358 78.274C154.359 74.7119 157.259 71.814 160.822 71.814C160.822 71.814 160.822 71.814 160.823 71.814H210.135C210.136 71.814 210.137 71.814 210.138 71.814C213.357 71.814 216.044 74.1223 216.528 77.3042L221.752 111.655H233.782C234.178 111.655 234.498 111.975 234.498 112.37C234.498 112.766 234.178 113.086 233.782 113.086H221.137C220.783 113.086 220.482 112.828 220.429 112.478L215.113 77.5191C214.737 75.0422 212.644 73.245 210.138 73.245C210.137 73.245 210.136 73.245 210.135 73.245H160.823C160.823 73.245 160.822 73.245 160.822 73.245C158.047 73.245 155.79 75.5009 155.79 78.2743C155.79 78.5276 155.809 78.783 155.847 79.0335L161.426 115.702H229.218C229.614 115.702 229.934 116.023 229.934 116.418C229.934 116.813 229.614 117.133 229.218 117.133Z" fill="#222433"/>
<path d="M188.036 100.97C189.555 99.4982 189.342 96.8178 187.562 94.9835C185.782 93.1492 183.108 92.8555 181.59 94.3277C180.072 95.7998 180.284 98.4802 182.064 100.315C183.844 102.149 186.518 102.442 188.036 100.97Z" fill="#9ABEE3"/>
<path d="M125.787 104.883C126.142 104.883 126.429 104.595 126.429 104.24V101.74C126.429 101.385 126.142 101.097 125.787 101.097C125.432 101.097 125.144 101.385 125.144 101.74V104.24C125.144 104.595 125.432 104.883 125.787 104.883Z" fill="#222433"/>
<path d="M125.787 112.95C126.142 112.95 126.429 112.662 126.429 112.307V109.807C126.429 109.452 126.142 109.164 125.787 109.164C125.432 109.164 125.144 109.452 125.144 109.807V112.307C125.144 112.662 125.432 112.95 125.787 112.95Z" fill="#222433"/>
<path d="M127.753 105.697C127.918 105.697 128.082 105.635 128.207 105.509L129.975 103.741C130.226 103.49 130.226 103.083 129.975 102.832C129.724 102.581 129.317 102.581 129.066 102.832L127.299 104.6C127.048 104.851 127.048 105.258 127.299 105.509C127.424 105.635 127.589 105.697 127.753 105.697Z" fill="#222433"/>
<path d="M122.051 111.403C122.216 111.403 122.38 111.34 122.506 111.215L124.273 109.447C124.524 109.196 124.524 108.789 124.273 108.538C124.022 108.287 123.615 108.287 123.364 108.538L121.597 110.306C121.346 110.557 121.346 110.964 121.597 111.215C121.723 111.34 121.887 111.403 122.051 111.403Z" fill="#222433"/>
<path d="M128.569 107.666H131.067C131.422 107.666 131.709 107.379 131.709 107.024C131.709 106.668 131.422 106.381 131.067 106.381H128.569C128.214 106.381 127.927 106.668 127.927 107.024C127.927 107.379 128.214 107.666 128.569 107.666Z" fill="#222433"/>
<path d="M120.505 107.666H123.002C123.357 107.666 123.645 107.379 123.645 107.024C123.645 106.668 123.357 106.381 123.002 106.381H120.505C120.15 106.381 119.862 106.668 119.862 107.024C119.862 107.379 120.15 107.666 120.505 107.666Z" fill="#222433"/>
<path d="M129.52 111.403C129.685 111.403 129.849 111.34 129.975 111.215C130.226 110.964 130.226 110.557 129.975 110.306L128.207 108.538C127.956 108.287 127.55 108.287 127.299 108.538C127.048 108.789 127.048 109.196 127.299 109.447L129.066 111.215C129.191 111.34 129.356 111.403 129.52 111.403Z" fill="#222433"/>
<path d="M123.818 105.697C123.983 105.697 124.147 105.635 124.273 105.509C124.524 105.258 124.524 104.851 124.273 104.6L122.506 102.832C122.255 102.581 121.848 102.581 121.597 102.832C121.346 103.083 121.346 103.49 121.597 103.741L123.364 105.509C123.49 105.635 123.654 105.697 123.818 105.697Z" fill="#222433"/>
<path d="M0.754608 218.561H408.311C408.739 218.561 409.066 218.203 409.066 217.735C409.066 217.267 408.739 216.909 408.311 216.909H0.754608C0.327026 216.909 6.10352e-05 217.267 6.10352e-05 217.735C6.10352e-05 218.203 0.327026 218.561 0.754608 218.561Z" fill="#222433"/>
<path d="M107.319 46.5392C107.695 46.5392 108 46.2345 108 45.8586V43.2111C108 42.8352 107.695 42.5305 107.319 42.5305C106.944 42.5305 106.639 42.8352 106.639 43.2111V45.8586C106.639 46.2345 106.944 46.5392 107.319 46.5392Z" fill="#222433"/>
<path d="M107.319 55.0806C107.695 55.0806 108 54.7759 108 54.4V51.7525C108 51.3766 107.695 51.0719 107.319 51.0719C106.944 51.0719 106.639 51.3766 106.639 51.7525V54.4C106.639 54.7759 106.944 55.0806 107.319 55.0806Z" fill="#222433"/>
<path d="M109.401 47.4013C109.575 47.4013 109.75 47.3348 109.882 47.2019L111.753 45.3303C112.019 45.0644 112.019 44.6336 111.753 44.3677C111.487 44.102 111.057 44.102 110.791 44.3677L108.92 46.2393C108.654 46.5052 108.654 46.936 108.92 47.2019C109.053 47.3348 109.227 47.4013 109.401 47.4013Z" fill="#222433"/>
<path d="M103.364 53.4426C103.538 53.4426 103.713 53.3761 103.845 53.2431L105.716 51.3715C105.982 51.1057 105.982 50.6748 105.716 50.409C105.45 50.1433 105.02 50.1433 104.754 50.409L102.883 52.2806C102.617 52.5465 102.617 52.9773 102.883 53.2431C103.016 53.3761 103.19 53.4426 103.364 53.4426Z" fill="#222433"/>
<path d="M110.265 49.4861H112.91C113.286 49.4861 113.59 49.1814 113.59 48.8055C113.59 48.4296 113.286 48.1249 112.91 48.1249H110.265C109.89 48.1249 109.585 48.4296 109.585 48.8055C109.585 49.1814 109.89 49.4861 110.265 49.4861Z" fill="#222433"/>
<path d="M101.727 49.4861H104.371C104.747 49.4861 105.052 49.1814 105.052 48.8055C105.052 48.4296 104.747 48.1249 104.371 48.1249H101.727C101.351 48.1249 101.046 48.4296 101.046 48.8055C101.046 49.1814 101.351 49.4861 101.727 49.4861Z" fill="#222433"/>
<path d="M111.272 53.4426C111.446 53.4426 111.621 53.3761 111.753 53.2431C112.019 52.9773 112.019 52.5465 111.753 52.2806L109.882 50.409C109.616 50.1433 109.186 50.1433 108.92 50.409C108.654 50.6748 108.654 51.1057 108.92 51.3715L110.791 53.2431C110.924 53.3761 111.098 53.4426 111.272 53.4426Z" fill="#222433"/>
<path d="M105.235 47.4013C105.409 47.4013 105.584 47.3348 105.716 47.2019C105.982 46.936 105.982 46.5052 105.716 46.2393L103.845 44.3677C103.579 44.102 103.149 44.102 102.883 44.3677C102.617 44.6336 102.617 45.0644 102.883 45.3303L104.754 47.2019C104.887 47.3348 105.061 47.4013 105.235 47.4013Z" fill="#222433"/>
<path d="M16.7738 34.1629C16.7738 33.8078 17.0614 33.52 17.4163 33.52H19.9154C20.2703 33.52 20.5579 33.8078 20.5579 34.1629C20.5579 34.518 20.2703 34.8058 19.9154 34.8058H17.4163C17.0614 34.8058 16.7738 34.518 16.7738 34.1629Z" fill="#222433"/>
<path d="M8.71106 34.1629C8.71106 33.8078 8.99867 33.52 9.35351 33.52H11.8527C12.2075 33.52 12.4951 33.8078 12.4951 34.1629C12.4951 34.518 12.2075 34.8058 11.8527 34.8058H9.35351C8.99867 34.8058 8.71106 34.518 8.71106 34.1629Z" fill="#222433"/>
<path d="M15.96 32.1956C15.96 32.031 16.0227 31.8665 16.1482 31.7411L17.915 29.9732C18.166 29.722 18.5727 29.722 18.8236 29.9732C19.0744 30.2243 19.0744 30.6313 18.8236 30.8824L17.0569 32.6504C16.8059 32.9015 16.3992 32.9015 16.1482 32.6504C16.0227 32.5246 15.96 32.3602 15.96 32.1956Z" fill="#222433"/>
<path d="M10.2571 37.9002C10.2571 37.7356 10.3199 37.5711 10.4454 37.4457L12.2121 35.6777C12.4631 35.4266 12.8698 35.4266 13.1208 35.6777C13.3715 35.9289 13.3715 36.3359 13.1208 36.587L11.354 38.355C11.103 38.6061 10.6964 38.6061 10.4454 38.355C10.3199 38.2292 10.2571 38.0648 10.2571 37.9002Z" fill="#222433"/>
<path d="M13.9919 31.3791L13.9919 28.8804C13.9919 28.5253 14.2795 28.2375 14.6344 28.2375C14.9892 28.2375 15.2769 28.5253 15.2769 28.8804L15.2769 31.3791C15.2769 31.7342 14.9892 32.022 14.6344 32.022C14.2795 32.022 13.9919 31.7342 13.9919 31.3791Z" fill="#222433"/>
<path d="M13.9919 39.4474L13.9919 36.9487C13.9919 36.5936 14.2795 36.3058 14.6344 36.3058C14.9892 36.3058 15.2769 36.5936 15.2769 36.9487L15.2769 39.4474C15.2769 39.8025 14.9892 40.0903 14.6344 40.0903C14.2795 40.0903 13.9919 39.8025 13.9919 39.4474Z" fill="#222433"/>
<path d="M10.2571 30.4277C10.2571 30.2631 10.3199 30.0985 10.4454 29.9732C10.6964 29.722 11.103 29.722 11.354 29.9732L13.1208 31.7411C13.3715 31.9923 13.3715 32.3992 13.1208 32.6504C12.8698 32.9015 12.4631 32.9015 12.2121 32.6504L10.4454 30.8824C10.3199 30.7566 10.2571 30.5923 10.2571 30.4277Z" fill="#222433"/>
<path d="M15.96 36.1323C15.96 35.9677 16.0227 35.8031 16.1482 35.6777C16.3992 35.4266 16.8059 35.4266 17.0569 35.6777L18.8236 37.4457C19.0744 37.6969 19.0744 38.1038 18.8236 38.355C18.5727 38.6061 18.166 38.6061 17.915 38.355L16.1482 36.587C16.0227 36.4612 15.96 36.2968 15.96 36.1323Z" fill="#222433"/>
<path d="M179.983 33.4666L182.057 35.5409L184.132 33.4666C185.274 32.3491 186.809 31.7234 188.407 31.7234C190.005 31.7234 191.54 32.3491 192.683 33.4666C193.8 34.6088 194.426 36.1432 194.426 37.7411C194.426 39.3391 193.8 40.8735 192.683 42.0157L190.608 44.09L182.058 52.6391L173.509 44.091L171.434 42.0167C170.316 40.8745 169.691 39.3401 169.691 37.7422C169.691 36.1443 170.316 34.6099 171.434 33.4676C172.576 32.3506 174.11 31.7251 175.708 31.7249C177.306 31.7247 178.84 32.3499 179.983 33.4666Z" fill="#FC8383"/>
<path d="M71.2553 9.75993C71.2553 9.38395 71.5598 9.07922 71.9356 9.07922L74.5817 9.07922C74.9574 9.07922 75.262 9.38395 75.262 9.75993C75.262 10.1359 74.9574 10.4406 74.5817 10.4406L71.9356 10.4406C71.5598 10.4406 71.2553 10.1359 71.2553 9.75993Z" fill="#222433"/>
<path d="M62.7182 9.75993C62.7182 9.38395 63.0227 9.07922 63.3984 9.07922L66.0446 9.07922C66.4203 9.07922 66.7249 9.38395 66.7249 9.75993C66.7249 10.1359 66.4203 10.4406 66.0446 10.4406L63.3984 10.4406C63.0227 10.4406 62.7182 10.1359 62.7182 9.75993Z" fill="#222433"/>
<path d="M70.3937 7.67693C70.3937 7.50266 70.4602 7.3284 70.5931 7.19567L72.4638 5.32372C72.7295 5.05778 73.1601 5.05778 73.4259 5.32372C73.6914 5.58965 73.6914 6.02053 73.4259 6.28646L71.5552 8.15841C71.2894 8.42434 70.8588 8.42434 70.5931 8.15841C70.4602 8.02522 70.3937 7.85119 70.3937 7.67693Z" fill="#222433"/>
<path d="M64.3554 13.7171C64.3554 13.5428 64.4218 13.3686 64.5547 13.2358L66.4254 11.3639C66.6912 11.0979 67.1218 11.0979 67.3875 11.3639C67.6531 11.6298 67.6531 12.0607 67.3875 12.3266L65.5168 14.1986C65.2511 14.4645 64.8205 14.4645 64.5547 14.1986C64.4218 14.0654 64.3554 13.8914 64.3554 13.7171Z" fill="#222433"/>
<path d="M68.3099 6.81249V4.16679C68.3099 3.79082 68.6145 3.48608 68.9902 3.48608C69.3659 3.48608 69.6704 3.79082 69.6704 4.16679V6.81249C69.6704 7.18847 69.3659 7.4932 68.9902 7.4932C68.6145 7.4932 68.3099 7.18847 68.3099 6.81249Z" fill="#222433"/>
<path d="M68.3099 15.3553V12.7096C68.3099 12.3337 68.6145 12.0289 68.9902 12.0289C69.3659 12.0289 69.6704 12.3337 69.6704 12.7096V15.3553C69.6704 15.7313 69.3659 16.036 68.9902 16.036C68.6145 16.036 68.3099 15.7313 68.3099 15.3553Z" fill="#222433"/>
<path d="M64.3554 5.80498C64.3554 5.63072 64.4218 5.45645 64.5547 5.32372C64.8205 5.05778 65.2511 5.05778 65.5168 5.32372L67.3875 7.19567C67.6531 7.4616 67.6531 7.89248 67.3875 8.15841C67.1218 8.42434 66.6912 8.42434 66.4254 8.15841L64.5547 6.28646C64.4218 6.15327 64.3554 5.97924 64.3554 5.80498Z" fill="#222433"/>
<path d="M70.3937 11.8451C70.3937 11.6709 70.4602 11.4966 70.5931 11.3639C70.8588 11.0979 71.2894 11.0979 71.5552 11.3639L73.4259 13.2358C73.6914 13.5018 73.6914 13.9326 73.4259 14.1986C73.1601 14.4645 72.7295 14.4645 72.4638 14.1986L70.5931 12.3266C70.4602 12.1934 70.3937 12.0194 70.3937 11.8451Z" fill="#222433"/>
<g opacity="0.5">
<path d="M199.18 1.27834L200.699 2.79947L202.219 1.27834C203.056 0.458872 204.179 0 205.35 0C206.52 0 207.644 0.458872 208.481 1.27834C209.3 2.11597 209.758 3.2412 209.758 4.41302C209.758 5.58483 209.3 6.71006 208.481 7.5477L206.962 9.06883L200.7 15.3382L194.438 9.0696L192.919 7.54846C192.1 6.71079 191.642 5.58558 191.642 4.41378C191.642 3.24198 192.1 2.11676 192.919 1.2791C193.755 0.459972 194.879 0.00124342 196.049 0.00110127C197.219 0.000959122 198.343 0.459414 199.18 1.27834Z" fill="#FC8383"/>
</g>
</svg>
