<svg xmlns="http://www.w3.org/2000/svg" xmlns:xlink="http://www.w3.org/1999/xlink" width="1200" zoomAndPan="magnify" viewBox="0 0 900 899.99999" height="1200" preserveAspectRatio="xMidYMid meet" version="1.2"><defs><clipPath id="3f14557f78"><path d="M 44.988281 476.761719 L 854.988281 476.761719 L 854.988281 896 L 44.988281 896 Z M 44.988281 476.761719 "/></clipPath><clipPath id="dcbcd13491"><path d="M 211.730469 0 L 687.976562 0 L 687.976562 499.5 L 211.730469 499.5 Z M 211.730469 0 "/></clipPath></defs><g id="b4717f50b4"><g clip-rule="nonzero" clip-path="url(#3f14557f78)"><path style=" stroke:none;fill-rule:nonzero;fill:#113c7b;fill-opacity:1;" d="M 450.398438 476.894531 C 226.941406 476.894531 44.988281 658.851562 44.988281 881.90625 C 44.988281 881.90625 44.988281 883.101562 44.988281 883.902344 C 44.988281 887.09375 46.183594 889.488281 48.179688 891.882812 C 50.175781 893.878906 52.96875 895.472656 56.558594 895.472656 L 353.832031 895.472656 C 367.398438 895.472656 360.617188 899.464844 362.210938 876.71875 C 365.804688 834.820312 400.917969 801.703125 443.613281 801.703125 C 486.308594 801.703125 523.417969 836.417969 525.414062 879.910156 C 526.210938 895.871094 523.820312 895.871094 536.1875 895.472656 L 842.640625 895.472656 C 845.433594 895.472656 847.828125 894.277344 850.222656 892.679688 C 851.019531 891.882812 851.417969 891.082031 852.21875 890.285156 C 854.609375 888.289062 856.207031 885.097656 856.207031 881.90625 C 855.808594 658.851562 673.851562 476.894531 450.398438 476.894531 Z M 548.160156 872.730469 L 547.359375 872.730469 C 542.171875 820.058594 497.484375 778.957031 443.613281 778.957031 C 389.746094 778.957031 345.054688 820.058594 339.867188 872.730469 L 264.453125 872.730469 C 269.640625 778.160156 348.246094 702.742188 444.011719 702.742188 C 539.78125 702.742188 618.386719 778.160156 623.574219 872.730469 L 547.761719 872.730469 Z M 649.910156 872.730469 L 646.320312 872.730469 C 641.132812 765.789062 552.546875 680 444.011719 680 C 335.476562 680 246.894531 765.390625 241.707031 872.730469 L 165.890625 872.730469 C 169.882812 717.90625 296.773438 593.410156 452.394531 593.410156 C 608.011719 593.410156 734.902344 717.90625 738.894531 872.730469 Z M 768.421875 872.730469 L 761.636719 872.730469 C 757.648438 705.535156 620.78125 570.664062 452.394531 570.664062 C 284.003906 570.664062 147.535156 705.535156 143.546875 872.730469 L 68.128906 872.730469 C 73.316406 666.03125 242.503906 499.640625 450.398438 499.640625 C 658.289062 499.640625 827.875 666.433594 832.664062 872.730469 Z M 768.421875 872.730469 "/></g><g clip-rule="nonzero" clip-path="url(#dcbcd13491)"><path style=" stroke:none;fill-rule:evenodd;fill:#113c7b;fill-opacity:1;" d="M 387.039062 404.359375 C 386.859375 398.304688 385.621094 390.574219 383.519531 383.957031 C 382.621094 381.125 381.566406 378.507812 380.3125 376.367188 C 379.570312 375.101562 378.882812 373.984375 377.945312 373.425781 C 364.472656 365.394531 349.679688 353.402344 342.425781 339.421875 C 342.234375 339.050781 342.070312 338.667969 341.9375 338.269531 C 341.9375 338.269531 319.167969 270.46875 319.171875 270.472656 C 307.960938 245.46875 306.933594 229.355469 311.382812 219 C 314.855469 210.914062 321.5 205.480469 330.859375 202.03125 C 331.371094 201.84375 331.917969 201.65625 332.488281 201.472656 C 332.601562 201.433594 332.714844 201.398438 332.828125 201.367188 C 335.539062 200.527344 338.941406 199.761719 342.882812 199.171875 L 381.121094 132.9375 C 389.660156 118.148438 408.597656 113.074219 423.382812 121.613281 C 428.503906 124.570312 432.460938 128.773438 435.089844 133.617188 C 444.777344 124.707031 459.507812 122.671875 471.507812 129.601562 C 480.867188 135.003906 486.332031 144.574219 486.921875 154.621094 C 493.8125 153.421875 501.140625 154.539062 507.664062 158.308594 C 515.027344 162.554688 519.980469 169.382812 522.046875 176.992188 C 530.402344 173.871094 540.035156 174.367188 548.351562 179.171875 C 558.722656 185.160156 564.320312 196.261719 563.789062 207.453125 C 563.789062 207.453125 563.789062 309.050781 563.789062 309.03125 C 564.429688 328.734375 556.050781 349.398438 543.855469 365.453125 C 538.40625 372.632812 526.824219 383.890625 525.089844 401.308594 L 525.089844 404.433594 C 536.871094 407.777344 545.507812 418.621094 545.507812 431.464844 L 545.507812 471.449219 C 545.507812 486.953125 532.917969 499.542969 517.410156 499.542969 L 394.449219 499.542969 C 378.941406 499.542969 366.355469 486.953125 366.355469 471.449219 L 366.355469 431.464844 C 366.355469 418.523438 375.125 407.613281 387.039062 404.359375 Z M 508.882812 403.367188 L 508.882812 400.925781 C 508.882812 400.679688 508.894531 400.433594 508.917969 400.1875 C 510.875 378.730469 524.265625 364.453125 530.949219 355.652344 C 540.953125 342.476562 548.144531 325.628906 547.582031 309.464844 C 547.582031 309.371094 547.578125 309.277344 547.578125 309.183594 L 547.578125 242.386719 L 533.464844 266.832031 C 524.929688 281.621094 505.992188 286.695312 491.203125 278.15625 C 486.042969 275.175781 482.0625 270.929688 479.433594 266.03125 C 469.742188 274.730469 455.179688 276.660156 443.296875 269.796875 C 437.734375 266.585938 433.546875 261.90625 430.941406 256.527344 C 422.648438 262.605469 411.640625 264.285156 401.730469 260.550781 C 398.066406 262.078125 394.046875 262.921875 389.832031 262.921875 C 385.28125 262.921875 382.296875 263.320312 381.03125 265.355469 C 380.308594 266.515625 380.480469 267.996094 380.800781 269.53125 C 381.367188 272.28125 382.785156 275.148438 384.652344 277.8125 C 387.21875 281.476562 386.328125 286.535156 382.664062 289.101562 C 379 291.667969 373.941406 290.777344 371.375 287.113281 C 364.234375 276.921875 362.324219 264.742188 367.269531 256.792969 C 370.695312 251.285156 377.515625 246.714844 389.832031 246.714844 C 392.597656 246.714844 395.1875 245.949219 397.398438 244.625 C 401.6875 242.046875 404.5625 237.347656 404.5625 231.984375 C 404.5625 227.800781 402.816406 224.023438 400.011719 221.339844 C 397.363281 218.808594 393.777344 217.253906 389.832031 217.253906 L 336.425781 217.253906 C 322.265625 222.496094 320.730469 234.492188 334.113281 264.179688 C 334.226562 264.425781 334.324219 264.675781 334.40625 264.929688 C 334.40625 264.929688 357.09375 332.484375 357.09375 332.488281 C 363.144531 343.710938 375.371094 353.019531 386.246094 359.503906 C 390.332031 361.941406 394.136719 366.882812 396.898438 373.410156 C 400.632812 382.230469 402.75 394.070312 403.140625 403.367188 Z M 394.691406 419.578125 L 394.449219 419.578125 C 387.890625 419.578125 382.5625 424.902344 382.5625 431.464844 L 382.5625 471.449219 C 382.5625 478.007812 387.890625 483.335938 394.449219 483.335938 L 517.410156 483.335938 C 523.972656 483.335938 529.296875 478.007812 529.296875 471.449219 L 529.296875 431.464844 C 529.296875 424.902344 523.972656 419.578125 517.410156 419.578125 L 394.933594 419.578125 C 394.851562 419.578125 394.773438 419.578125 394.691406 419.578125 Z M 547.589844 206.800781 C 547.890625 201.425781 545.222656 196.078125 540.25 193.207031 C 533.207031 189.144531 524.191406 191.558594 520.128906 198.597656 L 493.917969 243.996094 C 489.851562 251.039062 492.265625 260.054688 499.308594 264.117188 C 506.347656 268.183594 515.363281 265.765625 519.429688 258.726562 L 545.640625 213.328125 C 546.832031 211.265625 547.464844 209.03125 547.589844 206.800781 Z M 420.671875 155.773438 C 424.734375 148.730469 422.320312 139.714844 415.28125 135.648438 C 408.238281 131.585938 399.222656 134.003906 395.160156 141.042969 L 366.832031 190.105469 C 364.84375 193.550781 364.355469 194.496094 360.675781 201.046875 L 389.832031 201.046875 C 391.363281 201.046875 392.871094 201.15625 394.34375 201.371094 Z M 425.378906 238.953125 L 468.792969 163.757812 C 472.859375 156.71875 470.441406 147.703125 463.402344 143.636719 C 456.359375 139.570312 447.34375 141.988281 443.28125 149.027344 L 434.707031 163.875 L 409.277344 207.925781 C 416.285156 213.597656 420.773438 222.273438 420.773438 231.984375 C 420.773438 236.792969 419.671875 241.347656 417.710938 245.410156 C 420.832031 244.261719 423.589844 242.054688 425.378906 238.953125 Z M 504.953125 192.464844 C 509.015625 185.425781 506.601562 176.410156 499.5625 172.34375 C 493.082031 168.601562 484.925781 170.351562 480.5 176.144531 L 480.496094 176.148438 C 480.117188 176.648438 479.761719 177.175781 479.441406 177.734375 L 446.007812 235.640625 C 441.945312 242.679688 444.359375 251.695312 451.398438 255.761719 C 458.441406 259.824219 467.457031 257.410156 471.519531 250.371094 Z M 680.148438 230.355469 C 684.621094 230.355469 688.253906 233.984375 688.253906 238.457031 C 688.253906 242.933594 684.621094 246.5625 680.148438 246.5625 L 627.210938 246.5625 C 622.738281 246.5625 619.105469 242.933594 619.105469 238.457031 C 619.105469 233.984375 622.738281 230.355469 627.210938 230.355469 Z M 618.46875 395.472656 C 621.632812 398.636719 621.632812 403.769531 618.46875 406.933594 C 615.304688 410.097656 610.171875 410.097656 607.007812 406.933594 L 569.574219 369.5 C 566.410156 366.335938 566.410156 361.199219 569.574219 358.039062 C 572.738281 354.875 577.871094 354.875 581.035156 358.039062 Z M 292.980469 406.933594 C 289.816406 410.097656 284.683594 410.097656 281.519531 406.933594 C 278.355469 403.769531 278.355469 398.636719 281.519531 395.472656 L 318.953125 358.039062 C 322.117188 354.875 327.25 354.875 330.414062 358.039062 C 333.578125 361.199219 333.578125 366.335938 330.414062 369.5 Z M 272.777344 230.355469 C 277.25 230.355469 280.882812 233.984375 280.882812 238.457031 C 280.882812 242.933594 277.25 246.5625 272.777344 246.5625 L 219.839844 246.5625 C 215.367188 246.5625 211.734375 242.933594 211.734375 238.457031 C 211.734375 233.984375 215.367188 230.355469 219.839844 230.355469 Z M 330.414062 107.417969 C 333.578125 110.582031 333.578125 115.71875 330.414062 118.878906 C 327.25 122.042969 322.117188 122.042969 318.953125 118.878906 L 281.519531 81.445312 C 278.355469 78.28125 278.355469 73.144531 281.519531 69.984375 C 284.683594 66.820312 289.816406 66.820312 292.980469 69.984375 Z M 458.097656 61.242188 C 458.097656 65.714844 454.464844 69.347656 449.996094 69.347656 C 445.523438 69.347656 441.890625 65.714844 441.890625 61.242188 L 441.890625 8.304688 C 441.890625 3.832031 445.523438 0.199219 449.996094 0.199219 C 454.464844 0.199219 458.097656 3.832031 458.097656 8.304688 Z M 581.035156 118.878906 C 577.871094 122.042969 572.738281 122.042969 569.574219 118.878906 C 566.410156 115.71875 566.410156 110.582031 569.574219 107.417969 L 607.007812 69.984375 C 610.171875 66.820312 615.304688 66.820312 618.46875 69.984375 C 621.632812 73.144531 621.632812 78.28125 618.46875 81.445312 Z M 581.035156 118.878906 "/></g></g></svg>