<svg width="55" height="54" viewBox="0 0 55 54" fill="none" xmlns="http://www.w3.org/2000/svg">
<g id="Lightbulb">
<path id="Vector" d="M37.9583 48.9375C37.9583 49.3851 37.7805 49.8143 37.464 50.1308C37.1476 50.4472 36.7183 50.625 36.2708 50.625H19.3958C18.9482 50.625 18.519 50.4472 18.2025 50.1308C17.8861 49.8143 17.7083 49.3851 17.7083 48.9375C17.7083 48.49 17.8861 48.0607 18.2025 47.7443C18.519 47.4278 18.9482 47.25 19.3958 47.25H36.2708C36.7183 47.25 37.1476 47.4278 37.464 47.7443C37.7805 48.0607 37.9583 48.49 37.9583 48.9375ZM46.3958 21.9375C46.4031 24.7507 45.7675 27.5283 44.5378 30.0584C43.308 32.5885 41.5164 34.8043 39.2998 36.5365C38.8854 36.8542 38.549 37.2624 38.3165 37.73C38.084 38.1976 37.9615 38.7122 37.9583 39.2344V40.5C37.9583 41.3951 37.6027 42.2536 36.9698 42.8865C36.3368 43.5194 35.4784 43.875 34.5833 43.875H21.0833C20.1882 43.875 19.3297 43.5194 18.6968 42.8865C18.0639 42.2536 17.7083 41.3951 17.7083 40.5V39.2344C17.7079 38.7184 17.5893 38.2094 17.3615 37.7465C17.1337 37.2835 16.8027 36.879 16.3941 36.5639C14.1831 34.8419 12.3928 32.6395 11.1586 30.1234C9.9245 27.6073 9.27893 24.8434 9.27078 22.0409C9.21594 11.9876 17.3413 3.61549 27.3861 3.37502C29.8611 3.31537 32.3231 3.75144 34.6271 4.65755C36.931 5.56367 39.0305 6.92151 40.8018 8.65118C42.5731 10.3808 43.9806 12.4474 44.9413 14.7291C45.902 17.0109 46.3965 19.4618 46.3958 21.9375ZM43.0208 21.9375C43.0214 19.9118 42.6167 17.9064 41.8306 16.0395C41.0445 14.1725 39.8929 12.4816 38.4435 11.0665C36.9941 9.65126 35.2762 8.54032 33.391 7.79902C31.5058 7.05773 29.4914 6.70106 27.4663 6.75002C19.2397 6.94408 12.6015 13.7932 12.6458 22.0198C12.6535 24.3118 13.1824 26.572 14.1925 28.6295C15.2026 30.687 16.6674 32.4877 18.4761 33.8956C19.2891 34.5276 19.9468 35.3373 20.3987 36.2627C20.8506 37.1881 21.0848 38.2046 21.0833 39.2344V40.5H34.5833V39.2344C34.5856 38.2016 34.8238 37.1831 35.2797 36.2564C35.7355 35.3297 36.397 34.5193 37.2137 33.8871C39.0279 32.4693 40.4943 30.6556 41.5007 28.5846C42.5071 26.5137 43.027 24.2401 43.0208 21.9375ZM39.6226 19.9674C39.185 17.5232 38.0091 15.2718 36.2532 13.5163C34.4972 11.7607 32.2456 10.5853 29.8013 10.1482C29.5828 10.1114 29.3591 10.1179 29.1431 10.1675C28.9271 10.2171 28.7229 10.3088 28.5423 10.4373C28.3617 10.5658 28.2082 10.7286 28.0905 10.9164C27.9729 11.1042 27.8933 11.3134 27.8565 11.532C27.8196 11.7505 27.8262 11.9742 27.8758 12.1902C27.9254 12.4062 28.0171 12.6104 28.1456 12.791C28.2741 12.9716 28.4369 13.1251 28.6247 13.2428C28.8125 13.3604 29.0217 13.44 29.2402 13.4768C32.7355 14.0653 35.7013 17.0311 36.294 20.5327C36.3608 20.9257 36.5645 21.2824 36.8692 21.5395C37.1738 21.7967 37.5596 21.9377 37.9583 21.9375C38.0537 21.9369 38.1488 21.9292 38.243 21.9143C38.6841 21.839 39.0773 21.5916 39.336 21.2265C39.5947 20.8614 39.6978 20.4085 39.6226 19.9674Z" fill="#113C7B"/>
</g>
</svg>
