<svg width="30" height="29" viewBox="0 0 30 29" fill="none" xmlns="http://www.w3.org/2000/svg">
  <rect x="0.809082" width="28.4623" height="28.4623" rx="5" fill="currentColor"/>
  <path d="M11.8092 12.3333V19C11.8092 19.0884 11.7741 19.1732 11.7116 19.2357C11.6491 19.2982 11.5643 19.3333 11.4759 19.3333H9.80925C9.72084 19.3333 9.63606 19.2982 9.57354 19.2357C9.51103 19.1732 9.47591 19.0884 9.47591 19V12.3333C9.47591 12.2449 9.51103 12.1601 9.57354 12.0976C9.63606 12.0351 9.72084 12 9.80925 12H11.4759C11.5643 12 11.6491 12.0351 11.7116 12.0976C11.7741 12.1601 11.8092 12.2449 11.8092 12.3333ZM20.8092 14.94C20.8204 14.2394 20.5918 13.556 20.1614 13.0031C19.731 12.4502 19.1245 12.061 18.4426 11.9C17.9786 11.8001 17.4974 11.8127 17.0393 11.9368C16.5811 12.0609 16.1594 12.2929 15.8092 12.6133V12.3333C15.8092 12.2449 15.7741 12.1601 15.7116 12.0976C15.6491 12.0351 15.5643 12 15.4759 12H13.8092C13.7208 12 13.6361 12.0351 13.5735 12.0976C13.511 12.1601 13.4759 12.2449 13.4759 12.3333V19C13.4759 19.0884 13.511 19.1732 13.5735 19.2357C13.6361 19.2982 13.7208 19.3333 13.8092 19.3333H15.4759C15.5643 19.3333 15.6491 19.2982 15.7116 19.2357C15.7741 19.1732 15.8092 19.0884 15.8092 19V15.24C15.8013 14.9156 15.9078 14.5989 16.1102 14.3453C16.3126 14.0917 16.5979 13.9175 16.9159 13.8533C17.109 13.82 17.307 13.8296 17.496 13.8815C17.6849 13.9335 17.8601 14.0264 18.009 14.1537C18.158 14.281 18.277 14.4395 18.3577 14.6181C18.4384 14.7966 18.4788 14.9908 18.4759 15.1867V19C18.4759 19.0884 18.511 19.1732 18.5735 19.2357C18.6361 19.2982 18.7208 19.3333 18.8092 19.3333H20.4759C20.5643 19.3333 20.6491 19.2982 20.7116 19.2357C20.7741 19.1732 20.8092 19.0884 20.8092 19V14.94ZM10.4759 8C10.2122 8 9.95442 8.0782 9.73515 8.22471C9.51589 8.37122 9.34499 8.57945 9.24407 8.82309C9.14316 9.06672 9.11675 9.33481 9.1682 9.59345C9.21965 9.8521 9.34663 10.0897 9.5331 10.2761C9.71957 10.4626 9.95715 10.5896 10.2158 10.641C10.4744 10.6925 10.7425 10.6661 10.9862 10.5652C11.2298 10.4643 11.438 10.2934 11.5845 10.0741C11.731 9.85483 11.8092 9.59704 11.8092 9.33333C11.8092 8.97971 11.6688 8.64057 11.4187 8.39052C11.1687 8.14048 10.8295 8 10.4759 8Z" fill="white"/>
</svg>
