<svg width="56" height="56" viewBox="0 0 56 56" fill="none" xmlns="http://www.w3.org/2000/svg">
<path d="M41.1994 38.866C38.5139 41.5514 32.2277 47.8377 29.4099 50.6554C28.6289 51.4365 27.3708 51.4361 26.5897 50.655C23.8162 47.8815 17.6729 41.7382 14.8007 38.866C7.51093 31.5762 7.51093 19.7571 14.8007 12.4673C22.0905 5.17755 33.9096 5.17755 41.1994 12.4673C48.4892 19.7571 48.4892 31.5762 41.1994 38.866Z" stroke="#113C7B" stroke-width="3" stroke-linecap="round" stroke-linejoin="round"/>
<path d="M28 19.7683C34.1619 13.5182 44.7252 25.1257 28 34.5C25.0842 32.8657 22.9978 31.1636 21.5728 29.5C14.8241 21.6212 22.9123 14.6078 28 19.7683Z" stroke="#113C7B" stroke-width="3" stroke-linejoin="round"/>
</svg>
