<svg width="16" height="18" viewBox="0 0 16 18" fill="none" xmlns="http://www.w3.org/2000/svg">
<path d="M12.7141 12.8807C11.9865 13.6083 10.5189 15.0758 9.41344 16.1813C8.6324 16.9624 7.3676 16.9623 6.58655 16.1813C5.50093 15.0957 4.06047 13.6552 3.28597 12.8807C0.68247 10.2772 0.68247 6.05612 3.28597 3.45262C5.88946 0.849126 10.1106 0.849126 12.7141 3.45262C15.3176 6.05612 15.3176 10.2772 12.7141 12.8807Z" stroke="#8492A6" stroke-width="1.5" stroke-linecap="round" stroke-linejoin="round"/>
<path d="M10.5 8.16667C10.5 9.54738 9.38072 10.6667 8.00001 10.6667C6.6193 10.6667 5.50001 9.54738 5.50001 8.16667C5.50001 6.78596 6.6193 5.66667 8.00001 5.66667C9.38072 5.66667 10.5 6.78596 10.5 8.16667Z" stroke="#8492A6" stroke-width="1.5" stroke-linecap="round" stroke-linejoin="round"/>
</svg>
