<svg viewBox="0 0 130 32" fill="none" xmlns="http://www.w3.org/2000/svg">
<g clip-path="url(#clip0_42537:29591)">
<path d="M44.7935 28.5061C44.7935 26.8826 46.0378 25.5483 47.6748 25.5483C48.4761 25.5483 49.1695 25.8466 49.67 26.3862L49.0203 27.0306C48.871 27.1809 48.6277 27.2287 48.4256 27.0807C48.1754 26.9805 47.9251 26.8826 47.6243 26.8826C46.8299 26.8826 46.1871 27.5225 46.1871 28.3149C46.1871 29.1301 46.7817 29.8974 47.6748 29.8974C47.9251 29.8974 48.2259 29.7904 48.4256 29.6925C48.6254 29.5445 48.8687 29.5923 49.0203 29.7426L49.67 30.387C49.1695 30.9335 48.4256 31.2249 47.5807 31.2249C46.0815 31.2226 44.7935 29.9885 44.7935 28.5061Z" fill="#A0D9DA"/>
<path d="M57.5383 28.3855C57.5383 29.9521 56.2595 31.2226 54.6776 31.2226C53.098 31.2226 51.8169 29.9521 51.8169 28.3855C51.8169 26.8189 53.098 25.5483 54.6776 25.5483C56.2595 25.546 57.5383 26.8166 57.5383 28.3855ZM56.1723 28.3855C56.1723 27.5703 55.4996 26.9031 54.6776 26.9031C53.8488 26.9031 53.183 27.5703 53.183 28.3855C53.183 29.2075 53.8488 29.8678 54.6776 29.8678C55.4996 29.8678 56.1723 29.2075 56.1723 28.3855Z" fill="#A0D9DA"/>
<path d="M59.7079 25.5483H60.7801C60.9224 25.5483 61.0671 25.612 61.1589 25.7191L64.1551 29.1733V25.5483H65.0138C65.2939 25.5483 65.5143 25.7692 65.5143 26.0447V31.2226H64.1413L61.0648 27.675V31.2226H59.7056V25.5483H59.7079Z" fill="#A0D9DA"/>
<path d="M67.7643 25.5483H68.8365C68.9788 25.5483 69.1234 25.612 69.2153 25.7191L72.2115 29.1733V25.5483H73.0702C73.3503 25.5483 73.5707 25.7692 73.5707 26.0447V31.2226H72.1977L69.1212 27.675V31.2226H67.762V25.5483H67.7643Z" fill="#A0D9DA"/>
<path d="M75.8298 25.5483H78.7411C79.012 25.5483 79.2416 25.7692 79.2416 26.0447V26.8963H77.189V27.7115H79.2416V29.0595H77.189V29.8746H79.2416V31.2226H75.8298V25.5483Z" fill="#A0D9DA"/>
<path d="M81.6042 28.5061C81.6042 26.8826 82.8486 25.5483 84.4856 25.5483C85.2869 25.5483 85.9803 25.8466 86.4808 26.3862L85.8288 27.0306C85.6795 27.1809 85.4362 27.2287 85.2341 27.0807C84.9839 26.9805 84.7336 26.8826 84.4328 26.8826C83.6384 26.8826 82.9956 27.5225 82.9956 28.3149C82.9956 29.1301 83.5902 29.8974 84.4833 29.8974C84.7336 29.8974 85.0344 29.7904 85.2341 29.6925C85.4339 29.5445 85.6772 29.5923 85.8288 29.7426L86.4808 30.387C85.9803 30.9335 85.2364 31.2249 84.3915 31.2249C82.8923 31.2226 81.6042 29.9885 81.6042 28.5061Z" fill="#A0D9DA"/>
<path d="M90.4803 26.9714H88.678V25.6234H93.1413C93.4191 25.6234 93.6418 25.8511 93.6418 26.1198V26.9714H91.8395V31.2978H90.4803V26.9714V26.9714Z" fill="#A0D9DA"/>
<path d="M95.8894 25.5483H96.755C97.0259 25.5483 97.2555 25.7692 97.2555 26.0447V31.2226H95.8894V25.5483Z" fill="#A0D9DA"/>
<path d="M105.3 28.3855C105.3 29.9521 104.021 31.2226 102.44 31.2226C100.86 31.2226 99.5789 29.9521 99.5789 28.3855C99.5789 26.8189 100.86 25.5483 102.44 25.5483C104.021 25.546 105.3 26.8166 105.3 28.3855ZM103.934 28.3855C103.934 27.5703 103.262 26.9031 102.44 26.9031C101.611 26.9031 100.945 27.5703 100.945 28.3855C100.945 29.2075 101.611 29.8678 102.44 29.8678C103.262 29.8678 103.934 29.2075 103.934 28.3855Z" fill="#A0D9DA"/>
<path d="M107.674 25.5483H108.747C108.889 25.5483 109.034 25.612 109.125 25.7191L112.122 29.1733V25.5483H112.98C113.26 25.5483 113.481 25.7692 113.481 26.0447V31.2226H112.108L109.031 27.675V31.2226H107.672V25.5483H107.674Z" fill="#A0D9DA"/>
<path d="M98.6813 9.15822C98.9637 9.3381 99.0831 9.14683 99.2323 9.02843C99.4068 8.88953 99.3861 8.68915 99.2759 8.52065C99.0624 8.19503 98.989 8.11078 98.7088 7.60756C98.5435 7.31155 98.4104 7.05652 98.392 6.71952C98.3713 6.35747 98.1004 6.19808 97.8203 6.1662C97.2854 6.15481 96.8928 6.86752 97.1224 7.37303C97.4622 8.11761 97.9787 8.70964 98.6813 9.15822Z" fill="white"/>
<path d="M72.4136 8.84399C72.7695 8.98061 72.9394 8.85765 73.0978 8.68687C73.2723 8.50243 73.1162 8.28839 72.9853 8.10851C72.696 7.70775 72.471 7.28878 72.5514 6.76961C72.5651 6.67853 72.5514 6.58062 72.5353 6.48726C72.4917 6.22313 72.3378 6.14115 72.0968 6.25728C71.5595 6.51458 71.2014 6.81515 71.1968 7.52331C71.2197 7.72369 71.4034 8.14038 71.5917 8.29522C71.9269 8.57074 71.9682 8.67321 72.4136 8.84399Z" fill="white"/>
<path d="M116.922 23.1597C116.915 23.2098 116.922 23.3532 116.922 23.3532C116.936 23.483 117.115 24.4234 118.121 24.7582C118.291 24.8151 118.465 24.8424 118.649 24.8424C119.498 24.8424 120.495 24.2231 121.732 22.9365C123.073 21.543 123.679 20.1927 123.808 18.9882C126.595 17.8428 129.366 17.3145 129.417 17.3032C129.805 17.2303 130.06 16.8614 129.988 16.4766C129.915 16.0918 129.538 15.8413 129.155 15.9096C128.948 15.9483 126.439 16.4265 123.723 17.4944C123.537 16.6815 123.133 15.9848 122.632 15.4519C122.24 15.0375 121.583 15.0125 121.122 15.3472C119.402 16.5904 118.325 16.9639 117.939 16.7863C117.758 16.7043 117.627 16.6109 117.737 16.2147C117.74 16.2056 117.811 16.0963 117.811 16.0849C119.386 14.7665 120.55 14.2201 120.564 14.2132C120.922 14.0493 121.08 13.6303 120.915 13.2751C120.752 12.9199 120.327 12.7628 119.969 12.9267C119.886 12.9654 117.926 13.8717 115.565 16.2102C114.209 17.5582 112.817 17.7426 112.33 17.6333C112.744 16.8113 112.806 15.9392 112.494 15.2789C112.303 14.8736 111.984 14.598 111.619 14.5252C111.247 14.45 110.978 14.5593 108.726 15.6842C107.69 16.2011 106.276 16.907 105.314 17.2963C105.633 16.8159 106.127 16.1646 106.765 15.4178L106.855 15.3176C107.296 14.8349 107.645 14.4523 107.211 13.9741L106.781 13.5005L106.262 13.8739C104.602 15.0648 98.9223 18.8971 95.5496 18.2162C95.0031 18.1047 94.3166 17.8815 94.1422 17.4421C93.8666 16.7453 94.7552 15.5089 95.0904 15.0443L95.5151 14.3999L95.0582 13.9764C94.7804 13.7214 94.3534 13.7077 94.0618 13.9445C90.7603 16.6132 87.5528 17.0504 84.5268 15.2447C84.2444 15.0762 83.9023 15.0284 83.5832 15.1104C83.2663 15.1923 83.0046 15.3927 82.8439 15.6751C81.7464 17.5969 80.0015 18.4986 79.0373 18.8698C79.1865 18.0569 79.6043 16.7134 79.7674 16.1897C79.8569 15.9005 79.9304 15.666 79.9717 15.5157C80.0566 15.2015 79.9418 14.8736 79.6778 14.6823C79.4115 14.4887 79.0556 14.4774 78.7755 14.655C74.8196 17.1711 72.0507 17.8291 70.4229 17.9384C68.5035 18.0705 67.677 17.4899 67.5898 17.3692C67.537 17.1301 67.9847 16.2034 69.112 14.9829L69.5229 14.5047L69.1556 14.0311C68.9306 13.7419 68.5265 13.6576 68.2005 13.8284C63.9323 16.0645 60.314 17.3624 57.2833 18.091C57.8918 17.1665 58.4474 16.3263 58.9548 15.5567C62.9543 9.49522 63.9048 8.05386 64.1482 7.12027C64.2538 6.71269 64.0517 6.28916 63.666 6.11383C63.2826 5.94077 62.828 6.06373 62.5869 6.41212C61.9647 7.31154 60.0775 9.46334 56.0298 10.0463C54.0553 10.3309 52.7604 10.1442 51.9063 9.75708C54.6866 5.6311 56.0986 3.31763 55.7566 1.65085C55.6372 1.0702 55.3088 0.601135 54.7808 0.259581C54.4318 0.0341546 53.6971 -0.248197 52.6915 0.39848C50.756 1.64174 48.5336 6.03413 48.7769 7.55974C48.917 8.43867 49.2499 9.35632 49.9479 10.0964C48.8711 11.54 46.8874 13.2796 44.5892 15.0352C43.4802 14.0834 42.3828 13.4254 41.4736 13.3388C40.6516 13.2637 40.2567 13.6485 40.0914 13.8853C39.506 14.7233 40.096 16.0804 40.2889 16.4766L40.5414 16.866C40.5736 16.9092 40.6654 17.0094 41.1728 17.5126C37.9815 19.7282 34.7396 21.7456 32.7307 22.9616C32.3863 23.1688 32.3037 23.6242 32.547 23.943C32.7812 24.2527 33.2105 24.3369 33.5435 24.1342C35.6373 22.8682 38.9986 20.7756 42.2909 18.4713C43.23 19.1635 44.4835 19.8216 45.992 20.0083L46.3134 20.0493C46.5912 20.0834 46.8943 20.1221 47.2203 20.1608C48.3522 21.8117 49.879 22.7179 51.5206 22.7179C51.5366 22.7179 51.5527 22.7179 51.5688 22.7179C53.2999 22.6997 54.9323 21.6614 56.1675 19.7919C59.0214 19.2318 62.4239 18.1798 66.428 16.299C66.0882 17.0481 66.0744 17.6606 66.3913 18.1274C67.2683 19.4322 71.2288 20.6345 78.1212 16.7111C77.4508 18.9904 77.4094 19.7623 77.848 20.2223C78.0684 20.4523 78.3944 20.5434 78.7181 20.4637C79.2967 20.3202 82.2171 19.4686 83.9781 16.5677C86.7722 18.157 89.7569 18.1434 92.7325 16.5472C92.6291 17.014 92.6314 17.4967 92.8151 17.9635C93.1434 18.7923 93.97 19.3457 95.2672 19.6075C97.7766 20.1153 101.09 18.699 103.721 17.2007C103.31 18.0204 103.466 18.3119 103.581 18.5214C103.652 18.6512 103.932 19.0656 104.6 18.9882C105.438 18.8902 107.107 18.0819 109.373 16.9525C110.03 16.6246 110.811 16.2352 111.256 16.0394C111.293 16.258 111.267 16.6269 111.017 17.08C110.687 17.6811 110.811 18.321 111.336 18.7104C112.365 19.4732 114.709 19.0587 116.566 17.2303C116.741 17.6561 117.019 17.902 117.274 18.0364C118.442 18.658 120.323 17.6561 121.778 16.6314C122.015 16.932 122.302 17.4193 122.398 18.066C120.04 19.1612 117.779 20.7119 116.994 22.825C116.973 22.8796 116.954 23.0048 116.954 23.0048L116.922 23.1597ZM53.4606 1.58709C53.5915 1.50284 53.7568 1.41859 53.8854 1.41859C53.9267 1.41859 53.9634 1.4277 53.9956 1.44819C54.2022 1.58254 54.3101 1.72827 54.3537 1.93548C54.5925 3.10132 52.8935 5.74267 50.7744 8.8827C50.3359 8.30661 50.2027 7.68725 50.182 7.34115C50.0672 5.39656 51.9017 2.58898 53.4606 1.58709ZM42.3529 16.677C41.9144 16.2648 41.632 15.9187 41.5402 15.798C41.1705 15.2015 41.2463 14.9601 41.2578 14.7461C41.2784 14.7461 41.3037 14.7461 41.3335 14.7506C41.8065 14.7939 42.5458 15.2037 43.4113 15.9119C43.0624 16.1692 42.7088 16.4242 42.3529 16.677ZM43.517 17.5946C43.843 17.3601 44.1667 17.1233 44.4858 16.8865C44.9864 17.3806 45.5075 17.9521 46.0264 18.5874C45.0598 18.4417 44.2103 18.0477 43.517 17.5946ZM51.5435 21.3016C50.7285 21.2971 49.9226 20.9715 49.22 20.3293C50.5563 20.3954 52.1588 20.3726 54.0507 20.1335C53.2815 20.8849 52.4183 21.2925 51.5435 21.3016ZM55.2974 18.5077C52.1657 19.0587 49.7665 18.9882 48.0055 18.8197C47.2984 17.8542 46.4787 16.8751 45.6315 16.0189C47.9389 14.2383 49.9456 12.4599 51.082 10.9457C52.2162 11.5286 53.8601 11.7882 56.2295 11.4466C58.3027 11.1483 59.8869 10.4743 61.067 9.72747C60.2979 10.9206 59.2257 12.5487 57.7517 14.7802C57.0354 15.8709 56.2226 17.1051 55.2974 18.5077ZM120.697 21.9597C119.147 23.5718 118.582 23.417 118.578 23.4147C118.507 23.3919 118.362 23.31 118.396 23.1369C119.009 21.7343 120.497 20.6094 122.187 19.7327C121.944 20.3976 121.484 21.1422 120.697 21.9597Z" fill="white"/>
<path d="M20.4659 19.3889L15.3207 28.2283L10.1732 19.3889L9.89771 19.8603L15.2587 29.0686H15.3804L20.7414 19.8603L20.4659 19.3889Z" fill="#A0D9DA"/>
<path d="M7.97375 15.6113L1.06301 3.74116H29.5761L22.6654 15.609L22.9409 16.0827L30.4004 3.26982H0.23877L7.69824 16.0827L7.97375 15.6113Z" fill="#A0D9DA"/>
<path d="M30.6414 31.6667H0L15.3207 5.3533L30.6414 31.6667ZM2.47501 30.2504H28.1664L15.3207 8.1882L2.47501 30.2504Z" fill="white"/>
<path d="M15.3184 16.825C15.4975 16.6269 15.6651 16.4311 15.8442 16.2443C16.3079 15.7639 17.0449 15.7183 17.5661 16.1373C17.9036 16.4083 18.0873 16.7681 18.1493 17.1939C18.2136 17.6379 18.1217 18.05 17.8738 18.4257C17.837 18.4827 17.7934 18.5373 17.7475 18.5897C16.9462 19.5005 16.1472 20.409 15.3459 21.3176C15.3391 21.3267 15.3322 21.3335 15.3184 21.3472C15.3023 21.3312 15.2885 21.3153 15.2748 21.3016C14.485 20.4022 13.6929 19.505 12.9031 18.6056C12.5472 18.2003 12.4163 17.7267 12.4852 17.1961C12.5357 16.8204 12.6918 16.4971 12.9628 16.2261C13.4748 15.7138 14.3059 15.7229 14.7995 16.2512C14.9579 16.4219 15.1095 16.5973 15.2656 16.7703C15.284 16.7885 15.3 16.8045 15.3184 16.825Z" fill="#F48284"/>
</g>
<defs>
<clipPath id="clip0_42537:29591">
<rect width="130" height="31.6667" fill="white"/>
</clipPath>
</defs>
</svg>
