<svg xmlns="http://www.w3.org/2000/svg" xmlns:xlink="http://www.w3.org/1999/xlink" width="1200" zoomAndPan="magnify" viewBox="0 0 900 899.99999" height="1200" preserveAspectRatio="xMidYMid meet" version="1.2"><defs><clipPath id="d41a381aaf"><path d="M 68.726562 0 L 809.726562 0 L 809.726562 900 L 68.726562 900 Z M 68.726562 0 "/></clipPath></defs><g id="a393ef9847"><g clip-rule="nonzero" clip-path="url(#d41a381aaf)"><path style=" stroke:none;fill-rule:nonzero;fill:#113c7b;fill-opacity:1;" d="M 741.324219 314.800781 L 751.328125 304.796875 C 775.402344 280.714844 775.398438 241.535156 751.320312 217.453125 C 727.242188 193.375 688.058594 193.371094 663.976562 217.445312 L 653.96875 227.449219 C 597.859375 187.453125 530.171875 162.699219 457.007812 159.253906 L 457.007812 105.882812 L 492.304688 105.882812 C 521.496094 105.882812 545.246094 82.132812 545.246094 52.941406 C 545.246094 23.75 521.496094 0 492.304688 0 L 386.421875 0 C 357.230469 0 333.480469 23.75 333.480469 52.941406 C 333.480469 82.132812 357.230469 105.882812 386.421875 105.882812 L 421.714844 105.882812 L 421.714844 159.253906 C 225.535156 168.496094 68.773438 330.984375 68.773438 529.410156 C 68.773438 733.753906 235.019531 900 439.363281 900 C 643.703125 900 809.949219 733.753906 809.949219 529.410156 C 809.949219 449.492188 784.515625 375.402344 741.324219 314.800781 Z M 368.773438 52.941406 C 368.773438 43.210938 376.691406 35.292969 386.421875 35.292969 L 492.304688 35.292969 C 502.035156 35.292969 509.949219 43.210938 509.949219 52.941406 C 509.949219 62.671875 502.035156 70.589844 492.304688 70.589844 L 386.421875 70.589844 C 376.691406 70.589844 368.773438 62.671875 368.773438 52.941406 Z M 688.929688 242.410156 C 699.253906 232.089844 716.042969 232.089844 726.363281 242.410156 C 736.683594 252.730469 736.683594 269.523438 726.367188 279.84375 L 719.339844 286.875 C 707.761719 273.527344 695.246094 261.011719 681.902344 249.4375 Z M 439.363281 864.707031 C 254.480469 864.707031 104.066406 714.292969 104.066406 529.410156 C 104.066406 344.527344 254.480469 194.117188 439.363281 194.117188 C 624.246094 194.117188 774.65625 344.527344 774.65625 529.410156 C 774.65625 714.292969 624.246094 864.707031 439.363281 864.707031 Z M 439.363281 864.707031 "/></g><path style=" stroke:none;fill-rule:nonzero;fill:#113c7b;fill-opacity:1;" d="M 439.363281 247.058594 C 283.757812 247.058594 157.007812 373.691406 157.007812 529.410156 C 157.007812 685.03125 283.660156 811.765625 439.363281 811.765625 C 594.984375 811.765625 721.714844 685.109375 721.714844 529.410156 C 721.714844 373.8125 595.082031 247.058594 439.363281 247.058594 Z M 668.773438 547.058594 L 685.785156 547.058594 C 681.894531 601.925781 660.015625 651.90625 626.011719 691.105469 L 614.058594 679.152344 C 607.167969 672.261719 595.996094 672.261719 589.101562 679.152344 C 582.210938 686.042969 582.210938 697.214844 589.101562 704.109375 L 601.054688 716.0625 C 561.855469 750.066406 511.875 771.941406 457.007812 775.832031 L 457.007812 758.824219 C 457.007812 749.078125 449.105469 741.175781 439.359375 741.175781 C 429.613281 741.175781 421.714844 749.078125 421.714844 758.824219 L 421.714844 775.832031 C 366.84375 771.941406 316.863281 750.066406 277.667969 716.0625 L 289.621094 704.109375 C 296.511719 697.21875 296.511719 686.042969 289.621094 679.152344 C 282.726562 672.261719 271.558594 672.261719 264.664062 679.152344 L 252.710938 691.105469 C 218.707031 651.90625 196.828125 601.925781 192.9375 547.058594 L 209.949219 547.058594 C 219.695312 547.058594 227.597656 539.15625 227.597656 529.410156 C 227.597656 519.667969 219.695312 511.765625 209.949219 511.765625 L 192.941406 511.765625 C 196.832031 456.894531 218.707031 406.917969 252.710938 367.71875 L 264.664062 379.671875 C 271.558594 386.5625 282.726562 386.5625 289.625 379.671875 C 296.515625 372.78125 296.515625 361.605469 289.625 354.714844 L 277.667969 342.761719 C 316.867188 308.761719 366.847656 286.882812 421.714844 282.992188 L 421.714844 300 C 421.714844 309.746094 429.617188 317.648438 439.363281 317.648438 C 449.105469 317.648438 457.007812 309.746094 457.007812 300 L 457.007812 282.988281 C 511.878906 286.882812 561.855469 308.757812 601.054688 342.761719 L 589.101562 354.714844 C 582.210938 361.605469 582.210938 372.777344 589.101562 379.667969 C 595.992188 386.5625 607.164062 386.5625 614.058594 379.671875 L 626.011719 367.71875 C 660.015625 406.914062 681.894531 456.894531 685.785156 511.761719 L 668.773438 511.761719 C 659.027344 511.761719 651.125 519.664062 651.125 529.410156 C 651.125 539.15625 659.027344 547.058594 668.773438 547.058594 Z M 668.773438 547.058594 "/><path style=" stroke:none;fill-rule:nonzero;fill:#113c7b;fill-opacity:1;" d="M 457.007812 479.507812 L 457.007812 370.589844 C 457.007812 360.84375 449.105469 352.941406 439.363281 352.941406 C 429.617188 352.941406 421.714844 360.84375 421.714844 370.589844 L 421.714844 479.507812 C 401.175781 486.789062 386.421875 506.40625 386.421875 529.410156 C 386.421875 558.605469 410.171875 582.351562 439.363281 582.351562 C 468.554688 582.351562 492.304688 558.605469 492.304688 529.410156 C 492.304688 506.40625 477.546875 486.789062 457.007812 479.507812 Z M 439.363281 547.058594 C 429.632812 547.058594 421.714844 539.140625 421.714844 529.410156 C 421.714844 519.679688 429.632812 511.765625 439.363281 511.765625 C 449.09375 511.765625 457.007812 519.679688 457.007812 529.410156 C 457.007812 539.140625 449.09375 547.058594 439.363281 547.058594 Z M 439.363281 547.058594 "/></g></svg>