<svg width="338" height="458" viewBox="0 0 338 458" fill="none" xmlns="http://www.w3.org/2000/svg">
<g filter="url(#filter0_f_42667:12462)">
<path fill-rule="evenodd" clip-rule="evenodd" d="M93.6724 122.223C112.196 124.882 124.825 141.75 141.863 149.996C165.508 161.441 199.679 155.559 212.527 179.75C225.074 203.373 208.161 232.593 199.254 258.051C190.759 282.332 182.542 308.458 162.456 322.868C142.701 337.04 116.648 340.292 93.6724 333.795C73.2309 328.014 63.1016 304.9 46.9839 290.215C32.5694 277.082 11.0478 271.359 4.32437 252.387C-2.4817 233.182 7.31966 212.677 12.4939 192.894C17.9218 172.142 19.5189 148.248 35.1128 134.672C50.9572 120.879 73.4543 119.321 93.6724 122.223Z" fill="#9AE2E0" fill-opacity="0.7"/>
</g>
<defs>
<filter id="filter0_f_42667:12462" x="-119" y="0" width="457" height="458" filterUnits="userSpaceOnUse" color-interpolation-filters="sRGB">
<feFlood flood-opacity="0" result="BackgroundImageFix"/>
<feBlend mode="normal" in="SourceGraphic" in2="BackgroundImageFix" result="shape"/>
<feGaussianBlur stdDeviation="60.5" result="effect1_foregroundBlur_42667:12462"/>
</filter>
</defs>
</svg>
