<svg xmlns="http://www.w3.org/2000/svg" xmlns:xlink="http://www.w3.org/1999/xlink" width="1200" zoomAndPan="magnify" viewBox="0 0 900 899.99999" height="1200" preserveAspectRatio="xMidYMid meet" version="1.2"><defs><clipPath id="63d076937f"><path d="M 205.335938 575 L 660 575 L 660 758.523438 L 205.335938 758.523438 Z M 205.335938 575 "/></clipPath></defs><g id="195d2f95ba"><path style=" stroke:none;fill-rule:nonzero;fill:#113c7b;fill-opacity:1;" d="M 501.042969 464.539062 C 496.722656 490.933594 471.640625 518.667969 430.230469 542.953125 C 383.675781 515.640625 357.695312 483.703125 358.800781 454.910156 C 359.464844 437.609375 369.707031 426.785156 378.285156 422.765625 C 393.699219 415.527344 407.765625 421.746094 416.84375 428.242188 C 416.855469 428.25 416.871094 428.25 416.878906 428.265625 C 417.042969 440.042969 421.761719 451.441406 430.425781 460.722656 C 432.082031 462.5 434.355469 463.425781 436.660156 463.425781 C 438.039062 463.425781 439.433594 463.09375 440.714844 462.402344 L 494.492188 433.273438 C 500.550781 441.75 502.941406 452.914062 501.042969 464.539062 Z M 436.085938 311.476562 C 442.042969 304.859375 451.09375 302.144531 459.738281 304.390625 C 473.742188 308.042969 483.773438 312.898438 487.246094 317.714844 C 492.320312 324.742188 465.816406 364.3125 438.332031 386.507812 C 429.933594 393.292969 423.796875 401.433594 420.28125 410.238281 C 413.042969 406.132812 405.609375 403.648438 398.199219 402.808594 C 395.9375 395.222656 391.300781 382 383.625 369.765625 Z M 690.882812 249.136719 C 687.550781 245.808594 682.160156 245.808594 678.828125 249.136719 L 594.664062 333.308594 L 545.328125 384.835938 C 543.316406 386.929688 541.019531 388.6875 538.492188 390.050781 L 438.882812 444.007812 C 435.210938 438.347656 433.527344 432.105469 433.980469 425.644531 C 434.636719 416.273438 439.984375 407.089844 449.042969 399.773438 C 465.542969 386.441406 518.414062 331.757812 501.066406 307.730469 C 495.050781 299.40625 482.59375 292.734375 464.035156 287.902344 C 449.203125 284.023438 433.648438 288.699219 423.417969 300.070312 L 366.484375 363.328125 C 363.773438 366.34375 363.554688 370.84375 365.964844 374.097656 C 373.238281 383.929688 378.007812 395.910156 380.667969 403.925781 C 377.414062 404.726562 374.195312 405.851562 371.046875 407.328125 C 363.496094 410.867188 357.042969 416.476562 352.121094 423.402344 L 322.304688 370.871094 C 319.03125 365.105469 318.648438 358.042969 321.273438 351.964844 C 332.253906 326.539062 370.148438 263.972656 385.933594 238.253906 C 389.265625 232.820312 394.796875 229.269531 401.109375 228.492188 C 437.390625 224.027344 535.203125 213.058594 556.625 210.84375 C 558.578125 210.640625 560.398438 209.777344 561.777344 208.390625 L 613.503906 156.671875 C 616.828125 153.339844 616.828125 147.949219 613.503906 144.613281 C 610.179688 141.289062 604.78125 141.289062 601.449219 144.613281 L 551.859375 194.203125 C 525.480469 197 433.894531 207.28125 399.019531 211.574219 C 387.53125 212.988281 377.464844 219.460938 371.40625 229.332031 C 355.429688 255.363281 317.035156 318.761719 305.621094 345.207031 C 300.890625 356.160156 301.582031 368.898438 307.476562 379.28125 L 343.410156 442.589844 C 342.492188 446.363281 341.917969 450.265625 341.769531 454.257812 C 340.957031 475.511719 350.78125 517.480469 425.589844 559.953125 C 426.011719 560.230469 426.472656 560.476562 426.953125 560.675781 C 428.007812 561.113281 429.117188 561.324219 430.214844 561.324219 C 430.878906 561.324219 431.539062 561.246094 432.175781 561.097656 C 433.066406 560.886719 433.929688 560.535156 434.730469 560.039062 C 434.734375 560.039062 434.734375 560.03125 434.75 560.023438 C 496.652344 524.917969 514.113281 490.226562 517.863281 467.289062 C 520.375 451.9375 517.34375 436.988281 509.546875 425.117188 L 546.609375 405.042969 C 550.691406 402.835938 554.398438 400.003906 557.636719 396.632812 L 606.847656 345.222656 L 690.882812 261.191406 C 694.210938 257.859375 694.210938 252.46875 690.882812 249.136719 "/><g clip-rule="nonzero" clip-path="url(#63d076937f)"><path style=" stroke:none;fill-rule:nonzero;fill:#113c7b;fill-opacity:1;" d="M 485.011719 631.417969 C 483.503906 631.898438 482.238281 632.769531 481.261719 633.867188 C 478.304688 629.90625 474.726562 626.402344 470.59375 623.53125 L 506.621094 608.609375 C 523.070312 601.796875 541.867188 601.640625 558.367188 607.886719 Z M 449.027344 596.90625 C 463.652344 591.238281 479.699219 590.738281 494.5 595.171875 L 449.628906 613.757812 L 428.136719 605 Z M 581.765625 600.488281 C 581.398438 600.203125 581 599.941406 580.574219 599.714844 L 573.910156 596.207031 C 557.171875 587.382812 537.671875 584.425781 519.058594 587.484375 C 496.28125 573.75 467.898438 571.308594 442.867188 581.015625 L 405.132812 595.625 L 390.132812 589.511719 C 366.050781 579.691406 339.082031 578.609375 314.199219 586.476562 L 273.375 599.367188 L 214.417969 599.367188 C 209.703125 599.367188 205.890625 603.183594 205.890625 607.886719 C 205.890625 612.597656 209.703125 616.414062 214.417969 616.414062 L 274.691406 616.414062 C 275.566406 616.414062 276.429688 616.277344 277.257812 616.015625 L 319.332031 602.730469 C 340.425781 596.066406 363.285156 596.976562 383.703125 605.304688 L 455.121094 634.410156 C 466.21875 638.933594 473.394531 649.601562 473.394531 661.585938 C 473.394531 665.253906 471.9375 668.664062 469.296875 671.195312 C 466.667969 673.726562 463.214844 675.039062 459.542969 674.894531 L 337.960938 670.035156 C 333.25 669.972656 329.289062 673.507812 329.105469 678.214844 C 328.914062 682.917969 332.570312 686.882812 337.285156 687.070312 L 458.863281 691.933594 C 459.28125 691.945312 459.699219 691.953125 460.113281 691.953125 C 467.988281 691.953125 475.398438 688.976562 481.113281 683.484375 C 487.128906 677.710938 490.4375 669.929688 490.4375 661.585938 C 490.4375 656.898438 489.738281 652.339844 488.429688 648.015625 C 489.023438 647.960938 489.625 647.839844 490.21875 647.65625 L 583.605469 617.691406 C 605.203125 610.753906 628.628906 619.835938 640.113281 638.917969 L 450.683594 737.488281 C 443.140625 741.417969 434.398438 742.667969 426.0625 741.042969 L 265.378906 709.570312 C 264.839844 709.472656 264.296875 709.414062 263.746094 709.414062 L 214.417969 709.414062 C 209.703125 709.414062 205.890625 713.230469 205.890625 717.941406 C 205.890625 722.644531 209.703125 726.460938 214.417969 726.460938 L 262.917969 726.460938 L 422.785156 757.773438 C 426.246094 758.453125 429.75 758.785156 433.25 758.785156 C 442.007812 758.785156 450.734375 756.683594 458.558594 752.617188 L 652.648438 651.613281 C 658.296875 648.667969 660.601562 641.847656 657.894531 636.082031 C 644.40625 607.355469 612.160156 592.5 581.765625 600.488281 "/></g></g></svg>