<svg xmlns="http://www.w3.org/2000/svg" width="14" height="15" viewBox="0 0 14 15" fill="none">
  <path d="M10.2995 10.2165C9.87918 10.6368 9.10599 11.41 8.41366 12.1023C7.63261 12.8834 6.36663 12.8833 5.58558 12.1022C4.90666 11.4233 4.14565 10.6623 3.69984 10.2165C1.8774 8.39405 1.8774 5.43928 3.69984 3.61684C5.52229 1.79439 8.47706 1.79439 10.2995 3.61684C12.122 5.43928 12.122 8.39405 10.2995 10.2165Z" stroke="#111827" stroke-linecap="round" stroke-linejoin="round"/>
  <path d="M8.74967 6.91667C8.74967 7.88316 7.96617 8.66667 6.99967 8.66667C6.03318 8.66667 5.24967 7.88316 5.24967 6.91667C5.24967 5.95017 6.03318 5.16667 6.99967 5.16667C7.96617 5.16667 8.74967 5.95017 8.74967 6.91667Z" stroke="#111827" stroke-linecap="round" stroke-linejoin="round"/>
</svg>