<svg viewBox="0 0 65 70" fill="none" xmlns="http://www.w3.org/2000/svg">
<g clip-path="url(#clip0_43935_16115)">
<path d="M46.6868 31.8005C51.4838 31.8005 55.3726 27.9547 55.3726 23.2106C55.3726 18.4665 51.4838 14.6206 46.6868 14.6206C41.8898 14.6206 38.001 18.4665 38.001 23.2106C38.001 27.9547 41.8898 31.8005 46.6868 31.8005Z" fill="#0782D0"/>
<path d="M1.32696 49.7534L30.9492 3.24121L61.561 44.1181L7.93662 58.5799C2.69476 59.9936 -1.56773 54.2997 1.32696 49.7534Z" fill="#0782D0"/>
<path d="M10.7883 44.767L5.28638 48.7981C4.77242 49.1747 4.66445 49.892 5.04522 50.4003L19.3807 69.5368C19.7614 70.0451 20.4868 70.1519 21.0007 69.7753L26.5027 65.7442C27.0166 65.3676 27.1246 64.6503 26.7438 64.142L12.4084 45.0055C12.0276 44.4972 11.3023 44.3904 10.7883 44.767Z" fill="#0782D0"/>
<path d="M1.59653 49.5557L11.258 34.3857L25.6957 53.665L8.20641 58.3815C2.96518 59.7952 -1.29858 54.1019 1.59653 49.5557Z" fill="white"/>
<path d="M6.57091 59.2374C5.54785 59.2363 4.53966 58.995 3.6293 58.5333C2.71893 58.0717 1.9324 57.4029 1.3344 56.5819C0.526678 55.5323 0.0662065 54.2617 0.0158513 52.9437C-0.034504 51.6256 0.327712 50.3243 1.05304 49.2174L10.7146 34.0473C10.7702 33.9598 10.8466 33.8871 10.9372 33.8354C11.0277 33.7837 11.1296 33.7547 11.234 33.7508C11.3383 33.7475 11.4419 33.7692 11.536 33.8139C11.6301 33.8586 11.7119 33.9251 11.7745 34.0077L26.2121 53.287C26.2743 53.37 26.315 53.4668 26.3308 53.5689C26.3466 53.671 26.3369 53.7754 26.3027 53.873C26.2685 53.9706 26.2108 54.0585 26.1344 54.129C26.0581 54.1995 25.9656 54.2506 25.8648 54.2778L8.37551 58.996C7.78751 59.1554 7.18062 59.2366 6.57091 59.2374ZM2.14013 49.8946C1.55735 50.7866 1.26647 51.8344 1.30704 52.8957C1.34761 53.9569 1.71766 54.98 2.36688 55.826C2.99576 56.6868 3.87749 57.3351 4.89212 57.6827C5.90676 58.0304 7.00506 58.0605 8.03763 57.769L24.6206 53.2969L11.301 35.5107L2.14013 49.8946Z" fill="#222433"/>
<path d="M29.6602 1.17445L29.6514 1.18087C28.42 2.0828 28.1611 3.80121 29.0731 5.01903L59.294 45.3744C60.206 46.5922 61.9436 46.8483 63.175 45.9464L63.1837 45.94C64.4152 45.038 64.6741 43.3196 63.7621 42.1018L33.5412 1.74642C32.6292 0.528593 30.8916 0.272512 29.6602 1.17445Z" fill="white"/>
<path d="M61.5304 47.1209C61.3597 47.1208 61.1892 47.1082 61.0204 47.0832C60.5762 47.019 60.1493 46.8683 59.7644 46.6398C59.3795 46.4113 59.0443 46.1096 58.7781 45.7521L28.5571 5.39672C28.0177 4.67655 27.7897 3.77399 27.9232 2.88758C28.0567 2.00117 28.5408 1.20351 29.269 0.670071L29.6602 1.17427L29.278 0.663718C29.6386 0.399592 30.0482 0.208292 30.4835 0.100741C30.9189 -0.00680863 31.3714 -0.0285022 31.8152 0.0368994C32.259 0.102301 32.6854 0.253517 33.0701 0.481913C33.4549 0.710308 33.7903 1.01141 34.0574 1.36803L64.2787 41.7234C64.654 42.2273 64.8808 42.8242 64.9341 43.4479C64.9873 44.0715 64.8648 44.6976 64.5801 45.2566C64.2955 45.8156 63.8599 46.2857 63.3216 46.6148C62.7833 46.9438 62.1633 47.119 61.5304 47.1209ZM31.3072 1.27041C30.8515 1.27042 30.408 1.41591 30.0426 1.68524L30.0388 1.68799L30.03 1.69434C29.5769 2.02771 29.2761 2.52519 29.1935 3.07764C29.1109 3.63009 29.2532 4.19239 29.5893 4.64117L59.8106 44.9959C60.148 45.4464 60.6526 45.746 61.2133 45.8286C61.774 45.9113 62.345 45.7702 62.8006 45.4366C63.2562 45.1029 63.5591 44.6039 63.6426 44.0493C63.7262 43.4948 63.5836 42.9301 63.2462 42.4796L33.0249 2.124C32.8256 1.85917 32.5666 1.64406 32.2683 1.49585C31.9701 1.34765 31.641 1.27044 31.3072 1.27041Z" fill="#222433"/>
</g>
<defs>
<clipPath id="clip0_43935_16115">
<rect width="64.9333" height="70" fill="white" transform="translate(0.0166016)"/>
</clipPath>
</defs>
</svg>
