<svg width="25" height="24" viewBox="0 0 25 24" fill="none" xmlns="http://www.w3.org/2000/svg">
<g id="mingcute:notification-line">
<g id="Group">
<path id="Vector" fill-rule="evenodd" clip-rule="evenodd" d="M5.50848 9C5.50848 7.14348 6.24597 5.36301 7.55873 4.05025C8.87148 2.7375 10.652 2 12.5085 2C14.365 2 16.1455 2.7375 17.4582 4.05025C18.771 5.36301 19.5085 7.14348 19.5085 9V12.764L21.3305 16.408C21.4144 16.5757 21.454 16.7621 21.4455 16.9494C21.4371 17.1368 21.3809 17.3188 21.2823 17.4783C21.1837 17.6379 21.046 17.7695 20.8822 17.8608C20.7184 17.9521 20.534 18 20.3465 18H16.3825C16.16 18.8582 15.6589 19.6183 14.9577 20.1609C14.2566 20.7035 13.3951 20.9979 12.5085 20.9979C11.6219 20.9979 10.7604 20.7035 10.0592 20.1609C9.35805 19.6183 8.85691 18.8582 8.63448 18H4.67048C4.48295 18 4.29854 17.9521 4.13474 17.8608C3.97095 17.7695 3.83321 17.6379 3.73462 17.4783C3.63603 17.3188 3.57985 17.1368 3.57142 16.9494C3.563 16.7621 3.6026 16.5757 3.68648 16.408L5.50848 12.764V9ZM10.7765 18C10.952 18.304 11.2045 18.5565 11.5085 18.732C11.8125 18.9075 12.1574 18.9999 12.5085 18.9999C12.8595 18.9999 13.2044 18.9075 13.5084 18.732C13.8125 18.5565 14.0649 18.304 14.2405 18H10.7765ZM12.5085 4C11.1824 4 9.91062 4.52678 8.97294 5.46447C8.03526 6.40215 7.50848 7.67392 7.50848 9V12.764C7.50845 13.0743 7.43622 13.3804 7.29748 13.658L6.12748 16H18.8905L17.7205 13.658C17.5814 13.3805 17.5088 13.0744 17.5085 12.764V9C17.5085 7.67392 16.9817 6.40215 16.044 5.46447C15.1063 4.52678 13.8346 4 12.5085 4Z" fill="white"/>
</g>
</g>
</svg>
