<svg width="149" height="221" viewBox="0 0 149 221" fill="none" xmlns="http://www.w3.org/2000/svg">
<g filter="url(#filter0_f_42207:12828)">
<path fill-rule="evenodd" clip-rule="evenodd" d="M106.072 48.1832C120.058 51.3087 127.608 65.5239 139.771 73.0846C153.389 81.5508 176.848 79.5829 181.305 94.9526C185.805 110.47 167.33 122.908 158.062 136.158C151.664 145.307 144.842 153.539 135.766 160.06C126.725 166.557 117.096 171.881 106.072 173.516C93.544 175.375 79.9084 176.645 69.1789 169.937C58.1685 163.052 52.8728 150.172 48.9716 137.813C45.102 125.555 45.5936 112.999 47.1798 100.245C49.1505 84.399 47.2748 65.6875 59.2593 55.0928C71.3572 44.398 90.2934 44.6572 106.072 48.1832Z" fill="#9AE2E0" fill-opacity="0.3"/>
</g>
<defs>
<filter id="filter0_f_42207:12828" x="0" y="0" width="228" height="221" filterUnits="userSpaceOnUse" color-interpolation-filters="sRGB">
<feFlood flood-opacity="0" result="BackgroundImageFix"/>
<feBlend mode="normal" in="SourceGraphic" in2="BackgroundImageFix" result="shape"/>
<feGaussianBlur stdDeviation="23" result="effect1_foregroundBlur_42207:12828"/>
</filter>
</defs>
</svg>
