<svg xmlns="http://www.w3.org/2000/svg" xmlns:xlink="http://www.w3.org/1999/xlink" width="1200" zoomAndPan="magnify" viewBox="0 0 900 899.99999" height="1200" preserveAspectRatio="xMidYMid meet" version="1.2"><g id="557d1cdbcb"><path style=" stroke:none;fill-rule:nonzero;fill:#113c7b;fill-opacity:1;" d="M 858.484375 645.660156 C 840.753906 613.867188 803.988281 598.789062 769.074219 609.117188 L 553.414062 672.46875 C 546.425781 636.253906 520.140625 606.550781 483.660156 595.582031 L 342.304688 553.070312 C 339.332031 552.171875 336.152344 552.25 333.199219 553.234375 L 202.960938 597.460938 L 202.960938 567.367188 C 202.960938 559.113281 196.277344 552.441406 188.035156 552.441406 L 45.128906 552.441406 C 36.886719 552.441406 30.199219 559.113281 30.199219 567.367188 L 30.199219 837.601562 C 30.199219 845.855469 36.886719 852.527344 45.128906 852.527344 L 188.035156 852.527344 C 196.277344 852.527344 202.960938 845.855469 202.960938 837.601562 L 202.960938 817.71875 C 262.609375 836.855469 418.894531 878.070312 492.707031 897.324219 C 495.960938 898.175781 499.46875 897.890625 502.542969 896.503906 L 822.378906 754.074219 C 842.183594 745.25 857.46875 728.398438 864.335938 707.84375 C 871.1875 687.277344 869.066406 664.617188 858.5 645.660156 Z M 173.109375 822.675781 L 60.054688 822.675781 L 60.054688 582.296875 L 173.09375 582.296875 L 173.09375 822.675781 Z M 836.003906 698.410156 C 831.734375 711.21875 822.585938 721.308594 810.226562 726.800781 L 495.167969 867.113281 C 394.679688 840.839844 240.445312 799.40625 202.960938 786.554688 L 202.960938 629 L 338.273438 583.042969 L 475.0625 624.179688 C 503.363281 632.671875 522.722656 657.300781 524.945312 686.351562 C 513.828125 696.753906 477.03125 724.085938 408.292969 710.488281 C 400.203125 708.785156 392.351562 714.113281 390.742188 722.21875 C 389.144531 730.292969 394.398438 738.144531 402.472656 739.757812 C 417.726562 742.789062 431.746094 744.085938 444.550781 744.085938 C 504.855469 744.085938 538.230469 715.53125 548.488281 705.023438 L 777.492188 637.75 C 798.941406 631.464844 821.527344 640.675781 832.421875 660.199219 C 838.992188 672.019531 840.257812 685.574219 835.988281 698.410156 Z M 836.003906 698.410156 "/><path style=" stroke:none;fill-rule:nonzero;fill:#113c7b;fill-opacity:1;" d="M 129.941406 607.65625 L 103.207031 607.65625 C 94.96875 607.65625 88.28125 614.328125 88.28125 622.582031 C 88.28125 630.835938 94.96875 637.507812 103.207031 637.507812 L 129.941406 637.507812 C 138.179688 637.507812 144.867188 630.835938 144.867188 622.582031 C 144.867188 614.328125 138.179688 607.65625 129.941406 607.65625 Z M 129.941406 607.65625 "/><path style=" stroke:none;fill-rule:nonzero;fill:#113c7b;fill-opacity:1;" d="M 449.253906 479.851562 C 580.9375 479.851562 688.082031 372.710938 688.082031 241.027344 C 688.082031 109.34375 580.9375 2.199219 449.253906 2.199219 C 317.570312 2.199219 210.425781 109.34375 210.425781 241.027344 C 210.425781 372.710938 317.570312 479.851562 449.253906 479.851562 Z M 449.253906 32.050781 C 564.488281 32.050781 658.226562 125.792969 658.226562 241.027344 C 658.226562 356.261719 564.488281 450 449.253906 450 C 334.019531 450 240.28125 356.261719 240.28125 241.027344 C 240.28125 125.792969 334.019531 32.050781 449.253906 32.050781 Z M 449.253906 32.050781 "/><path style=" stroke:none;fill-rule:nonzero;fill:#113c7b;fill-opacity:1;" d="M 404.472656 300.734375 C 404.472656 292.476562 397.785156 285.804688 389.546875 285.804688 C 381.308594 285.804688 374.621094 292.476562 374.621094 300.734375 C 374.621094 336.765625 400.308594 366.917969 434.328125 373.859375 L 434.328125 398.949219 C 434.328125 407.203125 441.015625 413.878906 449.253906 413.878906 C 457.492188 413.878906 464.179688 407.203125 464.179688 398.949219 L 464.179688 373.859375 C 498.199219 366.917969 523.886719 336.78125 523.886719 300.734375 C 523.886719 264.683594 498.199219 234.546875 464.179688 227.605469 L 464.179688 139.285156 C 481.511719 145.464844 494.035156 161.882812 494.035156 181.320312 C 494.035156 189.574219 500.707031 196.246094 508.960938 196.246094 C 517.214844 196.246094 523.886719 189.574219 523.886719 181.320312 C 523.886719 145.285156 498.199219 115.132812 464.179688 108.191406 L 464.179688 83.101562 C 464.179688 74.847656 457.492188 68.175781 449.253906 68.175781 C 441.015625 68.175781 434.328125 74.847656 434.328125 83.101562 L 434.328125 108.191406 C 400.308594 115.132812 374.621094 145.269531 374.621094 181.320312 C 374.621094 217.367188 400.308594 247.503906 434.328125 254.445312 L 434.328125 342.765625 C 416.996094 336.585938 404.472656 320.167969 404.472656 300.734375 Z M 494.035156 300.734375 C 494.035156 320.167969 481.511719 336.585938 464.179688 342.765625 L 464.179688 258.714844 C 481.511719 264.894531 494.035156 281.3125 494.035156 300.746094 Z M 404.472656 181.320312 C 404.472656 161.882812 416.996094 145.464844 434.328125 139.285156 L 434.328125 223.335938 C 416.996094 217.15625 404.472656 200.738281 404.472656 181.304688 Z M 404.472656 181.320312 "/></g></svg>