<svg width="16" height="16" viewBox="0 0 16 16" fill="none" xmlns="http://www.w3.org/2000/svg">
<path d="M3.8335 5.99992C3.8335 3.69873 5.69898 1.83325 8.00016 1.83325C10.3014 1.83325 12.1668 3.69873 12.1668 5.99992V9.99992C12.1668 12.3011 10.3014 14.1666 8.00016 14.1666C5.69898 14.1666 3.8335 12.3011 3.8335 9.99992V5.99992Z" fill="white"/>
<path d="M8.00016 4.49992V5.83325M8.00016 14.1666C5.69898 14.1666 3.8335 12.3011 3.8335 9.99992V5.99992C3.8335 3.69873 5.69898 1.83325 8.00016 1.83325C10.3013 1.83325 12.1668 3.69873 12.1668 5.99992V9.99992C12.1668 12.3011 10.3013 14.1666 8.00016 14.1666Z" stroke="#113C7B" stroke-width="1.5" stroke-linecap="square" stroke-linejoin="round"/>
</svg>
