<svg fill="#000000" xmlns="http://www.w3.org/2000/svg"  viewBox="0 0 30 30" width="30px" height="30px"><path d="M 14.984375 0.98632812 A 1.0001 1.0001 0 0 0 14 2 L 14 3.0507812 C 8.1816973 3.5346138 3.5321376 8.1823687 3.0488281 14 L 2 14 A 1.0001 1.0001 0 1 0 2 16 L 3.0507812 16 C 3.5345683 21.817755 8.1822448 26.465432 14 26.949219 L 14 28 A 1.0001 1.0001 0 1 0 16 28 L 16 26.949219 C 21.817755 26.465432 26.465432 21.817755 26.949219 16 L 28 16 A 1.0001 1.0001 0 1 0 28 14 L 26.951172 14 C 26.467862 8.1823687 21.818303 3.5346138 16 3.0507812 L 16 2 A 1.0001 1.0001 0 0 0 14.984375 0.98632812 z M 14 5.0488281 L 14 6 A 1.0001 1.0001 0 1 0 16 6 L 16 5.0488281 C 20.733226 5.5164916 24.481796 9.2666198 24.949219 14 L 24 14 A 1.0001 1.0001 0 1 0 24 16 L 24.951172 16 C 24.483535 20.732953 20.732953 24.483535 16 24.951172 L 16 24 A 1.0001 1.0001 0 0 0 14.984375 22.986328 A 1.0001 1.0001 0 0 0 14 24 L 14 24.951172 C 9.2670468 24.483535 5.5164646 20.732953 5.0488281 16 L 6 16 A 1.0001 1.0001 0 1 0 6 14 L 5.0507812 14 C 5.5182037 9.2666198 9.2667736 5.5164916 14 5.0488281 z M 15 11 A 4 4 0 0 0 11 15 A 4 4 0 0 0 15 19 A 4 4 0 0 0 19 15 A 4 4 0 0 0 15 11 z"/></svg>