<svg xmlns="http://www.w3.org/2000/svg" xmlns:xlink="http://www.w3.org/1999/xlink" width="1200" zoomAndPan="magnify" viewBox="0 0 900 899.99999" height="1200" preserveAspectRatio="xMidYMid meet" version="1.2"><defs><clipPath id="b1ff418b8d"><path d="M 364 282.238281 L 536 282.238281 L 536 454 L 364 454 Z M 364 282.238281 "/></clipPath><clipPath id="2cdbb5b75a"><path d="M 286.429688 453 L 613.429688 453 L 613.429688 614 L 286.429688 614 Z M 286.429688 453 "/></clipPath></defs><g id="c3def03509"><g clip-rule="nonzero" clip-path="url(#b1ff418b8d)"><path style=" stroke:none;fill-rule:nonzero;fill:#113c7b;fill-opacity:1;" d="M 535.832031 368.085938 C 535.832031 415.503906 497.394531 453.9375 449.980469 453.9375 C 402.566406 453.9375 364.128906 415.503906 364.128906 368.085938 C 364.128906 320.671875 402.566406 282.238281 449.980469 282.238281 C 497.394531 282.238281 535.832031 320.671875 535.832031 368.085938 Z M 535.832031 368.085938 "/></g><g clip-rule="nonzero" clip-path="url(#2cdbb5b75a)"><path style=" stroke:none;fill-rule:nonzero;fill:#113c7b;fill-opacity:1;" d="M 613.457031 580.78125 C 613.457031 589.011719 607.609375 596.085938 599.519531 597.621094 L 578.082031 601.691406 C 493.4375 617.769531 406.515625 617.769531 321.871094 601.691406 L 300.433594 597.621094 C 292.34375 596.085938 286.496094 589.011719 286.496094 580.78125 C 286.496094 516.472656 333.8125 463.226562 395.53125 453.9375 C 410.035156 466.796875 429.070312 474.675781 449.980469 474.675781 C 470.890625 474.675781 489.917969 466.804688 504.425781 453.9375 C 566.140625 463.226562 613.457031 516.472656 613.457031 580.78125 Z M 613.457031 580.78125 "/></g></g></svg>