<svg xmlns="http://www.w3.org/2000/svg" xmlns:xlink="http://www.w3.org/1999/xlink" width="1200" zoomAndPan="magnify" viewBox="0 0 900 899.99999" height="1200" preserveAspectRatio="xMidYMid meet" version="1.2"><defs><clipPath id="9dcee396c5"><path d="M 217 167.515625 L 592 167.515625 L 592 543 L 217 543 Z M 217 167.515625 "/></clipPath><clipPath id="97b58282c5"><path d="M 47.507812 542 L 761.507812 542 L 761.507812 892 L 47.507812 892 Z M 47.507812 542 "/></clipPath><clipPath id="6ce78b7f90"><path d="M 565 19 L 852.804688 19 L 852.804688 406 L 565 406 Z M 565 19 "/></clipPath></defs><g id="bd733dcc13"><g clip-rule="nonzero" clip-path="url(#9dcee396c5)"><path style=" stroke:none;fill-rule:nonzero;fill:#113c7b;fill-opacity:1;" d="M 591.980469 354.941406 C 591.980469 458.453125 508.070312 542.363281 404.558594 542.363281 C 301.046875 542.363281 217.136719 458.453125 217.136719 354.941406 C 217.136719 251.429688 301.046875 167.515625 404.558594 167.515625 C 508.070312 167.515625 591.980469 251.429688 591.980469 354.941406 Z M 591.980469 354.941406 "/></g><g clip-rule="nonzero" clip-path="url(#97b58282c5)"><path style=" stroke:none;fill-rule:nonzero;fill:#113c7b;fill-opacity:1;" d="M 761.453125 819.277344 C 761.453125 837.25 748.679688 852.683594 731.023438 856.042969 L 684.222656 864.929688 C 499.429688 900.03125 309.671875 900.03125 124.878906 864.929688 L 78.078125 856.042969 C 60.417969 852.683594 47.648438 837.25 47.648438 819.277344 C 47.648438 678.886719 150.945312 562.636719 285.691406 542.363281 C 317.355469 570.4375 358.90625 587.636719 404.558594 587.636719 C 450.210938 587.636719 491.746094 570.457031 523.425781 542.363281 C 658.152344 562.636719 761.453125 678.886719 761.453125 819.277344 Z M 761.453125 819.277344 "/></g><g clip-rule="nonzero" clip-path="url(#6ce78b7f90)"><path style=" stroke:none;fill-rule:nonzero;fill:#113c7b;fill-opacity:1;" d="M 708.765625 239.058594 C 666.847656 239.058594 632.863281 205.078125 632.863281 163.152344 C 632.863281 121.238281 666.847656 87.253906 708.765625 87.253906 C 750.6875 87.253906 784.671875 121.238281 784.671875 163.152344 C 784.671875 205.078125 750.6875 239.058594 708.765625 239.058594 Z M 694.769531 20.089844 C 610.53125 28.050781 552.839844 109.679688 567.539062 193.007812 C 582.46875 277.648438 660.507812 303.703125 699.238281 398.71875 C 702.726562 407.277344 714.785156 407.328125 718.273438 398.757812 C 761.207031 293.378906 852.492188 272.8125 852.492188 163.152344 C 852.492188 79.160156 780.441406 11.988281 694.769531 20.089844 "/></g></g></svg>