<svg xmlns="http://www.w3.org/2000/svg" xmlns:xlink="http://www.w3.org/1999/xlink" width="1200" zoomAndPan="magnify" viewBox="0 0 900 899.99999" height="1200" preserveAspectRatio="xMidYMid meet" version="1.2"><defs><clipPath id="9f2299a2b7"><path d="M 113.613281 209.636719 L 786.613281 209.636719 L 786.613281 690.507812 L 113.613281 690.507812 Z M 113.613281 209.636719 "/></clipPath><clipPath id="45e159443d"><rect x="0" width="900" y="0" height="900"/></clipPath></defs><g id="710f6acdf6"><g transform="matrix(1,0,0,1,0,0.000000000000108392)"><g clip-path="url(#45e159443d)"><g clip-rule="nonzero" clip-path="url(#9f2299a2b7)"><path style=" stroke:none;fill-rule:nonzero;fill:#113c7b;fill-opacity:1;" d="M 706.28125 209.722656 L 193.703125 209.722656 C 192.390625 209.722656 191.082031 209.757812 189.773438 209.824219 C 188.464844 209.886719 187.160156 209.984375 185.855469 210.113281 C 184.550781 210.246094 183.25 210.40625 181.953125 210.597656 C 180.65625 210.792969 179.367188 211.015625 178.082031 211.273438 C 176.796875 211.53125 175.519531 211.816406 174.25 212.136719 C 172.976562 212.457031 171.714844 212.804688 170.460938 213.1875 C 169.207031 213.570312 167.964844 213.980469 166.730469 214.421875 C 165.496094 214.863281 164.273438 215.335938 163.066406 215.839844 C 161.855469 216.339844 160.65625 216.871094 159.472656 217.433594 C 158.289062 217.992188 157.117188 218.582031 155.960938 219.203125 C 154.808594 219.820312 153.667969 220.464844 152.542969 221.140625 C 151.417969 221.8125 150.3125 222.515625 149.222656 223.242188 C 148.132812 223.972656 147.0625 224.726562 146.011719 225.507812 C 144.957031 226.289062 143.925781 227.09375 142.914062 227.925781 C 141.902344 228.757812 140.910156 229.613281 139.9375 230.492188 C 138.96875 231.371094 138.019531 232.277344 137.089844 233.203125 C 136.164062 234.128906 135.261719 235.078125 134.382812 236.046875 C 133.5 237.019531 132.644531 238.011719 131.8125 239.023438 C 130.984375 240.035156 130.175781 241.070312 129.394531 242.121094 C 128.613281 243.175781 127.859375 244.246094 127.132812 245.335938 C 126.402344 246.425781 125.703125 247.53125 125.027344 248.652344 C 124.355469 249.777344 123.707031 250.917969 123.089844 252.074219 C 122.472656 253.230469 121.882812 254.398438 121.324219 255.582031 C 120.761719 256.765625 120.230469 257.964844 119.726562 259.175781 C 119.226562 260.386719 118.753906 261.609375 118.3125 262.839844 C 117.871094 264.074219 117.457031 265.316406 117.078125 266.570312 C 116.695312 267.824219 116.347656 269.089844 116.027344 270.359375 C 115.707031 271.628906 115.417969 272.90625 115.164062 274.191406 C 114.90625 275.476562 114.679688 276.769531 114.488281 278.066406 C 114.296875 279.359375 114.132812 280.660156 114.003906 281.964844 C 113.875 283.269531 113.777344 284.574219 113.710938 285.882812 C 113.644531 287.191406 113.613281 288.503906 113.613281 289.8125 L 113.613281 610.175781 C 113.613281 611.484375 113.644531 612.792969 113.710938 614.101562 C 113.777344 615.410156 113.875 616.71875 114.003906 618.023438 C 114.132812 619.328125 114.296875 620.625 114.488281 621.921875 C 114.679688 623.21875 114.90625 624.507812 115.164062 625.792969 C 115.417969 627.078125 115.707031 628.355469 116.027344 629.628906 C 116.347656 630.898438 116.695312 632.160156 117.078125 633.414062 C 117.457031 634.667969 117.871094 635.914062 118.3125 637.144531 C 118.753906 638.378906 119.226562 639.601562 119.726562 640.8125 C 120.230469 642.023438 120.761719 643.21875 121.324219 644.40625 C 121.882812 645.589844 122.472656 646.757812 123.089844 647.914062 C 123.707031 649.070312 124.355469 650.210938 125.027344 651.332031 C 125.703125 652.457031 126.402344 653.5625 127.132812 654.652344 C 127.859375 655.742188 128.613281 656.8125 129.394531 657.867188 C 130.175781 658.917969 130.984375 659.949219 131.8125 660.964844 C 132.644531 661.976562 133.5 662.96875 134.382812 663.9375 C 135.261719 664.910156 136.164062 665.859375 137.089844 666.785156 C 138.019531 667.710938 138.96875 668.617188 139.9375 669.496094 C 140.910156 670.375 141.902344 671.230469 142.914062 672.0625 C 143.925781 672.894531 144.957031 673.699219 146.011719 674.480469 C 147.0625 675.261719 148.132812 676.015625 149.222656 676.746094 C 150.3125 677.472656 151.417969 678.175781 152.542969 678.847656 C 153.667969 679.523438 154.808594 680.167969 155.960938 680.785156 C 157.117188 681.40625 158.289062 681.992188 159.472656 682.554688 C 160.65625 683.117188 161.855469 683.648438 163.066406 684.148438 C 164.273438 684.652344 165.496094 685.121094 166.730469 685.566406 C 167.964844 686.007812 169.207031 686.417969 170.460938 686.800781 C 171.714844 687.179688 172.976562 687.53125 174.25 687.851562 C 175.519531 688.167969 176.796875 688.457031 178.082031 688.714844 C 179.367188 688.96875 180.65625 689.195312 181.953125 689.386719 C 183.25 689.582031 184.550781 689.742188 185.855469 689.871094 C 187.160156 690.003906 188.464844 690.097656 189.773438 690.164062 C 191.082031 690.230469 192.390625 690.265625 193.703125 690.265625 L 706.28125 690.265625 C 707.589844 690.265625 708.902344 690.230469 710.210938 690.164062 C 711.519531 690.097656 712.824219 690.003906 714.128906 689.871094 C 715.433594 689.742188 716.734375 689.582031 718.027344 689.386719 C 719.324219 689.195312 720.617188 688.96875 721.902344 688.714844 C 723.1875 688.457031 724.464844 688.167969 725.734375 687.851562 C 727.003906 687.53125 728.269531 687.179688 729.523438 686.800781 C 730.777344 686.417969 732.019531 686.007812 733.253906 685.566406 C 734.484375 685.121094 735.707031 684.652344 736.917969 684.148438 C 738.128906 683.648438 739.328125 683.117188 740.511719 682.554688 C 741.695312 681.992188 742.863281 681.40625 744.019531 680.785156 C 745.175781 680.167969 746.316406 679.523438 747.441406 678.847656 C 748.5625 678.175781 749.667969 677.472656 750.757812 676.746094 C 751.847656 676.015625 752.917969 675.261719 753.972656 674.480469 C 755.023438 673.699219 756.058594 672.894531 757.070312 672.0625 C 758.082031 671.230469 759.074219 670.375 760.046875 669.496094 C 761.015625 668.613281 761.964844 667.710938 762.890625 666.785156 C 763.816406 665.859375 764.722656 664.910156 765.601562 663.9375 C 766.480469 662.96875 767.335938 661.976562 768.167969 660.964844 C 769 659.949219 769.804688 658.917969 770.585938 657.867188 C 771.367188 656.8125 772.121094 655.742188 772.851562 654.652344 C 773.578125 653.5625 774.28125 652.457031 774.953125 651.332031 C 775.628906 650.210938 776.273438 649.070312 776.890625 647.914062 C 777.511719 646.757812 778.101562 645.589844 778.660156 644.40625 C 779.222656 643.21875 779.753906 642.023438 780.253906 640.8125 C 780.757812 639.601562 781.230469 638.378906 781.671875 637.144531 C 782.113281 635.914062 782.523438 634.667969 782.90625 633.414062 C 783.285156 632.160156 783.636719 630.898438 783.957031 629.628906 C 784.277344 628.355469 784.5625 627.078125 784.820312 625.792969 C 785.078125 624.507812 785.300781 623.21875 785.496094 621.921875 C 785.6875 620.625 785.847656 619.328125 785.980469 618.023438 C 786.109375 616.71875 786.207031 615.410156 786.269531 614.101562 C 786.335938 612.792969 786.371094 611.484375 786.371094 610.175781 L 786.371094 289.8125 C 786.371094 288.503906 786.335938 287.191406 786.269531 285.882812 C 786.207031 284.574219 786.109375 283.269531 785.980469 281.964844 C 785.847656 280.660156 785.6875 279.359375 785.496094 278.066406 C 785.300781 276.769531 785.078125 275.476562 784.820312 274.191406 C 784.5625 272.90625 784.277344 271.628906 783.957031 270.359375 C 783.636719 269.089844 783.285156 267.824219 782.90625 266.570312 C 782.523438 265.316406 782.113281 264.074219 781.671875 262.839844 C 781.230469 261.609375 780.757812 260.386719 780.253906 259.175781 C 779.753906 257.964844 779.222656 256.765625 778.660156 255.582031 C 778.101562 254.398438 777.511719 253.230469 776.890625 252.074219 C 776.273438 250.917969 775.628906 249.777344 774.953125 248.652344 C 774.28125 247.53125 773.578125 246.425781 772.851562 245.335938 C 772.121094 244.246094 771.367188 243.175781 770.585938 242.121094 C 769.804688 241.070312 769 240.035156 768.167969 239.023438 C 767.335938 238.011719 766.480469 237.019531 765.601562 236.046875 C 764.722656 235.078125 763.816406 234.128906 762.890625 233.203125 C 761.964844 232.277344 761.015625 231.371094 760.046875 230.492188 C 759.074219 229.613281 758.082031 228.757812 757.070312 227.925781 C 756.058594 227.09375 755.023438 226.289062 753.972656 225.507812 C 752.917969 224.726562 751.847656 223.972656 750.757812 223.242188 C 749.671875 222.515625 748.5625 221.8125 747.441406 221.140625 C 746.316406 220.464844 745.175781 219.820312 744.019531 219.203125 C 742.863281 218.582031 741.695312 217.992188 740.511719 217.433594 C 739.328125 216.871094 738.128906 216.339844 736.917969 215.839844 C 735.707031 215.335938 734.484375 214.863281 733.253906 214.421875 C 732.019531 213.980469 730.773438 213.570312 729.523438 213.1875 C 728.269531 212.804688 727.003906 212.457031 725.734375 212.136719 C 724.464844 211.816406 723.1875 211.53125 721.902344 211.273438 C 720.617188 211.015625 719.324219 210.792969 718.027344 210.597656 C 716.734375 210.40625 715.433594 210.246094 714.128906 210.113281 C 712.824219 209.984375 711.519531 209.886719 710.210938 209.824219 C 708.902344 209.757812 707.589844 209.722656 706.28125 209.722656 Z M 754.335938 610.175781 C 754.332031 611.746094 754.253906 613.316406 754.097656 614.882812 C 753.941406 616.449219 753.710938 618.003906 753.402344 619.546875 C 753.09375 621.089844 752.710938 622.613281 752.253906 624.117188 C 751.796875 625.625 751.265625 627.101562 750.664062 628.554688 C 750.058594 630.007812 749.386719 631.429688 748.644531 632.816406 C 747.902344 634.203125 747.09375 635.550781 746.21875 636.859375 C 745.347656 638.167969 744.410156 639.429688 743.410156 640.644531 C 742.414062 641.863281 741.359375 643.027344 740.246094 644.136719 C 739.132812 645.25 737.96875 646.304688 736.753906 647.304688 C 735.535156 648.304688 734.273438 649.238281 732.964844 650.113281 C 731.65625 650.988281 730.308594 651.796875 728.921875 652.539062 C 727.535156 653.28125 726.117188 653.953125 724.664062 654.558594 C 723.210938 655.160156 721.730469 655.691406 720.222656 656.148438 C 718.71875 656.605469 717.195312 656.988281 715.652344 657.296875 C 714.109375 657.605469 712.554688 657.835938 710.988281 657.992188 C 709.421875 658.148438 707.855469 658.226562 706.28125 658.230469 L 193.703125 658.230469 C 192.128906 658.226562 190.558594 658.148438 188.992188 657.992188 C 187.429688 657.835938 185.875 657.605469 184.332031 657.296875 C 182.789062 656.988281 181.265625 656.605469 179.757812 656.148438 C 178.253906 655.691406 176.773438 655.160156 175.320312 654.558594 C 173.867188 653.953125 172.449219 653.28125 171.058594 652.539062 C 169.671875 651.796875 168.324219 650.988281 167.015625 650.113281 C 165.710938 649.238281 164.445312 648.304688 163.230469 647.304688 C 162.015625 646.304688 160.851562 645.25 159.738281 644.136719 C 158.625 643.027344 157.570312 641.863281 156.570312 640.644531 C 155.574219 639.429688 154.636719 638.167969 153.761719 636.859375 C 152.886719 635.550781 152.078125 634.203125 151.335938 632.816406 C 150.59375 631.429688 149.921875 630.007812 149.320312 628.554688 C 148.71875 627.101562 148.1875 625.625 147.730469 624.117188 C 147.269531 622.613281 146.886719 621.089844 146.578125 619.546875 C 146.273438 618.003906 146.039062 616.449219 145.882812 614.882812 C 145.726562 613.316406 145.648438 611.746094 145.648438 610.175781 L 145.648438 289.8125 C 145.648438 288.238281 145.726562 286.671875 145.882812 285.105469 C 146.039062 283.539062 146.273438 281.984375 146.578125 280.441406 C 146.886719 278.898438 147.269531 277.375 147.730469 275.871094 C 148.1875 274.363281 148.71875 272.882812 149.320312 271.429688 C 149.921875 269.976562 150.59375 268.558594 151.335938 267.171875 C 152.078125 265.785156 152.886719 264.4375 153.761719 263.128906 C 154.636719 261.820312 155.574219 260.558594 156.570312 259.339844 C 157.570312 258.125 158.625 256.960938 159.738281 255.847656 C 160.851562 254.734375 162.015625 253.679688 163.230469 252.683594 C 164.445312 251.683594 165.710938 250.746094 167.015625 249.875 C 168.324219 249 169.671875 248.191406 171.058594 247.449219 C 172.449219 246.707031 173.867188 246.035156 175.320312 245.429688 C 176.773438 244.828125 178.253906 244.296875 179.757812 243.839844 C 181.265625 243.382812 182.789062 243 184.332031 242.691406 C 185.875 242.382812 187.429688 242.152344 188.992188 241.996094 C 190.558594 241.839844 192.128906 241.761719 193.703125 241.757812 L 706.28125 241.757812 C 707.855469 241.761719 709.421875 241.839844 710.988281 241.996094 C 712.554688 242.152344 714.109375 242.382812 715.652344 242.691406 C 717.195312 243 718.71875 243.382812 720.222656 243.839844 C 721.730469 244.296875 723.210938 244.828125 724.664062 245.429688 C 726.117188 246.035156 727.535156 246.707031 728.921875 247.449219 C 730.308594 248.191406 731.65625 249 732.964844 249.875 C 734.273438 250.746094 735.535156 251.683594 736.753906 252.683594 C 737.96875 253.679688 739.132812 254.734375 740.246094 255.847656 C 741.359375 256.960938 742.414062 258.125 743.410156 259.339844 C 744.410156 260.558594 745.347656 261.820312 746.21875 263.128906 C 747.09375 264.4375 747.902344 265.785156 748.644531 267.171875 C 749.386719 268.558594 750.058594 269.976562 750.664062 271.429688 C 751.265625 272.882812 751.796875 274.363281 752.253906 275.871094 C 752.710938 277.375 753.09375 278.898438 753.402344 280.441406 C 753.710938 281.984375 753.941406 283.539062 754.097656 285.105469 C 754.253906 286.671875 754.332031 288.238281 754.335938 289.8125 Z M 321.847656 466.011719 C 323.15625 466.011719 324.46875 465.980469 325.777344 465.914062 C 327.085938 465.851562 328.394531 465.753906 329.695312 465.625 C 331 465.496094 332.300781 465.335938 333.597656 465.144531 C 334.894531 464.953125 336.1875 464.726562 337.472656 464.472656 C 338.757812 464.21875 340.035156 463.929688 341.308594 463.613281 C 342.578125 463.292969 343.839844 462.945312 345.097656 462.5625 C 346.351562 462.183594 347.59375 461.769531 348.828125 461.328125 C 350.0625 460.886719 351.285156 460.417969 352.496094 459.914062 C 353.707031 459.414062 354.90625 458.882812 356.089844 458.320312 C 357.273438 457.761719 358.445312 457.171875 359.601562 456.554688 C 360.757812 455.9375 361.898438 455.289062 363.023438 454.617188 C 364.144531 453.941406 365.253906 453.242188 366.34375 452.515625 C 367.433594 451.785156 368.503906 451.03125 369.558594 450.25 C 370.609375 449.46875 371.640625 448.664062 372.65625 447.832031 C 373.667969 447 374.660156 446.144531 375.632812 445.265625 C 376.605469 444.382812 377.550781 443.480469 378.480469 442.554688 C 379.40625 441.625 380.308594 440.679688 381.191406 439.707031 C 382.070312 438.734375 382.925781 437.742188 383.757812 436.730469 C 384.589844 435.71875 385.394531 434.683594 386.175781 433.632812 C 386.957031 432.578125 387.710938 431.507812 388.441406 430.417969 C 389.167969 429.328125 389.867188 428.21875 390.542969 427.097656 C 391.214844 425.972656 391.863281 424.832031 392.480469 423.675781 C 393.097656 422.519531 393.6875 421.347656 394.246094 420.164062 C 394.808594 418.980469 395.339844 417.78125 395.839844 416.570312 C 396.34375 415.359375 396.8125 414.136719 397.253906 412.902344 C 397.695312 411.667969 398.109375 410.425781 398.488281 409.171875 C 398.867188 407.914062 399.21875 406.652344 399.535156 405.382812 C 399.855469 404.109375 400.144531 402.832031 400.398438 401.546875 C 400.652344 400.261719 400.878906 398.96875 401.070312 397.671875 C 401.261719 396.375 401.421875 395.074219 401.550781 393.773438 C 401.679688 392.46875 401.777344 391.160156 401.839844 389.851562 C 401.90625 388.542969 401.9375 387.230469 401.9375 385.921875 C 401.9375 384.609375 401.90625 383.300781 401.839844 381.992188 C 401.777344 380.683594 401.679688 379.375 401.550781 378.070312 C 401.421875 376.765625 401.261719 375.464844 401.070312 374.167969 C 400.878906 372.875 400.652344 371.582031 400.398438 370.296875 C 400.144531 369.011719 399.855469 367.730469 399.535156 366.460938 C 399.21875 365.191406 398.867188 363.925781 398.488281 362.671875 C 398.109375 361.417969 397.695312 360.171875 397.253906 358.941406 C 396.8125 357.707031 396.34375 356.484375 395.839844 355.273438 C 395.339844 354.0625 394.808594 352.863281 394.246094 351.679688 C 393.6875 350.492188 393.097656 349.324219 392.480469 348.167969 C 391.863281 347.011719 391.214844 345.871094 390.542969 344.746094 C 389.867188 343.621094 389.167969 342.515625 388.441406 341.425781 C 387.710938 340.335938 386.957031 339.265625 386.175781 338.210938 C 385.394531 337.160156 384.589844 336.125 383.757812 335.113281 C 382.925781 334.097656 382.070312 333.105469 381.191406 332.136719 C 380.308594 331.164062 379.40625 330.214844 378.480469 329.289062 C 377.550781 328.363281 376.605469 327.457031 375.632812 326.578125 C 374.660156 325.699219 373.667969 324.84375 372.65625 324.011719 C 371.640625 323.179688 370.609375 322.371094 369.558594 321.59375 C 368.503906 320.8125 367.433594 320.058594 366.34375 319.328125 C 365.253906 318.601562 364.144531 317.898438 363.023438 317.226562 C 361.898438 316.550781 360.757812 315.90625 359.601562 315.289062 C 358.445312 314.671875 357.273438 314.082031 356.089844 313.519531 C 354.90625 312.960938 353.707031 312.429688 352.496094 311.925781 C 351.285156 311.425781 350.0625 310.953125 348.828125 310.511719 C 347.59375 310.070312 346.351562 309.660156 345.097656 309.28125 C 343.839844 308.898438 342.578125 308.550781 341.308594 308.230469 C 340.035156 307.914062 338.757812 307.625 337.472656 307.371094 C 336.1875 307.113281 334.894531 306.890625 333.597656 306.699219 C 332.300781 306.503906 331 306.34375 329.695312 306.214844 C 328.394531 306.089844 327.085938 305.992188 325.777344 305.925781 C 324.46875 305.863281 323.15625 305.832031 321.847656 305.832031 C 320.535156 305.832031 319.226562 305.863281 317.917969 305.925781 C 316.609375 305.992188 315.300781 306.089844 313.996094 306.214844 C 312.691406 306.34375 311.390625 306.503906 310.09375 306.699219 C 308.796875 306.890625 307.507812 307.113281 306.222656 307.371094 C 304.9375 307.625 303.65625 307.914062 302.386719 308.230469 C 301.113281 308.550781 299.851562 308.898438 298.597656 309.28125 C 297.34375 309.660156 296.097656 310.070312 294.867188 310.511719 C 293.632812 310.953125 292.410156 311.425781 291.199219 311.925781 C 289.988281 312.429688 288.789062 312.960938 287.605469 313.519531 C 286.417969 314.082031 285.25 314.671875 284.09375 315.289062 C 282.9375 315.90625 281.796875 316.550781 280.671875 317.226562 C 279.546875 317.898438 278.441406 318.601562 277.351562 319.328125 C 276.261719 320.058594 275.191406 320.8125 274.136719 321.59375 C 273.085938 322.371094 272.050781 323.179688 271.039062 324.011719 C 270.023438 324.84375 269.03125 325.699219 268.0625 326.578125 C 267.089844 327.457031 266.140625 328.363281 265.214844 329.289062 C 264.289062 330.214844 263.382812 331.164062 262.503906 332.136719 C 261.625 333.105469 260.769531 334.097656 259.9375 335.113281 C 259.105469 336.125 258.296875 337.160156 257.519531 338.210938 C 256.738281 339.265625 255.980469 340.335938 255.253906 341.425781 C 254.527344 342.515625 253.824219 343.621094 253.152344 344.746094 C 252.476562 345.871094 251.832031 347.011719 251.214844 348.167969 C 250.59375 349.324219 250.007812 350.492188 249.445312 351.679688 C 248.886719 352.863281 248.355469 354.0625 247.851562 355.273438 C 247.351562 356.484375 246.878906 357.707031 246.4375 358.941406 C 245.996094 360.171875 245.585938 361.417969 245.207031 362.671875 C 244.824219 363.925781 244.476562 365.191406 244.15625 366.460938 C 243.839844 367.730469 243.550781 369.011719 243.296875 370.296875 C 243.039062 371.582031 242.816406 372.875 242.625 374.167969 C 242.429688 375.464844 242.269531 376.765625 242.140625 378.070312 C 242.015625 379.375 241.917969 380.683594 241.851562 381.992188 C 241.789062 383.300781 241.757812 384.609375 241.757812 385.921875 C 241.757812 387.230469 241.792969 388.542969 241.855469 389.851562 C 241.921875 391.160156 242.019531 392.464844 242.148438 393.769531 C 242.277344 395.074219 242.441406 396.375 242.632812 397.667969 C 242.828125 398.964844 243.050781 400.257812 243.308594 401.542969 C 243.5625 402.824219 243.851562 404.105469 244.171875 405.375 C 244.492188 406.644531 244.839844 407.910156 245.222656 409.160156 C 245.601562 410.414062 246.015625 411.660156 246.457031 412.894531 C 246.898438 414.125 247.371094 415.347656 247.871094 416.558594 C 248.375 417.769531 248.90625 418.96875 249.46875 420.152344 C 250.027344 421.335938 250.617188 422.503906 251.234375 423.660156 C 251.851562 424.816406 252.5 425.957031 253.171875 427.078125 C 253.847656 428.203125 254.546875 429.308594 255.277344 430.398438 C 256.003906 431.488281 256.757812 432.558594 257.539062 433.613281 C 258.320312 434.664062 259.128906 435.699219 259.957031 436.710938 C 260.789062 437.722656 261.644531 438.714844 262.527344 439.6875 C 263.40625 440.65625 264.308594 441.605469 265.234375 442.53125 C 266.164062 443.457031 267.113281 444.363281 268.082031 445.242188 C 269.054688 446.121094 270.046875 446.976562 271.058594 447.808594 C 272.070312 448.640625 273.101562 449.445312 274.15625 450.226562 C 275.207031 451.007812 276.277344 451.761719 277.367188 452.492188 C 278.457031 453.21875 279.566406 453.921875 280.6875 454.59375 C 281.8125 455.269531 282.953125 455.914062 284.105469 456.53125 C 285.261719 457.152344 286.433594 457.742188 287.617188 458.300781 C 288.800781 458.863281 290 459.394531 291.210938 459.894531 C 292.417969 460.398438 293.640625 460.871094 294.875 461.3125 C 296.109375 461.753906 297.351562 462.164062 298.605469 462.546875 C 299.859375 462.925781 301.121094 463.277344 302.394531 463.597656 C 303.664062 463.917969 304.941406 464.203125 306.226562 464.460938 C 307.511719 464.71875 308.804688 464.941406 310.097656 465.136719 C 311.394531 465.328125 312.695312 465.488281 314 465.621094 C 315.304688 465.75 316.609375 465.847656 317.917969 465.910156 C 319.226562 465.976562 320.535156 466.011719 321.847656 466.011719 Z M 321.847656 337.867188 C 323.421875 337.867188 324.992188 337.945312 326.558594 338.097656 C 328.125 338.253906 329.679688 338.484375 331.222656 338.789062 C 332.765625 339.097656 334.289062 339.480469 335.796875 339.9375 C 337.300781 340.394531 338.78125 340.921875 340.238281 341.523438 C 341.691406 342.128906 343.113281 342.800781 344.5 343.542969 C 345.886719 344.28125 347.234375 345.089844 348.542969 345.964844 C 349.851562 346.839844 351.117188 347.777344 352.332031 348.773438 C 353.546875 349.773438 354.714844 350.828125 355.828125 351.941406 C 356.9375 353.054688 357.996094 354.21875 358.992188 355.4375 C 359.992188 356.652344 360.929688 357.914062 361.800781 359.222656 C 362.675781 360.53125 363.484375 361.878906 364.226562 363.269531 C 364.96875 364.65625 365.640625 366.078125 366.242188 367.53125 C 366.84375 368.984375 367.375 370.464844 367.832031 371.972656 C 368.289062 373.476562 368.671875 375.003906 368.976562 376.546875 C 369.285156 378.089844 369.515625 379.644531 369.667969 381.210938 C 369.824219 382.777344 369.902344 384.347656 369.902344 385.921875 C 369.902344 387.496094 369.824219 389.066406 369.667969 390.632812 C 369.515625 392.199219 369.285156 393.753906 368.976562 395.296875 C 368.671875 396.839844 368.289062 398.363281 367.832031 399.871094 C 367.375 401.375 366.84375 402.855469 366.242188 404.3125 C 365.640625 405.765625 364.96875 407.1875 364.226562 408.574219 C 363.484375 409.960938 362.675781 411.308594 361.800781 412.617188 C 360.929688 413.925781 359.992188 415.191406 358.992188 416.40625 C 357.996094 417.625 356.9375 418.789062 355.828125 419.902344 C 354.714844 421.015625 353.546875 422.070312 352.332031 423.066406 C 351.117188 424.066406 349.851562 425.003906 348.542969 425.875 C 347.234375 426.75 345.886719 427.558594 344.5 428.300781 C 343.113281 429.042969 341.691406 429.714844 340.238281 430.316406 C 338.78125 430.917969 337.300781 431.449219 335.796875 431.90625 C 334.289062 432.363281 332.765625 432.746094 331.222656 433.050781 C 329.679688 433.359375 328.125 433.589844 326.558594 433.746094 C 324.992188 433.898438 323.421875 433.976562 321.847656 433.976562 C 320.273438 433.976562 318.703125 433.898438 317.136719 433.742188 C 315.570312 433.589844 314.015625 433.359375 312.472656 433.050781 C 310.929688 432.746094 309.402344 432.363281 307.898438 431.90625 C 306.390625 431.449219 304.910156 430.917969 303.457031 430.316406 C 302.003906 429.714844 300.582031 429.042969 299.195312 428.300781 C 297.804688 427.558594 296.457031 426.75 295.148438 425.878906 C 293.839844 425.003906 292.578125 424.066406 291.363281 423.066406 C 290.144531 422.070312 288.980469 421.015625 287.867188 419.902344 C 286.753906 418.789062 285.699219 417.625 284.699219 416.40625 C 283.703125 415.191406 282.765625 413.925781 281.890625 412.617188 C 281.015625 411.308594 280.207031 409.960938 279.46875 408.574219 C 278.726562 407.1875 278.054688 405.765625 277.449219 404.3125 C 276.847656 402.855469 276.320312 401.375 275.863281 399.871094 C 275.40625 398.363281 275.023438 396.839844 274.714844 395.296875 C 274.410156 393.753906 274.179688 392.199219 274.023438 390.632812 C 273.871094 389.066406 273.792969 387.496094 273.792969 385.921875 C 273.792969 384.347656 273.875 382.777344 274.027344 381.210938 C 274.183594 379.648438 274.417969 378.09375 274.726562 376.550781 C 275.03125 375.007812 275.414062 373.484375 275.875 371.976562 C 276.332031 370.472656 276.863281 368.992188 277.464844 367.539062 C 278.066406 366.085938 278.738281 364.667969 279.480469 363.277344 C 280.222656 361.890625 281.03125 360.542969 281.90625 359.234375 C 282.78125 357.929688 283.71875 356.667969 284.714844 355.449219 C 285.714844 354.234375 286.769531 353.070312 287.882812 351.957031 C 288.996094 350.84375 290.160156 349.789062 291.375 348.789062 C 292.59375 347.792969 293.855469 346.855469 295.160156 345.980469 C 296.46875 345.105469 297.816406 344.300781 299.203125 343.558594 C 300.59375 342.816406 302.011719 342.140625 303.464844 341.539062 C 304.917969 340.9375 306.398438 340.40625 307.902344 339.949219 C 309.410156 339.492188 310.933594 339.105469 312.476562 338.800781 C 314.019531 338.492188 315.574219 338.257812 317.136719 338.101562 C 318.703125 337.949219 320.273438 337.867188 321.847656 337.867188 Z M 433.972656 578.136719 C 433.972656 578.664062 433.949219 579.1875 433.894531 579.707031 C 433.84375 580.230469 433.769531 580.75 433.664062 581.261719 C 433.5625 581.777344 433.4375 582.285156 433.285156 582.789062 C 433.132812 583.289062 432.953125 583.785156 432.753906 584.269531 C 432.554688 584.753906 432.328125 585.226562 432.082031 585.6875 C 431.835938 586.152344 431.566406 586.601562 431.273438 587.039062 C 430.984375 587.472656 430.671875 587.894531 430.335938 588.300781 C 430.003906 588.707031 429.652344 589.09375 429.28125 589.464844 C 428.910156 589.835938 428.523438 590.1875 428.117188 590.519531 C 427.710938 590.851562 427.289062 591.164062 426.855469 591.457031 C 426.417969 591.75 425.96875 592.019531 425.507812 592.265625 C 425.042969 592.511719 424.570312 592.734375 424.085938 592.9375 C 423.601562 593.136719 423.105469 593.3125 422.605469 593.464844 C 422.101562 593.617188 421.59375 593.746094 421.082031 593.847656 C 420.566406 593.949219 420.046875 594.027344 419.527344 594.078125 C 419.003906 594.128906 418.480469 594.15625 417.957031 594.15625 C 417.429688 594.15625 416.90625 594.128906 416.386719 594.078125 C 415.863281 594.027344 415.34375 593.949219 414.832031 593.847656 C 414.316406 593.746094 413.808594 593.617188 413.304688 593.464844 C 412.804688 593.3125 412.308594 593.136719 411.824219 592.9375 C 411.339844 592.734375 410.867188 592.511719 410.40625 592.265625 C 409.941406 592.019531 409.492188 591.75 409.054688 591.457031 C 408.621094 591.164062 408.199219 590.851562 407.792969 590.519531 C 407.386719 590.1875 407 589.835938 406.628906 589.464844 C 406.257812 589.09375 405.90625 588.707031 405.574219 588.300781 C 405.242188 587.894531 404.929688 587.472656 404.636719 587.039062 C 404.34375 586.601562 404.074219 586.152344 403.828125 585.6875 C 403.582031 585.226562 403.355469 584.753906 403.15625 584.269531 C 402.957031 583.785156 402.78125 583.289062 402.628906 582.789062 C 402.476562 582.285156 402.347656 581.777344 402.246094 581.261719 C 402.144531 580.75 402.066406 580.230469 402.015625 579.707031 C 401.964844 579.1875 401.9375 578.664062 401.9375 578.136719 C 401.9375 576.566406 401.855469 574.996094 401.699219 573.429688 C 401.546875 571.863281 401.3125 570.308594 401.003906 568.765625 C 400.695312 567.222656 400.3125 565.699219 399.855469 564.195312 C 399.398438 562.6875 398.867188 561.210938 398.265625 559.757812 C 397.664062 558.304688 396.988281 556.882812 396.246094 555.496094 C 395.503906 554.109375 394.695312 552.761719 393.824219 551.453125 C 392.949219 550.144531 392.011719 548.882812 391.011719 547.667969 C 390.015625 546.449219 388.960938 545.285156 387.847656 544.175781 C 386.734375 543.0625 385.570312 542.007812 384.355469 541.007812 C 383.136719 540.007812 381.875 539.074219 380.566406 538.199219 C 379.261719 537.324219 377.914062 536.515625 376.523438 535.773438 C 375.136719 535.03125 373.71875 534.359375 372.265625 533.757812 C 370.8125 533.152344 369.332031 532.621094 367.828125 532.164062 C 366.320312 531.707031 364.796875 531.324219 363.253906 531.015625 C 361.710938 530.707031 360.15625 530.476562 358.589844 530.320312 C 357.027344 530.164062 355.457031 530.085938 353.882812 530.085938 L 289.8125 530.085938 C 288.238281 530.085938 286.667969 530.164062 285.101562 530.320312 C 283.535156 530.476562 281.980469 530.707031 280.441406 531.015625 C 278.898438 531.324219 277.371094 531.707031 275.867188 532.164062 C 274.363281 532.621094 272.882812 533.152344 271.429688 533.757812 C 269.976562 534.359375 268.554688 535.03125 267.167969 535.773438 C 265.78125 536.515625 264.433594 537.324219 263.125 538.199219 C 261.816406 539.074219 260.554688 540.007812 259.339844 541.007812 C 258.125 542.007812 256.960938 543.0625 255.847656 544.175781 C 254.734375 545.285156 253.679688 546.449219 252.679688 547.667969 C 251.683594 548.882812 250.746094 550.144531 249.871094 551.453125 C 248.996094 552.761719 248.1875 554.109375 247.445312 555.496094 C 246.703125 556.882812 246.03125 558.304688 245.429688 559.757812 C 244.824219 561.210938 244.296875 562.6875 243.835938 564.195312 C 243.378906 565.699219 242.996094 567.222656 242.6875 568.765625 C 242.378906 570.308594 242.148438 571.863281 241.992188 573.429688 C 241.835938 574.996094 241.757812 576.566406 241.757812 578.136719 C 241.757812 578.664062 241.730469 579.1875 241.679688 579.707031 C 241.628906 580.230469 241.550781 580.75 241.449219 581.261719 C 241.347656 581.777344 241.21875 582.285156 241.066406 582.789062 C 240.914062 583.289062 240.738281 583.785156 240.539062 584.269531 C 240.335938 584.753906 240.113281 585.226562 239.863281 585.6875 C 239.617188 586.152344 239.347656 586.601562 239.058594 587.039062 C 238.765625 587.472656 238.453125 587.894531 238.121094 588.300781 C 237.789062 588.707031 237.4375 589.09375 237.066406 589.464844 C 236.695312 589.835938 236.304688 590.1875 235.898438 590.519531 C 235.496094 590.851562 235.074219 591.164062 234.636719 591.457031 C 234.203125 591.75 233.753906 592.019531 233.289062 592.265625 C 232.828125 592.511719 232.351562 592.734375 231.867188 592.9375 C 231.382812 593.136719 230.890625 593.3125 230.386719 593.464844 C 229.886719 593.617188 229.378906 593.746094 228.863281 593.847656 C 228.347656 593.949219 227.832031 594.027344 227.308594 594.078125 C 226.785156 594.128906 226.261719 594.15625 225.738281 594.15625 C 225.214844 594.15625 224.691406 594.128906 224.167969 594.078125 C 223.644531 594.027344 223.128906 593.949219 222.613281 593.847656 C 222.097656 593.746094 221.589844 593.617188 221.089844 593.464844 C 220.585938 593.3125 220.09375 593.136719 219.609375 592.9375 C 219.125 592.734375 218.648438 592.511719 218.1875 592.265625 C 217.726562 592.019531 217.277344 591.75 216.839844 591.457031 C 216.402344 591.164062 215.980469 590.851562 215.578125 590.519531 C 215.171875 590.1875 214.78125 589.835938 214.410156 589.464844 C 214.039062 589.09375 213.6875 588.707031 213.355469 588.300781 C 213.023438 587.894531 212.710938 587.472656 212.417969 587.039062 C 212.128906 586.601562 211.859375 586.152344 211.613281 585.6875 C 211.363281 585.226562 211.140625 584.753906 210.941406 584.269531 C 210.738281 583.785156 210.5625 583.289062 210.410156 582.789062 C 210.257812 582.285156 210.128906 581.777344 210.027344 581.261719 C 209.925781 580.75 209.847656 580.230469 209.796875 579.707031 C 209.746094 579.1875 209.71875 578.664062 209.71875 578.136719 C 209.722656 576.828125 209.753906 575.519531 209.820312 574.210938 C 209.886719 572.902344 209.984375 571.59375 210.113281 570.289062 C 210.242188 568.988281 210.402344 567.6875 210.597656 566.390625 C 210.789062 565.09375 211.015625 563.804688 211.273438 562.519531 C 211.527344 561.234375 211.816406 559.957031 212.136719 558.683594 C 212.453125 557.414062 212.804688 556.152344 213.1875 554.898438 C 213.566406 553.644531 213.976562 552.398438 214.421875 551.167969 C 214.863281 549.933594 215.335938 548.710938 215.835938 547.5 C 216.339844 546.289062 216.871094 545.09375 217.429688 543.910156 C 217.992188 542.722656 218.582031 541.554688 219.199219 540.398438 C 219.816406 539.242188 220.464844 538.105469 221.136719 536.980469 C 221.8125 535.855469 222.511719 534.75 223.242188 533.660156 C 223.96875 532.570312 224.722656 531.5 225.503906 530.449219 C 226.285156 529.394531 227.089844 528.363281 227.921875 527.347656 C 228.753906 526.335938 229.609375 525.34375 230.488281 524.375 C 231.371094 523.402344 232.273438 522.453125 233.199219 521.527344 C 234.125 520.601562 235.074219 519.699219 236.046875 518.816406 C 237.015625 517.9375 238.007812 517.082031 239.023438 516.25 C 240.035156 515.417969 241.066406 514.613281 242.121094 513.832031 C 243.171875 513.050781 244.242188 512.296875 245.332031 511.566406 C 246.421875 510.839844 247.527344 510.140625 248.652344 509.464844 C 249.777344 508.789062 250.914062 508.144531 252.070312 507.527344 C 253.226562 506.910156 254.394531 506.320312 255.582031 505.757812 C 256.765625 505.199219 257.960938 504.667969 259.171875 504.164062 C 260.382812 503.664062 261.605469 503.191406 262.839844 502.746094 C 264.074219 502.304688 265.316406 501.894531 266.570312 501.511719 C 267.824219 501.132812 269.085938 500.78125 270.355469 500.460938 C 271.628906 500.144531 272.90625 499.855469 274.191406 499.597656 C 275.476562 499.34375 276.765625 499.117188 278.0625 498.925781 C 279.359375 498.730469 280.660156 498.570312 281.960938 498.441406 C 283.265625 498.3125 284.574219 498.214844 285.882812 498.148438 C 287.191406 498.082031 288.5 498.050781 289.8125 498.046875 L 353.882812 498.046875 C 355.195312 498.050781 356.503906 498.082031 357.8125 498.148438 C 359.121094 498.214844 360.425781 498.3125 361.730469 498.441406 C 363.035156 498.570312 364.335938 498.730469 365.632812 498.925781 C 366.925781 499.117188 368.21875 499.34375 369.503906 499.597656 C 370.789062 499.855469 372.066406 500.144531 373.335938 500.460938 C 374.609375 500.78125 375.871094 501.132812 377.125 501.511719 C 378.378906 501.894531 379.621094 502.304688 380.855469 502.746094 C 382.089844 503.191406 383.308594 503.664062 384.519531 504.164062 C 385.730469 504.667969 386.929688 505.199219 388.113281 505.757812 C 389.296875 506.320312 390.46875 506.910156 391.621094 507.527344 C 392.777344 508.144531 393.917969 508.789062 395.042969 509.464844 C 396.164062 510.140625 397.273438 510.839844 398.363281 511.566406 C 399.449219 512.296875 400.523438 513.050781 401.574219 513.832031 C 402.625 514.613281 403.660156 515.417969 404.671875 516.25 C 405.683594 517.082031 406.675781 517.9375 407.648438 518.816406 C 408.617188 519.699219 409.566406 520.601562 410.492188 521.527344 C 411.421875 522.453125 412.324219 523.402344 413.203125 524.375 C 414.085938 525.34375 414.941406 526.335938 415.769531 527.347656 C 416.601562 528.363281 417.410156 529.394531 418.191406 530.445312 C 418.96875 531.5 419.726562 532.570312 420.453125 533.660156 C 421.179688 534.75 421.882812 535.855469 422.554688 536.980469 C 423.230469 538.101562 423.875 539.242188 424.496094 540.398438 C 425.113281 541.554688 425.703125 542.722656 426.261719 543.910156 C 426.824219 545.09375 427.355469 546.289062 427.855469 547.5 C 428.359375 548.710938 428.832031 549.933594 429.273438 551.167969 C 429.714844 552.398438 430.128906 553.644531 430.507812 554.898438 C 430.890625 556.152344 431.238281 557.414062 431.558594 558.683594 C 431.878906 559.957031 432.164062 561.234375 432.421875 562.519531 C 432.679688 563.804688 432.902344 565.09375 433.097656 566.390625 C 433.289062 567.6875 433.453125 568.988281 433.582031 570.289062 C 433.710938 571.59375 433.808594 572.902344 433.875 574.210938 C 433.9375 575.519531 433.972656 576.828125 433.972656 578.136719 Z M 690.261719 401.9375 C 690.261719 402.464844 690.238281 402.988281 690.1875 403.511719 C 690.136719 404.03125 690.058594 404.550781 689.957031 405.066406 C 689.855469 405.578125 689.726562 406.089844 689.574219 406.589844 C 689.421875 407.09375 689.246094 407.585938 689.046875 408.070312 C 688.84375 408.554688 688.621094 409.03125 688.375 409.492188 C 688.128906 409.953125 687.859375 410.40625 687.566406 410.839844 C 687.273438 411.277344 686.960938 411.699219 686.628906 412.105469 C 686.296875 412.507812 685.945312 412.898438 685.574219 413.269531 C 685.203125 413.640625 684.816406 413.992188 684.410156 414.324219 C 684.003906 414.65625 683.582031 414.96875 683.144531 415.261719 C 682.710938 415.550781 682.261719 415.820312 681.796875 416.070312 C 681.335938 416.316406 680.859375 416.539062 680.375 416.742188 C 679.890625 416.941406 679.398438 417.117188 678.894531 417.269531 C 678.394531 417.421875 677.886719 417.550781 677.371094 417.652344 C 676.855469 417.753906 676.335938 417.828125 675.816406 417.882812 C 675.292969 417.933594 674.769531 417.957031 674.246094 417.957031 L 546.101562 417.957031 C 545.574219 417.957031 545.050781 417.933594 544.53125 417.878906 C 544.007812 417.828125 543.488281 417.753906 542.976562 417.648438 C 542.460938 417.546875 541.953125 417.421875 541.449219 417.269531 C 540.949219 417.117188 540.453125 416.9375 539.96875 416.738281 C 539.484375 416.539062 539.011719 416.3125 538.550781 416.066406 C 538.085938 415.820312 537.636719 415.550781 537.199219 415.257812 C 536.765625 414.964844 536.34375 414.65625 535.9375 414.320312 C 535.53125 413.988281 535.144531 413.636719 534.773438 413.265625 C 534.402344 412.894531 534.050781 412.507812 533.71875 412.101562 C 533.386719 411.695312 533.074219 411.273438 532.78125 410.839844 C 532.488281 410.402344 532.21875 409.953125 531.972656 409.492188 C 531.726562 409.027344 531.503906 408.554688 531.300781 408.070312 C 531.101562 407.585938 530.925781 407.089844 530.773438 406.589844 C 530.621094 406.085938 530.492188 405.578125 530.390625 405.0625 C 530.289062 404.550781 530.210938 404.03125 530.160156 403.507812 C 530.109375 402.988281 530.082031 402.464844 530.082031 401.9375 C 530.082031 401.414062 530.109375 400.890625 530.160156 400.371094 C 530.210938 399.847656 530.289062 399.328125 530.390625 398.8125 C 530.492188 398.300781 530.621094 397.792969 530.773438 397.289062 C 530.925781 396.789062 531.101562 396.292969 531.300781 395.808594 C 531.503906 395.324219 531.726562 394.851562 531.972656 394.386719 C 532.21875 393.925781 532.488281 393.476562 532.78125 393.039062 C 533.074219 392.605469 533.386719 392.183594 533.71875 391.777344 C 534.050781 391.371094 534.402344 390.984375 534.773438 390.613281 C 535.144531 390.242188 535.53125 389.890625 535.9375 389.558594 C 536.34375 389.222656 536.765625 388.914062 537.199219 388.621094 C 537.636719 388.328125 538.085938 388.058594 538.550781 387.8125 C 539.011719 387.566406 539.484375 387.339844 539.96875 387.140625 C 540.453125 386.941406 540.949219 386.761719 541.449219 386.609375 C 541.953125 386.457031 542.460938 386.332031 542.976562 386.230469 C 543.488281 386.125 544.007812 386.050781 544.53125 386 C 545.050781 385.945312 545.574219 385.921875 546.101562 385.921875 L 674.246094 385.921875 C 674.769531 385.921875 675.292969 385.945312 675.816406 385.996094 C 676.335938 386.046875 676.855469 386.125 677.371094 386.226562 C 677.886719 386.328125 678.394531 386.457031 678.894531 386.609375 C 679.398438 386.761719 679.890625 386.9375 680.375 387.136719 C 680.859375 387.339844 681.335938 387.5625 681.796875 387.808594 C 682.261719 388.058594 682.710938 388.328125 683.144531 388.617188 C 683.582031 388.910156 684.003906 389.222656 684.410156 389.554688 C 684.816406 389.886719 685.203125 390.238281 685.574219 390.609375 C 685.945312 390.980469 686.296875 391.371094 686.628906 391.773438 C 686.960938 392.179688 687.273438 392.601562 687.566406 393.039062 C 687.859375 393.472656 688.128906 393.925781 688.375 394.386719 C 688.621094 394.847656 688.84375 395.324219 689.046875 395.808594 C 689.246094 396.292969 689.421875 396.785156 689.574219 397.289062 C 689.726562 397.789062 689.855469 398.300781 689.957031 398.8125 C 690.058594 399.328125 690.136719 399.847656 690.1875 400.367188 C 690.238281 400.890625 690.261719 401.414062 690.261719 401.9375 Z M 626.191406 498.046875 C 626.191406 498.574219 626.164062 499.097656 626.113281 499.617188 C 626.0625 500.140625 625.984375 500.660156 625.882812 501.171875 C 625.78125 501.6875 625.65625 502.195312 625.503906 502.699219 C 625.351562 503.199219 625.175781 503.695312 624.972656 504.179688 C 624.773438 504.664062 624.550781 505.136719 624.300781 505.601562 C 624.054688 506.0625 623.785156 506.511719 623.492188 506.949219 C 623.203125 507.386719 622.890625 507.804688 622.558594 508.210938 C 622.222656 508.617188 621.871094 509.007812 621.5 509.378906 C 621.128906 509.75 620.742188 510.101562 620.335938 510.433594 C 619.929688 510.765625 619.511719 511.078125 619.074219 511.371094 C 618.636719 511.660156 618.1875 511.929688 617.726562 512.175781 C 617.261719 512.425781 616.789062 512.648438 616.304688 512.847656 C 615.820312 513.050781 615.324219 513.226562 614.824219 513.378906 C 614.320312 513.53125 613.8125 513.65625 613.296875 513.757812 C 612.785156 513.863281 612.265625 513.9375 611.742188 513.988281 C 611.21875 514.039062 610.695312 514.066406 610.171875 514.066406 L 546.101562 514.066406 C 545.574219 514.066406 545.050781 514.039062 544.53125 513.988281 C 544.007812 513.9375 543.488281 513.859375 542.976562 513.757812 C 542.460938 513.65625 541.953125 513.527344 541.449219 513.375 C 540.949219 513.222656 540.453125 513.046875 539.96875 512.847656 C 539.484375 512.644531 539.011719 512.421875 538.550781 512.175781 C 538.085938 511.925781 537.636719 511.65625 537.199219 511.367188 C 536.765625 511.074219 536.34375 510.761719 535.9375 510.429688 C 535.53125 510.097656 535.144531 509.746094 534.773438 509.375 C 534.402344 509.003906 534.050781 508.613281 533.71875 508.210938 C 533.386719 507.804688 533.074219 507.382812 532.78125 506.945312 C 532.488281 506.511719 532.21875 506.0625 531.972656 505.597656 C 531.726562 505.136719 531.503906 504.664062 531.300781 504.175781 C 531.101562 503.691406 530.925781 503.199219 530.773438 502.699219 C 530.621094 502.195312 530.492188 501.6875 530.390625 501.171875 C 530.289062 500.660156 530.210938 500.140625 530.160156 499.617188 C 530.109375 499.097656 530.082031 498.574219 530.082031 498.046875 C 530.082031 497.523438 530.109375 497 530.160156 496.476562 C 530.210938 495.957031 530.289062 495.4375 530.390625 494.921875 C 530.492188 494.410156 530.621094 493.898438 530.773438 493.398438 C 530.925781 492.894531 531.101562 492.402344 531.300781 491.917969 C 531.503906 491.433594 531.726562 490.960938 531.972656 490.496094 C 532.21875 490.035156 532.488281 489.585938 532.78125 489.148438 C 533.074219 488.710938 533.386719 488.292969 533.71875 487.886719 C 534.050781 487.480469 534.402344 487.09375 534.773438 486.722656 C 535.144531 486.351562 535.53125 486 535.9375 485.664062 C 536.34375 485.332031 536.765625 485.019531 537.199219 484.730469 C 537.636719 484.4375 538.085938 484.167969 538.550781 483.921875 C 539.011719 483.675781 539.484375 483.449219 539.96875 483.25 C 540.453125 483.046875 540.949219 482.871094 541.449219 482.71875 C 541.953125 482.566406 542.460938 482.441406 542.976562 482.335938 C 543.488281 482.234375 544.007812 482.160156 544.53125 482.105469 C 545.050781 482.054688 545.574219 482.03125 546.101562 482.03125 L 610.171875 482.03125 C 610.695312 482.03125 611.21875 482.054688 611.742188 482.105469 C 612.265625 482.15625 612.785156 482.234375 613.296875 482.335938 C 613.8125 482.4375 614.320312 482.566406 614.824219 482.71875 C 615.324219 482.871094 615.820312 483.046875 616.304688 483.246094 C 616.789062 483.445312 617.261719 483.671875 617.726562 483.917969 C 618.1875 484.164062 618.636719 484.433594 619.074219 484.726562 C 619.511719 485.019531 619.929688 485.328125 620.335938 485.664062 C 620.742188 485.996094 621.128906 486.347656 621.5 486.71875 C 621.871094 487.089844 622.222656 487.476562 622.558594 487.882812 C 622.890625 488.289062 623.203125 488.710938 623.492188 489.148438 C 623.785156 489.582031 624.054688 490.03125 624.300781 490.496094 C 624.550781 490.957031 624.773438 491.433594 624.972656 491.917969 C 625.175781 492.402344 625.351562 492.894531 625.503906 493.398438 C 625.65625 493.898438 625.78125 494.40625 625.882812 494.921875 C 625.988281 495.4375 626.0625 495.957031 626.113281 496.476562 C 626.164062 497 626.191406 497.523438 626.191406 498.046875 Z M 626.191406 498.046875 "/></g><path style=" stroke:none;fill-rule:nonzero;fill:#113c7b;fill-opacity:1;" d="M 449.921875 899.933594 C 201.800781 899.933594 -0.0703125 698.058594 -0.0703125 449.941406 C -0.0703125 201.820312 201.800781 -0.0703125 449.921875 -0.0703125 C 698.042969 -0.0703125 899.914062 201.800781 899.914062 449.921875 C 899.914062 698.042969 698.042969 899.914062 449.921875 899.914062 Z M 449.921875 42.789062 C 225.425781 42.789062 42.769531 225.441406 42.769531 449.941406 C 42.769531 674.4375 225.425781 857.089844 449.921875 857.089844 C 674.417969 857.089844 857.074219 674.4375 857.074219 449.9375 C 857.074219 225.441406 674.417969 42.789062 449.921875 42.789062 Z M 449.921875 42.789062 "/><path style=" stroke:none;fill-rule:nonzero;fill:#113c7b;fill-opacity:1;" d="M 131.722656 737.820312 L 737.828125 131.714844 L 768.132812 162.023438 L 162.03125 768.128906 Z M 131.722656 737.820312 "/></g></g></g></svg>