<svg xmlns="http://www.w3.org/2000/svg" xmlns:xlink="http://www.w3.org/1999/xlink" width="1200" zoomAndPan="magnify" viewBox="0 0 900 899.99999" height="1200" preserveAspectRatio="xMidYMid meet" version="1.2"><defs><clipPath id="775a477292"><path d="M 188 322 L 748 322 L 748 895.5 L 188 895.5 Z M 188 322 "/></clipPath><clipPath id="aaecb9c01c"><path d="M 168 592 L 453 592 L 453 895.5 L 168 895.5 Z M 168 592 "/></clipPath></defs><g id="9ecb69511f"><path style=" stroke:none;fill-rule:nonzero;fill:#113c7b;fill-opacity:1;" d="M 641.972656 491.445312 C 612.347656 491.445312 588.230469 467.332031 588.230469 437.703125 C 588.230469 423.3125 593.820312 409.820312 603.992188 399.691406 L 606.246094 397.441406 L 627.964844 419.160156 L 625.699219 421.429688 C 621.355469 425.773438 618.941406 431.554688 618.941406 437.71875 C 618.941406 450.417969 629.277344 460.75 641.972656 460.75 C 648.136719 460.75 653.902344 458.355469 658.246094 454.011719 L 704.339844 407.917969 C 708.683594 403.574219 711.09375 397.777344 711.09375 391.628906 C 711.09375 378.929688 700.761719 368.597656 688.066406 368.597656 C 683.511719 368.597656 679.121094 369.921875 675.382812 372.414062 L 658.375 346.828125 C 667.175781 340.984375 677.445312 337.886719 688.066406 337.886719 C 717.691406 337.886719 741.808594 362 741.808594 391.628906 C 741.808594 405.984375 736.21875 419.480469 726.0625 429.621094 L 679.984375 475.699219 C 669.859375 485.855469 656.363281 491.445312 641.988281 491.445312 Z M 641.972656 491.445312 "/><path style=" stroke:none;fill-rule:nonzero;fill:#113c7b;fill-opacity:1;" d="M 400.042969 287.144531 L 358.261719 245.347656 C 348.105469 235.222656 342.515625 221.726562 342.515625 207.351562 C 342.515625 177.726562 366.628906 153.609375 396.257812 153.609375 C 410.648438 153.609375 424.144531 159.199219 434.269531 169.375 L 483.890625 218.996094 L 462.171875 240.714844 L 412.53125 191.078125 C 408.1875 186.734375 402.40625 184.324219 396.242188 184.324219 C 383.542969 184.324219 373.210938 194.65625 373.210938 207.351562 C 373.210938 213.519531 375.605469 219.285156 379.949219 223.628906 L 421.746094 265.441406 L 400.027344 287.160156 Z M 400.042969 287.144531 "/><g clip-rule="nonzero" clip-path="url(#775a477292)"><path style=" stroke:none;fill-rule:nonzero;fill:#113c7b;fill-opacity:1;" d="M 722.691406 895.5625 L 519.21875 629.660156 L 502.800781 629.660156 C 449.472656 629.660156 399.355469 608.898438 361.648438 571.207031 L 204.699219 414.273438 C 194.542969 404.148438 188.953125 390.652344 188.953125 376.28125 C 188.953125 346.652344 213.070312 322.535156 242.695312 322.535156 C 253.636719 322.535156 263.648438 325.570312 272.480469 331.527344 L 255.265625 356.96875 C 251.558594 354.460938 247.453125 353.25 242.695312 353.25 C 229.996094 353.25 219.664062 363.582031 219.664062 376.28125 C 219.664062 382.445312 222.058594 388.210938 226.40625 392.554688 L 383.367188 549.5 C 415.261719 581.394531 457.683594 598.964844 502.800781 598.964844 L 534.390625 598.964844 L 747.078125 876.925781 L 722.691406 895.578125 Z M 722.691406 895.5625 "/></g><path style=" stroke:none;fill-rule:nonzero;fill:#113c7b;fill-opacity:1;" d="M -0.0234375 688.765625 L 260.03125 447.105469 L 280.9375 469.601562 L 20.882812 711.261719 Z M -0.0234375 688.765625 "/><g clip-rule="nonzero" clip-path="url(#aaecb9c01c)"><path style=" stroke:none;fill-rule:nonzero;fill:#113c7b;fill-opacity:1;" d="M 194.207031 895.164062 L 168.796875 877.914062 L 347.625 614.296875 L 363.546875 614.296875 C 386.066406 614.296875 417.082031 604.746094 435.707031 592.066406 L 452.988281 617.476562 C 429.636719 633.351562 392.25 644.914062 363.914062 645.007812 Z M 194.207031 895.164062 "/></g><path style=" stroke:none;fill-rule:nonzero;fill:#113c7b;fill-opacity:1;" d="M 879.160156 726.460938 L 689.871094 551.707031 C 674.089844 537.234375 665.019531 516.601562 665.019531 495.136719 L 665.019531 453.59375 L 695.730469 453.59375 L 695.730469 495.136719 C 695.730469 508.023438 701.175781 520.402344 710.664062 529.105469 L 900 703.910156 Z M 879.160156 726.460938 "/><path style=" stroke:none;fill-rule:nonzero;fill:#113c7b;fill-opacity:1;" d="M 754.113281 222.511719 L 838.777344 180.28125 L 852.480469 207.75 L 767.816406 249.980469 Z M 754.113281 222.511719 "/><path style=" stroke:none;fill-rule:nonzero;fill:#113c7b;fill-opacity:1;" d="M 629.449219 94.964844 L 674.476562 26.707031 L 700.125 43.625 L 655.101562 111.886719 Z M 629.449219 94.964844 "/><path style=" stroke:none;fill-rule:nonzero;fill:#113c7b;fill-opacity:1;" d="M 47.566406 207.683594 L 61.269531 180.214844 L 145.933594 222.445312 L 132.230469 249.914062 Z M 47.566406 207.683594 "/><path style=" stroke:none;fill-rule:nonzero;fill:#113c7b;fill-opacity:1;" d="M 199.886719 43.628906 L 225.53125 26.703125 L 270.582031 94.945312 L 244.9375 111.875 Z M 199.886719 43.628906 "/><path style=" stroke:none;fill-rule:nonzero;fill:#113c7b;fill-opacity:1;" d="M 434.667969 0.03125 L 465.378906 0.03125 L 465.378906 76.820312 L 434.667969 76.820312 Z M 434.667969 0.03125 "/><path style=" stroke:none;fill-rule:nonzero;fill:#113c7b;fill-opacity:1;" d="M 307.394531 409.46875 L 250.761719 352.832031 C 240.601562 342.707031 235.011719 329.210938 235.011719 314.839844 C 235.011719 285.210938 259.128906 261.097656 288.753906 261.097656 C 299.375 261.097656 309.644531 264.179688 318.445312 270.039062 L 301.4375 295.625 C 297.683594 293.132812 293.308594 291.808594 288.753906 291.808594 C 276.058594 291.808594 265.726562 302.140625 265.726562 314.839844 C 265.726562 321.003906 268.121094 326.769531 272.464844 331.113281 L 329.113281 387.761719 L 307.394531 409.484375 Z M 307.394531 409.46875 "/><path style=" stroke:none;fill-rule:nonzero;fill:#113c7b;fill-opacity:1;" d="M 353.804688 348.394531 L 296.835938 291.425781 C 286.679688 281.300781 281.089844 267.804688 281.089844 253.429688 C 281.089844 223.804688 305.207031 199.6875 334.832031 199.6875 C 349.941406 199.6875 363.738281 205.691406 374.746094 217.03125 L 352.703125 238.417969 C 347.464844 233.019531 341.636719 230.398438 334.847656 230.398438 C 322.152344 230.398438 311.816406 240.734375 311.816406 253.429688 C 311.816406 259.59375 314.214844 265.359375 318.558594 269.703125 L 375.542969 326.6875 L 353.820312 348.410156 Z M 353.804688 348.394531 "/><path style=" stroke:none;fill-rule:nonzero;fill:#113c7b;fill-opacity:1;" d="M 488.410156 322.519531 C 458.785156 322.519531 434.667969 298.402344 434.667969 268.777344 C 434.667969 254.417969 440.257812 240.925781 450.414062 230.78125 L 511.839844 169.359375 C 521.964844 159.199219 535.460938 153.609375 549.835938 153.609375 C 579.460938 153.609375 603.578125 177.726562 603.578125 207.351562 C 603.578125 221.742188 597.988281 235.238281 587.816406 245.363281 L 526.40625 306.773438 C 516.25 316.929688 502.753906 322.519531 488.410156 322.519531 Z M 549.835938 184.304688 C 543.671875 184.304688 537.90625 186.703125 533.5625 191.046875 L 472.121094 252.488281 C 467.777344 256.832031 465.363281 262.628906 465.363281 268.777344 C 465.363281 281.476562 475.699219 291.808594 488.394531 291.808594 C 494.542969 291.808594 500.324219 289.414062 504.683594 285.050781 L 566.109375 223.628906 C 570.453125 219.285156 572.867188 213.5 572.867188 207.335938 C 572.867188 194.640625 562.53125 184.304688 549.835938 184.304688 Z M 549.835938 184.304688 "/><path style=" stroke:none;fill-rule:nonzero;fill:#113c7b;fill-opacity:1;" d="M 549.835938 368.582031 C 520.210938 368.582031 496.09375 344.464844 496.09375 314.839844 C 496.09375 304.203125 499.191406 293.917969 505.070312 285.066406 L 530.652344 302.078125 C 528.128906 305.878906 526.804688 310.285156 526.804688 314.839844 C 526.804688 327.535156 537.136719 337.867188 549.835938 337.867188 C 556 337.867188 561.765625 335.472656 566.109375 331.128906 L 627.550781 269.6875 C 631.894531 265.34375 634.304688 259.546875 634.304688 253.398438 C 634.304688 240.699219 623.972656 230.367188 611.277344 230.367188 C 605.128906 230.367188 599.347656 232.761719 594.984375 237.125 L 592.652344 239.453125 L 570.933594 217.734375 L 573.265625 215.402344 C 583.421875 205.246094 596.917969 199.65625 611.261719 199.65625 C 640.886719 199.65625 665.003906 223.769531 665.003906 253.398438 C 665.003906 267.753906 659.414062 281.25 649.253906 291.394531 L 587.832031 352.816406 C 577.703125 362.976562 564.210938 368.566406 549.835938 368.566406 Z M 549.835938 368.582031 "/><path style=" stroke:none;fill-rule:nonzero;fill:#113c7b;fill-opacity:1;" d="M 595.910156 430.023438 C 566.285156 430.023438 542.167969 405.90625 542.167969 376.28125 C 542.167969 361.890625 547.757812 348.394531 557.933594 338.269531 L 560.183594 336.015625 L 581.90625 357.738281 L 579.636719 360.003906 C 575.292969 364.347656 572.882812 370.128906 572.882812 376.296875 C 572.882812 388.992188 583.214844 399.324219 595.910156 399.324219 C 602.078125 399.324219 607.84375 396.929688 612.1875 392.585938 L 673.628906 331.144531 C 677.972656 326.800781 680.382812 321.003906 680.382812 314.855469 C 680.382812 302.15625 670.050781 291.824219 657.351562 291.824219 C 652.800781 291.824219 648.394531 293.148438 644.625 295.640625 L 627.679688 270.023438 C 636.496094 264.195312 646.765625 261.097656 657.351562 261.097656 C 686.980469 261.097656 711.09375 285.210938 711.09375 314.839844 C 711.09375 329.195312 705.503906 342.691406 695.347656 352.832031 L 633.921875 414.257812 C 623.796875 424.417969 610.300781 430.007812 595.929688 430.007812 Z M 595.910156 430.023438 "/></g></svg>