<svg xmlns="http://www.w3.org/2000/svg" xmlns:xlink="http://www.w3.org/1999/xlink" width="1200" zoomAndPan="magnify" viewBox="0 0 900 899.99999" height="1200" preserveAspectRatio="xMidYMid meet" version="1.2"><defs><clipPath id="eedac3ef86"><path d="M 215.515625 249 L 684.265625 249 L 684.265625 651 L 215.515625 651 Z M 215.515625 249 "/></clipPath></defs><g id="38e8896e39"><g clip-rule="nonzero" clip-path="url(#eedac3ef86)"><path style=" stroke:none;fill-rule:nonzero;fill:#113c7b;fill-opacity:1;" d="M 678.023438 612.054688 L 655.792969 612.054688 L 655.792969 389.765625 C 655.792969 386.179688 652.925781 383.3125 649.339844 383.3125 L 548.234375 383.3125 L 548.234375 290.808594 L 559.707031 290.808594 C 563.292969 290.808594 566.160156 287.941406 566.160156 284.355469 L 566.160156 256.390625 C 566.160156 252.804688 563.292969 249.9375 559.707031 249.9375 L 340.285156 249.9375 C 336.699219 249.9375 333.832031 252.804688 333.832031 256.390625 L 333.832031 284.355469 C 333.832031 287.941406 336.699219 290.808594 340.285156 290.808594 L 351.757812 290.808594 L 351.757812 383.3125 L 250.652344 383.3125 C 247.066406 383.3125 244.199219 386.179688 244.199219 389.765625 L 244.199219 612.054688 L 221.96875 612.054688 C 218.382812 612.054688 215.515625 614.925781 215.515625 618.507812 L 215.515625 643.605469 C 215.515625 647.191406 218.382812 650.058594 221.96875 650.058594 L 678.023438 650.058594 C 681.605469 650.058594 684.476562 647.191406 684.476562 643.605469 L 684.476562 618.507812 C 684.476562 614.925781 681.605469 612.054688 678.023438 612.054688 Z M 642.886719 396.21875 L 642.886719 612.054688 L 548.234375 612.054688 L 548.234375 396.21875 Z M 346.738281 262.84375 L 553.96875 262.84375 L 553.96875 278.621094 L 346.738281 278.621094 Z M 536.042969 290.808594 L 536.042969 611.339844 L 495.886719 611.339844 L 495.886719 505.210938 C 495.886719 480.117188 475.808594 460.039062 450.710938 460.039062 C 425.613281 460.039062 405.539062 480.117188 405.539062 505.210938 L 405.539062 612.054688 L 365.382812 612.054688 L 365.382812 290.808594 Z M 482.980469 612.054688 L 417.726562 612.054688 L 417.726562 505.210938 C 417.726562 487.285156 432.070312 472.226562 450.710938 472.226562 C 468.640625 472.226562 483.695312 486.570312 483.695312 505.210938 L 483.695312 612.054688 Z M 257.105469 396.21875 L 351.757812 396.21875 L 351.757812 612.054688 L 257.105469 612.054688 Z M 671.570312 637.152344 L 228.421875 637.152344 L 228.421875 624.960938 L 672.285156 624.960938 L 672.285156 637.152344 Z M 671.570312 637.152344 "/></g><path style=" stroke:none;fill-rule:nonzero;fill:#113c7b;fill-opacity:1;" d="M 405.535156 419.164062 L 490.152344 419.164062 C 493.734375 419.164062 496.605469 416.296875 496.605469 412.710938 L 496.605469 328.097656 C 496.605469 324.511719 493.734375 321.644531 490.152344 321.644531 L 405.535156 321.644531 C 401.953125 321.644531 399.082031 324.511719 399.082031 328.097656 L 399.082031 412.710938 C 399.082031 416.296875 401.953125 419.164062 405.535156 419.164062 Z M 411.992188 376.859375 L 441.390625 376.859375 L 441.390625 406.257812 L 411.992188 406.257812 Z M 454.296875 406.257812 L 454.296875 376.859375 L 483.695312 376.859375 L 483.695312 406.257812 Z M 483.695312 363.949219 L 454.296875 363.949219 L 454.296875 334.550781 L 483.695312 334.550781 Z M 441.390625 334.550781 L 441.390625 363.949219 L 411.992188 363.949219 L 411.992188 334.550781 Z M 441.390625 334.550781 "/><path style=" stroke:none;fill-rule:nonzero;fill:#113c7b;fill-opacity:1;" d="M 328.09375 429.203125 L 279.332031 429.203125 C 275.75 429.203125 272.878906 432.070312 272.878906 435.65625 L 272.878906 484.417969 C 272.878906 488.003906 275.75 490.871094 279.332031 490.871094 L 328.09375 490.871094 C 331.679688 490.871094 334.546875 488.003906 334.546875 484.417969 L 334.546875 435.65625 C 334.546875 432.070312 331.679688 429.203125 328.09375 429.203125 Z M 321.640625 477.964844 L 285.789062 477.964844 L 285.789062 442.109375 L 321.640625 442.109375 Z M 321.640625 477.964844 "/><path style=" stroke:none;fill-rule:nonzero;fill:#113c7b;fill-opacity:1;" d="M 328.09375 511.667969 L 279.332031 511.667969 C 275.75 511.667969 272.878906 514.535156 272.878906 518.121094 L 272.878906 566.878906 C 272.878906 570.464844 275.75 573.335938 279.332031 573.335938 L 328.09375 573.335938 C 331.679688 573.335938 334.546875 570.464844 334.546875 566.878906 L 334.546875 518.121094 C 334.546875 514.535156 331.679688 511.667969 328.09375 511.667969 Z M 321.640625 560.425781 L 285.789062 560.425781 L 285.789062 524.574219 L 321.640625 524.574219 Z M 321.640625 560.425781 "/><path style=" stroke:none;fill-rule:nonzero;fill:#113c7b;fill-opacity:1;" d="M 571.179688 490.15625 L 619.941406 490.15625 C 623.523438 490.15625 626.394531 487.285156 626.394531 483.699219 L 626.394531 434.941406 C 626.394531 431.355469 623.523438 428.488281 619.941406 428.488281 L 571.179688 428.488281 C 567.59375 428.488281 564.726562 431.355469 564.726562 434.941406 L 564.726562 483.699219 C 565.441406 488.003906 567.59375 490.15625 571.179688 490.15625 Z M 577.632812 442.109375 L 613.484375 442.109375 L 613.484375 477.964844 L 577.632812 477.964844 Z M 577.632812 442.109375 "/><path style=" stroke:none;fill-rule:nonzero;fill:#113c7b;fill-opacity:1;" d="M 571.179688 572.617188 L 619.941406 572.617188 C 623.523438 572.617188 626.394531 569.75 626.394531 566.164062 L 626.394531 518.121094 C 626.394531 514.535156 623.523438 511.667969 619.941406 511.667969 L 571.179688 511.667969 C 567.59375 511.667969 564.726562 514.535156 564.726562 518.121094 L 564.726562 566.878906 C 565.441406 570.464844 567.59375 572.617188 571.179688 572.617188 Z M 577.632812 524.574219 L 613.484375 524.574219 L 613.484375 560.425781 L 577.632812 560.425781 Z M 577.632812 524.574219 "/></g></svg>