<svg xmlns="http://www.w3.org/2000/svg" xmlns:xlink="http://www.w3.org/1999/xlink" width="1200" zoomAndPan="magnify" viewBox="0 0 900 899.99999" height="1200" preserveAspectRatio="xMidYMid meet" version="1.2"><defs><clipPath id="684eaa8051"><path d="M 1 103.394531 L 719 103.394531 L 719 427 L 1 427 Z M 1 103.394531 "/></clipPath><clipPath id="41e2a5fbbc"><path d="M 342 103.394531 L 379 103.394531 L 379 140 L 342 140 Z M 342 103.394531 "/></clipPath></defs><g id="d51aea2ede"><path style=" stroke:none;fill-rule:nonzero;fill:#113c7b;fill-opacity:1;" d="M 194.492188 318.757812 C 204.394531 318.757812 212.425781 310.730469 212.425781 300.828125 L 212.425781 193.246094 C 212.425781 183.34375 204.394531 175.316406 194.492188 175.316406 C 184.589844 175.316406 176.5625 183.34375 176.5625 193.246094 L 176.5625 229.105469 L 140.703125 229.105469 L 140.703125 193.246094 C 140.703125 183.34375 132.675781 175.316406 122.773438 175.316406 C 112.871094 175.316406 104.84375 183.34375 104.84375 193.246094 L 104.84375 300.828125 C 104.84375 310.730469 112.871094 318.757812 122.773438 318.757812 C 132.675781 318.757812 140.703125 310.730469 140.703125 300.828125 L 140.703125 264.96875 L 176.5625 264.96875 L 176.5625 300.828125 C 176.5625 310.730469 184.589844 318.757812 194.492188 318.757812 Z M 194.492188 318.757812 "/><path style=" stroke:none;fill-rule:nonzero;fill:#113c7b;fill-opacity:1;" d="M 239.320312 229.105469 L 239.320312 264.96875 C 239.320312 294.628906 263.449219 318.757812 293.109375 318.757812 C 322.773438 318.757812 346.902344 294.628906 346.902344 264.96875 L 346.902344 229.105469 C 346.902344 199.445312 322.773438 175.316406 293.109375 175.316406 C 263.449219 175.316406 239.320312 199.445312 239.320312 229.105469 Z M 311.039062 229.105469 L 311.039062 264.96875 C 311.039062 274.851562 302.996094 282.898438 293.109375 282.898438 C 283.226562 282.898438 275.179688 274.851562 275.179688 264.96875 L 275.179688 229.105469 C 275.179688 219.222656 283.226562 211.175781 293.109375 211.175781 C 302.996094 211.175781 311.039062 219.222656 311.039062 229.105469 Z M 311.039062 229.105469 "/><path style=" stroke:none;fill-rule:nonzero;fill:#113c7b;fill-opacity:1;" d="M 373.796875 300.828125 C 373.796875 310.730469 381.824219 318.757812 391.726562 318.757812 L 445.515625 318.757812 C 455.417969 318.757812 463.449219 310.730469 463.449219 300.828125 C 463.449219 290.925781 455.417969 282.898438 445.515625 282.898438 L 409.65625 282.898438 L 409.65625 193.246094 C 409.65625 183.34375 401.628906 175.316406 391.726562 175.316406 C 381.824219 175.316406 373.796875 183.34375 373.796875 193.246094 Z M 373.796875 300.828125 "/><path style=" stroke:none;fill-rule:nonzero;fill:#113c7b;fill-opacity:1;" d="M 337.9375 569.78125 C 328.035156 569.78125 320.003906 577.8125 320.003906 587.710938 L 320.003906 623.574219 L 284.144531 623.574219 L 284.144531 587.710938 C 284.144531 577.8125 276.117188 569.78125 266.214844 569.78125 C 256.3125 569.78125 248.285156 577.8125 248.285156 587.710938 L 248.285156 695.292969 C 248.285156 705.195312 256.3125 713.226562 266.214844 713.226562 C 276.117188 713.226562 284.144531 705.195312 284.144531 695.292969 L 284.144531 659.433594 L 320.003906 659.433594 L 320.003906 695.292969 C 320.003906 705.195312 328.035156 713.226562 337.9375 713.226562 C 347.835938 713.226562 355.867188 705.195312 355.867188 695.292969 L 355.867188 587.710938 C 355.867188 577.8125 347.835938 569.78125 337.9375 569.78125 Z M 337.9375 569.78125 "/><path style=" stroke:none;fill-rule:nonzero;fill:#113c7b;fill-opacity:1;" d="M 571.03125 677.363281 L 535.167969 677.363281 L 535.167969 587.710938 C 535.167969 577.8125 527.148438 569.78125 517.238281 569.78125 C 507.328125 569.78125 499.308594 577.8125 499.308594 587.710938 L 499.308594 695.292969 C 499.308594 705.195312 507.328125 713.226562 517.238281 713.226562 L 571.03125 713.226562 C 580.941406 713.226562 588.960938 705.195312 588.960938 695.292969 C 588.960938 685.390625 580.941406 677.363281 571.03125 677.363281 Z M 571.03125 677.363281 "/><path style=" stroke:none;fill-rule:nonzero;fill:#113c7b;fill-opacity:1;" d="M 777.226562 569.78125 C 747.566406 569.78125 723.4375 593.910156 723.4375 623.574219 L 723.4375 659.433594 C 723.4375 689.097656 747.566406 713.226562 777.226562 713.226562 C 806.890625 713.226562 831.019531 689.097656 831.019531 659.433594 L 831.019531 623.574219 C 831.019531 593.910156 806.890625 569.78125 777.226562 569.78125 Z M 795.15625 659.433594 C 795.15625 669.316406 787.121094 677.363281 777.226562 677.363281 C 767.335938 677.363281 759.296875 669.316406 759.296875 659.433594 L 759.296875 623.574219 C 759.296875 613.6875 767.335938 605.644531 777.226562 605.644531 C 787.121094 605.644531 795.15625 613.6875 795.15625 623.574219 Z M 795.15625 659.433594 "/><path style=" stroke:none;fill-rule:nonzero;fill:#113c7b;fill-opacity:1;" d="M 687.574219 677.363281 L 651.714844 677.363281 L 651.714844 587.710938 C 651.714844 577.8125 643.695312 569.78125 633.785156 569.78125 C 623.875 569.78125 615.855469 577.8125 615.855469 587.710938 L 615.855469 695.292969 C 615.855469 705.195312 623.875 713.226562 633.785156 713.226562 L 687.574219 713.226562 C 697.488281 713.226562 705.507812 705.195312 705.507812 695.292969 C 705.507812 685.390625 697.488281 677.363281 687.574219 677.363281 Z M 687.574219 677.363281 "/><path style=" stroke:none;fill-rule:nonzero;fill:#113c7b;fill-opacity:1;" d="M 524.820312 307.726562 L 527.695312 300.828125 L 578.503906 300.828125 C 578.503906 300.828125 581.378906 307.726562 581.378906 307.726562 C 585.183594 316.84375 595.734375 321.160156 604.824219 317.375 C 613.964844 313.566406 618.289062 303.070312 614.472656 293.929688 L 569.644531 186.347656 C 566.863281 179.667969 560.332031 175.316406 553.097656 175.316406 C 545.867188 175.316406 539.335938 179.667969 536.550781 186.347656 L 491.726562 293.929688 C 487.910156 303.070312 492.234375 313.566406 501.375 317.375 C 510.515625 321.203125 521.003906 316.875 524.820312 307.726562 Z M 553.097656 239.867188 L 563.558594 264.96875 L 542.640625 264.96875 Z M 553.097656 239.867188 "/><path style=" stroke:none;fill-rule:nonzero;fill:#113c7b;fill-opacity:1;" d="M 454.484375 605.644531 C 464.382812 605.644531 472.414062 597.613281 472.414062 587.710938 C 472.414062 577.8125 464.382812 569.78125 454.484375 569.78125 L 400.691406 569.78125 C 390.789062 569.78125 382.761719 577.8125 382.761719 587.710938 L 382.761719 695.292969 C 382.761719 705.195312 390.789062 713.226562 400.691406 713.226562 L 454.484375 713.226562 C 464.382812 713.226562 472.414062 705.195312 472.414062 695.292969 C 472.414062 685.390625 464.382812 677.363281 454.484375 677.363281 L 418.621094 677.363281 L 418.621094 659.433594 L 454.484375 659.433594 C 464.382812 659.433594 472.414062 651.40625 472.414062 641.503906 C 472.414062 631.601562 464.382812 623.574219 454.484375 623.574219 L 418.621094 623.574219 L 418.621094 605.644531 Z M 454.484375 605.644531 "/><g clip-rule="nonzero" clip-path="url(#684eaa8051)"><path style=" stroke:none;fill-rule:nonzero;fill:#113c7b;fill-opacity:1;" d="M 55.535156 390.480469 L 539.964844 390.480469 C 539.964844 390.480469 571.992188 421.28125 572.042969 421.332031 C 578.972656 427.992188 590.011719 427.96875 596.910156 421.332031 L 628.988281 390.480469 L 665.164062 390.480469 C 694.824219 390.480469 718.953125 366.351562 718.953125 336.6875 L 718.953125 157.386719 C 718.953125 127.722656 694.824219 103.59375 665.164062 103.59375 L 432.070312 103.59375 C 422.167969 103.59375 414.140625 111.625 414.140625 121.527344 C 414.140625 131.425781 422.167969 139.457031 432.070312 139.457031 L 665.164062 139.457031 C 675.054688 139.457031 683.09375 147.5 683.09375 157.386719 L 683.09375 336.6875 C 683.09375 346.574219 675.054688 354.621094 665.164062 354.621094 L 621.773438 354.621094 C 617.132812 354.621094 612.6875 356.414062 609.339844 359.628906 L 584.476562 383.535156 L 559.613281 359.628906 C 556.269531 356.414062 551.820312 354.621094 547.179688 354.621094 L 55.535156 354.621094 C 45.648438 354.621094 37.605469 346.574219 37.605469 336.6875 L 37.605469 157.386719 C 37.605469 147.5 45.648438 139.457031 55.535156 139.457031 L 288.628906 139.457031 C 298.53125 139.457031 306.558594 131.425781 306.558594 121.527344 C 306.558594 111.625 298.53125 103.59375 288.628906 103.59375 L 55.535156 103.59375 C 25.871094 103.59375 1.742188 127.722656 1.742188 157.386719 L 1.742188 336.6875 C 1.742188 366.351562 25.871094 390.480469 55.535156 390.480469 Z M 55.535156 390.480469 "/></g><path style=" stroke:none;fill-rule:nonzero;fill:#113c7b;fill-opacity:1;" d="M 844.464844 498.0625 L 360.09375 498.0625 L 327.9375 467.199219 C 321.003906 460.527344 310.042969 460.527344 303.109375 467.199219 L 270.953125 498.0625 L 234.835938 498.0625 C 205.175781 498.0625 181.046875 522.191406 181.046875 551.851562 L 181.046875 731.15625 C 181.046875 760.816406 205.175781 784.945312 234.835938 784.945312 L 844.464844 784.945312 C 874.128906 784.945312 898.257812 760.816406 898.257812 731.15625 L 898.257812 551.851562 C 898.257812 522.191406 874.128906 498.0625 844.464844 498.0625 Z M 862.394531 731.15625 C 862.394531 741.039062 854.359375 749.085938 844.464844 749.085938 L 234.835938 749.085938 C 224.953125 749.085938 216.90625 741.039062 216.90625 731.15625 L 216.90625 551.851562 C 216.90625 541.96875 224.953125 533.921875 234.835938 533.921875 L 278.164062 533.921875 C 282.796875 533.921875 287.246094 532.136719 290.578125 528.921875 L 315.523438 504.988281 L 340.464844 528.921875 C 343.800781 532.136719 348.25 533.921875 352.878906 533.921875 L 844.464844 533.921875 C 854.359375 533.921875 862.394531 541.96875 862.394531 551.851562 Z M 862.394531 731.15625 "/><path style=" stroke:none;fill-rule:nonzero;fill:#113c7b;fill-opacity:1;" d="M 772.746094 264.96875 L 790.675781 264.96875 C 810.445312 264.96875 826.535156 281.050781 826.535156 300.828125 L 826.535156 400.984375 L 821.28125 395.734375 C 814.277344 388.730469 802.933594 388.730469 795.929688 395.734375 C 788.925781 402.738281 788.925781 414.082031 795.929688 421.085938 C 795.929688 421.085938 831.789062 456.949219 831.789062 456.949219 C 838.757812 463.914062 850.171875 463.917969 857.144531 456.949219 L 893.003906 421.085938 C 900.007812 414.082031 900.007812 402.738281 893.003906 395.734375 C 886 388.730469 874.652344 388.730469 867.648438 395.734375 L 862.394531 400.984375 L 862.394531 300.828125 C 862.394531 261.28125 830.230469 229.105469 790.675781 229.105469 L 772.746094 229.105469 C 762.835938 229.105469 754.816406 237.136719 754.816406 247.039062 C 754.816406 256.941406 762.835938 264.96875 772.746094 264.96875 Z M 772.746094 264.96875 "/><g clip-rule="nonzero" clip-path="url(#41e2a5fbbc)"><path style=" stroke:none;fill-rule:nonzero;fill:#113c7b;fill-opacity:1;" d="M 378.277344 121.527344 C 378.277344 122.113281 378.25 122.699219 378.191406 123.28125 C 378.136719 123.867188 378.050781 124.449219 377.933594 125.023438 C 377.820312 125.601562 377.675781 126.167969 377.507812 126.730469 C 377.335938 127.292969 377.140625 127.84375 376.914062 128.386719 C 376.6875 128.929688 376.4375 129.460938 376.160156 129.976562 C 375.886719 130.496094 375.582031 131 375.257812 131.488281 C 374.929688 131.976562 374.582031 132.445312 374.207031 132.902344 C 373.835938 133.355469 373.441406 133.789062 373.027344 134.203125 C 372.613281 134.621094 372.175781 135.011719 371.722656 135.386719 C 371.269531 135.757812 370.796875 136.109375 370.308594 136.433594 C 369.820312 136.761719 369.320312 137.0625 368.800781 137.339844 C 368.28125 137.617188 367.753906 137.867188 367.210938 138.089844 C 366.667969 138.316406 366.117188 138.511719 365.554688 138.683594 C 364.992188 138.855469 364.421875 138.996094 363.847656 139.113281 C 363.269531 139.226562 362.691406 139.3125 362.105469 139.371094 C 361.523438 139.425781 360.9375 139.457031 360.347656 139.457031 C 359.761719 139.457031 359.175781 139.425781 358.589844 139.371094 C 358.007812 139.3125 357.425781 139.226562 356.851562 139.113281 C 356.273438 138.996094 355.707031 138.855469 355.144531 138.683594 C 354.582031 138.511719 354.03125 138.316406 353.488281 138.089844 C 352.945312 137.867188 352.414062 137.617188 351.894531 137.339844 C 351.378906 137.0625 350.875 136.761719 350.386719 136.433594 C 349.898438 136.109375 349.429688 135.757812 348.972656 135.386719 C 348.519531 135.011719 348.085938 134.621094 347.671875 134.203125 C 347.253906 133.789062 346.859375 133.355469 346.488281 132.902344 C 346.117188 132.445312 345.765625 131.976562 345.441406 131.488281 C 345.113281 131 344.8125 130.496094 344.535156 129.976562 C 344.257812 129.460938 344.007812 128.929688 343.78125 128.386719 C 343.558594 127.84375 343.359375 127.292969 343.191406 126.730469 C 343.019531 126.167969 342.878906 125.601562 342.761719 125.023438 C 342.648438 124.449219 342.5625 123.867188 342.503906 123.28125 C 342.445312 122.699219 342.417969 122.113281 342.417969 121.527344 C 342.417969 120.9375 342.445312 120.351562 342.503906 119.769531 C 342.5625 119.183594 342.648438 118.605469 342.761719 118.027344 C 342.878906 117.453125 343.019531 116.882812 343.191406 116.320312 C 343.359375 115.757812 343.558594 115.207031 343.78125 114.664062 C 344.007812 114.121094 344.257812 113.589844 344.535156 113.074219 C 344.8125 112.554688 345.113281 112.050781 345.441406 111.5625 C 345.765625 111.074219 346.117188 110.605469 346.488281 110.152344 C 346.859375 109.695312 347.253906 109.261719 347.671875 108.847656 C 348.085938 108.433594 348.519531 108.039062 348.972656 107.664062 C 349.429688 107.292969 349.898438 106.945312 350.386719 106.617188 C 350.875 106.289062 351.378906 105.988281 351.894531 105.710938 C 352.414062 105.4375 352.945312 105.183594 353.488281 104.960938 C 354.03125 104.734375 354.582031 104.539062 355.144531 104.367188 C 355.707031 104.195312 356.273438 104.054688 356.851562 103.941406 C 357.425781 103.824219 358.007812 103.738281 358.589844 103.683594 C 359.175781 103.625 359.761719 103.59375 360.347656 103.59375 C 360.9375 103.59375 361.523438 103.625 362.105469 103.683594 C 362.691406 103.738281 363.269531 103.824219 363.847656 103.941406 C 364.421875 104.054688 364.992188 104.195312 365.554688 104.367188 C 366.117188 104.539062 366.667969 104.734375 367.210938 104.960938 C 367.753906 105.183594 368.28125 105.4375 368.800781 105.710938 C 369.320312 105.988281 369.820312 106.289062 370.308594 106.617188 C 370.796875 106.945312 371.269531 107.292969 371.722656 107.664062 C 372.175781 108.039062 372.613281 108.433594 373.027344 108.847656 C 373.441406 109.261719 373.835938 109.695312 374.207031 110.152344 C 374.582031 110.605469 374.929688 111.074219 375.257812 111.5625 C 375.582031 112.050781 375.886719 112.554688 376.160156 113.074219 C 376.4375 113.589844 376.6875 114.121094 376.914062 114.664062 C 377.140625 115.207031 377.335938 115.757812 377.507812 116.320312 C 377.675781 116.882812 377.820312 117.453125 377.933594 118.027344 C 378.050781 118.605469 378.136719 119.183594 378.191406 119.769531 C 378.25 120.351562 378.277344 120.9375 378.277344 121.527344 Z M 378.277344 121.527344 "/></g><path style=" stroke:none;fill-rule:nonzero;fill:#113c7b;fill-opacity:1;" d="M 127.253906 623.574219 L 109.324219 623.574219 C 89.554688 623.574219 73.464844 607.492188 73.464844 587.710938 L 73.464844 487.554688 L 78.71875 492.808594 C 85.722656 499.8125 97.066406 499.8125 104.070312 492.808594 C 111.074219 485.804688 111.074219 474.457031 104.070312 467.453125 C 104.070312 467.453125 68.210938 431.59375 68.210938 431.589844 C 61.242188 424.625 49.828125 424.625 42.855469 431.59375 L 6.996094 467.453125 C -0.0078125 474.457031 -0.0078125 485.804688 6.996094 492.808594 C 14 499.8125 25.347656 499.8125 32.351562 492.808594 L 37.605469 487.554688 L 37.605469 587.710938 C 37.605469 627.257812 69.769531 659.433594 109.324219 659.433594 L 127.253906 659.433594 C 137.164062 659.433594 145.183594 651.40625 145.183594 641.503906 C 145.183594 631.601562 137.164062 623.574219 127.253906 623.574219 Z M 127.253906 623.574219 "/></g></svg>