<svg viewBox="0 0 434 245" fill="none" xmlns="http://www.w3.org/2000/svg">
<g clip-path="url(#clip0_44032_16881)">
<g clip-path="url(#clip1_44032_16881)">
<path d="M286.892 57.9891L262.454 38.2091C261.506 37.4416 261.384 36.0143 262.181 35.0215L276.012 17.7897C276.809 16.7969 278.224 16.6139 279.172 17.3814L303.61 37.1614C304.558 37.9288 304.68 39.3562 303.883 40.349L290.052 57.5807C289.255 58.5735 287.84 58.7565 286.892 57.9891Z" fill="white"/>
<path d="M286.426 58.5805C286.424 58.5787 286.422 58.5773 286.421 58.576L261.983 38.796C260.727 37.7797 260.565 35.8826 261.62 34.5681L275.453 17.3362C276.507 16.0235 278.383 15.7793 279.638 16.7904L279.643 16.7944L304.081 36.5744C304.689 37.0662 305.061 37.7768 305.131 38.5757C305.199 39.3747 304.955 40.1653 304.444 40.8017L290.613 58.0335C290.101 58.6699 289.383 59.0773 288.592 59.1803C287.802 59.2827 287.034 59.0697 286.426 58.5805ZM278.698 17.966C278.061 17.4523 277.108 17.5771 276.573 18.2435L262.741 35.4754C262.481 35.7989 262.357 36.2003 262.392 36.6054C262.427 37.0116 262.616 37.3718 262.925 37.6221L287.363 57.4021L287.365 57.4044C287.674 57.6531 288.064 57.7612 288.465 57.7095C288.867 57.6576 289.231 57.4503 289.491 57.1269L303.323 39.895C303.583 39.5715 303.707 39.1701 303.671 38.7645C303.637 38.3588 303.447 37.9986 303.139 37.7489L278.701 17.9683C278.7 17.9674 278.699 17.9665 278.698 17.966Z" fill="#1A1A1A"/>
<path d="M282.384 38.5055C281.787 38.0248 281.349 37.3444 281.159 36.5367L276.779 17.9716C276.687 17.5772 276.93 17.1675 277.324 17.0573C277.717 16.9472 278.11 17.1769 278.204 17.5706L282.584 36.1357C282.814 37.1117 283.638 37.7776 284.635 37.7963L303.631 38.1521C304.034 38.1596 304.341 38.4974 304.318 38.9065C304.294 39.3163 303.947 39.6418 303.543 39.6344L284.548 39.2796C283.727 39.265 282.977 38.9834 282.384 38.5055Z" fill="#1A1A1A"/>
<path d="M262.222 36.7988C262.049 36.66 261.946 36.4415 261.96 36.1967C261.984 35.7869 262.331 35.4614 262.735 35.4688L277.378 35.7423C277.782 35.7492 278.088 36.0881 278.065 36.4967C278.041 36.9065 277.695 37.2319 277.291 37.2246L262.647 36.9522C262.485 36.9488 262.338 36.8924 262.222 36.7988Z" fill="#1A1A1A"/>
<path d="M288.316 57.9191C288.2 57.825 288.112 57.6918 288.074 57.5317L284.699 43.22C284.606 42.8256 284.85 42.4159 285.243 42.3057C285.636 42.1956 286.03 42.4253 286.124 42.819L289.5 57.1311C289.592 57.5255 289.349 57.9353 288.955 58.0454C288.722 58.1114 288.488 58.057 288.316 57.9191Z" fill="#1A1A1A"/>
</g>
<g clip-path="url(#clip2_44032_16881)">
<path d="M298.166 15.2412C298.038 15.3451 295.03 16.3203 294.539 16.4523L293.346 4.68847C293.335 4.58047 293.353 4.47207 293.4 4.37527C293.446 4.27846 293.518 4.19702 293.608 4.13996L293.614 4.13573C293.706 4.07912 293.812 4.05006 293.921 4.05188C294.029 4.0537 294.135 4.08632 294.227 4.14603L299.553 7.59041C299.564 7.59752 299.575 7.60475 299.585 7.6122C300.527 8.31133 301.125 9.37777 301.497 10.5578C301.456 10.6278 299.543 14.1214 298.166 15.2412Z" fill="white"/>
<path d="M298.547 15.7713C298.103 16.0534 294.747 17.073 294.714 17.082C294.624 17.1063 294.529 17.1102 294.437 17.0934C294.344 17.0766 294.256 17.0395 294.178 16.9847C294.1 16.9299 294.035 16.8587 293.987 16.7761C293.939 16.6936 293.909 16.6017 293.899 16.5069L292.706 4.74281C292.683 4.51217 292.724 4.28073 292.824 4.07473C292.924 3.86873 293.08 3.6964 293.274 3.57729C293.467 3.45818 293.691 3.39705 293.919 3.40082C294.148 3.4046 294.372 3.47313 294.566 3.59865L299.892 7.04329C299.913 7.05615 299.933 7.07051 299.953 7.0846C300.925 7.80687 301.649 8.91083 302.109 10.3699C302.136 10.4574 302.146 10.5495 302.136 10.6401C302.126 10.7308 302.098 10.8181 302.053 10.8962L302.042 10.9158C301.559 11.7815 299.882 14.6893 298.574 15.7522C298.566 15.7591 298.557 15.7655 298.547 15.7713ZM295.097 15.5995C296.038 15.3017 297.489 14.8196 297.809 14.6876C298.669 13.954 299.886 12.0828 300.795 10.4783C300.424 9.42743 299.892 8.63987 299.211 8.13503L293.998 4.76343L295.097 15.5995Z" fill="#222433"/>
<path d="M305.518 15.2695L311.265 7.74555C311.416 7.55183 311.618 7.4056 311.848 7.32333C312.078 7.24106 312.328 7.22603 312.569 7.27992C312.81 7.33381 313.032 7.45449 313.211 7.62835C313.39 7.80222 313.519 8.02238 313.582 8.26402C313.63 8.46334 313.635 8.67019 313.595 8.86972C313.555 9.06926 313.472 9.25654 313.351 9.41812L311.958 11.2069L313.651 10.494C313.969 10.3571 314.33 10.3549 314.654 10.4879C314.979 10.621 315.241 10.8782 315.382 11.2032C315.523 11.5282 315.532 11.8942 315.407 12.2207C315.282 12.5473 315.033 12.8076 314.714 12.9445L309.293 15.2691" fill="white"/>
<path d="M315.247 13.401C315.16 13.4562 315.069 13.5044 314.975 13.545L309.552 15.8699C309.397 15.9345 309.221 15.9339 309.064 15.8681C308.906 15.8024 308.779 15.6769 308.711 15.5188C308.643 15.3607 308.638 15.1828 308.698 15.0237C308.758 14.8646 308.878 14.7372 309.032 14.669L314.454 12.3445C314.549 12.3034 314.634 12.2404 314.701 12.1604C314.768 12.0804 314.816 11.9855 314.841 11.883C314.871 11.763 314.866 11.6362 314.827 11.5175C314.788 11.3989 314.716 11.2934 314.621 11.2135C314.524 11.1272 314.406 11.0703 314.28 11.0495C314.153 11.0286 314.024 11.0447 313.908 11.0958L312.213 11.8102C312.082 11.8652 311.936 11.8741 311.798 11.8355C311.66 11.7969 311.537 11.713 311.45 11.597C311.362 11.4811 311.315 11.3397 311.315 11.1951C311.315 11.0505 311.363 10.911 311.45 10.7985L312.836 9.01963C312.899 8.93486 312.942 8.83688 312.964 8.73251C312.985 8.62813 312.983 8.51988 312.959 8.41528C312.929 8.29215 312.864 8.17979 312.774 8.09158C312.683 8.00337 312.569 7.94302 312.446 7.91772C312.323 7.88717 312.193 7.8932 312.074 7.93508C311.955 7.97696 311.851 8.05293 311.774 8.15393L306.028 15.6747C305.977 15.7427 305.913 15.7996 305.84 15.842C305.767 15.8845 305.686 15.9117 305.602 15.922C305.518 15.9324 305.432 15.9256 305.35 15.9022C305.268 15.8789 305.191 15.8393 305.123 15.7858C305.056 15.7323 304.999 15.6659 304.956 15.5906C304.914 15.5152 304.886 15.4324 304.875 15.3468C304.865 15.2612 304.87 15.1746 304.893 15.092C304.915 15.0093 304.954 14.9324 305.006 14.8655L310.754 7.34135C310.977 7.05148 311.278 6.83246 311.621 6.70912C311.965 6.58579 312.337 6.56307 312.697 6.64354C313.056 6.724 313.388 6.90445 313.654 7.1644C313.921 7.42436 314.111 7.75344 314.205 8.11432C314.274 8.39468 314.284 8.68558 314.233 8.96776C314.183 9.24994 314.074 9.51695 313.914 9.75114C314.186 9.71751 314.464 9.7428 314.729 9.82535C314.994 9.9079 315.239 10.0459 315.45 10.2302C315.729 10.471 315.937 10.7855 316.051 11.1377C316.164 11.4898 316.177 11.8653 316.09 12.2211C315.969 12.7114 315.668 13.1332 315.247 13.401Z" fill="#222433"/>
<path d="M289.826 22.2347L285.845 25.3561L291.084 24.4329L289.826 22.2347Z" fill="#222433"/>
<path d="M294.249 25.0586C295.248 24.9328 296.266 25.1143 297.172 25.5797C298.164 26.0756 299.243 26.3585 300.34 26.4101C304.29 26.6411 307.702 23.7772 308.431 19.8526L309.277 15.2336L297.885 15.0259C296.696 15.2562 295.471 15.2634 294.271 15.0471C293.122 14.8533 291.949 15.0696 290.955 15.6589C289.961 16.2483 289.207 17.1738 288.822 18.2768C288.438 19.3797 288.447 20.5911 288.848 21.7031C289.249 22.8151 290.017 23.7582 291.02 24.3705C291.998 24.9555 293.134 25.1975 294.249 25.0586Z" fill="white"/>
<path d="M305.171 25.7882C303.73 26.7116 302.034 27.1559 300.315 27.0604C299.131 27.0051 297.967 26.6995 296.898 26.1632C296.108 25.7556 295.22 25.5956 294.35 25.7037L294.342 25.7047C293.087 25.8618 291.808 25.5901 290.707 24.9324C289.57 24.2443 288.699 23.1805 288.243 21.9243C287.787 20.6682 287.774 19.2984 288.208 18.0511C288.642 16.8037 289.494 15.7571 290.619 15.0914C291.743 14.4258 293.069 14.1829 294.367 14.4046C295.49 14.6069 296.636 14.6006 297.749 14.386C297.793 14.3772 297.839 14.3732 297.884 14.3739L309.276 14.5816C309.371 14.5834 309.464 14.6062 309.549 14.6483C309.635 14.6905 309.71 14.751 309.771 14.8256C309.831 14.9003 309.875 14.9871 309.899 15.08C309.923 15.173 309.926 15.2697 309.909 15.3634L309.063 19.9824C308.841 21.1745 308.382 22.3039 307.713 23.302C307.044 24.3001 306.179 25.146 305.171 25.7882ZM294.152 24.4132C295.276 24.2695 296.424 24.4724 297.445 24.9955C298.356 25.4525 299.348 25.7128 300.357 25.7594C303.925 25.9684 307.121 23.3716 307.8 19.7206L308.505 15.8707L297.953 15.6782C296.708 15.9104 295.429 15.9142 294.175 15.6896C293.174 15.5215 292.154 15.7102 291.288 16.2234C290.423 16.7366 289.766 17.5423 289.431 18.5023C289.095 19.4624 289.102 20.5171 289.45 21.4856C289.798 22.4541 290.465 23.2762 291.338 23.8109C292.19 24.321 293.18 24.5327 294.153 24.4129L294.152 24.4132Z" fill="#222433"/>
<path d="M293.086 22.4903C293.682 22.1116 293.854 21.3088 293.469 20.6972C293.084 20.0855 292.288 19.8967 291.692 20.2753C291.095 20.654 290.924 21.4568 291.309 22.0685C291.694 22.6801 292.489 22.8689 293.086 22.4903Z" fill="#222433"/>
<path d="M297.015 21.7445C296.781 21.7235 296.55 21.6734 296.327 21.5953C296.308 21.5879 296.29 21.5799 296.273 21.5709C295.505 21.1857 294.907 20.5191 294.602 19.7088C294.419 19.2008 294.056 18.777 293.585 18.5208C293.53 18.4978 293.479 18.4726 293.427 18.4475C293.397 18.4329 293.368 18.4175 293.336 18.4048C293.32 18.3987 293.304 18.3917 293.288 18.3834C292.812 18.1474 292.265 18.1111 291.77 18.2823C291.274 18.4536 290.87 18.8185 290.645 19.2968L289.412 21.9399C289.358 22.0552 289.272 22.1511 289.163 22.2156C289.055 22.28 288.929 22.3102 288.802 22.3022C288.676 22.2943 288.554 22.2486 288.451 22.1709C288.349 22.0932 288.271 21.987 288.227 21.8656C287.76 20.5751 287.773 19.1647 288.263 17.9014C288.717 16.6886 289.573 15.6792 290.686 15.0428C291.799 14.4064 293.101 14.1818 294.375 14.4066C295.377 14.5957 296.4 14.6107 297.401 14.451L302.304 0.447531C302.344 0.333419 302.415 0.233547 302.508 0.159258C302.602 0.0849692 302.715 0.0392447 302.835 0.0272739C302.954 0.0153031 303.075 0.0375675 303.184 0.0915397C303.293 0.145512 303.385 0.229027 303.45 0.332598L307.215 6.3129C307.222 6.32508 307.23 6.33708 307.237 6.35061C309.397 10.3265 305.359 16.655 304.925 17.3136C304.307 18.6893 303.308 19.8481 302.047 20.6513C300.557 21.5989 298.778 21.9853 297.015 21.7445Z" fill="#0782D0"/>
<path d="M297.867 15.6883C297.764 15.6865 297.663 15.6598 297.571 15.6102C297.48 15.5606 297.401 15.4896 297.342 15.4033C297.282 15.317 297.244 15.2179 297.229 15.1143C297.215 15.0106 297.226 14.9055 297.26 14.8079L302.303 0.446148C302.343 0.332108 302.414 0.232324 302.508 0.158124C302.602 0.0839236 302.715 0.0382787 302.834 0.026372C302.953 0.0144652 303.074 0.0367744 303.183 0.0907643C303.292 0.144755 303.384 0.228265 303.449 0.331814L304.878 2.60211C305.511 3.61623 305.876 4.77502 305.936 5.9643C305.995 7.15358 305.749 8.33231 305.22 9.38434L303.85 12.0869C303.319 13.1493 302.514 14.0431 301.519 14.6754C300.43 15.364 299.162 15.7157 297.867 15.6883Z" fill="#9ABEE3"/>
</g>
<g clip-path="url(#clip3_44032_16881)">
<path d="M145.832 249.498C145.89 249.498 145.949 249.49 146.007 249.474C146.369 249.377 146.584 249.002 146.488 248.637L125.406 168.562C125.31 168.196 124.939 167.979 124.577 168.076C124.215 168.173 124 168.548 124.096 168.914L145.178 248.989C145.258 249.295 145.533 249.498 145.832 249.498Z" fill="#222433"/>
<path d="M80.0038 249.498C80.333 249.498 80.622 249.255 80.6731 248.916L92.748 168.841C92.8045 168.467 92.5501 168.118 92.18 168.061C91.8101 168.004 91.4642 168.26 91.4079 168.634L79.333 248.709C79.2765 249.083 79.5309 249.432 79.901 249.49C79.9354 249.495 79.9697 249.498 80.0038 249.498Z" fill="#222433"/>
<path d="M128.11 168.738C128.11 168.738 117.202 116.806 116.953 115.416C116.174 111.064 114.541 106.903 110.171 106.026C109.626 105.917 109.072 105.862 108.517 105.862H103.985H88.2697H83.7372C83.1819 105.862 82.6281 105.917 82.0833 106.026C77.4837 106.949 74.4954 111.465 74.985 116.083L85.4508 169.152" fill="white"/>
<path d="M85.4498 169.837C85.4939 169.837 85.5384 169.832 85.5831 169.823C85.9503 169.749 86.1887 169.389 86.1155 169.018L75.6558 115.98C75.2064 111.601 78.0827 107.527 82.2152 106.698C82.7152 106.598 83.2272 106.547 83.7369 106.547H108.517C109.026 106.547 109.538 106.598 110.039 106.698C113.339 107.36 115.324 110.169 116.286 115.538C116.534 116.922 127.002 166.759 127.447 168.88C127.525 169.25 127.885 169.486 128.251 169.408C128.617 169.329 128.851 168.965 128.773 168.596C128.664 168.077 117.865 116.658 117.62 115.294C116.945 111.522 115.451 106.387 110.303 105.354C109.716 105.237 109.115 105.177 108.517 105.177H83.7369C83.1389 105.177 82.5378 105.237 81.9511 105.354C77.1274 106.322 73.7714 111.067 74.311 116.156C74.3132 116.176 74.3162 116.196 74.3202 116.217L84.786 169.285C84.8499 169.611 85.133 169.837 85.4498 169.837Z" fill="#222433"/>
<path d="M153.337 168.053L84.7424 168.046V168.959C84.7424 170.734 86.1668 172.174 87.9238 172.174H156.647L153.337 168.053Z" fill="#222433"/>
</g>
<g clip-path="url(#clip4_44032_16881)">
<path d="M155.326 249.498C155.384 249.498 155.442 249.49 155.501 249.474C155.863 249.377 156.078 249.002 155.981 248.637L134.9 168.562C134.804 168.196 134.432 167.979 134.071 168.076C133.709 168.173 133.494 168.548 133.59 168.914L154.671 248.989C154.752 249.295 155.026 249.498 155.326 249.498Z" fill="#222433"/>
<path d="M162.831 168.053L94.2362 168.046V168.959C94.2362 170.734 95.6606 172.173 97.4175 172.173H166.141L162.831 168.053Z" fill="#222433"/>
</g>
<g clip-path="url(#clip5_44032_16881)">
<path d="M218.384 135.89L213.823 148.23L120.878 151.075L113.802 146.808C112.059 145.219 111.077 140.928 110.971 138.986C109.084 104.618 109.555 99.4033 115.685 94.6629C116.345 94.3302 118.161 93.1529 121.35 92.7667C129.858 91.7364 146.212 91.9693 161.466 93.7993C162.35 93.9052 174.046 95.8581 187.648 95.8581C192.885 95.8581 216.243 82.4831 223.62 83.0479C235.63 83.9674 232.589 99.5687 233.183 102.949C233.586 105.245 203.13 117.819 192.202 121.021C187.908 122.279 167.26 118.225 166.979 119.298C166.177 122.357 164.689 125.297 164.198 126.282L185.827 128.112" fill="white"/>
<path d="M139.798 108.723C139.808 108.723 139.817 108.723 139.827 108.723C148.175 108.708 155.09 101.779 155.24 93.2785C155.247 92.8994 154.946 92.5869 154.569 92.5801H154.557C154.185 92.5801 153.881 92.8793 153.874 93.2542C153.737 101.013 147.434 107.337 139.824 107.35H139.798C136.048 107.351 132.52 105.886 129.863 103.226C127.199 100.559 125.729 97.0097 125.722 93.2316C125.722 93.036 125.728 92.8361 125.74 92.6384C125.762 92.2601 125.475 91.935 125.099 91.9126C124.73 91.8904 124.399 92.1782 124.376 92.5567C124.363 92.7814 124.356 93.0088 124.356 93.2329C124.363 97.3789 125.977 101.273 128.899 104.198C131.814 107.117 135.684 108.723 139.798 108.723Z" fill="#222433"/>
<path d="M212.816 209C216.625 214.109 221.917 218.435 226.578 219.628C232.815 221.223 238.872 227.116 238.471 233.61H197.834L186.163 208.407L188.548 204.007L212.816 209Z" fill="#0782D0"/>
<path d="M188.548 204.007L213.589 209L240.609 160.557C241.72 158.703 242.519 156.785 243.006 154.858C244.744 147.981 241.629 140.991 235.837 137.464C233.993 136.34 231.856 135.796 229.699 135.806L217.605 135.86" fill="white"/>
<path d="M213.589 209.686C213.832 209.686 214.062 209.555 214.184 209.335L241.205 160.892C242.325 159.023 243.158 157.043 243.668 155.027C244.547 151.547 244.273 147.954 242.874 144.637C241.524 141.435 239.15 138.679 236.191 136.877C234.287 135.717 232.046 135.109 229.696 135.12L217.602 135.174C217.225 135.176 216.921 135.485 216.922 135.863C216.924 136.241 217.23 136.547 217.605 136.547C217.606 136.547 217.607 136.547 217.609 136.547L229.703 136.492C231.795 136.482 233.794 137.022 235.483 138.051C241.219 141.544 243.976 148.23 242.344 154.689C241.867 156.575 241.086 158.43 240.024 160.203L213.235 208.23L188.68 203.334C188.31 203.26 187.951 203.501 187.878 203.873C187.804 204.245 188.044 204.606 188.414 204.68L213.456 209.673C213.5 209.682 213.545 209.686 213.589 209.686Z" fill="#222433"/>
<path d="M186.397 208.189C190.236 213.645 195.841 218.373 200.746 219.628C206.984 221.223 211.224 227.115 210.823 233.61H148.295C148.295 233.61 148.311 209.541 149.186 199.664L186.397 208.189Z" fill="#0782D0"/>
<path d="M184.299 128.732C184.55 128.732 184.791 128.592 184.911 128.351C185.079 128.012 184.941 127.6 184.603 127.431C182.766 126.512 180.786 126.032 178.718 126.002L136.957 124.801L136.847 112.641C136.844 112.262 136.541 111.959 136.158 111.961C135.781 111.964 135.478 112.274 135.481 112.653L135.597 125.474C135.6 125.843 135.893 126.143 136.26 126.154L178.689 127.375C180.56 127.401 182.342 127.833 183.995 128.66C184.093 128.709 184.196 128.732 184.299 128.732Z" fill="#222433"/>
<path d="M133.479 129.292C133.656 129.292 133.833 129.224 133.967 129.087L136.595 126.397C136.859 126.126 136.855 125.692 136.586 125.426C136.317 125.161 135.884 125.165 135.62 125.435L132.992 128.126C132.728 128.396 132.732 128.831 133.001 129.096C133.134 129.227 133.307 129.292 133.479 129.292Z" fill="#222433"/>
<path d="M213.401 146.968C214.236 151.361 213.433 156.073 210.888 160.32L186.163 208.407L158.02 201.78L147.535 199.19L156.942 178.389L161.332 169.5H153.444L140.93 169.562H138.222C131.02 169.563 124.512 166.317 120.15 161.145C118.156 158.781 117.075 155.775 117.075 152.676V149.513" fill="white"/>
<path d="M186.163 209.093C186.414 209.093 186.651 208.954 186.77 208.722L211.484 160.654C214.036 156.387 214.954 151.482 214.071 146.839C214 146.467 213.645 146.223 213.272 146.294C212.902 146.365 212.659 146.724 212.73 147.097C213.551 151.414 212.689 155.984 210.302 159.966C210.295 159.978 210.288 159.992 210.281 160.005L185.801 207.617L158.175 201.112L148.497 198.721L157.559 178.683L161.944 169.805C162.049 169.592 162.037 169.34 161.913 169.138C161.788 168.936 161.568 168.813 161.332 168.813H153.444L140.926 168.876H138.222C131.451 168.876 125.054 165.897 120.671 160.702C118.792 158.474 117.757 155.624 117.757 152.676V149.513C117.757 149.134 117.451 148.827 117.074 148.827C116.697 148.827 116.391 149.134 116.391 149.513V152.676C116.391 155.949 117.541 159.114 119.629 161.589C124.271 167.092 131.048 170.249 138.221 170.249C138.222 170.249 138.221 170.249 138.222 170.249H140.93L153.447 170.186H160.231L156.331 178.084C156.327 178.091 156.324 178.098 156.321 178.105L146.913 198.906C146.829 199.092 146.832 199.306 146.92 199.49C147.009 199.673 147.174 199.808 147.372 199.857L157.857 202.446L186.007 209.075C186.059 209.087 186.112 209.093 186.163 209.093Z" fill="#222433"/>
<path d="M178.536 153.449C181.847 153.449 185.039 152.242 187.536 150.039C187.819 149.789 187.847 149.356 187.598 149.071C187.35 148.786 186.918 148.758 186.635 149.008C184.344 151.029 181.404 152.118 178.352 152.075H177.965L123.058 150.48C116.424 150.289 111.18 144.915 111.12 138.247L110.884 105.129C110.882 104.986 110.883 104.845 110.887 104.705C111.041 98.3026 116.447 93.0941 122.938 93.0941L131.72 93.2158C131.723 93.2158 131.726 93.2158 131.73 93.2158C132.103 93.2158 132.408 92.9147 132.413 92.5389C132.418 92.1598 132.116 91.8485 131.739 91.8432L122.948 91.7213C115.712 91.7213 109.693 97.5305 109.521 104.671C109.517 104.827 109.516 104.983 109.518 105.139L109.754 138.257C109.82 145.668 115.647 151.639 123.019 151.852L177.946 153.447L178.343 153.447C178.407 153.448 178.472 153.449 178.536 153.449Z" fill="#222433"/>
<path d="M168.603 137.485C166.383 145.523 174.064 154.468 182.32 151.078L182.648 150.939C186.257 149.322 190.164 148.298 195.04 151.413C198.475 153.615 203.285 157.442 205.243 154.105C206.599 151.792 201.159 147.084 197.272 143.468C204.518 145.838 214.021 148.919 215.266 145.684C216.512 142.449 212.011 139.889 202.593 136.897C213.492 138.357 216.856 140.327 217.691 137.085C218.17 135.229 215.82 133.497 212.21 132.051C210.583 131.399 208.7 130.806 206.704 130.284C200.361 128.628 192.883 127.705 188.885 127.988C188.885 127.988 187.796 128.037 184.299 128.046C183.154 128.048 181.752 128.047 180.046 128.037C172.979 128.002 169.77 133.264 168.603 137.485Z" fill="white"/>
<path d="M203.011 156.102C203.282 156.102 203.547 156.074 203.803 156.015C204.657 155.817 205.339 155.292 205.831 154.454C207.202 152.116 203.798 148.606 200.011 145.071C204.976 146.641 209.201 147.78 212.078 147.781C214.058 147.781 215.399 147.241 215.903 145.931C216.264 144.993 216.234 144.072 215.813 143.192C215.085 141.668 213.165 140.252 209.678 138.741C209.809 138.765 209.939 138.788 210.066 138.812C212.667 139.289 214.384 139.604 215.647 139.509C217.125 139.398 217.985 138.682 218.352 137.256C218.893 135.161 216.912 133.195 212.463 131.413C210.872 130.776 208.992 130.173 206.876 129.62C200.604 127.982 193.018 127.007 188.837 127.303C188.838 127.303 188.838 127.303 188.837 127.303C188.832 127.303 187.711 127.351 184.297 127.359C183.035 127.362 181.607 127.36 180.05 127.351C171.614 127.309 168.776 134.295 167.945 137.302V137.302C166.748 141.634 168.281 146.632 171.759 149.739C174.886 152.533 178.829 153.253 182.579 151.714L182.915 151.57C186.836 149.814 190.33 149.217 194.674 151.992C195.078 152.251 195.502 152.533 195.939 152.824C198.263 154.371 200.863 156.101 203.011 156.102ZM197.271 142.781C197.034 142.781 196.808 142.906 196.682 143.12C196.52 143.398 196.572 143.752 196.807 143.971C197.123 144.265 197.45 144.566 197.782 144.873C200.903 147.754 205.62 152.109 204.654 153.757C204.356 154.265 203.977 154.566 203.496 154.677C201.789 155.072 198.964 153.191 196.693 151.68C196.25 151.385 195.819 151.098 195.407 150.834C190.262 147.548 186.101 148.641 182.37 150.312L182.053 150.447C178.813 151.777 175.389 151.146 172.666 148.713C169.569 145.946 168.2 141.508 169.261 137.668V137.669C170.006 134.975 172.54 128.723 179.976 128.723C179.998 128.723 180.02 128.723 180.043 128.723C181.603 128.732 183.035 128.735 184.3 128.732C187.773 128.724 188.871 128.675 188.916 128.673C192.983 128.386 200.385 129.343 206.532 130.949C208.593 131.487 210.418 132.072 211.957 132.689C215.507 134.111 217.356 135.65 217.03 136.912C216.624 138.488 215.643 138.44 210.311 137.462C208.303 137.094 205.804 136.635 202.683 136.217C202.334 136.17 202.004 136.401 201.927 136.748C201.849 137.096 202.05 137.445 202.387 137.552C207.051 139.033 213.388 141.291 214.581 143.786C214.839 144.326 214.854 144.85 214.629 145.436C213.607 148.089 203.118 144.658 197.482 142.815C197.413 142.792 197.342 142.781 197.271 142.781Z" fill="#222433"/>
<path d="M210.347 234.521C210.705 234.521 211.006 234.241 211.028 233.877C211.45 227.043 206.997 220.865 200.439 219.188C195.919 218.031 190.439 213.646 186.479 208.017C186.261 207.708 185.835 207.634 185.527 207.853C185.219 208.072 185.146 208.5 185.363 208.81C189.5 214.69 195.285 219.285 200.102 220.518C206.025 222.033 210.046 227.615 209.665 233.792C209.641 234.171 209.927 234.496 210.304 234.52C210.319 234.521 210.333 234.521 210.347 234.521Z" fill="#222433"/>
<path d="M188.466 96.6329C188.554 96.6329 188.641 96.6157 188.723 96.5823L219.96 83.827C221.199 83.3207 222.499 83.03 223.822 82.963C224.199 82.944 224.489 82.6214 224.47 82.2431C224.451 81.8643 224.126 81.5737 223.754 81.5923C222.277 81.6671 220.827 81.9912 219.445 82.5556L188.363 95.248C184.072 94.8552 153.442 92.053 152.932 92.0374L147.482 91.7085C147.103 91.6856 146.782 91.9741 146.759 92.3524C146.736 92.7308 147.023 93.0558 147.4 93.0785L152.87 93.4084C153.494 93.4408 176.385 95.5298 188.404 96.6299C188.425 96.632 188.446 96.6329 188.466 96.6329Z" fill="#222433"/>
<path d="M164.654 126.74C164.956 126.74 165.232 126.538 165.313 126.231L166.948 120.087L189.311 121.958C189.682 121.988 190.066 122.002 190.429 122.002C192.131 122.002 193.796 121.677 195.376 121.037L229.392 107.148C232.822 105.748 235.526 102.943 236.81 99.4518C236.941 99.0963 236.76 98.7015 236.407 98.5702C236.053 98.4389 235.66 98.6203 235.529 98.9758C234.377 102.106 231.953 104.621 228.877 105.877L194.864 119.765C193.448 120.338 191.955 120.629 190.428 120.629C190.081 120.629 189.753 120.616 189.421 120.59L166.492 118.671C166.164 118.643 165.861 118.857 165.776 119.178L163.994 125.876C163.896 126.243 164.113 126.619 164.477 126.717C164.536 126.733 164.596 126.74 164.654 126.74Z" fill="#222433"/>
<path d="M226.632 91.3629C230.728 89.7703 233.196 85.5372 236.899 82.1633C242.027 77.5017 244.882 74.0455 244.512 72.4513C243.677 68.7976 235.61 76.2422 227.124 80.2607C227.065 80.2891 227.007 80.3197 226.95 80.3541C226.198 80.8077 220.652 84.1704 217.952 86.2955C212.01 90.9735 217.476 101.153 222.662 103.383C226.627 105.067 231.208 104.215 234.31 101.217C238.192 97.3535 239.651 93.3869 248.225 94.3133C252.096 94.732 257.817 95.9558 258.083 92.2706C258.268 89.7154 251.629 88.0043 246.782 86.57C253.974 85.504 263.39 84.0949 263.101 80.8008C262.812 77.5068 255.873 77.8956 246.561 79.3482C256.494 75.9558 262.202 75.5463 261.551 72.4147C260.874 69.1584 252.369 70.239 244.515 72.4627" fill="white"/>
<path d="M226.854 104.925C229.755 104.925 232.608 103.815 234.784 101.712C235.504 100.995 236.13 100.29 236.735 99.6076C239.38 96.6276 241.47 94.2735 248.152 94.9957C248.61 95.0453 249.094 95.1062 249.592 95.1689C252.57 95.5436 255.945 95.9681 257.678 94.5398C258.331 94.0015 258.697 93.2546 258.764 92.3202C258.95 89.7387 254.631 88.1845 249.937 86.7818C258.161 85.4745 264.068 84.0091 263.782 80.7404C263.713 79.956 263.356 79.3047 262.72 78.8044C261.342 77.7204 258.7 77.3601 254.108 77.7183C256.731 76.9492 258.806 76.335 260.17 75.627C260.783 75.3088 262.649 74.3403 262.219 72.2742C262.068 71.5474 261.634 70.9609 260.929 70.5313C257.629 68.5203 249.049 70.5043 244.922 71.6369C244.69 71.245 244.377 71.0394 244.118 70.9316C242.478 70.2499 239.688 72.0104 235.462 74.6743C232.835 76.3305 229.858 78.2076 226.833 79.6399C226.753 79.6781 226.675 79.7197 226.599 79.7657C225.96 80.1507 220.279 83.5916 217.531 85.7551C215.322 87.4939 214.368 90.0525 214.772 93.1547C215.349 97.5836 218.768 102.455 222.394 104.014C223.835 104.626 225.351 104.925 226.854 104.925ZM245.85 93.4903C240.334 93.4903 238.173 95.9258 235.716 98.694C235.124 99.3603 234.513 100.049 233.829 100.729C230.927 103.534 226.645 104.33 222.928 102.751C219.755 101.386 216.639 96.9097 216.126 92.9765C215.891 91.1673 216.089 88.6333 218.373 86.8356C221.057 84.7232 226.67 81.323 227.302 80.9424C227.339 80.9197 227.377 80.8998 227.416 80.8813C230.514 79.4141 233.529 77.5138 236.188 75.837C239.345 73.8471 242.61 71.7895 243.595 72.1998C243.648 72.2216 243.77 72.2726 243.846 72.6045C243.951 73.0554 243.725 75.0332 236.44 81.654C235.178 82.8044 234.064 84.0431 232.988 85.2409C230.917 87.5447 228.962 89.7208 226.385 90.7226C226.034 90.8594 225.859 91.2567 225.995 91.6101C226.131 91.9633 226.526 92.1395 226.878 92.0024C229.758 90.8829 231.819 88.5892 234.002 86.1607C235.056 84.9879 236.146 83.775 237.357 82.6711C243.681 76.9227 245.084 74.346 245.218 72.9781C252.385 71.0018 258.243 70.499 260.221 71.7046C260.594 71.9322 260.81 72.2101 260.882 72.5544C261.21 74.1353 258.879 74.8895 253.573 76.4448C251.473 77.0606 249.092 77.7586 246.34 78.6981C246.005 78.8127 245.813 79.1659 245.897 79.5115C245.981 79.8572 246.317 80.0804 246.665 80.026C252.646 79.0931 259.779 78.2339 261.877 79.8848C262.212 80.1488 262.385 80.4588 262.42 80.8607C262.654 83.5232 252.263 85.0634 246.681 85.8906C246.364 85.9377 246.122 86.2001 246.1 86.5215C246.077 86.8429 246.28 87.1368 246.588 87.2279C246.976 87.3427 247.376 87.4591 247.782 87.5779C251.428 88.642 257.531 90.4231 257.401 92.2204C257.362 92.7724 257.169 93.1837 256.811 93.4781C255.532 94.5325 252.333 94.1299 249.762 93.8064C249.255 93.7428 248.763 93.6808 248.297 93.6305C247.414 93.5355 246.601 93.4903 245.85 93.4903Z" fill="#222433"/>
<path d="M183.08 99.8469C183.199 99.8469 183.319 99.8158 183.428 99.7506L188.815 96.5366C189.139 96.3431 189.246 95.9219 189.053 95.5962C188.861 95.2704 188.441 95.1629 188.117 95.3565L182.731 98.5705C182.406 98.764 182.299 99.1851 182.492 99.5109C182.62 99.727 182.847 99.8469 183.08 99.8469Z" fill="#222433"/>
<path d="M166.45 119.984C166.721 119.984 166.977 119.821 167.084 119.553C167.224 119.201 167.054 118.802 166.704 118.661L163.434 117.348C163.084 117.207 162.687 117.378 162.547 117.73C162.407 118.082 162.577 118.481 162.928 118.622L166.197 119.935C166.28 119.969 166.366 119.984 166.45 119.984Z" fill="#222433"/>
<path d="M157.372 61.2626L158.914 57.4765L156.43 49.8251L138.524 50.0635L138.053 63.1688L134.283 69.8407L131.939 71.905L131.927 91.7624L133.812 93.4303L161.072 69.8311L157.372 61.2626Z" fill="white"/>
<path d="M131.727 93.0648C131.72 98.1843 135.749 102.377 140.809 102.515C145.962 102.662 150.257 98.5556 150.402 93.3436C150.402 93.3398 150.403 93.3356 150.403 93.3317L150.438 91.9926L150.579 86.7418C156.866 85.0206 161.489 79.2103 161.483 72.3083C161.479 68.5535 160.103 65.1261 157.839 62.5037C158.274 61.4173 158.59 60.2623 158.764 59.0504C158.764 59.0488 158.764 59.0472 158.765 59.0456C159.218 55.9867 158.72 53.0053 157.495 50.4092" fill="white"/>
<path d="M141.079 103.205C143.648 103.205 146.08 102.228 147.955 100.436C149.898 98.5778 151.01 96.0656 151.085 93.3626L151.249 87.2608C157.708 85.2588 162.172 79.1826 162.166 72.3074C162.162 68.6766 160.907 65.165 158.622 62.3714C159.008 61.3286 159.283 60.2461 159.44 59.1478C159.899 56.0514 159.44 52.9282 158.113 50.1148C157.95 49.7723 157.543 49.6264 157.203 49.7886C156.862 49.951 156.716 50.3602 156.878 50.7027C158.089 53.2695 158.508 56.1191 158.089 58.944C157.927 60.0789 157.63 61.1874 157.206 62.2472C157.11 62.486 157.155 62.7585 157.323 62.9529C159.562 65.5461 160.797 68.8688 160.8 72.3085C160.806 78.7384 156.53 84.401 150.4 86.0793C150.109 86.1589 149.905 86.4204 149.897 86.7228L149.72 93.3132C149.655 95.6623 148.693 97.8348 147.013 99.4411C145.334 101.047 143.135 101.894 140.828 101.829C136.101 101.699 132.403 97.8501 132.41 93.0653C132.41 92.6862 132.105 92.3785 131.728 92.3781H131.727C131.35 92.3781 131.044 92.6846 131.044 93.0634C131.036 98.5984 135.318 103.051 140.791 103.201C140.887 103.204 140.983 103.205 141.079 103.205Z" fill="#222433"/>
<path d="M134.043 70.6759C136.256 69.5571 137.702 67.7467 137.702 63.2821C137.702 62.9246 139.036 62.9062 139.036 62.9062L143.1 70.5444C147.206 66.2866 151.934 66.6457 154.539 66.8445C158.808 67.17 161.853 70.5704 161.98 70.715C162.084 70.8326 162.146 70.9815 162.158 71.1389C162.184 71.5031 162.198 71.8716 162.199 72.2346C162.214 76.4174 160.617 80.3556 157.703 83.324C154.789 86.2923 150.906 87.9352 146.77 87.9501H146.715C138.203 87.9501 131.262 80.9614 131.232 72.3454C131.232 72.3454 133.196 71.1044 134.043 70.6759Z" fill="#9ABEE3"/>
<path d="M128.709 56.0361C128.929 51.6602 130.97 47.5513 134.308 44.7628C140.885 39.2677 150.656 40.2097 156.09 46.8619C156.94 47.9029 157.655 49.0531 158.214 50.2806C158.313 50.4988 158.297 50.7532 158.172 50.9573C158.046 51.1615 157.828 51.2878 157.59 51.2942L141.147 51.7209C139.882 51.7565 138.876 52.8262 138.903 54.1038L139.116 63.2281C139.116 63.2281 137.147 59.4111 136.126 58.4426C132.467 54.9696 128.709 56.0361 128.709 56.0361Z" fill="#9ABEE3"/>
<path d="M146.456 62.7914C145.596 62.7914 144.899 62.0863 144.899 61.2165C144.899 60.3466 145.596 59.6415 146.456 59.6415C147.316 59.6415 148.013 60.3466 148.013 61.2165C148.013 62.0863 147.316 62.7914 146.456 62.7914Z" fill="#222433"/>
<path d="M157.327 62.7436C156.467 62.7436 155.77 62.0385 155.77 61.1687C155.77 60.2988 156.467 59.5937 157.327 59.5937C158.187 59.5937 158.884 60.2988 158.884 61.1687C158.884 62.0385 158.187 62.7436 157.327 62.7436Z" fill="#222433"/>
<path d="M138.409 63.245C137.946 59.175 134.527 56.0148 130.379 56.0148C125.915 56.0148 122.296 59.6751 122.296 64.1902C122.296 68.7054 125.915 72.3657 130.379 72.3657C131.835 72.3657 133.202 71.9761 134.382 71.2942" fill="white"/>
<path d="M130.379 73.0517C131.904 73.0517 133.406 72.6496 134.723 71.889C135.05 71.7 135.163 71.2805 134.974 70.952C134.786 70.6235 134.369 70.51 134.042 70.699C132.932 71.3402 131.665 71.679 130.379 71.679C126.298 71.679 122.978 68.3195 122.978 64.1898C122.978 60.0601 126.298 56.7006 130.379 56.7006C134.14 56.7006 137.301 59.5474 137.73 63.3226C137.773 63.6993 138.11 63.9693 138.487 63.9265C138.861 63.8835 139.13 63.5433 139.088 63.1666C138.579 58.6978 134.835 55.3281 130.379 55.3281C125.545 55.3281 121.612 59.3034 121.612 64.1898C121.612 69.0762 125.545 73.0517 130.379 73.0517Z" fill="#222433"/>
<path d="M152.694 73.8757C154.623 73.8757 156.57 72.6212 156.57 69.8183C156.57 69.4393 156.264 69.1321 155.887 69.1321C155.51 69.1321 155.204 69.4393 155.204 69.8183C155.204 71.798 153.907 72.5032 152.694 72.5032C151.904 72.5032 151.115 72.2173 150.53 71.7188C150.084 71.34 149.554 70.6615 149.554 69.5802C149.554 69.2011 149.248 68.8939 148.871 68.8939C148.494 68.8939 148.188 69.2011 148.188 69.5802C148.188 72.269 150.479 73.8757 152.694 73.8757Z" fill="#222433"/>
<path d="M154.471 66.4419C154.666 66.4419 154.853 66.3582 154.983 66.2106C155.121 66.053 155.181 65.8403 155.143 65.633L153.935 58.9422C153.867 58.5691 153.51 58.322 153.141 58.3895C152.769 58.4572 152.523 58.8143 152.59 59.1872L153.644 65.0195L150.329 64.8251C149.947 64.8029 149.63 65.0918 149.607 65.4702C149.585 65.8485 149.873 66.1731 150.249 66.1953L154.431 66.4408C154.445 66.4415 154.458 66.4419 154.471 66.4419Z" fill="#222433"/>
<path d="M131.727 93.0648L131.938 72.3369L131.727 93.0648Z" fill="white"/>
<path d="M131.727 93.7511C132.101 93.7511 132.406 93.4484 132.41 93.0719L132.622 72.344C132.626 71.965 132.323 71.6545 131.946 71.6507C131.559 71.6481 131.26 71.9508 131.256 72.3298L131.044 93.0577C131.04 93.4368 131.343 93.7472 131.72 93.7511C131.722 93.7511 131.724 93.7511 131.727 93.7511Z" fill="#222433"/>
<path d="M127.787 66.6732C127.865 66.6732 127.944 66.6599 128.02 66.6318L133.201 64.7423C133.468 64.645 133.647 64.3923 133.651 64.1075C133.656 63.8224 133.484 63.5646 133.22 63.4594L128.372 61.5248C128.021 61.3848 127.624 61.5571 127.485 61.9094C127.346 62.2616 127.517 62.6606 127.868 62.8004L131.045 64.0683L127.554 65.3416C127.2 65.4708 127.016 65.8645 127.145 66.2209C127.246 66.4998 127.508 66.6732 127.787 66.6732Z" fill="#222433"/>
</g>
<g clip-path="url(#clip6_44032_16881)">
<path d="M322.879 237.584C322.51 237.584 322.188 237.311 322.135 236.933L308.063 136.306C308.005 135.892 308.292 135.51 308.704 135.452C309.114 135.392 309.496 135.682 309.554 136.095L323.625 236.723C323.683 237.136 323.396 237.519 322.985 237.577C322.95 237.582 322.914 237.584 322.879 237.584Z" fill="#222433"/>
<path d="M218.003 237.584C217.969 237.584 217.933 237.582 217.898 237.577C217.486 237.519 217.199 237.136 217.257 236.723L231.329 136.095C231.387 135.682 231.764 135.392 232.179 135.452C232.591 135.51 232.877 135.892 232.82 136.306L218.748 236.933C218.695 237.311 218.373 237.584 218.003 237.584Z" fill="#222433"/>
<path d="M337.632 136.643H200.122C199.706 136.643 199.369 136.305 199.369 135.887C199.369 135.469 199.706 135.13 200.122 135.13H337.632C338.048 135.13 338.385 135.469 338.385 135.887C338.385 136.305 338.048 136.643 337.632 136.643Z" fill="#222433"/>
</g>
<g clip-path="url(#clip7_44032_16881)">
<path d="M254.987 135.804H266.977H325.722L331.189 99.9673C331.231 99.6914 331.252 99.4128 331.252 99.1338C331.252 96.0832 328.77 93.6105 325.71 93.6112H278.176C275.436 93.6096 273.107 95.6045 272.695 98.3049L267.57 131.913H255.38L254.987 135.804Z" fill="white"/>
<path d="M254.987 136.492H325.722C326.063 136.492 326.353 136.243 326.404 135.907L331.871 100.071C331.918 99.7618 331.942 99.4466 331.942 99.1336C331.942 97.4746 331.294 95.9147 330.116 94.7419C328.94 93.5693 327.375 92.9233 325.711 92.9233H325.71H278.176H278.172C275.069 92.9233 272.479 95.1425 272.013 98.2015L266.977 131.225H255.38C255.026 131.225 254.729 131.492 254.694 131.844L254.3 135.735C254.281 135.928 254.344 136.121 254.475 136.265C254.606 136.409 254.792 136.492 254.987 136.492ZM325.129 135.116H255.75L256.004 132.601H267.57C267.911 132.601 268.201 132.353 268.252 132.016L273.377 98.4083C273.74 96.0269 275.757 94.2991 278.173 94.2991C278.173 94.2991 278.174 94.2991 278.175 94.2991H325.71C325.71 94.2991 325.711 94.2991 325.711 94.2991C327.007 94.2991 328.224 94.8017 329.141 95.7148C330.057 96.6278 330.562 97.8422 330.562 99.1338C330.562 99.3775 330.543 99.6229 330.507 99.8634L325.129 135.116Z" fill="#222433"/>
<path d="M297.765 120.063C296.302 118.648 296.506 116.071 298.222 114.308C299.938 112.544 302.515 112.262 303.979 113.677C305.442 115.093 305.238 117.669 303.522 119.433C301.806 121.196 299.228 121.479 297.765 120.063Z" fill="#9ABEE3"/>
</g>
<g clip-path="url(#clip8_44032_16881)">
<path d="M414.694 92.9238C414.203 92.6659 413.629 92.6144 413.1 92.7808C412.571 92.9472 412.129 93.3177 411.872 93.811C412.008 93.5704 412.094 93.3053 412.128 93.0309C412.161 92.7565 412.14 92.4783 412.065 92.2121C411.991 91.946 411.865 91.6972 411.695 91.48C411.524 91.2628 411.313 91.0816 411.073 90.9466C410.832 90.8117 410.568 90.7257 410.294 90.6936C410.021 90.6615 409.743 90.684 409.479 90.7597C409.214 90.8354 408.966 90.9629 408.751 91.1348C408.535 91.3067 408.355 91.5196 408.222 91.7614C408.203 91.7963 408.185 91.832 408.166 91.8681L403.231 101.28L404.009 90.6798C404.039 90.1319 403.854 89.5941 403.493 89.1816C403.133 88.7691 402.625 88.5148 402.08 88.473C401.535 88.4313 400.995 88.6055 400.576 88.9584C400.158 89.3112 399.893 89.8146 399.84 90.3607C399.87 89.8128 399.684 89.275 399.324 88.8625C398.963 88.45 398.456 88.1956 397.911 88.1539C397.366 88.1122 396.826 88.2864 396.407 88.6392C395.988 88.9921 395.724 89.4955 395.67 90.0416L395.564 91.4363L394.851 100.837C394.727 102.464 395.076 104.092 395.854 105.525C396.633 106.957 397.808 108.133 399.238 108.909L399.224 108.932C400.273 109.473 401.417 109.802 402.592 109.9V109.874C404.214 109.974 405.83 109.601 407.245 108.8C408.661 107.998 409.814 106.803 410.568 105.358L414.917 97.0003L415.562 95.7614C415.822 95.2704 415.877 94.6958 415.716 94.164C415.554 93.6321 415.188 93.1866 414.699 92.9255L414.694 92.9238Z" fill="white"/>
<path d="M402.592 110.464C402.576 110.464 402.561 110.464 402.545 110.462C401.297 110.359 400.081 110.009 398.968 109.433C398.912 109.404 398.862 109.366 398.818 109.321C397.336 108.476 396.123 107.227 395.322 105.717C394.52 104.208 394.163 102.5 394.292 100.795L395.111 89.999C395.162 89.4512 395.381 88.9327 395.738 88.5149C396.094 88.0971 396.571 87.8005 397.103 87.666C397.635 87.5315 398.195 87.5657 398.706 87.7638C399.217 87.962 399.655 88.3143 399.959 88.7724C400.328 88.3666 400.813 88.0852 401.348 87.9669C401.882 87.8485 402.44 87.8989 402.945 88.1112C403.45 88.3234 403.877 88.6872 404.168 89.1527C404.459 89.6181 404.599 90.1624 404.57 90.711L403.989 98.6265L407.669 91.6059C407.684 91.5756 407.707 91.5308 407.732 91.4861C408.001 91.0058 408.411 90.6208 408.906 90.3842C409.402 90.1477 409.959 90.0711 410.499 90.1651C411.04 90.2592 411.538 90.5191 411.926 90.9092C412.313 91.2994 412.571 91.8004 412.662 92.3434C412.751 92.305 412.841 92.2713 412.932 92.2426C413.264 92.137 413.614 92.0987 413.961 92.1298C414.308 92.1609 414.646 92.2608 414.954 92.4237C414.961 92.4273 414.968 92.4309 414.974 92.4348C415.59 92.7693 416.049 93.3342 416.252 94.0066C416.455 94.6791 416.385 95.4047 416.058 96.0257L411.065 105.618C410.275 107.133 409.072 108.39 407.597 109.245C406.122 110.1 404.435 110.516 402.733 110.445C402.687 110.458 402.639 110.464 402.592 110.464ZM402.592 109.312C402.603 109.312 402.615 109.312 402.626 109.313C404.14 109.405 405.648 109.056 406.969 108.308C408.289 107.56 409.367 106.445 410.071 105.097L415.065 95.5012C415.256 95.1418 415.297 94.7211 415.179 94.3315C415.061 93.9419 414.794 93.6152 414.436 93.4233L414.434 93.4224C414.083 93.2383 413.673 93.1983 413.293 93.3109C412.913 93.4235 412.591 93.68 412.395 94.0261C412.384 94.0464 412.373 94.0665 412.362 94.0867C412.29 94.2142 412.171 94.3084 412.031 94.3494C411.891 94.3904 411.741 94.375 411.612 94.3064C411.483 94.2378 411.385 94.1215 411.34 93.9821C411.295 93.8427 411.306 93.6912 411.371 93.5598C411.381 93.541 411.391 93.5212 411.402 93.5022C411.585 93.1452 411.622 92.7301 411.505 92.346C411.387 91.962 411.124 91.6396 410.772 91.4479C410.42 91.2563 410.007 91.2108 409.622 91.3211C409.237 91.4314 408.91 91.6888 408.712 92.038C408.698 92.0639 408.684 92.0898 408.672 92.1165L403.729 101.544C403.669 101.659 403.572 101.749 403.453 101.8C403.334 101.851 403.202 101.859 403.078 101.823C402.954 101.788 402.846 101.71 402.772 101.604C402.698 101.498 402.663 101.369 402.673 101.24L403.45 90.6393C403.468 90.2395 403.33 89.8484 403.066 89.5492C402.801 89.25 402.43 89.0663 402.032 89.0372C401.635 89.0082 401.241 89.1361 400.936 89.3937C400.631 89.6513 400.438 90.0183 400.399 90.4165C400.384 90.5628 400.313 90.6976 400.201 90.7921C400.088 90.8866 399.944 90.9332 399.798 90.9221C399.651 90.9109 399.515 90.8428 399.419 90.7323C399.322 90.6218 399.272 90.4777 399.28 90.3309C399.302 89.9298 399.166 89.5361 398.903 89.2341C398.639 88.932 398.267 88.7458 397.868 88.7152C397.469 88.6847 397.074 88.8123 396.768 89.0706C396.461 89.329 396.268 89.6976 396.229 90.0973L395.411 100.881C395.296 102.399 395.622 103.918 396.348 105.255C397.075 106.592 398.171 107.689 399.505 108.415C399.55 108.439 399.592 108.47 399.629 108.506C400.521 108.946 401.483 109.223 402.472 109.324C402.511 109.316 402.551 109.312 402.592 109.312Z" fill="#222433"/>
<path d="M380.306 156.748C380.197 156.749 380.09 156.717 379.998 156.657C379.907 156.597 379.835 156.511 379.791 156.411L366.386 125.697C366.327 125.56 366.323 125.405 366.378 125.266C366.432 125.127 366.539 125.015 366.676 124.955C366.812 124.895 366.966 124.892 367.105 124.947C367.244 125.001 367.355 125.109 367.415 125.245L380.821 155.959C380.858 156.045 380.874 156.138 380.866 156.232C380.858 156.325 380.828 156.415 380.777 156.493C380.726 156.572 380.656 156.636 380.574 156.681C380.492 156.725 380.4 156.748 380.307 156.748H380.306Z" fill="#222433"/>
<path d="M365.207 125.827C367.538 125.827 369.428 123.93 369.428 121.59C369.428 119.25 367.538 117.354 365.207 117.354C362.875 117.354 360.985 119.25 360.985 121.59C360.985 123.93 362.875 125.827 365.207 125.827Z" fill="white"/>
<path d="M365.206 126.39C364.26 126.39 363.336 126.109 362.549 125.581C361.763 125.054 361.149 124.304 360.787 123.427C360.425 122.55 360.331 121.585 360.515 120.654C360.7 119.723 361.155 118.868 361.824 118.196C362.493 117.525 363.345 117.068 364.273 116.883C365.201 116.697 366.163 116.792 367.037 117.156C367.911 117.519 368.658 118.134 369.183 118.924C369.709 119.713 369.989 120.641 369.989 121.59C369.988 122.863 369.484 124.083 368.587 124.983C367.69 125.883 366.474 126.389 365.206 126.39ZM365.206 117.917C364.482 117.917 363.775 118.132 363.173 118.536C362.571 118.94 362.101 119.513 361.824 120.185C361.547 120.856 361.475 121.594 361.616 122.307C361.757 123.02 362.106 123.674 362.618 124.188C363.13 124.702 363.782 125.052 364.492 125.193C365.202 125.335 365.938 125.262 366.607 124.984C367.276 124.706 367.848 124.235 368.25 123.631C368.652 123.027 368.867 122.317 368.867 121.59C368.866 120.616 368.48 119.683 367.794 118.994C367.107 118.305 366.177 117.918 365.206 117.917Z" fill="#222433"/>
<path d="M381.74 84.5234C384.861 84.5234 387.391 81.9844 387.391 78.8524C387.391 75.7204 384.861 73.1814 381.74 73.1814C378.619 73.1814 376.089 75.7204 376.089 78.8524C376.089 81.9844 378.619 84.5234 381.74 84.5234Z" fill="#FC8383"/>
<path d="M387.975 96.5055C391.096 96.5055 393.626 93.9665 393.626 90.8345C393.626 87.7025 391.096 85.1635 387.975 85.1635C384.854 85.1635 382.324 87.7025 382.324 90.8345C382.324 93.9665 384.854 96.5055 387.975 96.5055Z" fill="#FC8383"/>
<path d="M376.688 97.0537C379.809 97.0537 382.339 94.5147 382.339 91.3827C382.339 88.2507 379.809 85.7117 376.688 85.7117C373.567 85.7117 371.037 88.2507 371.037 91.3827C371.037 94.5147 373.567 97.0537 376.688 97.0537Z" fill="#FC8383"/>
<path d="M388.581 109.086C391.702 109.086 394.232 106.547 394.232 103.415C394.232 100.283 391.702 97.7444 388.581 97.7444C385.46 97.7444 382.93 100.283 382.93 103.415C382.93 106.547 385.46 109.086 388.581 109.086Z" fill="#FC8383"/>
<path d="M377.294 109.635C380.415 109.635 382.945 107.096 382.945 103.964C382.945 100.832 380.415 98.2926 377.294 98.2926C374.173 98.2926 371.643 100.832 371.643 103.964C371.643 107.096 374.173 109.635 377.294 109.635Z" fill="#FC8383"/>
<path d="M399.116 210.385C400.129 211.402 400.933 212.609 401.482 213.938C402.03 215.267 402.313 216.691 402.313 218.129C402.313 219.567 402.03 220.991 401.482 222.32C400.933 223.649 400.129 224.856 399.116 225.873L391.398 233.616H379.849L372.133 225.874C370.086 223.821 368.936 221.036 368.936 218.132C368.935 215.228 370.084 212.443 372.13 210.389L372.133 210.385C374.18 208.332 375.329 205.547 375.33 202.643C375.33 199.739 374.181 196.954 372.135 194.9L372.133 194.898C370.174 192.933 369.034 190.294 368.942 187.515C368.851 184.737 369.816 182.028 371.641 179.937C371.798 179.75 371.963 179.581 372.133 179.41C374.179 177.356 375.329 174.571 375.329 171.666C375.329 168.762 374.179 165.977 372.133 163.923C371.119 162.908 370.315 161.702 369.767 160.375C369.218 159.047 368.937 157.624 368.938 156.187H402.319C402.319 157.625 402.036 159.048 401.486 160.376C400.937 161.703 400.131 162.909 399.116 163.923C398.103 164.94 397.299 166.147 396.75 167.476C396.202 168.805 395.92 170.229 395.92 171.667C395.92 173.105 396.202 174.529 396.75 175.858C397.299 177.186 398.103 178.394 399.116 179.411C399.286 179.582 399.451 179.758 399.608 179.938C401.433 182.029 402.398 184.738 402.307 187.516C402.216 190.295 401.075 192.934 399.116 194.899C397.07 196.953 395.92 199.738 395.92 202.642C395.919 205.546 397.068 208.331 399.114 210.385L399.116 210.386V210.385Z" fill="white"/>
<path d="M391.398 234.18H379.849C379.701 234.18 379.558 234.121 379.453 234.015L371.736 226.272C369.585 224.113 368.375 221.185 368.375 218.132C368.374 215.079 369.582 212.15 371.733 209.99L371.739 209.984C373.679 208.037 374.769 205.395 374.769 202.641C374.769 199.887 373.679 197.246 371.739 195.298C369.685 193.228 368.489 190.454 368.393 187.535C368.297 184.615 369.307 181.768 371.22 179.566C371.39 179.363 371.576 179.173 371.737 179.012C373.676 177.062 374.765 174.42 374.765 171.666C374.765 168.912 373.676 166.27 371.737 164.32L371.736 164.319C369.59 162.159 368.383 159.235 368.377 156.184C368.377 156.035 368.436 155.892 368.541 155.786C368.647 155.681 368.789 155.621 368.938 155.621H402.319C402.468 155.621 402.61 155.681 402.715 155.786C402.821 155.892 402.88 156.035 402.88 156.184C402.872 159.236 401.661 162.16 399.513 164.319C397.572 166.268 396.481 168.91 396.481 171.665C396.481 174.42 397.572 177.062 399.513 179.01L399.515 179.012C399.694 179.192 399.867 179.378 400.031 179.565C401.944 181.767 402.954 184.614 402.858 187.533C402.762 190.452 401.567 193.226 399.513 195.296C398.552 196.261 397.79 197.405 397.269 198.666C396.749 199.926 396.481 201.276 396.481 202.64C396.481 204.004 396.749 205.355 397.269 206.615C397.789 207.875 398.551 209.02 399.512 209.985L399.117 210.385L399.513 209.987C401.662 212.147 402.868 215.074 402.869 218.126C402.87 221.178 401.664 224.106 399.517 226.268L399.512 226.274L391.795 234.015C391.69 234.121 391.547 234.18 391.398 234.18ZM380.081 233.054H391.165L398.719 225.476L398.721 225.474C400.659 223.524 401.747 220.882 401.747 218.128C401.746 215.374 400.658 212.733 398.719 210.783L398.717 210.782C397.652 209.712 396.807 208.443 396.231 207.046C395.654 205.65 395.358 204.152 395.358 202.64C395.358 201.129 395.655 199.632 396.232 198.235C396.808 196.838 397.654 195.569 398.719 194.5C400.571 192.633 401.65 190.13 401.736 187.496C401.823 184.863 400.911 182.294 399.186 180.308C399.038 180.14 398.881 179.971 398.72 179.81L398.716 179.806C396.565 177.646 395.357 174.717 395.358 171.664C395.358 168.61 396.567 165.682 398.719 163.523C400.52 161.713 401.596 159.302 401.741 156.749H369.514C369.658 159.301 370.731 161.712 372.529 163.523C374.678 165.684 375.884 168.612 375.884 171.665C375.884 174.718 374.677 177.646 372.528 179.807C372.377 179.959 372.218 180.121 372.069 180.299C370.341 182.284 369.427 184.854 369.512 187.49C369.597 190.125 370.675 192.63 372.528 194.499C373.594 195.568 374.439 196.838 375.016 198.235C375.593 199.632 375.889 201.129 375.889 202.641C375.889 204.153 375.593 205.65 375.016 207.047C374.439 208.444 373.594 209.714 372.528 210.783L372.522 210.788C370.583 212.737 369.494 215.378 369.495 218.133C369.496 220.887 370.587 223.528 372.528 225.475L380.081 233.054Z" fill="#222433"/>
<path d="M384.85 156.748C384.705 156.748 384.565 156.692 384.461 156.591C384.356 156.491 384.295 156.353 384.289 156.208L381.18 78.8751C381.175 78.7264 381.228 78.5818 381.329 78.4728C381.43 78.3637 381.57 78.2992 381.718 78.2932C381.866 78.2872 382.011 78.3402 382.12 78.4407C382.229 78.5412 382.294 78.6811 382.301 78.8296L385.411 156.162C385.414 156.236 385.402 156.31 385.377 156.379C385.351 156.449 385.313 156.512 385.263 156.567C385.213 156.621 385.153 156.665 385.086 156.696C385.019 156.727 384.946 156.745 384.873 156.748L384.85 156.748Z" fill="#222433"/>
<path d="M399.616 180.5H371.643C371.494 180.5 371.352 180.441 371.246 180.335C371.141 180.23 371.082 180.087 371.082 179.937C371.082 179.788 371.141 179.645 371.246 179.539C371.352 179.433 371.494 179.374 371.643 179.374H399.616C399.765 179.374 399.907 179.433 400.013 179.539C400.118 179.645 400.177 179.788 400.177 179.937C400.177 180.087 400.118 180.23 400.013 180.335C399.907 180.441 399.765 180.5 399.616 180.5Z" fill="#222433"/>
<path d="M399.116 195.462H372.135C371.986 195.462 371.844 195.402 371.738 195.297C371.633 195.191 371.574 195.048 371.574 194.898C371.574 194.749 371.633 194.606 371.738 194.5C371.844 194.395 371.986 194.335 372.135 194.335H399.116C399.265 194.335 399.408 194.395 399.513 194.5C399.618 194.606 399.677 194.749 399.677 194.898C399.677 195.048 399.618 195.191 399.513 195.297C399.408 195.402 399.265 195.462 399.116 195.462Z" fill="#222433"/>
<path d="M399.616 211.474H371.643C371.494 211.474 371.352 211.415 371.246 211.309C371.141 211.203 371.082 211.06 371.082 210.911C371.082 210.761 371.141 210.618 371.246 210.513C371.352 210.407 371.494 210.348 371.643 210.348H399.616C399.765 210.348 399.907 210.407 400.013 210.513C400.118 210.618 400.177 210.761 400.177 210.911C400.177 211.06 400.118 211.203 400.013 211.309C399.907 211.415 399.765 211.474 399.616 211.474Z" fill="#222433"/>
<path d="M399.116 226.435H372.135C371.986 226.435 371.844 226.376 371.738 226.27C371.633 226.165 371.574 226.021 371.574 225.872C371.574 225.723 371.633 225.579 371.738 225.474C371.844 225.368 371.986 225.309 372.135 225.309H399.116C399.265 225.309 399.408 225.368 399.513 225.474C399.618 225.579 399.677 225.723 399.677 225.872C399.677 226.021 399.618 226.165 399.513 226.27C399.408 226.376 399.265 226.435 399.116 226.435Z" fill="#222433"/>
<path d="M399.235 98.9815C399.22 98.9815 399.206 98.9809 399.191 98.9798C399.043 98.9684 398.905 98.8984 398.808 98.7851C398.711 98.6717 398.663 98.5244 398.674 98.3755L399.299 90.1534C399.304 90.079 399.323 90.0062 399.356 89.9393C399.389 89.8724 399.435 89.8127 399.491 89.7637C399.547 89.7148 399.612 89.6775 399.683 89.654C399.753 89.6305 399.828 89.6214 399.902 89.6271C399.976 89.6327 400.048 89.6532 400.115 89.6871C400.181 89.721 400.24 89.7679 400.288 89.8248C400.336 89.8818 400.372 89.9477 400.394 90.0189C400.417 90.09 400.425 90.1649 400.418 90.2392L399.793 98.4613C399.783 98.6027 399.719 98.7348 399.616 98.8312C399.512 98.9277 399.376 98.9813 399.235 98.9815Z" fill="#222433"/>
<path d="M408.145 101.54C408.049 101.54 407.954 101.515 407.87 101.468C407.786 101.42 407.715 101.352 407.665 101.269C407.615 101.186 407.588 101.091 407.585 100.995C407.581 100.898 407.603 100.802 407.648 100.716L411.453 93.4066C411.486 93.34 411.533 93.2807 411.589 93.2322C411.646 93.1837 411.711 93.1469 411.782 93.1241C411.853 93.1012 411.927 93.0927 412.002 93.0991C412.076 93.1054 412.148 93.1265 412.214 93.161C412.28 93.1956 412.338 93.2429 412.386 93.3003C412.433 93.3577 412.469 93.424 412.49 93.4953C412.512 93.5667 412.52 93.6417 412.512 93.7159C412.505 93.7902 412.483 93.8622 412.448 93.9279L408.643 101.238C408.595 101.329 408.524 101.405 408.436 101.459C408.348 101.512 408.248 101.54 408.145 101.54Z" fill="#222433"/>
<path d="M387.79 156.748C387.703 156.748 387.618 156.728 387.54 156.689C387.462 156.65 387.395 156.593 387.342 156.524C387.29 156.454 387.255 156.373 387.239 156.288C387.223 156.202 387.227 156.114 387.25 156.03L401.383 106.464C401.402 106.392 401.436 106.324 401.481 106.265C401.527 106.206 401.584 106.157 401.648 106.121C401.713 106.084 401.785 106.06 401.858 106.052C401.932 106.043 402.007 106.049 402.079 106.069C402.15 106.09 402.217 106.125 402.275 106.171C402.333 106.218 402.381 106.276 402.417 106.341C402.453 106.407 402.475 106.479 402.483 106.553C402.49 106.627 402.483 106.702 402.462 106.774L388.329 156.341C388.295 156.458 388.224 156.561 388.127 156.635C388.03 156.708 387.912 156.748 387.79 156.748Z" fill="#222433"/>
</g>
<g clip-path="url(#clip9_44032_16881)">
<path d="M60.2719 279.041H31.6143V234.922C37.1331 229.42 40.2217 226.343 45.7152 220.841H45.9937C51.5632 226.293 54.6771 229.344 60.2466 234.797V279.041H60.2719Z" fill="white"/>
<path d="M60.2718 279.791H31.6142C31.1838 279.791 30.8547 279.466 30.8547 279.041V234.922C30.8547 234.722 30.9307 234.547 31.0826 234.397L45.1835 220.316C45.3354 220.166 45.5127 220.091 45.7152 220.091H45.9937C46.1962 220.091 46.3734 220.166 46.5253 220.316L60.7782 234.272C60.93 234.422 61.006 234.597 61.006 234.797V279.066C61.0313 279.466 60.6769 279.791 60.2718 279.791ZM32.3737 278.291H59.5124V235.097L45.8671 221.766L32.3737 235.222V278.291Z" fill="#222433"/>
<path d="M45.9431 221.591C45.5127 221.591 45.1836 221.266 45.1836 220.841V74.9779C45.1836 74.5527 45.5127 74.2276 45.9431 74.2276C46.3734 74.2276 46.7025 74.5527 46.7025 74.9779V220.866C46.7025 221.266 46.3481 221.591 45.9431 221.591Z" fill="#222433"/>
</g>
<g clip-path="url(#clip10_44032_16881)">
<path d="M421.781 234.18H10.523C10.1416 234.18 9.83276 233.876 9.83276 233.5C9.83276 233.124 10.142 232.819 10.523 232.819H421.782C422.163 232.819 422.472 233.124 422.472 233.5C422.472 233.876 422.163 234.18 421.781 234.18Z" fill="#222433"/>
</g>
<g clip-path="url(#clip11_44032_16881)">
<path d="M64.4515 44.9418L80.0087 74.1907H11.5386L27.0958 44.9418H64.4515Z" fill="white"/>
<path d="M64.4513 44.2492H27.0956C26.971 44.2492 26.8488 44.2832 26.7419 44.3476C26.635 44.412 26.5475 44.5044 26.4887 44.6149L10.9315 73.8641C10.8754 73.9696 10.8474 74.0879 10.8503 74.2076C10.8532 74.3272 10.8868 74.444 10.948 74.5467C11.0091 74.6493 11.0956 74.7343 11.1991 74.7933C11.3026 74.8523 11.4195 74.8833 11.5384 74.8833H80.0085C80.1275 74.8833 80.2444 74.8523 80.3478 74.7933C80.4513 74.7343 80.5378 74.6493 80.599 74.5467C80.6601 74.444 80.6937 74.3272 80.6966 74.2076C80.6995 74.0879 80.6715 73.9696 80.6154 73.8641L65.0582 44.6151C64.9994 44.5046 64.9119 44.4122 64.8051 44.3477C64.6982 44.2833 64.5759 44.2492 64.4513 44.2492ZM27.5086 45.6343H64.0383L78.8594 73.4982H12.6875L27.5086 45.6343Z" fill="#222433"/>
</g>
<g clip-path="url(#clip12_44032_16881)">
<path d="M31.5523 38.1227C31.4411 38.1228 31.3317 38.0955 31.2337 38.0434C31.1358 37.9912 31.0523 37.9158 30.9908 37.8239L27.9155 33.2336C27.8665 33.1603 27.8325 33.0782 27.8154 32.9918C27.7983 32.9055 27.7985 32.8167 27.816 32.7304C27.8335 32.6442 27.8679 32.5622 27.9172 32.4892C27.9666 32.4161 28.03 32.3535 28.1037 32.3048C28.2526 32.2064 28.4347 32.1709 28.61 32.2059C28.6968 32.2233 28.7793 32.2575 28.8528 32.3065C28.9264 32.3556 28.9894 32.4185 29.0384 32.4918L32.1126 37.0826C32.1802 37.1834 32.219 37.3005 32.2248 37.4215C32.2307 37.5424 32.2034 37.6627 32.1459 37.7695C32.0884 37.8763 32.0028 37.9656 31.8983 38.0279C31.7937 38.0901 31.6741 38.1231 31.5523 38.1231V38.1227Z" fill="#222433"/>
<path d="M58.2995 38.1227C58.1775 38.1228 58.0578 38.09 57.953 38.0278C57.8483 37.9656 57.7626 37.8764 57.705 37.7696C57.6473 37.6627 57.6199 37.5424 57.6258 37.4213C57.6316 37.3002 57.6704 37.183 57.738 37.0821L60.8126 32.4918C60.9116 32.3438 61.0657 32.241 61.241 32.2059C61.4163 32.1709 61.5984 32.2064 61.7474 32.3048C61.8963 32.4032 61.9998 32.5563 62.035 32.7304C62.0703 32.9046 62.0346 33.0856 61.9356 33.2336L58.8609 37.8239C58.7994 37.9158 58.7159 37.9912 58.618 38.0434C58.52 38.0955 58.4106 38.1228 58.2995 38.1227Z" fill="#222433"/>
<path d="M44.926 33.5321C44.7473 33.5321 44.5759 33.4616 44.4495 33.336C44.3232 33.2105 44.2522 33.0402 44.2522 32.8626V27.219C44.2522 27.0415 44.3232 26.8712 44.4495 26.7456C44.5759 26.6201 44.7473 26.5496 44.926 26.5496C45.1047 26.5496 45.276 26.6201 45.4024 26.7456C45.5287 26.8712 45.5997 27.0415 45.5997 27.219V32.8626C45.5997 33.0402 45.5287 33.2105 45.4024 33.336C45.276 33.4616 45.1047 33.5321 44.926 33.5321Z" fill="#222433"/>
</g>
</g>
<defs>
<clipPath id="clip0_44032_16881">
<rect width="434" height="245" fill="white"/>
</clipPath>
<clipPath id="clip1_44032_16881">
<rect width="37.4818" height="28.595" fill="white" transform="matrix(0.77875 0.627335 -0.624312 0.781176 277.32 14.9233)"/>
</clipPath>
<clipPath id="clip2_44032_16881">
<rect width="33.2864" height="25.1386" fill="white" transform="matrix(0.844237 -0.535971 0.532733 0.846284 278.171 13.165)"/>
</clipPath>
<clipPath id="clip3_44032_16881">
<rect width="82.3922" height="127.982" fill="white" transform="matrix(-1 0 0 1 156.647 105.177)"/>
</clipPath>
<clipPath id="clip4_44032_16881">
<rect width="19.6656" height="13.2747" fill="white" transform="matrix(-1 0 0 1 166.141 166.786)"/>
</clipPath>
<clipPath id="clip5_44032_16881">
<rect width="154.273" height="191.633" fill="white" transform="matrix(-1 0 0 1 263.791 41.1858)"/>
</clipPath>
<clipPath id="clip6_44032_16881">
<rect width="121.045" height="98.7098" fill="white" transform="translate(217.339 135.13)"/>
</clipPath>
<clipPath id="clip7_44032_16881">
<rect width="77.6454" height="43.5684" fill="white" transform="matrix(-1 0 0 1 331.942 92.9233)"/>
</clipPath>
<clipPath id="clip8_44032_16881">
<rect width="55.9453" height="160.999" fill="white" transform="translate(360.423 73.1814)"/>
</clipPath>
<clipPath id="clip9_44032_16881">
<rect width="30.1766" height="159.978" fill="white" transform="translate(30.8547 74.2026)"/>
</clipPath>
<clipPath id="clip10_44032_16881">
<rect width="412.639" height="1.36151" fill="white" transform="translate(9.83276 232.819)"/>
</clipPath>
<clipPath id="clip11_44032_16881">
<rect width="69.8469" height="30.6341" fill="white" transform="matrix(1 0 0 -1 10.8501 74.8833)"/>
</clipPath>
<clipPath id="clip12_44032_16881">
<rect width="34.2453" height="11.5729" fill="white" transform="translate(27.8032 26.5496)"/>
</clipPath>
</defs>
</svg>
