<svg viewBox="0 0 503 283" fill="none" xmlns="http://www.w3.org/2000/svg">
<path d="M389.014 28.79H77.7888V273.263H389.014V28.79Z" fill="white"/>
<path d="M389.014 274.053H77.7889C77.5797 274.053 77.379 273.97 77.2311 273.821C77.0831 273.673 77 273.472 77 273.263V28.79C77 28.5805 77.0831 28.3795 77.2311 28.2314C77.379 28.0832 77.5797 28 77.7889 28H389.014C389.223 28 389.424 28.0832 389.572 28.2314C389.72 28.3795 389.803 28.5805 389.803 28.79V273.263C389.803 273.472 389.72 273.673 389.572 273.821C389.424 273.97 389.223 274.053 389.014 274.053ZM78.5778 272.473H388.225V29.58H78.5778V272.473Z" fill="#222433"/>
<path d="M389.014 52.3182L77.7889 52.2131C77.5797 52.2131 77.379 52.1299 77.2311 51.9818C77.0831 51.8336 77 51.6327 77 51.4232C77 51.2136 77.0831 51.0127 77.2311 50.8646C77.379 50.7164 77.5797 50.6332 77.7889 50.6332L389.014 50.7385C389.223 50.7385 389.424 50.8217 389.572 50.9699C389.72 51.118 389.803 51.319 389.803 51.5285C389.803 51.738 389.72 51.9389 389.572 52.0871C389.424 52.2352 389.223 52.3185 389.014 52.3185V52.3182Z" fill="#222433"/>
<path d="M92.5427 46.2881C95.1278 46.2881 97.2235 44.1896 97.2235 41.6009C97.2235 39.0122 95.1278 36.9137 92.5427 36.9137C89.9575 36.9137 87.8618 39.0122 87.8618 41.6009C87.8618 44.1896 89.9575 46.2881 92.5427 46.2881Z" fill="white"/>
<path d="M92.5415 47.0781C91.4597 47.0781 90.4022 46.7568 89.5027 46.155C88.6032 45.5531 87.9021 44.6977 87.4881 43.6969C87.0741 42.6961 86.9658 41.5948 87.1769 40.5323C87.3879 39.4698 87.9089 38.4939 88.6738 37.7279C89.4388 36.9619 90.4134 36.4402 91.4744 36.2289C92.5354 36.0176 93.6352 36.126 94.6347 36.5406C95.6342 36.9551 96.4884 37.6572 97.0894 38.5579C97.6905 39.4586 98.0113 40.5176 98.0113 41.6009C98.0096 43.053 97.4328 44.4452 96.4074 45.472C95.3819 46.4988 93.9917 47.0764 92.5415 47.0781ZM92.5415 37.7036C91.7718 37.7036 91.0193 37.9322 90.3793 38.3604C89.7393 38.7887 89.2404 39.3973 88.9458 40.1095C88.6513 40.8216 88.5742 41.6052 88.7244 42.3612C88.8745 43.1172 89.2452 43.8116 89.7895 44.3566C90.3338 44.9017 91.0273 45.2728 91.7822 45.4232C92.5372 45.5736 93.3197 45.4964 94.0309 45.2014C94.7421 44.9065 95.3499 44.407 95.7775 43.7661C96.2052 43.1252 96.4334 42.3717 96.4334 41.6009C96.4323 40.5676 96.0218 39.577 95.2922 38.8464C94.5626 38.1158 93.5734 37.7048 92.5415 37.7036Z" fill="#222433"/>
<path d="M105.875 46.2881C108.46 46.2881 110.556 44.1896 110.556 41.6009C110.556 39.0122 108.46 36.9137 105.875 36.9137C103.29 36.9137 101.194 39.0122 101.194 41.6009C101.194 44.1896 103.29 46.2881 105.875 46.2881Z" fill="white"/>
<path d="M105.874 47.0781C104.792 47.0781 103.735 46.7568 102.835 46.155C101.936 45.5531 101.235 44.6977 100.821 43.6969C100.407 42.6961 100.298 41.5948 100.509 40.5323C100.72 39.4698 101.241 38.4939 102.006 37.7279C102.771 36.9619 103.746 36.4402 104.807 36.2289C105.868 36.0176 106.968 36.126 107.967 36.5406C108.967 36.9551 109.821 37.6572 110.422 38.5579C111.023 39.4586 111.344 40.5176 111.344 41.6009C111.342 43.053 110.765 44.4452 109.74 45.472C108.714 46.4988 107.324 47.0764 105.874 47.0781ZM105.874 37.7036C105.104 37.7036 104.352 37.9322 103.712 38.3604C103.072 38.7887 102.573 39.3973 102.278 40.1095C101.984 40.8216 101.907 41.6052 102.057 42.3612C102.207 43.1172 102.578 43.8116 103.122 44.3566C103.666 44.9017 104.36 45.2728 105.115 45.4232C105.87 45.5736 106.652 45.4964 107.363 45.2014C108.075 44.9065 108.682 44.407 109.11 43.7661C109.538 43.1252 109.766 42.3717 109.766 41.6009C109.765 40.5676 109.354 39.577 108.625 38.8464C107.895 38.1158 106.906 37.7048 105.874 37.7036Z" fill="#222433"/>
<path d="M118.997 46.2881C121.582 46.2881 123.678 44.1896 123.678 41.6009C123.678 39.0122 121.582 36.9137 118.997 36.9137C116.412 36.9137 114.316 39.0122 114.316 41.6009C114.316 44.1896 116.412 46.2881 118.997 46.2881Z" fill="white"/>
<path d="M118.996 47.0781C117.914 47.0781 116.857 46.7568 115.957 46.155C115.058 45.5531 114.357 44.6977 113.943 43.6969C113.529 42.6961 113.42 41.5948 113.631 40.5323C113.843 39.4698 114.363 38.4939 115.128 37.7279C115.893 36.9619 116.868 36.4402 117.929 36.2289C118.99 36.0176 120.09 36.126 121.089 36.5406C122.089 36.9551 122.943 37.6572 123.544 38.5579C124.145 39.4586 124.466 40.5176 124.466 41.6009C124.464 43.053 123.887 44.4452 122.862 45.4721C121.837 46.4989 120.446 47.0765 118.996 47.0781ZM118.996 37.7036C118.226 37.7036 117.474 37.9322 116.834 38.3604C116.194 38.7887 115.695 39.3973 115.4 40.1095C115.106 40.8216 115.029 41.6052 115.179 42.3612C115.329 43.1172 115.7 43.8116 116.244 44.3566C116.788 44.9017 117.482 45.2728 118.237 45.4232C118.992 45.5736 119.774 45.4964 120.485 45.2014C121.197 44.9065 121.804 44.407 122.232 43.7661C122.66 43.1252 122.888 42.3717 122.888 41.6009C122.887 40.5676 122.476 39.577 121.747 38.8464C121.017 38.1158 120.028 37.7048 118.996 37.7036Z" fill="#222433"/>
<path d="M264.468 163.511H196.484V231.51H264.468V163.511Z" fill="#E2ECF7"/>
<path d="M176.443 163.511H108.066V231.903H176.443V163.511Z" fill="#E2ECF7"/>
<path d="M265.647 76.6459H197.663V144.644H265.647V76.6459Z" fill="#E2ECF7"/>
<path d="M354.851 76.2528H286.474V144.644H354.851V76.2528Z" fill="#E2ECF7"/>
<path d="M176.836 76.6459H108.852V144.644H176.836V76.6459Z" fill="#E2ECF7"/>
<path d="M353.672 162.725H285.688V230.724H353.672V162.725Z" fill="#E2ECF7"/>
<path d="M419.698 254.642C424.488 254.827 429.595 258.812 432.056 261.292C434.067 263.297 439.385 270 439.385 270C441.952 273.43 447.509 273.219 455.844 273.14L440.814 235.907L424.382 225.907L435.178 221.79L430.627 210.338L416.603 215.774" fill="#FC8383"/>
<path d="M388.263 259.023C388.29 259.392 419.857 257.439 419.857 257.439C419.951 257.433 420.043 257.408 420.127 257.365C420.211 257.323 420.286 257.265 420.348 257.194C420.409 257.123 420.456 257.04 420.485 256.951C420.515 256.862 420.526 256.768 420.519 256.674L417.317 216.724C417.299 216.542 417.214 216.373 417.079 216.249C417.009 216.183 416.925 216.134 416.833 216.107C416.741 216.079 416.644 216.074 416.55 216.09L411.549 216.486C411.152 216.513 367.121 222.186 367.174 222.555C366.751 222.582 388.263 259.023 388.263 259.023Z" fill="white"/>
<path d="M388.936 259.861C388.809 259.861 388.698 259.861 388.602 259.857C388.345 259.851 387.718 259.835 387.526 259.333C386.953 258.363 381.911 249.817 376.954 241.334C373.876 236.067 371.432 231.854 369.689 228.811C366.193 222.705 366.197 222.695 366.468 222.188C366.49 222.147 366.516 222.108 366.544 222.071C366.549 222.065 366.554 222.058 366.559 222.052C366.824 221.727 366.872 221.668 374.084 220.648C377.796 220.123 382.893 219.431 389.236 218.589C399.935 217.168 411.238 215.714 411.495 215.697L416.472 215.303C416.677 215.275 416.885 215.293 417.081 215.354C417.278 215.416 417.459 215.521 417.61 215.66C417.885 215.908 418.06 216.246 418.103 216.612C418.106 216.628 418.107 216.645 418.109 216.661L421.31 256.612C421.325 256.81 421.301 257.008 421.238 257.197C421.176 257.385 421.077 257.56 420.947 257.71C420.817 257.86 420.658 257.984 420.481 258.073C420.303 258.162 420.109 258.215 419.911 258.23C419.828 258.235 411.922 258.724 404.114 259.161C399.527 259.417 395.87 259.606 393.245 259.723C391.682 259.792 390.471 259.836 389.644 259.853C389.367 259.858 389.132 259.861 388.936 259.861ZM388.974 258.671C389.019 258.762 389.046 258.86 389.054 258.961C389.047 258.86 389.02 258.762 388.976 258.671H388.974ZM388.746 258.28C391.421 258.324 408.366 257.356 419.721 256.655L416.534 216.886L411.612 217.275C409.118 217.523 374.303 222.091 368.307 223.113C370.48 227.188 381.269 245.611 388.746 258.28Z" fill="#222433"/>
<path d="M349.234 254.009C348.255 258.152 346.085 261.688 343.492 262.902C335.924 261.609 328.541 266.438 328.859 272.322L363.972 272.639L379.584 256.648L383.13 265.672L394.614 261.002L385.75 241.554" fill="#FC8383"/>
<path d="M320.021 226.012L348.175 255.882C348.309 256.016 348.489 256.091 348.678 256.094C348.76 256.089 348.84 256.071 348.916 256.041L386.623 242.557C386.861 242.478 367.941 223.215 367.941 223.215L398.504 222.714C403.905 222.707 409.083 220.564 412.903 216.755C416.722 212.946 418.871 207.782 418.878 202.395C418.897 197.963 417.445 193.65 414.75 190.125C414.68 190.038 414.592 189.967 414.491 189.917C414.391 189.867 414.281 189.839 414.168 189.835L346.35 190.864L334.839 191.049C330.806 191.11 326.877 192.34 323.532 194.588C320.187 196.837 317.57 200.007 315.999 203.713C314.429 207.418 313.973 211.499 314.687 215.458C315.401 219.418 317.254 223.084 320.021 226.012Z" fill="white"/>
<path d="M348.678 256.885C348.279 256.883 347.896 256.724 347.614 256.442L319.443 226.554L319.441 226.552C316.569 223.513 314.646 219.706 313.905 215.596C313.164 211.486 313.638 207.25 315.268 203.403C316.899 199.556 319.616 196.266 323.088 193.932C326.561 191.598 330.639 190.321 334.826 190.257L346.337 190.072L414.156 189.043C414.189 189.043 414.222 189.044 414.255 189.048C414.478 189.062 414.696 189.125 414.893 189.231C415.09 189.338 415.262 189.486 415.395 189.665C418.189 193.322 419.693 197.798 419.672 202.395C419.666 207.992 417.433 213.358 413.465 217.315C409.496 221.273 404.116 223.499 398.504 223.505L369.799 223.976C371.519 225.73 374.713 228.99 377.876 232.238C380.594 235.028 382.757 237.263 384.305 238.879C387.52 242.233 387.52 242.233 387.396 242.742C387.364 242.873 387.3 242.993 387.208 243.093C387.117 243.192 387.002 243.266 386.873 243.309L349.184 256.786C349.022 256.847 348.851 256.881 348.678 256.885ZM320.6 225.47L348.696 255.279L385.271 242.2C382.693 239.422 373.622 230.13 367.375 223.769C367.266 223.659 367.193 223.519 367.163 223.367C367.133 223.215 367.149 223.057 367.208 222.914C367.267 222.771 367.366 222.648 367.495 222.561C367.623 222.474 367.774 222.426 367.929 222.423L398.491 221.922C403.685 221.919 408.665 219.861 412.338 216.2C416.012 212.539 418.079 207.574 418.085 202.395C418.104 198.148 416.717 194.013 414.14 190.631L414.121 190.627L346.362 191.656L334.852 191.841C330.972 191.9 327.194 193.084 323.976 195.246C320.759 197.409 318.242 200.458 316.732 204.023C315.221 207.587 314.783 211.512 315.47 215.32C316.157 219.128 317.94 222.655 320.601 225.471L320.6 225.47Z" fill="#222433"/>
<path d="M424.514 224.877L428.96 219.811C429.653 219.013 430.07 218.014 430.151 216.961L432.955 190.468C433.908 184.663 433.167 178.805 428.113 175.454L403.505 156.93C400.964 155.109 397.683 154.027 394.72 155.056L383.871 159.015C383.209 159.305 382.177 160.281 381.78 160.888L369.873 177.565L355.452 165.902C353.626 164.556 349.869 163.368 348.361 165.057L339.999 176.932C339.179 178.383 339.364 181.47 340.634 182.552L351.615 191.181L364.978 191.049L376.674 190.547L409.776 191.075L407.685 215.642L417.714 209.177C423.059 209.757 425.758 213.029 426.499 218.333L424.514 224.877Z" fill="#9AE2E0"/>
<path d="M375.667 191.524C375.464 191.524 375.27 191.446 375.122 191.307C374.975 191.169 374.887 190.979 374.875 190.777C374.714 187.97 374.897 186.775 375.902 184.049C377.076 180.781 377.391 177.268 376.817 173.844C376.786 173.639 376.837 173.43 376.959 173.262C377.081 173.094 377.265 172.981 377.47 172.947C377.675 172.912 377.885 172.959 378.056 173.078C378.226 173.196 378.344 173.377 378.382 173.58C379.002 177.273 378.662 181.063 377.395 184.587C376.459 187.125 376.312 188.093 376.46 190.688C376.472 190.898 376.4 191.104 376.26 191.26C376.12 191.417 375.923 191.512 375.713 191.524C375.698 191.524 375.682 191.524 375.667 191.524Z" fill="#222433"/>
<path d="M343.148 191.708C342.937 191.709 342.735 191.626 342.586 191.478C342.436 191.33 342.352 191.129 342.352 190.919C342.351 190.709 342.434 190.507 342.583 190.359C342.731 190.21 342.933 190.126 343.143 190.125L407.569 189.766L398.388 180.496C398.315 180.422 398.257 180.335 398.218 180.238C398.179 180.142 398.159 180.039 398.159 179.935C398.16 179.831 398.181 179.728 398.222 179.632C398.262 179.536 398.321 179.45 398.395 179.376C398.47 179.303 398.557 179.246 398.654 179.206C398.751 179.167 398.854 179.147 398.958 179.148C399.062 179.149 399.166 179.17 399.262 179.21C399.358 179.251 399.445 179.31 399.518 179.383L410.023 189.991C410.133 190.102 410.207 190.243 410.237 190.396C410.267 190.548 410.251 190.707 410.192 190.851C410.132 190.995 410.031 191.118 409.901 191.205C409.771 191.291 409.619 191.338 409.463 191.339L343.152 191.708H343.148Z" fill="#222433"/>
<path d="M390.221 132.944C398.844 132.944 405.833 125.974 405.833 117.375C405.833 108.777 398.844 101.807 390.221 101.807C381.599 101.807 374.61 108.777 374.61 117.375C374.61 125.974 381.599 132.944 390.221 132.944Z" fill="white"/>
<path d="M390.221 133.736C386.977 133.736 383.805 132.776 381.107 130.978C378.409 129.181 376.306 126.626 375.064 123.636C373.823 120.647 373.498 117.357 374.131 114.184C374.764 111.01 376.326 108.095 378.621 105.807C380.915 103.519 383.838 101.961 387.021 101.33C390.203 100.698 393.502 101.022 396.499 102.261C399.497 103.499 402.059 105.596 403.862 108.286C405.665 110.977 406.627 114.14 406.627 117.375C406.622 121.713 404.892 125.871 401.816 128.938C398.741 132.005 394.571 133.731 390.221 133.736ZM390.221 102.599C387.291 102.599 384.426 103.465 381.989 105.089C379.552 106.713 377.653 109.02 376.531 111.721C375.41 114.421 375.116 117.392 375.688 120.258C376.26 123.125 377.671 125.758 379.743 127.824C381.816 129.891 384.456 131.298 387.33 131.868C390.205 132.439 393.184 132.146 395.892 131.027C398.6 129.909 400.914 128.015 402.542 125.585C404.17 123.155 405.039 120.298 405.039 117.375C405.035 113.458 403.472 109.702 400.694 106.931C397.916 104.161 394.15 102.603 390.221 102.599Z" fill="#222433"/>
<path d="M393.952 142.681C394.032 143.261 394.085 143.842 394.111 144.422C394.129 145.236 394.067 146.049 393.926 146.85L397.286 154.951C397.286 154.951 397.789 156.138 398.398 157.643C398.742 158.471 398.92 159.358 398.92 160.255C398.92 161.152 398.744 162.039 398.399 162.868C398.055 163.696 397.551 164.449 396.915 165.083C396.279 165.716 395.524 166.219 394.693 166.561C393.863 166.905 392.973 167.082 392.073 167.083C391.174 167.083 390.284 166.906 389.453 166.563C388.623 166.22 387.868 165.717 387.232 165.083C386.597 164.449 386.093 163.696 385.749 162.867L383.553 157.59C382.77 157.759 381.973 157.847 381.172 157.854C379.439 157.891 377.716 157.587 376.102 156.96C374.487 156.333 373.012 155.395 371.761 154.199C370.51 153.003 369.508 151.573 368.812 149.99C368.116 148.408 367.739 146.704 367.703 144.977C367.68 143.398 367.931 141.826 368.444 140.332C367.847 138.864 367.524 137.299 367.492 135.715C367.479 135.151 367.506 134.586 367.571 134.026L372.737 124.888" fill="white"/>
<path d="M392.071 167.881C390.561 167.877 389.086 167.428 387.83 166.59C386.575 165.752 385.596 164.563 385.017 163.172L383.066 158.485C382.44 158.59 381.807 158.643 381.172 158.646C377.465 158.721 373.881 157.325 371.206 154.765C368.531 152.205 366.986 148.691 366.91 144.995C366.886 143.421 367.12 141.854 367.601 140.356C367.035 138.877 366.729 137.311 366.698 135.728C366.685 135.124 366.714 134.52 366.784 133.92C366.798 133.82 366.83 133.725 366.88 133.638L372.046 124.5C372.097 124.409 372.165 124.33 372.247 124.266C372.33 124.202 372.423 124.154 372.524 124.126C372.624 124.098 372.729 124.09 372.833 124.103C372.936 124.115 373.036 124.148 373.127 124.199C373.218 124.25 373.298 124.319 373.362 124.401C373.426 124.482 373.474 124.576 373.502 124.676C373.53 124.776 373.538 124.881 373.525 124.984C373.513 125.087 373.48 125.187 373.429 125.278L368.339 134.279C368.294 134.757 368.277 135.236 368.286 135.716C368.318 137.199 368.622 138.665 369.182 140.039C369.252 140.215 369.258 140.409 369.197 140.588C368.713 141.996 368.477 143.476 368.498 144.964C368.532 146.588 368.886 148.189 369.541 149.675C370.195 151.162 371.137 152.506 372.313 153.629C373.488 154.753 374.874 155.634 376.391 156.224C377.909 156.813 379.528 157.098 381.156 157.063C381.908 157.057 382.658 156.974 383.393 156.816C383.574 156.778 383.762 156.805 383.925 156.891C384.089 156.977 384.217 157.117 384.287 157.287L386.484 162.565C386.787 163.298 387.233 163.965 387.796 164.526C388.359 165.087 389.027 165.532 389.762 165.834C390.495 166.14 391.282 166.298 392.076 166.297C392.87 166.297 393.656 166.138 394.389 165.832C395.87 165.218 397.047 164.043 397.661 162.565C398.276 161.088 398.277 159.427 397.666 157.948C397.063 156.459 396.561 155.272 396.556 155.26L393.193 147.153C393.136 147.017 393.119 146.867 393.144 146.721C393.277 145.971 393.336 145.21 393.318 144.449C393.294 143.904 393.242 143.342 393.167 142.789C393.152 142.685 393.158 142.58 393.184 142.479C393.21 142.378 393.256 142.283 393.319 142.2C393.382 142.117 393.461 142.047 393.552 141.995C393.642 141.942 393.742 141.908 393.845 141.893C393.949 141.879 394.054 141.886 394.155 141.913C394.257 141.939 394.351 141.985 394.434 142.049C394.518 142.112 394.587 142.191 394.64 142.281C394.692 142.372 394.726 142.471 394.74 142.575C394.822 143.175 394.877 143.785 394.905 144.387C394.926 145.18 394.873 145.972 394.746 146.755L398.021 154.649C398.024 154.656 398.531 155.855 399.135 157.347C399.612 158.505 399.796 159.762 399.671 161.008C399.546 162.254 399.115 163.45 398.417 164.49C397.719 165.531 396.775 166.385 395.669 166.976C394.562 167.567 393.327 167.878 392.071 167.881Z" fill="#222433"/>
<path d="M366.936 133.92C367.359 129.962 368.471 127.323 370.588 125.292C371.956 123.981 373.57 122.952 375.338 122.264C377.106 121.576 378.992 121.242 380.889 121.281C382.786 121.32 384.657 121.732 386.394 122.492C388.132 123.253 389.702 124.348 391.015 125.714C393.079 127.858 394.428 130.586 394.878 133.524L394.984 134.237C395.037 134.58 391.571 132.574 390.354 132.627C384.426 132.891 385.035 137.957 384.718 137.957H384.665C377.186 136.606 371.011 130.332 371.011 130.332L368.021 134.342C367.94 134.456 367.822 134.539 367.687 134.577C367.553 134.616 367.409 134.607 367.28 134.554C367.167 134.492 367.075 134.4 367.014 134.288C366.953 134.175 366.926 134.048 366.936 133.92Z" fill="white"/>
<path d="M384.717 138.749H384.665C384.617 138.749 384.57 138.745 384.523 138.736C378.234 137.599 372.933 133.192 371.112 131.523L368.667 134.802C368.482 135.06 368.216 135.248 367.911 135.337C367.605 135.425 367.279 135.408 366.985 135.288C366.964 135.28 366.944 135.271 366.925 135.262C366.668 135.129 366.458 134.923 366.319 134.67C366.18 134.418 366.12 134.129 366.146 133.842V133.837C366.589 129.69 367.789 126.879 370.035 124.722C371.479 123.339 373.182 122.254 375.047 121.527C376.911 120.801 378.901 120.449 380.903 120.49C382.904 120.531 384.878 120.965 386.711 121.767C388.544 122.57 390.2 123.724 391.586 125.165C393.763 127.428 395.186 130.306 395.661 133.406L395.767 134.121C395.789 134.267 395.771 134.416 395.716 134.553C395.66 134.69 395.569 134.809 395.451 134.898C394.992 135.245 394.594 135.066 393.279 134.471C392.447 134.095 390.904 133.403 390.385 133.419C386.229 133.603 385.825 136.304 385.63 137.601C385.573 138.002 385.461 138.749 384.717 138.749ZM371.011 129.54C371.116 129.54 371.221 129.561 371.318 129.602C371.415 129.643 371.503 129.702 371.577 129.777C371.635 129.836 377.286 135.503 384.114 137.038C384.372 135.496 385.255 132.062 390.318 131.837C391.151 131.81 392.394 132.332 393.937 133.029L393.99 133.053C393.384 130.006 391.752 127.256 389.365 125.259C386.979 123.262 383.979 122.137 380.864 122.072C379.072 122.03 377.289 122.343 375.619 122.994C373.95 123.644 372.426 124.62 371.138 125.863C369.278 127.647 368.265 129.897 367.81 133.299L370.374 129.859C370.442 129.768 370.529 129.692 370.63 129.637C370.73 129.583 370.842 129.55 370.956 129.543C370.975 129.54 370.993 129.54 371.011 129.54H371.011ZM394.198 134.349V134.357V134.349Z" fill="#222433"/>
<path d="M392.365 143.578C393.251 143.239 394.04 142.685 394.658 141.966C395.277 141.248 395.708 140.387 395.91 139.462C396.219 137.999 395.933 136.474 395.114 135.222C394.295 133.97 393.011 133.094 391.544 132.786C390.078 132.478 388.548 132.763 387.293 133.58C386.037 134.396 385.159 135.677 384.85 137.139C384.696 137.87 384.687 138.623 384.823 139.356" fill="white"/>
<path d="M392.365 144.37C392.18 144.37 392.001 144.306 391.858 144.188C391.716 144.07 391.619 143.907 391.584 143.726C391.55 143.545 391.58 143.357 391.669 143.196C391.759 143.034 391.902 142.909 392.074 142.841C392.838 142.548 393.517 142.07 394.051 141.451C394.585 140.832 394.957 140.091 395.135 139.294C395.391 138.04 395.139 136.736 394.434 135.667C393.73 134.598 392.629 133.85 391.374 133.587C390.118 133.324 388.809 133.567 387.733 134.262C386.656 134.958 385.899 136.051 385.627 137.301C385.495 137.93 385.487 138.58 385.604 139.212C385.623 139.314 385.622 139.419 385.6 139.521C385.578 139.623 385.537 139.719 385.478 139.805C385.419 139.89 385.343 139.963 385.256 140.02C385.168 140.077 385.07 140.115 384.968 140.134C384.865 140.153 384.76 140.152 384.658 140.13C384.556 140.109 384.46 140.067 384.374 140.008C384.288 139.949 384.214 139.874 384.158 139.787C384.101 139.7 384.062 139.602 384.043 139.5C383.888 138.666 383.898 137.809 384.073 136.979C384.424 135.311 385.426 133.85 386.857 132.918C388.288 131.986 390.032 131.66 391.705 132.01C393.378 132.36 394.843 133.359 395.777 134.787C396.712 136.214 397.039 137.953 396.688 139.622C396.457 140.675 395.967 141.655 395.264 142.473C394.56 143.292 393.664 143.925 392.656 144.314C392.563 144.351 392.465 144.37 392.365 144.37Z" fill="#222433"/>
<path d="M372.228 148.117C372.109 148.116 371.992 148.09 371.886 148.039L368.896 146.614C368.71 146.526 368.566 146.368 368.494 146.176C368.422 145.983 368.428 145.77 368.511 145.582L370.866 140.225C370.95 140.033 371.108 139.882 371.304 139.805C371.501 139.729 371.719 139.733 371.912 139.818C372.105 139.902 372.257 140.059 372.333 140.255C372.41 140.451 372.406 140.669 372.321 140.861L370.275 145.516L372.572 146.61C372.734 146.688 372.866 146.818 372.944 146.98C373.023 147.142 373.044 147.325 373.004 147.501C372.964 147.676 372.865 147.833 372.724 147.945C372.583 148.056 372.408 148.117 372.228 148.117Z" fill="#222433"/>
<path d="M376.012 142.338C376.553 142.338 376.991 141.901 376.991 141.361C376.991 140.822 376.553 140.385 376.012 140.385C375.471 140.385 375.033 140.822 375.033 141.361C375.033 141.901 375.471 142.338 376.012 142.338Z" fill="#222433"/>
<path d="M368.867 143.129C369.408 143.129 369.847 142.692 369.847 142.153C369.847 141.614 369.408 141.177 368.867 141.177C368.327 141.177 367.888 141.614 367.888 142.153C367.888 142.692 368.327 143.129 368.867 143.129Z" fill="#222433"/>
<path d="M374.316 151.758C373.602 151.759 372.905 151.547 372.313 151.149L371.875 150.867C371.786 150.811 371.708 150.738 371.647 150.653C371.585 150.567 371.542 150.47 371.519 150.367C371.496 150.264 371.493 150.158 371.512 150.054C371.53 149.951 371.569 149.852 371.627 149.764C371.684 149.675 371.759 149.599 371.846 149.54C371.933 149.48 372.031 149.439 372.135 149.418C372.238 149.397 372.345 149.397 372.448 149.417C372.552 149.438 372.65 149.478 372.738 149.537L373.187 149.828C373.412 149.977 373.664 150.081 373.929 150.134C374.194 150.186 374.467 150.186 374.732 150.133C374.997 150.08 375.249 149.976 375.474 149.826C375.698 149.676 375.891 149.483 376.041 149.258C376.08 149.202 376.115 149.144 376.146 149.084L376.199 148.977C376.294 148.789 376.459 148.646 376.659 148.58C376.859 148.514 377.077 148.53 377.265 148.624C377.453 148.718 377.596 148.883 377.662 149.082C377.729 149.281 377.713 149.499 377.619 149.686L377.566 149.792C377.505 149.912 377.436 150.027 377.359 150.138C377.024 150.636 376.571 151.044 376.041 151.327C375.51 151.609 374.918 151.758 374.316 151.758Z" fill="#222433"/>
<path d="M383.605 158.355C383.409 158.355 383.219 158.282 383.074 158.151C382.928 158.019 382.836 157.839 382.816 157.644C382.796 157.449 382.849 157.253 382.966 157.095C383.082 156.937 383.253 156.828 383.445 156.788C385.603 156.347 387.604 155.337 389.238 153.864C389.314 153.792 389.405 153.737 389.503 153.7C389.602 153.664 389.707 153.647 389.812 153.652C389.917 153.656 390.02 153.681 390.115 153.725C390.21 153.77 390.296 153.833 390.366 153.91C390.437 153.988 390.492 154.078 390.527 154.177C390.562 154.276 390.577 154.381 390.572 154.485C390.566 154.59 390.54 154.692 390.494 154.787C390.448 154.881 390.384 154.966 390.305 155.035C388.461 156.7 386.204 157.84 383.767 158.338C383.714 158.349 383.66 158.355 383.605 158.355Z" fill="#222433"/>
<path d="M388.342 140.174C388.188 140.174 388.038 140.129 387.909 140.046C387.78 139.962 387.679 139.842 387.616 139.702C387.554 139.562 387.534 139.406 387.559 139.255C387.584 139.103 387.652 138.963 387.756 138.849L391.037 135.26C391.179 135.105 391.377 135.013 391.587 135.003C391.797 134.993 392.003 135.067 392.159 135.209C392.314 135.35 392.407 135.548 392.417 135.757C392.426 135.967 392.352 136.172 392.21 136.327L390.333 138.38L392.838 138.12C393.047 138.098 393.257 138.16 393.42 138.293C393.584 138.425 393.688 138.617 393.71 138.826C393.732 139.035 393.669 139.243 393.537 139.407C393.404 139.57 393.212 139.673 393.002 139.695L388.425 140.17C388.397 140.173 388.37 140.174 388.342 140.174Z" fill="#222433"/>
<path d="M418.534 209.23C425.149 209.731 429.78 217.885 425.017 223.162C424.964 223.241 424.885 223.294 424.832 223.373C422.635 225.643 420.836 228.308 421.842 232.794C422.556 235.96 424.117 240.604 421.101 241.158C419.01 241.554 416.946 236.224 415.306 232.319C415.121 238.388 414.856 246.33 412.104 246.409C409.352 246.489 408.638 242.425 408.955 234.561C407.103 243.137 407.659 246.172 405.013 245.934C400.62 245.539 403.399 227.78 405.992 221.896C405.992 221.896 406.574 220.471 408.426 215.272C410.252 209.968 415.068 208.966 418.534 209.23Z" fill="white"/>
<path d="M412.024 247.201C411.632 247.208 411.242 247.134 410.88 246.984C410.517 246.834 410.189 246.612 409.916 246.33C409.146 245.553 408.633 244.246 408.352 242.247C408.126 243.52 407.918 244.45 407.607 245.146C407.082 246.32 406.21 246.835 404.942 246.721C404.375 246.67 403.57 246.39 402.953 245.347C400.439 241.101 402.963 226.8 405.265 221.575C405.265 221.575 405.863 220.1 407.678 215.005C409.98 208.317 416.615 208.287 418.594 208.438C422.26 208.716 425.677 211.277 427.097 214.811C428.368 217.977 427.836 221.198 425.636 223.657C425.59 223.717 425.54 223.773 425.486 223.826L425.472 223.839C425.451 223.868 425.428 223.895 425.403 223.921C423.095 226.306 421.737 228.697 422.616 232.619C422.701 232.992 422.797 233.387 422.896 233.794C423.502 236.277 424.189 239.091 423.118 240.739C422.908 241.058 422.632 241.33 422.31 241.537C421.987 241.743 421.624 241.878 421.244 241.935C419.152 242.333 417.5 239.395 415.965 235.909C415.647 242.458 414.906 247.119 412.128 247.199C412.093 247.201 412.058 247.201 412.024 247.201ZM408.955 233.77C408.989 233.77 409.022 233.772 409.056 233.776C409.253 233.801 409.434 233.899 409.562 234.05C409.691 234.202 409.757 234.396 409.749 234.594C409.594 238.438 409.559 243.72 411.046 245.219C411.179 245.357 411.34 245.465 411.519 245.534C411.698 245.602 411.89 245.631 412.081 245.618C412.353 245.61 413.285 245.289 413.883 241.487C414.316 238.738 414.425 235.165 414.512 232.294C414.518 232.114 414.585 231.94 414.703 231.803C414.821 231.666 414.983 231.573 415.161 231.54C415.34 231.507 415.524 231.536 415.683 231.622C415.843 231.708 415.968 231.846 416.038 232.012L416.37 232.805C417.143 234.658 418.019 236.758 418.916 238.297C420.12 240.36 420.78 240.413 420.953 240.382C421.12 240.364 421.281 240.31 421.425 240.224C421.569 240.137 421.692 240.02 421.786 239.88C422.484 238.805 421.857 236.235 421.354 234.171C421.252 233.755 421.154 233.35 421.067 232.967C419.976 228.098 422.042 225.125 424.224 222.861C424.267 222.807 424.314 222.756 424.363 222.708L424.377 222.694C424.392 222.673 424.409 222.652 424.427 222.632C426.23 220.634 426.666 217.999 425.623 215.402C424.423 212.416 421.55 210.253 418.474 210.019C416.306 209.853 411.06 210.061 409.177 215.529C407.337 220.694 406.751 222.135 406.727 222.195C404.402 227.472 402.314 241.155 404.319 244.545C404.618 245.049 404.899 245.13 405.084 245.147C406.116 245.245 406.336 244.712 407.049 240.441C407.317 238.838 407.65 236.845 408.179 234.396C408.217 234.218 408.315 234.06 408.456 233.946C408.597 233.832 408.773 233.77 408.955 233.77H408.955ZM425.493 223.812L425.491 223.815L425.493 223.812Z" fill="#222433"/>
<path d="M339.9 172.947C338.788 173.264 337.79 172.178 337.495 172.042C332.687 169.577 328.015 169.215 327.629 166.524C327.56 166.109 327.647 165.684 327.873 165.329C328.099 164.974 328.448 164.715 328.854 164.601C330.351 164.194 332.687 164.85 336.18 165.506C339.514 166.116 342.961 164.148 346.749 164.963" fill="white"/>
<path d="M339.483 173.797C338.512 173.797 337.718 173.19 337.298 172.869C337.232 172.819 337.178 172.776 337.135 172.747H337.132C335.618 172.002 334.058 171.353 332.461 170.803C329.501 169.721 327.163 168.867 326.843 166.636C326.745 166.03 326.874 165.409 327.207 164.892C327.54 164.376 328.053 164 328.647 163.837C330.013 163.466 331.817 163.829 334.313 164.333C334.937 164.458 335.607 164.593 336.327 164.728C337.76 164.991 339.273 164.718 340.876 164.43C342.79 164.084 344.769 163.728 346.916 164.19C347.121 164.235 347.299 164.36 347.412 164.536C347.525 164.712 347.564 164.925 347.52 165.13C347.476 165.334 347.352 165.513 347.176 165.626C347.001 165.74 346.787 165.78 346.582 165.738C344.741 165.342 342.92 165.67 341.157 165.987C339.485 166.289 337.756 166.601 336.035 166.285C335.305 166.148 334.628 166.011 333.998 165.885C331.715 165.425 330.067 165.093 329.061 165.365C328.844 165.427 328.657 165.568 328.537 165.759C328.417 165.95 328.372 166.179 328.412 166.401C328.59 167.646 330.191 168.288 333.006 169.316C334.661 169.887 336.277 170.56 337.846 171.334C337.994 171.413 338.133 171.507 338.262 171.613C338.611 171.879 339.194 172.326 339.68 172.187C339.78 172.158 339.885 172.149 339.989 172.161C340.092 172.173 340.192 172.205 340.283 172.256C340.375 172.306 340.455 172.374 340.52 172.455C340.585 172.537 340.633 172.63 340.661 172.73C340.69 172.83 340.699 172.935 340.687 173.038C340.675 173.141 340.643 173.241 340.592 173.332C340.541 173.423 340.473 173.503 340.392 173.568C340.31 173.632 340.216 173.68 340.116 173.709C339.91 173.767 339.697 173.797 339.483 173.797ZM337.147 172.753L337.163 172.761L337.147 172.753Z" fill="#222433"/>
<path d="M340.489 167.134C341.532 165.98 342.712 165.37 343.188 165.257C349.448 163.312 354.959 169.011 352.828 174.711C351.716 177.719 349.017 180.863 343.846 180.388C338.765 179.936 336.225 178.85 336.225 178.85C326.495 176.181 318.511 173.331 316.629 170.911C315.767 169.826 316.719 168.152 318.035 167.767C320.779 166.976 330.759 171.635 335.181 172.133" fill="white"/>
<path d="M344.892 181.229C344.533 181.229 344.159 181.212 343.772 181.176C338.969 180.749 336.378 179.767 335.966 179.6C324.344 176.41 317.814 173.726 316.001 171.396C315.757 171.08 315.596 170.709 315.532 170.316C315.468 169.922 315.503 169.519 315.634 169.143C315.8 168.64 316.085 168.184 316.463 167.812C316.842 167.441 317.304 167.165 317.811 167.007C319.491 166.523 322.64 167.507 327.628 169.184C330.487 170.146 333.444 171.14 335.27 171.346C335.373 171.357 335.474 171.389 335.565 171.44C335.656 171.49 335.736 171.558 335.801 171.639C335.866 171.72 335.915 171.814 335.944 171.913C335.972 172.013 335.981 172.118 335.97 172.221C335.958 172.325 335.926 172.425 335.875 172.516C335.825 172.607 335.757 172.687 335.676 172.752C335.594 172.816 335.5 172.865 335.4 172.893C335.3 172.922 335.195 172.931 335.092 172.919C333.098 172.695 330.195 171.718 327.12 170.684C323.76 169.554 319.576 168.146 318.256 168.528C317.999 168.612 317.765 168.755 317.573 168.945C317.381 169.135 317.236 169.367 317.148 169.622C317.095 169.753 317.077 169.895 317.095 170.034C317.113 170.174 317.167 170.307 317.251 170.419C318.142 171.565 321.812 174.076 336.435 178.086C336.47 178.096 336.504 178.108 336.537 178.122C336.56 178.132 339.051 179.166 343.916 179.6C349.184 180.085 351.293 176.573 352.082 174.438C352.514 173.317 352.615 172.096 352.373 170.92C352.131 169.744 351.555 168.662 350.715 167.802C349.792 166.849 348.618 166.176 347.328 165.859C346.038 165.543 344.685 165.596 343.424 166.013C343.406 166.018 343.389 166.023 343.371 166.027C342.485 166.38 341.699 166.941 341.078 167.663C340.937 167.819 340.74 167.913 340.529 167.924C340.319 167.935 340.113 167.862 339.957 167.721C339.8 167.58 339.706 167.384 339.696 167.174C339.685 166.964 339.758 166.759 339.899 166.603C341.047 165.334 342.352 164.652 342.974 164.492C346.214 163.494 349.62 164.344 351.868 166.712C352.905 167.791 353.615 169.14 353.916 170.604C354.217 172.068 354.097 173.587 353.571 174.986C352.857 176.925 350.617 181.229 344.892 181.229Z" fill="#222433"/>
<path d="M336.838 179.099C327.697 174.824 321.891 171.635 320.439 168.943C320.286 168.656 320.199 168.338 320.185 168.012C320.171 167.687 320.231 167.363 320.359 167.063C320.487 166.764 320.681 166.497 320.927 166.282C321.172 166.068 321.463 165.91 321.777 165.823C323.342 165.416 332.483 170.459 336.701 170.912" fill="white"/>
<path d="M336.837 179.891C336.72 179.891 336.606 179.865 336.5 179.816C327.337 175.53 321.337 172.279 319.74 169.318C319.53 168.926 319.41 168.491 319.391 168.047C319.372 167.602 319.453 167.159 319.629 166.75C319.804 166.341 320.07 165.976 320.406 165.683C320.742 165.39 321.139 165.176 321.569 165.057C322.534 164.806 324.46 165.588 328.066 167.109C331.166 168.417 334.678 169.898 336.786 170.124C336.891 170.133 336.993 170.164 337.085 170.213C337.178 170.263 337.26 170.33 337.327 170.411C337.393 170.492 337.443 170.586 337.473 170.686C337.503 170.787 337.513 170.892 337.501 170.996C337.49 171.101 337.458 171.202 337.407 171.294C337.357 171.385 337.288 171.466 337.206 171.532C337.124 171.597 337.029 171.645 336.928 171.674C336.827 171.702 336.721 171.71 336.616 171.698C334.276 171.447 330.648 169.917 327.448 168.568C325.274 167.651 322.57 166.518 321.961 166.591C321.767 166.647 321.588 166.746 321.438 166.881C321.287 167.015 321.169 167.181 321.091 167.367C321.007 167.558 320.968 167.765 320.976 167.973C320.984 168.181 321.04 168.385 321.139 168.568C322.605 171.286 329.712 174.892 337.174 178.382C337.337 178.458 337.47 178.588 337.55 178.75C337.629 178.911 337.651 179.095 337.612 179.271C337.573 179.447 337.474 179.604 337.333 179.717C337.192 179.829 337.017 179.891 336.836 179.89L336.837 179.891Z" fill="#222433"/>
<path d="M258.698 264.133H209.407C205.149 264.133 201.672 260.444 201.672 255.947C201.672 251.45 205.149 247.761 209.407 247.761H258.698C262.956 247.761 266.433 251.45 266.433 255.947C266.433 260.444 262.956 264.133 258.698 264.133Z" fill="#0782D0"/>
<path d="M255.276 259.582H207.197C205.197 259.577 203.281 258.78 201.867 257.368C200.454 255.955 199.657 254.04 199.651 252.042C199.657 250.044 200.454 248.13 201.867 246.717C203.281 245.304 205.197 244.508 207.197 244.502H255.276C257.275 244.508 259.191 245.304 260.605 246.717C262.019 248.13 262.816 250.044 262.822 252.042C262.816 254.04 262.019 255.955 260.605 257.368C259.191 258.78 257.275 259.577 255.276 259.582Z" fill="white"/>
<path d="M255.276 260.39H207.197C204.981 260.39 202.856 259.511 201.289 257.945C199.722 256.38 198.842 254.256 198.842 252.042C198.842 249.828 199.722 247.705 201.289 246.139C202.856 244.574 204.981 243.694 207.197 243.694H255.276C257.491 243.694 259.616 244.574 261.183 246.139C262.75 247.705 263.63 249.828 263.63 252.042C263.63 254.256 262.75 256.38 261.183 257.945C259.616 259.511 257.491 260.39 255.276 260.39ZM207.197 245.31C205.41 245.31 203.696 246.019 202.433 247.282C201.169 248.545 200.459 250.257 200.459 252.042C200.459 253.828 201.169 255.54 202.433 256.803C203.696 258.065 205.41 258.775 207.197 258.775H255.276C257.063 258.775 258.776 258.065 260.04 256.803C261.303 255.54 262.013 253.828 262.013 252.042C262.013 250.257 261.303 248.545 260.04 247.282C258.776 246.019 257.063 245.31 255.276 245.31H207.197Z" fill="#222433"/>
<path d="M175.271 115.441C175.197 115.441 175.123 115.43 175.051 115.409L163.621 112.077C163.422 112.019 163.255 111.885 163.156 111.704C163.057 111.524 163.034 111.312 163.092 111.115C163.15 110.917 163.285 110.751 163.466 110.653C163.648 110.554 163.861 110.531 164.059 110.589L175.49 113.922C175.67 113.974 175.825 114.089 175.927 114.246C176.029 114.403 176.07 114.591 176.043 114.776C176.017 114.96 175.924 115.129 175.782 115.252C175.64 115.374 175.459 115.441 175.271 115.441Z" fill="#222433"/>
<path d="M163.84 111.333C161.813 105.029 150.928 103.867 144.771 106.037C144.486 106.14 144.2 106.243 143.914 106.373C142.952 106.814 141.861 106.887 140.848 106.579L138.303 105.778C137.294 105.445 136.444 104.756 135.912 103.841C135.763 103.581 135.598 103.331 135.419 103.092C131.652 97.7953 122.04 92.5249 116.766 96.5035C111.492 100.482 109.44 107.794 116.636 114.485C122.014 119.471 130.249 116.629 131.34 115.906C133.47 114.485 135.211 112.909 136.224 111.152C136.367 110.872 136.602 110.649 136.891 110.522C137.18 110.395 137.504 110.371 137.809 110.455L138.588 110.687C138.884 110.793 139.134 110.997 139.296 111.266C139.457 111.534 139.519 111.85 139.472 112.16C139.29 114.149 139.783 116.448 140.719 118.825C141.186 120.014 146.278 127.092 153.552 126.085C163.268 124.767 165.84 117.637 163.84 111.333Z" fill="white"/>
<path d="M152.123 126.959C145.038 126.959 140.392 120.12 139.993 119.107C138.949 116.454 138.512 114.092 138.695 112.089C138.697 112.069 138.699 112.05 138.703 112.031C138.72 111.903 138.692 111.773 138.625 111.662C138.559 111.551 138.456 111.465 138.334 111.42L137.585 111.196C137.456 111.164 137.321 111.177 137.2 111.232C137.079 111.286 136.981 111.38 136.921 111.498C136.914 111.511 136.908 111.524 136.9 111.537C135.896 113.279 134.219 114.918 131.774 116.549C130.799 117.195 122.001 120.519 116.104 115.051C112.726 111.909 111.038 108.352 111.224 104.763C111.397 101.422 113.245 98.1862 116.295 95.8855C118.06 94.5535 120.408 94.0662 123.082 94.4765C128.356 95.2856 133.591 99.1875 136.046 102.629C136.24 102.889 136.419 103.16 136.581 103.441C137.019 104.196 137.719 104.765 138.55 105.043L141.084 105.84C141.912 106.091 142.804 106.029 143.589 105.668C143.908 105.524 144.213 105.414 144.506 105.308C148.52 103.893 155.072 103.693 159.84 106.044C162.265 107.24 163.905 108.987 164.583 111.097V111.1C165.74 114.746 165.37 118.459 163.568 121.287C161.642 124.31 158.215 126.235 153.657 126.853C153.149 126.923 152.636 126.958 152.123 126.959ZM140.245 112.254C140.09 114.01 140.494 116.126 141.444 118.542C141.765 119.357 146.517 126.276 153.445 125.316C157.534 124.762 160.579 123.081 162.251 120.457C163.807 118.016 164.115 114.776 163.097 111.567C162.542 109.842 161.213 108.452 159.146 107.433C155.343 105.558 149.274 105.271 145.032 106.768C144.772 106.862 144.497 106.961 144.236 107.078C143.101 107.598 141.814 107.684 140.619 107.32L138.067 106.517C136.871 106.126 135.863 105.31 135.235 104.225C135.104 103.997 134.96 103.778 134.803 103.567C134.796 103.558 134.789 103.548 134.782 103.539C132.189 99.8921 127.057 96.6547 122.845 96.0085C120.566 95.6582 118.678 96.0325 117.237 97.1194C114.554 99.1441 112.93 101.959 112.78 104.843C112.619 107.961 114.136 111.099 117.168 113.918C122.31 118.686 130.178 115.745 130.908 115.26C133.108 113.792 134.666 112.286 135.539 110.782C135.767 110.347 136.139 110.004 136.592 109.808C137.045 109.613 137.552 109.578 138.027 109.71L138.812 109.944C138.829 109.949 138.846 109.954 138.862 109.961C139.321 110.128 139.709 110.447 139.961 110.864C140.212 111.281 140.313 111.772 140.245 112.254Z" fill="#222433"/>
<path d="M158.794 119.006C160.249 114.436 157.427 109.47 152.489 107.914C147.552 106.359 142.368 108.803 140.913 113.373C139.457 117.943 142.279 122.909 147.217 124.465C152.155 126.021 157.338 123.577 158.794 119.006Z" fill="#222433"/>
<path d="M150.247 125.711C149.139 125.709 148.037 125.538 146.982 125.204C141.642 123.522 138.586 118.109 140.17 113.139C140.557 111.936 141.192 110.826 142.034 109.881C142.876 108.935 143.907 108.174 145.061 107.646C147.468 106.548 150.2 106.38 152.724 107.175C155.249 107.971 157.385 109.672 158.717 111.949C159.359 113.039 159.763 114.252 159.904 115.508C160.045 116.764 159.92 118.036 159.536 119.24C159.152 120.445 158.519 121.556 157.676 122.503C156.833 123.449 155.801 124.209 154.645 124.733C153.27 125.379 151.768 125.713 150.247 125.711ZM141.656 113.606C140.332 117.762 142.932 122.301 147.452 123.725C149.599 124.422 151.931 124.281 153.977 123.332C154.94 122.898 155.8 122.269 156.502 121.483C157.204 120.697 157.731 119.773 158.05 118.771C158.37 117.77 158.473 116.712 158.354 115.668C158.235 114.624 157.897 113.616 157.36 112.71C156.222 110.776 154.403 109.33 152.254 108.653C150.105 107.976 147.78 108.116 145.729 109.046C144.769 109.483 143.911 110.115 143.21 110.9C142.508 111.685 141.979 112.607 141.656 113.606Z" fill="#222433"/>
<path d="M132.068 110.397C133.584 105.619 130.618 100.43 125.444 98.8064C120.27 97.183 114.847 99.7401 113.331 104.518C111.816 109.296 114.781 114.485 119.955 116.108C125.129 117.732 130.552 115.175 132.068 110.397Z" fill="#222433"/>
<path d="M123.101 117.373C121.952 117.372 120.81 117.195 119.715 116.85C114.142 115.1 110.945 109.465 112.587 104.29C112.99 103.036 113.651 101.881 114.528 100.896C115.405 99.9111 116.479 99.1191 117.681 98.5704C120.187 97.4054 123.044 97.2291 125.676 98.0769C131.249 99.827 134.446 105.461 132.803 110.637C131.493 114.764 127.494 117.373 123.101 117.373ZM122.272 99.1003C120.915 99.0973 119.575 99.3943 118.349 99.9699C117.341 100.428 116.44 101.091 115.704 101.915C114.968 102.739 114.413 103.707 114.074 104.756C112.691 109.117 115.431 113.879 120.184 115.372C124.938 116.865 129.932 114.531 131.318 110.17C132.703 105.81 129.961 101.047 125.207 99.5547C124.258 99.255 123.268 99.1017 122.272 99.1003Z" fill="#222433"/>
<path d="M313.722 99.0199C311.354 98.9989 309.012 99.5207 306.874 100.546C303.954 101.992 301.725 104.133 300.663 106.73L293.895 123.169C292.382 126.81 296.151 130.477 301.406 130.477H339.919C345.174 130.477 348.943 126.81 347.43 123.169L340.662 106.73C339.786 104.615 338.114 102.795 335.937 101.403C333.478 99.8785 330.648 99.0722 327.762 99.0734L313.722 99.0199Z" fill="white"/>
<path d="M339.919 131.281H301.406C298.09 131.281 295.12 129.901 293.656 127.681C293.174 126.986 292.875 126.178 292.788 125.335C292.702 124.491 292.829 123.638 293.16 122.858L299.928 106.422C301.029 103.729 303.371 101.386 306.523 99.825C308.772 98.7482 311.233 98.1984 313.722 98.2168H313.725L327.766 98.2703C330.801 98.2675 333.778 99.1168 336.362 100.723C338.743 102.247 340.484 104.216 341.396 106.421L348.165 122.861C348.494 123.64 348.622 124.492 348.535 125.335C348.448 126.178 348.15 126.985 347.668 127.68C346.204 129.901 343.235 131.281 339.919 131.281ZM313.721 99.8231C311.475 99.8047 309.253 100.299 307.223 101.269C304.422 102.655 302.353 104.704 301.399 107.037L294.63 123.476C294.403 124.013 294.315 124.6 294.377 125.18C294.438 125.761 294.647 126.315 294.982 126.791C296.137 128.543 298.659 129.674 301.405 129.674H339.918C342.665 129.674 345.187 128.542 346.341 126.791C346.676 126.316 346.885 125.762 346.946 125.182C347.008 124.601 346.921 124.015 346.694 123.479L339.927 107.039C339.14 105.141 337.613 103.426 335.511 102.081C333.178 100.635 330.493 99.8718 327.755 99.8766L313.721 99.8231Z" fill="#222433"/>
<path d="M330.231 104.535H311.412C311.201 104.535 310.999 104.45 310.849 104.3C310.7 104.149 310.616 103.945 310.616 103.732V94.7363C310.619 92.6495 311.441 90.6489 312.904 89.1733C314.367 87.6977 316.351 86.8676 318.42 86.8652H323.224C325.292 86.8676 327.276 87.6977 328.739 89.1733C330.202 90.6489 331.024 92.6495 331.027 94.7363V103.732C331.027 103.837 331.006 103.942 330.966 104.039C330.926 104.137 330.868 104.225 330.794 104.3C330.72 104.374 330.632 104.433 330.535 104.474C330.439 104.514 330.335 104.535 330.231 104.535ZM312.209 102.929H329.434V94.7363C329.433 93.0753 328.778 91.483 327.613 90.3085C326.449 89.134 324.87 88.4734 323.224 88.4716H318.42C316.773 88.4734 315.194 89.134 314.03 90.3085C312.865 91.483 312.211 93.0753 312.209 94.7363V102.929Z" fill="#222433"/>
<path d="M160.623 200.961C160.005 196.549 157.861 192.501 154.572 189.536C151.283 186.571 147.061 184.881 142.657 184.766C138.252 184.651 133.95 186.118 130.513 188.907C127.077 191.696 124.729 195.627 123.887 200.001C115.351 201.047 109.651 202.937 109.651 205.092C109.651 208.382 122.917 211.049 139.281 211.049C155.644 211.049 168.91 208.383 168.91 205.092C168.91 203.488 165.755 202.032 160.623 200.961Z" fill="white"/>
<path d="M139.28 211.857C127.049 211.857 108.852 210.056 108.852 205.092C108.852 201.827 116.532 200.129 123.222 199.271C124.214 194.835 126.696 190.884 130.246 188.092C133.795 185.3 138.192 183.84 142.687 183.959C147.182 184.079 151.497 185.772 154.896 188.749C158.295 191.726 160.568 195.803 161.328 200.286C166.965 201.522 169.709 203.096 169.709 205.092C169.709 210.056 151.512 211.857 139.28 211.857ZM142.184 185.568C138.049 185.58 134.045 187.04 130.852 189.699C127.66 192.358 125.476 196.052 124.671 200.155C124.639 200.323 124.555 200.476 124.431 200.593C124.308 200.709 124.151 200.783 123.983 200.804C114.054 202.021 110.45 204.035 110.45 205.092C110.45 205.716 112.129 207.234 118.485 208.513C124.032 209.628 131.417 210.242 139.281 210.242C147.145 210.242 154.53 209.628 160.077 208.513C166.433 207.235 168.112 205.717 168.112 205.092C168.112 204.446 166.501 203.012 160.463 201.753C160.302 201.719 160.155 201.636 160.042 201.514C159.93 201.393 159.857 201.239 159.834 201.074C159.231 196.773 157.114 192.837 153.872 189.988C150.629 187.14 146.479 185.57 142.184 185.568Z" fill="#222433"/>
<path d="M123.887 200.001L125.869 200.503C134.728 202.747 143.93 203.26 152.979 202.013L160.623 200.96" fill="white"/>
<path d="M143.265 203.491C137.335 203.489 131.427 202.749 125.675 201.287L123.693 200.785C123.591 200.759 123.495 200.714 123.411 200.65C123.327 200.587 123.256 200.508 123.202 200.417C123.148 200.326 123.112 200.225 123.097 200.12C123.081 200.015 123.086 199.908 123.112 199.805C123.137 199.702 123.183 199.605 123.245 199.52C123.308 199.435 123.386 199.363 123.476 199.308C123.566 199.254 123.666 199.218 123.77 199.202C123.873 199.187 123.979 199.192 124.081 199.218L126.064 199.72C134.823 201.947 143.923 202.453 152.871 201.213L160.516 200.16C160.726 200.131 160.938 200.187 161.107 200.317C161.276 200.447 161.387 200.639 161.415 200.851C161.444 201.064 161.388 201.279 161.259 201.449C161.131 201.62 160.941 201.732 160.731 201.761L153.087 202.814C149.832 203.264 146.55 203.49 143.265 203.491Z" fill="#222433"/>
<path d="M159.807 201.005C159.648 201.005 159.493 200.957 159.361 200.867C159.229 200.776 159.127 200.649 159.067 200.499C159.007 200.35 158.993 200.186 159.027 200.029C159.06 199.871 159.139 199.727 159.253 199.616C160.092 198.797 167.504 191.595 169.378 190.699C170.433 190.195 171.643 190.135 172.741 190.533C173.84 190.931 174.737 191.754 175.236 192.821C175.735 193.888 175.794 195.112 175.401 196.223C175.007 197.334 174.194 198.242 173.139 198.746C171.281 199.635 161.06 200.863 159.901 201C159.87 201.003 159.839 201.005 159.807 201.005ZM171.259 191.886C170.845 191.886 170.436 191.98 170.061 192.16C169.027 192.654 165.212 196.135 162.106 199.098C166.346 198.549 171.432 197.775 172.457 197.286C173.032 197.01 173.497 196.545 173.776 195.966C174.056 195.388 174.132 194.73 173.993 194.102C173.853 193.474 173.507 192.912 173.011 192.509C172.514 192.107 171.897 191.887 171.26 191.886H171.259Z" fill="#222433"/>
<path d="M159.807 201.005C159.694 201.005 159.583 200.981 159.48 200.934C159.377 200.887 159.286 200.819 159.211 200.734C159.136 200.649 159.08 200.549 159.046 200.44C159.012 200.331 159.001 200.216 159.014 200.103C159.15 198.931 160.369 188.602 161.266 186.718C161.64 185.923 162.24 185.258 162.989 184.807C163.737 184.357 164.602 184.141 165.472 184.188C166.342 184.236 167.178 184.543 167.875 185.071C168.572 185.6 169.098 186.326 169.387 187.158C169.58 187.705 169.664 188.286 169.633 188.866C169.602 189.447 169.457 190.015 169.207 190.538C168.323 192.414 161.194 199.91 160.383 200.758C160.309 200.836 160.219 200.898 160.12 200.941C160.021 200.983 159.915 201.005 159.807 201.005ZM165.249 185.802C164.717 185.803 164.197 185.955 163.747 186.241C163.297 186.528 162.936 186.936 162.705 187.421C162.217 188.444 161.435 193.659 160.897 197.874C163.832 194.732 167.279 190.876 167.764 189.844L167.766 189.839C167.924 189.508 168.016 189.147 168.036 188.779C168.055 188.411 168.002 188.043 167.879 187.696C167.757 187.342 167.567 187.016 167.319 186.737C167.071 186.459 166.77 186.233 166.435 186.073C166.065 185.894 165.659 185.802 165.249 185.802Z" fill="#222433"/>
<path d="M255.73 199.345H259.746V188.831H255.73C254.419 184.748 251.633 181.292 247.91 179.132V170.196H247.646C245.772 170.194 243.959 170.854 242.527 172.057C241.096 173.26 240.139 174.928 239.827 176.767C239.589 176.767 239.377 176.74 239.14 176.74H222.153C218.645 176.741 215.218 177.796 212.323 179.767C209.428 181.738 207.198 184.534 205.928 187.787C204.657 191.041 204.403 194.6 205.201 198C205.998 201.399 207.81 204.479 210.397 206.836L205.219 211.988L212.986 219.716L221.36 211.383C221.624 211.383 221.915 211.41 222.179 211.41H239.166C239.483 211.41 239.827 211.41 240.144 211.383L248.518 219.716L256.285 211.988L251.028 206.757C253.193 204.716 254.809 202.168 255.73 199.345Z" fill="white"/>
<path d="M248.518 220.504C248.308 220.504 248.106 220.421 247.958 220.273L239.834 212.19C239.604 212.198 239.376 212.198 239.166 212.198H222.179C222.035 212.198 221.884 212.191 221.732 212.184L221.68 212.182L213.546 220.273C213.395 220.416 213.194 220.495 212.986 220.495C212.777 220.495 212.577 220.416 212.426 220.273L204.659 212.546C204.51 212.398 204.427 212.197 204.427 211.988C204.427 211.779 204.51 211.578 204.659 211.431L209.265 206.848C206.724 204.313 204.995 201.086 204.297 197.575C203.598 194.063 203.962 190.425 205.341 187.119C206.72 183.812 209.053 180.987 212.046 179C215.038 177.012 218.555 175.951 222.153 175.952H239.189C239.662 174.078 240.752 172.416 242.284 171.23C243.817 170.043 245.705 169.402 247.646 169.407H247.911C248.121 169.407 248.322 169.49 248.471 169.638C248.62 169.786 248.703 169.986 248.703 170.196V178.685C252.236 180.849 254.917 184.152 256.3 188.043H259.746C259.956 188.043 260.158 188.126 260.306 188.274C260.455 188.422 260.538 188.622 260.538 188.831V199.345C260.538 199.554 260.455 199.755 260.306 199.903C260.158 200.051 259.956 200.134 259.746 200.134H256.298C255.404 202.61 253.99 204.869 252.151 206.759L256.845 211.431C256.994 211.578 257.077 211.779 257.077 211.988C257.077 212.197 256.994 212.398 256.845 212.546L249.078 220.273C248.93 220.421 248.728 220.504 248.518 220.504ZM240.144 210.595C240.354 210.595 240.555 210.678 240.704 210.826L248.518 218.601L255.164 211.988L250.468 207.315C250.393 207.24 250.333 207.152 250.293 207.054C250.254 206.957 250.234 206.852 250.235 206.747C250.236 206.641 250.259 206.537 250.301 206.441C250.344 206.344 250.405 206.257 250.482 206.185C252.551 204.235 254.096 201.8 254.976 199.103C255.027 198.944 255.128 198.806 255.263 198.708C255.399 198.609 255.563 198.556 255.73 198.557H258.953V189.62H255.73C255.562 189.62 255.398 189.567 255.262 189.468C255.127 189.369 255.026 189.23 254.975 189.07C253.728 185.17 251.068 181.871 247.511 179.813C247.392 179.744 247.292 179.645 247.223 179.525C247.154 179.406 247.118 179.27 247.118 179.132V171.003C245.525 171.116 244.017 171.759 242.837 172.829C241.656 173.898 240.871 175.331 240.608 176.898C240.577 177.082 240.481 177.249 240.338 177.369C240.195 177.489 240.014 177.555 239.827 177.555C239.692 177.555 239.564 177.548 239.437 177.541C239.34 177.535 239.243 177.529 239.14 177.529H222.153C218.804 177.529 215.533 178.535 212.769 180.417C210.005 182.298 207.878 184.967 206.664 188.072C205.451 191.178 205.21 194.576 205.971 197.821C206.733 201.065 208.462 204.005 210.933 206.255C211.011 206.327 211.075 206.414 211.119 206.511C211.163 206.608 211.187 206.713 211.189 206.819C211.192 206.925 211.172 207.031 211.132 207.13C211.092 207.229 211.033 207.318 210.957 207.394L206.34 211.988L212.986 218.601L220.8 210.826C220.949 210.678 221.15 210.595 221.36 210.595C221.505 210.595 221.656 210.602 221.807 210.609C221.933 210.615 222.059 210.621 222.179 210.621H239.166C239.475 210.621 239.794 210.621 240.078 210.598C240.1 210.595 240.122 210.595 240.144 210.595Z" fill="#222433"/>
<path d="M245.823 189.988C246.568 189.988 247.171 189.388 247.171 188.647C247.171 187.907 246.568 187.307 245.823 187.307C245.079 187.307 244.476 187.907 244.476 188.647C244.476 189.388 245.079 189.988 245.823 189.988Z" fill="white"/>
<path d="M245.823 190.776C245.4 190.776 244.986 190.652 244.635 190.418C244.283 190.184 244.008 189.851 243.846 189.462C243.685 189.073 243.642 188.645 243.725 188.232C243.807 187.819 244.011 187.44 244.31 187.142C244.61 186.844 244.991 186.641 245.406 186.559C245.821 186.477 246.251 186.519 246.642 186.68C247.033 186.842 247.368 187.114 247.603 187.465C247.838 187.815 247.963 188.226 247.963 188.647C247.963 189.212 247.737 189.753 247.336 190.152C246.935 190.551 246.391 190.776 245.823 190.776ZM245.823 188.095C245.714 188.095 245.606 188.128 245.515 188.188C245.424 188.249 245.353 188.335 245.311 188.436C245.269 188.537 245.258 188.648 245.279 188.755C245.301 188.862 245.354 188.96 245.431 189.038C245.509 189.115 245.608 189.167 245.715 189.189C245.823 189.21 245.934 189.199 246.036 189.157C246.137 189.116 246.224 189.045 246.285 188.954C246.346 188.863 246.378 188.757 246.378 188.647C246.378 188.501 246.32 188.361 246.216 188.257C246.112 188.154 245.971 188.095 245.823 188.095Z" fill="#222433"/>
<path d="M247.91 184.705C247.7 184.705 247.499 184.622 247.35 184.474C247.201 184.326 247.118 184.125 247.118 183.916V179.132C247.118 178.923 247.201 178.723 247.35 178.575C247.499 178.427 247.7 178.344 247.91 178.344C248.121 178.344 248.322 178.427 248.471 178.575C248.62 178.723 248.703 178.923 248.703 179.132V183.916C248.703 184.125 248.62 184.326 248.471 184.474C248.322 184.622 248.121 184.705 247.91 184.705Z" fill="#222433"/>
<path d="M239.642 182.812H219.828C219.618 182.812 219.416 182.729 219.268 182.581C219.119 182.433 219.036 182.233 219.036 182.024C219.036 181.815 219.119 181.614 219.268 181.466C219.416 181.318 219.618 181.235 219.828 181.235H239.642C239.852 181.235 240.054 181.318 240.202 181.466C240.351 181.614 240.434 181.815 240.434 182.024C240.434 182.233 240.351 182.433 240.202 182.581C240.054 182.729 239.852 182.812 239.642 182.812Z" fill="#222433"/>
<path d="M255.995 190.645C255.863 190.093 255.731 189.462 255.572 188.963L255.995 190.645Z" fill="white"/>
<path d="M255.995 191.433C255.817 191.433 255.644 191.374 255.504 191.264C255.364 191.154 255.266 191.001 255.224 190.829C255.192 190.692 255.159 190.551 255.126 190.408C255.028 189.986 254.927 189.549 254.817 189.201C254.785 189.102 254.774 188.998 254.783 188.895C254.792 188.792 254.821 188.692 254.869 188.6C254.918 188.508 254.983 188.426 255.063 188.36C255.143 188.293 255.235 188.243 255.334 188.212C255.433 188.181 255.538 188.169 255.641 188.178C255.745 188.187 255.846 188.216 255.938 188.264C256.031 188.312 256.113 188.377 256.18 188.457C256.247 188.536 256.297 188.628 256.328 188.726C256.458 189.134 256.566 189.602 256.672 190.055C256.704 190.194 256.736 190.331 256.768 190.463C256.795 190.579 256.796 190.7 256.77 190.816C256.744 190.932 256.692 191.041 256.617 191.135C256.543 191.228 256.448 191.304 256.34 191.355C256.233 191.407 256.114 191.434 255.995 191.433Z" fill="#222433"/>
<path d="M238.347 88.7368C238.135 88.7368 237.931 88.6525 237.781 88.5024C237.631 88.3523 237.547 88.1488 237.547 87.9366C237.546 86.8263 237.104 85.7619 236.319 84.9769C235.534 84.1918 234.47 83.7502 233.359 83.7489H228.772C227.661 83.7502 226.597 84.1918 225.812 84.9769C225.027 85.7619 224.585 86.8263 224.584 87.9366C224.584 88.1488 224.5 88.3523 224.35 88.5024C224.2 88.6525 223.996 88.7368 223.784 88.7368C223.572 88.7368 223.368 88.6525 223.218 88.5024C223.068 88.3523 222.984 88.1488 222.984 87.9366C222.985 86.402 223.596 84.9308 224.681 83.8457C225.766 82.7606 227.237 82.1503 228.772 82.1486H233.359C234.894 82.1503 236.365 82.7606 237.45 83.8457C238.535 84.9308 239.146 86.402 239.147 87.9366C239.147 88.1488 239.063 88.3523 238.913 88.5024C238.763 88.6525 238.559 88.7368 238.347 88.7368Z" fill="#222433"/>
<path d="M241.024 88.1233H221.126C218.767 88.1187 216.482 88.9489 214.676 90.4671C212.87 91.9853 211.659 94.0935 211.257 96.4186L206.083 126.212C205.627 128.826 206.227 131.514 207.753 133.685C209.279 135.856 211.604 137.332 214.218 137.788C214.79 137.896 215.37 137.949 215.952 137.948H246.199C248.851 137.947 251.395 136.893 253.271 135.018C255.146 133.142 256.2 130.599 256.201 127.946C256.201 127.365 256.147 126.784 256.041 126.212L250.867 96.4186C250.475 94.0938 249.271 91.9835 247.468 90.4642C245.666 88.9448 243.382 88.1152 241.024 88.1233Z" fill="white"/>
<path d="M246.199 138.749H215.952C215.32 138.75 214.689 138.691 214.068 138.574C211.248 138.079 208.74 136.484 207.094 134.14C205.449 131.796 204.802 128.894 205.295 126.073L210.47 96.2815C210.9 93.7695 212.207 91.4913 214.158 89.8514C216.109 88.2114 218.578 87.3157 221.127 87.3231H241.025C243.573 87.3102 246.043 88.2052 247.991 89.8479C249.939 91.4905 251.239 93.7733 251.657 96.2871L256.831 126.075C256.945 126.692 257.003 127.319 257.003 127.946C257 130.81 255.861 133.556 253.835 135.581C251.81 137.607 249.064 138.746 246.199 138.749ZM221.127 88.9235C218.955 88.9168 216.852 89.6796 215.19 91.0766C213.527 92.4736 212.414 94.4143 212.046 96.5544L206.871 126.349C206.663 127.54 206.692 128.761 206.956 129.941C207.22 131.12 207.713 132.237 208.409 133.226C209.104 134.215 209.987 135.057 211.008 135.705C212.029 136.353 213.167 136.793 214.359 137C214.884 137.1 215.418 137.149 215.953 137.148H246.2C248.64 137.145 250.979 136.175 252.704 134.45C254.429 132.725 255.399 130.386 255.402 127.946C255.402 127.412 255.353 126.88 255.255 126.356L250.08 96.5557C249.724 94.4148 248.617 92.4707 246.958 91.072C245.298 89.6734 243.195 88.9117 241.024 88.9235H221.127Z" fill="#222433"/>
<path d="M238.631 133.121H223.473C222.111 133.12 220.789 132.66 219.721 131.815C218.653 130.97 217.902 129.789 217.589 128.463L215.625 119.917C215.265 118.356 215.539 116.716 216.386 115.357C217.234 113.997 218.586 113.029 220.146 112.665C220.595 112.569 221.053 112.521 221.512 112.522H240.633C242.231 112.524 243.764 113.16 244.894 114.29C246.025 115.421 246.66 116.953 246.662 118.552C246.662 119.003 246.616 119.453 246.524 119.894L244.558 128.456C244.228 129.781 243.466 130.959 242.393 131.803C241.32 132.648 239.996 133.111 238.631 133.121ZM221.512 114.123C221.172 114.121 220.833 114.156 220.501 114.226C219.356 114.495 218.364 115.207 217.742 116.206C217.121 117.205 216.921 118.41 217.186 119.556L219.147 128.096C219.378 129.071 219.931 129.938 220.716 130.56C221.501 131.181 222.472 131.519 223.473 131.52H238.631C239.639 131.512 240.615 131.169 241.407 130.546C242.199 129.922 242.761 129.053 243.005 128.075L244.961 119.558C245.029 119.227 245.063 118.89 245.063 118.552C245.062 117.378 244.595 116.252 243.765 115.421C242.934 114.591 241.808 114.124 240.634 114.123H221.512Z" fill="#222433"/>
<path d="M241.868 104.741H220.263C220.051 104.741 219.848 104.656 219.698 104.506C219.547 104.356 219.463 104.153 219.463 103.94C219.463 103.728 219.547 103.525 219.698 103.375C219.848 103.224 220.051 103.14 220.263 103.14H241.868C242.081 103.14 242.284 103.224 242.434 103.375C242.584 103.525 242.669 103.728 242.669 103.94C242.669 104.153 242.584 104.356 242.434 104.506C242.284 104.656 242.081 104.741 241.868 104.741Z" fill="#222433"/>
<path d="M310.023 143.913L310.376 170.983L319.707 171.008L319.53 162.751L333.425 171.008H357.609C357.911 166.336 355.087 161.741 351.052 160.226C350.825 160.15 350.598 160.049 350.371 159.948C342.554 156.286 336.602 154.796 332.795 143.938L310.023 143.913Z" fill="white"/>
<path d="M357.609 171.765H333.425C333.289 171.765 333.156 171.729 333.039 171.659L320.316 164.098L320.463 170.992C320.465 171.093 320.447 171.193 320.41 171.287C320.373 171.381 320.318 171.466 320.247 171.538C320.177 171.61 320.093 171.667 320 171.706C319.907 171.745 319.807 171.766 319.707 171.766H319.705L310.374 171.74C310.175 171.74 309.985 171.661 309.844 171.521C309.703 171.381 309.622 171.191 309.619 170.992L309.266 143.923C309.265 143.823 309.284 143.723 309.321 143.63C309.359 143.537 309.414 143.452 309.484 143.381C309.555 143.31 309.639 143.253 309.731 143.214C309.824 143.176 309.923 143.156 310.023 143.156L332.795 143.181C332.951 143.181 333.104 143.23 333.232 143.321C333.359 143.411 333.456 143.539 333.508 143.687C336.772 152.996 341.512 155.124 348.071 158.068C348.917 158.447 349.792 158.84 350.691 159.261C350.894 159.352 351.098 159.443 351.29 159.507L351.316 159.516C355.653 161.145 358.682 166.107 358.362 171.056C358.349 171.248 358.265 171.428 358.125 171.56C357.985 171.691 357.801 171.765 357.609 171.765ZM333.633 170.25H356.874C356.844 166.189 354.327 162.271 350.799 160.939C350.542 160.853 350.299 160.745 350.064 160.64C349.162 160.218 348.293 159.828 347.453 159.451C340.923 156.52 335.742 154.194 332.262 144.696L310.79 144.671L311.123 170.227L318.934 170.248L318.773 162.767C318.771 162.632 318.804 162.498 318.87 162.38C318.936 162.263 319.032 162.164 319.148 162.096C319.265 162.028 319.398 161.992 319.533 161.993C319.668 161.993 319.8 162.03 319.916 162.099L333.633 170.25Z" fill="#222433"/>
<path d="M340.814 153.509C339.667 153.509 338.545 153.168 337.591 152.53C336.638 151.892 335.894 150.985 335.455 149.923C335.016 148.862 334.901 147.694 335.125 146.568C335.349 145.441 335.901 144.406 336.712 143.594C337.524 142.782 338.557 142.229 339.682 142.005C340.807 141.781 341.974 141.896 343.033 142.335C344.093 142.775 344.999 143.519 345.636 144.474C346.274 145.429 346.614 146.552 346.614 147.701C346.612 149.241 346 150.717 344.913 151.806C343.826 152.894 342.351 153.507 340.814 153.509ZM340.814 143.408C339.966 143.408 339.137 143.66 338.432 144.132C337.727 144.603 337.178 145.274 336.853 146.058C336.529 146.842 336.444 147.706 336.609 148.538C336.775 149.371 337.183 150.136 337.782 150.736C338.382 151.337 339.146 151.745 339.977 151.911C340.809 152.077 341.671 151.992 342.454 151.667C343.238 151.342 343.907 150.792 344.378 150.086C344.849 149.38 345.101 148.55 345.101 147.701C345.099 146.563 344.647 145.472 343.844 144.667C343.04 143.862 341.95 143.409 340.814 143.408Z" fill="#222433"/>
<path d="M343.689 155.832C342.542 155.832 341.42 155.491 340.466 154.853C339.513 154.215 338.769 153.308 338.33 152.247C337.891 151.185 337.776 150.018 338 148.891C338.224 147.764 338.776 146.729 339.587 145.917C340.399 145.105 341.432 144.552 342.557 144.328C343.682 144.104 344.849 144.219 345.908 144.658C346.968 145.098 347.874 145.842 348.511 146.797C349.149 147.752 349.489 148.875 349.489 150.024C349.487 151.564 348.876 153.04 347.788 154.129C346.701 155.218 345.227 155.83 343.689 155.832ZM343.689 145.731C342.841 145.731 342.012 145.983 341.307 146.455C340.602 146.926 340.053 147.597 339.728 148.381C339.404 149.166 339.319 150.029 339.484 150.861C339.65 151.694 340.058 152.459 340.657 153.059C341.257 153.66 342.021 154.069 342.852 154.234C343.684 154.4 344.546 154.315 345.329 153.99C346.113 153.665 346.782 153.115 347.253 152.409C347.724 151.703 347.976 150.873 347.976 150.024C347.975 148.886 347.522 147.795 346.719 146.99C345.915 146.185 344.825 145.733 343.689 145.731Z" fill="#222433"/>
<path d="M430.209 240.827H381.822C380.082 240.827 378.671 242.233 378.671 243.967V270.427C378.671 272.162 380.082 273.567 381.822 273.567H430.209C431.949 273.567 433.359 272.162 433.359 270.427V243.967C433.359 242.233 431.949 240.827 430.209 240.827Z" fill="white"/>
<path d="M430.209 274.353H381.822C380.778 274.351 379.777 273.938 379.038 273.202C378.3 272.466 377.885 271.468 377.884 270.427V243.966C377.885 242.926 378.3 241.928 379.038 241.192C379.777 240.456 380.778 240.042 381.822 240.041H430.209C431.253 240.042 432.254 240.456 432.992 241.192C433.73 241.928 434.146 242.926 434.147 243.966V270.427C434.146 271.468 433.73 272.466 432.992 273.202C432.254 273.938 431.253 274.351 430.209 274.353ZM381.822 241.611C381.195 241.612 380.595 241.86 380.152 242.302C379.709 242.743 379.46 243.342 379.459 243.966V270.427C379.46 271.052 379.709 271.65 380.152 272.092C380.595 272.533 381.195 272.782 381.822 272.782H430.209C430.835 272.782 431.436 272.533 431.879 272.092C432.322 271.65 432.571 271.052 432.571 270.427V243.966C432.571 243.342 432.322 242.743 431.879 242.302C431.436 241.86 430.835 241.612 430.209 241.611H381.822Z" fill="#222433"/>
<path d="M432.65 243.338H379.616C378.782 243.336 377.982 243.004 377.391 242.416C376.801 241.828 376.468 241.03 376.466 240.198V237.581C376.468 236.749 376.801 235.952 377.391 235.363C377.982 234.775 378.782 234.443 379.616 234.441H432.65C433.485 234.443 434.285 234.775 434.875 235.363C435.466 235.952 435.798 236.749 435.801 237.581V240.198C435.798 241.03 435.466 241.828 434.875 242.416C434.285 243.004 433.485 243.336 432.65 243.338Z" fill="white"/>
<path d="M432.65 244.123H379.616C378.572 244.122 377.571 243.708 376.833 242.972C376.095 242.237 375.679 241.239 375.678 240.198V237.581C375.679 236.541 376.095 235.543 376.833 234.807C377.571 234.071 378.572 233.657 379.616 233.656H432.65C433.694 233.657 434.695 234.071 435.434 234.807C436.172 235.543 436.587 236.541 436.588 237.581V240.198C436.587 241.239 436.172 242.237 435.434 242.972C434.695 243.708 433.694 244.122 432.65 244.123ZM379.616 235.226C378.99 235.227 378.389 235.475 377.946 235.917C377.503 236.358 377.254 236.957 377.253 237.581V240.198C377.254 240.823 377.503 241.421 377.946 241.863C378.389 242.304 378.99 242.553 379.616 242.553H432.65C433.277 242.553 433.877 242.304 434.32 241.863C434.763 241.421 435.012 240.823 435.013 240.198V237.581C435.012 236.957 434.763 236.358 434.32 235.917C433.877 235.475 433.277 235.227 432.65 235.226H379.616Z" fill="#222433"/>
<path d="M406.212 240.067C405.126 240.066 404.085 239.635 403.317 238.87C402.55 238.105 402.118 237.067 402.116 235.985V217.117C402.118 216.035 402.55 214.998 403.317 214.232C404.085 213.467 405.126 213.036 406.212 213.035C407.298 213.036 408.339 213.467 409.107 214.232C409.874 214.998 410.306 216.035 410.308 217.117V235.985C410.302 237.066 409.868 238.101 409.102 238.865C408.335 239.629 407.296 240.061 406.212 240.067Z" fill="white"/>
<path d="M406.212 240.852C404.917 240.851 403.676 240.338 402.761 239.425C401.845 238.513 401.33 237.276 401.329 235.985V217.117C401.329 215.826 401.843 214.588 402.759 213.676C403.675 212.763 404.917 212.25 406.212 212.25C407.507 212.25 408.749 212.763 409.665 213.676C410.581 214.588 411.095 215.826 411.095 217.117V235.985C411.094 237.276 410.579 238.513 409.663 239.425C408.748 240.338 407.507 240.851 406.212 240.852ZM406.212 213.82C405.335 213.821 404.494 214.169 403.874 214.787C403.254 215.405 402.905 216.243 402.904 217.117V235.985C402.904 236.418 402.989 236.847 403.156 237.247C403.322 237.647 403.566 238.01 403.873 238.317C404.18 238.623 404.545 238.866 404.946 239.031C405.347 239.197 405.777 239.282 406.212 239.282C406.646 239.282 407.076 239.197 407.478 239.031C407.879 238.866 408.244 238.623 408.551 238.317C408.858 238.01 409.102 237.647 409.268 237.247C409.434 236.847 409.52 236.418 409.52 235.985V217.117C409.519 216.243 409.17 215.405 408.55 214.787C407.93 214.169 407.089 213.821 406.212 213.82Z" fill="#222433"/>
<path d="M406.212 237.163C407.01 237.163 407.656 236.518 407.656 235.723C407.656 234.928 407.01 234.284 406.212 234.284C405.415 234.284 404.768 234.928 404.768 235.723C404.768 236.518 405.415 237.163 406.212 237.163Z" fill="#222433"/>
<path d="M389.772 249.498C389.772 247.859 388.439 246.53 386.794 246.53C385.15 246.53 383.817 247.859 383.817 249.498V266.199C383.817 267.838 385.15 269.167 386.794 269.167C388.439 269.167 389.772 267.838 389.772 266.199V249.498Z" fill="#0782D0"/>
<path d="M402.709 249.641C402.709 248.002 401.376 246.673 399.732 246.673C398.087 246.673 396.754 248.002 396.754 249.641V266.342C396.754 267.981 398.087 269.31 399.732 269.31C401.376 269.31 402.709 267.981 402.709 266.342V249.641Z" fill="#0782D0"/>
<path d="M415.59 249.498C415.59 247.859 414.257 246.53 412.612 246.53C410.968 246.53 409.635 247.859 409.635 249.498V266.199C409.635 267.838 410.968 269.167 412.612 269.167C414.257 269.167 415.59 267.838 415.59 266.199V249.498Z" fill="#0782D0"/>
<path d="M428.286 249.498C428.286 247.859 426.953 246.53 425.308 246.53C423.664 246.53 422.331 247.859 422.331 249.498V266.199C422.331 267.838 423.664 269.167 425.308 269.167C426.953 269.167 428.286 267.838 428.286 266.199V249.498Z" fill="#0782D0"/>
<g clip-path="url(#clip0_44083_16190)">
<path d="M471.948 274.362H60.6902C60.3089 274.362 60 274.057 60 273.681C60 273.305 60.3092 273 60.6902 273H471.949C472.33 273 472.639 273.305 472.639 273.681C472.639 274.057 472.33 274.362 471.948 274.362Z" fill="#222433"/>
</g>
<defs>
<clipPath id="clip0_44083_16190">
<rect width="412.639" height="1.36151" fill="white" transform="translate(60 273)"/>
</clipPath>
</defs>
</svg>
