<svg width="454" height="255" viewBox="0 0 454 255" fill="none" xmlns="http://www.w3.org/2000/svg">
<g clip-path="url(#clip0_44661_19042)">
<path d="M64.079 13.6973H274.766V225.79H64.079V13.6973Z" fill="white"/>
<path d="M274.766 226.498H64.079C63.8912 226.498 63.7111 226.423 63.5783 226.29C63.4455 226.158 63.3708 225.978 63.3708 225.79V13.6973C63.3708 13.5097 63.4455 13.3298 63.5783 13.1971C63.7111 13.0645 63.8912 12.99 64.079 12.99H274.766C274.954 12.99 275.134 13.0645 275.267 13.1971C275.399 13.3298 275.474 13.5097 275.474 13.6973V225.79C275.474 225.978 275.399 226.158 275.267 226.29C275.134 226.423 274.954 226.498 274.766 226.498ZM64.7872 225.083H274.058V14.4047H64.7872V225.083Z" fill="#222433"/>
<path d="M64.079 13.6973H274.766V23.5708H64.079V13.6973Z" fill="white"/>
<path d="M274.766 24.2782H64.079C63.8912 24.2782 63.7111 24.2037 63.5783 24.071C63.4455 23.9384 63.3708 23.7584 63.3708 23.5708V13.6973C63.3708 13.5097 63.4455 13.3298 63.5783 13.1971C63.7111 13.0645 63.8912 12.99 64.079 12.99H274.766C274.954 12.99 275.134 13.0645 275.267 13.1971C275.399 13.3298 275.474 13.5097 275.474 13.6973V23.5708C275.474 23.7584 275.399 23.9384 275.267 24.071C275.134 24.2037 274.954 24.2782 274.766 24.2782ZM64.7872 22.8634H274.058V14.4047H64.7872V22.8634Z" fill="#222433"/>
<path d="M71.5829 20.896C72.8335 20.896 73.8473 19.8832 73.8473 18.634C73.8473 17.3847 72.8335 16.372 71.5829 16.372C70.3322 16.372 69.3184 17.3847 69.3184 18.634C69.3184 19.8832 70.3322 20.896 71.5829 20.896Z" fill="white"/>
<path d="M71.5828 21.6033C70.9948 21.6033 70.4201 21.4292 69.9312 21.1029C69.4424 20.7766 69.0614 20.3129 68.8364 19.7703C68.6114 19.2277 68.5525 18.6307 68.6672 18.0547C68.7819 17.4787 69.065 16.9496 69.4808 16.5343C69.8965 16.119 70.4262 15.8362 71.0028 15.7216C71.5795 15.6071 72.1772 15.6659 72.7204 15.8906C73.2635 16.1154 73.7278 16.496 74.0545 16.9843C74.3811 17.4726 74.5554 18.0467 74.5554 18.634C74.5546 19.4212 74.2411 20.176 73.6838 20.7327C73.1265 21.2893 72.3709 21.6025 71.5828 21.6033ZM71.5828 17.0794C71.275 17.0794 70.9741 17.1705 70.7181 17.3414C70.4622 17.5122 70.2627 17.755 70.1449 18.039C70.0271 18.3231 69.9963 18.6357 70.0564 18.9373C70.1164 19.2388 70.2646 19.5158 70.4823 19.7332C70.6999 19.9507 70.9773 20.0987 71.2791 20.1587C71.581 20.2187 71.894 20.1879 72.1783 20.0702C72.4627 19.9526 72.7058 19.7533 72.8768 19.4977C73.0478 19.242 73.1391 18.9414 73.1391 18.634C73.1387 18.2218 72.9745 17.8266 72.6828 17.5352C72.391 17.2437 71.9954 17.0798 71.5828 17.0794Z" fill="#222433"/>
<path d="M78.2752 20.896C79.5259 20.896 80.5397 19.8832 80.5397 18.634C80.5397 17.3847 79.5259 16.372 78.2752 16.372C77.0246 16.372 76.0107 17.3847 76.0107 18.634C76.0107 19.8832 77.0246 20.896 78.2752 20.896Z" fill="white"/>
<path d="M78.2753 21.6033C77.6873 21.6033 77.1126 21.4292 76.6238 21.1029C76.1349 20.7766 75.7539 20.3129 75.5289 19.7703C75.3039 19.2277 75.245 18.6307 75.3597 18.0547C75.4744 17.4787 75.7576 16.9496 76.1733 16.5343C76.589 16.119 77.1187 15.8362 77.6953 15.7216C78.272 15.6071 78.8697 15.6659 79.4129 15.8906C79.956 16.1154 80.4203 16.496 80.747 16.9843C81.0736 17.4726 81.2479 18.0467 81.2479 18.634C81.2471 19.4212 80.9336 20.176 80.3763 20.7327C79.819 21.2893 79.0634 21.6025 78.2753 21.6033ZM78.2753 17.0794C77.9675 17.0794 77.6666 17.1705 77.4106 17.3414C77.1547 17.5122 76.9552 17.755 76.8374 18.039C76.7196 18.3231 76.6888 18.6357 76.7489 18.9373C76.8089 19.2388 76.9571 19.5158 77.1748 19.7332C77.3924 19.9507 77.6698 20.0987 77.9717 20.1587C78.2735 20.2187 78.5865 20.1879 78.8709 20.0702C79.1552 19.9526 79.3983 19.7533 79.5693 19.4977C79.7403 19.242 79.8316 18.9414 79.8316 18.634C79.8312 18.2218 79.6671 17.8266 79.3753 17.5352C79.0835 17.2437 78.6879 17.0798 78.2753 17.0794Z" fill="#222433"/>
<path d="M85.0871 20.896C86.3378 20.896 87.3516 19.8832 87.3516 18.634C87.3516 17.3847 86.3378 16.372 85.0871 16.372C83.8365 16.372 82.8226 17.3847 82.8226 18.634C82.8226 19.8832 83.8365 20.896 85.0871 20.896Z" fill="white"/>
<path d="M85.088 21.6033C84.5001 21.6033 83.9253 21.4292 83.4365 21.1029C82.9476 20.7766 82.5666 20.3129 82.3416 19.7703C82.1166 19.2277 82.0578 18.6307 82.1725 18.0547C82.2872 17.4787 82.5703 16.9496 82.986 16.5343C83.4018 16.119 83.9314 15.8362 84.5081 15.7216C85.0847 15.6071 85.6824 15.6659 86.2256 15.8906C86.7688 16.1154 87.2331 16.496 87.5597 16.9843C87.8863 17.4726 88.0607 18.0467 88.0607 18.634C88.0598 19.4212 87.7463 20.176 87.189 20.7327C86.6318 21.2893 85.8762 21.6025 85.088 21.6033ZM85.088 17.0794C84.7802 17.0794 84.4793 17.1705 84.2234 17.3414C83.9674 17.5122 83.768 17.755 83.6502 18.039C83.5324 18.3231 83.5016 18.6357 83.5616 18.9373C83.6217 19.2388 83.7699 19.5158 83.9875 19.7332C84.2052 19.9507 84.4825 20.0987 84.7844 20.1587C85.0863 20.2187 85.3992 20.1879 85.6836 20.0702C85.968 19.9526 86.211 19.7533 86.3821 19.4977C86.5531 19.242 86.6443 18.9414 86.6443 18.634C86.6439 18.2218 86.4798 17.8266 86.188 17.5352C85.8963 17.2437 85.5006 17.0798 85.088 17.0794Z" fill="#222433"/>
<path d="M125.433 149.261V146.474C125.427 144.493 124.637 142.595 123.234 141.194C121.832 139.793 119.932 139.004 117.949 138.998H95.2765C93.2933 139.004 91.393 139.793 89.9907 141.194C88.5884 142.595 87.798 144.493 87.7921 146.474V149.261H125.433Z" fill="white"/>
<path d="M120.102 130.018C122.611 130.018 124.645 127.987 124.645 125.481C124.645 122.975 122.611 120.943 120.102 120.943C117.594 120.943 115.56 122.975 115.56 125.481C115.56 127.987 117.594 130.018 120.102 130.018Z" fill="white"/>
<path d="M127.425 166.918H221.303V208.842H127.425V166.918Z" fill="#E2ECF7"/>
<path d="M140.618 172.71H179.187V179.166H140.618V172.71Z" fill="#113C7B"/>
<path d="M179.187 186.16H140.618C140.43 186.16 140.25 186.086 140.117 185.953C139.985 185.82 139.91 185.64 139.91 185.453C139.91 185.265 139.985 185.085 140.117 184.952C140.25 184.82 140.43 184.745 140.618 184.745H179.187C179.375 184.745 179.555 184.82 179.688 184.952C179.821 185.085 179.896 185.265 179.896 185.453C179.896 185.64 179.821 185.82 179.688 185.953C179.555 186.086 179.375 186.16 179.187 186.16Z" fill="#222433"/>
<path d="M179.187 194.38H140.618C140.43 194.38 140.25 194.305 140.117 194.172C139.985 194.04 139.91 193.86 139.91 193.672C139.91 193.485 139.985 193.305 140.117 193.172C140.25 193.039 140.43 192.965 140.618 192.965H179.187C179.375 192.965 179.555 193.039 179.688 193.172C179.821 193.305 179.896 193.485 179.896 193.672C179.896 193.86 179.821 194.04 179.688 194.172C179.555 194.305 179.375 194.38 179.187 194.38Z" fill="#222433"/>
<path d="M194.222 202.599H140.618C140.43 202.599 140.25 202.525 140.117 202.392C139.985 202.259 139.91 202.08 139.91 201.892C139.91 201.704 139.985 201.524 140.117 201.392C140.25 201.259 140.43 201.185 140.618 201.185H194.222C194.41 201.185 194.59 201.259 194.723 201.392C194.856 201.524 194.93 201.704 194.93 201.892C194.93 202.08 194.856 202.259 194.723 202.392C194.59 202.525 194.41 202.599 194.222 202.599Z" fill="#222433"/>
<path d="M87.5024 167.61H128.302V208.364H87.5024V167.61Z" fill="white"/>
<path d="M128.302 209.071H87.5025C87.3147 209.071 87.1345 208.997 87.0017 208.864C86.8689 208.732 86.7943 208.552 86.7943 208.364V167.61C86.7943 167.422 86.8689 167.242 87.0017 167.11C87.1345 166.977 87.3147 166.902 87.5025 166.902H128.302C128.49 166.902 128.67 166.977 128.803 167.11C128.935 167.242 129.01 167.422 129.01 167.61V208.364C129.01 208.552 128.935 208.732 128.803 208.864C128.67 208.997 128.49 209.071 128.302 209.071ZM88.2107 207.657H127.594V168.317H88.2107V207.657Z" fill="#222433"/>
<path d="M127.425 112.58H221.303V154.503H127.425V112.58Z" fill="#E2ECF7"/>
<path d="M140.618 118.372H179.187V124.828H140.618V118.372Z" fill="#113C7B"/>
<path d="M179.187 131.822H140.618C140.43 131.822 140.25 131.747 140.117 131.615C139.985 131.482 139.91 131.302 139.91 131.115C139.91 130.927 139.985 130.747 140.117 130.614C140.25 130.482 140.43 130.407 140.618 130.407H179.187C179.375 130.407 179.555 130.482 179.688 130.614C179.821 130.747 179.896 130.927 179.896 131.115C179.896 131.302 179.821 131.482 179.688 131.615C179.555 131.747 179.375 131.822 179.187 131.822Z" fill="#222433"/>
<path d="M179.187 140.042H140.618C140.43 140.042 140.25 139.967 140.117 139.834C139.985 139.702 139.91 139.522 139.91 139.334C139.91 139.147 139.985 138.967 140.117 138.834C140.25 138.701 140.43 138.627 140.618 138.627H179.187C179.375 138.627 179.555 138.701 179.688 138.834C179.821 138.967 179.896 139.147 179.896 139.334C179.896 139.522 179.821 139.702 179.688 139.834C179.555 139.967 179.375 140.042 179.187 140.042Z" fill="#222433"/>
<path d="M194.222 148.261H140.618C140.43 148.261 140.25 148.187 140.117 148.054C139.985 147.921 139.91 147.741 139.91 147.554C139.91 147.366 139.985 147.186 140.117 147.054C140.25 146.921 140.43 146.846 140.618 146.846H194.222C194.41 146.846 194.59 146.921 194.723 147.054C194.856 147.186 194.93 147.366 194.93 147.554C194.93 147.741 194.856 147.921 194.723 148.054C194.59 148.187 194.41 148.261 194.222 148.261Z" fill="#222433"/>
<path d="M128.302 154.733H87.5025C87.3147 154.733 87.1345 154.659 87.0017 154.526C86.8689 154.393 86.7943 154.214 86.7943 154.026V113.272C86.7943 113.084 86.8689 112.904 87.0017 112.771C87.1345 112.639 87.3147 112.564 87.5025 112.564H128.302C128.49 112.564 128.67 112.639 128.803 112.771C128.935 112.904 129.01 113.084 129.01 113.272V154.026C129.01 154.214 128.935 154.393 128.803 154.526C128.67 154.659 128.49 154.733 128.302 154.733ZM88.2107 153.319H127.594V113.979H88.2107V153.319Z" fill="#222433"/>
<path d="M104.931 191.512L102.189 188.26L105.445 183.81L105.788 176.109L112.298 174.739L117.952 175.424V183.126L118.98 185.693L117.438 187.062L107.158 188.773L104.931 191.512Z" fill="white"/>
<path d="M102.728 189.268L102.682 198.481C102.68 199.873 103.223 201.211 104.194 202.21C105.165 203.209 106.489 203.789 107.882 203.827H107.886C108.588 203.846 109.287 203.727 109.942 203.477C110.598 203.226 111.198 202.849 111.707 202.367C112.217 201.884 112.627 201.307 112.913 200.666C113.199 200.026 113.356 199.336 113.375 198.635V197.646" fill="white"/>
<path d="M102.728 188.754C101.792 188.923 100.826 188.799 99.9631 188.4C99.0999 188.001 98.3806 187.346 97.9029 186.525C97.4252 185.703 97.2123 184.755 97.2931 183.808C97.374 182.862 97.7446 181.963 98.3547 181.234C98.9648 180.505 99.7847 179.982 100.703 179.734C101.621 179.487 102.594 179.529 103.488 179.853C104.382 180.177 105.154 180.768 105.7 181.546C106.246 182.324 106.539 183.251 106.539 184.201" fill="white"/>
<path d="M119.012 185.414C119.651 186.871 119.863 188.479 119.624 190.052C118.939 194.673 114.585 198.069 110.005 197.154" fill="white"/>
<path d="M149.845 43.4413H201.598V52.1035H149.845V43.4413Z" fill="#113C7B"/>
<path d="M201.598 61.2465H149.845C149.657 61.2465 149.477 61.172 149.344 61.0393C149.212 60.9067 149.137 60.7267 149.137 60.5391C149.137 60.3515 149.212 60.1716 149.344 60.0389C149.477 59.9063 149.657 59.8317 149.845 59.8317H201.598C201.786 59.8317 201.966 59.9063 202.099 60.0389C202.232 60.1716 202.306 60.3515 202.306 60.5391C202.306 60.7267 202.232 60.9067 202.099 61.0393C201.966 61.172 201.786 61.2465 201.598 61.2465Z" fill="#222433"/>
<path d="M227.536 72.2759H149.845C149.657 72.2759 149.477 72.2013 149.344 72.0687C149.212 71.936 149.137 71.7561 149.137 71.5685C149.137 71.3809 149.212 71.2009 149.344 71.0683C149.477 70.9356 149.657 70.8611 149.845 70.8611H227.536C227.724 70.8611 227.904 70.9356 228.037 71.0683C228.17 71.2009 228.244 71.3809 228.244 71.5685C228.244 71.7561 228.17 71.936 228.037 72.0687C227.904 72.2013 227.724 72.2759 227.536 72.2759Z" fill="#222433"/>
<path d="M201.598 83.3043H149.845C149.657 83.3043 149.477 83.2298 149.344 83.0971C149.212 82.9644 149.137 82.7845 149.137 82.5969C149.137 82.4093 149.212 82.2294 149.344 82.0967C149.477 81.964 149.657 81.8895 149.845 81.8895H201.598C201.786 81.8895 201.966 81.964 202.099 82.0967C202.232 82.2294 202.306 82.4093 202.306 82.5969C202.306 82.7845 202.232 82.9644 202.099 83.0971C201.966 83.2298 201.786 83.3043 201.598 83.3043Z" fill="#222433"/>
</g>
<g clip-path="url(#clip1_44661_19042)">
<path d="M255.66 84.7878C254.896 82.4707 252.397 81.2114 250.078 81.9751C247.759 82.7388 246.499 85.2363 247.264 87.5535L259.762 125.449C260.527 127.766 263.026 129.025 265.344 128.261C267.663 127.498 268.923 125 268.159 122.683L255.66 84.7878Z" fill="#0782D0"/>
<path d="M247.238 94.2936C258.805 94.2936 268.181 84.9238 268.181 73.3657C268.181 61.8075 258.805 52.4378 247.238 52.4378C235.672 52.4378 226.296 61.8075 226.296 73.3657C226.296 84.9238 235.672 94.2936 247.238 94.2936Z" fill="#0782D0"/>
<path d="M247.239 88.6658C255.694 88.6658 262.549 81.8157 262.549 73.3658C262.549 64.9158 255.694 58.0658 247.239 58.0658C238.783 58.0658 231.928 64.9158 231.928 73.3658C231.928 81.8157 238.783 88.6658 247.239 88.6658Z" fill="white"/>
<path d="M247.223 89.3823C244.271 89.3799 241.378 88.5628 238.861 87.0213C236.345 85.4797 234.304 83.2736 232.963 80.6463C231.621 78.019 231.032 75.0725 231.261 72.1319C231.489 69.1912 232.525 66.3707 234.256 63.9815C235.987 61.5922 238.344 59.727 241.068 58.5917C243.792 57.4563 246.777 57.0948 249.693 57.5472C252.61 57.9995 255.345 59.2481 257.596 61.1552C259.848 63.0622 261.529 65.5537 262.453 68.3547C263.243 70.7612 263.451 73.3205 263.061 75.8229C262.67 78.3253 261.692 80.6995 260.206 82.7512C258.72 84.8028 256.768 86.4734 254.512 87.626C252.255 88.7786 249.757 89.3805 247.223 89.3823ZM247.253 58.767C244.165 58.7623 241.154 59.7359 238.654 61.5479C236.154 63.3599 234.293 65.9171 233.338 68.8522C232.384 71.7873 232.384 74.9493 233.34 77.884C234.296 80.8188 236.158 83.3752 238.659 85.1862C241.16 86.9972 244.171 87.9695 247.259 87.9636C250.348 87.9577 253.355 86.9737 255.849 85.1531C258.342 83.3325 260.195 80.7689 261.139 77.8305C262.084 74.8921 262.073 71.7302 261.106 68.7987C260.143 65.8852 258.287 63.3484 255.801 61.5479C253.314 59.7474 250.324 58.7745 247.253 58.767Z" fill="#222433"/>
</g>
<g clip-path="url(#clip2_44661_19042)">
<path d="M315.609 56.883L310.963 60.9148L313.364 63.3609" fill="white"/>
<path d="M313.364 64.072C313.27 64.072 313.177 64.0532 313.09 64.0165C313.003 63.9799 312.924 63.9262 312.858 63.8586L310.457 61.4128C310.389 61.3435 310.335 61.2611 310.3 61.1705C310.266 61.0799 310.25 60.9831 310.253 60.8861C310.257 60.7891 310.281 60.6938 310.323 60.6063C310.365 60.5188 310.424 60.4408 310.498 60.3772L315.144 56.3452C315.215 56.284 315.296 56.2373 315.385 56.2078C315.473 56.1783 315.567 56.1665 315.66 56.1731C315.753 56.1797 315.844 56.2046 315.927 56.2464C316.011 56.2882 316.085 56.346 316.146 56.4165C316.207 56.4871 316.254 56.569 316.283 56.6576C316.313 56.7462 316.325 56.8397 316.318 56.9328C316.312 57.026 316.287 57.1169 316.245 57.2004C316.203 57.284 316.145 57.3584 316.075 57.4196L312 60.9563L313.871 62.8624C313.969 62.9624 314.035 63.0891 314.061 63.2265C314.087 63.364 314.073 63.5062 314.018 63.6353C313.964 63.7644 313.873 63.8746 313.757 63.9522C313.64 64.0297 313.504 64.0711 313.364 64.0713L313.364 64.072Z" fill="#222433"/>
<path d="M323.892 86.3199C323.892 86.3199 323.534 79.8837 323.508 79.8749C321.431 79.18 319.538 78.0253 317.969 76.4968C316.4 74.9682 315.195 73.1052 314.445 71.0463C313.695 68.9874 313.418 66.7857 313.635 64.605C313.853 62.4243 314.559 60.3207 315.701 58.4509V58.4402C315.813 57.3562 316.044 56.2878 316.39 55.2546C316.591 54.6651 316.851 53.015 318.358 51.4101L333.717 60.1151L338.453 68.885L339.006 85.9871L323.892 86.3189" fill="white"/>
<path d="M323.892 87.031C323.706 87.031 323.527 86.9581 323.395 86.8279C323.262 86.6977 323.185 86.5206 323.181 86.3346V86.3258C323.07 84.3253 322.907 81.4689 322.836 80.3921C320.732 79.6147 318.825 78.3831 317.251 76.7847C315.676 75.1864 314.473 73.2605 313.726 71.1441C312.979 69.0276 312.706 66.7724 312.928 64.5388C313.151 62.3052 313.861 60.1479 315.01 58.2203C315.133 57.1345 315.37 56.0646 315.717 55.0285C315.746 54.9427 315.775 54.8367 315.81 54.7111C316.15 53.2949 316.85 51.9903 317.841 50.9232C317.95 50.8072 318.094 50.7311 318.252 50.7072C318.409 50.6833 318.57 50.713 318.708 50.7914L334.067 59.4964C334.183 59.5622 334.279 59.6594 334.342 59.7768L339.078 68.5468C339.131 68.6438 339.16 68.7517 339.164 68.862L339.717 85.9641C339.72 86.0581 339.704 86.1519 339.671 86.2399C339.638 86.3278 339.587 86.4083 339.523 86.4767C339.458 86.545 339.381 86.5999 339.295 86.638C339.209 86.6761 339.116 86.6968 339.022 86.6989L323.947 87.0307H323.932C323.919 87.0307 323.905 87.031 323.892 87.031ZM316.409 58.5038C316.399 58.6161 316.365 58.7249 316.307 58.8219C315.221 60.6005 314.549 62.6015 314.343 64.6759C314.136 66.7502 314.399 68.8446 315.113 70.803C315.827 72.7614 316.972 74.5336 318.465 75.9875C319.958 77.4414 321.759 78.5397 323.734 79.2006C324.189 79.353 324.216 79.7351 324.241 80.1048C324.254 80.2831 324.27 80.5372 324.289 80.8418C324.326 81.4474 324.374 82.2535 324.42 83.0596C324.475 84.0169 324.529 84.9741 324.564 85.5929L338.274 85.2919L337.749 69.0756L333.189 60.6332L318.513 52.3153C317.875 53.1345 317.42 54.0816 317.178 55.0923C317.135 55.2489 317.098 55.381 317.063 55.4843C316.735 56.4638 316.515 57.4763 316.409 58.5038Z" fill="#222433"/>
<path d="M290.791 216.422L293.596 228.873C293.148 230.337 292.489 230.812 292.489 230.812C285.622 232.592 281.43 237.077 281.977 244.211H312.625L321.797 223.915L326.983 234.818L340.451 228.222L326.684 200.129" fill="#9ABEE3"/>
<path d="M273.093 176.732L277.829 158.007L311.19 162.335L317.075 176.213L327.126 199.912L289.375 217.317L279.013 191.427L273.093 176.732Z" fill="white"/>
<path d="M289.375 218.028C289.233 218.028 289.094 217.986 288.977 217.906C288.859 217.826 288.768 217.713 288.716 217.581L278.354 191.691L272.434 176.997C272.377 176.857 272.367 176.703 272.404 176.557L277.14 157.832C277.183 157.663 277.286 157.516 277.43 157.418C277.573 157.32 277.748 157.279 277.92 157.301L311.281 161.629C311.404 161.645 311.52 161.693 311.619 161.768C311.718 161.843 311.795 161.942 311.844 162.056L327.779 199.634C327.852 199.804 327.855 199.996 327.788 200.169C327.722 200.341 327.591 200.481 327.423 200.558L289.672 217.963C289.579 218.006 289.478 218.028 289.375 218.028ZM273.839 176.681L279.672 191.161L289.757 216.358L326.202 199.555L310.695 162.987L278.363 158.792L273.839 176.681Z" fill="#222433"/>
<path d="M335.08 45.3991C331.45 44.1702 327.49 44.3589 323.992 45.9272C319.68 47.8708 317.826 50.9173 317.749 51.047L317.681 51.1603L317.659 51.2904C317.618 51.53 316.662 57.216 318.268 62.0855C318.268 62.0855 320.731 59.1852 321.909 58.9977C326.546 58.2606 330.165 60.8425 329.966 65.1533C329.809 68.5814 325.603 70.6641 325.603 70.6641C328.958 73.0962 332.662 75.0062 336.588 76.329C336.942 76.4478 337.312 76.5085 337.686 76.5087C338.225 76.5086 338.756 76.3811 339.236 76.1366C339.717 75.8921 340.133 75.5375 340.45 75.1017C341.845 73.2029 344.317 69.0912 345.204 62.8892C346.456 54.1055 342.955 48.0578 335.08 45.3991Z" fill="#FC8383"/>
<path d="M347.029 94.5195L370.336 135.807C371.689 138.697 371.839 142.006 370.754 145.007C369.669 148.008 367.437 150.455 364.55 151.809C364.274 151.938 363.994 152.057 363.709 152.164L348.637 157.295" fill="white"/>
<path d="M348.637 158.006C348.468 158.006 348.305 157.947 348.177 157.838C348.048 157.729 347.963 157.578 347.935 157.411C347.908 157.245 347.94 157.074 348.027 156.93C348.113 156.785 348.249 156.676 348.408 156.622L363.48 151.492C363.725 151.399 363.99 151.286 364.249 151.165C366.959 149.891 369.055 147.593 370.077 144.776C371.1 141.959 370.966 138.851 369.704 136.132L346.41 94.8694C346.364 94.7881 346.335 94.6985 346.323 94.6058C346.312 94.5131 346.319 94.4191 346.344 94.3292C346.369 94.2392 346.411 94.155 346.469 94.0814C346.526 94.0079 346.598 93.9464 346.679 93.9004C346.76 93.8545 346.85 93.825 346.942 93.8137C347.035 93.8023 347.129 93.8094 347.219 93.8344C347.309 93.8594 347.393 93.9019 347.466 93.9594C347.54 94.0169 347.601 94.0884 347.647 94.1697L370.955 135.457C370.963 135.472 370.972 135.488 370.978 135.504C372.407 138.565 372.564 142.069 371.415 145.246C370.266 148.423 367.905 151.014 364.85 152.451C364.559 152.588 364.258 152.714 363.959 152.828L348.864 157.967C348.791 157.992 348.714 158.006 348.637 158.006Z" fill="#222433"/>
<path d="M237.699 212.413C234.379 225.819 225.134 228.947 225.134 228.947C221.813 229.793 218.899 231.792 216.912 234.587C214.925 237.383 213.993 240.793 214.283 244.211H240.096L261.573 232.14L261.445 244.211H276.44L276.419 216.092" fill="#9ABEE3"/>
<path d="M342.597 90.2654C347.812 93.726 350.529 99.7685 350.895 104.966C351.032 106.905 351.037 108.559 351.019 110.033L348.163 158.007L348.071 159.08C348.473 172.344 335.513 183.979 321.068 179.355L318.798 178.628L282.09 162.031L277.397 216.185L236.023 212.253L243.601 132.302C243.833 129.862 245.386 122.216 260.779 119.845L309.089 118.66L321.877 90.6913" fill="white"/>
<path d="M277.397 216.896C277.375 216.896 277.352 216.896 277.33 216.893L235.956 212.961C235.769 212.943 235.596 212.851 235.476 212.706C235.356 212.561 235.299 212.374 235.317 212.186L242.895 132.235C243.267 128.31 246.072 121.391 260.672 119.143C260.702 119.138 260.732 119.135 260.762 119.135L308.628 117.96L321.232 90.3955C321.27 90.3106 321.326 90.2342 321.394 90.1706C321.462 90.1071 321.543 90.0576 321.63 90.0251C321.718 89.9926 321.811 89.9776 321.904 89.9811C321.997 89.9845 322.089 90.0063 322.174 90.0452C322.258 90.0841 322.335 90.1394 322.398 90.2078C322.462 90.2763 322.511 90.3565 322.544 90.4441C322.576 90.5317 322.591 90.6248 322.588 90.7181C322.584 90.8114 322.562 90.9032 322.524 90.9881L309.736 118.957C309.68 119.078 309.592 119.181 309.481 119.255C309.37 119.328 309.24 119.369 309.107 119.372L260.843 120.557C247.234 122.667 244.642 128.862 244.309 132.371L236.798 211.612L276.75 215.41L281.382 161.97C281.392 161.857 281.428 161.748 281.489 161.652C281.55 161.556 281.633 161.476 281.73 161.418C281.828 161.361 281.939 161.328 282.052 161.321C282.165 161.315 282.279 161.337 282.382 161.383L319.053 177.963L321.283 178.678C327.546 180.682 334.095 179.602 339.25 175.715C344.523 171.737 347.555 165.527 347.36 159.103C347.359 159.075 347.36 159.048 347.362 159.02L347.454 157.947L350.309 110.007C350.326 108.63 350.324 106.961 350.187 105.017C349.869 100.522 347.606 94.4423 342.204 90.8582C342.125 90.8074 342.056 90.7413 342.002 90.6636C341.949 90.586 341.911 90.4985 341.891 90.4061C341.872 90.3137 341.871 90.2184 341.889 90.1256C341.906 90.0329 341.942 89.9446 341.994 89.8659C342.047 89.7872 342.114 89.7197 342.192 89.6673C342.271 89.6149 342.359 89.5787 342.451 89.5607C342.544 89.5428 342.639 89.5435 342.732 89.5628C342.824 89.5821 342.912 89.6196 342.989 89.6731C348.821 93.5423 351.263 100.084 351.604 104.917C351.746 106.921 351.746 108.633 351.73 110.042V110.076L348.874 158.049L348.783 159.101C348.978 165.971 345.737 172.603 340.108 176.849C334.579 181.019 327.561 182.179 320.853 180.032L318.583 179.306C318.557 179.297 318.532 179.288 318.507 179.276L282.712 163.093L278.105 216.247C278.09 216.424 278.008 216.589 277.877 216.71C277.746 216.83 277.575 216.897 277.397 216.897V216.896Z" fill="#222433"/>
<path d="M332.824 45.5491C332.765 45.0367 332.736 44.5213 332.736 44.0054C332.736 41.3745 333.515 38.8028 334.975 36.6153C336.436 34.4278 338.511 32.7229 340.94 31.7161C343.368 30.7093 346.04 30.4459 348.618 30.9591C351.196 31.4724 353.565 32.7393 355.423 34.5996C357.282 36.4599 358.548 38.83 359.06 41.4103C359.573 43.9906 359.31 46.6652 358.304 49.0958C357.298 51.5264 355.595 53.6039 353.409 55.0655C351.224 56.5271 348.654 57.3073 346.026 57.3073C345.529 57.3072 345.033 57.2798 344.539 57.225" fill="#FC8383"/>
<path d="M324.828 67.0682C324.712 67.0681 324.597 67.0394 324.495 66.9848L321.575 65.4296C321.459 65.3681 321.363 65.2757 321.296 65.1628C321.23 65.0498 321.196 64.9207 321.198 64.7896C321.2 64.6586 321.239 64.5307 321.309 64.4201C321.38 64.3095 321.479 64.2205 321.597 64.163L325.713 62.1506C325.882 62.0678 326.077 62.0558 326.255 62.1171C326.434 62.1784 326.58 62.308 326.663 62.4775C326.746 62.647 326.758 62.8424 326.696 63.0208C326.635 63.1992 326.506 63.3459 326.336 63.4287L323.471 64.829L325.161 65.7297C325.301 65.8042 325.412 65.9235 325.477 66.0685C325.541 66.2135 325.555 66.3759 325.517 66.5299C325.478 66.6839 325.39 66.8206 325.265 66.9182C325.139 67.0159 324.985 67.0688 324.827 67.0687L324.828 67.0682Z" fill="#222433"/>
<path d="M349.387 74.1889C348.821 74.1895 348.266 74.0307 347.787 73.7305C345.999 72.6229 344.786 69.4615 344.182 64.3339C343.91 61.9497 343.779 59.5516 343.788 57.152C343.789 57.0135 343.832 56.8785 343.909 56.7636C343.987 56.6488 344.096 56.5591 344.224 56.5056C344.351 56.4521 344.492 56.4372 344.628 56.4626C344.764 56.488 344.89 56.5526 344.99 56.6486C345.365 57.0093 354.17 65.5399 353.414 70.7279C353.223 72.0436 352.476 73.0457 351.193 73.7071C350.639 74.0108 350.019 74.1761 349.387 74.1889ZM345.229 58.9131C345.264 60.2405 345.357 62.1736 345.595 64.1812C346.13 68.717 347.174 71.6788 348.535 72.5215C348.897 72.7457 349.499 72.9815 350.543 72.443C351.406 71.9981 351.885 71.37 352.008 70.5231C352.472 67.3394 348.023 61.8662 345.229 58.9131Z" fill="#222433"/>
<path d="M338.952 73.8322C338.474 73.8278 338 73.7493 337.546 73.5994C335.882 73.069 335.308 72.0071 335.12 71.21C334.02 66.5513 342.977 57.6521 344.002 56.6524C344.101 56.5556 344.227 56.49 344.363 56.4636C344.499 56.4372 344.639 56.4511 344.767 56.5037C344.896 56.5563 345.006 56.6452 345.084 56.7596C345.162 56.8739 345.205 57.0087 345.208 57.1473C345.228 59.3725 345.103 61.5967 344.835 63.8058C344.238 68.6008 343.022 71.7144 341.221 73.0602C340.571 73.5613 339.773 73.8328 338.952 73.8322ZM343.777 58.9183C342.865 59.8823 341.565 61.3168 340.314 62.9049C337.489 66.4932 336.135 69.3266 336.501 70.8834C336.599 71.297 336.858 71.8881 337.976 72.2444C338.901 72.5392 339.684 72.434 340.37 71.9211C342.945 69.9974 343.667 62.9833 343.777 58.9183Z" fill="#222433"/>
<path d="M260.741 105.195L258.61 97.1602C258.098 95.2294 260.543 93.931 261.853 95.4373L270.741 105.654L267.899 102.337" fill="white"/>
<path d="M270.743 106.365C270.641 106.366 270.541 106.344 270.448 106.302C270.356 106.26 270.273 106.198 270.207 106.121L261.319 95.9042C261.145 95.7041 260.908 95.5689 260.647 95.5206C260.387 95.4723 260.117 95.5137 259.883 95.6382C259.649 95.7627 259.463 95.9628 259.357 96.2061C259.251 96.4494 259.231 96.7214 259.299 96.978L261.43 105.013C261.478 105.195 261.452 105.389 261.358 105.553C261.263 105.716 261.108 105.835 260.926 105.883C260.743 105.931 260.549 105.905 260.386 105.811C260.223 105.716 260.105 105.56 260.056 105.378L257.925 97.343C257.775 96.7759 257.82 96.1746 258.055 95.6369C258.289 95.0992 258.699 94.6568 259.217 94.3818C259.735 94.1068 260.33 94.0153 260.906 94.1222C261.483 94.2292 262.006 94.5283 262.391 94.9708L268.271 101.731C268.335 101.77 268.392 101.818 268.44 101.875L271.282 105.192C271.37 105.295 271.427 105.422 271.446 105.556C271.465 105.691 271.445 105.828 271.388 105.952C271.331 106.075 271.24 106.18 271.126 106.253C271.012 106.327 270.879 106.366 270.743 106.366V106.365Z" fill="#222433"/>
<path d="M270.221 126.35C268.288 125.831 258.816 122.498 252.88 120.649C248.12 119.38 244.4 115.949 245.483 112.34C245.862 111.189 247.133 110.606 250.898 111.943C246.493 110.098 245.264 107.617 246.393 105.32C246.959 104.168 248.784 103.576 252.728 104.823C247.159 102.277 247.611 101.243 247.964 99.6661C249.888 95.1955 263.208 100.658 269.412 105.055C269.412 105.055 272.184 106.895 274.947 108.585" fill="white"/>
<path d="M270.222 127.061C270.159 127.061 270.097 127.053 270.037 127.037C269.081 126.781 266.465 125.9 263.154 124.784C259.678 123.613 255.739 122.286 252.682 121.333C249.325 120.435 246.575 118.56 245.323 116.315C244.955 115.691 244.719 114.998 244.629 114.28C244.539 113.561 244.598 112.831 244.802 112.136C244.889 111.839 245.038 111.563 245.238 111.326C245.437 111.09 245.684 110.897 245.962 110.761C246.311 110.597 246.689 110.5 247.074 110.477C246.399 109.896 245.875 109.161 245.545 108.334C245.346 107.796 245.261 107.222 245.297 106.649C245.333 106.076 245.489 105.517 245.754 105.007C246.133 104.234 246.956 103.494 248.701 103.419C246.965 102.138 246.907 101.097 247.234 99.6661L247.269 99.5106C247.279 99.4674 247.292 99.4253 247.31 99.3847C247.706 98.4648 248.475 97.8384 249.596 97.5229C254.217 96.224 264.49 100.696 269.82 104.474C269.83 104.48 272.596 106.315 275.314 107.978C275.474 108.077 275.588 108.235 275.631 108.418C275.675 108.601 275.644 108.793 275.547 108.953C275.449 109.114 275.291 109.229 275.109 109.273C274.927 109.318 274.734 109.289 274.574 109.192C271.831 107.515 269.043 105.666 269.016 105.647C263.466 101.714 253.747 97.8322 249.979 98.8919C249.306 99.0816 248.866 99.4089 248.637 99.8927L248.617 99.983C248.445 100.735 248.389 101.059 248.746 101.532C249.281 102.241 250.679 103.105 253.02 104.175C253.184 104.251 253.314 104.386 253.383 104.553C253.451 104.721 253.453 104.909 253.388 105.078C253.323 105.247 253.196 105.384 253.033 105.463C252.87 105.542 252.683 105.555 252.511 105.5C249.574 104.573 247.524 104.623 247.027 105.634C246.847 105.969 246.741 106.339 246.714 106.718C246.688 107.097 246.742 107.477 246.873 107.834C247.354 109.117 248.839 110.311 251.169 111.287C251.34 111.359 251.476 111.494 251.549 111.664C251.622 111.835 251.625 112.027 251.558 112.2C251.492 112.372 251.36 112.512 251.192 112.59C251.024 112.667 250.832 112.675 250.657 112.613C248.142 111.72 247.055 111.807 246.586 112.037C246.48 112.089 246.387 112.162 246.313 112.253C246.239 112.344 246.185 112.449 246.154 112.563C246.007 113.073 245.967 113.608 246.037 114.134C246.107 114.66 246.285 115.166 246.56 115.62C247.614 117.51 250.104 119.173 253.059 119.962C253.068 119.964 253.078 119.967 253.087 119.97C256.161 120.927 260.115 122.26 263.604 123.435C266.761 124.499 269.488 125.417 270.402 125.663C270.569 125.707 270.714 125.811 270.81 125.954C270.906 126.098 270.947 126.271 270.924 126.443C270.902 126.614 270.818 126.771 270.688 126.885C270.558 126.999 270.391 127.062 270.218 127.061L270.222 127.061Z" fill="#222433"/>
<path d="M339.387 110.683L325.439 139.294C323.984 142.282 321.444 144.601 318.337 145.776C315.23 146.95 311.792 146.892 308.727 145.612L274.399 131.305C272.82 130.647 271.386 129.684 270.178 128.472C268.971 127.259 268.015 125.82 267.363 124.237C266.711 122.654 266.377 120.958 266.381 119.246C266.384 117.535 266.724 115.84 267.381 114.259C268.039 112.679 269.001 111.244 270.213 110.035C271.424 108.827 272.862 107.869 274.443 107.217C276.025 106.565 277.719 106.231 279.429 106.234C281.14 106.237 282.833 106.578 284.412 107.236L307.41 116.82C307.41 116.82 307.336 116.787 315.246 99.311C316.831 95.8101 319.294 92.5598 321.859 90.7283" fill="white"/>
<path d="M313.723 147.327C311.914 147.327 310.123 146.967 308.454 146.268L274.126 131.962C270.763 130.56 268.094 127.879 266.706 124.508C265.318 121.137 265.325 117.352 266.725 113.986C268.126 110.62 270.804 107.949 274.172 106.56C277.541 105.171 281.322 105.178 284.685 106.579L307.028 115.89C307.187 115.518 307.415 115.002 307.737 114.275C308.627 112.264 310.54 107.986 314.599 99.0173C316.266 95.3361 318.825 92.0208 321.446 90.1493C321.6 90.0431 321.789 90.0017 321.973 90.0339C322.156 90.0661 322.32 90.1694 322.428 90.3214C322.537 90.4734 322.581 90.662 322.552 90.8464C322.522 91.0307 322.422 91.1962 322.271 91.3069C319.845 93.0395 317.461 96.1422 315.894 99.6042C308.855 115.153 308.156 116.856 308.089 117.032C308.081 117.056 308.072 117.08 308.062 117.104C307.988 117.275 307.849 117.41 307.676 117.48C307.503 117.55 307.31 117.549 307.137 117.477L284.139 107.892C281.124 106.636 277.733 106.629 274.714 107.875C271.694 109.12 269.292 111.515 268.037 114.533C266.781 117.551 266.775 120.944 268.02 123.966C269.264 126.989 271.657 129.393 274.672 130.649L309 144.955C311.898 146.162 315.148 146.216 318.084 145.106C321.021 143.996 323.423 141.806 324.8 138.982L338.749 110.37C338.833 110.203 338.979 110.075 339.156 110.015C339.333 109.955 339.527 109.968 339.695 110.05C339.863 110.132 339.992 110.277 340.054 110.454C340.116 110.631 340.106 110.825 340.026 110.994L326.078 139.606C324.949 141.922 323.191 143.875 321.007 145.24C318.822 146.605 316.298 147.328 313.723 147.327Z" fill="#222433"/>
<path d="M282.09 162.743C281.988 162.743 281.887 162.72 281.794 162.678L278.716 161.26C278.631 161.221 278.555 161.165 278.491 161.097C278.428 161.028 278.379 160.948 278.346 160.86C278.314 160.773 278.299 160.68 278.303 160.586C278.306 160.493 278.328 160.401 278.367 160.316C278.406 160.232 278.462 160.155 278.53 160.092C278.599 160.028 278.679 159.979 278.766 159.947C278.854 159.914 278.947 159.899 279.04 159.903C279.133 159.907 279.225 159.929 279.31 159.968L282.387 161.385C282.534 161.453 282.654 161.569 282.727 161.714C282.799 161.86 282.819 162.026 282.785 162.184C282.75 162.343 282.662 162.485 282.535 162.586C282.409 162.688 282.251 162.743 282.089 162.743H282.09Z" fill="#222433"/>
<path d="M321.811 86.3784L342.13 85.9309C342.712 85.9181 343.276 86.1374 343.696 86.5404C344.117 86.9435 344.361 87.4973 344.374 88.08C344.386 88.6627 344.167 89.2267 343.765 89.6477C343.362 90.0688 342.809 90.3126 342.227 90.3254L321.908 90.7729C321.62 90.7793 321.333 90.7287 321.064 90.6242C320.795 90.5197 320.55 90.3632 320.341 90.1636C320.133 89.9641 319.966 89.7254 319.85 89.4612C319.734 89.197 319.671 88.9126 319.664 88.624C319.658 88.3355 319.708 88.0485 319.813 87.7795C319.917 87.5105 320.074 87.2647 320.273 87.0562C320.473 86.8476 320.711 86.6805 320.975 86.5642C321.239 86.4479 321.523 86.3848 321.811 86.3784Z" fill="white"/>
<path d="M321.858 91.4847C321.093 91.4841 320.359 91.1816 319.815 90.6428C319.271 90.104 318.962 89.3724 318.954 88.6067C318.945 87.841 319.239 87.1029 319.771 86.5527C320.303 86.0024 321.031 85.6843 321.796 85.6674L342.114 85.2201C342.884 85.2048 343.628 85.4957 344.183 86.029C344.739 86.5623 345.061 87.2943 345.077 88.0645C345.094 88.8348 344.805 89.5802 344.274 90.1374C343.742 90.6946 343.012 91.018 342.242 91.0367L321.923 91.484C321.901 91.4844 321.879 91.4847 321.858 91.4847ZM321.827 87.0895C321.436 87.103 321.067 87.2699 320.798 87.5541C320.53 87.8383 320.384 88.217 320.393 88.608C320.402 88.999 320.564 89.3708 320.844 89.6429C321.125 89.9151 321.501 90.0656 321.892 90.0618L342.211 89.6145C342.407 89.6126 342.602 89.5717 342.782 89.4941C342.963 89.4165 343.126 89.3038 343.263 89.1624C343.4 89.0211 343.507 88.854 343.579 88.6708C343.651 88.4876 343.686 88.292 343.681 88.0953C343.677 87.8985 343.634 87.7046 343.554 87.5248C343.474 87.3449 343.36 87.1827 343.217 87.0476C343.074 86.9124 342.906 86.807 342.722 86.7374C342.538 86.6678 342.342 86.6355 342.145 86.6422L321.827 87.0895Z" fill="#222433"/>
<path d="M325.865 70.8661C325.698 70.8662 325.537 70.8075 325.409 70.7004C325.281 70.5932 325.195 70.4444 325.166 70.2801C325.136 70.1157 325.166 69.9462 325.249 69.8014C325.331 69.6565 325.463 69.5455 325.619 69.4878C326.389 69.2035 327.078 68.7369 327.629 68.1278C328.179 67.5188 328.573 66.7855 328.779 65.9905C328.984 65.1956 328.994 64.3627 328.808 63.563C328.622 62.7633 328.245 62.0207 327.71 61.3985C327.174 60.7764 326.496 60.2933 325.734 59.9904C324.971 59.6876 324.147 59.5741 323.331 59.6597C322.515 59.7452 321.732 60.0272 321.049 60.4816C320.365 60.936 319.802 61.5492 319.407 62.2689C319.363 62.3521 319.303 62.4257 319.23 62.4854C319.157 62.5451 319.073 62.5897 318.983 62.6167C318.893 62.6436 318.798 62.6524 318.704 62.6424C318.611 62.6324 318.52 62.6039 318.438 62.5585C318.355 62.5131 318.282 62.4518 318.224 62.3781C318.165 62.3043 318.122 62.2197 318.096 62.129C318.071 62.0384 318.063 61.9435 318.074 61.85C318.086 61.7564 318.116 61.6661 318.162 61.5842C318.667 60.6632 319.388 59.8784 320.263 59.2969C321.137 58.7154 322.139 58.3545 323.183 58.245C324.227 58.1355 325.282 58.2807 326.258 58.6682C327.234 59.0557 328.102 59.674 328.787 60.4701C329.472 61.2663 329.954 62.2167 330.192 63.24C330.431 64.2633 330.418 65.3292 330.155 66.3465C329.892 67.3638 329.387 68.3022 328.683 69.0815C327.979 69.8609 327.096 70.458 326.111 70.8217C326.033 70.851 325.949 70.866 325.865 70.8661Z" fill="#222433"/>
</g>
<g clip-path="url(#clip3_44661_19042)">
<path d="M436.907 244.928H17.0929C16.6525 244.928 16.3157 244.578 16.3157 244.12C16.3157 243.662 16.6525 243.312 17.0929 243.312H436.907C437.348 243.312 437.684 243.662 437.684 244.12C437.684 244.578 437.348 244.928 436.907 244.928Z" fill="#222433"/>
</g>
<g clip-path="url(#clip4_44661_19042)">
<path d="M375.714 178.42L378.71 167.567L385.738 141.483L391.339 120.696C392.552 116.069 389.107 111.534 384.372 111.534L348.489 111.444C344.932 111.435 341.808 113.806 340.854 117.237L323.817 178.496" fill="white"/>
<path d="M323.817 179.172C324.112 179.172 324.383 178.976 324.467 178.678L341.503 117.418C342.371 114.296 345.235 112.119 348.469 112.119C348.475 112.119 348.481 112.119 348.488 112.119L384.371 112.21C386.4 112.21 388.278 113.138 389.524 114.756C390.792 116.403 391.216 118.506 390.687 120.525L378.059 167.391L375.064 178.24C374.965 178.599 375.175 178.971 375.534 179.07C375.893 179.17 376.265 178.959 376.364 178.599L379.359 167.747L391.989 120.872C392.627 118.441 392.117 115.912 390.592 113.931C389.088 111.979 386.822 110.859 384.372 110.859L348.491 110.769H348.469C344.631 110.769 341.235 113.351 340.204 117.056L323.168 178.315C323.068 178.675 323.278 179.047 323.636 179.147C323.697 179.164 323.758 179.172 323.817 179.172Z" fill="#222433"/>
<path d="M294.828 244.214C295.093 244.214 295.344 244.057 295.451 243.797L322.456 178.401C322.598 178.056 322.435 177.661 322.091 177.519C321.747 177.376 321.353 177.54 321.21 177.885L294.205 243.281C294.063 243.625 294.227 244.02 294.571 244.163C294.655 244.197 294.742 244.214 294.828 244.214Z" fill="#222433"/>
<path d="M302.877 181.588H372.55C374.297 181.588 375.714 180.17 375.714 178.42V177.519H301.316L302.877 181.588Z" fill="#222433"/>
<path d="M401.305 244.684C401.403 244.684 401.503 244.662 401.597 244.617C401.933 244.455 402.074 244.052 401.912 243.716L371.103 179.598C370.941 179.262 370.538 179.121 370.203 179.283C369.867 179.445 369.726 179.848 369.888 180.184L400.698 244.301C400.814 244.543 401.055 244.684 401.305 244.684Z" fill="#222433"/>
<path d="M373.287 244.684C373.386 244.684 373.485 244.662 373.579 244.617C373.915 244.455 374.056 244.052 373.894 243.716L343.087 179.599C342.926 179.263 342.523 179.121 342.187 179.283C341.852 179.445 341.711 179.848 341.872 180.184L372.68 244.301C372.796 244.543 373.036 244.684 373.287 244.684Z" fill="#222433"/>
</g>
<rect x="76.943" y="35.3357" width="57.2514" height="56.4643" fill="#E2ECF7"/>
<defs>
<clipPath id="clip0_44661_19042">
<rect width="212.103" height="213.508" fill="white" transform="translate(63.3708 12.99)"/>
</clipPath>
<clipPath id="clip1_44661_19042">
<rect width="42.0896" height="76.0503" fill="white" transform="translate(226.291 52.4322)"/>
</clipPath>
<clipPath id="clip2_44661_19042">
<rect width="157.954" height="213.508" fill="white" transform="translate(214.231 30.7035)"/>
</clipPath>
<clipPath id="clip3_44661_19042">
<rect width="421.369" height="3.07035" fill="white" transform="translate(16.3157 242.558)"/>
</clipPath>
<clipPath id="clip4_44661_19042">
<rect width="107.825" height="133.915" fill="white" transform="matrix(-1 0 0 1 401.979 110.769)"/>
</clipPath>
</defs>
</svg>
