<svg viewBox="0 0 444 250" fill="none" xmlns="http://www.w3.org/2000/svg">
<g clip-path="url(#clip0_44083_16052)">
<path d="M364.852 27.0935H357.428C357.237 27.0935 357.055 27.1695 356.92 27.3046C356.785 27.4398 356.709 27.6231 356.709 27.8143H358.532C362.037 27.8147 365.398 29.2116 367.876 31.6977C370.354 34.1839 371.746 37.5558 371.747 41.0717V226.368C371.747 228.109 371.406 229.833 370.742 231.442C370.078 233.05 369.105 234.512 367.878 235.743C366.651 236.975 365.194 237.951 363.591 238.618C361.988 239.285 360.27 239.628 358.534 239.628H356.709C356.709 239.819 356.785 240.003 356.92 240.138C357.055 240.273 357.237 240.349 357.428 240.349H364.852C368.547 240.345 372.089 238.87 374.701 236.249C377.314 233.628 378.783 230.075 378.788 226.368V41.0744C378.783 37.3679 377.313 33.8145 374.701 31.1936C372.088 28.5727 368.546 27.0982 364.852 27.0935Z" fill="#222433"/>
<path d="M371.746 41.0744V226.368C371.746 229.884 370.355 233.257 367.877 235.743C365.399 238.23 362.038 239.628 358.533 239.628H276.867C273.365 239.632 270.006 238.24 267.527 235.759C265.048 233.278 263.654 229.91 263.65 226.397V41.0744C263.65 39.333 263.991 37.6088 264.656 36C265.32 34.3912 266.293 32.9295 267.521 31.6982C268.748 30.4669 270.205 29.4902 271.809 28.8238C273.412 28.1575 275.131 27.8145 276.867 27.8145H358.531C362.036 27.8145 365.397 29.2113 367.875 31.6975C370.353 34.1838 371.746 37.5559 371.746 41.072V41.0744Z" fill="white"/>
<path d="M276.851 240.349C273.162 240.349 269.624 238.879 267.013 236.263C264.403 233.648 262.935 230.099 262.931 226.398V41.0744C262.935 37.3678 264.405 33.8143 267.017 31.1933C269.63 28.5723 273.172 27.098 276.867 27.0938H358.531C362.225 27.098 365.766 28.5721 368.379 31.1926C370.991 33.8131 372.46 37.3661 372.464 41.072V226.368C372.461 230.074 370.992 233.628 368.38 236.249C365.769 238.87 362.227 240.344 358.533 240.349H276.851ZM276.867 28.5354C273.553 28.5391 270.376 29.8614 268.033 32.2121C265.69 34.5629 264.372 37.75 264.368 41.0744V226.397C264.372 229.716 265.689 232.898 268.03 235.244C270.37 237.59 273.543 238.907 276.852 238.908H358.531C361.844 238.904 365.021 237.581 367.364 235.231C369.706 232.88 371.024 229.693 371.027 226.369V41.072C371.023 37.7483 369.706 34.5617 367.363 32.2114C365.02 29.8612 361.844 28.5391 358.531 28.5354H276.867Z" fill="#222433"/>
<path d="M338.249 37.1029H297.175C295.852 37.1014 294.583 36.5734 293.648 35.6347C292.712 34.696 292.186 33.4234 292.184 32.0959C292.183 31.1513 291.808 30.2456 291.143 29.5777C290.477 28.9097 289.574 28.534 288.633 28.5329C288.442 28.5329 288.259 28.457 288.124 28.3218C287.99 28.1866 287.914 28.0033 287.914 27.8121C287.914 27.621 287.99 27.4376 288.124 27.3025C288.259 27.1673 288.442 27.0914 288.633 27.0914C289.955 27.0928 291.223 27.6206 292.158 28.5588C293.093 29.497 293.62 30.7691 293.621 32.0959C293.622 33.0412 293.997 33.9475 294.663 34.6159C295.329 35.2843 296.233 35.6603 297.175 35.6613H338.246C339.188 35.6602 340.091 35.2842 340.757 34.6158C341.423 33.9475 341.797 33.0414 341.798 32.0964C341.8 30.7696 342.326 29.4975 343.261 28.5592C344.196 27.621 345.464 27.0931 346.786 27.0914H346.789C346.98 27.0914 347.163 27.1673 347.297 27.3025C347.432 27.4376 347.508 27.621 347.508 27.8121C347.508 28.0033 347.432 28.1866 347.297 28.3218C347.163 28.457 346.98 28.5329 346.789 28.5329H346.787C345.845 28.533 344.942 28.9081 344.276 29.5759C343.61 30.2436 343.236 31.1494 343.235 32.094C343.235 33.4212 342.71 34.6941 341.775 35.6331C340.84 36.5722 339.572 37.1008 338.249 37.1029Z" fill="#222433"/>
</g>
<g clip-path="url(#clip1_44083_16052)">
<path d="M287.389 95.6035L243.121 96.0933C237.341 96.1573 232.604 91.4757 232.539 85.6366L232.287 62.698C232.222 56.8589 236.856 52.0736 242.636 52.0097L286.903 51.5198C292.683 51.4559 297.421 56.1374 297.485 61.9766L297.738 84.9152C297.802 90.7543 293.169 95.5396 287.389 95.6035Z" fill="white"/>
<path d="M242.628 51.3036L286.896 50.8137C293.052 50.7456 298.116 55.7498 298.184 61.9689L298.437 84.9074C298.505 91.1265 293.553 96.2415 287.396 96.3096L243.129 96.7994C236.973 96.8676 231.909 91.8634 231.84 85.6443L231.588 62.7058C231.519 56.4867 236.472 51.3717 242.628 51.3036ZM287.381 94.8974C292.766 94.8378 297.099 90.3633 297.039 84.9229L296.786 61.9843C296.727 56.5439 292.297 52.1663 286.911 52.2259L242.644 52.7158C237.258 52.7753 232.926 57.2498 232.986 62.6903L233.238 85.6289C233.298 91.0693 237.728 95.4469 243.114 95.3873L287.381 94.8974Z" fill="#222433"/>
</g>
<g clip-path="url(#clip2_44083_16052)">
<path d="M277.725 86.8309C280.311 86.8023 282.385 84.68 282.356 82.0906C282.328 79.5012 280.208 77.4252 277.622 77.4539C275.036 77.4825 272.962 79.6048 272.991 82.1942C273.019 84.7836 275.139 86.8595 277.725 86.8309Z" fill="#9ABEE3"/>
</g>
<g clip-path="url(#clip3_44083_16052)">
<path d="M284.663 86.8309C287.249 86.8023 289.322 84.68 289.294 82.0906C289.265 79.5012 287.145 77.4252 284.559 77.4539C281.973 77.4825 279.9 79.6048 279.928 82.1942C279.957 84.7836 282.076 86.8595 284.663 86.8309Z" fill="#0782D0"/>
</g>
<g clip-path="url(#clip4_44083_16052)">
<path d="M232.944 60.5821L322.387 59.5928C322.623 59.5902 322.85 59.6609 323.019 59.7892C323.187 59.9176 323.283 60.0932 323.285 60.2773C323.287 60.4614 323.195 60.6391 323.029 60.7711C322.864 60.9032 322.639 60.9788 322.403 60.9814L232.959 61.9707C232.723 61.9733 232.496 61.9027 232.328 61.7743C232.16 61.646 232.064 61.4704 232.062 61.2863C232.06 61.1021 232.152 60.9245 232.317 60.7924C232.483 60.6604 232.708 60.5847 232.944 60.5821Z" fill="#222433"/>
</g>
<g clip-path="url(#clip5_44083_16052)">
<path d="M390.642 226.728C393.465 226.333 395.436 223.742 395.046 220.942C394.655 218.142 392.05 216.193 389.227 216.588C386.404 216.984 384.432 219.574 384.823 222.375C385.214 225.175 387.819 227.124 390.642 226.728Z" fill="white"/>
<path d="M390.743 227.453C387.522 227.904 384.538 225.672 384.093 222.477C383.647 219.282 385.905 216.315 389.126 215.864C392.347 215.412 395.33 217.645 395.776 220.84C396.222 224.035 393.964 227.001 390.743 227.453ZM389.328 217.312C386.912 217.651 385.219 219.876 385.553 222.272C385.887 224.669 388.125 226.343 390.541 226.004C392.956 225.666 394.65 223.441 394.316 221.044C393.981 218.648 391.744 216.974 389.328 217.312Z" fill="#222433"/>
<path d="M394.117 251.635C393.713 251.691 393.341 251.413 393.285 251.013L389.204 221.761C389.148 221.361 389.43 220.991 389.833 220.934C390.237 220.878 390.609 221.156 390.665 221.556L394.746 250.808C394.802 251.208 394.52 251.578 394.117 251.635Z" fill="#222433"/>
</g>
<g clip-path="url(#clip6_44083_16052)">
<path d="M132.214 211.03C120.818 222.783 129.229 228.172 129.229 228.172C131.648 228.791 133.771 230.249 135.219 232.288C136.668 234.326 137.349 236.813 137.142 239.307H117.075L91.228 219.601L109.684 196.168L132.214 211.03Z" fill="#9AE2E0"/>
<path d="M196.488 51.7702C199.171 51.7702 201.345 49.5911 201.345 46.9031C201.345 44.2151 199.171 42.036 196.488 42.036C193.806 42.036 191.632 44.2151 191.632 46.9031C191.632 49.5911 193.806 51.7702 196.488 51.7702Z" fill="white"/>
<path d="M196.488 52.4825C195.387 52.4825 194.311 52.1552 193.395 51.5422C192.479 50.9291 191.766 50.0577 191.344 49.0382C190.923 48.0188 190.813 46.8969 191.028 45.8147C191.242 44.7324 191.773 43.7382 192.551 42.9579C193.33 42.1777 194.322 41.6463 195.402 41.431C196.482 41.2157 197.601 41.3262 198.619 41.7485C199.636 42.1708 200.505 42.8859 201.117 43.8034C201.729 44.7209 202.056 45.7996 202.056 46.9031C202.054 48.3823 201.467 49.8005 200.423 50.8464C199.379 51.8924 197.964 52.4808 196.488 52.4825ZM196.488 42.7483C195.668 42.7483 194.867 42.992 194.185 43.4485C193.503 43.9051 192.972 44.554 192.658 45.3131C192.344 46.0723 192.262 46.9077 192.422 47.7137C192.582 48.5196 192.977 49.26 193.556 49.841C194.136 50.4221 194.875 50.8178 195.679 50.9781C196.483 51.1384 197.317 51.0562 198.075 50.7417C198.832 50.4272 199.48 49.8947 199.935 49.2114C200.391 48.5282 200.634 47.7249 200.634 46.9031C200.633 45.8016 200.196 44.7456 199.418 43.9667C198.641 43.1878 197.587 42.7496 196.488 42.7483Z" fill="#222433"/>
<path d="M193.74 127.008L200.587 136.908C200.444 138.779 200.891 140.648 201.866 142.25C204.306 146.144 207.268 148.091 204.922 154.976C203.856 158.086 201.795 162.55 204.756 163.452C206.817 164.069 209.447 158.941 211.508 155.213C211.058 161.315 210.442 169.316 213.19 169.696C215.939 170.076 216.91 164.283 217.455 156.377C218.379 165.161 217.644 169.933 220.322 169.981C223.164 170.028 223.828 162.74 223.425 155.736L220.203 140.042C219.587 138.001 218.924 135.983 218.118 133.941C217.993 133.536 217.843 133.14 217.668 132.754L205.751 107.445L205.443 101.177L192.721 105.332L193.74 127.008Z" fill="white"/>
<path d="M220.348 170.693H220.31C217.959 170.652 217.591 168.213 217.322 164.103C216.768 167.229 216.019 169.014 214.978 169.861C214.719 170.079 214.418 170.24 214.093 170.333C213.768 170.426 213.428 170.449 213.093 170.402C210.205 170.003 210.199 164.292 210.574 158.37C208.626 161.805 206.621 164.754 204.553 164.134C204.189 164.038 203.85 163.865 203.557 163.628C203.264 163.39 203.025 163.094 202.854 162.757C201.986 161.017 202.971 158.295 203.841 155.894C203.985 155.497 204.125 155.111 204.25 154.744C206.06 149.432 204.612 147.404 202.607 144.597C202.166 143.98 201.71 143.34 201.264 142.629C200.258 140.971 199.77 139.049 199.862 137.111L193.156 127.414C193.08 127.304 193.036 127.175 193.03 127.041L192.011 105.365C192.004 105.209 192.048 105.055 192.136 104.927C192.225 104.798 192.353 104.703 192.501 104.654L205.223 100.499C205.327 100.465 205.437 100.456 205.545 100.472C205.653 100.487 205.756 100.528 205.846 100.59C205.936 100.652 206.01 100.734 206.064 100.829C206.117 100.925 206.148 101.031 206.153 101.14L206.454 107.267L218.311 132.45C218.496 132.859 218.656 133.279 218.791 133.708C219.501 135.512 220.167 137.459 220.884 139.836C220.89 139.857 220.895 139.878 220.899 139.899L224.121 155.592C224.128 155.626 224.133 155.66 224.135 155.695C224.332 159.122 224.528 167.366 222.101 169.899C221.879 170.146 221.609 170.343 221.308 170.48C221.006 170.616 220.679 170.689 220.348 170.693ZM217.455 155.665C217.63 155.665 217.8 155.73 217.93 155.847C218.061 155.965 218.143 156.127 218.161 156.302C218.419 158.749 218.546 160.843 218.659 162.691C218.927 167.118 219.109 169.247 220.335 169.267C220.478 169.268 220.618 169.236 220.747 169.175C220.875 169.113 220.988 169.023 221.077 168.911C222.446 167.482 223.091 162.349 222.72 155.827L219.514 140.216C218.809 137.88 218.156 135.968 217.458 134.201C217.45 134.181 217.443 134.161 217.437 134.14C217.32 133.765 217.18 133.396 217.018 133.038L205.109 107.749C205.069 107.665 205.046 107.573 205.042 107.48L204.779 102.143L193.457 105.841L194.44 126.77L201.171 136.503C201.264 136.637 201.308 136.799 201.295 136.962C201.167 138.684 201.579 140.403 202.472 141.879C202.891 142.546 203.334 143.167 203.763 143.768C205.844 146.682 207.641 149.199 205.595 155.206C205.466 155.582 205.324 155.975 205.177 156.38C204.443 158.406 203.53 160.928 204.126 162.12C204.21 162.283 204.329 162.425 204.474 162.537C204.618 162.649 204.785 162.729 204.963 162.77C206.325 163.176 208.996 158.308 210.433 155.693C210.587 155.413 210.738 155.137 210.887 154.868C210.965 154.726 211.09 154.615 211.24 154.554C211.39 154.492 211.556 154.484 211.712 154.531C211.867 154.577 212.002 154.675 212.094 154.809C212.186 154.943 212.229 155.104 212.217 155.266L212.205 155.432C211.981 158.47 211.727 161.913 211.864 164.64C211.997 167.298 212.516 168.883 213.288 168.99C213.429 169.012 213.574 169.003 213.711 168.962C213.848 168.921 213.975 168.851 214.082 168.755C215.997 167.195 216.541 159.299 216.746 156.327C216.758 156.149 216.836 155.982 216.965 155.86C217.094 155.737 217.264 155.667 217.442 155.664L217.455 155.665Z" fill="#222433"/>
<path d="M186.04 208.609C185.448 215.565 190.091 221.429 196.701 223.637C199.497 224.563 204.804 227.127 207.552 228.172C212.574 230.071 215.891 234.155 215.441 239.307H160.169L160.193 208.656L186.04 208.609Z" fill="#9AE2E0"/>
<path d="M166.803 170.005C166.045 171.358 162.776 175.062 162.776 175.062L130.864 211.458L107.338 200.537L133.422 158.798" fill="white"/>
<path d="M130.863 212.17C130.76 212.17 130.659 212.148 130.565 212.104L107.04 201.183C106.948 201.14 106.867 201.079 106.801 201.002C106.735 200.926 106.686 200.836 106.657 200.739C106.628 200.642 106.62 200.541 106.634 200.44C106.648 200.34 106.682 200.244 106.736 200.158L132.82 158.42C132.869 158.341 132.934 158.272 133.01 158.218C133.086 158.164 133.172 158.125 133.263 158.104C133.354 158.083 133.448 158.08 133.54 158.096C133.632 158.112 133.721 158.145 133.8 158.195C133.879 158.244 133.947 158.309 134.001 158.385C134.056 158.462 134.094 158.548 134.115 158.639C134.136 158.73 134.139 158.825 134.123 158.917C134.108 159.009 134.074 159.097 134.025 159.177L108.368 200.23L130.68 210.588L162.242 174.591C163.139 173.575 165.592 170.711 166.184 169.656C166.228 169.573 166.289 169.499 166.363 169.44C166.436 169.38 166.521 169.336 166.611 169.31C166.702 169.284 166.797 169.276 166.89 169.286C166.984 169.297 167.075 169.327 167.157 169.373C167.239 169.419 167.312 169.481 167.37 169.556C167.428 169.631 167.47 169.716 167.495 169.807C167.52 169.899 167.526 169.994 167.514 170.088C167.501 170.181 167.47 170.272 167.423 170.353C166.637 171.756 163.443 175.38 163.308 175.533L131.397 211.928C131.331 212.004 131.248 212.065 131.156 212.107C131.064 212.148 130.965 212.17 130.863 212.17Z" fill="#222433"/>
<path d="M187.979 140.528L156.545 191.847L138.776 223.542L101.107 203.053L148.016 125.251C147.9 124.575 147.821 123.894 147.779 123.209C147.258 115.446 150.954 108.418 156.782 104.762L162.728 104.738L193.74 105.973L194.853 218.296L156.023 217.726L156.521 191.847" fill="white"/>
<path d="M138.776 224.255C138.658 224.255 138.542 224.225 138.438 224.169L100.769 203.679C100.684 203.633 100.61 203.571 100.55 203.495C100.491 203.42 100.447 203.333 100.422 203.24C100.397 203.147 100.391 203.05 100.404 202.954C100.417 202.859 100.45 202.767 100.499 202.685L147.271 125.109C147.184 124.56 147.118 123.951 147.07 123.259C146.544 115.419 150.121 108.101 156.404 104.158C156.516 104.088 156.646 104.05 156.779 104.05L162.725 104.026H162.756L193.768 105.261C193.95 105.268 194.123 105.345 194.25 105.476C194.377 105.607 194.449 105.782 194.451 105.965L195.564 218.288C195.565 218.383 195.547 218.477 195.511 218.565C195.475 218.653 195.422 218.733 195.355 218.8C195.288 218.868 195.209 218.922 195.12 218.958C195.032 218.993 194.938 219.01 194.843 219.008L156.013 218.438C155.919 218.436 155.827 218.416 155.741 218.379C155.655 218.342 155.577 218.288 155.512 218.221C155.447 218.153 155.396 218.073 155.362 217.986C155.328 217.899 155.311 217.806 155.313 217.712L155.755 194.71L139.396 223.891C139.334 224.002 139.244 224.094 139.135 224.157C139.026 224.221 138.903 224.255 138.776 224.255ZM102.1 202.783L138.5 222.581L155.836 191.657C155.869 191.537 155.933 191.428 156.021 191.34L187.373 140.155C187.472 139.994 187.63 139.879 187.814 139.835C187.997 139.791 188.19 139.822 188.351 139.921C188.511 140.019 188.626 140.178 188.67 140.362C188.714 140.546 188.683 140.739 188.585 140.9L157.227 192.094L156.748 217.023L194.136 217.572L193.036 106.657L162.715 105.451L156.989 105.474C151.256 109.163 148.002 115.921 148.488 123.162C148.529 123.82 148.605 124.476 148.716 125.126C148.746 125.296 148.714 125.472 148.624 125.62L102.1 202.783Z" fill="#222433"/>
<path d="M211.106 137.716C211.745 141.372 214.802 144.102 216.934 147.735C219.895 152.744 222.264 155.665 223.638 155.617C226.789 155.522 222.075 147.711 220.179 140.019" fill="white"/>
<path d="M223.597 156.33C222.546 156.33 220.641 155.404 216.322 148.098C215.609 146.927 214.836 145.795 214.006 144.705C212.387 142.502 210.857 140.421 210.405 137.839C210.388 137.746 210.39 137.652 210.41 137.56C210.43 137.468 210.468 137.382 210.522 137.305C210.576 137.228 210.644 137.162 210.723 137.112C210.802 137.062 210.89 137.027 210.982 137.011C211.074 136.995 211.169 136.997 211.26 137.018C211.351 137.038 211.438 137.077 211.514 137.131C211.591 137.185 211.656 137.253 211.706 137.333C211.756 137.412 211.789 137.5 211.805 137.593C212.199 139.845 213.632 141.795 215.15 143.861C216.009 144.99 216.808 146.162 217.546 147.375C221.761 154.506 223.311 154.907 223.603 154.907H223.613C223.841 154.9 223.882 154.839 223.896 154.819C224.361 154.123 223.185 150.991 222.146 148.227C221.224 145.772 220.178 142.989 219.489 140.191C219.444 140.007 219.473 139.813 219.57 139.652C219.668 139.49 219.826 139.374 220.009 139.328C220.192 139.283 220.385 139.313 220.546 139.41C220.708 139.508 220.824 139.666 220.869 139.849C221.538 142.565 222.568 145.307 223.476 147.725C224.965 151.688 225.949 154.307 225.076 155.612C224.919 155.84 224.706 156.026 224.459 156.151C224.211 156.277 223.936 156.338 223.659 156.33C223.638 156.33 223.619 156.33 223.597 156.33Z" fill="#222433"/>
<path d="M156.782 104.786L155.526 89.7572L152.708 74.9434C151.897 72.5735 152.092 69.5737 153.386 67.0334C154.3 65.1795 155.743 63.6397 157.532 62.6095C159.385 61.5749 161.217 61.3242 163.484 61.3724C164.076 61.3486 166.09 61.5516 166.682 61.6228L171.209 61.8365L188.551 62.9761L189.973 63.0473C190.92 63.1423 192.484 63.1423 194.119 63.7833C196.748 64.8517 200.776 66.7986 201.463 72.4491L202.79 83.4416L193.811 104.833L156.782 104.786Z" fill="white"/>
<path d="M193.811 105.545L156.782 105.498C156.604 105.498 156.432 105.43 156.301 105.309C156.17 105.189 156.089 105.023 156.074 104.845L154.822 89.8535L152.02 75.1255C151.135 72.4933 151.408 69.3517 152.754 66.7098C153.731 64.7291 155.274 63.085 157.187 61.9873C158.975 60.9901 160.799 60.6034 163.481 60.6601C164.215 60.6347 166.348 60.8667 166.743 60.9127L171.244 61.1264L188.599 62.266L190.01 62.3372C190.022 62.3372 190.034 62.3386 190.045 62.3398C190.211 62.3565 190.396 62.37 190.598 62.3847C191.889 62.4319 193.164 62.6802 194.379 63.1207C196.484 63.9754 201.392 65.9697 202.17 72.3636L203.497 83.3561C203.511 83.4791 203.494 83.6038 203.446 83.7179L194.467 105.109C194.413 105.239 194.322 105.349 194.205 105.427C194.088 105.504 193.951 105.545 193.811 105.545ZM157.436 104.074L193.339 104.12L202.062 83.3397L200.759 72.5348C200.163 67.6352 196.934 65.6953 193.853 64.4436C192.621 63.9609 191.392 63.8705 190.493 63.8045C190.285 63.789 190.093 63.775 189.921 63.757L188.517 63.6869L171.164 62.5473L166.65 62.3337C166.633 62.3337 166.616 62.3315 166.599 62.3294C165.93 62.2489 164.019 62.0599 163.514 62.0837C163.499 62.0837 163.485 62.0837 163.47 62.0837C161.051 62.0302 159.431 62.3641 157.879 63.2311C156.212 64.1913 154.868 65.6276 154.019 67.3567C152.854 69.6433 152.61 72.4612 153.381 74.7115C153.392 74.7435 153.4 74.7763 153.407 74.8095L156.224 89.6244C156.229 89.6488 156.232 89.6735 156.234 89.6983L157.436 104.074Z" fill="#222433"/>
<path d="M194.759 86.3858C194.57 86.3858 194.39 86.3108 194.256 86.1772C194.123 86.0436 194.048 85.8625 194.048 85.6736V77.72C194.048 77.5311 194.123 77.35 194.256 77.2164C194.39 77.0828 194.57 77.0078 194.759 77.0078C194.947 77.0078 195.128 77.0828 195.261 77.2164C195.395 77.35 195.47 77.5311 195.47 77.72V85.6736C195.47 85.8625 195.395 86.0436 195.261 86.1772C195.128 86.3108 194.947 86.3858 194.759 86.3858Z" fill="#222433"/>
<path d="M179.478 91.063C179.336 91.063 179.197 91.0204 179.079 90.9406C178.962 90.8608 178.871 90.7476 178.818 90.6154L173.298 76.7977C173.262 76.7107 173.244 76.6175 173.245 76.5235C173.245 76.4295 173.265 76.3365 173.301 76.25C173.338 76.1634 173.391 76.085 173.458 76.0192C173.525 75.9534 173.604 75.9015 173.691 75.8665C173.779 75.8316 173.872 75.8143 173.965 75.8156C174.059 75.8169 174.152 75.8368 174.238 75.8741C174.324 75.9115 174.402 75.9655 174.467 76.0332C174.532 76.1008 174.583 76.1807 174.617 76.2682L180.138 90.086C180.181 90.194 180.197 90.3111 180.184 90.4268C180.172 90.5426 180.132 90.6536 180.067 90.75C180.001 90.8464 179.914 90.9254 179.811 90.98C179.709 91.0346 179.594 91.0632 179.478 91.0632V91.063Z" fill="#222433"/>
<path d="M196.583 38.4985C196.346 40.0892 196.417 40.8252 196.133 41.5612C197.571 43.1591 198.549 45.1187 198.963 47.2305C199.376 49.3423 199.208 51.527 198.478 53.5509C197.748 55.5748 196.483 57.3618 194.818 58.7209C193.153 60.08 191.151 60.96 189.025 61.2669L186.846 68.0809C186.194 70.1022 184.775 71.7853 182.895 72.7665C181.015 73.7476 178.825 73.948 176.799 73.3241C174.773 72.7003 173.073 71.3025 172.067 69.4328C171.061 67.5631 170.83 65.3718 171.423 63.3325L175.474 49.6097C175.03 49.704 174.578 49.7518 174.124 49.7521C173.531 49.7759 169.006 48.3751 169.575 44.8138C169.836 43.1519 171.612 40.4928 174.124 40.5641C176.777 40.6353 176.516 40.8727 176.611 40.2554L180.378 30.9249L195.706 33.1803L196.583 38.4985Z" fill="white"/>
<path d="M173.579 46.8796C173.412 46.8799 173.251 46.8216 173.123 46.7148C172.995 46.608 172.908 46.4595 172.878 46.2954C172.848 46.1312 172.877 45.9617 172.959 45.8164C173.041 45.6712 173.171 45.5594 173.327 45.5007L174.575 45.0282L172.191 44.126C172.102 44.094 172.021 44.0447 171.951 43.9809C171.882 43.917 171.826 43.84 171.786 43.7542C171.747 43.6685 171.725 43.5757 171.721 43.4813C171.718 43.3869 171.733 43.2928 171.766 43.2045C171.8 43.1161 171.85 43.0352 171.915 42.9666C171.98 42.898 172.057 42.8429 172.144 42.8047C172.23 42.7664 172.323 42.7457 172.417 42.7438C172.511 42.7419 172.605 42.7587 172.692 42.7934L176.838 44.3604C176.974 44.4115 177.09 44.5026 177.172 44.6217C177.254 44.7407 177.298 44.882 177.298 45.0268C177.298 45.1716 177.254 45.3129 177.172 45.432C177.09 45.551 176.974 45.6422 176.838 45.6932L173.83 46.8328C173.749 46.8635 173.664 46.8794 173.579 46.8796Z" fill="#222433"/>
<path d="M185.282 41.6087C186.028 41.6087 186.633 41.0028 186.633 40.2554C186.633 39.508 186.028 38.9021 185.282 38.9021C184.536 38.9021 183.932 39.508 183.932 40.2554C183.932 41.0028 184.536 41.6087 185.282 41.6087Z" fill="#222433"/>
<path d="M191.046 45.4817C191.01 45.4817 190.975 45.4817 190.938 45.4781L188.066 45.4307C187.878 45.4291 187.697 45.3527 187.565 45.218C187.433 45.0834 187.36 44.9016 187.361 44.7127C187.363 44.5238 187.439 44.3432 187.573 44.2107C187.708 44.0782 187.889 44.0046 188.078 44.0061H188.089L190.98 44.0536C190.994 44.0536 191.008 44.0536 191.022 44.0558C191.051 44.061 191.08 44.0573 191.107 44.0453C191.133 44.0333 191.156 44.0135 191.171 43.9886C191.192 43.9663 191.209 43.9396 191.219 43.9104C191.229 43.8812 191.233 43.8501 191.23 43.8193L189.632 39.1566C189.574 38.9788 189.588 38.7851 189.671 38.6175C189.755 38.45 189.9 38.3219 190.077 38.2611C190.253 38.2003 190.447 38.2116 190.615 38.2926C190.784 38.3736 190.913 38.5178 190.977 38.6939L192.588 43.3948C192.594 43.414 192.6 43.4337 192.605 43.4537C192.665 43.7001 192.667 43.957 192.61 44.2043C192.554 44.4515 192.441 44.6822 192.281 44.8782C192.135 45.0671 191.948 45.2198 191.734 45.3245C191.52 45.4292 191.284 45.483 191.046 45.4817Z" fill="#222433"/>
<path d="M189.66 53.8856C187.689 53.8856 185.627 52.2325 185.496 49.0693C185.492 48.9717 185.508 48.8742 185.543 48.7831C185.579 48.6919 185.632 48.609 185.701 48.5394C185.77 48.4704 185.852 48.416 185.942 48.3797C186.033 48.3433 186.129 48.3257 186.227 48.3279L192.789 48.5178C192.883 48.5205 192.976 48.5419 193.061 48.5806C193.147 48.6193 193.224 48.6746 193.288 48.7434C193.352 48.8121 193.402 48.8929 193.435 48.9811C193.468 49.0693 193.483 49.1631 193.479 49.2571C193.357 52.4507 191.476 53.883 189.666 53.8868L189.66 53.8856ZM187.002 49.7757C187.333 51.5423 188.521 52.4611 189.66 52.4611H189.663C190.599 52.4611 191.701 51.778 191.991 49.9207L187.002 49.7757Z" fill="#222433"/>
<path d="M193.527 41.8461C194.272 41.8461 194.877 41.2402 194.877 40.4928C194.877 39.7454 194.272 39.1395 193.527 39.1395C192.781 39.1395 192.176 39.7454 192.176 40.4928C192.176 41.2402 192.781 41.8461 193.527 41.8461Z" fill="#222433"/>
<path d="M178.743 42.9857C177.322 39.5669 173.484 38.9971 170.617 42.0361C170.546 42.1073 169.741 43.2469 169.693 43.3181C169.67 43.2469 169.504 39.1158 169.504 39.0446L169.528 38.2848V38.1661C169.591 34.7408 170.895 31.4555 173.196 28.9221C175.498 26.3887 178.64 24.7801 182.037 24.3959C189.073 23.6124 195.896 28.4557 197.08 35.3409C197.128 35.6258 188.907 35.7682 184.098 35.6258C183.68 35.6138 183.264 35.685 182.874 35.8353C182.485 35.9856 182.128 36.212 181.826 36.5013C181.525 36.7906 181.283 37.1371 181.116 37.5207C180.948 37.9043 180.859 38.3174 180.852 38.7359C180.898 39.5666 180.728 40.3951 180.358 41.14C179.988 41.885 179.432 42.521 178.743 42.9857Z" fill="#9ABEE3"/>
<path d="M179.153 74.3969C178.284 74.3969 177.421 74.2658 176.591 74.0082C174.394 73.3175 172.553 71.7943 171.46 69.7632C170.367 67.7321 170.109 65.3536 170.74 63.1345L174.698 49.7165C174.752 49.5365 174.875 49.3853 175.04 49.2959C175.206 49.2066 175.399 49.1864 175.579 49.2397C175.759 49.293 175.911 49.4155 176.001 49.5804C176.091 49.7454 176.113 49.9394 176.061 50.1201L172.104 63.5343C171.565 65.3935 171.777 67.3907 172.695 69.0945C173.613 70.7983 175.163 72.0719 177.01 72.6402C178.857 73.2086 180.853 73.0261 182.566 72.1321C184.28 71.2382 185.574 69.7045 186.169 67.8624L188.349 61.0485C188.389 60.9218 188.465 60.809 188.566 60.7229C188.667 60.6369 188.79 60.581 188.922 60.5616C190.92 60.2733 192.803 59.4462 194.368 58.1686C195.934 56.8909 197.123 55.2109 197.81 53.3081C198.496 51.4054 198.653 49.3514 198.265 47.3659C197.876 45.3805 196.957 43.5382 195.604 42.0361C195.517 41.9384 195.458 41.8183 195.434 41.6891C195.41 41.5599 195.422 41.4267 195.469 41.3041C195.812 40.4159 196.31 38.5239 195.79 35.8323C195.771 35.7399 195.77 35.6445 195.788 35.5518C195.806 35.459 195.842 35.3707 195.894 35.2921C195.946 35.2134 196.013 35.146 196.092 35.0936C196.17 35.0412 196.258 35.005 196.351 34.9871C196.443 34.9691 196.538 34.9698 196.631 34.9891C196.723 35.0083 196.81 35.0458 196.888 35.0992C196.966 35.1527 197.032 35.2211 197.083 35.3005C197.134 35.3799 197.169 35.4687 197.185 35.5617C197.705 38.2461 197.314 40.2625 196.941 41.4083C198.359 43.0958 199.31 45.1274 199.697 47.2993C200.085 49.4712 199.896 51.707 199.149 53.7826C198.402 55.8582 197.124 57.7005 195.443 59.1248C193.761 60.5491 191.736 61.5053 189.569 61.8975L187.522 68.2974C186.947 70.0683 185.828 71.6118 184.324 72.7072C182.821 73.8026 181.011 74.394 179.153 74.3969Z" fill="#222433"/>
<path d="M109.21 207.303L166.495 111.244L109.21 207.303Z" fill="white"/>
<path d="M109.21 208.015C109.084 208.015 108.961 207.982 108.852 207.918C108.744 207.855 108.654 207.764 108.592 207.654C108.53 207.545 108.498 207.421 108.5 207.295C108.501 207.169 108.536 207.046 108.6 206.938L165.886 110.878C165.983 110.718 166.14 110.603 166.322 110.558C166.504 110.513 166.696 110.542 166.857 110.638C167.018 110.734 167.134 110.89 167.181 111.072C167.227 111.254 167.2 111.447 167.106 111.609L109.821 207.668C109.757 207.774 109.668 207.862 109.561 207.923C109.454 207.983 109.333 208.015 109.21 208.015Z" fill="#0782D0"/>
<path d="M119.823 213.12L180.757 110.935L119.823 213.12Z" fill="white"/>
<path d="M119.823 213.832C119.698 213.832 119.574 213.798 119.466 213.735C119.357 213.672 119.268 213.58 119.206 213.471C119.144 213.361 119.112 213.237 119.113 213.112C119.115 212.986 119.149 212.862 119.214 212.754L180.148 110.569C180.196 110.489 180.259 110.419 180.334 110.363C180.409 110.308 180.494 110.267 180.584 110.244C180.675 110.221 180.769 110.217 180.861 110.23C180.954 110.244 181.042 110.276 181.123 110.324C181.203 110.372 181.273 110.435 181.328 110.51C181.384 110.585 181.424 110.67 181.447 110.761C181.47 110.852 181.475 110.946 181.461 111.039C181.447 111.131 181.416 111.22 181.368 111.301L120.434 213.485C120.371 213.591 120.281 213.679 120.174 213.74C120.067 213.8 119.946 213.832 119.823 213.832Z" fill="#0782D0"/>
<path d="M129.252 218.011L193.794 111.416L129.252 218.011Z" fill="white"/>
<path d="M129.252 218.723C129.126 218.723 129.003 218.689 128.894 218.625C128.785 218.561 128.695 218.47 128.633 218.36C128.572 218.25 128.54 218.125 128.542 217.999C128.544 217.872 128.58 217.749 128.645 217.641L193.186 111.047C193.235 110.967 193.298 110.897 193.374 110.842C193.449 110.787 193.534 110.747 193.625 110.725C193.716 110.702 193.81 110.698 193.902 110.712C193.994 110.727 194.083 110.759 194.163 110.808C194.243 110.856 194.312 110.92 194.367 110.995C194.422 111.071 194.462 111.156 194.484 111.247C194.507 111.338 194.511 111.432 194.497 111.525C194.482 111.617 194.45 111.706 194.402 111.786L129.86 218.38C129.797 218.485 129.708 218.571 129.601 218.631C129.495 218.691 129.375 218.723 129.252 218.723Z" fill="#0782D0"/>
<path d="M164.15 217.726L164.6 178.694L164.15 217.726Z" fill="white"/>
<path d="M164.15 218.438H164.141C164.048 218.437 163.956 218.417 163.87 218.381C163.784 218.344 163.706 218.29 163.641 218.223C163.576 218.157 163.524 218.077 163.49 217.991C163.455 217.904 163.438 217.811 163.439 217.717L163.889 178.686C163.89 178.592 163.909 178.5 163.946 178.414C163.983 178.328 164.036 178.25 164.103 178.185C164.17 178.119 164.249 178.068 164.335 178.033C164.422 177.998 164.514 177.981 164.608 177.982C164.701 177.983 164.793 178.002 164.879 178.039C164.965 178.076 165.043 178.129 165.108 178.196C165.173 178.263 165.225 178.342 165.259 178.429C165.294 178.516 165.311 178.609 165.31 178.702L164.86 217.734C164.858 217.921 164.782 218.1 164.649 218.232C164.516 218.364 164.337 218.438 164.15 218.438Z" fill="#0782D0"/>
<path d="M175.285 217.726L175.735 160.508L175.285 217.726Z" fill="white"/>
<path d="M175.284 218.438H175.279C175.185 218.437 175.093 218.418 175.007 218.382C174.921 218.345 174.843 218.292 174.778 218.226C174.712 218.159 174.661 218.08 174.626 217.993C174.59 217.907 174.573 217.814 174.574 217.72L175.024 160.502C175.025 160.314 175.101 160.135 175.234 160.002C175.367 159.87 175.547 159.796 175.734 159.796H175.74C175.833 159.796 175.926 159.815 176.012 159.852C176.098 159.888 176.176 159.941 176.241 160.008C176.307 160.075 176.358 160.154 176.393 160.24C176.428 160.327 176.446 160.42 176.445 160.514L175.995 217.731C175.994 217.919 175.918 218.099 175.785 218.231C175.652 218.364 175.472 218.438 175.284 218.438Z" fill="#0782D0"/>
<path d="M186.088 217.726L186.467 143.01L186.088 217.726Z" fill="white"/>
<path d="M186.088 218.438H186.084C185.991 218.438 185.898 218.419 185.812 218.382C185.726 218.346 185.648 218.293 185.582 218.227C185.517 218.16 185.465 218.082 185.429 217.995C185.394 217.908 185.376 217.816 185.377 217.722L185.756 143.007C185.757 142.818 185.832 142.638 185.965 142.505C186.098 142.373 186.279 142.298 186.467 142.298H186.47C186.563 142.299 186.656 142.317 186.742 142.354C186.828 142.39 186.906 142.443 186.972 142.509C187.037 142.576 187.089 142.654 187.125 142.741C187.16 142.828 187.178 142.92 187.177 143.014L186.798 217.73C186.797 217.918 186.722 218.098 186.589 218.231C186.456 218.363 186.276 218.438 186.088 218.438Z" fill="#0782D0"/>
<path d="M174.42 50.5698C173.442 50.5687 172.482 50.303 171.643 49.8007C170.803 49.2984 170.115 48.5782 169.65 47.7161C169.185 46.854 168.961 45.8821 169.001 44.903C169.042 43.9239 169.346 42.974 169.88 42.1536C170.415 41.3332 171.161 40.6727 172.04 40.2421C172.918 39.8114 173.896 39.6264 174.871 39.7068C175.845 39.7871 176.78 40.1297 177.576 40.6984C178.373 41.2671 179.001 42.0408 179.395 42.9378C179.47 43.1109 179.474 43.307 179.405 43.4829C179.336 43.6587 179.2 43.8 179.028 43.8756C178.855 43.9511 178.659 43.9548 178.484 43.8858C178.308 43.8168 178.167 43.6807 178.092 43.5076C177.787 42.812 177.291 42.2173 176.663 41.7924C176.034 41.3676 175.299 41.13 174.541 41.1073C173.783 41.0845 173.034 41.2775 172.381 41.6638C171.729 42.0502 171.199 42.6141 170.853 43.2901C170.507 43.9661 170.359 44.7266 170.427 45.4833C170.494 46.24 170.775 46.962 171.236 47.5654C171.696 48.1689 172.318 48.6292 173.029 48.8928C173.74 49.1565 174.511 49.2127 175.253 49.0551C175.344 49.0343 175.439 49.0319 175.532 49.048C175.624 49.0642 175.713 49.0986 175.792 49.1492C175.871 49.1999 175.94 49.2658 175.993 49.3431C176.047 49.4204 176.085 49.5076 176.105 49.5997C176.124 49.6917 176.126 49.7868 176.109 49.8794C176.092 49.972 176.056 50.0603 176.005 50.1391C175.954 50.218 175.887 50.2858 175.809 50.3388C175.732 50.3917 175.644 50.4287 175.552 50.4475C175.18 50.5284 174.8 50.5694 174.42 50.5698Z" fill="#222433"/>
<path d="M176.967 91.7992C176.795 91.7994 176.629 91.7372 176.499 91.6241C176.369 91.5109 176.285 91.3545 176.261 91.1839C176.238 91.0132 176.277 90.8398 176.372 90.6958C176.466 90.5518 176.609 90.447 176.775 90.4008L179.31 89.6886C179.4 89.6633 179.494 89.656 179.586 89.6672C179.679 89.6783 179.769 89.7076 179.85 89.7535C179.931 89.7993 180.003 89.8608 180.061 89.9343C180.118 90.0079 180.161 90.0921 180.186 90.1822C180.211 90.2722 180.219 90.3664 180.208 90.4593C180.196 90.5522 180.167 90.6419 180.121 90.7235C180.076 90.805 180.014 90.8767 179.941 90.9345C179.868 90.9924 179.784 91.0351 179.694 91.0604L177.159 91.7726C177.096 91.7902 177.032 91.7992 176.967 91.7992Z" fill="#222433"/>
<path d="M138.776 224.255C138.658 224.255 138.542 224.225 138.438 224.169L100.769 203.679C100.684 203.633 100.61 203.571 100.55 203.495C100.491 203.42 100.447 203.333 100.422 203.24C100.397 203.147 100.391 203.05 100.404 202.954C100.417 202.859 100.45 202.767 100.499 202.685L147.271 125.109C147.184 124.56 147.118 123.951 147.07 123.259C146.544 115.419 150.121 108.101 156.404 104.158C156.516 104.088 156.646 104.05 156.779 104.05L162.725 104.026H162.756L193.768 105.261C193.95 105.268 194.123 105.345 194.25 105.476C194.377 105.607 194.449 105.782 194.451 105.965L195.564 218.288C195.565 218.383 195.547 218.477 195.511 218.565C195.475 218.653 195.422 218.733 195.355 218.8C195.288 218.868 195.209 218.922 195.12 218.958C195.032 218.993 194.938 219.01 194.843 219.008L156.013 218.438C155.919 218.436 155.827 218.416 155.741 218.379C155.655 218.342 155.577 218.288 155.512 218.221C155.447 218.153 155.396 218.073 155.362 217.986C155.328 217.899 155.311 217.806 155.313 217.712L155.755 194.71L139.396 223.891C139.334 224.002 139.244 224.094 139.135 224.157C139.026 224.221 138.903 224.255 138.776 224.255ZM102.1 202.783L138.5 222.581L155.836 191.657C155.869 191.537 155.933 191.428 156.021 191.34L187.373 140.155C187.472 139.994 187.63 139.879 187.814 139.835C187.997 139.791 188.19 139.822 188.351 139.921C188.511 140.019 188.626 140.178 188.67 140.362C188.714 140.546 188.683 140.739 188.585 140.9L157.227 192.094L156.748 217.023L194.136 217.572L193.036 106.657L162.715 105.451L156.989 105.474C151.256 109.163 148.002 115.921 148.488 123.162C148.529 123.82 148.605 124.476 148.716 125.126C148.746 125.296 148.714 125.472 148.624 125.62L102.1 202.783Z" fill="#222433"/>
<path d="M242.52 74.8948C240.862 75.0847 239.251 75.3221 237.285 75.6545C239.014 75.0372 240.578 74.5386 241.975 74.0875L246.453 72.663C248.917 71.8083 250.125 71.0248 249.817 69.6478C248.846 65.3268 231.48 70.4076 225.937 73.7552C222.454 75.8682 218.924 77.7438 215.512 80.1654C214.984 80.2122 214.46 80.3075 213.949 80.4503L179.502 90.327L178.696 88.4276H178.72C178.196 87.182 177.432 86.0521 176.472 85.1024C175.512 84.1527 174.375 83.4018 173.125 82.8925C171.875 82.3832 170.538 82.1256 169.189 82.1343C167.84 82.143 166.506 82.4179 165.263 82.9432C164.02 83.4686 162.893 84.2341 161.945 85.1962C160.997 86.1582 160.248 87.2978 159.74 88.5501C159.232 89.8023 158.975 91.1426 158.983 92.4944C158.992 93.8462 159.266 95.183 159.791 96.4286L164.126 106.733L164.316 107.207C165.311 109.557 167.184 111.424 169.535 112.409C171.886 113.394 174.527 113.419 176.896 112.478L217.834 96.1912C219.446 96.7743 221.189 96.8875 222.862 96.5177C224.535 96.1479 226.07 95.3102 227.287 94.1019C230.509 90.8255 231.67 87.4779 238.896 88.1427C242.141 88.4514 246.974 89.401 247.164 86.3146C247.282 84.1778 241.691 82.8245 237.593 81.6849C241.052 81.1151 244.937 79.9518 247.732 78.9546L250.931 77.5301C252.613 76.4855 251.713 73.8739 249.746 74.0875L242.52 74.8948Z" fill="white"/>
<path d="M173.298 113.879C171.91 113.878 170.537 113.601 169.257 113.064C166.731 112.016 164.72 110.011 163.661 107.485L163.466 106.998L159.136 96.7057C158.575 95.3739 158.282 93.9446 158.273 92.4992C158.263 91.0539 158.538 89.6209 159.082 88.282C159.625 86.9432 160.426 85.7247 161.44 84.6961C162.453 83.6675 163.658 82.8491 164.987 82.2874C166.316 81.7257 167.743 81.4318 169.185 81.4226C170.627 81.4133 172.057 81.6888 173.393 82.2333C174.729 82.7778 175.945 83.5808 176.971 84.5962C177.998 85.6116 178.814 86.8197 179.375 88.1515C179.397 88.2052 179.413 88.2615 179.422 88.3191L179.91 89.4692L213.753 79.7659C214.245 79.6277 214.747 79.5307 215.255 79.476C217.617 77.8122 220.06 76.386 222.423 75.0061C223.456 74.4031 224.524 73.7794 225.569 73.1459C230.481 70.1796 244.394 65.8118 248.932 67.7532C250.018 68.2178 250.39 68.9548 250.511 69.4916C250.993 71.6476 248.789 72.6065 246.685 73.3363L244.861 73.9168L249.667 73.38C250.247 73.3172 250.831 73.4534 251.323 73.7666C251.816 74.0797 252.188 74.5511 252.378 75.1036C252.568 75.6561 252.566 76.2569 252.371 76.8078C252.176 77.3586 251.8 77.8269 251.305 78.1358C251.277 78.1529 251.249 78.168 251.219 78.1811L248.021 79.6056C248.004 79.6132 247.987 79.6199 247.97 79.6258C245.572 80.4796 243.13 81.2037 240.654 81.7949C244.526 82.9008 247.995 84.1633 247.873 86.3533C247.863 86.7296 247.775 87.0996 247.612 87.4391C247.45 87.7787 247.219 88.0801 246.932 88.3239C245.437 89.5836 242.551 89.2612 240.005 88.9768C239.598 88.9314 239.202 88.887 238.828 88.8514C233.283 88.3417 231.665 90.2099 229.427 92.7966C228.92 93.3828 228.395 93.9889 227.792 94.601C226.509 95.8674 224.903 96.7563 223.15 97.1704C221.397 97.5846 219.564 97.5082 217.851 96.9495L177.157 113.139C175.929 113.627 174.619 113.878 173.298 113.879ZM169.253 82.8402C167.676 82.8435 166.124 83.2371 164.736 83.9859C163.347 84.7348 162.164 85.8157 161.293 87.1328C160.421 88.4498 159.888 89.9622 159.74 91.5355C159.592 93.1088 159.834 94.6943 160.445 96.1513L164.781 106.455L164.975 106.942C165.911 109.109 167.649 110.828 169.824 111.736C171.999 112.645 174.44 112.673 176.635 111.815L217.572 95.5283C217.733 95.4642 217.912 95.4613 218.075 95.52C219.561 96.0519 221.166 96.1534 222.707 95.8129C224.248 95.4724 225.662 94.7036 226.787 93.5948C227.351 93.0207 227.861 92.4314 228.354 91.8616C230.679 89.1748 232.687 86.8547 238.96 87.4317C239.344 87.4682 239.748 87.5133 240.163 87.5596C242.313 87.7994 244.989 88.0988 246.018 87.2322C246.156 87.1125 246.266 86.9645 246.341 86.7983C246.416 86.6322 246.455 86.4517 246.454 86.2693C246.532 84.8756 241.225 83.4202 238.373 82.6367C238.043 82.5461 237.718 82.457 237.402 82.3692C237.246 82.3258 237.109 82.2303 237.015 82.0985C236.92 81.9668 236.874 81.8066 236.882 81.6446C236.891 81.4825 236.955 81.3283 237.063 81.2075C237.171 81.0866 237.317 81.0064 237.477 80.98C241.566 80.3062 245.807 78.882 247.468 78.2906L250.593 76.8991C250.805 76.7541 250.963 76.5421 251.042 76.2969C251.12 76.0517 251.115 75.7872 251.027 75.5454C250.938 75.3036 250.772 75.0983 250.553 74.9621C250.335 74.826 250.078 74.7666 249.822 74.7936L242.598 75.6008C241.022 75.7815 239.419 76.014 237.402 76.3551C237.227 76.384 237.048 76.3462 236.899 76.2493C236.751 76.1523 236.643 76.0032 236.599 75.8311C236.554 75.6591 236.576 75.4766 236.659 75.3194C236.741 75.1623 236.88 75.0419 237.047 74.9819C238.647 74.4107 240.119 73.9373 241.417 73.518L241.758 73.4081L246.239 71.9835C249.126 70.9814 249.247 70.3565 249.124 69.8029C249.08 69.6037 248.953 69.3095 248.375 69.0623C244.594 67.4455 231.302 71.3465 226.304 74.3644C225.251 75.0035 224.178 75.63 223.14 76.2362C220.751 77.6303 218.283 79.0719 215.924 80.7471C215.822 80.8197 215.702 80.8638 215.577 80.8751C215.093 80.9178 214.613 81.0052 214.145 81.1363L179.698 91.0129C179.531 91.0607 179.353 91.0458 179.196 90.971C179.04 90.8962 178.916 90.7667 178.848 90.6069L178.043 88.7075C178.02 88.6543 178.004 88.5985 177.995 88.5413C177.243 86.847 176.017 85.4071 174.465 84.3957C172.914 83.3843 171.104 82.8444 169.253 82.8414L169.253 82.8402Z" fill="#222433"/>
</g>
<g clip-path="url(#clip7_44083_16052)">
<path d="M290.791 120.511L285.256 126.819C283.394 128.942 283.601 132.175 285.72 134.041L307.289 153.039C309.408 154.905 312.636 154.697 314.498 152.574L320.033 146.266C321.896 144.143 321.688 140.91 319.57 139.044L298 120.046C295.881 118.18 292.654 118.388 290.791 120.511Z" fill="#9AE2E0"/>
<path d="M301.023 147.395L307.318 152.939C309.437 154.805 312.664 154.597 314.527 152.474L351.488 110.35C353.351 108.228 353.144 104.994 351.025 103.128L344.729 97.5833C342.611 95.7173 339.383 95.9255 337.521 98.0483L300.559 140.172C298.697 142.295 298.904 145.529 301.023 147.395Z" fill="#9AE2E0"/>
</g>
<g clip-path="url(#clip8_44083_16052)">
<path d="M255.676 248.685L246.589 222.821C245.588 219.967 247.11 216.849 249.989 215.856C250.051 215.835 250.114 215.814 250.177 215.795C253.081 214.902 256.166 216.51 257.072 219.389L258.997 225.539V215.687C258.994 213.005 261.185 210.829 263.89 210.826H263.908C266.612 210.824 268.807 212.996 268.809 215.678V215.687V231.492L270.336 229.434C271.987 227.215 275.047 226.563 277.471 227.916C280.118 229.393 281.057 232.718 279.568 235.343C279.567 235.346 279.565 235.349 279.564 235.351L271.985 248.685H255.676Z" fill="#9ABEE3"/>
</g>
<g clip-path="url(#clip9_44083_16052)">
<path d="M402.397 240.009C402.316 240.029 402.23 240.037 402.142 240.029C401.73 239.991 401.428 239.629 401.468 239.22L406.013 193.115C406.054 192.706 406.421 192.404 406.833 192.442C407.246 192.48 407.548 192.842 407.507 193.251L402.962 239.356C402.93 239.678 402.696 239.933 402.397 240.009Z" fill="#222433"/>
<path d="M422.503 170.035C420.81 169.525 419.011 170.474 418.487 172.155C418.486 172.156 418.486 172.158 418.485 172.159C419.01 170.474 418.059 168.696 416.362 168.186C414.666 167.676 412.865 168.628 412.341 170.313L407.49 185.737L405.737 169.712C405.522 167.968 403.92 166.736 402.159 166.959C400.438 167.177 399.195 168.708 399.349 170.419C399.185 168.669 397.62 167.391 395.854 167.564C394.087 167.737 392.788 169.295 392.952 171.045C392.955 171.071 392.957 171.097 392.961 171.123L393.184 173.231L394.696 187.451C395.23 192.48 398.702 196.709 403.557 198.244L403.543 198.281C405.28 198.791 407.104 198.958 408.91 198.77L408.901 198.731C413.967 198.1 418.202 194.575 419.709 189.736L423.976 176.043L424.609 174.013C425.14 172.334 424.2 170.554 422.509 170.037C422.507 170.036 422.505 170.036 422.503 170.035Z" fill="#FC8383"/>
<path d="M400.836 183.322C400.802 183.331 400.768 183.337 400.732 183.341C400.32 183.387 399.951 183.092 399.907 182.684L398.582 170.246C398.538 169.838 398.837 169.47 399.25 169.424C399.662 169.378 400.031 169.673 400.075 170.081L401.4 182.519C401.44 182.892 401.193 183.232 400.836 183.322Z" fill="#222433"/>
<path d="M415.009 184.614C414.88 184.647 414.742 184.646 414.606 184.605C414.21 184.486 413.989 184.071 414.111 183.677L417.844 171.699C417.966 171.306 418.386 171.084 418.782 171.203C419.178 171.322 419.4 171.737 419.278 172.13L415.545 184.109C415.465 184.368 415.255 184.552 415.009 184.614Z" fill="#222433"/>
<path d="M406.39 199.501C406.31 199.521 406.224 199.528 406.136 199.521C405.723 199.483 405.422 199.121 405.462 198.712L406.75 185.667C406.79 185.258 407.157 184.957 407.57 184.994C407.982 185.032 408.284 185.394 408.244 185.803L406.956 198.848C406.924 199.17 406.69 199.425 406.39 199.501Z" fill="#222433"/>
</g>
<g clip-path="url(#clip10_44083_16052)">
<path d="M427.537 240.349H19.2377C18.7662 240.349 18.3843 240.038 18.3843 239.654C18.3843 239.271 18.7666 238.96 19.2377 238.96H427.537C428.008 238.96 428.391 239.271 428.391 239.654C428.391 240.038 428.008 240.349 427.537 240.349Z" fill="#22183B"/>
</g>
<g clip-path="url(#clip11_44083_16052)">
<path d="M66.1926 183.51L59.6094 190.088L53.0749 183.393C52.0594 182.356 51.2546 181.128 50.7067 179.778C50.1587 178.429 49.8782 176.985 49.8813 175.529C49.8843 174.073 50.1708 172.633 50.7244 171.291C51.278 169.95 52.0878 168.734 53.1077 167.711L53.1323 167.687L59.7154 161.109L66.2499 167.804C67.2655 168.841 68.0702 170.069 68.6182 171.419C69.1661 172.768 69.4466 174.212 69.4436 175.668C69.4405 177.124 69.154 178.564 68.6004 179.906C68.0468 181.247 67.237 182.463 66.2171 183.486L66.1926 183.51Z" fill="white"/>
<path d="M59.7713 190.752C59.6581 190.779 59.5395 190.777 59.4272 190.744C59.3149 190.712 59.2127 190.651 59.1305 190.567L52.596 183.872C50.419 181.648 49.1997 178.645 49.2063 175.523C49.2129 172.402 50.4449 169.417 52.6313 167.225L52.6563 167.2L59.24 160.622C59.3671 160.495 59.539 160.425 59.718 160.426C59.897 160.428 60.0684 160.501 60.1945 160.63L66.7291 167.325C68.906 169.549 70.1253 172.552 70.1186 175.674C70.112 178.796 68.88 181.781 66.6937 183.972L66.6687 183.997L60.0852 190.575C59.9984 190.662 59.8899 190.723 59.7713 190.752ZM59.712 162.075L53.5865 168.194C52.6289 169.153 51.8683 170.295 51.3483 171.554C50.8284 172.813 50.5591 174.164 50.5561 175.531C50.553 176.898 50.8161 178.253 51.3304 179.52C51.8447 180.787 52.6001 181.94 53.5534 182.913L59.6128 189.121L65.7411 182.999C67.6737 181.061 68.7626 178.423 68.7683 175.663C68.774 172.903 67.696 170.249 65.7715 168.284L59.712 162.075Z" fill="#222433"/>
<path d="M59.5184 259.778C59.4644 259.791 59.4091 259.798 59.3536 259.797C59.2649 259.797 59.1772 259.778 59.0954 259.743C59.0136 259.708 58.9393 259.657 58.8769 259.593C58.8144 259.529 58.765 259.453 58.7313 259.37C58.6977 259.287 58.6806 259.198 58.6809 259.108L58.9831 176.694C58.9838 176.513 59.0555 176.34 59.1826 176.213C59.3097 176.086 59.4818 176.015 59.6609 176.017C59.84 176.018 60.0114 176.092 60.1376 176.221C60.2638 176.35 60.3343 176.525 60.3336 176.706L60.0316 259.12C60.0312 259.272 59.9804 259.42 59.8874 259.539C59.7944 259.658 59.6645 259.743 59.5184 259.778Z" fill="#222433"/>
<path d="M59.8777 161.774C59.8238 161.787 59.7684 161.793 59.7129 161.793C59.6242 161.792 59.5365 161.773 59.4547 161.738C59.3729 161.703 59.2987 161.652 59.2362 161.588C59.1738 161.524 59.1243 161.449 59.0907 161.365C59.0571 161.282 59.0399 161.193 59.0403 161.103L59.0676 153.627C59.0682 153.446 59.14 153.273 59.2671 153.146C59.3942 153.019 59.5662 152.948 59.7453 152.95C59.9243 152.952 60.0958 153.025 60.2219 153.154C60.3481 153.283 60.4186 153.458 60.4179 153.639L60.3906 161.116C60.3901 161.268 60.3393 161.415 60.2464 161.534C60.1535 161.654 60.0238 161.738 59.8777 161.774Z" fill="#222433"/>
<path d="M59.8765 161.774C59.7225 161.811 59.5601 161.793 59.4178 161.721C59.2755 161.65 59.1624 161.53 59.0982 161.383L56.1158 154.546C56.0782 154.464 56.0572 154.374 56.054 154.284C56.0507 154.193 56.0653 154.103 56.0969 154.018C56.1285 153.934 56.1765 153.856 56.2381 153.791C56.2996 153.725 56.3735 153.673 56.4554 153.636C56.5374 153.6 56.6257 153.581 56.7153 153.58C56.8049 153.578 56.8939 153.595 56.9772 153.629C57.0605 153.663 57.1364 153.713 57.2005 153.776C57.2646 153.84 57.3155 153.916 57.3504 154L60.3329 160.837C60.3728 160.928 60.3925 161.027 60.3905 161.127C60.3885 161.227 60.3649 161.325 60.3214 161.414C60.2779 161.503 60.2156 161.582 60.1387 161.644C60.0618 161.706 59.9723 161.751 59.8765 161.774Z" fill="#222433"/>
<path d="M59.8769 161.774C59.7537 161.804 59.6245 161.798 59.504 161.757C59.3835 161.716 59.2767 161.642 59.1957 161.543C59.1147 161.444 59.0629 161.324 59.0461 161.196C59.0294 161.069 59.0484 160.94 59.101 160.823L62.1622 154.04C62.2402 153.882 62.3761 153.761 62.5411 153.703C62.7062 153.645 62.8874 153.654 63.0467 153.728C63.206 153.802 63.3308 153.936 63.3949 154.101C63.4589 154.267 63.4571 154.45 63.3899 154.613L60.3298 161.396C60.2876 161.49 60.225 161.572 60.1465 161.638C60.0681 161.703 59.9759 161.75 59.8769 161.774Z" fill="#222433"/>
<path d="M60.8824 200.812C63.7543 200.109 65.5077 197.181 64.7987 194.271C64.0897 191.362 61.1868 189.573 58.3148 190.275C55.4429 190.978 53.6895 193.906 54.3985 196.816C55.1076 199.725 58.0105 201.514 60.8824 200.812Z" fill="white"/>
<path d="M61.0443 201.476C59.8862 201.759 58.6694 201.688 57.5476 201.272C56.4259 200.855 55.4496 200.112 54.7423 199.137C54.035 198.162 53.6284 196.997 53.5739 195.791C53.5194 194.585 53.8195 193.392 54.4362 192.362C55.0529 191.332 55.9586 190.512 57.0386 190.005C58.1187 189.499 59.3246 189.328 60.5039 189.515C61.6833 189.702 62.783 190.239 63.6641 191.057C64.5453 191.875 65.1681 192.938 65.454 194.111C65.8354 195.684 65.5854 197.343 64.7587 198.724C63.932 200.104 62.5962 201.094 61.0443 201.476ZM58.4768 190.94C57.578 191.16 56.7652 191.645 56.1411 192.333C55.5171 193.022 55.1098 193.884 54.9709 194.809C54.8319 195.734 54.9675 196.682 55.3605 197.532C55.7535 198.382 56.3862 199.097 57.1786 199.585C57.9711 200.074 58.8877 200.314 59.8125 200.276C60.7373 200.238 61.6289 199.923 62.3743 199.372C63.1198 198.82 63.6857 198.056 64.0006 197.177C64.3154 196.298 64.3651 195.343 64.1432 194.432C63.8444 193.212 63.08 192.159 62.0177 191.504C60.9554 190.849 59.6819 190.646 58.4767 190.939L58.4768 190.94Z" fill="#222433"/>
</g>
<g clip-path="url(#clip12_44083_16052)">
<path d="M49.5219 254.571C49.5061 254.576 49.4904 254.581 49.4743 254.585C49.2835 254.633 49.0809 254.601 48.911 254.496C48.7412 254.392 48.618 254.224 48.5686 254.028L39.1212 216.665C39.0751 216.47 39.1055 216.266 39.2058 216.097C39.3061 215.927 39.4683 215.806 39.6573 215.759C39.8464 215.711 40.047 215.742 40.2159 215.844C40.3849 215.946 40.5085 216.112 40.5602 216.304L50.0076 253.668C50.0547 253.855 50.0308 254.052 49.9406 254.22C49.8504 254.388 49.7008 254.513 49.5219 254.571Z" fill="#222433"/>
<path d="M38.1021 209.353C37.9607 209.399 37.8084 209.4 37.665 209.356C37.5217 209.313 37.3939 209.227 37.2982 209.109C37.2025 208.991 37.1434 208.847 37.1286 208.695C37.1137 208.544 37.1437 208.392 37.2148 208.259L39.6657 203.681C39.7597 203.506 39.9187 203.376 40.1077 203.322C40.2967 203.267 40.5003 203.292 40.6736 203.39C40.8469 203.488 40.9757 203.652 41.0318 203.846C41.0879 204.039 41.0666 204.247 40.9726 204.422L38.5216 209C38.4317 209.169 38.2816 209.295 38.1021 209.353Z" fill="#222433"/>
<path d="M38.1019 209.353C37.9977 209.387 37.8872 209.396 37.7783 209.381C37.6693 209.366 37.5647 209.327 37.4718 209.266L33.1272 206.414C33.0446 206.359 32.9731 206.289 32.9167 206.207C32.8603 206.125 32.8202 206.033 32.7986 205.935C32.7549 205.738 32.7894 205.533 32.8945 205.364C32.9996 205.196 33.1666 205.077 33.3589 205.035C33.5511 204.993 33.7528 205.031 33.9196 205.141L36.6787 206.953L35.9023 203.886C35.8762 203.789 35.8693 203.687 35.8819 203.588C35.8945 203.488 35.9265 203.393 35.9759 203.306C36.0252 203.22 36.0911 203.145 36.1696 203.085C36.248 203.025 36.3376 202.982 36.4329 202.958C36.5283 202.934 36.6277 202.93 36.7252 202.946C36.8227 202.962 36.9165 202.997 37.001 203.05C37.0855 203.103 37.1591 203.172 37.2175 203.254C37.276 203.335 37.318 203.428 37.3413 203.526L38.5873 208.448C38.6345 208.635 38.6106 208.833 38.5204 209C38.4302 209.168 38.2805 209.294 38.1015 209.352L38.1019 209.353Z" fill="#222433"/>
<path d="M46.2509 215.817L45.6833 213.578C45.1838 211.622 45.3622 209.56 46.1881 207.742L46.794 206.4L28.9062 210.868L30.0797 211.766C31.6724 212.974 32.8104 214.705 33.2983 216.661L33.8659 218.901C34.0761 219.732 34.4441 220.514 34.9488 221.204C35.4535 221.893 36.0851 222.476 36.8074 222.92C37.5298 223.363 38.3288 223.658 39.1588 223.788C39.9887 223.918 40.8334 223.88 41.6446 223.676C42.4578 223.477 43.2225 223.116 43.8946 222.613C44.5667 222.111 45.133 221.476 45.5611 220.745C45.9891 220.015 46.2704 219.204 46.3888 218.358C46.5072 217.512 46.4603 216.649 46.2509 215.817Z" fill="#FC8383"/>
</g>
<g clip-path="url(#clip13_44083_16052)">
<path d="M72.2509 240.347C72.1205 240.357 71.9899 240.331 71.8729 240.274C71.7558 240.216 71.6567 240.128 71.5859 240.019C71.5151 239.91 71.4753 239.784 71.4707 239.655C71.466 239.525 71.4968 239.397 71.5596 239.283L74.9472 233.178C75.0409 233.012 75.1968 232.89 75.3809 232.838C75.5651 232.785 75.7627 232.807 75.9308 232.898C76.0989 232.989 76.2239 233.142 76.2787 233.324C76.3334 233.506 76.3135 233.702 76.2233 233.87L72.8364 239.975C72.7779 240.08 72.6938 240.17 72.5917 240.234C72.4896 240.299 72.3728 240.338 72.2518 240.347L72.2509 240.347Z" fill="#222433"/>
<path d="M71.5661 239.985L68.0832 233.935C67.9878 233.769 67.9629 233.572 68.0141 233.388C68.0653 233.203 68.1883 233.046 68.3561 232.952C68.5239 232.857 68.7227 232.833 68.9088 232.883C69.095 232.934 69.2531 233.056 69.3485 233.222L71.4501 236.874L71.4151 232.391C71.4136 232.2 71.4888 232.016 71.6242 231.879C71.7596 231.743 71.9441 231.666 72.1371 231.664C72.33 231.663 72.5157 231.737 72.6532 231.872C72.7907 232.006 72.8688 232.188 72.8702 232.38L72.9259 239.623C72.9267 239.783 72.8743 239.938 72.7767 240.065C72.6792 240.191 72.5421 240.282 72.3868 240.324C72.2315 240.365 72.0667 240.354 71.9183 240.293C71.7698 240.232 71.646 240.124 71.5661 239.985Z" fill="#222433"/>
</g>
<g clip-path="url(#clip14_44083_16052)">
<path d="M294.841 239.819C295.041 239.795 295.226 239.697 295.359 239.545C295.493 239.393 295.566 239.197 295.564 238.995L295.278 201.994C295.278 201.885 295.257 201.778 295.215 201.677C295.174 201.577 295.112 201.486 295.036 201.409C294.959 201.332 294.867 201.272 294.767 201.23C294.666 201.189 294.559 201.169 294.451 201.17C294.342 201.17 294.235 201.193 294.135 201.235C294.035 201.278 293.945 201.34 293.869 201.418C293.794 201.496 293.734 201.588 293.694 201.689C293.654 201.79 293.634 201.898 293.636 202.007L293.922 239.007C293.924 239.226 294.012 239.435 294.167 239.588C294.322 239.741 294.532 239.826 294.749 239.824C294.78 239.824 294.811 239.822 294.841 239.819Z" fill="#222433"/>
<path d="M287.131 202.266L301.779 202.15C302.965 202.123 304.094 201.629 304.919 200.774C305.745 199.919 306.202 198.772 306.191 197.582C306.18 196.392 305.702 195.254 304.861 194.414C304.02 193.574 302.883 193.1 301.696 193.095L287.049 193.211C286.45 193.208 285.858 193.324 285.305 193.553C284.752 193.782 284.25 194.119 283.828 194.544C283.406 194.969 283.073 195.474 282.847 196.03C282.622 196.585 282.508 197.18 282.514 197.78C282.519 198.38 282.643 198.972 282.879 199.524C283.115 200.075 283.458 200.574 283.887 200.991C284.317 201.408 284.825 201.736 285.382 201.955C285.939 202.174 286.533 202.28 287.131 202.266ZM301.77 196.734C302.005 196.734 302.231 196.827 302.399 196.993C302.566 197.16 302.661 197.385 302.664 197.621C302.667 197.857 302.576 198.085 302.413 198.255C302.249 198.425 302.025 198.523 301.79 198.528L287.142 198.644C287.024 198.647 286.906 198.626 286.796 198.583C286.686 198.539 286.585 198.475 286.5 198.392C286.415 198.31 286.347 198.211 286.301 198.102C286.254 197.993 286.229 197.876 286.228 197.757C286.226 197.638 286.249 197.521 286.293 197.411C286.337 197.301 286.403 197.201 286.486 197.116C286.569 197.032 286.668 196.965 286.778 196.919C286.887 196.874 287.004 196.85 287.122 196.85L301.77 196.734Z" fill="#82B1FF"/>
<path d="M286.315 219.483C288.882 219.177 294.372 215.67 295.016 215.255C295.132 215.18 295.227 215.077 295.293 214.955C295.359 214.833 295.393 214.696 295.392 214.558C295.391 214.419 295.355 214.283 295.288 214.162C295.22 214.041 295.124 213.939 295.006 213.865C294.33 213.441 288.332 209.72 285.932 209.739C284.638 209.75 283.401 210.275 282.492 211.199C281.583 212.123 281.077 213.371 281.085 214.67C281.103 215.962 281.63 217.196 282.55 218.101C283.47 219.007 284.71 219.511 285.999 219.504C286.105 219.503 286.21 219.496 286.315 219.483ZM293.005 214.573C290.577 216.053 287.231 217.848 285.986 217.858C285.561 217.861 285.138 217.779 284.744 217.618C284.35 217.456 283.991 217.217 283.69 216.916C283.388 216.622 283.148 216.271 282.983 215.883C282.817 215.496 282.73 215.079 282.727 214.658C282.722 213.796 283.058 212.968 283.662 212.354C284.265 211.741 285.086 211.392 285.945 211.385C287.188 211.375 290.558 213.125 293.005 214.573Z" fill="#222433"/>
<path d="M303.763 219.325C304.868 219.195 305.896 218.689 306.674 217.892C307.12 217.439 307.472 216.902 307.709 216.312C307.946 215.722 308.065 215.091 308.057 214.454C308.045 213.157 307.52 211.917 306.599 211.006C305.677 210.095 304.433 209.587 303.139 209.594C300.74 209.614 294.793 213.41 294.123 213.843C294.007 213.918 293.911 214.022 293.845 214.143C293.78 214.265 293.746 214.402 293.747 214.541C293.747 214.679 293.783 214.816 293.851 214.937C293.918 215.058 294.015 215.16 294.132 215.233C294.808 215.658 300.806 219.378 303.206 219.359C303.392 219.358 303.578 219.347 303.763 219.325ZM302.965 211.254C303.027 211.247 303.089 211.242 303.151 211.242C304.01 211.237 304.836 211.575 305.448 212.18C306.059 212.785 306.407 213.608 306.415 214.469C306.42 214.889 306.342 215.306 306.186 215.695C306.029 216.084 305.797 216.438 305.503 216.737C305.202 217.045 304.842 217.289 304.446 217.457C304.05 217.624 303.624 217.711 303.194 217.713C301.952 217.723 298.581 215.973 296.134 214.525C298.449 213.114 301.6 211.416 302.966 211.253L302.965 211.254Z" fill="#222433"/>
</g>
<g clip-path="url(#clip15_44083_16052)">
<path d="M77.3857 62.549L80.1999 62.1571C81.4853 61.9779 82.6722 62.8757 82.8508 64.1624C82.901 64.5248 82.8662 64.8939 82.7492 65.2403L80.228 72.7158L75.7694 66.2121C75.0343 65.1418 75.3055 63.6772 76.3749 62.9409C76.6769 62.7333 77.0229 62.599 77.3857 62.549Z" fill="#9AE2E0"/>
<path d="M90.3844 69.8647L90.7749 72.6819C90.955 73.9684 90.0589 75.1579 88.7736 75.3382C88.411 75.3892 88.0413 75.3546 87.6946 75.2373L80.2279 72.7159L86.7257 68.2476C87.7975 67.5125 89.2615 67.7863 89.9955 68.859C90.2012 69.1595 90.3344 69.5038 90.3844 69.8647Z" fill="#9AE2E0"/>
</g>
<g clip-path="url(#clip16_44083_16052)">
<path d="M24.5401 130.098L24.7097 127.864C24.7868 126.843 25.6704 126.078 26.6835 126.155C26.9687 126.176 27.245 126.264 27.4903 126.413L32.7822 129.6L27.0716 131.953C26.1299 132.341 25.0552 131.887 24.6711 130.938C24.5635 130.672 24.5187 130.385 24.5401 130.098Z" fill="white"/>
<path d="M26.1457 132.646C25.9076 132.623 25.6719 132.563 25.445 132.467C24.8536 132.217 24.3945 131.75 24.1524 131.152C24.0127 130.807 23.9535 130.428 23.9815 130.056C23.9815 130.056 23.9815 130.056 23.9815 130.056L24.1511 127.821C24.1998 127.178 24.4943 126.591 24.9806 126.17C25.467 125.749 26.0868 125.544 26.7258 125.592C27.098 125.62 27.4601 125.736 27.7785 125.929L33.0701 129.116C33.2521 129.225 33.3569 129.429 33.3408 129.643C33.3246 129.856 33.1903 130.041 32.9937 130.122L27.2833 132.475C26.9171 132.626 26.5285 132.683 26.1457 132.646ZM25.0989 130.141C25.084 130.339 25.1155 130.541 25.1902 130.725C25.3195 131.044 25.5642 131.293 25.8796 131.426C26.1953 131.56 26.5433 131.561 26.8603 131.431L31.5331 129.506L27.2024 126.897C27.0326 126.794 26.8408 126.733 26.641 126.717C26.3003 126.692 25.97 126.801 25.7107 127.026C25.4514 127.25 25.2945 127.563 25.2685 127.906L25.0989 130.141Z" fill="#222433"/>
<path d="M32.3014 121.298L34.5198 121.466C35.5336 121.547 36.2899 122.44 36.209 123.461C36.1865 123.745 36.0992 124.02 35.9541 124.265L32.7822 129.6L30.4522 123.845C30.0704 122.896 30.525 121.814 31.4677 121.428C31.732 121.32 32.0172 121.276 32.3014 121.298Z" fill="white"/>
<path d="M32.7277 130.162C32.521 130.142 32.342 130.008 32.2635 129.814L29.9335 124.058C29.4359 122.821 30.03 121.408 31.2575 120.906C31.6 120.765 31.9759 120.706 32.3443 120.735L34.5626 120.904C35.8846 121.009 36.8729 122.176 36.7677 123.505C36.7385 123.874 36.6235 124.237 36.4353 124.554L33.2628 129.89C33.1536 130.073 32.951 130.179 32.7394 130.163C32.7355 130.163 32.7316 130.162 32.7277 130.162ZM34.4982 122.031C34.4906 122.03 34.483 122.029 34.4753 122.029L32.2589 121.86C32.2587 121.86 32.2585 121.86 32.2583 121.86C32.0616 121.845 31.8612 121.877 31.6783 121.951C31.0234 122.219 30.7066 122.973 30.9719 123.633L32.8782 128.342L35.4738 123.976C35.5739 123.807 35.6352 123.613 35.6509 123.417C35.7061 122.715 35.1908 122.098 34.4982 122.031ZM32.3014 121.298L32.3032 121.298L32.3014 121.298Z" fill="#222433"/>
</g>
<g clip-path="url(#clip17_44083_16052)">
<path d="M236.757 184.354L237.682 187.416C237.843 187.948 238.26 188.364 238.792 188.525L241.851 189.452C242.05 189.512 242.163 189.723 242.103 189.922C242.066 190.043 241.972 190.138 241.851 190.175L238.792 191.102C238.26 191.263 237.843 191.679 237.682 192.211L236.757 195.273C236.699 195.473 236.489 195.587 236.289 195.529C236.166 195.492 236.07 195.396 236.033 195.273L235.107 192.211C234.947 191.679 234.531 191.262 233.999 191.102L230.94 190.175C230.741 190.114 230.628 189.904 230.688 189.704C230.725 189.583 230.819 189.488 230.94 189.452L233.999 188.525C234.531 188.364 234.947 187.948 235.107 187.416L236.033 184.354C236.092 184.154 236.302 184.039 236.502 184.098C236.625 184.134 236.721 184.23 236.757 184.354Z" fill="#9ABEE3"/>
</g>
<g clip-path="url(#clip18_44083_16052)">
<path d="M407.679 125.243L408.379 127.562C408.502 127.965 408.817 128.281 409.22 128.402L411.538 129.105C411.689 129.151 411.774 129.31 411.729 129.461C411.701 129.553 411.629 129.625 411.538 129.652L409.22 130.355C408.817 130.477 408.502 130.792 408.379 131.195L407.679 133.515C407.635 133.666 407.476 133.753 407.324 133.708C407.231 133.681 407.158 133.608 407.131 133.515L406.429 131.195C406.308 130.792 405.992 130.476 405.589 130.355L403.272 129.652C403.121 129.607 403.036 129.447 403.081 129.296C403.109 129.204 403.18 129.133 403.272 129.105L405.589 128.402C405.992 128.281 406.308 127.965 406.429 127.562L407.131 125.243C407.175 125.091 407.334 125.004 407.485 125.049C407.579 125.076 407.652 125.149 407.679 125.243Z" fill="#9ABEE3"/>
</g>
<defs>
<clipPath id="clip0_44083_16052">
<rect width="115.856" height="213.258" fill="white" transform="translate(262.931 27.0914)"/>
</clipPath>
<clipPath id="clip1_44083_16052">
<rect width="66.6006" height="45.4986" fill="white" transform="matrix(-0.999939 0.0110646 -0.011008 -0.999939 298.561 96.1861)"/>
</clipPath>
<clipPath id="clip2_44083_16052">
<rect width="9.36578" height="9.37764" fill="white" transform="matrix(0.999939 -0.0110666 0.011006 0.999939 272.939 77.5057)"/>
</clipPath>
<clipPath id="clip3_44083_16052">
<rect width="9.36578" height="9.37764" fill="white" transform="matrix(0.999939 -0.0110666 0.011006 0.999939 279.877 77.5057)"/>
</clipPath>
<clipPath id="clip4_44083_16052">
<rect width="64.8656" height="1.38868" fill="white" transform="matrix(-0.999939 0.0110599 -0.0110126 -0.999939 296.931 61.2632)"/>
</clipPath>
<clipPath id="clip5_44083_16052">
<rect width="11.7975" height="24.6571" fill="white" transform="matrix(0.990324 -0.138778 0.138183 0.990407 383.284 216.682)"/>
</clipPath>
<clipPath id="clip6_44083_16052">
<rect width="161.297" height="214.994" fill="white" transform="translate(91.228 24.3128)"/>
</clipPath>
<clipPath id="clip7_44083_16052">
<rect width="71.4679" height="53.1276" fill="white" transform="matrix(0.989788 -0.14255 0.141931 0.989877 280.333 105.052)"/>
</clipPath>
<clipPath id="clip8_44083_16052">
<rect width="33.9937" height="28.828" fill="white" transform="translate(246.281 210.826)"/>
</clipPath>
<clipPath id="clip9_44083_16052">
<rect width="38.8686" height="71.8781" fill="white" transform="matrix(0.969543 -0.24492 0.244029 0.969768 384.128 170.488)"/>
</clipPath>
<clipPath id="clip10_44083_16052">
<rect width="410.006" height="1.38928" fill="white" transform="translate(18.3843 238.96)"/>
</clipPath>
<clipPath id="clip11_44083_16052">
<rect width="31.2363" height="84.0357" fill="white" transform="matrix(0.97136 -0.237613 0.236764 0.971567 34.2798 159.062)"/>
</clipPath>
<clipPath id="clip12_44083_16052">
<rect width="18.3952" height="37.4993" fill="white" transform="matrix(0.951246 -0.308433 0.307438 0.951568 27.3096 205.926)"/>
</clipPath>
<clipPath id="clip13_44083_16052">
<rect width="8.325" height="8.68312" fill="white" transform="translate(67.9875 231.666)"/>
</clipPath>
<clipPath id="clip14_44083_16052">
<rect width="27.063" height="47.2309" fill="white" transform="matrix(-0.992965 0.118405 0.11788 0.993028 305.496 190.983)"/>
</clipPath>
<clipPath id="clip15_44083_16052">
<rect width="14.2246" height="14.2376" fill="white" transform="matrix(0.990445 -0.137906 0.137301 0.990529 75.0547 62.8735)"/>
</clipPath>
<clipPath id="clip16_44083_16052">
<rect width="12.1423" height="12.5021" fill="white" transform="matrix(0.995295 0.0968941 -0.0964451 0.995338 24.9119 119.964)"/>
</clipPath>
<clipPath id="clip17_44083_16052">
<rect width="11.4468" height="11.4617" fill="white" transform="translate(230.672 184.082)"/>
</clipPath>
<clipPath id="clip18_44083_16052">
<rect width="8.67188" height="8.68313" fill="white" transform="translate(403.069 125.037)"/>
</clipPath>
</defs>
</svg>
