<svg xmlns="http://www.w3.org/2000/svg" xmlns:xlink="http://www.w3.org/1999/xlink" width="1200" zoomAndPan="magnify" viewBox="0 0 900 899.99999" height="1200" preserveAspectRatio="xMidYMid meet" version="1.2"><g id="bb9ce31f35"><path style=" stroke:none;fill-rule:nonzero;fill:#113c7b;fill-opacity:1;" d="M 824.558594 375.34375 L 741.46875 231.527344 C 740.6875 230.175781 739.84375 228.863281 738.9375 227.59375 C 738.027344 226.324219 737.058594 225.101562 736.03125 223.925781 C 735 222.75 733.917969 221.628906 732.777344 220.558594 C 731.636719 219.492188 730.449219 218.480469 729.210938 217.53125 C 727.972656 216.578125 726.691406 215.691406 725.363281 214.863281 C 724.039062 214.039062 722.675781 213.28125 721.273438 212.589844 C 719.875 211.898438 718.445312 211.277344 716.980469 210.726562 C 715.519531 210.175781 714.035156 209.699219 712.527344 209.292969 C 711.019531 208.890625 709.496094 208.558594 707.953125 208.304688 C 706.414062 208.050781 704.863281 207.871094 703.304688 207.769531 C 701.746094 207.667969 700.1875 207.640625 698.625 207.691406 C 697.066406 207.742188 695.511719 207.871094 693.960938 208.074219 C 692.414062 208.277344 690.878906 208.554688 689.359375 208.910156 C 687.835938 209.265625 686.335938 209.695312 684.859375 210.195312 C 683.378906 210.699219 681.929688 211.273438 680.503906 211.917969 C 679.082031 212.5625 677.695312 213.273438 676.34375 214.054688 L 663.304688 221.570312 C 661.667969 222.515625 660.097656 223.558594 658.589844 224.691406 C 657.078125 225.828125 655.644531 227.046875 654.277344 228.351562 C 652.914062 229.660156 651.632812 231.042969 650.433594 232.5 C 649.234375 233.957031 648.125 235.484375 647.109375 237.074219 C 646.09375 238.664062 645.171875 240.308594 644.351562 242.011719 C 643.53125 243.710938 642.8125 245.453125 642.199219 247.238281 C 641.585938 249.027344 641.082031 250.839844 640.683594 252.6875 C 640.285156 254.535156 640 256.398438 639.824219 258.277344 L 611.632812 247 C 602.851562 243.480469 593.816406 240.828125 584.527344 239.042969 C 575.238281 237.253906 565.863281 236.363281 556.402344 236.371094 L 503.984375 236.371094 C 492.734375 236.410156 481.632812 237.710938 470.675781 240.273438 C 459.722656 242.835938 449.195312 246.597656 439.097656 251.558594 L 349.003906 240.328125 C 337.691406 238.914062 326.363281 238.804688 315.027344 240 C 303.6875 241.195312 292.632812 243.660156 281.863281 247.398438 L 258.035156 255.734375 C 257.78125 253.976562 257.425781 252.238281 256.976562 250.515625 C 256.523438 248.796875 255.980469 247.109375 255.339844 245.449219 C 254.695312 243.792969 253.964844 242.175781 253.140625 240.597656 C 252.320312 239.023438 251.410156 237.5 250.414062 236.023438 C 249.421875 234.550781 248.347656 233.136719 247.195312 231.785156 C 246.039062 230.433594 244.816406 229.148438 243.515625 227.933594 C 242.21875 226.71875 240.855469 225.582031 239.429688 224.519531 C 238.003906 223.457031 236.523438 222.480469 234.988281 221.585938 L 222.058594 214.070312 C 220.707031 213.289062 219.316406 212.578125 217.894531 211.933594 C 216.472656 211.289062 215.023438 210.714844 213.542969 210.210938 C 212.066406 209.710938 210.566406 209.28125 209.042969 208.925781 C 207.523438 208.570312 205.988281 208.292969 204.441406 208.089844 C 202.890625 207.886719 201.335938 207.757812 199.777344 207.707031 C 198.214844 207.65625 196.65625 207.683594 195.097656 207.785156 C 193.539062 207.886719 191.988281 208.066406 190.449219 208.320312 C 188.90625 208.574219 187.382812 208.90625 185.875 209.308594 C 184.363281 209.714844 182.878906 210.191406 181.417969 210.742188 C 179.957031 211.292969 178.527344 211.914062 177.125 212.605469 C 175.726562 213.296875 174.363281 214.054688 173.035156 214.882812 C 171.710938 215.707031 170.429688 216.59375 169.191406 217.546875 C 167.953125 218.496094 166.761719 219.507812 165.625 220.578125 C 164.484375 221.644531 163.402344 222.765625 162.371094 223.941406 C 161.34375 225.117188 160.375 226.339844 159.464844 227.609375 C 158.554688 228.878906 157.710938 230.191406 156.933594 231.542969 L 73.84375 375.34375 C 73.0625 376.695312 72.347656 378.082031 71.703125 379.503906 C 71.058594 380.929688 70.484375 382.378906 69.984375 383.855469 C 69.480469 385.335938 69.054688 386.835938 68.699219 388.355469 C 68.34375 389.878906 68.0625 391.414062 67.859375 392.960938 C 67.65625 394.507812 67.53125 396.0625 67.476562 397.625 C 67.425781 399.1875 67.453125 400.746094 67.554688 402.304688 C 67.65625 403.863281 67.835938 405.414062 68.089844 406.953125 C 68.347656 408.492188 68.675781 410.019531 69.082031 411.527344 C 69.484375 413.035156 69.964844 414.519531 70.515625 415.980469 C 71.066406 417.445312 71.6875 418.875 72.378906 420.273438 C 73.070312 421.675781 73.828125 423.039062 74.652344 424.363281 C 75.476562 425.691406 76.367188 426.972656 77.316406 428.210938 C 78.269531 429.449219 79.277344 430.636719 80.347656 431.777344 C 81.414062 432.917969 82.539062 434 83.710938 435.027344 C 84.886719 436.058594 86.109375 437.027344 87.378906 437.933594 C 88.652344 438.84375 89.960938 439.6875 91.316406 440.46875 L 104.339844 447.996094 C 107.949219 450.078125 111.765625 451.65625 115.789062 452.734375 C 119.8125 453.8125 123.90625 454.351562 128.070312 454.351562 C 133.132812 454.261719 138.058594 453.386719 142.84375 451.730469 L 181.363281 502.734375 C 181.050781 503.652344 180.761719 504.578125 180.503906 505.511719 C 180.246094 506.449219 180.015625 507.390625 179.8125 508.335938 C 179.613281 509.285156 179.4375 510.238281 179.292969 511.199219 C 179.144531 512.15625 179.027344 513.121094 178.941406 514.085938 C 178.851562 515.050781 178.792969 516.019531 178.761719 516.988281 C 178.730469 517.957031 178.726562 518.925781 178.753906 519.894531 C 178.777344 520.867188 178.832031 521.832031 178.917969 522.800781 C 179 523.765625 179.113281 524.730469 179.253906 525.6875 C 179.394531 526.648438 179.5625 527.601562 179.761719 528.550781 C 179.957031 529.5 180.183594 530.445312 180.4375 531.378906 C 180.691406 532.316406 180.972656 533.246094 181.28125 534.164062 C 181.589844 535.082031 181.925781 535.992188 182.285156 536.890625 C 182.648438 537.792969 183.039062 538.679688 183.453125 539.558594 C 183.867188 540.433594 184.308594 541.296875 184.773438 542.148438 C 185.242188 542.996094 185.730469 543.832031 186.25 544.65625 C 186.765625 545.476562 187.304688 546.28125 187.867188 547.070312 C 188.429688 547.859375 189.019531 548.632812 189.628906 549.386719 C 190.238281 550.140625 190.867188 550.875 191.519531 551.59375 C 192.175781 552.308594 192.847656 553.007812 193.542969 553.683594 C 194.238281 554.359375 194.949219 555.015625 195.683594 555.652344 C 196.417969 556.285156 197.167969 556.898438 197.9375 557.488281 C 198.707031 558.078125 199.496094 558.644531 200.296875 559.1875 C 201.101562 559.730469 201.921875 560.25 202.753906 560.746094 C 203.589844 561.238281 204.4375 561.707031 205.300781 562.152344 C 206.160156 562.597656 207.035156 563.015625 207.921875 563.410156 C 208.808594 563.800781 209.707031 564.167969 210.617188 564.507812 C 211.523438 564.84375 212.441406 565.15625 213.367188 565.441406 C 214.296875 565.726562 215.230469 565.984375 216.171875 566.214844 C 217.117188 566.441406 218.0625 566.644531 219.019531 566.816406 C 219.972656 566.992188 220.929688 567.136719 221.894531 567.25 C 222.855469 567.367188 223.820312 567.457031 224.789062 567.515625 C 225.757812 567.574219 226.726562 567.601562 227.695312 567.605469 C 228.492188 567.605469 229.285156 567.605469 230.109375 567.507812 C 230.292969 568.972656 230.539062 570.421875 230.855469 571.863281 C 231.167969 573.304688 231.546875 574.726562 231.988281 576.132812 C 232.429688 577.539062 232.933594 578.921875 233.503906 580.28125 C 234.070312 581.640625 234.699219 582.972656 235.386719 584.277344 C 236.074219 585.582031 236.820312 586.851562 237.625 588.085938 C 238.425781 589.320312 239.285156 590.519531 240.195312 591.675781 C 241.109375 592.835938 242.070312 593.949219 243.082031 595.019531 C 244.097656 596.089844 245.15625 597.113281 246.261719 598.089844 C 247.367188 599.0625 248.515625 599.984375 249.703125 600.855469 C 250.890625 601.726562 252.117188 602.542969 253.382812 603.304688 C 254.644531 604.0625 255.9375 604.765625 257.265625 605.40625 C 258.59375 606.046875 259.945312 606.628906 261.324219 607.148438 C 262.703125 607.667969 264.101562 608.125 265.523438 608.519531 C 266.945312 608.910156 268.378906 609.238281 269.832031 609.503906 C 271.28125 609.765625 272.738281 609.960938 274.207031 610.09375 C 275.675781 610.222656 277.148438 610.289062 278.621094 610.285156 C 279.414062 610.285156 280.210938 610.015625 281.003906 609.984375 C 281.179688 611.449219 281.417969 612.90625 281.726562 614.355469 C 282.03125 615.800781 282.402344 617.226562 282.839844 618.640625 C 283.277344 620.050781 283.777344 621.441406 284.339844 622.808594 C 284.902344 624.175781 285.527344 625.511719 286.214844 626.824219 C 286.898438 628.132812 287.640625 629.410156 288.441406 630.652344 C 289.242188 631.894531 290.097656 633.097656 291.007812 634.261719 C 291.917969 635.425781 292.878906 636.546875 293.894531 637.621094 C 294.90625 638.699219 295.964844 639.726562 297.070312 640.707031 C 298.175781 641.6875 299.324219 642.617188 300.515625 643.492188 C 301.703125 644.371094 302.933594 645.191406 304.199219 645.953125 C 305.460938 646.71875 306.757812 647.425781 308.089844 648.070312 C 309.417969 648.71875 310.773438 649.300781 312.15625 649.824219 C 313.539062 650.347656 314.941406 650.808594 316.367188 651.203125 C 317.789062 651.597656 319.230469 651.929688 320.683594 652.195312 C 322.136719 652.457031 323.601562 652.65625 325.074219 652.789062 C 326.542969 652.917969 328.019531 652.984375 329.496094 652.980469 C 330.292969 652.980469 331.085938 652.824219 331.863281 652.792969 C 332.042969 654.253906 332.289062 655.707031 332.601562 657.148438 C 332.914062 658.589844 333.289062 660.015625 333.730469 661.421875 C 334.171875 662.832031 334.675781 664.214844 335.242188 665.578125 C 335.808594 666.9375 336.433594 668.273438 337.121094 669.578125 C 337.808594 670.882812 338.554688 672.152344 339.355469 673.390625 C 340.15625 674.628906 341.015625 675.828125 341.925781 676.988281 C 342.835938 678.148438 343.796875 679.265625 344.808594 680.339844 C 345.820312 681.410156 346.878906 682.4375 347.984375 683.414062 C 349.089844 684.390625 350.234375 685.316406 351.421875 686.191406 C 352.613281 687.0625 353.835938 687.878906 355.101562 688.644531 C 356.363281 689.40625 357.65625 690.109375 358.984375 690.753906 C 360.308594 691.398438 361.660156 691.984375 363.042969 692.507812 C 364.421875 693.03125 365.820312 693.488281 367.242188 693.882812 C 368.660156 694.28125 370.097656 694.613281 371.546875 694.878906 C 373 695.144531 374.457031 695.34375 375.925781 695.476562 C 377.394531 695.609375 378.867188 695.679688 380.34375 695.679688 C 381.789062 695.679688 383.25 695.679688 384.710938 695.472656 C 387.925781 695.203125 391.082031 694.621094 394.183594 693.726562 C 397.28125 692.832031 400.265625 691.640625 403.128906 690.152344 C 405.992188 688.664062 408.679688 686.910156 411.195312 684.890625 C 413.707031 682.867188 416 680.617188 418.066406 678.140625 L 437.828125 654.585938 L 454.539062 669.851562 C 456.136719 671.332031 457.828125 672.699219 459.609375 673.957031 C 461.394531 675.210938 463.253906 676.34375 465.1875 677.347656 C 467.121094 678.355469 469.113281 679.230469 471.164062 679.96875 C 473.214844 680.707031 475.308594 681.308594 477.4375 681.765625 C 479.570312 682.226562 481.722656 682.542969 483.898438 682.714844 C 486.070312 682.882812 488.246094 682.910156 490.421875 682.789062 C 492.601562 682.667969 494.761719 682.40625 496.902344 681.996094 C 499.042969 681.585938 501.148438 681.035156 503.214844 680.34375 C 505.285156 679.652344 507.296875 678.828125 509.253906 677.867188 C 511.210938 676.90625 513.097656 675.820312 514.90625 674.605469 C 516.71875 673.394531 518.441406 672.0625 520.078125 670.621094 C 521.710938 669.175781 523.242188 667.628906 524.667969 665.980469 C 526.09375 664.332031 527.40625 662.59375 528.597656 660.769531 C 529.792969 658.945312 530.859375 657.050781 531.800781 655.082031 C 532.742188 653.117188 533.546875 651.09375 534.214844 649.019531 C 534.886719 646.945312 535.414062 644.835938 535.800781 642.6875 C 538.230469 643.09375 540.675781 643.316406 543.140625 643.355469 C 544.433594 643.363281 545.726562 643.320312 547.019531 643.222656 C 548.3125 643.125 549.597656 642.976562 550.878906 642.78125 C 552.160156 642.582031 553.429688 642.332031 554.6875 642.03125 C 555.949219 641.730469 557.195312 641.378906 558.425781 640.976562 C 559.660156 640.578125 560.875 640.128906 562.070312 639.632812 C 563.265625 639.132812 564.441406 638.589844 565.59375 637.996094 C 566.746094 637.40625 567.875 636.769531 568.976562 636.089844 C 570.078125 635.40625 571.148438 634.683594 572.195312 633.914062 C 573.238281 633.148438 574.25 632.339844 575.226562 631.492188 C 576.207031 630.644531 577.152344 629.757812 578.058594 628.832031 C 578.96875 627.910156 579.835938 626.949219 580.667969 625.957031 C 581.5 624.964844 582.292969 623.9375 583.042969 622.882812 C 583.789062 621.824219 584.496094 620.742188 585.160156 619.628906 C 585.824219 618.515625 586.441406 617.375 587.011719 616.214844 C 587.582031 615.050781 588.109375 613.867188 588.585938 612.664062 C 589.0625 611.457031 589.492188 610.238281 589.871094 609 C 595.574219 611.199219 601.484375 612.292969 607.597656 612.285156 C 608.34375 612.285156 609.105469 612.285156 609.851562 612.285156 C 611.460938 612.214844 613.058594 612.0625 614.652344 611.835938 C 616.242188 611.605469 617.820312 611.296875 619.382812 610.914062 C 620.945312 610.527344 622.484375 610.070312 624 609.53125 C 625.515625 608.996094 627.003906 608.390625 628.460938 607.707031 C 629.917969 607.023438 631.335938 606.273438 632.71875 605.453125 C 634.101562 604.632812 635.441406 603.742188 636.738281 602.789062 C 638.03125 601.835938 639.277344 600.824219 640.476562 599.75 C 641.671875 598.671875 642.8125 597.542969 643.894531 596.355469 C 644.980469 595.167969 646.003906 593.929688 646.96875 592.640625 C 647.929688 591.351562 648.828125 590.019531 649.660156 588.644531 C 650.492188 587.265625 651.257812 585.851562 651.949219 584.402344 C 652.644531 582.949219 653.261719 581.46875 653.8125 579.957031 C 654.359375 578.445312 654.832031 576.910156 655.226562 575.351562 C 655.625 573.792969 655.945312 572.214844 656.1875 570.625 C 656.429688 569.035156 656.59375 567.4375 656.675781 565.832031 C 656.761719 564.226562 656.769531 562.621094 656.695312 561.011719 C 656.390625 556.09375 655.375 551.332031 653.644531 546.71875 C 655.910156 545.960938 658.105469 545.042969 660.234375 543.957031 C 662.359375 542.871094 664.394531 541.632812 666.335938 540.242188 C 668.277344 538.851562 670.101562 537.324219 671.816406 535.660156 C 673.527344 533.992188 675.101562 532.210938 676.546875 530.304688 C 677.988281 528.402344 679.28125 526.40625 680.425781 524.308594 C 681.566406 522.210938 682.546875 520.039062 683.363281 517.796875 C 684.179688 515.550781 684.824219 513.257812 685.292969 510.917969 C 685.765625 508.578125 686.058594 506.214844 686.175781 503.828125 L 736.65625 440.292969 C 737.574219 441.214844 738.527344 442.097656 739.519531 442.9375 C 740.507812 443.78125 741.53125 444.582031 742.585938 445.339844 C 743.644531 446.101562 744.730469 446.816406 745.84375 447.484375 C 746.957031 448.15625 748.097656 448.777344 749.261719 449.355469 C 750.429688 449.933594 751.617188 450.460938 752.824219 450.941406 C 754.03125 451.421875 755.257812 451.851562 756.503906 452.230469 C 757.746094 452.609375 759.003906 452.9375 760.273438 453.210938 C 761.546875 453.488281 762.824219 453.714844 764.113281 453.882812 C 765.402344 454.054688 766.695312 454.175781 767.996094 454.242188 C 769.292969 454.304688 770.59375 454.320312 771.894531 454.277344 C 773.195312 454.238281 774.488281 454.144531 775.78125 453.996094 C 777.074219 453.851562 778.355469 453.652344 779.632812 453.398438 C 780.910156 453.148438 782.171875 452.84375 783.421875 452.488281 C 784.675781 452.132812 785.910156 451.726562 787.125 451.269531 C 788.34375 450.8125 789.539062 450.308594 790.71875 449.753906 C 791.894531 449.199219 793.042969 448.597656 794.171875 447.949219 L 807.195312 440.421875 C 808.550781 439.640625 809.863281 438.796875 811.132812 437.886719 C 812.402344 436.980469 813.625 436.011719 814.800781 434.980469 C 815.976562 433.953125 817.097656 432.867188 818.164062 431.730469 C 819.234375 430.589844 820.242188 429.402344 821.195312 428.164062 C 822.144531 426.925781 823.035156 425.640625 823.859375 424.316406 C 824.683594 422.992188 825.445312 421.628906 826.136719 420.226562 C 826.828125 418.828125 827.449219 417.394531 828 415.933594 C 828.550781 414.472656 829.027344 412.988281 829.429688 411.480469 C 829.835938 409.972656 830.167969 408.445312 830.421875 406.90625 C 830.675781 405.363281 830.855469 403.816406 830.957031 402.257812 C 831.058594 400.699219 831.085938 399.136719 831.035156 397.578125 C 830.984375 396.015625 830.855469 394.460938 830.652344 392.914062 C 830.449219 391.363281 830.167969 389.832031 829.8125 388.308594 C 829.460938 386.789062 829.03125 385.289062 828.527344 383.808594 C 828.027344 382.332031 827.453125 380.878906 826.808594 379.457031 C 826.164062 378.035156 825.449219 376.648438 824.667969 375.296875 Z M 141.890625 414.671875 C 141.628906 415.121094 141.347656 415.558594 141.046875 415.980469 C 140.742188 416.40625 140.417969 416.8125 140.078125 417.203125 C 139.734375 417.59375 139.371094 417.96875 138.992188 418.324219 C 138.613281 418.679688 138.214844 419.015625 137.804688 419.332031 C 137.390625 419.648438 136.964844 419.945312 136.523438 420.21875 C 136.082031 420.492188 135.625 420.746094 135.160156 420.976562 C 134.691406 421.207031 134.214844 421.414062 133.730469 421.597656 C 133.242188 421.777344 132.75 421.9375 132.246094 422.074219 C 131.742188 422.207031 131.234375 422.316406 130.722656 422.402344 C 130.207031 422.488281 129.691406 422.546875 129.171875 422.578125 C 128.65625 422.613281 128.136719 422.621094 127.613281 422.605469 C 127.09375 422.589844 126.578125 422.546875 126.0625 422.476562 C 125.546875 422.410156 125.035156 422.316406 124.527344 422.199219 C 124.019531 422.082031 123.523438 421.9375 123.027344 421.769531 C 122.535156 421.605469 122.054688 421.414062 121.578125 421.199219 C 121.105469 420.984375 120.644531 420.746094 120.191406 420.484375 L 107.167969 412.972656 C 106.714844 412.710938 106.277344 412.429688 105.851562 412.128906 C 105.425781 411.824219 105.019531 411.503906 104.625 411.160156 C 104.234375 410.816406 103.859375 410.453125 103.5 410.074219 C 103.144531 409.695312 102.804688 409.296875 102.488281 408.882812 C 102.167969 408.46875 101.871094 408.042969 101.597656 407.597656 C 101.320312 407.15625 101.066406 406.699219 100.835938 406.234375 C 100.605469 405.765625 100.398438 405.289062 100.214844 404.800781 C 100.03125 404.3125 99.871094 403.816406 99.734375 403.3125 C 99.601562 402.808594 99.492188 402.296875 99.40625 401.78125 C 99.320312 401.269531 99.261719 400.75 99.226562 400.230469 C 99.191406 399.710938 99.183594 399.1875 99.203125 398.667969 C 99.21875 398.144531 99.261719 397.625 99.332031 397.109375 C 99.398438 396.59375 99.492188 396.078125 99.613281 395.570312 C 99.730469 395.0625 99.875 394.5625 100.042969 394.070312 C 100.214844 393.574219 100.40625 393.089844 100.621094 392.617188 C 100.835938 392.140625 101.078125 391.679688 101.339844 391.226562 L 184.394531 247.347656 C 184.65625 246.898438 184.941406 246.457031 185.246094 246.035156 C 185.550781 245.609375 185.875 245.203125 186.21875 244.808594 C 186.5625 244.417969 186.925781 244.042969 187.308594 243.6875 C 187.6875 243.328125 188.085938 242.992188 188.5 242.675781 C 188.917969 242.359375 189.34375 242.0625 189.789062 241.789062 C 190.234375 241.511719 190.691406 241.261719 191.160156 241.03125 C 191.628906 240.800781 192.105469 240.59375 192.59375 240.410156 C 193.085938 240.230469 193.582031 240.070312 194.085938 239.9375 C 194.589844 239.804688 195.101562 239.695312 195.617188 239.613281 C 196.132812 239.527344 196.648438 239.472656 197.171875 239.4375 C 197.691406 239.40625 198.214844 239.398438 198.734375 239.417969 C 199.257812 239.4375 199.777344 239.484375 200.292969 239.554688 C 200.8125 239.625 201.324219 239.71875 201.832031 239.839844 C 202.339844 239.960938 202.839844 240.105469 203.335938 240.277344 C 203.828125 240.449219 204.3125 240.640625 204.785156 240.859375 C 205.261719 241.078125 205.722656 241.320312 206.171875 241.582031 L 219.214844 249.113281 C 219.664062 249.371094 220.101562 249.652344 220.523438 249.957031 C 220.945312 250.257812 221.355469 250.582031 221.746094 250.925781 C 222.136719 251.269531 222.511719 251.628906 222.867188 252.011719 C 223.222656 252.390625 223.558594 252.785156 223.875 253.199219 C 224.191406 253.609375 224.484375 254.039062 224.761719 254.480469 C 225.035156 254.921875 225.289062 255.375 225.519531 255.84375 C 225.75 256.308594 225.953125 256.785156 226.136719 257.273438 C 226.320312 257.757812 226.480469 258.253906 226.613281 258.757812 C 226.75 259.257812 226.859375 259.765625 226.945312 260.28125 C 227.027344 260.792969 227.089844 261.308594 227.121094 261.828125 C 227.15625 262.347656 227.164062 262.867188 227.148438 263.386719 C 227.128906 263.90625 227.089844 264.425781 227.019531 264.941406 C 226.953125 265.457031 226.859375 265.96875 226.742188 266.476562 C 226.621094 266.980469 226.480469 267.480469 226.3125 267.972656 C 226.144531 268.464844 225.953125 268.949219 225.738281 269.421875 C 225.527344 269.898438 225.289062 270.359375 225.027344 270.808594 Z M 216.546875 531.816406 C 216.113281 531.453125 215.695312 531.066406 215.300781 530.664062 C 214.902344 530.257812 214.527344 529.832031 214.171875 529.390625 C 213.816406 528.949219 213.484375 528.488281 213.175781 528.015625 C 212.863281 527.539062 212.578125 527.050781 212.316406 526.546875 C 212.054688 526.042969 211.816406 525.53125 211.605469 525.003906 C 211.394531 524.476562 211.210938 523.941406 211.050781 523.398438 C 210.894531 522.851562 210.761719 522.300781 210.65625 521.742188 C 210.554688 521.1875 210.476562 520.625 210.425781 520.058594 C 210.378906 519.496094 210.355469 518.929688 210.363281 518.359375 C 210.367188 517.792969 210.402344 517.230469 210.464844 516.664062 C 210.527344 516.101562 210.617188 515.542969 210.734375 514.988281 C 210.851562 514.429688 210.992188 513.882812 211.164062 513.34375 C 211.335938 512.800781 211.53125 512.269531 211.753906 511.75 C 211.976562 511.226562 212.226562 510.71875 212.5 510.222656 C 212.773438 509.722656 213.070312 509.242188 213.390625 508.773438 C 213.710938 508.304688 214.050781 507.855469 214.417969 507.417969 L 251.570312 463.132812 C 251.929688 462.683594 252.308594 462.25 252.710938 461.835938 C 253.113281 461.421875 253.535156 461.027344 253.976562 460.65625 C 254.414062 460.285156 254.875 459.9375 255.351562 459.609375 C 255.824219 459.285156 256.316406 458.984375 256.824219 458.707031 C 257.328125 458.429688 257.847656 458.179688 258.378906 457.953125 C 258.910156 457.726562 259.449219 457.53125 260 457.359375 C 260.550781 457.1875 261.109375 457.042969 261.675781 456.929688 C 262.242188 456.8125 262.8125 456.726562 263.382812 456.667969 C 263.957031 456.609375 264.535156 456.582031 265.109375 456.578125 C 265.6875 456.578125 266.261719 456.605469 266.835938 456.664062 C 267.410156 456.71875 267.980469 456.804688 268.546875 456.917969 C 269.113281 457.03125 269.671875 457.175781 270.222656 457.34375 C 270.773438 457.511719 271.316406 457.710938 271.847656 457.933594 C 272.378906 458.15625 272.898438 458.40625 273.40625 458.683594 C 273.910156 458.957031 274.402344 459.257812 274.878906 459.582031 C 275.355469 459.90625 275.816406 460.253906 276.257812 460.625 C 276.699219 460.996094 277.121094 461.386719 277.527344 461.800781 C 277.929688 462.214844 278.308594 462.644531 278.667969 463.097656 C 279.03125 463.546875 279.367188 464.015625 279.679688 464.5 C 279.992188 464.984375 280.28125 465.484375 280.542969 465.996094 C 280.804688 466.511719 281.042969 467.035156 281.253906 467.570312 C 281.464844 468.109375 281.648438 468.65625 281.804688 469.210938 C 281.960938 469.765625 282.085938 470.328125 282.1875 470.894531 C 282.289062 471.464844 282.359375 472.035156 282.402344 472.609375 C 282.445312 473.1875 282.457031 473.761719 282.441406 474.339844 C 282.429688 474.914062 282.386719 475.488281 282.3125 476.0625 C 282.242188 476.632812 282.140625 477.203125 282.011719 477.765625 C 281.882812 478.328125 281.726562 478.878906 281.539062 479.425781 C 281.355469 479.972656 281.144531 480.511719 280.90625 481.035156 C 280.667969 481.5625 280.40625 482.074219 280.117188 482.574219 C 279.828125 483.070312 279.515625 483.554688 279.175781 484.023438 C 278.839844 484.492188 278.480469 484.941406 278.097656 485.371094 L 240.976562 529.640625 C 240.609375 530.078125 240.226562 530.492188 239.820312 530.890625 C 239.414062 531.285156 238.992188 531.664062 238.546875 532.019531 C 238.105469 532.375 237.648438 532.707031 237.171875 533.015625 C 236.695312 533.328125 236.207031 533.613281 235.703125 533.875 C 235.199219 534.136719 234.683594 534.375 234.160156 534.585938 C 233.632812 534.796875 233.097656 534.984375 232.550781 535.140625 C 232.007812 535.300781 231.457031 535.433594 230.898438 535.539062 C 230.339844 535.644531 229.777344 535.71875 229.210938 535.769531 C 228.648438 535.820312 228.082031 535.839844 227.511719 535.835938 C 226.945312 535.828125 226.378906 535.796875 225.816406 535.734375 C 225.25 535.671875 224.691406 535.582031 224.136719 535.46875 C 223.582031 535.351562 223.03125 535.207031 222.492188 535.035156 C 221.949219 534.867188 221.417969 534.667969 220.894531 534.445312 C 220.375 534.222656 219.863281 533.976562 219.367188 533.703125 C 218.867188 533.429688 218.386719 533.132812 217.917969 532.8125 C 217.449219 532.492188 216.996094 532.152344 216.5625 531.785156 Z M 267.375 574.5 C 266.941406 574.132812 266.523438 573.75 266.125 573.34375 C 265.730469 572.941406 265.351562 572.515625 264.996094 572.074219 C 264.640625 571.632812 264.308594 571.171875 263.996094 570.699219 C 263.6875 570.222656 263.398438 569.734375 263.136719 569.230469 C 262.875 568.730469 262.636719 568.214844 262.425781 567.6875 C 262.214844 567.160156 262.027344 566.625 261.871094 566.082031 C 261.710938 565.535156 261.578125 564.984375 261.472656 564.429688 C 261.367188 563.871094 261.289062 563.308594 261.242188 562.742188 C 261.191406 562.179688 261.167969 561.613281 261.175781 561.046875 C 261.183594 560.476562 261.214844 559.914062 261.277344 559.347656 C 261.339844 558.785156 261.429688 558.222656 261.546875 557.667969 C 261.660156 557.113281 261.804688 556.566406 261.976562 556.023438 C 262.148438 555.484375 262.34375 554.953125 262.566406 554.429688 C 262.789062 553.910156 263.039062 553.398438 263.3125 552.902344 C 263.585938 552.40625 263.882812 551.921875 264.203125 551.453125 C 264.523438 550.984375 264.867188 550.535156 265.230469 550.101562 L 312.976562 493.203125 C 313.347656 492.773438 313.734375 492.359375 314.140625 491.964844 C 314.550781 491.574219 314.976562 491.199219 315.417969 490.847656 C 315.863281 490.496094 316.324219 490.167969 316.800781 489.859375 C 317.277344 489.550781 317.765625 489.269531 318.269531 489.007812 C 318.773438 488.75 319.289062 488.515625 319.816406 488.304688 C 320.34375 488.09375 320.878906 487.910156 321.421875 487.753906 C 321.964844 487.597656 322.515625 487.464844 323.074219 487.363281 C 323.632812 487.257812 324.191406 487.183594 324.757812 487.132812 C 325.320312 487.085938 325.886719 487.0625 326.453125 487.070312 C 327.019531 487.074219 327.585938 487.109375 328.148438 487.167969 C 328.710938 487.230469 329.273438 487.316406 329.828125 487.433594 C 330.382812 487.546875 330.929688 487.691406 331.472656 487.859375 C 332.011719 488.027344 332.542969 488.222656 333.066406 488.441406 C 333.585938 488.660156 334.097656 488.90625 334.597656 489.175781 C 335.09375 489.445312 335.578125 489.742188 336.046875 490.058594 C 336.519531 490.375 336.972656 490.714844 337.40625 491.074219 C 337.84375 491.441406 338.257812 491.824219 338.652344 492.230469 C 339.050781 492.636719 339.425781 493.058594 339.777344 493.503906 C 340.132812 493.945312 340.464844 494.402344 340.773438 494.878906 C 341.085938 495.355469 341.371094 495.84375 341.632812 496.347656 C 341.894531 496.847656 342.128906 497.363281 342.339844 497.890625 C 342.550781 498.414062 342.738281 498.949219 342.894531 499.496094 C 343.054688 500.039062 343.1875 500.589844 343.289062 501.148438 C 343.394531 501.703125 343.472656 502.265625 343.523438 502.832031 C 343.570312 503.394531 343.59375 503.960938 343.585938 504.527344 C 343.582031 505.09375 343.546875 505.660156 343.488281 506.222656 C 343.425781 506.789062 343.335938 507.347656 343.222656 507.902344 C 343.105469 508.457031 342.960938 509.003906 342.792969 509.546875 C 342.621094 510.085938 342.425781 510.617188 342.203125 511.140625 C 341.984375 511.660156 341.734375 512.171875 341.464844 512.667969 C 341.191406 513.164062 340.894531 513.648438 340.578125 514.117188 C 340.257812 514.585938 339.917969 515.039062 339.550781 515.472656 L 291.949219 572.304688 C 291.582031 572.742188 291.199219 573.160156 290.792969 573.5625 C 290.386719 573.960938 289.964844 574.339844 289.519531 574.695312 C 289.078125 575.054688 288.621094 575.386719 288.144531 575.699219 C 287.667969 576.011719 287.179688 576.300781 286.675781 576.566406 C 286.171875 576.828125 285.65625 577.066406 285.128906 577.28125 C 284.601562 577.496094 284.0625 577.679688 283.515625 577.839844 C 282.972656 578.003906 282.417969 578.136719 281.859375 578.242188 C 281.300781 578.347656 280.738281 578.425781 280.171875 578.476562 C 279.605469 578.527344 279.039062 578.550781 278.46875 578.546875 C 277.898438 578.539062 277.332031 578.507812 276.765625 578.445312 C 276.199219 578.386719 275.640625 578.296875 275.082031 578.179688 C 274.527344 578.066406 273.976562 577.921875 273.433594 577.75 C 272.890625 577.582031 272.355469 577.382812 271.832031 577.160156 C 271.308594 576.9375 270.796875 576.691406 270.300781 576.417969 C 269.800781 576.144531 269.316406 575.847656 268.84375 575.527344 C 268.375 575.207031 267.921875 574.863281 267.484375 574.5 Z M 318.203125 617.210938 C 317.769531 616.84375 317.355469 616.460938 316.957031 616.054688 C 316.5625 615.648438 316.1875 615.222656 315.832031 614.78125 C 315.476562 614.335938 315.144531 613.878906 314.835938 613.402344 C 314.527344 612.929688 314.242188 612.4375 313.980469 611.933594 C 313.71875 611.433594 313.480469 610.917969 313.269531 610.390625 C 313.058594 609.863281 312.875 609.328125 312.714844 608.785156 C 312.554688 608.238281 312.425781 607.6875 312.320312 607.128906 C 312.214844 606.574219 312.136719 606.011719 312.089844 605.445312 C 312.039062 604.882812 312.015625 604.316406 312.023438 603.75 C 312.027344 603.179688 312.0625 602.617188 312.125 602.050781 C 312.183594 601.488281 312.273438 600.929688 312.390625 600.371094 C 312.507812 599.816406 312.648438 599.269531 312.820312 598.726562 C 312.988281 598.1875 313.183594 597.65625 313.40625 597.132812 C 313.628906 596.609375 313.875 596.101562 314.148438 595.601562 C 314.421875 595.105469 314.714844 594.621094 315.035156 594.152344 C 315.355469 593.683594 315.695312 593.230469 316.058594 592.796875 L 353.179688 548.574219 C 354.644531 546.8125 356.394531 545.398438 358.425781 544.339844 C 360.460938 543.277344 362.617188 542.652344 364.902344 542.460938 C 365.425781 542.460938 365.953125 542.460938 366.492188 542.460938 C 367.3125 542.460938 368.128906 542.519531 368.941406 542.636719 C 369.75 542.753906 370.550781 542.925781 371.339844 543.15625 C 372.125 543.386719 372.890625 543.671875 373.640625 544.007812 C 374.386719 544.347656 375.105469 544.738281 375.796875 545.179688 C 376.488281 545.621094 377.144531 546.109375 377.765625 546.640625 C 378.386719 547.175781 378.96875 547.753906 379.511719 548.367188 C 380.050781 548.984375 380.546875 549.636719 380.992188 550.324219 C 381.441406 551.011719 381.839844 551.726562 382.183594 552.46875 C 382.53125 553.214844 382.824219 553.976562 383.0625 554.761719 C 383.296875 555.546875 383.480469 556.34375 383.605469 557.15625 C 383.730469 557.964844 383.796875 558.78125 383.804688 559.601562 C 383.8125 560.421875 383.765625 561.238281 383.65625 562.050781 C 383.550781 562.863281 383.386719 563.664062 383.164062 564.457031 C 382.945312 565.246094 382.667969 566.015625 382.339844 566.765625 C 382.007812 567.515625 381.628906 568.242188 381.195312 568.9375 C 380.761719 569.632812 380.28125 570.296875 379.753906 570.925781 L 342.777344 615.066406 C 342.410156 615.5 342.027344 615.914062 341.621094 616.308594 C 341.214844 616.707031 340.789062 617.082031 340.347656 617.433594 C 339.90625 617.789062 339.445312 618.121094 338.972656 618.429688 C 338.496094 618.738281 338.007812 619.023438 337.503906 619.285156 C 337 619.546875 336.488281 619.78125 335.960938 619.992188 C 335.433594 620.203125 334.898438 620.390625 334.355469 620.546875 C 333.8125 620.707031 333.261719 620.839844 332.703125 620.941406 C 332.144531 621.046875 331.585938 621.125 331.019531 621.175781 C 330.457031 621.222656 329.890625 621.246094 329.324219 621.238281 C 328.757812 621.234375 328.191406 621.199219 327.628906 621.140625 C 327.0625 621.078125 326.503906 620.988281 325.949219 620.875 C 325.394531 620.757812 324.847656 620.613281 324.308594 620.445312 C 323.765625 620.277344 323.234375 620.082031 322.714844 619.859375 C 322.191406 619.636719 321.683594 619.390625 321.183594 619.117188 C 320.6875 618.847656 320.203125 618.550781 319.734375 618.234375 C 319.265625 617.914062 318.8125 617.574219 318.378906 617.210938 Z M 393.605469 657.761719 C 392.136719 659.53125 390.382812 660.945312 388.34375 662.011719 C 386.308594 663.074219 384.144531 663.699219 381.851562 663.894531 C 379.554688 664.09375 377.304688 663.84375 375.101562 663.152344 C 372.902344 662.457031 370.914062 661.371094 369.144531 659.890625 C 368.710938 659.527344 368.292969 659.144531 367.894531 658.738281 C 367.5 658.335938 367.121094 657.910156 366.765625 657.46875 C 366.410156 657.027344 366.078125 656.570312 365.765625 656.09375 C 365.457031 655.621094 365.171875 655.132812 364.90625 654.628906 C 364.644531 654.125 364.410156 653.613281 364.195312 653.085938 C 363.984375 652.558594 363.800781 652.023438 363.640625 651.480469 C 363.480469 650.9375 363.347656 650.386719 363.242188 649.828125 C 363.140625 649.269531 363.0625 648.710938 363.011719 648.144531 C 362.960938 647.582031 362.941406 647.015625 362.945312 646.449219 C 362.953125 645.878906 362.988281 645.316406 363.046875 644.75 C 363.109375 644.1875 363.199219 643.628906 363.316406 643.074219 C 363.433594 642.519531 363.578125 641.96875 363.746094 641.429688 C 363.917969 640.890625 364.113281 640.359375 364.335938 639.835938 C 364.558594 639.316406 364.808594 638.804688 365.082031 638.308594 C 365.355469 637.8125 365.652344 637.328125 365.972656 636.863281 C 366.292969 636.394531 366.636719 635.941406 367 635.507812 L 393.605469 604.074219 C 395.074219 602.304688 396.828125 600.890625 398.867188 599.828125 C 400.90625 598.765625 403.070312 598.136719 405.359375 597.941406 C 405.882812 597.941406 406.394531 597.941406 406.949219 597.941406 C 407.769531 597.941406 408.585938 598 409.398438 598.117188 C 410.207031 598.230469 411.007812 598.40625 411.796875 598.632812 C 412.582031 598.863281 413.351562 599.148438 414.097656 599.484375 C 414.84375 599.824219 415.5625 600.214844 416.253906 600.652344 C 416.945312 601.09375 417.605469 601.582031 418.226562 602.117188 C 418.847656 602.648438 419.429688 603.222656 419.972656 603.839844 C 420.511719 604.457031 421.007812 605.109375 421.453125 605.796875 C 421.902344 606.484375 422.300781 607.199219 422.644531 607.941406 C 422.992188 608.683594 423.285156 609.449219 423.523438 610.234375 C 423.761719 611.019531 423.941406 611.816406 424.066406 612.625 C 424.191406 613.4375 424.257812 614.25 424.265625 615.070312 C 424.273438 615.890625 424.226562 616.707031 424.117188 617.519531 C 424.011719 618.335938 423.847656 619.136719 423.625 619.925781 C 423.40625 620.714844 423.128906 621.484375 422.800781 622.234375 C 422.46875 622.984375 422.085938 623.710938 421.652344 624.40625 C 421.21875 625.101562 420.738281 625.765625 420.210938 626.390625 Z M 650.117188 512.234375 C 648.578125 513.9375 646.761719 515.277344 644.679688 516.253906 C 642.597656 517.230469 640.410156 517.761719 638.109375 517.855469 C 636.027344 517.972656 633.996094 517.695312 632.015625 517.03125 C 630.035156 516.367188 628.25 515.363281 626.65625 514.011719 L 583.546875 473.824219 L 582.832031 473.15625 C 582.453125 472.800781 582.058594 472.464844 581.644531 472.148438 C 581.230469 471.832031 580.804688 471.539062 580.363281 471.265625 C 579.917969 470.988281 579.464844 470.738281 579 470.507812 C 578.53125 470.277344 578.054688 470.070312 577.566406 469.890625 C 577.082031 469.707031 576.585938 469.546875 576.082031 469.414062 C 575.582031 469.28125 575.070312 469.171875 574.558594 469.085938 C 574.046875 469 573.527344 468.941406 573.011719 468.910156 C 572.492188 468.875 571.972656 468.867188 571.453125 468.886719 C 570.929688 468.902344 570.414062 468.945312 569.898438 469.011719 C 569.382812 469.082031 568.871094 469.175781 568.363281 469.292969 C 567.859375 469.414062 567.359375 469.554688 566.867188 469.722656 C 566.375 469.890625 565.890625 470.082031 565.417969 470.296875 C 564.941406 470.511719 564.480469 470.75 564.03125 471.011719 C 563.582031 471.269531 563.144531 471.554688 562.722656 471.855469 C 562.296875 472.160156 561.890625 472.484375 561.5 472.828125 C 561.109375 473.171875 560.738281 473.53125 560.382812 473.910156 C 560.027344 474.292969 559.691406 474.6875 559.375 475.101562 C 559.058594 475.515625 558.761719 475.941406 558.488281 476.382812 C 558.214844 476.828125 557.960938 477.28125 557.730469 477.746094 C 557.503906 478.214844 557.296875 478.691406 557.113281 479.179688 C 556.929688 479.664062 556.773438 480.160156 556.636719 480.664062 C 556.503906 481.164062 556.394531 481.671875 556.308594 482.1875 C 556.226562 482.699219 556.167969 483.214844 556.132812 483.734375 C 556.097656 484.253906 556.089844 484.773438 556.109375 485.292969 C 556.125 485.8125 556.167969 486.332031 556.238281 486.847656 C 556.304688 487.363281 556.398438 487.875 556.519531 488.382812 C 556.636719 488.886719 556.78125 489.386719 556.949219 489.878906 C 557.113281 490.371094 557.304688 490.855469 557.523438 491.328125 C 557.738281 491.804688 557.972656 492.265625 558.234375 492.714844 C 558.496094 493.164062 558.777344 493.601562 559.082031 494.023438 C 559.382812 494.449219 559.707031 494.855469 560.050781 495.246094 C 560.394531 495.636719 560.757812 496.007812 561.136719 496.363281 L 619.289062 550.527344 C 619.921875 551.101562 620.511719 551.71875 621.054688 552.378906 C 621.601562 553.039062 622.09375 553.738281 622.53125 554.46875 C 622.972656 555.203125 623.359375 555.964844 623.683594 556.753906 C 624.011719 557.546875 624.28125 558.355469 624.488281 559.1875 C 624.695312 560.015625 624.84375 560.855469 624.925781 561.707031 C 625.007812 562.558594 625.027344 563.414062 624.984375 564.265625 C 624.941406 565.121094 624.835938 565.96875 624.667969 566.808594 C 624.5 567.644531 624.269531 568.46875 623.980469 569.273438 C 623.691406 570.078125 623.34375 570.855469 622.9375 571.609375 C 622.53125 572.363281 622.074219 573.082031 621.558594 573.765625 C 621.046875 574.453125 620.488281 575.097656 619.882812 575.699219 C 619.273438 576.300781 618.625 576.855469 617.9375 577.363281 C 617.246094 577.867188 616.523438 578.320312 615.765625 578.722656 C 615.007812 579.121094 614.226562 579.460938 613.421875 579.746094 C 612.613281 580.027344 611.789062 580.25 610.949219 580.414062 C 610.109375 580.574219 609.261719 580.671875 608.40625 580.707031 C 607.28125 580.785156 606.15625 580.742188 605.039062 580.585938 C 603.917969 580.429688 602.828125 580.164062 601.761719 579.785156 C 600.699219 579.40625 599.683594 578.921875 598.71875 578.332031 C 597.753906 577.746094 596.859375 577.066406 596.035156 576.292969 L 538.484375 522.667969 L 538.105469 522.320312 C 537.722656 521.964844 537.328125 521.628906 536.914062 521.3125 C 536.503906 520.992188 536.074219 520.699219 535.632812 520.421875 C 535.191406 520.148438 534.738281 519.898438 534.269531 519.667969 C 533.804688 519.4375 533.328125 519.230469 532.839844 519.046875 C 532.351562 518.863281 531.859375 518.703125 531.355469 518.570312 C 530.855469 518.4375 530.34375 518.324219 529.832031 518.242188 C 529.320312 518.15625 528.804688 518.097656 528.285156 518.0625 C 527.765625 518.03125 527.246094 518.019531 526.726562 518.039062 C 526.203125 518.054688 525.6875 518.097656 525.171875 518.164062 C 524.65625 518.234375 524.144531 518.328125 523.636719 518.445312 C 523.132812 518.5625 522.632812 518.707031 522.140625 518.875 C 521.644531 519.039062 521.164062 519.230469 520.6875 519.445312 C 520.214844 519.660156 519.753906 519.898438 519.300781 520.160156 C 518.851562 520.417969 518.414062 520.699219 517.992188 521.003906 C 517.570312 521.308594 517.164062 521.628906 516.773438 521.972656 C 516.378906 522.316406 516.007812 522.679688 515.652344 523.058594 C 515.296875 523.4375 514.960938 523.832031 514.644531 524.246094 C 514.328125 524.660156 514.03125 525.085938 513.757812 525.527344 C 513.480469 525.96875 513.230469 526.425781 513 526.890625 C 512.769531 527.359375 512.5625 527.835938 512.378906 528.320312 C 512.195312 528.808594 512.039062 529.304688 511.902344 529.804688 C 511.769531 530.308594 511.660156 530.816406 511.574219 531.328125 C 511.488281 531.84375 511.429688 532.359375 511.394531 532.878906 C 511.363281 533.398438 511.355469 533.917969 511.371094 534.4375 C 511.386719 534.957031 511.429688 535.472656 511.5 535.992188 C 511.566406 536.507812 511.660156 537.015625 511.777344 537.523438 C 511.894531 538.03125 512.039062 538.53125 512.207031 539.023438 C 512.375 539.515625 512.566406 540 512.78125 540.472656 C 512.996094 540.945312 513.230469 541.410156 513.492188 541.859375 C 513.753906 542.308594 514.035156 542.746094 514.335938 543.167969 C 514.640625 543.589844 514.964844 544 515.304688 544.390625 C 515.648438 544.78125 516.011719 545.152344 516.390625 545.511719 L 554.878906 581.726562 C 555.632812 582.511719 556.304688 583.359375 556.898438 584.273438 C 557.492188 585.183594 557.996094 586.144531 558.410156 587.152344 C 558.820312 588.160156 559.136719 589.195312 559.355469 590.261719 C 559.570312 591.328125 559.6875 592.40625 559.699219 593.496094 C 559.714844 594.585938 559.625 595.664062 559.4375 596.738281 C 559.246094 597.808594 558.957031 598.851562 558.570312 599.871094 C 558.183594 600.886719 557.707031 601.859375 557.136719 602.789062 C 556.566406 603.714844 555.914062 604.582031 555.179688 605.386719 C 554.445312 606.1875 553.644531 606.917969 552.773438 607.570312 C 551.902344 608.222656 550.976562 608.789062 550 609.269531 C 549.019531 609.746094 548.007812 610.128906 546.957031 610.417969 C 545.90625 610.703125 544.839844 610.890625 543.753906 610.976562 C 542.667969 611.0625 541.585938 611.046875 540.503906 610.925781 C 539.421875 610.808594 538.359375 610.589844 537.316406 610.269531 C 536.277344 609.953125 535.277344 609.539062 534.3125 609.03125 C 533.347656 608.523438 532.441406 607.929688 531.589844 607.25 L 493.261719 571.195312 C 492.886719 570.835938 492.488281 570.5 492.078125 570.179688 C 491.667969 569.863281 491.242188 569.5625 490.800781 569.289062 C 490.359375 569.011719 489.90625 568.757812 489.441406 568.523438 C 488.976562 568.292969 488.5 568.082031 488.011719 567.898438 C 487.527344 567.710938 487.03125 567.550781 486.53125 567.414062 C 486.027344 567.277344 485.519531 567.164062 485.007812 567.078125 C 484.496094 566.992188 483.980469 566.929688 483.460938 566.894531 C 482.941406 566.855469 482.421875 566.84375 481.902344 566.859375 C 481.382812 566.875 480.863281 566.914062 480.347656 566.980469 C 479.832031 567.046875 479.320312 567.136719 478.8125 567.253906 C 478.304688 567.367188 477.804688 567.507812 477.308594 567.675781 C 476.816406 567.839844 476.332031 568.027344 475.859375 568.242188 C 475.382812 568.453125 474.917969 568.6875 474.46875 568.949219 C 474.015625 569.207031 473.578125 569.484375 473.152344 569.785156 C 472.730469 570.085938 472.320312 570.410156 471.929688 570.75 C 471.535156 571.089844 471.160156 571.453125 470.804688 571.828125 C 470.445312 572.207031 470.109375 572.601562 469.789062 573.015625 C 469.46875 573.425781 469.171875 573.851562 468.894531 574.292969 C 468.617188 574.734375 468.363281 575.1875 468.132812 575.652344 C 467.898438 576.117188 467.691406 576.59375 467.507812 577.078125 C 467.320312 577.566406 467.160156 578.058594 467.023438 578.5625 C 466.886719 579.0625 466.773438 579.570312 466.6875 580.085938 C 466.597656 580.597656 466.539062 581.113281 466.5 581.632812 C 466.464844 582.152344 466.453125 582.671875 466.46875 583.191406 C 466.484375 583.710938 466.523438 584.230469 466.589844 584.746094 C 466.65625 585.261719 466.746094 585.773438 466.863281 586.28125 C 466.976562 586.789062 467.117188 587.289062 467.285156 587.78125 C 467.449219 588.277344 467.636719 588.761719 467.851562 589.234375 C 468.0625 589.710938 468.296875 590.171875 468.554688 590.625 C 468.8125 591.078125 469.09375 591.515625 469.394531 591.9375 C 469.695312 592.363281 470.019531 592.773438 470.359375 593.164062 C 470.699219 593.558594 471.058594 593.933594 471.4375 594.289062 L 499.347656 620.816406 C 499.765625 621.203125 500.164062 621.605469 500.546875 622.03125 C 500.925781 622.457031 501.28125 622.898438 501.617188 623.355469 C 501.957031 623.816406 502.269531 624.292969 502.558594 624.78125 C 502.847656 625.269531 503.113281 625.773438 503.355469 626.289062 C 503.59375 626.804688 503.808594 627.332031 504 627.871094 C 504.1875 628.40625 504.351562 628.953125 504.488281 629.503906 C 504.625 630.058594 504.734375 630.617188 504.8125 631.179688 C 504.894531 631.742188 504.949219 632.308594 504.976562 632.878906 C 505 633.445312 505 634.015625 504.96875 634.585938 C 504.941406 635.152344 504.882812 635.71875 504.796875 636.28125 C 504.714844 636.84375 504.601562 637.402344 504.460938 637.957031 C 504.324219 638.507812 504.15625 639.050781 503.964844 639.585938 C 503.773438 640.121094 503.554688 640.648438 503.308594 641.164062 C 503.066406 641.675781 502.796875 642.179688 502.503906 642.667969 C 502.210938 643.15625 501.894531 643.628906 501.554688 644.085938 C 501.21875 644.542969 500.855469 644.984375 500.472656 645.40625 C 500.09375 645.824219 499.691406 646.226562 499.273438 646.605469 C 498.851562 646.988281 498.414062 647.347656 497.957031 647.683594 C 497.5 648.023438 497.027344 648.335938 496.542969 648.625 C 496.054688 648.917969 495.554688 649.183594 495.039062 649.425781 C 494.527344 649.667969 494.003906 649.882812 493.46875 650.070312 C 492.933594 650.261719 492.390625 650.421875 491.839844 650.558594 C 491.289062 650.695312 490.730469 650.804688 490.167969 650.882812 C 489.609375 650.964844 489.042969 651.019531 488.476562 651.042969 C 487.910156 651.066406 487.34375 651.066406 486.777344 651.035156 C 486.210938 651.003906 485.644531 650.945312 485.085938 650.859375 C 484.523438 650.769531 483.96875 650.65625 483.421875 650.515625 C 482.871094 650.375 482.328125 650.207031 481.796875 650.011719 C 481.265625 649.816406 480.742188 649.59375 480.230469 649.347656 C 479.71875 649.101562 479.222656 648.828125 478.738281 648.535156 C 478.253906 648.238281 477.785156 647.917969 477.332031 647.578125 C 476.878906 647.234375 476.445312 646.871094 476.027344 646.484375 L 454.394531 626.742188 C 454.972656 624.535156 455.386719 622.300781 455.644531 620.035156 C 455.90625 617.769531 456 615.496094 455.9375 613.21875 C 455.871094 610.941406 455.648438 608.675781 455.261719 606.429688 C 454.875 604.183594 454.332031 601.972656 453.632812 599.804688 C 452.933594 597.636719 452.082031 595.527344 451.082031 593.476562 C 450.082031 591.429688 448.945312 589.460938 447.664062 587.574219 C 446.386719 585.6875 444.980469 583.898438 443.445312 582.210938 C 441.910156 580.523438 440.265625 578.953125 438.511719 577.5 C 435.171875 574.71875 431.527344 572.421875 427.574219 570.621094 C 423.621094 568.816406 419.5 567.570312 415.207031 566.875 C 415.800781 563.070312 415.957031 559.246094 415.667969 555.40625 C 415.558594 554.066406 415.390625 552.730469 415.167969 551.40625 C 414.945312 550.078125 414.667969 548.765625 414.335938 547.460938 C 414.003906 546.15625 413.617188 544.871094 413.179688 543.597656 C 412.742188 542.328125 412.25 541.078125 411.707031 539.847656 C 411.164062 538.617188 410.570312 537.410156 409.929688 536.226562 C 409.285156 535.046875 408.597656 533.894531 407.859375 532.769531 C 407.117188 531.644531 406.335938 530.554688 405.507812 529.496094 C 404.675781 528.4375 403.804688 527.414062 402.890625 526.425781 C 401.976562 525.4375 401.023438 524.492188 400.03125 523.585938 C 399.039062 522.675781 398.011719 521.8125 396.945312 520.988281 C 395.882812 520.167969 394.785156 519.390625 393.65625 518.660156 C 392.527344 517.929688 391.371094 517.246094 390.183594 516.609375 C 389 515.976562 387.789062 515.390625 386.554688 514.855469 C 385.320312 514.320312 384.066406 513.839844 382.792969 513.40625 C 381.519531 512.976562 380.230469 512.601562 378.925781 512.277344 C 377.617188 511.953125 376.300781 511.683594 374.972656 511.46875 C 375.566406 507.675781 375.722656 503.863281 375.433594 500.035156 C 375.355469 499.113281 375.25 498.199219 375.117188 497.285156 C 374.984375 496.371094 374.828125 495.460938 374.644531 494.558594 C 374.460938 493.652344 374.25 492.753906 374.015625 491.863281 C 373.78125 490.96875 373.523438 490.085938 373.238281 489.207031 C 372.953125 488.328125 372.644531 487.460938 372.3125 486.597656 C 371.980469 485.738281 371.621094 484.886719 371.238281 484.046875 C 370.859375 483.207031 370.453125 482.378906 370.023438 481.5625 C 369.597656 480.746094 369.144531 479.941406 368.671875 479.148438 C 368.195312 478.355469 367.699219 477.578125 367.183594 476.816406 C 366.664062 476.050781 366.125 475.304688 365.566406 474.570312 C 365.003906 473.835938 364.425781 473.121094 363.824219 472.421875 C 363.222656 471.71875 362.601562 471.035156 361.960938 470.371094 C 361.324219 469.707031 360.664062 469.058594 359.988281 468.433594 C 359.3125 467.804688 358.617188 467.195312 357.910156 466.605469 C 357.199219 466.019531 356.472656 465.449219 355.726562 464.902344 C 354.984375 464.355469 354.226562 463.828125 353.457031 463.324219 C 352.683594 462.820312 351.898438 462.335938 351.097656 461.875 C 350.296875 461.417969 349.484375 460.980469 348.660156 460.566406 C 347.835938 460.148438 347 459.757812 346.152344 459.394531 C 345.304688 459.027344 344.449219 458.683594 343.585938 458.363281 C 342.71875 458.046875 341.84375 457.753906 340.960938 457.484375 C 340.078125 457.214844 339.1875 456.96875 338.292969 456.75 C 337.394531 456.53125 336.492188 456.339844 335.585938 456.171875 C 334.679688 456.003906 333.765625 455.863281 332.851562 455.746094 C 331.9375 455.628906 331.019531 455.539062 330.097656 455.476562 C 329.175781 455.410156 328.253906 455.375 327.332031 455.359375 C 326.410156 455.347656 325.488281 455.363281 324.566406 455.402344 C 323.644531 455.445312 322.722656 455.511719 321.804688 455.601562 C 320.886719 455.695312 319.972656 455.8125 319.0625 455.957031 C 318.148438 456.101562 317.242188 456.269531 316.339844 456.464844 C 315.4375 456.660156 314.542969 456.882812 313.652344 457.128906 C 312.765625 457.375 311.882812 457.644531 311.007812 457.941406 C 310.304688 455.902344 309.472656 453.921875 308.507812 451.992188 C 307.542969 450.066406 306.453125 448.210938 305.242188 446.429688 C 304.03125 444.648438 302.707031 442.953125 301.273438 441.347656 C 299.835938 439.738281 298.300781 438.234375 296.664062 436.832031 C 295.027344 435.425781 293.308594 434.136719 291.5 432.964844 C 289.695312 431.789062 287.816406 430.738281 285.871094 429.8125 C 283.925781 428.886719 281.929688 428.089844 279.875 427.429688 C 277.824219 426.769531 275.738281 426.246094 273.617188 425.863281 C 271.5 425.476562 269.363281 425.234375 267.210938 425.132812 C 265.054688 425.03125 262.90625 425.074219 260.757812 425.257812 C 258.613281 425.441406 256.488281 425.765625 254.382812 426.234375 C 252.277344 426.699219 250.214844 427.300781 248.191406 428.042969 C 246.164062 428.78125 244.199219 429.652344 242.289062 430.652344 C 240.382812 431.652344 238.546875 432.773438 236.789062 434.019531 C 235.027344 435.261719 233.355469 436.617188 231.777344 438.082031 C 230.195312 439.546875 228.71875 441.109375 227.347656 442.769531 L 200.183594 475.03125 L 168.050781 432.429688 C 168.480469 431.746094 169.085938 431.253906 169.496094 430.554688 L 249.0625 292.554688 L 292.28125 277.417969 C 300.75 274.472656 309.441406 272.527344 318.359375 271.585938 C 327.277344 270.644531 336.183594 270.730469 345.082031 271.84375 L 394.84375 278.054688 L 354.007812 303.707031 C 352.40625 304.710938 350.859375 305.789062 349.359375 306.9375 C 347.859375 308.089844 346.417969 309.304688 345.03125 310.589844 C 343.644531 311.871094 342.320312 313.21875 341.058594 314.625 C 339.796875 316.03125 338.601562 317.492188 337.476562 319.007812 C 336.351562 320.523438 335.296875 322.089844 334.316406 323.703125 C 333.335938 325.320312 332.429688 326.976562 331.601562 328.675781 C 330.777344 330.371094 330.027344 332.105469 329.363281 333.875 C 328.695312 335.640625 328.109375 337.433594 327.609375 339.257812 C 327.109375 341.078125 326.695312 342.921875 326.363281 344.78125 C 326.035156 346.640625 325.792969 348.511719 325.636719 350.394531 C 325.480469 352.277344 325.410156 354.164062 325.429688 356.050781 C 325.449219 357.941406 325.554688 359.824219 325.746094 361.707031 C 325.941406 363.585938 326.21875 365.449219 326.585938 367.304688 C 326.953125 369.15625 327.402344 370.992188 327.9375 372.800781 C 328.476562 374.613281 329.09375 376.398438 329.796875 378.152344 C 330.496094 379.90625 331.277344 381.625 332.136719 383.304688 C 333 384.988281 333.933594 386.625 334.949219 388.21875 C 335.960938 389.816406 337.042969 391.359375 338.199219 392.855469 C 339.355469 394.347656 340.578125 395.785156 341.867188 397.167969 C 343.15625 398.550781 344.507812 399.867188 345.917969 401.125 C 347.328125 402.378906 348.796875 403.566406 350.316406 404.6875 C 351.839844 405.808594 353.40625 406.855469 355.027344 407.828125 C 356.644531 408.804688 358.304688 409.703125 360.007812 410.523438 C 361.707031 411.34375 363.445312 412.082031 365.214844 412.742188 C 366.984375 413.402344 368.78125 413.980469 370.605469 414.472656 C 372.429688 414.964844 374.273438 415.375 376.132812 415.695312 C 377.996094 416.019531 379.867188 416.253906 381.75 416.402344 C 383.632812 416.550781 385.519531 416.613281 387.410156 416.585938 C 389.300781 416.558594 391.183594 416.445312 393.0625 416.246094 C 394.941406 416.046875 396.804688 415.757812 398.65625 415.382812 C 400.507812 415.011719 402.339844 414.550781 404.148438 414.007812 C 405.957031 413.464844 407.738281 412.839844 409.492188 412.128906 L 512.578125 370.277344 L 649.039062 487.820312 C 649.457031 488.199219 649.851562 488.601562 650.230469 489.023438 C 650.605469 489.445312 650.964844 489.882812 651.296875 490.339844 C 651.632812 490.792969 651.945312 491.265625 652.234375 491.753906 C 652.519531 492.238281 652.785156 492.738281 653.023438 493.25 C 653.265625 493.761719 653.480469 494.285156 653.667969 494.816406 C 653.855469 495.351562 654.019531 495.890625 654.152344 496.441406 C 654.289062 496.988281 654.398438 497.542969 654.480469 498.101562 C 654.558594 498.664062 654.613281 499.226562 654.640625 499.789062 C 654.667969 500.355469 654.667969 500.917969 654.636719 501.484375 C 654.609375 502.050781 654.550781 502.609375 654.46875 503.171875 C 654.386719 503.730469 654.273438 504.28125 654.136719 504.832031 C 654 505.378906 653.832031 505.921875 653.644531 506.453125 C 653.453125 506.984375 653.234375 507.507812 652.996094 508.019531 C 652.753906 508.527344 652.488281 509.027344 652.195312 509.511719 C 651.90625 509.996094 651.59375 510.46875 651.253906 510.921875 C 650.917969 511.375 650.5625 511.8125 650.183594 512.234375 Z M 673.816406 468.136719 C 672.65625 466.679688 671.414062 465.296875 670.085938 463.992188 L 525.921875 339.875 C 524.816406 338.921875 523.601562 338.136719 522.277344 337.519531 C 520.957031 336.902344 519.574219 336.472656 518.132812 336.238281 C 516.691406 336 515.246094 335.964844 513.796875 336.125 C 512.347656 336.285156 510.945312 336.640625 509.59375 337.1875 L 397.578125 382.699219 C 396.734375 383.039062 395.878906 383.34375 395.007812 383.609375 C 394.140625 383.871094 393.257812 384.097656 392.367188 384.277344 C 391.476562 384.460938 390.582031 384.601562 389.675781 384.699219 C 388.773438 384.800781 387.867188 384.855469 386.957031 384.871094 C 386.050781 384.886719 385.140625 384.859375 384.234375 384.789062 C 383.328125 384.71875 382.425781 384.609375 381.53125 384.453125 C 380.632812 384.300781 379.746094 384.105469 378.871094 383.871094 C 377.992188 383.636719 377.125 383.359375 376.273438 383.042969 C 375.421875 382.726562 374.585938 382.371094 373.765625 381.980469 C 372.945312 381.585938 372.148438 381.15625 371.367188 380.6875 C 370.585938 380.21875 369.832031 379.714844 369.097656 379.179688 C 368.367188 378.640625 367.660156 378.070312 366.980469 377.464844 C 366.300781 376.863281 365.648438 376.226562 365.027344 375.5625 C 364.40625 374.898438 363.820312 374.210938 363.261719 373.492188 C 362.707031 372.773438 362.183594 372.027344 361.695312 371.261719 C 361.207031 370.492188 360.757812 369.707031 360.34375 368.898438 C 359.925781 368.085938 359.550781 367.261719 359.214844 366.417969 C 358.875 365.574219 358.578125 364.714844 358.320312 363.84375 C 358.0625 362.972656 357.84375 362.089844 357.667969 361.199219 C 357.492188 360.304688 357.355469 359.40625 357.265625 358.503906 C 357.171875 357.597656 357.121094 356.691406 357.113281 355.785156 C 357.101562 354.875 357.136719 353.96875 357.210938 353.0625 C 357.289062 352.15625 357.40625 351.253906 357.566406 350.359375 C 357.722656 349.464844 357.925781 348.578125 358.167969 347.703125 C 358.40625 346.824219 358.6875 345.960938 359.011719 345.113281 C 359.332031 344.261719 359.691406 343.429688 360.09375 342.609375 C 360.492188 341.792969 360.925781 340.996094 361.402344 340.222656 C 361.875 339.445312 362.382812 338.691406 362.925781 337.964844 C 363.46875 337.234375 364.042969 336.53125 364.652344 335.855469 C 365.261719 335.179688 365.898438 334.535156 366.566406 333.917969 C 367.234375 333.300781 367.929688 332.71875 368.652344 332.164062 C 369.375 331.613281 370.121094 331.097656 370.890625 330.613281 L 441.847656 286.136719 C 446.484375 283.226562 451.300781 280.65625 456.296875 278.421875 C 461.292969 276.1875 466.421875 274.3125 471.683594 272.800781 C 476.945312 271.285156 482.285156 270.144531 487.707031 269.382812 C 493.125 268.617188 498.574219 268.234375 504.046875 268.238281 L 556.464844 268.238281 C 563.90625 268.230469 571.28125 268.929688 578.585938 270.335938 C 585.894531 271.742188 593 273.828125 599.910156 276.589844 L 652.105469 297.480469 L 718.371094 412.257812 Z M 798.652344 403.332031 C 798.113281 405.367188 797.199219 407.222656 795.917969 408.894531 C 794.632812 410.566406 793.078125 411.925781 791.25 412.972656 L 778.222656 420.484375 C 777.773438 420.746094 777.3125 420.984375 776.835938 421.199219 C 776.363281 421.414062 775.878906 421.605469 775.386719 421.769531 C 774.894531 421.9375 774.394531 422.082031 773.890625 422.199219 C 773.382812 422.316406 772.871094 422.410156 772.355469 422.476562 C 771.839844 422.546875 771.320312 422.589844 770.800781 422.605469 C 770.28125 422.621094 769.761719 422.613281 769.242188 422.578125 C 768.722656 422.546875 768.207031 422.488281 767.695312 422.402344 C 767.183594 422.316406 766.675781 422.207031 766.171875 422.074219 C 765.667969 421.9375 765.175781 421.777344 764.6875 421.597656 C 764.199219 421.414062 763.722656 421.207031 763.257812 420.976562 C 762.789062 420.746094 762.335938 420.492188 761.894531 420.21875 C 761.453125 419.945312 761.027344 419.648438 760.613281 419.332031 C 760.199219 419.015625 759.804688 418.679688 759.425781 418.324219 C 759.042969 417.96875 758.683594 417.59375 758.339844 417.203125 C 757.996094 416.8125 757.675781 416.40625 757.371094 415.980469 C 757.066406 415.558594 756.785156 415.121094 756.527344 414.671875 L 673.453125 270.808594 C 673.191406 270.359375 672.957031 269.898438 672.742188 269.421875 C 672.527344 268.949219 672.335938 268.464844 672.167969 267.972656 C 672 267.480469 671.859375 266.980469 671.738281 266.476562 C 671.621094 265.96875 671.527344 265.457031 671.460938 264.941406 C 671.390625 264.425781 671.351562 263.90625 671.332031 263.386719 C 671.316406 262.867188 671.324219 262.347656 671.359375 261.828125 C 671.394531 261.308594 671.453125 260.792969 671.535156 260.28125 C 671.621094 259.765625 671.730469 259.257812 671.867188 258.757812 C 672 258.253906 672.160156 257.757812 672.34375 257.273438 C 672.527344 256.785156 672.734375 256.308594 672.960938 255.84375 C 673.191406 255.375 673.445312 254.921875 673.71875 254.480469 C 673.996094 254.039062 674.289062 253.609375 674.605469 253.199219 C 674.921875 252.785156 675.257812 252.390625 675.613281 252.011719 C 675.972656 251.628906 676.34375 251.269531 676.734375 250.925781 C 677.125 250.582031 677.535156 250.257812 677.957031 249.957031 C 678.378906 249.652344 678.816406 249.371094 679.265625 249.113281 L 692.308594 241.582031 C 694.761719 240.152344 697.410156 239.4375 700.25 239.4375 C 701.65625 239.445312 703.039062 239.628906 704.394531 239.996094 C 706.429688 240.535156 708.28125 241.449219 709.949219 242.730469 C 711.617188 244.015625 712.976562 245.570312 714.019531 247.394531 L 797.0625 391.226562 C 798.128906 393.054688 798.800781 395.019531 799.074219 397.121094 C 799.351562 399.21875 799.210938 401.289062 798.652344 403.332031 Z M 798.652344 403.332031 "/></g></svg>