<svg width="20" height="20" viewBox="0 0 20 20" fill="none" xmlns="http://www.w3.org/2000/svg">
<path d="M17.7082 5.62501H5.62484V17.7083H7.77172H15.5613H17.7082V5.62501Z" fill="#FC8383"/>
<path d="M13.5415 10.4167C13.5415 11.4522 12.702 12.2917 11.6665 12.2917C10.631 12.2917 9.7915 11.4522 9.7915 10.4167C9.7915 9.38114 10.631 8.54167 11.6665 8.54167C12.702 8.54167 13.5415 9.38114 13.5415 10.4167Z" fill="#FC8383"/>
<path d="M14.3748 5.62501V2.29167H2.2915V14.375H5.62484M7.81902 17.5C8.27382 15.7003 9.82406 14.375 11.6665 14.375C13.5089 14.375 15.0592 15.7003 15.514 17.5M5.62484 5.62501H17.7082V17.7083H15.5613H7.77172H5.62484V5.62501ZM13.5415 10.4167C13.5415 11.4522 12.702 12.2917 11.6665 12.2917C10.631 12.2917 9.7915 11.4522 9.7915 10.4167C9.7915 9.38114 10.631 8.54167 11.6665 8.54167C12.702 8.54167 13.5415 9.38114 13.5415 10.4167Z" stroke="#113C7B" stroke-width="1.5" stroke-linecap="square"/>
</svg>
