<svg xmlns="http://www.w3.org/2000/svg" xmlns:xlink="http://www.w3.org/1999/xlink" width="1200" zoomAndPan="magnify" viewBox="0 0 900 899.99999" height="1200" preserveAspectRatio="xMidYMid meet" version="1.2"><defs><clipPath id="3b58240ee8"><path d="M 150 218.070312 L 390 218.070312 L 390 463 L 150 463 Z M 150 218.070312 "/></clipPath><clipPath id="1a3e9aad57"><path d="M 158 218.070312 L 295 218.070312 L 295 403 L 158 403 Z M 158 218.070312 "/></clipPath><clipPath id="a3c7f162ca"><path d="M 194 607 L 311 607 L 311 779.820312 L 194 779.820312 Z M 194 607 "/></clipPath><clipPath id="faf12ec93c"><path d="M 156 759 L 315 759 L 315 779.820312 L 156 779.820312 Z M 156 759 "/></clipPath><clipPath id="ed80c16eb2"><path d="M 355 581 L 748 581 L 748 779.820312 L 355 779.820312 Z M 355 581 "/></clipPath></defs><g id="2582624bd3"><g clip-rule="nonzero" clip-path="url(#3b58240ee8)"><path style=" stroke:none;fill-rule:nonzero;fill:#113c7b;fill-opacity:1;" d="M 389.28125 303.476562 C 381.453125 278.6875 365.597656 256.707031 344.523438 241.453125 C 327.5625 229.011719 307.59375 221.183594 286.816406 218.976562 C 286.316406 218.875 285.914062 218.773438 285.414062 218.773438 C 281.199219 218.273438 276.984375 218.070312 272.667969 218.070312 C 223.09375 218.070312 178.734375 247.578125 159.667969 293.339844 C 153.445312 308.191406 150.234375 323.949219 150.234375 340.40625 C 150.234375 407.945312 205.128906 462.941406 272.667969 462.941406 C 277.6875 462.941406 282.804688 462.640625 288.023438 461.835938 C 288.425781 461.835938 288.925781 461.835938 289.328125 461.738281 C 296.753906 460.734375 303.980469 459.128906 310.902344 456.820312 C 315.621094 455.214844 318.53125 450.296875 317.527344 445.378906 C 316.121094 438.054688 315.421875 430.625 315.421875 423.199219 C 315.421875 415.472656 316.222656 407.542969 317.726562 399.617188 C 321.742188 380.046875 330.675781 361.78125 343.519531 346.628906 C 354.558594 333.480469 368.609375 322.742188 383.964844 315.617188 C 388.578125 313.410156 390.789062 308.292969 389.28125 303.476562 Z M 328.265625 333.582031 C 326.558594 335.589844 324.851562 337.695312 323.246094 339.90625 C 311.707031 355.160156 303.378906 372.820312 299.0625 391.6875 L 299.0625 391.789062 C 298.660156 393.09375 298.359375 394.5 298.058594 395.804688 C 296.25 404.933594 295.347656 414.167969 295.347656 423.199219 C 295.347656 428.820312 295.75 434.441406 296.351562 440.058594 C 293.242188 440.863281 289.929688 441.464844 286.617188 441.867188 C 283.707031 442.269531 280.796875 442.570312 277.988281 442.667969 C 276.179688 442.871094 274.375 442.871094 272.667969 442.871094 C 216.269531 442.871094 170.304688 396.90625 170.304688 340.40625 C 170.304688 330.570312 171.609375 320.9375 174.417969 311.703125 C 175.421875 308.089844 176.628906 304.578125 178.132812 301.066406 C 194.089844 262.832031 231.222656 238.144531 272.667969 238.144531 C 276.382812 238.144531 279.792969 238.34375 283.40625 238.746094 C 285.113281 238.945312 286.617188 239.148438 288.324219 239.449219 L 288.425781 239.449219 C 300.667969 241.152344 312.410156 245.269531 323.148438 251.492188 C 326.460938 253.398438 329.570312 255.402344 332.679688 257.710938 C 348.035156 268.75 360.078125 284.105469 367.304688 301.566406 C 352.550781 309.796875 339.105469 320.734375 328.265625 333.582031 Z M 328.265625 333.582031 "/></g><g clip-rule="nonzero" clip-path="url(#1a3e9aad57)"><path style=" stroke:none;fill-rule:nonzero;fill:#113c7b;fill-opacity:1;" d="M 291.9375 235.304688 C 294.394531 232.484375 295.066406 228.527344 293.703125 225.046875 C 292.328125 221.5625 289.136719 219.136719 285.414062 218.742188 C 281.207031 218.300781 277.003906 218.082031 272.679688 218.082031 C 223.121094 218.082031 178.753906 247.605469 159.625 293.300781 C 157.648438 298.027344 159.546875 303.496094 164.042969 305.964844 L 188.832031 319.621094 C 189.222656 319.832031 189.484375 320.222656 189.53125 320.65625 L 193.296875 349.578125 C 194.097656 355.730469 197.511719 361.230469 202.679688 364.664062 L 216.789062 374.328125 L 223.324219 389.28125 C 226.765625 397.148438 234.433594 402.136719 242.972656 402.136719 C 243.183594 402.136719 243.394531 402.136719 243.59375 402.136719 C 252.386719 401.882812 260.042969 396.394531 263.105469 388.15625 L 276.242188 352.789062 C 279.382812 344.332031 276.863281 334.726562 269.949219 328.90625 L 254.875 316.210938 C 254.582031 315.96875 254.402344 315.597656 254.382812 315.207031 L 253.027344 280.605469 C 253.027344 280.242188 253.140625 279.902344 253.371094 279.628906 L 291.9375 235.3125 Z M 291.9375 235.304688 "/></g><path style=" stroke:none;fill-rule:nonzero;fill:#113c7b;fill-opacity:1;" d="M 389.324219 303.464844 C 381.503906 278.71875 365.578125 256.6875 344.484375 241.453125 C 340.359375 238.472656 334.707031 239.046875 331.265625 242.75 L 305.394531 270.527344 C 300.628906 275.605469 298.179688 282.492188 298.691406 289.40625 C 299.191406 296.328125 302.625 302.792969 308.113281 307.15625 L 317.105469 314.234375 C 318.109375 315.007812 318.75 316.128906 318.914062 317.375 L 320.730469 331.894531 C 321.542969 338.019531 324.601562 343.648438 329.359375 347.730469 C 331.1875 349.296875 333.503906 350.152344 335.894531 350.152344 C 336.152344 350.152344 336.425781 350.152344 336.695312 350.121094 C 339.363281 349.910156 341.832031 348.636719 343.558594 346.589844 C 354.589844 333.523438 368.570312 322.792969 383.992188 315.589844 C 388.558594 313.460938 390.828125 308.273438 389.3125 303.476562 Z M 389.324219 303.464844 "/><path style=" stroke:none;fill-rule:nonzero;fill:#113c7b;fill-opacity:1;" d="M 313.28125 389.25 C 309.808594 387.042969 305.335938 387.171875 301.992188 389.589844 L 290.007812 398.28125 C 282.472656 403.671875 277.976562 412.382812 277.976562 421.605469 L 277.976562 451.8125 C 277.976562 454.710938 279.230469 457.453125 281.398438 459.359375 C 283.246094 460.972656 285.59375 461.847656 288.011719 461.847656 C 288.453125 461.847656 288.894531 461.816406 289.347656 461.757812 C 296.753906 460.761719 303.988281 459.097656 310.863281 456.808594 C 315.640625 455.214844 318.492188 450.335938 317.546875 445.390625 C 316.132812 438.054688 315.421875 430.578125 315.421875 423.199219 C 315.421875 415.472656 316.203125 407.542969 317.738281 399.625 C 318.53125 395.582031 316.765625 391.46875 313.28125 389.238281 Z M 313.28125 389.25 "/><g clip-rule="nonzero" clip-path="url(#a3c7f162ca)"><path style=" stroke:none;fill-rule:nonzero;fill:#113c7b;fill-opacity:1;" d="M 300.667969 607.753906 L 204.925781 607.753906 C 199.40625 607.753906 194.890625 612.273438 194.890625 617.792969 L 194.890625 739.925781 C 194.890625 747.25 196.898438 754.074219 200.3125 759.996094 C 207.234375 772.039062 220.28125 780.066406 235.035156 780.066406 L 270.5625 780.066406 C 285.3125 780.066406 298.257812 772.039062 305.183594 760.097656 C 308.695312 754.175781 310.703125 747.25 310.703125 739.925781 L 310.703125 617.792969 C 310.703125 612.273438 306.1875 607.753906 300.667969 607.753906 Z M 235.035156 759.996094 C 223.996094 759.996094 214.964844 750.964844 214.964844 739.925781 L 214.964844 627.828125 L 290.632812 627.828125 L 290.632812 739.925781 C 290.632812 750.964844 281.601562 759.996094 270.5625 759.996094 Z M 235.035156 759.996094 "/></g><path style=" stroke:none;fill-rule:nonzero;fill:#113c7b;fill-opacity:1;" d="M 204.925781 629.03125 L 181.242188 629.03125 C 167.59375 629.03125 156.457031 640.171875 156.457031 653.820312 L 156.457031 702.191406 C 156.457031 715.839844 167.59375 726.980469 181.242188 726.980469 L 204.925781 726.980469 C 210.546875 726.980469 214.964844 722.464844 214.964844 716.945312 L 214.964844 639.066406 C 214.964844 633.546875 210.546875 629.03125 204.925781 629.03125 Z M 194.890625 706.90625 L 181.242188 706.90625 C 178.632812 706.90625 176.527344 704.800781 176.527344 702.191406 L 176.527344 653.820312 C 176.527344 651.210938 178.632812 649.101562 181.242188 649.101562 L 194.890625 649.101562 Z M 194.890625 706.90625 "/><g clip-rule="nonzero" clip-path="url(#faf12ec93c)"><path style=" stroke:none;fill-rule:nonzero;fill:#113c7b;fill-opacity:1;" d="M 304.429688 780.066406 L 166.492188 780.066406 C 160.953125 780.066406 156.457031 775.570312 156.457031 770.03125 C 156.457031 764.492188 160.953125 759.996094 166.492188 759.996094 L 304.421875 759.996094 C 309.960938 759.996094 314.457031 764.492188 314.457031 770.03125 C 314.457031 775.570312 309.960938 780.066406 304.421875 780.066406 Z M 304.429688 780.066406 "/></g><path style=" stroke:none;fill-rule:nonzero;fill:#113c7b;fill-opacity:1;" d="M 615.386719 676.902344 C 614.480469 683.125 608.261719 688.644531 602.039062 688.644531 C 599.527344 688.644531 597.523438 687.738281 596.117188 686.234375 C 595.011719 684.828125 594.410156 683.125 594.410156 681.117188 C 594.410156 680.714844 594.410156 680.214844 594.511719 679.710938 C 595.414062 673.488281 601.738281 667.96875 607.859375 667.96875 C 610.367188 667.96875 612.375 668.773438 613.78125 670.378906 C 615.183594 671.984375 615.785156 674.292969 615.386719 676.902344 Z M 615.386719 676.902344 "/><g clip-rule="nonzero" clip-path="url(#ed80c16eb2)"><path style=" stroke:none;fill-rule:nonzero;fill:#113c7b;fill-opacity:1;" d="M 741.734375 593.503906 C 736.015625 585.578125 727.183594 581.0625 717.347656 581.0625 L 533.796875 581.0625 C 520.847656 581.0625 509.308594 589.390625 505.292969 601.734375 L 452.910156 759.996094 L 365.597656 759.996094 C 359.976562 759.996094 355.5625 764.511719 355.5625 770.03125 C 355.5625 775.550781 359.976562 780.066406 365.597656 780.066406 L 686.035156 780.066406 C 690.351562 780.066406 694.164062 777.257812 695.46875 773.144531 L 745.949219 620.601562 C 748.960938 611.367188 747.453125 601.433594 741.734375 593.503906 Z M 635.257812 679.710938 C 632.949219 695.96875 618.296875 708.714844 602.039062 708.714844 C 593.707031 708.714844 586.179688 705.402344 580.964844 699.382812 C 575.746094 693.359375 573.4375 685.128906 574.640625 676.902344 C 577.050781 660.644531 591.601562 647.898438 607.859375 647.898438 C 616.289062 647.898438 623.714844 651.210938 628.933594 657.230469 C 634.152344 663.253906 636.460938 671.480469 635.257812 679.710938 Z M 635.257812 679.710938 "/></g><path style=" stroke:none;fill-rule:nonzero;fill:#113c7b;fill-opacity:1;" d="M 297.949219 584.261719 C 295.960938 584.261719 293.964844 583.671875 292.207031 582.445312 C 287.660156 579.273438 286.566406 573.011719 289.738281 568.464844 C 311.296875 537.648438 346.589844 519.25 384.152344 519.25 L 507.191406 519.25 C 532.089844 519.25 555.8125 527.121094 575.792969 542.003906 C 580.230469 545.3125 581.152344 551.597656 577.84375 556.042969 C 574.53125 560.476562 568.257812 561.421875 563.800781 558.089844 C 547.3125 545.804688 527.742188 539.3125 507.191406 539.3125 L 384.152344 539.3125 C 353.132812 539.3125 323.980469 554.507812 306.175781 579.957031 C 304.230469 582.746094 301.109375 584.242188 297.949219 584.242188 Z M 297.949219 584.261719 "/><path style=" stroke:none;fill-rule:nonzero;fill:#113c7b;fill-opacity:1;" d="M 445.683594 321.539062 C 385.570312 321.539062 336.796875 370.414062 336.796875 430.425781 C 336.796875 467.054688 354.960938 499.570312 382.757812 519.242188 L 382.960938 519.242188 C 399.316406 530.984375 418.785156 538.207031 440.0625 539.3125 C 441.96875 539.414062 443.777344 539.414062 445.683594 539.414062 C 447.589844 539.414062 449.394531 539.414062 451.300781 539.3125 C 472.578125 538.207031 492.246094 530.984375 508.605469 519.339844 C 536.40625 499.570312 554.570312 467.054688 554.570312 430.425781 C 554.570312 370.414062 505.695312 321.539062 445.683594 321.539062 Z M 450.199219 519.242188 C 448.691406 519.339844 447.1875 519.339844 445.683594 519.339844 C 444.175781 519.339844 442.671875 519.339844 441.167969 519.242188 C 394.300781 516.832031 356.867188 477.894531 356.867188 430.425781 C 356.867188 381.453125 396.707031 341.609375 445.683594 341.609375 C 494.65625 341.609375 534.496094 381.453125 534.496094 430.425781 C 534.496094 477.894531 497.066406 516.832031 450.199219 519.242188 Z M 450.199219 519.242188 "/><path style=" stroke:none;fill-rule:nonzero;fill:#113c7b;fill-opacity:1;" d="M 437.453125 733.753906 L 344.203125 733.753906 C 341.109375 733.753906 338.179688 732.328125 336.285156 729.890625 C 334.386719 727.449219 333.714844 724.257812 334.46875 721.269531 L 355.824219 636.597656 C 357.179688 631.21875 362.667969 627.976562 368.007812 629.324219 C 373.386719 630.675781 376.636719 636.136719 375.28125 641.503906 L 357.078125 713.683594 L 437.445312 713.683594 C 442.984375 713.683594 447.480469 718.179688 447.480469 723.71875 C 447.480469 729.257812 442.984375 733.753906 437.445312 733.753906 Z M 437.453125 733.753906 "/><path style=" stroke:none;fill-rule:nonzero;fill:#113c7b;fill-opacity:1;" d="M 662.59375 259.609375 C 636.824219 259.609375 615.9375 238.722656 615.9375 212.953125 C 615.9375 187.1875 636.824219 166.300781 662.59375 166.300781 C 688.359375 166.300781 709.25 187.1875 709.25 212.953125 C 709.25 238.722656 688.359375 259.609375 662.59375 259.609375 Z M 653.988281 125.015625 C 602.210938 129.910156 566.75 180.082031 575.785156 231.304688 C 584.960938 283.328125 632.929688 299.34375 656.738281 357.75 C 658.882812 363.007812 666.292969 363.039062 668.4375 357.773438 C 694.828125 293 750.9375 280.355469 750.9375 212.953125 C 750.9375 161.324219 706.648438 120.035156 653.988281 125.015625 "/></g></svg>