<svg xmlns="http://www.w3.org/2000/svg" xmlns:xlink="http://www.w3.org/1999/xlink" width="1200" zoomAndPan="magnify" viewBox="0 0 900 899.99999" height="1200" preserveAspectRatio="xMidYMid meet" version="1.2"><defs><clipPath id="bdafdfe84b"><path d="M 629 20.296875 L 879.796875 20.296875 L 879.796875 270 L 629 270 Z M 629 20.296875 "/></clipPath><clipPath id="a3d415c899"><path d="M 20.296875 629 L 271 629 L 271 879 L 20.296875 879 Z M 20.296875 629 "/></clipPath><clipPath id="e5495a0dc5"><path d="M 62 20.296875 L 575 20.296875 L 575 579 L 62 579 Z M 62 20.296875 "/></clipPath></defs><g id="533e6cfded"><path style=" stroke:none;fill-rule:nonzero;fill:#113c7b;fill-opacity:1;" d="M 602.226562 297.078125 L 339.285156 297.078125 C 337.925781 297.078125 336.570312 297.144531 335.214844 297.277344 C 333.863281 297.410156 332.519531 297.609375 331.1875 297.875 C 329.851562 298.140625 328.535156 298.46875 327.234375 298.863281 C 325.933594 299.257812 324.65625 299.71875 323.398438 300.238281 C 322.140625 300.757812 320.914062 301.339844 319.714844 301.980469 C 318.515625 302.621094 317.351562 303.320312 316.21875 304.074219 C 315.089844 304.828125 314 305.636719 312.949219 306.5 C 311.898438 307.363281 310.890625 308.277344 309.929688 309.238281 C 308.96875 310.199219 308.054688 311.203125 307.191406 312.257812 C 306.332031 313.308594 305.519531 314.398438 304.765625 315.527344 C 304.011719 316.660156 303.3125 317.824219 302.671875 319.023438 C 302.03125 320.222656 301.449219 321.449219 300.929688 322.707031 C 300.410156 323.960938 299.953125 325.242188 299.558594 326.542969 C 299.160156 327.84375 298.832031 329.160156 298.566406 330.496094 C 298.300781 331.828125 298.101562 333.171875 297.96875 334.523438 C 297.835938 335.878906 297.769531 337.234375 297.769531 338.59375 L 297.769531 587.699219 C 297.769531 589.058594 297.835938 590.414062 297.96875 591.765625 C 298.101562 593.121094 298.300781 594.464844 298.566406 595.796875 C 298.832031 597.128906 299.160156 598.449219 299.554688 599.75 C 299.953125 601.050781 300.410156 602.328125 300.929688 603.585938 C 301.449219 604.839844 302.03125 606.070312 302.671875 607.269531 C 303.3125 608.46875 304.011719 609.632812 304.765625 610.761719 C 305.519531 611.894531 306.332031 612.984375 307.191406 614.035156 C 308.054688 615.085938 308.96875 616.09375 309.929688 617.054688 C 310.890625 618.015625 311.898438 618.929688 312.949219 619.789062 C 314 620.652344 315.089844 621.460938 316.21875 622.21875 C 317.351562 622.972656 318.515625 623.671875 319.714844 624.3125 C 320.914062 624.953125 322.140625 625.535156 323.398438 626.054688 C 324.65625 626.574219 325.933594 627.03125 327.234375 627.425781 C 328.535156 627.820312 329.851562 628.152344 331.1875 628.417969 C 332.519531 628.683594 333.863281 628.882812 335.214844 629.015625 C 336.570312 629.148438 337.925781 629.214844 339.285156 629.214844 L 560.710938 629.214844 C 562.546875 629.214844 564.3125 628.863281 566.007812 628.160156 C 567.703125 627.457031 569.199219 626.457031 570.496094 625.160156 L 639.691406 555.964844 C 640.988281 554.667969 641.988281 553.171875 642.691406 551.476562 C 643.394531 549.78125 643.746094 548.015625 643.746094 546.179688 L 643.746094 338.59375 C 643.746094 337.234375 643.679688 335.878906 643.546875 334.523438 C 643.414062 333.171875 643.214844 331.828125 642.949219 330.496094 C 642.683594 329.160156 642.351562 327.84375 641.957031 326.542969 C 641.5625 325.242188 641.105469 323.960938 640.585938 322.707031 C 640.066406 321.449219 639.484375 320.222656 638.84375 319.023438 C 638.203125 317.824219 637.503906 316.660156 636.75 315.527344 C 635.992188 314.398438 635.183594 313.308594 634.320312 312.257812 C 633.460938 311.203125 632.546875 310.199219 631.585938 309.238281 C 630.625 308.277344 629.617188 307.363281 628.566406 306.5 C 627.515625 305.636719 626.425781 304.828125 625.292969 304.074219 C 624.164062 303.320312 623 302.621094 621.800781 301.980469 C 620.601562 301.339844 619.371094 300.757812 618.117188 300.238281 C 616.859375 299.71875 615.582031 299.257812 614.28125 298.863281 C 612.980469 298.46875 611.660156 298.140625 610.328125 297.875 C 608.996094 297.609375 607.652344 297.410156 606.296875 297.277344 C 604.945312 297.144531 603.589844 297.078125 602.226562 297.078125 Z M 574.550781 581.96875 L 574.550781 560.019531 L 596.5 560.019531 Z M 616.066406 532.339844 L 560.710938 532.339844 C 559.800781 532.339844 558.902344 532.429688 558.011719 532.605469 C 557.121094 532.785156 556.253906 533.046875 555.414062 533.394531 C 554.574219 533.742188 553.777344 534.167969 553.023438 534.671875 C 552.265625 535.179688 551.566406 535.753906 550.925781 536.394531 C 550.28125 537.035156 549.710938 537.734375 549.203125 538.492188 C 548.699219 539.246094 548.273438 540.042969 547.925781 540.882812 C 547.578125 541.722656 547.316406 542.589844 547.136719 543.480469 C 546.960938 544.371094 546.871094 545.273438 546.871094 546.179688 L 546.871094 601.535156 L 339.285156 601.535156 C 338.378906 601.535156 337.476562 601.449219 336.585938 601.269531 C 335.695312 601.09375 334.828125 600.832031 333.988281 600.484375 C 333.152344 600.136719 332.351562 599.710938 331.597656 599.203125 C 330.84375 598.699219 330.144531 598.125 329.5 597.484375 C 328.859375 596.839844 328.285156 596.140625 327.78125 595.386719 C 327.273438 594.628906 326.847656 593.832031 326.5 592.992188 C 326.152344 592.152344 325.890625 591.289062 325.714844 590.398438 C 325.535156 589.507812 325.445312 588.605469 325.445312 587.699219 L 325.445312 380.113281 L 616.066406 380.113281 Z M 616.066406 352.433594 L 325.445312 352.433594 L 325.445312 338.59375 C 325.445312 337.6875 325.535156 336.785156 325.714844 335.894531 C 325.890625 335.003906 326.152344 334.136719 326.5 333.296875 C 326.847656 332.457031 327.273438 331.660156 327.78125 330.90625 C 328.285156 330.148438 328.859375 329.449219 329.5 328.808594 C 330.144531 328.164062 330.84375 327.59375 331.597656 327.085938 C 332.351562 326.582031 333.152344 326.15625 333.988281 325.808594 C 334.828125 325.460938 335.695312 325.199219 336.585938 325.019531 C 337.476562 324.84375 338.378906 324.753906 339.285156 324.753906 L 602.226562 324.753906 C 603.136719 324.753906 604.035156 324.84375 604.929688 325.019531 C 605.820312 325.199219 606.683594 325.460938 607.523438 325.808594 C 608.363281 326.15625 609.160156 326.582031 609.917969 327.085938 C 610.671875 327.59375 611.371094 328.164062 612.015625 328.808594 C 612.65625 329.449219 613.230469 330.148438 613.734375 330.90625 C 614.238281 331.660156 614.667969 332.457031 615.015625 333.296875 C 615.363281 334.136719 615.625 335.003906 615.800781 335.894531 C 615.980469 336.785156 616.066406 337.6875 616.066406 338.59375 Z M 616.066406 352.433594 "/><path style=" stroke:none;fill-rule:nonzero;fill:#113c7b;fill-opacity:1;" d="M 422.320312 421.628906 L 450 421.628906 L 450 449.308594 L 422.320312 449.308594 Z M 422.320312 421.628906 "/><path style=" stroke:none;fill-rule:nonzero;fill:#113c7b;fill-opacity:1;" d="M 491.515625 421.628906 L 519.195312 421.628906 L 519.195312 449.308594 L 491.515625 449.308594 Z M 491.515625 421.628906 "/><path style=" stroke:none;fill-rule:nonzero;fill:#113c7b;fill-opacity:1;" d="M 560.710938 421.628906 L 588.390625 421.628906 L 588.390625 449.308594 L 560.710938 449.308594 Z M 560.710938 421.628906 "/><path style=" stroke:none;fill-rule:nonzero;fill:#113c7b;fill-opacity:1;" d="M 422.320312 476.984375 L 450 476.984375 L 450 504.664062 L 422.320312 504.664062 Z M 422.320312 476.984375 "/><path style=" stroke:none;fill-rule:nonzero;fill:#113c7b;fill-opacity:1;" d="M 353.125 476.984375 L 380.804688 476.984375 L 380.804688 504.664062 L 353.125 504.664062 Z M 353.125 476.984375 "/><path style=" stroke:none;fill-rule:nonzero;fill:#113c7b;fill-opacity:1;" d="M 491.515625 476.984375 L 519.195312 476.984375 L 519.195312 504.664062 L 491.515625 504.664062 Z M 491.515625 476.984375 "/><path style=" stroke:none;fill-rule:nonzero;fill:#113c7b;fill-opacity:1;" d="M 422.320312 532.339844 L 450 532.339844 L 450 560.019531 L 422.320312 560.019531 Z M 422.320312 532.339844 "/><path style=" stroke:none;fill-rule:nonzero;fill:#113c7b;fill-opacity:1;" d="M 353.125 532.339844 L 380.804688 532.339844 L 380.804688 560.019531 L 353.125 560.019531 Z M 353.125 532.339844 "/><path style=" stroke:none;fill-rule:nonzero;fill:#113c7b;fill-opacity:1;" d="M 491.515625 532.339844 L 519.195312 532.339844 L 519.195312 560.019531 L 491.515625 560.019531 Z M 491.515625 532.339844 "/><path style=" stroke:none;fill-rule:nonzero;fill:#113c7b;fill-opacity:1;" d="M 560.710938 476.984375 L 588.390625 476.984375 L 588.390625 504.664062 L 560.710938 504.664062 Z M 560.710938 476.984375 "/><g clip-rule="nonzero" clip-path="url(#bdafdfe84b)"><path style=" stroke:none;fill-rule:nonzero;fill:#113c7b;fill-opacity:1;" d="M 754.457031 20.296875 C 752.417969 20.296875 750.382812 20.34375 748.347656 20.445312 C 746.3125 20.546875 744.277344 20.695312 742.25 20.894531 C 740.222656 21.09375 738.199219 21.34375 736.183594 21.644531 C 734.167969 21.941406 732.160156 22.292969 730.160156 22.6875 C 728.160156 23.085938 726.171875 23.53125 724.195312 24.027344 C 722.21875 24.523438 720.253906 25.066406 718.304688 25.660156 C 716.351562 26.25 714.417969 26.890625 712.5 27.578125 C 710.578125 28.261719 708.675781 28.996094 706.792969 29.777344 C 704.910156 30.554688 703.046875 31.382812 701.207031 32.253906 C 699.363281 33.125 697.542969 34.042969 695.746094 35.003906 C 693.945312 35.964844 692.175781 36.96875 690.425781 38.015625 C 688.675781 39.0625 686.957031 40.152344 685.261719 41.285156 C 683.566406 42.417969 681.898438 43.59375 680.261719 44.804688 C 678.625 46.019531 677.019531 47.273438 675.445312 48.566406 C 673.867188 49.859375 672.324219 51.191406 670.8125 52.5625 C 669.304688 53.929688 667.828125 55.335938 666.386719 56.777344 C 664.945312 58.21875 663.539062 59.691406 662.171875 61.203125 C 660.800781 62.714844 659.472656 64.257812 658.179688 65.832031 C 656.886719 67.410156 655.632812 69.015625 654.417969 70.652344 C 653.203125 72.289062 652.03125 73.957031 650.898438 75.648438 C 649.765625 77.34375 648.675781 79.066406 647.625 80.816406 C 646.578125 82.5625 645.574219 84.335938 644.613281 86.132812 C 643.652344 87.933594 642.738281 89.75 641.863281 91.59375 C 640.992188 93.4375 640.167969 95.300781 639.386719 97.183594 C 638.609375 99.066406 637.875 100.96875 637.1875 102.886719 C 636.5 104.804688 635.863281 106.742188 635.269531 108.691406 C 634.679688 110.640625 634.132812 112.605469 633.640625 114.582031 C 633.144531 116.5625 632.699219 118.550781 632.300781 120.546875 C 631.902344 122.546875 631.554688 124.554688 631.253906 126.570312 C 630.957031 128.589844 630.707031 130.609375 630.507812 132.640625 C 630.304688 134.667969 630.15625 136.699219 630.054688 138.734375 C 629.957031 140.773438 629.90625 142.808594 629.90625 144.847656 C 629.90625 146.886719 629.957031 148.921875 630.054688 150.957031 C 630.15625 152.996094 630.304688 155.027344 630.507812 157.054688 C 630.707031 159.085938 630.957031 161.105469 631.253906 163.121094 C 631.554688 165.140625 631.902344 167.148438 632.300781 169.144531 C 632.699219 171.144531 633.144531 173.132812 633.640625 175.109375 C 634.132812 177.089844 634.679688 179.050781 635.269531 181.003906 C 635.863281 182.953125 636.5 184.886719 637.1875 186.808594 C 637.875 188.726562 638.609375 190.628906 639.386719 192.511719 C 640.167969 194.394531 640.992188 196.257812 641.863281 198.101562 C 642.738281 199.941406 643.652344 201.761719 644.613281 203.558594 C 645.574219 205.359375 646.578125 207.132812 647.625 208.878906 C 648.675781 210.628906 649.765625 212.347656 650.898438 214.042969 C 652.03125 215.738281 653.203125 217.40625 654.417969 219.042969 C 655.632812 220.679688 656.886719 222.285156 658.179688 223.863281 C 659.472656 225.4375 660.800781 226.980469 662.171875 228.492188 C 663.539062 230 664.945312 231.476562 666.386719 232.917969 C 667.828125 234.359375 669.304688 235.765625 670.8125 237.132812 C 672.324219 238.503906 673.867188 239.832031 675.445312 241.125 C 677.019531 242.421875 678.625 243.671875 680.261719 244.886719 C 681.898438 246.101562 683.566406 247.277344 685.261719 248.40625 C 686.957031 249.539062 688.675781 250.628906 690.425781 251.679688 C 692.175781 252.726562 693.945312 253.730469 695.746094 254.691406 C 697.542969 255.652344 699.363281 256.570312 701.207031 257.441406 C 703.046875 258.3125 704.910156 259.136719 706.792969 259.917969 C 708.675781 260.699219 710.578125 261.429688 712.5 262.117188 C 714.417969 262.804688 716.351562 263.445312 718.304688 264.035156 C 720.253906 264.628906 722.21875 265.171875 724.195312 265.667969 C 726.171875 266.160156 728.160156 266.609375 730.160156 267.003906 C 732.160156 267.402344 734.167969 267.75 736.183594 268.050781 C 738.199219 268.351562 740.222656 268.597656 742.25 268.800781 C 744.277344 269 746.3125 269.148438 748.347656 269.25 C 750.382812 269.347656 752.417969 269.398438 754.457031 269.398438 C 756.496094 269.398438 758.535156 269.347656 760.570312 269.25 C 762.605469 269.148438 764.636719 269 766.667969 268.800781 C 768.695312 268.597656 770.71875 268.351562 772.734375 268.050781 C 774.75 267.75 776.757812 267.402344 778.757812 267.003906 C 780.757812 266.609375 782.746094 266.160156 784.722656 265.667969 C 786.699219 265.171875 788.664062 264.628906 790.613281 264.035156 C 792.5625 263.445312 794.5 262.804688 796.417969 262.117188 C 798.335938 261.429688 800.238281 260.699219 802.121094 259.917969 C 804.003906 259.136719 805.867188 258.3125 807.710938 257.441406 C 809.554688 256.570312 811.375 255.652344 813.171875 254.691406 C 814.96875 253.730469 816.742188 252.726562 818.492188 251.679688 C 820.238281 250.628906 821.960938 249.539062 823.65625 248.40625 C 825.351562 247.277344 827.015625 246.101562 828.652344 244.886719 C 830.289062 243.671875 831.898438 242.421875 833.472656 241.125 C 835.046875 239.832031 836.589844 238.503906 838.101562 237.132812 C 839.613281 235.765625 841.089844 234.359375 842.53125 232.917969 C 843.972656 231.476562 845.375 230 846.746094 228.492188 C 848.113281 226.980469 849.445312 225.4375 850.738281 223.863281 C 852.03125 222.285156 853.285156 220.679688 854.5 219.042969 C 855.714844 217.40625 856.886719 215.738281 858.019531 214.042969 C 859.152344 212.347656 860.242188 210.628906 861.289062 208.878906 C 862.335938 207.132812 863.34375 205.359375 864.304688 203.558594 C 865.265625 201.761719 866.179688 199.941406 867.050781 198.101562 C 867.921875 196.257812 868.75 194.394531 869.527344 192.511719 C 870.308594 190.628906 871.042969 188.726562 871.730469 186.808594 C 872.414062 184.886719 873.054688 182.953125 873.648438 181.003906 C 874.238281 179.050781 874.78125 177.089844 875.277344 175.109375 C 875.773438 173.132812 876.21875 171.144531 876.617188 169.144531 C 877.015625 167.148438 877.363281 165.140625 877.660156 163.121094 C 877.960938 161.105469 878.210938 159.085938 878.410156 157.054688 C 878.609375 155.027344 878.761719 152.996094 878.859375 150.957031 C 878.960938 148.921875 879.011719 146.886719 879.011719 144.847656 C 879.007812 142.808594 878.957031 140.773438 878.851562 138.738281 C 878.75 136.703125 878.597656 134.671875 878.398438 132.644531 C 878.195312 130.617188 877.945312 128.59375 877.644531 126.578125 C 877.34375 124.5625 876.992188 122.554688 876.59375 120.558594 C 876.195312 118.558594 875.746094 116.574219 875.25 114.597656 C 874.753906 112.621094 874.207031 110.65625 873.617188 108.707031 C 873.023438 106.757812 872.382812 104.824219 871.695312 102.90625 C 871.007812 100.988281 870.273438 99.085938 869.492188 97.203125 C 868.710938 95.324219 867.882812 93.460938 867.011719 91.617188 C 866.140625 89.777344 865.222656 87.957031 864.261719 86.160156 C 863.300781 84.363281 862.296875 82.59375 861.246094 80.84375 C 860.199219 79.097656 859.109375 77.375 857.976562 75.683594 C 856.84375 73.988281 855.671875 72.324219 854.457031 70.6875 C 853.242188 69.050781 851.988281 67.445312 850.695312 65.871094 C 849.402344 64.292969 848.070312 62.753906 846.703125 61.242188 C 845.335938 59.734375 843.929688 58.257812 842.488281 56.816406 C 841.046875 55.375 839.574219 53.972656 838.0625 52.601562 C 836.554688 51.234375 835.011719 49.902344 833.4375 48.609375 C 831.859375 47.316406 830.253906 46.0625 828.617188 44.847656 C 826.980469 43.636719 825.316406 42.460938 823.621094 41.328125 C 821.929688 40.195312 820.207031 39.105469 818.460938 38.058594 C 816.714844 37.007812 814.941406 36.003906 813.144531 35.042969 C 811.347656 34.082031 809.527344 33.164062 807.6875 32.292969 C 805.84375 31.421875 803.984375 30.59375 802.101562 29.8125 C 800.21875 29.03125 798.316406 28.296875 796.398438 27.609375 C 794.480469 26.921875 792.546875 26.28125 790.597656 25.691406 C 788.648438 25.097656 786.6875 24.550781 784.710938 24.054688 C 782.734375 23.558594 780.746094 23.109375 778.746094 22.710938 C 776.75 22.3125 774.742188 21.960938 772.726562 21.660156 C 770.710938 21.359375 768.691406 21.109375 766.660156 20.90625 C 764.632812 20.707031 762.601562 20.554688 760.566406 20.453125 C 758.53125 20.351562 756.496094 20.296875 754.457031 20.296875 Z M 754.457031 241.722656 C 752.871094 241.722656 751.289062 241.683594 749.703125 241.605469 C 748.121094 241.527344 746.539062 241.410156 744.964844 241.253906 C 743.386719 241.097656 741.8125 240.90625 740.242188 240.671875 C 738.675781 240.441406 737.113281 240.167969 735.558594 239.859375 C 734.003906 239.550781 732.457031 239.203125 730.917969 238.816406 C 729.382812 238.433594 727.855469 238.007812 726.335938 237.550781 C 724.820312 237.089844 723.316406 236.59375 721.824219 236.058594 C 720.328125 235.523438 718.851562 234.953125 717.386719 234.347656 C 715.921875 233.738281 714.472656 233.097656 713.039062 232.417969 C 711.605469 231.742188 710.191406 231.03125 708.792969 230.28125 C 707.394531 229.535156 706.015625 228.753906 704.65625 227.9375 C 703.296875 227.125 701.957031 226.277344 700.636719 225.394531 C 699.320312 224.515625 698.023438 223.601562 696.75 222.65625 C 695.476562 221.710938 694.226562 220.738281 693.003906 219.730469 C 691.777344 218.726562 690.578125 217.691406 689.402344 216.625 C 688.226562 215.5625 687.078125 214.46875 685.957031 213.347656 C 684.835938 212.226562 683.746094 211.078125 682.679688 209.902344 C 681.613281 208.730469 680.578125 207.527344 679.574219 206.304688 C 678.566406 205.078125 677.59375 203.828125 676.648438 202.554688 C 675.703125 201.28125 674.792969 199.984375 673.910156 198.667969 C 673.03125 197.347656 672.183594 196.011719 671.367188 194.648438 C 670.550781 193.289062 669.769531 191.910156 669.023438 190.511719 C 668.277344 189.113281 667.5625 187.699219 666.886719 186.265625 C 666.207031 184.832031 665.566406 183.382812 664.957031 181.917969 C 664.351562 180.453125 663.78125 178.976562 663.246094 177.484375 C 662.714844 175.988281 662.214844 174.484375 661.757812 172.96875 C 661.296875 171.449219 660.875 169.921875 660.488281 168.386719 C 660.101562 166.847656 659.753906 165.300781 659.445312 163.746094 C 659.136719 162.191406 658.867188 160.628906 658.632812 159.0625 C 658.402344 157.492188 658.207031 155.921875 658.050781 154.34375 C 657.894531 152.765625 657.777344 151.183594 657.703125 149.601562 C 657.625 148.015625 657.585938 146.433594 657.585938 144.847656 C 657.585938 143.261719 657.625 141.675781 657.703125 140.09375 C 657.777344 138.511719 657.894531 136.929688 658.050781 135.351562 C 658.207031 133.773438 658.402344 132.203125 658.632812 130.632812 C 658.867188 129.066406 659.136719 127.503906 659.445312 125.949219 C 659.753906 124.394531 660.101562 122.847656 660.488281 121.308594 C 660.871094 119.769531 661.296875 118.242188 661.757812 116.726562 C 662.214844 115.210938 662.714844 113.703125 663.246094 112.210938 C 663.78125 110.71875 664.351562 109.238281 664.957031 107.773438 C 665.566406 106.3125 666.207031 104.863281 666.886719 103.429688 C 667.5625 101.996094 668.277344 100.578125 669.023438 99.179688 C 669.769531 97.78125 670.550781 96.402344 671.367188 95.042969 C 672.183594 93.683594 673.03125 92.34375 673.910156 91.027344 C 674.792969 89.710938 675.703125 88.414062 676.648438 87.140625 C 677.59375 85.867188 678.566406 84.617188 679.574219 83.390625 C 680.578125 82.164062 681.613281 80.964844 682.679688 79.789062 C 683.746094 78.617188 684.835938 77.46875 685.957031 76.347656 C 687.078125 75.226562 688.226562 74.132812 689.402344 73.070312 C 690.578125 72.003906 691.777344 70.96875 693.003906 69.964844 C 694.226562 68.957031 695.476562 67.980469 696.75 67.039062 C 698.023438 66.09375 699.320312 65.179688 700.636719 64.300781 C 701.957031 63.417969 703.296875 62.570312 704.65625 61.757812 C 706.015625 60.941406 707.394531 60.160156 708.792969 59.414062 C 710.191406 58.664062 711.605469 57.953125 713.039062 57.273438 C 714.472656 56.597656 715.921875 55.953125 717.386719 55.347656 C 718.851562 54.742188 720.328125 54.171875 721.824219 53.636719 C 723.316406 53.101562 724.820312 52.605469 726.335938 52.144531 C 727.855469 51.683594 729.382812 51.261719 730.917969 50.875 C 732.457031 50.492188 734.003906 50.144531 735.558594 49.835938 C 737.113281 49.527344 738.675781 49.253906 740.242188 49.023438 C 741.8125 48.789062 743.386719 48.59375 744.964844 48.441406 C 746.539062 48.285156 748.121094 48.167969 749.703125 48.089844 C 751.289062 48.011719 752.871094 47.972656 754.457031 47.972656 C 756.042969 47.972656 757.628906 48.011719 759.210938 48.089844 C 760.796875 48.167969 762.375 48.285156 763.953125 48.441406 C 765.53125 48.59375 767.105469 48.789062 768.671875 49.023438 C 770.242188 49.253906 771.800781 49.527344 773.355469 49.835938 C 774.914062 50.144531 776.457031 50.492188 777.996094 50.875 C 779.535156 51.261719 781.0625 51.683594 782.578125 52.144531 C 784.097656 52.605469 785.601562 53.101562 787.09375 53.636719 C 788.585938 54.171875 790.066406 54.742188 791.53125 55.347656 C 792.996094 55.953125 794.445312 56.597656 795.875 57.273438 C 797.308594 57.953125 798.726562 58.664062 800.125 59.414062 C 801.523438 60.160156 802.902344 60.941406 804.261719 61.757812 C 805.621094 62.570312 806.960938 63.417969 808.277344 64.300781 C 809.597656 65.179688 810.890625 66.09375 812.164062 67.039062 C 813.4375 67.980469 814.6875 68.957031 815.914062 69.964844 C 817.140625 70.96875 818.339844 72.003906 819.515625 73.070312 C 820.6875 74.132812 821.835938 75.226562 822.957031 76.347656 C 824.078125 77.46875 825.171875 78.617188 826.238281 79.789062 C 827.300781 80.964844 828.335938 82.164062 829.34375 83.390625 C 830.347656 84.617188 831.324219 85.867188 832.269531 87.140625 C 833.210938 88.414062 834.125 89.710938 835.003906 91.027344 C 835.886719 92.34375 836.734375 93.683594 837.550781 95.042969 C 838.363281 96.402344 839.144531 97.78125 839.894531 99.179688 C 840.640625 100.578125 841.351562 101.996094 842.03125 103.429688 C 842.707031 104.863281 843.351562 106.3125 843.957031 107.773438 C 844.5625 109.238281 845.132812 110.71875 845.667969 112.210938 C 846.203125 113.703125 846.699219 115.210938 847.160156 116.726562 C 847.621094 118.242188 848.042969 119.769531 848.429688 121.308594 C 848.8125 122.847656 849.160156 124.394531 849.46875 125.949219 C 849.78125 127.503906 850.050781 129.066406 850.28125 130.632812 C 850.515625 132.203125 850.710938 133.773438 850.867188 135.351562 C 851.019531 136.929688 851.136719 138.511719 851.214844 140.09375 C 851.292969 141.675781 851.332031 143.261719 851.332031 144.847656 C 851.328125 146.433594 851.289062 148.015625 851.210938 149.597656 C 851.128906 151.183594 851.011719 152.761719 850.855469 154.339844 C 850.695312 155.914062 850.5 157.488281 850.265625 159.054688 C 850.03125 160.621094 849.761719 162.183594 849.449219 163.738281 C 849.140625 165.292969 848.789062 166.835938 848.402344 168.375 C 848.015625 169.910156 847.59375 171.4375 847.132812 172.953125 C 846.671875 174.46875 846.171875 175.972656 845.636719 177.464844 C 845.101562 178.957031 844.53125 180.4375 843.925781 181.898438 C 843.316406 183.363281 842.675781 184.8125 841.996094 186.242188 C 841.316406 187.675781 840.605469 189.089844 839.855469 190.488281 C 839.109375 191.886719 838.328125 193.265625 837.511719 194.625 C 836.695312 195.980469 835.847656 197.320312 834.96875 198.636719 C 834.085938 199.957031 833.171875 201.25 832.230469 202.523438 C 831.285156 203.796875 830.308594 205.042969 829.304688 206.269531 C 828.296875 207.496094 827.265625 208.695312 826.199219 209.867188 C 825.136719 211.042969 824.042969 212.191406 822.921875 213.3125 C 821.800781 214.429688 820.652344 215.523438 819.480469 216.589844 C 818.304688 217.652344 817.105469 218.6875 815.878906 219.695312 C 814.65625 220.699219 813.40625 221.675781 812.132812 222.617188 C 810.863281 223.5625 809.566406 224.476562 808.25 225.355469 C 806.929688 226.238281 805.59375 227.085938 804.234375 227.902344 C 802.875 228.714844 801.496094 229.496094 800.097656 230.246094 C 798.703125 230.992188 797.289062 231.707031 795.855469 232.382812 C 794.421875 233.0625 792.972656 233.707031 791.511719 234.3125 C 790.046875 234.921875 788.570312 235.492188 787.078125 236.027344 C 785.585938 236.5625 784.082031 237.058594 782.566406 237.523438 C 781.050781 237.984375 779.523438 238.40625 777.984375 238.792969 C 776.449219 239.179688 774.902344 239.527344 773.347656 239.839844 C 771.792969 240.148438 770.234375 240.421875 768.667969 240.65625 C 767.097656 240.890625 765.527344 241.085938 763.949219 241.242188 C 762.371094 241.398438 760.792969 241.519531 759.210938 241.597656 C 757.625 241.679688 756.042969 241.71875 754.457031 241.722656 Z M 754.457031 241.722656 "/></g><g clip-rule="nonzero" clip-path="url(#a3d415c899)"><path style=" stroke:none;fill-rule:nonzero;fill:#113c7b;fill-opacity:1;" d="M 145.539062 878.316406 C 147.578125 878.316406 149.613281 878.269531 151.652344 878.167969 C 153.6875 878.066406 155.71875 877.917969 157.746094 877.71875 C 159.777344 877.519531 161.796875 877.269531 163.816406 876.96875 C 165.832031 876.671875 167.839844 876.324219 169.839844 875.925781 C 171.835938 875.527344 173.824219 875.082031 175.800781 874.585938 C 177.78125 874.089844 179.742188 873.546875 181.695312 872.953125 C 183.644531 872.363281 185.582031 871.722656 187.5 871.035156 C 189.417969 870.351562 191.320312 869.617188 193.203125 868.835938 C 195.085938 868.058594 196.949219 867.230469 198.792969 866.359375 C 200.632812 865.488281 202.453125 864.570312 204.253906 863.609375 C 206.050781 862.648438 207.824219 861.644531 209.570312 860.597656 C 211.320312 859.550781 213.042969 858.460938 214.738281 857.328125 C 216.429688 856.195312 218.097656 855.019531 219.734375 853.808594 C 221.371094 852.59375 222.976562 851.339844 224.554688 850.046875 C 226.128906 848.753906 227.671875 847.421875 229.183594 846.054688 C 230.691406 844.683594 232.167969 843.277344 233.609375 841.835938 C 235.050781 840.394531 236.457031 838.921875 237.824219 837.410156 C 239.195312 835.898438 240.527344 834.355469 241.820312 832.78125 C 243.113281 831.207031 244.367188 829.597656 245.578125 827.960938 C 246.792969 826.324219 247.96875 824.660156 249.101562 822.964844 C 250.234375 821.269531 251.324219 819.546875 252.371094 817.796875 C 253.417969 816.050781 254.421875 814.277344 255.382812 812.480469 C 256.34375 810.683594 257.261719 808.863281 258.132812 807.019531 C 259.003906 805.175781 259.828125 803.3125 260.609375 801.429688 C 261.390625 799.546875 262.125 797.644531 262.808594 795.726562 C 263.496094 793.808594 264.136719 791.871094 264.726562 789.921875 C 265.320312 787.972656 265.863281 786.007812 266.359375 784.03125 C 266.851562 782.050781 267.300781 780.0625 267.699219 778.066406 C 268.09375 776.066406 268.445312 774.058594 268.742188 772.042969 C 269.042969 770.027344 269.292969 768.003906 269.492188 765.972656 C 269.691406 763.945312 269.839844 761.914062 269.941406 759.878906 C 270.039062 757.84375 270.089844 755.804688 270.089844 753.765625 C 270.089844 751.726562 270.039062 749.691406 269.941406 747.65625 C 269.839844 745.617188 269.691406 743.585938 269.492188 741.558594 C 269.292969 739.53125 269.042969 737.507812 268.742188 735.492188 C 268.445312 733.472656 268.09375 731.464844 267.699219 729.46875 C 267.300781 727.46875 266.851562 725.480469 266.359375 723.503906 C 265.863281 721.527344 265.320312 719.5625 264.726562 717.609375 C 264.136719 715.660156 263.496094 713.726562 262.808594 711.804688 C 262.125 709.886719 261.390625 707.984375 260.609375 706.101562 C 259.828125 704.21875 259.003906 702.355469 258.132812 700.511719 C 257.261719 698.671875 256.34375 696.851562 255.382812 695.054688 C 254.421875 693.253906 253.417969 691.480469 252.371094 689.734375 C 251.324219 687.984375 250.234375 686.265625 249.101562 684.570312 C 247.96875 682.875 246.792969 681.207031 245.578125 679.570312 C 244.367188 677.933594 243.113281 676.328125 241.820312 674.75 C 240.527344 673.175781 239.195312 671.632812 237.824219 670.121094 C 236.457031 668.613281 235.050781 667.136719 233.609375 665.695312 C 232.167969 664.253906 230.691406 662.847656 229.183594 661.480469 C 227.671875 660.109375 226.128906 658.78125 224.554688 657.488281 C 222.976562 656.195312 221.371094 654.941406 219.734375 653.726562 C 218.097656 652.511719 216.429688 651.335938 214.738281 650.207031 C 213.042969 649.074219 211.320312 647.984375 209.570312 646.933594 C 207.824219 645.886719 206.050781 644.882812 204.253906 643.921875 C 202.453125 642.960938 200.632812 642.042969 198.792969 641.171875 C 196.949219 640.300781 195.085938 639.476562 193.203125 638.695312 C 191.320312 637.914062 189.417969 637.183594 187.5 636.496094 C 185.582031 635.808594 183.644531 635.167969 181.695312 634.578125 C 179.742188 633.984375 177.78125 633.441406 175.804688 632.949219 C 173.824219 632.453125 171.835938 632.003906 169.839844 631.609375 C 167.839844 631.210938 165.832031 630.863281 163.816406 630.5625 C 161.796875 630.265625 159.777344 630.015625 157.746094 629.816406 C 155.71875 629.613281 153.6875 629.464844 151.652344 629.363281 C 149.613281 629.265625 147.578125 629.214844 145.539062 629.214844 C 143.5 629.214844 141.464844 629.265625 139.425781 629.363281 C 137.390625 629.464844 135.359375 629.613281 133.332031 629.8125 C 131.300781 630.015625 129.28125 630.265625 127.261719 630.5625 C 125.246094 630.863281 123.238281 631.210938 121.242188 631.609375 C 119.242188 632.003906 117.253906 632.453125 115.277344 632.949219 C 113.296875 633.441406 111.335938 633.984375 109.382812 634.578125 C 107.433594 635.167969 105.5 635.808594 103.578125 636.496094 C 101.660156 637.183594 99.757812 637.914062 97.875 638.695312 C 95.992188 639.476562 94.128906 640.300781 92.285156 641.171875 C 90.445312 642.042969 88.625 642.960938 86.824219 643.921875 C 85.027344 644.882812 83.253906 645.886719 81.507812 646.933594 C 79.757812 647.984375 78.035156 649.074219 76.34375 650.207031 C 74.648438 651.335938 72.980469 652.511719 71.34375 653.726562 C 69.707031 654.941406 68.101562 656.195312 66.523438 657.488281 C 64.949219 658.78125 63.40625 660.109375 61.894531 661.480469 C 60.386719 662.847656 58.910156 664.253906 57.46875 665.695312 C 56.027344 667.136719 54.621094 668.613281 53.253906 670.121094 C 51.882812 671.632812 50.550781 673.175781 49.257812 674.75 C 47.964844 676.328125 46.710938 677.933594 45.5 679.570312 C 44.285156 681.207031 43.109375 682.875 41.976562 684.570312 C 40.847656 686.265625 39.753906 687.984375 38.707031 689.734375 C 37.660156 691.480469 36.65625 693.253906 35.695312 695.054688 C 34.734375 696.851562 33.816406 698.671875 32.945312 700.511719 C 32.074219 702.355469 31.25 704.21875 30.46875 706.101562 C 29.6875 707.984375 28.953125 709.886719 28.269531 711.804688 C 27.582031 713.726562 26.941406 715.660156 26.351562 717.609375 C 25.757812 719.5625 25.214844 721.527344 24.71875 723.503906 C 24.226562 725.480469 23.777344 727.46875 23.378906 729.46875 C 22.984375 731.464844 22.632812 733.472656 22.335938 735.492188 C 22.035156 737.507812 21.785156 739.53125 21.585938 741.558594 C 21.386719 743.585938 21.238281 745.617188 21.136719 747.65625 C 21.039062 749.691406 20.988281 751.726562 20.988281 753.765625 C 20.988281 755.804688 21.042969 757.839844 21.144531 759.875 C 21.246094 761.910156 21.398438 763.941406 21.601562 765.96875 C 21.800781 767.996094 22.054688 770.019531 22.355469 772.035156 C 22.65625 774.050781 23.003906 776.058594 23.402344 778.054688 C 23.804688 780.054688 24.25 782.042969 24.746094 784.015625 C 25.242188 785.992188 25.789062 787.957031 26.382812 789.90625 C 26.972656 791.855469 27.613281 793.789062 28.300781 795.707031 C 28.992188 797.625 29.722656 799.527344 30.503906 801.410156 C 31.285156 803.289062 32.113281 805.152344 32.984375 806.996094 C 33.855469 808.835938 34.773438 810.65625 35.734375 812.453125 C 36.695312 814.25 37.703125 816.019531 38.75 817.769531 C 39.796875 819.515625 40.886719 821.238281 42.019531 822.929688 C 43.152344 824.625 44.328125 826.289062 45.539062 827.925781 C 46.753906 829.5625 48.007812 831.167969 49.300781 832.742188 C 50.59375 834.320312 51.925781 835.859375 53.292969 837.371094 C 54.664062 838.882812 56.066406 840.355469 57.507812 841.796875 C 58.949219 843.238281 60.425781 844.644531 61.933594 846.011719 C 63.445312 847.378906 64.988281 848.710938 66.5625 850.003906 C 68.136719 851.296875 69.742188 852.550781 71.378906 853.765625 C 73.015625 854.980469 74.679688 856.152344 76.375 857.285156 C 78.070312 858.417969 79.789062 859.507812 81.535156 860.554688 C 83.285156 861.605469 85.054688 862.609375 86.851562 863.570312 C 88.648438 864.53125 90.46875 865.449219 92.3125 866.320312 C 94.152344 867.191406 96.015625 868.019531 97.898438 868.800781 C 99.777344 869.582031 101.679688 870.316406 103.597656 871.003906 C 105.515625 871.691406 107.449219 872.332031 109.398438 872.921875 C 111.347656 873.515625 113.3125 874.0625 115.289062 874.558594 C 117.265625 875.054688 119.25 875.503906 121.25 875.902344 C 123.25 876.300781 125.253906 876.652344 127.269531 876.953125 C 129.285156 877.253906 131.308594 877.503906 133.335938 877.707031 C 135.363281 877.90625 137.394531 878.058594 139.429688 878.160156 C 141.464844 878.261719 143.5 878.316406 145.539062 878.316406 Z M 145.539062 656.894531 C 147.125 656.894531 148.710938 656.933594 150.292969 657.007812 C 151.875 657.085938 153.457031 657.203125 155.035156 657.359375 C 156.613281 657.515625 158.183594 657.707031 159.753906 657.941406 C 161.320312 658.175781 162.882812 658.445312 164.4375 658.753906 C 165.992188 659.0625 167.539062 659.410156 169.078125 659.796875 C 170.617188 660.179688 172.144531 660.605469 173.660156 661.0625 C 175.175781 661.523438 176.683594 662.023438 178.175781 662.554688 C 179.667969 663.089844 181.144531 663.660156 182.609375 664.265625 C 184.074219 664.875 185.523438 665.515625 186.957031 666.195312 C 188.390625 666.871094 189.808594 667.585938 191.203125 668.332031 C 192.601562 669.078125 193.980469 669.859375 195.34375 670.675781 C 196.703125 671.488281 198.039062 672.339844 199.359375 673.21875 C 200.675781 674.101562 201.972656 675.011719 203.246094 675.957031 C 204.519531 676.902344 205.769531 677.875 206.996094 678.882812 C 208.21875 679.886719 209.421875 680.921875 210.59375 681.988281 C 211.769531 683.050781 212.917969 684.144531 214.039062 685.265625 C 215.160156 686.386719 216.253906 687.535156 217.316406 688.710938 C 218.382812 689.882812 219.417969 691.085938 220.421875 692.308594 C 221.429688 693.535156 222.402344 694.785156 223.347656 696.058594 C 224.292969 697.332031 225.207031 698.628906 226.085938 699.945312 C 226.96875 701.265625 227.816406 702.601562 228.628906 703.964844 C 229.445312 705.324219 230.226562 706.703125 230.972656 708.101562 C 231.722656 709.5 232.433594 710.914062 233.113281 712.347656 C 233.789062 713.78125 234.433594 715.230469 235.039062 716.695312 C 235.644531 718.160156 236.214844 719.636719 236.75 721.128906 C 237.285156 722.625 237.78125 724.128906 238.242188 725.644531 C 238.703125 727.164062 239.125 728.691406 239.507812 730.226562 C 239.894531 731.765625 240.242188 733.3125 240.550781 734.867188 C 240.859375 736.421875 241.132812 737.984375 241.363281 739.550781 C 241.597656 741.121094 241.789062 742.691406 241.945312 744.269531 C 242.101562 745.847656 242.21875 747.429688 242.296875 749.011719 C 242.375 750.597656 242.414062 752.179688 242.414062 753.765625 C 242.414062 755.351562 242.375 756.9375 242.296875 758.519531 C 242.21875 760.101562 242.101562 761.683594 241.945312 763.261719 C 241.789062 764.839844 241.597656 766.414062 241.363281 767.980469 C 241.132812 769.546875 240.859375 771.109375 240.550781 772.664062 C 240.242188 774.21875 239.894531 775.765625 239.507812 777.304688 C 239.125 778.84375 238.703125 780.371094 238.242188 781.886719 C 237.78125 783.40625 237.285156 784.910156 236.75 786.402344 C 236.214844 787.894531 235.644531 789.375 235.039062 790.839844 C 234.433594 792.304688 233.789062 793.75 233.113281 795.183594 C 232.433594 796.617188 231.722656 798.035156 230.972656 799.433594 C 230.226562 800.832031 229.445312 802.210938 228.628906 803.570312 C 227.816406 804.929688 226.96875 806.269531 226.085938 807.585938 C 225.207031 808.90625 224.292969 810.199219 223.347656 811.472656 C 222.402344 812.746094 221.429688 813.996094 220.421875 815.222656 C 219.417969 816.449219 218.382812 817.648438 217.316406 818.824219 C 216.253906 819.996094 215.160156 821.144531 214.039062 822.265625 C 212.917969 823.386719 211.769531 824.480469 210.59375 825.542969 C 209.421875 826.609375 208.21875 827.644531 206.996094 828.652344 C 205.769531 829.65625 204.519531 830.632812 203.246094 831.574219 C 201.972656 832.519531 200.675781 833.433594 199.359375 834.3125 C 198.039062 835.195312 196.703125 836.042969 195.34375 836.855469 C 193.980469 837.671875 192.601562 838.453125 191.203125 839.199219 C 189.808594 839.949219 188.390625 840.660156 186.957031 841.339844 C 185.523438 842.015625 184.074219 842.660156 182.609375 843.265625 C 181.144531 843.871094 179.667969 844.441406 178.175781 844.976562 C 176.683594 845.511719 175.175781 846.007812 173.660156 846.46875 C 172.144531 846.929688 170.617188 847.351562 169.078125 847.738281 C 167.539062 848.121094 165.992188 848.46875 164.4375 848.777344 C 162.882812 849.085938 161.320312 849.359375 159.753906 849.589844 C 158.183594 849.824219 156.613281 850.019531 155.035156 850.171875 C 153.457031 850.328125 151.875 850.445312 150.292969 850.523438 C 148.710938 850.601562 147.125 850.640625 145.539062 850.640625 C 143.953125 850.640625 142.371094 850.601562 140.785156 850.523438 C 139.203125 850.445312 137.621094 850.328125 136.042969 850.171875 C 134.464844 850.019531 132.894531 849.824219 131.324219 849.589844 C 129.757812 849.359375 128.195312 849.085938 126.640625 848.777344 C 125.085938 848.46875 123.539062 848.121094 122 847.738281 C 120.464844 847.351562 118.933594 846.929688 117.417969 846.46875 C 115.902344 846.007812 114.394531 845.511719 112.902344 844.976562 C 111.410156 844.441406 109.933594 843.871094 108.46875 843.265625 C 107.003906 842.660156 105.554688 842.015625 104.121094 841.339844 C 102.6875 840.660156 101.273438 839.949219 99.875 839.199219 C 98.476562 838.453125 97.097656 837.671875 95.734375 836.855469 C 94.375 836.042969 93.039062 835.195312 91.71875 834.3125 C 90.402344 833.433594 89.105469 832.519531 87.832031 831.574219 C 86.558594 830.632812 85.308594 829.65625 84.082031 828.652344 C 82.859375 827.644531 81.65625 826.609375 80.484375 825.542969 C 79.308594 824.480469 78.160156 823.386719 77.039062 822.265625 C 75.917969 821.144531 74.824219 819.996094 73.761719 818.824219 C 72.695312 817.648438 71.660156 816.449219 70.65625 815.222656 C 69.648438 813.996094 68.675781 812.746094 67.730469 811.472656 C 66.785156 810.199219 65.871094 808.90625 64.992188 807.585938 C 64.109375 806.269531 63.261719 804.929688 62.449219 803.570312 C 61.632812 802.210938 60.851562 800.832031 60.105469 799.433594 C 59.355469 798.035156 58.644531 796.617188 57.964844 795.183594 C 57.289062 793.75 56.644531 792.304688 56.039062 790.839844 C 55.433594 789.375 54.863281 787.894531 54.328125 786.402344 C 53.792969 784.910156 53.296875 783.40625 52.835938 781.886719 C 52.375 780.371094 51.953125 778.84375 51.570312 777.304688 C 51.183594 775.765625 50.835938 774.21875 50.527344 772.664062 C 50.21875 771.109375 49.945312 769.546875 49.714844 767.980469 C 49.480469 766.414062 49.289062 764.839844 49.132812 763.261719 C 48.976562 761.683594 48.859375 760.101562 48.78125 758.519531 C 48.703125 756.9375 48.664062 755.351562 48.664062 753.765625 C 48.667969 752.179688 48.707031 750.597656 48.789062 749.015625 C 48.867188 747.433594 48.984375 745.851562 49.144531 744.273438 C 49.300781 742.699219 49.496094 741.125 49.730469 739.558594 C 49.964844 737.992188 50.238281 736.429688 50.546875 734.875 C 50.859375 733.320312 51.207031 731.777344 51.59375 730.238281 C 51.980469 728.703125 52.402344 727.175781 52.863281 725.660156 C 53.328125 724.144531 53.824219 722.640625 54.359375 721.148438 C 54.894531 719.65625 55.464844 718.175781 56.074219 716.714844 C 56.679688 715.25 57.324219 713.800781 58 712.371094 C 58.679688 710.9375 59.394531 709.523438 60.140625 708.125 C 60.890625 706.726562 61.671875 705.347656 62.484375 703.992188 C 63.300781 702.632812 64.148438 701.292969 65.03125 699.976562 C 65.910156 698.660156 66.824219 697.363281 67.769531 696.089844 C 68.710938 694.816406 69.6875 693.570312 70.691406 692.34375 C 71.699219 691.117188 72.734375 689.917969 73.796875 688.746094 C 74.863281 687.570312 75.953125 686.421875 77.074219 685.304688 C 78.195312 684.183594 79.34375 683.089844 80.519531 682.023438 C 81.691406 680.960938 82.890625 679.925781 84.117188 678.921875 C 85.339844 677.914062 86.589844 676.941406 87.863281 675.996094 C 89.136719 675.050781 90.429688 674.136719 91.75 673.257812 C 93.066406 672.375 94.402344 671.527344 95.761719 670.710938 C 97.121094 669.898438 98.5 669.117188 99.898438 668.367188 C 101.296875 667.621094 102.710938 666.90625 104.140625 666.230469 C 105.574219 665.550781 107.023438 664.90625 108.488281 664.300781 C 109.949219 663.691406 111.429688 663.121094 112.921875 662.585938 C 114.410156 662.050781 115.914062 661.554688 117.433594 661.09375 C 118.949219 660.628906 120.476562 660.207031 122.011719 659.820312 C 123.550781 659.433594 125.09375 659.085938 126.648438 658.773438 C 128.203125 658.464844 129.761719 658.191406 131.332031 657.957031 C 132.898438 657.722656 134.472656 657.527344 136.046875 657.371094 C 137.625 657.214844 139.203125 657.09375 140.789062 657.015625 C 142.371094 656.9375 143.953125 656.894531 145.539062 656.894531 Z M 145.539062 656.894531 "/></g><path style=" stroke:none;fill-rule:nonzero;fill:#113c7b;fill-opacity:1;" d="M 729.992188 164.414062 L 710.421875 144.847656 L 690.796875 164.414062 L 720.152344 193.769531 C 720.792969 194.410156 721.492188 194.984375 722.25 195.488281 C 723.003906 195.992188 723.800781 196.417969 724.640625 196.765625 C 725.480469 197.113281 726.34375 197.378906 727.234375 197.554688 C 728.128906 197.730469 729.027344 197.820312 729.933594 197.820312 C 730.84375 197.820312 731.742188 197.730469 732.632812 197.554688 C 733.527344 197.378906 734.390625 197.113281 735.230469 196.765625 C 736.070312 196.417969 736.867188 195.992188 737.621094 195.488281 C 738.378906 194.984375 739.078125 194.410156 739.71875 193.769531 L 818.117188 115.496094 L 798.492188 95.925781 Z M 729.992188 164.414062 "/><path style=" stroke:none;fill-rule:nonzero;fill:#113c7b;fill-opacity:1;" d="M 152.457031 781.445312 L 138.621094 781.445312 C 138.164062 781.445312 137.714844 781.398438 137.269531 781.3125 C 136.824219 781.222656 136.390625 781.089844 135.972656 780.917969 C 135.550781 780.742188 135.152344 780.53125 134.773438 780.277344 C 134.398438 780.027344 134.046875 779.738281 133.726562 779.417969 C 133.40625 779.097656 133.117188 778.746094 132.867188 778.367188 C 132.613281 777.992188 132.402344 777.59375 132.226562 777.171875 C 132.054688 776.753906 131.921875 776.320312 131.832031 775.875 C 131.746094 775.429688 131.699219 774.980469 131.699219 774.523438 L 104.023438 774.523438 C 104.023438 775.511719 104.066406 776.5 104.148438 777.480469 C 104.234375 778.464844 104.359375 779.445312 104.527344 780.417969 C 104.695312 781.390625 104.90625 782.355469 105.15625 783.308594 C 105.410156 784.265625 105.699219 785.207031 106.03125 786.136719 C 106.363281 787.066406 106.734375 787.980469 107.144531 788.878906 C 107.554688 789.777344 108 790.660156 108.488281 791.519531 C 108.972656 792.378906 109.492188 793.214844 110.050781 794.03125 C 110.605469 794.847656 111.199219 795.636719 111.824219 796.402344 C 112.445312 797.167969 113.101562 797.902344 113.792969 798.613281 C 114.480469 799.320312 115.195312 800 115.941406 800.648438 C 116.6875 801.292969 117.460938 801.90625 118.257812 802.488281 C 119.054688 803.070312 119.878906 803.617188 120.722656 804.128906 C 121.566406 804.636719 122.433594 805.113281 123.320312 805.546875 C 124.203125 805.984375 125.109375 806.382812 126.027344 806.742188 C 126.949219 807.101562 127.878906 807.421875 128.828125 807.703125 C 129.773438 807.980469 130.734375 808.21875 131.699219 808.417969 L 131.699219 822.960938 L 159.378906 822.960938 L 159.378906 808.417969 C 160.417969 808.203125 161.441406 807.945312 162.457031 807.636719 C 163.472656 807.328125 164.46875 806.976562 165.449219 806.578125 C 166.433594 806.179688 167.394531 805.734375 168.335938 805.246094 C 169.277344 804.761719 170.191406 804.230469 171.085938 803.660156 C 171.976562 803.089844 172.839844 802.476562 173.675781 801.824219 C 174.515625 801.175781 175.320312 800.488281 176.089844 799.761719 C 176.863281 799.039062 177.601562 798.277344 178.304688 797.484375 C 179.007812 796.695312 179.675781 795.871094 180.300781 795.015625 C 180.929688 794.164062 181.515625 793.28125 182.0625 792.375 C 182.609375 791.464844 183.113281 790.535156 183.574219 789.582031 C 184.035156 788.628906 184.453125 787.652344 184.824219 786.660156 C 185.195312 785.667969 185.523438 784.660156 185.800781 783.640625 C 186.082031 782.617188 186.3125 781.585938 186.496094 780.539062 C 186.679688 779.496094 186.816406 778.449219 186.90625 777.390625 C 186.992188 776.335938 187.03125 775.277344 187.023438 774.21875 C 187.011719 773.160156 186.953125 772.101562 186.847656 771.046875 C 186.742188 769.992188 186.585938 768.945312 186.382812 767.90625 C 186.179688 766.867188 185.929688 765.835938 185.632812 764.820312 C 185.335938 763.800781 184.992188 762.800781 184.605469 761.816406 C 184.214844 760.828125 183.78125 759.863281 183.304688 758.917969 C 182.824219 757.972656 182.304688 757.050781 181.742188 756.152344 C 181.179688 755.253906 180.578125 754.382812 179.933594 753.542969 C 179.292969 752.699219 178.613281 751.886719 177.894531 751.109375 C 177.175781 750.328125 176.425781 749.582031 175.640625 748.871094 C 174.855469 748.160156 174.039062 747.488281 173.191406 746.851562 C 172.34375 746.214844 171.46875 745.621094 170.566406 745.0625 C 169.664062 744.507812 168.738281 743.996094 167.789062 743.523438 C 166.835938 743.054688 165.867188 742.628906 164.878906 742.246094 C 163.890625 741.863281 162.886719 741.53125 161.867188 741.242188 C 160.847656 740.953125 159.816406 740.710938 158.777344 740.515625 C 157.734375 740.320312 156.6875 740.175781 155.632812 740.074219 C 154.574219 739.976562 153.519531 739.929688 152.457031 739.925781 L 138.621094 739.925781 C 138.164062 739.925781 137.714844 739.882812 137.269531 739.792969 C 136.824219 739.707031 136.390625 739.574219 135.972656 739.398438 C 135.550781 739.226562 135.152344 739.011719 134.773438 738.761719 C 134.398438 738.507812 134.046875 738.222656 133.726562 737.902344 C 133.40625 737.578125 133.117188 737.230469 132.867188 736.851562 C 132.613281 736.472656 132.402344 736.074219 132.226562 735.65625 C 132.054688 735.234375 131.921875 734.804688 131.832031 734.359375 C 131.746094 733.910156 131.699219 733.460938 131.699219 733.007812 C 131.699219 732.554688 131.746094 732.101562 131.832031 731.65625 C 131.921875 731.210938 132.054688 730.78125 132.226562 730.359375 C 132.402344 729.941406 132.613281 729.539062 132.867188 729.164062 C 133.117188 728.785156 133.40625 728.4375 133.726562 728.113281 C 134.046875 727.792969 134.398438 727.507812 134.773438 727.253906 C 135.152344 727 135.550781 726.789062 135.972656 726.613281 C 136.390625 726.441406 136.824219 726.308594 137.269531 726.222656 C 137.714844 726.132812 138.164062 726.089844 138.621094 726.089844 L 152.457031 726.089844 C 152.914062 726.089844 153.363281 726.132812 153.808594 726.222656 C 154.253906 726.308594 154.6875 726.441406 155.105469 726.613281 C 155.527344 726.789062 155.925781 727 156.304688 727.253906 C 156.679688 727.507812 157.03125 727.792969 157.351562 728.113281 C 157.671875 728.4375 157.960938 728.785156 158.210938 729.164062 C 158.464844 729.539062 158.675781 729.941406 158.851562 730.359375 C 159.023438 730.78125 159.15625 731.210938 159.246094 731.65625 C 159.332031 732.101562 159.378906 732.554688 159.378906 733.007812 L 187.054688 733.007812 C 187.054688 732.019531 187.015625 731.035156 186.929688 730.050781 C 186.84375 729.066406 186.71875 728.089844 186.550781 727.113281 C 186.382812 726.140625 186.171875 725.179688 185.921875 724.222656 C 185.667969 723.269531 185.378906 722.324219 185.046875 721.394531 C 184.714844 720.464844 184.34375 719.550781 183.933594 718.652344 C 183.523438 717.753906 183.078125 716.875 182.589844 716.015625 C 182.105469 715.152344 181.585938 714.316406 181.027344 713.5 C 180.472656 712.683594 179.878906 711.894531 179.253906 711.128906 C 178.632812 710.367188 177.976562 709.628906 177.289062 708.921875 C 176.597656 708.210938 175.882812 707.535156 175.136719 706.886719 C 174.390625 706.238281 173.617188 705.625 172.820312 705.042969 C 172.023438 704.460938 171.199219 703.914062 170.355469 703.40625 C 169.511719 702.894531 168.644531 702.421875 167.757812 701.984375 C 166.875 701.546875 165.96875 701.148438 165.050781 700.789062 C 164.132812 700.429688 163.199219 700.109375 162.25 699.832031 C 161.304688 699.550781 160.347656 699.3125 159.378906 699.117188 L 159.378906 684.570312 L 131.699219 684.570312 L 131.699219 699.117188 C 130.660156 699.328125 129.636719 699.589844 128.621094 699.894531 C 127.609375 700.203125 126.609375 700.554688 125.628906 700.957031 C 124.644531 701.355469 123.683594 701.796875 122.742188 702.285156 C 121.800781 702.773438 120.886719 703.300781 119.992188 703.871094 C 119.101562 704.445312 118.238281 705.054688 117.402344 705.707031 C 116.566406 706.355469 115.761719 707.046875 114.988281 707.769531 C 114.214844 708.496094 113.476562 709.253906 112.773438 710.046875 C 112.070312 710.839844 111.402344 711.664062 110.777344 712.515625 C 110.148438 713.371094 109.5625 714.25 109.015625 715.160156 C 108.46875 716.066406 107.964844 716.996094 107.503906 717.953125 C 107.042969 718.90625 106.625 719.878906 106.253906 720.871094 C 105.882812 721.863281 105.554688 722.871094 105.277344 723.894531 C 104.996094 724.914062 104.765625 725.949219 104.582031 726.992188 C 104.398438 728.035156 104.261719 729.085938 104.175781 730.140625 C 104.085938 731.195312 104.046875 732.253906 104.054688 733.316406 C 104.066406 734.375 104.125 735.429688 104.230469 736.484375 C 104.335938 737.539062 104.492188 738.585938 104.695312 739.628906 C 104.898438 740.667969 105.148438 741.695312 105.445312 742.714844 C 105.742188 743.730469 106.085938 744.730469 106.472656 745.71875 C 106.863281 746.703125 107.296875 747.667969 107.773438 748.613281 C 108.253906 749.558594 108.773438 750.480469 109.335938 751.378906 C 109.898438 752.277344 110.5 753.148438 111.144531 753.992188 C 111.785156 754.832031 112.464844 755.644531 113.183594 756.425781 C 113.902344 757.203125 114.652344 757.949219 115.4375 758.660156 C 116.222656 759.371094 117.039062 760.046875 117.886719 760.679688 C 118.734375 761.316406 119.609375 761.914062 120.511719 762.46875 C 121.414062 763.023438 122.339844 763.539062 123.292969 764.007812 C 124.242188 764.480469 125.210938 764.90625 126.199219 765.285156 C 127.1875 765.667969 128.191406 766.003906 129.210938 766.292969 C 130.230469 766.582031 131.261719 766.824219 132.300781 767.019531 C 133.34375 767.210938 134.390625 767.359375 135.449219 767.457031 C 136.503906 767.554688 137.558594 767.605469 138.621094 767.605469 L 152.457031 767.605469 C 152.914062 767.605469 153.363281 767.648438 153.808594 767.738281 C 154.253906 767.828125 154.6875 767.957031 155.105469 768.132812 C 155.527344 768.304688 155.925781 768.519531 156.304688 768.773438 C 156.679688 769.023438 157.03125 769.3125 157.351562 769.632812 C 157.671875 769.953125 157.960938 770.300781 158.210938 770.679688 C 158.464844 771.058594 158.675781 771.457031 158.851562 771.875 C 159.023438 772.296875 159.15625 772.730469 159.246094 773.175781 C 159.332031 773.621094 159.378906 774.070312 159.378906 774.523438 C 159.378906 774.980469 159.332031 775.429688 159.246094 775.875 C 159.15625 776.320312 159.023438 776.753906 158.851562 777.171875 C 158.675781 777.59375 158.464844 777.992188 158.210938 778.367188 C 157.960938 778.746094 157.671875 779.097656 157.351562 779.417969 C 157.03125 779.738281 156.679688 780.027344 156.304688 780.277344 C 155.925781 780.53125 155.527344 780.742188 155.105469 780.917969 C 154.6875 781.089844 154.253906 781.222656 153.808594 781.3125 C 153.363281 781.398438 152.914062 781.445312 152.457031 781.445312 Z M 152.457031 781.445312 "/><path style=" stroke:none;fill-rule:nonzero;fill:#113c7b;fill-opacity:1;" d="M 450 809.121094 C 440.933594 809.121094 431.648438 808.625 422.320312 807.890625 L 422.320312 781.445312 C 422.320312 780.21875 422.160156 779.015625 421.839844 777.832031 C 421.519531 776.652344 421.050781 775.53125 420.433594 774.472656 C 419.816406 773.414062 419.074219 772.457031 418.203125 771.597656 C 417.332031 770.734375 416.359375 770.003906 415.296875 769.402344 C 414.230469 768.796875 413.101562 768.34375 411.917969 768.042969 C 410.730469 767.738281 409.523438 767.59375 408.300781 767.609375 C 407.074219 767.625 405.875 767.800781 404.695312 768.136719 C 403.519531 768.472656 402.402344 768.953125 401.355469 769.585938 L 332.160156 811.101562 C 331.648438 811.40625 331.160156 811.746094 330.695312 812.113281 C 330.230469 812.484375 329.789062 812.882812 329.375 813.308594 C 328.960938 813.734375 328.574219 814.183594 328.21875 814.660156 C 327.863281 815.136719 327.539062 815.632812 327.246094 816.148438 C 326.953125 816.667969 326.695312 817.199219 326.46875 817.75 C 326.246094 818.300781 326.058594 818.863281 325.90625 819.4375 C 325.757812 820.015625 325.640625 820.597656 325.566406 821.1875 C 325.488281 821.773438 325.453125 822.367188 325.453125 822.960938 C 325.453125 823.554688 325.488281 824.148438 325.566406 824.738281 C 325.640625 825.328125 325.757812 825.910156 325.90625 826.484375 C 326.058594 827.058594 326.246094 827.621094 326.46875 828.171875 C 326.695312 828.722656 326.953125 829.257812 327.246094 829.773438 C 327.539062 830.292969 327.863281 830.789062 328.21875 831.265625 C 328.574219 831.738281 328.960938 832.191406 329.375 832.617188 C 329.789062 833.042969 330.230469 833.4375 330.695312 833.808594 C 331.160156 834.175781 331.648438 834.515625 332.160156 834.820312 L 401.355469 876.339844 C 402.402344 876.96875 403.519531 877.453125 404.695312 877.789062 C 405.875 878.121094 407.074219 878.296875 408.300781 878.3125 C 409.523438 878.332031 410.730469 878.1875 411.917969 877.882812 C 413.101562 877.578125 414.230469 877.125 415.296875 876.523438 C 416.359375 875.917969 417.332031 875.1875 418.203125 874.328125 C 419.074219 873.464844 419.816406 872.507812 420.433594 871.449219 C 421.050781 870.390625 421.519531 869.273438 421.839844 868.089844 C 422.160156 866.90625 422.320312 865.703125 422.320312 864.480469 L 422.320312 835.652344 C 431.648438 836.332031 440.921875 836.800781 450 836.800781 C 457.710938 836.796875 465.417969 836.5625 473.117188 836.101562 C 480.816406 835.636719 488.496094 834.945312 496.15625 834.023438 C 503.8125 833.101562 511.4375 831.953125 519.027344 830.574219 C 526.617188 829.199219 534.160156 827.59375 541.652344 825.769531 C 549.148438 823.941406 556.578125 821.890625 563.953125 819.621094 C 571.324219 817.351562 578.621094 814.863281 585.84375 812.15625 C 593.066406 809.449219 600.203125 806.527344 607.25 803.394531 C 614.300781 800.261719 621.25 796.921875 628.097656 793.375 C 634.949219 789.828125 641.6875 786.082031 648.3125 782.128906 C 654.9375 778.179688 661.441406 774.039062 667.816406 769.699219 C 674.195312 765.363281 680.441406 760.835938 686.546875 756.125 C 692.65625 751.417969 698.617188 746.527344 704.433594 741.460938 C 710.25 736.394531 715.910156 731.160156 721.414062 725.753906 C 726.917969 720.351562 732.257812 714.789062 737.429688 709.0625 C 742.601562 703.339844 747.597656 697.46875 752.417969 691.449219 C 757.238281 685.425781 761.875 679.265625 766.328125 672.96875 C 770.78125 666.671875 775.042969 660.246094 779.113281 653.691406 C 783.183594 647.140625 787.054688 640.472656 790.726562 633.6875 C 794.398438 626.90625 797.867188 620.019531 801.125 613.027344 C 804.386719 606.039062 807.4375 598.957031 810.273438 591.785156 C 813.113281 584.609375 815.734375 577.359375 818.136719 570.03125 C 820.542969 562.703125 822.726562 555.308594 824.691406 547.847656 C 826.65625 540.390625 828.394531 532.878906 829.910156 525.3125 C 831.425781 517.75 832.714844 510.148438 833.773438 502.507812 C 834.835938 494.867188 835.667969 487.203125 836.273438 479.515625 C 836.875 471.824219 837.25 464.121094 837.394531 456.410156 C 837.539062 448.699219 837.453125 440.988281 837.136719 433.28125 C 836.820312 425.574219 836.273438 417.882812 835.5 410.210938 C 834.722656 402.535156 833.722656 394.890625 832.488281 387.277344 C 831.257812 379.660156 829.800781 372.089844 828.117188 364.5625 C 826.433594 357.035156 824.527344 349.5625 822.398438 342.148438 C 820.265625 334.734375 817.917969 327.394531 815.351562 320.117188 L 789.277344 329.390625 C 791.660156 336.144531 793.839844 342.964844 795.816406 349.847656 C 797.792969 356.730469 799.558594 363.667969 801.121094 370.660156 C 802.683594 377.648438 804.035156 384.679688 805.175781 391.75 C 806.320312 398.820312 807.25 405.917969 807.96875 413.042969 C 808.6875 420.167969 809.191406 427.308594 809.484375 434.464844 C 809.777344 441.621094 809.855469 448.78125 809.71875 455.941406 C 809.585938 463.101562 809.238281 470.25 808.675781 477.390625 C 808.113281 484.53125 807.339844 491.648438 806.351562 498.742188 C 805.367188 505.835938 804.167969 512.894531 802.761719 519.914062 C 801.351562 526.9375 799.738281 533.910156 797.914062 540.835938 C 796.089844 547.761719 794.058594 554.628906 791.824219 561.433594 C 789.59375 568.238281 787.15625 574.96875 784.519531 581.628906 C 781.886719 588.289062 779.054688 594.863281 776.027344 601.355469 C 772.996094 607.84375 769.777344 614.238281 766.367188 620.535156 C 762.957031 626.835938 759.363281 633.027344 755.585938 639.109375 C 751.804688 645.191406 747.847656 651.160156 743.710938 657.003906 C 739.578125 662.851562 735.269531 668.570312 730.792969 674.164062 C 726.316406 679.753906 721.679688 685.203125 716.875 690.519531 C 712.074219 695.832031 707.117188 700.996094 702.007812 706.015625 C 696.894531 711.03125 691.640625 715.894531 686.238281 720.597656 C 680.839844 725.300781 675.304688 729.839844 669.632812 734.214844 C 663.960938 738.585938 658.164062 742.785156 652.242188 746.8125 C 646.320312 750.839844 640.28125 754.6875 634.128906 758.355469 C 627.976562 762.023438 621.722656 765.503906 615.363281 768.796875 C 609.003906 772.089844 602.550781 775.191406 596.003906 778.101562 C 589.460938 781.007812 582.835938 783.71875 576.128906 786.234375 C 569.421875 788.746094 562.648438 791.058594 555.800781 793.167969 C 548.957031 795.273438 542.054688 797.175781 535.097656 798.875 C 528.140625 800.570312 521.136719 802.058594 514.089844 803.339844 C 507.042969 804.617188 499.964844 805.683594 492.855469 806.539062 C 485.742188 807.398438 478.613281 808.039062 471.464844 808.472656 C 464.316406 808.902344 457.160156 809.117188 450 809.121094 Z M 394.640625 840.023438 L 366.175781 822.960938 L 394.640625 805.898438 Z M 394.640625 840.023438 "/><g clip-rule="nonzero" clip-path="url(#e5495a0dc5)"><path style=" stroke:none;fill-rule:nonzero;fill:#113c7b;fill-opacity:1;" d="M 450 89.492188 C 458.992188 89.492188 468.226562 89.960938 477.675781 90.652344 L 477.675781 117.167969 C 477.675781 118.394531 477.835938 119.597656 478.15625 120.78125 C 478.476562 121.960938 478.945312 123.082031 479.5625 124.140625 C 480.179688 125.199219 480.921875 126.15625 481.796875 127.015625 C 482.667969 127.878906 483.636719 128.609375 484.703125 129.210938 C 485.769531 129.816406 486.894531 130.269531 488.082031 130.574219 C 489.265625 130.875 490.472656 131.019531 491.699219 131.003906 C 492.921875 130.988281 494.125 130.8125 495.300781 130.476562 C 496.480469 130.144531 497.59375 129.660156 498.644531 129.027344 L 567.839844 87.511719 C 568.347656 87.207031 568.835938 86.867188 569.300781 86.5 C 569.765625 86.128906 570.207031 85.730469 570.621094 85.304688 C 571.035156 84.878906 571.421875 84.429688 571.777344 83.953125 C 572.136719 83.480469 572.460938 82.980469 572.753906 82.464844 C 573.046875 81.945312 573.304688 81.414062 573.527344 80.863281 C 573.75 80.3125 573.9375 79.75 574.089844 79.175781 C 574.242188 78.597656 574.355469 78.015625 574.429688 77.429688 C 574.507812 76.839844 574.546875 76.246094 574.546875 75.652344 C 574.546875 75.058594 574.507812 74.464844 574.429688 73.875 C 574.355469 73.285156 574.242188 72.703125 574.089844 72.128906 C 573.9375 71.554688 573.75 70.992188 573.527344 70.441406 C 573.304688 69.890625 573.046875 69.355469 572.753906 68.839844 C 572.460938 68.320312 572.136719 67.824219 571.777344 67.351562 C 571.421875 66.875 571.035156 66.421875 570.621094 65.996094 C 570.207031 65.570312 569.765625 65.175781 569.300781 64.804688 C 568.835938 64.4375 568.347656 64.097656 567.839844 63.792969 L 498.644531 22.273438 C 497.59375 21.644531 496.480469 21.160156 495.300781 20.824219 C 494.125 20.492188 492.921875 20.316406 491.699219 20.300781 C 490.472656 20.285156 489.265625 20.425781 488.082031 20.730469 C 486.894531 21.035156 485.769531 21.488281 484.703125 22.09375 C 483.636719 22.695312 482.667969 23.425781 481.796875 24.285156 C 480.921875 25.148438 480.179688 26.105469 479.5625 27.164062 C 478.945312 28.222656 478.476562 29.34375 478.15625 30.523438 C 477.835938 31.707031 477.675781 32.910156 477.675781 34.132812 L 477.675781 62.890625 C 468.28125 62.253906 459.050781 61.8125 450 61.8125 C 442.285156 61.816406 434.578125 62.050781 426.878906 62.511719 C 419.179688 62.976562 411.5 63.667969 403.84375 64.589844 C 396.183594 65.511719 388.558594 66.664062 380.96875 68.039062 C 373.378906 69.417969 365.839844 71.019531 358.34375 72.84375 C 350.851562 74.671875 343.417969 76.722656 336.046875 78.992188 C 328.675781 81.261719 321.375 83.753906 314.152344 86.457031 C 306.929688 89.164062 299.792969 92.085938 292.746094 95.21875 C 285.695312 98.351562 278.746094 101.691406 271.898438 105.238281 C 265.046875 108.785156 258.3125 112.535156 251.683594 116.484375 C 245.058594 120.433594 238.558594 124.578125 232.179688 128.914062 C 225.800781 133.253906 219.558594 137.777344 213.449219 142.488281 C 207.339844 147.195312 201.378906 152.085938 195.5625 157.152344 C 189.746094 162.21875 184.085938 167.453125 178.582031 172.859375 C 173.078125 178.261719 167.742188 183.824219 162.570312 189.550781 C 157.398438 195.273438 152.402344 201.144531 147.578125 207.164062 C 142.757812 213.1875 138.121094 219.347656 133.667969 225.644531 C 129.214844 231.941406 124.953125 238.367188 120.882812 244.921875 C 116.8125 251.472656 112.941406 258.140625 109.269531 264.925781 C 105.597656 271.707031 102.132812 278.59375 98.871094 285.585938 C 95.609375 292.578125 92.5625 299.65625 89.722656 306.832031 C 86.886719 314.003906 84.265625 321.253906 81.859375 328.582031 C 79.453125 335.910156 77.269531 343.304688 75.304688 350.765625 C 73.34375 358.226562 71.601562 365.734375 70.085938 373.300781 C 68.574219 380.863281 67.285156 388.464844 66.222656 396.105469 C 65.160156 403.746094 64.328125 411.410156 63.726562 419.101562 C 63.121094 426.789062 62.746094 434.492188 62.601562 442.203125 C 62.457031 449.914062 62.542969 457.625 62.859375 465.332031 C 63.175781 473.039062 63.722656 480.730469 64.496094 488.40625 C 65.273438 496.078125 66.277344 503.722656 67.507812 511.339844 C 68.738281 518.953125 70.199219 526.523438 71.882812 534.050781 C 73.566406 541.578125 75.472656 549.050781 77.601562 556.464844 C 79.730469 563.878906 82.078125 571.222656 84.648438 578.496094 L 110.71875 569.222656 C 108.335938 562.46875 106.15625 555.648438 104.183594 548.765625 C 102.207031 541.882812 100.4375 534.945312 98.875 527.953125 C 97.3125 520.964844 95.960938 513.933594 94.820312 506.863281 C 93.675781 499.792969 92.746094 492.695312 92.027344 485.570312 C 91.308594 478.445312 90.804688 471.304688 90.511719 464.148438 C 90.21875 456.992188 90.140625 449.832031 90.277344 442.671875 C 90.410156 435.511719 90.761719 428.363281 91.320312 421.222656 C 91.882812 414.082031 92.65625 406.964844 93.644531 399.871094 C 94.632812 392.777344 95.828125 385.71875 97.238281 378.699219 C 98.644531 371.675781 100.261719 364.703125 102.085938 357.777344 C 103.910156 350.851562 105.9375 343.984375 108.171875 337.179688 C 110.40625 330.375 112.839844 323.644531 115.476562 316.984375 C 118.113281 310.324219 120.945312 303.75 123.972656 297.257812 C 127 290.769531 130.21875 284.375 133.628906 278.078125 C 137.039062 271.777344 140.632812 265.589844 144.414062 259.503906 C 148.191406 253.421875 152.148438 247.457031 156.285156 241.609375 C 160.421875 235.761719 164.726562 230.042969 169.203125 224.453125 C 173.679688 218.859375 178.320312 213.410156 183.121094 208.09375 C 187.925781 202.78125 192.878906 197.617188 197.992188 192.597656 C 203.101562 187.582031 208.355469 182.71875 213.757812 178.015625 C 219.15625 173.3125 224.695312 168.773438 230.367188 164.402344 C 236.039062 160.027344 241.835938 155.828125 247.757812 151.800781 C 253.679688 147.773438 259.714844 143.925781 265.867188 140.257812 C 272.019531 136.589844 278.277344 133.109375 284.636719 129.816406 C 290.996094 126.523438 297.445312 123.421875 303.992188 120.511719 C 310.535156 117.605469 317.164062 114.894531 323.867188 112.378906 C 330.574219 109.867188 337.351562 107.554688 344.195312 105.445312 C 351.039062 103.339844 357.941406 101.4375 364.898438 99.738281 C 371.855469 98.042969 378.859375 96.554688 385.90625 95.277344 C 392.953125 93.996094 400.03125 92.929688 407.144531 92.074219 C 414.253906 91.214844 421.382812 90.574219 428.53125 90.140625 C 435.679688 89.710938 442.835938 89.496094 450 89.492188 Z M 505.355469 58.589844 L 533.820312 75.652344 L 505.355469 92.714844 Z M 505.355469 58.589844 "/></g></g></svg>