<svg xmlns="http://www.w3.org/2000/svg" xmlns:xlink="http://www.w3.org/1999/xlink" width="1200" zoomAndPan="magnify" viewBox="0 0 900 899.99999" height="1200" preserveAspectRatio="xMidYMid meet" version="1.2"><defs><clipPath id="22f1721fb8"><path d="M 74.941406 99 L 819 99 L 819 800.851562 L 74.941406 800.851562 Z M 74.941406 99 "/></clipPath></defs><g id="da567f6246"><g clip-rule="nonzero" clip-path="url(#22f1721fb8)"><path style=" stroke:none;fill-rule:nonzero;fill:#113c7b;fill-opacity:1;" d="M 810.78125 553.488281 C 795.824219 527.582031 763.507812 518.457031 737.21875 532.71875 L 607.238281 603.195312 C 597.460938 591.460938 582.753906 583.984375 566.316406 583.984375 L 462.195312 583.984375 C 442.628906 549.152344 395.507812 526.132812 342.5625 526.132812 C 311.832031 526.132812 282.304688 533.90625 259.039062 548.089844 L 214.308594 548.089844 C 211.859375 530.992188 197.132812 517.792969 179.355469 517.792969 L 110.25 517.792969 C 90.773438 517.792969 74.941406 533.628906 74.941406 553.101562 L 74.941406 727.441406 C 74.941406 746.914062 90.773438 762.75 110.25 762.75 L 179.355469 762.75 C 197.117188 762.75 211.859375 749.550781 214.308594 732.449219 L 262.277344 732.449219 L 475.316406 795.265625 C 487.464844 798.84375 499.523438 800.632812 511.363281 800.632812 C 536.113281 800.632812 559.902344 792.847656 581.472656 777.503906 L 795.082031 625.523438 C 818.273438 609.054688 825.011719 578.078125 810.78125 553.488281 Z M 196.160156 727.457031 C 196.160156 736.722656 188.621094 744.261719 179.355469 744.261719 L 110.25 744.261719 C 100.980469 744.261719 93.441406 736.722656 93.441406 727.457031 L 93.441406 553.117188 C 93.441406 543.851562 100.980469 536.308594 110.25 536.308594 L 179.355469 536.308594 C 188.621094 536.308594 196.160156 543.851562 196.160156 553.117188 Z M 784.367188 610.457031 L 570.757812 762.441406 C 543.652344 781.730469 512.460938 786.941406 480.558594 777.535156 L 266.238281 714.347656 C 265.390625 714.101562 264.511719 713.964844 263.617188 713.964844 L 214.679688 713.964844 L 214.679688 566.59375 L 261.691406 566.59375 C 263.464844 566.59375 265.191406 566.082031 266.671875 565.128906 C 287.332031 551.914062 314.285156 544.636719 342.5625 544.636719 C 390.359375 544.636719 433.792969 566.222656 448.164062 597.136719 C 449.675781 600.40625 452.960938 602.488281 456.550781 602.488281 L 566.316406 602.488281 C 585.496094 602.488281 601.085938 618.089844 601.085938 637.257812 C 601.085938 656.421875 585.484375 672.023438 566.316406 672.023438 L 417.820312 672.023438 C 412.714844 672.023438 408.570312 676.171875 408.570312 681.277344 C 408.570312 686.378906 412.714844 690.527344 417.820312 690.527344 L 566.316406 690.527344 C 595.691406 690.527344 619.589844 666.628906 619.589844 637.257812 C 619.589844 630.933594 618.476562 624.859375 616.441406 619.230469 L 746.035156 548.96875 C 763.167969 539.6875 785.015625 545.855469 794.757812 562.738281 C 804.179688 579.035156 799.722656 599.542969 784.367188 610.457031 Z M 561.800781 336.945312 C 561.800781 331.597656 556.371094 328.652344 544.007812 323.210938 C 542.632812 322.609375 541.246094 321.992188 539.875 321.375 C 538.546875 320.773438 537.222656 320.1875 535.910156 319.617188 C 523.050781 313.957031 507.0625 306.910156 507.0625 288.933594 C 507.0625 273.5 518.703125 260.484375 534.429688 256.753906 L 534.429688 240.441406 C 534.429688 235.339844 538.578125 231.191406 543.683594 231.191406 C 548.785156 231.191406 552.933594 235.339844 552.933594 240.441406 L 552.933594 256.753906 C 568.660156 260.484375 580.300781 273.5 580.300781 288.933594 C 580.300781 294.039062 576.152344 298.183594 571.050781 298.183594 C 565.945312 298.183594 561.800781 294.039062 561.800781 288.933594 C 561.800781 280.792969 553.671875 274.179688 543.683594 274.179688 C 533.691406 274.179688 525.566406 280.792969 525.566406 288.933594 C 525.566406 294.285156 530.992188 297.230469 543.359375 302.671875 C 544.730469 303.273438 546.101562 303.890625 547.492188 304.507812 C 548.816406 305.109375 550.144531 305.695312 551.453125 306.265625 C 564.3125 311.921875 580.300781 318.953125 580.300781 336.933594 C 580.300781 352.367188 568.660156 365.378906 552.933594 369.109375 L 552.933594 385.421875 C 552.933594 390.527344 548.785156 394.675781 543.683594 394.675781 C 538.578125 394.675781 534.429688 390.527344 534.429688 385.421875 L 534.429688 369.109375 C 518.703125 365.378906 507.0625 352.367188 507.0625 336.933594 C 507.0625 331.828125 511.210938 327.679688 516.3125 327.679688 C 521.417969 327.679688 525.566406 331.828125 525.566406 336.933594 C 525.566406 345.074219 533.691406 351.6875 543.683594 351.6875 C 553.671875 351.6875 561.800781 345.089844 561.800781 336.945312 Z M 543.683594 442.472656 C 615.101562 442.472656 673.214844 384.359375 673.214844 312.941406 C 673.214844 241.519531 615.101562 183.410156 543.683594 183.410156 C 472.261719 183.410156 414.152344 241.519531 414.152344 312.941406 C 414.152344 384.359375 472.246094 442.472656 543.683594 442.472656 Z M 543.683594 201.910156 C 604.910156 201.910156 654.710938 251.714844 654.710938 312.941406 C 654.710938 374.167969 604.910156 423.96875 543.683594 423.96875 C 482.457031 423.96875 432.652344 374.167969 432.652344 312.941406 C 432.652344 251.714844 482.453125 201.910156 543.683594 201.910156 Z M 449.179688 131.523438 C 447.023438 126.898438 449.027344 121.394531 453.667969 119.234375 C 481.960938 106.070312 512.242188 99.390625 543.683594 99.390625 C 661.433594 99.390625 757.230469 195.1875 757.230469 312.941406 C 757.230469 336.746094 753.390625 359.875 745.820312 382 L 771.972656 371.070312 C 776.6875 369.09375 782.101562 371.332031 784.074219 376.035156 C 786.046875 380.75 783.8125 386.164062 779.109375 388.136719 L 732.578125 407.582031 C 731.40625 408.074219 730.203125 408.289062 729.015625 408.289062 C 725.390625 408.289062 721.953125 406.144531 720.472656 402.601562 L 701.03125 356.066406 C 699.054688 351.347656 701.292969 345.9375 705.996094 343.960938 C 710.699219 341.988281 716.125 344.226562 718.097656 348.925781 L 728.796875 374.554688 C 735.382812 354.800781 738.726562 334.15625 738.726562 312.925781 C 738.726562 205.378906 651.226562 117.878906 543.683594 117.878906 C 514.957031 117.878906 487.3125 123.96875 461.484375 135.996094 C 456.84375 138.171875 451.339844 136.148438 449.179688 131.523438 Z M 303.289062 249.832031 C 301.316406 245.113281 303.550781 239.703125 308.253906 237.726562 L 354.789062 218.285156 C 359.507812 216.3125 364.917969 218.546875 366.890625 223.25 L 386.335938 269.785156 C 388.308594 274.5 386.074219 279.914062 381.371094 281.886719 C 380.199219 282.378906 378.996094 282.597656 377.808594 282.597656 C 374.183594 282.597656 370.746094 280.453125 369.265625 276.90625 L 358.566406 251.28125 C 351.984375 271.03125 348.636719 291.679688 348.636719 312.910156 C 348.636719 420.453125 436.136719 507.957031 543.683594 507.957031 C 572.40625 507.957031 600.054688 501.863281 625.878906 489.839844 C 630.503906 487.679688 636.007812 489.683594 638.167969 494.324219 C 640.328125 498.949219 638.320312 504.457031 633.679688 506.613281 C 605.386719 519.78125 575.105469 526.457031 543.667969 526.457031 C 425.914062 526.457031 330.117188 430.660156 330.117188 312.910156 C 330.117188 289.117188 333.957031 265.976562 341.527344 243.847656 L 315.378906 254.78125 C 310.675781 256.769531 305.265625 254.550781 303.289062 249.832031 Z M 303.289062 249.832031 "/></g></g></svg>