<svg xmlns="http://www.w3.org/2000/svg" xmlns:xlink="http://www.w3.org/1999/xlink" width="1200" zoomAndPan="magnify" viewBox="0 0 900 899.99999" height="1200" preserveAspectRatio="xMidYMid meet" version="1.2"><g id="06a7e8a02a"><path style=" stroke:none;fill-rule:nonzero;fill:#113c7b;fill-opacity:1;" d="M 882.871094 545.480469 C 864.925781 514.402344 826.148438 503.449219 794.609375 520.5625 L 638.65625 605.125 C 626.929688 591.046875 609.28125 582.074219 589.558594 582.074219 L 464.632812 582.074219 C 441.15625 540.28125 384.621094 512.664062 321.09375 512.664062 C 284.226562 512.664062 248.800781 521.988281 220.882812 539.007812 L 167.21875 539.007812 C 164.273438 518.492188 146.609375 502.65625 125.277344 502.65625 L 42.363281 502.65625 C 19 502.65625 0 521.652344 0 545.019531 L 0 754.191406 C 0 777.558594 19 796.554688 42.363281 796.554688 L 125.277344 796.554688 C 146.589844 796.554688 164.277344 780.71875 167.21875 760.203125 L 224.769531 760.203125 L 480.375 835.570312 C 494.953125 839.863281 509.421875 842.007812 523.628906 842.007812 C 553.320312 842.007812 581.863281 832.667969 607.746094 814.261719 L 864.035156 631.910156 C 891.859375 612.152344 899.945312 574.988281 882.871094 545.480469 Z M 145.441406 754.210938 C 145.441406 765.328125 136.398438 774.375 125.277344 774.375 L 42.363281 774.375 C 31.246094 774.375 22.199219 765.328125 22.199219 754.210938 L 22.199219 545.035156 C 22.199219 533.917969 31.246094 524.871094 42.363281 524.871094 L 125.277344 524.871094 C 136.398438 524.871094 145.441406 533.917969 145.441406 545.035156 Z M 851.179688 613.835938 L 594.886719 796.1875 C 562.367188 819.328125 524.941406 825.582031 486.664062 814.296875 L 229.523438 738.484375 C 228.503906 738.191406 227.453125 738.023438 226.378906 738.023438 L 167.660156 738.023438 L 167.660156 561.207031 L 224.066406 561.207031 C 226.191406 561.207031 228.265625 560.59375 230.042969 559.449219 C 254.832031 543.59375 287.167969 534.863281 321.09375 534.863281 C 378.445312 534.863281 430.558594 560.761719 447.796875 597.851562 C 449.613281 601.773438 453.550781 604.273438 457.863281 604.273438 L 589.558594 604.273438 C 612.574219 604.273438 631.277344 622.992188 631.277344 645.988281 C 631.277344 668.984375 612.554688 687.703125 589.558594 687.703125 L 411.390625 687.703125 C 405.269531 687.703125 400.292969 692.679688 400.292969 698.804688 C 400.292969 704.929688 405.269531 709.90625 411.390625 709.90625 L 589.558594 709.90625 C 624.800781 709.90625 653.476562 681.230469 653.476562 645.988281 C 653.476562 638.402344 652.144531 631.113281 649.703125 624.363281 L 805.191406 540.0625 C 825.742188 528.925781 851.957031 536.324219 863.648438 556.582031 C 874.953125 576.132812 869.605469 600.738281 851.179688 613.835938 Z M 584.140625 285.675781 C 584.140625 279.253906 577.628906 275.722656 562.792969 269.191406 C 561.144531 268.46875 559.480469 267.730469 557.832031 266.988281 C 556.242188 266.269531 554.652344 265.566406 553.078125 264.878906 C 537.652344 258.089844 518.464844 249.636719 518.464844 228.066406 C 518.464844 209.550781 532.433594 193.933594 551.304688 189.457031 L 551.304688 169.886719 C 551.304688 163.761719 556.28125 158.785156 562.402344 158.785156 C 568.527344 158.785156 573.503906 163.761719 573.503906 169.886719 L 573.503906 189.457031 C 592.371094 193.933594 606.339844 209.550781 606.339844 228.066406 C 606.339844 234.191406 601.363281 239.167969 595.238281 239.167969 C 589.117188 239.167969 584.140625 234.191406 584.140625 228.066406 C 584.140625 218.300781 574.390625 210.363281 562.402344 210.363281 C 550.414062 210.363281 540.664062 218.300781 540.664062 228.066406 C 540.664062 234.484375 547.179688 238.019531 562.015625 244.550781 C 563.660156 245.269531 565.308594 246.011719 566.972656 246.75 C 568.5625 247.472656 570.152344 248.175781 571.726562 248.859375 C 587.15625 255.648438 606.339844 264.085938 606.339844 285.65625 C 606.339844 304.171875 592.371094 319.789062 573.503906 324.265625 L 573.503906 343.835938 C 573.503906 349.960938 568.527344 354.9375 562.402344 354.9375 C 556.28125 354.9375 551.304688 349.960938 551.304688 343.835938 L 551.304688 324.265625 C 532.433594 319.789062 518.464844 304.171875 518.464844 285.65625 C 518.464844 279.53125 523.441406 274.554688 529.566406 274.554688 C 535.691406 274.554688 540.664062 279.53125 540.664062 285.65625 C 540.664062 295.421875 550.414062 303.359375 562.402344 303.359375 C 574.390625 303.359375 584.140625 295.441406 584.140625 285.675781 Z M 562.402344 412.285156 C 648.09375 412.285156 717.816406 342.558594 717.816406 256.871094 C 717.816406 171.179688 648.09375 101.457031 562.402344 101.457031 C 476.714844 101.457031 406.988281 171.179688 406.988281 256.871094 C 406.988281 342.558594 476.695312 412.285156 562.402344 412.285156 Z M 562.402344 123.65625 C 635.863281 123.65625 695.617188 183.410156 695.617188 256.871094 C 695.617188 330.332031 635.863281 390.085938 562.402344 390.085938 C 488.941406 390.085938 429.1875 330.332031 429.1875 256.871094 C 429.1875 183.410156 488.941406 123.65625 562.402344 123.65625 Z M 449.019531 39.207031 C 446.429688 33.65625 448.835938 27.050781 454.402344 24.460938 C 488.347656 8.664062 524.683594 0.652344 562.402344 0.652344 C 703.683594 0.652344 818.621094 115.589844 818.621094 256.871094 C 818.621094 285.433594 814.015625 313.183594 804.929688 339.730469 L 836.304688 326.613281 C 841.96875 324.246094 848.460938 326.929688 850.828125 332.570312 C 853.195312 338.230469 850.515625 344.726562 844.871094 347.09375 L 789.039062 370.421875 C 787.632812 371.011719 786.191406 371.269531 784.765625 371.269531 C 780.417969 371.269531 776.292969 368.699219 774.519531 364.445312 L 751.191406 308.613281 C 748.820312 302.953125 751.503906 296.460938 757.148438 294.089844 C 762.789062 291.722656 769.300781 294.40625 771.667969 300.046875 L 784.507812 330.792969 C 792.40625 307.097656 796.421875 282.324219 796.421875 256.851562 C 796.421875 127.816406 691.4375 22.832031 562.402344 22.832031 C 527.9375 22.832031 494.769531 30.140625 463.78125 44.570312 C 458.214844 47.179688 451.609375 44.753906 449.019531 39.207031 Z M 273.976562 181.152344 C 271.609375 175.492188 274.292969 168.996094 279.933594 166.628906 L 335.765625 143.300781 C 341.425781 140.933594 347.917969 143.617188 350.289062 149.257812 L 373.617188 205.089844 C 375.984375 210.75 373.300781 217.246094 367.660156 219.613281 C 366.253906 220.203125 364.808594 220.464844 363.386719 220.464844 C 359.039062 220.464844 354.914062 217.890625 353.136719 213.636719 L 340.296875 182.890625 C 332.398438 206.589844 328.382812 231.359375 328.382812 256.832031 C 328.382812 385.867188 433.367188 490.851562 562.402344 490.851562 C 596.867188 490.851562 630.035156 483.542969 661.023438 469.113281 C 666.574219 466.523438 673.179688 468.929688 675.769531 474.5 C 678.359375 480.046875 675.953125 486.652344 670.382812 489.242188 C 636.4375 505.042969 600.105469 513.050781 562.382812 513.050781 C 421.105469 513.050781 306.167969 398.113281 306.167969 256.832031 C 306.167969 228.289062 310.773438 200.519531 319.855469 173.972656 L 288.480469 187.089844 C 282.839844 189.476562 276.34375 186.8125 273.976562 181.152344 Z M 273.976562 181.152344 "/></g></svg>