<svg xmlns="http://www.w3.org/2000/svg" xmlns:xlink="http://www.w3.org/1999/xlink" width="1200" zoomAndPan="magnify" viewBox="0 0 900 899.99999" height="1200" preserveAspectRatio="xMidYMid meet" version="1.2"><defs><clipPath id="02e5f03c8a"><path d="M 25 51.917969 L 365 51.917969 L 365 399 L 25 399 Z M 25 51.917969 "/></clipPath><clipPath id="3cc79b87f3"><path d="M 37 51.917969 L 230 51.917969 L 230 313 L 37 313 Z M 37 51.917969 "/></clipPath><clipPath id="f74f483faf"><path d="M 88 603 L 253 603 L 253 848.417969 L 88 848.417969 Z M 88 603 "/></clipPath><clipPath id="2dd1028e61"><path d="M 34 819 L 258 819 L 258 848.417969 L 34 848.417969 Z M 34 819 "/></clipPath><clipPath id="d57a0c6a4e"><path d="M 316 566 L 872 566 L 872 848.417969 L 316 848.417969 Z M 316 566 "/></clipPath></defs><g id="3d889a2a55"><g clip-rule="nonzero" clip-path="url(#02e5f03c8a)"><path style=" stroke:none;fill-rule:nonzero;fill:#113c7b;fill-opacity:1;" d="M 363.984375 172.902344 C 352.898438 137.789062 330.433594 106.652344 300.578125 85.042969 C 276.550781 67.414062 248.257812 56.324219 218.828125 53.195312 C 218.117188 53.054688 217.550781 52.910156 216.839844 52.910156 C 210.867188 52.199219 204.894531 51.917969 198.78125 51.917969 C 128.550781 51.917969 65.710938 93.714844 38.699219 158.542969 C 29.882812 179.585938 25.332031 201.90625 25.332031 225.222656 C 25.332031 320.90625 103.101562 398.816406 198.78125 398.816406 C 205.890625 398.816406 213.140625 398.386719 220.535156 397.25 C 221.105469 397.25 221.816406 397.25 222.382812 397.109375 C 232.902344 395.6875 243.140625 393.410156 252.949219 390.140625 C 259.632812 387.867188 263.753906 380.902344 262.332031 373.933594 C 260.34375 363.554688 259.347656 353.035156 259.347656 342.515625 C 259.347656 331.566406 260.484375 320.335938 262.617188 309.105469 C 268.304688 281.378906 280.957031 255.503906 299.15625 234.039062 C 314.796875 215.414062 334.699219 200.199219 356.453125 190.105469 C 362.992188 186.980469 366.117188 179.726562 363.984375 172.902344 Z M 277.546875 215.554688 C 275.128906 218.398438 272.710938 221.382812 270.4375 224.511719 C 254.085938 246.121094 242.289062 271.144531 236.175781 297.871094 L 236.175781 298.015625 C 235.605469 299.863281 235.179688 301.855469 234.753906 303.703125 C 232.191406 316.640625 230.914062 329.71875 230.914062 342.515625 C 230.914062 350.476562 231.484375 358.4375 232.335938 366.398438 C 227.929688 367.535156 223.238281 368.390625 218.542969 368.957031 C 214.421875 369.527344 210.300781 369.953125 206.316406 370.097656 C 203.757812 370.378906 201.199219 370.378906 198.78125 370.378906 C 118.882812 370.378906 53.769531 305.265625 53.769531 225.222656 C 53.769531 211.289062 55.617188 197.640625 59.597656 184.5625 C 61.019531 179.445312 62.726562 174.46875 64.859375 169.492188 C 87.460938 115.324219 140.066406 80.351562 198.78125 80.351562 C 204.042969 80.351562 208.878906 80.632812 213.996094 81.203125 C 216.414062 81.488281 218.542969 81.773438 220.960938 82.199219 L 221.105469 82.199219 C 238.449219 84.617188 255.082031 90.445312 270.296875 99.257812 C 274.988281 101.960938 279.394531 104.804688 283.800781 108.074219 C 305.554688 123.710938 322.613281 145.464844 332.851562 170.203125 C 311.953125 181.859375 292.902344 197.359375 277.546875 215.554688 Z M 277.546875 215.554688 "/></g><g clip-rule="nonzero" clip-path="url(#3cc79b87f3)"><path style=" stroke:none;fill-rule:nonzero;fill:#113c7b;fill-opacity:1;" d="M 226.078125 76.328125 C 229.5625 72.332031 230.515625 66.730469 228.582031 61.796875 C 226.632812 56.863281 222.113281 53.421875 216.839844 52.867188 C 210.882812 52.242188 204.925781 51.929688 198.796875 51.929688 C 128.59375 51.929688 65.738281 93.757812 38.640625 158.488281 C 35.839844 165.183594 38.527344 172.933594 44.898438 176.429688 L 80.011719 195.78125 C 80.566406 196.078125 80.9375 196.632812 81.007812 197.242188 L 86.339844 238.21875 C 87.476562 246.933594 92.3125 254.722656 99.632812 259.585938 L 119.621094 273.277344 L 128.878906 294.460938 C 133.753906 305.605469 144.617188 312.671875 156.714844 312.671875 C 157.011719 312.671875 157.3125 312.671875 157.597656 312.671875 C 170.050781 312.316406 180.898438 304.539062 185.234375 292.867188 L 203.84375 242.765625 C 208.292969 230.78125 204.726562 217.175781 194.929688 208.929688 L 173.574219 190.945312 C 173.164062 190.605469 172.90625 190.078125 172.878906 189.523438 L 170.960938 140.503906 C 170.960938 139.992188 171.117188 139.507812 171.445312 139.125 L 226.078125 76.339844 Z M 226.078125 76.328125 "/></g><path style=" stroke:none;fill-rule:nonzero;fill:#113c7b;fill-opacity:1;" d="M 364.042969 172.890625 C 352.96875 137.832031 330.40625 106.625 300.519531 85.042969 C 294.675781 80.820312 286.671875 81.628906 281.796875 86.875 L 245.144531 126.230469 C 238.390625 133.421875 234.921875 143.175781 235.648438 152.972656 C 236.359375 162.78125 241.222656 171.9375 248.996094 178.121094 L 261.738281 188.144531 C 263.160156 189.238281 264.066406 190.832031 264.296875 192.59375 L 266.867188 213.167969 C 268.019531 221.839844 272.355469 229.816406 279.09375 235.601562 C 281.683594 237.820312 284.96875 239.027344 288.351562 239.027344 C 288.71875 239.027344 289.105469 239.027344 289.488281 238.984375 C 293.269531 238.6875 296.769531 236.882812 299.214844 233.980469 C 314.835938 215.46875 334.640625 200.273438 356.492188 190.0625 C 362.960938 187.050781 366.175781 179.699219 364.027344 172.902344 Z M 364.042969 172.890625 "/><path style=" stroke:none;fill-rule:nonzero;fill:#113c7b;fill-opacity:1;" d="M 256.320312 294.417969 C 251.402344 291.289062 245.058594 291.476562 240.324219 294.902344 L 223.351562 307.214844 C 212.671875 314.847656 206.304688 327.1875 206.304688 340.253906 L 206.304688 383.046875 C 206.304688 387.15625 208.082031 391.039062 211.152344 393.738281 C 213.769531 396.027344 217.09375 397.265625 220.519531 397.265625 C 221.148438 397.265625 221.773438 397.222656 222.410156 397.136719 C 232.902344 395.730469 243.15625 393.371094 252.894531 390.128906 C 259.660156 387.867188 263.699219 380.957031 262.363281 373.949219 C 260.359375 363.554688 259.347656 352.964844 259.347656 342.515625 C 259.347656 331.566406 260.457031 320.335938 262.632812 309.117188 C 263.753906 303.390625 261.253906 297.558594 256.320312 294.402344 Z M 256.320312 294.417969 "/><g clip-rule="nonzero" clip-path="url(#f74f483faf)"><path style=" stroke:none;fill-rule:nonzero;fill:#113c7b;fill-opacity:1;" d="M 238.449219 603.96875 L 102.816406 603.96875 C 94.996094 603.96875 88.601562 610.367188 88.601562 618.183594 L 88.601562 791.207031 C 88.601562 801.585938 91.445312 811.253906 96.277344 819.640625 C 106.085938 836.703125 124.570312 848.078125 145.46875 848.078125 L 195.796875 848.078125 C 216.695312 848.078125 235.035156 836.703125 244.847656 819.785156 C 249.824219 811.394531 252.664062 801.585938 252.664062 791.207031 L 252.664062 618.183594 C 252.664062 610.367188 246.269531 603.96875 238.449219 603.96875 Z M 145.46875 819.640625 C 129.828125 819.640625 117.035156 806.847656 117.035156 791.207031 L 117.035156 632.402344 L 224.230469 632.402344 L 224.230469 791.207031 C 224.230469 806.847656 211.4375 819.640625 195.796875 819.640625 Z M 145.46875 819.640625 "/></g><path style=" stroke:none;fill-rule:nonzero;fill:#113c7b;fill-opacity:1;" d="M 102.816406 634.109375 L 69.265625 634.109375 C 49.929688 634.109375 34.148438 649.890625 34.148438 669.222656 L 34.148438 737.75 C 34.148438 757.085938 49.929688 772.867188 69.265625 772.867188 L 102.816406 772.867188 C 110.777344 772.867188 117.035156 766.46875 117.035156 758.652344 L 117.035156 648.324219 C 117.035156 640.507812 110.777344 634.109375 102.816406 634.109375 Z M 88.601562 744.433594 L 69.265625 744.433594 C 65.570312 744.433594 62.582031 741.449219 62.582031 737.75 L 62.582031 669.222656 C 62.582031 665.527344 65.570312 662.542969 69.265625 662.542969 L 88.601562 662.542969 Z M 88.601562 744.433594 "/><g clip-rule="nonzero" clip-path="url(#2dd1028e61)"><path style=" stroke:none;fill-rule:nonzero;fill:#113c7b;fill-opacity:1;" d="M 243.78125 848.078125 L 48.367188 848.078125 C 40.519531 848.078125 34.148438 841.707031 34.148438 833.859375 C 34.148438 826.011719 40.519531 819.640625 48.367188 819.640625 L 243.765625 819.640625 C 251.613281 819.640625 257.984375 826.011719 257.984375 833.859375 C 257.984375 841.707031 251.613281 848.078125 243.765625 848.078125 Z M 243.78125 848.078125 "/></g><path style=" stroke:none;fill-rule:nonzero;fill:#113c7b;fill-opacity:1;" d="M 684.296875 701.925781 C 683.019531 710.738281 674.203125 718.558594 665.390625 718.558594 C 661.835938 718.558594 658.992188 717.277344 657 715.144531 C 655.4375 713.15625 654.585938 710.738281 654.585938 707.894531 C 654.585938 707.328125 654.585938 706.617188 654.726562 705.90625 C 656.007812 697.089844 664.964844 689.269531 673.636719 689.269531 C 677.191406 689.269531 680.035156 690.40625 682.023438 692.683594 C 684.015625 694.957031 684.867188 698.226562 684.296875 701.925781 Z M 684.296875 701.925781 "/><g clip-rule="nonzero" clip-path="url(#d57a0c6a4e)"><path style=" stroke:none;fill-rule:nonzero;fill:#113c7b;fill-opacity:1;" d="M 863.292969 583.78125 C 855.1875 572.546875 842.675781 566.148438 828.746094 566.148438 L 568.714844 566.148438 C 550.371094 566.148438 534.023438 577.949219 528.335938 595.4375 L 454.121094 819.640625 L 330.433594 819.640625 C 322.472656 819.640625 316.214844 826.039062 316.214844 833.859375 C 316.214844 841.679688 322.472656 848.078125 330.433594 848.078125 L 784.386719 848.078125 C 790.5 848.078125 795.902344 844.09375 797.75 838.265625 L 869.261719 622.164062 C 873.527344 609.085938 871.394531 595.011719 863.292969 583.78125 Z M 712.449219 705.90625 C 709.179688 728.9375 688.421875 746.992188 665.390625 746.992188 C 653.589844 746.992188 642.925781 742.300781 635.535156 733.769531 C 628.140625 725.238281 624.871094 713.582031 626.578125 701.925781 C 629.988281 678.890625 650.605469 660.835938 673.636719 660.835938 C 685.578125 660.835938 696.097656 665.527344 703.492188 674.058594 C 710.882812 682.589844 714.15625 694.246094 712.449219 705.90625 Z M 712.449219 705.90625 "/></g><path style=" stroke:none;fill-rule:nonzero;fill:#113c7b;fill-opacity:1;" d="M 234.597656 570.683594 C 231.78125 570.683594 228.953125 569.847656 226.464844 568.113281 C 220.023438 563.621094 218.472656 554.75 222.964844 548.308594 C 253.503906 504.648438 303.507812 478.585938 356.722656 478.585938 L 531.023438 478.585938 C 566.296875 478.585938 599.90625 489.734375 628.210938 510.816406 C 634.496094 515.507812 635.804688 524.410156 631.113281 530.707031 C 626.421875 536.992188 617.535156 538.328125 611.222656 533.605469 C 587.863281 516.207031 560.140625 507.007812 531.023438 507.007812 L 356.722656 507.007812 C 312.777344 507.007812 271.476562 528.53125 246.253906 564.585938 C 243.496094 568.539062 239.074219 570.65625 234.597656 570.65625 Z M 234.597656 570.683594 "/><path style=" stroke:none;fill-rule:nonzero;fill:#113c7b;fill-opacity:1;" d="M 443.886719 198.496094 C 358.726562 198.496094 289.628906 267.730469 289.628906 352.75 C 289.628906 404.644531 315.363281 450.707031 354.746094 478.574219 L 355.03125 478.574219 C 378.203125 495.207031 405.785156 505.441406 435.925781 507.007812 C 438.625 507.148438 441.183594 507.148438 443.886719 507.148438 C 446.585938 507.148438 449.148438 507.148438 451.847656 507.007812 C 481.988281 505.441406 509.855469 495.207031 533.027344 478.714844 C 572.410156 450.707031 598.144531 404.644531 598.144531 352.75 C 598.144531 267.730469 528.90625 198.496094 443.886719 198.496094 Z M 450.285156 478.574219 C 448.152344 478.714844 446.019531 478.714844 443.886719 478.714844 C 441.753906 478.714844 439.621094 478.714844 437.488281 478.574219 C 371.09375 475.160156 318.066406 419.996094 318.066406 352.75 C 318.066406 283.371094 374.507812 226.929688 443.886719 226.929688 C 513.265625 226.929688 569.707031 283.371094 569.707031 352.75 C 569.707031 419.996094 516.679688 475.160156 450.285156 478.574219 Z M 450.285156 478.574219 "/><path style=" stroke:none;fill-rule:nonzero;fill:#113c7b;fill-opacity:1;" d="M 432.230469 782.464844 L 300.121094 782.464844 C 295.742188 782.464844 291.59375 780.445312 288.90625 776.992188 C 286.21875 773.535156 285.265625 769.015625 286.332031 764.777344 L 316.585938 644.828125 C 318.503906 637.207031 326.28125 632.617188 333.847656 634.519531 C 341.464844 636.441406 346.074219 644.175781 344.152344 651.78125 L 318.363281 754.03125 L 432.214844 754.03125 C 440.0625 754.03125 446.429688 760.398438 446.429688 768.246094 C 446.429688 776.09375 440.0625 782.464844 432.214844 782.464844 Z M 432.230469 782.464844 "/></g></svg>