<svg width="16" height="16" viewBox="0 0 16 16" fill="none" xmlns="http://www.w3.org/2000/svg">
<path d="M11.4998 5.66661C11.4998 6.31095 10.9775 6.83328 10.3332 6.83328C9.68884 6.83328 9.1665 6.31095 9.1665 5.66661C9.1665 5.02228 9.68884 4.49995 10.3332 4.49995C10.9775 4.49995 11.4998 5.02228 11.4998 5.66661Z" fill="#9AE2E0"/>
<path d="M3.01836 11.4999L1.1665 13.4047M4.49984 13.0238L3.38873 14.1666M1.83317 8.16663C1.83317 8.16663 4.34649 9.34661 5.49984 10.5C6.65319 11.6533 7.83317 14.1666 7.83317 14.1666L10.1665 11.9999V9.99993C12.8332 8.6666 14.4998 6.49995 14.1665 1.83328C9.49984 1.49995 7.33317 3.16662 5.99984 5.83329H3.99984L1.83317 8.16663ZM11.4998 5.66661C11.4998 6.31094 10.9775 6.83328 10.3332 6.83328C9.68884 6.83328 9.1665 6.31094 9.1665 5.66661C9.1665 5.02228 9.68884 4.49995 10.3332 4.49995C10.9775 4.49995 11.4998 5.02228 11.4998 5.66661Z" stroke="#113C7B" stroke-width="1.5" stroke-linecap="square"/>
</svg>
