<svg width="12" height="15" viewBox="0 0 12 15" fill="none" xmlns="http://www.w3.org/2000/svg">
<path d="M11.8173 0.468871C11.6954 0.293754 11.5312 0.165692 11.3251 0.0844552C11.1939 0.0282721 11.0563 0.000131346 10.9126 0.000131346V0H1.08744C0.943718 0 0.806298 0.0281408 0.675018 0.0843239C0.468805 0.165495 0.304689 0.293722 0.182833 0.46874C0.0610099 0.643758 0 0.837427 0 1.04998V13.1344C0 13.347 0.0610099 13.5406 0.182833 13.7158C0.304689 13.8908 0.468805 14.019 0.675018 14.1001C0.806167 14.1563 0.943718 14.1844 1.08744 14.1844C1.3813 14.1844 1.64054 14.0812 1.8656 13.8751L6.00003 9.89988L10.1345 13.8752C10.3533 14.0749 10.6126 14.1749 10.9125 14.1749C11.0688 14.1749 11.2063 14.1501 11.3251 14.1001C11.5312 14.0189 11.6954 13.8908 11.8173 13.7155C11.9391 13.5406 12 13.3469 12 13.1344V1.05011C12 0.837558 11.939 0.643889 11.8173 0.468871ZM10.8001 12.8436L6.83444 9.03737L6.00003 8.24062L5.16569 9.03737L1.2001 12.8436V1.20014H10.8001V12.8436Z" fill="currentColor"/>
<path d="M11.8173 0.468871C11.6954 0.293754 11.5312 0.165692 11.3251 0.0844552C11.1939 0.0282721 11.0563 0.000131346 10.9126 0.000131346V0H1.08744C0.943718 0 0.806298 0.0281408 0.675018 0.0843239C0.468805 0.165495 0.304689 0.293722 0.182833 0.46874C0.0610099 0.643758 0 0.837427 0 1.04998V13.1344C0 13.347 0.0610099 13.5406 0.182833 13.7158C0.304689 13.8908 0.468805 14.019 0.675018 14.1001C0.806167 14.1563 0.943718 14.1844 1.08744 14.1844C1.3813 14.1844 1.64054 14.0812 1.8656 13.8751L6.00003 9.89988L10.1345 13.8752C10.3533 14.0749 10.6126 14.1749 10.9125 14.1749C11.0688 14.1749 11.2063 14.1501 11.3251 14.1001C11.5312 14.0189 11.6954 13.8908 11.8173 13.7155C11.9391 13.5406 12 13.3469 12 13.1344V1.05011C12 0.837558 11.939 0.643889 11.8173 0.468871ZM10.8001 12.8436L6.83444 9.03737L6.00003 8.24062L5.16569 9.03737L1.2001 12.8436V1.20014H10.8001V12.8436Z" stroke="currentColor"/>
</svg>
