<svg xmlns="http://www.w3.org/2000/svg" xmlns:xlink="http://www.w3.org/1999/xlink" width="1200" zoomAndPan="magnify" viewBox="0 0 900 899.99999" height="1200" preserveAspectRatio="xMidYMid meet" version="1.2"><defs><clipPath id="4a0a6168a7"><path d="M 12.9375 35 L 867 35 L 867 900 L 12.9375 900 Z M 12.9375 35 "/></clipPath></defs><g id="7978b201f2"><g clip-rule="nonzero" clip-path="url(#4a0a6168a7)"><path style=" stroke:none;fill-rule:nonzero;fill:#113c7b;fill-opacity:1;" d="M 569.339844 506.957031 C 568.648438 499.820312 573.886719 493.484375 581.0625 492.792969 C 588.199219 492.101562 594.539062 497.339844 595.226562 504.515625 C 597.183594 524.960938 633.0625 535.15625 653.285156 519 C 658.617188 514.710938 661.894531 508.953125 661.894531 502.839844 C 661.894531 462.207031 569.058594 497.824219 569.058594 428.566406 C 569.058594 403.050781 590.660156 384.394531 615.226562 379.640625 L 615.226562 366.652344 C 615.226562 359.363281 620.984375 353.605469 628.8125 353.605469 L 628.8125 353.660156 C 636.210938 353.773438 641.972656 359.734375 641.75 366.96875 L 641.488281 379.546875 C 666.21875 384.1875 687.96875 402.957031 687.96875 428.585938 C 687.96875 435.761719 682.15625 441.632812 674.925781 441.632812 C 667.730469 441.632812 661.878906 435.761719 661.878906 428.585938 C 661.878906 407.019531 624.636719 395.78125 603.820312 412.425781 C 598.488281 416.710938 595.152344 422.472656 595.152344 428.585938 C 595.152344 469.214844 687.96875 433.597656 687.96875 502.859375 C 687.96875 528.429688 666.257812 547.179688 641.582031 551.839844 L 641.320312 564.773438 C 641.320312 571.949219 635.449219 577.820312 628.273438 577.820312 C 621.097656 577.820312 615.226562 571.949219 615.226562 564.773438 L 615.226562 551.839844 C 592.265625 547.363281 571.59375 530.722656 569.339844 506.957031 Z M 628.550781 319.140625 C 708.902344 319.140625 774.097656 384.339844 774.097656 464.742188 C 774.097656 545.109375 708.902344 610.289062 628.550781 610.289062 C 548.148438 610.289062 483.007812 545.089844 483.007812 464.742188 C 483.007812 384.339844 548.148438 319.140625 628.550781 319.140625 Z M 713.039062 380.257812 C 666.386719 333.605469 590.734375 333.605469 544.085938 380.257812 C 497.433594 426.90625 497.433594 502.558594 544.085938 549.210938 C 590.734375 595.863281 666.386719 595.863281 713.039062 549.210938 C 759.691406 502.578125 759.691406 426.90625 713.039062 380.257812 Z M 67.417969 541.34375 L 129.015625 541.34375 C 155.59375 541.34375 178.144531 560.636719 182.691406 586.355469 L 326.1875 516.613281 C 345.886719 507.105469 367.078125 504.980469 387.414062 513.964844 L 430.410156 532.9375 L 430.410156 358.375 C 366.222656 387.542969 290.664062 373.433594 241.066406 323.820312 C 175.03125 257.785156 175.03125 150.691406 241.066406 84.65625 C 307.15625 18.621094 414.253906 18.621094 480.285156 84.65625 C 506.4375 110.804688 524.085938 145.527344 528.632812 184.238281 L 590.867188 107.265625 C 611.050781 82.328125 646.015625 82.328125 666.144531 107.265625 L 668.792969 110.488281 C 745.824219 0.0195312 833.738281 62.046875 823.953125 135.632812 C 819.890625 165.808594 799.59375 197.601562 755.738281 218.050781 L 813.796875 289.898438 C 822.464844 300.617188 826.636719 313.308594 826.636719 327.136719 L 826.636719 584.695312 C 878.097656 596.847656 887.082031 661.09375 812.789062 699.878906 L 531.09375 846.914062 C 515.980469 854.78125 499.929688 856.851562 483.382812 852.992188 L 284.101562 806.398438 L 183.34375 849.449219 C 181.238281 877.667969 157.511719 899.902344 128.976562 899.902344 L 67.417969 899.902344 C 37.410156 899.902344 12.898438 875.394531 12.898438 845.386719 L 12.957031 845.386719 L 12.957031 595.878906 L 12.898438 595.878906 C 12.898438 565.816406 37.410156 541.34375 67.417969 541.34375 Z M 183.496094 614.890625 L 183.496094 821.101562 L 277.316406 780.992188 C 279.910156 779.78125 282.910156 779.351562 285.929688 780.042969 L 489.328125 827.589844 C 500.007812 830.066406 509.457031 828.910156 519.074219 823.898438 L 800.824219 676.863281 C 825.875 663.761719 838.175781 648.550781 840.558594 635.449219 C 842.144531 626.519531 838.601562 618.859375 830.886719 614.109375 C 815.679688 604.695312 792.472656 609.148438 775.886719 615.542969 L 545.855469 703.570312 C 543.003906 704.6875 539.78125 704.78125 536.722656 703.625 L 368.71875 641.710938 C 361.953125 639.230469 358.523438 631.722656 361.003906 625.011719 C 363.425781 618.246094 370.9375 614.761719 377.703125 617.238281 L 540.113281 677.105469 C 586.28125 649.257812 552.527344 615.449219 512.121094 597.652344 L 376.976562 537.839844 C 363.667969 531.96875 350.511719 533.832031 337.519531 540.113281 Z M 129.035156 567.402344 L 67.417969 567.402344 C 51.777344 567.402344 38.992188 580.242188 38.992188 595.878906 L 38.9375 595.878906 L 38.9375 845.40625 L 38.992188 845.40625 C 38.992188 860.988281 51.777344 873.828125 67.417969 873.828125 L 129.015625 873.828125 C 144.597656 873.828125 157.4375 860.988281 157.4375 845.40625 L 157.496094 845.40625 L 157.496094 595.878906 L 157.4375 595.878906 C 157.457031 580.242188 144.617188 567.402344 129.035156 567.402344 Z M 456.484375 544.511719 L 522.632812 573.738281 C 553.070312 587.214844 584.453125 610.566406 588.144531 641.636719 C 588.890625 647.824219 588.519531 653.9375 586.878906 659.976562 L 766.625 591.128906 C 778.773438 586.488281 790.183594 583.894531 800.601562 583.039062 L 800.601562 327.175781 C 800.601562 319.199219 798.53125 312.375 793.574219 306.246094 L 671.792969 155.574219 C 668.195312 162.453125 664.65625 169.796875 661.167969 177.714844 C 698.257812 200.007812 705.082031 252.585938 674.960938 284.175781 C 649.335938 311.015625 607.753906 311.015625 582.179688 284.175781 C 556.925781 257.765625 556.925781 215.234375 582.179688 188.769531 C 596.085938 174.230469 615.878906 166.535156 636.546875 169.160156 C 642.308594 156.171875 648.214844 144.429688 654.199219 133.824219 C 649.390625 127.914062 643.949219 119.828125 637.816406 116.75 C 632.316406 114.050781 624.769531 114.050781 619.328125 116.75 C 616.417969 118.222656 613.734375 120.496094 611.183594 123.628906 L 463.570312 306.261719 C 458.59375 312.394531 456.484375 319.199219 456.484375 327.195312 Z M 667.710938 238.886719 C 654.460938 239.894531 642.25 240.097656 628.347656 239.835938 C 619.53125 239.667969 613.492188 231.058594 616.195312 222.820312 L 616.140625 222.820312 C 619.363281 213 622.699219 203.699219 626.019531 194.828125 C 592.265625 197.101562 576.980469 241.046875 601.023438 266.246094 C 624.863281 291.242188 665.808594 274.765625 667.710938 238.886719 Z M 738.816406 197.101562 C 835.601562 156.84375 799.257812 58.097656 741.144531 79.699219 C 723.867188 86.09375 704.6875 102.101562 685.714844 131.417969 Z M 651.066406 202.261719 C 649.59375 206.007812 648.160156 209.867188 646.742188 213.835938 L 661.167969 213.257812 C 658.503906 208.972656 655.074219 205.226562 651.066406 202.261719 Z M 430.429688 329.28125 C 430.429688 314.164062 433.65625 301.808594 443.273438 289.917969 L 503.34375 215.589844 L 503.769531 204.277344 C 503.769531 125.230469 439.730469 61.210938 360.703125 61.210938 C 281.71875 61.210938 217.640625 125.25 217.640625 204.277344 C 217.640625 299.589844 309.1875 367.898438 400.238281 341.804688 C 410.878906 338.730469 421.035156 334.519531 430.429688 329.28125 Z M 277.167969 242.167969 C 273.160156 236.203125 274.746094 228.113281 280.710938 224.105469 C 286.675781 220.136719 294.761719 221.722656 298.769531 227.703125 C 328.832031 272.601562 392.539062 272.601562 422.65625 227.703125 C 426.628906 221.738281 434.699219 220.15625 440.679688 224.105469 C 446.644531 228.113281 448.230469 236.203125 444.277344 242.167969 C 403.851562 302.441406 317.6875 302.554688 277.167969 242.167969 Z M 412.109375 156.355469 C 412.109375 149.125 417.925781 143.3125 425.15625 143.3125 C 432.332031 143.3125 438.203125 149.125 438.203125 156.355469 L 438.203125 163.960938 C 438.203125 171.191406 432.332031 177.007812 425.15625 177.007812 C 417.925781 177.007812 412.109375 171.191406 412.109375 163.960938 Z M 286.785156 156.355469 C 286.785156 149.125 292.601562 143.3125 299.832031 143.3125 C 307.007812 143.3125 312.878906 149.125 312.878906 156.355469 L 312.878906 163.960938 C 312.878906 171.191406 307.007812 177.007812 299.832031 177.007812 C 292.601562 177.007812 286.785156 171.191406 286.785156 163.960938 Z M 286.785156 156.355469 "/></g></g></svg>