<svg width="16" height="16" viewBox="0 0 16 16" fill="none" xmlns="http://www.w3.org/2000/svg">
<path fill-rule="evenodd" clip-rule="evenodd" d="M6.66675 12.6667C3.35304 12.6667 0.666748 9.98046 0.666748 6.66675C0.666748 3.35304 3.35304 0.666748 6.66675 0.666748C9.98046 0.666748 12.6667 3.35304 12.6667 6.66675C12.6667 9.98046 9.98046 12.6667 6.66675 12.6667ZM6.66673 11.3334C9.24406 11.3334 11.3334 9.24408 11.3334 6.66675C11.3334 4.08942 9.24406 2.00008 6.66673 2.00008C4.0894 2.00008 2.00007 4.08942 2.00007 6.66675C2.00007 9.24408 4.0894 11.3334 6.66673 11.3334ZM15.1382 15.1382C15.3985 14.8778 15.3985 14.4557 15.1382 14.1953L12.4715 11.5287C12.2112 11.2683 11.789 11.2683 11.5287 11.5287C11.2683 11.789 11.2683 12.2111 11.5287 12.4715L14.1954 15.1382C14.4557 15.3985 14.8778 15.3985 15.1382 15.1382Z" fill="#1F2D3D"/>
</svg>
