<svg width="116" height="116" viewBox="0 0 116 116" fill="none" xmlns="http://www.w3.org/2000/svg">
<path d="M52.6632 114.689C52.695 114.689 52.7274 114.685 52.7596 114.676C52.9593 114.623 53.078 114.417 53.0249 114.216L41.3907 70.2883C41.3376 70.0878 41.1328 69.9683 40.9331 70.0218C40.7334 70.0751 40.6147 70.2809 40.6678 70.4814L52.302 114.409C52.3465 114.578 52.4979 114.689 52.6632 114.689Z" fill="#222433"/>
<path d="M16.3349 114.689C16.5166 114.689 16.6761 114.555 16.7042 114.369L23.368 70.4413C23.3992 70.2362 23.2588 70.0446 23.0545 70.0133C22.8504 69.9824 22.6595 70.123 22.6284 70.3281L15.9647 114.256C15.9335 114.461 16.0739 114.653 16.2782 114.684C16.2971 114.687 16.3161 114.689 16.3349 114.689Z" fill="#222433"/>
<path d="M42.8831 70.3846C42.8831 70.3846 36.8633 41.8957 36.7259 41.133C36.2958 38.7452 35.3944 36.4628 32.983 35.9818C32.6823 35.9218 32.3767 35.8916 32.0702 35.8916H29.5689H20.8964H18.3951C18.0886 35.8916 17.783 35.9218 17.4824 35.9818C14.944 36.4881 13.2949 38.9652 13.5651 41.4987L19.3408 70.6117" fill="white"/>
<path d="M19.3405 70.9876C19.3648 70.9876 19.3893 70.9852 19.414 70.9803C19.6166 70.9397 19.7482 70.742 19.7078 70.5385L13.9355 41.4424C13.6875 39.0401 15.2748 36.8054 17.5554 36.3505C17.8313 36.2954 18.1139 36.2675 18.3952 36.2675H32.0703C32.3515 36.2675 32.6341 36.2954 32.9102 36.3504C34.7317 36.7137 35.8272 38.2547 36.3579 41.2C36.4948 41.9595 42.2714 69.2992 42.5173 70.4627C42.5602 70.6657 42.7588 70.7953 42.9608 70.7523C43.1629 70.7092 43.292 70.5097 43.2491 70.3068C43.189 70.022 37.229 41.8147 37.0941 41.0662C36.7213 38.9968 35.8969 36.1801 33.0559 35.6134C32.732 35.5489 32.4004 35.5161 32.0703 35.5161H18.3952C18.0651 35.5161 17.7334 35.5488 17.4096 35.6134C14.7476 36.1444 12.8956 38.7471 13.1933 41.5388C13.1946 41.55 13.1962 41.5611 13.1984 41.5723L18.9741 70.6853C19.0094 70.864 19.1656 70.9876 19.3405 70.9876Z" fill="#222433"/>
<path d="M56.805 70.0091L18.95 70.0054V70.5063C18.95 71.4801 19.7361 72.2696 20.7057 72.2696H58.6316L56.805 70.0091Z" fill="#222433"/>
<path d="M33.7261 28.1003L45.3864 27.1296L49.897 28.2005C51.1611 28.6688 52.9128 30.4446 53.3085 31.733L55.5016 43.1831L69.672 42.6915L71.706 50.9788L55.1361 51.3443L44.6579 54.2677" fill="white"/>
<path d="M82.0001 47.0992C84.4505 48.1768 87.0005 49.6037 88.3415 50.8943L88.7631 51.7094L71.7059 51.3439L70.2664 44.2922" fill="white"/>
<path d="M88.7632 52.0657C88.7607 52.0657 88.7581 52.0657 88.7556 52.0656L71.6983 51.7002C71.532 51.6966 71.3902 51.5784 71.3569 51.4154L69.9174 44.3637C69.8781 44.171 70.0024 43.9828 70.1953 43.9435C70.3883 43.9043 70.5762 44.0285 70.6155 44.2213L71.9982 50.9943L88.1713 51.3407L88.0526 51.1111C86.8625 49.9853 84.5534 48.6112 81.8569 47.4255C81.6767 47.3464 81.595 47.1362 81.6742 46.9561C81.7534 46.776 81.9636 46.6942 82.1438 46.7735C84.945 48.0053 87.3543 49.4499 88.5888 50.638C88.6168 50.6649 88.6402 50.6964 88.6581 50.7309L89.0799 51.546C89.1376 51.6576 89.1323 51.7914 89.0658 51.898C89.0004 52.0025 88.886 52.0657 88.7632 52.0657Z" fill="#222433"/>
<path d="M81.94 114.685H96.2436C96.5482 111.356 94.8162 108.172 91.2391 107.054C87.4445 105.869 85.6446 103.609 85.3153 101.127L71.462 94.5864L63.0552 98.9716L67.3195 112.371L71.8276 114.685H81.94Z" fill="white"/>
<path d="M96.2437 115.041H71.8277C71.771 115.041 71.7153 115.028 71.665 115.002L67.157 112.688C67.0726 112.644 67.009 112.569 66.9801 112.479L62.7158 99.0798C62.6633 98.9149 62.737 98.7361 62.8905 98.656L71.2973 94.2709C71.3961 94.2193 71.5135 94.217 71.6143 94.2646L85.4675 100.805C85.5769 100.857 85.6527 100.96 85.6686 101.08C86.0133 103.678 88.0293 105.679 91.3454 106.714C94.8803 107.819 96.9423 110.961 96.5985 114.718C96.5817 114.901 96.4279 115.041 96.2437 115.041ZM71.9138 114.329H95.9122C96.0808 111.064 94.2322 108.363 91.1328 107.394C87.6176 106.297 85.4446 104.161 84.9908 101.368L71.47 94.9842L63.4855 99.149L67.6141 112.122L71.9138 114.329Z" fill="#222433"/>
<path d="M73.8365 44.8001C72.7789 44.5881 71.3574 44.4378 70.2664 44.2922L73.8365 44.8001Z" fill="white"/>
<path d="M73.837 45.1564C73.8137 45.1564 73.7902 45.1541 73.7666 45.1494C72.9902 44.9938 71.9887 44.8686 71.1051 44.7583C70.7961 44.7197 70.4971 44.6823 70.2193 44.6453C70.0244 44.6193 69.8873 44.4401 69.9133 44.2452C69.9393 44.0503 70.1182 43.913 70.3135 43.9393C70.5894 43.9761 70.8864 44.0131 71.1933 44.0514C72.0891 44.1633 73.1044 44.2901 73.9066 44.4509C74.0995 44.4897 74.2245 44.6774 74.1859 44.8702C74.1519 45.0395 74.0032 45.1564 73.837 45.1564Z" fill="#222433"/>
<path d="M72.9668 49.5216C75.0661 49.9625 75.0585 48.5726 77.466 48.1865C80.7995 47.6506 82.8805 47.0001 83.1534 46.2547C83.782 44.5384 78.3859 45.4337 73.8364 44.8003" fill="white"/>
<path d="M73.7083 49.9626C73.4682 49.9626 73.1997 49.9345 72.8937 49.8702C72.7012 49.8297 72.5778 49.6409 72.6183 49.4484C72.6587 49.2558 72.8474 49.1325 73.0402 49.1731C74.0676 49.3888 74.4801 49.1322 75.1042 48.7436C75.6238 48.4202 76.2704 48.0176 77.4097 47.8349C82.1281 47.0763 82.7429 46.3398 82.8189 46.1323C82.8705 45.9913 82.8391 45.9454 82.8257 45.9258C82.5336 45.5007 80.5437 45.4684 78.7881 45.4399C77.2279 45.4146 75.4593 45.3859 73.7873 45.1531C73.5924 45.1259 73.4564 44.946 73.4835 44.7512C73.5106 44.5564 73.6909 44.4205 73.8855 44.4475C75.5143 44.6743 77.2597 44.7026 78.7996 44.7276C81.5024 44.7715 82.935 44.8267 83.413 45.5225C83.5284 45.6907 83.6351 45.9752 83.4879 46.3771C83.2872 46.9253 82.4504 47.7459 77.5226 48.5381C76.525 48.6982 75.9702 49.0435 75.4808 49.3482C74.9768 49.6622 74.4942 49.9626 73.7083 49.9626Z" fill="#222433"/>
<path d="M71.665 51.3641C71.4999 51.3641 71.3516 51.2485 71.3166 51.0804L69.6434 43.0493L55.5568 43.7204C55.3813 43.7297 55.2255 43.6076 55.1907 43.4352L53.0692 32.9496C52.4713 29.9932 49.4578 27.6951 45.9037 27.485C45.5367 27.4626 45.1655 27.4666 44.7999 27.4966L43.0912 27.6449C42.8951 27.6617 42.7224 27.5168 42.7055 27.3209C42.6885 27.125 42.8336 26.9522 43.0295 26.9353L44.7399 26.7869C45.1409 26.7541 45.5461 26.7497 45.946 26.774C47.7729 26.882 49.5539 27.5153 50.9605 28.5574C52.4588 29.6674 53.4294 31.1374 53.7674 32.8084L55.8283 42.9943L69.9131 42.3233C70.0871 42.3155 70.2431 42.435 70.2789 42.6064L72.014 50.9352C72.0542 51.1278 71.9306 51.3165 71.7379 51.3566C71.7136 51.3617 71.6891 51.3641 71.665 51.3641Z" fill="#222433"/>
<path d="M46.4309 96.0908L46.6873 114.731L53.7027 114.641L53.5651 109.051L64.0178 114.731H82.2105C82.4449 111.43 80.1852 108.184 77.0176 107.22C75.1747 106.66 73.7305 105.999 69.9206 104.221C67.5469 103.114 65.719 101.508 64.746 99.3638" fill="white"/>
<path d="M82.2104 115.088H64.0178C63.9584 115.088 63.8999 115.073 63.8476 115.044L53.9364 109.659L54.0588 114.632C54.0612 114.728 54.0254 114.82 53.9593 114.888C53.8933 114.957 53.8026 114.996 53.7073 114.997L46.6919 115.087C46.495 115.09 46.3337 114.933 46.3311 114.736L46.0747 96.0958C46.072 95.899 46.2294 95.7375 46.426 95.7347C46.6227 95.7297 46.7844 95.8893 46.7871 96.0859L47.0386 114.371L53.3377 114.29L53.2088 109.06C53.2057 108.933 53.2706 108.814 53.3791 108.747C53.4877 108.681 53.6233 108.678 53.7351 108.738L64.1083 114.375H81.87C81.9284 111.345 79.8477 108.453 76.9139 107.561C75.0646 106.999 73.6341 106.347 69.7698 104.544C67.1907 103.341 65.3913 101.648 64.4214 99.511C64.3401 99.3318 64.4194 99.1207 64.5986 99.0394C64.7776 98.9582 64.9889 99.0374 65.0702 99.2165C65.9677 101.194 67.6503 102.769 70.071 103.899C73.9013 105.685 75.3178 106.331 77.1211 106.88C80.4715 107.898 82.8122 111.285 82.5656 114.756C82.5526 114.943 82.3974 115.088 82.2104 115.088Z" fill="#222433"/>
<path d="M51.0459 59.2697C52.4912 58.6814 53.3191 56.3772 54.2389 55.8913C56.1471 55.3801 58.2491 56.7351 59.8005 56.9374C61.3518 57.1397 62.2068 57.4897 62.3775 56.1545C62.5481 54.8193 57.8766 52.4401 57.8766 52.4401L61.4846 52.5788C66.2586 53.1054 66.1526 50.9653 66.1526 50.9653H74.6772C81.039 51.591 85.6889 57.2541 85.0632 63.6145C84.9566 64.957 84.5279 65.9126 84.5279 65.9126L68.254 99.9328L44.0363 95.6694L49.7627 83.1972L51.9667 78.3931L54.7007 71.9056L37.8749 71.8824C34.2962 71.8774 31.237 69.6628 29.9871 66.5312C29.9872 66.5312 49.6006 59.858 51.0459 59.2697Z" fill="#0782D0"/>
<path d="M33.7256 28.1003C31.956 28.2541 30.6759 28.3655 30.6203 28.3708C27.823 28.6388 24.0141 31.1844 23.3284 37.7113L20.7125 59.6273C20.4635 63.4207 23.3375 66.6979 27.1319 66.9468C28.0359 67.0062 28.9428 66.8865 29.8004 66.5948L50.5141 59.4811" fill="white"/>
<path d="M27.5883 67.318C27.4289 67.318 27.269 67.3127 27.1087 67.3022C25.1786 67.1755 23.4134 66.305 22.1383 64.851C20.8631 63.3969 20.2305 61.5335 20.3572 59.6038C20.3577 59.5975 20.3583 59.5912 20.359 59.5849L22.9749 37.669C23.2892 34.6763 24.3087 32.1786 25.9224 30.4508C27.2181 29.0634 28.9182 28.176 30.5867 28.0162C30.653 28.0099 32.3137 27.8655 33.6951 27.7455C33.8918 27.7285 34.0638 27.8735 34.0809 28.0695C34.0979 28.2655 33.9529 28.4381 33.7569 28.4552C31.1246 28.6839 30.6834 28.7226 30.6545 28.7253C29.1569 28.8687 27.6218 29.675 26.4432 30.937C24.9362 32.5508 23.9816 34.9062 23.683 37.7485L21.0676 59.6598C20.956 61.3963 21.5263 63.0726 22.6739 64.3813C23.8237 65.6923 25.4152 66.4772 27.1554 66.5914C28.017 66.6479 28.8685 66.5356 29.6858 66.2575L50.3985 59.1442C50.5846 59.0802 50.7873 59.1793 50.8512 59.3654C50.9151 59.5514 50.816 59.7541 50.63 59.818L29.9163 66.9315C29.161 67.1886 28.3799 67.3178 27.5883 67.318Z" fill="#222433"/>
<path d="M71.9784 51.0081H93.83C100.168 51.8388 104.633 57.6492 103.802 63.986C103.176 67.2008 100.267 72.2711 100.267 72.2711L91.2081 91.2053L89.4402 94.8997L85.9301 102.236L68.0376 96.4336L71.9784 51.0081Z" fill="#0782D0"/>
<path d="M91.9178 58.309C91.8594 58.309 91.8001 58.3008 91.7412 58.2834C91.5358 58.2231 91.377 58.0645 91.3166 57.859L90.6545 55.669C90.5735 55.4014 90.3653 55.1934 90.0974 55.1128L87.9095 54.4487C87.752 54.4025 87.6194 54.2955 87.5391 54.1487C87.4588 54.0018 87.4407 53.8324 87.4879 53.6719C87.5484 53.4664 87.707 53.3076 87.9126 53.2473L90.0966 52.5855C90.3647 52.5042 90.5733 52.2956 90.6547 52.0275L90.88 51.2867C90.9256 51.1368 91.0641 51.0342 91.2209 51.0342H92.2577C92.2695 51.0342 92.2814 51.0348 92.2932 51.036C92.4177 51.0484 92.5422 51.0634 92.6729 51.0795C92.8127 51.0969 92.9292 51.1948 92.9701 51.3296L93.182 52.0275C93.2635 52.2956 93.4721 52.5042 93.7403 52.5857L95.9329 53.2481C96.0962 53.2992 96.2273 53.4085 96.3051 53.5571C96.3828 53.7056 96.3982 53.8756 96.3482 54.0356C96.2863 54.2333 96.1312 54.3876 95.9333 54.4484C95.9328 54.4486 95.9323 54.4487 95.932 54.4489L93.7389 55.1128C93.4704 55.1935 93.262 55.4015 93.181 55.6693L92.5182 57.8617C92.4389 58.1321 92.1886 58.309 91.9178 58.309ZM91.836 57.6568C91.8359 57.6573 91.8358 57.6576 91.8356 57.6581L91.836 57.6568ZM91.999 57.6544L91.9994 57.6555C91.9993 57.6552 91.9992 57.6548 91.999 57.6544ZM88.3847 53.8485L90.3035 54.431C90.7998 54.5802 91.1863 54.9661 91.3366 55.4628L91.918 57.3859L92.4993 55.4629C92.6497 54.9661 93.0362 54.5802 93.5334 54.4307L95.4572 53.8484L93.5341 53.2674C93.0375 53.1166 92.6513 52.7305 92.5006 52.2345L92.3562 51.7591C92.3173 51.7547 92.2786 51.7506 92.24 51.7466H91.4851L91.3365 52.2347C91.1859 52.7306 90.7998 53.1166 90.3036 53.2673L88.3847 53.8485ZM95.8289 54.1078H95.8301H95.8289ZM88.1175 53.9295L88.1164 53.9298C88.1167 53.9297 88.1171 53.9296 88.1175 53.9295ZM88.1134 53.7661L88.1148 53.7666C88.1143 53.7664 88.1139 53.7662 88.1134 53.7661Z" fill="#222433"/>
<path d="M52.561 46.4064C52.3683 46.4064 52.2098 46.2527 52.2049 46.0591L52.0648 40.4266C52.0599 40.23 52.2154 40.0666 52.412 40.0617C52.6083 40.0562 52.7721 40.2122 52.7771 40.4088L52.9172 46.0413C52.9221 46.2379 52.7666 46.4013 52.57 46.4063C52.567 46.4063 52.5639 46.4064 52.561 46.4064Z" fill="#222433"/>
<path d="M38.3369 35.6103C34.3029 35.6106 30.8951 32.5968 30.4528 28.5235C30.4315 28.3279 30.5729 28.1522 30.7686 28.131C30.9641 28.1097 31.1399 28.251 31.1611 28.4467C31.583 32.33 34.9664 35.1555 38.8636 34.8793C42.8419 34.5973 45.849 31.132 45.5668 27.1546C45.5529 26.9583 45.7007 26.7881 45.897 26.7741C46.0924 26.7603 46.2636 26.9079 46.2776 27.1041C46.5875 31.4734 43.2841 35.28 38.9139 35.5898C38.7205 35.6036 38.5278 35.6102 38.3369 35.6103Z" fill="#222433"/>
<path d="M78.0834 86.7973C78.0209 86.7973 77.9581 86.7878 77.8966 86.7688C77.6987 86.7075 77.5441 86.5529 77.4827 86.3551L76.8191 84.16C76.7378 83.8931 76.529 83.6849 76.2612 83.6036C76.073 83.5464 75.9666 83.3476 76.0237 83.1594C76.0809 82.9711 76.2798 82.8647 76.468 82.922C76.9638 83.0723 77.3499 83.4578 77.501 83.9531L78.0825 85.8769L78.6638 83.9539C78.8151 83.4576 79.2013 83.0722 79.6971 82.922L81.6157 82.3406L79.6969 81.7581C79.2038 81.6102 78.8175 81.2275 78.6646 80.7347L78.0754 78.7857C78.0185 78.5975 78.125 78.3987 78.3134 78.3417C78.5018 78.2849 78.7005 78.3914 78.7575 78.5796L79.3459 80.5261C79.4276 80.7896 79.6361 80.9962 79.9029 81.0762L82.091 81.7404C82.2532 81.7906 82.3844 81.8998 82.4625 82.0482C82.5407 82.1966 82.5565 82.3665 82.5067 82.5266C82.4453 82.7244 82.2906 82.8791 82.0927 82.9404L79.9037 83.6037C79.6359 83.6849 79.4271 83.8931 79.3456 84.1608L78.683 86.3526C78.6327 86.5151 78.5236 86.6464 78.3751 86.7246C78.2837 86.773 78.1839 86.7973 78.0834 86.7973ZM81.8821 82.4215H81.8833H81.8821Z" fill="#222433"/>
<path d="M67.1272 76.5249C67.0663 76.5249 67.005 76.516 66.9451 76.4979C66.7438 76.437 66.5873 76.2805 66.5265 76.0794L65.8625 73.887C65.7815 73.6195 65.5735 73.4115 65.306 73.3304L63.1129 72.6665C62.7842 72.57 62.5936 72.2211 62.6911 71.8896C62.7515 71.6841 62.9102 71.5254 63.1157 71.4651L65.3062 70.8032C65.5733 70.7221 65.7814 70.5139 65.8628 70.2464L66.5267 68.0541C66.5752 67.8941 66.6831 67.7623 66.8306 67.6832C66.9782 67.6042 67.1477 67.5873 67.308 67.6358C67.5093 67.6967 67.6657 67.853 67.7265 68.054L68.3905 70.2466C68.4717 70.5137 68.68 70.722 68.9475 70.8032L71.14 71.4657C71.4689 71.5623 71.6594 71.9112 71.562 72.2427C71.5017 72.4481 71.3429 72.6069 71.1373 72.6673L68.9471 73.3303C68.6795 73.4113 68.4715 73.6193 68.3904 73.8868L67.7263 76.0794C67.6779 76.2394 67.5699 76.3712 67.4225 76.4503C67.3301 76.4999 67.2291 76.5249 67.1272 76.5249ZM63.5885 72.0663L65.5123 72.6486C66.0084 72.7988 66.3943 73.1845 66.5444 73.6806L67.1264 75.6021L67.7084 73.6806C67.8586 73.1847 68.2444 72.7988 68.7406 72.6487L70.6644 72.0664L68.7407 71.4851C68.2448 71.3345 67.8591 70.9489 67.7085 70.4535L67.1264 68.5316L66.5444 70.4533C66.3937 70.949 66.008 71.3346 65.5127 71.485L63.5885 72.0663ZM70.9351 72.1481C70.9355 72.1482 70.9359 72.1483 70.9363 72.1484L70.9351 72.1481ZM63.3202 72.1474L63.3191 72.1477C63.3194 72.1476 63.3198 72.1475 63.3202 72.1474ZM70.9336 71.9848C70.9332 71.9849 70.9327 71.9851 70.9324 71.9852L70.9336 71.9848ZM63.3164 71.984L63.3178 71.9845C63.3173 71.9842 63.3169 71.9841 63.3164 71.984Z" fill="#222433"/>
<path d="M51.3707 87.0259C51.3108 87.0259 51.2499 87.0172 51.1897 86.999C50.9884 86.9381 50.832 86.7818 50.7711 86.5806L50.1072 84.3881C50.0169 84.0902 49.8501 83.9025 49.611 83.8301C49.4227 83.7731 49.3163 83.5742 49.3733 83.386C49.4303 83.1978 49.6294 83.0915 49.8174 83.1484C50.2851 83.2899 50.6301 83.6569 50.789 84.1817L51.371 86.1034L51.953 84.1817C52.1033 83.6858 52.4891 83.3 52.9852 83.1499L54.909 82.5676L52.9853 81.9863C52.4894 81.8356 52.1037 81.45 51.9532 80.9547L51.4038 79.082C51.3485 78.8932 51.4567 78.6953 51.6454 78.64C51.8342 78.5846 52.0321 78.6928 52.0875 78.8814L52.6359 80.7509C52.7162 81.015 52.9244 81.2233 53.192 81.3045L55.3846 81.9669C55.5425 82.0134 55.6752 82.1202 55.7554 82.2671C55.8357 82.4139 55.8539 82.5834 55.8066 82.7439C55.7462 82.9494 55.5874 83.1081 55.3819 83.1684L53.1916 83.8315C52.9241 83.9125 52.716 84.1205 52.6349 84.388L51.9708 86.5806C51.889 86.8511 51.6396 87.0259 51.3707 87.0259ZM55.1797 82.6494C55.1802 82.6495 55.1806 82.6496 55.1809 82.6497L55.1797 82.6494ZM55.1782 82.486C55.1778 82.4861 55.1774 82.4862 55.177 82.4864L55.1782 82.486Z" fill="#222433"/>
<path d="M88.6502 96.7632C88.5346 96.7632 88.4212 96.707 88.3527 96.6033C88.2455 96.4412 88.0842 96.3209 87.8982 96.2645L85.7051 95.6006C85.3764 95.5041 85.1859 95.1552 85.2833 94.8237C85.3436 94.6183 85.5024 94.4595 85.7079 94.3991L87.8984 93.7373C88.1655 93.6562 88.3737 93.4479 88.455 93.1804L89.119 90.9882C89.1674 90.8282 89.2753 90.6964 89.4228 90.6173C89.5704 90.5383 89.7399 90.5214 89.9002 90.5698C90.1015 90.6306 90.2579 90.7871 90.3188 90.9883L90.8123 92.6182C90.8693 92.8065 90.7629 93.0052 90.5746 93.0623C90.3863 93.1192 90.1875 93.0129 90.1304 92.8246L89.7188 91.4656L89.1368 93.3873C88.9861 93.8829 88.6004 94.2686 88.1051 94.419L86.1808 95.0004L88.1047 95.5827C88.4494 95.6871 88.7486 95.91 88.9471 96.2105C89.0555 96.3747 89.0104 96.5955 88.8462 96.704C88.7859 96.7441 88.7177 96.7632 88.6502 96.7632ZM85.9126 95.0816L85.9115 95.0819C85.9118 95.0818 85.9122 95.0817 85.9126 95.0816ZM85.9089 94.9182L85.9102 94.9186C85.9098 94.9184 85.9094 94.9183 85.9089 94.9182Z" fill="#222433"/>
<path d="M98.6645 75.8705C98.5133 75.8705 98.3729 75.7734 98.3249 75.6215L97.9193 74.3366C97.837 74.0651 97.6289 73.8571 97.3614 73.7761L95.1683 73.1122C95.0104 73.0659 94.8778 72.959 94.7977 72.8121C94.7174 72.6652 94.6992 72.4958 94.7465 72.3353C94.8068 72.1298 94.9656 71.9711 95.1711 71.9107L97.3615 71.2489C97.6286 71.1678 97.8367 70.9595 97.9181 70.692L98.582 68.4998C98.682 68.1693 99.0324 67.9816 99.3633 68.0816C99.5646 68.1425 99.7211 68.2989 99.7819 68.5001L100.446 70.6924C100.519 70.9338 100.639 71.0956 100.812 71.1869C100.986 71.2785 101.053 71.4939 100.962 71.668C100.87 71.842 100.654 71.9087 100.48 71.8171C100.135 71.6352 99.8937 71.3263 99.7639 70.8991L99.1818 68.9772L98.5998 70.8987C98.4491 71.3944 98.0634 71.78 97.5681 71.9305L95.644 72.5118L97.5678 73.0942C98.0638 73.2444 98.4497 73.6301 98.5998 74.1261L99.0042 75.4069C99.0634 75.5945 98.9593 75.7945 98.7717 75.8538C98.7363 75.8652 98.7 75.8705 98.6645 75.8705ZM95.3757 72.5932L95.3745 72.5935C95.375 72.5934 95.3754 72.5933 95.3757 72.5932ZM95.3719 72.4297L95.3734 72.43C95.3729 72.43 95.3724 72.4299 95.3719 72.4297Z" fill="#222433"/>
<path d="M69.5102 95.0006C69.4503 95.0006 69.3894 94.992 69.3292 94.9738C69.1279 94.913 68.9715 94.7565 68.9106 94.5553L68.2467 92.3628C68.1657 92.0953 67.9576 91.8873 67.69 91.8063L65.4969 91.1423C65.1682 91.0458 64.9776 90.6969 65.0751 90.3654C65.1355 90.1599 65.2942 90.0012 65.4997 89.9409L67.6902 89.279C67.9573 89.1979 68.1655 88.9895 68.2468 88.7222L68.9107 86.5299C68.9592 86.3699 69.0671 86.2381 69.2146 86.159C69.3621 86.08 69.5318 86.0631 69.692 86.1117C69.8932 86.1725 70.0496 86.3288 70.1105 86.5301L70.7744 88.7225C70.8557 88.9897 71.0639 89.1979 71.3315 89.2792L73.0426 89.7961C73.2309 89.853 73.3374 90.0519 73.2805 90.2402C73.2237 90.4285 73.0246 90.535 72.8364 90.4781L71.1247 89.9609C70.6287 89.8101 70.2431 89.4247 70.0926 88.9293L69.5106 87.0074L68.9286 88.9291C68.7779 89.4248 68.3922 89.8103 67.8968 89.9609L65.9726 90.5423L67.8965 91.1247C68.3926 91.2748 68.7785 91.6606 68.9287 92.1566L69.5107 94.0783L70.0926 92.1566C70.2428 91.6607 70.6286 91.2748 71.1247 91.1248L72.3831 90.7438C72.5714 90.6868 72.7703 90.7932 72.8274 90.9815C72.8844 91.1698 72.778 91.3685 72.5897 91.4256L71.3311 91.8066C71.0636 91.8876 70.8555 92.0956 70.7744 92.3631L70.1104 94.5556C70.0287 94.8259 69.7793 95.0006 69.5102 95.0006ZM65.7043 90.6233L65.7033 90.6236C65.7036 90.6235 65.704 90.6234 65.7043 90.6233ZM65.7007 90.4599L65.702 90.4603C65.7015 90.4602 65.701 90.46 65.7007 90.4599Z" fill="#222433"/>
<path d="M81.5243 69.8347C81.4649 69.8347 81.4053 69.8261 81.3467 69.8091C81.1412 69.7487 80.9824 69.59 80.922 69.3844L80.26 67.2009C80.1787 66.9331 79.97 66.7244 79.7019 66.643L77.5093 65.9806C77.1803 65.8839 76.9899 65.5351 77.0872 65.2036C77.1477 64.9981 77.3065 64.8394 77.512 64.7791L79.7024 64.1172C79.97 64.036 80.1787 63.8273 80.2602 63.5593L80.9228 61.3672C80.9733 61.2047 81.0823 61.0734 81.2307 60.9953C81.3791 60.917 81.5491 60.9015 81.7093 60.9511C81.9071 61.0125 82.0617 61.167 82.1231 61.3648L82.7867 63.5599C82.8679 63.8275 83.0767 64.0361 83.3447 64.1176L84.9565 64.606C85.1341 64.6598 85.2406 64.8407 85.2015 65.022C85.158 65.2232 85.108 65.4268 85.0529 65.6273C85.0474 65.6476 85.04 65.6673 85.0309 65.6864L84.8493 66.0664C84.8062 66.1568 84.727 66.2247 84.6311 66.2538L83.3446 66.6435C83.0767 66.7249 82.8679 66.9334 82.7866 67.2015L82.1238 69.3878C82.0775 69.5455 81.9706 69.6781 81.8236 69.7582C81.7303 69.8088 81.6278 69.8347 81.5243 69.8347ZM81.4415 69.1823C81.4414 69.1828 81.4413 69.1833 81.4411 69.1836L81.4415 69.1823ZM81.6044 69.1795L81.6048 69.1806C81.6047 69.1803 81.6045 69.1799 81.6044 69.1795ZM77.9851 65.3801L79.9085 65.9612C80.4052 66.112 80.7913 66.4981 80.9419 66.9941L81.5233 68.9122L82.1047 66.9944C82.2554 66.4981 82.6416 66.112 83.1377 65.9615L84.2741 65.6172L84.3742 65.4077C84.3938 65.3357 84.4126 65.2632 84.4307 65.1907L83.138 64.7989C82.6416 64.6483 82.2554 64.2622 82.1048 63.7661L81.5234 61.8427L80.9421 63.7657C80.7913 64.2622 80.4052 64.6483 79.909 64.7988L77.9851 65.3801ZM77.7166 65.4612L77.7154 65.4615C77.7158 65.4614 77.7162 65.4613 77.7166 65.4612ZM77.7128 65.2978L77.7141 65.2981C77.7137 65.298 77.7132 65.2979 77.7128 65.2978Z" fill="#222433"/>
<path d="M61.2457 54.9C61.0927 54.9 60.9513 54.8007 60.9047 54.6467C60.8478 54.4584 60.9544 54.2597 61.1427 54.2027L62.1174 53.9083C62.3849 53.8272 62.5936 53.6188 62.6753 53.3511L62.94 52.4756C62.997 52.2873 63.1959 52.1809 63.3841 52.2377C63.5725 52.2946 63.679 52.4934 63.6221 52.6817L63.3572 53.558C63.2058 54.0543 62.8197 54.4398 62.3239 54.59L61.349 54.8845C61.3144 54.895 61.2797 54.9 61.2457 54.9Z" fill="#222433"/>
<path d="M63.9391 59.6257C63.8797 59.6257 63.8201 59.6172 63.7616 59.6001C63.556 59.5396 63.3972 59.381 63.3369 59.1755L62.675 56.9918C62.606 56.7647 62.4428 56.5771 62.2274 56.4773C62.0489 56.3945 61.9714 56.1827 62.0541 56.0043C62.1369 55.8258 62.3487 55.7483 62.5273 55.8311C62.9265 56.0163 63.2288 56.3639 63.3567 56.785L63.9383 58.7033L64.5208 56.785C64.6705 56.289 65.0564 55.9031 65.5533 55.7533L67.4715 55.1711L65.5528 54.5898C65.0568 54.4397 64.6709 54.0539 64.5207 53.558L64.2133 52.543C64.1563 52.3547 64.2627 52.156 64.451 52.0989C64.6394 52.0419 64.8381 52.1483 64.8953 52.3366L65.2027 53.3516C65.2837 53.6191 65.4918 53.8271 65.7594 53.9082L67.9465 54.5709C68.275 54.6675 68.4656 55.0164 68.3683 55.3479C68.3078 55.5534 68.1492 55.7121 67.9436 55.7724L65.7597 56.4354C65.4914 56.5162 65.2836 56.7241 65.2028 56.9916L64.5385 59.1787C64.4923 59.3361 64.3854 59.4688 64.2385 59.549C64.1451 59.5998 64.0426 59.6257 63.9391 59.6257ZM63.8563 58.9733C63.8562 58.9738 63.8561 58.9743 63.8558 58.9747L63.8563 58.9733ZM64.0192 58.9706L64.0196 58.9718C64.0196 58.9714 64.0195 58.9711 64.0192 58.9706ZM67.7414 55.2529C67.7418 55.253 67.7423 55.2531 67.7428 55.2534L67.7414 55.2529ZM67.7397 55.0898C67.7394 55.0899 67.7389 55.09 67.7385 55.0901L67.7397 55.0898Z" fill="#222433"/>
<path d="M48.5066 71.7743C48.4457 71.7743 48.3844 71.7653 48.3245 71.7472C48.1232 71.6863 47.9668 71.5299 47.9059 71.3287L47.2419 69.1426C47.1608 68.8743 46.9527 68.6658 46.6849 68.5845L44.4981 67.9219C44.1694 67.8254 43.9789 67.4764 44.0763 67.145C44.1366 66.9396 44.2954 66.7807 44.5009 66.7204L46.685 66.0586C46.9525 65.9774 47.1607 65.7689 47.2417 65.5011L47.9057 63.3083C47.9542 63.1482 48.0621 63.0165 48.2096 62.9374C48.3572 62.8583 48.5267 62.8415 48.687 62.8899C48.8883 62.9508 49.0447 63.1072 49.1055 63.3082L49.7695 65.5008C49.8508 65.7685 50.0591 65.9771 50.3268 66.0588L52.5133 66.7212C52.8419 66.8178 53.0325 67.1666 52.9351 67.4982C52.8746 67.7037 52.7159 67.8624 52.5104 67.9227L50.3264 68.5845C50.0592 68.6659 49.8508 68.8745 49.7695 69.1424L49.1055 71.329C49.0572 71.4888 48.9492 71.6206 48.8016 71.6996C48.7095 71.7493 48.6085 71.7743 48.5066 71.7743ZM44.9735 67.3217L46.8919 67.903C47.3882 68.0538 47.7741 68.44 47.9239 68.9363L48.5058 70.8523L49.0878 68.9358C49.2381 68.4402 49.6236 68.0543 50.1191 67.9031L52.038 67.3217L50.1197 66.7405C49.6237 66.5892 49.2381 66.2031 49.0878 65.7076L48.5058 63.7858L47.9238 65.7073C47.7739 66.2034 47.3882 66.5897 46.892 66.7403L44.9735 67.3217ZM52.3083 67.4037C52.3088 67.4038 52.3093 67.4039 52.3096 67.404L52.3083 67.4037ZM44.7061 67.4028L44.7049 67.4032C44.7053 67.4031 44.7056 67.4029 44.7061 67.4028ZM52.3068 67.2403C52.3064 67.2404 52.3059 67.2405 52.3056 67.2406L52.3068 67.2403ZM44.702 67.2395L44.7034 67.2398C44.7029 67.2398 44.7024 67.2396 44.702 67.2395ZM48.4237 63.5146C48.4237 63.5147 48.4239 63.5149 48.4239 63.5151L48.4237 63.5149C48.4237 63.5149 48.4237 63.5147 48.4237 63.5146Z" fill="#222433"/>
<path d="M43.9875 52.9031C43.9594 58.0983 47.8291 60.3335 50.5144 59.4808C52.2472 58.9306 53.2931 57.3151 53.7994 56.0249" fill="white"/>
<path d="M49.3426 60.015C48.3082 60.015 47.2383 59.6575 46.3147 58.9781C45.3042 58.2349 43.612 56.457 43.6313 52.9014C43.6323 52.7047 43.7938 52.5462 43.9894 52.5471C44.1862 52.5482 44.3448 52.7085 44.3438 52.9052C44.3263 56.1453 45.8356 57.7413 46.737 58.4042C47.8681 59.2364 49.2399 59.512 50.4065 59.1415C52.2493 58.5564 53.1612 56.6762 53.4677 55.895C53.5395 55.7119 53.7462 55.6217 53.9294 55.6935C54.1125 55.7654 54.2027 55.9721 54.1309 56.1551C53.7871 57.0313 52.7569 59.1426 50.6221 59.8205C50.2111 59.951 49.78 60.015 49.3426 60.015Z" fill="#222433"/>
<path d="M43.9924 52.5573C43.8121 56.4211 48.2214 59.671 51.6231 57.2847C51.6694 57.2519 51.7146 57.2202 51.7584 57.1873C53.2314 56.0824 54.9018 55.2163 57.4373 56.1227C59.2246 56.7621 61.804 57.9961 62.3498 56.2847C62.7275 55.0983 59.7717 53.5331 57.6335 52.3004C61.1668 52.6195 65.7967 53.0312 66.0403 51.4477C66.284 49.8642 62.9408 49.249 58.3548 48.8702C63.4561 48.4036 66.2109 48.8617 66.2584 47.3086C66.3364 44.7506 55.8327 45.0856 52.236 46.1758C52.236 46.1758 51.3734 46.4133 48.2251 47.1113C45.0037 47.8189 44.0887 50.5291 43.9924 52.5573Z" fill="white"/>
<path d="M49.1074 58.4596C48.2928 58.4596 47.4648 58.2423 46.6706 57.8055C44.7578 56.7539 43.5385 54.6381 43.6363 52.5407C43.6363 52.5406 43.6363 52.5406 43.6363 52.5405C43.7053 51.0864 44.2832 47.6125 48.1484 46.7634C51.2421 46.0775 52.1326 45.8347 52.1413 45.8324C55.22 44.8991 63.7641 44.4532 65.9982 46.1635C66.5242 46.5661 66.6235 47.0144 66.6142 47.3195C66.5823 48.3618 65.5736 48.6091 65.2421 48.6904C64.5513 48.8598 63.5687 48.9163 62.3349 48.9758C64.4325 49.3297 65.5919 49.7969 66.1082 50.4514C66.3557 50.7651 66.4512 51.1185 66.3923 51.5019C66.1498 53.0777 63.2167 53.1079 59.2051 52.7921C61.2456 53.9793 63.0704 55.1953 62.6891 56.3928C62.5488 56.8331 62.2862 57.1487 61.9089 57.3312C60.9145 57.8123 59.356 57.2238 57.9809 56.7046C57.7516 56.618 57.5287 56.5339 57.3171 56.4581C55.0728 55.6559 53.5572 56.2834 51.9721 57.4723C51.9316 57.5027 51.8904 57.5319 51.8481 57.5619L51.8293 57.5752C50.9902 58.1636 50.0579 58.4596 49.1074 58.4596ZM44.3481 52.5741C44.2628 54.4061 45.334 56.2576 47.014 57.1813C48.4876 57.9914 50.093 57.9228 51.4183 56.9931L51.4358 56.9807C51.4728 56.9545 51.5092 56.9287 51.5446 56.9023C53.0753 55.7542 54.8632 54.8244 57.5571 55.7872C57.7725 55.8643 57.9993 55.9499 58.2326 56.038C59.4121 56.4832 60.8797 57.0371 61.5986 56.6898C61.7986 56.5931 61.9293 56.43 62.0102 56.1764C62.2699 55.3606 59.591 53.8299 57.9904 52.9154C57.8081 52.8113 57.629 52.709 57.4553 52.6088C57.3104 52.5252 57.2431 52.3522 57.2935 52.1927C57.344 52.0333 57.4987 51.9304 57.6652 51.9456C59.3459 52.0974 61.4378 52.2862 63.0582 52.2314C65.2455 52.1575 65.6447 51.6746 65.6879 51.3934C65.7164 51.2081 65.6723 51.0488 65.5488 50.8924C64.7389 49.8658 61.0382 49.4492 58.3253 49.225C58.1411 49.2098 57.9992 49.0563 57.9983 48.8716C57.9975 48.6868 58.1381 48.5321 58.3222 48.5153C59.7342 48.3861 60.9431 48.3286 62.0097 48.2778C64.692 48.1502 65.8788 48.0615 65.9022 47.2974C65.9044 47.2224 65.9114 46.9937 65.5653 46.7287C63.6454 45.2592 55.5832 45.5331 52.3393 46.5163C52.295 46.5287 51.4233 46.7667 48.3021 47.4588C44.9172 48.2024 44.4094 51.2839 44.3481 52.5741Z" fill="#222433"/>
<path d="M35.6048 43.0293L35.1296 50.2393L47.5211 47.309" fill="white"/>
<path d="M35.1297 50.5953C35.0464 50.5953 34.9647 50.5659 34.8996 50.511C34.8133 50.438 34.7668 50.3284 34.7742 50.2156L35.2493 43.0056C35.2623 42.8094 35.4323 42.6604 35.6283 42.6737C35.8245 42.6866 35.9732 42.8562 35.9603 43.0525L35.5169 49.7814L47.4392 46.9622C47.6308 46.9169 47.8227 47.0353 47.8679 47.2268C47.9132 47.4182 47.7948 47.6102 47.6032 47.6554L35.2117 50.5855C35.1846 50.5922 35.1572 50.5953 35.1297 50.5953Z" fill="#222433"/>
<path d="M68.4137 99.9538C68.3621 99.9538 68.3098 99.9426 68.2603 99.9189C68.0827 99.834 68.0077 99.6214 68.0926 99.4439L84.2063 65.7587C84.2064 65.758 84.6079 64.8446 84.7079 63.586C85.0002 60.6133 84.1229 57.7499 82.2382 55.5165C80.3637 53.2953 77.6803 51.9097 74.6824 51.6149C74.4866 51.5957 74.3435 51.4214 74.3628 51.2256C74.382 51.0298 74.5567 50.887 74.7521 50.906C77.9359 51.2191 80.7879 52.6933 82.7828 55.0572C84.7927 57.4388 85.7284 60.4901 85.4176 63.6491C85.308 65.0304 84.8713 66.0168 84.8527 66.0581L68.7353 99.7513C68.6741 99.8791 68.5466 99.9538 68.4137 99.9538Z" fill="#222433"/>
<path d="M32.7041 18.5836L33.8058 28.8409C34.0829 31.362 36.3194 33.2029 38.8474 32.991C41.4204 32.7727 43.3304 30.5121 43.1155 27.9395L42.841 24.6769C44.7463 23.9234 46.3319 22.3886 47.0821 20.3103C48.0945 17.506 47.3237 14.368 45.127 12.3515C45.2892 11.7819 45.3829 11.1952 45.4061 10.6035C45.5677 6.52189 42.3891 3.08199 38.3065 2.92041L33.0837 6.03097" fill="white"/>
<path d="M38.4415 33.3641C35.8866 33.3641 33.736 31.4682 33.4515 28.8798L32.3497 18.6216C32.3287 18.4261 32.4703 18.2505 32.666 18.2294C32.8619 18.2083 33.0372 18.3499 33.0582 18.5456L34.1598 28.8028C34.4178 31.1493 36.4637 32.8333 38.8175 32.636C41.1896 32.4347 42.9585 30.3412 42.7603 27.9691L42.4858 24.7066C42.4727 24.5501 42.5637 24.4034 42.7098 24.3456C44.5903 23.602 46.0618 22.0871 46.7469 20.1895C47.7133 17.5124 46.9828 14.5388 44.8859 12.6138C44.7866 12.5228 44.7473 12.3835 44.7843 12.254C44.9385 11.7123 45.0279 11.1524 45.0499 10.5896C45.1244 8.71042 44.4623 6.91485 43.186 5.53362C41.9333 4.17803 40.236 3.38068 38.3966 3.28119L33.2659 6.3369C33.0969 6.43758 32.8782 6.38213 32.7775 6.21319C32.6768 6.04413 32.7322 5.82556 32.9012 5.72488L38.124 2.61444C38.1833 2.57918 38.2517 2.56137 38.3204 2.56458C40.39 2.6465 42.3039 3.52921 43.7093 5.05029C45.1148 6.57138 45.8438 8.54848 45.7618 10.6176C45.7404 11.1642 45.6614 11.7085 45.5262 12.2387C47.7134 14.3607 48.4565 17.5517 47.4171 20.4312C46.6928 22.4377 45.1704 24.0555 43.2177 24.9059L43.4704 27.9096C43.7013 30.6727 41.6409 33.1113 38.8775 33.3458C38.731 33.358 38.5855 33.3641 38.4415 33.3641Z" fill="#222433"/>
<path d="M40.1282 25.552C39.2364 25.552 38.3442 25.3988 37.4911 25.0919C37.306 25.0253 37.2099 24.8212 37.2765 24.6362C37.3431 24.4511 37.5471 24.355 37.7324 24.4216C39.3466 25.0024 41.1151 24.9772 42.7122 24.3509C42.8953 24.279 43.1021 24.3693 43.1739 24.5523C43.2458 24.7354 43.1555 24.9421 42.9724 25.0139C42.0585 25.3724 41.0936 25.552 40.1282 25.552Z" fill="#222433"/>
<path d="M44.5759 0.630946C43.6543 0.63059 42.794 1.09326 42.2866 1.86247C41.5687 0.527419 39.9043 0.0269994 38.5691 0.744684C38.1195 0.986286 37.7461 1.34851 37.4911 1.79064C36.7364 0.748126 35.2792 0.514597 34.2365 1.26909C33.7826 1.59748 33.4622 2.07842 33.334 2.62372C32.2688 2.08947 30.9721 2.51972 30.4377 3.58467C30.2101 4.03831 30.1498 4.55773 30.2673 5.05138C29.1329 5.42489 28.5161 6.64714 28.8897 7.78131C29.0018 8.12169 29.1968 8.42883 29.4571 8.67518C28.3666 9.16563 27.8803 10.447 28.3708 11.5373C28.4275 11.6633 28.4948 11.7815 28.5716 11.891C29.7694 10.8519 31.2001 10.4795 32.3495 10.7289C33.4928 10.9769 35.1983 11.8903 35.6048 14.2664H35.9455L35.3736 9.26476C35.2646 8.44106 35.8408 7.68384 36.6638 7.56915L44.3592 6.49969C46.4791 5.91984 47.332 4.8955 47.332 3.38011C47.3347 1.86448 46.1079 0.633558 44.5919 0.630828C44.5864 0.630946 44.5811 0.630946 44.5759 0.630946Z" fill="#113C7B"/>
<path d="M41.5649 14.8393C41.3768 14.8393 41.2196 14.692 41.2095 14.5019C41.1992 14.3054 41.35 14.1378 41.5464 14.1274L43.1894 14.0405L42.3521 11.2478C42.2956 11.0594 42.4026 10.8609 42.591 10.8044C42.7794 10.748 42.978 10.8548 43.0346 11.0432L44.0019 14.2699C44.0333 14.3746 44.0149 14.4879 43.9519 14.5772C43.889 14.6666 43.7886 14.722 43.6794 14.7278L41.5838 14.8387C41.5776 14.8392 41.5712 14.8393 41.5649 14.8393Z" fill="#222433"/>
<path d="M39.3967 13.1274C39.8273 13.1274 40.1764 12.7784 40.1764 12.3479C40.1764 11.9174 39.8273 11.5684 39.3967 11.5684C38.966 11.5684 38.6169 11.9174 38.6169 12.3479C38.6169 12.7784 38.966 13.1274 39.3967 13.1274Z" fill="#222433"/>
<path d="M44.4418 12.5012C44.8725 12.5012 45.2215 12.1522 45.2215 11.7217C45.2215 11.2912 44.8725 10.9421 44.4418 10.9421C44.0112 10.9421 43.6621 11.2912 43.6621 11.7217C43.6621 12.1522 44.0112 12.5012 44.4418 12.5012Z" fill="#222433"/>
<path d="M35.5815 14.2688C35.373 12.3001 33.7454 10.7314 31.7084 10.6532C29.4727 10.5673 27.5906 12.3096 27.5047 14.5448C27.4189 16.78 29.1616 18.6617 31.3973 18.7475C32.2606 18.7806 33.1119 18.537 33.8269 18.0522" fill="white"/>
<path d="M31.5571 19.1068C31.4995 19.1068 31.4418 19.1057 31.3839 19.1035C28.9555 19.0102 27.0557 16.9591 27.149 14.5312C27.1943 13.3551 27.6948 12.267 28.5586 11.4673C29.4224 10.6677 30.5452 10.2522 31.7224 10.2973C33.8959 10.3807 35.7073 12.0721 35.936 14.2313C35.9567 14.4269 35.8149 14.6023 35.6193 14.623C35.4234 14.6437 35.2482 14.5019 35.2276 14.3063C35.0359 12.4966 33.5173 11.0791 31.6951 11.009C30.7099 10.9715 29.7669 11.3195 29.0428 11.9899C28.3186 12.6603 27.899 13.5725 27.8611 14.5585C27.7828 16.5939 29.3755 18.3134 31.4114 18.3916C32.2042 18.4222 32.9707 18.2027 33.6274 17.7574C33.7903 17.647 34.0118 17.6895 34.1222 17.8522C34.2327 18.015 34.1903 18.2366 34.0273 18.347C33.2918 18.8457 32.4412 19.1068 31.5571 19.1068Z" fill="#222433"/>
<path d="M42.97 19.0058C42.003 19.0058 40.9255 18.4715 40.5497 17.1929C40.4942 17.0041 40.6023 16.8062 40.7911 16.7508C40.98 16.6954 41.1779 16.8034 41.2333 16.9921C41.5376 18.0274 42.4826 18.383 43.2322 18.2751C43.8676 18.1836 44.6096 17.7133 44.6096 16.6882C44.6096 16.4915 44.769 16.332 44.9658 16.332C45.1626 16.332 45.3221 16.4915 45.3221 16.6882C45.3221 18.0739 44.3234 18.8378 43.3337 18.9802C43.2153 18.997 43.0935 19.0058 42.97 19.0058Z" fill="#222433"/>
<path d="M31.0642 16.0076C30.9326 16.0076 30.8061 15.9345 30.7441 15.8084C30.6573 15.6319 30.7301 15.4184 30.9067 15.3317L32.5364 14.531L29.7838 13.7843C29.5939 13.7328 29.4818 13.5371 29.5332 13.3473C29.5847 13.1574 29.7805 13.0452 29.9704 13.0967L33.6341 14.0907C33.7772 14.1295 33.8812 14.2528 33.8954 14.4003C33.9096 14.5478 33.831 14.6887 33.698 14.754L31.221 15.9709C31.1706 15.9959 31.117 16.0076 31.0642 16.0076Z" fill="#222433"/>
<path d="M115.786 115.123H0.213969C0.0927201 115.123 0 114.941 0 114.703C0 114.465 0.0927201 114.283 0.213969 114.283H115.786C115.907 114.283 116 114.465 116 114.703C116 114.941 115.907 115.123 115.786 115.123Z" fill="#222433"/>
<path d="M67.5702 51.3078H73.8834H104.814L107.693 32.4437C107.715 32.2985 107.726 32.1518 107.726 32.0049C107.726 30.3992 106.419 29.0975 104.808 29.0979H79.7798C78.3373 29.0971 77.1107 30.1471 76.894 31.5686L74.1958 49.2597H67.7774L67.5702 51.3078Z" fill="white"/>
<path d="M67.5704 51.6699H104.814C104.994 51.6699 105.147 51.5392 105.174 51.3623L108.052 32.4982C108.077 32.3356 108.09 32.1696 108.09 32.0049C108.089 31.1316 107.748 30.3105 107.128 29.6931C106.509 29.0759 105.685 28.7358 104.809 28.7358C104.809 28.7358 104.809 28.7358 104.808 28.7358H79.7802C79.7796 28.7358 79.7789 28.7358 79.7782 28.7358C78.1445 28.7358 76.7807 29.904 76.5351 31.5142L73.8837 48.8975H67.7776C67.591 48.8975 67.4348 49.0383 67.4161 49.2232L67.209 51.2714C67.1987 51.3733 67.2321 51.4746 67.3011 51.5506C67.3698 51.6266 67.4677 51.6699 67.5704 51.6699ZM104.502 50.9457H67.9721L68.106 49.6218H74.1959C74.3755 49.6218 74.5281 49.4911 74.5551 49.3141L77.2534 31.6231C77.4445 30.3695 78.5064 29.46 79.7784 29.46C79.7789 29.46 79.7792 29.46 79.7798 29.46H104.808C104.808 29.46 104.809 29.46 104.809 29.46C105.491 29.46 106.132 29.7246 106.615 30.2052C107.097 30.6859 107.363 31.3251 107.363 32.005C107.363 32.1333 107.353 32.2624 107.334 32.389L104.502 50.9457Z" fill="#222433"/>
<path d="M90.0943 43.0219C89.3237 42.277 89.4315 40.9205 90.335 39.9923C91.2385 39.064 92.5955 38.9154 93.366 39.6604C94.1366 40.4054 94.0288 41.7618 93.1254 42.6901C92.2219 43.6183 90.8648 43.7669 90.0943 43.0219Z" fill="#9AE2E0"/>
<path d="M100.066 24.6102C100.066 24.5352 100.09 24.4621 100.134 24.4013L104.344 18.5436C104.371 18.5041 104.405 18.4704 104.446 18.4445C104.486 18.4186 104.531 18.401 104.579 18.3927C104.626 18.3844 104.674 18.3855 104.721 18.3961C104.768 18.4067 104.812 18.4265 104.851 18.4543C104.89 18.4821 104.923 18.5174 104.949 18.5581C104.974 18.5988 104.991 18.6441 104.998 18.6914C105.005 18.7386 105.003 18.7869 104.992 18.8333C104.98 18.8797 104.959 18.9233 104.93 18.9616L100.721 24.8193C100.676 24.8812 100.613 24.9275 100.54 24.9514C100.468 24.9753 100.39 24.9757 100.317 24.9524C100.244 24.9292 100.181 24.8835 100.135 24.822C100.09 24.7605 100.066 24.6863 100.066 24.6102Z" fill="#222433"/>
<path d="M81.266 18.9801C81.2658 18.8985 81.2935 18.8193 81.3445 18.7554C81.3956 18.6916 81.4669 18.647 81.5467 18.6288C81.6266 18.6107 81.7103 18.6202 81.784 18.6557C81.8578 18.6913 81.9172 18.7507 81.9525 18.8243L85.0798 25.3289C85.1212 25.4149 85.1265 25.5137 85.0947 25.6036C85.0629 25.6935 84.9966 25.7671 84.9102 25.8083C84.8239 25.8495 84.7247 25.8548 84.6344 25.8231C84.5441 25.7915 84.4702 25.7254 84.4289 25.6394L81.3015 19.1348C81.2782 19.0865 81.2661 19.0337 81.266 18.9801Z" fill="#222433"/>
<path d="M92.8012 15.4343C92.7984 15.339 92.8337 15.2465 92.8994 15.1771C92.9651 15.1077 93.0557 15.0672 93.1514 15.0644C93.2471 15.0616 93.34 15.0967 93.4097 15.1621C93.4794 15.2275 93.5201 15.3178 93.5229 15.4131L93.956 22.6005C93.9592 22.6478 93.953 22.6953 93.9377 22.7402C93.9224 22.7852 93.8984 22.8266 93.8669 22.8622C93.8354 22.8979 93.7972 22.9269 93.7544 22.9478C93.7116 22.9686 93.6651 22.9808 93.6176 22.9836C93.57 22.9865 93.5224 22.9799 93.4774 22.9643C93.4324 22.9488 93.391 22.9245 93.3555 22.8929C93.32 22.8612 93.2911 22.8229 93.2705 22.7802C93.2499 22.7374 93.2381 22.691 93.2356 22.6436L92.8026 15.4563C92.8017 15.4487 92.8012 15.4414 92.8012 15.4343Z" fill="#222433"/>
</svg>
