<svg xmlns="http://www.w3.org/2000/svg" xmlns:xlink="http://www.w3.org/1999/xlink" width="1200" zoomAndPan="magnify" viewBox="0 0 900 899.99999" height="1200" preserveAspectRatio="xMidYMid meet" version="1.2"><defs><clipPath id="b240a84d65"><path d="M 368.980469 451 L 899.980469 451 L 899.980469 824 L 368.980469 824 Z M 368.980469 451 "/></clipPath></defs><g id="618c49e7bc"><path style=" stroke:none;fill-rule:nonzero;fill:#113c7b;fill-opacity:1;" d="M 334.320312 498.359375 C 331.839844 500.144531 329.152344 501.523438 326.25 502.488281 C 323.351562 503.453125 320.375 503.96875 317.320312 504.023438 C 316.457031 504.046875 315.601562 504.152344 314.757812 504.34375 C 313.914062 504.535156 313.097656 504.804688 312.304688 505.15625 C 311.515625 505.507812 310.765625 505.933594 310.058594 506.433594 C 309.355469 506.933594 308.703125 507.496094 308.105469 508.121094 C 307.511719 508.75 306.980469 509.429688 306.519531 510.160156 C 306.058594 510.890625 305.671875 511.660156 305.359375 512.46875 C 305.050781 513.273438 304.820312 514.105469 304.671875 514.957031 C 304.527344 515.808594 304.460938 516.667969 304.484375 517.53125 C 304.507812 518.398438 304.613281 519.25 304.800781 520.09375 C 304.992188 520.9375 305.261719 521.757812 305.613281 522.546875 C 305.964844 523.335938 306.386719 524.085938 306.886719 524.792969 C 307.382812 525.5 307.945312 526.152344 308.574219 526.75 C 309.199219 527.34375 309.878906 527.875 310.609375 528.339844 C 311.339844 528.800781 312.109375 529.1875 312.914062 529.5 C 313.722656 529.8125 314.550781 530.042969 315.402344 530.1875 C 316.253906 530.335938 317.113281 530.402344 317.980469 530.378906 C 320.882812 530.300781 323.757812 529.992188 326.609375 529.453125 C 329.464844 528.914062 332.257812 528.152344 334.988281 527.164062 C 337.71875 526.179688 340.355469 524.984375 342.894531 523.578125 C 345.433594 522.171875 347.847656 520.574219 350.132812 518.785156 C 351.605469 517.660156 353.011719 516.457031 354.34375 515.171875 C 355.679688 513.882812 356.933594 512.523438 358.109375 511.09375 C 359.285156 509.660156 360.375 508.164062 361.378906 506.605469 C 362.378906 505.046875 363.289062 503.4375 364.101562 501.773438 C 364.917969 500.109375 365.632812 498.402344 366.25 496.65625 C 366.867188 494.90625 367.382812 493.128906 367.792969 491.324219 C 368.203125 489.515625 368.507812 487.691406 368.703125 485.847656 C 368.902344 484.007812 368.992188 482.15625 368.976562 480.304688 L 368.976562 330.871094 C 368.980469 329.21875 368.941406 327.566406 368.859375 325.914062 C 368.78125 324.265625 368.664062 322.617188 368.503906 320.972656 C 368.34375 319.328125 368.140625 317.6875 367.902344 316.050781 C 367.660156 314.417969 367.378906 312.789062 367.058594 311.167969 C 366.738281 309.546875 366.378906 307.933594 365.976562 306.332031 C 365.578125 304.726562 365.136719 303.136719 364.660156 301.554688 C 364.179688 299.972656 363.664062 298.402344 363.109375 296.847656 C 362.554688 295.289062 361.960938 293.746094 361.328125 292.21875 C 360.695312 290.691406 360.027344 289.183594 359.324219 287.6875 C 358.617188 286.195312 357.875 284.71875 357.097656 283.261719 C 356.316406 281.800781 355.503906 280.363281 354.65625 278.945312 C 353.804688 277.527344 352.921875 276.132812 352.003906 274.757812 C 351.085938 273.382812 350.136719 272.03125 349.152344 270.707031 C 348.167969 269.378906 347.152344 268.074219 346.105469 266.796875 C 345.054688 265.519531 343.976562 264.269531 342.867188 263.042969 C 341.757812 261.820312 340.617188 260.625 339.449219 259.453125 C 338.28125 258.285156 337.085938 257.148438 335.859375 256.039062 C 334.636719 254.925781 333.382812 253.847656 332.105469 252.800781 C 330.828125 251.753906 329.527344 250.734375 328.199219 249.753906 C 326.871094 248.769531 325.519531 247.816406 324.144531 246.898438 C 322.773438 245.980469 321.375 245.097656 319.957031 244.25 C 318.539062 243.398438 317.101562 242.585938 315.644531 241.808594 C 314.1875 241.03125 312.710938 240.289062 311.214844 239.582031 C 309.722656 238.875 308.210938 238.207031 306.683594 237.578125 C 305.15625 236.945312 303.617188 236.351562 302.058594 235.796875 C 300.503906 235.242188 298.933594 234.722656 297.351562 234.246094 C 295.769531 233.765625 294.175781 233.328125 292.574219 232.925781 C 290.96875 232.527344 289.359375 232.167969 287.738281 231.847656 C 286.117188 231.523438 284.488281 231.246094 282.851562 231.003906 C 281.21875 230.761719 279.578125 230.5625 277.933594 230.402344 C 276.289062 230.242188 274.640625 230.121094 272.988281 230.042969 C 271.339844 229.964844 269.6875 229.925781 268.035156 229.929688 L 260.128906 229.929688 C 260.929688 228.78125 261.699219 227.621094 262.449219 226.4375 C 263.195312 225.257812 263.914062 224.0625 264.605469 222.847656 C 265.296875 221.636719 265.960938 220.40625 266.597656 219.164062 C 267.234375 217.921875 267.84375 216.664062 268.421875 215.390625 C 269.003906 214.121094 269.554688 212.835938 270.074219 211.542969 C 270.59375 210.246094 271.085938 208.9375 271.546875 207.621094 C 272.007812 206.300781 272.441406 204.972656 272.84375 203.636719 C 273.242188 202.296875 273.613281 200.953125 273.953125 199.597656 C 274.296875 198.242188 274.605469 196.878906 274.882812 195.511719 C 275.160156 194.144531 275.40625 192.769531 275.625 191.386719 C 275.839844 190.007812 276.023438 188.625 276.175781 187.234375 C 276.332031 185.847656 276.453125 184.457031 276.542969 183.0625 C 276.632812 181.667969 276.691406 180.273438 276.714844 178.875 C 276.742188 177.480469 276.738281 176.082031 276.699219 174.6875 C 276.664062 173.289062 276.59375 171.894531 276.492188 170.503906 C 276.394531 169.109375 276.261719 167.71875 276.097656 166.332031 C 275.933594 164.945312 275.738281 163.5625 275.511719 162.183594 C 275.285156 160.804688 275.03125 159.433594 274.742188 158.066406 C 274.453125 156.699219 274.132812 155.339844 273.78125 153.988281 C 273.429688 152.636719 273.050781 151.292969 272.640625 149.957031 C 272.226562 148.621094 271.785156 147.296875 271.3125 145.984375 C 270.84375 144.667969 270.339844 143.363281 269.8125 142.074219 C 269.28125 140.78125 268.71875 139.5 268.128906 138.234375 C 267.542969 136.96875 266.925781 135.714844 266.277344 134.476562 C 265.632812 133.238281 264.957031 132.015625 264.257812 130.808594 C 263.554688 129.597656 262.828125 128.40625 262.070312 127.234375 C 261.316406 126.058594 260.535156 124.902344 259.726562 123.761719 C 258.917969 122.621094 258.085938 121.503906 257.226562 120.402344 C 256.367188 119.300781 255.484375 118.21875 254.574219 117.15625 C 253.667969 116.09375 252.734375 115.054688 251.777344 114.035156 C 250.824219 113.015625 249.84375 112.019531 248.84375 111.046875 C 247.84375 110.070312 246.820312 109.121094 245.777344 108.191406 C 244.734375 107.265625 243.667969 106.359375 242.585938 105.480469 C 241.5 104.601562 240.394531 103.746094 239.269531 102.917969 C 238.148438 102.085938 237.003906 101.285156 235.84375 100.503906 C 234.683594 99.726562 233.507812 98.976562 232.3125 98.253906 C 231.117188 97.527344 229.910156 96.832031 228.683594 96.164062 C 227.457031 95.492188 226.214844 94.851562 224.960938 94.238281 C 223.707031 93.625 222.4375 93.042969 221.15625 92.488281 C 219.875 91.933594 218.578125 91.40625 217.273438 90.910156 C 215.96875 90.414062 214.652344 89.945312 213.324219 89.511719 C 212 89.074219 210.664062 88.667969 209.316406 88.292969 C 207.972656 87.914062 206.617188 87.570312 205.257812 87.253906 C 203.898438 86.941406 202.527344 86.65625 201.15625 86.40625 C 199.78125 86.152344 198.402344 85.933594 197.019531 85.742188 C 195.636719 85.550781 194.246094 85.394531 192.855469 85.265625 C 191.464844 85.140625 190.070312 85.046875 188.675781 84.980469 C 187.28125 84.917969 185.886719 84.886719 184.488281 84.886719 C 183.089844 84.886719 181.695312 84.917969 180.300781 84.980469 C 178.90625 85.046875 177.511719 85.140625 176.121094 85.265625 C 174.730469 85.394531 173.339844 85.550781 171.957031 85.742188 C 170.574219 85.933594 169.195312 86.152344 167.820312 86.40625 C 166.449219 86.65625 165.078125 86.941406 163.71875 87.253906 C 162.359375 87.570312 161.003906 87.914062 159.660156 88.292969 C 158.316406 88.667969 156.976562 89.074219 155.652344 89.511719 C 154.324219 89.945312 153.007812 90.414062 151.703125 90.910156 C 150.398438 91.40625 149.105469 91.933594 147.820312 92.488281 C 146.539062 93.042969 145.273438 93.625 144.015625 94.238281 C 142.761719 94.851562 141.519531 95.492188 140.292969 96.164062 C 139.070312 96.832031 137.859375 97.527344 136.664062 98.253906 C 135.46875 98.976562 134.292969 99.726562 133.132812 100.503906 C 131.972656 101.28125 130.828125 102.085938 129.707031 102.917969 C 128.582031 103.746094 127.476562 104.601562 126.390625 105.480469 C 125.308594 106.359375 124.242188 107.265625 123.199219 108.191406 C 122.15625 109.121094 121.132812 110.070312 120.132812 111.046875 C 119.132812 112.019531 118.152344 113.015625 117.199219 114.035156 C 116.242188 115.054688 115.308594 116.09375 114.402344 117.15625 C 113.492188 118.21875 112.609375 119.300781 111.75 120.402344 C 110.890625 121.503906 110.058594 122.621094 109.25 123.761719 C 108.441406 124.902344 107.660156 126.058594 106.90625 127.234375 C 106.148438 128.40625 105.421875 129.597656 104.71875 130.808594 C 104.019531 132.015625 103.34375 133.238281 102.699219 134.476562 C 102.050781 135.714844 101.433594 136.96875 100.847656 138.234375 C 100.257812 139.5 99.695312 140.78125 99.167969 142.074219 C 98.636719 143.363281 98.132812 144.667969 97.664062 145.984375 C 97.191406 147.296875 96.75 148.621094 96.335938 149.957031 C 95.925781 151.292969 95.546875 152.636719 95.195312 153.988281 C 94.84375 155.339844 94.523438 156.699219 94.234375 158.066406 C 93.945312 159.433594 93.691406 160.804688 93.464844 162.183594 C 93.238281 163.5625 93.042969 164.945312 92.878906 166.332031 C 92.714844 167.71875 92.582031 169.109375 92.484375 170.503906 C 92.382812 171.894531 92.3125 173.289062 92.277344 174.6875 C 92.238281 176.082031 92.234375 177.480469 92.261719 178.875 C 92.285156 180.273438 92.34375 181.667969 92.433594 183.0625 C 92.523438 184.457031 92.644531 185.847656 92.800781 187.234375 C 92.953125 188.625 93.136719 190.007812 93.351562 191.386719 C 93.570312 192.769531 93.816406 194.144531 94.09375 195.511719 C 94.371094 196.878906 94.679688 198.242188 95.023438 199.597656 C 95.363281 200.953125 95.734375 202.296875 96.132812 203.636719 C 96.535156 204.972656 96.96875 206.300781 97.429688 207.621094 C 97.890625 208.9375 98.382812 210.246094 98.902344 211.542969 C 99.425781 212.835938 99.972656 214.121094 100.554688 215.390625 C 101.132812 216.664062 101.742188 217.921875 102.378906 219.164062 C 103.015625 220.40625 103.679688 221.636719 104.371094 222.847656 C 105.0625 224.0625 105.78125 225.257812 106.527344 226.4375 C 107.277344 227.621094 108.046875 228.78125 108.847656 229.929688 L 100.941406 229.929688 C 99.289062 229.925781 97.636719 229.964844 95.988281 230.042969 C 94.335938 230.121094 92.6875 230.242188 91.042969 230.402344 C 89.398438 230.5625 87.757812 230.761719 86.125 231.003906 C 84.488281 231.246094 82.859375 231.523438 81.238281 231.847656 C 79.617188 232.167969 78.007812 232.527344 76.402344 232.925781 C 74.800781 233.328125 73.207031 233.765625 71.625 234.246094 C 70.042969 234.722656 68.472656 235.242188 66.917969 235.796875 C 65.359375 236.351562 63.820312 236.945312 62.292969 237.578125 C 60.765625 238.207031 59.253906 238.875 57.761719 239.582031 C 56.265625 240.289062 54.789062 241.03125 53.332031 241.808594 C 51.875 242.585938 50.4375 243.398438 49.019531 244.25 C 47.601562 245.097656 46.203125 245.980469 44.832031 246.898438 C 43.457031 247.816406 42.105469 248.769531 40.777344 249.753906 C 39.449219 250.734375 38.148438 251.753906 36.871094 252.800781 C 35.589844 253.847656 34.339844 254.925781 33.117188 256.039062 C 31.890625 257.148438 30.695312 258.285156 29.527344 259.453125 C 28.359375 260.625 27.21875 261.820312 26.109375 263.042969 C 25 264.269531 23.921875 265.519531 22.871094 266.796875 C 21.824219 268.074219 20.808594 269.378906 19.824219 270.707031 C 18.839844 272.03125 17.890625 273.382812 16.972656 274.757812 C 16.054688 276.132812 15.171875 277.527344 14.320312 278.945312 C 13.472656 280.363281 12.660156 281.800781 11.878906 283.261719 C 11.101562 284.71875 10.359375 286.195312 9.652344 287.6875 C 8.949219 289.183594 8.28125 290.691406 7.648438 292.21875 C 7.015625 293.746094 6.421875 295.289062 5.867188 296.847656 C 5.3125 298.402344 4.796875 299.972656 4.316406 301.554688 C 3.839844 303.136719 3.398438 304.726562 3 306.332031 C 2.597656 307.933594 2.238281 309.546875 1.917969 311.167969 C 1.597656 312.789062 1.316406 314.417969 1.074219 316.050781 C 0.835938 317.6875 0.632812 319.328125 0.472656 320.972656 C 0.3125 322.617188 0.195312 324.265625 0.117188 325.914062 C 0.0351562 327.566406 -0.00390625 329.21875 0 330.871094 L 0 480.304688 C 0.00390625 481.75 0.0703125 483.191406 0.191406 484.632812 C 0.316406 486.070312 0.496094 487.503906 0.738281 488.925781 C 0.980469 490.351562 1.277344 491.765625 1.636719 493.164062 C 1.992188 494.5625 2.40625 495.945312 2.878906 497.3125 C 3.347656 498.679688 3.875 500.023438 4.457031 501.34375 C 5.039062 502.667969 5.671875 503.964844 6.359375 505.234375 C 7.046875 506.503906 7.785156 507.746094 8.578125 508.953125 C 9.367188 510.164062 10.203125 511.339844 11.089844 512.480469 C 11.976562 513.621094 12.910156 514.722656 13.886719 515.789062 C 14.863281 516.851562 15.882812 517.875 16.945312 518.855469 C 18.007812 519.835938 19.105469 520.769531 20.242188 521.660156 C 21.382812 522.550781 22.554688 523.390625 23.761719 524.183594 C 24.96875 524.976562 26.207031 525.71875 27.476562 526.410156 C 28.746094 527.105469 30.039062 527.742188 31.359375 528.328125 C 32.679688 528.914062 34.023438 529.441406 35.386719 529.917969 C 36.753906 530.390625 38.132812 530.808594 39.535156 531.171875 C 39.535156 531.171875 39.535156 533.015625 39.535156 533.015625 L 39.535156 809.75 C 39.53125 810.613281 39.617188 811.46875 39.785156 812.320312 C 39.957031 813.167969 40.207031 813.992188 40.535156 814.792969 C 40.867188 815.589844 41.273438 816.351562 41.753906 817.070312 C 42.234375 817.789062 42.78125 818.453125 43.394531 819.066406 C 44.003906 819.679688 44.671875 820.222656 45.390625 820.707031 C 46.109375 821.1875 46.867188 821.59375 47.667969 821.921875 C 48.46875 822.253906 49.292969 822.503906 50.140625 822.671875 C 50.988281 822.839844 51.84375 822.925781 52.710938 822.925781 C 53.578125 822.925781 54.433594 822.839844 55.28125 822.671875 C 56.128906 822.503906 56.953125 822.253906 57.753906 821.921875 C 58.554688 821.59375 59.3125 821.1875 60.03125 820.707031 C 60.75 820.222656 61.417969 819.679688 62.027344 819.066406 C 62.640625 818.453125 63.1875 817.789062 63.667969 817.070312 C 64.148438 816.351562 64.554688 815.589844 64.886719 814.792969 C 65.214844 813.992188 65.464844 813.167969 65.636719 812.320312 C 65.804688 811.46875 65.886719 810.613281 65.890625 809.75 L 65.890625 533.015625 C 65.894531 531.871094 65.976562 530.730469 66.132812 529.597656 C 66.289062 528.460938 66.515625 527.34375 66.816406 526.238281 C 67.117188 525.132812 67.492188 524.054688 67.933594 522.996094 C 68.375 521.941406 68.882812 520.917969 69.460938 519.929688 C 70.035156 518.9375 70.671875 517.988281 71.371094 517.082031 C 72.070312 516.175781 72.824219 515.320312 73.636719 514.511719 C 74.445312 513.703125 75.308594 512.949219 76.214844 512.253906 C 77.125 511.558594 78.074219 510.921875 79.066406 510.351562 L 79.066406 764.285156 C 79.074219 766.21875 79.179688 768.144531 79.375 770.066406 C 79.574219 771.988281 79.867188 773.894531 80.253906 775.789062 C 80.636719 777.679688 81.117188 779.550781 81.6875 781.398438 C 82.257812 783.242188 82.914062 785.054688 83.664062 786.835938 C 84.410156 788.617188 85.246094 790.359375 86.164062 792.058594 C 87.085938 793.757812 88.085938 795.40625 89.167969 797.007812 C 90.25 798.609375 91.40625 800.152344 92.640625 801.640625 C 93.875 803.125 95.179688 804.546875 96.550781 805.90625 C 97.925781 807.265625 99.363281 808.554688 100.863281 809.769531 C 102.363281 810.988281 103.921875 812.128906 105.53125 813.191406 C 107.144531 814.253906 108.804688 815.238281 110.515625 816.136719 C 112.226562 817.039062 113.972656 817.851562 115.765625 818.582031 C 117.554688 819.308594 119.375 819.949219 121.226562 820.496094 C 123.078125 821.046875 124.953125 821.503906 126.851562 821.867188 C 128.746094 822.234375 130.660156 822.503906 132.582031 822.679688 C 134.507812 822.855469 136.433594 822.9375 138.367188 822.925781 C 140.574219 822.917969 142.777344 822.789062 144.972656 822.535156 C 147.164062 822.28125 149.339844 821.90625 151.492188 821.410156 C 153.644531 820.914062 155.761719 820.300781 157.847656 819.566406 C 159.929688 818.835938 161.964844 817.988281 163.957031 817.027344 C 165.945312 816.066406 167.875 815 169.742188 813.824219 C 171.613281 812.644531 173.414062 811.371094 175.140625 809.992188 C 176.867188 808.617188 178.511719 807.144531 180.074219 805.585938 C 181.636719 804.023438 183.109375 802.382812 184.488281 800.65625 C 185.867188 802.382812 187.339844 804.023438 188.902344 805.585938 C 190.464844 807.144531 192.109375 808.617188 193.835938 809.992188 C 195.5625 811.371094 197.363281 812.644531 199.234375 813.824219 C 201.101562 815 203.03125 816.066406 205.019531 817.027344 C 207.011719 817.988281 209.046875 818.835938 211.128906 819.566406 C 213.214844 820.300781 215.332031 820.914062 217.484375 821.410156 C 219.636719 821.90625 221.8125 822.28125 224.003906 822.535156 C 226.199219 822.789062 228.402344 822.917969 230.609375 822.925781 C 232.542969 822.9375 234.46875 822.855469 236.394531 822.679688 C 238.316406 822.503906 240.230469 822.234375 242.125 821.867188 C 244.023438 821.503906 245.898438 821.046875 247.75 820.496094 C 249.601562 819.949219 251.421875 819.308594 253.210938 818.582031 C 255.003906 817.851562 256.75 817.039062 258.460938 816.136719 C 260.171875 815.238281 261.832031 814.253906 263.445312 813.191406 C 265.054688 812.128906 266.613281 810.988281 268.113281 809.769531 C 269.613281 808.554688 271.050781 807.265625 272.425781 805.90625 C 273.796875 804.546875 275.101562 803.125 276.335938 801.640625 C 277.570312 800.152344 278.726562 798.609375 279.808594 797.007812 C 280.890625 795.40625 281.890625 793.757812 282.8125 792.058594 C 283.730469 790.359375 284.566406 788.617188 285.3125 786.835938 C 286.0625 785.054688 286.71875 783.242188 287.289062 781.398438 C 287.859375 779.550781 288.339844 777.679688 288.722656 775.789062 C 289.109375 773.894531 289.402344 771.988281 289.601562 770.066406 C 289.796875 768.144531 289.902344 766.21875 289.910156 764.285156 L 289.910156 388.0625 C 289.910156 387.195312 289.824219 386.339844 289.65625 385.488281 C 289.488281 384.640625 289.238281 383.816406 288.90625 383.019531 C 288.574219 382.21875 288.171875 381.460938 287.6875 380.738281 C 287.207031 380.019531 286.664062 379.355469 286.050781 378.742188 C 285.4375 378.132812 284.773438 377.585938 284.054688 377.105469 C 283.335938 376.625 282.574219 376.21875 281.773438 375.886719 C 280.976562 375.554688 280.152344 375.304688 279.304688 375.136719 C 278.453125 374.96875 277.597656 374.882812 276.730469 374.882812 C 275.867188 374.882812 275.011719 374.96875 274.160156 375.136719 C 273.3125 375.304688 272.488281 375.554688 271.6875 375.886719 C 270.890625 376.21875 270.128906 376.625 269.410156 377.105469 C 268.691406 377.585938 268.027344 378.132812 267.414062 378.742188 C 266.800781 379.355469 266.257812 380.019531 265.777344 380.738281 C 265.292969 381.460938 264.890625 382.21875 264.558594 383.019531 C 264.226562 383.816406 263.976562 384.640625 263.808594 385.488281 C 263.640625 386.339844 263.554688 387.195312 263.554688 388.0625 L 263.554688 764.285156 C 263.5625 766.417969 263.355469 768.527344 262.933594 770.617188 C 262.507812 772.707031 261.875 774.734375 261.039062 776.691406 C 260.199219 778.652344 259.171875 780.507812 257.953125 782.257812 C 256.734375 784.007812 255.351562 785.617188 253.804688 787.082031 C 252.285156 788.609375 250.632812 789.96875 248.84375 791.164062 C 247.050781 792.359375 245.160156 793.363281 243.167969 794.179688 C 241.175781 794.992188 239.125 795.601562 237.007812 796.003906 C 234.894531 796.40625 232.761719 796.597656 230.609375 796.570312 C 229.542969 796.578125 228.476562 796.535156 227.414062 796.441406 C 226.351562 796.34375 225.292969 796.195312 224.246094 795.996094 C 223.195312 795.796875 222.160156 795.546875 221.136719 795.246094 C 220.109375 794.945312 219.105469 794.597656 218.113281 794.195312 C 217.125 793.796875 216.15625 793.351562 215.210938 792.855469 C 214.261719 792.363281 213.34375 791.820312 212.449219 791.238281 C 211.554688 790.652344 210.695312 790.027344 209.863281 789.355469 C 209.03125 788.6875 208.234375 787.980469 207.46875 787.230469 C 206.707031 786.484375 205.984375 785.703125 205.296875 784.882812 C 204.613281 784.066406 203.96875 783.214844 203.363281 782.335938 C 202.761719 781.453125 202.203125 780.542969 201.691406 779.609375 C 201.175781 778.671875 200.710938 777.714844 200.292969 776.730469 C 199.871094 775.75 199.5 774.75 199.179688 773.730469 C 198.859375 772.714844 198.589844 771.683594 198.367188 770.636719 C 198.148438 769.59375 197.976562 768.539062 197.859375 767.476562 C 197.742188 766.417969 197.679688 765.351562 197.664062 764.285156 L 197.664062 546.195312 C 197.664062 545.328125 197.582031 544.472656 197.414062 543.621094 C 197.242188 542.773438 196.992188 541.949219 196.664062 541.152344 C 196.332031 540.351562 195.925781 539.59375 195.445312 538.871094 C 194.964844 538.152344 194.417969 537.488281 193.804688 536.875 C 193.195312 536.265625 192.527344 535.71875 191.808594 535.238281 C 191.089844 534.757812 190.332031 534.351562 189.53125 534.019531 C 188.730469 533.6875 187.90625 533.4375 187.058594 533.269531 C 186.210938 533.101562 185.355469 533.015625 184.488281 533.015625 C 183.621094 533.015625 182.765625 533.101562 181.917969 533.269531 C 181.070312 533.4375 180.246094 533.6875 179.445312 534.019531 C 178.644531 534.351562 177.886719 534.757812 177.167969 535.238281 C 176.449219 535.71875 175.78125 536.265625 175.171875 536.875 C 174.558594 537.488281 174.011719 538.152344 173.53125 538.871094 C 173.050781 539.59375 172.644531 540.351562 172.3125 541.152344 C 171.984375 541.949219 171.734375 542.773438 171.5625 543.621094 C 171.394531 544.472656 171.308594 545.328125 171.308594 546.195312 L 171.308594 764.285156 C 171.296875 765.351562 171.234375 766.417969 171.117188 767.476562 C 171 768.539062 170.828125 769.59375 170.609375 770.636719 C 170.386719 771.683594 170.117188 772.714844 169.796875 773.730469 C 169.476562 774.75 169.105469 775.75 168.683594 776.730469 C 168.265625 777.714844 167.800781 778.671875 167.285156 779.609375 C 166.773438 780.542969 166.214844 781.453125 165.613281 782.335938 C 165.007812 783.214844 164.363281 784.066406 163.679688 784.882812 C 162.992188 785.703125 162.269531 786.484375 161.507812 787.230469 C 160.742188 787.980469 159.945312 788.6875 159.113281 789.355469 C 158.28125 790.027344 157.421875 790.652344 156.527344 791.238281 C 155.632812 791.820312 154.714844 792.363281 153.765625 792.855469 C 152.820312 793.351562 151.851562 793.796875 150.863281 794.195312 C 149.871094 794.597656 148.867188 794.945312 147.839844 795.246094 C 146.816406 795.546875 145.78125 795.796875 144.730469 795.996094 C 143.683594 796.195312 142.625 796.34375 141.5625 796.441406 C 140.5 796.535156 139.433594 796.578125 138.367188 796.570312 C 136.199219 796.59375 134.050781 796.398438 131.921875 795.988281 C 129.792969 795.578125 127.730469 794.960938 125.726562 794.132812 C 123.722656 793.308594 121.820312 792.289062 120.023438 791.082031 C 118.222656 789.871094 116.5625 788.496094 115.042969 786.949219 C 113.511719 785.488281 112.144531 783.886719 110.9375 782.144531 C 109.734375 780.40625 108.71875 778.558594 107.894531 776.609375 C 107.066406 774.660156 106.445312 772.648438 106.027344 770.574219 C 105.613281 768.5 105.410156 766.402344 105.421875 764.285156 L 105.421875 510.351562 C 106.414062 510.921875 107.363281 511.558594 108.273438 512.253906 C 109.179688 512.949219 110.042969 513.703125 110.851562 514.511719 C 111.664062 515.320312 112.417969 516.175781 113.117188 517.082031 C 113.816406 517.988281 114.453125 518.9375 115.027344 519.929688 C 115.605469 520.917969 116.113281 521.941406 116.554688 522.996094 C 116.996094 524.054688 117.371094 525.132812 117.671875 526.238281 C 117.972656 527.34375 118.199219 528.460938 118.355469 529.597656 C 118.511719 530.730469 118.59375 531.871094 118.601562 533.015625 C 118.597656 533.882812 118.683594 534.738281 118.851562 535.585938 C 119.023438 536.433594 119.273438 537.257812 119.601562 538.058594 C 119.933594 538.859375 120.339844 539.617188 120.820312 540.335938 C 121.300781 541.054688 121.847656 541.722656 122.460938 542.335938 C 123.070312 542.945312 123.738281 543.492188 124.457031 543.972656 C 125.175781 544.453125 125.933594 544.859375 126.734375 545.191406 C 127.535156 545.523438 128.359375 545.773438 129.207031 545.941406 C 130.054688 546.109375 130.910156 546.195312 131.777344 546.195312 C 132.644531 546.195312 133.5 546.109375 134.347656 545.941406 C 135.195312 545.773438 136.019531 545.523438 136.820312 545.191406 C 137.621094 544.859375 138.378906 544.453125 139.097656 543.972656 C 139.816406 543.492188 140.484375 542.945312 141.09375 542.335938 C 141.707031 541.722656 142.253906 541.054688 142.734375 540.335938 C 143.214844 539.617188 143.621094 538.859375 143.953125 538.058594 C 144.28125 537.257812 144.53125 536.433594 144.703125 535.585938 C 144.871094 534.738281 144.953125 533.882812 144.953125 533.015625 C 144.949219 531.570312 144.886719 530.128906 144.761719 528.691406 C 144.640625 527.25 144.457031 525.816406 144.214844 524.394531 C 143.976562 522.96875 143.675781 521.558594 143.320312 520.15625 C 142.960938 518.757812 142.546875 517.375 142.078125 516.007812 C 141.605469 514.644531 141.082031 513.296875 140.5 511.976562 C 139.917969 510.652344 139.28125 509.355469 138.59375 508.085938 C 137.90625 506.816406 137.167969 505.574219 136.378906 504.367188 C 135.589844 503.15625 134.75 501.980469 133.863281 500.839844 C 132.976562 499.699219 132.046875 498.597656 131.066406 497.535156 C 130.089844 496.46875 129.070312 495.449219 128.011719 494.46875 C 126.949219 493.488281 125.847656 492.550781 124.710938 491.660156 C 123.574219 490.773438 122.398438 489.929688 121.191406 489.136719 C 119.984375 488.34375 118.746094 487.601562 117.480469 486.910156 C 116.210938 486.21875 114.914062 485.578125 113.59375 484.992188 C 112.273438 484.410156 110.929688 483.878906 109.566406 483.402344 C 108.203125 482.929688 106.820312 482.511719 105.421875 482.148438 L 105.421875 388.0625 C 105.421875 387.195312 105.335938 386.339844 105.167969 385.488281 C 105 384.640625 104.75 383.816406 104.417969 383.019531 C 104.085938 382.21875 103.683594 381.460938 103.199219 380.738281 C 102.71875 380.019531 102.175781 379.355469 101.5625 378.742188 C 100.949219 378.132812 100.285156 377.585938 99.566406 377.105469 C 98.847656 376.625 98.085938 376.21875 97.285156 375.886719 C 96.488281 375.554688 95.664062 375.304688 94.816406 375.136719 C 93.964844 374.96875 93.109375 374.882812 92.246094 374.882812 C 91.378906 374.882812 90.523438 374.96875 89.671875 375.136719 C 88.824219 375.304688 88 375.554688 87.203125 375.886719 C 86.402344 376.21875 85.640625 376.625 84.921875 377.105469 C 84.203125 377.585938 83.539062 378.132812 82.925781 378.742188 C 82.3125 379.355469 81.769531 380.019531 81.289062 380.738281 C 80.804688 381.460938 80.402344 382.21875 80.070312 383.019531 C 79.738281 383.816406 79.488281 384.640625 79.320312 385.488281 C 79.152344 386.339844 79.066406 387.195312 79.066406 388.0625 L 79.066406 482.148438 C 75.734375 483.050781 72.523438 484.265625 69.433594 485.796875 C 66.339844 487.324219 63.425781 489.140625 60.691406 491.242188 C 57.957031 493.347656 55.453125 495.695312 53.175781 498.289062 C 50.902344 500.882812 48.902344 503.671875 47.175781 506.660156 C 42.601562 505.636719 38.5625 503.574219 35.054688 500.46875 C 33.644531 499.199219 32.390625 497.792969 31.285156 496.253906 C 30.183594 494.714844 29.253906 493.074219 28.503906 491.335938 C 27.753906 489.59375 27.199219 487.796875 26.835938 485.9375 C 26.472656 484.078125 26.3125 482.199219 26.355469 480.304688 L 26.355469 330.871094 C 26.351562 329.058594 26.414062 327.246094 26.542969 325.4375 C 26.671875 323.628906 26.867188 321.828125 27.128906 320.035156 C 27.386719 318.242188 27.714844 316.460938 28.105469 314.691406 C 28.496094 312.921875 28.953125 311.167969 29.472656 309.429688 C 29.992188 307.695312 30.574219 305.980469 31.21875 304.285156 C 31.863281 302.589844 32.566406 300.921875 33.335938 299.28125 C 34.101562 297.636719 34.925781 296.027344 35.8125 294.445312 C 36.695312 292.863281 37.636719 291.3125 38.636719 289.800781 C 39.632812 288.289062 40.6875 286.8125 41.792969 285.378906 C 42.898438 283.941406 44.054688 282.546875 45.261719 281.195312 C 46.472656 279.84375 47.726562 278.539062 49.03125 277.28125 C 50.332031 276.019531 51.679688 274.808594 53.074219 273.648438 C 54.464844 272.488281 55.898438 271.378906 57.371094 270.324219 C 58.84375 269.265625 60.355469 268.265625 61.898438 267.320312 C 63.445312 266.375 65.023438 265.484375 66.636719 264.65625 C 68.246094 263.824219 69.886719 263.054688 71.554688 262.34375 C 76.183594 260.300781 80.972656 258.769531 85.925781 257.746094 C 90.878906 256.726562 95.882812 256.238281 100.941406 256.285156 L 137.179688 256.285156 C 138.953125 257.355469 140.761719 258.367188 142.605469 259.316406 C 144.445312 260.265625 146.320312 261.148438 148.222656 261.972656 C 150.125 262.792969 152.054688 263.550781 154.007812 264.242188 C 155.960938 264.933594 157.9375 265.554688 159.933594 266.113281 C 161.929688 266.667969 163.941406 267.15625 165.972656 267.574219 C 168 267.996094 170.042969 268.347656 172.097656 268.625 C 174.148438 268.90625 176.210938 269.117188 178.277344 269.257812 C 180.34375 269.398438 182.414062 269.46875 184.488281 269.46875 C 186.5625 269.46875 188.632812 269.398438 190.699219 269.257812 C 192.765625 269.117188 194.828125 268.90625 196.878906 268.625 C 198.933594 268.347656 200.976562 267.996094 203.003906 267.574219 C 205.035156 267.15625 207.046875 266.667969 209.042969 266.113281 C 211.039062 265.554688 213.015625 264.933594 214.96875 264.242188 C 216.921875 263.550781 218.851562 262.792969 220.753906 261.972656 C 222.65625 261.148438 224.53125 260.265625 226.371094 259.316406 C 228.214844 258.367188 230.023438 257.355469 231.796875 256.285156 L 268.035156 256.285156 C 273.09375 256.238281 278.097656 256.726562 283.050781 257.746094 C 288.003906 258.769531 292.792969 260.300781 297.421875 262.34375 C 299.089844 263.054688 300.726562 263.824219 302.339844 264.65625 C 303.949219 265.484375 305.53125 266.375 307.078125 267.320312 C 308.621094 268.265625 310.132812 269.265625 311.605469 270.324219 C 313.078125 271.378906 314.511719 272.488281 315.902344 273.648438 C 317.296875 274.808594 318.644531 276.019531 319.945312 277.28125 C 321.25 278.539062 322.503906 279.84375 323.714844 281.195312 C 324.921875 282.546875 326.078125 283.941406 327.183594 285.378906 C 328.289062 286.8125 329.34375 288.289062 330.339844 289.800781 C 331.339844 291.3125 332.28125 292.863281 333.164062 294.445312 C 334.050781 296.027344 334.875 297.636719 335.640625 299.28125 C 336.410156 300.921875 337.113281 302.589844 337.757812 304.285156 C 338.402344 305.980469 338.984375 307.695312 339.503906 309.429688 C 340.023438 311.167969 340.480469 312.921875 340.871094 314.691406 C 341.261719 316.460938 341.589844 318.242188 341.847656 320.035156 C 342.109375 321.828125 342.304688 323.628906 342.433594 325.4375 C 342.5625 327.246094 342.625 329.058594 342.621094 330.871094 L 342.621094 480.304688 C 342.691406 482.03125 342.558594 483.742188 342.222656 485.433594 C 341.886719 487.128906 341.359375 488.761719 340.636719 490.328125 C 339.917969 491.898438 339.023438 493.359375 337.953125 494.71875 C 336.886719 496.074219 335.675781 497.289062 334.320312 498.359375 Z M 118.601562 177.21875 C 118.601562 176.140625 118.625 175.0625 118.679688 173.984375 C 118.730469 172.90625 118.8125 171.832031 118.917969 170.757812 C 119.023438 169.6875 119.15625 168.617188 119.3125 167.550781 C 119.472656 166.484375 119.65625 165.421875 119.867188 164.363281 C 120.074219 163.304688 120.3125 162.253906 120.574219 161.207031 C 120.835938 160.160156 121.125 159.121094 121.4375 158.089844 C 121.75 157.058594 122.085938 156.035156 122.449219 155.019531 C 122.8125 154.003906 123.203125 153 123.613281 152.003906 C 124.027344 151.007812 124.464844 150.019531 124.925781 149.046875 C 125.386719 148.070312 125.871094 147.109375 126.378906 146.15625 C 126.886719 145.207031 127.417969 144.269531 127.972656 143.34375 C 128.527344 142.417969 129.105469 141.507812 129.703125 140.613281 C 130.304688 139.714844 130.921875 138.832031 131.566406 137.96875 C 132.207031 137.101562 132.871094 136.25 133.554688 135.417969 C 134.238281 134.585938 134.945312 133.769531 135.667969 132.96875 C 136.390625 132.171875 137.136719 131.390625 137.898438 130.625 C 138.660156 129.863281 139.441406 129.121094 140.238281 128.398438 C 141.039062 127.671875 141.855469 126.96875 142.6875 126.285156 C 143.523438 125.601562 144.371094 124.9375 145.238281 124.296875 C 146.105469 123.652344 146.984375 123.03125 147.882812 122.433594 C 148.777344 121.832031 149.691406 121.257812 150.613281 120.703125 C 151.539062 120.148438 152.476562 119.617188 153.429688 119.109375 C 154.378906 118.601562 155.34375 118.117188 156.316406 117.65625 C 157.292969 117.195312 158.277344 116.757812 159.273438 116.34375 C 160.269531 115.929688 161.277344 115.542969 162.292969 115.179688 C 163.304688 114.816406 164.328125 114.480469 165.363281 114.164062 C 166.394531 113.851562 167.433594 113.566406 168.480469 113.304688 C 169.523438 113.042969 170.578125 112.804688 171.632812 112.59375 C 172.691406 112.382812 173.753906 112.199219 174.820312 112.042969 C 175.886719 111.882812 176.957031 111.75 178.03125 111.644531 C 179.101562 111.539062 180.179688 111.460938 181.253906 111.40625 C 182.332031 111.355469 183.410156 111.328125 184.488281 111.328125 C 185.566406 111.328125 186.644531 111.355469 187.722656 111.40625 C 188.796875 111.460938 189.875 111.539062 190.945312 111.644531 C 192.019531 111.75 193.089844 111.882812 194.15625 112.042969 C 195.222656 112.199219 196.285156 112.382812 197.34375 112.59375 C 198.398438 112.804688 199.453125 113.042969 200.496094 113.304688 C 201.542969 113.566406 202.582031 113.851562 203.613281 114.164062 C 204.648438 114.480469 205.671875 114.816406 206.683594 115.179688 C 207.699219 115.542969 208.707031 115.929688 209.703125 116.34375 C 210.699219 116.757812 211.683594 117.195312 212.660156 117.65625 C 213.632812 118.117188 214.597656 118.601562 215.546875 119.109375 C 216.5 119.617188 217.4375 120.148438 218.363281 120.703125 C 219.285156 121.257812 220.199219 121.832031 221.09375 122.433594 C 221.992188 123.03125 222.871094 123.652344 223.738281 124.296875 C 224.605469 124.9375 225.453125 125.601562 226.289062 126.285156 C 227.121094 126.96875 227.9375 127.671875 228.734375 128.398438 C 229.535156 129.121094 230.316406 129.863281 231.078125 130.625 C 231.839844 131.390625 232.585938 132.171875 233.308594 132.96875 C 234.03125 133.769531 234.738281 134.585938 235.421875 135.417969 C 236.105469 136.25 236.769531 137.101562 237.410156 137.96875 C 238.054688 138.832031 238.671875 139.714844 239.273438 140.613281 C 239.871094 141.507812 240.449219 142.417969 241.003906 143.34375 C 241.558594 144.269531 242.089844 145.207031 242.597656 146.15625 C 243.105469 147.109375 243.589844 148.070312 244.050781 149.046875 C 244.511719 150.019531 244.949219 151.007812 245.363281 152.003906 C 245.773438 153 246.160156 154.003906 246.523438 155.019531 C 246.886719 156.035156 247.226562 157.058594 247.539062 158.089844 C 247.851562 159.121094 248.140625 160.160156 248.402344 161.207031 C 248.664062 162.253906 248.902344 163.304688 249.109375 164.363281 C 249.320312 165.421875 249.503906 166.484375 249.664062 167.550781 C 249.820312 168.617188 249.953125 169.6875 250.058594 170.757812 C 250.164062 171.832031 250.246094 172.90625 250.296875 173.984375 C 250.351562 175.0625 250.375 176.140625 250.375 177.21875 C 250.375 178.296875 250.351562 179.375 250.296875 180.449219 C 250.246094 181.527344 250.164062 182.601562 250.058594 183.675781 C 249.953125 184.75 249.820312 185.820312 249.664062 186.886719 C 249.503906 187.953125 249.320312 189.015625 249.109375 190.070312 C 248.902344 191.128906 248.664062 192.179688 248.402344 193.226562 C 248.140625 194.273438 247.851562 195.3125 247.539062 196.34375 C 247.226562 197.375 246.886719 198.398438 246.523438 199.414062 C 246.160156 200.429688 245.773438 201.433594 245.363281 202.433594 C 244.949219 203.429688 244.511719 204.414062 244.050781 205.386719 C 243.589844 206.363281 243.105469 207.324219 242.597656 208.277344 C 242.089844 209.226562 241.558594 210.164062 241.003906 211.089844 C 240.449219 212.015625 239.871094 212.925781 239.273438 213.824219 C 238.671875 214.71875 238.054688 215.601562 237.410156 216.46875 C 236.769531 217.332031 236.105469 218.183594 235.421875 219.015625 C 234.738281 219.851562 234.03125 220.667969 233.308594 221.464844 C 232.585938 222.265625 231.839844 223.046875 231.078125 223.808594 C 230.316406 224.570312 229.535156 225.3125 228.734375 226.039062 C 227.9375 226.761719 227.121094 227.464844 226.289062 228.148438 C 225.453125 228.832031 224.605469 229.496094 223.738281 230.140625 C 222.871094 230.78125 221.992188 231.402344 221.09375 232 C 220.199219 232.601562 219.285156 233.175781 218.363281 233.730469 C 217.4375 234.285156 216.5 234.816406 215.546875 235.324219 C 214.597656 235.835938 213.632812 236.320312 212.660156 236.78125 C 211.683594 237.242188 210.699219 237.679688 209.703125 238.089844 C 208.707031 238.503906 207.699219 238.890625 206.683594 239.253906 C 205.671875 239.617188 204.648438 239.957031 203.613281 240.269531 C 202.582031 240.582031 201.542969 240.871094 200.496094 241.132812 C 199.453125 241.394531 198.398438 241.628906 197.34375 241.839844 C 196.285156 242.050781 195.222656 242.234375 194.15625 242.394531 C 193.089844 242.550781 192.019531 242.683594 190.945312 242.789062 C 189.875 242.894531 188.796875 242.972656 187.722656 243.027344 C 186.644531 243.078125 185.566406 243.105469 184.488281 243.105469 C 183.410156 243.105469 182.332031 243.078125 181.253906 243.027344 C 180.179688 242.972656 179.101562 242.894531 178.03125 242.789062 C 176.957031 242.683594 175.886719 242.550781 174.820312 242.394531 C 173.753906 242.234375 172.691406 242.050781 171.632812 241.839844 C 170.578125 241.628906 169.523438 241.394531 168.480469 241.132812 C 167.433594 240.871094 166.394531 240.582031 165.363281 240.269531 C 164.328125 239.957031 163.304688 239.617188 162.292969 239.253906 C 161.277344 238.890625 160.269531 238.503906 159.273438 238.089844 C 158.277344 237.679688 157.292969 237.242188 156.316406 236.78125 C 155.34375 236.320312 154.378906 235.835938 153.429688 235.324219 C 152.476562 234.816406 151.539062 234.285156 150.613281 233.730469 C 149.691406 233.175781 148.777344 232.601562 147.882812 232 C 146.984375 231.402344 146.105469 230.78125 145.238281 230.140625 C 144.371094 229.496094 143.523438 228.832031 142.6875 228.148438 C 141.855469 227.464844 141.039062 226.761719 140.238281 226.039062 C 139.441406 225.3125 138.660156 224.570312 137.898438 223.808594 C 137.136719 223.046875 136.390625 222.265625 135.667969 221.464844 C 134.945312 220.667969 134.238281 219.851562 133.554688 219.015625 C 132.871094 218.183594 132.207031 217.332031 131.566406 216.46875 C 130.921875 215.601562 130.304688 214.71875 129.703125 213.824219 C 129.105469 212.925781 128.527344 212.015625 127.972656 211.089844 C 127.417969 210.164062 126.886719 209.226562 126.378906 208.277344 C 125.871094 207.324219 125.386719 206.363281 124.925781 205.386719 C 124.464844 204.414062 124.027344 203.429688 123.613281 202.433594 C 123.203125 201.433594 122.8125 200.429688 122.449219 199.414062 C 122.085938 198.398438 121.75 197.375 121.4375 196.34375 C 121.125 195.3125 120.835938 194.273438 120.574219 193.226562 C 120.3125 192.179688 120.074219 191.128906 119.867188 190.070312 C 119.65625 189.015625 119.472656 187.953125 119.3125 186.886719 C 119.15625 185.820312 119.023438 184.75 118.917969 183.675781 C 118.8125 182.601562 118.730469 181.527344 118.679688 180.449219 C 118.625 179.375 118.601562 178.296875 118.601562 177.21875 Z M 118.601562 177.21875 "/><path style=" stroke:none;fill-rule:nonzero;fill:#113c7b;fill-opacity:1;" d="M 646.125 536.316406 L 646.144531 536.339844 L 646.148438 536.339844 Z M 646.125 536.316406 "/><g clip-rule="nonzero" clip-path="url(#b240a84d65)"><path style=" stroke:none;fill-rule:nonzero;fill:#113c7b;fill-opacity:1;" d="M 828.910156 599.066406 L 893.027344 513.617188 C 897.867188 507.152344 900.078125 499.40625 900.078125 491.792969 C 900.066406 482.476562 896.796875 473.042969 889.890625 465.949219 L 889.730469 465.789062 L 889.476562 465.523438 L 889.699219 465.761719 C 883.023438 458.957031 874.042969 455.621094 865.167969 455.617188 C 857.269531 455.617188 849.21875 458.265625 842.792969 463.832031 L 842.804688 463.820312 L 786.785156 512.234375 C 782.273438 516.152344 777.152344 519.789062 772.867188 522.289062 C 770.742188 523.535156 768.800781 524.5 767.414062 525.070312 C 766.71875 525.351562 766.15625 525.535156 765.859375 525.605469 L 765.730469 525.640625 C 760.925781 525.640625 730.015625 525.640625 725.015625 525.640625 C 724.722656 525.570312 723.683594 525.207031 722.371094 524.511719 C 718.007812 522.273438 711.050781 517.039062 705.476562 511.289062 L 657.015625 461.609375 C 650.722656 455.152344 642.296875 451.859375 633.957031 451.867188 C 625.648438 451.855469 617.234375 455.121094 610.949219 461.5625 L 562.175781 511.3125 C 558.039062 515.546875 553.277344 519.488281 549.292969 522.171875 C 547.3125 523.515625 545.515625 524.539062 544.25 525.125 C 543.652344 525.402344 543.1875 525.570312 542.964844 525.636719 C 538.160156 525.636719 505.972656 525.636719 501.515625 525.636719 C 501.164062 525.527344 500.199219 525.183594 498.984375 524.578125 C 494.589844 522.4375 487.382812 517.550781 481.25 512.148438 L 425.808594 463.558594 C 419.453125 457.984375 411.464844 455.277344 403.59375 455.28125 C 394.710938 455.277344 385.722656 458.71875 379.113281 465.648438 L 378.941406 465.824219 C 372.132812 473.015625 368.933594 482.507812 368.910156 491.875 C 368.921875 499.480469 371.046875 507.210938 375.761719 513.710938 L 433.25 592.65625 C 436.800781 597.523438 440.097656 602.976562 442.390625 607.539062 C 443.53125 609.8125 444.425781 611.867188 444.960938 613.378906 C 445.234375 614.132812 445.414062 614.753906 445.496094 615.132812 L 445.5625 615.449219 C 445.566406 620.59375 445.902344 634.917969 446.304688 647.949219 L 450.769531 790.832031 C 451.058594 799.398438 454.152344 807.238281 459.261719 813.1875 C 464.328125 819.097656 471.75 823.277344 480.195312 823.28125 C 491.066406 823.28125 555.527344 823.28125 566.148438 823.28125 C 574.546875 823.269531 581.882812 819.027344 586.832031 813.109375 C 591.828125 807.15625 594.851562 799.351562 595.125 790.832031 L 599.597656 647.554688 C 600.003906 634.398438 600.339844 619.761719 600.339844 614.558594 C 600.335938 614.382812 600.554688 612.972656 601.066406 611.21875 C 602.574219 605.789062 606.347656 596.648438 610.5625 588.84375 L 617.957031 575.113281 C 620.945312 569.550781 624.390625 563.699219 627.464844 558.878906 C 629 556.460938 630.441406 554.304688 631.648438 552.601562 C 632.628906 551.214844 633.492188 550.132812 633.96875 549.574219 C 634.367188 550.097656 634.855469 550.746094 635.386719 551.492188 C 638.886719 556.367188 644.449219 565.140625 649.1875 573.402344 L 661.582031 595.019531 C 663.9375 599.113281 665.9375 603.675781 667.277344 607.757812 C 668.640625 611.804688 669.277344 615.527344 669.242188 617.195312 L 669.207031 617.847656 C 668.148438 620.742188 666.527344 625.558594 664.640625 631.339844 C 662.71875 637.230469 660.554688 644.023438 658.621094 650.335938 L 643.449219 699.667969 C 641.996094 704.394531 640.839844 708.816406 640.019531 712.679688 C 639.207031 716.59375 638.691406 719.730469 638.667969 722.796875 C 638.703125 724.050781 638.683594 725.257812 639.308594 727.277344 C 639.667969 728.285156 640.183594 729.625 641.65625 731.152344 C 642.382812 731.898438 643.386719 732.652344 644.589844 733.183594 C 645.78125 733.71875 647.15625 733.988281 648.371094 733.980469 C 650.234375 733.980469 658.050781 733.980469 665.742188 733.980469 C 671.027344 733.980469 676.855469 733.980469 681.078125 733.980469 C 681.933594 737.230469 682.652344 742.75 682.636719 748.863281 L 682.636719 790.535156 C 682.660156 798.625 684.65625 806.078125 688.445312 812.125 C 690.363281 815.140625 692.761719 817.824219 695.804688 819.882812 C 698.828125 821.929688 702.621094 823.289062 706.632812 823.277344 C 714.917969 823.277344 769.652344 823.277344 779.148438 823.277344 C 783.21875 823.28125 787.101562 822.105469 790.367188 820.175781 C 795.296875 817.269531 798.957031 812.851562 801.472656 807.757812 C 803.972656 802.65625 805.339844 796.769531 805.339844 790.535156 L 805.339844 748.863281 C 805.328125 742.90625 805.953125 737.457031 806.757812 734.101562 C 806.761719 734.058594 806.773438 734.023438 806.78125 733.980469 C 810.8125 733.980469 816.257812 733.980469 821.230469 733.980469 C 828.699219 733.980469 836.300781 733.980469 838.125 733.980469 C 839.363281 733.988281 840.742188 733.714844 841.957031 733.160156 C 844.105469 732.1875 845.445312 730.625 846.15625 729.457031 C 847.230469 727.640625 847.421875 726.433594 847.613281 725.433594 C 847.769531 724.433594 847.796875 723.617188 847.804688 722.820312 C 847.78125 719.769531 847.269531 716.632812 846.46875 712.714844 C 845.660156 708.851562 844.523438 704.410156 843.09375 699.671875 L 822.917969 632.945312 C 822.167969 630.488281 821.734375 627.296875 821.734375 623.832031 C 821.734375 619.378906 822.445312 614.484375 823.742188 610.0625 C 825.019531 605.644531 826.914062 601.691406 828.910156 599.066406 Z M 669.277344 617.660156 L 669.285156 617.632812 C 669.277344 617.640625 669.277344 617.652344 669.277344 617.660156 Z M 680.242188 731.476562 Z M 814.628906 588.34375 C 810.964844 593.238281 808.382812 598.988281 806.589844 605.066406 C 804.824219 611.144531 803.875 617.558594 803.871094 623.84375 C 803.875 628.738281 804.449219 633.566406 805.816406 638.125 L 825.992188 704.851562 C 827.257812 709.039062 828.253906 712.929688 828.925781 716.140625 C 826.515625 716.140625 823.867188 716.140625 821.222656 716.140625 C 813.753906 716.140625 805.113281 716.140625 802.023438 716.140625 C 798.957031 716.128906 796.441406 717.542969 795.019531 718.824219 C 793.714844 719.972656 792.933594 721.097656 792.296875 722.15625 C 791.203125 724.015625 790.554688 725.789062 789.96875 727.71875 C 788.308594 733.421875 787.492188 740.667969 787.46875 748.886719 L 787.46875 790.558594 C 787.492188 795.339844 785.992188 799.558594 784.101562 802.132812 C 783.171875 803.429688 782.171875 804.292969 781.324219 804.785156 C 780.46875 805.273438 779.820312 805.421875 779.136719 805.433594 C 772.300781 805.433594 761.667969 805.433594 752.125 805.433594 L 752.125 728.046875 C 752.125 723.117188 748.132812 719.117188 743.195312 719.117188 C 738.265625 719.117188 734.265625 723.117188 734.265625 728.046875 L 734.265625 805.433594 C 724.386719 805.433594 713.167969 805.433594 706.621094 805.433594 C 706.496094 805.421875 706.324219 805.441406 705.746094 805.070312 C 704.90625 804.535156 703.4375 802.921875 702.347656 800.320312 C 701.234375 797.742188 700.484375 794.304688 700.484375 790.546875 L 700.484375 748.875 C 700.472656 741.703125 699.792969 735.214844 698.476562 729.898438 C 697.796875 727.21875 697.023438 724.84375 695.636719 722.425781 C 694.917969 721.222656 694.042969 719.949219 692.523438 718.664062 C 691.058594 717.417969 688.570312 716.117188 685.636719 716.128906 C 682.386719 716.128906 673.421875 716.128906 665.730469 716.128906 C 662.914062 716.128906 660.09375 716.128906 657.539062 716.128906 C 658.222656 712.953125 659.222656 709.078125 660.503906 704.917969 L 675.675781 655.589844 C 677.582031 649.386719 679.714844 642.667969 681.605469 636.875 C 683.488281 631.09375 685.15625 626.164062 686.023438 623.820312 L 686.035156 623.789062 C 686.886719 621.414062 687.070312 619.289062 687.082031 617.199219 C 687.054688 612.414062 685.945312 607.492188 684.226562 602.179688 C 682.480469 596.90625 680.066406 591.382812 677.058594 586.144531 L 664.65625 564.527344 C 661.304688 558.695312 657.65625 552.746094 654.40625 547.761719 C 652.78125 545.269531 651.257812 543.019531 649.886719 541.113281 C 648.519531 539.210938 647.382812 537.695312 646.136719 536.332031 C 643.007812 532.867188 638.496094 531.148438 634.34375 531.191406 C 629.367188 531.203125 624.664062 533.371094 621.207031 537.046875 C 619.8125 538.542969 618.558594 540.203125 617.082031 542.261719 C 612.746094 548.363281 607.054688 557.667969 602.214844 566.660156 L 594.824219 580.390625 C 591.511719 586.546875 588.558594 593.078125 586.363281 598.914062 C 585.257812 601.828125 584.34375 604.574219 583.667969 607.097656 C 583.007812 609.664062 582.507812 611.835938 582.46875 614.539062 C 582.476562 619.183594 582.144531 634.003906 581.738281 647 L 577.261719 790.277344 C 577.136719 794.84375 575.433594 798.941406 573.164062 801.613281 C 570.84375 804.320312 568.351562 805.433594 566.136719 805.429688 C 557.652344 805.429688 543.714844 805.429688 531.863281 805.429688 L 531.863281 728.039062 C 531.863281 723.109375 527.867188 719.109375 522.933594 719.109375 C 518.003906 719.109375 514.003906 723.109375 514.003906 728.039062 L 514.003906 805.429688 C 502.28125 805.429688 488.644531 805.429688 480.179688 805.429688 C 477.769531 805.429688 475.144531 804.257812 472.78125 801.535156 C 470.453125 798.863281 468.738281 794.796875 468.613281 790.277344 L 464.148438 647.394531 C 463.742188 634.390625 463.402344 619.71875 463.402344 615.265625 C 463.398438 613.6875 463.175781 612.414062 462.890625 611.144531 C 461.867188 606.839844 459.878906 602.425781 457.25 597.410156 C 454.609375 592.460938 451.3125 587.144531 447.675781 582.148438 L 390.191406 503.210938 C 388.007812 500.222656 386.765625 496.140625 386.765625 491.886719 C 386.746094 486.632812 388.6875 481.433594 391.855469 478.160156 L 392.039062 477.96875 C 395.019531 474.828125 399.246094 473.152344 403.582031 473.152344 C 407.414062 473.152344 411.140625 474.457031 414.023438 476.992188 L 469.46875 525.589844 C 474.796875 530.25 480.472656 534.417969 485.644531 537.582031 C 488.238281 539.167969 490.691406 540.488281 493.074219 541.523438 C 494.269531 542.046875 495.453125 542.488281 496.710938 542.851562 C 497.984375 543.199219 499.316406 543.488281 501.0625 543.5 C 505.359375 543.5 538.726562 543.5 543.386719 543.5 C 545.191406 543.488281 546.613281 543.175781 547.953125 542.792969 C 550.277344 542.097656 552.355469 541.109375 554.539062 539.90625 C 560.992188 536.285156 568.289062 530.542969 574.910156 523.832031 L 623.683594 474.066406 C 626.546875 471.148438 630.195312 469.75 633.941406 469.738281 C 637.683594 469.742188 641.347656 471.160156 644.222656 474.089844 L 692.683594 523.761719 C 697.722656 528.917969 703.261719 533.507812 708.496094 537 C 711.117188 538.746094 713.65625 540.222656 716.183594 541.363281 C 717.449219 541.9375 718.71875 542.429688 720.070312 542.816406 C 721.433594 543.191406 722.871094 543.488281 724.648438 543.5 C 729.5625 543.5 761.269531 543.5 766.003906 543.5 C 767.6875 543.488281 769.042969 543.222656 770.347656 542.894531 C 774.777344 541.6875 779.058594 539.433594 783.902344 536.476562 C 788.683594 533.511719 793.726562 529.828125 798.445312 525.742188 L 854.464844 477.332031 L 854.476562 477.320312 C 857.375 474.792969 861.191406 473.476562 865.144531 473.476562 C 869.578125 473.46875 873.90625 475.160156 876.925781 478.257812 L 877.132812 478.476562 C 880.300781 481.671875 882.21875 486.699219 882.199219 491.789062 C 882.207031 495.941406 880.957031 499.9375 878.722656 502.894531 Z M 814.628906 588.34375 "/></g><path style=" stroke:none;fill-rule:nonzero;fill:#113c7b;fill-opacity:1;" d="M 522.941406 504.804688 C 560.753906 504.804688 591.398438 474.160156 591.398438 436.347656 C 591.398438 398.53125 560.753906 367.886719 522.941406 367.886719 C 485.125 367.886719 454.480469 398.53125 454.480469 436.347656 C 454.480469 474.160156 485.125 504.804688 522.941406 504.804688 Z M 522.941406 385.746094 C 550.847656 385.746094 573.539062 408.445312 573.539062 436.347656 C 573.539062 464.25 550.84375 486.949219 522.941406 486.949219 C 495.039062 486.949219 472.339844 464.25 472.339844 436.347656 C 472.339844 408.445312 495.039062 385.746094 522.941406 385.746094 Z M 522.941406 385.746094 "/><path style=" stroke:none;fill-rule:nonzero;fill:#113c7b;fill-opacity:1;" d="M 531.433594 600.902344 C 531.433594 601.488281 531.378906 602.066406 531.261719 602.644531 C 531.148438 603.21875 530.980469 603.777344 530.753906 604.316406 C 530.53125 604.859375 530.253906 605.375 529.929688 605.863281 C 529.605469 606.347656 529.234375 606.800781 528.820312 607.214844 C 528.40625 607.628906 527.953125 608 527.464844 608.324219 C 526.980469 608.652344 526.464844 608.925781 525.921875 609.152344 C 525.382812 609.375 524.824219 609.542969 524.246094 609.660156 C 523.671875 609.773438 523.089844 609.832031 522.503906 609.832031 C 521.917969 609.832031 521.339844 609.773438 520.761719 609.660156 C 520.1875 609.542969 519.628906 609.375 519.089844 609.152344 C 518.546875 608.925781 518.03125 608.652344 517.542969 608.324219 C 517.058594 608 516.605469 607.628906 516.191406 607.214844 C 515.777344 606.800781 515.40625 606.347656 515.082031 605.863281 C 514.753906 605.375 514.480469 604.859375 514.253906 604.316406 C 514.03125 603.777344 513.863281 603.21875 513.746094 602.644531 C 513.632812 602.066406 513.574219 601.488281 513.574219 600.902344 C 513.574219 600.3125 513.632812 599.734375 513.746094 599.160156 C 513.863281 598.582031 514.03125 598.023438 514.253906 597.484375 C 514.480469 596.941406 514.753906 596.425781 515.082031 595.941406 C 515.40625 595.453125 515.777344 595 516.191406 594.585938 C 516.605469 594.171875 517.058594 593.800781 517.542969 593.476562 C 518.03125 593.148438 518.546875 592.875 519.089844 592.652344 C 519.628906 592.425781 520.1875 592.257812 520.761719 592.144531 C 521.339844 592.027344 521.917969 591.972656 522.503906 591.972656 C 523.089844 591.972656 523.671875 592.027344 524.246094 592.144531 C 524.824219 592.257812 525.382812 592.425781 525.921875 592.652344 C 526.464844 592.875 526.980469 593.148438 527.464844 593.476562 C 527.953125 593.800781 528.40625 594.171875 528.820312 594.585938 C 529.234375 595 529.605469 595.453125 529.929688 595.941406 C 530.253906 596.425781 530.53125 596.941406 530.753906 597.484375 C 530.980469 598.023438 531.148438 598.582031 531.261719 599.160156 C 531.378906 599.734375 531.433594 600.3125 531.433594 600.902344 Z M 531.433594 600.902344 "/><path style=" stroke:none;fill-rule:nonzero;fill:#113c7b;fill-opacity:1;" d="M 531.433594 642.570312 C 531.433594 643.160156 531.378906 643.738281 531.261719 644.3125 C 531.148438 644.890625 530.980469 645.449219 530.753906 645.988281 C 530.53125 646.53125 530.253906 647.046875 529.929688 647.53125 C 529.605469 648.019531 529.234375 648.472656 528.820312 648.886719 C 528.40625 649.300781 527.953125 649.671875 527.464844 649.996094 C 526.980469 650.324219 526.464844 650.597656 525.921875 650.820312 C 525.382812 651.046875 524.824219 651.214844 524.246094 651.328125 C 523.671875 651.445312 523.089844 651.5 522.503906 651.5 C 521.917969 651.5 521.339844 651.445312 520.761719 651.328125 C 520.1875 651.214844 519.628906 651.046875 519.089844 650.820312 C 518.546875 650.597656 518.03125 650.324219 517.542969 649.996094 C 517.058594 649.671875 516.605469 649.300781 516.191406 648.886719 C 515.777344 648.472656 515.40625 648.019531 515.082031 647.53125 C 514.753906 647.046875 514.480469 646.53125 514.253906 645.988281 C 514.03125 645.449219 513.863281 644.890625 513.746094 644.3125 C 513.632812 643.738281 513.574219 643.160156 513.574219 642.570312 C 513.574219 641.984375 513.632812 641.40625 513.746094 640.828125 C 513.863281 640.253906 514.03125 639.695312 514.253906 639.15625 C 514.480469 638.613281 514.753906 638.097656 515.082031 637.609375 C 515.40625 637.125 515.777344 636.671875 516.191406 636.257812 C 516.605469 635.84375 517.058594 635.472656 517.542969 635.148438 C 518.03125 634.820312 518.546875 634.546875 519.089844 634.320312 C 519.628906 634.097656 520.1875 633.929688 520.761719 633.8125 C 521.339844 633.699219 521.917969 633.640625 522.503906 633.640625 C 523.089844 633.640625 523.671875 633.699219 524.246094 633.8125 C 524.824219 633.929688 525.382812 634.097656 525.921875 634.320312 C 526.464844 634.546875 526.980469 634.820312 527.464844 635.148438 C 527.953125 635.472656 528.40625 635.84375 528.820312 636.257812 C 529.234375 636.671875 529.605469 637.125 529.929688 637.609375 C 530.253906 638.097656 530.53125 638.613281 530.753906 639.15625 C 530.980469 639.695312 531.148438 640.253906 531.261719 640.828125 C 531.378906 641.40625 531.433594 641.984375 531.433594 642.570312 Z M 531.433594 642.570312 "/><path style=" stroke:none;fill-rule:nonzero;fill:#113c7b;fill-opacity:1;" d="M 751.699219 600.902344 C 751.699219 601.488281 751.640625 602.066406 751.527344 602.644531 C 751.410156 603.21875 751.242188 603.777344 751.019531 604.316406 C 750.792969 604.859375 750.519531 605.375 750.191406 605.863281 C 749.867188 606.347656 749.496094 606.800781 749.082031 607.214844 C 748.667969 607.628906 748.214844 608 747.730469 608.324219 C 747.242188 608.652344 746.726562 608.925781 746.183594 609.152344 C 745.644531 609.375 745.085938 609.542969 744.511719 609.660156 C 743.933594 609.773438 743.355469 609.832031 742.769531 609.832031 C 742.183594 609.832031 741.601562 609.773438 741.027344 609.660156 C 740.449219 609.542969 739.890625 609.375 739.351562 609.152344 C 738.808594 608.925781 738.292969 608.652344 737.808594 608.324219 C 737.320312 608 736.867188 607.628906 736.453125 607.214844 C 736.039062 606.800781 735.667969 606.347656 735.34375 605.863281 C 735.019531 605.375 734.742188 604.859375 734.519531 604.316406 C 734.292969 603.777344 734.125 603.21875 734.011719 602.644531 C 733.894531 602.066406 733.839844 601.488281 733.839844 600.902344 C 733.839844 600.3125 733.894531 599.734375 734.011719 599.160156 C 734.125 598.582031 734.292969 598.023438 734.519531 597.484375 C 734.742188 596.941406 735.015625 596.425781 735.34375 595.941406 C 735.667969 595.453125 736.039062 595 736.453125 594.585938 C 736.867188 594.171875 737.320312 593.800781 737.808594 593.476562 C 738.292969 593.148438 738.808594 592.875 739.351562 592.652344 C 739.890625 592.425781 740.449219 592.257812 741.027344 592.144531 C 741.601562 592.027344 742.183594 591.972656 742.769531 591.972656 C 743.355469 591.972656 743.933594 592.027344 744.511719 592.144531 C 745.085938 592.257812 745.644531 592.425781 746.183594 592.652344 C 746.726562 592.875 747.242188 593.148438 747.730469 593.476562 C 748.214844 593.800781 748.667969 594.171875 749.082031 594.585938 C 749.496094 595 749.867188 595.453125 750.191406 595.941406 C 750.519531 596.425781 750.792969 596.941406 751.019531 597.484375 C 751.242188 598.023438 751.410156 598.582031 751.527344 599.160156 C 751.640625 599.734375 751.699219 600.3125 751.699219 600.902344 Z M 751.699219 600.902344 "/><path style=" stroke:none;fill-rule:nonzero;fill:#113c7b;fill-opacity:1;" d="M 751.699219 642.570312 C 751.699219 643.160156 751.640625 643.738281 751.527344 644.3125 C 751.410156 644.890625 751.242188 645.449219 751.019531 645.988281 C 750.792969 646.53125 750.519531 647.046875 750.191406 647.53125 C 749.867188 648.019531 749.496094 648.472656 749.082031 648.886719 C 748.667969 649.300781 748.214844 649.671875 747.730469 649.996094 C 747.242188 650.324219 746.726562 650.597656 746.183594 650.820312 C 745.644531 651.046875 745.085938 651.214844 744.511719 651.328125 C 743.933594 651.445312 743.355469 651.5 742.769531 651.5 C 742.183594 651.5 741.601562 651.445312 741.027344 651.328125 C 740.449219 651.214844 739.890625 651.046875 739.351562 650.820312 C 738.808594 650.597656 738.292969 650.324219 737.808594 649.996094 C 737.320312 649.671875 736.867188 649.300781 736.453125 648.886719 C 736.039062 648.472656 735.667969 648.019531 735.34375 647.53125 C 735.019531 647.046875 734.742188 646.53125 734.519531 645.988281 C 734.292969 645.449219 734.125 644.890625 734.011719 644.3125 C 733.894531 643.738281 733.839844 643.160156 733.839844 642.570312 C 733.839844 641.984375 733.894531 641.40625 734.011719 640.828125 C 734.125 640.253906 734.292969 639.695312 734.519531 639.15625 C 734.742188 638.613281 735.015625 638.097656 735.34375 637.609375 C 735.667969 637.125 736.039062 636.671875 736.453125 636.257812 C 736.867188 635.84375 737.320312 635.472656 737.808594 635.148438 C 738.292969 634.820312 738.808594 634.546875 739.351562 634.320312 C 739.890625 634.097656 740.449219 633.929688 741.027344 633.8125 C 741.601562 633.699219 742.183594 633.640625 742.769531 633.640625 C 743.355469 633.640625 743.933594 633.699219 744.511719 633.8125 C 745.085938 633.929688 745.644531 634.097656 746.183594 634.320312 C 746.726562 634.546875 747.242188 634.820312 747.730469 635.148438 C 748.214844 635.472656 748.667969 635.84375 749.082031 636.257812 C 749.496094 636.671875 749.867188 637.125 750.191406 637.609375 C 750.519531 638.097656 750.792969 638.613281 751.019531 639.15625 C 751.242188 639.695312 751.410156 640.253906 751.527344 640.828125 C 751.640625 641.40625 751.699219 641.984375 751.699219 642.570312 Z M 751.699219 642.570312 "/><path style=" stroke:none;fill-rule:nonzero;fill:#113c7b;fill-opacity:1;" d="M 620.726562 426.625 C 620.726562 426.625 635.191406 435.148438 653.601562 435.148438 C 659.382812 435.148438 665.558594 434.3125 671.789062 432.101562 C 672.796875 431.738281 673.683594 431.261719 674.640625 430.859375 C 674.503906 432.671875 674.367188 434.488281 674.367188 436.347656 C 674.367188 474.160156 705.015625 504.804688 742.828125 504.804688 C 780.640625 504.804688 811.289062 474.160156 811.289062 436.347656 C 811.289062 434.371094 811.15625 432.429688 810.988281 430.5 C 812.199219 431.035156 813.335938 431.648438 814.617188 432.109375 C 820.855469 434.316406 827.023438 435.15625 832.808594 435.15625 C 851.21875 435.15625 865.6875 426.632812 865.6875 426.632812 C 868.507812 424.96875 869.878906 421.09375 868.734375 418.027344 C 868.734375 418.027344 858.601562 390.859375 832.515625 381.613281 C 826.285156 379.40625 820.121094 378.566406 814.335938 378.566406 C 802.972656 378.566406 793.117188 381.816406 787.230469 384.3125 C 775.265625 374.089844 759.78125 367.890625 742.820312 367.890625 C 725.980469 367.890625 710.574219 374 698.648438 384.089844 C 692.714844 381.636719 683.113281 378.566406 672.0625 378.566406 C 666.285156 378.566406 660.121094 379.40625 653.890625 381.613281 C 627.796875 390.859375 617.664062 418.027344 617.664062 418.027344 C 616.523438 421.09375 617.898438 424.964844 620.726562 426.625 Z M 814.339844 396.417969 C 818.65625 396.417969 822.757812 397.09375 826.550781 398.445312 C 836.136719 401.835938 842.808594 409.152344 846.917969 415.136719 C 842.953125 416.308594 838.058594 417.289062 832.808594 417.289062 C 828.484375 417.289062 824.371094 416.617188 820.582031 415.265625 C 811 411.875 804.324219 404.558594 800.222656 398.582031 C 804.1875 397.40625 809.078125 396.417969 814.339844 396.417969 Z M 742.820312 385.746094 C 770.722656 385.746094 793.421875 408.445312 793.421875 436.347656 C 793.421875 464.25 770.722656 486.949219 742.820312 486.949219 C 714.917969 486.949219 692.222656 464.25 692.222656 436.347656 C 692.222656 408.445312 714.925781 385.746094 742.820312 385.746094 Z M 659.859375 398.445312 C 663.652344 397.09375 667.753906 396.417969 672.070312 396.417969 C 677.160156 396.417969 681.902344 397.347656 685.808594 398.484375 C 685.144531 399.492188 684.542969 400.539062 683.933594 401.585938 C 679.773438 406.847656 673.8125 412.445312 665.832031 415.273438 C 662.039062 416.625 657.929688 417.296875 653.609375 417.296875 C 648.359375 417.296875 643.472656 416.316406 639.507812 415.140625 C 643.601562 409.140625 650.277344 401.832031 659.859375 398.445312 Z M 659.859375 398.445312 "/></g></svg>