<svg xmlns="http://www.w3.org/2000/svg" xmlns:xlink="http://www.w3.org/1999/xlink" width="1200" zoomAndPan="magnify" viewBox="0 0 900 899.99999" height="1200" preserveAspectRatio="xMidYMid meet" version="1.2"><defs><clipPath id="233ff89e10"><path d="M 237.835938 30 L 662.335938 30 L 662.335938 879 L 237.835938 879 Z M 237.835938 30 "/></clipPath></defs><g id="f6d6137422"><g clip-rule="nonzero" clip-path="url(#233ff89e10)"><path style=" stroke:none;fill-rule:nonzero;fill:#113c7b;fill-opacity:1;" d="M 622.300781 505.617188 C 619.449219 507.671875 616.359375 509.253906 613.023438 510.363281 C 609.691406 511.476562 606.265625 512.066406 602.753906 512.132812 C 601.757812 512.15625 600.777344 512.28125 599.804688 512.5 C 598.835938 512.71875 597.894531 513.03125 596.988281 513.433594 C 596.078125 513.839844 595.21875 514.328125 594.40625 514.902344 C 593.59375 515.476562 592.84375 516.121094 592.15625 516.84375 C 591.472656 517.5625 590.863281 518.34375 590.332031 519.1875 C 589.800781 520.027344 589.355469 520.910156 589 521.839844 C 588.640625 522.769531 588.378906 523.722656 588.210938 524.703125 C 588.039062 525.683594 587.96875 526.671875 587.992188 527.664062 C 588.015625 528.660156 588.136719 529.640625 588.355469 530.613281 C 588.574219 531.582031 588.886719 532.523438 589.289062 533.433594 C 589.691406 534.339844 590.179688 535.203125 590.753906 536.015625 C 591.324219 536.828125 591.972656 537.578125 592.691406 538.265625 C 593.414062 538.949219 594.195312 539.558594 595.035156 540.09375 C 595.875 540.625 596.757812 541.070312 597.6875 541.425781 C 598.613281 541.785156 599.570312 542.050781 600.546875 542.222656 C 601.527344 542.390625 602.515625 542.464844 603.511719 542.441406 C 606.847656 542.347656 610.15625 541.992188 613.4375 541.371094 C 616.71875 540.753906 619.929688 539.875 623.070312 538.742188 C 626.210938 537.609375 629.242188 536.234375 632.164062 534.621094 C 635.085938 533.003906 637.859375 531.164062 640.488281 529.105469 C 642.183594 527.8125 643.796875 526.429688 645.332031 524.949219 C 646.867188 523.46875 648.308594 521.90625 649.660156 520.261719 C 651.015625 518.613281 652.265625 516.894531 653.417969 515.101562 C 654.570312 513.308594 655.617188 511.457031 656.554688 509.542969 C 657.492188 507.628906 658.316406 505.664062 659.023438 503.65625 C 659.734375 501.644531 660.324219 499.601562 660.796875 497.523438 C 661.265625 495.445312 661.617188 493.347656 661.84375 491.230469 C 662.074219 489.109375 662.175781 486.984375 662.15625 484.855469 L 662.15625 313.003906 C 662.160156 311.101562 662.117188 309.203125 662.027344 307.304688 C 661.933594 305.40625 661.796875 303.511719 661.613281 301.621094 C 661.429688 299.726562 661.199219 297.84375 660.921875 295.960938 C 660.644531 294.082031 660.320312 292.210938 659.953125 290.34375 C 659.582031 288.480469 659.167969 286.625 658.710938 284.78125 C 658.25 282.9375 657.742188 281.109375 657.195312 279.289062 C 656.644531 277.46875 656.050781 275.664062 655.410156 273.875 C 654.769531 272.085938 654.089844 270.3125 653.363281 268.554688 C 652.636719 266.800781 651.867188 265.0625 651.054688 263.34375 C 650.246094 261.625 649.390625 259.929688 648.496094 258.25 C 647.601562 256.574219 646.664062 254.921875 645.6875 253.289062 C 644.710938 251.660156 643.695312 250.054688 642.640625 248.472656 C 641.585938 246.894531 640.492188 245.339844 639.359375 243.8125 C 638.230469 242.285156 637.058594 240.789062 635.855469 239.320312 C 634.648438 237.851562 633.410156 236.410156 632.132812 235.003906 C 630.855469 233.59375 629.546875 232.21875 628.203125 230.875 C 626.859375 229.53125 625.484375 228.222656 624.074219 226.945312 C 622.667969 225.667969 621.226562 224.429688 619.757812 223.222656 C 618.289062 222.015625 616.789062 220.847656 615.265625 219.71875 C 613.738281 218.585938 612.183594 217.492188 610.601562 216.4375 C 609.023438 215.382812 607.417969 214.363281 605.785156 213.390625 C 604.15625 212.414062 602.503906 211.476562 600.828125 210.582031 C 599.148438 209.6875 597.453125 208.832031 595.734375 208.023438 C 594.015625 207.210938 592.277344 206.441406 590.523438 205.714844 C 588.765625 204.988281 586.992188 204.304688 585.203125 203.667969 C 583.414062 203.027344 581.609375 202.433594 579.789062 201.882812 C 577.96875 201.332031 576.136719 200.828125 574.292969 200.367188 C 572.449219 199.910156 570.597656 199.492188 568.730469 199.125 C 566.867188 198.757812 564.996094 198.433594 563.117188 198.15625 C 561.234375 197.878906 559.347656 197.648438 557.457031 197.464844 C 555.566406 197.28125 553.671875 197.144531 551.773438 197.050781 C 549.875 196.960938 547.976562 196.917969 546.074219 196.917969 L 536.984375 196.917969 C 537.902344 195.601562 538.792969 194.265625 539.648438 192.90625 C 540.507812 191.550781 541.335938 190.171875 542.132812 188.777344 C 542.929688 187.382812 543.691406 185.96875 544.425781 184.539062 C 545.15625 183.109375 545.855469 181.664062 546.519531 180.203125 C 547.1875 178.742188 547.820312 177.265625 548.417969 175.773438 C 549.019531 174.285156 549.585938 172.78125 550.113281 171.265625 C 550.644531 169.75 551.140625 168.222656 551.605469 166.683594 C 552.066406 165.144531 552.492188 163.597656 552.882812 162.039062 C 553.273438 160.480469 553.628906 158.914062 553.949219 157.339844 C 554.269531 155.765625 554.554688 154.183594 554.800781 152.597656 C 555.050781 151.011719 555.261719 149.417969 555.4375 147.824219 C 555.613281 146.226562 555.753906 144.625 555.859375 143.023438 C 555.960938 141.421875 556.027344 139.816406 556.058594 138.210938 C 556.089844 136.601562 556.082031 134.996094 556.039062 133.390625 C 555.996094 131.785156 555.917969 130.183594 555.804688 128.578125 C 555.6875 126.976562 555.535156 125.378906 555.347656 123.785156 C 555.160156 122.1875 554.933594 120.597656 554.675781 119.011719 C 554.414062 117.425781 554.117188 115.847656 553.785156 114.277344 C 553.453125 112.707031 553.085938 111.144531 552.683594 109.585938 C 552.28125 108.03125 551.84375 106.488281 551.371094 104.953125 C 550.898438 103.417969 550.390625 101.894531 549.847656 100.382812 C 549.304688 98.871094 548.726562 97.371094 548.117188 95.886719 C 547.507812 94.398438 546.863281 92.929688 546.183594 91.472656 C 545.507812 90.015625 544.796875 88.574219 544.054688 87.148438 C 543.3125 85.726562 542.539062 84.320312 541.730469 82.929688 C 540.925781 81.539062 540.085938 80.171875 539.21875 78.820312 C 538.347656 77.46875 537.449219 76.136719 536.519531 74.828125 C 535.589844 73.519531 534.632812 72.230469 533.644531 70.960938 C 532.65625 69.695312 531.640625 68.453125 530.59375 67.230469 C 529.550781 66.011719 528.480469 64.816406 527.378906 63.644531 C 526.28125 62.472656 525.15625 61.324219 524.007812 60.203125 C 522.855469 59.082031 521.679688 57.988281 520.480469 56.921875 C 519.277344 55.855469 518.054688 54.816406 516.808594 53.804688 C 515.558594 52.792969 514.289062 51.808594 512.996094 50.855469 C 511.703125 49.902344 510.390625 48.976562 509.058594 48.082031 C 507.722656 47.1875 506.367188 46.324219 504.996094 45.492188 C 503.621094 44.660156 502.230469 43.859375 500.820312 43.089844 C 499.410156 42.320312 497.984375 41.582031 496.539062 40.878906 C 495.09375 40.171875 493.636719 39.5 492.164062 38.863281 C 490.6875 38.222656 489.199219 37.617188 487.699219 37.046875 C 486.199219 36.476562 484.683594 35.941406 483.160156 35.4375 C 481.632812 34.9375 480.097656 34.46875 478.550781 34.035156 C 477.003906 33.605469 475.445312 33.207031 473.882812 32.84375 C 472.316406 32.484375 470.742188 32.15625 469.164062 31.867188 C 467.582031 31.578125 465.996094 31.324219 464.40625 31.105469 C 462.816406 30.886719 461.21875 30.703125 459.621094 30.558594 C 458.019531 30.414062 456.417969 30.304688 454.8125 30.230469 C 453.207031 30.15625 451.601562 30.121094 449.996094 30.121094 C 448.390625 30.121094 446.785156 30.15625 445.179688 30.230469 C 443.574219 30.304688 441.972656 30.414062 440.371094 30.558594 C 438.773438 30.703125 437.175781 30.886719 435.585938 31.105469 C 433.996094 31.324219 432.410156 31.578125 430.828125 31.867188 C 429.25 32.15625 427.675781 32.484375 426.113281 32.84375 C 424.546875 33.207031 422.992188 33.605469 421.441406 34.035156 C 419.894531 34.46875 418.359375 34.9375 416.832031 35.4375 C 415.308594 35.941406 413.792969 36.476562 412.292969 37.046875 C 410.792969 37.617188 409.304688 38.222656 407.828125 38.863281 C 406.355469 39.5 404.898438 40.171875 403.453125 40.878906 C 402.011719 41.582031 400.582031 42.320312 399.171875 43.089844 C 397.761719 43.859375 396.371094 44.660156 394.996094 45.492188 C 393.625 46.324219 392.269531 47.1875 390.9375 48.082031 C 389.601562 48.976562 388.289062 49.902344 386.996094 50.855469 C 385.703125 51.808594 384.433594 52.792969 383.183594 53.804688 C 381.9375 54.816406 380.714844 55.855469 379.511719 56.921875 C 378.3125 57.988281 377.136719 59.082031 375.984375 60.203125 C 374.835938 61.324219 373.710938 62.472656 372.613281 63.644531 C 371.511719 64.816406 370.441406 66.011719 369.398438 67.230469 C 368.351562 68.453125 367.335938 69.695312 366.347656 70.960938 C 365.359375 72.230469 364.402344 73.519531 363.472656 74.828125 C 362.542969 76.136719 361.644531 77.46875 360.773438 78.820312 C 359.90625 80.171875 359.066406 81.539062 358.261719 82.929688 C 357.453125 84.320312 356.679688 85.726562 355.9375 87.148438 C 355.195312 88.574219 354.484375 90.015625 353.808594 91.472656 C 353.128906 92.929688 352.484375 94.398438 351.875 95.886719 C 351.265625 97.371094 350.6875 98.871094 350.144531 100.382812 C 349.605469 101.894531 349.09375 103.417969 348.621094 104.953125 C 348.148438 106.488281 347.710938 108.03125 347.308594 109.585938 C 346.90625 111.144531 346.539062 112.707031 346.207031 114.277344 C 345.875 115.847656 345.578125 117.425781 345.316406 119.011719 C 345.058594 120.597656 344.832031 122.1875 344.644531 123.785156 C 344.457031 125.378906 344.304688 126.976562 344.1875 128.578125 C 344.074219 130.183594 343.996094 131.785156 343.953125 133.390625 C 343.910156 134.996094 343.902344 136.601562 343.933594 138.210938 C 343.964844 139.816406 344.03125 141.421875 344.132812 143.023438 C 344.238281 144.625 344.378906 146.226562 344.554688 147.824219 C 344.730469 149.417969 344.941406 151.011719 345.191406 152.597656 C 345.4375 154.183594 345.722656 155.765625 346.042969 157.339844 C 346.363281 158.914062 346.71875 160.480469 347.109375 162.039062 C 347.5 163.597656 347.925781 165.144531 348.386719 166.683594 C 348.851562 168.222656 349.347656 169.75 349.878906 171.265625 C 350.410156 172.78125 350.972656 174.285156 351.574219 175.773438 C 352.171875 177.265625 352.804688 178.742188 353.472656 180.203125 C 354.136719 181.664062 354.835938 183.109375 355.566406 184.539062 C 356.300781 185.96875 357.0625 187.382812 357.859375 188.777344 C 358.65625 190.171875 359.484375 191.550781 360.34375 192.90625 C 361.203125 194.265625 362.089844 195.601562 363.007812 196.917969 L 353.917969 196.917969 C 352.015625 196.917969 350.117188 196.960938 348.21875 197.050781 C 346.320312 197.144531 344.425781 197.28125 342.535156 197.464844 C 340.644531 197.648438 338.757812 197.878906 336.875 198.15625 C 334.996094 198.433594 333.125 198.757812 331.257812 199.125 C 329.394531 199.492188 327.542969 199.910156 325.699219 200.367188 C 323.851562 200.828125 322.023438 201.332031 320.203125 201.882812 C 318.382812 202.433594 316.578125 203.027344 314.789062 203.667969 C 313 204.304688 311.226562 204.988281 309.46875 205.714844 C 307.714844 206.441406 305.976562 207.210938 304.257812 208.023438 C 302.539062 208.832031 300.84375 209.6875 299.164062 210.582031 C 297.488281 211.476562 295.835938 212.414062 294.207031 213.390625 C 292.574219 214.363281 290.96875 215.382812 289.390625 216.4375 C 287.808594 217.492188 286.253906 218.585938 284.726562 219.71875 C 283.199219 220.847656 281.703125 222.015625 280.234375 223.222656 C 278.765625 224.429688 277.324219 225.667969 275.917969 226.945312 C 274.507812 228.222656 273.132812 229.53125 271.789062 230.875 C 270.445312 232.21875 269.136719 233.59375 267.859375 235.003906 C 266.582031 236.410156 265.34375 237.851562 264.136719 239.320312 C 262.929688 240.789062 261.761719 242.285156 260.632812 243.8125 C 259.5 245.339844 258.40625 246.894531 257.351562 248.472656 C 256.296875 250.054688 255.28125 251.660156 254.304688 253.289062 C 253.328125 254.921875 252.390625 256.574219 251.496094 258.25 C 250.601562 259.929688 249.746094 261.625 248.9375 263.34375 C 248.125 265.0625 247.355469 266.800781 246.628906 268.554688 C 245.902344 270.3125 245.222656 272.085938 244.582031 273.875 C 243.941406 275.664062 243.347656 277.46875 242.796875 279.289062 C 242.25 281.109375 241.742188 282.9375 241.28125 284.78125 C 240.824219 286.625 240.410156 288.480469 240.039062 290.34375 C 239.671875 292.210938 239.347656 294.082031 239.070312 295.960938 C 238.792969 297.84375 238.5625 299.726562 238.378906 301.621094 C 238.195312 303.511719 238.058594 305.40625 237.964844 307.304688 C 237.875 309.203125 237.832031 311.101562 237.832031 313.003906 L 237.832031 484.855469 C 237.839844 486.515625 237.914062 488.171875 238.054688 489.828125 C 238.195312 491.484375 238.40625 493.132812 238.683594 494.769531 C 238.960938 496.40625 239.304688 498.03125 239.714844 499.640625 C 240.125 501.25 240.601562 502.839844 241.144531 504.414062 C 241.683594 505.984375 242.289062 507.527344 242.957031 509.050781 C 243.625 510.570312 244.355469 512.0625 245.148438 513.523438 C 245.9375 514.984375 246.789062 516.410156 247.699219 517.800781 C 248.605469 519.191406 249.570312 520.542969 250.589844 521.855469 C 251.609375 523.167969 252.679688 524.433594 253.804688 525.660156 C 254.929688 526.882812 256.101562 528.058594 257.320312 529.183594 C 258.542969 530.3125 259.804688 531.386719 261.113281 532.410156 C 262.421875 533.433594 263.773438 534.402344 265.160156 535.316406 C 266.550781 536.226562 267.972656 537.082031 269.429688 537.875 C 270.890625 538.671875 272.378906 539.40625 273.898438 540.078125 C 275.417969 540.753906 276.960938 541.363281 278.53125 541.90625 C 280.101562 542.453125 281.6875 542.933594 283.296875 543.351562 C 283.296875 543.351562 283.296875 545.472656 283.296875 545.472656 L 283.296875 863.714844 C 283.296875 864.710938 283.394531 865.695312 283.589844 866.671875 C 283.78125 867.648438 284.070312 868.59375 284.449219 869.515625 C 284.832031 870.433594 285.296875 871.304688 285.851562 872.132812 C 286.402344 872.960938 287.03125 873.726562 287.734375 874.429688 C 288.441406 875.132812 289.203125 875.761719 290.03125 876.316406 C 290.859375 876.867188 291.734375 877.335938 292.652344 877.714844 C 293.570312 878.097656 294.519531 878.382812 295.496094 878.578125 C 296.472656 878.773438 297.457031 878.867188 298.453125 878.871094 C 299.445312 878.867188 300.433594 878.773438 301.40625 878.578125 C 302.382812 878.382812 303.332031 878.097656 304.25 877.714844 C 305.171875 877.335938 306.042969 876.867188 306.871094 876.316406 C 307.699219 875.761719 308.464844 875.132812 309.167969 874.429688 C 309.871094 873.726562 310.5 872.960938 311.050781 872.132812 C 311.605469 871.304688 312.070312 870.433594 312.453125 869.515625 C 312.832031 868.59375 313.121094 867.648438 313.316406 866.671875 C 313.507812 865.695312 313.605469 864.710938 313.605469 863.714844 L 313.605469 545.472656 C 313.613281 544.15625 313.707031 542.84375 313.886719 541.539062 C 314.066406 540.234375 314.328125 538.949219 314.675781 537.675781 C 315.019531 536.40625 315.449219 535.164062 315.957031 533.949219 C 316.464844 532.734375 317.050781 531.558594 317.710938 530.421875 C 318.375 529.28125 319.105469 528.191406 319.910156 527.148438 C 320.714844 526.105469 321.582031 525.121094 322.515625 524.191406 C 323.449219 523.261719 324.4375 522.394531 325.480469 521.59375 C 326.527344 520.792969 327.621094 520.0625 328.761719 519.40625 L 328.761719 811.433594 C 328.765625 812.542969 328.796875 813.652344 328.855469 814.761719 C 328.917969 815.867188 329.003906 816.976562 329.117188 818.078125 C 329.230469 819.183594 329.371094 820.285156 329.539062 821.382812 C 329.707031 822.480469 329.902344 823.574219 330.125 824.660156 C 330.347656 825.746094 330.59375 826.828125 330.871094 827.90625 C 331.144531 828.980469 331.445312 830.050781 331.773438 831.109375 C 332.101562 832.171875 332.453125 833.222656 332.832031 834.265625 C 333.210938 835.308594 333.617188 836.34375 334.046875 837.367188 C 334.476562 838.390625 334.933594 839.402344 335.410156 840.40625 C 335.890625 841.40625 336.394531 842.394531 336.925781 843.371094 C 337.453125 844.347656 338.003906 845.308594 338.582031 846.257812 C 339.15625 847.207031 339.753906 848.144531 340.375 849.0625 C 341 849.984375 341.640625 850.886719 342.308594 851.773438 C 342.972656 852.664062 343.660156 853.535156 344.371094 854.390625 C 345.078125 855.242188 345.808594 856.078125 346.558594 856.898438 C 347.308594 857.714844 348.078125 858.515625 348.867188 859.296875 C 349.660156 860.078125 350.464844 860.839844 351.292969 861.578125 C 352.121094 862.320312 352.964844 863.039062 353.828125 863.738281 C 354.6875 864.4375 355.566406 865.117188 356.464844 865.773438 C 357.359375 866.429688 358.269531 867.0625 359.195312 867.675781 C 360.125 868.285156 361.066406 868.875 362.019531 869.4375 C 362.976562 870.003906 363.945312 870.546875 364.925781 871.0625 C 365.910156 871.582031 366.902344 872.074219 367.910156 872.542969 C 368.917969 873.011719 369.933594 873.453125 370.960938 873.871094 C 371.992188 874.292969 373.027344 874.683594 374.078125 875.050781 C 375.125 875.417969 376.179688 875.761719 377.246094 876.078125 C 378.308594 876.390625 379.378906 876.679688 380.460938 876.945312 C 381.539062 877.207031 382.621094 877.441406 383.710938 877.652344 C 384.804688 877.863281 385.898438 878.046875 386.996094 878.199219 C 388.097656 878.355469 389.199219 878.484375 390.304688 878.585938 C 391.410156 878.6875 392.515625 878.761719 393.625 878.808594 C 394.734375 878.855469 395.84375 878.875 396.957031 878.871094 C 399.496094 878.859375 402.027344 878.710938 404.550781 878.417969 C 407.074219 878.128906 409.574219 877.699219 412.050781 877.125 C 414.523438 876.554688 416.960938 875.847656 419.359375 875.007812 C 421.753906 874.164062 424.097656 873.191406 426.382812 872.085938 C 428.671875 870.980469 430.890625 869.753906 433.039062 868.398438 C 435.191406 867.046875 437.257812 865.578125 439.246094 863.996094 C 441.230469 862.410156 443.125 860.722656 444.921875 858.925781 C 446.71875 857.132812 448.410156 855.242188 449.996094 853.257812 C 451.582031 855.242188 453.273438 857.132812 455.070312 858.925781 C 456.867188 860.722656 458.761719 862.410156 460.746094 863.996094 C 462.734375 865.578125 464.800781 867.046875 466.953125 868.398438 C 469.101562 869.753906 471.320312 870.980469 473.609375 872.085938 C 475.894531 873.191406 478.238281 874.164062 480.632812 875.007812 C 483.03125 875.847656 485.46875 876.554688 487.941406 877.125 C 490.417969 877.699219 492.917969 878.128906 495.441406 878.417969 C 497.964844 878.710938 500.496094 878.859375 503.035156 878.871094 C 504.148438 878.875 505.257812 878.855469 506.367188 878.808594 C 507.476562 878.761719 508.582031 878.6875 509.6875 878.585938 C 510.792969 878.484375 511.894531 878.355469 512.996094 878.199219 C 514.09375 878.046875 515.1875 877.863281 516.28125 877.652344 C 517.371094 877.441406 518.453125 877.207031 519.53125 876.945312 C 520.613281 876.679688 521.683594 876.390625 522.746094 876.078125 C 523.8125 875.761719 524.867188 875.417969 525.914062 875.050781 C 526.964844 874.683594 528 874.292969 529.03125 873.871094 C 530.058594 873.453125 531.074219 873.011719 532.082031 872.542969 C 533.089844 872.074219 534.082031 871.582031 535.066406 871.0625 C 536.046875 870.546875 537.015625 870.003906 537.972656 869.4375 C 538.925781 868.875 539.867188 868.285156 540.796875 867.675781 C 541.722656 867.0625 542.632812 866.429688 543.527344 865.773438 C 544.425781 865.117188 545.304688 864.4375 546.164062 863.738281 C 547.027344 863.039062 547.871094 862.320312 548.699219 861.578125 C 549.527344 860.839844 550.332031 860.078125 551.125 859.296875 C 551.914062 858.515625 552.683594 857.714844 553.433594 856.898438 C 554.183594 856.078125 554.910156 855.242188 555.621094 854.390625 C 556.332031 853.535156 557.019531 852.664062 557.683594 851.773438 C 558.351562 850.886719 558.992188 849.984375 559.617188 849.0625 C 560.238281 848.144531 560.835938 847.207031 561.410156 846.257812 C 561.988281 845.308594 562.539062 844.347656 563.066406 843.371094 C 563.597656 842.394531 564.101562 841.40625 564.582031 840.40625 C 565.058594 839.402344 565.515625 838.390625 565.945312 837.367188 C 566.375 836.34375 566.78125 835.308594 567.160156 834.265625 C 567.539062 833.222656 567.890625 832.171875 568.21875 831.109375 C 568.546875 830.050781 568.847656 828.980469 569.121094 827.90625 C 569.398438 826.828125 569.644531 825.75 569.867188 824.660156 C 570.089844 823.574219 570.285156 822.480469 570.453125 821.382812 C 570.621094 820.285156 570.761719 819.183594 570.875 818.078125 C 570.988281 816.976562 571.074219 815.867188 571.136719 814.761719 C 571.195312 813.652344 571.226562 812.542969 571.230469 811.433594 L 571.230469 378.773438 C 571.230469 377.777344 571.132812 376.792969 570.941406 375.816406 C 570.746094 374.839844 570.457031 373.894531 570.078125 372.972656 C 569.695312 372.054688 569.230469 371.179688 568.675781 370.351562 C 568.125 369.527344 567.496094 368.761719 566.792969 368.058594 C 566.089844 367.351562 565.324219 366.726562 564.496094 366.171875 C 563.667969 365.621094 562.796875 365.152344 561.875 364.773438 C 560.957031 364.390625 560.007812 364.105469 559.035156 363.910156 C 558.058594 363.714844 557.070312 363.617188 556.078125 363.617188 C 555.082031 363.617188 554.097656 363.714844 553.121094 363.910156 C 552.144531 364.105469 551.195312 364.390625 550.277344 364.773438 C 549.359375 365.152344 548.484375 365.621094 547.65625 366.171875 C 546.832031 366.726562 546.066406 367.351562 545.359375 368.058594 C 544.65625 368.761719 544.03125 369.527344 543.476562 370.351562 C 542.921875 371.179688 542.457031 372.054688 542.078125 372.972656 C 541.695312 373.894531 541.40625 374.839844 541.214844 375.816406 C 541.019531 376.792969 540.921875 377.777344 540.921875 378.773438 L 540.921875 811.433594 C 540.933594 813.882812 540.695312 816.3125 540.207031 818.714844 C 539.71875 821.117188 538.992188 823.445312 538.027344 825.699219 C 537.066406 827.957031 535.882812 830.089844 534.480469 832.101562 C 533.078125 834.113281 531.488281 835.960938 529.707031 837.648438 C 527.964844 839.40625 526.0625 840.96875 524.003906 842.34375 C 521.945312 843.71875 519.769531 844.871094 517.480469 845.808594 C 515.1875 846.746094 512.828125 847.445312 510.394531 847.910156 C 507.964844 848.375 505.511719 848.589844 503.035156 848.558594 C 501.808594 848.570312 500.582031 848.519531 499.359375 848.410156 C 498.136719 848.300781 496.921875 848.128906 495.71875 847.902344 C 494.511719 847.671875 493.320312 847.382812 492.140625 847.039062 C 490.960938 846.691406 489.804688 846.289062 488.664062 845.832031 C 487.527344 845.371094 486.414062 844.855469 485.324219 844.289062 C 484.238281 843.71875 483.179688 843.097656 482.152344 842.425781 C 481.125 841.753906 480.132812 841.035156 479.175781 840.265625 C 478.21875 839.496094 477.300781 838.679688 476.425781 837.820312 C 475.546875 836.960938 474.714844 836.0625 473.925781 835.121094 C 473.136719 834.179688 472.398438 833.203125 471.703125 832.1875 C 471.011719 831.175781 470.371094 830.128906 469.78125 829.054688 C 469.1875 827.976562 468.652344 826.875 468.171875 825.746094 C 467.6875 824.617188 467.261719 823.464844 466.890625 822.296875 C 466.523438 821.125 466.210938 819.9375 465.957031 818.738281 C 465.703125 817.535156 465.507812 816.324219 465.375 815.105469 C 465.238281 813.882812 465.164062 812.660156 465.152344 811.433594 L 465.152344 560.625 C 465.152344 559.632812 465.054688 558.644531 464.859375 557.667969 C 464.664062 556.695312 464.378906 555.746094 463.996094 554.828125 C 463.617188 553.90625 463.148438 553.035156 462.597656 552.207031 C 462.042969 551.378906 461.414062 550.613281 460.710938 549.910156 C 460.007812 549.207031 459.242188 548.578125 458.414062 548.027344 C 457.589844 547.472656 456.714844 547.007812 455.796875 546.625 C 454.875 546.246094 453.929688 545.957031 452.953125 545.761719 C 451.976562 545.570312 450.992188 545.472656 449.996094 545.472656 C 449 545.472656 448.015625 545.570312 447.039062 545.761719 C 446.0625 545.957031 445.117188 546.246094 444.195312 546.625 C 443.277344 547.007812 442.402344 547.472656 441.578125 548.027344 C 440.75 548.578125 439.984375 549.207031 439.28125 549.910156 C 438.578125 550.613281 437.949219 551.378906 437.394531 552.207031 C 436.84375 553.035156 436.375 553.90625 435.996094 554.828125 C 435.613281 555.746094 435.328125 556.695312 435.132812 557.667969 C 434.9375 558.644531 434.839844 559.632812 434.839844 560.625 L 434.839844 811.433594 C 434.828125 812.660156 434.753906 813.882812 434.617188 815.105469 C 434.484375 816.324219 434.289062 817.535156 434.035156 818.738281 C 433.78125 819.9375 433.46875 821.125 433.101562 822.296875 C 432.730469 823.464844 432.304688 824.617188 431.820312 825.746094 C 431.339844 826.875 430.804688 827.976562 430.210938 829.054688 C 429.621094 830.128906 428.980469 831.175781 428.289062 832.1875 C 427.59375 833.203125 426.855469 834.179688 426.066406 835.121094 C 425.277344 836.0625 424.445312 836.960938 423.566406 837.820312 C 422.691406 838.679688 421.773438 839.496094 420.816406 840.265625 C 419.859375 841.035156 418.867188 841.753906 417.839844 842.425781 C 416.8125 843.097656 415.753906 843.71875 414.667969 844.289062 C 413.578125 844.855469 412.464844 845.371094 411.328125 845.832031 C 410.1875 846.289062 409.03125 846.691406 407.851562 847.039062 C 406.671875 847.382812 405.480469 847.671875 404.273438 847.902344 C 403.070312 848.128906 401.855469 848.300781 400.632812 848.410156 C 399.410156 848.519531 398.183594 848.570312 396.957031 848.558594 C 394.464844 848.585938 391.992188 848.363281 389.546875 847.890625 C 387.097656 847.417969 384.722656 846.707031 382.417969 845.757812 C 380.113281 844.808594 377.929688 843.636719 375.859375 842.246094 C 373.789062 840.855469 371.882812 839.273438 370.132812 837.496094 C 368.371094 835.816406 366.800781 833.972656 365.414062 831.972656 C 364.03125 829.96875 362.863281 827.847656 361.910156 825.605469 C 360.960938 823.363281 360.246094 821.050781 359.765625 818.664062 C 359.289062 816.277344 359.054688 813.867188 359.070312 811.433594 L 359.070312 519.40625 C 360.210938 520.0625 361.300781 520.792969 362.347656 521.59375 C 363.394531 522.394531 364.382812 523.261719 365.316406 524.191406 C 366.246094 525.121094 367.113281 526.105469 367.917969 527.148438 C 368.722656 528.191406 369.457031 529.28125 370.117188 530.421875 C 370.78125 531.558594 371.363281 532.734375 371.875 533.949219 C 372.382812 535.164062 372.808594 536.40625 373.15625 537.675781 C 373.503906 538.949219 373.765625 540.234375 373.945312 541.539062 C 374.121094 542.84375 374.214844 544.15625 374.222656 545.472656 C 374.222656 546.464844 374.320312 547.453125 374.515625 548.429688 C 374.710938 549.402344 374.996094 550.351562 375.378906 551.269531 C 375.757812 552.191406 376.226562 553.0625 376.777344 553.890625 C 377.332031 554.71875 377.957031 555.484375 378.664062 556.1875 C 379.367188 556.890625 380.132812 557.519531 380.957031 558.070312 C 381.785156 558.625 382.660156 559.089844 383.578125 559.472656 C 384.5 559.851562 385.445312 560.140625 386.421875 560.335938 C 387.398438 560.527344 388.382812 560.625 389.378906 560.625 C 390.375 560.625 391.359375 560.527344 392.335938 560.335938 C 393.3125 560.140625 394.257812 559.851562 395.175781 559.472656 C 396.097656 559.089844 396.96875 558.625 397.796875 558.070312 C 398.625 557.519531 399.390625 556.890625 400.09375 556.1875 C 400.796875 555.484375 401.425781 554.71875 401.980469 553.890625 C 402.53125 553.0625 403 552.191406 403.378906 551.269531 C 403.761719 550.351562 404.046875 549.402344 404.242188 548.429688 C 404.4375 547.453125 404.53125 546.464844 404.53125 545.472656 C 404.527344 543.808594 404.453125 542.152344 404.3125 540.496094 C 404.171875 538.839844 403.960938 537.195312 403.683594 535.554688 C 403.40625 533.917969 403.0625 532.292969 402.652344 530.683594 C 402.242188 529.074219 401.765625 527.484375 401.222656 525.914062 C 400.683594 524.34375 400.078125 522.796875 399.410156 521.273438 C 398.738281 519.753906 398.011719 518.261719 397.21875 516.800781 C 396.425781 515.339844 395.578125 513.914062 394.667969 512.523438 C 393.761719 511.132812 392.796875 509.78125 391.777344 508.46875 C 390.757812 507.15625 389.6875 505.890625 388.5625 504.667969 C 387.4375 503.441406 386.265625 502.265625 385.046875 501.140625 C 383.824219 500.011719 382.5625 498.9375 381.253906 497.914062 C 379.941406 496.890625 378.59375 495.921875 377.207031 495.011719 C 375.816406 494.097656 374.394531 493.242188 372.933594 492.449219 C 371.476562 491.652344 369.988281 490.917969 368.46875 490.246094 C 366.949219 489.574219 365.40625 488.964844 363.835938 488.417969 C 362.265625 487.871094 360.679688 487.390625 359.070312 486.976562 L 359.070312 378.773438 C 359.070312 377.777344 358.972656 376.792969 358.777344 375.816406 C 358.585938 374.839844 358.296875 373.894531 357.914062 372.972656 C 357.535156 372.054688 357.066406 371.179688 356.515625 370.351562 C 355.960938 369.527344 355.335938 368.761719 354.628906 368.058594 C 353.925781 367.351562 353.160156 366.726562 352.335938 366.171875 C 351.507812 365.621094 350.632812 365.152344 349.714844 364.773438 C 348.796875 364.390625 347.847656 364.105469 346.871094 363.910156 C 345.894531 363.714844 344.910156 363.617188 343.914062 363.617188 C 342.921875 363.617188 341.933594 363.714844 340.957031 363.910156 C 339.984375 364.105469 339.035156 364.390625 338.117188 364.773438 C 337.195312 365.152344 336.324219 365.621094 335.496094 366.171875 C 334.667969 366.726562 333.902344 367.351562 333.199219 368.058594 C 332.496094 368.761719 331.867188 369.527344 331.316406 370.351562 C 330.761719 371.179688 330.292969 372.054688 329.914062 372.972656 C 329.535156 373.894531 329.246094 374.839844 329.050781 375.816406 C 328.859375 376.792969 328.761719 377.777344 328.761719 378.773438 L 328.761719 486.976562 C 324.929688 488.011719 321.238281 489.40625 317.683594 491.167969 C 314.125 492.925781 310.773438 495.015625 307.628906 497.433594 C 304.484375 499.851562 301.601562 502.550781 298.988281 505.535156 C 296.371094 508.519531 294.070312 511.726562 292.085938 515.164062 C 289.5 514.582031 287.027344 513.691406 284.664062 512.484375 C 282.304688 511.277344 280.128906 509.796875 278.144531 508.039062 C 276.527344 506.582031 275.082031 504.964844 273.8125 503.195312 C 272.542969 501.425781 271.476562 499.539062 270.613281 497.539062 C 269.75 495.539062 269.109375 493.46875 268.695312 491.328125 C 268.277344 489.191406 268.09375 487.03125 268.144531 484.855469 L 268.144531 313.003906 C 268.140625 310.917969 268.210938 308.835938 268.359375 306.757812 C 268.507812 304.675781 268.730469 302.605469 269.03125 300.542969 C 269.332031 298.480469 269.707031 296.433594 270.15625 294.398438 C 270.605469 292.359375 271.128906 290.34375 271.726562 288.347656 C 272.324219 286.351562 272.992188 284.378906 273.734375 282.429688 C 274.476562 280.480469 275.285156 278.5625 276.167969 276.675781 C 277.050781 274.785156 278 272.933594 279.019531 271.113281 C 280.035156 269.292969 281.117188 267.515625 282.265625 265.773438 C 283.414062 264.035156 284.625 262.335938 285.894531 260.6875 C 287.167969 259.035156 288.496094 257.433594 289.886719 255.878906 C 291.277344 254.324219 292.71875 252.820312 294.21875 251.375 C 295.71875 249.925781 297.269531 248.535156 298.867188 247.199219 C 300.46875 245.863281 302.117188 244.589844 303.8125 243.375 C 305.503906 242.160156 307.242188 241.007812 309.019531 239.921875 C 310.796875 238.832031 312.613281 237.8125 314.464844 236.855469 C 316.320312 235.902344 318.203125 235.015625 320.121094 234.199219 C 325.441406 231.851562 330.953125 230.085938 336.648438 228.914062 C 342.34375 227.738281 348.101562 227.175781 353.917969 227.226562 L 395.589844 227.226562 C 397.632812 228.460938 399.710938 229.625 401.828125 230.714844 C 403.949219 231.808594 406.101562 232.824219 408.289062 233.769531 C 410.476562 234.714844 412.695312 235.585938 414.941406 236.378906 C 417.1875 237.175781 419.460938 237.890625 421.757812 238.53125 C 424.054688 239.171875 426.367188 239.730469 428.703125 240.214844 C 431.035156 240.699219 433.382812 241.101562 435.746094 241.421875 C 438.105469 241.746094 440.476562 241.988281 442.855469 242.148438 C 445.230469 242.3125 447.613281 242.394531 449.996094 242.394531 C 452.378906 242.394531 454.761719 242.3125 457.136719 242.148438 C 459.515625 241.988281 461.886719 241.746094 464.246094 241.421875 C 466.609375 241.101562 468.957031 240.699219 471.289062 240.214844 C 473.625 239.730469 475.9375 239.171875 478.234375 238.53125 C 480.53125 237.890625 482.800781 237.175781 485.050781 236.378906 C 487.296875 235.585938 489.515625 234.714844 491.703125 233.769531 C 493.890625 232.824219 496.042969 231.808594 498.164062 230.714844 C 500.28125 229.625 502.359375 228.460938 504.402344 227.226562 L 546.074219 227.226562 C 551.890625 227.175781 557.648438 227.738281 563.34375 228.914062 C 569.039062 230.085938 574.550781 231.851562 579.871094 234.199219 C 581.789062 235.015625 583.671875 235.902344 585.527344 236.855469 C 587.378906 237.8125 589.195312 238.832031 590.972656 239.921875 C 592.75 241.007812 594.488281 242.160156 596.179688 243.375 C 597.875 244.589844 599.523438 245.863281 601.125 247.199219 C 602.722656 248.535156 604.273438 249.925781 605.773438 251.375 C 607.273438 252.820312 608.714844 254.324219 610.105469 255.878906 C 611.496094 257.433594 612.824219 259.035156 614.097656 260.6875 C 615.367188 262.335938 616.578125 264.035156 617.726562 265.773438 C 618.875 267.515625 619.957031 269.292969 620.972656 271.113281 C 621.992188 272.933594 622.941406 274.785156 623.824219 276.675781 C 624.703125 278.5625 625.515625 280.480469 626.257812 282.429688 C 627 284.378906 627.667969 286.351562 628.265625 288.347656 C 628.863281 290.34375 629.386719 292.359375 629.835938 294.398438 C 630.285156 296.433594 630.660156 298.480469 630.960938 300.542969 C 631.261719 302.605469 631.484375 304.675781 631.632812 306.757812 C 631.78125 308.835938 631.851562 310.917969 631.847656 313.003906 L 631.847656 484.855469 C 631.929688 486.839844 631.777344 488.804688 631.390625 490.753906 C 631.007812 492.699219 630.398438 494.578125 629.570312 496.382812 C 628.738281 498.183594 627.710938 499.867188 626.480469 501.429688 C 625.253906 502.988281 623.859375 504.386719 622.300781 505.617188 Z M 374.222656 136.300781 C 374.222656 135.0625 374.253906 133.824219 374.316406 132.582031 C 374.375 131.34375 374.46875 130.109375 374.589844 128.875 C 374.710938 127.640625 374.863281 126.410156 375.042969 125.183594 C 375.226562 123.957031 375.4375 122.734375 375.679688 121.519531 C 375.921875 120.304688 376.191406 119.09375 376.496094 117.890625 C 376.796875 116.6875 377.125 115.492188 377.488281 114.304688 C 377.847656 113.121094 378.234375 111.941406 378.652344 110.773438 C 379.070312 109.605469 379.515625 108.449219 379.992188 107.304688 C 380.464844 106.160156 380.96875 105.027344 381.5 103.90625 C 382.027344 102.785156 382.585938 101.675781 383.171875 100.582031 C 383.753906 99.488281 384.367188 98.410156 385.003906 97.347656 C 385.640625 96.285156 386.304688 95.234375 386.992188 94.203125 C 387.683594 93.175781 388.398438 92.160156 389.136719 91.164062 C 389.875 90.167969 390.636719 89.191406 391.421875 88.234375 C 392.210938 87.273438 393.019531 86.335938 393.851562 85.417969 C 394.683594 84.496094 395.539062 83.601562 396.417969 82.722656 C 397.292969 81.847656 398.191406 80.992188 399.109375 80.160156 C 400.03125 79.324219 400.96875 78.515625 401.925781 77.730469 C 402.886719 76.941406 403.863281 76.179688 404.859375 75.441406 C 405.855469 74.703125 406.867188 73.988281 407.898438 73.300781 C 408.929688 72.609375 409.976562 71.949219 411.042969 71.308594 C 412.105469 70.671875 413.183594 70.0625 414.277344 69.476562 C 415.371094 68.890625 416.476562 68.335938 417.597656 67.804688 C 418.71875 67.273438 419.855469 66.773438 421 66.296875 C 422.144531 65.824219 423.300781 65.375 424.46875 64.957031 C 425.636719 64.542969 426.8125 64.152344 428 63.792969 C 429.1875 63.433594 430.382812 63.101562 431.585938 62.800781 C 432.789062 62.5 433.996094 62.226562 435.214844 61.984375 C 436.429688 61.742188 437.652344 61.53125 438.878906 61.351562 C 440.105469 61.167969 441.335938 61.015625 442.570312 60.894531 C 443.804688 60.773438 445.039062 60.683594 446.277344 60.621094 C 447.515625 60.558594 448.757812 60.53125 449.996094 60.53125 C 451.234375 60.53125 452.476562 60.558594 453.714844 60.621094 C 454.953125 60.683594 456.1875 60.773438 457.421875 60.894531 C 458.65625 61.015625 459.886719 61.167969 461.113281 61.351562 C 462.339844 61.53125 463.5625 61.742188 464.777344 61.984375 C 465.996094 62.226562 467.203125 62.5 468.40625 62.800781 C 469.609375 63.101562 470.804688 63.433594 471.992188 63.792969 C 473.179688 64.152344 474.355469 64.542969 475.523438 64.957031 C 476.691406 65.375 477.847656 65.824219 478.992188 66.296875 C 480.136719 66.773438 481.273438 67.273438 482.394531 67.804688 C 483.515625 68.335938 484.621094 68.890625 485.714844 69.476562 C 486.808594 70.0625 487.886719 70.671875 488.949219 71.308594 C 490.015625 71.949219 491.0625 72.609375 492.09375 73.300781 C 493.125 73.988281 494.136719 74.703125 495.132812 75.441406 C 496.128906 76.179688 497.105469 76.941406 498.066406 77.730469 C 499.023438 78.515625 499.960938 79.324219 500.882812 80.160156 C 501.800781 80.992188 502.699219 81.847656 503.574219 82.722656 C 504.453125 83.601562 505.308594 84.496094 506.140625 85.417969 C 506.972656 86.335938 507.78125 87.273438 508.570312 88.234375 C 509.355469 89.191406 510.117188 90.167969 510.855469 91.164062 C 511.59375 92.160156 512.308594 93.175781 513 94.203125 C 513.6875 95.234375 514.351562 96.285156 514.988281 97.347656 C 515.625 98.410156 516.238281 99.488281 516.820312 100.582031 C 517.40625 101.675781 517.964844 102.785156 518.492188 103.90625 C 519.023438 105.027344 519.527344 106.160156 520 107.304688 C 520.476562 108.449219 520.921875 109.605469 521.339844 110.773438 C 521.757812 111.941406 522.144531 113.121094 522.503906 114.304688 C 522.867188 115.492188 523.195312 116.6875 523.496094 117.890625 C 523.796875 119.09375 524.070312 120.304688 524.3125 121.519531 C 524.554688 122.734375 524.765625 123.957031 524.949219 125.183594 C 525.128906 126.410156 525.28125 127.640625 525.402344 128.875 C 525.523438 130.109375 525.617188 131.34375 525.675781 132.582031 C 525.738281 133.824219 525.769531 135.0625 525.769531 136.300781 C 525.769531 137.542969 525.738281 138.78125 525.675781 140.019531 C 525.617188 141.257812 525.523438 142.496094 525.402344 143.730469 C 525.28125 144.960938 525.128906 146.191406 524.949219 147.417969 C 524.765625 148.648438 524.554688 149.867188 524.3125 151.085938 C 524.070312 152.300781 523.796875 153.511719 523.496094 154.714844 C 523.195312 155.914062 522.867188 157.109375 522.503906 158.296875 C 522.144531 159.484375 521.757812 160.660156 521.339844 161.828125 C 520.921875 162.996094 520.476562 164.152344 520 165.296875 C 519.527344 166.445312 519.023438 167.578125 518.492188 168.699219 C 517.964844 169.820312 517.40625 170.925781 516.820312 172.019531 C 516.238281 173.113281 515.625 174.191406 514.988281 175.257812 C 514.351562 176.320312 513.6875 177.367188 513 178.398438 C 512.308594 179.429688 511.59375 180.441406 510.855469 181.4375 C 510.117188 182.433594 509.355469 183.414062 508.570312 184.371094 C 507.78125 185.328125 506.972656 186.269531 506.140625 187.1875 C 505.308594 188.105469 504.453125 189.003906 503.574219 189.878906 C 502.699219 190.757812 501.800781 191.613281 500.882812 192.445312 C 499.960938 193.277344 499.023438 194.085938 498.066406 194.875 C 497.105469 195.660156 496.128906 196.425781 495.132812 197.164062 C 494.136719 197.902344 493.125 198.613281 492.09375 199.304688 C 491.0625 199.992188 490.015625 200.65625 488.949219 201.292969 C 487.886719 201.929688 486.808594 202.542969 485.714844 203.125 C 484.621094 203.710938 483.515625 204.269531 482.394531 204.800781 C 481.273438 205.328125 480.136719 205.832031 478.992188 206.304688 C 477.847656 206.78125 476.691406 207.226562 475.523438 207.644531 C 474.355469 208.0625 473.179688 208.453125 471.992188 208.8125 C 470.804688 209.171875 469.609375 209.5 468.40625 209.804688 C 467.203125 210.105469 465.996094 210.375 464.777344 210.617188 C 463.5625 210.859375 462.339844 211.070312 461.113281 211.253906 C 459.886719 211.4375 458.65625 211.585938 457.421875 211.710938 C 456.1875 211.832031 454.953125 211.921875 453.714844 211.984375 C 452.476562 212.042969 451.234375 212.074219 449.996094 212.074219 C 448.757812 212.074219 447.515625 212.042969 446.277344 211.984375 C 445.039062 211.921875 443.804688 211.832031 442.570312 211.710938 C 441.335938 211.585938 440.105469 211.4375 438.878906 211.253906 C 437.652344 211.070312 436.429688 210.859375 435.214844 210.617188 C 433.996094 210.375 432.789062 210.105469 431.585938 209.804688 C 430.382812 209.5 429.1875 209.171875 428 208.8125 C 426.8125 208.453125 425.636719 208.0625 424.46875 207.644531 C 423.300781 207.226562 422.144531 206.78125 421 206.304688 C 419.855469 205.832031 418.71875 205.328125 417.597656 204.800781 C 416.476562 204.269531 415.371094 203.710938 414.277344 203.125 C 413.183594 202.542969 412.105469 201.929688 411.042969 201.292969 C 409.976562 200.65625 408.929688 199.992188 407.898438 199.304688 C 406.867188 198.613281 405.855469 197.902344 404.859375 197.164062 C 403.863281 196.425781 402.886719 195.660156 401.925781 194.875 C 400.96875 194.085938 400.03125 193.277344 399.109375 192.445312 C 398.191406 191.613281 397.292969 190.757812 396.417969 189.878906 C 395.539062 189.003906 394.683594 188.105469 393.851562 187.1875 C 393.019531 186.269531 392.210938 185.328125 391.421875 184.371094 C 390.636719 183.414062 389.875 182.433594 389.136719 181.4375 C 388.398438 180.441406 387.683594 179.429688 386.992188 178.398438 C 386.304688 177.367188 385.640625 176.320312 385.003906 175.257812 C 384.367188 174.191406 383.753906 173.113281 383.171875 172.019531 C 382.585938 170.925781 382.027344 169.820312 381.5 168.699219 C 380.96875 167.578125 380.464844 166.445312 379.992188 165.296875 C 379.515625 164.152344 379.070312 162.996094 378.652344 161.828125 C 378.234375 160.660156 377.847656 159.484375 377.488281 158.296875 C 377.125 157.109375 376.796875 155.914062 376.496094 154.714844 C 376.191406 153.511719 375.921875 152.300781 375.679688 151.085938 C 375.4375 149.867188 375.226562 148.648438 375.042969 147.417969 C 374.863281 146.191406 374.710938 144.960938 374.589844 143.730469 C 374.46875 142.496094 374.375 141.257812 374.316406 140.019531 C 374.253906 138.78125 374.222656 137.542969 374.222656 136.300781 Z M 374.222656 136.300781 "/></g></g></svg>