<svg xmlns="http://www.w3.org/2000/svg" xmlns:xlink="http://www.w3.org/1999/xlink" width="1200" zoomAndPan="magnify" viewBox="0 0 900 899.99999" height="1200" preserveAspectRatio="xMidYMid meet" version="1.2"><defs><clipPath id="a9b1d5c38d"><path d="M 105.855469 170 L 387.855469 170 L 387.855469 736 L 105.855469 736 Z M 105.855469 170 "/></clipPath><clipPath id="b631ec1736"><path d="M 388.039062 451 L 793.789062 451 L 793.789062 736 L 388.039062 736 Z M 388.039062 451 "/></clipPath></defs><g id="5f19371c20"><g clip-rule="nonzero" clip-path="url(#a9b1d5c38d)"><path style=" stroke:none;fill-rule:nonzero;fill:#113c7b;fill-opacity:1;" d="M 361.527344 486.984375 C 359.628906 488.347656 357.574219 489.402344 355.355469 490.140625 C 353.140625 490.878906 350.863281 491.273438 348.527344 491.316406 C 347.863281 491.332031 347.210938 491.414062 346.566406 491.558594 C 345.921875 491.707031 345.296875 491.914062 344.691406 492.183594 C 344.085938 492.449219 343.515625 492.777344 342.972656 493.15625 C 342.433594 493.539062 341.9375 493.96875 341.480469 494.449219 C 341.023438 494.929688 340.621094 495.449219 340.265625 496.007812 C 339.914062 496.566406 339.617188 497.15625 339.378906 497.773438 C 339.140625 498.390625 338.96875 499.023438 338.855469 499.675781 C 338.742188 500.328125 338.695312 500.984375 338.710938 501.644531 C 338.726562 502.308594 338.808594 502.960938 338.953125 503.605469 C 339.097656 504.25 339.304688 504.875 339.574219 505.480469 C 339.839844 506.085938 340.164062 506.65625 340.546875 507.199219 C 340.925781 507.738281 341.359375 508.238281 341.835938 508.695312 C 342.316406 509.152344 342.835938 509.554688 343.394531 509.910156 C 343.953125 510.261719 344.539062 510.558594 345.15625 510.796875 C 345.773438 511.035156 346.410156 511.210938 347.058594 511.324219 C 347.710938 511.4375 348.367188 511.488281 349.03125 511.472656 C 353.496094 511.347656 357.832031 510.527344 362.039062 509.011719 C 366.242188 507.496094 370.101562 505.359375 373.621094 502.601562 C 375.882812 500.878906 377.914062 498.917969 379.71875 496.722656 C 381.527344 494.523438 383.054688 492.148438 384.304688 489.59375 C 385.554688 487.039062 386.496094 484.375 387.125 481.601562 C 387.753906 478.828125 388.054688 476.019531 388.03125 473.175781 L 388.03125 358.894531 C 388.03125 357.632812 388.003906 356.367188 387.941406 355.105469 C 387.882812 353.84375 387.789062 352.582031 387.667969 351.324219 C 387.546875 350.066406 387.390625 348.8125 387.207031 347.5625 C 387.023438 346.3125 386.808594 345.066406 386.5625 343.828125 C 386.320312 342.589844 386.042969 341.355469 385.738281 340.128906 C 385.429688 338.902344 385.09375 337.683594 384.730469 336.476562 C 384.363281 335.265625 383.96875 334.066406 383.542969 332.875 C 383.117188 331.683594 382.664062 330.507812 382.179688 329.339844 C 381.699219 328.171875 381.1875 327.015625 380.648438 325.871094 C 380.109375 324.730469 379.539062 323.601562 378.945312 322.484375 C 378.351562 321.371094 377.726562 320.269531 377.078125 319.1875 C 376.429688 318.101562 375.753906 317.035156 375.050781 315.984375 C 374.351562 314.933594 373.621094 313.898438 372.871094 312.882812 C 372.117188 311.867188 371.339844 310.871094 370.539062 309.894531 C 369.738281 308.917969 368.914062 307.960938 368.0625 307.023438 C 367.214844 306.089844 366.34375 305.171875 365.449219 304.28125 C 364.558594 303.386719 363.640625 302.515625 362.707031 301.667969 C 361.769531 300.816406 360.8125 299.992188 359.835938 299.191406 C 358.859375 298.390625 357.863281 297.613281 356.847656 296.859375 C 355.832031 296.105469 354.796875 295.378906 353.746094 294.679688 C 352.695312 293.976562 351.628906 293.300781 350.542969 292.652344 C 349.460938 292.003906 348.359375 291.378906 347.246094 290.785156 C 346.128906 290.191406 345 289.621094 343.859375 289.082031 C 342.714844 288.542969 341.558594 288.03125 340.390625 287.550781 C 339.226562 287.066406 338.046875 286.613281 336.855469 286.1875 C 335.664062 285.761719 334.464844 285.367188 333.253906 285 C 332.046875 284.636719 330.828125 284.300781 329.601562 283.992188 C 328.375 283.6875 327.140625 283.410156 325.902344 283.167969 C 324.664062 282.921875 323.417969 282.707031 322.167969 282.523438 C 320.917969 282.339844 319.664062 282.183594 318.40625 282.0625 C 317.148438 281.941406 315.886719 281.847656 314.625 281.789062 C 313.363281 281.726562 312.097656 281.699219 310.835938 281.699219 L 304.789062 281.699219 C 306.011719 279.945312 307.152344 278.140625 308.214844 276.285156 C 309.273438 274.429688 310.246094 272.527344 311.132812 270.582031 C 312.019531 268.636719 312.816406 266.65625 313.523438 264.640625 C 314.230469 262.621094 314.84375 260.578125 315.363281 258.503906 C 315.882812 256.429688 316.308594 254.339844 316.640625 252.226562 C 316.96875 250.113281 317.203125 247.992188 317.339844 245.859375 C 317.476562 243.726562 317.519531 241.589844 317.460938 239.453125 C 317.40625 237.316406 317.253906 235.1875 317 233.0625 C 316.75 230.941406 316.40625 228.835938 315.964844 226.742188 C 315.523438 224.652344 314.984375 222.585938 314.355469 220.542969 C 313.726562 218.5 313.003906 216.488281 312.191406 214.511719 C 311.382812 212.535156 310.480469 210.597656 309.492188 208.703125 C 308.503906 206.808594 307.429688 204.960938 306.273438 203.164062 C 305.117188 201.367188 303.882812 199.625 302.570312 197.9375 C 301.253906 196.253906 299.867188 194.628906 298.402344 193.070312 C 296.941406 191.511719 295.410156 190.023438 293.8125 188.601562 C 292.214844 187.179688 290.558594 185.835938 288.839844 184.566406 C 287.117188 183.296875 285.34375 182.109375 283.515625 181 C 281.6875 179.890625 279.816406 178.871094 277.894531 177.929688 C 275.972656 176.992188 274.015625 176.144531 272.015625 175.386719 C 270.019531 174.625 267.988281 173.957031 265.929688 173.382812 C 263.871094 172.808594 261.792969 172.328125 259.6875 171.941406 C 257.585938 171.554688 255.472656 171.265625 253.34375 171.070312 C 251.214844 170.875 249.082031 170.777344 246.941406 170.777344 C 244.804688 170.777344 242.671875 170.875 240.542969 171.070312 C 238.414062 171.265625 236.300781 171.554688 234.195312 171.941406 C 232.09375 172.328125 230.015625 172.808594 227.957031 173.382812 C 225.898438 173.957031 223.867188 174.625 221.871094 175.386719 C 219.871094 176.144531 217.914062 176.992188 215.992188 177.929688 C 214.070312 178.871094 212.195312 179.890625 210.367188 181 C 208.542969 182.109375 206.765625 183.296875 205.046875 184.566406 C 203.328125 185.835938 201.667969 187.179688 200.070312 188.601562 C 198.472656 190.023438 196.945312 191.511719 195.480469 193.070312 C 194.019531 194.628906 192.632812 196.253906 191.316406 197.9375 C 190.003906 199.625 188.765625 201.367188 187.609375 203.164062 C 186.453125 204.960938 185.382812 206.808594 184.394531 208.703125 C 183.40625 210.597656 182.503906 212.535156 181.691406 214.511719 C 180.878906 216.488281 180.160156 218.5 179.53125 220.542969 C 178.898438 222.585938 178.363281 224.652344 177.921875 226.742188 C 177.480469 228.835938 177.132812 230.941406 176.882812 233.0625 C 176.632812 235.1875 176.480469 237.316406 176.421875 239.453125 C 176.367188 241.589844 176.40625 243.726562 176.546875 245.859375 C 176.683594 247.992188 176.917969 250.113281 177.246094 252.226562 C 177.578125 254.339844 178.003906 256.429688 178.523438 258.503906 C 179.042969 260.578125 179.65625 262.621094 180.363281 264.640625 C 181.070312 266.65625 181.867188 268.636719 182.753906 270.582031 C 183.640625 272.527344 184.613281 274.429688 185.671875 276.285156 C 186.730469 278.140625 187.875 279.945312 189.097656 281.699219 L 183.050781 281.699219 C 181.785156 281.699219 180.523438 281.726562 179.261719 281.789062 C 178 281.847656 176.738281 281.941406 175.480469 282.0625 C 174.222656 282.183594 172.96875 282.339844 171.71875 282.523438 C 170.46875 282.707031 169.222656 282.921875 167.984375 283.167969 C 166.742188 283.410156 165.511719 283.6875 164.285156 283.992188 C 163.058594 284.300781 161.839844 284.636719 160.628906 285 C 159.421875 285.367188 158.222656 285.761719 157.03125 286.1875 C 155.839844 286.613281 154.660156 287.066406 153.492188 287.550781 C 152.324219 288.03125 151.171875 288.542969 150.027344 289.082031 C 148.882812 289.621094 147.753906 290.191406 146.640625 290.785156 C 145.527344 291.378906 144.425781 292.003906 143.34375 292.652344 C 142.257812 293.300781 141.191406 293.976562 140.140625 294.679688 C 139.089844 295.378906 138.054688 296.105469 137.039062 296.859375 C 136.023438 297.613281 135.027344 298.390625 134.050781 299.191406 C 133.074219 299.992188 132.117188 300.816406 131.179688 301.667969 C 130.242188 302.515625 129.328125 303.386719 128.433594 304.28125 C 127.542969 305.171875 126.671875 306.089844 125.820312 307.023438 C 124.972656 307.960938 124.148438 308.917969 123.347656 309.894531 C 122.546875 310.871094 121.769531 311.867188 121.015625 312.882812 C 120.261719 313.898438 119.535156 314.933594 118.832031 315.984375 C 118.132812 317.035156 117.457031 318.101562 116.808594 319.1875 C 116.15625 320.269531 115.535156 321.371094 114.941406 322.484375 C 114.34375 323.601562 113.777344 324.730469 113.238281 325.871094 C 112.699219 327.015625 112.1875 328.171875 111.703125 329.339844 C 111.222656 330.507812 110.765625 331.683594 110.34375 332.875 C 109.917969 334.066406 109.523438 335.265625 109.15625 336.476562 C 108.789062 337.683594 108.453125 338.902344 108.148438 340.128906 C 107.84375 341.355469 107.566406 342.589844 107.320312 343.828125 C 107.078125 345.066406 106.863281 346.3125 106.675781 347.5625 C 106.492188 348.8125 106.339844 350.066406 106.21875 351.324219 C 106.09375 352.582031 106.003906 353.84375 105.941406 355.105469 C 105.882812 356.367188 105.851562 357.632812 105.855469 358.894531 L 105.855469 473.175781 C 105.859375 474.28125 105.90625 475.382812 106 476.484375 C 106.097656 477.585938 106.234375 478.679688 106.417969 479.769531 C 106.605469 480.859375 106.832031 481.9375 107.105469 483.011719 C 107.378906 484.082031 107.695312 485.136719 108.054688 486.183594 C 108.414062 487.226562 108.816406 488.253906 109.261719 489.265625 C 109.707031 490.277344 110.191406 491.269531 110.71875 492.242188 C 111.246094 493.210938 111.808594 494.160156 112.414062 495.085938 C 113.019531 496.011719 113.660156 496.910156 114.335938 497.78125 C 115.015625 498.65625 115.726562 499.496094 116.476562 500.3125 C 117.222656 501.125 118.003906 501.90625 118.8125 502.65625 C 119.625 503.40625 120.464844 504.121094 121.335938 504.800781 C 122.207031 505.484375 123.105469 506.125 124.027344 506.734375 C 124.949219 507.339844 125.898438 507.90625 126.867188 508.4375 C 127.835938 508.964844 128.828125 509.453125 129.835938 509.902344 C 130.847656 510.347656 131.875 510.753906 132.917969 511.117188 C 133.960938 511.480469 135.019531 511.800781 136.089844 512.074219 C 136.089844 512.074219 136.089844 513.488281 136.089844 513.488281 L 136.089844 725.117188 C 136.089844 725.78125 136.152344 726.4375 136.28125 727.085938 C 136.410156 727.734375 136.601562 728.363281 136.855469 728.976562 C 137.109375 729.585938 137.417969 730.167969 137.785156 730.71875 C 138.152344 731.269531 138.570312 731.777344 139.039062 732.246094 C 139.507812 732.710938 140.015625 733.128906 140.566406 733.496094 C 141.117188 733.867188 141.699219 734.175781 142.308594 734.429688 C 142.921875 734.683594 143.550781 734.875 144.199219 735.003906 C 144.847656 735.132812 145.503906 735.195312 146.164062 735.195312 C 146.828125 735.195312 147.484375 735.132812 148.132812 735.003906 C 148.78125 734.875 149.410156 734.683594 150.023438 734.429688 C 150.632812 734.175781 151.214844 733.867188 151.765625 733.496094 C 152.316406 733.128906 152.824219 732.710938 153.292969 732.246094 C 153.757812 731.777344 154.175781 731.269531 154.546875 730.71875 C 154.914062 730.167969 155.222656 729.585938 155.476562 728.976562 C 155.730469 728.363281 155.921875 727.734375 156.050781 727.085938 C 156.179688 726.4375 156.242188 725.78125 156.242188 725.117188 L 156.242188 513.488281 C 156.253906 511.726562 156.492188 510 156.953125 508.304688 C 157.417969 506.605469 158.089844 505 158.972656 503.476562 C 159.859375 501.957031 160.921875 500.578125 162.167969 499.335938 C 163.414062 498.09375 164.796875 497.03125 166.320312 496.152344 L 166.320312 690.351562 C 166.328125 691.828125 166.40625 693.300781 166.558594 694.769531 C 166.710938 696.242188 166.933594 697.699219 167.226562 699.148438 C 167.523438 700.59375 167.890625 702.023438 168.324219 703.4375 C 168.761719 704.847656 169.265625 706.234375 169.835938 707.597656 C 170.410156 708.960938 171.046875 710.289062 171.75 711.589844 C 172.453125 712.890625 173.21875 714.152344 174.046875 715.375 C 174.875 716.597656 175.757812 717.78125 176.703125 718.917969 C 177.644531 720.054688 178.644531 721.140625 179.691406 722.179688 C 180.742188 723.21875 181.84375 724.203125 182.992188 725.136719 C 184.136719 726.066406 185.328125 726.9375 186.5625 727.75 C 187.792969 728.566406 189.066406 729.316406 190.371094 730.003906 C 191.679688 730.695312 193.015625 731.316406 194.386719 731.875 C 195.753906 732.429688 197.148438 732.917969 198.5625 733.339844 C 199.980469 733.757812 201.414062 734.109375 202.863281 734.386719 C 204.316406 734.667969 205.777344 734.875 207.246094 735.007812 C 208.71875 735.144531 210.195312 735.207031 211.671875 735.195312 C 213.359375 735.191406 215.042969 735.089844 216.722656 734.898438 C 218.398438 734.703125 220.0625 734.417969 221.707031 734.039062 C 223.355469 733.660156 224.972656 733.1875 226.566406 732.628906 C 228.160156 732.066406 229.71875 731.417969 231.242188 730.683594 C 232.761719 729.949219 234.238281 729.132812 235.667969 728.234375 C 237.097656 727.335938 238.472656 726.359375 239.792969 725.304688 C 241.113281 724.253906 242.371094 723.128906 243.566406 721.933594 C 244.761719 720.742188 245.886719 719.484375 246.941406 718.164062 C 247.996094 719.484375 249.121094 720.742188 250.316406 721.933594 C 251.511719 723.128906 252.773438 724.253906 254.09375 725.304688 C 255.414062 726.359375 256.789062 727.335938 258.21875 728.234375 C 259.648438 729.132812 261.125 729.949219 262.644531 730.683594 C 264.167969 731.417969 265.722656 732.066406 267.316406 732.628906 C 268.910156 733.1875 270.53125 733.660156 272.175781 734.039062 C 273.824219 734.417969 275.484375 734.703125 277.164062 734.898438 C 278.84375 735.089844 280.527344 735.191406 282.214844 735.195312 C 283.691406 735.207031 285.167969 735.144531 286.636719 735.007812 C 288.109375 734.875 289.570312 734.667969 291.019531 734.386719 C 292.472656 734.109375 293.90625 733.757812 295.324219 733.339844 C 296.738281 732.917969 298.132812 732.429688 299.5 731.875 C 300.867188 731.316406 302.207031 730.695312 303.511719 730.003906 C 304.820312 729.316406 306.089844 728.566406 307.324219 727.75 C 308.558594 726.9375 309.746094 726.066406 310.894531 725.136719 C 312.042969 724.203125 313.140625 723.21875 314.191406 722.179688 C 315.242188 721.140625 316.238281 720.054688 317.183594 718.917969 C 318.128906 717.78125 319.011719 716.597656 319.839844 715.375 C 320.667969 714.152344 321.433594 712.890625 322.136719 711.589844 C 322.839844 710.289062 323.476562 708.960938 324.050781 707.597656 C 324.621094 706.234375 325.125 704.847656 325.5625 703.4375 C 325.996094 702.023438 326.363281 700.59375 326.65625 699.148438 C 326.953125 697.699219 327.175781 696.242188 327.328125 694.769531 C 327.480469 693.300781 327.558594 691.828125 327.566406 690.351562 L 327.566406 402.632812 C 327.566406 401.96875 327.5 401.316406 327.371094 400.667969 C 327.242188 400.015625 327.050781 399.386719 326.796875 398.777344 C 326.542969 398.164062 326.234375 397.582031 325.867188 397.035156 C 325.5 396.484375 325.082031 395.972656 324.613281 395.507812 C 324.144531 395.039062 323.636719 394.621094 323.085938 394.253906 C 322.535156 393.886719 321.953125 393.574219 321.34375 393.320312 C 320.730469 393.070312 320.101562 392.878906 319.453125 392.75 C 318.804688 392.617188 318.148438 392.554688 317.488281 392.554688 C 316.824219 392.554688 316.167969 392.617188 315.519531 392.75 C 314.871094 392.878906 314.242188 393.070312 313.628906 393.320312 C 313.019531 393.574219 312.4375 393.886719 311.886719 394.253906 C 311.335938 394.621094 310.828125 395.039062 310.359375 395.507812 C 309.894531 395.972656 309.476562 396.484375 309.109375 397.035156 C 308.738281 397.582031 308.429688 398.164062 308.175781 398.777344 C 307.921875 399.386719 307.730469 400.015625 307.601562 400.667969 C 307.472656 401.316406 307.410156 401.96875 307.410156 402.632812 L 307.410156 690.351562 C 307.414062 691.980469 307.257812 693.59375 306.933594 695.195312 C 306.609375 696.792969 306.125 698.339844 305.484375 699.839844 C 304.84375 701.339844 304.058594 702.757812 303.125 704.097656 C 302.191406 705.433594 301.136719 706.664062 299.953125 707.785156 C 298.792969 708.953125 297.527344 709.992188 296.15625 710.90625 C 294.789062 711.820312 293.34375 712.589844 291.820312 713.210938 C 290.296875 713.835938 288.726562 714.300781 287.109375 714.609375 C 285.492188 714.917969 283.859375 715.0625 282.214844 715.042969 C 281.398438 715.046875 280.582031 715.015625 279.769531 714.941406 C 278.957031 714.867188 278.148438 714.753906 277.347656 714.601562 C 276.546875 714.449219 275.753906 714.257812 274.96875 714.027344 C 274.1875 713.800781 273.414062 713.53125 272.65625 713.226562 C 271.902344 712.921875 271.160156 712.578125 270.4375 712.199219 C 269.714844 711.820312 269.011719 711.410156 268.328125 710.960938 C 267.644531 710.515625 266.984375 710.035156 266.347656 709.523438 C 265.710938 709.011719 265.101562 708.472656 264.519531 707.898438 C 263.933594 707.328125 263.382812 706.730469 262.855469 706.101562 C 262.332031 705.476562 261.839844 704.828125 261.378906 704.152344 C 260.917969 703.480469 260.492188 702.785156 260.097656 702.070312 C 259.707031 701.351562 259.347656 700.621094 259.027344 699.867188 C 258.707031 699.117188 258.425781 698.351562 258.179688 697.574219 C 257.933594 696.796875 257.726562 696.007812 257.558594 695.207031 C 257.386719 694.410156 257.257812 693.605469 257.167969 692.792969 C 257.082031 691.980469 257.03125 691.167969 257.019531 690.351562 L 257.019531 523.566406 C 257.019531 522.902344 256.957031 522.246094 256.828125 521.597656 C 256.699219 520.949219 256.507812 520.320312 256.253906 519.707031 C 256 519.097656 255.691406 518.515625 255.320312 517.964844 C 254.953125 517.414062 254.535156 516.90625 254.070312 516.4375 C 253.601562 515.972656 253.09375 515.554688 252.542969 515.183594 C 251.992188 514.816406 251.410156 514.507812 250.800781 514.253906 C 250.1875 514 249.558594 513.808594 248.910156 513.679688 C 248.261719 513.550781 247.605469 513.488281 246.941406 513.488281 C 246.28125 513.488281 245.625 513.550781 244.976562 513.679688 C 244.328125 513.808594 243.699219 514 243.085938 514.253906 C 242.476562 514.507812 241.894531 514.816406 241.34375 515.183594 C 240.792969 515.554688 240.285156 515.972656 239.816406 516.4375 C 239.347656 516.90625 238.929688 517.414062 238.5625 517.964844 C 238.195312 518.515625 237.886719 519.097656 237.632812 519.707031 C 237.378906 520.320312 237.1875 520.949219 237.058594 521.597656 C 236.929688 522.246094 236.863281 522.902344 236.863281 523.566406 L 236.863281 690.351562 C 236.855469 691.167969 236.804688 691.980469 236.714844 692.792969 C 236.625 693.605469 236.496094 694.410156 236.328125 695.207031 C 236.160156 696.007812 235.953125 696.796875 235.707031 697.574219 C 235.460938 698.351562 235.179688 699.117188 234.855469 699.867188 C 234.535156 700.621094 234.179688 701.351562 233.785156 702.070312 C 233.394531 702.785156 232.96875 703.480469 232.507812 704.152344 C 232.046875 704.828125 231.554688 705.476562 231.027344 706.101562 C 230.503906 706.730469 229.949219 707.328125 229.367188 707.898438 C 228.785156 708.472656 228.175781 709.011719 227.539062 709.523438 C 226.902344 710.035156 226.242188 710.515625 225.558594 710.960938 C 224.875 711.410156 224.171875 711.820312 223.449219 712.199219 C 222.726562 712.578125 221.984375 712.921875 221.226562 713.226562 C 220.46875 713.53125 219.699219 713.800781 218.917969 714.027344 C 218.132812 714.257812 217.339844 714.449219 216.539062 714.601562 C 215.734375 714.753906 214.929688 714.867188 214.117188 714.941406 C 213.300781 715.015625 212.488281 715.046875 211.671875 715.042969 C 210.011719 715.058594 208.371094 714.910156 206.742188 714.597656 C 205.117188 714.28125 203.535156 713.808594 202.003906 713.175781 C 200.472656 712.546875 199.015625 711.765625 197.640625 710.84375 C 196.265625 709.917969 194.996094 708.863281 193.832031 707.683594 C 192.664062 706.566406 191.617188 705.339844 190.695312 704.007812 C 189.777344 702.679688 189 701.265625 188.367188 699.777344 C 187.734375 698.285156 187.257812 696.746094 186.941406 695.160156 C 186.621094 693.574219 186.46875 691.96875 186.476562 690.351562 L 186.476562 496.152344 C 188 497.03125 189.382812 498.09375 190.628906 499.335938 C 191.875 500.578125 192.941406 501.957031 193.824219 503.476562 C 194.707031 505 195.382812 506.605469 195.84375 508.304688 C 196.308594 510 196.542969 511.726562 196.554688 513.488281 C 196.554688 514.148438 196.617188 514.804688 196.746094 515.453125 C 196.878906 516.101562 197.066406 516.730469 197.320312 517.34375 C 197.574219 517.953125 197.886719 518.535156 198.253906 519.085938 C 198.621094 519.636719 199.039062 520.144531 199.507812 520.613281 C 199.972656 521.082031 200.484375 521.5 201.03125 521.867188 C 201.582031 522.234375 202.164062 522.542969 202.777344 522.796875 C 203.386719 523.050781 204.015625 523.242188 204.664062 523.371094 C 205.316406 523.5 205.96875 523.566406 206.632812 523.566406 C 207.292969 523.566406 207.949219 523.5 208.597656 523.371094 C 209.246094 523.242188 209.878906 523.050781 210.488281 522.796875 C 211.101562 522.542969 211.679688 522.234375 212.230469 521.867188 C 212.78125 521.5 213.289062 521.082031 213.757812 520.613281 C 214.226562 520.144531 214.644531 519.636719 215.011719 519.085938 C 215.378906 518.535156 215.6875 517.953125 215.941406 517.34375 C 216.195312 516.730469 216.386719 516.101562 216.515625 515.453125 C 216.644531 514.804688 216.710938 514.148438 216.710938 513.488281 C 216.707031 512.382812 216.65625 511.277344 216.5625 510.179688 C 216.46875 509.078125 216.328125 507.984375 216.144531 506.894531 C 215.960938 505.804688 215.730469 504.722656 215.457031 503.652344 C 215.1875 502.582031 214.871094 501.523438 214.507812 500.480469 C 214.148438 499.4375 213.746094 498.40625 213.300781 497.394531 C 212.859375 496.386719 212.371094 495.394531 211.847656 494.421875 C 211.320312 493.449219 210.753906 492.503906 210.152344 491.578125 C 209.546875 490.652344 208.90625 489.753906 208.226562 488.878906 C 207.550781 488.007812 206.835938 487.164062 206.089844 486.351562 C 205.34375 485.539062 204.5625 484.757812 203.75 484.007812 C 202.941406 483.257812 202.097656 482.542969 201.226562 481.859375 C 200.359375 481.179688 199.460938 480.535156 198.539062 479.929688 C 197.613281 479.324219 196.667969 478.753906 195.699219 478.226562 C 194.726562 477.699219 193.738281 477.210938 192.726562 476.761719 C 191.71875 476.3125 190.691406 475.910156 189.648438 475.546875 C 188.601562 475.183594 187.546875 474.863281 186.476562 474.585938 L 186.476562 402.632812 C 186.476562 401.96875 186.410156 401.316406 186.28125 400.667969 C 186.152344 400.015625 185.960938 399.386719 185.710938 398.777344 C 185.457031 398.164062 185.144531 397.582031 184.777344 397.035156 C 184.410156 396.484375 183.992188 395.972656 183.523438 395.507812 C 183.058594 395.039062 182.546875 394.621094 181.996094 394.253906 C 181.449219 393.886719 180.867188 393.574219 180.253906 393.320312 C 179.644531 393.070312 179.015625 392.878906 178.363281 392.75 C 177.714844 392.617188 177.0625 392.554688 176.398438 392.554688 C 175.738281 392.554688 175.082031 392.617188 174.433594 392.75 C 173.785156 392.878906 173.152344 393.070312 172.542969 393.320312 C 171.929688 393.574219 171.351562 393.886719 170.800781 394.253906 C 170.25 394.621094 169.742188 395.039062 169.273438 395.507812 C 168.804688 395.972656 168.386719 396.484375 168.019531 397.035156 C 167.652344 397.582031 167.339844 398.164062 167.089844 398.777344 C 166.835938 399.386719 166.644531 400.015625 166.515625 400.667969 C 166.386719 401.316406 166.320312 401.96875 166.320312 402.632812 L 166.320312 474.585938 C 163.773438 475.273438 161.320312 476.203125 158.953125 477.375 C 156.589844 478.542969 154.359375 479.933594 152.269531 481.542969 C 150.175781 483.148438 148.261719 484.945312 146.523438 486.929688 C 144.78125 488.914062 143.253906 491.046875 141.933594 493.332031 C 138.4375 492.550781 135.34375 490.96875 132.660156 488.59375 C 131.585938 487.625 130.625 486.550781 129.78125 485.375 C 128.9375 484.195312 128.226562 482.941406 127.652344 481.609375 C 127.078125 480.28125 126.65625 478.90625 126.378906 477.480469 C 126.101562 476.058594 125.976562 474.625 126.011719 473.175781 L 126.011719 358.894531 C 126.003906 356.117188 126.203125 353.355469 126.601562 350.609375 C 127 347.863281 127.597656 345.160156 128.394531 342.5 C 129.1875 339.839844 130.171875 337.253906 131.347656 334.738281 C 132.523438 332.222656 133.875 329.804688 135.402344 327.488281 C 136.929688 325.171875 138.621094 322.976562 140.46875 320.90625 C 142.320312 318.835938 144.3125 316.914062 146.441406 315.136719 C 148.574219 313.355469 150.824219 311.742188 153.195312 310.296875 C 155.5625 308.847656 158.023438 307.578125 160.578125 306.492188 C 167.734375 303.328125 175.226562 301.785156 183.050781 301.855469 L 210.765625 301.855469 C 213.480469 303.496094 216.292969 304.945312 219.207031 306.207031 C 222.121094 307.464844 225.105469 308.519531 228.164062 309.371094 C 231.222656 310.222656 234.320312 310.863281 237.464844 311.292969 C 240.609375 311.726562 243.769531 311.941406 246.941406 311.941406 C 250.117188 311.941406 253.277344 311.726562 256.417969 311.292969 C 259.5625 310.863281 262.664062 310.222656 265.722656 309.371094 C 268.777344 308.519531 271.765625 307.464844 274.679688 306.207031 C 277.589844 304.945312 280.40625 303.496094 283.121094 301.855469 L 310.835938 301.855469 C 318.660156 301.785156 326.152344 303.328125 333.308594 306.492188 C 335.863281 307.578125 338.324219 308.847656 340.691406 310.296875 C 343.0625 311.742188 345.3125 313.355469 347.441406 315.136719 C 349.574219 316.914062 351.566406 318.835938 353.414062 320.90625 C 355.265625 322.976562 356.953125 325.171875 358.484375 327.488281 C 360.011719 329.804688 361.363281 332.222656 362.539062 334.738281 C 363.710938 337.253906 364.699219 339.839844 365.492188 342.5 C 366.289062 345.160156 366.886719 347.863281 367.285156 350.609375 C 367.683594 353.355469 367.878906 356.117188 367.875 358.894531 L 367.875 473.175781 C 367.929688 474.496094 367.828125 475.804688 367.570312 477.097656 C 367.316406 478.394531 366.910156 479.640625 366.359375 480.84375 C 365.808594 482.042969 365.121094 483.160156 364.304688 484.199219 C 363.488281 485.234375 362.5625 486.164062 361.527344 486.984375 Z M 196.554688 241.390625 C 196.554688 239.738281 196.636719 238.09375 196.796875 236.449219 C 196.957031 234.808594 197.199219 233.175781 197.523438 231.558594 C 197.84375 229.941406 198.246094 228.339844 198.722656 226.761719 C 199.203125 225.183594 199.757812 223.628906 200.390625 222.105469 C 201.019531 220.582031 201.726562 219.089844 202.503906 217.636719 C 203.28125 216.179688 204.128906 214.765625 205.046875 213.394531 C 205.964844 212.023438 206.945312 210.699219 207.992188 209.421875 C 209.039062 208.148438 210.144531 206.925781 211.3125 205.757812 C 212.480469 204.59375 213.699219 203.484375 214.976562 202.4375 C 216.253906 201.390625 217.578125 200.410156 218.949219 199.492188 C 220.320312 198.574219 221.734375 197.726562 223.191406 196.949219 C 224.644531 196.171875 226.136719 195.46875 227.660156 194.835938 C 229.183594 194.203125 230.738281 193.648438 232.316406 193.171875 C 233.894531 192.691406 235.492188 192.289062 237.113281 191.96875 C 238.730469 191.648438 240.363281 191.40625 242.003906 191.242188 C 243.644531 191.082031 245.292969 191 246.941406 191 C 248.59375 191 250.238281 191.082031 251.882812 191.242188 C 253.523438 191.40625 255.15625 191.648438 256.773438 191.96875 C 258.390625 192.289062 259.992188 192.691406 261.570312 193.171875 C 263.148438 193.648438 264.699219 194.203125 266.226562 194.835938 C 267.75 195.46875 269.242188 196.171875 270.695312 196.949219 C 272.152344 197.726562 273.566406 198.574219 274.9375 199.492188 C 276.308594 200.410156 277.632812 201.390625 278.910156 202.4375 C 280.183594 203.484375 281.40625 204.59375 282.574219 205.757812 C 283.738281 206.925781 284.847656 208.148438 285.894531 209.421875 C 286.941406 210.699219 287.921875 212.023438 288.839844 213.394531 C 289.757812 214.765625 290.605469 216.179688 291.382812 217.636719 C 292.160156 219.089844 292.863281 220.582031 293.496094 222.105469 C 294.128906 223.628906 294.683594 225.183594 295.160156 226.761719 C 295.640625 228.339844 296.042969 229.941406 296.363281 231.558594 C 296.683594 233.175781 296.925781 234.808594 297.089844 236.449219 C 297.25 238.09375 297.332031 239.738281 297.332031 241.390625 C 297.332031 243.039062 297.25 244.683594 297.089844 246.328125 C 296.925781 247.96875 296.683594 249.601562 296.363281 251.21875 C 296.042969 252.835938 295.640625 254.4375 295.160156 256.015625 C 294.683594 257.59375 294.128906 259.148438 293.496094 260.671875 C 292.863281 262.195312 292.160156 263.6875 291.382812 265.140625 C 290.605469 266.597656 289.757812 268.011719 288.839844 269.382812 C 287.921875 270.753906 286.941406 272.078125 285.894531 273.355469 C 284.847656 274.628906 283.738281 275.851562 282.574219 277.019531 C 281.40625 278.1875 280.183594 279.292969 278.910156 280.339844 C 277.632812 281.386719 276.308594 282.367188 274.9375 283.285156 C 273.566406 284.203125 272.152344 285.050781 270.695312 285.828125 C 269.242188 286.605469 267.75 287.308594 266.226562 287.941406 C 264.699219 288.574219 263.148438 289.128906 261.570312 289.609375 C 259.992188 290.085938 258.390625 290.488281 256.773438 290.808594 C 255.15625 291.132812 253.523438 291.371094 251.882812 291.535156 C 250.238281 291.695312 248.59375 291.777344 246.941406 291.777344 C 245.292969 291.777344 243.644531 291.695312 242.003906 291.535156 C 240.363281 291.371094 238.730469 291.132812 237.113281 290.808594 C 235.492188 290.488281 233.894531 290.085938 232.316406 289.609375 C 230.738281 289.128906 229.183594 288.574219 227.660156 287.941406 C 226.136719 287.308594 224.644531 286.605469 223.191406 285.828125 C 221.734375 285.050781 220.320312 284.203125 218.949219 283.285156 C 217.578125 282.367188 216.253906 281.386719 214.976562 280.339844 C 213.699219 279.292969 212.480469 278.1875 211.3125 277.019531 C 210.144531 275.851562 209.039062 274.628906 207.992188 273.355469 C 206.945312 272.078125 205.964844 270.753906 205.046875 269.382812 C 204.128906 268.011719 203.28125 266.597656 202.503906 265.140625 C 201.726562 263.6875 201.019531 262.195312 200.390625 260.671875 C 199.757812 259.148438 199.203125 257.59375 198.722656 256.015625 C 198.246094 254.4375 197.84375 252.835938 197.523438 251.21875 C 197.199219 249.601562 196.957031 247.96875 196.796875 246.328125 C 196.636719 244.683594 196.554688 243.039062 196.554688 241.390625 Z M 196.554688 241.390625 "/></g><path style=" stroke:none;fill-rule:nonzero;fill:#113c7b;fill-opacity:1;" d="M 599.992188 516.007812 L 600.003906 516.023438 L 600.011719 516.023438 Z M 599.992188 516.007812 "/><g clip-rule="nonzero" clip-path="url(#b631ec1736)"><path style=" stroke:none;fill-rule:nonzero;fill:#113c7b;fill-opacity:1;" d="M 739.777344 563.996094 L 788.816406 498.648438 C 792.515625 493.703125 794.207031 487.78125 794.207031 481.957031 C 794.195312 474.832031 791.695312 467.617188 786.414062 462.195312 L 786.292969 462.070312 L 786.097656 461.867188 L 786.269531 462.046875 C 781.164062 456.84375 774.296875 454.292969 767.507812 454.289062 C 761.46875 454.289062 755.3125 456.316406 750.394531 460.574219 L 750.402344 460.5625 L 707.5625 497.589844 C 704.113281 500.585938 700.195312 503.367188 696.917969 505.28125 C 695.292969 506.230469 693.808594 506.96875 692.75 507.40625 C 692.214844 507.621094 691.789062 507.761719 691.558594 507.816406 L 691.460938 507.84375 C 687.785156 507.84375 664.148438 507.84375 660.324219 507.84375 C 660.101562 507.789062 659.304688 507.511719 658.300781 506.980469 C 654.964844 505.265625 649.644531 501.265625 645.382812 496.867188 L 608.320312 458.875 C 603.507812 453.933594 597.0625 451.417969 590.6875 451.421875 C 584.332031 451.414062 577.898438 453.914062 573.089844 458.839844 L 535.789062 496.886719 C 532.625 500.121094 528.984375 503.136719 525.9375 505.191406 C 524.421875 506.21875 523.046875 507 522.082031 507.449219 C 521.621094 507.660156 521.265625 507.789062 521.097656 507.839844 C 517.421875 507.839844 492.808594 507.839844 489.398438 507.839844 C 489.128906 507.757812 488.390625 507.492188 487.460938 507.027344 C 484.101562 505.394531 478.589844 501.65625 473.898438 497.523438 L 431.5 460.363281 C 426.636719 456.101562 420.527344 454.03125 414.507812 454.035156 C 407.71875 454.03125 400.84375 456.664062 395.789062 461.960938 L 395.65625 462.097656 C 390.449219 467.597656 388.003906 474.855469 387.984375 482.019531 C 387.996094 487.835938 389.621094 493.75 393.226562 498.71875 L 437.191406 559.09375 C 439.90625 562.816406 442.425781 566.988281 444.179688 570.476562 C 445.054688 572.214844 445.738281 573.785156 446.148438 574.941406 C 446.355469 575.519531 446.492188 575.992188 446.554688 576.285156 L 446.605469 576.527344 C 446.609375 580.460938 446.867188 591.414062 447.175781 601.378906 L 450.589844 710.652344 C 450.808594 717.203125 453.175781 723.199219 457.082031 727.75 C 460.957031 732.269531 466.632812 735.464844 473.09375 735.46875 C 481.40625 735.46875 530.703125 735.46875 538.824219 735.46875 C 545.25 735.460938 550.859375 732.214844 554.648438 727.691406 C 558.464844 723.136719 560.777344 717.167969 560.988281 710.652344 L 564.40625 601.078125 C 564.71875 591.015625 564.976562 579.820312 564.976562 575.84375 C 564.972656 575.710938 565.140625 574.632812 565.53125 573.289062 C 566.683594 569.136719 569.570312 562.148438 572.792969 556.179688 L 578.449219 545.675781 C 580.734375 541.425781 583.371094 536.949219 585.71875 533.261719 C 586.894531 531.414062 587.996094 529.765625 588.917969 528.464844 C 589.671875 527.402344 590.332031 526.574219 590.695312 526.144531 C 591 526.546875 591.375 527.042969 591.777344 527.613281 C 594.457031 531.339844 598.707031 538.050781 602.332031 544.371094 L 611.808594 560.902344 C 613.613281 564.035156 615.144531 567.519531 616.167969 570.644531 C 617.210938 573.738281 617.695312 576.585938 617.667969 577.859375 L 617.640625 578.359375 C 616.832031 580.574219 615.59375 584.257812 614.152344 588.675781 C 612.679688 593.183594 611.027344 598.378906 609.546875 603.203125 L 597.941406 640.933594 C 596.832031 644.546875 595.949219 647.929688 595.320312 650.886719 C 594.703125 653.875 594.304688 656.277344 594.285156 658.621094 C 594.3125 659.582031 594.300781 660.503906 594.777344 662.046875 C 595.050781 662.816406 595.449219 663.84375 596.574219 665.011719 C 597.128906 665.582031 597.898438 666.160156 598.816406 666.566406 C 599.726562 666.972656 600.777344 667.179688 601.707031 667.175781 C 603.132812 667.175781 609.109375 667.175781 614.992188 667.175781 C 619.035156 667.175781 623.492188 667.175781 626.71875 667.175781 C 627.375 669.660156 627.925781 673.882812 627.914062 678.558594 L 627.914062 710.425781 C 627.929688 716.613281 629.457031 722.3125 632.355469 726.9375 C 633.824219 729.242188 635.65625 731.296875 637.984375 732.871094 C 640.296875 734.4375 643.195312 735.476562 646.265625 735.464844 C 652.601562 735.464844 694.460938 735.464844 701.722656 735.464844 C 704.835938 735.46875 707.804688 734.570312 710.304688 733.09375 C 714.074219 730.871094 716.875 727.492188 718.792969 723.597656 C 720.707031 719.695312 721.753906 715.191406 721.753906 710.425781 L 721.753906 678.558594 C 721.746094 674 722.222656 669.832031 722.835938 667.265625 C 722.84375 667.234375 722.851562 667.207031 722.855469 667.175781 C 725.9375 667.175781 730.101562 667.175781 733.90625 667.175781 C 739.617188 667.175781 745.433594 667.175781 746.824219 667.175781 C 747.773438 667.179688 748.828125 666.96875 749.757812 666.546875 C 751.402344 665.804688 752.425781 664.605469 752.96875 663.714844 C 753.792969 662.328125 753.9375 661.402344 754.082031 660.636719 C 754.199219 659.871094 754.222656 659.25 754.226562 658.636719 C 754.210938 656.308594 753.820312 653.910156 753.207031 650.914062 C 752.589844 647.957031 751.71875 644.5625 750.628906 640.9375 L 735.199219 589.90625 C 734.625 588.027344 734.292969 585.585938 734.292969 582.9375 C 734.292969 579.53125 734.832031 575.789062 735.828125 572.40625 C 736.804688 569.027344 738.253906 566.003906 739.777344 563.996094 Z M 617.695312 578.214844 L 617.703125 578.195312 C 617.695312 578.203125 617.695312 578.210938 617.695312 578.214844 Z M 626.082031 665.257812 Z M 728.855469 555.796875 C 726.054688 559.539062 724.082031 563.9375 722.710938 568.585938 C 721.359375 573.234375 720.632812 578.136719 720.628906 582.945312 C 720.632812 586.6875 721.070312 590.378906 722.117188 593.867188 L 737.546875 644.898438 C 738.515625 648.097656 739.277344 651.078125 739.792969 653.53125 C 737.949219 653.53125 735.921875 653.53125 733.902344 653.53125 C 728.1875 653.53125 721.582031 653.53125 719.21875 653.53125 C 716.875 653.519531 714.949219 654.605469 713.859375 655.582031 C 712.863281 656.460938 712.265625 657.324219 711.777344 658.132812 C 710.941406 659.554688 710.445312 660.910156 710 662.386719 C 708.730469 666.746094 708.105469 672.289062 708.085938 678.574219 L 708.085938 710.445312 C 708.105469 714.101562 706.957031 717.328125 705.511719 719.292969 C 704.800781 720.285156 704.035156 720.945312 703.386719 721.324219 C 702.734375 721.699219 702.238281 721.8125 701.710938 721.820312 C 696.488281 721.820312 688.355469 721.820312 681.058594 721.820312 L 681.058594 662.636719 C 681.058594 658.867188 678.003906 655.808594 674.226562 655.808594 C 670.457031 655.808594 667.398438 658.867188 667.398438 662.636719 L 667.398438 721.820312 C 659.839844 721.820312 651.265625 721.820312 646.257812 721.820312 C 646.160156 721.8125 646.027344 721.824219 645.585938 721.542969 C 644.945312 721.132812 643.820312 719.898438 642.988281 717.910156 C 642.136719 715.9375 641.5625 713.308594 641.5625 710.433594 L 641.5625 678.566406 C 641.554688 673.078125 641.035156 668.117188 640.027344 664.050781 C 639.507812 662.003906 638.917969 660.1875 637.855469 658.339844 C 637.304688 657.417969 636.636719 656.445312 635.476562 655.460938 C 634.355469 654.507812 632.453125 653.511719 630.207031 653.519531 C 627.722656 653.519531 620.867188 653.519531 614.984375 653.519531 C 612.832031 653.519531 610.671875 653.519531 608.71875 653.519531 C 609.242188 651.09375 610.007812 648.132812 610.988281 644.949219 L 622.589844 607.226562 C 624.046875 602.480469 625.679688 597.339844 627.125 592.910156 C 628.566406 588.492188 629.839844 584.722656 630.503906 582.925781 L 630.511719 582.902344 C 631.164062 581.085938 631.304688 579.460938 631.3125 577.863281 C 631.292969 574.203125 630.445312 570.4375 629.128906 566.378906 C 627.796875 562.34375 625.945312 558.121094 623.648438 554.113281 L 614.164062 537.582031 C 611.601562 533.121094 608.808594 528.570312 606.324219 524.761719 C 605.082031 522.855469 603.917969 521.132812 602.867188 519.675781 C 601.820312 518.21875 600.953125 517.0625 600 516.019531 C 597.605469 513.371094 594.15625 512.054688 590.980469 512.085938 C 587.175781 512.097656 583.578125 513.753906 580.933594 516.566406 C 579.867188 517.710938 578.90625 518.980469 577.777344 520.554688 C 574.464844 525.222656 570.113281 532.335938 566.410156 539.210938 L 560.757812 549.714844 C 558.226562 554.421875 555.96875 559.417969 554.285156 563.878906 C 553.441406 566.109375 552.742188 568.207031 552.226562 570.136719 C 551.71875 572.101562 551.335938 573.761719 551.308594 575.828125 C 551.3125 579.378906 551.058594 590.714844 550.75 600.65625 L 547.324219 710.230469 C 547.230469 713.722656 545.929688 716.855469 544.195312 718.898438 C 542.417969 720.96875 540.511719 721.820312 538.816406 721.816406 C 532.328125 721.816406 521.671875 721.816406 512.605469 721.816406 L 512.605469 662.632812 C 512.605469 658.863281 509.550781 655.800781 505.777344 655.800781 C 502.007812 655.800781 498.949219 658.863281 498.949219 662.632812 L 498.949219 721.816406 C 489.984375 721.816406 479.554688 721.816406 473.082031 721.816406 C 471.238281 721.816406 469.230469 720.917969 467.421875 718.839844 C 465.640625 716.792969 464.328125 713.683594 464.234375 710.230469 L 460.820312 600.957031 C 460.511719 591.011719 460.25 579.789062 460.25 576.386719 C 460.246094 575.179688 460.078125 574.203125 459.859375 573.234375 C 459.078125 569.941406 457.554688 566.566406 455.542969 562.730469 C 453.527344 558.945312 451.003906 554.878906 448.222656 551.058594 L 404.261719 490.6875 C 402.589844 488.402344 401.640625 485.28125 401.640625 482.03125 C 401.625 478.011719 403.109375 474.035156 405.53125 471.53125 L 405.671875 471.386719 C 407.953125 468.980469 411.1875 467.703125 414.5 467.703125 C 417.433594 467.703125 420.28125 468.699219 422.484375 470.640625 L 464.890625 507.804688 C 468.964844 511.367188 473.304688 514.554688 477.257812 516.976562 C 479.246094 518.1875 481.121094 519.199219 482.941406 519.992188 C 483.855469 520.390625 484.761719 520.726562 485.722656 521.003906 C 486.699219 521.269531 487.71875 521.492188 489.050781 521.5 C 492.339844 521.5 517.855469 521.5 521.421875 521.5 C 522.800781 521.492188 523.886719 521.25 524.914062 520.960938 C 526.6875 520.425781 528.277344 519.671875 529.949219 518.753906 C 534.882812 515.984375 540.464844 511.589844 545.527344 506.460938 L 582.828125 468.398438 C 585.019531 466.167969 587.808594 465.097656 590.671875 465.089844 C 593.535156 465.09375 596.335938 466.175781 598.535156 468.417969 L 635.597656 506.40625 C 639.449219 510.347656 643.6875 513.859375 647.691406 516.53125 C 649.695312 517.863281 651.636719 518.992188 653.566406 519.867188 C 654.539062 520.304688 655.507812 520.683594 656.539062 520.976562 C 657.582031 521.265625 658.683594 521.492188 660.042969 521.5 C 663.800781 521.5 688.050781 521.5 691.667969 521.5 C 692.957031 521.492188 693.996094 521.289062 694.992188 521.039062 C 698.378906 520.113281 701.652344 518.390625 705.359375 516.128906 C 709.015625 513.863281 712.871094 511.042969 716.480469 507.921875 L 759.324219 470.898438 L 759.332031 470.890625 C 761.550781 468.953125 764.46875 467.949219 767.492188 467.949219 C 770.882812 467.945312 774.191406 469.238281 776.5 471.605469 L 776.660156 471.773438 C 779.082031 474.21875 780.546875 478.058594 780.535156 481.953125 C 780.539062 485.128906 779.582031 488.183594 777.875 490.449219 Z M 728.855469 555.796875 "/></g><path style=" stroke:none;fill-rule:nonzero;fill:#113c7b;fill-opacity:1;" d="M 505.78125 491.910156 C 534.703125 491.910156 558.136719 468.472656 558.136719 439.554688 C 558.136719 410.632812 534.703125 387.195312 505.78125 387.195312 C 476.863281 387.195312 453.425781 410.632812 453.425781 439.554688 C 453.425781 468.472656 476.863281 491.910156 505.78125 491.910156 Z M 505.78125 400.855469 C 527.125 400.855469 544.480469 418.214844 544.480469 439.554688 C 544.480469 460.890625 527.121094 478.25 505.78125 478.25 C 484.445312 478.25 467.085938 460.890625 467.085938 439.554688 C 467.085938 418.214844 484.445312 400.855469 505.78125 400.855469 Z M 505.78125 400.855469 "/><path style=" stroke:none;fill-rule:nonzero;fill:#113c7b;fill-opacity:1;" d="M 512.277344 565.398438 C 512.277344 565.847656 512.234375 566.292969 512.148438 566.730469 C 512.058594 567.171875 511.929688 567.597656 511.757812 568.011719 C 511.585938 568.425781 511.378906 568.820312 511.128906 569.191406 C 510.878906 569.566406 510.597656 569.910156 510.277344 570.226562 C 509.960938 570.546875 509.617188 570.828125 509.242188 571.078125 C 508.871094 571.328125 508.476562 571.535156 508.0625 571.707031 C 507.648438 571.878906 507.222656 572.007812 506.78125 572.097656 C 506.34375 572.183594 505.898438 572.226562 505.449219 572.226562 C 505 572.226562 504.558594 572.183594 504.117188 572.097656 C 503.679688 572.007812 503.25 571.878906 502.835938 571.707031 C 502.421875 571.535156 502.027344 571.328125 501.65625 571.078125 C 501.285156 570.828125 500.9375 570.546875 500.621094 570.226562 C 500.304688 569.910156 500.019531 569.566406 499.773438 569.191406 C 499.523438 568.820312 499.3125 568.425781 499.140625 568.011719 C 498.96875 567.597656 498.839844 567.171875 498.753906 566.730469 C 498.664062 566.292969 498.621094 565.847656 498.621094 565.398438 C 498.621094 564.949219 498.664062 564.507812 498.753906 564.066406 C 498.839844 563.628906 498.96875 563.199219 499.140625 562.785156 C 499.3125 562.371094 499.523438 561.976562 499.773438 561.605469 C 500.019531 561.230469 500.304688 560.886719 500.621094 560.570312 C 500.9375 560.253906 501.285156 559.96875 501.65625 559.722656 C 502.027344 559.472656 502.421875 559.261719 502.835938 559.089844 C 503.25 558.917969 503.679688 558.789062 504.117188 558.703125 C 504.558594 558.613281 505 558.570312 505.449219 558.570312 C 505.898438 558.570312 506.34375 558.613281 506.78125 558.703125 C 507.222656 558.789062 507.648438 558.917969 508.0625 559.089844 C 508.476562 559.261719 508.871094 559.472656 509.242188 559.722656 C 509.617188 559.96875 509.960938 560.253906 510.277344 560.570312 C 510.597656 560.886719 510.878906 561.230469 511.128906 561.605469 C 511.378906 561.976562 511.585938 562.371094 511.757812 562.785156 C 511.929688 563.199219 512.058594 563.628906 512.148438 564.066406 C 512.234375 564.507812 512.277344 564.949219 512.277344 565.398438 Z M 512.277344 565.398438 "/><path style=" stroke:none;fill-rule:nonzero;fill:#113c7b;fill-opacity:1;" d="M 512.277344 597.269531 C 512.277344 597.714844 512.234375 598.160156 512.148438 598.601562 C 512.058594 599.039062 511.929688 599.46875 511.757812 599.882812 C 511.585938 600.296875 511.378906 600.6875 511.128906 601.0625 C 510.878906 601.433594 510.597656 601.78125 510.277344 602.097656 C 509.960938 602.414062 509.617188 602.695312 509.242188 602.945312 C 508.871094 603.195312 508.476562 603.40625 508.0625 603.578125 C 507.648438 603.75 507.222656 603.878906 506.78125 603.964844 C 506.34375 604.054688 505.898438 604.097656 505.449219 604.097656 C 505 604.097656 504.558594 604.054688 504.117188 603.964844 C 503.679688 603.878906 503.25 603.75 502.835938 603.578125 C 502.421875 603.40625 502.027344 603.195312 501.65625 602.945312 C 501.285156 602.695312 500.9375 602.414062 500.621094 602.097656 C 500.304688 601.78125 500.019531 601.433594 499.773438 601.0625 C 499.523438 600.6875 499.3125 600.296875 499.140625 599.882812 C 498.96875 599.46875 498.839844 599.039062 498.753906 598.601562 C 498.664062 598.160156 498.621094 597.714844 498.621094 597.269531 C 498.621094 596.820312 498.664062 596.375 498.753906 595.9375 C 498.839844 595.496094 498.96875 595.070312 499.140625 594.65625 C 499.3125 594.242188 499.523438 593.847656 499.773438 593.472656 C 500.019531 593.101562 500.304688 592.757812 500.621094 592.4375 C 500.9375 592.121094 501.285156 591.839844 501.65625 591.589844 C 502.027344 591.339844 502.421875 591.128906 502.835938 590.957031 C 503.25 590.789062 503.679688 590.65625 504.117188 590.570312 C 504.558594 590.484375 505 590.4375 505.449219 590.4375 C 505.898438 590.4375 506.34375 590.484375 506.78125 590.570312 C 507.222656 590.65625 507.648438 590.789062 508.0625 590.957031 C 508.476562 591.128906 508.871094 591.339844 509.242188 591.589844 C 509.617188 591.839844 509.960938 592.121094 510.277344 592.4375 C 510.597656 592.757812 510.878906 593.101562 511.128906 593.472656 C 511.378906 593.847656 511.585938 594.242188 511.757812 594.65625 C 511.929688 595.070312 512.058594 595.496094 512.148438 595.9375 C 512.234375 596.375 512.277344 596.820312 512.277344 597.269531 Z M 512.277344 597.269531 "/><path style=" stroke:none;fill-rule:nonzero;fill:#113c7b;fill-opacity:1;" d="M 680.730469 565.398438 C 680.730469 565.847656 680.6875 566.292969 680.597656 566.730469 C 680.511719 567.171875 680.382812 567.597656 680.210938 568.011719 C 680.039062 568.425781 679.828125 568.820312 679.578125 569.191406 C 679.328125 569.566406 679.046875 569.910156 678.730469 570.226562 C 678.414062 570.546875 678.066406 570.828125 677.695312 571.078125 C 677.320312 571.328125 676.929688 571.535156 676.515625 571.707031 C 676.097656 571.878906 675.671875 572.007812 675.234375 572.097656 C 674.792969 572.183594 674.347656 572.226562 673.898438 572.226562 C 673.453125 572.226562 673.007812 572.183594 672.566406 572.097656 C 672.128906 572.007812 671.703125 571.878906 671.285156 571.707031 C 670.871094 571.535156 670.480469 571.328125 670.105469 571.078125 C 669.734375 570.828125 669.386719 570.546875 669.070312 570.226562 C 668.753906 569.910156 668.472656 569.566406 668.222656 569.191406 C 667.972656 568.820312 667.761719 568.425781 667.589844 568.011719 C 667.417969 567.597656 667.289062 567.171875 667.203125 566.730469 C 667.113281 566.292969 667.070312 565.847656 667.070312 565.398438 C 667.070312 564.949219 667.113281 564.507812 667.203125 564.066406 C 667.289062 563.628906 667.417969 563.199219 667.589844 562.785156 C 667.761719 562.371094 667.972656 561.976562 668.222656 561.605469 C 668.472656 561.230469 668.753906 560.886719 669.070312 560.570312 C 669.386719 560.253906 669.734375 559.96875 670.105469 559.722656 C 670.480469 559.472656 670.871094 559.261719 671.285156 559.089844 C 671.703125 558.917969 672.128906 558.789062 672.566406 558.703125 C 673.007812 558.613281 673.453125 558.570312 673.898438 558.570312 C 674.347656 558.570312 674.792969 558.613281 675.234375 558.703125 C 675.671875 558.789062 676.097656 558.917969 676.515625 559.089844 C 676.929688 559.261719 677.320312 559.472656 677.695312 559.722656 C 678.066406 559.96875 678.414062 560.253906 678.730469 560.570312 C 679.046875 560.886719 679.328125 561.230469 679.578125 561.605469 C 679.828125 561.976562 680.039062 562.371094 680.210938 562.785156 C 680.382812 563.199219 680.511719 563.628906 680.597656 564.066406 C 680.6875 564.507812 680.730469 564.949219 680.730469 565.398438 Z M 680.730469 565.398438 "/><path style=" stroke:none;fill-rule:nonzero;fill:#113c7b;fill-opacity:1;" d="M 680.730469 597.269531 C 680.730469 597.714844 680.6875 598.160156 680.597656 598.601562 C 680.511719 599.039062 680.382812 599.46875 680.210938 599.882812 C 680.039062 600.296875 679.828125 600.6875 679.578125 601.0625 C 679.328125 601.433594 679.046875 601.78125 678.730469 602.097656 C 678.414062 602.414062 678.066406 602.695312 677.695312 602.945312 C 677.320312 603.195312 676.929688 603.40625 676.515625 603.578125 C 676.097656 603.75 675.671875 603.878906 675.234375 603.964844 C 674.792969 604.054688 674.347656 604.097656 673.898438 604.097656 C 673.453125 604.097656 673.007812 604.054688 672.566406 603.964844 C 672.128906 603.878906 671.703125 603.75 671.285156 603.578125 C 670.871094 603.40625 670.480469 603.195312 670.105469 602.945312 C 669.734375 602.695312 669.386719 602.414062 669.070312 602.097656 C 668.753906 601.78125 668.472656 601.433594 668.222656 601.0625 C 667.972656 600.6875 667.761719 600.296875 667.589844 599.882812 C 667.417969 599.46875 667.289062 599.039062 667.203125 598.601562 C 667.113281 598.160156 667.070312 597.714844 667.070312 597.269531 C 667.070312 596.820312 667.113281 596.375 667.203125 595.9375 C 667.289062 595.496094 667.417969 595.070312 667.589844 594.65625 C 667.761719 594.242188 667.972656 593.847656 668.222656 593.472656 C 668.472656 593.101562 668.753906 592.757812 669.070312 592.4375 C 669.386719 592.121094 669.734375 591.839844 670.105469 591.589844 C 670.480469 591.339844 670.871094 591.128906 671.285156 590.957031 C 671.703125 590.789062 672.128906 590.65625 672.566406 590.570312 C 673.007812 590.484375 673.453125 590.4375 673.898438 590.4375 C 674.347656 590.4375 674.792969 590.484375 675.234375 590.570312 C 675.671875 590.65625 676.097656 590.789062 676.515625 590.957031 C 676.929688 591.128906 677.320312 591.339844 677.695312 591.589844 C 678.066406 591.839844 678.414062 592.121094 678.730469 592.4375 C 679.046875 592.757812 679.328125 593.101562 679.578125 593.472656 C 679.828125 593.847656 680.039062 594.242188 680.210938 594.65625 C 680.382812 595.070312 680.511719 595.496094 680.597656 595.9375 C 680.6875 596.375 680.730469 596.820312 680.730469 597.269531 Z M 680.730469 597.269531 "/><path style=" stroke:none;fill-rule:nonzero;fill:#113c7b;fill-opacity:1;" d="M 580.566406 432.117188 C 580.566406 432.117188 591.628906 438.636719 605.710938 438.636719 C 610.128906 438.636719 614.851562 437.996094 619.617188 436.308594 C 620.386719 436.03125 621.066406 435.664062 621.800781 435.355469 C 621.695312 436.746094 621.589844 438.132812 621.589844 439.554688 C 621.589844 468.472656 645.027344 491.910156 673.945312 491.910156 C 702.863281 491.910156 726.300781 468.472656 726.300781 439.554688 C 726.300781 438.042969 726.203125 436.558594 726.074219 435.082031 C 727 435.492188 727.867188 435.960938 728.847656 436.3125 C 733.617188 438 738.335938 438.644531 742.761719 438.644531 C 756.839844 438.644531 767.90625 432.125 767.90625 432.125 C 770.0625 430.851562 771.109375 427.890625 770.234375 425.542969 C 770.234375 425.542969 762.488281 404.765625 742.535156 397.695312 C 737.769531 396.007812 733.058594 395.363281 728.632812 395.363281 C 719.941406 395.363281 712.40625 397.851562 707.90625 399.757812 C 698.753906 391.941406 686.910156 387.203125 673.941406 387.203125 C 661.0625 387.203125 649.277344 391.871094 640.160156 399.589844 C 635.621094 397.714844 628.277344 395.363281 619.828125 395.363281 C 615.40625 395.363281 610.695312 396.007812 605.929688 397.695312 C 585.972656 404.765625 578.226562 425.542969 578.226562 425.542969 C 577.351562 427.890625 578.402344 430.847656 580.566406 432.117188 Z M 728.636719 409.019531 C 731.9375 409.019531 735.074219 409.53125 737.976562 410.566406 C 745.304688 413.160156 750.410156 418.757812 753.550781 423.332031 C 750.519531 424.230469 746.777344 424.980469 742.761719 424.980469 C 739.453125 424.980469 736.308594 424.464844 733.410156 423.433594 C 726.082031 420.835938 720.976562 415.242188 717.839844 410.671875 C 720.871094 409.773438 724.613281 409.019531 728.636719 409.019531 Z M 673.941406 400.855469 C 695.28125 400.855469 712.640625 418.214844 712.640625 439.554688 C 712.640625 460.890625 695.28125 478.25 673.941406 478.25 C 652.601562 478.25 635.242188 460.890625 635.242188 439.554688 C 635.242188 418.214844 652.605469 400.855469 673.941406 400.855469 Z M 610.496094 410.566406 C 613.394531 409.53125 616.53125 409.019531 619.832031 409.019531 C 623.726562 409.019531 627.351562 409.726562 630.339844 410.597656 C 629.832031 411.367188 629.371094 412.167969 628.90625 412.96875 C 625.722656 416.996094 621.167969 421.273438 615.0625 423.4375 C 612.160156 424.46875 609.019531 424.984375 605.714844 424.984375 C 601.699219 424.984375 597.960938 424.234375 594.929688 423.335938 C 598.0625 418.746094 603.164062 413.15625 610.496094 410.566406 Z M 610.496094 410.566406 "/></g></svg>