<svg width="12" height="17" viewBox="0 0 12 17" fill="none" xmlns="http://www.w3.org/2000/svg">
<path d="M4.20529 3.68374L5.21725 2.67183V10.6954C5.21725 11.1277 5.56765 11.4781 5.99986 11.4781C6.43207 11.4781 6.78247 11.1277 6.78247 10.6954V2.67188L7.79433 3.68374C7.94715 3.83656 8.14739 3.91299 8.34769 3.91299C8.54798 3.91299 8.74828 3.83661 8.90104 3.68374C9.20668 3.3781 9.20668 2.88261 8.90104 2.57697L6.55338 0.229252C6.53501 0.210939 6.51576 0.193617 6.49577 0.177235C6.48711 0.170139 6.47798 0.163983 6.46917 0.157357C6.45758 0.148643 6.44626 0.139774 6.43421 0.131687C6.42341 0.124435 6.41219 0.118174 6.40108 0.111548C6.39028 0.105026 6.37969 0.0982435 6.36852 0.0922957C6.3572 0.0862435 6.34562 0.0811304 6.33404 0.0757043C6.3224 0.0701739 6.31103 0.0644348 6.29908 0.0594783C6.28791 0.0548348 6.27654 0.0511304 6.26522 0.0470609C6.25249 0.0424696 6.23991 0.0375652 6.22682 0.0336522C6.21555 0.0302609 6.20412 0.0277565 6.1928 0.024887C6.17944 0.0214957 6.16619 0.0177391 6.15257 0.0150783C6.13953 0.0125217 6.12633 0.0110087 6.11318 0.00907826C6.10108 0.00735652 6.08918 0.00506087 6.07692 0.00386087C6.05282 0.00151304 6.02866 0.000365217 6.00445 0.000208696C6.00289 0.000208696 6.00137 0 5.99981 0C5.9983 0 5.99673 0.000208696 5.99522 0.000208696C5.97101 0.000313043 5.9468 0.00151304 5.92264 0.00386087C5.91064 0.00506087 5.89901 0.00730435 5.88717 0.00897391C5.87371 0.0109043 5.86024 0.0124696 5.84694 0.0151304C5.83369 0.0177391 5.82085 0.0213913 5.80786 0.0246783C5.79607 0.0276522 5.78428 0.0302087 5.77259 0.0337043C5.76002 0.037513 5.74776 0.0422609 5.73544 0.0466957C5.72371 0.0509217 5.71186 0.0547826 5.70028 0.0595826C5.6888 0.0643304 5.67785 0.069913 5.66668 0.0751826C5.65468 0.0808174 5.64258 0.0861913 5.63078 0.0924522C5.62014 0.0981391 5.61012 0.104609 5.59974 0.110817C5.58811 0.117704 5.57642 0.124278 5.5651 0.131843C5.55378 0.139409 5.54318 0.147861 5.53228 0.155948C5.52268 0.163096 5.51292 0.169722 5.50364 0.177391C5.48459 0.192991 5.46638 0.20953 5.44891 0.2268C5.44807 0.227635 5.44718 0.228313 5.4463 0.229148L3.09837 2.57697C2.79273 2.88261 2.79273 3.3781 3.09837 3.68374C3.40416 3.98937 3.89971 3.98927 4.20529 3.68374Z" fill="currentColor"/>
<path d="M11.2174 5.21729H9.13043C8.69823 5.21729 8.34783 5.56769 8.34783 5.99989C8.34783 6.4321 8.69823 6.7825 9.13043 6.7825H10.4348V14.6086H1.56522V6.7825H2.86957C3.30177 6.7825 3.65217 6.4321 3.65217 5.99989C3.65217 5.56769 3.30177 5.21729 2.86957 5.21729H0.782609C0.3504 5.21729 0 5.56769 0 5.99989V15.3912C0 15.8234 0.3504 16.1738 0.782609 16.1738H11.2174C11.6496 16.1738 12 15.8234 12 15.3912V5.99989C12 5.56769 11.6496 5.21729 11.2174 5.21729Z" fill="currentColor"/>
</svg>
