<svg viewBox="0 0 22 19" xmlns="http://www.w3.org/2000/svg">
<path d="M9.15341 1.55178L10.9985 3.3983L12.8437 1.55178C13.8597 0.557028 15.2246 0 16.646 0C18.0675 0 19.4324 0.557028 20.4484 1.55178C21.4424 2.56859 21.999 3.93452 21.999 5.35699C21.999 6.77947 21.4424 8.14539 20.4484 9.1622L18.6033 11.0087L10.9992 18.6191L3.39536 11.0096L1.55022 9.16313C0.556286 8.14628 -0.000274658 6.78037 -0.000274658 5.35792C-0.000274658 3.93546 0.556286 2.56956 1.55022 1.5527C2.56612 0.558363 3.93061 0.00150939 5.35163 0.00133684C6.77264 0.00116429 8.13727 0.557686 9.15341 1.55178Z" fill="inherit"/>
</svg>
