<svg viewBox="0 0 23 23" xmlns="http://www.w3.org/2000/svg">
<path d="M11.6543 1.3796L13.2879 6.78297C13.5731 7.72196 14.3088 8.45652 15.2487 8.74019L20.6539 10.3762C21.0064 10.4828 21.2055 10.8547 21.0992 11.2068C21.0346 11.4203 20.8677 11.5875 20.6539 11.652L15.2487 13.288C14.3088 13.5717 13.5731 14.3063 13.2879 15.2453L11.6543 20.6486C11.5504 21.0016 11.1802 21.204 10.8267 21.1001C10.609 21.0362 10.4391 20.866 10.3751 20.6486L8.73855 15.2453C8.45538 14.306 7.72028 13.5711 6.78068 13.288L1.37554 11.652C1.02301 11.5454 0.823919 11.1735 0.930221 10.8214C0.994782 10.608 1.16174 10.4408 1.37554 10.3762L6.78068 8.74019C7.72028 8.45712 8.45538 7.72226 8.73855 6.78297L10.3751 1.3796C10.479 1.02658 10.8493 0.824251 11.2027 0.928116C11.4201 0.991755 11.5904 1.16196 11.6543 1.3796Z" fill="inherit"/>
<path d="M11.0164 22.0286C10.8681 22.0286 10.7189 22.0073 10.5723 21.9644C10.0582 21.8134 9.66126 21.4165 9.51021 20.9026L7.87576 15.5064C7.67877 14.8535 7.17219 14.3471 6.51997 14.1505L1.11423 12.5139C0.713948 12.3929 0.384235 12.123 0.186647 11.7541C-0.0112416 11.3852 -0.0532816 10.9613 0.0677335 10.5605C0.219678 10.0577 0.61125 9.66628 1.11453 9.51408L6.51937 7.87806C7.17249 7.68114 7.67907 7.17472 7.87576 6.52272L9.51262 1.11844C9.75405 0.29653 10.627 -0.179567 11.4561 0.0635844C11.969 0.214278 12.365 0.609325 12.517 1.12144L14.1496 6.52212C14.3475 7.17352 14.8559 7.68054 15.5087 7.87776L20.9145 9.51378C21.3147 9.63476 21.6445 9.90463 21.842 10.2736C22.0399 10.6425 22.082 11.0664 21.961 11.4671C21.809 11.9699 21.4177 12.3614 20.9142 12.5136L15.5093 14.1496C14.8559 14.3468 14.3475 14.8541 14.1493 15.5067L12.5164 20.9092C12.4005 21.3039 12.1332 21.6357 11.7657 21.8362C11.5317 21.9638 11.2756 22.0286 11.0164 22.0286ZM10.7906 20.3917C10.7903 20.3929 10.79 20.3941 10.7897 20.3953L10.7906 20.3917ZM11.236 20.3845L11.2369 20.3878C11.2366 20.3866 11.2363 20.3854 11.236 20.3845ZM2.37633 11.0141L7.04127 12.4262C8.27214 12.7972 9.22915 13.7539 9.6006 14.9853L11.0143 19.652L12.4254 14.9847C12.7995 13.7536 13.7575 12.7975 14.9883 12.4259L19.6527 11.0141L14.9877 9.60204C13.7575 9.23071 12.7995 8.27461 12.4257 7.04474L11.0143 2.37623L9.6006 7.04384C9.22945 8.27431 8.27244 9.23101 7.04067 9.60234L2.37633 11.0141ZM20.3926 11.2381H20.3956H20.3926ZM11.2393 1.63356L11.2381 1.63717C11.2384 1.63597 11.2387 1.63477 11.2393 1.63356Z" fill="inherit"/>
</svg>
