<svg width="14" height="12" viewBox="0 0 14 12" fill="none" xmlns="http://www.w3.org/2000/svg">
<path d="M8.75 0.750048C8.41172 0.411774 7.86327 0.411774 7.525 0.750048C7.18673 1.08832 7.18673 1.63677 7.525 1.97505L10.5 4.95005C10.5646 5.01463 10.5188 5.12505 10.4275 5.12505L0.875001 5.12505C0.391751 5.12505 -2.77381e-07 5.5168 -2.56258e-07 6.00005C-2.35135e-07 6.4833 0.391751 6.87505 0.875 6.87505L10.4275 6.87505C10.5188 6.87505 10.5646 6.98547 10.5 7.05005L7.525 10.025C7.18673 10.3633 7.18673 10.9118 7.525 11.25C7.86327 11.5883 8.41173 11.5883 8.75 11.25L13.2929 6.70716C13.6834 6.31663 13.6834 5.68347 13.2929 5.29294L8.75 0.750048Z" fill="currentColor"/>
</svg>
