<svg width="14" height="14" viewBox="0 0 14 14" fill="none" xmlns="http://www.w3.org/2000/svg">
<path fill-rule="evenodd" clip-rule="evenodd" d="M4.375 0.875V4.375C4.375 4.9 4.025 5.25 3.5 5.25C2.975 5.25 2.625 4.9 2.625 4.375V0.875C2.625 0.35 2.975 0 3.5 0C4.025 0 4.375 0.35 4.375 0.875ZM2.625 12.075C1.6625 11.725 0.875 10.7625 0.875 9.625C0.875 8.1375 2.0125 7 3.5 7C4.9875 7 6.125 8.1375 6.125 9.625C6.125 10.7625 5.425 11.725 4.375 12.075V12.25V13.125C4.375 13.65 4.025 14 3.5 14C2.975 14 2.625 13.65 2.625 13.125V12.25V12.075ZM9.625 9.625V13.125C9.625 13.65 9.975 14 10.5 14C11.025 14 11.375 13.65 11.375 13.125V9.625C11.375 9.1 11.025 8.75 10.5 8.75C9.975 8.75 9.625 9.1 9.625 9.625ZM10.5 7C9.0125 7 7.875 5.8625 7.875 4.375C7.875 3.2375 8.6625 2.275 9.625 1.925V1.75V0.875C9.625 0.35 9.975 0 10.5 0C11.025 0 11.375 0.35 11.375 0.875V1.75V1.925C12.3375 2.275 13.125 3.2375 13.125 4.375C13.125 5.8625 11.9875 7 10.5 7Z" fill="#1F2D3D"/>
</svg>
