<svg width="14" height="14" viewBox="0 0 14 14" fill="none" xmlns="http://www.w3.org/2000/svg">
<path d="M7 -0.000244141C5.61553 -0.000244141 4.26215 0.410299 3.11101 1.17947C1.95987 1.94864 1.06266 3.04189 0.532846 4.32097C0.00303298 5.60005 -0.13559 7.00752 0.134506 8.36539C0.404603 9.72325 1.07129 10.9705 2.05026 11.9495C3.02922 12.9285 4.2765 13.5952 5.63437 13.8653C6.99224 14.1353 8.3997 13.9967 9.67879 13.4669C10.9579 12.9371 12.0511 12.0399 12.8203 10.8887C13.5895 9.7376 14 8.38422 14 6.99975C14 6.0805 13.8189 5.17025 13.4672 4.32097C13.1154 3.47169 12.5998 2.70002 11.9497 2.05001C11.2997 1.4 10.5281 0.884382 9.67879 0.532599C8.82951 0.180816 7.91925 -0.000244141 7 -0.000244141ZM7 12.5998C5.89243 12.5998 4.80972 12.2713 3.88881 11.656C2.96789 11.0406 2.25013 10.166 1.82628 9.14278C1.40243 8.11952 1.29153 6.99354 1.50761 5.90725C1.72368 4.82096 2.25703 3.82313 3.0402 3.03996C3.82338 2.25678 4.8212 1.72344 5.9075 1.50736C6.99379 1.29128 8.11976 1.40218 9.14303 1.82603C10.1663 2.24988 11.0409 2.96765 11.6562 3.88856C12.2716 4.80948 12.6 5.89218 12.6 6.99975C12.6 8.48497 12.01 9.90935 10.9598 10.9596C9.9096 12.0098 8.48521 12.5998 7 12.5998ZM9.163 5.20776L8.792 4.83676C8.76058 4.80327 8.72263 4.77659 8.68049 4.75835C8.63835 4.7401 8.59292 4.73069 8.547 4.73069C8.50108 4.73069 8.45565 4.7401 8.41352 4.75835C8.37138 4.77659 8.33342 4.80327 8.302 4.83676L7 6.13176L5.698 4.83676C5.66658 4.80327 5.62863 4.77659 5.58649 4.75835C5.54435 4.7401 5.49892 4.73069 5.453 4.73069C5.40708 4.73069 5.36165 4.7401 5.31952 4.75835C5.27738 4.77659 5.23942 4.80327 5.208 4.83676L4.837 5.20776C4.80352 5.23918 4.77684 5.27713 4.75859 5.31927C4.74035 5.36141 4.73094 5.40684 4.73094 5.45276C4.73094 5.49867 4.74035 5.5441 4.75859 5.58624C4.77684 5.62838 4.80352 5.66633 4.837 5.69776L6.132 6.99975L4.837 8.30175C4.80352 8.33318 4.77684 8.37113 4.75859 8.41327C4.74035 8.45541 4.73094 8.50084 4.73094 8.54675C4.73094 8.59267 4.74035 8.6381 4.75859 8.68024C4.77684 8.72238 4.80352 8.76033 4.837 8.79176L5.208 9.16276C5.23942 9.19624 5.27738 9.22292 5.31952 9.24116C5.36165 9.25941 5.40708 9.26882 5.453 9.26882C5.49892 9.26882 5.54435 9.25941 5.58649 9.24116C5.62863 9.22292 5.66658 9.19624 5.698 9.16276L7 7.86775L8.302 9.16276C8.33342 9.19624 8.37138 9.22292 8.41352 9.24116C8.45565 9.25941 8.50108 9.26882 8.547 9.26882C8.59292 9.26882 8.63835 9.25941 8.68049 9.24116C8.72263 9.22292 8.76058 9.19624 8.792 9.16276L9.163 8.79176C9.19648 8.76033 9.22317 8.72238 9.24141 8.68024C9.25965 8.6381 9.26906 8.59267 9.26906 8.54675C9.26906 8.50084 9.25965 8.45541 9.24141 8.41327C9.22317 8.37113 9.19648 8.33318 9.163 8.30175L7.868 6.99975L9.163 5.69776C9.19648 5.66633 9.22317 5.62838 9.24141 5.58624C9.25965 5.5441 9.26906 5.49867 9.26906 5.45276C9.26906 5.40684 9.25965 5.36141 9.24141 5.31927C9.22317 5.27713 9.19648 5.23918 9.163 5.20776Z" fill="#1F2D3D"/>
</svg>
