<svg width="16" height="16" viewBox="0 0 16 16" fill="none" xmlns="http://www.w3.org/2000/svg">
<path fill-rule="evenodd" clip-rule="evenodd" d="M6.66663 12.6667C3.35292 12.6667 0.666626 9.98046 0.666626 6.66675C0.666626 3.35304 3.35292 0.666748 6.66663 0.666748C9.98034 0.666748 12.6666 3.35304 12.6666 6.66675C12.6666 9.98046 9.98034 12.6667 6.66663 12.6667ZM6.66661 11.3334C9.24394 11.3334 11.3333 9.24408 11.3333 6.66675C11.3333 4.08942 9.24394 2.00008 6.66661 2.00008C4.08928 2.00008 1.99994 4.08942 1.99994 6.66675C1.99994 9.24408 4.08928 11.3334 6.66661 11.3334ZM15.138 15.1382C15.3984 14.8778 15.3984 14.4557 15.138 14.1953L12.4714 11.5287C12.211 11.2683 11.7889 11.2683 11.5286 11.5287C11.2682 11.789 11.2682 12.2111 11.5286 12.4715L14.1952 15.1382C14.4556 15.3985 14.8777 15.3985 15.138 15.1382Z" fill="currentColor"/>
</svg>
