<svg xmlns="http://www.w3.org/2000/svg" xmlns:xlink="http://www.w3.org/1999/xlink" width="1200" zoomAndPan="magnify" viewBox="0 0 900 899.99999" height="1200" preserveAspectRatio="xMidYMid meet" version="1.2"><defs><clipPath id="0529e22313"><path d="M 372.257812 269.871094 L 670.007812 269.871094 L 670.007812 593.871094 L 372.257812 593.871094 Z M 372.257812 269.871094 "/></clipPath><clipPath id="b3afa79cb9"><path d="M 298 306.601562 L 471 306.601562 L 471 479 L 298 479 Z M 298 306.601562 "/></clipPath><clipPath id="8e77567313"><path d="M 220.621094 478 L 547.621094 478 L 547.621094 639 L 220.621094 639 Z M 220.621094 478 "/></clipPath></defs><g id="a3938b8c13"><g clip-rule="nonzero" clip-path="url(#0529e22313)"><path style=" stroke:none;fill-rule:nonzero;fill:#9abee3;fill-opacity:1;" d="M 670.355469 564.835938 L 670.355469 561.5625 C 670.355469 541.449219 666.410156 521.929688 658.632812 503.546875 C 651.128906 485.796875 640.382812 469.859375 626.703125 456.179688 C 613.023438 442.5 597.085938 431.757812 579.335938 424.25 C 578.167969 423.753906 576.996094 423.277344 575.8125 422.816406 C 578.046875 420.988281 580.199219 419.046875 582.257812 416.984375 C 590.167969 409.078125 596.378906 399.863281 600.71875 389.597656 C 605.21875 378.960938 607.5 367.671875 607.5 356.046875 C 607.5 344.421875 605.21875 333.132812 600.71875 322.5 C 596.378906 312.234375 590.167969 303.019531 582.257812 295.109375 C 574.347656 287.203125 565.132812 280.988281 554.871094 276.648438 C 544.234375 272.152344 532.945312 269.871094 521.320312 269.871094 C 509.695312 269.871094 498.40625 272.152344 487.769531 276.648438 C 477.507812 280.988281 468.292969 287.203125 460.382812 295.109375 C 452.472656 303.019531 446.261719 312.234375 441.921875 322.5 C 437.421875 333.132812 435.144531 344.421875 435.144531 356.046875 C 435.144531 367.671875 437.425781 378.960938 441.921875 389.597656 C 446.261719 399.863281 452.476562 409.074219 460.382812 416.984375 C 462.445312 419.046875 464.59375 420.988281 466.828125 422.8125 C 465.644531 423.277344 464.46875 423.757812 463.304688 424.25 C 445.554688 431.757812 429.617188 442.5 415.9375 456.179688 C 402.257812 469.859375 391.515625 485.796875 384.007812 503.546875 C 376.230469 521.929688 372.289062 541.449219 372.289062 561.5625 L 372.289062 564.835938 C 372.289062 580.132812 384.027344 592.738281 398.972656 594.117188 L 645.695312 593.859375 L 645.785156 593.851562 C 648.351562 593.585938 650.84375 592.824219 653.117188 591.605469 C 663.273438 586.96875 670.355469 576.714844 670.355469 564.835938 Z M 457.804688 382.878906 C 454.210938 374.382812 452.386719 365.355469 452.386719 356.046875 C 452.386719 346.742188 454.210938 337.714844 457.804688 329.214844 C 461.277344 321.007812 466.246094 313.632812 472.578125 307.304688 C 478.90625 300.972656 486.28125 296.003906 494.488281 292.53125 C 502.988281 288.9375 512.015625 287.113281 521.320312 287.113281 C 530.625 287.113281 539.652344 288.9375 548.152344 292.53125 C 556.363281 296.003906 563.734375 300.972656 570.066406 307.304688 C 576.394531 313.632812 581.367188 321.007812 584.835938 329.214844 C 588.433594 337.714844 590.253906 346.742188 590.253906 356.046875 C 590.253906 365.355469 588.429688 374.382812 584.835938 382.878906 C 581.363281 391.089844 576.394531 398.460938 570.066406 404.789062 C 563.734375 411.121094 556.363281 416.09375 548.152344 419.5625 C 539.652344 423.160156 530.625 424.980469 521.320312 424.980469 C 512.015625 424.980469 502.988281 423.160156 494.488281 419.5625 C 486.28125 416.09375 478.90625 411.121094 472.578125 404.789062 C 466.246094 398.460938 461.277344 391.089844 457.804688 382.878906 Z M 653.109375 564.835938 C 653.109375 571.542969 647.652344 577 640.941406 577 L 401.695312 577 C 394.988281 577 389.53125 571.542969 389.53125 564.835938 L 389.53125 561.5625 C 389.53125 543.769531 393.015625 526.511719 399.886719 510.261719 C 406.527344 494.570312 416.027344 480.476562 428.132812 468.371094 C 440.234375 456.269531 454.328125 446.765625 470.023438 440.128906 C 473.480469 438.667969 477.035156 437.339844 480.585938 436.183594 C 481.824219 435.78125 483.082031 435.390625 484.332031 435.027344 C 484.792969 434.890625 485.238281 434.71875 485.660156 434.515625 C 486.359375 434.835938 487.0625 435.144531 487.769531 435.445312 C 498.40625 439.945312 509.695312 442.226562 521.320312 442.226562 C 532.945312 442.226562 544.234375 439.945312 554.871094 435.445312 C 555.578125 435.144531 556.28125 434.835938 556.980469 434.515625 C 557.402344 434.71875 557.847656 434.890625 558.3125 435.027344 C 563.136719 436.441406 567.953125 438.15625 572.617188 440.128906 C 588.3125 446.765625 602.40625 456.269531 614.507812 468.371094 C 626.613281 480.476562 636.113281 494.570312 642.753906 510.261719 C 649.625 526.511719 653.109375 543.769531 653.109375 561.558594 Z M 653.109375 564.835938 "/></g><g clip-rule="nonzero" clip-path="url(#b3afa79cb9)"><path style=" stroke:none;fill-rule:nonzero;fill:#113c7b;fill-opacity:1;" d="M 470.019531 392.453125 C 470.019531 439.867188 431.585938 478.304688 384.167969 478.304688 C 336.753906 478.304688 298.320312 439.867188 298.320312 392.453125 C 298.320312 345.039062 336.753906 306.601562 384.167969 306.601562 C 431.585938 306.601562 470.019531 345.039062 470.019531 392.453125 Z M 470.019531 392.453125 "/></g><g clip-rule="nonzero" clip-path="url(#8e77567313)"><path style=" stroke:none;fill-rule:nonzero;fill:#113c7b;fill-opacity:1;" d="M 547.648438 605.148438 C 547.648438 613.378906 541.796875 620.449219 533.710938 621.988281 L 512.273438 626.058594 C 427.625 642.136719 340.707031 642.136719 256.058594 626.058594 L 234.621094 621.988281 C 226.535156 620.449219 220.683594 613.378906 220.683594 605.148438 C 220.683594 540.839844 268 487.589844 329.722656 478.304688 C 344.226562 491.164062 363.257812 499.042969 384.167969 499.042969 C 405.082031 499.042969 424.105469 491.171875 438.617188 478.304688 C 500.332031 487.589844 547.648438 540.839844 547.648438 605.148438 Z M 547.648438 605.148438 "/></g></g></svg>