<svg xmlns="http://www.w3.org/2000/svg" xmlns:xlink="http://www.w3.org/1999/xlink" width="1200" zoomAndPan="magnify" viewBox="0 0 900 899.99999" height="1200" preserveAspectRatio="xMidYMid meet" version="1.2"><defs><clipPath id="6b60498cff"><path d="M 26.984375 151 L 749 151 L 749 872.984375 L 26.984375 872.984375 Z M 26.984375 151 "/></clipPath></defs><g id="9c0d996bde"><path style=" stroke:none;fill-rule:nonzero;fill:#113c7b;fill-opacity:1;" d="M 338.015625 431.539062 C 337.480469 431.003906 336.921875 430.496094 336.335938 430.015625 C 335.753906 429.539062 335.144531 429.089844 334.515625 428.667969 C 333.890625 428.25 333.242188 427.859375 332.574219 427.503906 C 331.910156 427.148438 331.226562 426.824219 330.527344 426.535156 C 329.832031 426.246094 329.121094 425.992188 328.398438 425.773438 C 327.671875 425.554688 326.941406 425.371094 326.199219 425.222656 C 325.460938 425.078125 324.710938 424.964844 323.960938 424.890625 C 323.207031 424.816406 322.453125 424.78125 321.699219 424.78125 C 320.945312 424.78125 320.191406 424.816406 319.4375 424.890625 C 318.6875 424.964844 317.9375 425.078125 317.199219 425.222656 C 316.457031 425.371094 315.726562 425.554688 315 425.773438 C 314.277344 425.992188 313.566406 426.246094 312.871094 426.535156 C 312.171875 426.824219 311.488281 427.148438 310.824219 427.503906 C 310.15625 427.859375 309.507812 428.25 308.882812 428.667969 C 308.253906 429.089844 307.648438 429.539062 307.0625 430.015625 C 306.480469 430.496094 305.917969 431.003906 305.386719 431.539062 C 304.023438 432.867188 302.691406 434.226562 301.398438 435.621094 C 300.101562 437.015625 298.839844 438.4375 297.617188 439.894531 C 296.390625 441.351562 295.203125 442.835938 294.050781 444.351562 C 292.898438 445.867188 291.785156 447.410156 290.710938 448.980469 C 289.636719 450.550781 288.601562 452.144531 287.605469 453.765625 C 286.609375 455.386719 285.652344 457.03125 284.738281 458.699219 C 283.824219 460.371094 282.949219 462.058594 282.117188 463.773438 C 281.289062 465.484375 280.5 467.214844 279.753906 468.964844 C 279.007812 470.714844 278.308594 472.484375 277.648438 474.269531 C 276.992188 476.054688 276.378906 477.855469 275.808594 479.671875 C 275.242188 481.488281 274.71875 483.316406 274.238281 485.160156 C 273.761719 487 273.328125 488.855469 272.941406 490.71875 C 272.554688 492.582031 272.214844 494.453125 271.921875 496.332031 C 271.628906 498.210938 271.382812 500.097656 271.179688 501.992188 C 270.980469 503.882812 270.828125 505.777344 270.722656 507.679688 C 270.613281 509.578125 270.554688 511.480469 270.542969 513.382812 C 270.53125 515.285156 270.566406 517.1875 270.648438 519.089844 C 270.726562 520.992188 270.855469 522.886719 271.03125 524.78125 C 271.207031 526.679688 271.429688 528.566406 271.699219 530.449219 C 271.96875 532.335938 272.285156 534.210938 272.648438 536.078125 C 273.011719 537.945312 273.417969 539.804688 273.871094 541.652344 C 274.328125 543.5 274.824219 545.335938 275.371094 547.160156 C 275.914062 548.984375 276.503906 550.792969 277.140625 552.585938 C 277.773438 554.378906 278.453125 556.15625 279.175781 557.917969 C 279.898438 559.675781 280.664062 561.417969 281.472656 563.140625 C 282.28125 564.863281 283.132812 566.566406 284.027344 568.246094 C 284.917969 569.925781 285.851562 571.582031 286.828125 573.21875 C 287.804688 574.851562 288.816406 576.460938 289.871094 578.042969 C 290.925781 579.628906 292.019531 581.183594 293.152344 582.714844 C 294.285156 584.246094 295.453125 585.746094 296.660156 587.21875 C 297.863281 588.6875 299.105469 590.128906 300.382812 591.539062 C 301.660156 592.949219 302.972656 594.328125 304.320312 595.675781 C 305.664062 597.019531 307.042969 598.332031 308.453125 599.609375 C 309.863281 600.886719 311.304688 602.128906 312.777344 603.332031 C 314.25 604.539062 315.75 605.707031 317.28125 606.839844 C 318.808594 607.972656 320.367188 609.0625 321.949219 610.117188 C 323.535156 611.171875 325.144531 612.1875 326.777344 613.164062 C 328.410156 614.136719 330.070312 615.070312 331.75 615.964844 C 333.429688 616.855469 335.132812 617.707031 336.855469 618.515625 C 338.578125 619.324219 340.320312 620.089844 342.078125 620.8125 C 343.839844 621.535156 345.617188 622.214844 347.410156 622.847656 C 349.203125 623.480469 351.011719 624.070312 352.835938 624.617188 C 354.660156 625.160156 356.496094 625.660156 358.34375 626.113281 C 360.191406 626.570312 362.050781 626.976562 363.917969 627.339844 C 365.785156 627.699219 367.660156 628.015625 369.546875 628.285156 C 371.429688 628.554688 373.320312 628.777344 375.214844 628.953125 C 377.109375 629.128906 379.007812 629.257812 380.90625 629.335938 C 382.808594 629.417969 384.710938 629.453125 386.613281 629.441406 C 388.515625 629.429688 390.417969 629.367188 392.316406 629.261719 C 394.21875 629.15625 396.113281 629 398.007812 628.800781 C 399.898438 628.601562 401.785156 628.351562 403.664062 628.058594 C 405.542969 627.765625 407.417969 627.425781 409.28125 627.039062 C 411.144531 626.652344 412.996094 626.21875 414.835938 625.742188 C 416.679688 625.261719 418.507812 624.738281 420.324219 624.171875 C 422.140625 623.601562 423.941406 622.988281 425.726562 622.332031 C 427.511719 621.671875 429.28125 620.96875 431.03125 620.226562 C 432.78125 619.480469 434.511719 618.691406 436.222656 617.859375 C 437.9375 617.027344 439.625 616.15625 441.292969 615.238281 C 442.964844 614.324219 444.609375 613.371094 446.230469 612.375 C 447.851562 611.375 449.445312 610.339844 451.015625 609.265625 C 452.585938 608.191406 454.128906 607.078125 455.644531 605.925781 C 457.15625 604.773438 458.644531 603.585938 460.097656 602.359375 C 461.554688 601.132812 462.980469 599.875 464.375 598.578125 C 465.765625 597.28125 467.128906 595.953125 468.457031 594.589844 C 468.957031 594.050781 469.433594 593.484375 469.886719 592.898438 C 470.335938 592.3125 470.753906 591.707031 471.144531 591.082031 C 471.539062 590.453125 471.898438 589.808594 472.226562 589.148438 C 472.554688 588.488281 472.851562 587.8125 473.117188 587.121094 C 473.382812 586.433594 473.613281 585.730469 473.808594 585.019531 C 474.007812 584.308594 474.171875 583.589844 474.296875 582.859375 C 474.425781 582.132812 474.519531 581.402344 474.578125 580.664062 C 474.636719 579.929688 474.65625 579.191406 474.644531 578.453125 C 474.632812 577.714844 474.582031 576.976562 474.5 576.242188 C 474.414062 575.511719 474.296875 574.78125 474.144531 574.058594 C 473.988281 573.335938 473.800781 572.625 473.578125 571.917969 C 473.355469 571.214844 473.101562 570.523438 472.8125 569.84375 C 472.523438 569.164062 472.203125 568.496094 471.851562 567.847656 C 471.5 567.199219 471.117188 566.570312 470.703125 565.957031 C 470.289062 565.34375 469.847656 564.753906 469.378906 564.183594 C 468.910156 563.613281 468.414062 563.066406 467.890625 562.542969 C 467.367188 562.023438 466.820312 561.527344 466.25 561.054688 C 465.679688 560.585938 465.089844 560.144531 464.476562 559.730469 C 463.867188 559.320312 463.234375 558.9375 462.585938 558.582031 C 461.9375 558.230469 461.273438 557.910156 460.59375 557.621094 C 459.914062 557.332031 459.21875 557.078125 458.515625 556.855469 C 457.8125 556.632812 457.097656 556.445312 456.375 556.292969 C 455.652344 556.136719 454.925781 556.019531 454.191406 555.933594 C 453.457031 555.851562 452.71875 555.804688 451.980469 555.789062 C 451.242188 555.777344 450.503906 555.800781 449.769531 555.855469 C 449.03125 555.914062 448.300781 556.007812 447.574219 556.136719 C 446.847656 556.265625 446.125 556.425781 445.414062 556.625 C 444.703125 556.820312 444 557.050781 443.3125 557.316406 C 442.621094 557.582031 441.945312 557.878906 441.285156 558.207031 C 440.625 558.535156 439.980469 558.898438 439.355469 559.289062 C 438.726562 559.679688 438.121094 560.101562 437.535156 560.550781 C 436.949219 561 436.386719 561.476562 435.84375 561.980469 C 435.042969 562.78125 434.226562 563.5625 433.386719 564.324219 C 432.546875 565.085938 431.691406 565.824219 430.816406 566.542969 C 429.941406 567.261719 429.046875 567.960938 428.140625 568.636719 C 427.230469 569.3125 426.304688 569.964844 425.363281 570.59375 C 424.421875 571.222656 423.464844 571.832031 422.492188 572.414062 C 421.523438 572.996094 420.539062 573.554688 419.539062 574.089844 C 418.539062 574.625 417.53125 575.132812 416.507812 575.617188 C 415.480469 576.105469 414.449219 576.5625 413.402344 576.996094 C 412.355469 577.429688 411.296875 577.839844 410.234375 578.222656 C 409.167969 578.605469 408.089844 578.960938 407.007812 579.289062 C 405.921875 579.617188 404.832031 579.921875 403.734375 580.195312 C 402.636719 580.472656 401.53125 580.722656 400.421875 580.941406 C 399.308594 581.164062 398.195312 581.359375 397.074219 581.523438 C 395.953125 581.691406 394.828125 581.832031 393.703125 581.941406 C 392.574219 582.054688 391.445312 582.136719 390.3125 582.195312 C 389.183594 582.25 388.050781 582.277344 386.917969 582.277344 C 385.785156 582.277344 384.652344 582.25 383.523438 582.195312 C 382.390625 582.140625 381.261719 582.058594 380.132812 581.949219 C 379.007812 581.835938 377.882812 581.699219 376.761719 581.53125 C 375.640625 581.367188 374.527344 581.171875 373.414062 580.953125 C 372.304688 580.730469 371.199219 580.484375 370.101562 580.210938 C 369 579.933594 367.910156 579.632812 366.828125 579.304688 C 365.742188 578.976562 364.667969 578.621094 363.601562 578.238281 C 362.535156 577.859375 361.476562 577.449219 360.429688 577.019531 C 359.382812 576.585938 358.347656 576.125 357.324219 575.640625 C 356.300781 575.15625 355.289062 574.648438 354.289062 574.113281 C 353.292969 573.582031 352.304688 573.023438 351.335938 572.441406 C 350.363281 571.859375 349.40625 571.253906 348.464844 570.625 C 347.523438 569.996094 346.597656 569.34375 345.6875 568.667969 C 344.777344 567.992188 343.882812 567.296875 343.007812 566.578125 C 342.132812 565.859375 341.277344 565.121094 340.4375 564.359375 C 339.597656 563.597656 338.777344 562.816406 337.976562 562.015625 C 337.175781 561.214844 336.394531 560.394531 335.632812 559.554688 C 334.871094 558.71875 334.132812 557.859375 333.414062 556.984375 C 332.695312 556.109375 332 555.214844 331.324219 554.304688 C 330.648438 553.394531 330 552.46875 329.367188 551.527344 C 328.738281 550.585938 328.132812 549.628906 327.550781 548.65625 C 326.96875 547.6875 326.410156 546.703125 325.878906 545.703125 C 325.34375 544.703125 324.835938 543.691406 324.351562 542.667969 C 323.867188 541.644531 323.410156 540.609375 322.976562 539.5625 C 322.542969 538.515625 322.132812 537.457031 321.753906 536.390625 C 321.371094 535.324219 321.015625 534.25 320.6875 533.167969 C 320.359375 532.082031 320.058594 530.992188 319.78125 529.890625 C 319.507812 528.792969 319.261719 527.6875 319.039062 526.578125 C 318.820312 525.464844 318.625 524.351562 318.460938 523.230469 C 318.292969 522.109375 318.15625 520.984375 318.046875 519.859375 C 317.933594 518.730469 317.851562 517.601562 317.796875 516.46875 C 317.742188 515.339844 317.714844 514.207031 317.714844 513.074219 C 317.714844 511.941406 317.742188 510.808594 317.800781 509.679688 C 317.855469 508.546875 317.9375 507.417969 318.050781 506.289062 C 318.160156 505.164062 318.300781 504.039062 318.46875 502.917969 C 318.632812 501.800781 318.828125 500.683594 319.050781 499.574219 C 319.273438 498.460938 319.519531 497.355469 319.796875 496.257812 C 320.070312 495.160156 320.375 494.070312 320.703125 492.984375 C 321.03125 491.902344 321.390625 490.828125 321.769531 489.761719 C 322.152344 488.695312 322.5625 487.636719 322.996094 486.589844 C 323.429688 485.546875 323.890625 484.511719 324.375 483.488281 C 324.859375 482.464844 325.367188 481.453125 325.902344 480.453125 C 326.4375 479.453125 326.996094 478.46875 327.578125 477.5 C 328.164062 476.527344 328.769531 475.570312 329.398438 474.628906 C 330.027344 473.6875 330.679688 472.761719 331.355469 471.855469 C 332.03125 470.945312 332.730469 470.050781 333.449219 469.175781 C 334.167969 468.300781 334.90625 467.445312 335.667969 466.605469 C 336.429688 465.769531 337.210938 464.949219 338.015625 464.148438 C 338.546875 463.613281 339.054688 463.054688 339.53125 462.472656 C 340.011719 461.886719 340.460938 461.28125 340.878906 460.652344 C 341.296875 460.023438 341.6875 459.378906 342.042969 458.710938 C 342.398438 458.046875 342.71875 457.363281 343.007812 456.667969 C 343.296875 455.96875 343.550781 455.257812 343.769531 454.535156 C 343.988281 453.8125 344.171875 453.082031 344.320312 452.339844 C 344.464844 451.601562 344.578125 450.855469 344.652344 450.101562 C 344.726562 449.351562 344.761719 448.597656 344.761719 447.84375 C 344.761719 447.089844 344.726562 446.335938 344.652344 445.582031 C 344.578125 444.832031 344.464844 444.085938 344.320312 443.34375 C 344.171875 442.605469 343.988281 441.871094 343.769531 441.148438 C 343.550781 440.425781 343.296875 439.71875 343.007812 439.019531 C 342.71875 438.320312 342.398438 437.640625 342.042969 436.972656 C 341.6875 436.308594 341.296875 435.660156 340.878906 435.03125 C 340.460938 434.40625 340.011719 433.800781 339.53125 433.214844 C 339.054688 432.632812 338.546875 432.070312 338.015625 431.539062 Z M 338.015625 431.539062 "/><path style=" stroke:none;fill-rule:nonzero;fill:#113c7b;fill-opacity:1;" d="M 451.226562 331.976562 C 451.9375 332.238281 452.65625 332.464844 453.386719 332.65625 C 454.117188 332.847656 454.855469 333 455.601562 333.117188 C 456.347656 333.234375 457.097656 333.316406 457.851562 333.363281 C 458.605469 333.40625 459.359375 333.414062 460.117188 333.382812 C 460.871094 333.355469 461.621094 333.289062 462.371094 333.183594 C 463.117188 333.082031 463.859375 332.941406 464.59375 332.765625 C 465.328125 332.589844 466.054688 332.375 466.765625 332.128906 C 467.480469 331.882812 468.179688 331.601562 468.867188 331.285156 C 469.550781 330.96875 470.222656 330.621094 470.875 330.238281 C 471.523438 329.855469 472.15625 329.445312 472.769531 329 C 473.378906 328.554688 473.96875 328.082031 474.53125 327.582031 C 475.097656 327.082031 475.636719 326.550781 476.148438 326 C 476.660156 325.445312 477.148438 324.867188 477.601562 324.265625 C 478.058594 323.660156 478.484375 323.039062 478.878906 322.394531 C 479.273438 321.75 479.636719 321.089844 479.96875 320.410156 C 480.296875 319.730469 480.59375 319.039062 480.855469 318.328125 C 481.117188 317.621094 481.34375 316.902344 481.535156 316.171875 C 481.726562 315.4375 481.882812 314.699219 482.003906 313.953125 C 482.121094 313.210938 482.203125 312.460938 482.25 311.707031 C 482.292969 310.953125 482.300781 310.195312 482.273438 309.441406 C 482.246094 308.6875 482.179688 307.9375 482.078125 307.1875 C 481.972656 306.4375 481.835938 305.695312 481.660156 304.960938 C 481.484375 304.226562 481.273438 303.503906 481.027344 302.789062 C 480.78125 302.074219 480.5 301.375 480.183594 300.6875 C 479.871094 300.003906 479.519531 299.332031 479.140625 298.679688 C 478.757812 298.027344 478.347656 297.394531 477.90625 296.785156 C 477.460938 296.171875 476.988281 295.585938 476.488281 295.019531 C 475.988281 294.453125 475.460938 293.914062 474.90625 293.398438 C 474.351562 292.886719 473.777344 292.402344 473.175781 291.945312 C 472.574219 291.488281 471.949219 291.058594 471.308594 290.664062 C 470.664062 290.269531 470.003906 289.90625 469.324219 289.574219 C 468.644531 289.242188 467.949219 288.945312 467.242188 288.683594 C 454.378906 283.980469 441.203125 280.449219 427.710938 278.089844 C 414.21875 275.730469 400.625 274.578125 386.929688 274.640625 C 383.027344 274.640625 379.128906 274.734375 375.230469 274.925781 C 371.332031 275.117188 367.441406 275.40625 363.558594 275.785156 C 359.675781 276.167969 355.804688 276.648438 351.945312 277.21875 C 348.085938 277.792969 344.242188 278.457031 340.414062 279.21875 C 336.585938 279.980469 332.78125 280.835938 328.996094 281.785156 C 325.210938 282.730469 321.453125 283.773438 317.71875 284.90625 C 313.984375 286.039062 310.28125 287.261719 306.605469 288.578125 C 302.933594 289.890625 299.292969 291.292969 295.6875 292.789062 C 292.082031 294.28125 288.515625 295.863281 284.988281 297.53125 C 281.460938 299.199219 277.976562 300.953125 274.535156 302.792969 C 271.09375 304.632812 267.703125 306.554688 264.355469 308.558594 C 261.007812 310.566406 257.710938 312.652344 254.46875 314.820312 C 251.222656 316.988281 248.035156 319.234375 244.898438 321.558594 C 241.765625 323.882812 238.691406 326.285156 235.675781 328.757812 C 232.65625 331.234375 229.703125 333.78125 226.8125 336.402344 C 223.921875 339.023438 221.097656 341.710938 218.335938 344.472656 C 215.578125 347.230469 212.886719 350.054688 210.269531 352.949219 C 207.648438 355.839844 205.101562 358.792969 202.625 361.808594 C 200.148438 364.824219 197.75 367.898438 195.425781 371.035156 C 193.101562 374.167969 190.855469 377.359375 188.6875 380.601562 C 186.519531 383.847656 184.429688 387.140625 182.425781 390.488281 C 180.417969 393.835938 178.496094 397.230469 176.65625 400.671875 C 174.816406 404.113281 173.0625 407.597656 171.394531 411.125 C 169.726562 414.652344 168.148438 418.21875 166.652344 421.824219 C 165.160156 425.425781 163.757812 429.066406 162.441406 432.742188 C 161.128906 436.414062 159.902344 440.117188 158.769531 443.851562 C 157.636719 447.585938 156.597656 451.347656 155.648438 455.132812 C 154.703125 458.917969 153.847656 462.722656 153.085938 466.550781 C 152.324219 470.375 151.65625 474.21875 151.085938 478.078125 C 150.511719 481.9375 150.035156 485.8125 149.652344 489.695312 C 149.269531 493.578125 148.984375 497.46875 148.792969 501.363281 C 148.601562 505.261719 148.503906 509.160156 148.503906 513.0625 C 148.503906 516.964844 148.601562 520.867188 148.792969 524.761719 C 148.984375 528.660156 149.269531 532.550781 149.652344 536.433594 C 150.035156 540.316406 150.511719 544.1875 151.085938 548.046875 C 151.65625 551.90625 152.324219 555.75 153.085938 559.578125 C 153.847656 563.40625 154.703125 567.210938 155.648438 570.996094 C 156.597656 574.78125 157.636719 578.539062 158.769531 582.273438 C 159.902344 586.007812 161.128906 589.710938 162.441406 593.386719 C 163.757812 597.058594 165.160156 600.699219 166.652344 604.304688 C 168.148438 607.910156 169.726562 611.476562 171.394531 615.003906 C 173.0625 618.53125 174.816406 622.015625 176.65625 625.457031 C 178.496094 628.898438 180.417969 632.292969 182.425781 635.636719 C 184.429688 638.984375 186.519531 642.28125 188.6875 645.523438 C 190.855469 648.769531 193.101562 651.957031 195.425781 655.09375 C 197.75 658.226562 200.148438 661.300781 202.625 664.320312 C 205.101562 667.335938 207.648438 670.289062 210.269531 673.179688 C 212.886719 676.070312 215.578125 678.894531 218.335938 681.65625 C 221.097656 684.414062 223.921875 687.105469 226.8125 689.726562 C 229.703125 692.34375 232.65625 694.894531 235.675781 697.367188 C 238.691406 699.84375 241.765625 702.242188 244.898438 704.566406 C 248.035156 706.890625 251.222656 709.136719 254.46875 711.304688 C 257.710938 713.472656 261.007812 715.5625 264.355469 717.566406 C 267.703125 719.574219 271.09375 721.496094 274.535156 723.335938 C 277.976562 725.175781 281.460938 726.929688 284.988281 728.597656 C 288.515625 730.265625 292.082031 731.847656 295.6875 733.339844 C 299.292969 734.832031 302.933594 736.238281 306.605469 737.550781 C 310.28125 738.867188 313.984375 740.089844 317.71875 741.222656 C 321.453125 742.355469 325.210938 743.394531 328.996094 744.34375 C 332.78125 745.292969 336.585938 746.144531 340.414062 746.90625 C 344.242188 747.667969 348.085938 748.335938 351.945312 748.90625 C 355.804688 749.480469 359.675781 749.957031 363.558594 750.339844 C 367.441406 750.722656 371.332031 751.007812 375.230469 751.199219 C 379.128906 751.390625 383.027344 751.488281 386.929688 751.488281 C 390.832031 751.488281 394.730469 751.390625 398.628906 751.199219 C 402.527344 751.007812 406.414062 750.722656 410.300781 750.339844 C 414.183594 749.957031 418.054688 749.480469 421.914062 748.90625 C 425.773438 748.335938 429.617188 747.667969 433.445312 746.90625 C 437.269531 746.144531 441.078125 745.289062 444.863281 744.34375 C 448.648438 743.394531 452.40625 742.355469 456.140625 741.222656 C 459.875 740.089844 463.578125 738.867188 467.253906 737.550781 C 470.925781 736.234375 474.566406 734.832031 478.171875 733.339844 C 481.773438 731.847656 485.339844 730.265625 488.867188 728.597656 C 492.394531 726.929688 495.878906 725.175781 499.320312 723.335938 C 502.761719 721.496094 506.15625 719.574219 509.503906 717.566406 C 512.851562 715.5625 516.144531 713.472656 519.390625 711.304688 C 522.636719 709.136719 525.824219 706.890625 528.957031 704.566406 C 532.09375 702.242188 535.167969 699.84375 538.183594 697.367188 C 541.199219 694.894531 544.152344 692.34375 547.046875 689.722656 C 549.9375 687.105469 552.761719 684.414062 555.519531 681.65625 C 558.28125 678.894531 560.96875 676.070312 563.589844 673.179688 C 566.210938 670.289062 568.757812 667.335938 571.234375 664.320312 C 573.710938 661.300781 576.109375 658.226562 578.433594 655.09375 C 580.757812 651.957031 583.003906 648.769531 585.171875 645.523438 C 587.339844 642.28125 589.425781 638.984375 591.433594 635.636719 C 593.4375 632.292969 595.363281 628.898438 597.199219 625.457031 C 599.039062 622.015625 600.792969 618.53125 602.460938 615.003906 C 604.132812 611.476562 605.710938 607.910156 607.203125 604.304688 C 608.699219 600.699219 610.101562 597.058594 611.417969 593.386719 C 612.730469 589.710938 613.953125 586.007812 615.085938 582.273438 C 616.21875 578.539062 617.261719 574.78125 618.207031 570.996094 C 619.15625 567.210938 620.011719 563.40625 620.773438 559.578125 C 621.535156 555.75 622.199219 551.90625 622.773438 548.046875 C 623.347656 544.1875 623.824219 540.316406 624.207031 536.433594 C 624.589844 532.550781 624.875 528.660156 625.066406 524.761719 C 625.257812 520.867188 625.355469 516.964844 625.355469 513.0625 C 625.410156 499.371094 624.261719 485.78125 621.902344 472.292969 C 619.542969 458.804688 616.011719 445.628906 611.308594 432.769531 C 611.046875 432.058594 610.75 431.367188 610.417969 430.6875 C 610.089844 430.007812 609.726562 429.347656 609.328125 428.703125 C 608.933594 428.0625 608.507812 427.4375 608.050781 426.835938 C 607.59375 426.234375 607.105469 425.660156 606.59375 425.105469 C 606.078125 424.550781 605.539062 424.023438 604.972656 423.523438 C 604.410156 423.023438 603.820312 422.550781 603.207031 422.105469 C 602.597656 421.664062 601.964844 421.253906 601.3125 420.871094 C 600.660156 420.492188 599.992188 420.140625 599.304688 419.828125 C 598.617188 419.511719 597.917969 419.230469 597.203125 418.984375 C 596.488281 418.738281 595.765625 418.527344 595.03125 418.351562 C 594.296875 418.175781 593.554688 418.039062 592.804688 417.933594 C 592.058594 417.832031 591.304688 417.765625 590.550781 417.738281 C 589.796875 417.710938 589.042969 417.71875 588.289062 417.761719 C 587.535156 417.808594 586.785156 417.890625 586.039062 418.007812 C 585.292969 418.128906 584.554688 418.28125 583.824219 418.472656 C 583.09375 418.664062 582.371094 418.894531 581.664062 419.15625 C 580.957031 419.417969 580.261719 419.714844 579.582031 420.042969 C 578.902344 420.375 578.242188 420.734375 577.597656 421.132812 C 576.953125 421.527344 576.332031 421.953125 575.730469 422.410156 C 575.128906 422.863281 574.550781 423.347656 573.996094 423.863281 C 573.441406 424.375 572.914062 424.914062 572.410156 425.480469 C 571.910156 426.042969 571.4375 426.632812 570.992188 427.242188 C 570.550781 427.855469 570.136719 428.488281 569.753906 429.136719 C 569.375 429.789062 569.023438 430.460938 568.707031 431.144531 C 568.390625 431.832031 568.109375 432.53125 567.863281 433.246094 C 567.617188 433.957031 567.402344 434.683594 567.226562 435.417969 C 567.050781 436.152344 566.910156 436.894531 566.808594 437.640625 C 566.707031 438.390625 566.636719 439.140625 566.609375 439.894531 C 566.578125 440.652344 566.585938 441.40625 566.632812 442.160156 C 566.675781 442.914062 566.757812 443.664062 566.875 444.410156 C 566.992188 445.15625 567.148438 445.894531 567.335938 446.625 C 567.527344 447.355469 567.753906 448.074219 568.015625 448.785156 C 571.773438 459.082031 574.589844 469.628906 576.472656 480.425781 C 578.351562 491.222656 579.261719 502.101562 579.207031 513.0625 C 579.207031 516.210938 579.128906 519.355469 578.976562 522.5 C 578.820312 525.640625 578.589844 528.777344 578.28125 531.910156 C 577.972656 535.042969 577.585938 538.164062 577.125 541.277344 C 576.664062 544.390625 576.125 547.488281 575.511719 550.574219 C 574.898438 553.660156 574.210938 556.730469 573.445312 559.785156 C 572.679688 562.835938 571.839844 565.867188 570.929688 568.878906 C 570.015625 571.890625 569.027344 574.878906 567.96875 577.839844 C 566.90625 580.804688 565.773438 583.738281 564.570312 586.644531 C 563.367188 589.550781 562.09375 592.429688 560.746094 595.273438 C 559.402344 598.117188 557.988281 600.925781 556.503906 603.703125 C 555.019531 606.476562 553.46875 609.214844 551.851562 611.914062 C 550.234375 614.613281 548.550781 617.269531 546.800781 619.886719 C 545.054688 622.503906 543.242188 625.074219 541.367188 627.601562 C 539.492188 630.132812 537.558594 632.609375 535.5625 635.042969 C 533.566406 637.476562 531.511719 639.859375 529.398438 642.191406 C 527.285156 644.519531 525.117188 646.800781 522.890625 649.023438 C 520.664062 651.25 518.386719 653.417969 516.054688 655.53125 C 513.722656 657.644531 511.339844 659.699219 508.910156 661.695312 C 506.476562 663.691406 503.996094 665.628906 501.46875 667.503906 C 498.941406 669.378906 496.371094 671.1875 493.753906 672.9375 C 491.136719 674.683594 488.480469 676.367188 485.78125 677.984375 C 483.082031 679.605469 480.34375 681.15625 477.570312 682.636719 C 474.792969 684.121094 471.984375 685.535156 469.140625 686.882812 C 466.292969 688.226562 463.417969 689.5 460.511719 690.707031 C 457.605469 691.910156 454.667969 693.042969 451.707031 694.101562 C 448.742188 695.160156 445.753906 696.148438 442.746094 697.0625 C 439.734375 697.976562 436.703125 698.816406 433.648438 699.578125 C 430.597656 700.34375 427.527344 701.03125 424.441406 701.648438 C 421.355469 702.261719 418.253906 702.796875 415.140625 703.261719 C 412.03125 703.722656 408.90625 704.105469 405.777344 704.414062 C 402.644531 704.722656 399.507812 704.957031 396.363281 705.109375 C 393.222656 705.265625 390.074219 705.339844 386.929688 705.339844 C 383.78125 705.339844 380.636719 705.265625 377.496094 705.109375 C 374.351562 704.957031 371.214844 704.722656 368.082031 704.414062 C 364.949219 704.105469 361.828125 703.722656 358.714844 703.261719 C 355.601562 702.796875 352.503906 702.261719 349.417969 701.648438 C 346.332031 701.03125 343.261719 700.34375 340.210938 699.578125 C 337.15625 698.816406 334.125 697.976562 331.113281 697.0625 C 328.101562 696.148438 325.117188 695.160156 322.152344 694.101562 C 319.191406 693.042969 316.253906 691.910156 313.347656 690.707031 C 310.441406 689.5 307.5625 688.226562 304.71875 686.882812 C 301.875 685.535156 299.066406 684.121094 296.289062 682.636719 C 293.515625 681.15625 290.777344 679.605469 288.078125 677.984375 C 285.378906 676.367188 282.722656 674.683594 280.105469 672.9375 C 277.488281 671.1875 274.917969 669.378906 272.390625 667.503906 C 269.863281 665.628906 267.382812 663.691406 264.949219 661.695312 C 262.515625 659.699219 260.136719 657.644531 257.804688 655.53125 C 255.472656 653.417969 253.191406 651.25 250.96875 649.023438 C 248.742188 646.800781 246.574219 644.519531 244.460938 642.191406 C 242.347656 639.859375 240.292969 637.476562 238.296875 635.042969 C 236.300781 632.609375 234.363281 630.132812 232.488281 627.601562 C 230.617188 625.074219 228.804688 622.503906 227.054688 619.886719 C 225.308594 617.269531 223.625 614.613281 222.007812 611.914062 C 220.390625 609.214844 218.839844 606.476562 217.355469 603.703125 C 215.871094 600.925781 214.457031 598.117188 213.113281 595.273438 C 211.765625 592.429688 210.492188 589.550781 209.289062 586.644531 C 208.082031 583.738281 206.949219 580.804688 205.890625 577.839844 C 204.832031 574.878906 203.84375 571.890625 202.929688 568.878906 C 202.015625 565.867188 201.179688 562.835938 200.414062 559.785156 C 199.648438 556.730469 198.960938 553.660156 198.347656 550.574219 C 197.730469 547.488281 197.195312 544.390625 196.730469 541.277344 C 196.269531 538.164062 195.886719 535.042969 195.578125 531.910156 C 195.269531 528.777344 195.039062 525.640625 194.882812 522.5 C 194.726562 519.355469 194.652344 516.210938 194.652344 513.0625 C 194.652344 509.917969 194.726562 506.773438 194.882812 503.628906 C 195.039062 500.484375 195.269531 497.347656 195.578125 494.21875 C 195.886719 491.085938 196.269531 487.964844 196.730469 484.851562 C 197.195312 481.738281 197.730469 478.636719 198.347656 475.550781 C 198.960938 472.464844 199.648438 469.394531 200.414062 466.34375 C 201.179688 463.292969 202.015625 460.257812 202.929688 457.25 C 203.84375 454.238281 204.832031 451.25 205.890625 448.289062 C 206.949219 445.324219 208.082031 442.390625 209.289062 439.480469 C 210.492188 436.574219 211.765625 433.699219 213.113281 430.855469 C 214.457031 428.007812 215.871094 425.199219 217.355469 422.425781 C 218.839844 419.648438 220.390625 416.910156 222.007812 414.214844 C 223.625 411.515625 225.308594 408.855469 227.054688 406.238281 C 228.804688 403.625 230.617188 401.050781 232.488281 398.523438 C 234.363281 395.996094 236.300781 393.515625 238.296875 391.082031 C 240.292969 388.652344 242.347656 386.269531 244.460938 383.9375 C 246.574219 381.605469 248.742188 379.328125 250.96875 377.101562 C 253.191406 374.878906 255.472656 372.707031 257.804688 370.59375 C 260.136719 368.480469 262.515625 366.425781 264.949219 364.429688 C 267.382812 362.433594 269.863281 360.5 272.390625 358.625 C 274.917969 356.75 277.488281 354.9375 280.105469 353.191406 C 282.722656 351.441406 285.378906 349.757812 288.078125 348.140625 C 290.777344 346.523438 293.515625 344.972656 296.289062 343.488281 C 299.066406 342.007812 301.875 340.589844 304.71875 339.246094 C 307.5625 337.902344 310.441406 336.625 313.347656 335.421875 C 316.253906 334.21875 319.191406 333.085938 322.152344 332.023438 C 325.117188 330.964844 328.101562 329.980469 331.113281 329.066406 C 334.125 328.152344 337.15625 327.3125 340.210938 326.546875 C 343.261719 325.785156 346.332031 325.09375 349.417969 324.480469 C 352.503906 323.867188 355.601562 323.328125 358.714844 322.867188 C 361.828125 322.40625 364.949219 322.019531 368.082031 321.710938 C 371.214844 321.402344 374.351562 321.171875 377.496094 321.015625 C 380.636719 320.863281 383.78125 320.785156 386.929688 320.785156 C 397.894531 320.726562 408.773438 321.640625 419.578125 323.519531 C 430.378906 325.398438 440.929688 328.21875 451.226562 331.976562 Z M 451.226562 331.976562 "/><path style=" stroke:none;fill-rule:nonzero;fill:#113c7b;fill-opacity:1;" d="M 370.625 529.367188 C 371.167969 529.886719 371.734375 530.382812 372.324219 530.847656 C 372.914062 531.3125 373.523438 531.75 374.152344 532.15625 C 374.785156 532.5625 375.433594 532.9375 376.101562 533.285156 C 376.769531 533.628906 377.453125 533.941406 378.148438 534.222656 C 378.84375 534.5 379.554688 534.746094 380.273438 534.960938 C 380.996094 535.171875 381.722656 535.347656 382.460938 535.492188 C 383.199219 535.632812 383.941406 535.742188 384.691406 535.8125 C 385.4375 535.882812 386.1875 535.917969 386.9375 535.917969 C 387.691406 535.917969 388.4375 535.882812 389.1875 535.8125 C 389.933594 535.742188 390.675781 535.632812 391.414062 535.492188 C 392.152344 535.347656 392.882812 535.171875 393.601562 534.960938 C 394.324219 534.746094 395.03125 534.5 395.730469 534.222656 C 396.425781 533.941406 397.109375 533.628906 397.773438 533.285156 C 398.441406 532.9375 399.09375 532.5625 399.722656 532.15625 C 400.355469 531.75 400.964844 531.3125 401.554688 530.847656 C 402.144531 530.382812 402.710938 529.886719 403.253906 529.367188 L 616.695312 315.925781 L 713.359375 335.257812 C 715.222656 335.59375 717.097656 335.710938 718.988281 335.601562 C 720.875 335.492188 722.726562 335.164062 724.539062 334.617188 C 726.351562 334.066406 728.070312 333.3125 729.703125 332.355469 C 731.335938 331.398438 732.832031 330.261719 734.195312 328.949219 L 864.703125 198.433594 C 865.4375 197.695312 866.117188 196.917969 866.746094 196.089844 C 867.375 195.261719 867.945312 194.394531 868.457031 193.492188 C 868.972656 192.589844 869.417969 191.652344 869.804688 190.6875 C 870.191406 189.722656 870.511719 188.738281 870.761719 187.730469 C 871.015625 186.722656 871.199219 185.703125 871.3125 184.667969 C 871.429688 183.636719 871.472656 182.601562 871.449219 181.5625 C 871.421875 180.523438 871.328125 179.488281 871.164062 178.464844 C 871 177.4375 870.765625 176.429688 870.464844 175.433594 C 870.164062 174.4375 869.796875 173.46875 869.363281 172.523438 C 868.933594 171.578125 868.4375 170.667969 867.882812 169.789062 C 867.328125 168.910156 866.714844 168.074219 866.046875 167.277344 C 865.378906 166.484375 864.660156 165.734375 863.890625 165.039062 C 863.121094 164.339844 862.308594 163.695312 861.453125 163.105469 C 860.597656 162.519531 859.703125 161.988281 858.777344 161.523438 C 857.847656 161.054688 856.894531 160.648438 855.910156 160.3125 C 854.929688 159.972656 853.929688 159.699219 852.910156 159.496094 L 759.21875 140.765625 L 740.488281 47.074219 C 740.285156 46.054688 740.011719 45.054688 739.671875 44.070312 C 739.332031 43.089844 738.929688 42.132812 738.460938 41.207031 C 737.996094 40.277344 737.464844 39.386719 736.878906 38.527344 C 736.289062 37.671875 735.644531 36.859375 734.945312 36.089844 C 734.246094 35.320312 733.5 34.601562 732.703125 33.933594 C 731.910156 33.261719 731.070312 32.652344 730.195312 32.09375 C 729.316406 31.539062 728.402344 31.046875 727.457031 30.613281 C 726.511719 30.183594 725.542969 29.816406 724.546875 29.511719 C 723.550781 29.21875 722.542969 28.992188 721.515625 28.832031 C 720.492188 28.675781 719.460938 28.582031 718.421875 28.5625 C 717.382812 28.539062 716.351562 28.585938 715.320312 28.703125 C 714.289062 28.820312 713.269531 29.003906 712.261719 29.257812 C 711.253906 29.511719 710.269531 29.828125 709.304688 30.210938 C 708.339844 30.597656 707.40625 31.042969 706.503906 31.550781 C 705.597656 32.0625 704.730469 32.628906 703.902344 33.25 C 703.074219 33.875 702.289062 34.554688 701.550781 35.28125 L 571.027344 165.804688 C 569.683594 167.148438 568.523438 168.632812 567.546875 170.261719 C 566.570312 171.890625 565.808594 173.613281 565.257812 175.433594 C 564.707031 177.25 564.386719 179.105469 564.296875 181.003906 C 564.203125 182.898438 564.34375 184.777344 564.71875 186.640625 L 584.050781 283.308594 L 370.625 496.757812 C 370.089844 497.292969 369.585938 497.851562 369.105469 498.4375 C 368.628906 499.019531 368.179688 499.625 367.757812 500.253906 C 367.339844 500.882812 366.953125 501.527344 366.597656 502.195312 C 366.242188 502.859375 365.917969 503.542969 365.628906 504.242188 C 365.339844 504.9375 365.085938 505.648438 364.867188 506.371094 C 364.648438 507.09375 364.464844 507.824219 364.320312 508.566406 C 364.171875 509.304688 364.0625 510.050781 363.988281 510.804688 C 363.914062 511.554688 363.875 512.308594 363.875 513.0625 C 363.875 513.820312 363.914062 514.570312 363.988281 515.324219 C 364.0625 516.074219 364.171875 516.820312 364.320312 517.5625 C 364.464844 518.300781 364.648438 519.035156 364.867188 519.757812 C 365.085938 520.480469 365.339844 521.1875 365.628906 521.886719 C 365.917969 522.585938 366.242188 523.265625 366.597656 523.933594 C 366.953125 524.597656 367.339844 525.246094 367.757812 525.875 C 368.179688 526.5 368.625 527.109375 369.105469 527.691406 C 369.585938 528.277344 370.089844 528.835938 370.625 529.367188 Z M 703.707031 98.40625 L 717 164.890625 C 717.222656 166 717.523438 167.089844 717.90625 168.15625 C 718.289062 169.222656 718.746094 170.253906 719.28125 171.253906 C 719.816406 172.253906 720.421875 173.207031 721.09375 174.117188 C 721.769531 175.027344 722.507812 175.882812 723.308594 176.683594 C 724.109375 177.484375 724.964844 178.222656 725.875 178.898438 C 726.785156 179.574219 727.738281 180.175781 728.738281 180.710938 C 729.738281 181.246094 730.769531 181.703125 731.835938 182.085938 C 732.902344 182.46875 733.992188 182.769531 735.101562 182.992188 L 801.589844 196.285156 L 710.285156 287.601562 L 628.703125 271.296875 L 612.398438 189.714844 Z M 703.707031 98.40625 "/><g clip-rule="nonzero" clip-path="url(#6b60498cff)"><path style=" stroke:none;fill-rule:nonzero;fill:#113c7b;fill-opacity:1;" d="M 502.746094 170.6875 C 484.109375 164.304688 465.070312 159.507812 445.636719 156.300781 C 426.199219 153.09375 406.628906 151.519531 386.929688 151.582031 C 381.011719 151.582031 375.101562 151.726562 369.191406 152.015625 C 363.285156 152.308594 357.386719 152.742188 351.496094 153.320312 C 345.609375 153.902344 339.742188 154.625 333.890625 155.492188 C 328.035156 156.363281 322.210938 157.371094 316.40625 158.527344 C 310.605469 159.679688 304.835938 160.976562 299.097656 162.414062 C 293.359375 163.851562 287.65625 165.429688 281.996094 167.144531 C 276.335938 168.863281 270.71875 170.71875 265.148438 172.710938 C 259.578125 174.703125 254.0625 176.832031 248.597656 179.097656 C 243.128906 181.359375 237.722656 183.757812 232.375 186.289062 C 227.027344 188.816406 221.746094 191.476562 216.527344 194.265625 C 211.308594 197.054688 206.164062 199.96875 201.089844 203.007812 C 196.015625 206.050781 191.019531 209.214844 186.101562 212.5 C 181.179688 215.789062 176.347656 219.195312 171.59375 222.71875 C 166.84375 226.242188 162.179688 229.878906 157.605469 233.632812 C 153.035156 237.386719 148.554688 241.25 144.171875 245.222656 C 139.789062 249.195312 135.503906 253.273438 131.324219 257.457031 C 127.140625 261.640625 123.0625 265.921875 119.089844 270.308594 C 115.117188 274.691406 111.253906 279.167969 107.5 283.742188 C 103.746094 288.316406 100.109375 292.976562 96.582031 297.730469 C 93.058594 302.480469 89.652344 307.316406 86.367188 312.234375 C 83.082031 317.152344 79.917969 322.148438 76.875 327.222656 C 73.832031 332.296875 70.917969 337.445312 68.128906 342.660156 C 65.339844 347.878906 62.683594 353.160156 60.152344 358.511719 C 57.625 363.859375 55.226562 369.265625 52.960938 374.730469 C 50.699219 380.195312 48.570312 385.714844 46.578125 391.285156 C 44.585938 396.855469 42.730469 402.46875 41.011719 408.128906 C 39.292969 413.792969 37.71875 419.492188 36.28125 425.230469 C 34.84375 430.96875 33.546875 436.738281 32.390625 442.542969 C 31.238281 448.34375 30.226562 454.171875 29.359375 460.023438 C 28.492188 465.875 27.765625 471.746094 27.1875 477.632812 C 26.605469 483.519531 26.171875 489.417969 25.882812 495.328125 C 25.589844 501.234375 25.445312 507.148438 25.445312 513.0625 C 25.445312 518.980469 25.589844 524.890625 25.882812 530.800781 C 26.171875 536.710938 26.605469 542.609375 27.1875 548.496094 C 27.765625 554.382812 28.492188 560.253906 29.359375 566.105469 C 30.226562 571.957031 31.238281 577.78125 32.390625 583.585938 C 33.546875 589.386719 34.84375 595.15625 36.28125 600.898438 C 37.71875 606.636719 39.292969 612.335938 41.011719 617.996094 C 42.730469 623.65625 44.585938 629.273438 46.578125 634.84375 C 48.570312 640.414062 50.699219 645.929688 52.960938 651.398438 C 55.226562 656.863281 57.625 662.269531 60.152344 667.617188 C 62.683594 672.964844 65.339844 678.246094 68.128906 683.464844 C 70.917969 688.683594 73.832031 693.828125 76.875 698.902344 C 79.917969 703.976562 83.082031 708.972656 86.367188 713.894531 C 89.652344 718.8125 93.058594 723.648438 96.582031 728.398438 C 100.109375 733.148438 103.746094 737.8125 107.5 742.386719 C 111.253906 746.957031 115.117188 751.4375 119.089844 755.820312 C 123.0625 760.203125 127.140625 764.488281 131.324219 768.671875 C 135.503906 772.855469 139.789062 776.933594 144.171875 780.90625 C 148.554688 784.878906 153.035156 788.742188 157.605469 792.492188 C 162.179688 796.246094 166.84375 799.886719 171.59375 803.410156 C 176.347656 806.933594 181.179688 810.339844 186.101562 813.625 C 191.019531 816.910156 196.015625 820.074219 201.089844 823.117188 C 206.164062 826.160156 211.308594 829.074219 216.527344 831.863281 C 221.746094 834.652344 227.027344 837.3125 232.375 839.839844 C 237.722656 842.371094 243.128906 844.765625 248.597656 847.03125 C 254.0625 849.292969 259.578125 851.421875 265.148438 853.414062 C 270.71875 855.410156 276.335938 857.265625 281.996094 858.980469 C 287.65625 860.699219 293.359375 862.277344 299.097656 863.714844 C 304.835938 865.152344 310.605469 866.445312 316.40625 867.601562 C 322.210938 868.753906 328.035156 869.765625 333.890625 870.632812 C 339.742188 871.5 345.609375 872.226562 351.496094 872.804688 C 357.386719 873.386719 363.285156 873.820312 369.191406 874.109375 C 375.101562 874.402344 381.011719 874.546875 386.929688 874.546875 C 392.84375 874.546875 398.757812 874.402344 404.667969 874.109375 C 410.574219 873.820312 416.472656 873.386719 422.359375 872.804688 C 428.25 872.226562 434.117188 871.5 439.96875 870.632812 C 445.820312 869.765625 451.648438 868.753906 457.449219 867.601562 C 463.253906 866.445312 469.023438 865.152344 474.761719 863.714844 C 480.5 862.277344 486.199219 860.699219 491.863281 858.980469 C 497.523438 857.265625 503.140625 855.410156 508.707031 853.414062 C 514.277344 851.421875 519.796875 849.292969 525.261719 847.03125 C 530.726562 844.765625 536.136719 842.371094 541.484375 839.839844 C 546.832031 837.3125 552.113281 834.652344 557.332031 831.863281 C 562.546875 829.074219 567.695312 826.160156 572.769531 823.117188 C 577.84375 820.074219 582.839844 816.910156 587.757812 813.625 C 592.675781 810.339844 597.511719 806.933594 602.265625 803.410156 C 607.015625 799.886719 611.679688 796.246094 616.25 792.492188 C 620.824219 788.742188 625.300781 784.878906 629.6875 780.90625 C 634.070312 776.933594 638.351562 772.855469 642.535156 768.671875 C 646.71875 764.488281 650.796875 760.203125 654.769531 755.820312 C 658.742188 751.4375 662.605469 746.957031 666.359375 742.386719 C 670.113281 737.8125 673.75 733.148438 677.273438 728.398438 C 680.800781 723.648438 684.203125 718.8125 687.492188 713.894531 C 690.777344 708.972656 693.941406 703.976562 696.984375 698.902344 C 700.023438 693.828125 702.941406 688.683594 705.726562 683.464844 C 708.515625 678.246094 711.175781 672.964844 713.707031 667.617188 C 716.234375 662.269531 718.632812 656.863281 720.894531 651.398438 C 723.160156 645.929688 725.289062 640.414062 727.28125 634.84375 C 729.273438 629.273438 731.128906 623.65625 732.847656 617.996094 C 734.5625 612.335938 736.140625 606.636719 737.578125 600.898438 C 739.015625 595.15625 740.3125 589.386719 741.464844 583.585938 C 742.621094 577.78125 743.632812 571.957031 744.5 566.105469 C 745.367188 560.253906 746.089844 554.382812 746.671875 548.496094 C 747.25 542.609375 747.6875 536.710938 747.976562 530.800781 C 748.265625 524.890625 748.410156 518.980469 748.410156 513.0625 C 748.472656 493.363281 746.898438 473.796875 743.691406 454.359375 C 740.484375 434.921875 735.691406 415.882812 729.304688 397.246094 C 729.058594 396.535156 728.777344 395.835938 728.460938 395.148438 C 728.144531 394.460938 727.796875 393.792969 727.414062 393.140625 C 727.03125 392.492188 726.621094 391.859375 726.175781 391.246094 C 725.734375 390.636719 725.261719 390.046875 724.757812 389.484375 C 724.257812 388.917969 723.730469 388.378906 723.175781 387.867188 C 722.621094 387.355469 722.042969 386.867188 721.441406 386.414062 C 720.839844 385.957031 720.21875 385.53125 719.574219 385.136719 C 718.929688 384.742188 718.269531 384.378906 717.589844 384.046875 C 716.910156 383.71875 716.21875 383.421875 715.511719 383.160156 C 714.800781 382.898438 714.082031 382.671875 713.351562 382.476562 C 712.621094 382.285156 711.882812 382.132812 711.136719 382.011719 C 710.390625 381.894531 709.644531 381.8125 708.890625 381.765625 C 708.136719 381.71875 707.382812 381.710938 706.625 381.742188 C 705.871094 381.769531 705.121094 381.835938 704.371094 381.9375 C 703.625 382.039062 702.882812 382.179688 702.148438 382.355469 C 701.414062 382.527344 700.691406 382.738281 699.976562 382.984375 C 699.261719 383.230469 698.5625 383.511719 697.875 383.828125 C 697.1875 384.144531 696.519531 384.492188 695.867188 384.871094 C 695.214844 385.25 694.582031 385.664062 693.972656 386.105469 C 693.359375 386.550781 692.773438 387.019531 692.207031 387.519531 C 691.640625 388.023438 691.101562 388.550781 690.585938 389.101562 C 690.074219 389.65625 689.589844 390.234375 689.132812 390.835938 C 688.675781 391.4375 688.25 392.058594 687.851562 392.699219 C 687.457031 393.34375 687.09375 394.003906 686.761719 394.683594 C 686.429688 395.363281 686.132812 396.054688 685.871094 396.761719 C 685.609375 397.472656 685.378906 398.191406 685.1875 398.921875 C 684.996094 399.652344 684.839844 400.386719 684.71875 401.132812 C 684.601562 401.878906 684.515625 402.628906 684.46875 403.382812 C 684.425781 404.136719 684.414062 404.890625 684.441406 405.644531 C 684.46875 406.398438 684.535156 407.152344 684.636719 407.898438 C 684.738281 408.648438 684.875 409.390625 685.050781 410.125 C 685.226562 410.859375 685.433594 411.582031 685.679688 412.296875 C 691.230469 428.511719 695.398438 445.078125 698.179688 461.988281 C 700.964844 478.898438 702.324219 495.925781 702.265625 513.0625 C 702.265625 518.222656 702.136719 523.382812 701.886719 528.535156 C 701.632812 533.691406 701.253906 538.835938 700.746094 543.972656 C 700.242188 549.109375 699.609375 554.226562 698.851562 559.332031 C 698.09375 564.4375 697.210938 569.519531 696.207031 574.582031 C 695.199219 579.644531 694.070312 584.679688 692.816406 589.683594 C 691.5625 594.691406 690.183594 599.664062 688.6875 604.601562 C 687.1875 609.539062 685.570312 614.4375 683.832031 619.296875 C 682.09375 624.15625 680.238281 628.96875 678.261719 633.738281 C 676.285156 638.503906 674.195312 643.222656 671.988281 647.886719 C 669.78125 652.550781 667.464844 657.160156 665.03125 661.710938 C 662.597656 666.261719 660.054688 670.753906 657.402344 675.179688 C 654.75 679.605469 651.988281 683.964844 649.121094 688.253906 C 646.253906 692.546875 643.285156 696.765625 640.210938 700.910156 C 637.136719 705.054688 633.960938 709.121094 630.6875 713.109375 C 627.414062 717.101562 624.042969 721.007812 620.578125 724.832031 C 617.113281 728.652344 613.554688 732.390625 609.90625 736.039062 C 606.257812 739.6875 602.519531 743.246094 598.695312 746.710938 C 594.871094 750.179688 590.964844 753.546875 586.976562 756.820312 C 582.988281 760.09375 578.917969 763.269531 574.773438 766.34375 C 570.628906 769.417969 566.410156 772.390625 562.121094 775.257812 C 557.828125 778.121094 553.46875 780.882812 549.042969 783.535156 C 544.617188 786.1875 540.128906 788.734375 535.578125 791.164062 C 531.027344 793.597656 526.417969 795.917969 521.753906 798.125 C 517.085938 800.332031 512.371094 802.421875 507.601562 804.394531 C 502.835938 806.371094 498.023438 808.226562 493.164062 809.964844 C 488.304688 811.703125 483.40625 813.324219 478.464844 814.820312 C 473.527344 816.320312 468.554688 817.695312 463.550781 818.949219 C 458.542969 820.203125 453.507812 821.332031 448.449219 822.339844 C 443.386719 823.347656 438.304688 824.230469 433.199219 824.988281 C 428.09375 825.742188 422.972656 826.375 417.835938 826.882812 C 412.703125 827.386719 407.554688 827.765625 402.402344 828.019531 C 397.246094 828.273438 392.089844 828.398438 386.929688 828.398438 C 381.769531 828.398438 376.609375 828.273438 371.457031 828.019531 C 366.300781 827.765625 361.15625 827.386719 356.019531 826.882812 C 350.886719 826.375 345.765625 825.742188 340.660156 824.988281 C 335.554688 824.230469 330.472656 823.347656 325.410156 822.339844 C 320.347656 821.332031 315.316406 820.203125 310.308594 818.949219 C 305.304688 817.695312 300.332031 816.320312 295.390625 814.820312 C 290.453125 813.324219 285.554688 811.703125 280.695312 809.964844 C 275.835938 808.226562 271.023438 806.371094 266.253906 804.394531 C 261.488281 802.421875 256.769531 800.332031 252.105469 798.125 C 247.441406 795.917969 242.832031 793.597656 238.28125 791.164062 C 233.730469 788.730469 229.242188 786.1875 224.8125 783.535156 C 220.386719 780.882812 216.027344 778.121094 211.738281 775.257812 C 207.445312 772.390625 203.230469 769.417969 199.082031 766.34375 C 194.9375 763.269531 190.871094 760.09375 186.882812 756.820312 C 182.894531 753.546875 178.988281 750.179688 175.164062 746.710938 C 171.339844 743.246094 167.601562 739.6875 163.953125 736.039062 C 160.304688 732.390625 156.746094 728.652344 153.28125 724.832031 C 149.816406 721.007812 146.445312 717.101562 143.171875 713.109375 C 139.898438 709.121094 136.722656 705.054688 133.648438 700.910156 C 130.574219 696.765625 127.605469 692.546875 124.738281 688.253906 C 121.871094 683.964844 119.109375 679.605469 116.457031 675.179688 C 113.804688 670.753906 111.261719 666.261719 108.828125 661.710938 C 106.394531 657.160156 104.074219 652.550781 101.867188 647.886719 C 99.664062 643.222656 97.570312 638.503906 95.597656 633.738281 C 93.621094 628.96875 91.765625 624.15625 90.027344 619.296875 C 88.289062 614.4375 86.667969 609.539062 85.171875 604.601562 C 83.671875 599.664062 82.296875 594.691406 81.042969 589.683594 C 79.789062 584.679688 78.660156 579.644531 77.652344 574.582031 C 76.644531 569.519531 75.761719 564.4375 75.007812 559.332031 C 74.25 554.226562 73.617188 549.109375 73.113281 543.972656 C 72.605469 538.835938 72.226562 533.691406 71.972656 528.535156 C 71.71875 523.382812 71.59375 518.222656 71.59375 513.0625 C 71.59375 507.902344 71.71875 502.746094 71.972656 497.589844 C 72.226562 492.4375 72.605469 487.292969 73.113281 482.15625 C 73.617188 477.019531 74.25 471.898438 75.007812 466.792969 C 75.761719 461.6875 76.644531 456.605469 77.652344 451.542969 C 78.660156 446.484375 79.789062 441.449219 81.042969 436.441406 C 82.296875 431.4375 83.671875 426.464844 85.171875 421.527344 C 86.667969 416.589844 88.289062 411.6875 90.027344 406.832031 C 91.765625 401.972656 93.621094 397.15625 95.597656 392.390625 C 97.570312 387.621094 99.664062 382.90625 101.867188 378.238281 C 104.074219 373.574219 106.394531 368.964844 108.828125 364.414062 C 111.261719 359.863281 113.804688 355.375 116.457031 350.949219 C 119.109375 346.523438 121.871094 342.164062 124.738281 337.871094 C 127.605469 333.582031 130.574219 329.363281 133.648438 325.21875 C 136.722656 321.074219 139.898438 317.007812 143.171875 313.015625 C 146.445312 309.027344 149.816406 305.121094 153.28125 301.296875 C 156.746094 297.472656 160.304688 293.738281 163.953125 290.085938 C 167.601562 286.4375 171.339844 282.878906 175.164062 279.414062 C 178.988281 275.949219 182.894531 272.578125 186.882812 269.304688 C 190.871094 266.03125 194.9375 262.859375 199.082031 259.785156 C 203.230469 256.710938 207.445312 253.738281 211.738281 250.871094 C 216.027344 248.003906 220.386719 245.242188 224.8125 242.589844 C 229.242188 239.9375 233.730469 237.394531 238.28125 234.960938 C 242.832031 232.53125 247.441406 230.210938 252.105469 228.003906 C 256.769531 225.796875 261.488281 223.707031 266.253906 221.730469 C 271.023438 219.757812 275.835938 217.898438 280.695312 216.160156 C 285.554688 214.421875 290.453125 212.804688 295.390625 211.304688 C 300.332031 209.808594 305.304688 208.433594 310.308594 207.179688 C 315.316406 205.925781 320.347656 204.792969 325.410156 203.785156 C 330.472656 202.78125 335.554688 201.898438 340.660156 201.140625 C 345.765625 200.382812 350.886719 199.753906 356.019531 199.246094 C 361.15625 198.742188 366.300781 198.359375 371.457031 198.109375 C 376.609375 197.855469 381.769531 197.726562 386.929688 197.726562 C 404.066406 197.667969 421.09375 199.027344 438.003906 201.8125 C 454.917969 204.59375 471.480469 208.761719 487.695312 214.3125 C 488.410156 214.558594 489.132812 214.769531 489.871094 214.945312 C 490.605469 215.121094 491.347656 215.257812 492.09375 215.359375 C 492.84375 215.460938 493.59375 215.527344 494.351562 215.554688 C 495.105469 215.582031 495.859375 215.574219 496.613281 215.527344 C 497.367188 215.484375 498.117188 215.402344 498.863281 215.28125 C 499.609375 215.160156 500.347656 215.003906 501.078125 214.8125 C 501.808594 214.621094 502.527344 214.394531 503.238281 214.132812 C 503.945312 213.867188 504.640625 213.570312 505.320312 213.242188 C 505.996094 212.910156 506.660156 212.546875 507.304688 212.152344 C 507.945312 211.753906 508.570312 211.328125 509.171875 210.871094 C 509.773438 210.414062 510.351562 209.929688 510.902344 209.414062 C 511.457031 208.902344 511.984375 208.363281 512.484375 207.796875 C 512.988281 207.230469 513.457031 206.640625 513.902344 206.03125 C 514.34375 205.417969 514.757812 204.785156 515.136719 204.132812 C 515.519531 203.480469 515.867188 202.8125 516.183594 202.125 C 516.496094 201.4375 516.777344 200.738281 517.023438 200.023438 C 517.269531 199.308594 517.480469 198.585938 517.65625 197.847656 C 517.832031 197.113281 517.972656 196.371094 518.074219 195.625 C 518.175781 194.875 518.242188 194.125 518.269531 193.367188 C 518.296875 192.613281 518.289062 191.859375 518.246094 191.105469 C 518.199219 190.351562 518.117188 189.601562 517.996094 188.855469 C 517.878906 188.109375 517.722656 187.371094 517.53125 186.640625 C 517.339844 185.910156 517.109375 185.1875 516.847656 184.480469 C 516.585938 183.773438 516.289062 183.078125 515.957031 182.398438 C 515.628906 181.71875 515.265625 181.058594 514.871094 180.414062 C 514.472656 179.769531 514.046875 179.148438 513.589844 178.546875 C 513.132812 177.945312 512.648438 177.367188 512.136719 176.8125 C 511.621094 176.257812 511.082031 175.730469 510.515625 175.230469 C 509.949219 174.730469 509.363281 174.257812 508.75 173.8125 C 508.140625 173.371094 507.507812 172.957031 506.855469 172.578125 C 506.203125 172.195312 505.53125 171.847656 504.847656 171.53125 C 504.160156 171.214844 503.460938 170.933594 502.746094 170.6875 Z M 502.746094 170.6875 "/></g></g></svg>