<svg xmlns="http://www.w3.org/2000/svg" xmlns:xlink="http://www.w3.org/1999/xlink" width="1200" zoomAndPan="magnify" viewBox="0 0 900 899.99999" height="1200" preserveAspectRatio="xMidYMid meet" version="1.2"><defs><clipPath id="a83b6abe38"><path d="M 393 173 L 726.953125 173 L 726.953125 507 L 393 507 Z M 393 173 "/></clipPath><clipPath id="b6710cad8e"><path d="M 172.703125 254 L 646 254 L 646 726.953125 L 172.703125 726.953125 Z M 172.703125 254 "/></clipPath></defs><g id="245af8e156"><path style=" stroke:none;fill-rule:nonzero;fill:#113c7b;fill-opacity:1;" d="M 376.589844 437.898438 C 375.886719 437.195312 375.125 436.570312 374.296875 436.015625 C 373.472656 435.464844 372.601562 435 371.683594 434.621094 C 370.765625 434.238281 369.820312 433.953125 368.847656 433.757812 C 367.871094 433.566406 366.886719 433.46875 365.894531 433.46875 C 364.902344 433.46875 363.917969 433.566406 362.945312 433.757812 C 361.972656 433.953125 361.023438 434.238281 360.109375 434.621094 C 359.191406 435 358.320312 435.464844 357.492188 436.015625 C 356.667969 436.570312 355.902344 437.195312 355.199219 437.898438 C 354.308594 438.769531 353.4375 439.660156 352.585938 440.574219 C 351.738281 441.488281 350.910156 442.421875 350.109375 443.375 C 349.304688 444.332031 348.527344 445.304688 347.769531 446.296875 C 347.015625 447.289062 346.285156 448.300781 345.582031 449.332031 C 344.878906 450.359375 344.199219 451.40625 343.546875 452.46875 C 342.890625 453.53125 342.265625 454.609375 341.667969 455.703125 C 341.066406 456.796875 340.496094 457.90625 339.949219 459.027344 C 339.40625 460.148438 338.886719 461.285156 338.398438 462.433594 C 337.910156 463.582031 337.449219 464.738281 337.019531 465.910156 C 336.589844 467.082031 336.1875 468.261719 335.8125 469.453125 C 335.441406 470.640625 335.097656 471.839844 334.785156 473.046875 C 334.472656 474.253906 334.1875 475.46875 333.933594 476.691406 C 333.679688 477.914062 333.457031 479.140625 333.265625 480.371094 C 333.074219 481.605469 332.910156 482.839844 332.78125 484.082031 C 332.648438 485.320312 332.546875 486.566406 332.476562 487.808594 C 332.40625 489.054688 332.367188 490.300781 332.359375 491.550781 C 332.351562 492.796875 332.375 494.042969 332.429688 495.289062 C 332.484375 496.535156 332.566406 497.78125 332.683594 499.023438 C 332.796875 500.265625 332.945312 501.503906 333.121094 502.738281 C 333.296875 503.972656 333.503906 505.203125 333.742188 506.425781 C 333.976562 507.652344 334.246094 508.871094 334.542969 510.082031 C 334.839844 511.292969 335.167969 512.496094 335.527344 513.691406 C 335.882812 514.886719 336.269531 516.070312 336.6875 517.246094 C 337.101562 518.421875 337.546875 519.589844 338.019531 520.742188 C 338.492188 521.894531 338.996094 523.039062 339.527344 524.167969 C 340.054688 525.296875 340.613281 526.410156 341.199219 527.511719 C 341.785156 528.613281 342.398438 529.699219 343.035156 530.773438 C 343.675781 531.84375 344.339844 532.898438 345.03125 533.9375 C 345.722656 534.976562 346.441406 535.996094 347.183594 536.996094 C 347.925781 538 348.691406 538.984375 349.480469 539.949219 C 350.269531 540.914062 351.085938 541.859375 351.921875 542.785156 C 352.761719 543.707031 353.621094 544.613281 354.503906 545.492188 C 355.382812 546.375 356.289062 547.234375 357.210938 548.074219 C 358.136719 548.910156 359.082031 549.722656 360.046875 550.515625 C 361.011719 551.304688 361.996094 552.070312 363 552.8125 C 364 553.554688 365.023438 554.269531 366.058594 554.960938 C 367.097656 555.652344 368.152344 556.320312 369.226562 556.957031 C 370.296875 557.597656 371.382812 558.207031 372.484375 558.792969 C 373.585938 559.378906 374.699219 559.9375 375.832031 560.46875 C 376.960938 560.996094 378.101562 561.5 379.253906 561.972656 C 380.410156 562.445312 381.574219 562.890625 382.75 563.304688 C 383.925781 563.722656 385.113281 564.109375 386.308594 564.464844 C 387.503906 564.824219 388.707031 565.148438 389.917969 565.449219 C 391.128906 565.746094 392.347656 566.011719 393.570312 566.25 C 394.796875 566.488281 396.023438 566.695312 397.261719 566.871094 C 398.496094 567.046875 399.734375 567.191406 400.976562 567.308594 C 402.21875 567.421875 403.460938 567.507812 404.707031 567.5625 C 405.953125 567.613281 407.203125 567.636719 408.449219 567.628906 C 409.695312 567.621094 410.941406 567.582031 412.1875 567.511719 C 413.433594 567.441406 414.675781 567.339844 415.917969 567.210938 C 417.15625 567.078125 418.394531 566.914062 419.625 566.722656 C 420.859375 566.53125 422.085938 566.308594 423.308594 566.054688 C 424.527344 565.800781 425.742188 565.515625 426.949219 565.203125 C 428.15625 564.890625 429.355469 564.546875 430.546875 564.171875 C 431.738281 563.800781 432.917969 563.398438 434.085938 562.96875 C 435.257812 562.535156 436.417969 562.074219 437.566406 561.585938 C 438.710938 561.097656 439.847656 560.582031 440.96875 560.035156 C 442.089844 559.492188 443.199219 558.917969 444.292969 558.320312 C 445.386719 557.71875 446.464844 557.09375 447.527344 556.441406 C 448.589844 555.785156 449.636719 555.109375 450.664062 554.402344 C 451.695312 553.699219 452.707031 552.96875 453.699219 552.214844 C 454.691406 551.457031 455.664062 550.679688 456.621094 549.875 C 457.574219 549.074219 458.507812 548.246094 459.421875 547.398438 C 460.335938 546.546875 461.226562 545.675781 462.097656 544.78125 C 462.757812 544.070312 463.347656 543.304688 463.863281 542.480469 C 464.375 541.660156 464.804688 540.792969 465.152344 539.886719 C 465.5 538.980469 465.761719 538.050781 465.929688 537.09375 C 466.097656 536.136719 466.171875 535.175781 466.15625 534.203125 C 466.136719 533.234375 466.027344 532.273438 465.828125 531.324219 C 465.625 530.375 465.332031 529.453125 464.953125 528.558594 C 464.574219 527.667969 464.113281 526.816406 463.570312 526.011719 C 463.027344 525.207031 462.414062 524.460938 461.726562 523.777344 C 461.039062 523.089844 460.296875 522.476562 459.492188 521.933594 C 458.6875 521.390625 457.835938 520.929688 456.941406 520.546875 C 456.050781 520.167969 455.128906 519.878906 454.179688 519.675781 C 453.230469 519.476562 452.269531 519.367188 451.300781 519.347656 C 450.328125 519.332031 449.363281 519.40625 448.410156 519.574219 C 447.453125 519.742188 446.523438 520 445.617188 520.347656 C 444.710938 520.695312 443.84375 521.128906 443.019531 521.640625 C 442.199219 522.15625 441.429688 522.742188 440.722656 523.40625 C 439.671875 524.457031 438.570312 525.453125 437.425781 526.398438 C 436.277344 527.339844 435.085938 528.226562 433.851562 529.050781 C 432.613281 529.878906 431.34375 530.644531 430.03125 531.34375 C 428.722656 532.046875 427.382812 532.679688 426.007812 533.25 C 424.636719 533.820312 423.238281 534.320312 421.816406 534.753906 C 420.394531 535.183594 418.957031 535.546875 417.5 535.835938 C 416.042969 536.125 414.574219 536.34375 413.09375 536.492188 C 411.617188 536.636719 410.132812 536.710938 408.648438 536.710938 C 407.164062 536.710938 405.679688 536.640625 404.199219 536.496094 C 402.722656 536.351562 401.253906 536.132812 399.796875 535.84375 C 398.339844 535.554688 396.898438 535.195312 395.476562 534.761719 C 394.054688 534.332031 392.65625 533.832031 391.285156 533.261719 C 389.914062 532.695312 388.570312 532.0625 387.261719 531.359375 C 385.949219 530.660156 384.675781 529.898438 383.441406 529.070312 C 382.207031 528.246094 381.011719 527.363281 379.863281 526.421875 C 378.714844 525.476562 377.617188 524.480469 376.566406 523.429688 C 375.515625 522.378906 374.519531 521.28125 373.574219 520.132812 C 372.632812 518.980469 371.75 517.789062 370.921875 516.554688 C 370.097656 515.320312 369.335938 514.046875 368.632812 512.734375 C 367.933594 511.425781 367.300781 510.082031 366.730469 508.710938 C 366.164062 507.335938 365.664062 505.941406 365.234375 504.519531 C 364.800781 503.097656 364.441406 501.65625 364.152344 500.199219 C 363.863281 498.742188 363.644531 497.273438 363.5 495.792969 C 363.355469 494.316406 363.28125 492.832031 363.285156 491.347656 C 363.285156 489.863281 363.355469 488.378906 363.503906 486.898438 C 363.648438 485.421875 363.867188 483.953125 364.160156 482.496094 C 364.449219 481.039062 364.8125 479.601562 365.242188 478.179688 C 365.675781 476.757812 366.175781 475.359375 366.746094 473.988281 C 367.316406 472.613281 367.949219 471.273438 368.652344 469.964844 C 369.351562 468.652344 370.117188 467.378906 370.941406 466.144531 C 371.769531 464.910156 372.652344 463.71875 373.597656 462.570312 C 374.542969 461.421875 375.539062 460.324219 376.589844 459.273438 C 377.292969 458.574219 377.917969 457.808594 378.46875 456.984375 C 379.019531 456.15625 379.484375 455.285156 379.863281 454.371094 C 380.242188 453.453125 380.53125 452.507812 380.722656 451.535156 C 380.917969 450.5625 381.011719 449.578125 381.011719 448.585938 C 381.011719 447.59375 380.917969 446.609375 380.722656 445.636719 C 380.53125 444.664062 380.242188 443.71875 379.863281 442.800781 C 379.484375 441.886719 379.019531 441.015625 378.46875 440.1875 C 377.917969 439.363281 377.292969 438.601562 376.589844 437.898438 Z M 376.589844 437.898438 "/><path style=" stroke:none;fill-rule:nonzero;fill:#113c7b;fill-opacity:1;" d="M 450.804688 372.632812 C 451.734375 372.976562 452.691406 373.226562 453.671875 373.382812 C 454.652344 373.535156 455.640625 373.59375 456.632812 373.554688 C 457.621094 373.515625 458.601562 373.382812 459.566406 373.148438 C 460.53125 372.917969 461.464844 372.59375 462.367188 372.179688 C 463.269531 371.765625 464.121094 371.265625 464.925781 370.679688 C 465.726562 370.097656 466.46875 369.441406 467.140625 368.714844 C 467.816406 367.984375 468.414062 367.199219 468.929688 366.351562 C 469.449219 365.507812 469.882812 364.617188 470.226562 363.6875 C 470.570312 362.753906 470.820312 361.800781 470.976562 360.820312 C 471.132812 359.839844 471.195312 358.851562 471.15625 357.859375 C 471.117188 356.867188 470.984375 355.890625 470.753906 354.925781 C 470.523438 353.957031 470.199219 353.023438 469.785156 352.121094 C 469.371094 351.222656 468.875 350.367188 468.292969 349.5625 C 467.710938 348.757812 467.054688 348.019531 466.328125 347.34375 C 465.597656 346.667969 464.8125 346.070312 463.96875 345.550781 C 463.121094 345.03125 462.234375 344.597656 461.304688 344.253906 C 452.871094 341.167969 444.234375 338.855469 435.390625 337.308594 C 426.542969 335.761719 417.632812 335.007812 408.65625 335.046875 C 406.097656 335.046875 403.542969 335.109375 400.988281 335.234375 C 398.433594 335.359375 395.882812 335.546875 393.335938 335.800781 C 390.789062 336.050781 388.253906 336.363281 385.722656 336.738281 C 383.191406 337.113281 380.671875 337.550781 378.164062 338.050781 C 375.65625 338.546875 373.160156 339.109375 370.679688 339.730469 C 368.199219 340.351562 365.734375 341.035156 363.285156 341.777344 C 360.839844 342.519531 358.410156 343.320312 356 344.183594 C 353.59375 345.042969 351.207031 345.964844 348.84375 346.945312 C 346.480469 347.921875 344.144531 348.957031 341.832031 350.050781 C 339.519531 351.144531 337.234375 352.296875 334.980469 353.5 C 332.722656 354.707031 330.5 355.96875 328.304688 357.28125 C 326.109375 358.597656 323.949219 359.964844 321.824219 361.386719 C 319.695312 362.808594 317.605469 364.28125 315.550781 365.804688 C 313.496094 367.328125 311.480469 368.902344 309.503906 370.523438 C 307.527344 372.144531 305.589844 373.816406 303.695312 375.535156 C 301.800781 377.25 299.949219 379.015625 298.140625 380.824219 C 296.332031 382.632812 294.566406 384.484375 292.847656 386.378906 C 291.132812 388.273438 289.460938 390.210938 287.839844 392.1875 C 286.214844 394.164062 284.644531 396.179688 283.121094 398.234375 C 281.59375 400.289062 280.125 402.382812 278.703125 404.507812 C 277.28125 406.632812 275.914062 408.796875 274.597656 410.988281 C 273.28125 413.183594 272.023438 415.40625 270.816406 417.664062 C 269.609375 419.917969 268.460938 422.203125 267.367188 424.515625 C 266.273438 426.828125 265.238281 429.164062 264.257812 431.527344 C 263.28125 433.890625 262.359375 436.277344 261.5 438.6875 C 260.636719 441.09375 259.835938 443.523438 259.09375 445.96875 C 258.347656 448.417969 257.667969 450.882812 257.046875 453.363281 C 256.425781 455.84375 255.863281 458.339844 255.363281 460.847656 C 254.867188 463.355469 254.429688 465.875 254.054688 468.40625 C 253.679688 470.9375 253.367188 473.476562 253.113281 476.019531 C 252.863281 478.566406 252.675781 481.117188 252.550781 483.671875 C 252.425781 486.226562 252.363281 488.78125 252.363281 491.339844 C 252.363281 493.898438 252.425781 496.453125 252.550781 499.007812 C 252.675781 501.5625 252.863281 504.113281 253.113281 506.660156 C 253.367188 509.203125 253.679688 511.742188 254.054688 514.273438 C 254.429688 516.804688 254.867188 519.324219 255.363281 521.832031 C 255.863281 524.339844 256.425781 526.835938 257.046875 529.316406 C 257.667969 531.796875 258.347656 534.261719 259.09375 536.710938 C 259.835938 539.15625 260.636719 541.585938 261.5 543.992188 C 262.359375 546.402344 263.28125 548.789062 264.257812 551.152344 C 265.238281 553.515625 266.273438 555.851562 267.367188 558.164062 C 268.460938 560.476562 269.609375 562.761719 270.816406 565.015625 C 272.023438 567.273438 273.28125 569.496094 274.597656 571.691406 C 275.914062 573.886719 277.28125 576.046875 278.703125 578.171875 C 280.125 580.296875 281.59375 582.390625 283.121094 584.445312 C 284.644531 586.5 286.214844 588.515625 287.839844 590.492188 C 289.460938 592.46875 291.132812 594.40625 292.847656 596.300781 C 294.566406 598.195312 296.332031 600.046875 298.140625 601.855469 C 299.949219 603.664062 301.800781 605.429688 303.695312 607.144531 C 305.589844 608.863281 307.527344 610.535156 309.503906 612.15625 C 311.480469 613.777344 313.496094 615.351562 315.550781 616.875 C 317.605469 618.398438 319.695312 619.871094 321.824219 621.292969 C 323.949219 622.714844 326.109375 624.082031 328.304688 625.398438 C 330.5 626.710938 332.722656 627.972656 334.980469 629.179688 C 337.234375 630.382812 339.519531 631.535156 341.832031 632.628906 C 344.144531 633.722656 346.480469 634.757812 348.84375 635.734375 C 351.207031 636.714844 353.59375 637.636719 356 638.496094 C 358.410156 639.359375 360.839844 640.160156 363.285156 640.902344 C 365.734375 641.644531 368.199219 642.328125 370.679688 642.949219 C 373.160156 643.570312 375.65625 644.132812 378.164062 644.628906 C 380.671875 645.128906 383.191406 645.566406 385.722656 645.941406 C 388.253906 646.316406 390.789062 646.628906 393.335938 646.878906 C 395.882812 647.132812 398.433594 647.320312 400.988281 647.445312 C 403.542969 647.570312 406.097656 647.632812 408.65625 647.632812 C 411.214844 647.632812 413.769531 647.570312 416.324219 647.445312 C 418.878906 647.320312 421.429688 647.132812 423.976562 646.878906 C 426.519531 646.628906 429.058594 646.316406 431.589844 645.941406 C 434.117188 645.566406 436.636719 645.128906 439.148438 644.628906 C 441.65625 644.132812 444.152344 643.570312 446.632812 642.949219 C 449.113281 642.328125 451.578125 641.644531 454.023438 640.902344 C 456.472656 640.160156 458.902344 639.359375 461.308594 638.496094 C 463.71875 637.636719 466.101562 636.714844 468.464844 635.734375 C 470.828125 634.757812 473.167969 633.722656 475.480469 632.628906 C 477.792969 631.535156 480.074219 630.382812 482.332031 629.179688 C 484.585938 627.972656 486.8125 626.710938 489.007812 625.398438 C 491.199219 624.082031 493.359375 622.714844 495.488281 621.292969 C 497.613281 619.871094 499.703125 618.398438 501.757812 616.875 C 503.8125 615.351562 505.828125 613.777344 507.808594 612.15625 C 509.785156 610.535156 511.71875 608.863281 513.617188 607.144531 C 515.511719 605.429688 517.363281 603.664062 519.171875 601.855469 C 520.980469 600.046875 522.742188 598.195312 524.460938 596.300781 C 526.179688 594.40625 527.847656 592.46875 529.472656 590.492188 C 531.09375 588.515625 532.667969 586.5 534.191406 584.445312 C 535.714844 582.390625 537.1875 580.296875 538.609375 578.171875 C 540.03125 576.046875 541.398438 573.886719 542.710938 571.691406 C 544.027344 569.496094 545.289062 567.273438 546.492188 565.015625 C 547.699219 562.761719 548.847656 560.476562 549.941406 558.164062 C 551.035156 555.851562 552.074219 553.515625 553.050781 551.152344 C 554.03125 548.789062 554.949219 546.402344 555.8125 543.992188 C 556.675781 541.585938 557.476562 539.15625 558.21875 536.710938 C 558.960938 534.261719 559.644531 531.796875 560.265625 529.316406 C 560.886719 526.835938 561.445312 524.339844 561.945312 521.832031 C 562.445312 519.324219 562.882812 516.804688 563.257812 514.273438 C 563.632812 511.742188 563.945312 509.203125 564.195312 506.660156 C 564.445312 504.113281 564.636719 501.5625 564.761719 499.007812 C 564.886719 496.453125 564.949219 493.898438 564.949219 491.339844 C 564.988281 482.363281 564.234375 473.453125 562.6875 464.613281 C 561.140625 455.769531 558.824219 447.132812 555.742188 438.703125 C 555.398438 437.773438 554.964844 436.886719 554.445312 436.039062 C 553.921875 435.195312 553.324219 434.410156 552.652344 433.679688 C 551.976562 432.953125 551.234375 432.296875 550.433594 431.714844 C 549.628906 431.132812 548.773438 430.636719 547.871094 430.222656 C 546.96875 429.808594 546.035156 429.484375 545.070312 429.253906 C 544.105469 429.023438 543.125 428.890625 542.132812 428.851562 C 541.144531 428.8125 540.15625 428.871094 539.175781 429.03125 C 538.195312 429.1875 537.238281 429.4375 536.308594 429.78125 C 535.378906 430.125 534.488281 430.558594 533.644531 431.074219 C 532.796875 431.59375 532.011719 432.191406 531.28125 432.867188 C 530.554688 433.539062 529.898438 434.28125 529.3125 435.082031 C 528.730469 435.886719 528.230469 436.738281 527.816406 437.640625 C 527.402344 438.542969 527.078125 439.476562 526.847656 440.441406 C 526.613281 441.40625 526.480469 442.382812 526.441406 443.375 C 526.402344 444.367188 526.460938 445.355469 526.613281 446.335938 C 526.769531 447.316406 527.019531 448.273438 527.363281 449.203125 C 529.824219 455.953125 531.671875 462.867188 532.90625 469.945312 C 534.136719 477.023438 534.734375 484.15625 534.699219 491.339844 C 534.699219 493.402344 534.648438 495.464844 534.546875 497.523438 C 534.445312 499.585938 534.292969 501.640625 534.089844 503.695312 C 533.890625 505.746094 533.636719 507.792969 533.335938 509.835938 C 533.03125 511.875 532.679688 513.90625 532.277344 515.929688 C 531.875 517.953125 531.421875 519.964844 530.921875 521.964844 C 530.421875 523.96875 529.871094 525.953125 529.269531 527.929688 C 528.671875 529.902344 528.027344 531.859375 527.332031 533.800781 C 526.636719 535.746094 525.894531 537.667969 525.105469 539.574219 C 524.316406 541.480469 523.480469 543.367188 522.597656 545.230469 C 521.714844 547.09375 520.789062 548.9375 519.816406 550.757812 C 518.84375 552.574219 517.828125 554.371094 516.765625 556.140625 C 515.707031 557.910156 514.601562 559.652344 513.457031 561.367188 C 512.308594 563.082031 511.121094 564.765625 509.894531 566.421875 C 508.664062 568.082031 507.398438 569.707031 506.089844 571.300781 C 504.78125 572.894531 503.433594 574.457031 502.046875 575.984375 C 500.660156 577.515625 499.238281 579.007812 497.78125 580.464844 C 496.324219 581.925781 494.828125 583.347656 493.300781 584.730469 C 491.773438 586.117188 490.210938 587.464844 488.617188 588.773438 C 487.023438 590.082031 485.394531 591.351562 483.738281 592.578125 C 482.082031 593.808594 480.394531 594.996094 478.679688 596.140625 C 476.964844 597.285156 475.222656 598.390625 473.453125 599.449219 C 471.683594 600.511719 469.890625 601.527344 468.070312 602.5 C 466.253906 603.472656 464.410156 604.398438 462.546875 605.28125 C 460.679688 606.164062 458.796875 607 456.890625 607.789062 C 454.984375 608.578125 453.058594 609.320312 451.117188 610.015625 C 449.175781 610.710938 447.21875 611.355469 445.242188 611.957031 C 443.269531 612.554688 441.28125 613.105469 439.28125 613.605469 C 437.28125 614.105469 435.269531 614.558594 433.246094 614.960938 C 431.222656 615.363281 429.191406 615.714844 427.148438 616.019531 C 425.109375 616.320312 423.0625 616.574219 421.011719 616.777344 C 418.957031 616.976562 416.898438 617.128906 414.839844 617.230469 C 412.78125 617.332031 410.71875 617.382812 408.65625 617.382812 C 406.59375 617.382812 404.53125 617.332031 402.472656 617.230469 C 400.410156 617.128906 398.355469 616.976562 396.300781 616.777344 C 394.25 616.574219 392.203125 616.320312 390.160156 616.019531 C 388.121094 615.714844 386.089844 615.363281 384.066406 614.960938 C 382.042969 614.558594 380.03125 614.105469 378.03125 613.605469 C 376.027344 613.105469 374.042969 612.554688 372.066406 611.957031 C 370.09375 611.355469 368.136719 610.710938 366.191406 610.015625 C 364.25 609.320312 362.328125 608.578125 360.421875 607.789062 C 358.515625 607 356.628906 606.164062 354.765625 605.28125 C 352.898438 604.398438 351.058594 603.472656 349.238281 602.5 C 347.417969 601.527344 345.625 600.511719 343.855469 599.449219 C 342.085938 598.390625 340.34375 597.285156 338.628906 596.140625 C 336.914062 594.996094 335.226562 593.808594 333.570312 592.578125 C 331.914062 591.351562 330.289062 590.082031 328.695312 588.773438 C 327.101562 587.464844 325.539062 586.117188 324.011719 584.730469 C 322.480469 583.347656 320.988281 581.925781 319.53125 580.464844 C 318.070312 579.007812 316.648438 577.515625 315.261719 575.984375 C 313.878906 574.457031 312.53125 572.894531 311.222656 571.300781 C 309.914062 569.707031 308.644531 568.082031 307.417969 566.421875 C 306.1875 564.765625 305 563.082031 303.855469 561.367188 C 302.707031 559.652344 301.605469 557.910156 300.542969 556.140625 C 299.484375 554.371094 298.46875 552.574219 297.496094 550.757812 C 296.523438 548.9375 295.59375 547.09375 294.714844 545.230469 C 293.832031 543.367188 292.996094 541.480469 292.207031 539.574219 C 291.417969 537.667969 290.675781 535.746094 289.980469 533.800781 C 289.285156 531.859375 288.636719 529.902344 288.039062 527.929688 C 287.441406 525.953125 286.890625 523.96875 286.390625 521.964844 C 285.886719 519.964844 285.4375 517.953125 285.035156 515.929688 C 284.632812 513.90625 284.277344 511.875 283.976562 509.835938 C 283.675781 507.792969 283.421875 505.746094 283.21875 503.695312 C 283.015625 501.640625 282.867188 499.585938 282.765625 497.523438 C 282.664062 495.464844 282.613281 493.402344 282.613281 491.339844 C 282.613281 489.277344 282.664062 487.214844 282.765625 485.15625 C 282.867188 483.09375 283.015625 481.039062 283.21875 478.984375 C 283.421875 476.933594 283.675781 474.886719 283.976562 472.84375 C 284.277344 470.804688 284.632812 468.773438 285.035156 466.75 C 285.4375 464.726562 285.886719 462.714844 286.390625 460.714844 C 286.890625 458.714844 287.441406 456.726562 288.039062 454.75 C 288.636719 452.777344 289.285156 450.820312 289.980469 448.878906 C 290.675781 446.933594 291.417969 445.011719 292.207031 443.105469 C 292.996094 441.199219 293.832031 439.3125 294.714844 437.449219 C 295.59375 435.585938 296.523438 433.742188 297.496094 431.921875 C 298.46875 430.105469 299.484375 428.308594 300.542969 426.539062 C 301.605469 424.773438 302.707031 423.03125 303.855469 421.3125 C 305 419.597656 306.1875 417.914062 307.417969 416.257812 C 308.644531 414.597656 309.914062 412.972656 311.222656 411.378906 C 312.53125 409.785156 313.878906 408.222656 315.261719 406.695312 C 316.648438 405.167969 318.070312 403.671875 319.53125 402.214844 C 320.988281 400.753906 322.480469 399.332031 324.011719 397.949219 C 325.539062 396.5625 327.101562 395.214844 328.695312 393.90625 C 330.289062 392.597656 331.914062 391.328125 333.570312 390.101562 C 335.226562 388.871094 336.914062 387.683594 338.628906 386.539062 C 340.34375 385.394531 342.085938 384.289062 343.855469 383.230469 C 345.625 382.167969 347.417969 381.152344 349.238281 380.179688 C 351.058594 379.207031 352.898438 378.28125 354.765625 377.398438 C 356.628906 376.515625 358.515625 375.679688 360.421875 374.890625 C 362.328125 374.101562 364.25 373.359375 366.191406 372.664062 C 368.136719 371.96875 370.09375 371.324219 372.066406 370.722656 C 374.042969 370.125 376.027344 369.574219 378.03125 369.074219 C 380.03125 368.574219 382.042969 368.121094 384.066406 367.71875 C 386.089844 367.316406 388.121094 366.964844 390.160156 366.660156 C 392.203125 366.359375 394.25 366.105469 396.300781 365.902344 C 398.355469 365.703125 400.410156 365.550781 402.472656 365.449219 C 404.53125 365.347656 406.59375 365.296875 408.65625 365.296875 C 415.84375 365.257812 422.976562 365.855469 430.054688 367.089844 C 437.136719 368.320312 444.054688 370.167969 450.804688 372.632812 Z M 450.804688 372.632812 "/><g clip-rule="nonzero" clip-path="url(#a83b6abe38)"><path style=" stroke:none;fill-rule:nonzero;fill:#113c7b;fill-opacity:1;" d="M 397.96875 502.027344 C 398.679688 502.710938 399.453125 503.320312 400.28125 503.855469 C 401.109375 504.390625 401.984375 504.839844 402.898438 505.210938 C 403.816406 505.578125 404.757812 505.855469 405.726562 506.042969 C 406.695312 506.230469 407.675781 506.324219 408.660156 506.324219 C 409.648438 506.324219 410.625 506.230469 411.597656 506.042969 C 412.566406 505.855469 413.507812 505.578125 414.421875 505.210938 C 415.339844 504.839844 416.210938 504.390625 417.042969 503.855469 C 417.871094 503.320312 418.644531 502.710938 419.355469 502.027344 L 559.273438 362.109375 L 622.636719 374.785156 C 623.859375 375.003906 625.089844 375.078125 626.328125 375.007812 C 627.566406 374.9375 628.78125 374.722656 629.964844 374.363281 C 631.152344 374.003906 632.28125 373.507812 633.351562 372.882812 C 634.421875 372.253906 635.40625 371.507812 636.296875 370.648438 L 721.847656 285.089844 C 722.816406 284.125 723.636719 283.042969 724.308594 281.851562 C 724.984375 280.660156 725.488281 279.402344 725.820312 278.074219 C 726.152344 276.746094 726.304688 275.398438 726.269531 274.03125 C 726.238281 272.664062 726.023438 271.324219 725.625 270.015625 C 725.226562 268.703125 724.664062 267.472656 723.933594 266.316406 C 723.203125 265.160156 722.328125 264.121094 721.316406 263.199219 C 720.300781 262.28125 719.183594 261.511719 717.964844 260.894531 C 716.742188 260.277344 715.460938 259.835938 714.117188 259.566406 L 652.699219 247.289062 L 640.421875 185.871094 C 640.152344 184.53125 639.710938 183.246094 639.09375 182.023438 C 638.476562 180.804688 637.710938 179.683594 636.789062 178.671875 C 635.871094 177.65625 634.832031 176.785156 633.675781 176.054688 C 632.515625 175.320312 631.285156 174.757812 629.972656 174.359375 C 628.664062 173.972656 627.324219 173.765625 625.957031 173.738281 C 624.589844 173.707031 623.246094 173.859375 621.917969 174.191406 C 620.59375 174.527344 619.335938 175.027344 618.144531 175.695312 C 616.953125 176.367188 615.871094 177.183594 614.898438 178.140625 L 529.335938 263.703125 C 528.457031 264.582031 527.695312 265.558594 527.054688 266.625 C 526.414062 267.691406 525.914062 268.824219 525.554688 270.015625 C 525.195312 271.203125 524.984375 272.421875 524.921875 273.664062 C 524.863281 274.910156 524.957031 276.140625 525.199219 277.359375 L 537.871094 340.730469 L 397.96875 480.652344 C 397.265625 481.355469 396.640625 482.117188 396.089844 482.941406 C 395.539062 483.769531 395.074219 484.640625 394.691406 485.554688 C 394.3125 486.472656 394.027344 487.417969 393.832031 488.390625 C 393.640625 489.363281 393.542969 490.347656 393.542969 491.339844 C 393.542969 492.332031 393.640625 493.316406 393.832031 494.289062 C 394.027344 495.261719 394.3125 496.207031 394.691406 497.125 C 395.074219 498.039062 395.539062 498.910156 396.089844 499.738281 C 396.640625 500.5625 397.265625 501.328125 397.96875 502.027344 Z M 616.3125 219.519531 L 625.027344 263.101562 C 625.171875 263.832031 625.371094 264.546875 625.621094 265.246094 C 625.871094 265.945312 626.171875 266.621094 626.519531 267.273438 C 626.871094 267.929688 627.265625 268.554688 627.710938 269.152344 C 628.152344 269.75 628.636719 270.308594 629.160156 270.835938 C 629.6875 271.359375 630.246094 271.84375 630.84375 272.285156 C 631.441406 272.726562 632.066406 273.125 632.71875 273.476562 C 633.375 273.824219 634.050781 274.125 634.75 274.375 C 635.449219 274.625 636.164062 274.824219 636.890625 274.96875 L 680.476562 283.683594 L 620.625 343.542969 L 567.144531 332.855469 L 556.457031 279.378906 Z M 616.3125 219.519531 "/></g><g clip-rule="nonzero" clip-path="url(#b6710cad8e)"><path style=" stroke:none;fill-rule:nonzero;fill:#113c7b;fill-opacity:1;" d="M 484.574219 266.90625 C 472.359375 262.71875 459.878906 259.574219 447.136719 257.472656 C 434.398438 255.371094 421.570312 254.339844 408.65625 254.378906 C 404.777344 254.378906 400.902344 254.472656 397.027344 254.664062 C 393.15625 254.855469 389.289062 255.140625 385.429688 255.519531 C 381.570312 255.898438 377.722656 256.375 373.886719 256.945312 C 370.050781 257.511719 366.230469 258.175781 362.425781 258.933594 C 358.625 259.6875 354.839844 260.539062 351.078125 261.480469 C 347.316406 262.421875 343.582031 263.457031 339.871094 264.582031 C 336.160156 265.707031 332.476562 266.925781 328.824219 268.230469 C 325.175781 269.539062 321.558594 270.933594 317.972656 272.417969 C 314.390625 273.902344 310.847656 275.472656 307.339844 277.128906 C 303.835938 278.789062 300.371094 280.53125 296.953125 282.359375 C 293.53125 284.1875 290.160156 286.097656 286.832031 288.089844 C 283.507812 290.085938 280.230469 292.160156 277.007812 294.3125 C 273.78125 296.46875 270.613281 298.699219 267.496094 301.011719 C 264.382812 303.320312 261.328125 305.707031 258.328125 308.167969 C 255.332031 310.625 252.394531 313.160156 249.523438 315.761719 C 246.648438 318.367188 243.839844 321.042969 241.097656 323.785156 C 238.355469 326.523438 235.683594 329.332031 233.078125 332.207031 C 230.472656 335.082031 227.941406 338.015625 225.480469 341.011719 C 223.023438 344.011719 220.636719 347.066406 218.328125 350.183594 C 216.015625 353.296875 213.785156 356.46875 211.628906 359.691406 C 209.476562 362.914062 207.402344 366.191406 205.40625 369.519531 C 203.414062 372.84375 201.503906 376.21875 199.675781 379.636719 C 197.847656 383.058594 196.101562 386.519531 194.445312 390.027344 C 192.785156 393.53125 191.214844 397.074219 189.730469 400.660156 C 188.246094 404.242188 186.851562 407.859375 185.546875 411.511719 C 184.238281 415.160156 183.023438 418.84375 181.898438 422.554688 C 180.773438 426.265625 179.738281 430 178.796875 433.761719 C 177.851562 437.523438 177.003906 441.308594 176.246094 445.109375 C 175.492188 448.914062 174.828125 452.734375 174.257812 456.570312 C 173.691406 460.40625 173.214844 464.253906 172.835938 468.113281 C 172.457031 471.972656 172.171875 475.839844 171.980469 479.714844 C 171.789062 483.585938 171.695312 487.460938 171.695312 491.339844 C 171.695312 495.21875 171.789062 499.09375 171.980469 502.96875 C 172.171875 506.839844 172.457031 510.707031 172.835938 514.566406 C 173.214844 518.425781 173.691406 522.273438 174.257812 526.109375 C 174.828125 529.945312 175.492188 533.765625 176.246094 537.570312 C 177.003906 541.371094 177.851562 545.15625 178.796875 548.917969 C 179.738281 552.679688 180.773438 556.414062 181.898438 560.125 C 183.023438 563.835938 184.238281 567.519531 185.546875 571.167969 C 186.851562 574.820312 188.246094 578.4375 189.730469 582.019531 C 191.214844 585.605469 192.785156 589.148438 194.445312 592.652344 C 196.101562 596.160156 197.847656 599.621094 199.675781 603.042969 C 201.503906 606.460938 203.414062 609.835938 205.40625 613.164062 C 207.402344 616.488281 209.476562 619.765625 211.628906 622.988281 C 213.785156 626.214844 216.015625 629.382812 218.328125 632.496094 C 220.636719 635.613281 223.023438 638.667969 225.480469 641.667969 C 227.941406 644.664062 230.472656 647.601562 233.078125 650.472656 C 235.683594 653.347656 238.355469 656.15625 241.097656 658.898438 C 243.839844 661.640625 246.648438 664.3125 249.523438 666.917969 C 252.394531 669.519531 255.332031 672.054688 258.328125 674.511719 C 261.328125 676.972656 264.382812 679.359375 267.496094 681.667969 C 270.613281 683.980469 273.78125 686.210938 277.007812 688.367188 C 280.230469 690.519531 283.507812 692.59375 286.832031 694.589844 C 290.160156 696.582031 293.53125 698.492188 296.953125 700.320312 C 300.371094 702.148438 303.835938 703.890625 307.339844 705.550781 C 310.847656 707.207031 314.390625 708.78125 317.972656 710.261719 C 321.558594 711.746094 325.175781 713.144531 328.824219 714.449219 C 332.476562 715.753906 336.160156 716.972656 339.871094 718.097656 C 343.582031 719.222656 347.316406 720.257812 351.078125 721.199219 C 354.839844 722.140625 358.625 722.992188 362.425781 723.746094 C 366.230469 724.503906 370.050781 725.167969 373.886719 725.738281 C 377.722656 726.304688 381.570312 726.78125 385.429688 727.160156 C 389.289062 727.539062 393.15625 727.824219 397.027344 728.015625 C 400.902344 728.207031 404.777344 728.300781 408.65625 728.300781 C 412.535156 728.300781 416.410156 728.207031 420.28125 728.015625 C 424.15625 727.824219 428.023438 727.539062 431.882812 727.160156 C 435.742188 726.78125 439.589844 726.304688 443.425781 725.738281 C 447.261719 725.167969 451.082031 724.503906 454.882812 723.746094 C 458.6875 722.992188 462.46875 722.140625 466.230469 721.199219 C 469.992188 720.257812 473.730469 719.222656 477.441406 718.097656 C 481.152344 716.972656 484.832031 715.753906 488.484375 714.449219 C 492.136719 713.144531 495.753906 711.746094 499.335938 710.261719 C 502.917969 708.78125 506.464844 707.207031 509.96875 705.550781 C 513.476562 703.890625 516.9375 702.148438 520.359375 700.320312 C 523.777344 698.492188 527.152344 696.582031 530.476562 694.589844 C 533.804688 692.59375 537.078125 690.519531 540.304688 688.367188 C 543.527344 686.210938 546.699219 683.980469 549.8125 681.667969 C 552.929688 679.359375 555.984375 676.972656 558.980469 674.511719 C 561.980469 672.054688 564.914062 669.519531 567.789062 666.917969 C 570.664062 664.3125 573.46875 661.640625 576.210938 658.898438 C 578.953125 656.15625 581.628906 653.347656 584.230469 650.472656 C 586.835938 647.601562 589.367188 644.664062 591.828125 641.667969 C 594.289062 638.667969 596.675781 635.613281 598.984375 632.496094 C 601.292969 629.382812 603.527344 626.214844 605.679688 622.988281 C 607.835938 619.765625 609.910156 616.488281 611.902344 613.164062 C 613.898438 609.835938 615.808594 606.460938 617.636719 603.042969 C 619.464844 599.621094 621.207031 596.160156 622.867188 592.652344 C 624.523438 589.148438 626.09375 585.605469 627.578125 582.019531 C 629.0625 578.4375 630.457031 574.820312 631.765625 571.167969 C 633.070312 567.519531 634.289062 563.835938 635.414062 560.125 C 636.539062 556.414062 637.574219 552.679688 638.515625 548.917969 C 639.457031 545.15625 640.308594 541.371094 641.0625 537.570312 C 641.820312 533.765625 642.484375 529.945312 643.050781 526.109375 C 643.621094 522.273438 644.09375 518.425781 644.476562 514.566406 C 644.855469 510.707031 645.140625 506.839844 645.332031 502.96875 C 645.519531 499.09375 645.617188 495.21875 645.617188 491.339844 C 645.65625 478.425781 644.625 465.597656 642.523438 452.855469 C 640.421875 440.117188 637.277344 427.636719 633.089844 415.417969 C 632.765625 414.480469 632.351562 413.585938 631.851562 412.726562 C 631.351562 411.871094 630.769531 411.074219 630.113281 410.332031 C 629.453125 409.585938 628.726562 408.917969 627.9375 408.316406 C 627.148438 407.71875 626.304688 407.199219 625.414062 406.765625 C 624.519531 406.332031 623.59375 405.988281 622.632812 405.738281 C 621.675781 405.488281 620.699219 405.332031 619.707031 405.269531 C 618.71875 405.210938 617.730469 405.25 616.746094 405.382812 C 615.765625 405.519531 614.804688 405.746094 613.867188 406.070312 C 612.925781 406.394531 612.03125 406.804688 611.171875 407.304688 C 610.316406 407.808594 609.515625 408.386719 608.773438 409.042969 C 608.027344 409.703125 607.355469 410.425781 606.757812 411.214844 C 606.15625 412.003906 605.636719 412.847656 605.203125 413.738281 C 604.769531 414.628906 604.425781 415.554688 604.171875 416.515625 C 603.917969 417.476562 603.761719 418.449219 603.703125 419.441406 C 603.640625 420.433594 603.675781 421.417969 603.808594 422.402344 C 603.945312 423.386719 604.171875 424.347656 604.496094 425.285156 C 608.132812 435.914062 610.863281 446.773438 612.6875 457.859375 C 614.511719 468.945312 615.40625 480.105469 615.367188 491.339844 C 615.367188 494.722656 615.28125 498.105469 615.117188 501.484375 C 614.953125 504.863281 614.703125 508.234375 614.371094 511.601562 C 614.039062 514.96875 613.625 518.324219 613.128906 521.671875 C 612.632812 525.015625 612.054688 528.347656 611.394531 531.667969 C 610.734375 534.984375 609.992188 538.285156 609.171875 541.566406 C 608.347656 544.847656 607.449219 548.109375 606.464844 551.34375 C 605.484375 554.582031 604.421875 557.792969 603.28125 560.980469 C 602.144531 564.164062 600.925781 567.320312 599.632812 570.445312 C 598.335938 573.570312 596.964844 576.660156 595.519531 579.71875 C 594.074219 582.777344 592.550781 585.800781 590.957031 588.78125 C 589.363281 591.765625 587.695312 594.707031 585.957031 597.609375 C 584.21875 600.511719 582.410156 603.371094 580.527344 606.183594 C 578.648438 608.996094 576.703125 611.761719 574.6875 614.476562 C 572.671875 617.195312 570.589844 619.859375 568.445312 622.476562 C 566.296875 625.089844 564.089844 627.652344 561.816406 630.160156 C 559.546875 632.664062 557.214844 635.113281 554.820312 637.507812 C 552.429688 639.898438 549.980469 642.230469 547.472656 644.503906 C 544.96875 646.773438 542.40625 648.984375 539.792969 651.128906 C 537.175781 653.277344 534.511719 655.355469 531.792969 657.371094 C 529.074219 659.386719 526.308594 661.335938 523.496094 663.214844 C 520.683594 665.09375 517.828125 666.902344 514.925781 668.640625 C 512.023438 670.382812 509.082031 672.046875 506.097656 673.644531 C 503.113281 675.238281 500.09375 676.757812 497.035156 678.203125 C 493.976562 679.652344 490.886719 681.019531 487.761719 682.316406 C 484.632812 683.609375 481.480469 684.828125 478.292969 685.96875 C 475.109375 687.105469 471.898438 688.167969 468.660156 689.148438 C 465.421875 690.132812 462.164062 691.035156 458.882812 691.855469 C 455.601562 692.679688 452.300781 693.417969 448.984375 694.078125 C 445.664062 694.738281 442.332031 695.316406 438.984375 695.8125 C 435.640625 696.308594 432.285156 696.722656 428.917969 697.054688 C 425.550781 697.386719 422.175781 697.636719 418.796875 697.800781 C 415.417969 697.96875 412.039062 698.050781 408.65625 698.050781 C 405.273438 698.050781 401.890625 697.96875 398.511719 697.800781 C 395.132812 697.636719 391.761719 697.386719 388.394531 697.054688 C 385.027344 696.722656 381.671875 696.308594 378.324219 695.8125 C 374.976562 695.316406 371.644531 694.738281 368.328125 694.078125 C 365.011719 693.417969 361.710938 692.679688 358.429688 691.855469 C 355.148438 691.035156 351.886719 690.132812 348.652344 689.148438 C 345.414062 688.167969 342.203125 687.105469 339.015625 685.96875 C 335.832031 684.828125 332.675781 683.609375 329.550781 682.316406 C 326.425781 681.019531 323.332031 679.652344 320.273438 678.203125 C 317.21875 676.757812 314.195312 675.238281 311.210938 673.640625 C 308.230469 672.046875 305.285156 670.378906 302.386719 668.640625 C 299.484375 666.902344 296.625 665.09375 293.8125 663.214844 C 291 661.335938 288.234375 659.386719 285.519531 657.371094 C 282.800781 655.355469 280.132812 653.277344 277.519531 651.128906 C 274.90625 648.984375 272.34375 646.773438 269.835938 644.503906 C 267.332031 642.230469 264.882812 639.898438 262.488281 637.507812 C 260.097656 635.113281 257.765625 632.664062 255.492188 630.160156 C 253.222656 627.652344 251.011719 625.089844 248.867188 622.476562 C 246.71875 619.859375 244.640625 617.195312 242.625 614.476562 C 240.609375 611.761719 238.660156 608.996094 236.78125 606.183594 C 234.902344 603.371094 233.09375 600.511719 231.355469 597.609375 C 229.613281 594.707031 227.949219 591.765625 226.351562 588.78125 C 224.757812 585.800781 223.238281 582.777344 221.792969 579.71875 C 220.34375 576.660156 218.972656 573.570312 217.679688 570.445312 C 216.386719 567.320312 215.167969 564.164062 214.027344 560.980469 C 212.886719 557.792969 211.828125 554.582031 210.84375 551.34375 C 209.863281 548.109375 208.960938 544.847656 208.140625 541.566406 C 207.316406 538.285156 206.578125 534.984375 205.917969 531.667969 C 205.257812 528.347656 204.679688 525.015625 204.183594 521.671875 C 203.6875 518.324219 203.273438 514.96875 202.941406 511.601562 C 202.609375 508.234375 202.359375 504.863281 202.195312 501.484375 C 202.027344 498.105469 201.945312 494.722656 201.945312 491.339844 C 201.945312 487.957031 202.027344 484.574219 202.195312 481.195312 C 202.359375 477.816406 202.609375 474.445312 202.941406 471.078125 C 203.273438 467.710938 203.6875 464.355469 204.183594 461.007812 C 204.679688 457.664062 205.257812 454.332031 205.917969 451.011719 C 206.578125 447.695312 207.316406 444.394531 208.140625 441.113281 C 208.960938 437.832031 209.863281 434.574219 210.84375 431.335938 C 211.828125 428.097656 212.886719 424.886719 214.027344 421.703125 C 215.167969 418.515625 216.386719 415.359375 217.679688 412.234375 C 218.972656 409.109375 220.34375 406.019531 221.792969 402.960938 C 223.238281 399.902344 224.757812 396.878906 226.351562 393.898438 C 227.949219 390.914062 229.613281 387.972656 231.355469 385.070312 C 233.09375 382.167969 234.902344 379.3125 236.78125 376.496094 C 238.660156 373.683594 240.609375 370.917969 242.625 368.203125 C 244.640625 365.484375 246.71875 362.820312 248.867188 360.203125 C 251.011719 357.589844 253.222656 355.027344 255.492188 352.523438 C 257.765625 350.015625 260.097656 347.566406 262.488281 345.171875 C 264.882812 342.78125 267.332031 340.449219 269.835938 338.175781 C 272.34375 335.90625 274.90625 333.695312 277.519531 331.550781 C 280.132812 329.40625 282.800781 327.324219 285.519531 325.308594 C 288.234375 323.292969 291 321.347656 293.8125 319.464844 C 296.625 317.585938 299.484375 315.777344 302.386719 314.039062 C 305.285156 312.300781 308.230469 310.632812 311.210938 309.039062 C 314.195312 307.441406 317.21875 305.921875 320.273438 304.476562 C 323.332031 303.03125 326.425781 301.660156 329.550781 300.363281 C 332.675781 299.070312 335.832031 297.851562 339.015625 296.710938 C 342.203125 295.574219 345.414062 294.511719 348.652344 293.53125 C 351.886719 292.546875 355.148438 291.644531 358.429688 290.824219 C 361.710938 290.003906 365.011719 289.261719 368.328125 288.601562 C 371.644531 287.941406 374.976562 287.363281 378.324219 286.867188 C 381.671875 286.371094 385.027344 285.957031 388.394531 285.625 C 391.761719 285.292969 395.132812 285.042969 398.511719 284.878906 C 401.890625 284.710938 405.273438 284.628906 408.65625 284.628906 C 419.890625 284.589844 431.050781 285.480469 442.136719 287.308594 C 453.222656 289.132812 464.082031 291.863281 474.710938 295.5 C 475.648438 295.824219 476.609375 296.054688 477.59375 296.1875 C 478.578125 296.320312 479.566406 296.359375 480.554688 296.296875 C 481.546875 296.238281 482.523438 296.082031 483.484375 295.828125 C 484.445312 295.578125 485.371094 295.234375 486.261719 294.796875 C 487.15625 294.363281 487.996094 293.847656 488.789062 293.246094 C 489.578125 292.644531 490.300781 291.972656 490.960938 291.230469 C 491.621094 290.484375 492.199219 289.6875 492.699219 288.828125 C 493.199219 287.972656 493.613281 287.074219 493.9375 286.132812 C 494.261719 285.195312 494.488281 284.234375 494.625 283.25 C 494.757812 282.265625 494.796875 281.277344 494.734375 280.289062 C 494.675781 279.296875 494.519531 278.320312 494.269531 277.359375 C 494.015625 276.402344 493.671875 275.472656 493.238281 274.582031 C 492.804688 273.6875 492.285156 272.847656 491.683594 272.054688 C 491.085938 271.265625 490.414062 270.539062 489.671875 269.882812 C 488.925781 269.222656 488.125 268.644531 487.269531 268.140625 C 486.414062 267.640625 485.515625 267.230469 484.574219 266.90625 Z M 484.574219 266.90625 "/></g></g></svg>