<svg xmlns="http://www.w3.org/2000/svg" xmlns:xlink="http://www.w3.org/1999/xlink" width="1200" zoomAndPan="magnify" viewBox="0 0 900 899.99999" height="1200" preserveAspectRatio="xMidYMid meet" version="1.2"><defs><clipPath id="b33de0290f"><path d="M 137 17 L 790.875 17 L 790.875 895 L 137 895 Z M 137 17 "/></clipPath></defs><g id="a7f0cc9528"><g clip-rule="nonzero" clip-path="url(#b33de0290f)"><path style=" stroke:none;fill-rule:nonzero;fill:#113c7b;fill-opacity:1;" d="M 463.921875 516.980469 C 368.554688 516.980469 291.246094 439.675781 291.246094 344.304688 C 291.246094 248.949219 368.554688 171.640625 463.921875 171.640625 C 559.285156 171.640625 636.59375 248.949219 636.59375 344.304688 C 636.59375 439.675781 559.285156 516.980469 463.921875 516.980469 Z M 432.082031 18.847656 C 240.449219 36.957031 109.199219 222.652344 142.640625 412.21875 C 176.609375 604.769531 354.140625 664.042969 442.246094 880.191406 C 450.183594 899.660156 477.613281 899.773438 485.550781 880.28125 C 583.21875 640.554688 790.882812 593.761719 790.882812 344.304688 C 790.882812 153.226562 626.976562 0.414062 432.082031 18.847656 "/></g></g></svg>