<svg xmlns="http://www.w3.org/2000/svg" xmlns:xlink="http://www.w3.org/1999/xlink" width="1200" zoomAndPan="magnify" viewBox="0 0 900 899.99999" height="1200" preserveAspectRatio="xMidYMid meet" version="1.2"><defs><clipPath id="c41904932f"><path d="M 242 162 L 676.636719 162 L 676.636719 746 L 242 746 Z M 242 162 "/></clipPath></defs><g id="5434cff57d"><g clip-rule="nonzero" clip-path="url(#c41904932f)"><path style=" stroke:none;fill-rule:nonzero;fill:#113c7b;fill-opacity:1;" d="M 459.238281 494.476562 C 395.914062 494.476562 344.574219 443.144531 344.574219 379.8125 C 344.574219 316.488281 395.914062 265.152344 459.238281 265.152344 C 522.566406 265.152344 573.902344 316.488281 573.902344 379.8125 C 573.902344 443.144531 522.566406 494.476562 459.238281 494.476562 Z M 438.097656 163.6875 C 310.84375 175.714844 223.683594 299.027344 245.894531 424.910156 C 268.449219 552.773438 386.339844 592.132812 444.847656 735.667969 C 450.117188 748.597656 468.332031 748.671875 473.605469 735.730469 C 538.460938 576.539062 676.359375 545.464844 676.359375 379.8125 C 676.359375 252.925781 567.515625 151.449219 438.097656 163.6875 "/></g></g></svg>