<svg width="14" height="14" viewBox="0 0 14 14" fill="none" xmlns="http://www.w3.org/2000/svg">
<path d="M12.5 12.5V6.83331H3.16671H1.50004V12.5H12.5Z" fill="white"/>
<path d="M8.83337 2.66665C8.83337 3.67917 8.01256 4.49998 7.00004 4.49998C5.98752 4.49998 5.16671 3.67917 5.16671 2.66665C5.16671 1.65412 5.98752 0.833313 7.00004 0.833313C8.01256 0.833313 8.83337 1.65412 8.83337 2.66665Z" fill="white"/>
<path d="M12.5 6.83331V12.5H1.50004V6.83331M12.5 6.83331H13.1667M12.5 6.83331H3.16671M1.50004 6.83331H0.833374M1.50004 6.83331V5.16665M1.50004 6.83331H3.16671M3.16671 6.83331V5.16665M5.13692 6.59214C5.61761 6.12265 6.27505 5.83331 7.00006 5.83331C7.72507 5.83331 8.38251 6.12265 8.8632 6.59214M8.83337 2.66665C8.83337 3.67917 8.01256 4.49998 7.00004 4.49998C5.98752 4.49998 5.16671 3.67917 5.16671 2.66665C5.16671 1.65412 5.98752 0.833313 7.00004 0.833313C8.01256 0.833313 8.83337 1.65412 8.83337 2.66665Z" stroke="#113C7B" stroke-width="1.5" stroke-linecap="square"/>
</svg>
