<svg width="32" height="32" viewBox="0 0 32 32" fill="none" xmlns="http://www.w3.org/2000/svg">
<g id="Star">
<path id="Vector" d="M29.8976 12.1576C29.7726 11.7732 29.5366 11.4345 29.2194 11.184C28.9022 10.9335 28.5179 10.7826 28.1151 10.7501L20.7401 10.1551L17.8926 3.26882C17.7386 2.89359 17.4765 2.57263 17.1396 2.34674C16.8027 2.12086 16.4063 2.00024 16.0007 2.00024C15.5951 2.00024 15.1987 2.12086 14.8618 2.34674C14.5249 2.57263 14.2628 2.89359 14.1088 3.26882L11.2638 10.1538L3.88508 10.7501C3.48156 10.7842 3.09707 10.9367 2.7798 11.1883C2.46253 11.44 2.22659 11.7797 2.10153 12.1649C1.97648 12.5501 1.96787 12.9636 2.07679 13.3536C2.18571 13.7437 2.40731 14.0929 2.71383 14.3576L8.33883 19.2113L6.62508 26.4688C6.52924 26.8631 6.55271 27.277 6.69251 27.6579C6.83231 28.0388 7.08214 28.3696 7.41028 28.6083C7.73843 28.847 8.13009 28.9828 8.53555 28.9984C8.94102 29.0141 9.34199 28.909 9.68758 28.6963L16.0001 24.8113L22.3163 28.6963C22.662 28.9064 23.0622 29.0096 23.4664 28.9927C23.8706 28.9759 24.2608 28.8398 24.5878 28.6016C24.9149 28.3635 25.1641 28.0339 25.3042 27.6544C25.4443 27.2748 25.469 26.8623 25.3751 26.4688L23.6551 19.2101L29.2801 14.3563C29.5891 14.0921 29.8127 13.7421 29.9226 13.3507C30.0326 12.9593 30.0238 12.544 29.8976 12.1576ZM27.9801 12.8413L21.8926 18.0913C21.7538 18.211 21.6505 18.3665 21.5941 18.5409C21.5376 18.7152 21.5302 18.9018 21.5726 19.0801L23.4326 26.9301C23.4374 26.9409 23.4379 26.9531 23.4339 26.9643C23.43 26.9755 23.4219 26.9847 23.4113 26.9901C23.3888 27.0076 23.3826 27.0038 23.3638 26.9901L16.5238 22.7838C16.3663 22.687 16.185 22.6357 16.0001 22.6357C15.8152 22.6357 15.6339 22.687 15.4763 22.7838L8.63633 26.9926C8.61758 27.0038 8.61258 27.0076 8.58883 26.9926C8.57828 26.9872 8.5702 26.978 8.56625 26.9668C8.56229 26.9556 8.56277 26.9434 8.56758 26.9326L10.4276 19.0826C10.47 18.9043 10.4625 18.7177 10.4061 18.5434C10.3497 18.369 10.2464 18.2135 10.1076 18.0938L4.02008 12.8438C4.00508 12.8313 3.99133 12.8201 4.00383 12.7813C4.01633 12.7426 4.02633 12.7476 4.04508 12.7451L12.0351 12.1001C12.2183 12.0844 12.3937 12.0184 12.5419 11.9094C12.6901 11.8005 12.8054 11.6528 12.8751 11.4826L15.9526 4.03132C15.9626 4.01007 15.9663 4.00007 15.9963 4.00007C16.0263 4.00007 16.0301 4.01007 16.0401 4.03132L19.1251 11.4826C19.1954 11.6529 19.3114 11.8004 19.4603 11.9089C19.6092 12.0175 19.7852 12.0827 19.9688 12.0976L27.9588 12.7426C27.9776 12.7426 27.9888 12.7426 28.0001 12.7788C28.0113 12.8151 28.0001 12.8288 27.9801 12.8413Z" fill="#113C7B"/>
</g>
</svg>
