<svg viewBox="0 0 39 39" fill="none" xmlns="http://www.w3.org/2000/svg">
<path d="M20.632 2.4425L23.5241 12.0087C24.0291 13.6711 25.3316 14.9716 26.9956 15.4738L36.565 18.3703C37.1891 18.5589 37.5416 19.2174 37.3534 19.8408C37.2391 20.2187 36.9435 20.5147 36.565 20.629L26.9956 23.5254C25.3316 24.0276 24.0291 25.3281 23.5241 26.9905L20.632 36.5568C20.4481 37.1817 19.7926 37.5399 19.1668 37.3561C18.7814 37.2429 18.4805 36.9415 18.3673 36.5568L15.4699 26.9905C14.9685 25.3276 13.6671 24.0266 12.0036 23.5254L2.43427 20.629C1.81014 20.4403 1.45767 19.7818 1.64587 19.1584C1.76017 18.7806 2.05575 18.4845 2.43427 18.3703L12.0036 15.4738C13.6671 14.9727 14.9685 13.6717 15.4699 12.0087L18.3673 2.4425C18.5512 1.81751 19.2067 1.45931 19.8324 1.64319C20.2173 1.75586 20.5188 2.0572 20.632 2.4425Z" fill="#9AE2E0"/>
<path d="M19.5037 38.9998C19.2411 38.9998 18.9769 38.9621 18.7174 38.8861C17.8073 38.6188 17.1045 37.9162 16.8371 37.0063L13.9434 27.4529C13.5946 26.2969 12.6978 25.4004 11.5431 25.0523L1.97265 22.1548C1.26399 21.9406 0.680256 21.4628 0.330443 20.8096C-0.0199024 20.1565 -0.0943307 19.4061 0.119917 18.6966C0.388922 17.8064 1.08217 17.1134 1.97318 16.8439L11.542 13.9475C12.6983 13.5988 13.5952 12.7023 13.9434 11.5479L16.8413 1.98011C17.2687 0.524982 18.8142 -0.317909 20.282 0.112571C21.1901 0.379363 21.8913 1.07876 22.1603 1.98543L25.0508 11.5469C25.4011 12.7001 26.3012 13.5978 27.4569 13.9469L37.0273 16.8434C37.736 17.0576 38.3197 17.5353 38.6696 18.1885C39.0199 18.8417 39.0943 19.5921 38.8801 20.3016C38.6111 21.1918 37.9184 21.8848 37.0268 22.1542L27.458 25.0507C26.3012 25.3998 25.4011 26.298 25.0502 27.4534L22.1592 37.018C21.954 37.7169 21.4809 38.3042 20.8301 38.6592C20.416 38.885 19.9625 38.9998 19.5037 38.9998ZM19.1039 36.1018C19.1034 36.1039 19.1029 36.106 19.1023 36.1082L19.1039 36.1018ZM19.8923 36.089L19.8939 36.0949C19.8934 36.0928 19.8929 36.0906 19.8923 36.089ZM4.2071 19.4996L12.466 21.9996C14.6451 22.6565 16.3395 24.3502 16.9971 26.5303L19.5 34.7923L21.9981 26.5292C22.6605 24.3497 24.3564 22.657 26.5356 21.999L34.7934 19.4996L26.5345 16.9996C24.3565 16.3422 22.6605 14.6495 21.9987 12.4721L19.5 4.20692L16.9971 12.4705C16.34 14.649 14.6457 16.3427 12.4649 17.0002L4.2071 19.4996ZM36.1034 19.8961H36.1087H36.1034ZM19.8982 2.89209L19.8961 2.89847C19.8966 2.89634 19.8971 2.89422 19.8982 2.89209Z" fill="url(#paint0_linear_44062_16172)"/>
<defs>
<linearGradient id="paint0_linear_44062_16172" x1="37.8625" y1="33.2089" x2="-2.53062" y2="26.342" gradientUnits="userSpaceOnUse">
<stop stop-color="#2C3E6B"/>
<stop offset="1" stop-color="#0068AF"/>
</linearGradient>
</defs>
</svg>
