<svg viewBox="0 0 38 32" fill="none" xmlns="http://www.w3.org/2000/svg">
<mask id="path-1-inside-1_44062_16184" fill="white">
<path d="M3.16103 2.31973C6.96609 -1.02939 12.7591 -0.71555 16.1781 3.02485L19.0127 6.15101L21.8514 3.02485C25.2689 -0.704953 31.0496 -1.01838 34.8522 2.31973C38.7047 5.71041 39.0731 11.5747 35.6756 15.4191C35.6454 15.4533 35.6148 15.4875 35.5837 15.5214L21.8968 30.6427C20.448 32.2396 17.9761 32.3627 16.3758 30.917C16.2798 30.8302 16.1879 30.7389 16.1009 30.6427L2.4099 15.5214C-1.039 11.7264 -0.751864 5.85959 3.05116 2.41795C3.08751 2.38494 3.12427 2.35233 3.16103 2.31973Z"/>
</mask>
<path d="M3.16103 2.31973C6.96609 -1.02939 12.7591 -0.71555 16.1781 3.02485L19.0127 6.15101L21.8514 3.02485C25.2689 -0.704953 31.0496 -1.01838 34.8522 2.31973C38.7047 5.71041 39.0731 11.5747 35.6756 15.4191C35.6454 15.4533 35.6148 15.4875 35.5837 15.5214L21.8968 30.6427C20.448 32.2396 17.9761 32.3627 16.3758 30.917C16.2798 30.8302 16.1879 30.7389 16.1009 30.6427L2.4099 15.5214C-1.039 11.7264 -0.751864 5.85959 3.05116 2.41795C3.08751 2.38494 3.12427 2.35233 3.16103 2.31973Z" fill="#FC8383" stroke="url(#paint0_linear_44062_16184)" stroke-width="6" mask="url(#path-1-inside-1_44062_16184)"/>
<defs>
<linearGradient id="paint0_linear_44062_16184" x1="1.10828" y1="27.1852" x2="40.0113" y2="19.3131" gradientUnits="userSpaceOnUse">
<stop stop-color="#2C3E6B"/>
<stop offset="1" stop-color="#0068AF"/>
</linearGradient>
</defs>
</svg>
