<svg xmlns="http://www.w3.org/2000/svg" xmlns:xlink="http://www.w3.org/1999/xlink" width="1200" zoomAndPan="magnify" viewBox="0 0 900 899.99999" height="1200" preserveAspectRatio="xMidYMid meet" version="1.2"><defs><clipPath id="973f830d58"><path d="M 215.421875 169.527344 L 684.921875 169.527344 L 684.921875 730.527344 L 215.421875 730.527344 Z M 215.421875 169.527344 "/></clipPath></defs><g id="b184938994"><g clip-rule="nonzero" clip-path="url(#973f830d58)"><path style=" stroke:none;fill-rule:nonzero;fill:#113c7b;fill-opacity:1;" d="M 619.449219 494.144531 C 618.148438 494.144531 618.148438 494.144531 619.449219 494.144531 L 618.148438 482.460938 C 618.148438 475.96875 612.957031 470.773438 606.464844 469.476562 C 602.566406 469.476562 598.671875 468.175781 594.777344 468.175781 C 594.777344 468.175781 593.476562 466.878906 593.476562 466.878906 C 568.808594 444.804688 541.539062 429.222656 512.972656 420.132812 C 554.523438 398.058594 583.089844 353.910156 583.089844 303.269531 C 583.089844 229.257812 523.359375 169.527344 449.347656 169.527344 C 375.335938 169.527344 315.605469 229.257812 315.605469 303.269531 C 315.605469 353.910156 344.171875 398.058594 385.722656 420.132812 C 357.15625 429.222656 329.886719 444.804688 305.21875 465.578125 C 305.21875 465.578125 303.917969 466.878906 303.917969 468.175781 C 300.023438 468.175781 296.128906 468.175781 292.230469 469.476562 C 285.738281 470.773438 280.546875 475.96875 280.546875 482.460938 L 280.546875 492.847656 C 279.246094 494.144531 277.949219 494.144531 277.949219 495.445312 C 238.996094 546.085938 215.621094 614.90625 215.621094 679.828125 C 215.621094 687.617188 220.816406 692.8125 228.605469 692.8125 L 281.84375 692.8125 C 281.84375 695.410156 283.144531 698.007812 285.738281 699.304688 C 288.335938 701.902344 292.230469 703.199219 296.128906 703.199219 C 388.320312 694.113281 442.855469 727.871094 442.855469 729.171875 C 442.855469 729.171875 444.152344 729.171875 444.152344 730.46875 C 444.152344 730.46875 445.453125 730.46875 445.453125 730.46875 C 446.75 730.46875 446.75 730.46875 448.050781 730.46875 C 448.050781 730.46875 449.347656 730.46875 449.347656 730.46875 C 450.644531 730.46875 451.945312 730.46875 453.242188 730.46875 C 453.242188 730.46875 453.242188 730.46875 454.542969 730.46875 C 455.839844 730.46875 455.839844 730.46875 457.136719 729.171875 C 457.136719 729.171875 511.675781 694.113281 603.867188 703.199219 C 607.761719 703.199219 611.65625 701.902344 614.253906 699.304688 C 615.550781 698.007812 616.851562 695.410156 618.148438 692.8125 L 671.386719 692.8125 C 679.179688 692.8125 684.371094 687.617188 684.371094 679.828125 C 684.371094 609.710938 661 543.488281 619.449219 494.144531 Z M 341.574219 303.269531 C 341.574219 243.539062 389.617188 195.496094 449.347656 195.496094 C 509.078125 195.496094 557.121094 243.539062 557.121094 303.269531 C 557.121094 363 509.078125 411.042969 449.347656 411.042969 C 389.617188 411.042969 341.574219 363 341.574219 303.269531 Z M 551.925781 468.175781 C 498.691406 472.070312 463.632812 487.652344 449.347656 495.445312 C 435.066406 487.652344 400.003906 472.070312 346.769531 468.175781 C 377.929688 447.402344 412.992188 437.011719 449.347656 437.011719 C 485.703125 437.011719 520.765625 447.402344 551.925781 468.175781 Z M 280.546875 538.292969 L 280.546875 666.84375 L 241.589844 666.84375 C 242.890625 622.695312 257.171875 575.949219 280.546875 538.292969 Z M 592.179688 675.933594 C 516.867188 670.738281 467.527344 692.8125 449.347656 703.199219 C 431.167969 694.113281 381.828125 672.039062 306.515625 675.933594 L 306.515625 494.144531 C 390.917969 488.953125 441.558594 520.117188 442.855469 520.117188 C 444.152344 520.117188 445.453125 521.414062 445.453125 521.414062 C 445.453125 521.414062 446.75 521.414062 446.75 521.414062 C 448.050781 521.414062 449.347656 521.414062 450.644531 521.414062 C 450.644531 521.414062 451.945312 521.414062 451.945312 521.414062 C 453.242188 521.414062 454.542969 520.117188 455.839844 520.117188 C 455.839844 520.117188 455.839844 520.117188 457.136719 520.117188 C 458.4375 518.816406 507.777344 487.652344 592.179688 494.144531 Z M 618.148438 666.84375 L 618.148438 538.292969 C 641.523438 575.949219 655.804688 620.097656 657.105469 666.84375 Z M 618.148438 666.84375 "/></g></g></svg>