<svg width="55" height="54" viewBox="0 0 55 54" fill="none" xmlns="http://www.w3.org/2000/svg">
<g id="Sword">
<path id="Vector" d="M45.7288 6.75H32.2288C31.9704 6.74997 31.7154 6.8093 31.4835 6.92341C31.2517 7.03751 31.0491 7.20335 30.8915 7.40812L17.3915 24.9602L15.3538 22.9268C15.0404 22.613 14.6681 22.3641 14.2584 22.1942C13.8487 22.0244 13.4095 21.937 12.966 21.937C12.5225 21.937 12.0833 22.0244 11.6736 22.1942C11.2639 22.3641 10.8916 22.613 10.5782 22.9268L7.90138 25.6057C7.5879 25.9191 7.33924 26.2912 7.16958 26.7007C6.99992 27.1103 6.9126 27.5492 6.9126 27.9925C6.9126 28.4357 6.99992 28.8747 7.16958 29.2842C7.33924 29.6937 7.5879 30.0658 7.90138 30.3792L12.1201 34.598L6.21388 40.5042C5.90041 40.8176 5.65174 41.1897 5.48208 41.5992C5.31242 42.0088 5.2251 42.4477 5.2251 42.891C5.2251 43.3343 5.31242 43.7732 5.48208 44.1827C5.65174 44.5922 5.90041 44.9643 6.21388 45.2777L8.89068 47.9524C9.52355 48.5849 10.3817 48.9402 11.2764 48.9402C12.1711 48.9402 13.0292 48.5849 13.6621 47.9524L19.5683 42.0462L23.7871 46.2649C24.1005 46.5787 24.4728 46.8277 24.8825 46.9975C25.2922 47.1673 25.7314 47.2548 26.1749 47.2548C26.6184 47.2548 27.0576 47.1673 27.4673 46.9975C27.877 46.8277 28.2493 46.5787 28.5627 46.2649L31.2395 43.586C31.553 43.2726 31.8017 42.9005 31.9713 42.491C32.141 42.0815 32.2283 41.6425 32.2283 41.1993C32.2283 40.756 32.141 40.317 31.9713 39.9075C31.8017 39.498 31.553 39.1259 31.2395 38.8125L29.2061 36.7791L46.7582 23.2791C46.9635 23.121 47.1297 22.9177 47.2438 22.6851C47.358 22.4524 47.417 22.1966 47.4163 21.9375V8.4375C47.4163 7.98995 47.2385 7.56073 46.922 7.24426C46.6056 6.92779 46.1764 6.75 45.7288 6.75ZM11.2806 45.5625L8.60381 42.8878L14.5101 36.9816L17.1847 39.6562L11.2806 45.5625ZM26.1749 43.875L10.2913 27.9935L12.9702 25.3125L28.8538 41.1982L26.1749 43.875ZM44.0413 21.1064L26.7993 34.3702L24.4916 32.0625L35.1102 21.4439C35.4266 21.1273 35.6042 20.6979 35.604 20.2503C35.6038 19.8027 35.4258 19.3735 35.1092 19.0571C34.7925 18.7408 34.3632 18.5632 33.9156 18.5634C33.468 18.5636 33.0388 18.7416 32.7224 19.0582L22.1038 29.6747L19.7983 27.367L33.0599 10.125H44.0413V21.1064Z" fill="#113C7B"/>
</g>
</svg>
