<svg width="55" height="54" viewBox="0 0 55 54" fill="none" xmlns="http://www.w3.org/2000/svg">
<g id="target, arrow, goal, aim ">
<path id="vector" d="M48.0835 26.9999C48.0835 38.1837 39.0173 47.2499 27.8335 47.2499C16.6497 47.2499 7.5835 38.1837 7.5835 26.9999C7.5835 15.8162 16.6497 6.74995 27.8335 6.74995M38.5686 30.3736C37.1352 34.9381 32.871 38.2491 27.8335 38.2491C21.6203 38.2491 16.5835 33.2123 16.5835 26.9991C16.5835 21.9617 19.8943 17.6977 24.4585 16.2641M32.3335 22.4999H39.4695C40.663 22.4999 41.8076 22.0258 42.6515 21.1819L48.5649 15.2685C48.8606 14.9728 48.7418 14.4694 48.3451 14.3371L42.4585 12.3749L40.4963 6.48838C40.3641 6.09169 39.8606 5.97284 39.5649 6.26851L33.6515 12.1819C32.8076 13.0258 32.3335 14.1704 32.3335 15.3639V22.4999ZM32.3335 22.4999L27.8335 26.9999" stroke="#113C7B" stroke-width="3" stroke-linecap="round" stroke-linejoin="round"/>
</g>
</svg>
