<svg xmlns="http://www.w3.org/2000/svg" xmlns:xlink="http://www.w3.org/1999/xlink" width="1200" zoomAndPan="magnify" viewBox="0 0 900 449.999984" height="600" preserveAspectRatio="xMidYMid meet" version="1.2"><defs><clipPath id="d5b453e16a"><path d="M 1 112 L 899 112 L 899 350 L 1 350 Z M 1 112 "/></clipPath><clipPath id="b72c3fef03"><path d="M 31.300781 26.71875 L 899.839844 114.878906 L 868.558594 423.042969 L 0.0234375 334.886719 Z M 31.300781 26.71875 "/></clipPath><clipPath id="0f33618ca1"><path d="M 31.300781 26.71875 L 899.839844 114.878906 L 868.558594 423.042969 L 0.0234375 334.886719 Z M 31.300781 26.71875 "/></clipPath></defs><g id="a42d630077"><g clip-rule="nonzero" clip-path="url(#d5b453e16a)"><g clip-rule="nonzero" clip-path="url(#b72c3fef03)"><g clip-rule="nonzero" clip-path="url(#0f33618ca1)"><path style=" stroke:none;fill-rule:nonzero;fill:#113c7b;fill-opacity:1;" d="M 890.140625 122.484375 L 890.148438 122.488281 M 890.140625 122.484375 C 888.742188 124.234375 887.375 125.332031 885.816406 127.003906 C 883.929688 129.027344 883.988281 129.75 883.296875 132.261719 C 882.945312 133.53125 882.199219 134.433594 881.816406 135.574219 C 881.269531 137.230469 881.640625 136.800781 881.738281 138.453125 C 881.808594 139.578125 882.203125 141.167969 881.710938 142.410156 C 881.191406 143.730469 879.730469 144.492188 879.308594 145.941406 C 878.511719 148.679688 880.839844 151.460938 879.78125 154.160156 C 878.945312 156.296875 876.71875 156.964844 874.691406 157.460938 C 871.527344 158.238281 866.8125 158.28125 864.65625 161.109375 C 863.765625 162.277344 864.261719 163.289062 863.664062 164.464844 C 862.855469 166.066406 860.929688 167.242188 859.714844 168.710938 C 858.25 170.472656 856.253906 172.070312 855.414062 174.222656 C 854.753906 175.910156 855.160156 177.824219 854.667969 179.558594 C 853.902344 182.261719 848.78125 186.332031 846.035156 186.988281 C 845.609375 187.089844 845.136719 187.097656 844.644531 187.046875 C 842.933594 186.875 840.945312 185.988281 839.515625 185.769531 C 837.691406 185.488281 836.082031 185.25 834.625 185.101562 C 829.023438 184.535156 825.628906 185.277344 820.664062 189.859375 C 814.316406 195.71875 803.898438 209.957031 793.4375 208.898438 C 792.695312 208.820312 791.953125 208.671875 791.214844 208.433594 C 791.09375 205.253906 795.058594 201.066406 793.03125 198.597656 C 792.363281 197.785156 791.460938 197.378906 790.425781 197.273438 C 786.171875 196.84375 779.707031 201.492188 778.347656 203.773438 C 775.847656 207.96875 777.304688 212.238281 772.546875 215.328125 C 767.492188 218.609375 763.476562 216.535156 761.421875 223.074219 C 759.746094 228.390625 761.089844 230.570312 754.816406 232.65625 C 750.53125 234.078125 746.414062 233.480469 741.976562 234.769531 C 735.601562 236.625 734.390625 239.039062 730.503906 243.847656 C 726.902344 248.296875 722.363281 249.472656 718.355469 253.21875 C 713.566406 257.6875 711.945312 262.195312 703.941406 263.523438 C 702.828125 263.707031 701.808594 263.699219 700.828125 263.601562 C 698.9375 263.410156 697.195312 262.867188 695.21875 262.667969 C 694.792969 262.625 694.359375 262.597656 693.910156 262.59375 C 689.347656 262.542969 685.09375 263.617188 680.410156 263.539062 C 674.363281 263.441406 669.601562 265.011719 665.617188 269.992188 C 663.589844 272.527344 662.59375 275.597656 660.058594 278.058594 C 655.113281 282.859375 652.980469 282.734375 651.4375 290.246094 C 649.722656 298.582031 651.710938 305.914062 641.125 307.21875 C 631.882812 308.359375 634.867188 306.460938 626.347656 309.6875 C 625.214844 316.582031 624.488281 329.566406 623.621094 338.109375 C 579.421875 338.792969 535.859375 339.007812 493.210938 338.84375 C 400.398438 338.492188 311.925781 336.339844 230.683594 333.269531 L 229.949219 340.507812 C 220.054688 339.503906 56.152344 332.226562 16.664062 328.21875 C 13.785156 327.925781 11.558594 327.648438 10.109375 327.394531 C 11.796875 319.859375 14.832031 318.566406 18.230469 318.910156 C 20.652344 319.15625 23.257812 320.230469 25.695312 320.480469 C 26.835938 320.59375 27.941406 320.527344 28.976562 320.105469 C 32.457031 318.683594 32.578125 319.140625 34.726562 316.574219 C 36.585938 314.351562 36.390625 310.859375 36.410156 307.425781 C 36.4375 302.617188 30.082031 301.570312 29.957031 296.394531 C 29.832031 291.015625 36.304688 288.980469 36.832031 283.941406 C 37.207031 280.339844 34.4375 279.503906 34.125 276.519531 C 33.324219 268.90625 42.75 264.414062 48.328125 261.546875 C 53.800781 258.730469 61.125 256.1875 59.019531 249.074219 C 57.984375 245.582031 53.523438 241.871094 55.738281 238.113281 C 56.960938 236.039062 58.769531 235.71875 60.738281 235.917969 C 62.421875 236.089844 64.21875 236.644531 65.859375 236.808594 C 67.199219 236.945312 68.429688 236.824219 69.410156 236.027344 C 71.929688 233.976562 69.53125 229.53125 70.628906 226.375 C 73.328125 218.632812 81.371094 223.195312 83.8125 217.964844 C 86.035156 213.207031 81.078125 210.878906 78.679688 207.386719 C 77.429688 205.5625 76.871094 203.421875 78.394531 200.457031 C 81.949219 193.519531 91.460938 197.128906 93.144531 189.679688 C 94.960938 181.652344 85.949219 182.46875 86.703125 174.953125 C 87.925781 162.777344 106.230469 161.3125 102.789062 148.105469 C 102.035156 145.230469 100.894531 142.605469 100.207031 139.945312 L 100.238281 139.9375 L 114.3125 141.367188 C 113.429688 144.472656 112.738281 147.378906 113.140625 149.488281 C 113.777344 152.800781 115.6875 154.738281 118.058594 154.976562 C 120.203125 155.195312 122.722656 154.027344 125.015625 151.234375 C 127.25 148.515625 127.285156 144.734375 127.742188 141.039062 C 127.839844 141.046875 237.324219 150.144531 245.109375 148.921875 C 253.765625 147.554688 251.414062 135.121094 247.390625 126.050781 C 246.957031 125.078125 247.730469 124.011719 248.789062 124.117188 L 248.796875 124.117188 C 255.46875 124.851562 261.8125 125.816406 267.789062 127.46875 C 267.054688 129.324219 266.480469 130.988281 265.949219 132.890625 C 273.542969 133.660156 315.261719 131.707031 368.292969 132.273438 C 386.417969 132.464844 402.535156 131.488281 422.769531 131.644531 C 453.976562 131.886719 489.917969 135.996094 521.234375 136.132812 C 602.554688 136.488281 674.1875 136.457031 683.890625 135.835938 C 683.925781 134.394531 684.175781 133.230469 684.59375 132.28125 C 707.394531 130.835938 849.371094 128.300781 859.203125 127.410156 C 859.933594 124.703125 860.820312 123.316406 861.050781 121.027344 C 864.367188 121.222656 886.25 122.089844 890.140625 122.484375 M 891.011719 113.984375 L 891.003906 113.980469 C 888.304688 113.707031 879.378906 113.300781 868.855469 112.832031 C 865.367188 112.675781 862.566406 112.554688 861.546875 112.492188 C 857.320312 112.25 853.605469 115.125 852.707031 119.167969 C 840.734375 119.59375 813.125 120.238281 786.253906 120.863281 C 744.210938 121.84375 696.558594 122.957031 684.054688 123.75 C 681.382812 123.917969 678.980469 125.320312 677.511719 127.492188 C 658.035156 127.878906 598.511719 127.921875 521.273438 127.582031 C 505.625 127.515625 488.390625 126.410156 471.722656 125.347656 C 455.359375 124.300781 438.4375 123.214844 422.835938 123.09375 C 412.542969 123.015625 403.335938 123.226562 394.429688 123.429688 C 385.601562 123.628906 377.265625 123.820312 368.382812 123.726562 C 338.273438 123.402344 312.195312 123.882812 293.152344 124.234375 C 286.613281 124.355469 280.535156 124.46875 275.808594 124.507812 C 275.699219 124.21875 275.578125 123.9375 275.441406 123.660156 C 274.359375 121.488281 272.40625 119.878906 270.066406 119.230469 C 264.371094 117.65625 258.101562 116.542969 249.734375 115.621094 C 246.140625 115.257812 242.675781 116.808594 240.609375 119.664062 C 238.539062 122.519531 238.144531 126.296875 239.578125 129.523438 C 241.769531 134.457031 242.46875 138.453125 242.464844 140.503906 C 229.320312 140.570312 156.941406 134.933594 128.46875 132.519531 C 125.433594 132.257812 122.613281 133.625 120.894531 135.914062 C 119.472656 134.195312 117.421875 133.089844 115.175781 132.863281 L 101.101562 131.433594 C 100.144531 131.335938 99.183594 131.402344 98.25 131.625 C 96.019531 132.15625 94.082031 133.566406 92.902344 135.53125 C 91.71875 137.496094 91.359375 139.855469 91.929688 142.074219 C 92.355469 143.730469 92.875 145.238281 93.382812 146.699219 C 93.8125 147.953125 94.222656 149.132812 94.515625 150.261719 C 94.890625 151.695312 95.003906 152.128906 89.949219 156.222656 C 85.375 159.933594 79.109375 165.011719 78.199219 174.101562 C 77.515625 180.90625 80.894531 184.984375 83.296875 187.285156 C 79.703125 188.34375 74.046875 190.199219 70.785156 196.554688 C 68.054688 201.882812 68.355469 207.449219 71.632812 212.222656 C 71.964844 212.707031 72.3125 213.164062 72.664062 213.589844 C 69.09375 214.753906 64.738281 217.308594 62.558594 223.558594 C 62.089844 224.898438 61.878906 226.214844 61.808594 227.433594 C 61.738281 227.425781 61.667969 227.421875 61.601562 227.414062 C 53.820312 226.621094 49.972656 231.058594 48.375 233.769531 C 44.292969 240.695312 48.101562 246.972656 49.933594 249.992188 C 50.082031 250.234375 50.261719 250.53125 50.425781 250.8125 C 49.359375 251.507812 47.640625 252.351562 46.492188 252.910156 C 45.785156 253.257812 45.089844 253.597656 44.417969 253.941406 L 43.746094 254.289062 C 37.414062 257.527344 24.238281 264.273438 25.621094 277.414062 C 25.898438 280.03125 26.875 281.996094 27.699219 283.339844 C 27.503906 283.554688 27.304688 283.769531 27.136719 283.953125 C 24.941406 286.328125 21.265625 290.300781 21.410156 296.597656 C 21.558594 302.785156 25.378906 306.386719 27.433594 308.324219 C 27.566406 308.445312 27.714844 308.589844 27.859375 308.726562 C 27.859375 309.613281 27.851562 310.714844 27.777344 311.40625 C 27.371094 311.558594 26.90625 311.730469 26.363281 311.945312 C 25.734375 311.847656 24.917969 311.632812 24.125 311.425781 C 22.644531 311.035156 20.96875 310.59375 19.097656 310.40625 C 14.003906 309.886719 4.980469 311.164062 1.769531 325.53125 C 1.257812 327.808594 1.703125 330.199219 3 332.140625 C 4.296875 334.085938 6.335938 335.414062 8.636719 335.816406 C 10.269531 336.101562 12.613281 336.398438 15.800781 336.722656 C 42.332031 339.414062 124.300781 343.558594 178.542969 346.300781 C 204.007812 347.585938 226 348.699219 229.085938 349.011719 C 233.53125 349.460938 237.527344 346.417969 238.347656 342.109375 C 325.078125 345.300781 410.773438 347.082031 493.179688 347.394531 C 537.273438 347.5625 581.207031 347.3125 623.75 346.65625 C 628.085938 346.589844 631.6875 343.285156 632.125 338.972656 C 632.441406 335.832031 632.734375 332.234375 633.042969 328.421875 C 633.382812 324.179688 633.734375 319.847656 634.121094 316.210938 C 634.300781 316.199219 634.484375 316.199219 634.699219 316.199219 C 636.105469 316.195312 638.230469 316.191406 642.171875 315.703125 C 657.1875 313.851562 658.484375 302.46875 659.183594 296.355469 C 659.355469 294.820312 659.523438 293.367188 659.8125 291.96875 C 660.199219 290.074219 661.101562 288.53125 662.511719 287.332031 C 663.457031 286.53125 664.632812 285.53125 666.011719 284.191406 C 668.339844 281.929688 669.722656 279.546875 670.835938 277.632812 C 671.378906 276.695312 671.847656 275.886719 672.292969 275.328125 C 674.023438 273.171875 675.804688 272.011719 680.265625 272.085938 C 683.207031 272.136719 685.90625 271.828125 688.289062 271.558594 C 690.253906 271.332031 692.105469 271.121094 693.816406 271.140625 C 694.003906 271.140625 694.183594 271.15625 694.355469 271.171875 C 694.941406 271.230469 695.621094 271.367188 696.40625 271.523438 C 697.441406 271.734375 698.617188 271.96875 699.964844 272.105469 C 701.828125 272.296875 703.589844 272.246094 705.34375 271.953125 C 714.265625 270.476562 718.285156 265.941406 721.511719 262.300781 C 722.40625 261.292969 723.246094 260.34375 724.1875 259.464844 C 725.300781 258.425781 726.652344 257.582031 728.214844 256.609375 C 730.875 254.949219 734.1875 252.882812 737.148438 249.222656 C 737.65625 248.597656 738.117188 248.011719 738.550781 247.460938 C 741.191406 244.113281 741.40625 243.839844 744.363281 242.980469 C 745.703125 242.589844 747.21875 242.457031 748.972656 242.300781 C 751.492188 242.074219 754.34375 241.820312 757.511719 240.769531 C 766.234375 237.871094 767.953125 232.925781 768.964844 228.109375 C 769.132812 227.320312 769.289062 226.570312 769.535156 225.765625 C 769.703125 225.714844 769.871094 225.664062 770.019531 225.621094 C 771.75 225.109375 774.367188 224.339844 777.203125 222.5 C 781.472656 219.726562 783.265625 216.21875 784.207031 213.328125 C 785.257812 214.828125 786.78125 215.988281 788.609375 216.574219 C 789.898438 216.988281 791.230469 217.265625 792.574219 217.402344 C 805.023438 218.664062 815.054688 208.054688 822.378906 200.308594 C 823.902344 198.695312 825.34375 197.175781 826.460938 196.140625 C 829.542969 193.300781 830.441406 193.269531 833.761719 193.609375 C 834.964844 193.730469 836.359375 193.933594 838.214844 194.21875 C 838.292969 194.238281 838.792969 194.390625 839.15625 194.503906 C 840.417969 194.890625 841.988281 195.371094 843.78125 195.550781 C 845.265625 195.703125 846.6875 195.617188 848.015625 195.300781 C 852.859375 194.148438 861.058594 188.351562 862.890625 181.894531 C 863.386719 180.144531 863.457031 178.613281 863.507812 177.496094 C 863.511719 177.40625 863.515625 177.320312 863.515625 177.234375 C 863.800781 176.894531 864.238281 176.429688 864.5625 176.089844 C 865.089844 175.527344 865.691406 174.890625 866.292969 174.167969 C 866.40625 174.039062 866.808594 173.675781 867.101562 173.410156 C 868.359375 172.273438 870.082031 170.714844 871.289062 168.332031 C 871.582031 167.753906 871.804688 167.195312 871.972656 166.671875 C 872.558594 166.554688 873.199219 166.441406 873.679688 166.359375 C 874.667969 166.191406 875.683594 166.019531 876.730469 165.761719 C 879.058594 165.191406 885.238281 163.675781 887.742188 157.277344 C 889.140625 153.703125 888.535156 150.433594 888.039062 148.410156 C 888.601562 147.671875 889.195312 146.726562 889.660156 145.550781 C 890.824219 142.601562 890.496094 139.828125 890.316406 138.335938 C 890.300781 138.191406 890.28125 138.046875 890.269531 137.917969 C 890.265625 137.847656 890.261719 137.777344 890.257812 137.710938 C 890.65625 136.9375 891.164062 135.878906 891.535156 134.535156 C 891.65625 134.105469 891.753906 133.71875 891.847656 133.363281 C 891.882812 133.21875 891.917969 133.085938 891.949219 132.960938 C 891.984375 132.921875 892.027344 132.878906 892.074219 132.828125 C 892.570312 132.292969 893.050781 131.828125 893.515625 131.371094 C 894.453125 130.457031 895.507812 129.425781 896.625 128.058594 C 897.730469 126.78125 898.464844 125.160156 898.648438 123.351562 C 899.125 118.652344 895.710938 114.460938 891.011719 113.984375 Z M 889.277344 130.992188 L 889.285156 130.992188 Z M 889.277344 130.992188 "/></g></g></g></g></svg>