<svg width="29" height="29" viewBox="0 0 29 29" fill="none" xmlns="http://www.w3.org/2000/svg">
<circle cx="14.6281" cy="14.2312" r="14.2312" fill="currentColor"/>
<g clip-path="url(#clip0_42814_12951)">
<path d="M22.397 9C21.797 9.3 21.197 9.4 20.497 9.5C21.197 9.1 21.697 8.5 21.897 7.7C21.297 8.1 20.597 8.3 19.797 8.5C19.197 7.9 18.297 7.5 17.397 7.5C15.697 7.5 14.197 9 14.197 10.8C14.197 11.1 14.197 11.3 14.297 11.5C11.597 11.4 9.09697 10.1 7.49697 8.1C7.19697 8.6 7.09697 9.1 7.09697 9.8C7.09697 10.9 7.69697 11.9 8.59697 12.5C8.09697 12.5 7.59697 12.3 7.09697 12.1C7.09697 13.7 8.19697 15 9.69697 15.3C9.39697 15.4 9.09697 15.4 8.79697 15.4C8.59697 15.4 8.39697 15.4 8.19697 15.3C8.59697 16.6 9.79697 17.6 11.297 17.6C10.197 18.5 8.79697 19 7.19697 19H6.39697C7.89697 19.9 9.59697 20.5 11.397 20.5C17.397 20.5 20.697 15.5 20.697 11.2V10.8C21.397 10.3 21.997 9.7 22.397 9Z" fill="white"/>
</g>
<defs>
<clipPath id="clip0_42814_12951">
<rect width="16" height="16" fill="white" transform="translate(6.39697 6)"/>
</clipPath>
</defs>
</svg>
