<svg xmlns="http://www.w3.org/2000/svg" xmlns:xlink="http://www.w3.org/1999/xlink" width="1200" zoomAndPan="magnify" viewBox="0 0 900 899.99999" height="1200" preserveAspectRatio="xMidYMid meet" version="1.2"><defs><clipPath id="b7b745bf75"><path d="M 792 275 L 871.953125 275 L 871.953125 535 L 792 535 Z M 792 275 "/></clipPath><clipPath id="dd1dd43fb4"><path d="M 28.203125 275 L 108 275 L 108 535 L 28.203125 535 Z M 28.203125 275 "/></clipPath></defs><g id="de4887fe09"><path style=" stroke:none;fill-rule:nonzero;fill:#113c7b;fill-opacity:1;" d="M 264.390625 742.671875 C 282.679688 742.671875 300.929688 742.671875 319.148438 742.703125 L 373.273438 742.730469 C 373.285156 742.730469 373.285156 742.730469 373.300781 742.730469 L 599.246094 742.914062 C 645.570312 742.972656 691.609375 742.972656 737.636719 742.871094 C 750.554688 742.84375 752.765625 740.53125 752.792969 740.519531 C 752.808594 740.503906 754.777344 737.9375 753.574219 725.699219 C 750.722656 697.03125 738.757812 669.28125 718.960938 645.460938 C 697.765625 619.921875 674.539062 589.878906 667.40625 556.34375 C 652.574219 486.679688 643.144531 417.046875 633.21875 339.785156 C 632.554688 334.59375 631.757812 329.503906 630.824219 324.542969 C 615.808594 243.960938 543.707031 185.585938 459.3125 185.585938 C 459.167969 185.585938 459.042969 185.585938 458.898438 185.585938 L 453.964844 185.597656 C 365.800781 185.8125 291.371094 250.398438 280.824219 335.84375 L 264.433594 336.226562 L 280.554688 338.082031 C 278.355469 357.152344 276.3125 376.253906 274.257812 395.339844 C 271.082031 424.875 267.890625 454.421875 264.203125 483.902344 C 257.9375 534.082031 244.027344 598.511719 191.761719 651.742188 C 179.9375 663.820312 169.941406 683.984375 162.878906 710.101562 C 160.328125 719.488281 161.433594 727.925781 165.984375 733.851562 C 170.410156 739.625 178.023438 742.785156 187.410156 742.785156 C 187.480469 742.785156 187.523438 742.785156 187.582031 742.785156 C 213.203125 742.703125 238.824219 742.671875 264.390625 742.671875 Z M 658.585938 775.382812 C 638.835938 775.382812 619.070312 775.382812 599.230469 775.371094 L 319.121094 775.144531 C 275.492188 775.128906 231.578125 775.085938 187.695312 775.242188 C 187.609375 775.242188 187.507812 775.242188 187.410156 775.242188 C 167.699219 775.242188 150.957031 767.570312 140.25 753.632812 C 129.542969 739.679688 126.382812 720.738281 131.542969 701.609375 C 140.191406 669.707031 152.65625 645.277344 168.609375 629.027344 C 204.085938 592.898438 223.636719 546.898438 232.019531 479.875 C 235.675781 450.582031 238.839844 421.230469 241.984375 391.878906 C 244.042969 372.695312 246.113281 353.523438 248.308594 334.367188 L 248.621094 331.757812 C 261.171875 230.222656 349.40625 153.382812 453.867188 153.15625 L 458.816406 153.140625 C 458.972656 153.140625 459.140625 153.140625 459.296875 153.140625 C 559.332031 153.140625 644.832031 222.648438 662.726562 318.585938 C 663.761719 324.144531 664.65625 329.84375 665.394531 335.65625 C 675.234375 412.195312 684.5625 481.121094 699.140625 549.59375 C 704.46875 574.664062 723.824219 600.511719 743.917969 624.730469 C 767.867188 653.527344 782.371094 687.34375 785.859375 722.511719 C 787.105469 735.015625 787.207031 750.839844 776.871094 762.28125 C 766.492188 773.78125 750.480469 775.285156 737.707031 775.3125 C 711.363281 775.371094 684.988281 775.382812 658.585938 775.382812 "/><path style=" stroke:none;fill-rule:nonzero;fill:#113c7b;fill-opacity:1;" d="M 395.433594 775.1875 C 414.988281 825.847656 445.941406 825.222656 456.914062 825.082031 C 485.628906 824.585938 505.621094 808.265625 517.644531 775.34375 Z M 455.597656 857.554688 C 421.566406 857.554688 377.667969 840.808594 357.5625 763.007812 C 356.3125 758.140625 357.375 752.980469 360.453125 749.011719 C 363.53125 745.039062 368.265625 742.730469 373.273438 742.730469 C 373.285156 742.730469 373.285156 742.730469 373.300781 742.730469 L 539.3125 742.898438 C 544.257812 742.898438 548.9375 745.167969 552.015625 749.054688 C 555.078125 752.925781 556.210938 758 555.09375 762.820312 C 537.070312 840 492.078125 856.914062 457.496094 857.539062 C 456.871094 857.554688 456.234375 857.554688 455.597656 857.554688 "/><path style=" stroke:none;fill-rule:nonzero;fill:#113c7b;fill-opacity:1;" d="M 456.292969 74.886719 C 434.710938 74.886719 417.171875 92.457031 417.171875 114.023438 C 417.171875 135.589844 434.710938 153.140625 456.292969 153.140625 C 477.859375 153.140625 495.410156 135.589844 495.410156 114.023438 C 495.410156 92.457031 477.859375 74.886719 456.292969 74.886719 Z M 456.292969 185.585938 C 416.832031 185.585938 384.714844 153.484375 384.714844 114.023438 C 384.714844 74.546875 416.832031 42.445312 456.292969 42.445312 C 495.753906 42.445312 527.855469 74.546875 527.855469 114.023438 C 527.855469 153.484375 495.753906 185.585938 456.292969 185.585938 "/><path style=" stroke:none;fill-rule:nonzero;fill:#113c7b;fill-opacity:1;" d="M 361.871094 395.351562 C 352.910156 395.351562 345.652344 388.105469 345.652344 379.132812 L 345.652344 358.132812 C 345.652344 297.132812 395.277344 247.492188 456.292969 247.492188 C 465.253906 247.492188 472.511719 254.75 472.511719 263.726562 C 472.511719 272.6875 465.253906 279.949219 456.292969 279.949219 C 413.171875 279.949219 378.09375 315.027344 378.09375 358.132812 L 378.09375 379.132812 C 378.09375 388.105469 370.832031 395.351562 361.871094 395.351562 "/><path style=" stroke:none;fill-rule:nonzero;fill:#113c7b;fill-opacity:1;" d="M 738.984375 496.734375 C 734.84375 496.734375 730.6875 495.144531 727.511719 491.984375 C 721.171875 485.644531 721.171875 475.378906 727.511719 469.042969 C 744.582031 451.96875 753.96875 429.296875 753.96875 405.164062 C 753.96875 381.03125 744.582031 358.34375 727.511719 341.285156 C 721.171875 334.949219 721.171875 324.667969 727.511719 318.332031 C 733.851562 311.992188 744.117188 311.992188 750.453125 318.332031 C 773.652344 341.527344 786.425781 372.367188 786.425781 405.164062 C 786.425781 437.960938 773.652344 468.800781 750.453125 491.984375 C 747.292969 495.144531 743.136719 496.734375 738.984375 496.734375 "/><g clip-rule="nonzero" clip-path="url(#b7b745bf75)"><path style=" stroke:none;fill-rule:nonzero;fill:#113c7b;fill-opacity:1;" d="M 808.800781 534.40625 C 804.660156 534.40625 800.507812 532.835938 797.332031 529.65625 C 790.992188 523.320312 790.992188 513.054688 797.332031 506.714844 C 824.457031 479.589844 839.398438 443.535156 839.398438 405.164062 C 839.398438 366.808594 824.457031 330.738281 797.332031 303.613281 C 790.992188 297.273438 790.992188 287.007812 797.332031 280.671875 C 803.667969 274.332031 813.933594 274.332031 820.285156 280.671875 C 853.535156 313.921875 871.84375 358.132812 871.84375 405.164062 C 871.84375 452.195312 853.535156 496.394531 820.285156 529.65625 C 817.109375 532.835938 812.957031 534.40625 808.800781 534.40625 "/></g><path style=" stroke:none;fill-rule:nonzero;fill:#113c7b;fill-opacity:1;" d="M 161.007812 496.734375 C 156.855469 496.734375 152.699219 495.144531 149.539062 491.984375 C 126.339844 468.800781 113.566406 437.960938 113.566406 405.164062 C 113.566406 372.367188 126.339844 341.527344 149.539062 318.332031 C 155.875 311.992188 166.140625 311.992188 172.480469 318.332031 C 178.816406 324.667969 178.816406 334.949219 172.480469 341.285156 C 155.40625 358.34375 146.019531 381.03125 146.019531 405.164062 C 146.019531 429.296875 155.40625 451.96875 172.480469 469.042969 C 178.816406 475.378906 178.816406 485.644531 172.480469 491.984375 C 169.304688 495.144531 165.148438 496.734375 161.007812 496.734375 "/><g clip-rule="nonzero" clip-path="url(#dd1dd43fb4)"><path style=" stroke:none;fill-rule:nonzero;fill:#113c7b;fill-opacity:1;" d="M 91.191406 534.40625 C 87.035156 534.40625 82.878906 532.835938 79.703125 529.65625 C 46.453125 496.394531 28.148438 452.195312 28.148438 405.164062 C 28.148438 358.132812 46.453125 313.921875 79.703125 280.671875 C 86.058594 274.332031 96.324219 274.332031 102.660156 280.671875 C 109 287.007812 109 297.273438 102.660156 303.613281 C 75.535156 330.738281 60.589844 366.808594 60.589844 405.164062 C 60.589844 443.535156 75.535156 479.589844 102.660156 506.714844 C 109 513.054688 109 523.320312 102.660156 529.65625 C 99.484375 532.835938 95.332031 534.40625 91.191406 534.40625 "/></g></g></svg>