<svg xmlns="http://www.w3.org/2000/svg" xmlns:xlink="http://www.w3.org/1999/xlink" width="1200" zoomAndPan="magnify" viewBox="0 0 900 899.99999" height="1200" preserveAspectRatio="xMidYMid meet" version="1.2"><defs><clipPath id="e7bfd1368d"><path d="M 384 655 L 525 655 L 525 736.742188 L 384 736.742188 Z M 384 655 "/></clipPath><clipPath id="7bc10b39c7"><path d="M 690 327 L 746.234375 327 L 746.234375 510 L 690 510 Z M 690 327 "/></clipPath><clipPath id="3e6812a5a9"><path d="M 153.734375 327 L 210 327 L 210 510 L 153.734375 510 Z M 153.734375 327 "/></clipPath></defs><g id="ceb18bc963"><path style=" stroke:none;fill-rule:nonzero;fill:#113c7b;fill-opacity:1;" d="M 319.628906 655.566406 C 332.476562 655.566406 345.292969 655.566406 358.089844 655.585938 L 396.105469 655.605469 C 396.113281 655.605469 396.113281 655.605469 396.125 655.605469 L 554.828125 655.734375 C 587.363281 655.773438 619.703125 655.773438 652.03125 655.707031 C 661.101562 655.683594 662.65625 654.0625 662.675781 654.050781 C 662.6875 654.042969 664.070312 652.238281 663.222656 643.644531 C 661.222656 623.507812 652.816406 604.015625 638.914062 587.285156 C 624.023438 569.347656 607.710938 548.246094 602.703125 524.691406 C 592.285156 475.761719 585.660156 426.851562 578.6875 372.582031 C 578.222656 368.9375 577.664062 365.359375 577.007812 361.875 C 566.460938 305.277344 515.816406 264.273438 456.539062 264.273438 C 456.4375 264.273438 456.347656 264.273438 456.25 264.273438 L 452.785156 264.285156 C 390.855469 264.433594 338.582031 309.796875 331.171875 369.8125 L 319.65625 370.082031 L 330.980469 371.386719 C 329.4375 384.78125 328.003906 398.195312 326.558594 411.601562 C 324.328125 432.347656 322.085938 453.101562 319.5 473.808594 C 315.097656 509.054688 305.324219 554.308594 268.617188 591.695312 C 260.308594 600.183594 253.289062 614.34375 248.328125 632.6875 C 246.535156 639.28125 247.3125 645.207031 250.511719 649.371094 C 253.617188 653.425781 258.964844 655.644531 265.558594 655.644531 C 265.609375 655.644531 265.636719 655.644531 265.679688 655.644531 C 283.675781 655.585938 301.671875 655.566406 319.628906 655.566406 Z M 596.507812 678.542969 C 582.632812 678.542969 568.75 678.542969 554.816406 678.53125 L 358.070312 678.371094 C 327.425781 678.363281 296.582031 678.332031 265.757812 678.441406 C 265.699219 678.441406 265.628906 678.441406 265.558594 678.441406 C 251.714844 678.441406 239.953125 673.054688 232.433594 663.265625 C 224.914062 653.464844 222.695312 640.160156 226.320312 626.722656 C 232.394531 604.316406 241.148438 587.15625 252.351562 575.742188 C 277.269531 550.367188 291.003906 518.058594 296.890625 470.980469 C 299.460938 450.402344 301.679688 429.789062 303.890625 409.171875 C 305.335938 395.699219 306.789062 382.230469 308.332031 368.777344 L 308.554688 366.945312 C 317.367188 295.625 379.34375 241.65625 452.714844 241.496094 L 456.191406 241.488281 C 456.300781 241.488281 456.417969 241.488281 456.527344 241.488281 C 526.792969 241.488281 586.847656 290.308594 599.414062 357.691406 C 600.140625 361.597656 600.769531 365.601562 601.285156 369.683594 C 608.199219 423.445312 614.753906 471.855469 624.988281 519.949219 C 628.734375 537.558594 642.328125 555.714844 656.441406 572.722656 C 673.261719 592.953125 683.453125 616.703125 685.902344 641.402344 C 686.777344 650.1875 686.847656 661.300781 679.585938 669.339844 C 672.296875 677.417969 661.054688 678.472656 652.078125 678.492188 C 633.574219 678.53125 615.050781 678.542969 596.507812 678.542969 "/><g clip-rule="nonzero" clip-path="url(#e7bfd1368d)"><path style=" stroke:none;fill-rule:nonzero;fill:#113c7b;fill-opacity:1;" d="M 411.671875 678.402344 C 425.40625 713.988281 447.148438 713.550781 454.855469 713.449219 C 475.023438 713.101562 489.066406 701.636719 497.511719 678.511719 Z M 453.929688 736.257812 C 430.027344 736.257812 399.191406 724.496094 385.070312 669.847656 C 384.195312 666.429688 384.941406 662.804688 387.101562 660.019531 C 389.261719 657.230469 392.589844 655.605469 396.105469 655.605469 C 396.113281 655.605469 396.113281 655.605469 396.125 655.605469 L 512.730469 655.726562 C 516.203125 655.726562 519.492188 657.320312 521.652344 660.046875 C 523.804688 662.765625 524.601562 666.332031 523.8125 669.71875 C 511.15625 723.925781 479.554688 735.808594 455.261719 736.246094 C 454.824219 736.257812 454.378906 736.257812 453.929688 736.257812 "/></g><path style=" stroke:none;fill-rule:nonzero;fill:#113c7b;fill-opacity:1;" d="M 454.417969 186.523438 C 439.257812 186.523438 426.9375 198.863281 426.9375 214.007812 C 426.9375 229.15625 439.257812 241.488281 454.417969 241.488281 C 469.566406 241.488281 481.894531 229.15625 481.894531 214.007812 C 481.894531 198.863281 469.566406 186.523438 454.417969 186.523438 Z M 454.417969 264.273438 C 426.699219 264.273438 404.140625 241.726562 404.140625 214.007812 C 404.140625 186.28125 426.699219 163.734375 454.417969 163.734375 C 482.132812 163.734375 504.683594 186.28125 504.683594 214.007812 C 504.683594 241.726562 482.132812 264.273438 454.417969 264.273438 "/><path style=" stroke:none;fill-rule:nonzero;fill:#113c7b;fill-opacity:1;" d="M 388.097656 411.613281 C 381.804688 411.613281 376.703125 406.523438 376.703125 400.21875 L 376.703125 385.46875 C 376.703125 342.625 411.5625 307.757812 454.417969 307.757812 C 460.710938 307.757812 465.808594 312.855469 465.808594 319.160156 C 465.808594 325.453125 460.710938 330.554688 454.417969 330.554688 C 424.128906 330.554688 399.492188 355.191406 399.492188 385.46875 L 399.492188 400.21875 C 399.492188 406.523438 394.390625 411.613281 388.097656 411.613281 "/><path style=" stroke:none;fill-rule:nonzero;fill:#113c7b;fill-opacity:1;" d="M 652.976562 482.820312 C 650.066406 482.820312 647.148438 481.707031 644.917969 479.484375 C 640.46875 475.035156 640.46875 467.824219 644.917969 463.371094 C 656.910156 451.378906 663.503906 435.453125 663.503906 418.503906 C 663.503906 401.554688 656.910156 385.617188 644.917969 373.636719 C 640.46875 369.1875 640.46875 361.964844 644.917969 357.511719 C 649.371094 353.0625 656.582031 353.0625 661.03125 357.511719 C 677.328125 373.808594 686.300781 395.46875 686.300781 418.503906 C 686.300781 441.539062 677.328125 463.203125 661.03125 479.484375 C 658.8125 481.707031 655.894531 482.820312 652.976562 482.820312 "/><g clip-rule="nonzero" clip-path="url(#7bc10b39c7)"><path style=" stroke:none;fill-rule:nonzero;fill:#113c7b;fill-opacity:1;" d="M 702.015625 509.285156 C 699.109375 509.285156 696.1875 508.179688 693.957031 505.945312 C 689.507812 501.496094 689.507812 494.285156 693.957031 489.832031 C 713.011719 470.78125 723.507812 445.453125 723.507812 418.503906 C 723.507812 391.5625 713.011719 366.226562 693.957031 347.175781 C 689.507812 342.722656 689.507812 335.511719 693.957031 331.0625 C 698.410156 326.609375 705.621094 326.609375 710.082031 331.0625 C 733.4375 354.417969 746.292969 385.46875 746.292969 418.503906 C 746.292969 451.539062 733.4375 482.582031 710.082031 505.945312 C 707.851562 508.179688 704.933594 509.285156 702.015625 509.285156 "/></g><path style=" stroke:none;fill-rule:nonzero;fill:#113c7b;fill-opacity:1;" d="M 247.015625 482.820312 C 244.097656 482.820312 241.179688 481.707031 238.957031 479.484375 C 222.664062 463.203125 213.691406 441.539062 213.691406 418.503906 C 213.691406 395.46875 222.664062 373.808594 238.957031 357.511719 C 243.410156 353.0625 250.621094 353.0625 255.070312 357.511719 C 259.523438 361.964844 259.523438 369.1875 255.070312 373.636719 C 243.082031 385.617188 236.488281 401.554688 236.488281 418.503906 C 236.488281 435.453125 243.082031 451.378906 255.070312 463.371094 C 259.523438 467.824219 259.523438 475.035156 255.070312 479.484375 C 252.839844 481.707031 249.921875 482.820312 247.015625 482.820312 "/><g clip-rule="nonzero" clip-path="url(#3e6812a5a9)"><path style=" stroke:none;fill-rule:nonzero;fill:#113c7b;fill-opacity:1;" d="M 197.976562 509.285156 C 195.054688 509.285156 192.136719 508.179688 189.90625 505.945312 C 166.554688 482.582031 153.695312 451.539062 153.695312 418.503906 C 153.695312 385.46875 166.554688 354.417969 189.90625 331.0625 C 194.371094 326.609375 201.578125 326.609375 206.03125 331.0625 C 210.484375 335.511719 210.484375 342.722656 206.03125 347.175781 C 186.980469 366.226562 176.484375 391.5625 176.484375 418.503906 C 176.484375 445.453125 186.980469 470.78125 206.03125 489.832031 C 210.484375 494.285156 210.484375 501.496094 206.03125 505.945312 C 203.800781 508.179688 200.882812 509.285156 197.976562 509.285156 "/></g></g></svg>