<svg xmlns="http://www.w3.org/2000/svg" xmlns:xlink="http://www.w3.org/1999/xlink" width="1200" zoomAndPan="magnify" viewBox="0 0 900 899.99999" height="1200" preserveAspectRatio="xMidYMid meet" version="1.2"><defs><clipPath id="6547969884"><path d="M 0 183 L 671 183 L 671 839.507812 L 0 839.507812 Z M 0 183 "/></clipPath></defs><g id="a022990919"><g clip-rule="nonzero" clip-path="url(#6547969884)"><path style=" stroke:none;fill-rule:nonzero;fill:#113c7b;fill-opacity:1;" d="M 166.011719 820.035156 C 163.917969 825.617188 165.316406 831.894531 170.199219 836.078125 C 172.988281 838.171875 175.777344 839.566406 179.265625 839.566406 C 182.054688 839.566406 184.148438 838.867188 186.242188 837.472656 L 423.402344 693.085938 L 609.640625 693.085938 C 643.820312 693.085938 670.328125 665.183594 670.328125 628.914062 L 670.328125 556.371094 C 663.351562 560.554688 653.585938 567.53125 642.425781 573.109375 L 642.425781 628.914062 C 642.425781 649.140625 627.777344 665.183594 609.640625 665.183594 L 419.214844 665.183594 C 416.425781 665.183594 414.332031 665.882812 412.242188 667.277344 L 208.5625 791.4375 L 252.507812 684.015625 C 254.597656 679.832031 253.902344 674.949219 251.109375 670.765625 C 248.320312 666.578125 244.136719 664.488281 239.253906 664.488281 L 60.683594 664.488281 C 42.550781 664.488281 27.902344 649.140625 27.902344 628.914062 L 27.902344 252.246094 C 27.902344 231.320312 43.945312 211.789062 61.382812 211.789062 L 378.0625 211.789062 C 378.757812 202.722656 380.851562 192.957031 382.945312 183.886719 L 61.382812 183.886719 C 28.597656 183.886719 0 215.976562 0 252.246094 L 0 628.914062 C 0 664.488281 26.507812 692.386719 60.683594 692.386719 L 218.328125 692.386719 Z M 166.011719 820.035156 "/></g><path style=" stroke:none;fill-rule:nonzero;fill:#113c7b;fill-opacity:1;" d="M 883.074219 238.992188 C 882.375 238.296875 881.679688 236.902344 880.980469 236.203125 L 844.011719 199.234375 C 826.574219 181.796875 801.460938 176.214844 778.445312 183.886719 C 765.191406 188.074219 751.238281 184.585938 741.472656 175.519531 C 741.472656 175.519531 740.777344 174.820312 740.777344 174.820312 L 671.023438 112.742188 C 620.105469 67.402344 548.257812 60.425781 491.0625 90.417969 C 491.0625 90.417969 491.0625 90.417969 491.0625 89.722656 C 472.226562 70.886719 441.535156 70.886719 422.703125 89.722656 C 403.871094 108.554688 403.871094 139.246094 422.703125 158.078125 C 422.703125 158.078125 422.703125 158.078125 423.402344 158.078125 C 393.40625 215.277344 400.382812 287.820312 445.722656 338.042969 L 507.800781 407.796875 C 507.800781 407.796875 508.5 408.492188 508.5 408.492188 C 518.265625 418.257812 521.753906 432.210938 516.871094 445.460938 C 509.195312 468.480469 514.777344 493.589844 532.214844 511.03125 L 569.183594 548 C 569.882812 548.695312 570.578125 549.394531 571.976562 550.089844 C 572.671875 550.789062 573.371094 552.183594 574.066406 552.882812 C 578.949219 557.765625 584.53125 559.160156 591.503906 559.160156 C 624.289062 559.160156 680.089844 515.914062 720.546875 480.339844 C 717.0625 479.640625 713.574219 478.945312 710.085938 478.246094 C 703.109375 476.152344 696.832031 472.664062 691.949219 468.480469 C 642.425781 511.03125 606.851562 529.863281 594.296875 531.257812 C 596.386719 516.609375 620.800781 472.664062 677.300781 410.585938 C 679.394531 420.351562 684.277344 429.417969 691.949219 436.394531 C 702.414062 446.855469 716.363281 452.4375 731.011719 452.4375 C 745.660156 452.4375 759.609375 446.855469 770.074219 436.394531 C 780.535156 425.929688 786.117188 411.980469 786.117188 397.332031 C 786.117188 382.683594 780.535156 368.734375 770.074219 358.269531 C 763.097656 351.296875 754.03125 346.414062 744.265625 343.621094 C 806.34375 287.121094 850.289062 262.710938 864.9375 260.617188 C 862.84375 273.171875 844.011719 308.046875 802.160156 358.269531 C 807.042969 363.152344 809.832031 369.429688 811.925781 376.40625 C 812.621094 379.894531 813.320312 383.382812 814.019531 386.871094 C 857.265625 337.34375 911.671875 265.5 885.863281 239.691406 C 885.164062 240.386719 883.769531 239.691406 883.074219 238.992188 Z M 442.234375 109.949219 C 448.511719 103.671875 458.976562 102.277344 466.648438 106.460938 C 461.765625 110.648438 456.183594 114.832031 452 119.714844 C 447.117188 124.597656 442.929688 129.480469 438.746094 134.363281 C 434.5625 125.992188 435.257812 116.226562 442.234375 109.949219 Z M 571.976562 512.425781 L 551.746094 492.195312 C 541.980469 482.429688 538.492188 468.480469 543.375 455.226562 C 551.046875 432.207031 545.46875 407.097656 528.03125 390.355469 L 465.949219 320.605469 C 419.214844 268.289062 422.003906 188.769531 471.53125 139.246094 C 521.054688 89.722656 600.574219 87.628906 652.886719 133.667969 L 722.640625 195.746094 C 740.078125 212.488281 764.492188 218.765625 787.511719 211.09375 C 800.765625 206.90625 814.714844 210.394531 824.480469 219.460938 L 844.710938 239.691406 C 788.210938 261.3125 702.414062 345.714844 690.554688 358.269531 C 678 370.828125 593.597656 455.925781 571.976562 512.425781 Z M 758.914062 398.726562 C 758.914062 406.402344 756.121094 412.679688 750.542969 418.257812 C 740.078125 428.722656 721.945312 428.722656 711.480469 418.257812 C 706.597656 413.375 703.109375 406.402344 703.109375 398.726562 C 703.109375 391.753906 705.902344 384.777344 711.480469 379.195312 C 717.0625 373.617188 723.339844 370.828125 731.011719 370.828125 C 738.683594 370.828125 744.960938 373.617188 750.542969 379.195312 C 756.121094 384.777344 758.914062 391.753906 758.914062 398.726562 Z M 758.914062 398.726562 "/><path style=" stroke:none;fill-rule:nonzero;fill:#113c7b;fill-opacity:1;" d="M 375.96875 276.660156 C 370.386719 271.078125 362.714844 267.59375 355.042969 267.59375 L 299.9375 267.59375 C 292.265625 267.59375 284.59375 271.078125 279.011719 276.660156 C 273.433594 282.238281 271.339844 289.914062 271.339844 297.585938 L 283.894531 464.992188 C 285.289062 479.640625 297.148438 490.800781 311.796875 490.800781 L 342.488281 490.800781 C 357.136719 490.800781 369.691406 479.640625 370.386719 464.992188 L 382.945312 297.585938 C 384.339844 289.914062 381.550781 282.238281 375.96875 276.660156 Z M 343.183594 462.898438 L 311.796875 462.898438 L 299.9375 295.492188 L 355.042969 295.492188 Z M 343.183594 462.898438 "/><path style=" stroke:none;fill-rule:nonzero;fill:#113c7b;fill-opacity:1;" d="M 327.839844 504.753906 C 300.636719 504.753906 279.011719 526.375 279.011719 553.578125 C 279.011719 580.78125 300.636719 602.40625 327.839844 602.40625 C 355.042969 602.40625 376.667969 580.78125 376.667969 553.578125 C 376.667969 526.375 355.042969 504.753906 327.839844 504.753906 Z M 327.839844 574.503906 C 315.980469 574.503906 306.914062 565.4375 306.914062 553.578125 C 306.914062 541.722656 315.980469 532.652344 327.839844 532.652344 C 339.695312 532.652344 348.765625 541.722656 348.765625 553.578125 C 348.765625 565.4375 339.695312 574.503906 327.839844 574.503906 Z M 327.839844 574.503906 "/></g></svg>