<svg width="54" height="54" viewBox="0 0 54 54" fill="none" xmlns="http://www.w3.org/2000/svg">
<g id="UsersThree">
<path id="Vector" d="M51.6377 31.7249C51.4604 31.8579 51.2586 31.9546 51.044 32.0096C50.8293 32.0646 50.6059 32.0768 50.3865 32.0454C50.1671 32.0141 49.9561 31.9398 49.7654 31.8269C49.5747 31.714 49.4081 31.5647 49.2752 31.3874C48.258 30.0202 46.9341 28.911 45.41 28.1489C43.8859 27.3868 42.2042 26.9933 40.5002 26.9999C40.1683 26.9999 39.8438 26.902 39.5673 26.7185C39.2908 26.5351 39.0745 26.2741 38.9455 25.9684C38.8579 25.7608 38.8128 25.5377 38.8128 25.3124C38.8128 25.087 38.8579 24.864 38.9455 24.6564C39.0745 24.3506 39.2908 24.0897 39.5673 23.9063C39.8438 23.7228 40.1683 23.6249 40.5002 23.6249C41.447 23.6248 42.3748 23.3592 43.1783 22.8582C43.9817 22.3572 44.6286 21.641 45.0454 20.7908C45.4622 19.9406 45.6322 18.9906 45.5361 18.0487C45.44 17.1067 45.0817 16.2106 44.5018 15.4621C43.922 14.7136 43.1438 14.1427 42.2558 13.8142C41.3677 13.4858 40.4054 13.413 39.478 13.6041C38.5507 13.7951 37.6955 14.2425 37.0096 14.8952C36.3237 15.548 35.8347 16.38 35.598 17.2968C35.5426 17.5114 35.4454 17.7131 35.3121 17.8902C35.1787 18.0674 35.0118 18.2165 34.8208 18.3292C34.6299 18.4418 34.4186 18.5157 34.199 18.5467C33.9795 18.5776 33.756 18.5651 33.5413 18.5097C33.3266 18.4543 33.125 18.3571 32.9478 18.2238C32.7707 18.0904 32.6216 17.9235 32.5089 17.7325C32.3963 17.5416 32.3224 17.3303 32.2914 17.1107C32.2605 16.8912 32.273 16.6677 32.3284 16.453C32.657 15.1817 33.2777 14.0047 34.1412 13.0155C35.0047 12.0263 36.0872 11.2523 37.3024 10.7551C38.5177 10.2578 39.8323 10.0511 41.1415 10.1513C42.4507 10.2515 43.7185 10.6559 44.8439 11.3323C45.9694 12.0087 46.9214 12.9384 47.6243 14.0475C48.3272 15.1566 48.7616 16.4144 48.8928 17.7209C49.024 19.0274 48.8485 20.3465 48.3803 21.5732C47.912 22.7999 47.1639 23.9004 46.1955 24.7872C48.4901 25.7807 50.4848 27.3572 51.9815 29.3603C52.1144 29.538 52.211 29.7402 52.2657 29.9554C52.3204 30.1705 52.3321 30.3943 52.3002 30.6139C52.2682 30.8336 52.1933 31.0448 52.0796 31.2354C51.9659 31.426 51.8157 31.5924 51.6377 31.7249ZM40.2723 44.7186C40.3944 44.9107 40.4764 45.1255 40.5134 45.3501C40.5503 45.5746 40.5414 45.8044 40.4873 46.0254C40.4331 46.2465 40.3348 46.4543 40.1983 46.6364C40.0617 46.8185 39.8898 46.971 39.6927 47.0849C39.4957 47.1988 39.2776 47.2717 39.0517 47.2991C38.8258 47.3266 38.5966 47.308 38.3781 47.2446C38.1595 47.1812 37.956 47.0742 37.7798 46.9301C37.6037 46.786 37.4585 46.6078 37.353 46.4061C36.2899 44.6061 34.776 43.1144 32.9605 42.0781C31.1449 41.0418 29.0906 40.4968 27.0002 40.4968C24.9097 40.4968 22.8554 41.0418 21.0398 42.0781C19.2243 43.1144 17.7104 44.6061 16.6473 46.4061C16.5418 46.6078 16.3966 46.786 16.2205 46.9301C16.0443 47.0742 15.8408 47.1812 15.6222 47.2446C15.4037 47.308 15.1745 47.3266 14.9486 47.2991C14.7227 47.2717 14.5046 47.1988 14.3076 47.0849C14.1105 46.971 13.9386 46.8185 13.802 46.6364C13.6655 46.4543 13.5672 46.2465 13.513 46.0254C13.4589 45.8044 13.45 45.5746 13.4869 45.3501C13.5239 45.1255 13.6059 44.9107 13.728 44.7186C15.364 41.9076 17.8585 39.6955 20.845 38.4074C19.1645 37.1208 17.9295 35.3398 17.3135 33.315C16.6975 31.2902 16.7315 29.1232 17.4108 27.1187C18.09 25.1141 19.3803 23.3729 21.1004 22.1396C22.8204 20.9064 24.8837 20.2431 27.0002 20.2431C29.1166 20.2431 31.1799 20.9064 32.8999 22.1396C34.62 23.3729 35.9103 25.1141 36.5896 27.1187C37.2688 29.1232 37.3028 31.2902 36.6868 33.315C36.0708 35.3398 34.8358 37.1208 33.1553 38.4074C36.1418 39.6955 38.6363 41.9076 40.2723 44.7186ZM27.0002 37.1249C28.3352 37.1249 29.6402 36.729 30.7502 35.9873C31.8603 35.2456 32.7254 34.1914 33.2363 32.958C33.7472 31.7246 33.8809 30.3674 33.6205 29.058C33.36 27.7487 32.7171 26.5459 31.7731 25.6019C30.8291 24.6579 29.6264 24.015 28.317 23.7546C27.0076 23.4941 25.6504 23.6278 24.417 24.1387C23.1836 24.6496 22.1294 25.5148 21.3877 26.6248C20.646 27.7348 20.2502 29.0399 20.2502 30.3749C20.2502 32.1651 20.9613 33.882 22.2272 35.1479C23.4931 36.4137 25.2099 37.1249 27.0002 37.1249ZM15.1877 25.3124C15.1877 24.8648 15.0099 24.4356 14.6934 24.1191C14.3769 23.8027 13.9477 23.6249 13.5002 23.6249C12.5533 23.6248 11.6255 23.3592 10.822 22.8582C10.0186 22.3572 9.37172 21.641 8.95494 20.7908C8.53815 19.9406 8.36815 18.9906 8.46423 18.0487C8.56031 17.1067 8.91862 16.2106 9.49847 15.4621C10.0783 14.7136 10.8565 14.1427 11.7445 13.8142C12.6326 13.4858 13.5949 13.413 14.5223 13.6041C15.4496 13.7951 16.3048 14.2425 16.9907 14.8952C17.6766 15.548 18.1656 16.38 18.4023 17.2968C18.5142 17.7303 18.7938 18.1017 19.1795 18.3292C19.5652 18.5566 20.0254 18.6215 20.459 18.5097C20.8925 18.3978 21.2639 18.1182 21.4914 17.7325C21.7188 17.3468 21.7838 16.8866 21.6719 16.453C21.3433 15.1817 20.7226 14.0047 19.8591 13.0155C18.9956 12.0263 17.9131 11.2523 16.6979 10.7551C15.4826 10.2578 14.168 10.0511 12.8588 10.1513C11.5496 10.2515 10.2818 10.6559 9.15637 11.3323C8.03093 12.0087 7.07889 12.9384 6.37599 14.0475C5.6731 15.1566 5.23875 16.4144 5.10752 17.7209C4.97628 19.0274 5.15178 20.3465 5.62004 21.5732C6.08831 22.7999 6.83641 23.9004 7.80484 24.7872C5.51255 25.7816 3.5201 27.3581 2.02515 29.3603C1.75634 29.7183 1.64077 30.1685 1.70387 30.6117C1.76696 31.055 2.00355 31.455 2.3616 31.7238C2.71964 31.9926 3.1698 32.1082 3.61305 32.0451C4.05631 31.982 4.45634 31.7454 4.72515 31.3874C5.74226 30.0202 7.06617 28.911 8.59028 28.1489C10.1144 27.3868 11.7962 26.9933 13.5002 26.9999C13.9477 26.9999 14.3769 26.8221 14.6934 26.5056C15.0099 26.1892 15.1877 25.7599 15.1877 25.3124Z" fill="#113C7B"/>
</g>
</svg>
