<svg width="55" height="54" viewBox="0 0 55 54" fill="none" xmlns="http://www.w3.org/2000/svg">
<g id="Userheart">
<path id="Vector" d="M30.8748 33.2605C33.5202 31.6129 35.557 29.1485 36.677 26.2403C37.7971 23.332 37.9395 20.138 37.0826 17.1416C36.2258 14.1452 34.4164 11.5094 31.9281 9.63294C29.4399 7.75647 26.4081 6.74146 23.2916 6.74146C20.1751 6.74146 17.1434 7.75647 14.6552 9.63294C12.1669 11.5094 10.3575 14.1452 9.50065 17.1416C8.64382 20.138 8.7862 23.332 9.90625 26.2403C11.0263 29.1485 13.0631 31.6129 15.7084 33.2605C11.3526 34.6865 7.43336 37.3506 4.28195 41.1011C4.13429 41.2699 4.02178 41.4665 3.95099 41.6793C3.8802 41.8922 3.85255 42.117 3.86966 42.3406C3.88677 42.5643 3.9483 42.7823 4.05065 42.9819C4.15299 43.1815 4.2941 43.3587 4.46572 43.5031C4.63735 43.6475 4.83604 43.7563 5.05018 43.823C5.26433 43.8897 5.48963 43.9131 5.71292 43.8918C5.9362 43.8704 6.15299 43.8047 6.3506 43.6986C6.54822 43.5925 6.72269 43.4481 6.86383 43.2737C11.0995 38.2197 16.934 35.4374 23.2811 35.4374C29.6282 35.4374 35.4627 38.2197 39.7068 43.2737C39.9949 43.6167 40.4075 43.8311 40.8537 43.8699C41.2999 43.9086 41.7432 43.7685 42.0862 43.4804C42.4291 43.1923 42.6435 42.7798 42.6823 42.3336C42.7211 41.8873 42.581 41.444 42.2929 41.1011C39.1394 37.3506 35.2202 34.6865 30.8748 33.2605ZM12.3123 21.0936C12.3123 18.9242 12.9556 16.8035 14.1609 14.9997C15.3662 13.1959 17.0793 11.79 19.0835 10.9598C21.0878 10.1296 23.2933 9.91242 25.421 10.3357C27.5487 10.7589 29.5032 11.8036 31.0372 13.3376C32.5712 14.8716 33.6159 16.826 34.0391 18.9537C34.4623 21.0815 34.2451 23.2869 33.4149 25.2912C32.5847 27.2955 31.1788 29.0086 29.375 30.2138C27.5712 31.4191 25.4505 32.0624 23.2811 32.0624C20.373 32.059 17.585 30.9023 15.5287 28.846C13.4724 26.7897 12.3157 24.0017 12.3123 21.0936Z" fill="#113C7B"/>
<g id="Vector_2">
<path d="M54.5 26.4348C54.5 31.5715 47.6819 35.1666 47.3917 35.3185C47.241 35.3968 47.0748 35.4375 46.9062 35.4375C46.7377 35.4375 46.5715 35.3968 46.4208 35.3185C46.1306 35.1666 39.3125 31.5715 39.3125 26.4348C39.3132 25.5209 39.5821 24.6288 40.0835 23.8773C40.5849 23.1257 41.2949 22.5503 42.1193 22.2276C42.9436 21.9048 43.8431 21.8499 44.6982 22.0703C45.5533 22.2907 46.3235 22.7759 46.9062 23.4614C47.489 22.7759 48.2592 22.2907 49.1143 22.0703C49.9694 21.8499 50.8689 21.9048 51.6932 22.2276C52.5176 22.5503 53.2276 23.1257 53.729 23.8773C54.2304 24.6288 54.4993 25.5209 54.5 26.4348ZM52.3304 26.4348C52.3304 25.8379 52.1018 25.2655 51.6949 24.8435C51.288 24.4214 50.7361 24.1843 50.1607 24.1843C49.5853 24.1843 49.0334 24.4214 48.6265 24.8435C48.2197 25.2655 47.9911 25.8379 47.9911 26.4348C47.9911 26.7332 47.8768 27.0194 47.6733 27.2305C47.4699 27.4415 47.194 27.56 46.9062 27.56C46.6185 27.56 46.3426 27.4415 46.1392 27.2305C45.9357 27.0194 45.8214 26.7332 45.8214 26.4348C45.8214 25.8379 45.5928 25.2655 45.186 24.8435C44.7791 24.4214 44.2272 24.1843 43.6518 24.1843C43.0764 24.1843 42.5245 24.4214 42.1176 24.8435C41.7107 25.2655 41.4821 25.8379 41.4821 26.4348C41.4821 29.2732 45.0363 31.94 46.9062 33.0357C48.7762 31.9414 52.3304 29.2746 52.3304 26.4348Z" fill="#113C7B"/>
<path d="M52.8125 26.998C52.8125 30.8505 47.5095 33.5469 47.2838 33.6608C47.1666 33.7195 47.0373 33.75 46.9062 33.75C46.7752 33.75 46.6459 33.7195 46.5287 33.6608C46.303 33.5469 41 30.8505 41 26.998C41.0006 26.3125 41.2097 25.6435 41.5997 25.0798C41.9896 24.5162 42.5419 24.0846 43.183 23.8425C43.8242 23.6005 44.5238 23.5593 45.1889 23.7246C45.854 23.8899 46.453 24.2538 46.9062 24.7679C47.3595 24.2538 47.9585 23.8899 48.6236 23.7246C49.2887 23.5593 49.9883 23.6005 50.6295 23.8425C51.2706 24.0846 51.8229 24.5162 52.2128 25.0798C52.6028 25.6435 52.8119 26.3125 52.8125 26.998ZM51.125 26.998C51.125 26.5503 50.9472 26.121 50.6307 25.8045C50.3143 25.4879 49.8851 25.3101 49.4375 25.3101C48.9899 25.3101 48.5607 25.4879 48.2443 25.8045C47.9278 26.121 47.9971 25.9556 47.9971 26.4033C47.9971 26.6271 47.9082 26.8417 47.75 27C47.5918 27.1583 47.3772 27.2472 47.1534 27.2472C46.9296 27.2472 46.715 27.1583 46.5568 27C46.3985 26.8417 46.3096 26.6271 46.3096 26.4033C46.3096 25.9556 45.8847 26.121 45.5682 25.8045C45.2518 25.4879 44.8226 25.3101 44.375 25.3101C43.9274 25.3101 43.4982 25.4879 43.1818 25.8045C42.8653 26.121 42.6875 26.5503 42.6875 26.998C42.6875 29.1268 45.4518 31.1269 46.9062 31.9487C48.3607 31.1279 51.125 29.1278 51.125 26.998Z" fill="#113C7B"/>
</g>
</g>
</svg>
