<svg width="35" height="35" viewBox="0 0 35 35" fill="none" xmlns="http://www.w3.org/2000/svg">
<g id="noun-volunteer-4665877 1">
<g id="Group">
<path id="Vector" d="M29.6478 7.54903C28.8619 7.32828 28.034 7.75122 27.7632 8.51138L26.2543 12.7466C26.1997 12.9 26.0865 13.0223 25.9354 13.0911C25.7798 13.1621 25.6061 13.1668 25.4466 13.1041C25.1803 12.9993 25.0259 12.7335 25.0712 12.4576L26.3412 4.72228C26.4756 3.90357 25.9415 3.10521 25.1252 2.90472C24.6886 2.79734 24.2219 2.87428 23.8443 3.11538C23.4687 3.35508 23.215 3.72561 23.1296 4.15872L21.6905 11.4632C21.6161 11.8404 21.239 12.0954 20.8507 12.0321C20.4928 11.9734 20.2305 11.6626 20.2405 11.3092L20.4909 2.45484C20.5039 1.99501 20.3334 1.55887 20.0108 1.22677C19.6809 0.887064 19.2366 0.700012 18.7596 0.700012C17.8144 0.700012 17.054 1.42958 17.0285 2.36096L16.7725 11.6613C16.7633 11.995 16.5114 12.2775 16.1735 12.3328C15.9743 12.3651 15.7766 12.3172 15.6164 12.1972C15.4623 12.0816 15.3646 11.9143 15.3413 11.7261L14.3787 3.92361C14.263 2.98509 13.3929 2.30661 12.4399 2.41034C11.488 2.51431 10.7899 3.36315 10.8836 4.30253L12.2162 17.6552C12.2343 17.8365 12.2461 17.9989 12.2428 18.1525C12.2327 18.6253 11.5437 18.9027 11.245 18.536V18.536L8.16197 14.7499C7.50873 13.9478 6.34228 13.8019 5.50613 14.4178L5.48092 14.4364C4.64143 15.055 4.45565 16.2017 5.058 17.0471L8.10324 21.3209C8.3756 21.7032 8.57395 22.1181 8.69302 22.554C9.04505 23.8447 9.65197 25.0224 10.497 26.0546C11.191 26.9024 12.0247 27.6227 12.9751 28.1952C13.3532 28.4231 13.5881 28.8378 13.5881 29.2775V34.0882C13.5881 34.2598 13.7271 34.3988 13.8984 34.3988C14.0698 34.3988 14.2087 34.2598 14.2087 34.0882V29.2775C14.2087 28.6212 13.8586 28.0026 13.2951 27.663C12.4059 27.1272 11.6259 26.4535 10.9769 25.6608C10.1876 24.6966 9.62063 23.5963 9.29157 22.3903C9.15326 21.8834 8.92341 21.4023 8.60847 20.9602L5.56322 16.6865C5.15993 16.1204 5.28536 15.3519 5.84884 14.9366L5.87405 14.918C6.44328 14.4987 7.23684 14.5972 7.68094 15.1424L10.9333 18.1504C11.6901 18.8503 12.9361 18.6193 12.8338 17.5936V17.5936L11.5011 4.2408C11.4412 3.63911 11.8924 3.09496 12.5072 3.02787C13.1252 2.96024 13.6884 3.39638 13.7629 3.99978L14.7256 11.8023C14.7696 12.1598 14.9539 12.4767 15.2445 12.6944C15.5366 12.9134 15.9119 13.0052 16.2738 12.9458C16.9049 12.8425 17.3755 12.3095 17.3929 11.6785L17.6488 2.37804C17.665 1.78544 18.153 1.32119 18.7596 1.32119C19.0675 1.32119 19.3538 1.44139 19.5658 1.65965C19.7706 1.87046 19.8788 2.14658 19.8706 2.43721L19.6202 11.2915C19.6014 11.9544 20.0873 12.5362 20.7505 12.6449C21.4789 12.7645 22.1585 12.2977 22.2994 11.5833L23.7385 4.27876C23.7907 4.01376 23.9468 3.78656 24.178 3.63903C24.4169 3.48645 24.7008 3.44002 24.9773 3.50796C25.4894 3.63375 25.8125 4.11244 25.7289 4.62158L24.4589 12.3569C24.3658 12.9245 24.6786 13.4695 25.2198 13.6822C25.5372 13.8068 25.8825 13.7976 26.1926 13.6565C26.4978 13.5174 26.7274 13.2684 26.8389 12.9554L28.3478 8.7201C28.5095 8.26594 29.007 8.01429 29.4803 8.14722C29.9445 8.27751 30.226 8.72499 30.135 9.18808L27.2902 23.6702C27.0339 24.9749 26.3356 26.1799 25.3241 27.0632C24.4959 27.7864 24.021 28.826 24.021 29.9154V34.0882C24.021 34.2598 24.1599 34.3988 24.3312 34.3988C24.5026 34.3988 24.6415 34.2598 24.6415 34.0882V29.9154C24.6415 29.0055 25.039 28.1365 25.7321 27.5313C26.8468 26.5578 27.6163 25.2292 27.8991 23.7899L30.744 9.30781C30.8979 8.52381 30.4267 7.76768 29.6478 7.54903Z" stroke="#113C7B"/>
<path id="Vector_2" d="M24.2874 17.634C23.9274 16.9714 23.0969 16.2491 22.1242 16.2295C22.1101 16.2292 22.0961 16.2291 22.0821 16.2291C21.1176 16.2291 20.1884 16.8948 19.5887 17.9791C18.9891 16.8947 18.0599 16.2291 17.0954 16.2291C17.0815 16.2291 17.0673 16.2292 17.0533 16.2295C16.0805 16.2491 15.25 16.9714 14.89 17.634C14.2349 18.8398 14.775 20.6099 16.4952 22.8951C17.7971 24.6245 19.3147 26.0275 19.3786 26.0864C19.438 26.141 19.5133 26.1684 19.5887 26.1684C19.664 26.1684 19.7393 26.141 19.7987 26.0864C19.8626 26.0275 21.3802 24.6246 22.682 22.8951C24.4025 20.6099 24.9425 18.8398 24.2874 17.634ZM19.5888 25.4322C17.8995 23.8214 14.387 19.8602 15.4352 17.9309C15.6665 17.5052 16.2916 16.8662 17.0659 16.8506C17.0755 16.8505 17.0849 16.8503 17.0945 16.8503C17.9602 16.8503 18.8433 17.6398 19.2992 18.8257C19.3454 18.9457 19.4605 19.0247 19.5888 19.0247C19.7171 19.0247 19.8323 18.9456 19.8784 18.8257C20.3344 17.6398 21.2174 16.8503 22.0831 16.8503C22.0926 16.8503 22.1022 16.8505 22.1118 16.8506C22.8859 16.8662 23.511 17.5052 23.7423 17.9309C24.7906 19.8602 21.2782 23.8213 19.5888 25.4322Z" fill="#113C7B" stroke="#113C7B"/>
</g>
</g>
</svg>
