<svg xmlns="http://www.w3.org/2000/svg" xmlns:xlink="http://www.w3.org/1999/xlink" width="1200" zoomAndPan="magnify" viewBox="0 0 900 899.99999" height="1200" preserveAspectRatio="xMidYMid meet" version="1.2"><defs><clipPath id="89be802e12"><path d="M 275 366 L 649 366 L 649 749.238281 L 275 749.238281 Z M 275 366 "/></clipPath><clipPath id="b72ade4dad"><path d="M 149.234375 449 L 337 449 L 337 627 L 149.234375 627 Z M 149.234375 449 "/></clipPath><clipPath id="4497d2e3b7"><path d="M 262 546 L 452 546 L 452 749.238281 L 262 749.238281 Z M 262 546 "/></clipPath><clipPath id="4a365c0785"><path d="M 593 453 L 750.734375 453 L 750.734375 637 L 593 637 Z M 593 453 "/></clipPath><clipPath id="fb0d3f2f8c"><path d="M 439 150.738281 L 461 150.738281 L 461 203 L 439 203 Z M 439 150.738281 "/></clipPath></defs><g id="c1aff685a6"><path style=" stroke:none;fill-rule:nonzero;fill:#113c7b;fill-opacity:1;" d="M 578.304688 479.203125 C 558.503906 479.203125 542.382812 463.085938 542.382812 443.285156 C 542.382812 433.667969 546.121094 424.648438 552.917969 417.878906 L 554.425781 416.375 L 568.941406 430.890625 L 567.425781 432.40625 C 564.523438 435.3125 562.910156 439.175781 562.910156 443.296875 C 562.910156 451.78125 569.816406 458.6875 578.304688 458.6875 C 582.425781 458.6875 586.277344 457.085938 589.179688 454.183594 L 619.988281 423.378906 C 622.890625 420.472656 624.503906 416.597656 624.503906 412.488281 C 624.503906 404.003906 617.597656 397.097656 609.109375 397.097656 C 606.066406 397.097656 603.132812 397.980469 600.636719 399.648438 L 589.265625 382.546875 C 595.148438 378.640625 602.011719 376.570312 609.109375 376.570312 C 628.910156 376.570312 645.03125 392.6875 645.03125 412.488281 C 645.03125 422.085938 641.292969 431.105469 634.503906 437.882812 L 603.710938 468.679688 C 596.941406 475.46875 587.921875 479.203125 578.3125 479.203125 Z M 578.304688 479.203125 "/><path style=" stroke:none;fill-rule:nonzero;fill:#113c7b;fill-opacity:1;" d="M 416.605469 342.65625 L 388.679688 314.71875 C 381.890625 307.953125 378.15625 298.933594 378.15625 289.324219 C 378.15625 269.523438 394.273438 253.40625 414.074219 253.40625 C 423.691406 253.40625 432.714844 257.140625 439.480469 263.941406 L 472.648438 297.105469 L 458.128906 311.625 L 424.953125 278.449219 C 422.050781 275.542969 418.183594 273.933594 414.066406 273.933594 C 405.578125 273.933594 398.671875 280.839844 398.671875 289.324219 C 398.671875 293.445312 400.273438 297.300781 403.175781 300.203125 L 431.113281 328.148438 L 416.59375 342.667969 Z M 416.605469 342.65625 "/><g clip-rule="nonzero" clip-path="url(#89be802e12)"><path style=" stroke:none;fill-rule:nonzero;fill:#113c7b;fill-opacity:1;" d="M 632.253906 749.304688 L 496.257812 571.582031 L 485.285156 571.582031 C 449.644531 571.582031 416.144531 557.707031 390.945312 532.515625 L 286.042969 427.625 C 279.253906 420.859375 275.519531 411.835938 275.519531 402.230469 C 275.519531 382.429688 291.636719 366.3125 311.4375 366.3125 C 318.75 366.3125 325.445312 368.339844 331.347656 372.320312 L 319.839844 389.324219 C 317.363281 387.648438 314.621094 386.835938 311.4375 386.835938 C 302.953125 386.835938 296.046875 393.746094 296.046875 402.230469 C 296.046875 406.351562 297.648438 410.203125 300.550781 413.109375 L 405.460938 518.007812 C 426.777344 539.324219 455.128906 551.066406 485.285156 551.066406 L 506.398438 551.066406 L 648.554688 736.847656 L 632.253906 749.3125 Z M 632.253906 749.304688 "/></g><g clip-rule="nonzero" clip-path="url(#b72ade4dad)"><path style=" stroke:none;fill-rule:nonzero;fill:#113c7b;fill-opacity:1;" d="M 149.214844 611.085938 L 323.027344 449.566406 L 337 464.605469 L 163.1875 626.121094 Z M 149.214844 611.085938 "/></g><g clip-rule="nonzero" clip-path="url(#4497d2e3b7)"><path style=" stroke:none;fill-rule:nonzero;fill:#113c7b;fill-opacity:1;" d="M 279.03125 749.035156 L 262.046875 737.507812 L 381.570312 561.3125 L 392.214844 561.3125 C 407.265625 561.3125 427.996094 554.929688 440.441406 546.453125 L 451.992188 563.4375 C 436.386719 574.046875 411.394531 581.777344 392.460938 581.839844 Z M 279.03125 749.035156 "/></g><g clip-rule="nonzero" clip-path="url(#4a365c0785)"><path style=" stroke:none;fill-rule:nonzero;fill:#113c7b;fill-opacity:1;" d="M 736.832031 636.28125 L 610.316406 519.480469 C 599.769531 509.808594 593.707031 496.015625 593.707031 481.671875 L 593.707031 453.90625 L 614.234375 453.90625 L 614.234375 481.671875 C 614.234375 490.285156 617.875 498.558594 624.214844 504.375 L 750.761719 621.207031 Z M 736.832031 636.28125 "/></g><path style=" stroke:none;fill-rule:nonzero;fill:#113c7b;fill-opacity:1;" d="M 653.253906 299.457031 L 709.84375 271.230469 L 719 289.589844 L 662.414062 317.816406 Z M 653.253906 299.457031 "/><path style=" stroke:none;fill-rule:nonzero;fill:#113c7b;fill-opacity:1;" d="M 569.933594 214.210938 L 600.027344 168.585938 L 617.171875 179.894531 L 587.078125 225.519531 Z M 569.933594 214.210938 "/><path style=" stroke:none;fill-rule:nonzero;fill:#113c7b;fill-opacity:1;" d="M 181.023438 289.546875 L 190.179688 271.1875 L 246.765625 299.414062 L 237.609375 317.773438 Z M 181.023438 289.546875 "/><path style=" stroke:none;fill-rule:nonzero;fill:#113c7b;fill-opacity:1;" d="M 282.828125 179.898438 L 299.96875 168.585938 L 330.078125 214.195312 L 312.9375 225.511719 Z M 282.828125 179.898438 "/><g clip-rule="nonzero" clip-path="url(#fb0d3f2f8c)"><path style=" stroke:none;fill-rule:nonzero;fill:#113c7b;fill-opacity:1;" d="M 439.746094 150.757812 L 460.273438 150.757812 L 460.273438 202.082031 L 439.746094 202.082031 Z M 439.746094 150.757812 "/></g><path style=" stroke:none;fill-rule:nonzero;fill:#113c7b;fill-opacity:1;" d="M 354.683594 424.414062 L 316.828125 386.558594 C 310.039062 379.792969 306.304688 370.773438 306.304688 361.164062 C 306.304688 341.363281 322.421875 325.246094 342.226562 325.246094 C 349.324219 325.246094 356.1875 327.304688 362.070312 331.222656 L 350.699219 348.324219 C 348.191406 346.660156 345.265625 345.773438 342.226562 345.773438 C 333.738281 345.773438 326.832031 352.679688 326.832031 361.164062 C 326.832031 365.285156 328.433594 369.140625 331.335938 372.042969 L 369.199219 409.90625 L 354.683594 424.421875 Z M 354.683594 424.414062 "/><path style=" stroke:none;fill-rule:nonzero;fill:#113c7b;fill-opacity:1;" d="M 385.703125 383.59375 L 347.625 345.515625 C 340.835938 338.75 337.101562 329.730469 337.101562 320.121094 C 337.101562 300.320312 353.21875 284.203125 373.019531 284.203125 C 383.117188 284.203125 392.34375 288.214844 399.695312 295.792969 L 384.964844 310.085938 C 381.464844 306.480469 377.566406 304.730469 373.03125 304.730469 C 364.546875 304.730469 357.640625 311.636719 357.640625 320.121094 C 357.640625 324.242188 359.238281 328.09375 362.144531 331 L 400.230469 369.085938 L 385.714844 383.601562 Z M 385.703125 383.59375 "/><path style=" stroke:none;fill-rule:nonzero;fill:#113c7b;fill-opacity:1;" d="M 475.667969 366.300781 C 455.867188 366.300781 439.746094 350.179688 439.746094 330.378906 C 439.746094 320.785156 443.484375 311.761719 450.273438 304.984375 L 491.328125 263.929688 C 498.09375 257.140625 507.113281 253.40625 516.722656 253.40625 C 536.523438 253.40625 552.640625 269.523438 552.640625 289.324219 C 552.640625 298.941406 548.90625 307.964844 542.105469 314.730469 L 501.0625 355.773438 C 494.273438 362.5625 485.253906 366.300781 475.667969 366.300781 Z M 516.722656 273.921875 C 512.601562 273.921875 508.75 275.523438 505.84375 278.425781 L 464.78125 319.492188 C 461.875 322.394531 460.265625 326.269531 460.265625 330.378906 C 460.265625 338.867188 467.171875 345.773438 475.65625 345.773438 C 479.765625 345.773438 483.632812 344.171875 486.546875 341.257812 L 527.597656 300.203125 C 530.503906 297.300781 532.113281 293.433594 532.113281 289.316406 C 532.113281 280.828125 525.207031 273.921875 516.722656 273.921875 Z M 516.722656 273.921875 "/><path style=" stroke:none;fill-rule:nonzero;fill:#113c7b;fill-opacity:1;" d="M 516.722656 397.085938 C 496.921875 397.085938 480.800781 380.96875 480.800781 361.164062 C 480.800781 354.054688 482.871094 347.183594 486.800781 341.269531 L 503.902344 352.636719 C 502.214844 355.175781 501.328125 358.125 501.328125 361.164062 C 501.328125 369.652344 508.234375 376.558594 516.722656 376.558594 C 520.84375 376.558594 524.695312 374.957031 527.597656 372.054688 L 568.664062 330.988281 C 571.566406 328.085938 573.179688 324.210938 573.179688 320.101562 C 573.179688 311.613281 566.273438 304.707031 557.789062 304.707031 C 553.675781 304.707031 549.8125 306.308594 546.898438 309.222656 L 545.339844 310.78125 L 530.824219 296.265625 L 532.382812 294.707031 C 539.171875 287.917969 548.191406 284.179688 557.777344 284.179688 C 577.578125 284.179688 593.695312 300.300781 593.695312 320.101562 C 593.695312 329.695312 589.960938 338.71875 583.171875 345.496094 L 542.117188 386.550781 C 535.347656 393.339844 526.328125 397.074219 516.722656 397.074219 Z M 516.722656 397.085938 "/><path style=" stroke:none;fill-rule:nonzero;fill:#113c7b;fill-opacity:1;" d="M 547.519531 438.152344 C 527.71875 438.152344 511.597656 422.03125 511.597656 402.230469 C 511.597656 392.613281 515.335938 383.59375 522.132812 376.824219 L 523.640625 375.320312 L 538.15625 389.835938 L 536.640625 391.351562 C 533.738281 394.257812 532.125 398.121094 532.125 402.242188 C 532.125 410.726562 539.03125 417.632812 547.519531 417.632812 C 551.636719 417.632812 555.492188 416.03125 558.394531 413.128906 L 599.460938 372.0625 C 602.363281 369.160156 603.976562 365.285156 603.976562 361.175781 C 603.976562 352.691406 597.070312 345.785156 588.582031 345.785156 C 585.542969 345.785156 582.59375 346.667969 580.074219 348.335938 L 568.75 331.210938 C 574.640625 327.316406 581.507812 325.246094 588.582031 325.246094 C 608.382812 325.246094 624.503906 341.363281 624.503906 361.164062 C 624.503906 370.761719 620.765625 379.78125 613.976562 386.558594 L 572.921875 427.613281 C 566.15625 434.402344 557.136719 438.140625 547.527344 438.140625 Z M 547.519531 438.152344 "/></g></svg>