<svg xmlns="http://www.w3.org/2000/svg" xmlns:xlink="http://www.w3.org/1999/xlink" width="1200" zoomAndPan="magnify" viewBox="0 0 900 899.99999" height="1200" preserveAspectRatio="xMidYMid meet" version="1.2"><defs><clipPath id="89024089a8"><path d="M 201 70.003906 L 694 70.003906 L 694 829.753906 L 201 829.753906 Z M 201 70.003906 "/></clipPath></defs><g id="9b3ebacd03"><g clip-rule="nonzero" clip-path="url(#89024089a8)"><path style=" stroke:none;fill-rule:nonzero;fill:#113c7b;fill-opacity:1;" d="M 672.582031 511.019531 C 667.269531 519.789062 657.96875 525.023438 647.703125 525.023438 C 642.429688 525.023438 637.238281 523.574219 632.691406 520.816406 L 525.371094 455.832031 C 521.328125 453.378906 517.90625 449.945312 515.480469 445.878906 L 476.664062 380.863281 C 474.308594 376.921875 469.191406 375.617188 465.25 377.988281 C 461.300781 380.34375 460.011719 385.457031 462.367188 389.40625 L 499.539062 451.664062 L 499.539062 508.671875 C 499.539062 541.226562 488.859375 573.558594 469.46875 599.703125 L 406.488281 684.648438 L 316.746094 799.921875 C 310.105469 808.457031 300.082031 813.347656 289.257812 813.347656 C 281.0625 813.347656 273.082031 810.421875 266.785156 805.09375 C 252.738281 793.214844 250.992188 771.101562 262.761719 755.980469 L 343.449219 657.722656 C 343.90625 657.167969 344.285156 656.5625 344.582031 655.917969 L 387.417969 562.761719 C 387.914062 561.660156 388.171875 560.476562 388.171875 559.28125 L 388.171875 331.457031 C 388.171875 301.265625 411.328125 276.394531 440.8125 273.636719 C 442.835938 273.761719 444.871094 273.839844 446.925781 273.839844 C 448.9375 273.839844 450.917969 273.765625 452.898438 273.648438 C 469.164062 275.152344 484.039062 283.476562 493.839844 296.324219 L 560.585938 408.109375 C 561.28125 409.28125 562.257812 410.257812 563.421875 410.964844 L 662.78125 471.128906 C 676.476562 479.421875 680.875 497.316406 672.582031 511.019531 Z M 589.769531 635.976562 L 615.710938 769.859375 C 619.429688 788.300781 609.050781 806.746094 592.074219 811.84375 C 588.757812 812.847656 585.339844 813.351562 581.925781 813.351562 C 565.453125 813.351562 551.128906 801.605469 547.878906 785.503906 L 522.25 652.519531 C 522.101562 651.769531 521.855469 651.042969 521.507812 650.359375 L 493.136719 593.929688 C 508.078125 568.160156 516.1875 538.507812 516.1875 508.671875 L 516.1875 489.347656 L 579.648438 607.535156 C 584.4375 616.472656 587.84375 626.039062 589.769531 635.976562 Z M 338.695312 386.082031 C 337.273438 386.777344 336.074219 387.871094 335.242188 389.222656 L 272.238281 492.332031 C 266.214844 502.195312 254.980469 507.535156 243.46875 505.964844 C 239.515625 505.417969 235.753906 504.074219 232.3125 501.964844 C 225.691406 497.921875 221.042969 491.546875 219.222656 484 C 217.398438 476.464844 218.621094 468.65625 222.675781 462.035156 L 291.367188 349.625 C 294.246094 344.902344 298.410156 341.117188 303.390625 338.679688 L 377.355469 302.527344 C 373.605469 311.433594 371.523438 321.207031 371.523438 331.457031 L 371.523438 370.035156 Z M 361.65625 171.910156 C 361.65625 124.890625 399.90625 86.640625 446.925781 86.640625 C 493.945312 86.640625 532.203125 124.890625 532.203125 171.910156 C 532.203125 216.835938 497.273438 253.734375 453.15625 256.933594 C 451.316406 256.796875 449.460938 256.726562 447.597656 256.726562 L 446.257812 256.726562 C 444.421875 256.726562 442.613281 256.816406 440.8125 256.945312 C 396.640625 253.792969 361.65625 216.875 361.65625 171.910156 Z M 671.40625 456.886719 L 573.816406 397.792969 L 515.292969 299.777344 C 512.988281 294.859375 510.179688 290.269531 506.945312 286.058594 C 506.863281 285.957031 506.785156 285.839844 506.699219 285.746094 C 500.632812 277.929688 493.09375 271.445312 484.597656 266.59375 C 522.199219 251.574219 548.851562 214.804688 548.851562 171.910156 C 548.851562 115.714844 503.128906 69.992188 446.925781 69.992188 C 390.722656 69.992188 345.003906 115.714844 345.003906 171.910156 C 345.003906 214.800781 371.648438 251.5625 409.234375 266.578125 C 405.863281 268.511719 402.664062 270.691406 399.652344 273.097656 L 296.082031 323.71875 C 288.242188 327.550781 281.699219 333.507812 277.152344 340.949219 L 208.46875 453.359375 C 202.101562 463.773438 200.171875 476.039062 203.039062 487.910156 C 205.902344 499.773438 213.210938 509.816406 223.632812 516.175781 C 229.042969 519.480469 234.949219 521.601562 241.191406 522.460938 C 243.292969 522.746094 245.382812 522.890625 247.457031 522.890625 C 263.226562 522.890625 278.070312 514.71875 286.449219 501.015625 L 348.1875 399.980469 L 371.523438 388.570312 L 371.523438 557.453125 L 329.902344 647.984375 L 249.757812 745.578125 C 232.4375 767.835938 235.253906 800.234375 256.035156 817.808594 C 265.335938 825.664062 277.132812 829.996094 289.257812 829.996094 C 305.25 829.996094 320.054688 822.765625 329.882812 810.160156 L 419.746094 694.722656 L 482.574219 609.988281 L 506.121094 656.804688 L 531.539062 788.730469 C 536.363281 812.644531 557.554688 830.003906 581.925781 830.003906 C 586.972656 830.003906 592.007812 829.261719 596.875 827.792969 C 621.992188 820.234375 637.433594 793.347656 632.046875 766.632812 L 606.121094 632.808594 C 603.878906 621.226562 599.902344 610.070312 594.316406 599.660156 L 528.578125 477.238281 L 624.074219 535.066406 C 631.222656 539.390625 639.390625 541.671875 647.703125 541.671875 C 663.847656 541.671875 678.46875 533.441406 686.824219 519.644531 C 699.878906 498.089844 692.960938 469.933594 671.40625 456.886719 "/></g></g></svg>