<svg xmlns="http://www.w3.org/2000/svg" xmlns:xlink="http://www.w3.org/1999/xlink" width="1200" zoomAndPan="magnify" viewBox="0 0 900 899.99999" height="1200" preserveAspectRatio="xMidYMid meet" version="1.2"><g id="d53f16ddf4"><path style=" stroke:none;fill-rule:nonzero;fill:#113c7b;fill-opacity:1;" d="M 799.449219 644.394531 C 810.09375 613.046875 815.546875 585.542969 815.808594 561.527344 C 838.15625 510.683594 849.511719 456.535156 849.511719 400.519531 C 849.511719 293.527344 807.851562 192.957031 732.191406 117.296875 C 656.53125 41.65625 555.964844 0 448.972656 0 C 341.980469 0 241.414062 41.65625 165.753906 117.316406 C 90.113281 192.957031 48.4375 293.546875 48.4375 400.539062 C 48.4375 424.046875 50.507812 447.609375 54.578125 470.59375 C 53.832031 472.875 53.105469 475.1875 52.449219 477.523438 C 36.242188 534.808594 43.953125 600.925781 75.34375 674.121094 C 53.140625 694.679688 37.773438 722.503906 27.128906 759.957031 C 26.027344 763.859375 27.113281 768.082031 29.988281 770.957031 C 63.804688 804.734375 123.421875 826.917969 177.238281 826.898438 C 182.707031 826.898438 188.121094 826.675781 193.445312 826.207031 C 198.914062 826.691406 204.496094 826.9375 210.15625 826.9375 C 213.757812 826.9375 217.417969 826.84375 221.097656 826.636719 C 221.730469 827.515625 222.480469 828.316406 223.375 828.972656 C 285.328125 875.894531 354.640625 899.792969 429.421875 899.980469 C 504.148438 899.777344 573.441406 875.894531 635.394531 828.972656 C 636.796875 827.90625 637.878906 826.542969 638.644531 825.011719 C 638.757812 825.011719 638.886719 825.011719 639 825.011719 C 652.144531 825.011719 665.121094 824.359375 677.761719 823.050781 C 741.023438 829.570312 808.9375 819.597656 864.28125 795.660156 C 868.183594 793.960938 870.796875 790.207031 871.019531 785.949219 C 873.859375 731.148438 850.332031 684.449219 799.449219 644.394531 Z M 827.105469 400.539062 C 827.105469 440.457031 820.996094 479.371094 808.9375 516.679688 C 807.367188 512.273438 805.539062 508.03125 803.445312 503.945312 C 800.105469 497.484375 796.203125 491.488281 791.8125 485.945312 C 791.925781 485.085938 792.054688 484.261719 792.148438 483.40625 L 790.953125 483.253906 C 788.433594 444.511719 777.191406 411.144531 758.257812 386.515625 C 754.226562 381.25 749.839844 376.449219 745.1875 372.097656 L 826.019531 372.097656 C 826.730469 381.472656 827.105469 390.957031 827.105469 400.539062 Z M 677.761719 421.675781 C 703.4375 421.675781 729.113281 417.605469 747 409.460938 C 755.589844 423.296875 762.367188 440.792969 766.046875 462.453125 C 749.242188 451.476562 729.316406 444.996094 707.863281 444.0625 C 702.390625 443.820312 697.910156 442.773438 692.90625 440.535156 C 669.453125 430.058594 630.074219 433.476562 604.101562 440.570312 C 602.457031 436.574219 600.160156 432.894531 597.324219 429.703125 C 600.085938 422.160156 603.375 415.175781 607.164062 408.847656 C 625.089844 417.378906 651.417969 421.675781 677.761719 421.675781 Z M 621 390.492188 C 638.347656 372.398438 661.050781 363.511719 685.511719 366.683594 C 701.160156 368.703125 718.152344 376.414062 732.734375 391.203125 C 703.382812 402.011719 649.308594 401.789062 621 390.492188 Z M 611.214844 496.457031 C 611.214844 487.625 608.191406 479.203125 602.8125 472.5 C 604.308594 469.585938 605.390625 466.507812 606.097656 463.292969 C 629.421875 455.992188 666.878906 453.4375 683.757812 460.980469 C 691.394531 464.394531 698.546875 466.078125 706.890625 466.429688 C 731.277344 467.496094 752.601562 476.90625 768.210938 492.945312 C 766.476562 504.597656 764.421875 515.726562 762.03125 526.371094 L 717.367188 548.664062 C 694.121094 531.113281 661.371094 531.113281 638.140625 548.664062 L 599.320312 529.28125 C 598.796875 528.085938 598.238281 526.910156 597.585938 525.773438 C 606.007812 518.601562 611.214844 507.957031 611.214844 496.457031 Z M 602.609375 555.945312 L 634.78125 572.003906 C 639.039062 574.132812 644.191406 573.328125 647.609375 570.007812 C 663.945312 554.058594 691.5625 554.058594 707.902344 570.007812 C 710.046875 572.097656 712.867188 573.199219 715.722656 573.199219 C 717.421875 573.199219 719.140625 572.808594 720.726562 572.023438 L 754.394531 555.21875 C 747.914062 576.222656 739.90625 595.082031 730.25 612.039062 C 710.308594 629.757812 645.199219 629.757812 625.257812 612.039062 C 614.988281 594.09375 608.136719 578.335938 602.105469 558.691406 C 602.289062 557.777344 602.476562 556.859375 602.609375 555.945312 Z M 786.230469 520.078125 C 797.285156 546.796875 795.285156 583.898438 780.386719 630.578125 C 772.261719 625.125 763.582031 619.785156 754.339844 614.59375 C 768.527344 587.445312 779.078125 556.226562 786.230469 520.078125 Z M 823.667969 349.691406 L 709.414062 349.691406 C 702.597656 347.171875 695.578125 345.398438 688.371094 344.464844 C 672.554688 342.410156 657.167969 344.335938 642.976562 349.691406 L 641.296875 349.691406 L 641.296875 267.460938 C 641.296875 255.511719 651.023438 245.78125 662.976562 245.78125 L 663.742188 245.78125 C 682.226562 245.78125 697.277344 230.730469 697.277344 212.246094 L 697.277344 192.566406 C 697.277344 184.144531 704.128906 177.292969 712.550781 177.292969 L 753.964844 177.292969 C 790.414062 226.980469 815.042969 285.816406 823.667969 349.691406 Z M 585.296875 237.097656 L 585.296875 47.839844 C 644.117188 70.65625 695.839844 107.757812 736.1875 154.886719 L 712.53125 154.886719 C 691.75 154.886719 674.851562 171.785156 674.851562 192.566406 L 674.851562 212.246094 C 674.851562 218.371094 669.863281 223.375 663.722656 223.375 L 662.957031 223.375 C 638.644531 223.375 618.871094 243.148438 618.871094 267.460938 L 618.871094 360.894531 C 618.871094 361.53125 618.925781 362.148438 619.039062 362.746094 C 604.90625 373.125 592.804688 387.46875 583.710938 404.980469 C 580.371094 389.390625 567.542969 377.253906 551.578125 375.011719 C 546.628906 359.515625 532.214844 348.480469 515.035156 348.480469 C 511.691406 348.480469 508.425781 348.910156 505.269531 349.730469 C 499.949219 335.800781 486.429688 325.886719 470.652344 325.886719 C 467.757812 325.886719 464.917969 326.222656 462.175781 326.855469 C 461.800781 325.867188 461.371094 324.914062 460.921875 323.980469 C 461.78125 319.761719 465.535156 316.570312 470.015625 316.570312 L 470.613281 316.570312 C 487.699219 316.570312 501.910156 302.675781 502.300781 285.589844 C 502.429688 279.597656 507.417969 274.722656 513.429688 274.722656 L 547.636719 274.722656 C 568.417969 274.707031 585.296875 257.84375 585.296875 237.097656 Z M 573.683594 531.710938 C 580.949219 536.917969 582.21875 548.027344 579.695312 555.816406 C 578.949219 558.148438 576.726562 563.5625 572.414062 563.5625 C 572.117188 563.5625 571.835938 563.5625 571.539062 563.546875 C 567.054688 563.304688 562.855469 565.785156 560.875 569.839844 C 558.894531 573.890625 559.550781 578.726562 562.519531 582.105469 C 564.925781 584.871094 564.648438 586.605469 563.976562 588.0625 C 562.332031 591.703125 556.636719 595.605469 550.792969 595.605469 C 550.121094 595.605469 549.46875 595.550781 548.886719 595.457031 C 545.453125 594.878906 541.921875 595.90625 539.363281 598.292969 C 536.808594 600.664062 535.5 604.101562 535.835938 607.574219 C 535.835938 607.648438 535.855469 607.742188 535.855469 607.816406 C 534.472656 608.730469 530.066406 610.261719 522.652344 610.261719 C 522.375 610.261719 522.113281 610.207031 521.832031 610.171875 C 526.574219 598.386719 529.414062 585.410156 530.253906 571.460938 L 531.449219 571.460938 C 544.3125 571.460938 554.789062 560.988281 554.789062 548.121094 L 554.789062 519.441406 C 554.789062 506.558594 544.3125 496.101562 531.449219 496.101562 L 525.191406 496.101562 C 524.464844 496.101562 524.128906 495.933594 523.699219 495.335938 C 519.796875 489.996094 517.035156 482.902344 526.164062 470.632812 C 528.964844 466.859375 529.113281 461.761719 526.554688 457.824219 C 523.996094 453.882812 519.238281 451.980469 514.679688 453.023438 C 506.425781 454.910156 499.554688 454.292969 494.832031 451.234375 C 491.210938 448.898438 488.839844 445.050781 487.773438 439.785156 C 486.914062 435.546875 483.703125 432.1875 479.503906 431.140625 C 475.300781 430.09375 470.875 431.550781 468.128906 434.914062 C 463.835938 440.140625 457.859375 442.980469 451.644531 442.738281 C 446.285156 442.511719 441.523438 439.9375 438.574219 435.660156 C 436.480469 432.636719 433.027344 430.824219 429.347656 430.824219 C 425.671875 430.824219 422.214844 432.636719 420.125 435.660156 C 417.175781 439.9375 412.414062 442.511719 407.054688 442.738281 C 400.835938 442.980469 394.84375 440.140625 390.566406 434.914062 C 387.820312 431.570312 383.394531 430.113281 379.195312 431.140625 C 374.992188 432.1875 371.78125 435.546875 370.921875 439.785156 C 369.859375 445.050781 367.488281 448.898438 363.867188 451.234375 C 359.140625 454.277344 352.269531 454.890625 344.015625 453.023438 C 339.441406 451.980469 334.699219 453.902344 332.140625 457.824219 C 329.582031 461.746094 329.734375 466.859375 332.535156 470.632812 C 341.644531 482.882812 338.902344 489.996094 335 495.335938 C 334.570312 495.933594 334.234375 496.101562 333.503906 496.101562 L 327.269531 496.101562 C 314.402344 496.101562 303.925781 506.578125 303.925781 519.441406 L 303.925781 548.121094 C 303.925781 560.988281 314.402344 571.460938 327.269531 571.460938 L 328.445312 571.460938 C 329.285156 585.410156 332.140625 598.386719 336.867188 610.171875 C 336.585938 610.207031 336.324219 610.261719 336.042969 610.261719 C 328.632812 610.261719 324.222656 608.75 322.84375 607.816406 C 322.84375 607.742188 322.859375 607.667969 322.859375 607.574219 C 323.195312 604.101562 321.890625 600.664062 319.332031 598.292969 C 316.773438 595.921875 313.246094 594.878906 309.808594 595.457031 C 309.210938 595.550781 308.578125 595.605469 307.90625 595.605469 C 302.058594 595.605469 296.382812 591.703125 294.722656 588.0625 C 294.050781 586.585938 293.769531 584.851562 296.179688 582.105469 C 299.148438 578.726562 299.78125 573.890625 297.820312 569.839844 C 295.859375 565.785156 291.605469 563.304688 287.160156 563.546875 C 286.878906 563.5625 286.582031 563.5625 286.300781 563.5625 C 281.96875 563.5625 279.765625 558.148438 279.019531 555.816406 C 276.515625 548.027344 277.769531 536.917969 285.03125 531.710938 C 288.523438 529.207031 290.277344 524.914062 289.53125 520.675781 C 288.785156 516.4375 285.683594 513 281.539062 511.824219 C 274.6875 509.902344 269.90625 503.570312 269.90625 496.457031 C 269.90625 491.171875 272.519531 486.222656 276.910156 483.238281 C 279.652344 481.371094 281.425781 478.402344 281.746094 475.113281 C 282.082031 471.828125 280.941406 468.542969 278.625 466.171875 C 275.714844 463.183594 274.109375 459.222656 274.109375 455.042969 C 274.109375 446.359375 281.167969 439.1875 289.847656 439.078125 C 293.9375 439.019531 297.671875 436.742188 299.578125 433.140625 C 301.5 429.535156 301.292969 425.164062 299.054688 421.75 C 297.355469 419.152344 296.457031 416.148438 296.457031 413.027344 C 296.457031 404.214844 303.628906 397.0625 312.421875 397.0625 C 313.226562 397.0625 314.027344 397.121094 314.8125 397.230469 C 317.988281 397.699219 321.199219 396.785156 323.664062 394.730469 C 326.128906 392.675781 327.566406 389.652344 327.660156 386.441406 C 327.882812 377.71875 334.90625 370.90625 343.625 370.90625 C 347.808594 370.90625 351.746094 372.511719 354.734375 375.40625 C 358.207031 378.785156 363.472656 379.53125 367.769531 377.273438 C 372.0625 375.011719 374.394531 370.230469 373.574219 365.472656 C 373.425781 364.628906 373.351562 363.789062 373.351562 362.949219 C 373.351562 354.882812 379.921875 348.3125 387.988281 348.3125 C 391.835938 348.3125 395.476562 349.785156 398.222656 352.492188 C 401.769531 355.96875 407.203125 356.695312 411.535156 354.25 C 415.867188 351.820312 418.089844 346.816406 416.96875 341.980469 C 416.765625 341.066406 416.652344 340.113281 416.652344 339.144531 C 416.652344 332.179688 422.328125 326.503906 429.292969 326.503906 C 436.257812 326.503906 441.933594 332.179688 441.933594 339.144531 C 441.933594 340.113281 441.820312 341.066406 441.617188 341.980469 C 440.515625 346.835938 442.71875 351.820312 447.070312 354.25 C 451.402344 356.675781 456.835938 355.96875 460.382812 352.492188 C 463.125 349.804688 466.769531 348.3125 470.613281 348.3125 C 478.679688 348.3125 485.253906 354.882812 485.253906 362.949219 C 485.253906 363.808594 485.179688 364.648438 485.046875 365.472656 C 484.226562 370.25 486.558594 375.03125 490.855469 377.289062 C 495.148438 379.570312 500.414062 378.804688 503.886719 375.421875 C 506.875 372.511719 510.835938 370.921875 515 370.921875 C 523.570312 370.921875 530.738281 377.886719 530.960938 386.457031 C 531.039062 389.671875 532.492188 392.675781 534.957031 394.75 C 537.421875 396.804688 540.636719 397.71875 543.808594 397.25 C 544.59375 397.140625 545.398438 397.082031 546.179688 397.082031 C 554.992188 397.082031 562.144531 404.253906 562.144531 413.046875 C 562.144531 416.164062 561.25 419.191406 559.550781 421.769531 C 557.308594 425.183594 557.121094 429.554688 559.027344 433.15625 C 560.949219 436.761719 564.683594 439.039062 568.753906 439.09375 C 577.4375 439.207031 584.496094 446.378906 584.496094 455.058594 C 584.496094 459.242188 582.890625 463.183594 579.976562 466.1875 C 577.660156 468.558594 576.523438 471.828125 576.859375 475.132812 C 577.195312 478.417969 578.96875 481.40625 581.695312 483.253906 C 586.082031 486.242188 588.695312 491.171875 588.695312 496.476562 C 588.695312 503.609375 583.917969 509.917969 577.0625 511.84375 C 572.917969 513 569.820312 516.453125 569.074219 520.691406 C 568.324219 524.929688 570.175781 529.207031 573.683594 531.710938 Z M 359.832031 475.972656 C 365.808594 475.113281 371.257812 473.117188 376.058594 470.035156 C 380.164062 467.382812 383.621094 464.003906 386.382812 460.007812 C 392.976562 463.613281 400.40625 465.40625 408.023438 465.070312 C 415.90625 464.730469 423.28125 462.175781 429.386719 457.769531 C 435.492188 462.175781 442.867188 464.730469 450.746094 465.070312 C 458.363281 465.367188 465.777344 463.59375 472.386719 460.007812 C 475.132812 464.003906 478.605469 467.382812 482.714844 470.035156 C 487.492188 473.136719 492.964844 475.113281 498.941406 475.972656 C 496.082031 487.324219 498.304688 498.472656 505.644531 508.519531 C 510.253906 514.828125 517.40625 518.472656 525.230469 518.472656 L 531.484375 518.472656 C 531.972656 518.472656 532.417969 518.917969 532.417969 519.40625 L 532.417969 548.085938 C 532.417969 548.570312 531.972656 549.019531 531.484375 549.019531 L 519.347656 549.019531 C 516.34375 549.019531 513.464844 550.230469 511.355469 552.359375 C 509.246094 554.507812 508.089844 557.402344 508.144531 560.390625 C 508.59375 588.117188 500.285156 611.476562 484.132812 627.964844 C 469.960938 642.417969 450.503906 650.425781 429.441406 650.484375 C 408.304688 650.410156 388.867188 642.417969 374.675781 627.964844 C 358.507812 611.496094 350.214844 588.117188 350.664062 560.390625 C 350.71875 557.382812 349.5625 554.488281 347.453125 552.359375 C 345.34375 550.214844 342.464844 549.019531 339.460938 549.019531 L 327.324219 549.019531 C 326.839844 549.019531 326.390625 548.570312 326.390625 548.085938 L 326.390625 519.40625 C 326.390625 518.917969 326.839844 518.472656 327.324219 518.472656 L 333.558594 518.472656 C 341.382812 518.472656 348.535156 514.847656 353.148438 508.519531 C 360.46875 498.492188 362.6875 487.34375 359.832031 475.972656 Z M 334.941406 39.996094 C 370.941406 28.585938 409.257812 22.40625 448.972656 22.40625 C 488.652344 22.40625 526.929688 28.570312 562.890625 39.957031 L 562.890625 237.101562 C 562.890625 245.484375 556.058594 252.316406 547.675781 252.316406 L 513.46875 252.316406 C 495.390625 252.316406 480.359375 267.011719 479.949219 285.085938 C 479.839844 290.089844 475.675781 294.160156 470.671875 294.160156 L 470.074219 294.160156 C 459.464844 294.160156 450.074219 299.410156 444.324219 307.4375 C 439.785156 305.289062 434.726562 304.058594 429.386719 304.058594 C 414.375 304.058594 401.527344 313.542969 396.542969 326.855469 C 393.796875 326.222656 390.957031 325.886719 388.0625 325.886719 C 372.285156 325.886719 358.769531 335.800781 353.445312 349.730469 C 350.289062 348.910156 347.023438 348.480469 343.679688 348.480469 C 326.503906 348.480469 312.085938 359.496094 307.140625 375.011719 C 295.28125 376.675781 285.179688 383.789062 279.375 393.703125 C 274.183594 389.464844 268.769531 385.582031 263.164062 382.050781 L 263.164062 313.65625 C 263.164062 300.023438 274.257812 288.953125 287.871094 288.953125 L 378.894531 288.953125 C 400.6875 288.953125 418.40625 271.230469 418.40625 249.441406 C 418.40625 227.652344 400.6875 209.929688 378.894531 209.929688 C 369.878906 209.929688 362.558594 202.425781 362.558594 193.21875 L 362.558594 148.855469 C 362.558594 144.785156 360.335938 141.011719 356.769531 139.050781 C 343.308594 131.621094 334.941406 117.523438 334.941406 102.285156 Z M 155.914062 161.886719 L 218.074219 161.886719 C 231.648438 161.886719 242.683594 172.921875 242.683594 186.496094 C 242.683594 200.074219 231.648438 211.109375 218.074219 211.109375 L 187.785156 211.109375 C 171.355469 211.109375 157.984375 224.476562 157.984375 240.910156 L 157.984375 245.351562 C 157.984375 249.085938 154.828125 252.242188 151.09375 252.242188 L 101.164062 252.242188 C 115.171875 219.492188 133.675781 189.113281 155.914062 161.886719 Z M 92.425781 274.648438 L 151.078125 274.648438 C 167.226562 274.648438 180.375 261.503906 180.375 245.351562 L 180.375 240.910156 C 180.375 236.820312 183.695312 233.515625 187.769531 233.515625 L 218.054688 233.515625 C 243.972656 233.515625 265.070312 212.433594 265.070312 186.496094 C 265.070312 160.582031 243.988281 139.480469 218.054688 139.480469 L 175.667969 139.480469 C 213.703125 99.671875 260.328125 68.152344 312.535156 47.894531 L 312.535156 102.285156 C 312.535156 123.40625 322.953125 143.066406 340.152344 155.054688 L 340.152344 193.21875 C 340.152344 214.785156 357.535156 232.339844 378.894531 232.339844 C 388.324219 232.339844 396 240.011719 396 249.441406 C 396 258.871094 388.324219 266.546875 378.894531 266.546875 L 287.871094 266.546875 C 261.894531 266.546875 240.757812 287.683594 240.757812 313.65625 L 240.757812 370.34375 C 225.988281 364.109375 210.359375 360.167969 194.378906 358.804688 C 193.742188 358.75 193.109375 358.75 192.492188 358.804688 C 143.121094 362.988281 98.90625 391.332031 72.261719 433.25 C 71.328125 422.382812 70.84375 411.460938 70.84375 400.539062 C 70.84375 356.414062 78.480469 314.046875 92.425781 274.648438 Z M 73.996094 483.609375 C 89.90625 427.371094 137.820312 386.328125 193.425781 381.210938 C 223.582031 383.992188 252.261719 397.570312 274.6875 419.5625 C 274.707031 419.675781 274.707031 419.808594 274.742188 419.917969 C 261.242188 425.894531 251.757812 439.449219 251.757812 455.042969 C 251.757812 456.328125 251.832031 457.601562 251.960938 458.871094 C 237.695312 472.539062 215.550781 480.191406 191.351562 479.503906 C 164.914062 478.753906 141.199219 468.113281 127.90625 451.027344 C 125.496094 447.925781 121.648438 446.320312 117.746094 446.769531 C 113.84375 447.238281 110.484375 449.703125 108.859375 453.269531 C 95.65625 482.414062 90.054688 511.972656 92.652344 538.769531 C 98.402344 598.164062 140.5625 631.007812 179.792969 637.207031 C 184.574219 637.953125 189.558594 638.363281 194.675781 638.363281 C 221.863281 638.363281 252.355469 626.84375 273.640625 595.550781 C 273.863281 596.148438 274.109375 596.726562 274.371094 597.304688 C 279.207031 607.949219 290.371094 615.789062 302.621094 617.601562 C 306.671875 625.855469 316.847656 632.632812 336.101562 632.632812 C 340.152344 632.632812 344.074219 631.792969 347.695312 630.296875 C 350.960938 635.058594 354.621094 639.523438 358.675781 643.667969 C 377.085938 662.433594 402.179688 672.816406 429.421875 672.910156 C 456.589844 672.816406 481.6875 662.433594 500.097656 643.667969 C 504.167969 639.523438 507.808594 635.042969 511.078125 630.296875 C 514.699219 631.792969 518.621094 632.632812 522.671875 632.632812 C 541.921875 632.632812 552.101562 625.855469 556.152344 617.601562 C 568.402344 615.789062 579.566406 607.96875 584.402344 597.304688 C 586.585938 592.488281 587.316406 587.503906 586.660156 582.628906 C 590.789062 593.589844 595.492188 603.953125 601.132812 614.558594 C 569.316406 632.425781 544.613281 651.304688 526.070312 671.917969 C 519.515625 669.566406 512.960938 667.644531 506.503906 666.167969 C 500.621094 664.824219 494.703125 668.390625 493.171875 674.253906 C 484.132812 708.683594 464.453125 725.265625 429.386719 727.898438 C 394.320312 725.265625 374.640625 708.683594 365.601562 674.253906 C 364.070312 668.410156 358.171875 664.824219 352.269531 666.167969 C 340.488281 668.855469 328.386719 673.003906 316.476562 678.660156 C 299.800781 661.59375 278.980469 649.121094 251.625 639.804688 C 248.210938 638.644531 244.4375 639.1875 241.488281 641.296875 C 238.554688 643.40625 236.800781 646.804688 236.820312 650.425781 L 236.875 679.445312 L 198.746094 658.980469 C 195.441406 657.207031 191.464844 657.207031 188.140625 658.980469 L 150.011719 679.445312 L 150.070312 650.425781 C 150.070312 646.804688 148.332031 643.40625 145.402344 641.296875 C 142.449219 639.1875 138.679688 638.625 135.261719 639.804688 C 119.59375 645.144531 105.796875 651.714844 93.640625 659.746094 C 66.230469 593.644531 59.621094 534.4375 73.996094 483.609375 Z M 261.167969 525.753906 C 254.761719 537.238281 254.148438 551.519531 257.730469 562.6875 C 258.777344 565.9375 260.140625 568.90625 261.785156 571.554688 C 242.515625 609.609375 209.035156 619.1875 183.285156 615.117188 C 152.589844 610.261719 119.558594 584.121094 114.964844 536.65625 C 113.191406 518.378906 115.992188 498.359375 123.105469 477.988281 C 140.675781 492.480469 164.78125 501.199219 190.738281 501.925781 C 211.761719 502.523438 231.816406 497.820312 248.359375 488.875 C 247.855469 491.359375 247.574219 493.898438 247.574219 496.476562 C 247.539062 507.957031 252.746094 518.601562 261.167969 525.753906 Z M 221.265625 804.175781 C 212.078125 804.734375 203.097656 804.605469 194.488281 803.800781 C 193.78125 803.726562 193.089844 803.726562 192.378906 803.800781 C 169.582031 805.949219 144.859375 803.183594 121.5 796.574219 L 121.5 753.683594 C 121.5 747.503906 116.476562 742.480469 110.296875 742.480469 C 104.117188 742.480469 99.09375 747.503906 99.09375 753.683594 L 99.09375 788.882812 C 80.589844 781.339844 63.765625 771.386719 50.601562 759.621094 C 60.835938 726.460938 74.671875 703.140625 95.210938 686.222656 C 95.640625 685.921875 96.03125 685.605469 96.40625 685.269531 C 105.441406 678.007812 115.769531 671.9375 127.625 666.804688 L 127.570312 698.246094 C 127.570312 702.1875 129.621094 705.847656 133.019531 707.882812 C 136.402344 709.917969 140.601562 710.011719 144.074219 708.144531 L 193.445312 681.648438 L 242.8125 708.144531 C 246.285156 710.011719 250.488281 709.917969 253.867188 707.882812 C 257.246094 705.847656 259.320312 702.207031 259.320312 698.246094 L 259.261719 666.804688 C 273.847656 673.132812 285.910156 680.789062 296.085938 690.144531 C 261.429688 712.699219 231.535156 749.78125 221.265625 804.175781 Z M 566.140625 845.664062 L 566.140625 804.660156 C 566.140625 798.480469 561.117188 793.457031 554.9375 793.457031 C 548.757812 793.457031 543.734375 798.480469 543.734375 804.660156 L 543.734375 855.636719 C 507.453125 870.125 469.230469 877.480469 429.40625 877.574219 C 389.539062 877.460938 351.296875 870.105469 315.019531 855.617188 L 315.019531 804.640625 C 315.019531 798.460938 309.996094 793.4375 303.816406 793.4375 C 297.636719 793.4375 292.613281 798.460938 292.613281 804.640625 L 292.613281 845.644531 C 275.285156 837.113281 258.441406 826.898438 242.121094 814.984375 C 249.777344 764.683594 276.757812 725.136719 317.257812 703.046875 C 318.4375 702.671875 319.574219 702.074219 320.621094 701.289062 C 328.949219 697.015625 337.835938 693.449219 347.210938 690.683594 C 360.316406 727.917969 387.054688 747.464844 428.621094 750.34375 C 429.125 750.378906 429.648438 750.378906 430.152344 750.34375 C 471.714844 747.484375 498.453125 727.9375 511.5625 690.683594 C 568.605469 707.5625 607.238281 753.144531 616.648438 815.003906 C 600.328125 826.917969 583.46875 837.128906 566.140625 845.664062 Z M 678.941406 800.664062 C 678.15625 800.589844 677.351562 800.589844 676.570312 800.664062 C 663.777344 802.027344 650.578125 802.644531 637.207031 802.570312 C 625.144531 741.4375 588.210938 702.429688 547.84375 681.460938 C 564.777344 664.113281 586.960938 647.945312 615.175781 632.390625 C 630.242188 642.621094 653.976562 647.777344 677.761719 647.777344 C 701.53125 647.777344 725.285156 642.640625 740.351562 632.410156 C 814.445312 673.261719 849.15625 719.757812 848.855469 777.847656 C 797.808594 798.460938 736.339844 806.769531 678.941406 800.664062 Z M 693.804688 696.714844 C 693.804688 702.894531 688.78125 707.9375 682.597656 707.9375 C 676.417969 707.9375 671.394531 702.933594 671.394531 696.753906 L 671.394531 696.734375 C 671.394531 690.554688 676.417969 685.53125 682.597656 685.53125 C 688.78125 685.53125 693.804688 690.535156 693.804688 696.714844 Z M 693.804688 736.09375 C 693.804688 742.277344 688.78125 747.316406 682.597656 747.316406 C 676.417969 747.316406 671.394531 742.3125 671.394531 736.132812 L 671.394531 736.113281 C 671.394531 729.933594 676.417969 724.910156 682.597656 724.910156 C 688.78125 724.910156 693.804688 729.914062 693.804688 736.09375 Z M 693.804688 736.09375 "/></g></svg>