<svg width="16" height="16" viewBox="0 0 16 16" fill="none" xmlns="http://www.w3.org/2000/svg">
<path d="M5.23656 9.11828C5.40513 8.78179 5.5 8.40197 5.5 8C5.5 7.59803 5.40513 7.21821 5.23656 6.88172M5.23656 9.11828C4.82611 9.93757 3.97874 10.5 3 10.5C1.61929 10.5 0.5 9.38071 0.5 8C0.5 6.61929 1.61929 5.5 3 5.5C3.97874 5.5 4.82611 6.06243 5.23656 6.88172M5.23656 9.11828L10.7634 11.8817M5.23656 6.88172L10.7634 4.11828M10.7634 4.11828C11.1739 4.93757 12.0213 5.5 13 5.5C14.3807 5.5 15.5 4.38071 15.5 3C15.5 1.61929 14.3807 0.5 13 0.5C11.6193 0.5 10.5 1.61929 10.5 3C10.5 3.40197 10.5949 3.78179 10.7634 4.11828ZM10.7634 11.8817C10.5949 12.2182 10.5 12.598 10.5 13C10.5 14.3807 11.6193 15.5 13 15.5C14.3807 15.5 15.5 14.3807 15.5 13C15.5 11.6193 14.3807 10.5 13 10.5C12.0213 10.5 11.1739 11.0624 10.7634 11.8817Z" stroke="#1F2D3D" stroke-linecap="round" stroke-linejoin="round"/>
</svg>
