<svg width="80" height="75" viewBox="0 0 80 75" fill="currentColor" xmlns="http://www.w3.org/2000/svg">
<path d="M1.41259 66.3468C0.97097 66.3468 0.540161 66.1383 0.263947 65.744C-0.189024 65.0961 -0.0452413 64.1944 0.589891 63.7323L10.2812 56.6729C11.5131 54.8309 19.6249 43.2699 28.273 43.2699C35.6065 43.2699 40.7865 48.2105 41.847 49.3035L49.6389 53.2813C51.1075 52.9151 55.2934 51.9236 57.961 51.9236C62.2296 51.9236 63.4885 55.6361 63.5442 55.7944C63.7485 56.4197 63.5107 57.1069 62.9642 57.4675C62.0253 58.0813 53.6588 63.462 49.4789 63.462C46.3308 63.462 38.5832 60.8028 37.7108 60.5039C36.9762 60.2447 36.5784 59.428 36.8324 58.673C37.0811 57.9181 37.8816 57.5128 38.6276 57.7714C40.8751 58.549 47.2091 60.5773 49.4789 60.5773C51.7318 60.5773 56.8621 57.8789 60.2804 55.7718C59.8383 55.2925 59.1096 54.8083 57.961 54.8083C55.1113 54.8083 49.8875 56.1887 49.8378 56.2052C49.5064 56.2956 49.1529 56.2559 48.8437 56.0982L40.3616 51.7714C40.2124 51.6925 40.0686 51.5855 39.953 51.4559C39.9086 51.4052 35.0708 46.1541 28.273 46.1541C20.5806 46.1541 12.5677 58.3631 12.4904 58.4872C12.3909 58.6339 12.2693 58.7635 12.1315 58.8705L2.23529 66.0821C1.98664 66.2619 1.69962 66.3468 1.41259 66.3468Z" fill="currentColor"/>
<path d="M21.2042 74.999C20.9555 74.999 20.7074 74.9312 20.4809 74.7961C19.8128 74.3907 19.5918 73.5062 19.9896 72.824C20.1772 72.4975 24.6555 64.9026 31.1003 64.9026C33.3311 64.9026 36.7219 65.5622 40.3171 66.2604C44.1824 67.0098 48.1808 67.7874 50.8921 67.7874C53.504 67.7874 62.0364 63.6012 66.9564 60.8747L75.7147 50.6658C75.4828 50.5588 75.2126 50.48 74.925 50.48C73.3953 50.48 70.5845 52.5982 68.3315 54.294C65.5315 56.4011 63.7424 57.691 62.2018 57.691C61.4235 57.691 60.7883 57.0436 60.7883 56.2489C60.7883 55.4548 61.4235 54.8068 62.2018 54.8068C62.9034 54.7952 65.1618 53.0995 66.6526 51.9728C69.5077 49.8204 72.4677 47.5952 74.925 47.5952C77.2499 47.5952 78.7023 49.3809 78.8628 49.5838C79.2823 50.1303 79.2655 50.9079 78.8185 51.4318L68.9223 62.9703C68.8121 63.0944 68.6796 63.2014 68.5304 63.2857C67.1775 64.0407 55.1386 70.6722 50.8921 70.6722C47.91 70.6722 43.7792 69.872 39.7868 69.0944C36.33 68.4238 33.0609 67.7874 31.1003 67.7874C26.2739 67.7874 22.4577 74.2269 22.4193 74.2948C22.1539 74.7453 21.6847 74.999 21.2042 74.999Z" fill="currentColor"/>
<path d="M62.2019 57.0227C61.9754 57.0227 61.7435 56.9664 61.5283 56.8479C60.8435 56.4701 60.584 55.5916 60.9592 54.8929L65.2002 46.9092C67.691 43.0671 69.2207 41.8274 73.5115 41.8274C73.9369 41.8274 74.3342 42.0248 74.605 42.3574C74.8753 42.6893 74.9807 43.1289 74.8975 43.5513L73.5942 50.1883C73.445 50.9659 72.6996 51.4732 71.9321 51.321C71.1699 51.1633 70.6732 50.4028 70.8224 49.6192L71.7721 44.8081C70.0488 45.0502 69.2537 45.8785 67.6245 48.391L63.4446 56.2677C63.1905 56.7519 62.6992 57.0227 62.2019 57.0227Z" fill="currentColor"/>
<path d="M38.1688 2.88476C33.3699 2.88476 28.2726 6.86253 28.2726 14.2264C28.2726 22.8575 38.5553 35.1564 52.3055 43.0612C66.0508 35.1564 76.3389 22.8575 76.3389 14.2264C76.3389 6.86253 71.2416 2.88476 66.4427 2.88476C60.5281 2.88476 55.6633 9.5107 53.6476 15.6685C53.4541 16.2541 52.913 16.6545 52.3055 16.6545C51.6984 16.6545 51.1568 16.2541 50.9639 15.6685C48.9482 9.5107 44.0774 2.88476 38.1688 2.88476ZM52.3055 46.1539C52.0736 46.1539 51.8363 46.0976 51.6266 45.9796C36.4569 37.4836 25.445 24.1308 25.445 14.2264C25.445 4.98642 32.0002 0 38.1688 0C44.3866 0 49.4395 5.30186 52.3055 11.3868C55.1719 5.30186 60.2189 0 66.4427 0C72.6113 0 79.1664 4.98642 79.1664 14.2264C79.1664 24.1308 68.1546 37.4836 52.9849 45.9796C52.7752 46.0976 52.5374 46.1539 52.3055 46.1539Z" fill="currentColor"/>
</svg>
