<svg width="75" height="75" viewBox="0 0 75 75" fill="none" xmlns="http://www.w3.org/2000/svg">
<path d="M27.3617 0C22.3506 0 18.2135 3.9551 18.2135 8.70921C18.2135 12.7944 21.2964 16.1763 25.3359 17.0584V40.363C25.3359 41.4242 26.2432 42.2842 27.3617 42.2842H52.4959L64.0818 62.4364C64.4309 63.0598 65.1113 63.4513 65.8547 63.4573L72.9452 63.4278C73.4879 63.4352 74.0108 63.2354 74.3966 62.8741C74.7831 62.5134 75 62.0201 75 61.5052C75 60.9911 74.7831 60.4977 74.3966 60.137C74.0108 59.7757 73.4879 59.576 72.9452 59.5833L67.0572 59.6128L55.4712 39.4607L55.472 39.4613C55.1229 38.8379 54.4425 38.4464 53.6991 38.4404H29.388V29.7916H49.6473C50.1892 29.799 50.7121 29.5992 51.0979 29.2379C51.4837 28.8765 51.7013 28.3838 51.7013 27.869C51.7013 27.3548 51.4837 26.8615 51.0979 26.5008C50.7121 26.1395 50.1892 25.9397 49.6473 25.9471H29.388V17.0877C33.4297 16.2189 36.4467 12.8062 36.4467 8.70903C36.4467 3.95492 32.373 0 27.3617 0ZM26.8551 3.87392C27.0268 3.85784 27.185 3.87392 27.3617 3.87392C30.1832 3.87392 32.4583 6.03243 32.4583 8.70921C32.4583 11.386 30.1832 13.4546 27.3617 13.4546C24.5402 13.4546 22.2969 11.3858 22.2969 8.70921C22.2969 6.2001 24.281 4.1207 26.8551 3.87392ZM14.0984 28.0795C13.7741 28.0983 13.4589 28.1908 13.1805 28.3497C7.13205 31.6626 2.70612 37.1454 0.898703 43.5459C-2.85958 56.853 5.51692 70.583 19.5427 74.1474C33.5692 77.7129 48.0414 69.766 51.7984 56.4595C51.9369 55.9655 51.8634 55.4399 51.5928 54.9975C51.3228 54.5551 50.8784 54.2333 50.3584 54.1019C49.8376 53.9705 49.2836 54.0402 48.8173 54.297C48.351 54.5531 48.0118 54.9747 47.8733 55.4681C44.6815 66.769 32.4979 73.4511 20.5865 70.4236C8.6748 67.3955 1.63144 55.8367 4.82264 44.5362C6.3524 39.1191 10.0861 34.4869 15.2052 31.6829C15.9308 31.2968 16.335 30.5299 16.2227 29.7484C16.111 28.9661 15.5069 28.3279 14.6985 28.1395C14.5028 28.0913 14.3 28.0711 14.0972 28.0799L14.0984 28.0795Z" fill="white"/>
</svg>
