<svg width="53" height="76" viewBox="0 0 53 76" fill="none" xmlns="http://www.w3.org/2000/svg">
<path d="M24.5208 41.4146L21.62 47.1923L15.131 48.1172C14.3252 48.2325 13.6413 48.7977 13.3942 49.5493C13.1356 50.3052 13.3448 51.1599 13.9334 51.7312L18.6318 56.2301L17.5252 62.5704C17.3813 63.3627 17.7194 64.1793 18.3804 64.6482C19.0422 65.1242 19.9362 65.1848 20.6502 64.8112L26.4552 61.8127L32.2514 64.8077C32.5593 64.9689 32.9088 65.0556 33.2636 65.0556C33.7172 65.0556 34.1682 64.9108 34.5273 64.6525C35.191 64.1801 35.5281 63.3635 35.3869 62.5798L34.2811 56.2318L38.9848 51.7258C39.5725 51.1519 39.7764 50.3189 39.5196 49.5604C39.2672 48.7984 38.5841 48.2323 37.7802 48.1187L31.2911 47.1938L28.3842 41.4048C28.0259 40.7096 27.2863 40.277 26.455 40.277C25.6246 40.2762 24.8853 40.7081 24.5208 41.4146ZM29.3171 48.8784C29.5016 49.2451 29.8581 49.4999 30.2702 49.558L36.6701 50.4708L32.0396 54.9066C31.7422 55.1918 31.6063 55.6035 31.676 56.0057L32.7659 62.2627L27.0447 59.3077C26.8603 59.2114 26.6582 59.1646 26.4561 59.1646C26.254 59.1646 26.0519 59.2123 25.8675 59.3077L20.1463 62.2636L21.2397 56.0066C21.3103 55.6035 21.1735 55.1926 20.8752 54.9074L16.242 50.4717L22.6419 49.5589C23.0549 49.5008 23.4114 49.246 23.595 48.8793L26.456 43.1804L29.3171 48.8784Z" fill="white"/>
<path d="M51.2337 0.415039H1.68055C0.981598 0.415039 0.415039 0.9707 0.415039 1.65814V10.9787C0.415039 18.7494 6.85193 25.0723 14.7636 25.0723H22.1431C21.385 26.0042 20.9129 27.1684 20.9129 28.4515C20.9129 29.7925 21.4282 31.0071 22.2499 31.9571C11.945 33.8972 4.13044 42.8061 4.13044 53.485C4.13044 65.5778 14.1459 75.415 26.4567 75.415C38.7675 75.415 48.783 65.5778 48.783 53.485C48.783 42.8061 40.9675 33.8963 30.6626 31.9571C31.4842 31.0071 31.9996 29.7934 31.9996 28.4515C31.9996 27.1694 31.5266 26.0044 30.7694 25.0723H38.1489C46.0612 25.0723 52.4984 18.7494 52.4984 10.9787V1.65814C52.4984 0.971565 51.9318 0.415039 51.2337 0.415039ZM29.4704 28.4523C29.4704 30.0846 28.1184 31.4126 26.4567 31.4126C24.7949 31.4126 23.4429 30.0846 23.4429 28.4523C23.4429 26.8199 24.7949 25.4919 26.4567 25.4919C28.1184 25.4919 29.4704 26.8199 29.4704 28.4523ZM46.2529 53.4847C46.2529 64.2069 37.3722 72.9294 26.4567 72.9294C15.5412 72.9286 6.66049 64.2069 6.66049 53.4847C6.66049 42.7625 15.5412 34.0391 26.4567 34.0391C37.3722 34.0382 46.2529 42.7625 46.2529 53.4847ZM32.7232 2.90053V22.5863H20.1899V2.90053H32.7232ZM2.94705 10.9779V2.90053H17.661V22.5863H14.7647C8.24825 22.5863 2.94705 17.3789 2.94705 10.9779ZM49.9699 10.9779C49.9699 17.3789 44.6678 22.5863 38.1516 22.5863H35.2553V2.90053H49.9702L49.9699 10.9779Z" fill="white"/>
<path d="M52.0833 1.66016C52.0833 1.21051 51.7077 0.830078 51.2329 0.830078H1.6805C1.20445 0.830103 0.830078 1.21003 0.830078 1.66016V10.9782C0.830078 18.5114 7.0743 24.6535 14.7624 24.6541H23.0184L22.465 25.3337C21.7611 26.199 21.33 27.2734 21.3298 28.4505C21.3298 29.6814 21.8037 30.8031 22.5667 31.6854L23.0387 32.2306L22.3267 32.3649C12.2098 34.2696 4.54604 43.0149 4.54508 53.4831C4.54508 65.3387 14.3689 75 26.4567 75C38.5445 75 48.3683 65.3387 48.3683 53.4831C48.3674 43.0152 40.7032 34.269 30.5868 32.3649L29.8747 32.2306L30.3467 31.6854C31.1098 30.803 31.5837 29.6822 31.5837 28.4505C31.5834 27.2746 31.1476 26.1994 30.4443 25.3337L29.895 24.6541H38.147C45.8363 24.6541 52.0833 18.5118 52.0833 10.9782V1.66016ZM45.8374 53.4831C45.8365 43.3265 37.6833 34.9914 27.4536 34.4808L26.4567 34.4564C15.7648 34.4564 7.0769 42.9987 7.07601 53.4831C7.07601 63.9681 15.7642 72.513 26.4567 72.5138L27.4536 72.4894C37.684 71.9782 45.8374 63.6403 45.8374 53.4831ZM26.4567 39.86C27.3098 39.8605 28.0979 40.2505 28.5726 40.9139L28.7557 41.215L31.5674 46.8099L37.8377 47.7051C38.7961 47.8404 39.6141 48.5158 39.917 49.4303C40.2244 50.3434 39.9726 51.3402 39.2741 52.0223L34.729 56.3761L35.7992 62.5081C35.9476 63.3357 35.6525 64.1853 35.0464 64.7624L34.7697 64.9902C34.3387 65.3001 33.8033 65.4703 33.2642 65.4704C32.9471 65.4704 32.6328 65.4141 32.3405 65.3035L32.0597 65.1774L26.4526 62.2803L20.8415 65.1815C19.9882 65.627 18.9248 65.5536 18.1356 64.9862C17.347 64.4247 16.9414 63.4485 17.1143 62.4959L18.1803 56.3761L13.6434 52.0304C12.9431 51.3508 12.6867 50.3293 12.9964 49.4181C13.2946 48.5115 14.1144 47.8422 15.0716 47.7051L21.342 46.8099L24.1496 41.2272C24.5903 40.3729 25.4806 39.859 26.4567 39.86ZM26.4526 40.6942C25.7711 40.6941 25.1792 41.0428 24.8901 41.5975L24.8942 41.6016L21.993 47.3796L21.8953 47.5749L21.6797 47.6034L15.1896 48.5311C14.5361 48.6248 13.9861 49.0828 13.7899 49.6785C13.5853 50.2767 13.7478 50.9664 14.2212 51.4282L18.9209 55.9285L19.0796 56.0832L19.043 56.3029L17.9362 62.6424C17.8225 63.2718 18.0903 63.9298 18.6198 64.3066L18.6239 64.3107C19.1577 64.6943 19.8848 64.7414 20.459 64.4409L26.2655 61.4421L26.4567 61.3444L26.6479 61.4421L32.4422 64.4368C32.6903 64.5666 32.9768 64.6403 33.2642 64.6403C33.6317 64.6402 33.9985 64.5212 34.2855 64.3148L34.4727 64.1561C34.8805 63.7668 35.0747 63.1977 34.9772 62.6546L33.8704 56.3029L33.8338 56.0832L33.9925 55.9326L38.6963 51.4242C39.1697 50.9597 39.327 50.2963 39.1235 49.6948C38.9217 49.0863 38.3722 48.6234 37.7238 48.5311L31.2337 47.6074L31.0181 47.5749L30.9204 47.3796L28.0111 41.5934C27.7286 41.0512 27.1368 40.6947 26.4526 40.6942ZM26.827 42.9932L29.6875 48.6898C29.8095 48.9323 30.0487 49.1057 30.3263 49.1455L36.7269 50.057L37.5773 50.179L36.9588 50.7731L32.3283 55.2083C32.1307 55.398 32.0431 55.6688 32.0882 55.9326L33.1746 62.1908L33.3211 63.0168L32.5765 62.6343L26.8555 59.6761C26.7334 59.6126 26.594 59.5826 26.4567 59.5825C26.3201 59.5825 26.1822 59.6118 26.0579 59.6761L20.3369 62.6343L19.5923 63.0208L19.7347 62.1908L20.8293 55.9367L20.8374 55.7373C20.8227 55.5408 20.7382 55.3512 20.5892 55.2083L15.9546 50.7731L15.3361 50.179L16.1825 50.061L22.583 49.1455C22.8621 49.1063 23.1004 48.9356 23.2218 48.6938L26.0824 42.9932L26.4567 42.2526L26.827 42.9932ZM23.9665 49.0682C23.7822 49.4348 23.4699 49.7154 23.0957 49.8657L22.701 49.9715L17.1427 50.7609L21.1629 54.6061C21.5602 54.986 21.7462 55.537 21.6512 56.0791L20.6991 61.5072L25.6755 58.9355C25.92 58.8092 26.1893 58.7484 26.4567 58.7484C26.7215 58.7485 26.9888 58.8085 27.2339 58.9355L32.2103 61.5072L31.2663 56.0791C31.1734 55.5399 31.3547 54.986 31.7505 54.6061L35.7625 50.7609L30.2124 49.9715C29.6666 49.8946 29.1895 49.5543 28.9429 49.0641L26.4526 44.1081L23.9665 49.0682ZM29.0527 28.4505C29.0518 27.0561 27.8948 25.9074 26.4567 25.9074C25.0186 25.9074 23.8616 27.0561 23.8607 28.4505C23.8607 29.8458 25.018 30.9977 26.4567 30.9977C27.8954 30.9977 29.0527 29.8457 29.0527 28.4505ZM18.0786 2.4821V23.0021H14.7664C8.02704 23.0021 2.53107 17.6162 2.53092 10.9782V2.4821H18.0786ZM33.138 2.4821V23.0021H19.7713V2.4821H33.138ZM49.5524 3.31624H35.673V22.168H38.151C44.4441 22.168 49.5523 17.142 49.5524 10.9782V3.31624ZM20.6055 22.168H32.3079V3.31624H20.6055V22.168ZM46.6715 53.4831C46.6715 64.4424 37.5953 73.348 26.4567 73.348C15.3182 73.3471 6.24186 64.4425 6.24186 53.4831C6.24275 42.5245 15.3187 33.6222 26.4567 33.6222C37.5948 33.6214 46.6707 42.5245 46.6715 53.4831ZM29.8869 28.4505C29.8869 30.3199 28.3415 31.8278 26.4567 31.8278C24.5719 31.8278 23.0265 30.32 23.0265 28.4505C23.0275 26.5819 24.5724 25.0732 26.4567 25.0732C28.3409 25.0733 29.8859 26.5819 29.8869 28.4505ZM3.36507 10.9782C3.36522 17.142 8.47318 22.168 14.7664 22.168H17.2445V3.31624H3.36507V10.9782ZM50.3866 10.9782C50.3864 17.6162 44.8902 23.0021 38.151 23.0021H34.8389V2.4821H50.3866V10.9782ZM52.9134 10.9782C52.9134 18.986 46.2824 25.4883 38.147 25.4883H31.5674C32.096 26.3544 32.4176 27.3606 32.4178 28.4505C32.4178 29.6575 32.0239 30.7614 31.3883 31.6854C41.5574 33.905 49.1975 42.821 49.1984 53.4831C49.1984 65.813 38.9906 75.8301 26.4567 75.8301C13.9229 75.8301 3.71501 65.813 3.71501 53.4831C3.71594 42.8234 11.3514 33.9083 21.5169 31.6854C20.8827 30.7619 20.4956 29.6553 20.4956 28.4505C20.4958 27.3606 20.8136 26.354 21.342 25.4883H14.7624C6.6282 25.4876 0 18.9856 0 10.9782V1.66016C0 0.735441 0.758695 2.49313e-05 1.6805 0H51.2329C52.1542 0 52.9134 0.736656 52.9134 1.66016V10.9782Z" fill="white"/>
</svg>
