<svg width="75" height="50" viewBox="0 0 75 50" fill="none" xmlns="http://www.w3.org/2000/svg">
<path d="M74.3612 17.1797L66.2007 2.44467C66.1239 2.30628 66.041 2.17193 65.952 2.04161C65.8624 1.9113 65.7673 1.78617 65.6662 1.66565C65.565 1.54514 65.4589 1.43039 65.3467 1.32083C65.235 1.21127 65.1184 1.10806 64.9968 1.01061C64.8752 0.91316 64.7492 0.822054 64.6187 0.73729C64.4888 0.653103 64.3545 0.575259 64.2174 0.504334C64.0798 0.433409 63.9393 0.369981 63.7956 0.313471C63.6519 0.256962 63.506 0.207949 63.3578 0.166432C63.2097 0.124915 63.0599 0.0914712 62.909 0.0655232C62.7575 0.0389984 62.605 0.0211232 62.4524 0.0101673C62.2993 -0.000211857 62.1462 -0.00251854 61.9925 0.00267119C61.8394 0.00786077 61.6868 0.0205464 61.5343 0.041305C61.3822 0.06264 61.2319 0.0908946 61.0821 0.127222C60.9328 0.163549 60.7858 0.207373 60.6404 0.259269C60.4951 0.310588 60.3524 0.369404 60.2131 0.435139C60.0733 0.501451 59.9368 0.574682 59.8041 0.654256L58.5233 1.42405C58.2011 1.61895 57.9059 1.85075 57.6367 2.11946C57.3681 2.38816 57.1331 2.6857 56.933 3.01265C56.7324 3.34017 56.5715 3.6873 56.4505 4.05461C56.3294 4.42192 56.252 4.79845 56.2172 5.18537L53.4484 4.02981C52.5855 3.66942 51.6983 3.39783 50.7857 3.21447C49.8736 3.03168 48.9527 2.93999 48.0235 2.94115H42.8756C41.7706 2.94461 40.68 3.07781 39.6038 3.34075C38.5281 3.60311 37.4944 3.98887 36.5022 4.49688L27.6535 3.34651C26.5424 3.20178 25.4297 3.19025 24.3159 3.31249C23.2026 3.43474 22.117 3.68787 21.059 4.07075L18.7186 4.92473C18.6683 4.56319 18.5798 4.21203 18.4538 3.87124C18.3272 3.53046 18.1663 3.20812 17.9701 2.9054C17.7744 2.60267 17.5484 2.32647 17.2924 2.07621C17.037 1.82653 16.7579 1.60972 16.455 1.42578L15.1847 0.655986C15.0521 0.575835 14.9161 0.503181 14.7762 0.436869C14.6364 0.371134 14.4938 0.312318 14.3489 0.260999C14.2036 0.209102 14.056 0.165279 13.9067 0.128952C13.7575 0.0926245 13.6066 0.0643701 13.4546 0.0430349C13.3026 0.0222764 13.15 0.00901416 12.9963 0.00382444C12.8432 -0.00136514 12.6901 0.00151787 12.537 0.0118972C12.3839 0.0222763 12.2318 0.0407284 12.0804 0.0666764C11.9289 0.0932012 11.7791 0.126645 11.631 0.168162C11.4828 0.209679 11.3369 0.258692 11.1937 0.315201C11.05 0.371711 10.9096 0.435139 10.772 0.506064C10.6343 0.576989 10.5006 0.654256 10.3701 0.73902C10.2402 0.823784 10.1142 0.91489 9.99258 1.01234C9.87097 1.10979 9.75378 1.213 9.64213 1.32256C9.53047 1.43212 9.42378 1.54687 9.32263 1.66738C9.22147 1.7879 9.12639 1.91303 9.0374 2.04334C8.94785 2.17308 8.86493 2.30744 8.78865 2.4464L0.627597 17.1797C0.550762 17.3181 0.481114 17.4605 0.417545 17.6058C0.353977 17.7517 0.298148 17.9005 0.248399 18.0522C0.199202 18.2032 0.157192 18.3572 0.122368 18.5129C0.0875434 18.6686 0.0599049 18.826 0.0400054 18.9846C0.0201057 19.1431 0.00739228 19.3028 0.00241726 19.4626C-0.00255761 19.6223 0.000206266 19.782 0.010156 19.9417C0.0201057 20.1015 0.0377943 20.2606 0.0626689 20.418C0.0875434 20.576 0.120157 20.7323 0.159956 20.8868C0.199755 21.0414 0.24674 21.1936 0.300912 21.3435C0.35453 21.4929 0.415887 21.6399 0.483878 21.7829C0.551315 21.9265 0.625939 22.066 0.707196 22.2021C0.788452 22.3382 0.875237 22.4691 0.968654 22.5959C1.06262 22.7228 1.16157 22.8451 1.2666 22.9615C1.37162 23.0786 1.48162 23.1893 1.59715 23.2948C1.71213 23.4003 1.83263 23.4995 1.957 23.5924C2.08193 23.6858 2.21072 23.7723 2.34394 23.8518L3.62304 24.6234C3.97737 24.8367 4.35214 24.9987 4.74737 25.1089C5.1426 25.219 5.54446 25.2744 5.95406 25.2744C6.451 25.2651 6.93467 25.1758 7.40452 25.0057L11.1882 30.2316C11.1573 30.3256 11.1291 30.4207 11.1036 30.5165C11.0782 30.6122 11.0556 30.7085 11.0362 30.8059C11.0163 30.9028 10.9992 31.0008 10.9848 31.0988C10.9704 31.1969 10.9588 31.2955 10.95 31.3947C10.9411 31.4938 10.9356 31.593 10.9323 31.6922C10.9295 31.7914 10.929 31.8906 10.9317 31.9903C10.9345 32.0895 10.9395 32.1887 10.9478 32.2873C10.9561 32.3864 10.9671 32.485 10.9809 32.5837C10.9947 32.6817 11.0113 32.7797 11.0307 32.8772C11.05 32.974 11.0721 33.0709 11.097 33.1666C11.1219 33.2623 11.1495 33.3575 11.1799 33.452C11.2103 33.546 11.2429 33.6394 11.2789 33.7317C11.3142 33.8234 11.3524 33.9145 11.3933 34.0045C11.4342 34.0944 11.4773 34.1826 11.5232 34.2697C11.5691 34.3568 11.6172 34.4427 11.668 34.5269C11.7183 34.6111 11.7714 34.6935 11.8267 34.7742C11.8825 34.855 11.94 34.934 11.9997 35.0112C12.0594 35.0885 12.1218 35.164 12.186 35.2373C12.2501 35.3111 12.3159 35.3826 12.3844 35.4518C12.4524 35.521 12.5226 35.5884 12.5945 35.6536C12.6669 35.7182 12.7404 35.781 12.8161 35.8416C12.8918 35.9021 12.9692 35.9598 13.0477 36.0157C13.1268 36.0717 13.2069 36.1247 13.2893 36.1754C13.3711 36.2262 13.4546 36.274 13.5391 36.3196C13.6237 36.3652 13.7094 36.4078 13.7967 36.4482C13.8835 36.4885 13.972 36.526 14.0609 36.5606C14.1505 36.5952 14.2406 36.6275 14.3318 36.6563C14.4225 36.6858 14.5142 36.7123 14.6071 36.7353C14.6994 36.759 14.7928 36.7797 14.8862 36.7976C14.9802 36.8149 15.0742 36.8299 15.1687 36.842C15.2632 36.8536 15.3583 36.8628 15.4534 36.8685C15.5484 36.8749 15.6435 36.8778 15.7386 36.8783C15.8171 36.8783 15.895 36.8783 15.9757 36.8685C15.994 37.0185 16.0183 37.1667 16.0487 37.3143C16.0797 37.4619 16.1167 37.6078 16.1604 37.7519C16.2035 37.8961 16.2532 38.0379 16.3091 38.1769C16.3649 38.3164 16.4262 38.4531 16.4942 38.5863C16.5617 38.7201 16.6352 38.8498 16.7137 38.9767C16.7927 39.103 16.8767 39.2258 16.9668 39.3446C17.0564 39.4634 17.1509 39.5775 17.2499 39.6871C17.3494 39.7966 17.4538 39.9016 17.5622 40.0013C17.6711 40.1011 17.7833 40.1957 17.9005 40.285C18.0171 40.3744 18.1376 40.458 18.2614 40.5359C18.3858 40.6137 18.5129 40.6852 18.6428 40.751C18.7733 40.8167 18.9065 40.8767 19.0419 40.9297C19.1774 40.9828 19.3144 41.03 19.4543 41.0698C19.5936 41.1102 19.7345 41.1442 19.8772 41.1707C20.0198 41.1978 20.1629 41.218 20.3072 41.2313C20.4515 41.2445 20.5958 41.2515 20.7406 41.2509C20.8185 41.2509 20.8965 41.2232 20.9744 41.2203C20.9915 41.3702 21.0153 41.5196 21.0457 41.6678C21.0756 41.816 21.112 41.9624 21.1552 42.1072C21.1977 42.2519 21.2469 42.3943 21.3022 42.5339C21.3575 42.674 21.4188 42.8112 21.4863 42.9456C21.5537 43.0794 21.6267 43.2103 21.7052 43.3377C21.7837 43.4651 21.8677 43.5879 21.9572 43.7073C22.0468 43.8267 22.1413 43.9414 22.2402 44.0521C22.3397 44.1623 22.4442 44.2678 22.5526 44.3681C22.6615 44.4684 22.7742 44.5636 22.8909 44.6535C23.008 44.7435 23.1285 44.8271 23.2524 44.9055C23.3767 44.9839 23.5044 45.056 23.6349 45.1223C23.7653 45.1886 23.8985 45.2486 24.0345 45.3022C24.17 45.3559 24.3081 45.4032 24.448 45.4435C24.5878 45.4839 24.7288 45.5179 24.872 45.545C25.0146 45.5721 25.1583 45.5923 25.3031 45.6055C25.4474 45.6194 25.5922 45.6257 25.7376 45.6257C25.8155 45.6257 25.8935 45.6096 25.9698 45.6061C25.988 45.756 26.0118 45.9048 26.0427 46.0524C26.0731 46.2 26.1102 46.3459 26.1533 46.4907C26.197 46.6348 26.2461 46.7767 26.302 46.9162C26.3573 47.0558 26.4192 47.1924 26.4866 47.3262C26.554 47.4594 26.627 47.5897 26.706 47.7166C26.7845 47.8434 26.8686 47.9662 26.9581 48.085C27.0477 48.2038 27.1422 48.3186 27.2411 48.4287C27.3406 48.5383 27.4445 48.6432 27.5534 48.7435C27.6618 48.8439 27.7745 48.9384 27.8912 49.0278C28.0078 49.1172 28.1283 49.2014 28.2521 49.2792C28.376 49.3576 28.5031 49.4297 28.6335 49.4955C28.764 49.5618 28.8967 49.6217 29.0321 49.6754C29.1675 49.729 29.3052 49.7757 29.4445 49.8166C29.5843 49.857 29.7253 49.891 29.8679 49.9181C30.0099 49.9452 30.1537 49.966 30.2979 49.9792C30.4422 49.9931 30.5865 50 30.7313 50C30.8734 50 31.0171 50 31.1602 49.9792C31.4764 49.9516 31.7865 49.8922 32.0911 49.7999C32.3951 49.7082 32.6881 49.5866 32.9695 49.4338C33.2508 49.2815 33.5145 49.1016 33.7616 48.8946C34.0087 48.6876 34.2336 48.457 34.4365 48.2032L36.3773 45.7901L38.019 47.3539C38.176 47.5055 38.3418 47.6462 38.517 47.7748C38.6923 47.9034 38.8747 48.0193 39.0648 48.1219C39.2544 48.2251 39.4507 48.3145 39.6519 48.3906C39.8531 48.4662 40.0587 48.5279 40.2682 48.5746C40.4777 48.6219 40.6889 48.6542 40.9022 48.672C41.1156 48.6893 41.3295 48.6922 41.5434 48.6795C41.7574 48.6674 41.9691 48.6403 42.1797 48.5982C42.3903 48.5561 42.597 48.5002 42.7999 48.4293C43.0027 48.3583 43.2006 48.2736 43.393 48.175C43.5854 48.077 43.7705 47.9657 43.948 47.8411C44.126 47.7166 44.2957 47.5805 44.456 47.4329C44.6163 47.2847 44.7666 47.1267 44.907 46.9577C45.0469 46.7888 45.1757 46.6106 45.2929 46.4238C45.41 46.237 45.5151 46.0426 45.6074 45.8408C45.6997 45.6396 45.7787 45.4326 45.8445 45.2198C45.9103 45.007 45.9623 44.7908 46.0004 44.5711C46.2386 44.6126 46.4791 44.6351 46.7212 44.6391C46.976 44.6409 47.2292 44.6213 47.4813 44.5803C47.7333 44.5394 47.9804 44.4777 48.2225 44.3958C48.4652 44.3133 48.6996 44.2118 48.9262 44.0902C49.1534 43.9691 49.3695 43.8295 49.5746 43.6721C49.7802 43.5147 49.972 43.3411 50.1506 43.1514C50.3297 42.9617 50.4927 42.7588 50.6403 42.5414C50.7874 42.3246 50.9178 42.0968 51.03 41.8586C51.1428 41.6199 51.2362 41.3737 51.3108 41.1194C51.8713 41.3443 52.4517 41.4567 53.052 41.4562C53.125 41.4562 53.2002 41.4562 53.2737 41.4562C53.4312 41.4487 53.5882 41.4331 53.7447 41.4095C53.9011 41.3864 54.0559 41.3547 54.2095 41.3155C54.3627 41.2763 54.5141 41.229 54.6628 41.1742C54.8121 41.1188 54.958 41.0566 55.1012 40.9868C55.2443 40.917 55.3836 40.8398 55.5196 40.7561C55.655 40.672 55.7866 40.5808 55.9143 40.4834C56.0414 40.3854 56.1636 40.2816 56.2813 40.1714C56.3985 40.0613 56.5107 39.9454 56.6174 39.8237C56.7235 39.7021 56.8241 39.5752 56.9187 39.4432C57.0137 39.3111 57.1016 39.1745 57.1834 39.0338C57.2652 38.8925 57.3399 38.7478 57.4084 38.599C57.4764 38.4502 57.5372 38.2986 57.5908 38.1435C57.645 37.9889 57.6914 37.8315 57.7301 37.6718C57.7694 37.5121 57.8003 37.3506 57.8241 37.188C57.8479 37.0248 57.8639 36.861 57.8727 36.6967C57.881 36.5318 57.8816 36.3675 57.8744 36.2025C57.8445 35.6992 57.7445 35.2108 57.5748 34.7379C57.797 34.6607 58.0131 34.5667 58.2221 34.4554C58.431 34.3441 58.6306 34.2172 58.8213 34.0748C59.012 33.9324 59.1911 33.7755 59.3591 33.6049C59.5272 33.4342 59.6825 33.2514 59.824 33.0565C59.9655 32.8616 60.0926 32.6569 60.2049 32.4418C60.3171 32.2273 60.4132 32.0047 60.4934 31.7746C60.5735 31.5452 60.6371 31.3099 60.683 31.07C60.7294 30.8301 60.7582 30.5885 60.7698 30.344L65.7275 23.834C65.9083 24.0231 66.1029 24.1955 66.3107 24.3512C66.518 24.5075 66.7369 24.6441 66.9663 24.7629C67.1951 24.8811 67.4323 24.9791 67.6772 25.057C67.922 25.1348 68.1713 25.1913 68.4245 25.2265C68.6782 25.2617 68.933 25.2755 69.189 25.2669C69.4444 25.2588 69.6981 25.2288 69.949 25.1769C70.2 25.125 70.4454 25.0524 70.6848 24.959C70.9247 24.865 71.1552 24.7519 71.3768 24.6187L72.6565 23.8472C72.7892 23.7671 72.9179 23.6806 73.0429 23.5877C73.1672 23.4943 73.2877 23.3952 73.4033 23.2902C73.5183 23.1847 73.6288 23.0734 73.7333 22.9569C73.8383 22.8399 73.9378 22.7182 74.0312 22.5913C74.1246 22.4645 74.212 22.333 74.2927 22.1969C74.3739 22.0614 74.4486 21.9219 74.5166 21.7783C74.584 21.6347 74.6453 21.4883 74.6995 21.3383C74.7537 21.1884 74.8001 21.0368 74.8399 20.8822C74.8797 20.7277 74.9123 20.5714 74.9372 20.4134C74.9621 20.2554 74.9798 20.0969 74.9897 19.9371C75.0002 19.7774 75.0024 19.6177 74.9975 19.4574C74.9925 19.2977 74.9798 19.1385 74.9599 18.9799C74.94 18.8214 74.9123 18.664 74.8775 18.5083C74.8427 18.352 74.8007 18.1986 74.7515 18.047C74.7023 17.8953 74.6459 17.7471 74.5823 17.6012C74.5193 17.4553 74.4491 17.3135 74.3723 17.1745L74.3612 17.1797ZM7.31111 21.2092C7.2597 21.3014 7.20055 21.3879 7.13311 21.4686C7.06568 21.5488 6.99105 21.6215 6.9098 21.6866C6.82854 21.7518 6.74176 21.8077 6.65 21.855C6.55824 21.9023 6.46261 21.9397 6.36366 21.9674C6.26472 21.9951 6.16411 22.0124 6.06185 22.0193C5.96014 22.0262 5.85788 22.0228 5.75617 22.0089C5.65502 21.9951 5.55552 21.9709 5.45878 21.9363C5.3615 21.9023 5.26863 21.8584 5.18019 21.8048L3.90053 21.035C3.81154 20.9814 3.72862 20.9197 3.65123 20.8494C3.57385 20.7784 3.50365 20.7012 3.44118 20.6158C3.37817 20.5311 3.32455 20.4405 3.27867 20.3442C3.23334 20.2485 3.19741 20.1488 3.17088 20.045C3.14435 19.9418 3.12776 19.8362 3.12058 19.7296C3.11394 19.6223 3.11781 19.5156 3.13108 19.4095C3.14435 19.3034 3.16812 19.1996 3.20128 19.0981C3.23445 18.9967 3.27646 18.8998 3.32842 18.807L11.4862 4.06556C11.5376 3.97273 11.5973 3.88623 11.6647 3.80551C11.7327 3.72478 11.8073 3.65212 11.8891 3.58697C11.9709 3.52181 12.0577 3.4653 12.15 3.41859C12.2423 3.37131 12.3385 3.33383 12.4375 3.30615C12.537 3.27905 12.6381 3.26175 12.7409 3.25541C12.8432 3.24849 12.9455 3.25252 13.0472 3.26694C13.1494 3.28135 13.2489 3.30615 13.3462 3.34132C13.443 3.37592 13.5364 3.4209 13.6248 3.4751L14.9056 4.24605C14.9946 4.29967 15.0775 4.36195 15.1543 4.4323C15.2312 4.50264 15.3008 4.57991 15.3633 4.66525C15.4257 4.75002 15.4793 4.83997 15.5247 4.93569C15.57 5.03199 15.6059 5.13116 15.6325 5.23438C15.659 5.3376 15.6756 5.44254 15.6822 5.54922C15.6888 5.65589 15.6855 5.76199 15.6723 5.86809C15.659 5.97419 15.6358 6.0774 15.6032 6.17889C15.57 6.2798 15.528 6.37667 15.4766 6.46951L7.31111 21.2092ZM14.6436 33.2116C14.5579 33.1366 14.4805 33.0536 14.4103 32.9631C14.3406 32.872 14.2798 32.7751 14.2284 32.6713C14.1765 32.5681 14.1356 32.4603 14.1041 32.349C14.0731 32.2371 14.0521 32.1229 14.0427 32.007C14.0328 31.8905 14.0344 31.7746 14.0466 31.6587C14.0587 31.5434 14.0814 31.4298 14.1151 31.3185C14.1488 31.2072 14.1925 31.1012 14.2461 30.9985C14.2997 30.8964 14.3628 30.8007 14.4346 30.7119L18.0834 26.1745C18.1542 26.0816 18.2332 25.9969 18.32 25.9208C18.4068 25.8441 18.4997 25.7778 18.5997 25.7207C18.6992 25.6636 18.8031 25.618 18.912 25.5829C19.0204 25.5477 19.1309 25.524 19.2442 25.5119C19.357 25.4998 19.4703 25.4998 19.5831 25.5114C19.6964 25.5229 19.807 25.5465 19.9159 25.5811C20.0242 25.6157 20.1281 25.6619 20.2282 25.7184C20.3282 25.7749 20.4216 25.8412 20.5084 25.9173C20.5958 25.9934 20.6743 26.0776 20.7456 26.1704C20.8163 26.2633 20.8777 26.3625 20.9291 26.4674C20.981 26.5729 21.0225 26.6831 21.0529 26.7967C21.0839 26.9108 21.1032 27.0273 21.112 27.1455C21.1203 27.2637 21.1176 27.3814 21.1032 27.499C21.0888 27.6166 21.0634 27.7314 21.0275 27.8438C20.991 27.9562 20.9446 28.0635 20.8876 28.1661C20.8307 28.2688 20.7644 28.3639 20.6892 28.4527L17.0431 32.9884C16.9713 33.0778 16.8917 33.1591 16.8049 33.2318C16.7175 33.305 16.6241 33.3684 16.5252 33.4221C16.4262 33.4763 16.3229 33.5195 16.2156 33.5524C16.1084 33.5847 15.9989 33.606 15.8878 33.6164C15.7762 33.6268 15.6651 33.6256 15.554 33.6129C15.4429 33.6002 15.334 33.576 15.2273 33.5414C15.1212 33.5063 15.0189 33.4607 14.9205 33.4048C14.8227 33.3488 14.7309 33.2831 14.6452 33.2081L14.6436 33.2116ZM19.6362 37.5841C19.5505 37.5097 19.4725 37.4267 19.4023 37.3362C19.3321 37.2451 19.2713 37.1482 19.2199 37.045C19.168 36.9418 19.1265 36.8339 19.095 36.7221C19.064 36.6102 19.0436 36.496 19.0336 36.3801C19.0237 36.2642 19.0248 36.1478 19.037 36.0324C19.0491 35.9165 19.0723 35.8029 19.1055 35.6917C19.1392 35.5804 19.1829 35.4737 19.2371 35.3716C19.2907 35.2696 19.3537 35.1738 19.4256 35.0845L24.1152 29.2554C24.1876 29.1666 24.2672 29.0864 24.3546 29.0138C24.4425 28.9417 24.5353 28.8788 24.6348 28.8252C24.7338 28.7722 24.8371 28.7295 24.9444 28.6966C25.0516 28.6643 25.1605 28.6436 25.2722 28.6332C25.3833 28.6234 25.4944 28.6246 25.6049 28.6367C25.716 28.6493 25.8249 28.673 25.9311 28.7076C26.0378 28.7422 26.14 28.7872 26.2384 28.8425C26.3362 28.8979 26.4286 28.963 26.5142 29.0368C26.5999 29.1118 26.6773 29.1948 26.7475 29.2859C26.8172 29.3765 26.878 29.4739 26.9294 29.5771C26.9808 29.6803 27.0222 29.7882 27.0537 29.9C27.0847 30.0119 27.1051 30.1255 27.1151 30.2414C27.125 30.3573 27.1234 30.4732 27.1118 30.5891C27.0996 30.705 27.077 30.8186 27.0432 30.9293C27.0101 31.0406 26.9664 31.1473 26.9128 31.2493C26.8592 31.352 26.7967 31.4477 26.7248 31.5371L22.0495 37.3598C21.9777 37.4498 21.8981 37.5311 21.8113 37.6049C21.724 37.6781 21.6305 37.7421 21.5316 37.7963C21.4321 37.8505 21.3287 37.8938 21.2215 37.9272C21.1137 37.9601 21.0043 37.9814 20.8926 37.9918C20.7815 38.0028 20.6698 38.0016 20.5582 37.9889C20.4471 37.9762 20.3376 37.9526 20.2309 37.9174C20.1243 37.8828 20.0214 37.8373 19.923 37.7813C19.8246 37.7248 19.7329 37.6597 19.6467 37.5841H19.6362ZM24.6282 41.9607C24.5431 41.8858 24.4651 41.8027 24.3955 41.7116C24.3258 41.6205 24.265 41.5236 24.2136 41.4198C24.1617 41.3166 24.1202 41.2094 24.0892 41.0975C24.0577 40.9851 24.0373 40.8715 24.0279 40.7556C24.0179 40.6391 24.019 40.5232 24.0312 40.4073C24.0434 40.2914 24.066 40.1778 24.0992 40.0671C24.1329 39.9558 24.1766 39.8491 24.2302 39.7465C24.2833 39.6444 24.3463 39.5487 24.4176 39.4593L28.0636 34.9282C28.2074 34.7477 28.3793 34.603 28.5788 34.4946C28.7784 34.3856 28.9906 34.3216 29.2151 34.302C29.2665 34.302 29.3179 34.302 29.3709 34.302C29.5329 34.302 29.6915 34.3256 29.8469 34.3729C30.0022 34.4208 30.1481 34.4894 30.2847 34.5805C30.4212 34.671 30.5428 34.78 30.6495 34.9074C30.7562 35.0343 30.8441 35.1744 30.9121 35.3272C30.9806 35.4806 31.027 35.6403 31.0519 35.8076C31.0762 35.9742 31.0784 36.1414 31.0569 36.3092C31.0359 36.4764 30.9928 36.6373 30.9275 36.7924C30.8623 36.947 30.7777 37.0888 30.6738 37.218L27.0416 41.741C26.9697 41.8298 26.8901 41.9105 26.8033 41.9838C26.716 42.0564 26.6231 42.1193 26.5242 42.1729C26.4247 42.2271 26.3219 42.2698 26.2146 42.3026C26.1074 42.3349 25.9985 42.3563 25.8868 42.3667C25.7757 42.377 25.6646 42.3759 25.5541 42.3632C25.443 42.3505 25.3341 42.3269 25.2279 42.2923C25.1213 42.2571 25.019 42.2121 24.9212 42.1562C24.8228 42.1003 24.731 42.0351 24.6453 41.9607H24.6282ZM32.0342 46.1153C31.8899 46.2963 31.7174 46.4417 31.5173 46.5506C31.3172 46.6596 31.1044 46.7236 30.8794 46.7438C30.6539 46.764 30.4328 46.7386 30.2167 46.6677C30.0005 46.5968 29.8054 46.4849 29.6318 46.3332C29.5462 46.2589 29.4682 46.1758 29.398 46.0853C29.3278 45.9948 29.267 45.8979 29.2156 45.7947C29.1637 45.6909 29.1222 45.5836 29.0907 45.4718C29.0597 45.3599 29.0393 45.2463 29.0293 45.1298C29.0194 45.0139 29.0205 44.898 29.0326 44.7821C29.0448 44.6668 29.068 44.5532 29.1012 44.4419C29.1349 44.3312 29.1786 44.2245 29.2327 44.1225C29.2864 44.0204 29.3494 43.9247 29.4212 43.8353L32.0342 40.6149C32.1784 40.4338 32.3509 40.2885 32.551 40.1795C32.7511 40.0705 32.9639 40.0065 33.1889 39.9863C33.2403 39.9863 33.2901 39.9863 33.3448 39.9863C33.5067 39.9863 33.6654 40.01 33.8207 40.0573C33.976 40.1046 34.122 40.1738 34.2585 40.2643C34.395 40.3548 34.5167 40.4638 34.6239 40.5906C34.7306 40.7175 34.8179 40.8576 34.8865 41.011C34.955 41.1638 35.0014 41.3241 35.0257 41.4908C35.0506 41.658 35.0523 41.8252 35.0313 41.9924C35.0097 42.1596 34.9666 42.3211 34.9014 42.4756C34.8362 42.6302 34.7516 42.772 34.6471 42.9012L32.0342 46.1153ZM57.2282 31.2049C57.0767 31.3797 56.8988 31.5169 56.6942 31.6167C56.4897 31.717 56.2747 31.7712 56.0491 31.781C55.8441 31.7925 55.6445 31.7648 55.4505 31.6968C55.2559 31.6288 55.0807 31.5255 54.9243 31.3872L50.6901 27.2695L50.6199 27.2014C50.5447 27.1282 50.464 27.0636 50.3767 27.0071C50.2899 26.9512 50.1987 26.9039 50.1025 26.8664C50.0068 26.8289 49.9079 26.8013 49.8067 26.784C49.7061 26.7667 49.6044 26.7598 49.5016 26.7638C49.3994 26.7672 49.2982 26.7811 49.1987 26.8053C49.0987 26.8301 49.0025 26.8641 48.9091 26.9085C48.8156 26.9523 48.7277 27.006 48.6443 27.0682C48.5608 27.1305 48.4845 27.2009 48.4143 27.2787C48.3447 27.3566 48.2828 27.4413 48.2286 27.5319C48.1744 27.623 48.1297 27.7181 48.0937 27.8184C48.0572 27.9182 48.0313 28.0208 48.0147 28.1263C47.9981 28.2319 47.9915 28.338 47.9948 28.4446C47.9981 28.5519 48.0119 28.6568 48.0351 28.7612C48.0583 28.865 48.0915 28.9659 48.1335 29.0634C48.1761 29.1602 48.2269 29.2525 48.2866 29.3396C48.3463 29.4261 48.4138 29.5062 48.4884 29.5789L54.2001 35.1289C54.3256 35.2465 54.4318 35.3814 54.5191 35.5325C54.6059 35.6836 54.67 35.8445 54.7109 36.0157C54.7518 36.1864 54.7684 36.36 54.7595 36.5364C54.7512 36.7123 54.7186 36.883 54.6611 37.049C54.6037 37.2145 54.5246 37.3685 54.4235 37.5097C54.3223 37.6504 54.2035 37.7733 54.0675 37.8776C53.9309 37.982 53.7834 38.0633 53.6242 38.1221C53.4644 38.1804 53.3002 38.2132 53.1316 38.2207C52.9078 38.2363 52.69 38.2046 52.4788 38.1262C52.2677 38.0472 52.0803 37.9284 51.9161 37.7681L46.2641 32.274L46.2265 32.2383C46.1519 32.165 46.0706 32.1004 45.9838 32.0439C45.897 31.9874 45.8053 31.9407 45.7096 31.9032C45.6135 31.8652 45.5151 31.8381 45.4139 31.8208C45.3128 31.8029 45.211 31.796 45.1088 31.7994C45.0065 31.8035 44.9054 31.8173 44.8059 31.8415C44.7058 31.8658 44.6091 31.8998 44.5162 31.9442C44.4228 31.988 44.3344 32.041 44.2514 32.1033C44.168 32.1656 44.0911 32.2359 44.0215 32.3138C43.9513 32.3922 43.8894 32.4764 43.8352 32.5669C43.781 32.658 43.7357 32.7532 43.6998 32.8535C43.6638 32.9533 43.6373 33.0559 43.6207 33.1614C43.6041 33.267 43.5975 33.373 43.6008 33.4797C43.6041 33.5864 43.6174 33.6919 43.6406 33.7963C43.6638 33.9001 43.697 34.001 43.739 34.0984C43.7816 34.1953 43.8324 34.2876 43.8921 34.3746C43.9518 34.4611 44.0193 34.5413 44.0939 34.6145L47.8737 38.3251C47.9478 38.4052 48.0141 38.4923 48.0727 38.5857C48.1308 38.6791 48.1805 38.7777 48.2209 38.881C48.2612 38.9842 48.2922 39.0903 48.3137 39.1998C48.3347 39.3088 48.3463 39.4195 48.3474 39.5308C48.3491 39.6421 48.3403 39.7528 48.3215 39.863C48.3032 39.9725 48.2745 40.0798 48.2369 40.1841C48.1987 40.2885 48.1518 40.3877 48.0959 40.4828C48.0395 40.578 47.9754 40.6668 47.9036 40.7492C47.8317 40.8311 47.7527 40.9061 47.667 40.973C47.5813 41.0398 47.4907 41.0975 47.3945 41.1465C47.2988 41.1961 47.1993 41.2353 47.096 41.2647C46.9926 41.2941 46.8881 41.3132 46.7815 41.3218C46.6748 41.3305 46.5686 41.3287 46.462 41.3166C46.3558 41.3045 46.2513 41.282 46.1491 41.2497C46.0468 41.2169 45.9484 41.1748 45.8539 41.1223C45.7594 41.0704 45.6704 41.0099 45.5869 40.9401L41.822 37.2457C41.748 37.1724 41.6673 37.1073 41.5805 37.0508C41.4937 36.9937 41.4025 36.9464 41.3068 36.9083C41.2107 36.8703 41.1123 36.842 41.0117 36.8241C40.9105 36.8063 40.8088 36.7988 40.7065 36.8017C40.6037 36.8051 40.5026 36.8184 40.4031 36.842C40.303 36.8657 40.2063 36.8997 40.1129 36.9435C40.0195 36.9868 39.9305 37.0398 39.847 37.1015C39.7635 37.1638 39.6867 37.2335 39.6165 37.3108C39.5457 37.3887 39.4833 37.4728 39.4291 37.5634C39.3744 37.6539 39.329 37.749 39.2926 37.8488C39.2561 37.9486 39.229 38.0512 39.2119 38.1567C39.1947 38.2622 39.1875 38.3683 39.1909 38.475C39.1936 38.5817 39.2063 38.6872 39.229 38.7916C39.2522 38.896 39.2843 38.9969 39.3263 39.0943C39.3683 39.1918 39.4186 39.284 39.4777 39.3711C39.5374 39.4587 39.6043 39.5389 39.6789 39.6121L42.4196 42.3298C42.5025 42.4093 42.5766 42.4958 42.6429 42.5904C42.7092 42.685 42.7662 42.7847 42.8137 42.8908C42.8607 42.9969 42.8977 43.1065 42.9248 43.2201C42.9513 43.3337 42.9674 43.449 42.9729 43.566C42.9779 43.6825 42.9718 43.799 42.9552 43.9149C42.9386 44.0302 42.9115 44.1432 42.8734 44.2534C42.8352 44.3635 42.7877 44.4684 42.7302 44.5688C42.6722 44.6691 42.6058 44.7625 42.5307 44.849C42.4555 44.9355 42.3731 45.0134 42.283 45.0826C42.1935 45.1523 42.0979 45.2117 41.9967 45.2613C41.8955 45.3109 41.7911 45.3495 41.6822 45.3772C41.5738 45.4055 41.4638 45.4216 41.3522 45.4268C41.2405 45.432 41.1294 45.4256 41.0189 45.4078C40.9089 45.3899 40.8011 45.3611 40.696 45.3213C40.591 45.2809 40.491 45.2307 40.3959 45.1696C40.3003 45.1091 40.2118 45.0393 40.1295 44.9597L38.0046 42.9369C38.0615 42.7109 38.1025 42.482 38.1279 42.2502C38.1528 42.0178 38.1627 41.7848 38.1561 41.5513C38.15 41.3184 38.1279 41.086 38.0897 40.8559C38.0522 40.6258 37.9985 40.3998 37.93 40.1772C37.8609 39.9552 37.7774 39.739 37.6796 39.5291C37.5812 39.3192 37.4695 39.1174 37.3435 38.9242C37.218 38.7305 37.0798 38.5477 36.9295 38.3747C36.7786 38.2017 36.6172 38.0408 36.4447 37.8921C36.1169 37.6066 35.7587 37.3719 35.3707 37.1868C34.9821 37.0023 34.5775 36.8743 34.1557 36.8034C34.2143 36.4136 34.2292 36.0215 34.201 35.6282C34.19 35.491 34.1739 35.3543 34.1518 35.2182C34.1297 35.0827 34.1026 34.9478 34.07 34.814C34.0374 34.6808 33.9998 34.5488 33.9567 34.4185C33.9136 34.2882 33.8655 34.1601 33.8119 34.0339C33.7588 33.9082 33.7008 33.7842 33.6372 33.6631C33.5742 33.542 33.5062 33.4244 33.4338 33.309C33.3614 33.1937 33.2845 33.0819 33.2027 32.9734C33.1215 32.865 33.0358 32.7601 32.9462 32.6592C32.8561 32.5577 32.7627 32.4608 32.6654 32.368C32.5676 32.2752 32.467 32.1864 32.3625 32.1022C32.2575 32.018 32.1503 31.9384 32.0391 31.8634C31.928 31.7885 31.8147 31.7187 31.6981 31.6536C31.5815 31.5884 31.4632 31.5284 31.3416 31.4737C31.2205 31.4189 31.0972 31.3693 30.9723 31.3255C30.8468 31.2811 30.7202 31.2424 30.592 31.2096C30.4638 31.1761 30.3344 31.1484 30.204 31.1265C30.2626 30.7379 30.2775 30.3475 30.2493 29.9548C30.2415 29.8608 30.231 29.7668 30.2183 29.6734C30.2051 29.58 30.1896 29.4866 30.1719 29.3938C30.1537 29.3015 30.1332 29.2092 30.11 29.1176C30.0873 29.0265 30.0619 28.9354 30.0337 28.846C30.0061 28.756 29.9757 28.6666 29.9425 28.5784C29.9099 28.4902 29.8751 28.4031 29.8375 28.3172C29.7999 28.2313 29.7601 28.146 29.7181 28.0623C29.6761 27.9787 29.6318 27.8963 29.5849 27.815C29.5384 27.7342 29.4898 27.6541 29.4389 27.5762C29.3881 27.4978 29.335 27.4211 29.2803 27.3462C29.225 27.2712 29.1681 27.1974 29.1089 27.1259C29.0498 27.0538 28.989 26.9841 28.926 26.916C28.8635 26.848 28.7988 26.7817 28.7325 26.7171C28.6656 26.6531 28.5976 26.5902 28.528 26.5303C28.4583 26.4697 28.387 26.4115 28.314 26.3555C28.2411 26.2996 28.1665 26.2454 28.0907 26.1941C28.015 26.1422 27.9376 26.0926 27.8591 26.0453C27.7806 25.9986 27.7005 25.9536 27.6198 25.911C27.5385 25.8689 27.4567 25.8285 27.3732 25.791C27.2903 25.7535 27.2063 25.7184 27.1212 25.6855C27.0361 25.6532 26.9504 25.6226 26.8636 25.5955C26.7768 25.5679 26.6895 25.5431 26.6016 25.5206C26.5131 25.4981 26.4247 25.4779 26.3357 25.4612C26.2461 25.4439 26.1572 25.4295 26.0671 25.4174C25.977 25.4053 25.8868 25.396 25.7967 25.3897C25.7061 25.3833 25.6154 25.3793 25.5248 25.3782C25.4341 25.377 25.3435 25.3782 25.2534 25.3822C25.1627 25.3862 25.0721 25.3932 24.982 25.403C24.8919 25.4122 24.8018 25.4243 24.7122 25.4387C24.6232 25.4537 24.5337 25.471 24.4452 25.4912C24.3568 25.5114 24.2689 25.5338 24.1816 25.5592C24.0942 25.584 24.0074 25.6117 23.9218 25.6423C23.8527 25.4335 23.7709 25.2305 23.6758 25.0328C23.5813 24.8356 23.474 24.6453 23.3552 24.4631C23.2363 24.2803 23.1064 24.1067 22.9655 23.9418C22.824 23.7775 22.6736 23.6229 22.5128 23.4793C22.3519 23.3358 22.1833 23.2037 22.0053 23.0832C21.8279 22.9627 21.6438 22.8549 21.4526 22.7603C21.2618 22.6651 21.0651 22.5838 20.8639 22.5164C20.6626 22.4483 20.4576 22.3947 20.2492 22.3555C20.0408 22.3163 19.8313 22.2915 19.6196 22.2811C19.4084 22.2707 19.1973 22.2748 18.9861 22.2938C18.7755 22.3123 18.5666 22.3457 18.3598 22.3936C18.1531 22.4414 17.9502 22.5031 17.7518 22.5786C17.5528 22.6548 17.3599 22.7436 17.1725 22.8462C16.9845 22.9488 16.8043 23.0636 16.6319 23.191C16.4589 23.3185 16.2947 23.4574 16.1394 23.6073C15.9846 23.7578 15.8392 23.9176 15.7043 24.0883L13.0367 27.3935L9.88037 23.0284C9.92293 22.9586 9.98208 22.9079 10.0224 22.8364L17.8375 8.69758L22.0822 7.14646C22.9141 6.84431 23.7675 6.64538 24.6437 6.54908C25.5193 6.45221 26.3943 6.46144 27.2682 6.57503L32.1558 7.21162L28.1449 9.83988C27.9879 9.94309 27.8354 10.0532 27.6883 10.1709C27.5413 10.2891 27.3992 10.4136 27.2632 10.5451C27.1273 10.6766 26.9968 10.8144 26.873 10.9585C26.7492 11.1027 26.632 11.252 26.5214 11.4077C26.4109 11.5628 26.307 11.7237 26.2108 11.8886C26.1146 12.0541 26.0256 12.2242 25.9443 12.3978C25.8631 12.5719 25.7896 12.7495 25.7243 12.9306C25.6586 13.1116 25.6016 13.2956 25.5524 13.4824C25.5032 13.6692 25.4623 13.8578 25.4297 14.0481C25.3977 14.2389 25.3733 14.4304 25.3584 14.6235C25.3429 14.8161 25.3363 15.0093 25.338 15.2031C25.3396 15.3968 25.3501 15.59 25.3689 15.7826C25.3883 15.9746 25.4153 16.166 25.4513 16.3557C25.4877 16.546 25.532 16.7334 25.5845 16.9191C25.637 17.1048 25.6978 17.2875 25.7669 17.4675C25.8354 17.6468 25.9123 17.8232 25.9968 17.9951C26.0814 18.1675 26.1732 18.3353 26.2727 18.499C26.3722 18.6622 26.4789 18.8208 26.5922 18.9736C26.706 19.127 26.826 19.274 26.9526 19.4159C27.0792 19.5571 27.2118 19.6921 27.35 19.8212C27.4888 19.9498 27.633 20.0715 27.7823 20.1862C27.9315 20.301 28.0858 20.4082 28.245 20.508C28.4041 20.6077 28.5672 20.7 28.7342 20.7842C28.9011 20.8678 29.0719 20.9439 29.2455 21.0114C29.4196 21.0789 29.5959 21.1382 29.775 21.1884C29.9541 21.2392 30.1354 21.2807 30.3178 21.3141C30.5008 21.347 30.6849 21.3712 30.87 21.3862C31.0547 21.4018 31.2398 21.4081 31.4256 21.4052C31.6113 21.4023 31.7959 21.3908 31.9806 21.37C32.1652 21.3499 32.3481 21.3205 32.53 21.2818C32.7124 21.2438 32.8921 21.1971 33.0695 21.1411C33.2475 21.0852 33.4222 21.0212 33.5941 20.9485L43.7191 16.6602L57.1221 28.7035C57.2044 28.782 57.2785 28.8679 57.3443 28.9619C57.4101 29.0553 57.4664 29.1545 57.514 29.26C57.561 29.3649 57.598 29.4739 57.6245 29.5869C57.6511 29.6994 57.6671 29.8141 57.6726 29.93C57.6776 30.0459 57.6721 30.1613 57.6555 30.2766C57.6389 30.3913 57.6118 30.5032 57.5742 30.6128C57.5372 30.7217 57.4897 30.8267 57.4322 30.9259C57.3752 31.0256 57.3095 31.1185 57.2348 31.2049H57.2282ZM59.5559 26.6871C59.442 26.5377 59.3199 26.3959 59.1894 26.2621L45.0297 13.5453C44.9214 13.4478 44.802 13.3677 44.6721 13.3042C44.5422 13.2408 44.4062 13.197 44.2653 13.1728C44.1237 13.1485 43.9817 13.1445 43.8391 13.1612C43.6965 13.178 43.5588 13.2143 43.4262 13.2702L32.4244 17.9328C32.2586 18.0037 32.0878 18.0573 31.9126 18.0948C31.7373 18.1323 31.5599 18.1525 31.3814 18.1559C31.2023 18.1588 31.0248 18.1444 30.8479 18.1133C30.6716 18.0816 30.4997 18.0337 30.3316 17.9685C30.1642 17.9034 30.0033 17.8232 29.8496 17.7269C29.6965 17.6312 29.5528 17.5211 29.419 17.3971C29.2853 17.2731 29.1637 17.1371 29.0537 16.99C28.9442 16.8424 28.8486 16.685 28.7668 16.5189C28.6855 16.3528 28.6192 16.1804 28.5683 16.0011C28.5175 15.8223 28.4832 15.6401 28.465 15.4545C28.4467 15.2688 28.4445 15.0825 28.4594 14.8969C28.4744 14.7106 28.5059 14.5273 28.5534 14.3473C28.6009 14.1674 28.664 13.9939 28.7424 13.8261C28.8209 13.6583 28.9138 13.4997 29.0205 13.3498C29.1277 13.1999 29.2466 13.062 29.3781 12.9352C29.5097 12.8083 29.6517 12.6959 29.8032 12.5967L36.7719 8.03966C37.2274 7.74154 37.7006 7.47802 38.1915 7.2491C38.6823 7.02018 39.1864 6.82817 39.7027 6.67306C40.2196 6.51794 40.7441 6.40147 41.2764 6.32305C41.8088 6.24463 42.3438 6.20541 42.8817 6.20599H48.0302C49.5049 6.20484 50.9272 6.48969 52.297 7.0617L57.4233 9.20213L63.9322 20.9618L59.5559 26.6871ZM71.8168 20.0473C71.7638 20.256 71.6742 20.4457 71.5482 20.617C71.4222 20.7882 71.2696 20.9278 71.0899 21.035L69.8108 21.8048C69.7218 21.8584 69.629 21.9023 69.5322 21.9363C69.435 21.9709 69.336 21.9951 69.2343 22.0089C69.1326 22.0228 69.0309 22.0262 68.9286 22.0193C68.8264 22.0124 68.7258 21.9951 68.6268 21.9674C68.5279 21.9397 68.4322 21.9023 68.3405 21.855C68.2487 21.8077 68.1619 21.7518 68.0807 21.6866C67.9994 21.6215 67.9254 21.5488 67.8579 21.4686C67.7899 21.3879 67.7308 21.3014 67.6794 21.2092L59.52 6.46951C59.4691 6.37667 59.4271 6.2798 59.3939 6.17889C59.3608 6.0774 59.3381 5.97419 59.3243 5.86809C59.311 5.76199 59.3077 5.65589 59.3143 5.54922C59.321 5.44254 59.3376 5.3376 59.3641 5.23438C59.3906 5.13116 59.4266 5.03199 59.4719 4.93569C59.5172 4.83997 59.5714 4.75002 59.6333 4.66525C59.6958 4.57991 59.7654 4.50264 59.8428 4.4323C59.9196 4.36195 60.0025 4.29967 60.091 4.24605L61.3717 3.4751C61.6133 3.32864 61.8731 3.25541 62.1523 3.25541C62.2899 3.25598 62.4259 3.27444 62.5591 3.31192C62.7592 3.36785 62.9411 3.46126 63.1047 3.59273C63.2688 3.7242 63.4021 3.88335 63.5049 4.07075L71.661 18.807C71.7654 18.9944 71.8318 19.1956 71.8588 19.4107C71.8854 19.6258 71.8716 19.838 71.8168 20.0473Z" fill="white"/>
</svg>
