<svg width="76" height="76" viewBox="0 0 76 76" fill="none" xmlns="http://www.w3.org/2000/svg">
<path d="M74.7494 1.81683C74.342 1.60032 73.8443 1.62822 73.462 1.89049C64.7896 7.81166 56.6805 10.2692 49.3477 9.18548C45.0201 8.54654 41.745 6.8591 38.2791 5.07057C33.9594 2.8429 29.4928 0.539371 22.9391 0.421659C18.3325 0.332934 13.7163 1.3491 9.16505 3.42389V1.66778C9.16505 0.978062 8.60645 0.417802 7.91505 0.417802H1.66504C0.97364 0.417802 0.415039 0.978062 0.415039 1.66778V74.1663C0.415039 74.8561 0.97364 75.4163 1.66504 75.4163H7.91505C8.60645 75.4163 9.16505 74.8561 9.16505 74.1663V58.9724C13.7125 56.7213 18.3225 55.6047 22.8928 55.6911C28.8627 55.7972 32.8788 57.8685 37.1328 60.0622C40.6278 61.8646 44.2428 63.7295 48.9827 64.4281C50.2277 64.6117 51.49 64.7032 52.7701 64.7032C59.6837 64.7032 67.1001 62.028 74.8687 56.7235C75.2113 56.4897 75.415 56.1036 75.415 55.6912V2.92078C75.415 2.45818 75.1596 2.03278 74.7494 1.81683ZM72.9157 46.2702C64.4491 51.9253 56.5256 54.2651 49.3485 53.2054C48.1136 53.0229 46.9925 52.7344 45.9232 52.4119C49.5409 51.5681 52.7531 49.6792 55.2318 47.0744C60.8255 46.5794 66.7608 44.3719 72.9161 40.4897L72.9157 46.2702ZM9.16558 15.2251C13.7159 12.9752 18.3307 11.8592 22.8933 11.9428C28.6696 12.0466 32.617 13.9902 36.7198 16.1011C34.3308 16.7562 32.136 17.8672 30.2286 19.3438C27.8486 18.625 25.4575 18.2378 22.9385 18.1926C18.329 18.1072 13.7169 19.1222 9.16558 21.1958V15.2251ZM9.16558 23.975C13.7119 21.725 18.2979 20.6062 22.8933 20.6937C24.6595 20.725 26.3559 20.9426 28.0323 21.336C26.4787 22.9861 25.2126 24.9074 24.3336 27.0346C23.8688 27.0034 23.4112 26.952 22.9374 26.9431C18.3291 26.851 13.717 27.8711 9.16567 29.9459L9.16558 23.975ZM9.16558 32.7248C13.7169 30.4737 18.3542 29.3589 22.8916 29.4424C23.1092 29.4463 23.3151 29.4748 23.5306 29.4837C23.1433 30.9848 22.9156 32.5484 22.9156 34.1683C22.9156 34.6834 22.9519 35.1906 22.9932 35.6956C22.9742 35.6956 22.9569 35.6934 22.9379 35.6934C18.3291 35.6108 13.7169 36.6219 9.16562 38.6956L9.16558 32.7248ZM9.16558 41.4746C13.713 39.2247 18.3179 38.1058 22.8916 38.1934C23.0529 38.1956 23.208 38.2073 23.3665 38.2135C23.8866 40.5673 24.8413 42.7597 26.1566 44.6922C25.1042 44.5482 24.0366 44.4645 22.9379 44.4444C18.3291 44.3546 13.7169 45.3708 9.16561 47.4455L9.16558 41.4746ZM25.4156 34.1683C25.4156 25.2086 32.7058 17.9187 41.6656 17.9187C50.6255 17.9187 57.9156 25.2086 57.9156 34.1683C57.9156 43.128 50.6255 50.418 41.6656 50.418C32.7058 50.418 25.4156 43.128 25.4156 34.1683ZM72.9157 37.5143C67.5195 41.1169 62.3358 43.3701 57.4456 44.2568C58.7431 42.2346 59.6605 39.9505 60.1019 37.4997C64.2197 36.4523 68.5171 34.5332 72.9155 31.7598L72.9157 37.5143ZM72.9157 28.7694C68.5931 31.6555 64.3867 33.6956 60.3822 34.839C60.3895 34.6147 60.4157 34.3943 60.4157 34.1683C60.4157 32.3246 60.1367 30.5456 59.6395 28.862C63.9018 27.8408 68.3532 25.8822 72.9158 23.0032L72.9157 28.7694ZM72.9157 20.0185C68.0044 23.2985 63.2505 25.4709 58.7572 26.4982C57.8046 24.3844 56.4821 22.472 54.8559 20.8593C60.5697 20.4268 66.6221 18.2031 72.916 14.2344L72.9157 20.0185ZM22.8927 2.92309C28.8626 3.02912 32.8788 5.10048 37.1328 7.29415C40.6278 9.09654 44.2428 10.9615 48.9826 11.6601C56.3839 12.7516 64.4269 10.5926 72.9155 5.2389V11.2611C65.4032 16.276 58.3055 18.6995 51.8284 18.4334C48.8969 16.535 45.4121 15.4188 41.6659 15.4188C41.426 15.4188 41.1933 15.4462 40.9561 15.4551L40.96 15.4479C40.0537 15.0093 39.1664 14.5517 38.2786 14.0941C33.9588 11.8664 29.4911 9.56289 22.9371 9.44518C18.3294 9.34753 13.7172 10.3704 9.16594 12.4463V6.20525C13.7134 3.95415 18.3224 2.84052 22.8927 2.92309ZM6.66558 72.9174H2.91557V2.91881H6.66558V72.9174ZM49.3485 61.9551C45.0209 61.3161 41.7458 59.6287 38.2799 57.8401C33.9602 55.6125 29.4936 53.3089 22.9399 53.1912C18.336 53.1092 13.7172 54.1215 9.16587 56.195V50.2242C13.7162 47.9731 18.331 46.8554 22.8936 46.9418C24.941 46.9781 26.8735 47.2504 28.7988 47.7693C31.8228 50.6303 35.7876 52.4953 40.1828 52.8418C42.5355 53.9657 45.4026 55.1503 48.9852 55.6782C50.2302 55.8618 51.4925 55.9533 52.7726 55.9533C59.1041 55.9533 65.8591 53.6832 72.917 49.2336V55.0286C64.4515 60.6825 56.5271 63.0176 49.3485 61.9551Z" fill="white"/>
<path d="M40.2186 47.2933C40.4651 47.552 40.8125 47.6992 41.1755 47.6992C41.5386 47.6992 41.886 47.552 42.1325 47.2933L52.3022 36.6451C54.8584 33.9678 54.8584 29.611 52.3022 26.9327C51.0341 25.6045 49.34 24.8731 47.5304 24.8731C45.7226 24.8731 44.0277 25.6045 42.7602 26.9327L41.1756 28.5925L39.591 26.9327C38.3216 25.6045 36.6287 24.8731 34.8207 24.8731C33.0112 24.8731 31.3171 25.6045 30.0495 26.9327C27.4933 29.6099 27.4933 33.9667 30.0495 36.6451L40.2186 47.2933ZM31.9627 28.6571C32.732 27.8532 33.7461 27.4094 34.8207 27.4094C35.8936 27.4094 36.9083 27.8532 37.6771 28.6571L40.2186 31.3202C40.7134 31.8376 41.6389 31.8376 42.1337 31.3202L44.6752 28.6571C46.2143 27.0454 48.8515 27.0477 50.3877 28.6571C52.0365 30.3832 52.0365 33.1929 50.3877 34.919L41.1755 44.5668L31.9627 34.9202C30.3152 33.1935 30.3152 30.3844 31.9627 28.6571Z" fill="white"/>
<path d="M8.74837 1.66957C8.74837 1.20962 8.37515 0.83542 7.91422 0.83542H1.66423C1.20367 0.835861 0.830078 1.20989 0.830078 1.66957V74.1671C0.830506 74.6264 1.20394 75.0008 1.66423 75.0013H7.91422C8.37489 75.0013 8.74794 74.6267 8.74837 74.1671V58.713L8.98031 58.5991C13.5796 56.3223 18.2551 55.1869 22.9004 55.2747L24.0153 55.3195C29.4877 55.6486 33.3358 57.6365 37.325 59.6937C40.8223 61.4972 44.3814 63.3278 49.0438 64.0149C50.2682 64.1955 51.5108 64.2876 52.771 64.2876C59.5753 64.2873 66.9106 61.6509 74.6338 56.3774L74.7884 56.2431C74.9225 56.0921 75 55.895 75 55.6898V2.91875C74.9993 2.61146 74.8279 2.32982 74.5565 2.18633C74.2865 2.04307 73.9522 2.06066 73.6979 2.23516C64.9755 8.19045 56.7607 10.7001 49.2879 9.596C44.884 8.94579 41.5516 7.22785 38.09 5.44154C33.7727 3.21509 29.3805 0.955604 22.9329 0.839489C18.395 0.752087 13.8384 1.75044 9.33838 3.80173L8.74837 4.07028V1.66957ZM7.08415 2.50371V73.333H2.49837V2.50371H7.08415ZM3.33252 72.4988H6.25V3.33379H3.33252V72.4988ZM22.9004 46.5263C24.4606 46.554 25.9568 46.7165 27.4333 47.0187L28.9062 47.3686L29.008 47.393L29.0853 47.4663C32.0425 50.264 35.9181 52.0873 40.214 52.4264L40.2913 52.4345L40.3605 52.4671C42.696 53.5827 45.524 54.7474 49.0478 55.2666C50.2711 55.4469 51.512 55.5351 52.771 55.5351C59.0011 55.5351 65.6806 53.3028 72.6929 48.8823L73.3317 48.4795V55.2503L73.1486 55.3764C64.6324 61.0641 56.6036 63.4497 49.2879 62.367C44.8833 61.7167 41.5522 59.9951 38.09 58.2085C33.7725 55.9819 29.3809 53.7223 22.9329 53.6064C18.3969 53.5256 13.8384 54.5226 9.33838 56.5727L8.74837 56.8413V49.9647L8.98031 49.8507C13.582 47.5742 18.263 46.4387 22.9004 46.5263ZM22.8841 47.3564C18.4736 47.2732 14.0056 48.3399 9.58252 50.4896V55.5636C13.996 53.6425 18.4756 52.6966 22.9492 52.7763C29.6074 52.8964 34.1511 55.2394 38.4725 57.4679C41.9418 59.2582 45.1597 60.9135 49.41 61.541C56.4006 62.5757 64.1562 60.3304 72.5016 54.7986V49.9769C65.6266 54.1954 59.0113 56.3693 52.771 56.3693C51.4718 56.3692 50.1904 56.275 48.9258 56.0885C45.3207 55.5574 42.4327 54.3705 40.0757 53.2483C35.6501 52.8821 31.656 51.0112 28.5929 48.1458C26.734 47.653 24.8628 47.3916 22.8841 47.3564ZM73.3317 46.4938L73.1486 46.6159C64.6313 52.3048 56.6023 54.6984 49.2879 53.6186C48.0265 53.4322 46.8851 53.1347 45.8048 52.8089L44.3115 52.3613L45.8293 52.0073C49.3655 51.1825 52.5075 49.3342 54.9316 46.7868L55.0374 46.6728L55.1961 46.6606C60.7069 46.1728 66.5784 43.9943 72.6929 40.138L73.3317 39.7352V46.4938ZM72.4976 41.2244C66.5802 44.8556 60.8545 46.9649 55.4159 47.4744C53.2423 49.7203 50.5313 51.4287 47.4853 52.402C48.1016 52.554 48.7384 52.6934 49.41 52.7926C56.3983 53.8243 64.1521 51.5738 72.4976 46.0421V41.2244ZM57.4992 34.1688C57.4992 25.4395 50.396 18.3368 41.6667 18.3362C32.9369 18.3362 25.8341 25.4392 25.8341 34.1688C25.8344 42.8981 32.937 50.0013 41.6667 50.0013C50.3958 50.0007 57.499 42.8978 57.4992 34.1688ZM47.5301 24.456C49.4555 24.456 51.2587 25.2361 52.6042 26.6452C55.3133 29.4842 55.3131 34.0934 52.6042 36.9316L42.4357 47.5802C42.109 47.9231 41.6492 48.1173 41.1743 48.1173C40.8187 48.1171 40.4738 48.0065 40.1855 47.8081L39.917 47.5802L29.7485 36.9316C27.0391 34.0922 27.0387 29.4833 29.7485 26.6452C31.0934 25.2361 32.8973 24.456 34.8226 24.456C36.7458 24.4565 38.5466 25.2368 39.8926 26.6452L41.1743 27.9879L42.4601 26.6452C43.8049 25.2365 45.6069 24.4561 47.5301 24.456ZM23.3846 37.7983L23.702 37.8105L23.7752 38.1238C24.2839 40.4256 25.216 42.5706 26.5015 44.4593L27.0264 45.2324L26.0986 45.1063C25.0628 44.9646 24.0107 44.8819 22.9289 44.8621C18.3888 44.7738 13.8384 45.773 9.33838 47.8244L8.74837 48.0929V41.2163L8.98031 41.1023C13.5784 38.8273 18.2484 37.6895 22.8963 37.778L23.3846 37.7983ZM47.5301 25.2902C45.8387 25.2902 44.2524 25.9725 43.0623 27.2189L41.4754 28.879L41.1743 29.1964L40.8732 28.879L39.2904 27.2189C38.0986 25.9722 36.5136 25.2907 34.8226 25.2902C33.1291 25.2902 31.5409 25.9722 30.3507 27.2189C27.9484 29.7351 27.9482 33.8405 30.3507 36.3579L40.5192 47.0065C40.6853 47.1808 40.9234 47.2828 41.1743 47.2832C41.4251 47.2832 41.6631 47.1804 41.8294 47.0065L52.002 36.3579C54.4041 33.8417 54.4044 29.7362 52.002 27.2189C50.8111 25.9718 49.2238 25.2902 47.5301 25.2902ZM21.1955 38.6325C17.3286 38.812 13.4407 39.8619 9.58252 41.7371V46.8152C13.9951 44.8929 18.4663 43.9408 22.9451 44.028C23.7546 44.0428 24.547 44.101 25.3296 44.1826C24.2856 42.4823 23.5094 40.605 23.0347 38.6121C22.9865 38.61 22.9361 38.6088 22.8841 38.608L21.1955 38.6325ZM34.8226 26.991C35.865 26.9915 36.8544 27.3712 37.6506 28.0571L37.9801 28.3704L40.5192 31.0315C40.8499 31.3774 41.5028 31.3774 41.8335 31.0315L44.3726 28.3704C46.0758 26.5868 48.9874 26.5894 50.6877 28.3704C52.4902 30.2575 52.4902 33.3192 50.6877 35.2064L41.4754 44.854L41.1743 45.1714L40.8732 44.854L31.661 35.2064C29.8608 33.3188 29.8607 30.2584 31.661 28.3704C32.5054 27.488 33.6294 26.991 34.8226 26.991ZM73.3317 37.7373L73.1486 37.8593C67.7184 41.4847 62.4798 43.7674 57.5195 44.6668L56.5796 44.8377L57.0964 44.032C58.3647 42.0549 59.2609 39.8196 59.6924 37.424L59.7412 37.1635L59.9976 37.0944C64.0652 36.0597 68.3238 34.1607 72.6929 31.4059L73.3317 31.0031V37.7373ZM34.8226 27.8252C33.8666 27.8252 32.9573 28.219 32.2632 28.9441C30.7695 30.5103 30.7698 33.067 32.2632 34.6326L41.1743 43.9629L50.0854 34.6326C51.5804 33.0676 51.5804 30.5092 50.0854 28.9441C48.7131 27.5074 46.3494 27.5047 44.9748 28.9441L42.4357 31.6093C41.7769 32.2981 40.5759 32.2979 39.917 31.6093L37.3739 28.9441C36.6809 28.2203 35.7756 27.8257 34.8226 27.8252ZM72.4976 32.5005C68.3788 35.0265 64.3442 36.8099 60.4533 37.8309C60.0496 39.907 59.3175 41.8625 58.3008 43.6414C62.7924 42.673 67.5465 40.5658 72.4976 37.2856V32.5005ZM22.4976 34.1688C22.4976 32.6831 22.6917 31.247 23.0143 29.8637L22.8841 29.8597C18.4976 29.7789 14.0073 30.8393 9.58252 32.9887V38.0628C13.8629 36.1995 18.1987 35.261 22.5423 35.2796C22.5167 34.916 22.4976 34.5452 22.4976 34.1688ZM73.3317 28.993L73.1486 29.115C68.7994 32.0189 64.5526 34.081 60.498 35.2389L59.9487 35.3976L59.965 34.8239C59.9689 34.7036 59.9783 34.5837 59.9853 34.478C59.9927 34.3678 59.9975 34.2667 59.9976 34.1688C59.9976 32.3677 59.7271 30.6282 59.2407 28.9808L59.1146 28.5576L59.5418 28.4559C63.7513 27.4473 68.1607 25.5091 72.6929 22.6494L73.3317 22.2466V28.993ZM22.9004 20.2772C24.6967 20.3089 26.4244 20.5322 28.1291 20.9323L28.833 21.095L28.3366 21.6199C26.8162 23.2348 25.5781 25.116 24.7192 27.1945L24.6053 27.4712L24.3042 27.4508C23.8146 27.4179 23.3899 27.37 22.9289 27.3613C18.3896 27.2706 13.8388 28.272 9.33838 30.3235L8.74837 30.5921V23.7155L8.98031 23.6015C13.578 21.3262 18.2299 20.1883 22.9004 20.2772ZM22.8841 21.1113C18.4415 21.0269 14.001 22.0918 9.58252 24.2404V29.3144C13.9949 27.3919 18.4665 26.4378 22.9451 26.5272C23.3256 26.5343 23.7088 26.5716 24.0682 26.6004C24.8626 24.7622 25.9399 23.0806 27.238 21.5955C25.8165 21.3052 24.3756 21.1377 22.8841 21.1113ZM73.3317 20.2405L73.1486 20.3667C68.2062 23.6675 63.4043 25.8644 58.8501 26.9056L58.5164 26.9788L58.3781 26.6696C57.4462 24.6016 56.1508 22.7323 54.5614 21.1561L53.9144 20.5132L54.8258 20.444C60.454 20.0177 66.4402 17.8234 72.6929 13.8807L73.3317 13.4778V20.2405ZM72.4976 14.9793C66.7041 18.5336 61.0983 20.6251 55.7536 21.1927C57.062 22.6159 58.1496 24.2401 58.9844 26.0063C63.2666 24.9773 67.8008 22.9016 72.4976 19.7889V14.9793ZM22.9004 11.5247C28.7797 11.6304 32.8009 13.6178 36.91 15.7321L37.8621 16.2204L36.8286 16.5011C34.4933 17.1416 32.3498 18.2314 30.485 19.6749L30.3141 19.8051L30.1066 19.7441C27.7631 19.0365 25.4115 18.6535 22.9329 18.6089C18.3923 18.5251 13.8381 19.5251 9.33838 21.5752L8.74837 21.8437V14.9671L8.98031 14.8532C13.5823 12.5777 18.2631 11.4399 22.9004 11.5247ZM22.8841 12.3589C18.4737 12.2783 14.0051 13.3399 9.58252 15.4879V20.5661C13.9951 18.6449 18.4661 17.6919 22.9451 17.7747C25.4302 17.8193 27.792 18.1998 30.1392 18.8896C31.7783 17.6488 33.6192 16.6691 35.6079 16.0047C31.8394 14.092 28.1316 12.4531 22.8841 12.3589ZM22.9004 2.50778C28.9762 2.61575 33.0703 4.72859 37.325 6.92266C40.8227 8.72643 44.3809 10.5608 49.0438 11.248C56.3169 12.3205 64.26 10.2065 72.6929 4.88815L73.3317 4.48532V11.484L73.1486 11.6061C65.5916 16.6509 58.405 19.1199 51.8107 18.8489L51.6968 18.8449L51.6032 18.7838C48.7362 16.9272 45.3284 15.8339 41.6667 15.8338C41.5615 15.8338 41.4533 15.8422 41.3371 15.8501C41.2249 15.8576 41.0972 15.8657 40.9709 15.8704L40.2425 15.8989L40.389 15.6222C39.6135 15.2404 38.8449 14.8537 38.0859 14.4625C34.0393 12.3757 29.9268 10.2615 24.117 9.90931L22.9289 9.86049C18.3905 9.7643 13.8391 10.774 9.33838 12.8268L8.74837 13.0954V5.9461L8.98031 5.83217C13.5798 3.55528 18.2554 2.42386 22.9004 2.50778ZM22.8841 3.33786C18.4659 3.25823 14.0021 4.31797 9.58252 6.46693V11.8136C13.9946 9.89011 18.4667 8.93561 22.9451 9.03041L24.1699 9.07517C30.1709 9.43983 34.4174 11.6329 38.4684 13.722C39.3297 14.1659 40.1885 14.6045 41.0604 15.0281C41.1305 15.0239 41.2023 15.0212 41.2801 15.0159C41.3995 15.0079 41.5319 15.0037 41.6667 15.0037C45.4523 15.0039 48.9753 16.1198 51.9491 18.0189C58.2293 18.2484 65.1392 15.9073 72.4976 11.0324V5.97865C64.1854 11.0791 56.2639 13.1568 48.9217 12.074C44.1051 11.3642 40.4347 9.46413 36.9425 7.66322C32.6894 5.46998 28.7479 3.442 22.8841 3.33786ZM23.409 35.6621L23.4456 36.1137H22.994C22.9708 36.1137 22.9493 36.1102 22.9411 36.1097H22.9289C18.3883 36.0286 13.838 37.0259 9.33838 39.076L8.74837 39.3445V32.4679L8.98031 32.3499C13.5836 30.0731 18.2883 28.9406 22.9004 29.0255C23.0234 29.0278 23.1406 29.0371 23.2463 29.0459C23.3556 29.0549 23.4505 29.0622 23.5474 29.0662L24.0641 29.0906L23.9339 29.5871C23.5543 31.0585 23.3317 32.5881 23.3317 34.1688C23.3317 34.6655 23.3678 35.1586 23.409 35.6621ZM58.3333 34.1688C58.3331 43.358 50.856 50.8349 41.6667 50.8354C32.4768 50.8354 25.0002 43.3584 25 34.1688C25 24.9789 32.4767 17.5021 41.6667 17.5021C50.8562 17.5027 58.3333 24.9793 58.3333 34.1688ZM60.8236 34.2623C64.5537 33.1242 68.469 31.2106 72.4976 28.5413V23.744C68.2707 26.3382 64.1336 28.1472 60.144 29.1557C60.5791 30.754 60.8317 32.4315 60.8317 34.1688C60.8317 34.2003 60.8244 34.2314 60.8236 34.2623ZM9.58252 2.79261C13.9948 0.870665 18.4692 -0.0805698 22.9451 0.0053421C29.6038 0.124939 34.1469 2.4724 38.4684 4.70098C41.9379 6.4914 45.1595 8.1465 49.41 8.77406C56.602 9.83644 64.6049 7.43326 73.2259 1.5475C73.7356 1.1978 74.3986 1.16099 74.943 1.44984C75.4898 1.73789 75.8293 2.30301 75.8301 2.91875V55.6898C75.8301 56.2401 75.5579 56.7578 75.1017 57.0691C67.2892 62.4032 59.7927 65.1215 52.771 65.1217C51.4709 65.1217 50.1872 65.0276 48.9217 64.841C44.1057 64.1312 40.4343 62.2349 36.9425 60.4342C32.6894 58.241 28.7479 56.213 22.8841 56.1089C18.4659 56.0254 14.0027 57.0885 9.58252 59.2379V74.1671C9.58209 75.0862 8.83584 75.8314 7.91422 75.8314H1.66423C0.742991 75.8309 0.000429299 75.086 0 74.1671V1.66957C0 0.75036 0.742728 0.00171372 1.66423 0.00127309H7.91422C8.8361 0.00127309 9.58252 0.750088 9.58252 1.66957V2.79261Z" fill="white"/>
</svg>
