<svg width="76" height="72" viewBox="0 0 76 72" fill="none" xmlns="http://www.w3.org/2000/svg">
<path d="M9.28211 26.3097C9.6336 26.3097 9.98509 26.2509 10.3366 26.1921C11.9183 25.897 13.2654 25.0122 14.1441 23.7147C15.0223 22.4171 15.3738 20.8838 15.0812 19.3505C14.4956 16.1658 11.3911 14.0423 8.22763 14.632C6.64641 14.927 5.29935 15.8118 4.42062 17.1094C3.54189 18.4069 3.1904 19.9402 3.48347 21.4735C4.0107 24.3044 6.47066 26.3097 9.28211 26.3097ZM6.29491 18.4657C6.82215 17.6991 7.64197 17.1682 8.63803 16.9912C10.5707 16.6373 12.445 17.9348 12.7965 19.8221C12.9723 20.7069 12.7381 21.6505 12.2693 22.4171C11.7425 23.1838 10.9222 23.7147 9.92667 23.8916C7.99347 24.2455 6.11917 22.948 5.76768 21.0608C5.59193 20.176 5.76768 19.2324 6.29491 18.4657Z" fill="white"/>
<path d="M74.3591 18.1084C73.7145 18.0496 73.1289 18.4623 73.0704 19.1109C72.66 22.4731 70.7273 25.5397 67.9743 27.3681C66.7441 28.1936 65.3386 28.7245 63.8742 29.3735C63.2881 29.6092 62.644 29.9043 62.0583 30.1401C64.5767 27.0142 66.1 23.0035 66.1 18.6981C66.1 8.61297 57.9578 0.415039 47.9417 0.415039C37.9256 0.415039 29.725 8.61297 29.725 18.6981C29.725 28.7838 37.8667 36.9817 47.8833 36.9817C50.7531 36.9817 53.4478 36.3327 55.8493 35.1533C55.7909 35.2714 55.6735 35.3891 55.6151 35.4484C55.0879 36.1557 54.6191 36.8047 54.0918 37.3944C52.6864 38.9277 50.7531 39.9307 48.8788 40.8743L42.1431 44.413C41.3227 44.8257 40.3856 45.3566 39.6242 46.1232C38.5697 47.185 38.1014 48.4825 37.5742 49.7207C37.1642 50.7237 36.8127 51.6673 36.2266 52.3751C35.8167 52.8467 35.231 53.2599 34.587 53.7315C33.8251 54.2623 33.0637 54.7932 32.4196 55.6187C31.5993 56.6216 31.1894 57.801 30.8379 58.9804C30.6037 59.6294 30.3695 60.2779 30.1349 60.8088C30.1349 60.8088 30.1349 60.8088 30.1349 60.75L28.3195 50.9006C28.1438 49.8977 27.5576 49.0134 26.6794 48.5413L19.5916 43.587L18.596 38.338L21.9347 38.9277C21.9931 38.9277 22.052 38.9277 22.1689 38.9277C22.4031 38.9277 22.6377 38.8689 22.8719 38.692L30.1349 33.2661C31.131 32.4994 31.3651 31.1426 30.6621 30.0813L30.2522 29.3142L30.5453 29.0784C31.5409 28.3117 31.775 26.9554 31.0725 25.8936L30.3106 24.5373C30.3106 24.4779 30.2522 24.4191 30.1938 24.3603C29.8423 23.8294 29.2567 23.5343 28.6121 23.4167C27.968 23.2985 27.3819 23.4755 26.8551 23.8294L21.2902 27.9578L15.9598 27.0142C14.6712 26.7191 14.0271 26.6603 12.7969 26.896L8.11116 27.722C6.88094 27.9578 5.76805 28.6656 5.06506 29.6681C4.36208 30.671 4.06949 31.9092 4.30366 33.1479L6.88094 46.4772L7.99384 54.7932C8.05274 55.029 7.99384 55.3241 7.877 55.501C7.877 55.501 7.877 55.5599 7.81809 55.5599L4.24524 62.9323C3.95217 63.4632 3.89375 64.1117 4.01107 64.7014C4.18682 65.2911 4.59673 65.822 5.18239 66.1171L6.93936 67.0607C5.65072 67.4146 4.30366 67.6504 2.9566 67.7092C2.19519 67.7685 0.964974 68.1224 0.555062 69.1249C0.320897 69.7146 0.379316 70.3043 0.789228 70.8352C1.02339 71.1302 1.37489 71.2484 1.66796 71.2484C1.96054 71.2484 2.19519 71.1302 2.42936 70.9533C2.72243 70.7175 2.83927 70.4224 2.83927 70.0685C2.89818 70.0685 2.9566 70.0097 3.01502 70.0097C6.17796 69.8915 9.16564 68.8891 12.0939 67.8862C14.8469 66.9426 17.4831 66.1171 20.2362 65.9401C20.9976 65.8813 21.759 65.8813 22.5788 65.8813C23.6333 65.8813 24.7462 65.8813 25.8591 65.7632C27.6165 65.5862 29.9592 64.9377 31.4824 62.9323C32.2438 61.9294 32.6538 60.8088 33.0052 59.6882C33.3567 58.6858 33.6493 57.801 34.2355 57.0932C34.6454 56.5623 35.2895 56.1496 35.934 55.678C36.637 55.206 37.34 54.6751 37.9841 53.9672C38.8628 52.9648 39.3311 51.7854 39.7415 50.6055C40.1514 49.5443 40.5613 48.4825 41.2643 47.7747C41.7916 47.2438 42.4945 46.8899 43.197 46.536L49.9333 42.9973C51.866 41.9949 54.0918 40.815 55.732 39.0459C56.3765 38.338 56.9622 37.5714 57.4894 36.8636C58.0751 36.0381 58.6023 35.2714 59.3053 34.6812C60.7697 33.2661 62.7024 32.4401 64.7524 31.6146C66.2757 30.9656 67.857 30.3759 69.2629 29.4323C72.6016 27.25 74.9447 23.5343 75.4131 19.4648C75.472 18.7574 75.0032 18.1672 74.3591 18.1084ZM6.3537 63.9936L9.92704 56.6216C10.2785 55.9726 10.4543 55.1471 10.337 54.4393L9.22406 46.1232L6.7641 32.794C6.64677 32.2043 6.7641 31.6146 7.11511 31.0837C7.4666 30.5529 8.05274 30.1989 8.6384 30.0813L13.3241 29.2553C14.2029 29.0784 14.4959 29.1377 15.6088 29.3735L21.4659 30.4352C21.759 30.494 22.1105 30.4352 22.3446 30.1989L28.3195 25.7755L29.022 27.1323C29.022 27.1911 29.0809 27.1911 29.1393 27.25L28.6121 27.6632C28.4953 27.6039 28.3779 27.6039 28.2606 27.5451C27.6165 27.4269 27.0309 27.6039 26.5036 27.9578L20.9387 32.0862L13.9098 30.9656C13.2657 30.848 12.6801 31.3195 12.5627 31.9685C12.4454 32.617 12.9142 33.2067 13.5583 33.3249L20.9976 34.5636C21.2902 34.6224 21.6416 34.5636 21.8763 34.3273L27.9091 29.9043L28.6121 31.2607C28.6121 31.3195 28.6705 31.3195 28.7294 31.3788L21.8763 36.5096L13.2657 34.9175C12.6212 34.7994 12.0355 35.2121 11.9187 35.8611C11.8013 36.5096 12.2112 37.0993 12.8558 37.2175L16.1356 37.8072L17.3658 44.413C17.4242 44.7076 17.6 45.0027 17.8931 45.1796C17.9515 45.1796 17.9515 45.2384 18.0104 45.2384L25.3318 50.3697C25.3318 50.3697 25.3907 50.4286 25.4491 50.4286C25.7422 50.6055 25.9764 50.9006 26.0348 51.1952L27.8507 61.0451L25.5076 61.4578L24.0432 54.0854C23.8674 53.0829 23.2234 52.1982 22.3446 51.6673L14.7885 47.3619L14.7301 46.8311C14.6712 46.1821 14.1445 45.7105 13.4999 45.7105C12.8558 45.7693 12.387 46.3002 12.387 46.9492L12.9142 56.1496C12.9142 56.2084 12.9142 56.2084 12.9142 56.2677C12.9727 56.5035 12.9142 56.7986 12.7969 56.9755C12.7969 56.9755 12.7969 57.0344 12.7385 57.0344L8.75524 65.2911H8.69682L6.3537 64.0529C6.29528 64.0529 6.3537 63.9936 6.3537 63.9936ZM22.6377 63.522C21.8174 63.522 20.9976 63.522 20.1773 63.5808C17.1316 63.7578 14.2613 64.7607 11.4498 65.645C11.3325 65.7043 11.2157 65.7043 11.0984 65.7632L14.7885 58.0961C15.14 57.4471 15.3158 56.6804 15.1984 55.9726L14.9059 50.1928L21.1733 53.7315C21.4659 53.9084 21.7006 54.2035 21.759 54.4981L23.1649 62.0475C23.2818 62.696 23.6333 63.1681 24.1021 63.522C23.6333 63.522 23.106 63.522 22.6377 63.522ZM32.0681 18.6981C32.0681 9.9105 39.1554 2.77383 47.8833 2.77383C56.6107 2.77383 63.6985 9.9105 63.6985 18.6981C63.6985 27.4862 56.6107 34.6224 47.8833 34.6224C39.1554 34.6224 32.0681 27.4862 32.0681 18.6981Z" fill="white"/>
<path d="M46.7108 5.7441C40.2676 5.7441 34.9962 11.0524 34.9962 17.54C34.9962 18.1885 35.5235 18.7194 36.1676 18.7194C36.8121 18.7194 37.3394 18.1885 37.3394 17.54C37.3394 12.3499 41.5563 8.10338 46.7108 8.10338C47.3554 8.10338 47.8826 7.57251 47.8826 6.92399C47.8826 6.27498 47.3554 5.7441 46.7108 5.7441Z" fill="white"/>
<path d="M65.685 18.6971C65.6844 8.83984 57.723 0.830078 47.94 0.830078C38.1561 0.830985 30.1427 8.84215 30.1422 18.6971C30.1422 28.5553 38.0994 36.564 47.8831 36.5641C50.6892 36.5641 53.3227 35.9292 55.6671 34.7778L56.7657 34.2407L56.2245 35.3394C56.1399 35.5102 55.9894 35.6593 55.9275 35.7218C55.4139 36.4114 54.9377 37.0713 54.4016 37.6709L53.8238 38.2487C52.4337 39.5297 50.6986 40.4262 49.0672 41.2476L49.0631 41.2435L42.337 44.7835H42.3289C41.5187 45.1912 40.6321 45.6985 39.92 46.4152C38.9357 47.4063 38.4987 48.6138 37.9588 49.882C37.5611 50.8552 37.1831 51.8725 36.5468 52.6408L36.5427 52.6489C36.0946 53.1645 35.4602 53.6104 34.8338 54.069L34.8256 54.0731C34.0594 54.607 33.3466 55.1064 32.7464 55.8757L32.7423 55.8838C31.9792 56.8171 31.5866 57.9246 31.2368 59.0983L31.2286 59.1227C30.996 59.7674 30.7581 60.4316 30.5165 60.9782L29.7638 60.8154L29.7271 60.8236L29.7231 60.8073L29.719 60.7707L27.9083 50.9766C27.7519 50.0846 27.233 49.3142 26.4801 48.9095L26.4394 48.8851L19.3512 43.929L19.2128 43.8314L19.1803 43.6646L18.1874 38.4155L18.0735 37.8215L18.6676 37.9272L21.9635 38.5091H22.1669C22.322 38.5091 22.4695 38.4743 22.6227 38.3586L29.8858 32.9305C30.7045 32.2959 30.8934 31.1862 30.3131 30.3101L30.2927 30.2775L29.8858 29.5125L29.7231 29.2074L29.9916 28.9876L30.2846 28.7557L30.2927 28.7476C31.1147 28.1136 31.3052 27.0014 30.7241 26.123L30.7078 26.0986L29.9469 24.7396L29.898 24.6541L29.8696 24.6257L29.8452 24.589C29.5761 24.1838 29.1113 23.933 28.539 23.8281C28.0309 23.7354 27.552 23.8608 27.0986 24.1618L27.1026 24.1659L21.5403 28.2918L21.3938 28.3976L21.2188 28.3691L15.8884 27.4251L15.8681 27.4211C15.2303 27.275 14.7754 27.1933 14.3382 27.1729C13.9049 27.1527 13.4676 27.1932 12.8733 27.3071L8.18581 28.1291C7.2006 28.3187 6.30025 28.8414 5.66302 29.5776L5.40668 29.9072C4.7658 30.8216 4.50293 31.9454 4.71494 33.0689L7.29063 46.3989L7.2947 46.4233L8.40554 54.7363C8.47069 55.0488 8.40208 55.3977 8.25905 55.6559C8.25273 55.6742 8.25291 55.6967 8.24278 55.717C8.22677 55.7489 8.18852 55.7715 8.15733 55.8065L4.62136 63.1144L4.60915 63.1348C4.37711 63.5559 4.31839 64.0897 4.41384 64.5955C4.52432 64.957 4.74113 65.2881 5.04046 65.5314L5.37005 65.743L5.37819 65.7511L7.136 66.6952L8.0556 67.1875L7.05056 67.4642C5.73663 67.8251 4.35625 68.0671 2.97341 68.1274L2.96934 68.1234C2.63116 68.1519 2.19511 68.2469 1.8056 68.4367C1.41143 68.6288 1.09354 68.9019 0.938902 69.2749C0.756578 69.7341 0.802254 70.1706 1.11387 70.577L1.23187 70.6909C1.36153 70.7878 1.52226 70.8332 1.66725 70.8333C1.83008 70.8333 1.97452 70.7703 2.16774 70.6258C2.3492 70.4794 2.42409 70.3125 2.42409 70.0684V69.6533H2.76996C2.78484 69.6463 2.80295 69.6365 2.82285 69.6289C2.86056 69.6147 2.92244 69.5949 2.99782 69.5923C6.08977 69.4768 9.02257 68.498 11.9578 67.4927C14.7098 66.5494 17.3928 65.7047 20.2057 65.5233L21.3775 65.4704C21.7713 65.4629 22.1697 65.4663 22.5779 65.4663C23.6357 65.4663 24.7294 65.4637 25.8168 65.3483L26.4801 65.2629C28.0657 65.0022 29.908 64.3159 31.1513 62.679C31.8662 61.737 32.2592 60.6741 32.608 59.5622L32.6121 59.55C32.8696 58.8154 33.1105 58.0878 33.4869 57.4422L33.9142 56.8278C34.3713 56.2414 35.0847 55.7841 35.6882 55.3426L35.7005 55.3304C36.3901 54.8673 37.0621 54.3587 37.6739 53.6865C38.4927 52.7503 38.9385 51.6403 39.3463 50.4679L39.3544 50.4557C39.7553 49.4178 40.1931 48.2634 40.9698 47.4813C41.5532 46.8941 42.3194 46.51 43.0084 46.1629L49.7385 42.627C51.679 41.6205 53.8438 40.4691 55.427 38.7614C56.0533 38.0732 56.6245 37.324 57.1482 36.6211C57.5802 36.0123 58.0051 35.4019 58.5073 34.8674L59.0362 34.3628C60.5634 32.8964 62.5598 32.0474 64.5904 31.2297L66.8772 30.2531C67.6239 29.9136 68.3476 29.5431 69.0297 29.0853C72.2659 26.97 74.5449 23.3624 74.999 19.4173C75.0346 18.9174 74.7059 18.5574 74.3194 18.5221C73.8665 18.4817 73.5197 18.767 73.4853 19.1488V19.161C73.0601 22.6445 71.0596 25.8189 68.2078 27.714C66.9379 28.5661 65.4754 29.1169 64.0411 29.7526L64.0289 29.7607C63.7418 29.8762 63.4378 30.0062 63.1297 30.1392C62.8237 30.2712 62.5121 30.4058 62.2141 30.5257L60.7289 31.1239L61.734 29.8787C64.1951 26.8238 65.685 22.9035 65.685 18.6971ZM15.1113 49.8291L21.3775 53.3691L21.3897 53.3732C21.6652 53.5398 21.9161 53.7993 22.0611 54.1016L22.1669 54.4189L23.5748 61.971C23.6698 62.4961 23.9514 62.8848 24.352 63.1877L25.3448 63.9404H22.6389C21.8162 63.9404 21.0086 63.9398 20.2057 63.9974C17.224 64.1706 14.408 65.1531 11.5753 66.0441L11.5712 66.036C11.4892 66.07 11.4192 66.0983 11.3759 66.1092C11.3156 66.1244 11.2981 66.128 11.2864 66.1336L10.1918 66.6829L10.7249 65.5843L14.4114 57.9142L14.4236 57.898C14.7405 57.3126 14.8843 56.6398 14.7857 56.0425L14.7776 55.9937L14.4887 50.2157L14.4521 49.4588L15.1113 49.8291ZM28.6896 25.5819L29.3731 26.9084C29.3915 26.923 29.414 26.9368 29.4342 26.9572L29.7638 27.2909L29.3976 27.5798L28.8686 27.9907L28.6611 28.1535L28.4251 28.0355C28.4142 28.0299 28.3982 28.0228 28.3355 28.007C28.2994 27.9979 28.2437 27.9746 28.1769 27.95C27.6666 27.8591 27.1925 27.998 26.7364 28.304L21.1863 32.4219L21.048 32.5236L20.873 32.4992L13.8458 31.3761H13.8336C13.4514 31.307 13.0538 31.5852 12.971 32.0435C12.9007 32.4354 13.1851 32.8319 13.6342 32.9142L21.0642 34.1512L21.0805 34.1553C21.2746 34.1941 21.4702 34.1447 21.581 34.0332L21.6054 34.0088L21.6298 33.9925L27.6642 29.5695L28.0548 29.2806L28.2786 29.7119L28.9622 31.0384C28.9805 31.053 29.003 31.0668 29.0232 31.0872L29.3609 31.425L28.9785 31.7139L22.1262 36.8449L21.9798 36.9507L21.8007 36.9181L13.1907 35.3272C12.7782 35.2516 12.4054 35.5074 12.3281 35.9334C12.2517 36.3555 12.5118 36.7313 12.9303 36.8083L16.2099 37.3983L16.4907 37.4471L16.5436 37.7319L17.7765 44.3319L17.8904 44.6086C17.9424 44.6871 18.009 44.7551 18.0898 44.8079C18.0983 44.8118 18.1062 44.816 18.1142 44.8202H18.1427L18.2485 44.8975L25.5483 50.0122H25.5646L25.6663 50.0732C25.9415 50.2399 26.193 50.4964 26.3377 50.7975L26.4435 51.1149L28.2623 60.9701L28.3355 61.381L27.9246 61.4543L25.5808 61.8693L25.178 61.9385L25.1007 61.5397L23.6358 54.1667L23.6318 54.1585C23.479 53.2874 22.9188 52.5008 22.1384 52.0264L14.5823 47.7254L14.3992 47.6196L14.3748 47.408L14.3178 46.875L14.3137 46.8669C14.2743 46.4433 13.942 46.14 13.5203 46.1304C13.1079 46.1768 12.8046 46.5135 12.8041 46.9482L13.329 56.1239L13.3331 56.1483L13.329 56.2663C13.3767 56.568 13.3137 56.8963 13.1744 57.1411C13.1689 57.1558 13.1701 57.1741 13.1622 57.1899C13.1459 57.2227 13.1092 57.2475 13.0768 57.2835L9.01589 65.7064H8.59271L8.50319 65.6576L6.19199 64.4369C6.11034 64.407 6.01621 64.3505 5.95599 64.2293C5.85984 64.0341 5.94569 63.8595 5.95599 63.8387C5.96697 63.8164 5.98178 63.7979 5.99261 63.7817L9.553 56.4412L9.56113 56.425C9.87594 55.8437 10.0267 55.1101 9.92734 54.5085L9.92328 54.4963L8.81244 46.1955L6.35475 32.8735C6.21594 32.1734 6.35775 31.4733 6.76572 30.8553C7.1851 30.2219 7.87425 29.8082 8.55609 29.6712H8.56423L13.2436 28.8452L13.858 28.7516C14.0449 28.7343 14.2211 28.7307 14.4073 28.7435C14.762 28.7679 15.1419 28.849 15.6809 28.9632L21.5403 30.0252H21.5484C21.7432 30.0642 21.9386 30.0179 22.0489 29.9072L22.0693 29.8828L22.0978 29.8625L28.0711 25.4395L28.4658 25.1506L28.6896 25.5819ZM15.6158 55.953H15.6077C15.7268 56.7492 15.5316 57.5778 15.1601 58.2723L15.1642 58.2764L11.8927 65.0635C14.5102 64.2314 17.2515 63.3323 20.1487 63.1633L21.402 63.1144C21.8169 63.107 22.2306 63.1063 22.6389 63.1063H23.1435C22.9598 62.824 22.8208 62.4988 22.7529 62.1216L21.3491 54.5776C21.318 54.4246 21.1748 54.2206 20.9584 54.0894L15.3595 50.9277L15.6158 55.953ZM14.3504 29.5736C14.0791 29.5549 13.8259 29.5786 13.4063 29.6631L13.3982 29.6672L8.71071 30.4932L8.70664 30.4891C8.22163 30.5901 7.7426 30.8906 7.46153 31.3151C7.16998 31.7569 7.07827 32.2341 7.17263 32.7108V32.7189L9.63438 46.049L9.63845 46.0693L10.7493 54.3701L10.79 54.9967C10.7722 55.6249 10.583 56.2656 10.2976 56.7993L10.3017 56.8034L6.87966 63.8591L8.55609 64.742L12.4786 56.6162H12.4949C12.5151 56.5356 12.5295 56.4423 12.5112 56.368L12.499 56.3192V56.1727L11.97 46.9727V46.9482L11.9985 46.6349C12.1302 45.9228 12.7054 45.3655 13.4633 45.2962L13.4999 45.2922L13.8132 45.3247C14.5217 45.4573 15.0719 46.0312 15.1438 46.7855L15.1764 47.1029L22.5494 51.3062L22.5616 51.3102C23.5315 51.8965 24.2532 52.8774 24.4537 54.0039L25.8331 60.9741L27.3631 60.7056L25.6256 51.2777L25.5808 51.1515C25.521 51.0313 25.4107 50.9023 25.2634 50.8057C25.2046 50.7835 25.1598 50.7597 25.1373 50.7446C25.1202 50.7332 25.1052 50.7221 25.0925 50.7121L17.809 45.6055C17.8022 45.6023 17.7951 45.6007 17.7887 45.5973H17.7765L17.6788 45.5363C17.2722 45.2908 17.0367 44.8875 16.9586 44.4946L16.9545 44.4906L15.7745 38.1633L12.7838 37.6261C11.9141 37.4661 11.352 36.6613 11.5102 35.7869L11.5956 35.4736C11.8661 34.7842 12.5751 34.3689 13.3412 34.5093L21.7722 36.0636L28.1524 31.2866L27.7618 30.5257L22.1222 34.6639L22.1181 34.6558C21.7632 34.9784 21.2881 35.0484 20.9137 34.9731L13.4918 33.7362H13.4837C12.645 33.5823 11.9894 32.7977 12.1531 31.8929C12.3054 31.0546 13.0795 30.3894 13.9841 30.5542L20.8282 31.6447L21.9106 30.8431C21.7291 30.8714 21.5508 30.8748 21.3897 30.8431L15.5344 29.7852L15.5222 29.7811C14.9561 29.6612 14.6369 29.5933 14.3504 29.5736ZM31.7657 27.9867C31.6045 28.5293 31.2882 29.0312 30.8014 29.4067L30.777 29.4189L31.0089 29.8503C31.8331 31.0946 31.5589 32.6984 30.3904 33.5978L30.3823 33.6019L23.1231 39.0259C22.8874 39.2039 22.6449 39.2927 22.407 39.327L22.1669 39.3433H21.8984L21.8618 39.3392L19.1152 38.8509L19.9697 43.339L26.9073 48.1934C27.8922 48.7362 28.5366 49.725 28.7302 50.826L30.2846 59.2733C30.3369 59.1298 30.3945 58.9844 30.4474 58.8379C30.7989 57.6608 31.2247 56.4196 32.0953 55.3548C32.7801 54.4796 33.5877 53.9187 34.3414 53.3936L35.2366 52.7262C35.4966 52.5197 35.7196 52.3184 35.9039 52.1078C36.439 51.4615 36.7683 50.5958 37.1897 49.5646V49.5565C37.7038 48.3491 38.2061 46.961 39.33 45.8293C40.1402 45.0138 41.1249 44.4563 41.9545 44.0389L48.6847 40.507L48.6928 40.5029C50.3409 39.6732 51.9742 38.8252 53.2582 37.6424L53.7831 37.1134C54.0508 36.8139 54.3001 36.4964 54.5562 36.1613C52.4874 36.9586 50.2441 37.3983 47.8831 37.3983C40.9919 37.3982 34.9717 33.6059 31.7657 27.9867ZM17.6625 45.5119C17.6654 45.5144 17.6702 45.5164 17.6747 45.52C17.667 45.5127 17.6612 45.5065 17.6585 45.5037L17.6625 45.5119ZM63.2802 18.6971C63.2797 10.1374 56.3773 3.1901 47.8831 3.1901C39.3884 3.19022 32.4865 10.1374 32.4859 18.6971C32.4859 27.2577 39.3881 34.204 47.8831 34.2041C56.3777 34.2041 63.2802 27.2578 63.2802 18.6971ZM27.0457 27.2339C27.2773 27.1569 27.5175 27.1049 27.77 27.0955L28.3355 27.1362L28.3925 27.1444L28.4454 27.1729C28.4565 27.1784 28.4724 27.1834 28.5268 27.1973L28.5675 27.1647L28.1728 26.3997L27.0457 27.2339ZM8.15326 14.2212C11.5409 13.5909 14.8604 15.8623 15.4897 19.2708C15.8043 20.9194 15.4247 22.5674 14.4887 23.9502C13.5469 25.3401 12.1009 26.288 10.4116 26.6032H10.4034C10.0586 26.6609 9.67166 26.7253 9.28037 26.7253C6.27131 26.7244 3.64072 24.5802 3.07513 21.5535L2.98968 20.9351C2.86387 19.4966 3.25647 18.0845 4.07611 16.8742C5.01763 15.4847 6.46504 14.5367 8.15326 14.2212ZM14.6718 19.4255C14.1277 16.4678 11.2408 14.4957 8.30381 15.0431C6.83107 15.3181 5.57931 16.1379 4.76377 17.3421C4.04592 18.4022 3.71174 19.6238 3.81976 20.8618L3.893 21.3949C4.38382 24.0259 6.6698 25.8903 9.28037 25.8911C9.58942 25.8911 9.90607 25.8406 10.261 25.7813L10.8022 25.6551C12.0396 25.2971 13.0874 24.5361 13.801 23.4823C14.6213 22.2703 14.9421 20.8432 14.6718 19.4255ZM8.96706 16.5283C10.9741 16.3699 12.8365 17.7617 13.207 19.7428L13.2599 20.1213C13.3351 21.008 13.0728 21.9038 12.6251 22.6359L12.6129 22.6522C12.0945 23.4067 11.3253 23.9547 10.4034 24.2106L10.0006 24.3001C7.8457 24.6942 5.75421 23.2545 5.35785 21.1426L5.30495 20.7682C5.21859 19.8898 5.43264 18.9843 5.95192 18.2292C6.54459 17.3676 7.46317 16.7771 8.56423 16.5812L8.96706 16.5283ZM12.385 19.8975C12.0755 18.2393 10.4225 17.0875 8.71478 17.3991L8.71071 17.4032C7.82097 17.5614 7.10118 18.0306 6.63959 18.7012C6.29365 19.2042 6.11875 19.7967 6.11875 20.3898L6.17572 20.9798C6.48468 22.6387 8.14118 23.7942 9.85003 23.4823C10.74 23.324 11.4642 22.8512 11.9252 22.1802C12.3429 21.4878 12.5391 20.6568 12.3891 19.9015L12.385 19.8975ZM47.464 6.92546C47.464 6.50398 47.1228 6.16068 46.7112 6.16048C40.5008 6.16048 35.4116 11.2812 35.4116 17.5415C35.4124 17.9619 35.7576 18.3024 36.1684 18.3024C36.5794 18.3019 36.9204 17.9615 36.9212 17.5415C36.9212 12.124 41.3238 7.68636 46.7112 7.68636C47.1224 7.68617 47.4632 7.34566 47.464 6.92546ZM64.1144 18.6971C64.1144 27.7126 56.8433 35.0383 47.8831 35.0383C38.9225 35.0381 31.6518 27.7126 31.6518 18.6971C31.6523 9.68261 38.9228 2.35607 47.8831 2.35596C56.843 2.35596 64.1138 9.68253 64.1144 18.6971ZM63.3006 29.1585C63.4363 29.1011 63.5712 29.045 63.7034 28.9917C65.1979 28.3293 66.5533 27.8212 67.7439 27.0223L68.2322 26.6764C70.6242 24.8877 72.2845 22.0964 72.6552 19.0592C72.7447 18.1531 73.5659 17.6164 74.3967 17.6921C75.2948 17.7741 75.9043 18.5909 75.829 19.4987V19.5109C75.3464 23.7049 72.9307 27.5318 69.4895 29.7811L69.4854 29.777C68.0389 30.7465 66.4121 31.3613 64.9159 31.9987L64.9078 32.0028C62.8497 32.8315 60.9911 33.6308 59.5937 34.9813L59.5733 35.0016C58.9203 35.5501 58.4232 36.266 57.8277 37.1053L57.8237 37.1134C57.2955 37.8225 56.7004 38.6033 56.0414 39.327L56.0374 39.3311C54.3407 41.1606 52.0494 42.3694 50.1251 43.3675L43.3909 46.9035L43.3827 46.9076C42.6678 47.2678 42.0304 47.5936 41.5598 48.0672C40.9306 48.7008 40.5505 49.6724 40.1316 50.7568C39.7204 51.9378 39.2283 53.1766 38.2965 54.2399L38.2924 54.2481C37.6206 54.9864 36.8882 55.5313 36.1765 56.0099L36.1806 56.014C35.4988 56.5128 34.9281 56.8786 34.5652 57.3486L34.5571 57.3608C34.029 57.9989 33.7568 58.8016 33.3974 59.8267C33.0442 60.951 32.6183 62.1247 31.8146 63.1836C30.3922 65.056 28.3136 65.8052 26.6062 66.0848L25.9023 66.1784C24.7642 66.2991 23.6288 66.2964 22.5779 66.2964C21.7555 66.2964 21.0091 66.3001 20.2667 66.3574C17.5752 66.5305 14.9828 67.3387 12.2304 68.2821C9.36716 69.2627 6.38392 70.2571 3.22162 70.4102C3.17848 70.6282 3.09202 70.8326 2.94899 71.0164L2.68044 71.285C2.40987 71.4895 2.08707 71.6634 1.66725 71.6634C1.27438 71.6632 0.791342 71.5078 0.462828 71.0938L0.458759 71.0897C-0.0459007 70.4358 -0.119458 69.6881 0.16579 68.9697L0.169859 68.9657C0.426169 68.3401 0.932287 67.9371 1.44346 67.688C1.95387 67.4397 2.50451 67.326 2.92458 67.2933H2.93679C3.88956 67.2517 4.84529 67.1134 5.78102 66.9108L4.9835 66.4836C4.29463 66.1317 3.81689 65.506 3.61224 64.8193L3.60003 64.7827C3.47018 64.1255 3.52994 63.3799 3.86859 62.7523L7.44118 55.3792L7.55511 55.1432H7.57546C7.59596 55.0622 7.60607 54.9691 7.58766 54.895L7.57953 54.8503L6.47276 46.5576L3.893 33.2275C3.63783 31.8747 3.95862 30.5177 4.72308 29.4271C5.49018 28.3337 6.69917 27.5668 8.03119 27.3112H8.03932L12.7187 26.4852L13.5895 26.3591C13.8598 26.3344 14.1153 26.3267 14.3748 26.3387C14.8831 26.3623 15.3909 26.4571 16.0309 26.6032L21.1863 27.5147L26.6062 23.4945L26.6225 23.4823L27.0864 23.2218C27.5692 22.998 28.1049 22.9001 28.6855 23.0062C29.1308 23.0875 29.5643 23.2626 29.9387 23.5311C29.5289 21.9888 29.308 20.368 29.308 18.6971C29.3086 8.3838 37.694 0.000906133 47.94 0C58.1886 0 66.5145 8.38499 66.5151 18.6971C66.5151 22.5499 65.3233 26.1719 63.3006 29.1585ZM48.2981 6.92546C48.2973 7.80072 47.5878 8.52032 46.7112 8.52051C41.7895 8.52051 37.7553 12.5788 37.7553 17.5415C37.7545 18.4166 37.0448 19.1361 36.1684 19.1366C35.292 19.1366 34.5823 18.4168 34.5815 17.5415C34.5815 10.8265 40.0352 5.32634 46.7112 5.32634C47.5884 5.32653 48.2981 6.04915 48.2981 6.92546Z" fill="white"/>
</svg>
