<svg width="63" height="75" viewBox="0 0 63 75" fill="none" xmlns="http://www.w3.org/2000/svg">
<path d="M53.8438 43.4026C53.6703 43.4026 53.6703 43.4026 53.8438 43.4026L53.6703 41.8404C53.6703 40.9724 52.9781 40.2777 52.1125 40.1044C51.5927 40.1044 51.0734 39.9304 50.5542 39.9304L50.3807 39.757C47.0917 36.8056 43.4557 34.7223 39.6469 33.5069C45.187 30.5555 48.9958 24.6527 48.9958 17.8818C48.9958 7.98619 41.0318 0 31.1635 0C21.2953 0 13.3312 7.98619 13.3312 17.8818C13.3312 24.6527 17.1401 30.5555 22.6802 33.5069C18.8714 34.7223 15.2354 36.8056 11.9464 39.5831C11.9464 39.5831 11.7729 39.757 11.7729 39.9304C11.2536 39.9304 10.7344 39.9304 10.2146 40.1044C9.34896 40.2777 8.65677 40.9724 8.65677 41.8404V43.2292C8.48333 43.4026 8.31042 43.4026 8.31042 43.5765C3.11667 50.3473 0 59.5483 0 68.2292C0 69.2706 0.692708 69.9652 1.73125 69.9652H8.82969C8.82969 70.3125 9.00312 70.6598 9.34896 70.8332C9.69531 71.1806 10.2146 71.354 10.7344 71.354C23.0266 70.1386 30.2979 74.6527 30.2979 74.8266C30.2979 74.8266 30.4708 74.8266 30.4708 75H30.6443C30.8172 75 30.8172 75 30.9906 75H31.1635C31.3365 75 31.5099 75 31.6828 75C31.6828 75 31.6828 75 31.8563 75C32.0292 75 32.0292 75 32.2021 74.8266C32.2021 74.8266 39.474 70.1386 51.7661 71.354C52.2854 71.354 52.8047 71.1806 53.151 70.8332C53.324 70.6598 53.4974 70.3125 53.6703 69.9652H60.7688C61.8078 69.9652 62.5 69.2706 62.5 68.2292C62.5 58.8542 59.3839 50 53.8438 43.4026ZM16.7938 17.8818C16.7938 9.89565 23.1995 3.47212 31.1635 3.47212C39.1276 3.47212 45.5333 9.89565 45.5333 17.8818C45.5333 25.868 39.1276 32.2916 31.1635 32.2916C23.1995 32.2916 16.7938 25.868 16.7938 17.8818ZM44.8406 39.9304C37.7427 40.4511 33.0682 42.5345 31.1635 43.5765C29.2594 42.5345 24.5844 40.4511 17.4865 39.9304C21.6411 37.1529 26.3161 35.7637 31.1635 35.7637C36.0109 35.7637 40.6859 37.1529 44.8406 39.9304ZM8.65677 49.3054V66.4931H3.4625C3.63594 60.5903 5.5401 54.3402 8.65677 49.3054ZM50.2078 67.7084C40.1661 67.0138 33.5875 69.9652 31.1635 71.354C28.7396 70.1386 22.1609 67.1877 12.1193 67.7084V43.4026C23.3729 42.7084 30.125 46.8752 30.2979 46.8752C30.4708 46.8752 30.6443 47.0486 30.6443 47.0486H30.8172C30.9906 47.0486 31.1635 47.0486 31.3365 47.0486H31.5099C31.6828 47.0486 31.8562 46.8752 32.0292 46.8752C32.0292 46.8752 32.0292 46.8752 32.2021 46.8752C32.3755 46.7013 38.9542 42.5345 50.2078 43.4026V67.7084ZM53.6703 66.4931V49.3054C56.787 54.3402 58.6911 60.243 58.8646 66.4931H53.6703Z" fill="white"/>
</svg>
